<?xml version="1.0" encoding="UTF-8"?>
<!-- Generator: CustomSymbols v2.6.2.41 by @serious_bret https://bretlester.com/app_content/CustomSymbols/ -->
<!-- Guides: Left/Right 0.0/0.0 Cap/Base 0.227/0.127 -->
<!-- Settings: RefScale 1.0 Min/Max Stroke Scales 0.5/2.21 -->
<!DOCTYPE svg
PUBLIC "-//W3C//DTD SVG 1.1//EN"
       "http://www.w3.org/Graphics/SVG/1.1/DTD/svg11.dtd">
<svg version="1.1" xmlns="http://www.w3.org/2000/svg" xmlns:xlink="http://www.w3.org/1999/xlink" width="3300" height="2200">
<![CDATA[<svg width="32" height="32" viewBox="0 0 32 32" fill="none" xmlns="http://www.w3.org/2000/svg">
<path d="M16 29.3333C23.3638 29.3333 29.3333 23.3638 29.3333 16C29.3333 8.63621 23.3638 2.66667 16 2.66667C8.63621 2.66667 2.66667 8.63621 2.66667 16C2.66667 23.3638 8.63621 29.3333 16 29.3333Z" stroke="#B20000" stroke-width="3" stroke-linecap="round" stroke-linejoin="round"/>
<path d="M16 10.6667L10.6667 18.6667H21.3333L16 10.6667Z" stroke="#B20000" stroke-width="3" stroke-linecap="round" stroke-linejoin="round"/>
</svg>
]]>
 <g id="Notes">
  <rect height="2200" id="artboard" style="fill:white;opacity:1" width="3300" x="0" y="0"/>
  <line id="" style="fill:none;stroke:black;opacity:1;stroke-width:0.5;" x1="263" x2="3036" y1="292" y2="292"/>
  <text id="reftext1" style="stroke:none;fill:black;font-family:-apple-system,&quot;SF Pro Display&quot;,&quot;SF Pro Text&quot;,Helvetica,sans-serif;font-weight:bold;" transform="matrix(1 0 0 1 263 322)">Weight/Scale Variations</text>
  <text id="reftext2" style="stroke:none;fill:black;font-family:-apple-system,&quot;SF Pro Display&quot;,&quot;SF Pro Text&quot;,Helvetica,sans-serif;text-anchor:middle;" transform="matrix(1 0 0 1 559.711 322)">Ultralight</text>
  <text style="stroke:none;fill:black;font-family:-apple-system,&quot;SF Pro Display&quot;,&quot;SF Pro Text&quot;,Helvetica,sans-serif;text-anchor:middle;" transform="matrix(1 0 0 1 856.422 322)">Thin</text>
  <text style="stroke:none;fill:black;font-family:-apple-system,&quot;SF Pro Display&quot;,&quot;SF Pro Text&quot;,Helvetica,sans-serif;text-anchor:middle;" transform="matrix(1 0 0 1 1153.13 322)">Light</text>
  <text style="stroke:none;fill:black;font-family:-apple-system,&quot;SF Pro Display&quot;,&quot;SF Pro Text&quot;,Helvetica,sans-serif;text-anchor:middle;" transform="matrix(1 0 0 1 1449.84 322)">Regular</text>
  <text style="stroke:none;fill:black;font-family:-apple-system,&quot;SF Pro Display&quot;,&quot;SF Pro Text&quot;,Helvetica,sans-serif;text-anchor:middle;" transform="matrix(1 0 0 1 1746.56 322)">Medium</text>
  <text style="stroke:none;fill:black;font-family:-apple-system,&quot;SF Pro Display&quot;,&quot;SF Pro Text&quot;,Helvetica,sans-serif;text-anchor:middle;" transform="matrix(1 0 0 1 2043.27 322)">Semibold</text>
  <text style="stroke:none;fill:black;font-family:-apple-system,&quot;SF Pro Display&quot;,&quot;SF Pro Text&quot;,Helvetica,sans-serif;text-anchor:middle;" transform="matrix(1 0 0 1 2339.98 322)">Bold</text>
  <text style="stroke:none;fill:black;font-family:-apple-system,&quot;SF Pro Display&quot;,&quot;SF Pro Text&quot;,Helvetica,sans-serif;text-anchor:middle;" transform="matrix(1 0 0 1 2636.69 322)">Heavy</text>
  <text style="stroke:none;fill:black;font-family:-apple-system,&quot;SF Pro Display&quot;,&quot;SF Pro Text&quot;,Helvetica,sans-serif;text-anchor:middle;" transform="matrix(1 0 0 1 2933.4 322)">Black</text>
  <line id="" style="fill:none;stroke:black;opacity:1;stroke-width:0.5;" x1="263" x2="3036" y1="1903" y2="1903"/>
  <g id="" transform="matrix(1 0 0 1 263 1933)">
   <path d="M9.24805 0.830078C13.5547 0.830078 17.1387-2.74414 17.1387-7.05078C17.1387-11.3574 13.5449-14.9316 9.23828-14.9316C4.94141-14.9316 1.36719-11.3574 1.36719-7.05078C1.36719-2.74414 4.95117 0.830078 9.24805 0.830078ZM9.24805-0.654297C5.70312-0.654297 2.87109-3.49609 2.87109-7.05078C2.87109-10.6055 5.69336-13.4473 9.23828-13.4473C12.793-13.4473 15.6348-10.6055 15.6445-7.05078C15.6543-3.49609 12.8027-0.654297 9.24805-0.654297ZM6.39648-6.31836L8.50586-6.31836L8.50586-4.19922C8.50586-3.75977 8.79883-3.45703 9.22852-3.45703C9.67773-3.45703 9.9707-3.75977 9.9707-4.19922L9.9707-6.31836L12.0996-6.31836C12.5391-6.31836 12.8418-6.61133 12.8418-7.04102C12.8418-7.48047 12.5391-7.7832 12.0996-7.7832L9.9707-7.7832L9.9707-9.89258C9.9707-10.3418 9.67773-10.6445 9.22852-10.6445C8.79883-10.6445 8.50586-10.3418 8.50586-9.89258L8.50586-7.7832L6.39648-7.7832C5.94727-7.7832 5.64453-7.48047 5.64453-7.04102C5.64453-6.61133 5.94727-6.31836 6.39648-6.31836Z"/>
  </g>
  <g id="" transform="matrix(1 0 0 1 281.506 1933)">
   <path d="M11.709 2.91016C17.1582 2.91016 21.6699-1.61133 21.6699-7.05078C21.6699-12.5 17.1484-17.0117 11.6992-17.0117C6.25977-17.0117 1.74805-12.5 1.74805-7.05078C1.74805-1.61133 6.26953 2.91016 11.709 2.91016ZM11.709 1.25C7.09961 1.25 3.41797-2.44141 3.41797-7.05078C3.41797-11.6602 7.08984-15.3516 11.6992-15.3516C16.3086-15.3516 20-11.6602 20.0098-7.05078C20.0195-2.44141 16.3184 1.25 11.709 1.25ZM7.98828-6.23047L10.8789-6.23047L10.8789-3.32031C10.8789-2.83203 11.2109-2.5 11.6895-2.5C12.1777-2.5 12.5195-2.83203 12.5195-3.32031L12.5195-6.23047L15.4297-6.23047C15.918-6.23047 16.25-6.5625 16.25-7.04102C16.25-7.5293 15.918-7.87109 15.4297-7.87109L12.5195-7.87109L12.5195-10.7617C12.5195-11.2695 12.1777-11.6016 11.6895-11.6016C11.2109-11.6016 10.8789-11.2598 10.8789-10.7617L10.8789-7.87109L7.98828-7.87109C7.48047-7.87109 7.14844-7.5293 7.14844-7.04102C7.14844-6.5625 7.49023-6.23047 7.98828-6.23047Z"/>
  </g>
  <g id="" transform="matrix(1 0 0 1 304.924 1933)">
   <path d="M14.9707 5.66406C21.9336 5.66406 27.6953-0.0976562 27.6953-7.05078C27.6953-14.0137 21.9238-19.7754 14.9609-19.7754C8.00781-19.7754 2.25586-14.0137 2.25586-7.05078C2.25586-0.0976562 8.01758 5.66406 14.9707 5.66406ZM14.9707 3.84766C8.93555 3.84766 4.08203-1.01562 4.08203-7.05078C4.08203-13.0957 8.92578-17.9492 14.9609-17.9492C21.0059-17.9492 25.8594-13.0957 25.8691-7.05078C25.8789-1.01562 21.0156 3.84766 14.9707 3.84766ZM10.0586-6.14258L14.0625-6.14258L14.0625-2.12891C14.0625-1.5918 14.4336-1.2207 14.9512-1.2207C15.4883-1.2207 15.8594-1.5918 15.8594-2.12891L15.8594-6.14258L19.8828-6.14258C20.4102-6.14258 20.791-6.51367 20.791-7.03125C20.791-7.56836 20.4199-7.94922 19.8828-7.94922L15.8594-7.94922L15.8594-11.9531C15.8594-12.5098 15.4883-12.8809 14.9512-12.8809C14.4336-12.8809 14.0625-12.5 14.0625-11.9531L14.0625-7.94922L10.0586-7.94922C9.50195-7.94922 9.13086-7.56836 9.13086-7.03125C9.13086-6.51367 9.51172-6.14258 10.0586-6.14258Z"/>
  </g>
  <text style="stroke:none;fill:black;font-family:-apple-system,&quot;SF Pro Display&quot;,&quot;SF Pro Text&quot;,Helvetica,sans-serif;font-weight:bold;" transform="matrix(1 0 0 1 263 1953)">Design Variations</text>
  <text style="stroke:none;fill:black;font-family:-apple-system,&quot;SF Pro Display&quot;,&quot;SF Pro Text&quot;,Helvetica,sans-serif;" transform="matrix(1 0 0 1 263 1971)">Symbols are supported in up to nine weights and three scales.</text>
  <text style="stroke:none;fill:black;font-family:-apple-system,&quot;SF Pro Display&quot;,&quot;SF Pro Text&quot;,Helvetica,sans-serif;" transform="matrix(1 0 0 1 263 1989)">For optimal layout with text and other symbols, vertically align</text>
  <text style="stroke:none;fill:black;font-family:-apple-system,&quot;SF Pro Display&quot;,&quot;SF Pro Text&quot;,Helvetica,sans-serif;" transform="matrix(1 0 0 1 263 2007)">symbols with the adjacent text.</text>
  <line id="" style="fill:none;stroke:#00AEEF;stroke-width:0.5;opacity:1.0;" x1="776" x2="776" y1="1919" y2="1933"/>
  <g id="" transform="matrix(1 0 0 1 776 1933)">
   <path d="M3.31055 0.126953C3.82812 0.126953 4.08203-0.0683594 4.26758-0.605469L5.52734-4.0625L11.2891-4.0625L12.5488-0.605469C12.7344-0.0683594 12.9883 0.126953 13.4961 0.126953C14.0137 0.126953 14.3457-0.185547 14.3457-0.673828C14.3457-0.839844 14.3164-0.986328 14.2383-1.20117L9.6582-13.3887C9.43359-13.9941 9.0332-14.2871 8.4082-14.2871C7.80273-14.2871 7.39258-13.9941 7.17773-13.3984L2.59766-1.19141C2.51953-0.976562 2.49023-0.830078 2.49023-0.664062C2.49023-0.175781 2.80273 0.126953 3.31055 0.126953ZM6.00586-5.53711L8.37891-12.1094L8.42773-12.1094L10.8008-5.53711Z"/>
  </g>
  <line id="" style="fill:none;stroke:#00AEEF;stroke-width:0.5;opacity:1.0;" x1="792.836" x2="792.836" y1="1919" y2="1933"/>
  <text style="stroke:none;fill:black;font-family:-apple-system,&quot;SF Pro Display&quot;,&quot;SF Pro Text&quot;,Helvetica,sans-serif;font-weight:bold;" transform="matrix(1 0 0 1 776 1953)">Margins</text>
  <text style="stroke:none;fill:black;font-family:-apple-system,&quot;SF Pro Display&quot;,&quot;SF Pro Text&quot;,Helvetica,sans-serif;" transform="matrix(1 0 0 1 776 1971)">Leading and trailing margins on the left and right side of each symbol</text>
  <text style="stroke:none;fill:black;font-family:-apple-system,&quot;SF Pro Display&quot;,&quot;SF Pro Text&quot;,Helvetica,sans-serif;" transform="matrix(1 0 0 1 776 1989)">can be adjusted by modifying the x-location of the margin guidelines.</text>
  <text style="stroke:none;fill:black;font-family:-apple-system,&quot;SF Pro Display&quot;,&quot;SF Pro Text&quot;,Helvetica,sans-serif;" transform="matrix(1 0 0 1 776 2007)">Modifications are automatically applied proportionally to all</text>
  <text style="stroke:none;fill:black;font-family:-apple-system,&quot;SF Pro Display&quot;,&quot;SF Pro Text&quot;,Helvetica,sans-serif;" transform="matrix(1 0 0 1 776 2025)">scales and weights.</text>
  <g id="" transform="matrix(1 0 0 1 1289 1933)">
   <path d="M2.8418 1.86523L4.54102 3.57422C5.40039 4.44336 6.38672 4.38477 7.31445 3.35938L17.4902-7.85156C17.7539-7.76367 18.0273-7.7832 18.3398-7.8418L19.4043-8.03711L20.0684-7.36328L20.0293-6.80664C19.9902-6.30859 20.1172-5.92773 20.6055-5.44922L21.3672-4.70703C21.8457-4.22852 22.4609-4.19922 22.9297-4.66797L25.8398-7.58789C26.3086-8.05664 26.2891-8.65234 25.8105-9.13086L25.0391-9.89258C24.5605-10.3711 24.1895-10.5273 23.7109-10.4883L23.1348-10.4395L22.4902-11.0742L22.7344-12.1973C22.8613-12.7637 22.7051-13.2031 22.1191-13.7891L19.9219-15.9766C16.582-19.2969 12.1484-19.2188 9.25781-16.3281C8.83789-15.918 8.80859-15.3418 9.04297-14.9512C9.27734-14.5898 9.73633-14.3555 10.3809-14.5215C11.8457-14.8633 13.3691-14.9219 14.7949-13.9844L14.209-12.5293C14.0137-12.0508 13.9844-11.6504 14.1113-11.2891L3.04688-0.898438C2.06055 0.0195312 1.98242 0.996094 2.8418 1.86523ZM10.752-15.957C13.1836-17.7344 16.4746-17.4316 18.7012-15.2051L21.1328-12.793C21.3672-12.5586 21.4062-12.373 21.3379-12.0312L21.0156-10.5469L22.5195-9.0625L23.5059-9.12109C23.7598-9.13086 23.8379-9.11133 24.0332-8.91602L24.6094-8.33984L22.168-5.89844L21.5918-6.47461C21.3965-6.66992 21.3672-6.74805 21.377-7.01172L21.4453-7.98828L19.9512-9.47266L18.4277-9.21875C18.1055-9.15039 17.959-9.17969 17.7148-9.41406L15.7129-11.416C15.459-11.6504 15.4297-11.8164 15.5859-12.1875L16.4648-14.2773C14.9023-15.7324 12.8711-16.3574 10.8398-15.7617C10.6836-15.7227 10.625-15.8496 10.752-15.957ZM5.27344 2.30469L4.10156 1.14258C3.63281 0.683594 3.74023 0.341797 4.14062-0.0195312L14.9512-10.1953L16.416-8.71094L6.42578 2.27539C6.07422 2.67578 5.74219 2.77344 5.27344 2.30469Z"/>
  </g>
  <text style="stroke:none;fill:black;font-family:-apple-system,&quot;SF Pro Display&quot;,&quot;SF Pro Text&quot;,Helvetica,sans-serif;font-weight:bold;" transform="matrix(1 0 0 1 1289 1953)">Exporting</text>
  <text style="stroke:none;fill:black;font-family:-apple-system,&quot;SF Pro Display&quot;,&quot;SF Pro Text&quot;,Helvetica,sans-serif;" transform="matrix(1 0 0 1 1289 1971)">Symbols should be outlined when exporting to ensure the</text>
  <text style="stroke:none;fill:black;font-family:-apple-system,&quot;SF Pro Display&quot;,&quot;SF Pro Text&quot;,Helvetica,sans-serif;" transform="matrix(1 0 0 1 1289 1989)">design is preserved when submitting to Xcode.</text>
  <text id="template-version" style="stroke:none;fill:black;font-family:-apple-system,&quot;SF Pro Display&quot;,&quot;SF Pro Text&quot;,Helvetica,sans-serif;text-anchor:end;" transform="matrix(1 0 0 1 3036 1933)">Template v.2.0</text>
  <text style="stroke:none;fill:black;font-family:-apple-system,&quot;SF Pro Display&quot;,&quot;SF Pro Text&quot;,Helvetica,sans-serif;text-anchor:end;" transform="matrix(1 0 0 1 3036 1951)">Requires Xcode 12 or greater</text>
  <text style="stroke:none;fill:black;font-family:-apple-system,&quot;SF Pro Display&quot;,&quot;SF Pro Text&quot;,Helvetica,sans-serif;" transform="matrix(1 0 0 1 263 726)">Small</text>
  <text style="stroke:none;fill:black;font-family:-apple-system,&quot;SF Pro Display&quot;,&quot;SF Pro Text&quot;,Helvetica,sans-serif;" transform="matrix(1 0 0 1 263 1156)">Medium</text>
  <text style="stroke:none;fill:black;font-family:-apple-system,&quot;SF Pro Display&quot;,&quot;SF Pro Text&quot;,Helvetica,sans-serif;" transform="matrix(1 0 0 1 263 1586)">Large</text>
 </g>
 <g id="Guides">
  <g id="H-reference" style="fill:#27AAE1;stroke:none;" transform="matrix(1 0 0 1 339 696)">
   <path d="M0.976562 0L3.66211 0L12.9883-24.4629L45.752-24.4629L55.127 0L57.7637 0L30.6152-70.459L28.125-70.459ZM29.3457-67.1387L29.4434-67.1387L44.873-26.709L13.8672-26.709Z"/>
  </g>
  <line id="Baseline-S" style="fill:none;stroke:#27AAE1;opacity:1;stroke-width:0.5;" x1="263" x2="3036" y1="696" y2="696"/>
  <line id="Capline-S" style="fill:none;stroke:#27AAE1;opacity:1;stroke-width:0.5;" x1="263" x2="3036" y1="625.541" y2="625.541"/>
  <g id="H-reference" style="fill:#27AAE1;stroke:none;" transform="matrix(1 0 0 1 339 1126)">
   <path d="M0.976562 0L3.66211 0L12.9883-24.4629L45.752-24.4629L55.127 0L57.7637 0L30.6152-70.459L28.125-70.459ZM29.3457-67.1387L29.4434-67.1387L44.873-26.709L13.8672-26.709Z"/>
  </g>
  <line id="Baseline-M" style="fill:none;stroke:#27AAE1;opacity:1;stroke-width:0.5;" x1="263" x2="3036" y1="1126" y2="1126"/>
  <line id="Capline-M" style="fill:none;stroke:#27AAE1;opacity:1;stroke-width:0.5;" x1="263" x2="3036" y1="1055.54" y2="1055.54"/>
  <g id="H-reference" style="fill:#27AAE1;stroke:none;" transform="matrix(1 0 0 1 339 1556)">
   <path d="M0.976562 0L3.66211 0L12.9883-24.4629L45.752-24.4629L55.127 0L57.7637 0L30.6152-70.459L28.125-70.459ZM29.3457-67.1387L29.4434-67.1387L44.873-26.709L13.8672-26.709Z"/>
  </g>
  <line id="Baseline-L" style="fill:none;stroke:#27AAE1;opacity:1;stroke-width:0.5;" x1="263" x2="3036" y1="1556" y2="1556"/>
  <line id="Capline-L" style="fill:none;stroke:#27AAE1;opacity:1;stroke-width:0.5;" x1="263" x2="3036" y1="1485.54" y2="1485.54"/>
  <line id="left-margin" x1="1396.5944265189628" x2="1396.5944265189628" y1="1030.79" y2="1150.12" style="fill:none;stroke:#00AEEF;stroke-width:0.5;opacity:1.0;"/>
  <line id="right-margin" x1="1505.665573481037" x2="1505.665573481037" y1="1030.79" y2="1150.12" style="fill:none;stroke:#00AEEF;stroke-width:0.5;opacity:1.0;"/>
 </g>
 <g id="Symbols">
  <g id="Black-L" transform="matrix(1.0,0.0,0.0,1.0,2864.3291102094618,1443.3840407616583)">  <path stroke-miterlimit="4" fill-rule="nonzero" stroke-linecap="round" fill="#000000" stroke-opacity="1" fill-opacity="1" stroke-dasharray="none" stroke="none" stroke-linejoin="round" stroke-width="3px" d="M70.351,143.552C110.779,143.552,143.552,110.779,143.552,70.351C143.552,29.923,110.779,-2.851,70.351,-2.851C29.923,-2.851,-2.851,29.923,-2.851,70.351C-2.851,110.779,29.923,143.552,70.351,143.552ZM70.351,114.401C46.023,114.401,26.301,94.679,26.301,70.351C26.301,46.023,46.023,26.301,70.351,26.301C94.679,26.301,114.401,46.023,114.401,70.351C114.401,94.679,94.679,114.401,70.351,114.401Z"/>
  <path stroke-linecap="round" stroke-dasharray="none" stroke-miterlimit="4" stroke-width="3px" fill-rule="nonzero" stroke-opacity="1" fill-opacity="1" stroke-linejoin="round" stroke="none" fill="#000000" d="M58.223,38.816L34.773,73.991C28.315,83.677,35.259,96.652,46.901,96.652L93.801,96.652C105.443,96.652,112.386,83.677,105.929,73.991L82.479,38.816C76.709,30.161,63.992,30.161,58.223,38.816ZM82.479,54.986L58.223,54.986L81.673,90.161L93.801,67.5L46.901,67.5L59.029,90.161L82.479,54.986Z"/>
</g>
  <g id="Heavy-L" transform="matrix(1.0,0.0,0.0,1.0,2567.6191102094617,1443.3840407616583)">  <path fill="#000000" stroke-opacity="1" fill-rule="nonzero" stroke="none" fill-opacity="1" stroke-width="3px" stroke-linejoin="round" stroke-miterlimit="4" stroke-dasharray="none" stroke-linecap="round" d="M70.351,141.956C109.898,141.956,141.956,109.898,141.956,70.351C141.956,30.804,109.897,-1.255,70.351,-1.255C30.804,-1.255,-1.255,30.804,-1.255,70.351C-1.255,109.897,30.804,141.956,70.351,141.956ZM70.351,115.997C45.141,115.997,24.705,95.56,24.705,70.351C24.705,45.141,45.141,24.705,70.351,24.705C95.56,24.705,115.997,45.141,115.997,70.351C115.997,95.56,95.56,115.997,70.351,115.997Z"/>
  <path fill-opacity="1" stroke="none" stroke-linecap="round" stroke-width="3px" fill-rule="nonzero" fill="#000000" stroke-dasharray="none" stroke-opacity="1" stroke-miterlimit="4" stroke-linejoin="round" d="M59.551,39.701L36.101,74.876C30.35,83.502,36.534,95.056,46.901,95.056L93.801,95.056C104.168,95.056,110.351,83.502,104.601,74.876L81.151,39.701C76.013,31.994,64.689,31.994,59.551,39.701ZM81.151,54.101L59.551,54.101L83.001,89.276L93.801,69.096L46.901,69.096L57.701,89.276L81.151,54.101Z"/>
</g>
  <g id="Bold-L" transform="matrix(1.0,0.0,0.0,1.0,2270.9091102094617,1443.3840407616583)">  <path stroke-miterlimit="4" fill-rule="nonzero" stroke-width="3px" stroke-linejoin="round" stroke-opacity="1" stroke-dasharray="none" fill-opacity="1" stroke="none" fill="#000000" stroke-linecap="round" d="M70.351,140.36C109.016,140.36,140.36,109.016,140.36,70.351C140.36,31.686,109.016,0.342,70.351,0.342C31.686,0.342,0.342,31.686,0.342,70.351C0.342,109.016,31.686,140.36,70.351,140.36ZM70.351,117.593C44.26,117.593,23.109,96.442,23.109,70.351C23.109,44.26,44.26,23.109,70.351,23.109C96.442,23.109,117.593,44.26,117.593,70.351C117.593,96.442,96.442,117.593,70.351,117.593Z"/>
  <path stroke-dasharray="none" stroke-miterlimit="4" stroke-width="3px" stroke="none" stroke-opacity="1" fill="#000000" stroke-linecap="round" fill-opacity="1" stroke-linejoin="round" fill-rule="nonzero" d="M60.879,40.586L37.429,75.762C32.386,83.327,37.809,93.46,46.901,93.46L93.801,93.46C102.893,93.46,108.316,83.327,103.273,75.762L79.823,40.586C75.317,33.827,65.385,33.827,60.879,40.586ZM79.823,53.215L60.879,53.215L84.329,88.391L93.801,70.693L46.901,70.693L56.373,88.391L79.823,53.215Z"/>
</g>
  <g id="Semibold-L" transform="matrix(1.0,0.0,0.0,1.0,1974.199110209462,1443.3840407616583)">  <path fill="#000000" fill-opacity="1" stroke-linecap="round" stroke-dasharray="none" stroke-miterlimit="4" fill-rule="nonzero" stroke-opacity="1" stroke-linejoin="round" stroke-width="3px" stroke="none" d="M70.351,138.764C108.135,138.764,138.764,108.135,138.764,70.351C138.764,32.567,108.134,1.938,70.351,1.938C32.567,1.938,1.938,32.567,1.938,70.351C1.938,108.134,32.567,138.764,70.351,138.764ZM70.351,119.189C43.378,119.189,21.513,97.323,21.513,70.351C21.513,43.378,43.378,21.513,70.351,21.513C97.323,21.513,119.189,43.378,119.189,70.351C119.189,97.323,97.323,119.189,70.351,119.189Z"/>
  <path stroke-opacity="1" stroke-width="3px" stroke-miterlimit="4" stroke-linejoin="round" fill-rule="nonzero" stroke="none" stroke-dasharray="none" fill="#000000" fill-opacity="1" stroke-linecap="round" d="M62.207,41.472L38.757,76.647C34.421,83.151,39.083,91.864,46.901,91.864L93.801,91.864C101.618,91.864,106.281,83.151,101.945,76.647L78.495,41.472C74.621,35.66,66.081,35.66,62.207,41.472ZM78.495,52.33L62.207,52.33L85.657,87.505L93.801,72.289L46.901,72.289L55.045,87.505L78.495,52.33Z"/>
</g>
  <g id="Medium-L" transform="matrix(1.0,0.0,0.0,1.0,1677.489110209462,1443.3840407616583)">  <path stroke-opacity="1" fill-rule="nonzero" stroke-dasharray="none" stroke-linecap="round" fill="#000000" stroke-miterlimit="4" stroke-linejoin="round" stroke="none" fill-opacity="1" stroke-width="3px" d="M70.351,137.168C107.253,137.168,137.168,107.253,137.168,70.351C137.168,33.449,107.253,3.534,70.351,3.534C33.449,3.534,3.534,33.449,3.534,70.351C3.534,107.253,33.449,137.168,70.351,137.168ZM70.351,120.785C42.497,120.785,19.917,98.205,19.917,70.351C19.917,42.497,42.497,19.917,70.351,19.917C98.205,19.917,120.785,42.497,120.785,70.351C120.785,98.205,98.205,120.785,70.351,120.785Z"/>
  <path stroke-miterlimit="4" fill-opacity="1" fill-rule="nonzero" stroke-linejoin="round" stroke-opacity="1" stroke-linecap="round" stroke="none" fill="#000000" stroke-dasharray="none" stroke-width="3px" d="M63.535,42.357L40.085,77.532C36.456,82.976,40.358,90.268,46.901,90.268L93.801,90.268C100.344,90.268,104.246,82.976,100.617,77.532L77.167,42.357C73.924,37.493,66.778,37.493,63.535,42.357ZM77.167,51.445L63.535,51.445L86.985,86.62L93.801,73.885L46.901,73.885L53.716,86.62L77.167,51.445Z"/>
</g>
  <g id="Regular-L" transform="matrix(1.0,0.0,0.0,1.0,1380.779110209462,1443.3840407616583)">  <path stroke-opacity="1" stroke-linecap="round" stroke-miterlimit="4" fill="#000000" stroke-width="3px" fill-rule="nonzero" stroke-linejoin="round" stroke-dasharray="none" stroke="none" fill-opacity="1" d="M70.351,135.572C106.372,135.572,135.572,106.372,135.572,70.351C135.572,34.33,106.372,5.13,70.351,5.13C34.33,5.13,5.13,34.33,5.13,70.351C5.13,106.372,34.33,135.572,70.351,135.572ZM70.351,122.381C41.615,122.381,18.321,99.086,18.321,70.351C18.321,41.615,41.615,18.321,70.351,18.321C99.086,18.321,122.381,41.615,122.381,70.351C122.381,99.086,99.086,122.381,70.351,122.381Z"/>
  <path stroke-miterlimit="4" fill-opacity="1" stroke-opacity="1" stroke-linecap="round" stroke-dasharray="none" stroke-linejoin="round" stroke="none" fill="#000000" fill-rule="nonzero" stroke-width="3px" d="M64.863,43.242L41.413,78.418C38.491,82.801,41.633,88.672,46.901,88.672L93.801,88.672C99.069,88.672,102.211,82.801,99.289,78.418L75.839,43.242C73.228,39.326,67.474,39.326,64.863,43.242ZM75.839,50.559L64.863,50.559L88.313,85.735L93.801,75.481L46.901,75.481L52.388,85.735L75.839,50.559Z"/>
</g>
  <g id="Light-L" transform="matrix(1.0,0.0,0.0,1.0,1084.0691102094622,1443.3840407616583)">  <path stroke-miterlimit="4" stroke-width="3px" stroke="none" stroke-opacity="1" stroke-linecap="round" fill-opacity="1" stroke-linejoin="round" stroke-dasharray="none" fill-rule="nonzero" fill="#000000" d="M70.351,134.473C105.764,134.473,134.473,105.764,134.473,70.351C134.473,34.937,105.764,6.229,70.351,6.229C34.937,6.229,6.229,34.937,6.229,70.351C6.229,105.764,34.937,134.473,70.351,134.473ZM70.351,123.48C41.008,123.48,17.221,99.694,17.221,70.351C17.221,41.008,41.008,17.221,70.351,17.221C99.694,17.221,123.48,41.008,123.48,70.351C123.48,99.694,99.694,123.48,70.351,123.48Z"/>
  <path fill="#000000" stroke-linecap="round" stroke-linejoin="round" stroke="none" stroke-width="3px" stroke-dasharray="none" fill-opacity="1" fill-rule="nonzero" stroke-miterlimit="4" stroke-opacity="1" d="M65.778,43.852L42.328,79.027C39.893,82.68,42.511,87.572,46.901,87.572L93.801,87.572C98.191,87.572,100.809,82.68,98.374,79.027L74.924,43.852C72.748,40.589,67.953,40.589,65.778,43.852ZM74.924,49.949L65.778,49.949L89.228,85.125L93.801,76.58L46.901,76.58L51.474,85.125L74.924,49.949Z"/>
</g>
  <g id="Thin-L" transform="matrix(1.0,0.0,0.0,1.0,787.3591102094621,1443.3840407616583)">  <path fill="#000000" stroke-linecap="round" stroke="none" fill-opacity="1" stroke-width="3px" fill-rule="nonzero" stroke-miterlimit="4" stroke-linejoin="round" stroke-opacity="1" stroke-dasharray="none" d="M70.351,133.373C105.157,133.373,133.373,105.157,133.373,70.351C133.373,35.544,105.157,7.328,70.351,7.328C35.544,7.328,7.328,35.544,7.328,70.351C7.328,105.157,35.544,133.373,70.351,133.373ZM70.351,124.58C40.401,124.58,16.122,100.301,16.122,70.351C16.122,40.401,40.401,16.122,70.351,16.122C100.301,16.122,124.58,40.401,124.58,70.351C124.58,100.301,100.301,124.58,70.351,124.58Z"/>
  <path stroke-opacity="1" fill-opacity="1" stroke-dasharray="none" stroke-width="3px" stroke="none" fill="#000000" stroke-linecap="round" stroke-linejoin="round" fill-rule="nonzero" stroke-miterlimit="4" d="M66.692,44.462L43.242,79.637C41.294,82.559,43.389,86.473,46.901,86.473L93.801,86.473C97.313,86.473,99.408,82.559,97.46,79.637L74.009,44.462C72.269,41.851,68.433,41.851,66.692,44.462ZM74.009,49.34L66.692,49.34L90.143,84.515L93.801,77.679L46.901,77.679L50.559,84.515L74.009,49.34Z"/>
</g>
  <g id="Ultralight-L" transform="matrix(1.0,0.0,0.0,1.0,490.6491102094621,1443.3840407616583)">  <path stroke-linejoin="round" fill-opacity="1" stroke-miterlimit="4" fill-rule="nonzero" stroke-opacity="1" stroke-dasharray="none" fill="#000000" stroke="none" stroke-width="3px" stroke-linecap="round" d="M70.351,132.274C104.55,132.274,132.274,104.55,132.274,70.351C132.274,36.152,104.55,8.427,70.351,8.427C36.152,8.427,8.427,36.152,8.427,70.351C8.427,104.55,36.152,132.274,70.351,132.274ZM70.351,125.679C39.794,125.679,15.023,100.908,15.023,70.351C15.023,39.794,39.794,15.023,70.351,15.023C100.908,15.023,125.679,39.794,125.679,70.351C125.679,100.908,100.908,125.679,70.351,125.679Z"/>
  <path stroke-opacity="1" stroke-miterlimit="4" fill-opacity="1" stroke-dasharray="none" stroke-linecap="round" fill-rule="nonzero" stroke-linejoin="round" stroke="none" stroke-width="3px" fill="#000000" d="M67.607,45.072L44.157,80.247C42.696,82.438,44.267,85.374,46.901,85.374L93.801,85.374C96.435,85.374,98.006,82.438,96.545,80.247L73.095,45.072C71.789,43.114,68.912,43.114,67.607,45.072ZM73.095,48.73L67.607,48.73L91.057,83.905L93.801,78.778L46.901,78.778L49.645,83.905L73.095,48.73Z"/>
</g>
  <g id="Black-M" transform="matrix(1.0,0.0,0.0,1.0,2880.1444265189625,1030.7808887021092)">  <path stroke-miterlimit="4" fill-rule="nonzero" stroke-linecap="round" fill="#000000" stroke-opacity="1" fill-opacity="1" stroke-dasharray="none" stroke="none" stroke-linejoin="round" stroke-width="3px" d="M54.536,111.281C85.875,111.281,111.281,85.875,111.281,54.536C111.281,23.196,85.875,-2.21,54.536,-2.21C23.196,-2.21,-2.21,23.196,-2.21,54.536C-2.21,85.875,23.196,111.281,54.536,111.281ZM54.536,88.683C35.677,88.683,20.388,73.395,20.388,54.536C20.388,35.677,35.677,20.388,54.536,20.388C73.395,20.388,88.683,35.677,88.683,54.536C88.683,73.395,73.395,88.683,54.536,88.683Z"/>
  <path stroke-linecap="round" stroke-dasharray="none" stroke-miterlimit="4" stroke-width="3px" fill-rule="nonzero" stroke-opacity="1" fill-opacity="1" stroke-linejoin="round" stroke="none" fill="#000000" d="M45.134,30.09L26.956,57.357C21.95,64.866,27.333,74.924,36.357,74.924L72.714,74.924C81.738,74.924,87.121,64.866,82.115,57.357L63.937,30.09C59.465,23.381,49.607,23.381,45.134,30.09ZM63.937,42.625L45.134,42.625L63.313,69.893L72.714,52.326L36.357,52.326L45.759,69.893L63.937,42.625Z"/>
</g>
  <g id="Heavy-M" transform="matrix(1.0,0.0,0.0,1.0,2583.4344265189625,1030.7808887021092)">  <path fill="#000000" stroke-opacity="1" fill-rule="nonzero" stroke="none" fill-opacity="1" stroke-width="3px" stroke-linejoin="round" stroke-miterlimit="4" stroke-dasharray="none" stroke-linecap="round" d="M54.536,110.044C85.192,110.044,110.044,85.192,110.044,54.536C110.044,23.879,85.192,-0.973,54.536,-0.973C23.879,-0.973,-0.973,23.879,-0.973,54.536C-0.973,85.192,23.879,110.044,54.536,110.044ZM54.536,89.92C34.993,89.92,19.151,74.078,19.151,54.536C19.151,34.993,34.993,19.151,54.536,19.151C74.078,19.151,89.92,34.993,89.92,54.536C89.92,74.078,74.078,89.92,54.536,89.92Z"/>
  <path fill-opacity="1" stroke="none" stroke-linecap="round" stroke-width="3px" fill-rule="nonzero" fill="#000000" stroke-dasharray="none" stroke-opacity="1" stroke-miterlimit="4" stroke-linejoin="round" d="M46.164,30.776L27.985,58.044C23.527,64.73,28.321,73.687,36.357,73.687L72.714,73.687C80.75,73.687,85.544,64.73,81.086,58.044L62.908,30.776C58.925,24.802,50.146,24.802,46.164,30.776ZM62.908,41.938L46.164,41.938L64.342,69.206L72.714,53.563L36.357,53.563L44.729,69.206L62.908,41.938Z"/>
</g>
  <g id="Bold-M" transform="matrix(1.0,0.0,0.0,1.0,2286.7244265189624,1030.7808887021092)">  <path stroke-miterlimit="4" fill-rule="nonzero" stroke-width="3px" stroke-linejoin="round" stroke-opacity="1" stroke-dasharray="none" fill-opacity="1" stroke="none" fill="#000000" stroke-linecap="round" d="M54.536,108.806C84.509,108.806,108.806,84.509,108.806,54.536C108.806,24.563,84.509,0.265,54.536,0.265C24.563,0.265,0.265,24.563,0.265,54.536C0.265,84.509,24.563,108.806,54.536,108.806ZM54.536,91.157C34.31,91.157,17.914,74.761,17.914,54.536C17.914,34.31,34.31,17.914,54.536,17.914C74.761,17.914,91.157,34.31,91.157,54.536C91.157,74.761,74.761,91.157,54.536,91.157Z"/>
  <path stroke-dasharray="none" stroke-miterlimit="4" stroke-width="3px" stroke="none" stroke-opacity="1" fill="#000000" stroke-linecap="round" fill-opacity="1" stroke-linejoin="round" fill-rule="nonzero" d="M47.193,31.462L29.015,58.73C25.105,64.594,29.309,72.449,36.357,72.449L72.714,72.449C79.762,72.449,83.966,64.594,80.056,58.73L61.878,31.462C58.385,26.223,50.686,26.223,47.193,31.462ZM61.878,41.252L47.193,41.252L65.372,68.52L72.714,54.8L36.357,54.8L43.7,68.52L61.878,41.252Z"/>
</g>
  <g id="Semibold-M" transform="matrix(1.0,0.0,0.0,1.0,1990.0144265189629,1030.7808887021092)">  <path fill="#000000" fill-opacity="1" stroke-linecap="round" stroke-dasharray="none" stroke-miterlimit="4" fill-rule="nonzero" stroke-opacity="1" stroke-linejoin="round" stroke-width="3px" stroke="none" d="M54.536,107.569C83.825,107.569,107.569,83.825,107.569,54.536C107.569,25.246,83.825,1.502,54.536,1.502C25.246,1.502,1.502,25.246,1.502,54.536C1.502,83.825,25.246,107.569,54.536,107.569ZM54.536,92.395C33.627,92.395,16.677,75.445,16.677,54.536C16.677,33.627,33.627,16.677,54.536,16.677C75.445,16.677,92.395,33.627,92.395,54.536C92.395,75.445,75.445,92.395,54.536,92.395Z"/>
  <path stroke-opacity="1" stroke-width="3px" stroke-miterlimit="4" stroke-linejoin="round" fill-rule="nonzero" stroke="none" stroke-dasharray="none" fill="#000000" fill-opacity="1" stroke-linecap="round" d="M48.223,32.149L30.044,59.416C26.683,64.458,30.297,71.212,36.357,71.212L72.714,71.212C78.774,71.212,82.388,64.458,79.027,59.416L60.849,32.149C57.845,27.644,51.226,27.644,48.223,32.149ZM60.849,40.566L48.223,40.566L66.401,67.834L72.714,56.038L36.357,56.038L42.67,67.834L60.849,40.566Z"/>
</g>
  <g id="Medium-M" transform="matrix(1.0,0.0,0.0,1.0,1693.3044265189628,1030.7808887021092)">  <path stroke-opacity="1" fill-rule="nonzero" stroke-dasharray="none" stroke-linecap="round" fill="#000000" stroke-miterlimit="4" stroke-linejoin="round" stroke="none" fill-opacity="1" stroke-width="3px" d="M54.536,106.332C83.142,106.332,106.332,83.142,106.332,54.536C106.332,25.929,83.142,2.739,54.536,2.739C25.929,2.739,2.739,25.929,2.739,54.536C2.739,83.142,25.929,106.332,54.536,106.332ZM54.536,93.632C32.943,93.632,15.439,76.128,15.439,54.536C15.439,32.943,32.943,15.439,54.536,15.439C76.128,15.439,93.632,32.943,93.632,54.536C93.632,76.128,76.128,93.632,54.536,93.632Z"/>
  <path stroke-miterlimit="4" fill-opacity="1" fill-rule="nonzero" stroke-linejoin="round" stroke-opacity="1" stroke-linecap="round" stroke="none" fill="#000000" stroke-dasharray="none" stroke-width="3px" d="M49.252,32.835L31.074,60.103C28.26,64.323,31.285,69.975,36.357,69.975L72.714,69.975C77.786,69.975,80.811,64.323,77.998,60.103L59.819,32.835C57.306,29.065,51.766,29.065,49.252,32.835ZM59.819,39.879L49.252,39.879L67.43,67.147L72.714,57.275L36.357,57.275L41.641,67.147L59.819,39.879Z"/>
</g>
  <g id="Regular-M" transform="matrix(1.0,0.0,0.0,1.0,1396.5944265189628,1030.7808887021092)">  <path stroke-opacity="1" stroke-linecap="round" stroke-miterlimit="4" fill="#000000" stroke-width="3px" fill-rule="nonzero" stroke-linejoin="round" stroke-dasharray="none" stroke="none" fill-opacity="1" d="M54.536,105.094C82.459,105.094,105.094,82.459,105.094,54.536C105.094,26.613,82.459,3.977,54.536,3.977C26.613,3.977,3.977,26.613,3.977,54.536C3.977,82.459,26.613,105.094,54.536,105.094ZM54.536,94.869C32.26,94.869,14.202,76.811,14.202,54.536C14.202,32.26,32.26,14.202,54.536,14.202C76.811,14.202,94.869,32.26,94.869,54.536C94.869,76.811,76.811,94.869,54.536,94.869Z"/>
  <path stroke-miterlimit="4" fill-opacity="1" stroke-opacity="1" stroke-linecap="round" stroke-dasharray="none" stroke-linejoin="round" stroke="none" fill="#000000" fill-rule="nonzero" stroke-width="3px" d="M50.282,33.521L32.103,60.789C29.838,64.187,32.274,68.738,36.357,68.738L72.714,68.738C76.797,68.738,79.233,64.187,76.968,60.789L58.79,33.521C56.766,30.486,52.305,30.486,50.282,33.521ZM58.79,39.193L50.282,39.193L68.46,66.461L72.714,58.512L36.357,58.512L40.611,66.461L58.79,39.193Z"/>
</g>
  <g id="Light-M" transform="matrix(1.0,0.0,0.0,1.0,1099.884426518963,1030.7808887021092)">  <path stroke-miterlimit="4" stroke-width="3px" stroke="none" stroke-opacity="1" stroke-linecap="round" fill-opacity="1" stroke-linejoin="round" stroke-dasharray="none" fill-rule="nonzero" fill="#000000" d="M54.536,104.242C81.988,104.242,104.242,81.988,104.242,54.536C104.242,27.083,81.988,4.829,54.536,4.829C27.083,4.829,4.829,27.083,4.829,54.536C4.829,81.988,27.083,104.242,54.536,104.242ZM54.536,95.721C31.789,95.721,13.35,77.282,13.35,54.536C13.35,31.789,31.789,13.35,54.536,13.35C77.282,13.35,95.721,31.789,95.721,54.536C95.721,77.282,77.282,95.721,54.536,95.721Z"/>
  <path fill="#000000" stroke-linecap="round" stroke-linejoin="round" stroke="none" stroke-width="3px" stroke-dasharray="none" fill-opacity="1" fill-rule="nonzero" stroke-miterlimit="4" stroke-opacity="1" d="M50.991,33.994L32.812,61.262C30.925,64.093,32.954,67.886,36.357,67.886L72.714,67.886C76.117,67.886,78.147,64.093,76.259,61.262L58.081,33.994C56.394,31.464,52.677,31.464,50.991,33.994ZM58.081,38.721L50.991,38.721L69.169,65.988L72.714,59.364L36.357,59.364L39.902,65.988L58.081,38.721Z"/>
</g>
  <g id="Thin-M" transform="matrix(1.0,0.0,0.0,1.0,803.174426518963,1030.7808887021092)">  <path fill="#000000" stroke-linecap="round" stroke="none" fill-opacity="1" stroke-width="3px" fill-rule="nonzero" stroke-miterlimit="4" stroke-linejoin="round" stroke-opacity="1" stroke-dasharray="none" d="M54.536,103.39C81.517,103.39,103.39,81.517,103.39,54.536C103.39,27.554,81.517,5.681,54.536,5.681C27.554,5.681,5.681,27.554,5.681,54.536C5.681,81.517,27.554,103.39,54.536,103.39ZM54.536,96.573C31.319,96.573,12.498,77.752,12.498,54.536C12.498,31.319,31.319,12.498,54.536,12.498C77.752,12.498,96.573,31.319,96.573,54.536C96.573,77.752,77.752,96.573,54.536,96.573Z"/>
  <path stroke-opacity="1" fill-opacity="1" stroke-dasharray="none" stroke-width="3px" stroke="none" fill="#000000" stroke-linecap="round" stroke-linejoin="round" fill-rule="nonzero" stroke-miterlimit="4" d="M51.7,34.466L33.521,61.734C32.011,63.999,33.635,67.033,36.357,67.033L72.714,67.033C75.436,67.033,77.06,63.999,75.55,61.734L57.372,34.466C56.022,32.443,53.049,32.443,51.7,34.466ZM57.372,38.248L51.7,38.248L69.878,65.516L72.714,60.216L36.357,60.216L39.193,65.516L57.372,38.248Z"/>
</g>
  <g id="Ultralight-M" transform="matrix(1.0,0.0,0.0,1.0,506.46442651896285,1030.7808887021092)">  <path stroke-linejoin="round" fill-opacity="1" stroke-miterlimit="4" fill-rule="nonzero" stroke-opacity="1" stroke-dasharray="none" fill="#000000" stroke="none" stroke-width="3px" stroke-linecap="round" d="M54.536,102.538C81.047,102.538,102.538,81.047,102.538,54.536C102.538,28.024,81.047,6.533,54.536,6.533C28.024,6.533,6.533,28.024,6.533,54.536C6.533,81.047,28.024,102.538,54.536,102.538ZM54.536,97.425C30.848,97.425,11.646,78.223,11.646,54.536C11.646,30.848,30.848,11.646,54.536,11.646C78.223,11.646,97.425,30.848,97.425,54.536C97.425,78.223,78.223,97.425,54.536,97.425Z"/>
  <path stroke-opacity="1" stroke-miterlimit="4" fill-opacity="1" stroke-dasharray="none" stroke-linecap="round" fill-rule="nonzero" stroke-linejoin="round" stroke="none" stroke-width="3px" fill="#000000" d="M52.409,34.939L34.23,62.207C33.098,63.906,34.315,66.181,36.357,66.181L72.714,66.181C74.756,66.181,75.974,63.906,74.841,62.207L56.663,34.939C55.651,33.421,53.42,33.421,52.409,34.939ZM56.663,37.775L52.409,37.775L70.587,65.043L72.714,61.069L36.357,61.069L38.484,65.043L56.663,37.775Z"/>
</g>
  <g id="Black-S" transform="matrix(1.0,0.0,0.0,1.0,2891.978645964348,613.7985300920327)">  <path stroke-miterlimit="4" fill-rule="nonzero" stroke-linecap="round" fill="#000000" stroke-opacity="1" fill-opacity="1" stroke-dasharray="none" stroke="none" stroke-linejoin="round" stroke-width="3px" d="M42.701,87.133C67.24,87.133,87.133,67.24,87.133,42.701C87.133,18.162,67.24,-1.73,42.701,-1.73C18.162,-1.73,-1.73,18.162,-1.73,42.701C-1.73,67.24,18.162,87.133,42.701,87.133ZM42.701,69.439C27.935,69.439,15.964,57.468,15.964,42.701C15.964,27.935,27.935,15.964,42.701,15.964C57.468,15.964,69.439,27.935,69.439,42.701C69.439,57.468,57.468,69.439,42.701,69.439Z"/>
  <path stroke-linecap="round" stroke-dasharray="none" stroke-miterlimit="4" stroke-width="3px" fill-rule="nonzero" stroke-opacity="1" fill-opacity="1" stroke-linejoin="round" stroke="none" fill="#000000" d="M35.34,23.56L21.106,44.911C17.187,50.79,21.401,58.666,28.468,58.666L56.935,58.666C64.001,58.666,68.216,50.79,64.296,44.911L50.063,23.56C46.561,18.307,38.842,18.307,35.34,23.56ZM50.063,33.375L35.34,33.375L49.574,54.726L56.935,40.971L28.468,40.971L35.829,54.726L50.063,33.375Z"/>
</g>
  <g id="Heavy-S" transform="matrix(1.0,0.0,0.0,1.0,2595.268645964348,613.7985300920327)">  <path fill="#000000" stroke-opacity="1" fill-rule="nonzero" stroke="none" fill-opacity="1" stroke-width="3px" stroke-linejoin="round" stroke-miterlimit="4" stroke-dasharray="none" stroke-linecap="round" d="M42.701,86.164C66.705,86.164,86.164,66.705,86.164,42.701C86.164,18.697,66.705,-0.761,42.701,-0.761C18.697,-0.761,-0.761,18.697,-0.761,42.701C-0.761,66.705,18.697,86.164,42.701,86.164ZM42.701,70.407C27.4,70.407,14.995,58.003,14.995,42.701C14.995,27.4,27.4,14.995,42.701,14.995C58.003,14.995,70.407,27.4,70.407,42.701C70.407,58.003,58.003,70.407,42.701,70.407Z"/>
  <path fill-opacity="1" stroke="none" stroke-linecap="round" stroke-width="3px" fill-rule="nonzero" fill="#000000" stroke-dasharray="none" stroke-opacity="1" stroke-miterlimit="4" stroke-linejoin="round" d="M36.146,24.098L21.912,45.448C18.422,50.684,22.175,57.697,28.468,57.697L56.935,57.697C63.227,57.697,66.981,50.684,63.49,45.448L49.257,24.098C46.138,19.42,39.265,19.42,36.146,24.098ZM49.257,32.838L36.146,32.838L50.38,54.188L56.935,41.94L28.468,41.94L35.023,54.188L49.257,32.838Z"/>
</g>
  <g id="Bold-S" transform="matrix(1.0,0.0,0.0,1.0,2298.5586459643478,613.7985300920327)">  <path stroke-miterlimit="4" fill-rule="nonzero" stroke-width="3px" stroke-linejoin="round" stroke-opacity="1" stroke-dasharray="none" fill-opacity="1" stroke="none" fill="#000000" stroke-linecap="round" d="M42.701,85.195C66.17,85.195,85.195,66.17,85.195,42.701C85.195,19.233,66.17,0.207,42.701,0.207C19.233,0.207,0.207,19.233,0.207,42.701C0.207,66.17,19.233,85.195,42.701,85.195ZM42.701,71.376C26.865,71.376,14.027,58.538,14.027,42.701C14.027,26.865,26.865,14.027,42.701,14.027C58.538,14.027,71.376,26.865,71.376,42.701C71.376,58.538,58.538,71.376,42.701,71.376Z"/>
  <path stroke-dasharray="none" stroke-miterlimit="4" stroke-width="3px" stroke="none" stroke-opacity="1" fill="#000000" stroke-linecap="round" fill-opacity="1" stroke-linejoin="round" fill-rule="nonzero" d="M36.952,24.635L22.719,45.986C19.657,50.577,22.949,56.728,28.468,56.728L56.935,56.728C62.454,56.728,65.745,50.577,62.684,45.986L48.451,24.635C45.716,20.532,39.687,20.532,36.952,24.635ZM48.451,32.3L36.952,32.3L51.186,53.651L56.935,42.909L28.468,42.909L34.217,53.651L48.451,32.3Z"/>
</g>
  <g id="Semibold-S" transform="matrix(1.0,0.0,0.0,1.0,2001.848645964348,613.7985300920327)">  <path fill="#000000" fill-opacity="1" stroke-linecap="round" stroke-dasharray="none" stroke-miterlimit="4" fill-rule="nonzero" stroke-opacity="1" stroke-linejoin="round" stroke-width="3px" stroke="none" d="M42.701,84.227C65.635,84.227,84.227,65.635,84.227,42.701C84.227,19.768,65.635,1.176,42.701,1.176C19.768,1.176,1.176,19.768,1.176,42.701C1.176,65.635,19.768,84.227,42.701,84.227ZM42.701,72.345C26.33,72.345,13.058,59.073,13.058,42.701C13.058,26.33,26.33,13.058,42.701,13.058C59.073,13.058,72.345,26.33,72.345,42.701C72.345,59.073,59.073,72.345,42.701,72.345Z"/>
  <path stroke-opacity="1" stroke-width="3px" stroke-miterlimit="4" stroke-linejoin="round" fill-rule="nonzero" stroke="none" stroke-dasharray="none" fill="#000000" fill-opacity="1" stroke-linecap="round" d="M37.758,25.172L23.525,46.523C20.893,50.471,23.723,55.759,28.468,55.759L56.935,55.759C61.68,55.759,64.51,50.471,61.878,46.523L47.644,25.172C45.293,21.645,40.11,21.645,37.758,25.172ZM47.644,31.763L37.758,31.763L51.992,53.114L56.935,43.878L28.468,43.878L33.411,53.114L47.644,31.763Z"/>
</g>
  <g id="Medium-S" transform="matrix(1.0,0.0,0.0,1.0,1705.138645964348,613.7985300920327)">  <path stroke-opacity="1" fill-rule="nonzero" stroke-dasharray="none" stroke-linecap="round" fill="#000000" stroke-miterlimit="4" stroke-linejoin="round" stroke="none" fill-opacity="1" stroke-width="3px" d="M42.701,83.258C65.1,83.258,83.258,65.1,83.258,42.701C83.258,20.303,65.1,2.145,42.701,2.145C20.303,2.145,2.145,20.303,2.145,42.701C2.145,65.1,20.303,83.258,42.701,83.258ZM42.701,73.314C25.795,73.314,12.089,59.608,12.089,42.701C12.089,25.795,25.795,12.089,42.701,12.089C59.608,12.089,73.314,25.795,73.314,42.701C73.314,59.608,59.608,73.314,42.701,73.314Z"/>
  <path stroke-miterlimit="4" fill-opacity="1" fill-rule="nonzero" stroke-linejoin="round" stroke-opacity="1" stroke-linecap="round" stroke="none" fill="#000000" stroke-dasharray="none" stroke-width="3px" d="M38.564,25.71L24.331,47.06C22.128,50.365,24.497,54.79,28.468,54.79L56.935,54.79C60.906,54.79,63.275,50.365,61.072,47.06L46.838,25.71C44.87,22.758,40.532,22.758,38.564,25.71ZM46.838,31.226L38.564,31.226L52.798,52.576L56.935,44.846L28.468,44.846L32.605,52.576L46.838,31.226Z"/>
</g>
  <g id="Regular-S" transform="matrix(1.0,0.0,0.0,1.0,1408.4286459643479,613.7985300920327)">  <path stroke-opacity="1" stroke-linecap="round" stroke-miterlimit="4" fill="#000000" stroke-width="3px" fill-rule="nonzero" stroke-linejoin="round" stroke-dasharray="none" stroke="none" fill-opacity="1" d="M42.701,82.289C64.565,82.289,82.289,64.565,82.289,42.701C82.289,20.838,64.565,3.114,42.701,3.114C20.838,3.114,3.114,20.838,3.114,42.701C3.114,64.565,20.838,82.289,42.701,82.289ZM42.701,74.282C25.26,74.282,11.12,60.143,11.12,42.701C11.12,25.26,25.26,11.12,42.701,11.12C60.143,11.12,74.282,25.26,74.282,42.701C74.282,60.143,60.143,74.282,42.701,74.282Z"/>
  <path stroke-miterlimit="4" fill-opacity="1" stroke-opacity="1" stroke-linecap="round" stroke-dasharray="none" stroke-linejoin="round" stroke="none" fill="#000000" fill-rule="nonzero" stroke-width="3px" d="M39.37,26.247L25.137,47.598C23.363,50.258,25.27,53.822,28.468,53.822L56.935,53.822C60.132,53.822,62.04,50.258,60.266,47.598L46.032,26.247C44.448,23.87,40.955,23.87,39.37,26.247ZM46.032,30.688L39.37,30.688L53.604,52.039L56.935,45.815L28.468,45.815L31.799,52.039L46.032,30.688Z"/>
</g>
  <g id="Light-S" transform="matrix(1.0,0.0,0.0,1.0,1111.718645964348,613.7985300920327)">  <path stroke-miterlimit="4" stroke-width="3px" stroke="none" stroke-opacity="1" stroke-linecap="round" fill-opacity="1" stroke-linejoin="round" stroke-dasharray="none" fill-rule="nonzero" fill="#000000" d="M42.701,81.622C64.197,81.622,81.622,64.197,81.622,42.701C81.622,21.206,64.197,3.781,42.701,3.781C21.206,3.781,3.781,21.206,3.781,42.701C3.781,64.197,21.206,81.622,42.701,81.622ZM42.701,74.95C24.891,74.95,10.453,60.512,10.453,42.701C10.453,24.891,24.891,10.453,42.701,10.453C60.512,10.453,74.95,24.891,74.95,42.701C74.95,60.512,60.512,74.95,42.701,74.95Z"/>
  <path fill="#000000" stroke-linecap="round" stroke-linejoin="round" stroke="none" stroke-width="3px" stroke-dasharray="none" fill-opacity="1" fill-rule="nonzero" stroke-miterlimit="4" stroke-opacity="1" d="M39.926,26.617L25.692,47.968C24.214,50.185,25.803,53.154,28.468,53.154L56.935,53.154C59.6,53.154,61.189,50.185,59.711,47.968L45.477,26.617C44.157,24.636,41.246,24.636,39.926,26.617ZM45.477,30.318L39.926,30.318L54.159,51.669L56.935,46.482L28.468,46.482L31.243,51.669L45.477,30.318Z"/>
</g>
  <g id="Thin-S" transform="matrix(1.0,0.0,0.0,1.0,815.0086459643479,613.7985300920327)">  <path fill="#000000" stroke-linecap="round" stroke="none" fill-opacity="1" stroke-width="3px" fill-rule="nonzero" stroke-miterlimit="4" stroke-linejoin="round" stroke-opacity="1" stroke-dasharray="none" d="M42.701,80.955C63.828,80.955,80.955,63.828,80.955,42.701C80.955,21.575,63.828,4.448,42.701,4.448C21.575,4.448,4.448,21.575,4.448,42.701C4.448,63.828,21.575,80.955,42.701,80.955ZM42.701,75.617C24.523,75.617,9.786,60.88,9.786,42.701C9.786,24.523,24.523,9.786,42.701,9.786C60.88,9.786,75.617,24.523,75.617,42.701C75.617,60.88,60.88,75.617,42.701,75.617Z"/>
  <path stroke-opacity="1" fill-opacity="1" stroke-dasharray="none" stroke-width="3px" stroke="none" fill="#000000" stroke-linecap="round" stroke-linejoin="round" fill-rule="nonzero" stroke-miterlimit="4" d="M40.481,26.987L26.247,48.338C25.065,50.112,26.336,52.487,28.468,52.487L56.935,52.487C59.067,52.487,60.338,50.112,59.156,48.338L44.922,26.987C43.866,25.403,41.537,25.403,40.481,26.987ZM44.922,29.948L40.481,29.948L54.714,51.299L56.935,47.15L28.468,47.15L30.688,51.299L44.922,29.948Z"/>
</g>
  <g id="Ultralight-S" transform="matrix(1.0,0.0,0.0,1.0,518.2986459643479,613.7985300920327)">  <path stroke-linejoin="round" fill-opacity="1" stroke-miterlimit="4" fill-rule="nonzero" stroke-opacity="1" stroke-dasharray="none" fill="#000000" stroke="none" stroke-width="3px" stroke-linecap="round" d="M42.701,80.287C63.46,80.287,80.287,63.46,80.287,42.701C80.287,21.943,63.46,5.115,42.701,5.115C21.943,5.115,5.115,21.943,5.115,42.701C5.115,63.46,21.943,80.287,42.701,80.287ZM42.701,76.284C24.154,76.284,9.119,61.249,9.119,42.701C9.119,24.154,24.154,9.119,42.701,9.119C61.249,9.119,76.284,24.154,76.284,42.701C76.284,61.249,61.249,76.284,42.701,76.284Z"/>
  <path stroke-opacity="1" stroke-miterlimit="4" fill-opacity="1" stroke-dasharray="none" stroke-linecap="round" fill-rule="nonzero" stroke-linejoin="round" stroke="none" stroke-width="3px" fill="#000000" d="M41.036,27.357L26.802,48.708C25.915,50.038,26.869,51.82,28.468,51.82L56.935,51.82C58.534,51.82,59.487,50.038,58.601,48.708L44.367,27.357C43.575,26.169,41.828,26.169,41.036,27.357ZM44.367,29.578L41.036,29.578L55.27,50.929L56.935,47.817L28.468,47.817L30.133,50.929L44.367,29.578Z"/>
</g>
 </g>
</svg>
