<?xml version="1.0" encoding="UTF-8"?>
<!-- Generator: CustomSymbols v2.6.2.41 by @serious_bret https://bretlester.com/app_content/CustomSymbols/ -->
<!-- Guides: Left/Right 0.0/0.0 Cap/Base 0.227/0.127 -->
<!-- Settings: RefScale 1.0 Min/Max Stroke Scales 0.5/2.21 -->
<!DOCTYPE svg
PUBLIC "-//W3C//DTD SVG 1.1//EN"
       "http://www.w3.org/Graphics/SVG/1.1/DTD/svg11.dtd">
<svg version="1.1" xmlns="http://www.w3.org/2000/svg" xmlns:xlink="http://www.w3.org/1999/xlink" width="3300" height="2200">
<![CDATA[<svg width="36" height="36" viewBox="0 0 36 36" fill="none" xmlns="http://www.w3.org/2000/svg">
<path d="M31.5 33H4.5" stroke="black" stroke-width="3" stroke-linecap="round" stroke-linejoin="round"/>
<path d="M9 27V3H15V27H9Z" stroke="black" stroke-width="3" stroke-linecap="round" stroke-linejoin="round"/>
<path d="M21 27V12H27V27H21Z" stroke="black" stroke-width="3" stroke-linecap="round" stroke-linejoin="round"/>
</svg>
]]>
 <g id="Notes">
  <rect height="2200" id="artboard" style="fill:white;opacity:1" width="3300" x="0" y="0"/>
  <line id="" style="fill:none;stroke:black;opacity:1;stroke-width:0.5;" x1="263" x2="3036" y1="292" y2="292"/>
  <text id="reftext1" style="stroke:none;fill:black;font-family:-apple-system,&quot;SF Pro Display&quot;,&quot;SF Pro Text&quot;,Helvetica,sans-serif;font-weight:bold;" transform="matrix(1 0 0 1 263 322)">Weight/Scale Variations</text>
  <text id="reftext2" style="stroke:none;fill:black;font-family:-apple-system,&quot;SF Pro Display&quot;,&quot;SF Pro Text&quot;,Helvetica,sans-serif;text-anchor:middle;" transform="matrix(1 0 0 1 559.711 322)">Ultralight</text>
  <text style="stroke:none;fill:black;font-family:-apple-system,&quot;SF Pro Display&quot;,&quot;SF Pro Text&quot;,Helvetica,sans-serif;text-anchor:middle;" transform="matrix(1 0 0 1 856.422 322)">Thin</text>
  <text style="stroke:none;fill:black;font-family:-apple-system,&quot;SF Pro Display&quot;,&quot;SF Pro Text&quot;,Helvetica,sans-serif;text-anchor:middle;" transform="matrix(1 0 0 1 1153.13 322)">Light</text>
  <text style="stroke:none;fill:black;font-family:-apple-system,&quot;SF Pro Display&quot;,&quot;SF Pro Text&quot;,Helvetica,sans-serif;text-anchor:middle;" transform="matrix(1 0 0 1 1449.84 322)">Regular</text>
  <text style="stroke:none;fill:black;font-family:-apple-system,&quot;SF Pro Display&quot;,&quot;SF Pro Text&quot;,Helvetica,sans-serif;text-anchor:middle;" transform="matrix(1 0 0 1 1746.56 322)">Medium</text>
  <text style="stroke:none;fill:black;font-family:-apple-system,&quot;SF Pro Display&quot;,&quot;SF Pro Text&quot;,Helvetica,sans-serif;text-anchor:middle;" transform="matrix(1 0 0 1 2043.27 322)">Semibold</text>
  <text style="stroke:none;fill:black;font-family:-apple-system,&quot;SF Pro Display&quot;,&quot;SF Pro Text&quot;,Helvetica,sans-serif;text-anchor:middle;" transform="matrix(1 0 0 1 2339.98 322)">Bold</text>
  <text style="stroke:none;fill:black;font-family:-apple-system,&quot;SF Pro Display&quot;,&quot;SF Pro Text&quot;,Helvetica,sans-serif;text-anchor:middle;" transform="matrix(1 0 0 1 2636.69 322)">Heavy</text>
  <text style="stroke:none;fill:black;font-family:-apple-system,&quot;SF Pro Display&quot;,&quot;SF Pro Text&quot;,Helvetica,sans-serif;text-anchor:middle;" transform="matrix(1 0 0 1 2933.4 322)">Black</text>
  <line id="" style="fill:none;stroke:black;opacity:1;stroke-width:0.5;" x1="263" x2="3036" y1="1903" y2="1903"/>
  <g id="" transform="matrix(1 0 0 1 263 1933)">
   <path d="M9.24805 0.830078C13.5547 0.830078 17.1387-2.74414 17.1387-7.05078C17.1387-11.3574 13.5449-14.9316 9.23828-14.9316C4.94141-14.9316 1.36719-11.3574 1.36719-7.05078C1.36719-2.74414 4.95117 0.830078 9.24805 0.830078ZM9.24805-0.654297C5.70312-0.654297 2.87109-3.49609 2.87109-7.05078C2.87109-10.6055 5.69336-13.4473 9.23828-13.4473C12.793-13.4473 15.6348-10.6055 15.6445-7.05078C15.6543-3.49609 12.8027-0.654297 9.24805-0.654297ZM6.39648-6.31836L8.50586-6.31836L8.50586-4.19922C8.50586-3.75977 8.79883-3.45703 9.22852-3.45703C9.67773-3.45703 9.9707-3.75977 9.9707-4.19922L9.9707-6.31836L12.0996-6.31836C12.5391-6.31836 12.8418-6.61133 12.8418-7.04102C12.8418-7.48047 12.5391-7.7832 12.0996-7.7832L9.9707-7.7832L9.9707-9.89258C9.9707-10.3418 9.67773-10.6445 9.22852-10.6445C8.79883-10.6445 8.50586-10.3418 8.50586-9.89258L8.50586-7.7832L6.39648-7.7832C5.94727-7.7832 5.64453-7.48047 5.64453-7.04102C5.64453-6.61133 5.94727-6.31836 6.39648-6.31836Z"/>
  </g>
  <g id="" transform="matrix(1 0 0 1 281.506 1933)">
   <path d="M11.709 2.91016C17.1582 2.91016 21.6699-1.61133 21.6699-7.05078C21.6699-12.5 17.1484-17.0117 11.6992-17.0117C6.25977-17.0117 1.74805-12.5 1.74805-7.05078C1.74805-1.61133 6.26953 2.91016 11.709 2.91016ZM11.709 1.25C7.09961 1.25 3.41797-2.44141 3.41797-7.05078C3.41797-11.6602 7.08984-15.3516 11.6992-15.3516C16.3086-15.3516 20-11.6602 20.0098-7.05078C20.0195-2.44141 16.3184 1.25 11.709 1.25ZM7.98828-6.23047L10.8789-6.23047L10.8789-3.32031C10.8789-2.83203 11.2109-2.5 11.6895-2.5C12.1777-2.5 12.5195-2.83203 12.5195-3.32031L12.5195-6.23047L15.4297-6.23047C15.918-6.23047 16.25-6.5625 16.25-7.04102C16.25-7.5293 15.918-7.87109 15.4297-7.87109L12.5195-7.87109L12.5195-10.7617C12.5195-11.2695 12.1777-11.6016 11.6895-11.6016C11.2109-11.6016 10.8789-11.2598 10.8789-10.7617L10.8789-7.87109L7.98828-7.87109C7.48047-7.87109 7.14844-7.5293 7.14844-7.04102C7.14844-6.5625 7.49023-6.23047 7.98828-6.23047Z"/>
  </g>
  <g id="" transform="matrix(1 0 0 1 304.924 1933)">
   <path d="M14.9707 5.66406C21.9336 5.66406 27.6953-0.0976562 27.6953-7.05078C27.6953-14.0137 21.9238-19.7754 14.9609-19.7754C8.00781-19.7754 2.25586-14.0137 2.25586-7.05078C2.25586-0.0976562 8.01758 5.66406 14.9707 5.66406ZM14.9707 3.84766C8.93555 3.84766 4.08203-1.01562 4.08203-7.05078C4.08203-13.0957 8.92578-17.9492 14.9609-17.9492C21.0059-17.9492 25.8594-13.0957 25.8691-7.05078C25.8789-1.01562 21.0156 3.84766 14.9707 3.84766ZM10.0586-6.14258L14.0625-6.14258L14.0625-2.12891C14.0625-1.5918 14.4336-1.2207 14.9512-1.2207C15.4883-1.2207 15.8594-1.5918 15.8594-2.12891L15.8594-6.14258L19.8828-6.14258C20.4102-6.14258 20.791-6.51367 20.791-7.03125C20.791-7.56836 20.4199-7.94922 19.8828-7.94922L15.8594-7.94922L15.8594-11.9531C15.8594-12.5098 15.4883-12.8809 14.9512-12.8809C14.4336-12.8809 14.0625-12.5 14.0625-11.9531L14.0625-7.94922L10.0586-7.94922C9.50195-7.94922 9.13086-7.56836 9.13086-7.03125C9.13086-6.51367 9.51172-6.14258 10.0586-6.14258Z"/>
  </g>
  <text style="stroke:none;fill:black;font-family:-apple-system,&quot;SF Pro Display&quot;,&quot;SF Pro Text&quot;,Helvetica,sans-serif;font-weight:bold;" transform="matrix(1 0 0 1 263 1953)">Design Variations</text>
  <text style="stroke:none;fill:black;font-family:-apple-system,&quot;SF Pro Display&quot;,&quot;SF Pro Text&quot;,Helvetica,sans-serif;" transform="matrix(1 0 0 1 263 1971)">Symbols are supported in up to nine weights and three scales.</text>
  <text style="stroke:none;fill:black;font-family:-apple-system,&quot;SF Pro Display&quot;,&quot;SF Pro Text&quot;,Helvetica,sans-serif;" transform="matrix(1 0 0 1 263 1989)">For optimal layout with text and other symbols, vertically align</text>
  <text style="stroke:none;fill:black;font-family:-apple-system,&quot;SF Pro Display&quot;,&quot;SF Pro Text&quot;,Helvetica,sans-serif;" transform="matrix(1 0 0 1 263 2007)">symbols with the adjacent text.</text>
  <line id="" style="fill:none;stroke:#00AEEF;stroke-width:0.5;opacity:1.0;" x1="776" x2="776" y1="1919" y2="1933"/>
  <g id="" transform="matrix(1 0 0 1 776 1933)">
   <path d="M3.31055 0.126953C3.82812 0.126953 4.08203-0.0683594 4.26758-0.605469L5.52734-4.0625L11.2891-4.0625L12.5488-0.605469C12.7344-0.0683594 12.9883 0.126953 13.4961 0.126953C14.0137 0.126953 14.3457-0.185547 14.3457-0.673828C14.3457-0.839844 14.3164-0.986328 14.2383-1.20117L9.6582-13.3887C9.43359-13.9941 9.0332-14.2871 8.4082-14.2871C7.80273-14.2871 7.39258-13.9941 7.17773-13.3984L2.59766-1.19141C2.51953-0.976562 2.49023-0.830078 2.49023-0.664062C2.49023-0.175781 2.80273 0.126953 3.31055 0.126953ZM6.00586-5.53711L8.37891-12.1094L8.42773-12.1094L10.8008-5.53711Z"/>
  </g>
  <line id="" style="fill:none;stroke:#00AEEF;stroke-width:0.5;opacity:1.0;" x1="792.836" x2="792.836" y1="1919" y2="1933"/>
  <text style="stroke:none;fill:black;font-family:-apple-system,&quot;SF Pro Display&quot;,&quot;SF Pro Text&quot;,Helvetica,sans-serif;font-weight:bold;" transform="matrix(1 0 0 1 776 1953)">Margins</text>
  <text style="stroke:none;fill:black;font-family:-apple-system,&quot;SF Pro Display&quot;,&quot;SF Pro Text&quot;,Helvetica,sans-serif;" transform="matrix(1 0 0 1 776 1971)">Leading and trailing margins on the left and right side of each symbol</text>
  <text style="stroke:none;fill:black;font-family:-apple-system,&quot;SF Pro Display&quot;,&quot;SF Pro Text&quot;,Helvetica,sans-serif;" transform="matrix(1 0 0 1 776 1989)">can be adjusted by modifying the x-location of the margin guidelines.</text>
  <text style="stroke:none;fill:black;font-family:-apple-system,&quot;SF Pro Display&quot;,&quot;SF Pro Text&quot;,Helvetica,sans-serif;" transform="matrix(1 0 0 1 776 2007)">Modifications are automatically applied proportionally to all</text>
  <text style="stroke:none;fill:black;font-family:-apple-system,&quot;SF Pro Display&quot;,&quot;SF Pro Text&quot;,Helvetica,sans-serif;" transform="matrix(1 0 0 1 776 2025)">scales and weights.</text>
  <g id="" transform="matrix(1 0 0 1 1289 1933)">
   <path d="M2.8418 1.86523L4.54102 3.57422C5.40039 4.44336 6.38672 4.38477 7.31445 3.35938L17.4902-7.85156C17.7539-7.76367 18.0273-7.7832 18.3398-7.8418L19.4043-8.03711L20.0684-7.36328L20.0293-6.80664C19.9902-6.30859 20.1172-5.92773 20.6055-5.44922L21.3672-4.70703C21.8457-4.22852 22.4609-4.19922 22.9297-4.66797L25.8398-7.58789C26.3086-8.05664 26.2891-8.65234 25.8105-9.13086L25.0391-9.89258C24.5605-10.3711 24.1895-10.5273 23.7109-10.4883L23.1348-10.4395L22.4902-11.0742L22.7344-12.1973C22.8613-12.7637 22.7051-13.2031 22.1191-13.7891L19.9219-15.9766C16.582-19.2969 12.1484-19.2188 9.25781-16.3281C8.83789-15.918 8.80859-15.3418 9.04297-14.9512C9.27734-14.5898 9.73633-14.3555 10.3809-14.5215C11.8457-14.8633 13.3691-14.9219 14.7949-13.9844L14.209-12.5293C14.0137-12.0508 13.9844-11.6504 14.1113-11.2891L3.04688-0.898438C2.06055 0.0195312 1.98242 0.996094 2.8418 1.86523ZM10.752-15.957C13.1836-17.7344 16.4746-17.4316 18.7012-15.2051L21.1328-12.793C21.3672-12.5586 21.4062-12.373 21.3379-12.0312L21.0156-10.5469L22.5195-9.0625L23.5059-9.12109C23.7598-9.13086 23.8379-9.11133 24.0332-8.91602L24.6094-8.33984L22.168-5.89844L21.5918-6.47461C21.3965-6.66992 21.3672-6.74805 21.377-7.01172L21.4453-7.98828L19.9512-9.47266L18.4277-9.21875C18.1055-9.15039 17.959-9.17969 17.7148-9.41406L15.7129-11.416C15.459-11.6504 15.4297-11.8164 15.5859-12.1875L16.4648-14.2773C14.9023-15.7324 12.8711-16.3574 10.8398-15.7617C10.6836-15.7227 10.625-15.8496 10.752-15.957ZM5.27344 2.30469L4.10156 1.14258C3.63281 0.683594 3.74023 0.341797 4.14062-0.0195312L14.9512-10.1953L16.416-8.71094L6.42578 2.27539C6.07422 2.67578 5.74219 2.77344 5.27344 2.30469Z"/>
  </g>
  <text style="stroke:none;fill:black;font-family:-apple-system,&quot;SF Pro Display&quot;,&quot;SF Pro Text&quot;,Helvetica,sans-serif;font-weight:bold;" transform="matrix(1 0 0 1 1289 1953)">Exporting</text>
  <text style="stroke:none;fill:black;font-family:-apple-system,&quot;SF Pro Display&quot;,&quot;SF Pro Text&quot;,Helvetica,sans-serif;" transform="matrix(1 0 0 1 1289 1971)">Symbols should be outlined when exporting to ensure the</text>
  <text style="stroke:none;fill:black;font-family:-apple-system,&quot;SF Pro Display&quot;,&quot;SF Pro Text&quot;,Helvetica,sans-serif;" transform="matrix(1 0 0 1 1289 1989)">design is preserved when submitting to Xcode.</text>
  <text id="template-version" style="stroke:none;fill:black;font-family:-apple-system,&quot;SF Pro Display&quot;,&quot;SF Pro Text&quot;,Helvetica,sans-serif;text-anchor:end;" transform="matrix(1 0 0 1 3036 1933)">Template v.2.0</text>
  <text style="stroke:none;fill:black;font-family:-apple-system,&quot;SF Pro Display&quot;,&quot;SF Pro Text&quot;,Helvetica,sans-serif;text-anchor:end;" transform="matrix(1 0 0 1 3036 1951)">Requires Xcode 12 or greater</text>
  <text style="stroke:none;fill:black;font-family:-apple-system,&quot;SF Pro Display&quot;,&quot;SF Pro Text&quot;,Helvetica,sans-serif;" transform="matrix(1 0 0 1 263 726)">Small</text>
  <text style="stroke:none;fill:black;font-family:-apple-system,&quot;SF Pro Display&quot;,&quot;SF Pro Text&quot;,Helvetica,sans-serif;" transform="matrix(1 0 0 1 263 1156)">Medium</text>
  <text style="stroke:none;fill:black;font-family:-apple-system,&quot;SF Pro Display&quot;,&quot;SF Pro Text&quot;,Helvetica,sans-serif;" transform="matrix(1 0 0 1 263 1586)">Large</text>
 </g>
 <g id="Guides">
  <g id="H-reference" style="fill:#27AAE1;stroke:none;" transform="matrix(1 0 0 1 339 696)">
   <path d="M0.976562 0L3.66211 0L12.9883-24.4629L45.752-24.4629L55.127 0L57.7637 0L30.6152-70.459L28.125-70.459ZM29.3457-67.1387L29.4434-67.1387L44.873-26.709L13.8672-26.709Z"/>
  </g>
  <line id="Baseline-S" style="fill:none;stroke:#27AAE1;opacity:1;stroke-width:0.5;" x1="263" x2="3036" y1="696" y2="696"/>
  <line id="Capline-S" style="fill:none;stroke:#27AAE1;opacity:1;stroke-width:0.5;" x1="263" x2="3036" y1="625.541" y2="625.541"/>
  <g id="H-reference" style="fill:#27AAE1;stroke:none;" transform="matrix(1 0 0 1 339 1126)">
   <path d="M0.976562 0L3.66211 0L12.9883-24.4629L45.752-24.4629L55.127 0L57.7637 0L30.6152-70.459L28.125-70.459ZM29.3457-67.1387L29.4434-67.1387L44.873-26.709L13.8672-26.709Z"/>
  </g>
  <line id="Baseline-M" style="fill:none;stroke:#27AAE1;opacity:1;stroke-width:0.5;" x1="263" x2="3036" y1="1126" y2="1126"/>
  <line id="Capline-M" style="fill:none;stroke:#27AAE1;opacity:1;stroke-width:0.5;" x1="263" x2="3036" y1="1055.54" y2="1055.54"/>
  <g id="H-reference" style="fill:#27AAE1;stroke:none;" transform="matrix(1 0 0 1 339 1556)">
   <path d="M0.976562 0L3.66211 0L12.9883-24.4629L45.752-24.4629L55.127 0L57.7637 0L30.6152-70.459L28.125-70.459ZM29.3457-67.1387L29.4434-67.1387L44.873-26.709L13.8672-26.709Z"/>
  </g>
  <line id="Baseline-L" style="fill:none;stroke:#27AAE1;opacity:1;stroke-width:0.5;" x1="263" x2="3036" y1="1556" y2="1556"/>
  <line id="Capline-L" style="fill:none;stroke:#27AAE1;opacity:1;stroke-width:0.5;" x1="263" x2="3036" y1="1485.54" y2="1485.54"/>
  <line id="left-margin" x1="1396.5944265189628" x2="1396.5944265189628" y1="1030.79" y2="1150.12" style="fill:none;stroke:#00AEEF;stroke-width:0.5;opacity:1.0;"/>
  <line id="right-margin" x1="1505.665573481037" x2="1505.665573481037" y1="1030.79" y2="1150.12" style="fill:none;stroke:#00AEEF;stroke-width:0.5;opacity:1.0;"/>
 </g>
 <g id="Symbols">
  <g id="Black-L" transform="matrix(1.0,0.0,0.0,1.0,2864.3291102094618,1443.3840407616583)">  <path stroke-miterlimit="4" stroke-opacity="1" fill="#000000" stroke-linecap="round" fill-rule="nonzero" stroke-width="3px" fill-opacity="1" stroke-dasharray="none" stroke="none" stroke-linejoin="round" d="M123.114,116.02L17.588,116.02C10.432,116.02,4.631,121.821,4.631,128.977C4.631,136.132,10.432,141.933,17.588,141.933L123.114,141.933C130.27,141.933,136.07,136.132,136.07,128.977C136.07,121.821,130.27,116.02,123.114,116.02Z"/>
  <path stroke-opacity="1" stroke-linejoin="round" fill="#000000" stroke-linecap="round" stroke-width="3px" fill-opacity="1" fill-rule="nonzero" stroke="none" stroke-miterlimit="4" stroke-dasharray="none" d="M48.132,105.526L48.132,11.725L35.175,24.681L58.626,24.681L45.669,11.725L45.669,105.526L58.626,92.57L35.175,92.57L48.132,105.526ZM22.219,105.526C22.219,112.682,28.02,118.483,35.175,118.483L58.626,118.483C65.781,118.483,71.582,112.682,71.582,105.526L71.582,11.725C71.582,4.57,65.781,-1.231,58.626,-1.231L35.175,-1.231C28.02,-1.231,22.219,4.57,22.219,11.725L22.219,105.526Z"/>
  <path fill-rule="nonzero" stroke-width="3px" fill="#000000" stroke-linejoin="round" stroke-miterlimit="4" stroke-opacity="1" stroke-linecap="round" stroke-dasharray="none" fill-opacity="1" stroke="none" d="M95.032,105.526L95.032,46.901L82.076,59.857L105.526,59.857L92.57,46.901L92.57,105.526L105.526,92.57L82.076,92.57L95.032,105.526ZM69.12,105.526C69.12,112.682,74.92,118.483,82.076,118.483L105.526,118.483C112.682,118.483,118.483,112.682,118.483,105.526L118.483,46.901C118.483,39.745,112.682,33.944,105.526,33.944L82.076,33.944C74.92,33.944,69.12,39.745,69.12,46.901L69.12,105.526Z"/>
</g>
  <g id="Heavy-L" transform="matrix(1.0,0.0,0.0,1.0,2567.6191102094617,1443.3840407616583)">  <path stroke-opacity="1" stroke-dasharray="none" stroke-linecap="round" stroke="none" stroke-linejoin="round" stroke-miterlimit="4" stroke-width="3px" fill="#000000" fill-opacity="1" fill-rule="nonzero" d="M123.114,117.439L17.588,117.439C11.216,117.439,6.05,122.605,6.05,128.977C6.05,135.349,11.216,140.514,17.588,140.514L123.114,140.514C129.486,140.514,134.652,135.349,134.652,128.977C134.652,122.605,129.486,117.439,123.114,117.439Z"/>
  <path stroke-linejoin="round" stroke-dasharray="none" stroke-miterlimit="4" stroke="none" stroke-opacity="1" stroke-linecap="round" fill-rule="nonzero" fill-opacity="1" fill="#000000" stroke-width="3px" d="M46.713,105.526L46.713,11.725L35.175,23.263L58.626,23.263L47.088,11.725L47.088,105.526L58.626,93.989L35.175,93.989L46.713,105.526ZM23.638,105.526C23.638,111.898,28.803,117.064,35.175,117.064L58.626,117.064C64.998,117.064,70.163,111.898,70.163,105.526L70.163,11.725C70.163,5.353,64.998,0.188,58.626,0.188L35.175,0.188C28.803,0.188,23.638,5.353,23.638,11.725L23.638,105.526Z"/>
  <path stroke-linejoin="round" stroke-miterlimit="4" fill-opacity="1" fill="#000000" stroke="none" stroke-opacity="1" stroke-width="3px" stroke-dasharray="none" fill-rule="nonzero" stroke-linecap="round" d="M93.614,105.526L93.614,46.901L82.076,58.438L105.526,58.438L93.989,46.901L93.989,105.526L105.526,93.989L82.076,93.989L93.614,105.526ZM70.538,105.526C70.538,111.898,75.704,117.064,82.076,117.064L105.526,117.064C111.898,117.064,117.064,111.898,117.064,105.526L117.064,46.901C117.064,40.529,111.898,35.363,105.526,35.363L82.076,35.363C75.704,35.363,70.538,40.529,70.538,46.901L70.538,105.526Z"/>
</g>
  <g id="Bold-L" transform="matrix(1.0,0.0,0.0,1.0,2270.9091102094617,1443.3840407616583)">  <path stroke-miterlimit="4" fill-rule="nonzero" stroke-linecap="round" stroke-dasharray="none" stroke-width="3px" fill="#000000" stroke-opacity="1" fill-opacity="1" stroke-linejoin="round" stroke="none" d="M123.114,118.858L17.588,118.858C11.999,118.858,7.469,123.388,7.469,128.977C7.469,134.565,11.999,139.095,17.588,139.095L123.114,139.095C128.703,139.095,133.233,134.565,133.233,128.977C133.233,123.388,128.703,118.858,123.114,118.858Z"/>
  <path stroke-linecap="round" stroke="none" stroke-opacity="1" stroke-dasharray="none" fill-opacity="1" fill-rule="nonzero" stroke-linejoin="round" stroke-width="3px" fill="#000000" stroke-miterlimit="4" d="M45.294,105.526L45.294,11.725L35.175,21.844L58.626,21.844L48.507,11.725L48.507,105.526L58.626,95.408L35.175,95.408L45.294,105.526ZM25.057,105.526C25.057,111.115,29.587,115.645,35.175,115.645L58.626,115.645C64.214,115.645,68.745,111.115,68.745,105.526L68.745,11.725C68.745,6.137,64.214,1.606,58.626,1.606L35.175,1.606C29.587,1.606,25.057,6.137,25.057,11.725L25.057,105.526Z"/>
  <path stroke-opacity="1" fill-opacity="1" fill-rule="nonzero" stroke="none" stroke-linecap="round" stroke-linejoin="round" stroke-width="3px" stroke-dasharray="none" fill="#000000" stroke-miterlimit="4" d="M92.195,105.526L92.195,46.901L82.076,57.019L105.526,57.019L95.408,46.901L95.408,105.526L105.526,95.408L82.076,95.408L92.195,105.526ZM71.957,105.526C71.957,111.115,76.488,115.645,82.076,115.645L105.526,115.645C111.115,115.645,115.645,111.115,115.645,105.526L115.645,46.901C115.645,41.312,111.115,36.782,105.526,36.782L82.076,36.782C76.488,36.782,71.957,41.312,71.957,46.901L71.957,105.526Z"/>
</g>
  <g id="Semibold-L" transform="matrix(1.0,0.0,0.0,1.0,1974.199110209462,1443.3840407616583)">  <path stroke-width="3px" stroke="none" fill="#000000" fill-rule="nonzero" stroke-opacity="1" stroke-linecap="round" stroke-dasharray="none" stroke-miterlimit="4" fill-opacity="1" stroke-linejoin="round" d="M123.114,120.277L17.588,120.277C12.783,120.277,8.888,124.172,8.888,128.977C8.888,133.782,12.783,137.677,17.588,137.677L123.114,137.677C127.919,137.677,131.814,133.782,131.814,128.977C131.814,124.172,127.919,120.277,123.114,120.277Z"/>
  <path stroke-linecap="round" stroke-width="3px" fill-opacity="1" stroke-miterlimit="4" stroke="none" stroke-opacity="1" stroke-linejoin="round" fill-rule="nonzero" stroke-dasharray="none" fill="#000000" d="M43.876,105.526L43.876,11.725L35.175,20.425L58.626,20.425L49.926,11.725L49.926,105.526L58.626,96.826L35.175,96.826L43.876,105.526ZM26.475,105.526C26.475,110.331,30.371,114.226,35.175,114.226L58.626,114.226C63.431,114.226,67.326,110.331,67.326,105.526L67.326,11.725C67.326,6.92,63.431,3.025,58.626,3.025L35.175,3.025C30.371,3.025,26.475,6.92,26.475,11.725L26.475,105.526Z"/>
  <path stroke-dasharray="none" stroke-opacity="1" stroke-miterlimit="4" stroke-linecap="round" fill="#000000" stroke-width="3px" stroke-linejoin="round" fill-opacity="1" fill-rule="nonzero" stroke="none" d="M90.776,105.526L90.776,46.901L82.076,55.601L105.526,55.601L96.826,46.901L96.826,105.526L105.526,96.826L82.076,96.826L90.776,105.526ZM73.376,105.526C73.376,110.331,77.271,114.226,82.076,114.226L105.526,114.226C110.331,114.226,114.226,110.331,114.226,105.526L114.226,46.901C114.226,42.096,110.331,38.201,105.526,38.201L82.076,38.201C77.271,38.201,73.376,42.096,73.376,46.901L73.376,105.526Z"/>
</g>
  <g id="Medium-L" transform="matrix(1.0,0.0,0.0,1.0,1677.489110209462,1443.3840407616583)">  <path fill="#000000" stroke-linecap="round" stroke-miterlimit="4" stroke-width="3px" stroke-opacity="1" fill-opacity="1" stroke-dasharray="none" stroke-linejoin="round" fill-rule="nonzero" stroke="none" d="M123.114,121.695L17.588,121.695C13.566,121.695,10.306,124.955,10.306,128.977C10.306,132.998,13.566,136.258,17.588,136.258L123.114,136.258C127.135,136.258,130.395,132.998,130.395,128.977C130.395,124.955,127.135,121.695,123.114,121.695Z"/>
  <path fill-rule="nonzero" fill="#000000" stroke-linecap="round" stroke-opacity="1" stroke-miterlimit="4" fill-opacity="1" stroke-linejoin="round" stroke-width="3px" stroke="none" stroke-dasharray="none" d="M42.457,105.526L42.457,11.725L35.175,19.006L58.626,19.006L51.344,11.725L51.344,105.526L58.626,98.245L35.175,98.245L42.457,105.526ZM27.894,105.526C27.894,109.548,31.154,112.808,35.175,112.808L58.626,112.808C62.647,112.808,65.907,109.548,65.907,105.526L65.907,11.725C65.907,7.704,62.647,4.444,58.626,4.444L35.175,4.444C31.154,4.444,27.894,7.704,27.894,11.725L27.894,105.526Z"/>
  <path fill-opacity="1" stroke-width="3px" stroke-miterlimit="4" stroke-linejoin="round" stroke-dasharray="none" stroke-opacity="1" fill="#000000" stroke-linecap="round" fill-rule="nonzero" stroke="none" d="M89.357,105.526L89.357,46.901L82.076,54.182L105.526,54.182L98.245,46.901L98.245,105.526L105.526,98.245L82.076,98.245L89.357,105.526ZM74.795,105.526C74.795,109.548,78.055,112.808,82.076,112.808L105.526,112.808C109.548,112.808,112.808,109.548,112.808,105.526L112.808,46.901C112.808,42.879,109.548,39.619,105.526,39.619L82.076,39.619C78.055,39.619,74.795,42.879,74.795,46.901L74.795,105.526Z"/>
</g>
  <g id="Regular-L" transform="matrix(1.0,0.0,0.0,1.0,1380.779110209462,1443.3840407616583)">  <path stroke-linejoin="round" stroke-opacity="1" stroke-width="3px" stroke-linecap="round" fill="#000000" stroke="none" stroke-dasharray="none" fill-opacity="1" fill-rule="nonzero" stroke-miterlimit="4" d="M123.114,123.114L17.588,123.114C14.35,123.114,11.725,125.739,11.725,128.977C11.725,132.214,14.35,134.839,17.588,134.839L123.114,134.839C126.352,134.839,128.977,132.214,128.977,128.977C128.977,125.739,126.352,123.114,123.114,123.114Z"/>
  <path fill-rule="nonzero" fill="#000000" fill-opacity="1" stroke-width="3px" stroke-dasharray="none" stroke-linejoin="round" stroke="none" stroke-opacity="1" stroke-miterlimit="4" stroke-linecap="round" d="M41.038,105.526L41.038,11.725L35.175,17.588L58.626,17.588L52.763,11.725L52.763,105.526L58.626,99.664L35.175,99.664L41.038,105.526ZM29.313,105.526C29.313,108.764,31.938,111.389,35.175,111.389L58.626,111.389C61.864,111.389,64.488,108.764,64.488,105.526L64.488,11.725C64.488,8.487,61.864,5.863,58.626,5.863L35.175,5.863C31.938,5.863,29.313,8.487,29.313,11.725L29.313,105.526Z"/>
  <path stroke-opacity="1" stroke-miterlimit="4" stroke-linecap="round" stroke-width="3px" stroke-dasharray="none" fill="#000000" stroke-linejoin="round" fill-rule="nonzero" fill-opacity="1" stroke="none" d="M87.939,105.526L87.939,46.901L82.076,52.763L105.526,52.763L99.664,46.901L99.664,105.526L105.526,99.664L82.076,99.664L87.939,105.526ZM76.213,105.526C76.213,108.764,78.838,111.389,82.076,111.389L105.526,111.389C108.764,111.389,111.389,108.764,111.389,105.526L111.389,46.901C111.389,43.663,108.764,41.038,105.526,41.038L82.076,41.038C78.838,41.038,76.213,43.663,76.213,46.901L76.213,105.526Z"/>
</g>
  <g id="Light-L" transform="matrix(1.0,0.0,0.0,1.0,1084.0691102094622,1443.3840407616583)">  <path fill="#000000" stroke="none" stroke-width="3px" fill-rule="nonzero" fill-opacity="1" stroke-opacity="1" stroke-linecap="round" stroke-miterlimit="4" stroke-dasharray="none" stroke-linejoin="round" d="M123.114,124.091L17.588,124.091C14.89,124.091,12.702,126.278,12.702,128.977C12.702,131.675,14.89,133.862,17.588,133.862L123.114,133.862C125.812,133.862,128,131.675,128,128.977C128,126.278,125.812,124.091,123.114,124.091Z"/>
  <path fill-rule="nonzero" stroke-linejoin="round" stroke-width="3px" stroke-opacity="1" fill-opacity="1" fill="#000000" stroke-linecap="round" stroke-dasharray="none" stroke-miterlimit="4" stroke="none" d="M40.061,105.526L40.061,11.725L35.175,16.611L58.626,16.611L53.74,11.725L53.74,105.526L58.626,100.641L35.175,100.641L40.061,105.526ZM30.29,105.526C30.29,108.225,32.477,110.412,35.175,110.412L58.626,110.412C61.324,110.412,63.511,108.225,63.511,105.526L63.511,11.725C63.511,9.027,61.324,6.84,58.626,6.84L35.175,6.84C32.477,6.84,30.29,9.027,30.29,11.725L30.29,105.526Z"/>
  <path fill-rule="nonzero" stroke-linecap="round" stroke-width="3px" stroke-dasharray="none" stroke-opacity="1" fill="#000000" stroke="none" stroke-miterlimit="4" fill-opacity="1" stroke-linejoin="round" d="M86.962,105.526L86.962,46.901L82.076,51.786L105.526,51.786L100.641,46.901L100.641,105.526L105.526,100.641L82.076,100.641L86.962,105.526ZM77.191,105.526C77.191,108.225,79.378,110.412,82.076,110.412L105.526,110.412C108.225,110.412,110.412,108.225,110.412,105.526L110.412,46.901C110.412,44.202,108.225,42.015,105.526,42.015L82.076,42.015C79.378,42.015,77.191,44.202,77.191,46.901L77.191,105.526Z"/>
</g>
  <g id="Thin-L" transform="matrix(1.0,0.0,0.0,1.0,787.3591102094621,1443.3840407616583)">  <path stroke-dasharray="none" stroke-opacity="1" stroke-linejoin="round" fill-rule="nonzero" stroke-width="3px" stroke-miterlimit="4" stroke="none" fill-opacity="1" stroke-linecap="round" fill="#000000" d="M123.114,125.068L17.588,125.068C15.429,125.068,13.679,126.818,13.679,128.977C13.679,131.135,15.429,132.885,17.588,132.885L123.114,132.885C125.273,132.885,127.022,131.135,127.022,128.977C127.022,126.818,125.273,125.068,123.114,125.068Z"/>
  <path stroke-dasharray="none" stroke-linejoin="round" stroke-opacity="1" stroke-miterlimit="4" fill="#000000" stroke-linecap="round" stroke="none" fill-rule="nonzero" stroke-width="3px" fill-opacity="1" d="M39.084,105.526L39.084,11.725L35.175,15.634L58.626,15.634L54.717,11.725L54.717,105.526L58.626,101.618L35.175,101.618L39.084,105.526ZM31.267,105.526C31.267,107.685,33.017,109.435,35.175,109.435L58.626,109.435C60.784,109.435,62.534,107.685,62.534,105.526L62.534,11.725C62.534,9.567,60.784,7.817,58.626,7.817L35.175,7.817C33.017,7.817,31.267,9.567,31.267,11.725L31.267,105.526Z"/>
  <path stroke-linejoin="round" stroke-miterlimit="4" stroke-dasharray="none" stroke-width="3px" fill-rule="nonzero" stroke-opacity="1" stroke-linecap="round" fill-opacity="1" stroke="none" fill="#000000" d="M85.984,105.526L85.984,46.901L82.076,50.809L105.526,50.809L101.618,46.901L101.618,105.526L105.526,101.618L82.076,101.618L85.984,105.526ZM78.168,105.526C78.168,107.685,79.917,109.435,82.076,109.435L105.526,109.435C107.685,109.435,109.435,107.685,109.435,105.526L109.435,46.901C109.435,44.742,107.685,42.992,105.526,42.992L82.076,42.992C79.917,42.992,78.168,44.742,78.168,46.901L78.168,105.526Z"/>
</g>
  <g id="Ultralight-L" transform="matrix(1.0,0.0,0.0,1.0,490.6491102094621,1443.3840407616583)">  <path stroke-miterlimit="4" fill-opacity="1" stroke-width="3px" stroke-dasharray="none" fill="#000000" fill-rule="nonzero" stroke-linecap="round" stroke-linejoin="round" stroke-opacity="1" stroke="none" d="M123.114,126.045L17.588,126.045C15.969,126.045,14.656,127.358,14.656,128.977C14.656,130.596,15.969,131.908,17.588,131.908L123.114,131.908C124.733,131.908,126.045,130.596,126.045,128.977C126.045,127.358,124.733,126.045,123.114,126.045Z"/>
  <path stroke-width="3px" stroke-dasharray="none" stroke-linejoin="round" fill-rule="nonzero" fill="#000000" stroke-miterlimit="4" stroke="none" fill-opacity="1" stroke-opacity="1" stroke-linecap="round" d="M38.107,105.526L38.107,11.725L35.175,14.656L58.626,14.656L55.694,11.725L55.694,105.526L58.626,102.595L35.175,102.595L38.107,105.526ZM32.244,105.526C32.244,107.145,33.557,108.458,35.175,108.458L58.626,108.458C60.245,108.458,61.557,107.145,61.557,105.526L61.557,11.725C61.557,10.106,60.245,8.794,58.626,8.794L35.175,8.794C33.557,8.794,32.244,10.106,32.244,11.725L32.244,105.526Z"/>
  <path stroke-linejoin="round" fill="#000000" fill-rule="nonzero" fill-opacity="1" stroke-dasharray="none" stroke-width="3px" stroke-miterlimit="4" stroke-linecap="round" stroke="none" stroke-opacity="1" d="M85.007,105.526L85.007,46.901L82.076,49.832L105.526,49.832L102.595,46.901L102.595,105.526L105.526,102.595L82.076,102.595L85.007,105.526ZM79.145,105.526C79.145,107.145,80.457,108.458,82.076,108.458L105.526,108.458C107.145,108.458,108.458,107.145,108.458,105.526L108.458,46.901C108.458,45.282,107.145,43.969,105.526,43.969L82.076,43.969C80.457,43.969,79.145,45.282,79.145,46.901L79.145,105.526Z"/>
</g>
  <g id="Black-M" transform="matrix(1.0,0.0,0.0,1.0,2880.1444265189625,1030.7808887021092)">  <path stroke-miterlimit="4" stroke-opacity="1" fill="#000000" stroke-linecap="round" fill-rule="nonzero" stroke-width="3px" fill-opacity="1" stroke-dasharray="none" stroke="none" stroke-linejoin="round" d="M95.437,89.938L13.634,89.938C8.087,89.938,3.59,94.435,3.59,99.982C3.59,105.529,8.087,110.026,13.634,110.026L95.437,110.026C100.984,110.026,105.481,105.529,105.481,99.982C105.481,94.435,100.984,89.938,95.437,89.938Z"/>
  <path stroke-opacity="1" stroke-linejoin="round" fill="#000000" stroke-linecap="round" stroke-width="3px" fill-opacity="1" fill-rule="nonzero" stroke="none" stroke-miterlimit="4" stroke-dasharray="none" d="M37.311,81.803L37.311,9.089L27.268,19.133L45.446,19.133L35.403,9.089L35.403,81.803L45.446,71.76L27.268,71.76L37.311,81.803ZM17.224,81.803C17.224,87.35,21.721,91.847,27.268,91.847L45.446,91.847C50.993,91.847,55.49,87.35,55.49,81.803L55.49,9.089C55.49,3.542,50.993,-0.954,45.446,-0.954L27.268,-0.954C21.721,-0.954,17.224,3.542,17.224,9.089L17.224,81.803Z"/>
  <path fill-rule="nonzero" stroke-width="3px" fill="#000000" stroke-linejoin="round" stroke-miterlimit="4" stroke-opacity="1" stroke-linecap="round" stroke-dasharray="none" fill-opacity="1" stroke="none" d="M73.668,81.803L73.668,36.357L63.625,46.401L81.803,46.401L71.76,36.357L71.76,81.803L81.803,71.76L63.625,71.76L73.668,81.803ZM53.581,81.803C53.581,87.35,58.078,91.847,63.625,91.847L81.803,91.847C87.35,91.847,91.847,87.35,91.847,81.803L91.847,36.357C91.847,30.81,87.35,26.313,81.803,26.313L63.625,26.313C58.078,26.313,53.581,30.81,53.581,36.357L53.581,81.803Z"/>
</g>
  <g id="Heavy-M" transform="matrix(1.0,0.0,0.0,1.0,2583.4344265189625,1030.7808887021092)">  <path stroke-opacity="1" stroke-dasharray="none" stroke-linecap="round" stroke="none" stroke-linejoin="round" stroke-miterlimit="4" stroke-width="3px" fill="#000000" fill-opacity="1" fill-rule="nonzero" d="M95.437,91.038L13.634,91.038C8.694,91.038,4.69,95.042,4.69,99.982C4.69,104.921,8.694,108.926,13.634,108.926L95.437,108.926C100.377,108.926,104.381,104.921,104.381,99.982C104.381,95.042,100.377,91.038,95.437,91.038Z"/>
  <path stroke-linejoin="round" stroke-dasharray="none" stroke-miterlimit="4" stroke="none" stroke-opacity="1" stroke-linecap="round" fill-rule="nonzero" fill-opacity="1" fill="#000000" stroke-width="3px" d="M36.212,81.803L36.212,9.089L27.268,18.033L45.446,18.033L36.502,9.089L36.502,81.803L45.446,72.86L27.268,72.86L36.212,81.803ZM18.324,81.803C18.324,86.743,22.328,90.747,27.268,90.747L45.446,90.747C50.386,90.747,54.39,86.743,54.39,81.803L54.39,9.089C54.39,4.15,50.386,0.145,45.446,0.145L27.268,0.145C22.328,0.145,18.324,4.15,18.324,9.089L18.324,81.803Z"/>
  <path stroke-linejoin="round" stroke-miterlimit="4" fill-opacity="1" fill="#000000" stroke="none" stroke-opacity="1" stroke-width="3px" stroke-dasharray="none" fill-rule="nonzero" stroke-linecap="round" d="M72.569,81.803L72.569,36.357L63.625,45.301L81.803,45.301L72.86,36.357L72.86,81.803L81.803,72.86L63.625,72.86L72.569,81.803ZM54.681,81.803C54.681,86.743,58.685,90.747,63.625,90.747L81.803,90.747C86.743,90.747,90.747,86.743,90.747,81.803L90.747,36.357C90.747,31.418,86.743,27.413,81.803,27.413L63.625,27.413C58.685,27.413,54.681,31.418,54.681,36.357L54.681,81.803Z"/>
</g>
  <g id="Bold-M" transform="matrix(1.0,0.0,0.0,1.0,2286.7244265189624,1030.7808887021092)">  <path stroke-miterlimit="4" fill-rule="nonzero" stroke-linecap="round" stroke-dasharray="none" stroke-width="3px" fill="#000000" stroke-opacity="1" fill-opacity="1" stroke-linejoin="round" stroke="none" d="M95.437,92.138L13.634,92.138C9.302,92.138,5.79,95.65,5.79,99.982C5.79,104.314,9.302,107.826,13.634,107.826L95.437,107.826C99.769,107.826,103.281,104.314,103.281,99.982C103.281,95.65,99.769,92.138,95.437,92.138Z"/>
  <path stroke-linecap="round" stroke="none" stroke-opacity="1" stroke-dasharray="none" fill-opacity="1" fill-rule="nonzero" stroke-linejoin="round" stroke-width="3px" fill="#000000" stroke-miterlimit="4" d="M35.112,81.803L35.112,9.089L27.268,16.933L45.446,16.933L37.602,9.089L37.602,81.803L45.446,73.959L27.268,73.959L35.112,81.803ZM19.424,81.803C19.424,86.136,22.936,89.647,27.268,89.647L45.446,89.647C49.778,89.647,53.29,86.136,53.29,81.803L53.29,9.089C53.29,4.757,49.778,1.245,45.446,1.245L27.268,1.245C22.936,1.245,19.424,4.757,19.424,9.089L19.424,81.803Z"/>
  <path stroke-opacity="1" fill-opacity="1" fill-rule="nonzero" stroke="none" stroke-linecap="round" stroke-linejoin="round" stroke-width="3px" stroke-dasharray="none" fill="#000000" stroke-miterlimit="4" d="M71.469,81.803L71.469,36.357L63.625,44.201L81.803,44.201L73.959,36.357L73.959,81.803L81.803,73.959L63.625,73.959L71.469,81.803ZM55.781,81.803C55.781,86.136,59.293,89.647,63.625,89.647L81.803,89.647C86.136,89.647,89.647,86.136,89.647,81.803L89.647,36.357C89.647,32.025,86.136,28.513,81.803,28.513L63.625,28.513C59.293,28.513,55.781,32.025,55.781,36.357L55.781,81.803Z"/>
</g>
  <g id="Semibold-M" transform="matrix(1.0,0.0,0.0,1.0,1990.0144265189629,1030.7808887021092)">  <path stroke-width="3px" stroke="none" fill="#000000" fill-rule="nonzero" stroke-opacity="1" stroke-linecap="round" stroke-dasharray="none" stroke-miterlimit="4" fill-opacity="1" stroke-linejoin="round" d="M95.437,93.238L13.634,93.238C9.909,93.238,6.89,96.257,6.89,99.982C6.89,103.707,9.909,106.726,13.634,106.726L95.437,106.726C99.162,106.726,102.181,103.707,102.181,99.982C102.181,96.257,99.162,93.238,95.437,93.238Z"/>
  <path stroke-linecap="round" stroke-width="3px" fill-opacity="1" stroke-miterlimit="4" stroke="none" stroke-opacity="1" stroke-linejoin="round" fill-rule="nonzero" stroke-dasharray="none" fill="#000000" d="M34.012,81.803L34.012,9.089L27.268,15.833L45.446,15.833L38.702,9.089L38.702,81.803L45.446,75.059L27.268,75.059L34.012,81.803ZM20.524,81.803C20.524,85.528,23.543,88.548,27.268,88.548L45.446,88.548C49.171,88.548,52.191,85.528,52.191,81.803L52.191,9.089C52.191,5.365,49.171,2.345,45.446,2.345L27.268,2.345C23.543,2.345,20.524,5.365,20.524,9.089L20.524,81.803Z"/>
  <path stroke-dasharray="none" stroke-opacity="1" stroke-miterlimit="4" stroke-linecap="round" fill="#000000" stroke-width="3px" stroke-linejoin="round" fill-opacity="1" fill-rule="nonzero" stroke="none" d="M70.369,81.803L70.369,36.357L63.625,43.101L81.803,43.101L75.059,36.357L75.059,81.803L81.803,75.059L63.625,75.059L70.369,81.803ZM56.881,81.803C56.881,85.528,59.9,88.548,63.625,88.548L81.803,88.548C85.528,88.548,88.548,85.528,88.548,81.803L88.548,36.357C88.548,32.632,85.528,29.613,81.803,29.613L63.625,29.613C59.9,29.613,56.881,32.632,56.881,36.357L56.881,81.803Z"/>
</g>
  <g id="Medium-M" transform="matrix(1.0,0.0,0.0,1.0,1693.3044265189628,1030.7808887021092)">  <path fill="#000000" stroke-linecap="round" stroke-miterlimit="4" stroke-width="3px" stroke-opacity="1" fill-opacity="1" stroke-dasharray="none" stroke-linejoin="round" fill-rule="nonzero" stroke="none" d="M95.437,94.337L13.634,94.337C10.517,94.337,7.989,96.865,7.989,99.982C7.989,103.099,10.517,105.626,13.634,105.626L95.437,105.626C98.555,105.626,101.082,103.099,101.082,99.982C101.082,96.865,98.555,94.337,95.437,94.337Z"/>
  <path fill-rule="nonzero" fill="#000000" stroke-linecap="round" stroke-opacity="1" stroke-miterlimit="4" fill-opacity="1" stroke-linejoin="round" stroke-width="3px" stroke="none" stroke-dasharray="none" d="M32.912,81.803L32.912,9.089L27.268,14.734L45.446,14.734L39.802,9.089L39.802,81.803L45.446,76.159L27.268,76.159L32.912,81.803ZM21.623,81.803C21.623,84.921,24.15,87.448,27.268,87.448L45.446,87.448C48.564,87.448,51.091,84.921,51.091,81.803L51.091,9.089C51.091,5.972,48.564,3.445,45.446,3.445L27.268,3.445C24.15,3.445,21.623,5.972,21.623,9.089L21.623,81.803Z"/>
  <path fill-opacity="1" stroke-width="3px" stroke-miterlimit="4" stroke-linejoin="round" stroke-dasharray="none" stroke-opacity="1" fill="#000000" stroke-linecap="round" fill-rule="nonzero" stroke="none" d="M69.269,81.803L69.269,36.357L63.625,42.001L81.803,42.001L76.159,36.357L76.159,81.803L81.803,76.159L63.625,76.159L69.269,81.803ZM57.98,81.803C57.98,84.921,60.508,87.448,63.625,87.448L81.803,87.448C84.921,87.448,87.448,84.921,87.448,81.803L87.448,36.357C87.448,33.24,84.921,30.713,81.803,30.713L63.625,30.713C60.508,30.713,57.98,33.24,57.98,36.357L57.98,81.803Z"/>
</g>
  <g id="Regular-M" transform="matrix(1.0,0.0,0.0,1.0,1396.5944265189628,1030.7808887021092)">  <path stroke-linejoin="round" stroke-opacity="1" stroke-width="3px" stroke-linecap="round" fill="#000000" stroke="none" stroke-dasharray="none" fill-opacity="1" fill-rule="nonzero" stroke-miterlimit="4" d="M95.437,95.437L13.634,95.437C11.124,95.437,9.089,97.472,9.089,99.982C9.089,102.492,11.124,104.527,13.634,104.527L95.437,104.527C97.947,104.527,99.982,102.492,99.982,99.982C99.982,97.472,97.947,95.437,95.437,95.437Z"/>
  <path fill-rule="nonzero" fill="#000000" fill-opacity="1" stroke-width="3px" stroke-dasharray="none" stroke-linejoin="round" stroke="none" stroke-opacity="1" stroke-miterlimit="4" stroke-linecap="round" d="M31.812,81.803L31.812,9.089L27.268,13.634L45.446,13.634L40.902,9.089L40.902,81.803L45.446,77.259L27.268,77.259L31.812,81.803ZM22.723,81.803C22.723,84.313,24.758,86.348,27.268,86.348L45.446,86.348C47.956,86.348,49.991,84.313,49.991,81.803L49.991,9.089C49.991,6.579,47.956,4.545,45.446,4.545L27.268,4.545C24.758,4.545,22.723,6.579,22.723,9.089L22.723,81.803Z"/>
  <path stroke-opacity="1" stroke-miterlimit="4" stroke-linecap="round" stroke-width="3px" stroke-dasharray="none" fill="#000000" stroke-linejoin="round" fill-rule="nonzero" fill-opacity="1" stroke="none" d="M68.169,81.803L68.169,36.357L63.625,40.902L81.803,40.902L77.259,36.357L77.259,81.803L81.803,77.259L63.625,77.259L68.169,81.803ZM59.08,81.803C59.08,84.313,61.115,86.348,63.625,86.348L81.803,86.348C84.313,86.348,86.348,84.313,86.348,81.803L86.348,36.357C86.348,33.847,84.313,31.812,81.803,31.812L63.625,31.812C61.115,31.812,59.08,33.847,59.08,36.357L59.08,81.803Z"/>
</g>
  <g id="Light-M" transform="matrix(1.0,0.0,0.0,1.0,1099.884426518963,1030.7808887021092)">  <path fill="#000000" stroke="none" stroke-width="3px" fill-rule="nonzero" fill-opacity="1" stroke-opacity="1" stroke-linecap="round" stroke-miterlimit="4" stroke-dasharray="none" stroke-linejoin="round" d="M95.437,96.195L13.634,96.195C11.542,96.195,9.847,97.89,9.847,99.982C9.847,102.073,11.542,103.769,13.634,103.769L95.437,103.769C97.529,103.769,99.224,102.073,99.224,99.982C99.224,97.89,97.529,96.195,95.437,96.195Z"/>
  <path fill-rule="nonzero" stroke-linejoin="round" stroke-width="3px" stroke-opacity="1" fill-opacity="1" fill="#000000" stroke-linecap="round" stroke-dasharray="none" stroke-miterlimit="4" stroke="none" d="M31.055,81.803L31.055,9.089L27.268,12.876L45.446,12.876L41.659,9.089L41.659,81.803L45.446,78.016L27.268,78.016L31.055,81.803ZM23.481,81.803C23.481,83.895,25.176,85.591,27.268,85.591L45.446,85.591C47.538,85.591,49.234,83.895,49.234,81.803L49.234,9.089C49.234,6.998,47.538,5.302,45.446,5.302L27.268,5.302C25.176,5.302,23.481,6.998,23.481,9.089L23.481,81.803Z"/>
  <path fill-rule="nonzero" stroke-linecap="round" stroke-width="3px" stroke-dasharray="none" stroke-opacity="1" fill="#000000" stroke="none" stroke-miterlimit="4" fill-opacity="1" stroke-linejoin="round" d="M67.412,81.803L67.412,36.357L63.625,40.144L81.803,40.144L78.016,36.357L78.016,81.803L81.803,78.016L63.625,78.016L67.412,81.803ZM59.838,81.803C59.838,83.895,61.533,85.591,63.625,85.591L81.803,85.591C83.895,85.591,85.591,83.895,85.591,81.803L85.591,36.357C85.591,34.265,83.895,32.57,81.803,32.57L63.625,32.57C61.533,32.57,59.838,34.265,59.838,36.357L59.838,81.803Z"/>
</g>
  <g id="Thin-M" transform="matrix(1.0,0.0,0.0,1.0,803.174426518963,1030.7808887021092)">  <path stroke-dasharray="none" stroke-opacity="1" stroke-linejoin="round" fill-rule="nonzero" stroke-width="3px" stroke-miterlimit="4" stroke="none" fill-opacity="1" stroke-linecap="round" fill="#000000" d="M95.437,96.952L13.634,96.952C11.961,96.952,10.604,98.309,10.604,99.982C10.604,101.655,11.961,103.012,13.634,103.012L95.437,103.012C97.111,103.012,98.467,101.655,98.467,99.982C98.467,98.309,97.111,96.952,95.437,96.952Z"/>
  <path stroke-dasharray="none" stroke-linejoin="round" stroke-opacity="1" stroke-miterlimit="4" fill="#000000" stroke-linecap="round" stroke="none" fill-rule="nonzero" stroke-width="3px" fill-opacity="1" d="M30.298,81.803L30.298,9.089L27.268,12.119L45.446,12.119L42.417,9.089L42.417,81.803L45.446,78.774L27.268,78.774L30.298,81.803ZM24.238,81.803C24.238,83.477,25.594,84.833,27.268,84.833L45.446,84.833C47.12,84.833,48.476,83.477,48.476,81.803L48.476,9.089C48.476,7.416,47.12,6.06,45.446,6.06L27.268,6.06C25.594,6.06,24.238,7.416,24.238,9.089L24.238,81.803Z"/>
  <path stroke-linejoin="round" stroke-miterlimit="4" stroke-dasharray="none" stroke-width="3px" fill-rule="nonzero" stroke-opacity="1" stroke-linecap="round" fill-opacity="1" stroke="none" fill="#000000" d="M66.655,81.803L66.655,36.357L63.625,39.387L81.803,39.387L78.774,36.357L78.774,81.803L81.803,78.774L63.625,78.774L66.655,81.803ZM60.595,81.803C60.595,83.477,61.952,84.833,63.625,84.833L81.803,84.833C83.477,84.833,84.833,83.477,84.833,81.803L84.833,36.357C84.833,34.684,83.477,33.327,81.803,33.327L63.625,33.327C61.952,33.327,60.595,34.684,60.595,36.357L60.595,81.803Z"/>
</g>
  <g id="Ultralight-M" transform="matrix(1.0,0.0,0.0,1.0,506.46442651896285,1030.7808887021092)">  <path stroke-miterlimit="4" fill-opacity="1" stroke-width="3px" stroke-dasharray="none" fill="#000000" fill-rule="nonzero" stroke-linecap="round" stroke-linejoin="round" stroke-opacity="1" stroke="none" d="M95.437,97.71L13.634,97.71C12.379,97.71,11.362,98.727,11.362,99.982C11.362,101.237,12.379,102.254,13.634,102.254L95.437,102.254C96.692,102.254,97.71,101.237,97.71,99.982C97.71,98.727,96.692,97.71,95.437,97.71Z"/>
  <path stroke-width="3px" stroke-dasharray="none" stroke-linejoin="round" fill-rule="nonzero" fill="#000000" stroke-miterlimit="4" stroke="none" fill-opacity="1" stroke-opacity="1" stroke-linecap="round" d="M29.54,81.803L29.54,9.089L27.268,11.362L45.446,11.362L43.174,9.089L43.174,81.803L45.446,79.531L27.268,79.531L29.54,81.803ZM24.995,81.803C24.995,83.058,26.013,84.076,27.268,84.076L45.446,84.076C46.701,84.076,47.719,83.058,47.719,81.803L47.719,9.089C47.719,7.834,46.701,6.817,45.446,6.817L27.268,6.817C26.013,6.817,24.995,7.834,24.995,9.089L24.995,81.803Z"/>
  <path stroke-linejoin="round" fill="#000000" fill-rule="nonzero" fill-opacity="1" stroke-dasharray="none" stroke-width="3px" stroke-miterlimit="4" stroke-linecap="round" stroke="none" stroke-opacity="1" d="M65.897,81.803L65.897,36.357L63.625,38.629L81.803,38.629L79.531,36.357L79.531,81.803L81.803,79.531L63.625,79.531L65.897,81.803ZM61.353,81.803C61.353,83.058,62.37,84.076,63.625,84.076L81.803,84.076C83.058,84.076,84.076,83.058,84.076,81.803L84.076,36.357C84.076,35.102,83.058,34.085,81.803,34.085L63.625,34.085C62.37,34.085,61.353,35.102,61.353,36.357L61.353,81.803Z"/>
</g>
  <g id="Black-S" transform="matrix(1.0,0.0,0.0,1.0,2891.978645964348,613.7985300920327)">  <path stroke-miterlimit="4" stroke-opacity="1" fill="#000000" stroke-linecap="round" fill-rule="nonzero" stroke-width="3px" fill-opacity="1" stroke-dasharray="none" stroke="none" stroke-linejoin="round" d="M74.727,70.422L10.675,70.422C6.332,70.422,2.811,73.943,2.811,78.286C2.811,82.629,6.332,86.15,10.675,86.15L74.727,86.15C79.071,86.15,82.592,82.629,82.592,78.286C82.592,73.943,79.071,70.422,74.727,70.422Z"/>
  <path stroke-opacity="1" stroke-linejoin="round" fill="#000000" stroke-linecap="round" stroke-width="3px" fill-opacity="1" fill-rule="nonzero" stroke="none" stroke-miterlimit="4" stroke-dasharray="none" d="M29.215,64.052L29.215,7.117L21.351,14.981L35.584,14.981L27.72,7.117L27.72,64.052L35.584,56.188L21.351,56.188L29.215,64.052ZM13.487,64.052C13.487,68.395,17.007,71.916,21.351,71.916L35.584,71.916C39.928,71.916,43.449,68.395,43.449,64.052L43.449,7.117C43.449,2.774,39.928,-0.747,35.584,-0.747L21.351,-0.747C17.007,-0.747,13.487,2.774,13.487,7.117L13.487,64.052Z"/>
  <path fill-rule="nonzero" stroke-width="3px" fill="#000000" stroke-linejoin="round" stroke-miterlimit="4" stroke-opacity="1" stroke-linecap="round" stroke-dasharray="none" fill-opacity="1" stroke="none" d="M57.682,64.052L57.682,28.468L49.818,36.332L64.052,36.332L56.188,28.468L56.188,64.052L64.052,56.188L49.818,56.188L57.682,64.052ZM41.954,64.052C41.954,68.395,45.475,71.916,49.818,71.916L64.052,71.916C68.395,71.916,71.916,68.395,71.916,64.052L71.916,28.468C71.916,24.124,68.395,20.603,64.052,20.603L49.818,20.603C45.475,20.603,41.954,24.124,41.954,28.468L41.954,64.052Z"/>
</g>
  <g id="Heavy-S" transform="matrix(1.0,0.0,0.0,1.0,2595.268645964348,613.7985300920327)">  <path stroke-opacity="1" stroke-dasharray="none" stroke-linecap="round" stroke="none" stroke-linejoin="round" stroke-miterlimit="4" stroke-width="3px" fill="#000000" fill-opacity="1" fill-rule="nonzero" d="M74.727,71.283L10.675,71.283C6.808,71.283,3.672,74.418,3.672,78.286C3.672,82.153,6.808,85.289,10.675,85.289L74.727,85.289C78.595,85.289,81.73,82.153,81.73,78.286C81.73,74.418,78.595,71.283,74.727,71.283Z"/>
  <path stroke-linejoin="round" stroke-dasharray="none" stroke-miterlimit="4" stroke="none" stroke-opacity="1" stroke-linecap="round" fill-rule="nonzero" fill-opacity="1" fill="#000000" stroke-width="3px" d="M28.354,64.052L28.354,7.117L21.351,14.12L35.584,14.12L28.581,7.117L28.581,64.052L35.584,57.049L21.351,57.049L28.354,64.052ZM14.348,64.052C14.348,67.92,17.483,71.055,21.351,71.055L35.584,71.055C39.452,71.055,42.587,67.92,42.587,64.052L42.587,7.117C42.587,3.249,39.452,0.114,35.584,0.114L21.351,0.114C17.483,0.114,14.348,3.249,14.348,7.117L14.348,64.052Z"/>
  <path stroke-linejoin="round" stroke-miterlimit="4" fill-opacity="1" fill="#000000" stroke="none" stroke-opacity="1" stroke-width="3px" stroke-dasharray="none" fill-rule="nonzero" stroke-linecap="round" d="M56.821,64.052L56.821,28.468L49.818,35.471L64.052,35.471L57.049,28.468L57.049,64.052L64.052,57.049L49.818,57.049L56.821,64.052ZM42.815,64.052C42.815,67.92,45.951,71.055,49.818,71.055L64.052,71.055C67.92,71.055,71.055,67.92,71.055,64.052L71.055,28.468C71.055,24.6,67.92,21.465,64.052,21.465L49.818,21.465C45.951,21.465,42.815,24.6,42.815,28.468L42.815,64.052Z"/>
</g>
  <g id="Bold-S" transform="matrix(1.0,0.0,0.0,1.0,2298.5586459643478,613.7985300920327)">  <path stroke-miterlimit="4" fill-rule="nonzero" stroke-linecap="round" stroke-dasharray="none" stroke-width="3px" fill="#000000" stroke-opacity="1" fill-opacity="1" stroke-linejoin="round" stroke="none" d="M74.727,72.144L10.675,72.144C7.283,72.144,4.533,74.894,4.533,78.286C4.533,81.678,7.283,84.428,10.675,84.428L74.727,84.428C78.119,84.428,80.869,81.678,80.869,78.286C80.869,74.894,78.119,72.144,74.727,72.144Z"/>
  <path stroke-linecap="round" stroke="none" stroke-opacity="1" stroke-dasharray="none" fill-opacity="1" fill-rule="nonzero" stroke-linejoin="round" stroke-width="3px" fill="#000000" stroke-miterlimit="4" d="M27.493,64.052L27.493,7.117L21.351,13.259L35.584,13.259L29.443,7.117L29.443,64.052L35.584,57.91L21.351,57.91L27.493,64.052ZM15.209,64.052C15.209,67.444,17.959,70.194,21.351,70.194L35.584,70.194C38.977,70.194,41.726,67.444,41.726,64.052L41.726,7.117C41.726,3.725,38.977,0.975,35.584,0.975L21.351,0.975C17.959,0.975,15.209,3.725,15.209,7.117L15.209,64.052Z"/>
  <path stroke-opacity="1" fill-opacity="1" fill-rule="nonzero" stroke="none" stroke-linecap="round" stroke-linejoin="round" stroke-width="3px" stroke-dasharray="none" fill="#000000" stroke-miterlimit="4" d="M55.96,64.052L55.96,28.468L49.818,34.609L64.052,34.609L57.91,28.468L57.91,64.052L64.052,57.91L49.818,57.91L55.96,64.052ZM43.676,64.052C43.676,67.444,46.426,70.194,49.818,70.194L64.052,70.194C67.444,70.194,70.194,67.444,70.194,64.052L70.194,28.468C70.194,25.076,67.444,22.326,64.052,22.326L49.818,22.326C46.426,22.326,43.676,25.076,43.676,28.468L43.676,64.052Z"/>
</g>
  <g id="Semibold-S" transform="matrix(1.0,0.0,0.0,1.0,2001.848645964348,613.7985300920327)">  <path stroke-width="3px" stroke="none" fill="#000000" fill-rule="nonzero" stroke-opacity="1" stroke-linecap="round" stroke-dasharray="none" stroke-miterlimit="4" fill-opacity="1" stroke-linejoin="round" d="M74.727,73.005L10.675,73.005C7.759,73.005,5.395,75.369,5.395,78.286C5.395,81.202,7.759,83.567,10.675,83.567L74.727,83.567C77.644,83.567,80.008,81.202,80.008,78.286C80.008,75.369,77.644,73.005,74.727,73.005Z"/>
  <path stroke-linecap="round" stroke-width="3px" fill-opacity="1" stroke-miterlimit="4" stroke="none" stroke-opacity="1" stroke-linejoin="round" fill-rule="nonzero" stroke-dasharray="none" fill="#000000" d="M26.631,64.052L26.631,7.117L21.351,12.398L35.584,12.398L30.304,7.117L30.304,64.052L35.584,58.771L21.351,58.771L26.631,64.052ZM16.07,64.052C16.07,66.968,18.434,69.333,21.351,69.333L35.584,69.333C38.501,69.333,40.865,66.968,40.865,64.052L40.865,7.117C40.865,4.2,38.501,1.836,35.584,1.836L21.351,1.836C18.434,1.836,16.07,4.2,16.07,7.117L16.07,64.052Z"/>
  <path stroke-dasharray="none" stroke-opacity="1" stroke-miterlimit="4" stroke-linecap="round" fill="#000000" stroke-width="3px" stroke-linejoin="round" fill-opacity="1" fill-rule="nonzero" stroke="none" d="M55.099,64.052L55.099,28.468L49.818,33.748L64.052,33.748L58.771,28.468L58.771,64.052L64.052,58.771L49.818,58.771L55.099,64.052ZM44.538,64.052C44.538,66.968,46.902,69.333,49.818,69.333L64.052,69.333C66.968,69.333,69.333,66.968,69.333,64.052L69.333,28.468C69.333,25.551,66.968,23.187,64.052,23.187L49.818,23.187C46.902,23.187,44.538,25.551,44.538,28.468L44.538,64.052Z"/>
</g>
  <g id="Medium-S" transform="matrix(1.0,0.0,0.0,1.0,1705.138645964348,613.7985300920327)">  <path fill="#000000" stroke-linecap="round" stroke-miterlimit="4" stroke-width="3px" stroke-opacity="1" fill-opacity="1" stroke-dasharray="none" stroke-linejoin="round" fill-rule="nonzero" stroke="none" d="M74.727,73.866L10.675,73.866C8.234,73.866,6.256,75.845,6.256,78.286C6.256,80.727,8.234,82.705,10.675,82.705L74.727,82.705C77.168,82.705,79.147,80.727,79.147,78.286C79.147,75.845,77.168,73.866,74.727,73.866Z"/>
  <path fill-rule="nonzero" fill="#000000" stroke-linecap="round" stroke-opacity="1" stroke-miterlimit="4" fill-opacity="1" stroke-linejoin="round" stroke-width="3px" stroke="none" stroke-dasharray="none" d="M25.77,64.052L25.77,7.117L21.351,11.536L35.584,11.536L31.165,7.117L31.165,64.052L35.584,59.632L21.351,59.632L25.77,64.052ZM16.931,64.052C16.931,66.493,18.91,68.472,21.351,68.472L35.584,68.472C38.025,68.472,40.004,66.493,40.004,64.052L40.004,7.117C40.004,4.676,38.025,2.697,35.584,2.697L21.351,2.697C18.91,2.697,16.931,4.676,16.931,7.117L16.931,64.052Z"/>
  <path fill-opacity="1" stroke-width="3px" stroke-miterlimit="4" stroke-linejoin="round" stroke-dasharray="none" stroke-opacity="1" fill="#000000" stroke-linecap="round" fill-rule="nonzero" stroke="none" d="M54.238,64.052L54.238,28.468L49.818,32.887L64.052,32.887L59.632,28.468L59.632,64.052L64.052,59.632L49.818,59.632L54.238,64.052ZM45.399,64.052C45.399,66.493,47.377,68.472,49.818,68.472L64.052,68.472C66.493,68.472,68.472,66.493,68.472,64.052L68.472,28.468C68.472,26.027,66.493,24.048,64.052,24.048L49.818,24.048C47.377,24.048,45.399,26.027,45.399,28.468L45.399,64.052Z"/>
</g>
  <g id="Regular-S" transform="matrix(1.0,0.0,0.0,1.0,1408.4286459643479,613.7985300920327)">  <path stroke-linejoin="round" stroke-opacity="1" stroke-width="3px" stroke-linecap="round" fill="#000000" stroke="none" stroke-dasharray="none" fill-opacity="1" fill-rule="nonzero" stroke-miterlimit="4" d="M74.727,74.727L10.675,74.727C8.71,74.727,7.117,76.321,7.117,78.286C7.117,80.251,8.71,81.844,10.675,81.844L74.727,81.844C76.693,81.844,78.286,80.251,78.286,78.286C78.286,76.321,76.693,74.727,74.727,74.727Z"/>
  <path fill-rule="nonzero" fill="#000000" fill-opacity="1" stroke-width="3px" stroke-dasharray="none" stroke-linejoin="round" stroke="none" stroke-opacity="1" stroke-miterlimit="4" stroke-linecap="round" d="M24.909,64.052L24.909,7.117L21.351,10.675L35.584,10.675L32.026,7.117L32.026,64.052L35.584,60.494L21.351,60.494L24.909,64.052ZM17.792,64.052C17.792,66.017,19.385,67.61,21.351,67.61L35.584,67.61C37.55,67.61,39.143,66.017,39.143,64.052L39.143,7.117C39.143,5.152,37.55,3.558,35.584,3.558L21.351,3.558C19.385,3.558,17.792,5.152,17.792,7.117L17.792,64.052Z"/>
  <path stroke-opacity="1" stroke-miterlimit="4" stroke-linecap="round" stroke-width="3px" stroke-dasharray="none" fill="#000000" stroke-linejoin="round" fill-rule="nonzero" fill-opacity="1" stroke="none" d="M53.377,64.052L53.377,28.468L49.818,32.026L64.052,32.026L60.494,28.468L60.494,64.052L64.052,60.494L49.818,60.494L53.377,64.052ZM46.26,64.052C46.26,66.017,47.853,67.61,49.818,67.61L64.052,67.61C66.017,67.61,67.61,66.017,67.61,64.052L67.61,28.468C67.61,26.502,66.017,24.909,64.052,24.909L49.818,24.909C47.853,24.909,46.26,26.502,46.26,28.468L46.26,64.052Z"/>
</g>
  <g id="Light-S" transform="matrix(1.0,0.0,0.0,1.0,1111.718645964348,613.7985300920327)">  <path fill="#000000" stroke="none" stroke-width="3px" fill-rule="nonzero" fill-opacity="1" stroke-opacity="1" stroke-linecap="round" stroke-miterlimit="4" stroke-dasharray="none" stroke-linejoin="round" d="M74.727,75.32L10.675,75.32C9.038,75.32,7.71,76.648,7.71,78.286C7.71,79.924,9.038,81.251,10.675,81.251L74.727,81.251C76.365,81.251,77.693,79.924,77.693,78.286C77.693,76.648,76.365,75.32,74.727,75.32Z"/>
  <path fill-rule="nonzero" stroke-linejoin="round" stroke-width="3px" stroke-opacity="1" fill-opacity="1" fill="#000000" stroke-linecap="round" stroke-dasharray="none" stroke-miterlimit="4" stroke="none" d="M24.316,64.052L24.316,7.117L21.351,10.082L35.584,10.082L32.619,7.117L32.619,64.052L35.584,61.087L21.351,61.087L24.316,64.052ZM18.385,64.052C18.385,65.69,19.713,67.017,21.351,67.017L35.584,67.017C37.222,67.017,38.55,65.69,38.55,64.052L38.55,7.117C38.55,5.479,37.222,4.152,35.584,4.152L21.351,4.152C19.713,4.152,18.385,5.479,18.385,7.117L18.385,64.052Z"/>
  <path fill-rule="nonzero" stroke-linecap="round" stroke-width="3px" stroke-dasharray="none" stroke-opacity="1" fill="#000000" stroke="none" stroke-miterlimit="4" fill-opacity="1" stroke-linejoin="round" d="M52.784,64.052L52.784,28.468L49.818,31.433L64.052,31.433L61.087,28.468L61.087,64.052L64.052,61.087L49.818,61.087L52.784,64.052ZM46.853,64.052C46.853,65.69,48.181,67.017,49.818,67.017L64.052,67.017C65.69,67.017,67.017,65.69,67.017,64.052L67.017,28.468C67.017,26.83,65.69,25.502,64.052,25.502L49.818,25.502C48.181,25.502,46.853,26.83,46.853,28.468L46.853,64.052Z"/>
</g>
  <g id="Thin-S" transform="matrix(1.0,0.0,0.0,1.0,815.0086459643479,613.7985300920327)">  <path stroke-dasharray="none" stroke-opacity="1" stroke-linejoin="round" fill-rule="nonzero" stroke-width="3px" stroke-miterlimit="4" stroke="none" fill-opacity="1" stroke-linecap="round" fill="#000000" d="M74.727,75.914L10.675,75.914C9.365,75.914,8.303,76.976,8.303,78.286C8.303,79.596,9.365,80.658,10.675,80.658L74.727,80.658C76.038,80.658,77.1,79.596,77.1,78.286C77.1,76.976,76.038,75.914,74.727,75.914Z"/>
  <path stroke-dasharray="none" stroke-linejoin="round" stroke-opacity="1" stroke-miterlimit="4" fill="#000000" stroke-linecap="round" stroke="none" fill-rule="nonzero" stroke-width="3px" fill-opacity="1" d="M23.723,64.052L23.723,7.117L21.351,9.489L35.584,9.489L33.212,7.117L33.212,64.052L35.584,61.68L21.351,61.68L23.723,64.052ZM18.978,64.052C18.978,65.362,20.04,66.424,21.351,66.424L35.584,66.424C36.895,66.424,37.957,65.362,37.957,64.052L37.957,7.117C37.957,5.807,36.895,4.745,35.584,4.745L21.351,4.745C20.04,4.745,18.978,5.807,18.978,7.117L18.978,64.052Z"/>
  <path stroke-linejoin="round" stroke-miterlimit="4" stroke-dasharray="none" stroke-width="3px" fill-rule="nonzero" stroke-opacity="1" stroke-linecap="round" fill-opacity="1" stroke="none" fill="#000000" d="M52.191,64.052L52.191,28.468L49.818,30.84L64.052,30.84L61.68,28.468L61.68,64.052L64.052,61.68L49.818,61.68L52.191,64.052ZM47.446,64.052C47.446,65.362,48.508,66.424,49.818,66.424L64.052,66.424C65.362,66.424,66.424,65.362,66.424,64.052L66.424,28.468C66.424,27.157,65.362,26.095,64.052,26.095L49.818,26.095C48.508,26.095,47.446,27.157,47.446,28.468L47.446,64.052Z"/>
</g>
  <g id="Ultralight-S" transform="matrix(1.0,0.0,0.0,1.0,518.2986459643479,613.7985300920327)">  <path stroke-miterlimit="4" fill-opacity="1" stroke-width="3px" stroke-dasharray="none" fill="#000000" fill-rule="nonzero" stroke-linecap="round" stroke-linejoin="round" stroke-opacity="1" stroke="none" d="M74.727,76.507L10.675,76.507C9.693,76.507,8.896,77.303,8.896,78.286C8.896,79.268,9.693,80.065,10.675,80.065L74.727,80.065C75.71,80.065,76.507,79.268,76.507,78.286C76.507,77.303,75.71,76.507,74.727,76.507Z"/>
  <path stroke-width="3px" stroke-dasharray="none" stroke-linejoin="round" fill-rule="nonzero" fill="#000000" stroke-miterlimit="4" stroke="none" fill-opacity="1" stroke-opacity="1" stroke-linecap="round" d="M23.13,64.052L23.13,7.117L21.351,8.896L35.584,8.896L33.805,7.117L33.805,64.052L35.584,62.273L21.351,62.273L23.13,64.052ZM19.571,64.052C19.571,65.035,20.368,65.831,21.351,65.831L35.584,65.831C36.567,65.831,37.364,65.035,37.364,64.052L37.364,7.117C37.364,6.134,36.567,5.338,35.584,5.338L21.351,5.338C20.368,5.338,19.571,6.134,19.571,7.117L19.571,64.052Z"/>
  <path stroke-linejoin="round" fill="#000000" fill-rule="nonzero" fill-opacity="1" stroke-dasharray="none" stroke-width="3px" stroke-miterlimit="4" stroke-linecap="round" stroke="none" stroke-opacity="1" d="M51.597,64.052L51.597,28.468L49.818,30.247L64.052,30.247L62.273,28.468L62.273,64.052L64.052,62.273L49.818,62.273L51.597,64.052ZM48.039,64.052C48.039,65.035,48.836,65.831,49.818,65.831L64.052,65.831C65.035,65.831,65.831,65.035,65.831,64.052L65.831,28.468C65.831,27.485,65.035,26.688,64.052,26.688L49.818,26.688C48.836,26.688,48.039,27.485,48.039,28.468L48.039,64.052Z"/>
</g>
 </g>
</svg>
