<?xml version="1.0" encoding="UTF-8"?>
<!-- Generator: CustomSymbols v2.6.2.41 by @serious_bret https://bretlester.com/app_content/CustomSymbols/ -->
<!-- Guides: Left/Right 0.0/0.0 Cap/Base 0.269/0.127 -->
<!-- Settings: RefScale 1.0 Min/Max Stroke Scales 0.5/2.21 -->
<!DOCTYPE svg
PUBLIC "-//W3C//DTD SVG 1.1//EN"
       "http://www.w3.org/Graphics/SVG/1.1/DTD/svg11.dtd">
<svg version="1.1" xmlns="http://www.w3.org/2000/svg" xmlns:xlink="http://www.w3.org/1999/xlink" width="3300" height="2200">
<![CDATA[<svg width="16" height="16" viewBox="0 0 16 16" fill="none" xmlns="http://www.w3.org/2000/svg">
<path d="M11.75 0.5H4.25C2.18 0.5 0.5 2.1725 0.5 4.235V8.72V9.47C0.5 11.5325 2.18 13.205 4.25 13.205H5.375C5.5775 13.205 5.8475 13.34 5.975 13.505L7.1 14.9975C7.595 15.6575 8.405 15.6575 8.9 14.9975L10.025 13.505C10.1675 13.3175 10.3925 13.205 10.625 13.205H11.75C13.82 13.205 15.5 11.5325 15.5 9.47V4.235C15.5 2.1725 13.82 0.5 11.75 0.5ZM5 8C4.58 8 4.25 7.6625 4.25 7.25C4.25 6.8375 4.5875 6.5 5 6.5C5.4125 6.5 5.75 6.8375 5.75 7.25C5.75 7.6625 5.42 8 5 8ZM8 8C7.58 8 7.25 7.6625 7.25 7.25C7.25 6.8375 7.5875 6.5 8 6.5C8.4125 6.5 8.75 6.8375 8.75 7.25C8.75 7.6625 8.42 8 8 8ZM11 8C10.58 8 10.25 7.6625 10.25 7.25C10.25 6.8375 10.5875 6.5 11 6.5C11.4125 6.5 11.75 6.8375 11.75 7.25C11.75 7.6625 11.42 8 11 8Z" fill="white"/>
</svg>
]]>
 <g id="Notes">
  <rect height="2200" id="artboard" style="fill:white;opacity:1" width="3300" x="0" y="0"/>
  <line id="" style="fill:none;stroke:black;opacity:1;stroke-width:0.5;" x1="263" x2="3036" y1="292" y2="292"/>
  <text id="reftext1" style="stroke:none;fill:black;font-family:-apple-system,&quot;SF Pro Display&quot;,&quot;SF Pro Text&quot;,Helvetica,sans-serif;font-weight:bold;" transform="matrix(1 0 0 1 263 322)">Weight/Scale Variations</text>
  <text id="reftext2" style="stroke:none;fill:black;font-family:-apple-system,&quot;SF Pro Display&quot;,&quot;SF Pro Text&quot;,Helvetica,sans-serif;text-anchor:middle;" transform="matrix(1 0 0 1 559.711 322)">Ultralight</text>
  <text style="stroke:none;fill:black;font-family:-apple-system,&quot;SF Pro Display&quot;,&quot;SF Pro Text&quot;,Helvetica,sans-serif;text-anchor:middle;" transform="matrix(1 0 0 1 856.422 322)">Thin</text>
  <text style="stroke:none;fill:black;font-family:-apple-system,&quot;SF Pro Display&quot;,&quot;SF Pro Text&quot;,Helvetica,sans-serif;text-anchor:middle;" transform="matrix(1 0 0 1 1153.13 322)">Light</text>
  <text style="stroke:none;fill:black;font-family:-apple-system,&quot;SF Pro Display&quot;,&quot;SF Pro Text&quot;,Helvetica,sans-serif;text-anchor:middle;" transform="matrix(1 0 0 1 1449.84 322)">Regular</text>
  <text style="stroke:none;fill:black;font-family:-apple-system,&quot;SF Pro Display&quot;,&quot;SF Pro Text&quot;,Helvetica,sans-serif;text-anchor:middle;" transform="matrix(1 0 0 1 1746.56 322)">Medium</text>
  <text style="stroke:none;fill:black;font-family:-apple-system,&quot;SF Pro Display&quot;,&quot;SF Pro Text&quot;,Helvetica,sans-serif;text-anchor:middle;" transform="matrix(1 0 0 1 2043.27 322)">Semibold</text>
  <text style="stroke:none;fill:black;font-family:-apple-system,&quot;SF Pro Display&quot;,&quot;SF Pro Text&quot;,Helvetica,sans-serif;text-anchor:middle;" transform="matrix(1 0 0 1 2339.98 322)">Bold</text>
  <text style="stroke:none;fill:black;font-family:-apple-system,&quot;SF Pro Display&quot;,&quot;SF Pro Text&quot;,Helvetica,sans-serif;text-anchor:middle;" transform="matrix(1 0 0 1 2636.69 322)">Heavy</text>
  <text style="stroke:none;fill:black;font-family:-apple-system,&quot;SF Pro Display&quot;,&quot;SF Pro Text&quot;,Helvetica,sans-serif;text-anchor:middle;" transform="matrix(1 0 0 1 2933.4 322)">Black</text>
  <line id="" style="fill:none;stroke:black;opacity:1;stroke-width:0.5;" x1="263" x2="3036" y1="1903" y2="1903"/>
  <g id="" transform="matrix(1 0 0 1 263 1933)">
   <path d="M9.24805 0.830078C13.5547 0.830078 17.1387-2.74414 17.1387-7.05078C17.1387-11.3574 13.5449-14.9316 9.23828-14.9316C4.94141-14.9316 1.36719-11.3574 1.36719-7.05078C1.36719-2.74414 4.95117 0.830078 9.24805 0.830078ZM9.24805-0.654297C5.70312-0.654297 2.87109-3.49609 2.87109-7.05078C2.87109-10.6055 5.69336-13.4473 9.23828-13.4473C12.793-13.4473 15.6348-10.6055 15.6445-7.05078C15.6543-3.49609 12.8027-0.654297 9.24805-0.654297ZM6.39648-6.31836L8.50586-6.31836L8.50586-4.19922C8.50586-3.75977 8.79883-3.45703 9.22852-3.45703C9.67773-3.45703 9.9707-3.75977 9.9707-4.19922L9.9707-6.31836L12.0996-6.31836C12.5391-6.31836 12.8418-6.61133 12.8418-7.04102C12.8418-7.48047 12.5391-7.7832 12.0996-7.7832L9.9707-7.7832L9.9707-9.89258C9.9707-10.3418 9.67773-10.6445 9.22852-10.6445C8.79883-10.6445 8.50586-10.3418 8.50586-9.89258L8.50586-7.7832L6.39648-7.7832C5.94727-7.7832 5.64453-7.48047 5.64453-7.04102C5.64453-6.61133 5.94727-6.31836 6.39648-6.31836Z"/>
  </g>
  <g id="" transform="matrix(1 0 0 1 281.506 1933)">
   <path d="M11.709 2.91016C17.1582 2.91016 21.6699-1.61133 21.6699-7.05078C21.6699-12.5 17.1484-17.0117 11.6992-17.0117C6.25977-17.0117 1.74805-12.5 1.74805-7.05078C1.74805-1.61133 6.26953 2.91016 11.709 2.91016ZM11.709 1.25C7.09961 1.25 3.41797-2.44141 3.41797-7.05078C3.41797-11.6602 7.08984-15.3516 11.6992-15.3516C16.3086-15.3516 20-11.6602 20.0098-7.05078C20.0195-2.44141 16.3184 1.25 11.709 1.25ZM7.98828-6.23047L10.8789-6.23047L10.8789-3.32031C10.8789-2.83203 11.2109-2.5 11.6895-2.5C12.1777-2.5 12.5195-2.83203 12.5195-3.32031L12.5195-6.23047L15.4297-6.23047C15.918-6.23047 16.25-6.5625 16.25-7.04102C16.25-7.5293 15.918-7.87109 15.4297-7.87109L12.5195-7.87109L12.5195-10.7617C12.5195-11.2695 12.1777-11.6016 11.6895-11.6016C11.2109-11.6016 10.8789-11.2598 10.8789-10.7617L10.8789-7.87109L7.98828-7.87109C7.48047-7.87109 7.14844-7.5293 7.14844-7.04102C7.14844-6.5625 7.49023-6.23047 7.98828-6.23047Z"/>
  </g>
  <g id="" transform="matrix(1 0 0 1 304.924 1933)">
   <path d="M14.9707 5.66406C21.9336 5.66406 27.6953-0.0976562 27.6953-7.05078C27.6953-14.0137 21.9238-19.7754 14.9609-19.7754C8.00781-19.7754 2.25586-14.0137 2.25586-7.05078C2.25586-0.0976562 8.01758 5.66406 14.9707 5.66406ZM14.9707 3.84766C8.93555 3.84766 4.08203-1.01562 4.08203-7.05078C4.08203-13.0957 8.92578-17.9492 14.9609-17.9492C21.0059-17.9492 25.8594-13.0957 25.8691-7.05078C25.8789-1.01562 21.0156 3.84766 14.9707 3.84766ZM10.0586-6.14258L14.0625-6.14258L14.0625-2.12891C14.0625-1.5918 14.4336-1.2207 14.9512-1.2207C15.4883-1.2207 15.8594-1.5918 15.8594-2.12891L15.8594-6.14258L19.8828-6.14258C20.4102-6.14258 20.791-6.51367 20.791-7.03125C20.791-7.56836 20.4199-7.94922 19.8828-7.94922L15.8594-7.94922L15.8594-11.9531C15.8594-12.5098 15.4883-12.8809 14.9512-12.8809C14.4336-12.8809 14.0625-12.5 14.0625-11.9531L14.0625-7.94922L10.0586-7.94922C9.50195-7.94922 9.13086-7.56836 9.13086-7.03125C9.13086-6.51367 9.51172-6.14258 10.0586-6.14258Z"/>
  </g>
  <text style="stroke:none;fill:black;font-family:-apple-system,&quot;SF Pro Display&quot;,&quot;SF Pro Text&quot;,Helvetica,sans-serif;font-weight:bold;" transform="matrix(1 0 0 1 263 1953)">Design Variations</text>
  <text style="stroke:none;fill:black;font-family:-apple-system,&quot;SF Pro Display&quot;,&quot;SF Pro Text&quot;,Helvetica,sans-serif;" transform="matrix(1 0 0 1 263 1971)">Symbols are supported in up to nine weights and three scales.</text>
  <text style="stroke:none;fill:black;font-family:-apple-system,&quot;SF Pro Display&quot;,&quot;SF Pro Text&quot;,Helvetica,sans-serif;" transform="matrix(1 0 0 1 263 1989)">For optimal layout with text and other symbols, vertically align</text>
  <text style="stroke:none;fill:black;font-family:-apple-system,&quot;SF Pro Display&quot;,&quot;SF Pro Text&quot;,Helvetica,sans-serif;" transform="matrix(1 0 0 1 263 2007)">symbols with the adjacent text.</text>
  <line id="" style="fill:none;stroke:#00AEEF;stroke-width:0.5;opacity:1.0;" x1="776" x2="776" y1="1919" y2="1933"/>
  <g id="" transform="matrix(1 0 0 1 776 1933)">
   <path d="M3.31055 0.126953C3.82812 0.126953 4.08203-0.0683594 4.26758-0.605469L5.52734-4.0625L11.2891-4.0625L12.5488-0.605469C12.7344-0.0683594 12.9883 0.126953 13.4961 0.126953C14.0137 0.126953 14.3457-0.185547 14.3457-0.673828C14.3457-0.839844 14.3164-0.986328 14.2383-1.20117L9.6582-13.3887C9.43359-13.9941 9.0332-14.2871 8.4082-14.2871C7.80273-14.2871 7.39258-13.9941 7.17773-13.3984L2.59766-1.19141C2.51953-0.976562 2.49023-0.830078 2.49023-0.664062C2.49023-0.175781 2.80273 0.126953 3.31055 0.126953ZM6.00586-5.53711L8.37891-12.1094L8.42773-12.1094L10.8008-5.53711Z"/>
  </g>
  <line id="" style="fill:none;stroke:#00AEEF;stroke-width:0.5;opacity:1.0;" x1="792.836" x2="792.836" y1="1919" y2="1933"/>
  <text style="stroke:none;fill:black;font-family:-apple-system,&quot;SF Pro Display&quot;,&quot;SF Pro Text&quot;,Helvetica,sans-serif;font-weight:bold;" transform="matrix(1 0 0 1 776 1953)">Margins</text>
  <text style="stroke:none;fill:black;font-family:-apple-system,&quot;SF Pro Display&quot;,&quot;SF Pro Text&quot;,Helvetica,sans-serif;" transform="matrix(1 0 0 1 776 1971)">Leading and trailing margins on the left and right side of each symbol</text>
  <text style="stroke:none;fill:black;font-family:-apple-system,&quot;SF Pro Display&quot;,&quot;SF Pro Text&quot;,Helvetica,sans-serif;" transform="matrix(1 0 0 1 776 1989)">can be adjusted by modifying the x-location of the margin guidelines.</text>
  <text style="stroke:none;fill:black;font-family:-apple-system,&quot;SF Pro Display&quot;,&quot;SF Pro Text&quot;,Helvetica,sans-serif;" transform="matrix(1 0 0 1 776 2007)">Modifications are automatically applied proportionally to all</text>
  <text style="stroke:none;fill:black;font-family:-apple-system,&quot;SF Pro Display&quot;,&quot;SF Pro Text&quot;,Helvetica,sans-serif;" transform="matrix(1 0 0 1 776 2025)">scales and weights.</text>
  <g id="" transform="matrix(1 0 0 1 1289 1933)">
   <path d="M2.8418 1.86523L4.54102 3.57422C5.40039 4.44336 6.38672 4.38477 7.31445 3.35938L17.4902-7.85156C17.7539-7.76367 18.0273-7.7832 18.3398-7.8418L19.4043-8.03711L20.0684-7.36328L20.0293-6.80664C19.9902-6.30859 20.1172-5.92773 20.6055-5.44922L21.3672-4.70703C21.8457-4.22852 22.4609-4.19922 22.9297-4.66797L25.8398-7.58789C26.3086-8.05664 26.2891-8.65234 25.8105-9.13086L25.0391-9.89258C24.5605-10.3711 24.1895-10.5273 23.7109-10.4883L23.1348-10.4395L22.4902-11.0742L22.7344-12.1973C22.8613-12.7637 22.7051-13.2031 22.1191-13.7891L19.9219-15.9766C16.582-19.2969 12.1484-19.2188 9.25781-16.3281C8.83789-15.918 8.80859-15.3418 9.04297-14.9512C9.27734-14.5898 9.73633-14.3555 10.3809-14.5215C11.8457-14.8633 13.3691-14.9219 14.7949-13.9844L14.209-12.5293C14.0137-12.0508 13.9844-11.6504 14.1113-11.2891L3.04688-0.898438C2.06055 0.0195312 1.98242 0.996094 2.8418 1.86523ZM10.752-15.957C13.1836-17.7344 16.4746-17.4316 18.7012-15.2051L21.1328-12.793C21.3672-12.5586 21.4062-12.373 21.3379-12.0312L21.0156-10.5469L22.5195-9.0625L23.5059-9.12109C23.7598-9.13086 23.8379-9.11133 24.0332-8.91602L24.6094-8.33984L22.168-5.89844L21.5918-6.47461C21.3965-6.66992 21.3672-6.74805 21.377-7.01172L21.4453-7.98828L19.9512-9.47266L18.4277-9.21875C18.1055-9.15039 17.959-9.17969 17.7148-9.41406L15.7129-11.416C15.459-11.6504 15.4297-11.8164 15.5859-12.1875L16.4648-14.2773C14.9023-15.7324 12.8711-16.3574 10.8398-15.7617C10.6836-15.7227 10.625-15.8496 10.752-15.957ZM5.27344 2.30469L4.10156 1.14258C3.63281 0.683594 3.74023 0.341797 4.14062-0.0195312L14.9512-10.1953L16.416-8.71094L6.42578 2.27539C6.07422 2.67578 5.74219 2.77344 5.27344 2.30469Z"/>
  </g>
  <text style="stroke:none;fill:black;font-family:-apple-system,&quot;SF Pro Display&quot;,&quot;SF Pro Text&quot;,Helvetica,sans-serif;font-weight:bold;" transform="matrix(1 0 0 1 1289 1953)">Exporting</text>
  <text style="stroke:none;fill:black;font-family:-apple-system,&quot;SF Pro Display&quot;,&quot;SF Pro Text&quot;,Helvetica,sans-serif;" transform="matrix(1 0 0 1 1289 1971)">Symbols should be outlined when exporting to ensure the</text>
  <text style="stroke:none;fill:black;font-family:-apple-system,&quot;SF Pro Display&quot;,&quot;SF Pro Text&quot;,Helvetica,sans-serif;" transform="matrix(1 0 0 1 1289 1989)">design is preserved when submitting to Xcode.</text>
  <text id="template-version" style="stroke:none;fill:black;font-family:-apple-system,&quot;SF Pro Display&quot;,&quot;SF Pro Text&quot;,Helvetica,sans-serif;text-anchor:end;" transform="matrix(1 0 0 1 3036 1933)">Template v.2.0</text>
  <text style="stroke:none;fill:black;font-family:-apple-system,&quot;SF Pro Display&quot;,&quot;SF Pro Text&quot;,Helvetica,sans-serif;text-anchor:end;" transform="matrix(1 0 0 1 3036 1951)">Requires Xcode 12 or greater</text>
  <text style="stroke:none;fill:black;font-family:-apple-system,&quot;SF Pro Display&quot;,&quot;SF Pro Text&quot;,Helvetica,sans-serif;" transform="matrix(1 0 0 1 263 726)">Small</text>
  <text style="stroke:none;fill:black;font-family:-apple-system,&quot;SF Pro Display&quot;,&quot;SF Pro Text&quot;,Helvetica,sans-serif;" transform="matrix(1 0 0 1 263 1156)">Medium</text>
  <text style="stroke:none;fill:black;font-family:-apple-system,&quot;SF Pro Display&quot;,&quot;SF Pro Text&quot;,Helvetica,sans-serif;" transform="matrix(1 0 0 1 263 1586)">Large</text>
 </g>
 <g id="Guides">
  <g id="H-reference" style="fill:#27AAE1;stroke:none;" transform="matrix(1 0 0 1 339 696)">
   <path d="M0.976562 0L3.66211 0L12.9883-24.4629L45.752-24.4629L55.127 0L57.7637 0L30.6152-70.459L28.125-70.459ZM29.3457-67.1387L29.4434-67.1387L44.873-26.709L13.8672-26.709Z"/>
  </g>
  <line id="Baseline-S" style="fill:none;stroke:#27AAE1;opacity:1;stroke-width:0.5;" x1="263" x2="3036" y1="696" y2="696"/>
  <line id="Capline-S" style="fill:none;stroke:#27AAE1;opacity:1;stroke-width:0.5;" x1="263" x2="3036" y1="625.541" y2="625.541"/>
  <g id="H-reference" style="fill:#27AAE1;stroke:none;" transform="matrix(1 0 0 1 339 1126)">
   <path d="M0.976562 0L3.66211 0L12.9883-24.4629L45.752-24.4629L55.127 0L57.7637 0L30.6152-70.459L28.125-70.459ZM29.3457-67.1387L29.4434-67.1387L44.873-26.709L13.8672-26.709Z"/>
  </g>
  <line id="Baseline-M" style="fill:none;stroke:#27AAE1;opacity:1;stroke-width:0.5;" x1="263" x2="3036" y1="1126" y2="1126"/>
  <line id="Capline-M" style="fill:none;stroke:#27AAE1;opacity:1;stroke-width:0.5;" x1="263" x2="3036" y1="1055.54" y2="1055.54"/>
  <g id="H-reference" style="fill:#27AAE1;stroke:none;" transform="matrix(1 0 0 1 339 1556)">
   <path d="M0.976562 0L3.66211 0L12.9883-24.4629L45.752-24.4629L55.127 0L57.7637 0L30.6152-70.459L28.125-70.459ZM29.3457-67.1387L29.4434-67.1387L44.873-26.709L13.8672-26.709Z"/>
  </g>
  <line id="Baseline-L" style="fill:none;stroke:#27AAE1;opacity:1;stroke-width:0.5;" x1="263" x2="3036" y1="1556" y2="1556"/>
  <line id="Capline-L" style="fill:none;stroke:#27AAE1;opacity:1;stroke-width:0.5;" x1="263" x2="3036" y1="1485.54" y2="1485.54"/>
  <line id="left-margin" x1="1392.80221776697" x2="1392.80221776697" y1="1030.79" y2="1150.12" style="fill:none;stroke:#00AEEF;stroke-width:0.5;opacity:1.0;"/>
  <line id="right-margin" x1="1509.4577822330298" x2="1509.4577822330298" y1="1030.79" y2="1150.12" style="fill:none;stroke:#00AEEF;stroke-width:0.5;opacity:1.0;"/>
 </g>
 <g id="Symbols">
  <g id="Black-L" transform="matrix(1.0,0.0,0.0,1.0,2859.4371609193913,1434.8426973011951)">  <path stroke-linejoin="miter" fill-opacity="1" stroke-dasharray="none" stroke-width="1px" fill="#000000" stroke-linecap="butt" stroke-miterlimit="4" stroke="none" stroke-opacity="1" fill-rule="nonzero" d="M110.513,4.703L39.973,4.703C20.504,4.703,4.703,20.433,4.703,39.832L4.703,82.015L4.703,89.069C4.703,108.467,20.504,124.198,39.973,124.198L50.554,124.198C52.458,124.198,54.998,125.467,56.197,127.019L66.778,141.057C71.434,147.264,79.052,147.264,83.708,141.057L94.289,127.019C95.629,125.256,97.745,124.198,99.932,124.198L110.513,124.198C129.982,124.198,145.783,108.467,145.783,89.069L145.783,39.832C145.783,20.433,129.982,4.703,110.513,4.703ZM47.027,75.243C43.077,75.243,39.973,72.069,39.973,68.189C39.973,64.309,43.147,61.135,47.027,61.135C50.906,61.135,54.081,64.309,54.081,68.189C54.081,72.069,50.977,75.243,47.027,75.243ZM75.243,75.243C71.293,75.243,68.189,72.069,68.189,68.189C68.189,64.309,71.363,61.135,75.243,61.135C79.123,61.135,82.297,64.309,82.297,68.189C82.297,72.069,79.193,75.243,75.243,75.243ZM103.459,75.243C99.509,75.243,96.405,72.069,96.405,68.189C96.405,64.309,99.579,61.135,103.459,61.135C107.339,61.135,110.513,64.309,110.513,68.189C110.513,72.069,107.409,75.243,103.459,75.243ZM103.459,75.243"/>
</g>
  <g id="Heavy-L" transform="matrix(1.0,0.0,0.0,1.0,2562.7271609193913,1434.8426973011951)">  <path stroke="none" stroke-opacity="1" stroke-miterlimit="4" fill-opacity="1" stroke-width="1px" fill="#000000" stroke-dasharray="none" stroke-linejoin="miter" fill-rule="nonzero" stroke-linecap="butt" d="M110.513,4.703L39.973,4.703C20.504,4.703,4.703,20.433,4.703,39.832L4.703,82.015L4.703,89.069C4.703,108.467,20.504,124.198,39.973,124.198L50.554,124.198C52.458,124.198,54.998,125.467,56.197,127.019L66.778,141.057C71.434,147.264,79.052,147.264,83.708,141.057L94.289,127.019C95.629,125.256,97.745,124.198,99.932,124.198L110.513,124.198C129.982,124.198,145.783,108.467,145.783,89.069L145.783,39.832C145.783,20.433,129.982,4.703,110.513,4.703ZM47.027,75.243C43.077,75.243,39.973,72.069,39.973,68.189C39.973,64.309,43.147,61.135,47.027,61.135C50.906,61.135,54.081,64.309,54.081,68.189C54.081,72.069,50.977,75.243,47.027,75.243ZM75.243,75.243C71.293,75.243,68.189,72.069,68.189,68.189C68.189,64.309,71.363,61.135,75.243,61.135C79.123,61.135,82.297,64.309,82.297,68.189C82.297,72.069,79.193,75.243,75.243,75.243ZM103.459,75.243C99.509,75.243,96.405,72.069,96.405,68.189C96.405,64.309,99.579,61.135,103.459,61.135C107.339,61.135,110.513,64.309,110.513,68.189C110.513,72.069,107.409,75.243,103.459,75.243ZM103.459,75.243"/>
</g>
  <g id="Bold-L" transform="matrix(1.0,0.0,0.0,1.0,2266.0171609193912,1434.8426973011951)">  <path fill-rule="nonzero" stroke-linejoin="miter" stroke-miterlimit="4" fill="#000000" fill-opacity="1" stroke-linecap="butt" stroke-width="1px" stroke="none" stroke-opacity="1" stroke-dasharray="none" d="M110.513,4.703L39.973,4.703C20.504,4.703,4.703,20.433,4.703,39.832L4.703,82.015L4.703,89.069C4.703,108.467,20.504,124.198,39.973,124.198L50.554,124.198C52.458,124.198,54.998,125.467,56.197,127.019L66.778,141.057C71.434,147.264,79.052,147.264,83.708,141.057L94.289,127.019C95.629,125.256,97.745,124.198,99.932,124.198L110.513,124.198C129.982,124.198,145.783,108.467,145.783,89.069L145.783,39.832C145.783,20.433,129.982,4.703,110.513,4.703ZM47.027,75.243C43.077,75.243,39.973,72.069,39.973,68.189C39.973,64.309,43.147,61.135,47.027,61.135C50.906,61.135,54.081,64.309,54.081,68.189C54.081,72.069,50.977,75.243,47.027,75.243ZM75.243,75.243C71.293,75.243,68.189,72.069,68.189,68.189C68.189,64.309,71.363,61.135,75.243,61.135C79.123,61.135,82.297,64.309,82.297,68.189C82.297,72.069,79.193,75.243,75.243,75.243ZM103.459,75.243C99.509,75.243,96.405,72.069,96.405,68.189C96.405,64.309,99.579,61.135,103.459,61.135C107.339,61.135,110.513,64.309,110.513,68.189C110.513,72.069,107.409,75.243,103.459,75.243ZM103.459,75.243"/>
</g>
  <g id="Semibold-L" transform="matrix(1.0,0.0,0.0,1.0,1969.3071609193914,1434.8426973011951)">  <path stroke="none" stroke-miterlimit="4" stroke-dasharray="none" stroke-opacity="1" stroke-linecap="butt" stroke-linejoin="miter" fill-opacity="1" stroke-width="1px" fill-rule="nonzero" fill="#000000" d="M110.513,4.703L39.973,4.703C20.504,4.703,4.703,20.433,4.703,39.832L4.703,82.015L4.703,89.069C4.703,108.467,20.504,124.198,39.973,124.198L50.554,124.198C52.458,124.198,54.998,125.467,56.197,127.019L66.778,141.057C71.434,147.264,79.052,147.264,83.708,141.057L94.289,127.019C95.629,125.256,97.745,124.198,99.932,124.198L110.513,124.198C129.982,124.198,145.783,108.467,145.783,89.069L145.783,39.832C145.783,20.433,129.982,4.703,110.513,4.703ZM47.027,75.243C43.077,75.243,39.973,72.069,39.973,68.189C39.973,64.309,43.147,61.135,47.027,61.135C50.906,61.135,54.081,64.309,54.081,68.189C54.081,72.069,50.977,75.243,47.027,75.243ZM75.243,75.243C71.293,75.243,68.189,72.069,68.189,68.189C68.189,64.309,71.363,61.135,75.243,61.135C79.123,61.135,82.297,64.309,82.297,68.189C82.297,72.069,79.193,75.243,75.243,75.243ZM103.459,75.243C99.509,75.243,96.405,72.069,96.405,68.189C96.405,64.309,99.579,61.135,103.459,61.135C107.339,61.135,110.513,64.309,110.513,68.189C110.513,72.069,107.409,75.243,103.459,75.243ZM103.459,75.243"/>
</g>
  <g id="Medium-L" transform="matrix(1.0,0.0,0.0,1.0,1672.5971609193914,1434.8426973011951)">  <path stroke-miterlimit="4" stroke-linejoin="miter" stroke-width="1px" stroke-opacity="1" stroke="none" fill-opacity="1" fill-rule="nonzero" fill="#000000" stroke-linecap="butt" stroke-dasharray="none" d="M110.513,4.703L39.973,4.703C20.504,4.703,4.703,20.433,4.703,39.832L4.703,82.015L4.703,89.069C4.703,108.467,20.504,124.198,39.973,124.198L50.554,124.198C52.458,124.198,54.998,125.467,56.197,127.019L66.778,141.057C71.434,147.264,79.052,147.264,83.708,141.057L94.289,127.019C95.629,125.256,97.745,124.198,99.932,124.198L110.513,124.198C129.982,124.198,145.783,108.467,145.783,89.069L145.783,39.832C145.783,20.433,129.982,4.703,110.513,4.703ZM47.027,75.243C43.077,75.243,39.973,72.069,39.973,68.189C39.973,64.309,43.147,61.135,47.027,61.135C50.906,61.135,54.081,64.309,54.081,68.189C54.081,72.069,50.977,75.243,47.027,75.243ZM75.243,75.243C71.293,75.243,68.189,72.069,68.189,68.189C68.189,64.309,71.363,61.135,75.243,61.135C79.123,61.135,82.297,64.309,82.297,68.189C82.297,72.069,79.193,75.243,75.243,75.243ZM103.459,75.243C99.509,75.243,96.405,72.069,96.405,68.189C96.405,64.309,99.579,61.135,103.459,61.135C107.339,61.135,110.513,64.309,110.513,68.189C110.513,72.069,107.409,75.243,103.459,75.243ZM103.459,75.243"/>
</g>
  <g id="Regular-L" transform="matrix(1.0,0.0,0.0,1.0,1375.8871609193914,1434.8426973011951)">  <path fill="#000000" fill-rule="nonzero" stroke-opacity="1" stroke-dasharray="none" stroke-linejoin="miter" fill-opacity="1" stroke-width="1px" stroke="none" stroke-miterlimit="4" stroke-linecap="butt" d="M110.513,4.703L39.973,4.703C20.504,4.703,4.703,20.433,4.703,39.832L4.703,82.015L4.703,89.069C4.703,108.467,20.504,124.198,39.973,124.198L50.554,124.198C52.458,124.198,54.998,125.467,56.197,127.019L66.778,141.057C71.434,147.264,79.052,147.264,83.708,141.057L94.289,127.019C95.629,125.256,97.745,124.198,99.932,124.198L110.513,124.198C129.982,124.198,145.783,108.467,145.783,89.069L145.783,39.832C145.783,20.433,129.982,4.703,110.513,4.703ZM47.027,75.243C43.077,75.243,39.973,72.069,39.973,68.189C39.973,64.309,43.147,61.135,47.027,61.135C50.906,61.135,54.081,64.309,54.081,68.189C54.081,72.069,50.977,75.243,47.027,75.243ZM75.243,75.243C71.293,75.243,68.189,72.069,68.189,68.189C68.189,64.309,71.363,61.135,75.243,61.135C79.123,61.135,82.297,64.309,82.297,68.189C82.297,72.069,79.193,75.243,75.243,75.243ZM103.459,75.243C99.509,75.243,96.405,72.069,96.405,68.189C96.405,64.309,99.579,61.135,103.459,61.135C107.339,61.135,110.513,64.309,110.513,68.189C110.513,72.069,107.409,75.243,103.459,75.243ZM103.459,75.243"/>
</g>
  <g id="Light-L" transform="matrix(1.0,0.0,0.0,1.0,1079.1771609193916,1434.8426973011951)">  <path stroke-linecap="butt" stroke-opacity="1" fill-rule="nonzero" fill-opacity="1" fill="#000000" stroke-width="1px" stroke="none" stroke-miterlimit="4" stroke-dasharray="none" stroke-linejoin="miter" d="M110.513,4.703L39.973,4.703C20.504,4.703,4.703,20.433,4.703,39.832L4.703,82.015L4.703,89.069C4.703,108.467,20.504,124.198,39.973,124.198L50.554,124.198C52.458,124.198,54.998,125.467,56.197,127.019L66.778,141.057C71.434,147.264,79.052,147.264,83.708,141.057L94.289,127.019C95.629,125.256,97.745,124.198,99.932,124.198L110.513,124.198C129.982,124.198,145.783,108.467,145.783,89.069L145.783,39.832C145.783,20.433,129.982,4.703,110.513,4.703ZM47.027,75.243C43.077,75.243,39.973,72.069,39.973,68.189C39.973,64.309,43.147,61.135,47.027,61.135C50.906,61.135,54.081,64.309,54.081,68.189C54.081,72.069,50.977,75.243,47.027,75.243ZM75.243,75.243C71.293,75.243,68.189,72.069,68.189,68.189C68.189,64.309,71.363,61.135,75.243,61.135C79.123,61.135,82.297,64.309,82.297,68.189C82.297,72.069,79.193,75.243,75.243,75.243ZM103.459,75.243C99.509,75.243,96.405,72.069,96.405,68.189C96.405,64.309,99.579,61.135,103.459,61.135C107.339,61.135,110.513,64.309,110.513,68.189C110.513,72.069,107.409,75.243,103.459,75.243ZM103.459,75.243"/>
</g>
  <g id="Thin-L" transform="matrix(1.0,0.0,0.0,1.0,782.4671609193916,1434.8426973011951)">  <path fill-rule="nonzero" stroke-opacity="1" stroke-linejoin="miter" stroke-dasharray="none" fill="#000000" stroke-miterlimit="4" stroke="none" stroke-linecap="butt" fill-opacity="1" stroke-width="1px" d="M110.513,4.703L39.973,4.703C20.504,4.703,4.703,20.433,4.703,39.832L4.703,82.015L4.703,89.069C4.703,108.467,20.504,124.198,39.973,124.198L50.554,124.198C52.458,124.198,54.998,125.467,56.197,127.019L66.778,141.057C71.434,147.264,79.052,147.264,83.708,141.057L94.289,127.019C95.629,125.256,97.745,124.198,99.932,124.198L110.513,124.198C129.982,124.198,145.783,108.467,145.783,89.069L145.783,39.832C145.783,20.433,129.982,4.703,110.513,4.703ZM47.027,75.243C43.077,75.243,39.973,72.069,39.973,68.189C39.973,64.309,43.147,61.135,47.027,61.135C50.906,61.135,54.081,64.309,54.081,68.189C54.081,72.069,50.977,75.243,47.027,75.243ZM75.243,75.243C71.293,75.243,68.189,72.069,68.189,68.189C68.189,64.309,71.363,61.135,75.243,61.135C79.123,61.135,82.297,64.309,82.297,68.189C82.297,72.069,79.193,75.243,75.243,75.243ZM103.459,75.243C99.509,75.243,96.405,72.069,96.405,68.189C96.405,64.309,99.579,61.135,103.459,61.135C107.339,61.135,110.513,64.309,110.513,68.189C110.513,72.069,107.409,75.243,103.459,75.243ZM103.459,75.243"/>
</g>
  <g id="Ultralight-L" transform="matrix(1.0,0.0,0.0,1.0,485.75716091939154,1434.8426973011951)">  <path stroke-width="1px" stroke-dasharray="none" stroke-opacity="1" fill="#000000" stroke-linecap="butt" stroke-miterlimit="4" stroke="none" stroke-linejoin="miter" fill-opacity="1" fill-rule="nonzero" d="M110.513,4.703L39.973,4.703C20.504,4.703,4.703,20.433,4.703,39.832L4.703,82.015L4.703,89.069C4.703,108.467,20.504,124.198,39.973,124.198L50.554,124.198C52.458,124.198,54.998,125.467,56.197,127.019L66.778,141.057C71.434,147.264,79.052,147.264,83.708,141.057L94.289,127.019C95.629,125.256,97.745,124.198,99.932,124.198L110.513,124.198C129.982,124.198,145.783,108.467,145.783,89.069L145.783,39.832C145.783,20.433,129.982,4.703,110.513,4.703ZM47.027,75.243C43.077,75.243,39.973,72.069,39.973,68.189C39.973,64.309,43.147,61.135,47.027,61.135C50.906,61.135,54.081,64.309,54.081,68.189C54.081,72.069,50.977,75.243,47.027,75.243ZM75.243,75.243C71.293,75.243,68.189,72.069,68.189,68.189C68.189,64.309,71.363,61.135,75.243,61.135C79.123,61.135,82.297,64.309,82.297,68.189C82.297,72.069,79.193,75.243,75.243,75.243ZM103.459,75.243C99.509,75.243,96.405,72.069,96.405,68.189C96.405,64.309,99.579,61.135,103.459,61.135C107.339,61.135,110.513,64.309,110.513,68.189C110.513,72.069,107.409,75.243,103.459,75.243ZM103.459,75.243"/>
</g>
  <g id="Black-M" transform="matrix(1.0,0.0,0.0,1.0,2876.35221776697,1024.15969222113)">  <path stroke-linejoin="miter" fill-opacity="1" stroke-dasharray="none" stroke-width="1px" fill="#000000" stroke-linecap="butt" stroke-miterlimit="4" stroke="none" stroke-opacity="1" fill-rule="nonzero" d="M85.669,3.645L30.987,3.645C15.894,3.645,3.645,15.84,3.645,30.877L3.645,63.577L3.645,69.046C3.645,84.083,15.894,96.277,30.987,96.277L39.189,96.277C40.665,96.277,42.634,97.262,43.564,98.465L51.766,109.346C55.375,114.158,61.281,114.158,64.89,109.346L73.092,98.465C74.131,97.098,75.771,96.277,77.467,96.277L85.669,96.277C100.761,96.277,113.01,84.083,113.01,69.046L113.01,30.877C113.01,15.84,100.761,3.645,85.669,3.645ZM36.455,58.328C33.393,58.328,30.987,55.867,30.987,52.86C30.987,49.852,33.447,47.391,36.455,47.391C39.462,47.391,41.923,49.852,41.923,52.86C41.923,55.867,39.517,58.328,36.455,58.328ZM58.328,58.328C55.266,58.328,52.86,55.867,52.86,52.86C52.86,49.852,55.32,47.391,58.328,47.391C61.335,47.391,63.796,49.852,63.796,52.86C63.796,55.867,61.39,58.328,58.328,58.328ZM80.201,58.328C77.138,58.328,74.732,55.867,74.732,52.86C74.732,49.852,77.193,47.391,80.201,47.391C83.208,47.391,85.669,49.852,85.669,52.86C85.669,55.867,83.263,58.328,80.201,58.328ZM80.201,58.328"/>
</g>
  <g id="Heavy-M" transform="matrix(1.0,0.0,0.0,1.0,2579.64221776697,1024.15969222113)">  <path stroke="none" stroke-opacity="1" stroke-miterlimit="4" fill-opacity="1" stroke-width="1px" fill="#000000" stroke-dasharray="none" stroke-linejoin="miter" fill-rule="nonzero" stroke-linecap="butt" d="M85.669,3.645L30.987,3.645C15.894,3.645,3.645,15.84,3.645,30.877L3.645,63.577L3.645,69.046C3.645,84.083,15.894,96.277,30.987,96.277L39.189,96.277C40.665,96.277,42.634,97.262,43.564,98.465L51.766,109.346C55.375,114.158,61.281,114.158,64.89,109.346L73.092,98.465C74.131,97.098,75.771,96.277,77.467,96.277L85.669,96.277C100.761,96.277,113.01,84.083,113.01,69.046L113.01,30.877C113.01,15.84,100.761,3.645,85.669,3.645ZM36.455,58.328C33.393,58.328,30.987,55.867,30.987,52.86C30.987,49.852,33.447,47.391,36.455,47.391C39.462,47.391,41.923,49.852,41.923,52.86C41.923,55.867,39.517,58.328,36.455,58.328ZM58.328,58.328C55.266,58.328,52.86,55.867,52.86,52.86C52.86,49.852,55.32,47.391,58.328,47.391C61.335,47.391,63.796,49.852,63.796,52.86C63.796,55.867,61.39,58.328,58.328,58.328ZM80.201,58.328C77.138,58.328,74.732,55.867,74.732,52.86C74.732,49.852,77.193,47.391,80.201,47.391C83.208,47.391,85.669,49.852,85.669,52.86C85.669,55.867,83.263,58.328,80.201,58.328ZM80.201,58.328"/>
</g>
  <g id="Bold-M" transform="matrix(1.0,0.0,0.0,1.0,2282.93221776697,1024.15969222113)">  <path fill-rule="nonzero" stroke-linejoin="miter" stroke-miterlimit="4" fill="#000000" fill-opacity="1" stroke-linecap="butt" stroke-width="1px" stroke="none" stroke-opacity="1" stroke-dasharray="none" d="M85.669,3.645L30.987,3.645C15.894,3.645,3.645,15.84,3.645,30.877L3.645,63.577L3.645,69.046C3.645,84.083,15.894,96.277,30.987,96.277L39.189,96.277C40.665,96.277,42.634,97.262,43.564,98.465L51.766,109.346C55.375,114.158,61.281,114.158,64.89,109.346L73.092,98.465C74.131,97.098,75.771,96.277,77.467,96.277L85.669,96.277C100.761,96.277,113.01,84.083,113.01,69.046L113.01,30.877C113.01,15.84,100.761,3.645,85.669,3.645ZM36.455,58.328C33.393,58.328,30.987,55.867,30.987,52.86C30.987,49.852,33.447,47.391,36.455,47.391C39.462,47.391,41.923,49.852,41.923,52.86C41.923,55.867,39.517,58.328,36.455,58.328ZM58.328,58.328C55.266,58.328,52.86,55.867,52.86,52.86C52.86,49.852,55.32,47.391,58.328,47.391C61.335,47.391,63.796,49.852,63.796,52.86C63.796,55.867,61.39,58.328,58.328,58.328ZM80.201,58.328C77.138,58.328,74.732,55.867,74.732,52.86C74.732,49.852,77.193,47.391,80.201,47.391C83.208,47.391,85.669,49.852,85.669,52.86C85.669,55.867,83.263,58.328,80.201,58.328ZM80.201,58.328"/>
</g>
  <g id="Semibold-M" transform="matrix(1.0,0.0,0.0,1.0,1986.22221776697,1024.15969222113)">  <path stroke="none" stroke-miterlimit="4" stroke-dasharray="none" stroke-opacity="1" stroke-linecap="butt" stroke-linejoin="miter" fill-opacity="1" stroke-width="1px" fill-rule="nonzero" fill="#000000" d="M85.669,3.645L30.987,3.645C15.894,3.645,3.645,15.84,3.645,30.877L3.645,63.577L3.645,69.046C3.645,84.083,15.894,96.277,30.987,96.277L39.189,96.277C40.665,96.277,42.634,97.262,43.564,98.465L51.766,109.346C55.375,114.158,61.281,114.158,64.89,109.346L73.092,98.465C74.131,97.098,75.771,96.277,77.467,96.277L85.669,96.277C100.761,96.277,113.01,84.083,113.01,69.046L113.01,30.877C113.01,15.84,100.761,3.645,85.669,3.645ZM36.455,58.328C33.393,58.328,30.987,55.867,30.987,52.86C30.987,49.852,33.447,47.391,36.455,47.391C39.462,47.391,41.923,49.852,41.923,52.86C41.923,55.867,39.517,58.328,36.455,58.328ZM58.328,58.328C55.266,58.328,52.86,55.867,52.86,52.86C52.86,49.852,55.32,47.391,58.328,47.391C61.335,47.391,63.796,49.852,63.796,52.86C63.796,55.867,61.39,58.328,58.328,58.328ZM80.201,58.328C77.138,58.328,74.732,55.867,74.732,52.86C74.732,49.852,77.193,47.391,80.201,47.391C83.208,47.391,85.669,49.852,85.669,52.86C85.669,55.867,83.263,58.328,80.201,58.328ZM80.201,58.328"/>
</g>
  <g id="Medium-M" transform="matrix(1.0,0.0,0.0,1.0,1689.51221776697,1024.15969222113)">  <path stroke-miterlimit="4" stroke-linejoin="miter" stroke-width="1px" stroke-opacity="1" stroke="none" fill-opacity="1" fill-rule="nonzero" fill="#000000" stroke-linecap="butt" stroke-dasharray="none" d="M85.669,3.645L30.987,3.645C15.894,3.645,3.645,15.84,3.645,30.877L3.645,63.577L3.645,69.046C3.645,84.083,15.894,96.277,30.987,96.277L39.189,96.277C40.665,96.277,42.634,97.262,43.564,98.465L51.766,109.346C55.375,114.158,61.281,114.158,64.89,109.346L73.092,98.465C74.131,97.098,75.771,96.277,77.467,96.277L85.669,96.277C100.761,96.277,113.01,84.083,113.01,69.046L113.01,30.877C113.01,15.84,100.761,3.645,85.669,3.645ZM36.455,58.328C33.393,58.328,30.987,55.867,30.987,52.86C30.987,49.852,33.447,47.391,36.455,47.391C39.462,47.391,41.923,49.852,41.923,52.86C41.923,55.867,39.517,58.328,36.455,58.328ZM58.328,58.328C55.266,58.328,52.86,55.867,52.86,52.86C52.86,49.852,55.32,47.391,58.328,47.391C61.335,47.391,63.796,49.852,63.796,52.86C63.796,55.867,61.39,58.328,58.328,58.328ZM80.201,58.328C77.138,58.328,74.732,55.867,74.732,52.86C74.732,49.852,77.193,47.391,80.201,47.391C83.208,47.391,85.669,49.852,85.669,52.86C85.669,55.867,83.263,58.328,80.201,58.328ZM80.201,58.328"/>
</g>
  <g id="Regular-M" transform="matrix(1.0,0.0,0.0,1.0,1392.80221776697,1024.15969222113)">  <path fill="#000000" fill-rule="nonzero" stroke-opacity="1" stroke-dasharray="none" stroke-linejoin="miter" fill-opacity="1" stroke-width="1px" stroke="none" stroke-miterlimit="4" stroke-linecap="butt" d="M85.669,3.645L30.987,3.645C15.894,3.645,3.645,15.84,3.645,30.877L3.645,63.577L3.645,69.046C3.645,84.083,15.894,96.277,30.987,96.277L39.189,96.277C40.665,96.277,42.634,97.262,43.564,98.465L51.766,109.346C55.375,114.158,61.281,114.158,64.89,109.346L73.092,98.465C74.131,97.098,75.771,96.277,77.467,96.277L85.669,96.277C100.761,96.277,113.01,84.083,113.01,69.046L113.01,30.877C113.01,15.84,100.761,3.645,85.669,3.645ZM36.455,58.328C33.393,58.328,30.987,55.867,30.987,52.86C30.987,49.852,33.447,47.391,36.455,47.391C39.462,47.391,41.923,49.852,41.923,52.86C41.923,55.867,39.517,58.328,36.455,58.328ZM58.328,58.328C55.266,58.328,52.86,55.867,52.86,52.86C52.86,49.852,55.32,47.391,58.328,47.391C61.335,47.391,63.796,49.852,63.796,52.86C63.796,55.867,61.39,58.328,58.328,58.328ZM80.201,58.328C77.138,58.328,74.732,55.867,74.732,52.86C74.732,49.852,77.193,47.391,80.201,47.391C83.208,47.391,85.669,49.852,85.669,52.86C85.669,55.867,83.263,58.328,80.201,58.328ZM80.201,58.328"/>
</g>
  <g id="Light-M" transform="matrix(1.0,0.0,0.0,1.0,1096.0922177669702,1024.15969222113)">  <path stroke-linecap="butt" stroke-opacity="1" fill-rule="nonzero" fill-opacity="1" fill="#000000" stroke-width="1px" stroke="none" stroke-miterlimit="4" stroke-dasharray="none" stroke-linejoin="miter" d="M85.669,3.645L30.987,3.645C15.894,3.645,3.645,15.84,3.645,30.877L3.645,63.577L3.645,69.046C3.645,84.083,15.894,96.277,30.987,96.277L39.189,96.277C40.665,96.277,42.634,97.262,43.564,98.465L51.766,109.346C55.375,114.158,61.281,114.158,64.89,109.346L73.092,98.465C74.131,97.098,75.771,96.277,77.467,96.277L85.669,96.277C100.761,96.277,113.01,84.083,113.01,69.046L113.01,30.877C113.01,15.84,100.761,3.645,85.669,3.645ZM36.455,58.328C33.393,58.328,30.987,55.867,30.987,52.86C30.987,49.852,33.447,47.391,36.455,47.391C39.462,47.391,41.923,49.852,41.923,52.86C41.923,55.867,39.517,58.328,36.455,58.328ZM58.328,58.328C55.266,58.328,52.86,55.867,52.86,52.86C52.86,49.852,55.32,47.391,58.328,47.391C61.335,47.391,63.796,49.852,63.796,52.86C63.796,55.867,61.39,58.328,58.328,58.328ZM80.201,58.328C77.138,58.328,74.732,55.867,74.732,52.86C74.732,49.852,77.193,47.391,80.201,47.391C83.208,47.391,85.669,49.852,85.669,52.86C85.669,55.867,83.263,58.328,80.201,58.328ZM80.201,58.328"/>
</g>
  <g id="Thin-M" transform="matrix(1.0,0.0,0.0,1.0,799.3822177669703,1024.15969222113)">  <path fill-rule="nonzero" stroke-opacity="1" stroke-linejoin="miter" stroke-dasharray="none" fill="#000000" stroke-miterlimit="4" stroke="none" stroke-linecap="butt" fill-opacity="1" stroke-width="1px" d="M85.669,3.645L30.987,3.645C15.894,3.645,3.645,15.84,3.645,30.877L3.645,63.577L3.645,69.046C3.645,84.083,15.894,96.277,30.987,96.277L39.189,96.277C40.665,96.277,42.634,97.262,43.564,98.465L51.766,109.346C55.375,114.158,61.281,114.158,64.89,109.346L73.092,98.465C74.131,97.098,75.771,96.277,77.467,96.277L85.669,96.277C100.761,96.277,113.01,84.083,113.01,69.046L113.01,30.877C113.01,15.84,100.761,3.645,85.669,3.645ZM36.455,58.328C33.393,58.328,30.987,55.867,30.987,52.86C30.987,49.852,33.447,47.391,36.455,47.391C39.462,47.391,41.923,49.852,41.923,52.86C41.923,55.867,39.517,58.328,36.455,58.328ZM58.328,58.328C55.266,58.328,52.86,55.867,52.86,52.86C52.86,49.852,55.32,47.391,58.328,47.391C61.335,47.391,63.796,49.852,63.796,52.86C63.796,55.867,61.39,58.328,58.328,58.328ZM80.201,58.328C77.138,58.328,74.732,55.867,74.732,52.86C74.732,49.852,77.193,47.391,80.201,47.391C83.208,47.391,85.669,49.852,85.669,52.86C85.669,55.867,83.263,58.328,80.201,58.328ZM80.201,58.328"/>
</g>
  <g id="Ultralight-M" transform="matrix(1.0,0.0,0.0,1.0,502.6722177669702,1024.15969222113)">  <path stroke-width="1px" stroke-dasharray="none" stroke-opacity="1" fill="#000000" stroke-linecap="butt" stroke-miterlimit="4" stroke="none" stroke-linejoin="miter" fill-opacity="1" fill-rule="nonzero" d="M85.669,3.645L30.987,3.645C15.894,3.645,3.645,15.84,3.645,30.877L3.645,63.577L3.645,69.046C3.645,84.083,15.894,96.277,30.987,96.277L39.189,96.277C40.665,96.277,42.634,97.262,43.564,98.465L51.766,109.346C55.375,114.158,61.281,114.158,64.89,109.346L73.092,98.465C74.131,97.098,75.771,96.277,77.467,96.277L85.669,96.277C100.761,96.277,113.01,84.083,113.01,69.046L113.01,30.877C113.01,15.84,100.761,3.645,85.669,3.645ZM36.455,58.328C33.393,58.328,30.987,55.867,30.987,52.86C30.987,49.852,33.447,47.391,36.455,47.391C39.462,47.391,41.923,49.852,41.923,52.86C41.923,55.867,39.517,58.328,36.455,58.328ZM58.328,58.328C55.266,58.328,52.86,55.867,52.86,52.86C52.86,49.852,55.32,47.391,58.328,47.391C61.335,47.391,63.796,49.852,63.796,52.86C63.796,55.867,61.39,58.328,58.328,58.328ZM80.201,58.328C77.138,58.328,74.732,55.867,74.732,52.86C74.732,49.852,77.193,47.391,80.201,47.391C83.208,47.391,85.669,49.852,85.669,52.86C85.669,55.867,83.263,58.328,80.201,58.328ZM80.201,58.328"/>
</g>
  <g id="Black-S" transform="matrix(1.0,0.0,0.0,1.0,2889.0093465115374,608.614133247426)">  <path stroke-linejoin="miter" fill-opacity="1" stroke-dasharray="none" stroke-width="1px" fill="#000000" stroke-linecap="butt" stroke-miterlimit="4" stroke="none" stroke-opacity="1" fill-rule="nonzero" d="M67.079,2.854L24.263,2.854C12.445,2.854,2.854,12.402,2.854,24.177L2.854,49.781L2.854,54.063C2.854,65.837,12.445,75.385,24.263,75.385L30.685,75.385C31.841,75.385,33.382,76.156,34.11,77.098L40.533,85.618C43.359,89.386,47.983,89.386,50.809,85.618L57.231,77.098C58.045,76.027,59.329,75.385,60.656,75.385L67.079,75.385C78.896,75.385,88.487,65.837,88.487,54.063L88.487,24.177C88.487,12.402,78.896,2.854,67.079,2.854ZM28.544,45.671C26.146,45.671,24.263,43.744,24.263,41.389C24.263,39.034,26.189,37.107,28.544,37.107C30.899,37.107,32.826,39.034,32.826,41.389C32.826,43.744,30.942,45.671,28.544,45.671ZM45.671,45.671C43.273,45.671,41.389,43.744,41.389,41.389C41.389,39.034,43.316,37.107,45.671,37.107C48.026,37.107,49.952,39.034,49.952,41.389C49.952,43.744,48.068,45.671,45.671,45.671ZM62.797,45.671C60.399,45.671,58.516,43.744,58.516,41.389C58.516,39.034,60.442,37.107,62.797,37.107C65.152,37.107,67.079,39.034,67.079,41.389C67.079,43.744,65.195,45.671,62.797,45.671ZM62.797,45.671"/>
</g>
  <g id="Heavy-S" transform="matrix(1.0,0.0,0.0,1.0,2592.2993465115374,608.614133247426)">  <path stroke="none" stroke-opacity="1" stroke-miterlimit="4" fill-opacity="1" stroke-width="1px" fill="#000000" stroke-dasharray="none" stroke-linejoin="miter" fill-rule="nonzero" stroke-linecap="butt" d="M67.079,2.854L24.263,2.854C12.445,2.854,2.854,12.402,2.854,24.177L2.854,49.781L2.854,54.063C2.854,65.837,12.445,75.385,24.263,75.385L30.685,75.385C31.841,75.385,33.382,76.156,34.11,77.098L40.533,85.618C43.359,89.386,47.983,89.386,50.809,85.618L57.231,77.098C58.045,76.027,59.329,75.385,60.656,75.385L67.079,75.385C78.896,75.385,88.487,65.837,88.487,54.063L88.487,24.177C88.487,12.402,78.896,2.854,67.079,2.854ZM28.544,45.671C26.146,45.671,24.263,43.744,24.263,41.389C24.263,39.034,26.189,37.107,28.544,37.107C30.899,37.107,32.826,39.034,32.826,41.389C32.826,43.744,30.942,45.671,28.544,45.671ZM45.671,45.671C43.273,45.671,41.389,43.744,41.389,41.389C41.389,39.034,43.316,37.107,45.671,37.107C48.026,37.107,49.952,39.034,49.952,41.389C49.952,43.744,48.068,45.671,45.671,45.671ZM62.797,45.671C60.399,45.671,58.516,43.744,58.516,41.389C58.516,39.034,60.442,37.107,62.797,37.107C65.152,37.107,67.079,39.034,67.079,41.389C67.079,43.744,65.195,45.671,62.797,45.671ZM62.797,45.671"/>
</g>
  <g id="Bold-S" transform="matrix(1.0,0.0,0.0,1.0,2295.5893465115373,608.614133247426)">  <path fill-rule="nonzero" stroke-linejoin="miter" stroke-miterlimit="4" fill="#000000" fill-opacity="1" stroke-linecap="butt" stroke-width="1px" stroke="none" stroke-opacity="1" stroke-dasharray="none" d="M67.079,2.854L24.263,2.854C12.445,2.854,2.854,12.402,2.854,24.177L2.854,49.781L2.854,54.063C2.854,65.837,12.445,75.385,24.263,75.385L30.685,75.385C31.841,75.385,33.382,76.156,34.11,77.098L40.533,85.618C43.359,89.386,47.983,89.386,50.809,85.618L57.231,77.098C58.045,76.027,59.329,75.385,60.656,75.385L67.079,75.385C78.896,75.385,88.487,65.837,88.487,54.063L88.487,24.177C88.487,12.402,78.896,2.854,67.079,2.854ZM28.544,45.671C26.146,45.671,24.263,43.744,24.263,41.389C24.263,39.034,26.189,37.107,28.544,37.107C30.899,37.107,32.826,39.034,32.826,41.389C32.826,43.744,30.942,45.671,28.544,45.671ZM45.671,45.671C43.273,45.671,41.389,43.744,41.389,41.389C41.389,39.034,43.316,37.107,45.671,37.107C48.026,37.107,49.952,39.034,49.952,41.389C49.952,43.744,48.068,45.671,45.671,45.671ZM62.797,45.671C60.399,45.671,58.516,43.744,58.516,41.389C58.516,39.034,60.442,37.107,62.797,37.107C65.152,37.107,67.079,39.034,67.079,41.389C67.079,43.744,65.195,45.671,62.797,45.671ZM62.797,45.671"/>
</g>
  <g id="Semibold-S" transform="matrix(1.0,0.0,0.0,1.0,1998.8793465115377,608.614133247426)">  <path stroke="none" stroke-miterlimit="4" stroke-dasharray="none" stroke-opacity="1" stroke-linecap="butt" stroke-linejoin="miter" fill-opacity="1" stroke-width="1px" fill-rule="nonzero" fill="#000000" d="M67.079,2.854L24.263,2.854C12.445,2.854,2.854,12.402,2.854,24.177L2.854,49.781L2.854,54.063C2.854,65.837,12.445,75.385,24.263,75.385L30.685,75.385C31.841,75.385,33.382,76.156,34.11,77.098L40.533,85.618C43.359,89.386,47.983,89.386,50.809,85.618L57.231,77.098C58.045,76.027,59.329,75.385,60.656,75.385L67.079,75.385C78.896,75.385,88.487,65.837,88.487,54.063L88.487,24.177C88.487,12.402,78.896,2.854,67.079,2.854ZM28.544,45.671C26.146,45.671,24.263,43.744,24.263,41.389C24.263,39.034,26.189,37.107,28.544,37.107C30.899,37.107,32.826,39.034,32.826,41.389C32.826,43.744,30.942,45.671,28.544,45.671ZM45.671,45.671C43.273,45.671,41.389,43.744,41.389,41.389C41.389,39.034,43.316,37.107,45.671,37.107C48.026,37.107,49.952,39.034,49.952,41.389C49.952,43.744,48.068,45.671,45.671,45.671ZM62.797,45.671C60.399,45.671,58.516,43.744,58.516,41.389C58.516,39.034,60.442,37.107,62.797,37.107C65.152,37.107,67.079,39.034,67.079,41.389C67.079,43.744,65.195,45.671,62.797,45.671ZM62.797,45.671"/>
</g>
  <g id="Medium-S" transform="matrix(1.0,0.0,0.0,1.0,1702.1693465115377,608.614133247426)">  <path stroke-miterlimit="4" stroke-linejoin="miter" stroke-width="1px" stroke-opacity="1" stroke="none" fill-opacity="1" fill-rule="nonzero" fill="#000000" stroke-linecap="butt" stroke-dasharray="none" d="M67.079,2.854L24.263,2.854C12.445,2.854,2.854,12.402,2.854,24.177L2.854,49.781L2.854,54.063C2.854,65.837,12.445,75.385,24.263,75.385L30.685,75.385C31.841,75.385,33.382,76.156,34.11,77.098L40.533,85.618C43.359,89.386,47.983,89.386,50.809,85.618L57.231,77.098C58.045,76.027,59.329,75.385,60.656,75.385L67.079,75.385C78.896,75.385,88.487,65.837,88.487,54.063L88.487,24.177C88.487,12.402,78.896,2.854,67.079,2.854ZM28.544,45.671C26.146,45.671,24.263,43.744,24.263,41.389C24.263,39.034,26.189,37.107,28.544,37.107C30.899,37.107,32.826,39.034,32.826,41.389C32.826,43.744,30.942,45.671,28.544,45.671ZM45.671,45.671C43.273,45.671,41.389,43.744,41.389,41.389C41.389,39.034,43.316,37.107,45.671,37.107C48.026,37.107,49.952,39.034,49.952,41.389C49.952,43.744,48.068,45.671,45.671,45.671ZM62.797,45.671C60.399,45.671,58.516,43.744,58.516,41.389C58.516,39.034,60.442,37.107,62.797,37.107C65.152,37.107,67.079,39.034,67.079,41.389C67.079,43.744,65.195,45.671,62.797,45.671ZM62.797,45.671"/>
</g>
  <g id="Regular-S" transform="matrix(1.0,0.0,0.0,1.0,1405.4593465115377,608.614133247426)">  <path fill="#000000" fill-rule="nonzero" stroke-opacity="1" stroke-dasharray="none" stroke-linejoin="miter" fill-opacity="1" stroke-width="1px" stroke="none" stroke-miterlimit="4" stroke-linecap="butt" d="M67.079,2.854L24.263,2.854C12.445,2.854,2.854,12.402,2.854,24.177L2.854,49.781L2.854,54.063C2.854,65.837,12.445,75.385,24.263,75.385L30.685,75.385C31.841,75.385,33.382,76.156,34.11,77.098L40.533,85.618C43.359,89.386,47.983,89.386,50.809,85.618L57.231,77.098C58.045,76.027,59.329,75.385,60.656,75.385L67.079,75.385C78.896,75.385,88.487,65.837,88.487,54.063L88.487,24.177C88.487,12.402,78.896,2.854,67.079,2.854ZM28.544,45.671C26.146,45.671,24.263,43.744,24.263,41.389C24.263,39.034,26.189,37.107,28.544,37.107C30.899,37.107,32.826,39.034,32.826,41.389C32.826,43.744,30.942,45.671,28.544,45.671ZM45.671,45.671C43.273,45.671,41.389,43.744,41.389,41.389C41.389,39.034,43.316,37.107,45.671,37.107C48.026,37.107,49.952,39.034,49.952,41.389C49.952,43.744,48.068,45.671,45.671,45.671ZM62.797,45.671C60.399,45.671,58.516,43.744,58.516,41.389C58.516,39.034,60.442,37.107,62.797,37.107C65.152,37.107,67.079,39.034,67.079,41.389C67.079,43.744,65.195,45.671,62.797,45.671ZM62.797,45.671"/>
</g>
  <g id="Light-S" transform="matrix(1.0,0.0,0.0,1.0,1108.7493465115376,608.614133247426)">  <path stroke-linecap="butt" stroke-opacity="1" fill-rule="nonzero" fill-opacity="1" fill="#000000" stroke-width="1px" stroke="none" stroke-miterlimit="4" stroke-dasharray="none" stroke-linejoin="miter" d="M67.079,2.854L24.263,2.854C12.445,2.854,2.854,12.402,2.854,24.177L2.854,49.781L2.854,54.063C2.854,65.837,12.445,75.385,24.263,75.385L30.685,75.385C31.841,75.385,33.382,76.156,34.11,77.098L40.533,85.618C43.359,89.386,47.983,89.386,50.809,85.618L57.231,77.098C58.045,76.027,59.329,75.385,60.656,75.385L67.079,75.385C78.896,75.385,88.487,65.837,88.487,54.063L88.487,24.177C88.487,12.402,78.896,2.854,67.079,2.854ZM28.544,45.671C26.146,45.671,24.263,43.744,24.263,41.389C24.263,39.034,26.189,37.107,28.544,37.107C30.899,37.107,32.826,39.034,32.826,41.389C32.826,43.744,30.942,45.671,28.544,45.671ZM45.671,45.671C43.273,45.671,41.389,43.744,41.389,41.389C41.389,39.034,43.316,37.107,45.671,37.107C48.026,37.107,49.952,39.034,49.952,41.389C49.952,43.744,48.068,45.671,45.671,45.671ZM62.797,45.671C60.399,45.671,58.516,43.744,58.516,41.389C58.516,39.034,60.442,37.107,62.797,37.107C65.152,37.107,67.079,39.034,67.079,41.389C67.079,43.744,65.195,45.671,62.797,45.671ZM62.797,45.671"/>
</g>
  <g id="Thin-S" transform="matrix(1.0,0.0,0.0,1.0,812.0393465115377,608.614133247426)">  <path fill-rule="nonzero" stroke-opacity="1" stroke-linejoin="miter" stroke-dasharray="none" fill="#000000" stroke-miterlimit="4" stroke="none" stroke-linecap="butt" fill-opacity="1" stroke-width="1px" d="M67.079,2.854L24.263,2.854C12.445,2.854,2.854,12.402,2.854,24.177L2.854,49.781L2.854,54.063C2.854,65.837,12.445,75.385,24.263,75.385L30.685,75.385C31.841,75.385,33.382,76.156,34.11,77.098L40.533,85.618C43.359,89.386,47.983,89.386,50.809,85.618L57.231,77.098C58.045,76.027,59.329,75.385,60.656,75.385L67.079,75.385C78.896,75.385,88.487,65.837,88.487,54.063L88.487,24.177C88.487,12.402,78.896,2.854,67.079,2.854ZM28.544,45.671C26.146,45.671,24.263,43.744,24.263,41.389C24.263,39.034,26.189,37.107,28.544,37.107C30.899,37.107,32.826,39.034,32.826,41.389C32.826,43.744,30.942,45.671,28.544,45.671ZM45.671,45.671C43.273,45.671,41.389,43.744,41.389,41.389C41.389,39.034,43.316,37.107,45.671,37.107C48.026,37.107,49.952,39.034,49.952,41.389C49.952,43.744,48.068,45.671,45.671,45.671ZM62.797,45.671C60.399,45.671,58.516,43.744,58.516,41.389C58.516,39.034,60.442,37.107,62.797,37.107C65.152,37.107,67.079,39.034,67.079,41.389C67.079,43.744,65.195,45.671,62.797,45.671ZM62.797,45.671"/>
</g>
  <g id="Ultralight-S" transform="matrix(1.0,0.0,0.0,1.0,515.3293465115377,608.614133247426)">  <path stroke-width="1px" stroke-dasharray="none" stroke-opacity="1" fill="#000000" stroke-linecap="butt" stroke-miterlimit="4" stroke="none" stroke-linejoin="miter" fill-opacity="1" fill-rule="nonzero" d="M67.079,2.854L24.263,2.854C12.445,2.854,2.854,12.402,2.854,24.177L2.854,49.781L2.854,54.063C2.854,65.837,12.445,75.385,24.263,75.385L30.685,75.385C31.841,75.385,33.382,76.156,34.11,77.098L40.533,85.618C43.359,89.386,47.983,89.386,50.809,85.618L57.231,77.098C58.045,76.027,59.329,75.385,60.656,75.385L67.079,75.385C78.896,75.385,88.487,65.837,88.487,54.063L88.487,24.177C88.487,12.402,78.896,2.854,67.079,2.854ZM28.544,45.671C26.146,45.671,24.263,43.744,24.263,41.389C24.263,39.034,26.189,37.107,28.544,37.107C30.899,37.107,32.826,39.034,32.826,41.389C32.826,43.744,30.942,45.671,28.544,45.671ZM45.671,45.671C43.273,45.671,41.389,43.744,41.389,41.389C41.389,39.034,43.316,37.107,45.671,37.107C48.026,37.107,49.952,39.034,49.952,41.389C49.952,43.744,48.068,45.671,45.671,45.671ZM62.797,45.671C60.399,45.671,58.516,43.744,58.516,41.389C58.516,39.034,60.442,37.107,62.797,37.107C65.152,37.107,67.079,39.034,67.079,41.389C67.079,43.744,65.195,45.671,62.797,45.671ZM62.797,45.671"/>
</g>
 </g>
</svg>
