<?xml version="1.0" encoding="UTF-8"?>
<!-- Generator: CustomSymbols v2.6.2.41 by @serious_bret https://bretlester.com/app_content/CustomSymbols/ -->
<!-- Guides: Left/Right 0.0/0.0 Cap/Base 0.269/0.127 -->
<!-- Settings: RefScale 1.0 Min/Max Stroke Scales 0.5/2.21 -->
<!DOCTYPE svg
PUBLIC "-//W3C//DTD SVG 1.1//EN"
       "http://www.w3.org/Graphics/SVG/1.1/DTD/svg11.dtd">
<svg version="1.1" xmlns="http://www.w3.org/2000/svg" xmlns:xlink="http://www.w3.org/1999/xlink" width="3300" height="2200">
<![CDATA[<svg width="24" height="25" viewBox="0 0 24 25" fill="none" xmlns="http://www.w3.org/2000/svg">
<path d="M12 3.63107V15.6311M12 3.63107L8 7.63107M12 3.63107L16 7.63107M2 17.6311L2.621 20.1161C2.72915 20.5488 2.97882 20.9329 3.33033 21.2074C3.68184 21.4819 4.11501 21.631 4.561 21.6311H19.439C19.885 21.631 20.3182 21.4819 20.6697 21.2074C21.0212 20.9329 21.2708 20.5488 21.379 20.1161L22 17.6311" stroke="#777777" stroke-width="2" stroke-linecap="round" stroke-linejoin="round"/>
</svg>
]]>
 <g id="Notes">
  <rect height="2200" id="artboard" style="fill:white;opacity:1" width="3300" x="0" y="0"/>
  <line id="" style="fill:none;stroke:black;opacity:1;stroke-width:0.5;" x1="263" x2="3036" y1="292" y2="292"/>
  <text id="reftext1" style="stroke:none;fill:black;font-family:-apple-system,&quot;SF Pro Display&quot;,&quot;SF Pro Text&quot;,Helvetica,sans-serif;font-weight:bold;" transform="matrix(1 0 0 1 263 322)">Weight/Scale Variations</text>
  <text id="reftext2" style="stroke:none;fill:black;font-family:-apple-system,&quot;SF Pro Display&quot;,&quot;SF Pro Text&quot;,Helvetica,sans-serif;text-anchor:middle;" transform="matrix(1 0 0 1 559.711 322)">Ultralight</text>
  <text style="stroke:none;fill:black;font-family:-apple-system,&quot;SF Pro Display&quot;,&quot;SF Pro Text&quot;,Helvetica,sans-serif;text-anchor:middle;" transform="matrix(1 0 0 1 856.422 322)">Thin</text>
  <text style="stroke:none;fill:black;font-family:-apple-system,&quot;SF Pro Display&quot;,&quot;SF Pro Text&quot;,Helvetica,sans-serif;text-anchor:middle;" transform="matrix(1 0 0 1 1153.13 322)">Light</text>
  <text style="stroke:none;fill:black;font-family:-apple-system,&quot;SF Pro Display&quot;,&quot;SF Pro Text&quot;,Helvetica,sans-serif;text-anchor:middle;" transform="matrix(1 0 0 1 1449.84 322)">Regular</text>
  <text style="stroke:none;fill:black;font-family:-apple-system,&quot;SF Pro Display&quot;,&quot;SF Pro Text&quot;,Helvetica,sans-serif;text-anchor:middle;" transform="matrix(1 0 0 1 1746.56 322)">Medium</text>
  <text style="stroke:none;fill:black;font-family:-apple-system,&quot;SF Pro Display&quot;,&quot;SF Pro Text&quot;,Helvetica,sans-serif;text-anchor:middle;" transform="matrix(1 0 0 1 2043.27 322)">Semibold</text>
  <text style="stroke:none;fill:black;font-family:-apple-system,&quot;SF Pro Display&quot;,&quot;SF Pro Text&quot;,Helvetica,sans-serif;text-anchor:middle;" transform="matrix(1 0 0 1 2339.98 322)">Bold</text>
  <text style="stroke:none;fill:black;font-family:-apple-system,&quot;SF Pro Display&quot;,&quot;SF Pro Text&quot;,Helvetica,sans-serif;text-anchor:middle;" transform="matrix(1 0 0 1 2636.69 322)">Heavy</text>
  <text style="stroke:none;fill:black;font-family:-apple-system,&quot;SF Pro Display&quot;,&quot;SF Pro Text&quot;,Helvetica,sans-serif;text-anchor:middle;" transform="matrix(1 0 0 1 2933.4 322)">Black</text>
  <line id="" style="fill:none;stroke:black;opacity:1;stroke-width:0.5;" x1="263" x2="3036" y1="1903" y2="1903"/>
  <g id="" transform="matrix(1 0 0 1 263 1933)">
   <path d="M9.24805 0.830078C13.5547 0.830078 17.1387-2.74414 17.1387-7.05078C17.1387-11.3574 13.5449-14.9316 9.23828-14.9316C4.94141-14.9316 1.36719-11.3574 1.36719-7.05078C1.36719-2.74414 4.95117 0.830078 9.24805 0.830078ZM9.24805-0.654297C5.70312-0.654297 2.87109-3.49609 2.87109-7.05078C2.87109-10.6055 5.69336-13.4473 9.23828-13.4473C12.793-13.4473 15.6348-10.6055 15.6445-7.05078C15.6543-3.49609 12.8027-0.654297 9.24805-0.654297ZM6.39648-6.31836L8.50586-6.31836L8.50586-4.19922C8.50586-3.75977 8.79883-3.45703 9.22852-3.45703C9.67773-3.45703 9.9707-3.75977 9.9707-4.19922L9.9707-6.31836L12.0996-6.31836C12.5391-6.31836 12.8418-6.61133 12.8418-7.04102C12.8418-7.48047 12.5391-7.7832 12.0996-7.7832L9.9707-7.7832L9.9707-9.89258C9.9707-10.3418 9.67773-10.6445 9.22852-10.6445C8.79883-10.6445 8.50586-10.3418 8.50586-9.89258L8.50586-7.7832L6.39648-7.7832C5.94727-7.7832 5.64453-7.48047 5.64453-7.04102C5.64453-6.61133 5.94727-6.31836 6.39648-6.31836Z"/>
  </g>
  <g id="" transform="matrix(1 0 0 1 281.506 1933)">
   <path d="M11.709 2.91016C17.1582 2.91016 21.6699-1.61133 21.6699-7.05078C21.6699-12.5 17.1484-17.0117 11.6992-17.0117C6.25977-17.0117 1.74805-12.5 1.74805-7.05078C1.74805-1.61133 6.26953 2.91016 11.709 2.91016ZM11.709 1.25C7.09961 1.25 3.41797-2.44141 3.41797-7.05078C3.41797-11.6602 7.08984-15.3516 11.6992-15.3516C16.3086-15.3516 20-11.6602 20.0098-7.05078C20.0195-2.44141 16.3184 1.25 11.709 1.25ZM7.98828-6.23047L10.8789-6.23047L10.8789-3.32031C10.8789-2.83203 11.2109-2.5 11.6895-2.5C12.1777-2.5 12.5195-2.83203 12.5195-3.32031L12.5195-6.23047L15.4297-6.23047C15.918-6.23047 16.25-6.5625 16.25-7.04102C16.25-7.5293 15.918-7.87109 15.4297-7.87109L12.5195-7.87109L12.5195-10.7617C12.5195-11.2695 12.1777-11.6016 11.6895-11.6016C11.2109-11.6016 10.8789-11.2598 10.8789-10.7617L10.8789-7.87109L7.98828-7.87109C7.48047-7.87109 7.14844-7.5293 7.14844-7.04102C7.14844-6.5625 7.49023-6.23047 7.98828-6.23047Z"/>
  </g>
  <g id="" transform="matrix(1 0 0 1 304.924 1933)">
   <path d="M14.9707 5.66406C21.9336 5.66406 27.6953-0.0976562 27.6953-7.05078C27.6953-14.0137 21.9238-19.7754 14.9609-19.7754C8.00781-19.7754 2.25586-14.0137 2.25586-7.05078C2.25586-0.0976562 8.01758 5.66406 14.9707 5.66406ZM14.9707 3.84766C8.93555 3.84766 4.08203-1.01562 4.08203-7.05078C4.08203-13.0957 8.92578-17.9492 14.9609-17.9492C21.0059-17.9492 25.8594-13.0957 25.8691-7.05078C25.8789-1.01562 21.0156 3.84766 14.9707 3.84766ZM10.0586-6.14258L14.0625-6.14258L14.0625-2.12891C14.0625-1.5918 14.4336-1.2207 14.9512-1.2207C15.4883-1.2207 15.8594-1.5918 15.8594-2.12891L15.8594-6.14258L19.8828-6.14258C20.4102-6.14258 20.791-6.51367 20.791-7.03125C20.791-7.56836 20.4199-7.94922 19.8828-7.94922L15.8594-7.94922L15.8594-11.9531C15.8594-12.5098 15.4883-12.8809 14.9512-12.8809C14.4336-12.8809 14.0625-12.5 14.0625-11.9531L14.0625-7.94922L10.0586-7.94922C9.50195-7.94922 9.13086-7.56836 9.13086-7.03125C9.13086-6.51367 9.51172-6.14258 10.0586-6.14258Z"/>
  </g>
  <text style="stroke:none;fill:black;font-family:-apple-system,&quot;SF Pro Display&quot;,&quot;SF Pro Text&quot;,Helvetica,sans-serif;font-weight:bold;" transform="matrix(1 0 0 1 263 1953)">Design Variations</text>
  <text style="stroke:none;fill:black;font-family:-apple-system,&quot;SF Pro Display&quot;,&quot;SF Pro Text&quot;,Helvetica,sans-serif;" transform="matrix(1 0 0 1 263 1971)">Symbols are supported in up to nine weights and three scales.</text>
  <text style="stroke:none;fill:black;font-family:-apple-system,&quot;SF Pro Display&quot;,&quot;SF Pro Text&quot;,Helvetica,sans-serif;" transform="matrix(1 0 0 1 263 1989)">For optimal layout with text and other symbols, vertically align</text>
  <text style="stroke:none;fill:black;font-family:-apple-system,&quot;SF Pro Display&quot;,&quot;SF Pro Text&quot;,Helvetica,sans-serif;" transform="matrix(1 0 0 1 263 2007)">symbols with the adjacent text.</text>
  <line id="" style="fill:none;stroke:#00AEEF;stroke-width:0.5;opacity:1.0;" x1="776" x2="776" y1="1919" y2="1933"/>
  <g id="" transform="matrix(1 0 0 1 776 1933)">
   <path d="M3.31055 0.126953C3.82812 0.126953 4.08203-0.0683594 4.26758-0.605469L5.52734-4.0625L11.2891-4.0625L12.5488-0.605469C12.7344-0.0683594 12.9883 0.126953 13.4961 0.126953C14.0137 0.126953 14.3457-0.185547 14.3457-0.673828C14.3457-0.839844 14.3164-0.986328 14.2383-1.20117L9.6582-13.3887C9.43359-13.9941 9.0332-14.2871 8.4082-14.2871C7.80273-14.2871 7.39258-13.9941 7.17773-13.3984L2.59766-1.19141C2.51953-0.976562 2.49023-0.830078 2.49023-0.664062C2.49023-0.175781 2.80273 0.126953 3.31055 0.126953ZM6.00586-5.53711L8.37891-12.1094L8.42773-12.1094L10.8008-5.53711Z"/>
  </g>
  <line id="" style="fill:none;stroke:#00AEEF;stroke-width:0.5;opacity:1.0;" x1="792.836" x2="792.836" y1="1919" y2="1933"/>
  <text style="stroke:none;fill:black;font-family:-apple-system,&quot;SF Pro Display&quot;,&quot;SF Pro Text&quot;,Helvetica,sans-serif;font-weight:bold;" transform="matrix(1 0 0 1 776 1953)">Margins</text>
  <text style="stroke:none;fill:black;font-family:-apple-system,&quot;SF Pro Display&quot;,&quot;SF Pro Text&quot;,Helvetica,sans-serif;" transform="matrix(1 0 0 1 776 1971)">Leading and trailing margins on the left and right side of each symbol</text>
  <text style="stroke:none;fill:black;font-family:-apple-system,&quot;SF Pro Display&quot;,&quot;SF Pro Text&quot;,Helvetica,sans-serif;" transform="matrix(1 0 0 1 776 1989)">can be adjusted by modifying the x-location of the margin guidelines.</text>
  <text style="stroke:none;fill:black;font-family:-apple-system,&quot;SF Pro Display&quot;,&quot;SF Pro Text&quot;,Helvetica,sans-serif;" transform="matrix(1 0 0 1 776 2007)">Modifications are automatically applied proportionally to all</text>
  <text style="stroke:none;fill:black;font-family:-apple-system,&quot;SF Pro Display&quot;,&quot;SF Pro Text&quot;,Helvetica,sans-serif;" transform="matrix(1 0 0 1 776 2025)">scales and weights.</text>
  <g id="" transform="matrix(1 0 0 1 1289 1933)">
   <path d="M2.8418 1.86523L4.54102 3.57422C5.40039 4.44336 6.38672 4.38477 7.31445 3.35938L17.4902-7.85156C17.7539-7.76367 18.0273-7.7832 18.3398-7.8418L19.4043-8.03711L20.0684-7.36328L20.0293-6.80664C19.9902-6.30859 20.1172-5.92773 20.6055-5.44922L21.3672-4.70703C21.8457-4.22852 22.4609-4.19922 22.9297-4.66797L25.8398-7.58789C26.3086-8.05664 26.2891-8.65234 25.8105-9.13086L25.0391-9.89258C24.5605-10.3711 24.1895-10.5273 23.7109-10.4883L23.1348-10.4395L22.4902-11.0742L22.7344-12.1973C22.8613-12.7637 22.7051-13.2031 22.1191-13.7891L19.9219-15.9766C16.582-19.2969 12.1484-19.2188 9.25781-16.3281C8.83789-15.918 8.80859-15.3418 9.04297-14.9512C9.27734-14.5898 9.73633-14.3555 10.3809-14.5215C11.8457-14.8633 13.3691-14.9219 14.7949-13.9844L14.209-12.5293C14.0137-12.0508 13.9844-11.6504 14.1113-11.2891L3.04688-0.898438C2.06055 0.0195312 1.98242 0.996094 2.8418 1.86523ZM10.752-15.957C13.1836-17.7344 16.4746-17.4316 18.7012-15.2051L21.1328-12.793C21.3672-12.5586 21.4062-12.373 21.3379-12.0312L21.0156-10.5469L22.5195-9.0625L23.5059-9.12109C23.7598-9.13086 23.8379-9.11133 24.0332-8.91602L24.6094-8.33984L22.168-5.89844L21.5918-6.47461C21.3965-6.66992 21.3672-6.74805 21.377-7.01172L21.4453-7.98828L19.9512-9.47266L18.4277-9.21875C18.1055-9.15039 17.959-9.17969 17.7148-9.41406L15.7129-11.416C15.459-11.6504 15.4297-11.8164 15.5859-12.1875L16.4648-14.2773C14.9023-15.7324 12.8711-16.3574 10.8398-15.7617C10.6836-15.7227 10.625-15.8496 10.752-15.957ZM5.27344 2.30469L4.10156 1.14258C3.63281 0.683594 3.74023 0.341797 4.14062-0.0195312L14.9512-10.1953L16.416-8.71094L6.42578 2.27539C6.07422 2.67578 5.74219 2.77344 5.27344 2.30469Z"/>
  </g>
  <text style="stroke:none;fill:black;font-family:-apple-system,&quot;SF Pro Display&quot;,&quot;SF Pro Text&quot;,Helvetica,sans-serif;font-weight:bold;" transform="matrix(1 0 0 1 1289 1953)">Exporting</text>
  <text style="stroke:none;fill:black;font-family:-apple-system,&quot;SF Pro Display&quot;,&quot;SF Pro Text&quot;,Helvetica,sans-serif;" transform="matrix(1 0 0 1 1289 1971)">Symbols should be outlined when exporting to ensure the</text>
  <text style="stroke:none;fill:black;font-family:-apple-system,&quot;SF Pro Display&quot;,&quot;SF Pro Text&quot;,Helvetica,sans-serif;" transform="matrix(1 0 0 1 1289 1989)">design is preserved when submitting to Xcode.</text>
  <text id="template-version" style="stroke:none;fill:black;font-family:-apple-system,&quot;SF Pro Display&quot;,&quot;SF Pro Text&quot;,Helvetica,sans-serif;text-anchor:end;" transform="matrix(1 0 0 1 3036 1933)">Template v.2.0</text>
  <text style="stroke:none;fill:black;font-family:-apple-system,&quot;SF Pro Display&quot;,&quot;SF Pro Text&quot;,Helvetica,sans-serif;text-anchor:end;" transform="matrix(1 0 0 1 3036 1951)">Requires Xcode 12 or greater</text>
  <text style="stroke:none;fill:black;font-family:-apple-system,&quot;SF Pro Display&quot;,&quot;SF Pro Text&quot;,Helvetica,sans-serif;" transform="matrix(1 0 0 1 263 726)">Small</text>
  <text style="stroke:none;fill:black;font-family:-apple-system,&quot;SF Pro Display&quot;,&quot;SF Pro Text&quot;,Helvetica,sans-serif;" transform="matrix(1 0 0 1 263 1156)">Medium</text>
  <text style="stroke:none;fill:black;font-family:-apple-system,&quot;SF Pro Display&quot;,&quot;SF Pro Text&quot;,Helvetica,sans-serif;" transform="matrix(1 0 0 1 263 1586)">Large</text>
 </g>
 <g id="Guides">
  <g id="H-reference" style="fill:#27AAE1;stroke:none;" transform="matrix(1 0 0 1 339 696)">
   <path d="M0.976562 0L3.66211 0L12.9883-24.4629L45.752-24.4629L55.127 0L57.7637 0L30.6152-70.459L28.125-70.459ZM29.3457-67.1387L29.4434-67.1387L44.873-26.709L13.8672-26.709Z"/>
  </g>
  <line id="Baseline-S" style="fill:none;stroke:#27AAE1;opacity:1;stroke-width:0.5;" x1="263" x2="3036" y1="696" y2="696"/>
  <line id="Capline-S" style="fill:none;stroke:#27AAE1;opacity:1;stroke-width:0.5;" x1="263" x2="3036" y1="625.541" y2="625.541"/>
  <g id="H-reference" style="fill:#27AAE1;stroke:none;" transform="matrix(1 0 0 1 339 1126)">
   <path d="M0.976562 0L3.66211 0L12.9883-24.4629L45.752-24.4629L55.127 0L57.7637 0L30.6152-70.459L28.125-70.459ZM29.3457-67.1387L29.4434-67.1387L44.873-26.709L13.8672-26.709Z"/>
  </g>
  <line id="Baseline-M" style="fill:none;stroke:#27AAE1;opacity:1;stroke-width:0.5;" x1="263" x2="3036" y1="1126" y2="1126"/>
  <line id="Capline-M" style="fill:none;stroke:#27AAE1;opacity:1;stroke-width:0.5;" x1="263" x2="3036" y1="1055.54" y2="1055.54"/>
  <g id="H-reference" style="fill:#27AAE1;stroke:none;" transform="matrix(1 0 0 1 339 1556)">
   <path d="M0.976562 0L3.66211 0L12.9883-24.4629L45.752-24.4629L55.127 0L57.7637 0L30.6152-70.459L28.125-70.459ZM29.3457-67.1387L29.4434-67.1387L44.873-26.709L13.8672-26.709Z"/>
  </g>
  <line id="Baseline-L" style="fill:none;stroke:#27AAE1;opacity:1;stroke-width:0.5;" x1="263" x2="3036" y1="1556" y2="1556"/>
  <line id="Capline-L" style="fill:none;stroke:#27AAE1;opacity:1;stroke-width:0.5;" x1="263" x2="3036" y1="1485.54" y2="1485.54"/>
  <line id="left-margin" x1="1395.1353290562913" x2="1395.1353290562913" y1="1030.79" y2="1150.12" style="fill:none;stroke:#00AEEF;stroke-width:0.5;opacity:1.0;"/>
  <line id="right-margin" x1="1507.1246709437085" x2="1507.1246709437085" y1="1030.79" y2="1150.12" style="fill:none;stroke:#00AEEF;stroke-width:0.5;opacity:1.0;"/>
 </g>
 <g id="Symbols">
  <g id="Black-L" transform="matrix(1.0,0.0,0.0,1.0,2862.446874482616,1434.8426973011951)">  <path stroke="none" stroke-linejoin="round" fill="#000000" stroke-miterlimit="4" stroke-dasharray="none" fill-rule="nonzero" stroke-opacity="1" fill-opacity="1" stroke-width="2px" stroke-linecap="round" d="M58.93,21.857L58.93,94.09C58.93,101.437,64.886,107.393,72.233,107.393C79.58,107.393,85.536,101.437,85.536,94.09L85.536,21.857C85.536,14.51,79.58,8.554,72.233,8.554C64.886,8.554,58.93,14.51,58.93,21.857ZM62.827,12.45L38.749,36.528C33.554,41.723,33.554,50.146,38.749,55.341C43.944,60.536,52.367,60.536,57.562,55.341L81.64,31.264C86.835,26.068,86.835,17.645,81.64,12.45C76.445,7.255,68.022,7.255,62.827,12.45ZM62.827,31.264L86.904,55.341C92.099,60.536,100.522,60.536,105.717,55.341C110.913,50.146,110.913,41.723,105.717,36.528L81.64,12.45C76.445,7.255,68.022,7.255,62.827,12.45C57.631,17.645,57.631,26.068,62.827,31.264ZM-0.867,109.354L2.871,124.313C4.241,129.796,7.405,134.663,11.859,138.141C16.313,141.619,21.801,143.509,27.452,143.51L117.012,143.51C122.665,143.509,128.154,141.619,132.608,138.141C137.061,134.663,140.224,129.796,141.595,124.315L145.333,109.354C147.115,102.227,142.78,95.004,135.653,93.223C128.525,91.442,121.303,95.776,119.521,102.904L115.783,117.862C115.852,117.588,116.01,117.345,116.232,117.172C116.454,116.998,116.728,116.904,117.009,116.904L27.455,116.904C27.739,116.904,28.012,116.998,28.234,117.172C28.457,117.345,28.614,117.588,28.683,117.862L24.945,102.904C23.164,95.776,15.941,91.442,8.814,93.223C1.686,95.004,-2.648,102.227,-0.867,109.354Z"/>
</g>
  <g id="Heavy-L" transform="matrix(1.0,0.0,0.0,1.0,2565.736874482616,1434.8426973011951)">  <path stroke-miterlimit="4" fill-opacity="1" stroke-dasharray="none" stroke-opacity="1" stroke-linejoin="round" stroke="none" fill="#000000" stroke-width="2px" stroke-linecap="round" fill-rule="nonzero" d="M60.387,21.857L60.387,94.09C60.387,100.633,65.691,105.936,72.233,105.936C78.776,105.936,84.079,100.633,84.079,94.09L84.079,21.857C84.079,15.314,78.776,10.011,72.233,10.011C65.691,10.011,60.387,15.314,60.387,21.857ZM63.857,13.48L39.779,37.558C35.153,42.184,35.153,49.685,39.779,54.311C44.405,58.937,51.906,58.937,56.532,54.311L80.61,30.234C85.236,25.607,85.236,18.107,80.61,13.48C75.983,8.854,68.483,8.854,63.857,13.48ZM63.857,30.234L87.934,54.311C92.561,58.937,100.061,58.937,104.687,54.311C109.314,49.685,109.314,42.184,104.687,37.558L80.61,13.48C75.983,8.854,68.483,8.854,63.857,13.48C59.23,18.107,59.23,25.607,63.857,30.234ZM0.546,109.001L4.284,123.959C5.576,129.127,8.558,133.715,12.756,136.993C16.953,140.271,22.126,142.052,27.452,142.053L117.012,142.053C122.34,142.052,127.513,140.271,131.711,136.993C135.909,133.715,138.89,129.128,140.182,123.961L143.92,109.001C145.506,102.654,141.647,96.223,135.299,94.636C128.952,93.05,122.521,96.91,120.935,103.257L117.197,118.215C117.186,118.257,117.162,118.294,117.128,118.32C117.095,118.346,117.053,118.361,117.009,118.361L27.455,118.361C27.414,118.361,27.372,118.346,27.338,118.32C27.304,118.293,27.28,118.256,27.27,118.215L23.532,103.257C21.945,96.91,15.514,93.05,9.167,94.636C2.82,96.223,-1.04,102.654,0.546,109.001Z"/>
</g>
  <g id="Bold-L" transform="matrix(1.0,0.0,0.0,1.0,2269.0268744826158,1434.8426973011951)">  <path stroke-linejoin="round" stroke-miterlimit="4" fill-opacity="1" fill="#000000" stroke="none" stroke-opacity="1" stroke-width="2px" stroke-dasharray="none" fill-rule="nonzero" stroke-linecap="round" d="M61.844,21.857L61.844,94.09C61.844,99.828,66.495,104.48,72.233,104.48C77.971,104.48,82.623,99.828,82.623,94.09L82.623,21.857C82.623,16.119,77.971,11.467,72.233,11.467C66.495,11.467,61.844,16.119,61.844,21.857ZM64.887,14.51L40.809,38.588C36.752,42.646,36.752,49.224,40.809,53.281C44.866,57.339,51.445,57.339,55.502,53.281L79.58,29.203C83.637,25.146,83.637,18.568,79.58,14.51C75.522,10.453,68.944,10.453,64.887,14.51ZM64.887,29.203L88.964,53.281C93.022,57.339,99.6,57.339,103.657,53.281C107.715,49.224,107.715,42.646,103.657,38.588L79.58,14.51C75.522,10.453,68.944,10.453,64.887,14.51C60.829,18.568,60.829,25.146,64.887,29.203ZM1.959,108.648L5.697,123.606C6.91,128.459,9.71,132.767,13.652,135.845C17.594,138.923,22.451,140.595,27.452,140.596L117.012,140.596C122.015,140.595,126.873,138.923,130.814,135.845C134.756,132.767,137.555,128.46,138.769,123.608L142.507,108.648C143.898,103.081,140.513,97.441,134.946,96.05C129.379,94.658,123.739,98.043,122.348,103.61L118.61,118.569C118.521,118.925,118.315,119.242,118.025,119.468C117.735,119.694,117.378,119.817,117.009,119.817L27.455,119.817C27.088,119.817,26.731,119.694,26.441,119.468C26.151,119.241,25.946,118.925,25.856,118.568L22.118,103.61C20.727,98.043,15.087,94.658,9.52,96.05C3.953,97.441,0.568,103.081,1.959,108.648Z"/>
</g>
  <g id="Semibold-L" transform="matrix(1.0,0.0,0.0,1.0,1972.3168744826157,1434.8426973011951)">  <path fill="#000000" stroke-linecap="round" stroke-miterlimit="4" stroke-width="2px" stroke-opacity="1" fill-opacity="1" stroke-dasharray="none" stroke-linejoin="round" fill-rule="nonzero" stroke="none" d="M63.3,21.857L63.3,94.09C63.3,99.024,67.3,103.023,72.233,103.023C77.167,103.023,81.166,99.024,81.166,94.09L81.166,21.857C81.166,16.923,77.167,12.924,72.233,12.924C67.3,12.924,63.3,16.923,63.3,21.857ZM65.917,15.54L41.839,39.618C38.35,43.107,38.35,48.763,41.839,52.251C45.327,55.74,50.983,55.74,54.472,52.251L78.55,28.173C82.038,24.685,82.038,19.029,78.55,15.54C75.061,12.052,69.405,12.052,65.917,15.54ZM65.917,28.173L89.994,52.251C93.483,55.74,99.139,55.74,102.627,52.251C106.116,48.763,106.116,43.107,102.627,39.618L78.55,15.54C75.061,12.052,69.405,12.052,65.917,15.54C62.428,19.029,62.428,24.685,65.917,28.173ZM3.373,108.295L7.111,123.253C8.245,127.791,10.863,131.818,14.549,134.697C18.234,137.575,22.776,139.139,27.453,139.14L117.012,139.14C121.69,139.139,126.232,137.575,129.918,134.697C133.603,131.819,136.221,127.791,137.355,123.254L141.094,108.295C142.29,103.509,139.379,98.659,134.593,97.463C129.807,96.267,124.957,99.177,123.761,103.963L120.023,118.922C119.855,119.593,119.467,120.19,118.922,120.616C118.376,121.042,117.703,121.274,117.01,121.274L27.455,121.274C26.763,121.274,26.09,121.042,25.545,120.616C24.999,120.19,24.611,119.593,24.443,118.921L20.705,103.963C19.509,99.177,14.659,96.267,9.873,97.463C5.087,98.659,2.176,103.509,3.373,108.295Z"/>
</g>
  <g id="Medium-L" transform="matrix(1.0,0.0,0.0,1.0,1675.6068744826157,1434.8426973011951)">  <path stroke="none" stroke-miterlimit="4" stroke-linejoin="round" stroke-linecap="round" stroke-width="2px" stroke-dasharray="none" fill-opacity="1" fill="#000000" stroke-opacity="1" fill-rule="nonzero" d="M64.757,21.857L64.757,94.09C64.757,98.219,68.104,101.566,72.233,101.566C76.362,101.566,79.709,98.219,79.709,94.09L79.709,21.857C79.709,17.728,76.362,14.381,72.233,14.381C68.104,14.381,64.757,17.728,64.757,21.857ZM66.947,16.571L42.869,40.648C39.949,43.568,39.949,48.301,42.869,51.221C45.789,54.141,50.522,54.141,53.442,51.221L77.52,27.143C80.439,24.224,80.439,19.49,77.52,16.571C74.6,13.651,69.866,13.651,66.947,16.571ZM66.947,27.143L91.024,51.221C93.944,54.141,98.678,54.141,101.597,51.221C104.517,48.301,104.517,43.568,101.597,40.648L77.52,16.571C74.6,13.651,69.866,13.651,66.947,16.571C64.027,19.49,64.027,24.224,66.947,27.143ZM4.786,107.942L8.524,122.9C9.579,127.122,12.015,130.87,15.445,133.549C18.875,136.227,23.101,137.682,27.453,137.683L117.012,137.683C121.365,137.682,125.592,136.227,129.021,133.549C132.451,130.87,134.886,127.123,135.942,122.901L139.68,107.942C140.682,103.936,138.246,99.877,134.24,98.876C130.234,97.875,126.175,100.311,125.174,104.317L121.436,119.275C121.189,120.262,120.62,121.138,119.818,121.764C119.017,122.39,118.028,122.73,117.01,122.731L27.455,122.731C26.438,122.73,25.45,122.39,24.648,121.764C23.846,121.138,23.277,120.262,23.03,119.275L19.292,104.317C18.291,100.311,14.232,97.875,10.226,98.876C6.221,99.877,3.785,103.936,4.786,107.942Z"/>
</g>
  <g id="Regular-L" transform="matrix(1.0,0.0,0.0,1.0,1378.8968744826157,1434.8426973011951)">  <path stroke-dasharray="none" stroke="none" fill-opacity="1" stroke-opacity="1" fill-rule="nonzero" stroke-miterlimit="4" stroke-width="2px" stroke-linejoin="round" fill="#000000" stroke-linecap="round" d="M66.214,21.857L66.214,94.09C66.214,97.415,68.909,100.11,72.233,100.11C75.558,100.11,78.253,97.415,78.253,94.09L78.253,21.857C78.253,18.533,75.558,15.838,72.233,15.838C68.909,15.838,66.214,18.533,66.214,21.857ZM67.977,17.601L43.899,41.678C41.548,44.029,41.548,47.84,43.899,50.191C46.25,52.542,50.061,52.542,52.412,50.191L76.49,26.113C78.84,23.763,78.84,19.951,76.49,17.601C74.139,15.25,70.327,15.25,67.977,17.601ZM67.977,26.113L92.054,50.191C94.405,52.542,98.216,52.542,100.567,50.191C102.918,47.84,102.918,44.029,100.567,41.678L76.49,17.601C74.139,15.25,70.327,15.25,67.977,17.601C65.626,19.951,65.626,23.763,67.977,26.113ZM6.199,107.588L9.937,122.547C10.914,126.454,13.168,129.922,16.342,132.401C19.515,134.879,23.426,136.225,27.453,136.226L117.012,136.226C121.04,136.225,124.951,134.879,128.125,132.401C131.298,129.922,133.552,126.454,134.529,122.548L138.267,107.588C139.073,104.363,137.112,101.095,133.887,100.289C130.662,99.483,127.394,101.444,126.588,104.67L122.849,119.628C122.524,120.93,121.773,122.086,120.715,122.912C119.657,123.738,118.353,124.187,117.01,124.187L27.455,124.187C26.113,124.187,24.809,123.738,23.752,122.912C22.694,122.086,21.942,120.93,21.617,119.628L17.879,104.67C17.073,101.444,13.805,99.483,10.579,100.289C7.354,101.095,5.393,104.363,6.199,107.588Z"/>
</g>
  <g id="Light-L" transform="matrix(1.0,0.0,0.0,1.0,1082.186874482616,1434.8426973011951)">  <path stroke-miterlimit="4" stroke="none" stroke-opacity="1" fill-rule="nonzero" stroke-linecap="round" fill="#000000" stroke-linejoin="round" fill-opacity="1" stroke-dasharray="none" stroke-width="2px" d="M67.217,21.857L67.217,94.09C67.217,96.861,69.463,99.106,72.233,99.106C75.003,99.106,77.249,96.861,77.249,94.09L77.249,21.857C77.249,19.087,75.003,16.841,72.233,16.841C69.463,16.841,67.217,19.087,67.217,21.857ZM68.686,18.31L44.608,42.388C42.649,44.347,42.649,47.523,44.608,49.482C46.567,51.441,49.743,51.441,51.702,49.482L75.78,25.404C77.739,23.445,77.739,20.269,75.78,18.31C73.821,16.351,70.645,16.351,68.686,18.31ZM68.686,25.404L92.764,49.482C94.723,51.441,97.899,51.441,99.858,49.482C101.817,47.523,101.817,44.347,99.858,42.388L75.78,18.31C73.821,16.351,70.645,16.351,68.686,18.31C66.727,20.269,66.727,23.445,68.686,25.404ZM7.172,107.345L10.91,122.304C11.833,125.994,13.962,129.269,16.959,131.61C19.957,133.951,23.65,135.222,27.453,135.223L117.012,135.223C120.816,135.222,124.51,133.951,127.507,131.61C130.504,129.269,132.633,125.994,133.556,122.304L137.294,107.345C137.966,104.658,136.331,101.934,133.644,101.263C130.956,100.591,128.233,102.225,127.561,104.913L123.823,119.871C123.443,121.391,122.566,122.739,121.332,123.703C120.098,124.667,118.577,125.19,117.011,125.191L27.455,125.191C25.889,125.19,24.368,124.667,23.134,123.703C21.9,122.739,21.023,121.39,20.643,119.871L16.905,104.913C16.234,102.225,13.51,100.591,10.823,101.263C8.135,101.934,6.501,104.658,7.172,107.345Z"/>
</g>
  <g id="Thin-L" transform="matrix(1.0,0.0,0.0,1.0,785.4768744826159,1434.8426973011951)">  <path fill="#000000" stroke-linecap="round" stroke-width="2px" stroke-linejoin="round" fill-opacity="1" stroke-miterlimit="4" stroke-dasharray="none" stroke="none" fill-rule="nonzero" stroke-opacity="1" d="M68.22,21.857L68.22,94.09C68.22,96.307,70.017,98.103,72.233,98.103C74.449,98.103,76.246,96.307,76.246,94.09L76.246,21.857C76.246,19.641,74.449,17.844,72.233,17.844C70.017,17.844,68.22,19.641,68.22,21.857ZM69.396,19.019L45.318,43.097C43.751,44.664,43.751,47.205,45.318,48.772C46.885,50.339,49.426,50.339,50.993,48.772L75.071,24.695C76.638,23.127,76.638,20.587,75.071,19.019C73.504,17.452,70.963,17.452,69.396,19.019ZM69.396,24.695L93.473,48.772C95.04,50.339,97.581,50.339,99.148,48.772C100.716,47.205,100.716,44.664,99.148,43.097L75.071,19.019C73.504,17.452,70.963,17.452,69.396,19.019C67.828,20.587,67.828,23.127,69.396,24.695ZM8.146,107.102L11.884,122.06C12.752,125.533,14.756,128.616,17.577,130.819C20.398,133.022,23.874,134.219,27.454,134.22L117.012,134.22C120.592,134.219,124.069,133.022,126.89,130.819C129.711,128.616,131.714,125.534,132.582,122.061L136.321,107.102C136.858,104.952,135.55,102.773,133.4,102.236C131.25,101.699,129.071,103.006,128.534,105.156L124.796,120.114C124.362,121.851,123.36,123.392,121.95,124.494C120.539,125.595,118.801,126.193,117.011,126.194L27.455,126.194C25.665,126.193,23.927,125.595,22.517,124.494C21.106,123.392,20.104,121.851,19.67,120.114L15.932,105.156C15.395,103.006,13.216,101.699,11.066,102.236C8.916,102.773,7.608,104.952,8.146,107.102Z"/>
</g>
  <g id="Ultralight-L" transform="matrix(1.0,0.0,0.0,1.0,488.7668744826159,1434.8426973011951)">  <path fill-rule="nonzero" stroke-miterlimit="4" stroke-linecap="round" stroke-width="2px" stroke-opacity="1" stroke-dasharray="none" stroke-linejoin="round" fill="#000000" fill-opacity="1" stroke="none" d="M69.223,21.857L69.223,94.09C69.223,95.752,70.571,97.1,72.233,97.1C73.895,97.1,75.243,95.752,75.243,94.09L75.243,21.857C75.243,20.195,73.895,18.847,72.233,18.847C70.571,18.847,69.223,20.195,69.223,21.857ZM70.105,19.729L46.027,43.806C44.852,44.982,44.852,46.887,46.027,48.063C47.203,49.238,49.108,49.238,50.284,48.063L74.361,23.985C75.537,22.81,75.537,20.904,74.361,19.729C73.186,18.553,71.28,18.553,70.105,19.729ZM70.105,23.985L94.183,48.063C95.358,49.238,97.264,49.238,98.439,48.063C99.614,46.887,99.614,44.982,98.439,43.806L74.361,19.729C73.186,18.553,71.28,18.553,70.105,19.729C68.93,20.904,68.93,22.81,70.105,23.985ZM9.119,106.859L12.857,121.817C13.671,125.073,15.549,127.963,18.194,130.029C20.839,132.094,24.098,133.216,27.454,133.217L117.012,133.217C120.368,133.216,123.628,132.094,126.272,130.028C128.917,127.963,130.795,125.073,131.609,121.818L135.347,106.859C135.75,105.246,134.77,103.612,133.157,103.209C131.544,102.806,129.91,103.787,129.507,105.399L125.769,120.358C125.281,122.311,124.154,124.045,122.567,125.284C120.981,126.523,119.025,127.197,117.011,127.197L27.455,127.197C25.441,127.197,23.486,126.523,21.899,125.284C20.312,124.045,19.185,122.311,18.697,120.358L14.959,105.399C14.556,103.787,12.922,102.806,11.309,103.209C9.697,103.612,8.716,105.246,9.119,106.859Z"/>
</g>
  <g id="Black-M" transform="matrix(1.0,0.0,0.0,1.0,2878.6853290562913,1024.15969222113)">  <path stroke="none" stroke-linejoin="round" fill="#000000" stroke-miterlimit="4" stroke-dasharray="none" fill-rule="nonzero" stroke-opacity="1" fill-opacity="1" stroke-width="2px" stroke-linecap="round" d="M45.682,16.943L45.682,72.938C45.682,78.634,50.299,83.251,55.995,83.251C61.69,83.251,66.307,78.634,66.307,72.938L66.307,16.943C66.307,11.248,61.69,6.631,55.995,6.631C50.299,6.631,45.682,11.248,45.682,16.943ZM48.703,9.651L30.038,28.316C26.011,32.344,26.011,38.873,30.038,42.9C34.065,46.927,40.594,46.927,44.622,42.9L63.287,24.235C67.314,20.208,67.314,13.679,63.287,9.651C59.259,5.624,52.73,5.624,48.703,9.651ZM48.703,24.235L67.368,42.9C71.395,46.927,77.924,46.927,81.951,42.9C85.979,38.873,85.979,32.344,81.951,28.316L63.287,9.651C59.259,5.624,52.73,5.624,48.703,9.651C44.676,13.679,44.676,20.208,48.703,24.235ZM-0.672,84.771L2.225,96.366C3.288,100.617,5.74,104.39,9.193,107.086C12.645,109.782,16.9,111.247,21.28,111.248L90.707,111.248C95.089,111.247,99.344,109.782,102.797,107.086C106.249,104.39,108.701,100.617,109.763,96.368L112.662,84.771C114.042,79.245,110.682,73.647,105.157,72.266C99.632,70.885,94.033,74.245,92.652,79.77L89.754,91.366C89.808,91.154,89.93,90.965,90.102,90.831C90.275,90.696,90.487,90.623,90.704,90.623L21.283,90.623C21.503,90.623,21.715,90.696,21.887,90.831C22.059,90.965,22.182,91.154,22.235,91.366L19.337,79.77C17.956,74.245,12.358,70.885,6.832,72.266C1.307,73.647,-2.053,79.245,-0.672,84.771Z"/>
</g>
  <g id="Heavy-M" transform="matrix(1.0,0.0,0.0,1.0,2581.9753290562912,1024.15969222113)">  <path stroke-miterlimit="4" fill-opacity="1" stroke-dasharray="none" stroke-opacity="1" stroke-linejoin="round" stroke="none" fill="#000000" stroke-width="2px" stroke-linecap="round" fill-rule="nonzero" d="M46.812,16.943L46.812,72.938C46.812,78.01,50.923,82.121,55.995,82.121C61.066,82.121,65.178,78.01,65.178,72.938L65.178,16.943C65.178,11.872,61.066,7.76,55.995,7.76C50.923,7.76,46.812,11.872,46.812,16.943ZM49.501,10.45L30.836,29.115C27.25,32.701,27.25,38.515,30.836,42.102C34.423,45.688,40.237,45.688,43.823,42.102L62.488,23.437C66.074,19.851,66.074,14.036,62.488,10.45C58.902,6.864,53.087,6.864,49.501,10.45ZM49.501,23.437L68.166,42.102C71.752,45.688,77.567,45.688,81.153,42.102C84.739,38.515,84.739,32.701,81.153,29.115L62.488,10.45C58.902,6.864,53.087,6.864,49.501,10.45C45.915,14.036,45.915,19.851,49.501,23.437ZM0.423,84.497L3.321,96.093C4.322,100.099,6.634,103.655,9.888,106.196C13.142,108.737,17.152,110.118,21.281,110.119L90.707,110.119C94.837,110.118,98.848,108.737,102.102,106.196C105.355,103.655,107.666,100.099,108.668,96.094L111.566,84.497C112.796,79.577,109.804,74.591,104.883,73.361C99.963,72.132,94.977,75.124,93.748,80.044L90.85,91.64C90.842,91.672,90.823,91.7,90.797,91.721C90.771,91.741,90.739,91.752,90.705,91.752L21.283,91.752C21.251,91.752,21.218,91.741,21.192,91.721C21.166,91.7,21.147,91.672,21.139,91.639L18.242,80.044C17.012,75.124,12.026,72.132,7.106,73.361C2.186,74.591,-0.806,79.577,0.423,84.497Z"/>
</g>
  <g id="Bold-M" transform="matrix(1.0,0.0,0.0,1.0,2285.265329056291,1024.15969222113)">  <path stroke-linejoin="round" stroke-miterlimit="4" fill-opacity="1" fill="#000000" stroke="none" stroke-opacity="1" stroke-width="2px" stroke-dasharray="none" fill-rule="nonzero" stroke-linecap="round" d="M47.941,16.943L47.941,72.938C47.941,77.386,51.547,80.992,55.995,80.992C60.443,80.992,64.049,77.386,64.049,72.938L64.049,16.943C64.049,12.495,60.443,8.889,55.995,8.889C51.547,8.889,47.941,12.495,47.941,16.943ZM50.3,11.248L31.635,29.913C28.49,33.059,28.49,38.158,31.635,41.303C34.78,44.448,39.88,44.448,43.025,41.303L61.69,22.638C64.835,19.493,64.835,14.394,61.69,11.248C58.544,8.103,53.445,8.103,50.3,11.248ZM50.3,22.638L68.965,41.303C72.11,44.448,77.209,44.448,80.355,41.303C83.5,38.158,83.5,33.059,80.355,29.913L61.69,11.248C58.544,8.103,53.445,8.103,50.3,11.248C47.154,14.394,47.154,19.493,50.3,22.638ZM1.519,84.223L4.417,95.819C5.357,99.581,7.527,102.92,10.583,105.306C13.639,107.692,17.404,108.989,21.281,108.989L90.707,108.989C94.585,108.989,98.351,107.692,101.407,105.306C104.462,102.92,106.632,99.581,107.572,95.82L110.471,84.223C111.549,79.908,108.925,75.535,104.61,74.457C100.294,73.379,95.922,76.003,94.843,80.318L91.946,91.914C91.876,92.19,91.717,92.435,91.492,92.611C91.268,92.786,90.991,92.882,90.705,92.882L21.283,92.882C20.999,92.882,20.722,92.786,20.497,92.611C20.272,92.435,20.113,92.19,20.044,91.913L17.146,80.318C16.068,76.003,11.695,73.379,7.38,74.457C3.064,75.535,0.44,79.908,1.519,84.223Z"/>
</g>
  <g id="Semibold-M" transform="matrix(1.0,0.0,0.0,1.0,1988.5553290562914,1024.15969222113)">  <path fill="#000000" stroke-linecap="round" stroke-miterlimit="4" stroke-width="2px" stroke-opacity="1" fill-opacity="1" stroke-dasharray="none" stroke-linejoin="round" fill-rule="nonzero" stroke="none" d="M49.07,16.943L49.07,72.938C49.07,76.763,52.17,79.863,55.995,79.863C59.819,79.863,62.919,76.763,62.919,72.938L62.919,16.943C62.919,13.119,59.819,10.019,55.995,10.019C52.17,10.019,49.07,13.119,49.07,16.943ZM51.098,12.047L32.433,30.712C29.729,33.416,29.729,37.801,32.433,40.505C35.138,43.209,39.522,43.209,42.226,40.505L60.891,21.84C63.595,19.136,63.595,14.751,60.891,12.047C58.187,9.343,53.802,9.343,51.098,12.047ZM51.098,21.84L69.763,40.505C72.467,43.209,76.852,43.209,79.556,40.505C82.26,37.801,82.26,33.416,79.556,30.712L60.891,12.047C58.187,9.343,53.802,9.343,51.098,12.047C48.394,14.751,48.394,19.136,51.098,21.84ZM2.614,83.949L5.512,95.545C6.391,99.063,8.421,102.185,11.278,104.416C14.135,106.647,17.656,107.859,21.281,107.86L90.707,107.86C94.333,107.859,97.854,106.647,100.711,104.416C103.569,102.185,105.598,99.063,106.477,95.546L109.375,83.949C110.302,80.239,108.046,76.48,104.336,75.553C100.625,74.625,96.866,76.881,95.939,80.592L93.041,92.187C92.911,92.708,92.61,93.17,92.187,93.501C91.764,93.831,91.243,94.011,90.705,94.011L21.283,94.011C20.747,94.011,20.225,93.831,19.802,93.501C19.379,93.17,19.078,92.708,18.948,92.187L16.051,80.592C15.123,76.881,11.364,74.625,7.654,75.553C3.943,76.48,1.687,80.239,2.614,83.949Z"/>
</g>
  <g id="Medium-M" transform="matrix(1.0,0.0,0.0,1.0,1691.8453290562913,1024.15969222113)">  <path stroke="none" stroke-miterlimit="4" stroke-linejoin="round" stroke-linecap="round" stroke-width="2px" stroke-dasharray="none" fill-opacity="1" fill="#000000" stroke-opacity="1" fill-rule="nonzero" d="M50.199,16.943L50.199,72.938C50.199,76.139,52.794,78.734,55.995,78.734C59.195,78.734,61.79,76.139,61.79,72.938L61.79,16.943C61.79,13.743,59.195,11.148,55.995,11.148C52.794,11.148,50.199,13.743,50.199,16.943ZM51.897,12.845L33.232,31.51C30.969,33.774,30.969,37.443,33.232,39.706C35.495,41.97,39.165,41.97,41.428,39.706L60.093,21.041C62.356,18.778,62.356,15.109,60.093,12.845C57.829,10.582,54.16,10.582,51.897,12.845ZM51.897,21.041L70.562,39.706C72.825,41.97,76.494,41.97,78.758,39.706C81.021,37.443,81.021,33.774,78.758,31.51L60.093,12.845C57.829,10.582,54.16,10.582,51.897,12.845C49.633,15.109,49.633,18.778,51.897,21.041ZM3.71,83.676L6.608,95.271C7.426,98.544,9.314,101.45,11.973,103.526C14.632,105.602,17.908,106.73,21.281,106.731L90.707,106.731C94.081,106.73,97.358,105.602,100.016,103.526C102.675,101.45,104.563,98.545,105.382,95.272L108.279,83.676C109.055,80.57,107.167,77.424,104.062,76.648C100.957,75.872,97.81,77.76,97.034,80.866L94.137,92.461C93.945,93.226,93.504,93.905,92.882,94.391C92.261,94.876,91.495,95.14,90.705,95.14L21.283,95.14C20.495,95.14,19.729,94.876,19.107,94.391C18.485,93.905,18.044,93.226,17.853,92.461L14.955,80.866C14.179,77.76,11.033,75.872,7.927,76.648C4.822,77.424,2.934,80.57,3.71,83.676Z"/>
</g>
  <g id="Regular-M" transform="matrix(1.0,0.0,0.0,1.0,1395.1353290562913,1024.15969222113)">  <path stroke-dasharray="none" stroke="none" fill-opacity="1" stroke-opacity="1" fill-rule="nonzero" stroke-miterlimit="4" stroke-width="2px" stroke-linejoin="round" fill="#000000" stroke-linecap="round" d="M51.328,16.943L51.328,72.938C51.328,75.515,53.418,77.604,55.995,77.604C58.572,77.604,60.661,75.515,60.661,72.938L60.661,16.943C60.661,14.366,58.572,12.277,55.995,12.277C53.418,12.277,51.328,14.366,51.328,16.943ZM52.695,13.644L34.03,32.309C32.208,34.131,32.208,37.086,34.03,38.908C35.853,40.73,38.807,40.73,40.629,38.908L59.294,20.243C61.116,18.421,61.116,15.466,59.294,13.644C57.472,11.822,54.517,11.822,52.695,13.644ZM52.695,20.243L71.36,38.908C73.182,40.73,76.137,40.73,77.959,38.908C79.781,37.086,79.781,34.131,77.959,32.309L59.294,13.644C57.472,11.822,54.517,11.822,52.695,13.644C50.873,15.466,50.873,18.421,52.695,20.243ZM4.805,83.402L7.703,94.997C8.46,98.026,10.208,100.715,12.668,102.636C15.128,104.557,18.16,105.601,21.282,105.602L90.707,105.602C93.829,105.601,96.861,104.557,99.321,102.636C101.782,100.715,103.529,98.027,104.286,94.998L107.184,83.402C107.809,80.902,106.288,78.368,103.788,77.744C101.288,77.119,98.755,78.639,98.13,81.139L95.232,92.735C94.98,93.744,94.397,94.64,93.577,95.281C92.757,95.921,91.747,96.269,90.706,96.269L21.283,96.269C20.243,96.269,19.232,95.921,18.412,95.281C17.592,94.64,17.009,93.744,16.757,92.735L13.859,81.139C13.235,78.639,10.701,77.119,8.201,77.744C5.701,78.368,4.181,80.902,4.805,83.402Z"/>
</g>
  <g id="Light-M" transform="matrix(1.0,0.0,0.0,1.0,1098.4253290562915,1024.15969222113)">  <path stroke-miterlimit="4" stroke="none" stroke-opacity="1" fill-rule="nonzero" stroke-linecap="round" fill="#000000" stroke-linejoin="round" fill-opacity="1" stroke-dasharray="none" stroke-width="2px" d="M52.106,16.943L52.106,72.938C52.106,75.086,53.847,76.827,55.995,76.827C58.142,76.827,59.883,75.086,59.883,72.938L59.883,16.943C59.883,14.796,58.142,13.055,55.995,13.055C53.847,13.055,52.106,14.796,52.106,16.943ZM53.245,14.194L34.58,32.859C33.062,34.377,33.062,36.839,34.58,38.358C36.099,39.876,38.561,39.876,40.079,38.358L58.744,19.693C60.263,18.174,60.263,15.712,58.744,14.194C57.226,12.675,54.764,12.675,53.245,14.194ZM53.245,19.693L71.91,38.358C73.429,39.876,75.891,39.876,77.409,38.358C78.928,36.839,78.928,34.377,77.409,32.859L58.744,14.194C57.226,12.675,54.764,12.675,53.245,14.194C51.727,15.712,51.727,18.174,53.245,19.693ZM5.56,83.213L8.458,94.809C9.173,97.669,10.823,100.209,13.147,102.023C15.47,103.838,18.334,104.823,21.282,104.824L90.707,104.824C93.656,104.823,96.519,103.838,98.843,102.023C101.166,100.209,102.816,97.67,103.532,94.81L106.429,83.213C106.95,81.13,105.683,79.019,103.6,78.498C101.516,77.977,99.405,79.244,98.884,81.328L95.987,92.923C95.692,94.101,95.013,95.147,94.056,95.894C93.099,96.641,91.92,97.047,90.706,97.047L21.283,97.047C20.069,97.047,18.89,96.641,17.933,95.894C16.977,95.147,16.297,94.101,16.003,92.923L13.105,81.328C12.584,79.244,10.473,77.977,8.39,78.498C6.306,79.019,5.039,81.13,5.56,83.213Z"/>
</g>
  <g id="Thin-M" transform="matrix(1.0,0.0,0.0,1.0,801.7153290562915,1024.15969222113)">  <path fill="#000000" stroke-linecap="round" stroke-width="2px" stroke-linejoin="round" fill-opacity="1" stroke-miterlimit="4" stroke-dasharray="none" stroke="none" fill-rule="nonzero" stroke-opacity="1" d="M52.884,16.943L52.884,72.938C52.884,74.656,54.277,76.049,55.995,76.049C57.713,76.049,59.105,74.656,59.105,72.938L59.105,16.943C59.105,15.225,57.713,13.833,55.995,13.833C54.277,13.833,52.884,15.225,52.884,16.943ZM53.795,14.744L35.13,33.409C33.915,34.623,33.915,36.593,35.13,37.808C36.345,39.023,38.315,39.023,39.529,37.808L58.194,19.143C59.409,17.928,59.409,15.959,58.194,14.744C56.98,13.529,55.01,13.529,53.795,14.744ZM53.795,19.143L72.46,37.808C73.675,39.023,75.644,39.023,76.859,37.808C78.074,36.593,78.074,34.623,76.859,33.409L58.194,14.744C56.98,13.529,55.01,13.529,53.795,14.744C52.58,15.959,52.58,17.928,53.795,19.143ZM6.314,83.025L9.212,94.62C9.885,97.313,11.438,99.702,13.625,101.41C15.812,103.118,18.507,104.046,21.282,104.046L90.707,104.046C93.482,104.046,96.177,103.118,98.364,101.41C100.551,99.703,102.104,97.313,102.777,94.621L105.675,83.025C106.091,81.358,105.078,79.669,103.411,79.253C101.744,78.836,100.055,79.85,99.639,81.516L96.741,93.112C96.405,94.458,95.628,95.653,94.535,96.507C93.441,97.36,92.094,97.824,90.706,97.825L21.283,97.825C19.896,97.824,18.548,97.36,17.455,96.507C16.361,95.653,15.585,94.458,15.248,93.112L12.35,81.516C11.934,79.85,10.245,78.836,8.578,79.253C6.911,79.669,5.898,81.358,6.314,83.025Z"/>
</g>
  <g id="Ultralight-M" transform="matrix(1.0,0.0,0.0,1.0,505.0053290562914,1024.15969222113)">  <path fill-rule="nonzero" stroke-miterlimit="4" stroke-linecap="round" stroke-width="2px" stroke-opacity="1" stroke-dasharray="none" stroke-linejoin="round" fill="#000000" fill-opacity="1" stroke="none" d="M53.662,16.943L53.662,72.938C53.662,74.227,54.706,75.271,55.995,75.271C57.283,75.271,58.328,74.227,58.328,72.938L58.328,16.943C58.328,15.655,57.283,14.61,55.995,14.61C54.706,14.61,53.662,15.655,53.662,16.943ZM54.345,15.294L35.68,33.959C34.769,34.87,34.769,36.347,35.68,37.258C36.591,38.169,38.068,38.169,38.98,37.258L57.644,18.593C58.556,17.682,58.556,16.205,57.644,15.294C56.733,14.382,55.256,14.382,54.345,15.294ZM54.345,18.593L73.01,37.258C73.921,38.169,75.398,38.169,76.309,37.258C77.22,36.347,77.22,34.87,76.309,33.959L57.644,15.294C56.733,14.382,55.256,14.382,54.345,15.294C53.434,16.205,53.434,17.682,54.345,18.593ZM7.069,82.836L9.967,94.432C10.597,96.956,12.054,99.196,14.104,100.797C16.154,102.398,18.681,103.268,21.282,103.269L90.707,103.269C93.309,103.268,95.835,102.398,97.885,100.797C99.935,99.196,101.391,96.956,102.023,94.432L104.92,82.836C105.233,81.586,104.473,80.32,103.223,80.007C101.972,79.695,100.706,80.455,100.393,81.705L97.496,93.301C97.117,94.815,96.243,96.159,95.013,97.12C93.783,98.08,92.267,98.602,90.706,98.602L21.283,98.602C19.722,98.602,18.206,98.08,16.976,97.12C15.746,96.159,14.872,94.815,14.494,93.3L11.596,81.705C11.284,80.455,10.017,79.695,8.767,80.007C7.517,80.32,6.757,81.586,7.069,82.836Z"/>
</g>
  <g id="Black-S" transform="matrix(1.0,0.0,0.0,1.0,2890.836172651076,608.614133247426)">  <path stroke="none" stroke-linejoin="round" fill="#000000" stroke-miterlimit="4" stroke-dasharray="none" fill-rule="nonzero" stroke-opacity="1" fill-opacity="1" stroke-width="2px" stroke-linecap="round" d="M35.769,13.267L35.769,57.111C35.769,61.57,39.384,65.185,43.844,65.185C48.303,65.185,51.918,61.57,51.918,57.111L51.918,13.267C51.918,8.807,48.303,5.192,43.844,5.192C39.384,5.192,35.769,8.807,35.769,13.267ZM38.134,7.557L23.52,22.172C20.366,25.325,20.366,30.438,23.52,33.591C26.673,36.744,31.785,36.744,34.939,33.591L49.553,18.976C52.707,15.823,52.707,10.71,49.553,7.557C46.4,4.404,41.288,4.404,38.134,7.557ZM38.134,18.976L52.749,33.591C55.902,36.744,61.015,36.744,64.168,33.591C67.321,30.438,67.321,25.325,64.168,22.172L49.553,7.557C46.4,4.404,41.288,4.404,38.134,7.557C34.981,10.71,34.981,15.823,38.134,18.976ZM-0.526,66.376L1.743,75.455C2.574,78.783,4.495,81.737,7.198,83.848C9.901,85.959,13.233,87.106,16.663,87.107L71.023,87.107C74.455,87.106,77.786,85.959,80.49,83.848C83.193,81.737,85.113,78.783,85.945,75.456L88.214,66.376C89.295,62.049,86.664,57.665,82.338,56.584C78.012,55.503,73.628,58.134,72.547,62.46L70.278,71.54C70.319,71.373,70.415,71.226,70.55,71.121C70.685,71.015,70.851,70.958,71.022,70.958L16.664,70.958C16.837,70.958,17.003,71.015,17.138,71.12C17.272,71.226,17.368,71.373,17.41,71.539L15.141,62.46C14.06,58.134,9.676,55.503,5.35,56.584C1.023,57.665,-1.608,62.049,-0.526,66.376Z"/>
</g>
  <g id="Heavy-S" transform="matrix(1.0,0.0,0.0,1.0,2594.126172651076,608.614133247426)">  <path stroke-miterlimit="4" fill-opacity="1" stroke-dasharray="none" stroke-opacity="1" stroke-linejoin="round" stroke="none" fill="#000000" stroke-width="2px" stroke-linecap="round" fill-rule="nonzero" d="M36.653,13.267L36.653,57.111C36.653,61.082,39.873,64.301,43.844,64.301C47.815,64.301,51.034,61.082,51.034,57.111L51.034,13.267C51.034,9.296,47.815,6.076,43.844,6.076C39.873,6.076,36.653,9.296,36.653,13.267ZM38.759,8.182L24.145,22.797C21.337,25.605,21.337,30.158,24.145,32.966C26.953,35.774,31.506,35.774,34.314,32.966L48.928,18.351C51.736,15.543,51.736,10.99,48.928,8.182C46.12,5.374,41.567,5.374,38.759,8.182ZM38.759,18.351L53.374,32.966C56.182,35.774,60.735,35.774,63.543,32.966C66.351,30.158,66.351,25.605,63.543,22.797L48.928,8.182C46.12,5.374,41.567,5.374,38.759,8.182C35.951,10.99,35.951,15.543,38.759,18.351ZM0.331,66.161L2.6,75.241C3.384,78.377,5.194,81.162,7.742,83.152C10.29,85.141,13.43,86.222,16.663,86.223L71.023,86.223C74.258,86.222,77.398,85.141,79.946,83.152C82.493,81.162,84.303,78.378,85.087,75.242L87.356,66.161C88.319,62.309,85.976,58.405,82.124,57.442C78.271,56.479,74.367,58.822,73.404,62.675L71.136,71.754C71.129,71.779,71.115,71.801,71.094,71.817C71.074,71.833,71.048,71.842,71.022,71.842L16.664,71.842C16.639,71.842,16.614,71.833,16.593,71.817C16.573,71.801,16.558,71.779,16.552,71.754L14.283,62.675C13.32,58.822,9.417,56.479,5.564,57.442C1.711,58.405,-0.631,62.309,0.331,66.161Z"/>
</g>
  <g id="Bold-S" transform="matrix(1.0,0.0,0.0,1.0,2297.416172651076,608.614133247426)">  <path stroke-linejoin="round" stroke-miterlimit="4" fill-opacity="1" fill="#000000" stroke="none" stroke-opacity="1" stroke-width="2px" stroke-dasharray="none" fill-rule="nonzero" stroke-linecap="round" d="M37.538,13.267L37.538,57.111C37.538,60.593,40.361,63.417,43.844,63.417C47.327,63.417,50.15,60.593,50.15,57.111L50.15,13.267C50.15,9.784,47.327,6.96,43.844,6.96C40.361,6.96,37.538,9.784,37.538,13.267ZM39.385,8.808L24.77,23.422C22.307,25.885,22.307,29.878,24.77,32.34C27.233,34.803,31.226,34.803,33.688,32.34L48.303,17.726C50.766,15.263,50.766,11.27,48.303,8.808C45.84,6.345,41.847,6.345,39.385,8.808ZM39.385,17.726L53.999,32.34C56.462,34.803,60.455,34.803,62.918,32.34C65.38,29.878,65.38,25.885,62.918,23.422L48.303,8.808C45.84,6.345,41.847,6.345,39.385,8.808C36.922,11.27,36.922,15.263,39.385,17.726ZM1.189,65.947L3.458,75.026C4.194,77.972,5.894,80.586,8.287,82.455C10.679,84.323,13.627,85.338,16.663,85.339L71.023,85.339C74.06,85.338,77.009,84.323,79.401,82.455C81.794,80.586,83.493,77.972,84.229,75.027L86.498,65.947C87.343,62.568,85.288,59.144,81.909,58.3C78.53,57.455,75.107,59.51,74.262,62.889L71.993,71.968C71.939,72.185,71.814,72.377,71.638,72.514C71.463,72.652,71.246,72.726,71.022,72.726L16.664,72.726C16.442,72.726,16.225,72.652,16.049,72.514C15.873,72.377,15.748,72.185,15.694,71.968L13.425,62.889C12.581,59.51,9.157,57.455,5.778,58.3C2.399,59.144,0.345,62.568,1.189,65.947Z"/>
</g>
  <g id="Semibold-S" transform="matrix(1.0,0.0,0.0,1.0,2000.706172651076,608.614133247426)">  <path fill="#000000" stroke-linecap="round" stroke-miterlimit="4" stroke-width="2px" stroke-opacity="1" fill-opacity="1" stroke-dasharray="none" stroke-linejoin="round" fill-rule="nonzero" stroke="none" d="M38.422,13.267L38.422,57.111C38.422,60.105,40.849,62.533,43.844,62.533C46.838,62.533,49.266,60.105,49.266,57.111L49.266,13.267C49.266,10.272,46.838,7.845,43.844,7.845C40.849,7.845,38.422,10.272,38.422,13.267ZM40.01,9.433L25.395,24.047C23.278,26.165,23.278,29.598,25.395,31.715C27.513,33.833,30.946,33.833,33.063,31.715L47.678,17.101C49.795,14.983,49.795,11.55,47.678,9.433C45.56,7.315,42.127,7.315,40.01,9.433ZM40.01,17.101L54.624,31.715C56.742,33.833,60.175,33.833,62.292,31.715C64.41,29.598,64.41,26.165,62.292,24.047L47.678,9.433C45.56,7.315,42.127,7.315,40.01,9.433C37.892,11.55,37.892,14.983,40.01,17.101ZM2.047,65.732L4.316,74.812C5.004,77.566,6.593,80.011,8.831,81.758C11.068,83.505,13.825,84.454,16.663,84.455L71.023,84.455C73.863,84.454,76.62,83.505,78.857,81.758C81.094,80.011,82.683,77.566,83.371,74.813L85.641,65.732C86.367,62.827,84.6,59.884,81.695,59.158C78.79,58.432,75.846,60.198,75.12,63.103L72.851,72.183C72.749,72.59,72.514,72.952,72.183,73.211C71.851,73.47,71.443,73.61,71.022,73.61L16.664,73.61C16.245,73.61,15.836,73.47,15.505,73.211C15.174,72.952,14.938,72.59,14.836,72.182L12.568,63.103C11.842,60.198,8.898,58.432,5.993,59.158C3.088,59.884,1.321,62.827,2.047,65.732Z"/>
</g>
  <g id="Medium-S" transform="matrix(1.0,0.0,0.0,1.0,1703.996172651076,608.614133247426)">  <path stroke="none" stroke-miterlimit="4" stroke-linejoin="round" stroke-linecap="round" stroke-width="2px" stroke-dasharray="none" fill-opacity="1" fill="#000000" stroke-opacity="1" fill-rule="nonzero" d="M39.306,13.267L39.306,57.111C39.306,59.617,41.338,61.648,43.844,61.648C46.35,61.648,48.382,59.617,48.382,57.111L48.382,13.267C48.382,10.76,46.35,8.729,43.844,8.729C41.338,8.729,39.306,10.76,39.306,13.267ZM40.635,10.058L26.02,24.673C24.248,26.445,24.248,29.318,26.02,31.09C27.793,32.862,30.666,32.862,32.438,31.09L47.053,16.475C48.825,14.703,48.825,11.83,47.053,10.058C45.28,8.286,42.407,8.286,40.635,10.058ZM40.635,16.475L55.25,31.09C57.022,32.862,59.895,32.862,61.667,31.09C63.439,29.318,63.439,26.445,61.667,24.673L47.053,10.058C45.28,8.286,42.407,8.286,40.635,10.058C38.863,11.83,38.863,14.703,40.635,16.475ZM2.905,65.518L5.174,74.597C5.814,77.16,7.293,79.435,9.375,81.061C11.457,82.687,14.022,83.57,16.663,83.57L71.023,83.57C73.666,83.57,76.231,82.687,78.313,81.061C80.395,79.435,81.873,77.161,82.514,74.598L84.783,65.518C85.39,63.087,83.912,60.623,81.481,60.015C79.049,59.408,76.586,60.886,75.978,63.318L73.709,72.397C73.559,72.996,73.213,73.528,72.727,73.908C72.24,74.288,71.64,74.495,71.022,74.495L16.664,74.495C16.047,74.495,15.447,74.288,14.961,73.908C14.474,73.528,14.128,72.996,13.979,72.397L11.71,63.318C11.102,60.886,8.639,59.408,6.207,60.015C3.776,60.623,2.297,63.087,2.905,65.518Z"/>
</g>
  <g id="Regular-S" transform="matrix(1.0,0.0,0.0,1.0,1407.286172651076,608.614133247426)">  <path stroke-dasharray="none" stroke="none" fill-opacity="1" stroke-opacity="1" fill-rule="nonzero" stroke-miterlimit="4" stroke-width="2px" stroke-linejoin="round" fill="#000000" stroke-linecap="round" d="M40.19,13.267L40.19,57.111C40.19,59.128,41.826,60.764,43.844,60.764C45.862,60.764,47.497,59.128,47.497,57.111L47.497,13.267C47.497,11.249,45.862,9.613,43.844,9.613C41.826,9.613,40.19,11.249,40.19,13.267ZM41.26,10.683L26.646,25.298C25.219,26.725,25.219,29.038,26.646,30.465C28.073,31.892,30.386,31.892,31.813,30.465L46.427,15.85C47.854,14.423,47.854,12.11,46.427,10.683C45.001,9.256,42.687,9.256,41.26,10.683ZM41.26,15.85L55.875,30.465C57.302,31.892,59.615,31.892,61.042,30.465C62.469,29.038,62.469,26.725,61.042,25.298L46.427,10.683C45.001,9.256,42.687,9.256,41.26,10.683C39.833,12.11,39.833,14.423,41.26,15.85ZM3.763,65.304L6.032,74.383C6.624,76.755,7.993,78.86,9.919,80.364C11.845,81.868,14.219,82.686,16.663,82.686L71.023,82.686C73.468,82.686,75.842,81.868,77.769,80.364C79.695,78.86,81.063,76.755,81.656,74.384L83.925,65.304C84.414,63.346,83.224,61.362,81.266,60.873C79.309,60.384,77.325,61.574,76.836,63.532L74.567,72.611C74.369,73.402,73.913,74.104,73.271,74.605C72.629,75.106,71.838,75.379,71.023,75.379L16.664,75.379C15.85,75.379,15.059,75.106,14.417,74.605C13.774,74.103,13.318,73.402,13.121,72.611L10.852,63.532C10.363,61.574,8.379,60.384,6.421,60.873C4.464,61.362,3.273,63.346,3.763,65.304Z"/>
</g>
  <g id="Light-S" transform="matrix(1.0,0.0,0.0,1.0,1110.5761726510761,608.614133247426)">  <path stroke-miterlimit="4" stroke="none" stroke-opacity="1" fill-rule="nonzero" stroke-linecap="round" fill="#000000" stroke-linejoin="round" fill-opacity="1" stroke-dasharray="none" stroke-width="2px" d="M40.799,13.267L40.799,57.111C40.799,58.792,42.162,60.155,43.844,60.155C45.525,60.155,46.889,58.792,46.889,57.111L46.889,13.267C46.889,11.585,45.525,10.222,43.844,10.222C42.162,10.222,40.799,11.585,40.799,13.267ZM41.691,11.114L27.076,25.728C25.887,26.917,25.887,28.845,27.076,30.034C28.265,31.223,30.193,31.223,31.382,30.034L45.997,15.42C47.186,14.231,47.186,12.303,45.997,11.114C44.808,9.925,42.88,9.925,41.691,11.114ZM41.691,15.42L56.306,30.034C57.495,31.223,59.422,31.223,60.611,30.034C61.8,28.845,61.8,26.917,60.611,25.728L45.997,11.114C44.808,9.925,42.88,9.925,41.691,11.114C40.502,12.303,40.502,14.231,41.691,15.42ZM4.353,65.156L6.622,74.235C7.182,76.475,8.474,78.463,10.294,79.884C12.113,81.305,14.355,82.077,16.664,82.077L71.023,82.077C73.333,82.077,75.575,81.305,77.394,79.884C79.213,78.463,80.505,76.475,81.065,74.236L83.334,65.156C83.742,63.525,82.75,61.872,81.119,61.464C79.487,61.056,77.834,62.048,77.426,63.68L75.158,72.759C74.927,73.681,74.395,74.5,73.646,75.085C72.897,75.67,71.974,75.988,71.023,75.988L16.664,75.988C15.714,75.988,14.791,75.67,14.042,75.085C13.293,74.5,12.761,73.681,12.53,72.759L10.261,63.68C9.853,62.048,8.201,61.056,6.569,61.464C4.938,61.872,3.946,63.525,4.353,65.156Z"/>
</g>
  <g id="Thin-S" transform="matrix(1.0,0.0,0.0,1.0,813.8661726510762,608.614133247426)">  <path fill="#000000" stroke-linecap="round" stroke-width="2px" stroke-linejoin="round" fill-opacity="1" stroke-miterlimit="4" stroke-dasharray="none" stroke="none" fill-rule="nonzero" stroke-opacity="1" d="M41.408,13.267L41.408,57.111C41.408,58.456,42.499,59.546,43.844,59.546C45.189,59.546,46.28,58.456,46.28,57.111L46.28,13.267C46.28,11.921,45.189,10.831,43.844,10.831C42.499,10.831,41.408,11.921,41.408,13.267ZM42.121,11.544L27.507,26.159C26.556,27.11,26.556,28.652,27.507,29.604C28.458,30.555,30,30.555,30.952,29.604L45.566,14.989C46.517,14.038,46.517,12.496,45.566,11.544C44.615,10.593,43.073,10.593,42.121,11.544ZM42.121,14.989L56.736,29.604C57.687,30.555,59.23,30.555,60.181,29.604C61.132,28.652,61.132,27.11,60.181,26.159L45.566,11.544C44.615,10.593,43.073,10.593,42.121,11.544C41.17,12.496,41.17,14.038,42.121,14.989ZM4.944,65.008L7.213,74.088C7.74,76.196,8.956,78.067,10.669,79.404C12.381,80.741,14.491,81.468,16.664,81.468L71.023,81.468C73.197,81.468,75.307,80.741,77.019,79.404C78.731,78.067,79.947,76.196,80.474,74.088L82.743,65.008C83.07,63.703,82.276,62.381,80.971,62.055C79.666,61.729,78.343,62.522,78.017,63.827L75.748,72.907C75.485,73.961,74.877,74.896,74.021,75.565C73.165,76.233,72.109,76.597,71.023,76.597L16.664,76.597C15.578,76.597,14.523,76.233,13.667,75.565C12.811,74.896,12.203,73.961,11.939,72.907L9.67,63.827C9.344,62.522,8.022,61.729,6.717,62.055C5.412,62.381,4.618,63.703,4.944,65.008Z"/>
</g>
  <g id="Ultralight-S" transform="matrix(1.0,0.0,0.0,1.0,517.1561726510762,608.614133247426)">  <path fill-rule="nonzero" stroke-miterlimit="4" stroke-linecap="round" stroke-width="2px" stroke-opacity="1" stroke-dasharray="none" stroke-linejoin="round" fill="#000000" fill-opacity="1" stroke="none" d="M42.017,13.267L42.017,57.111C42.017,58.12,42.835,58.937,43.844,58.937C44.853,58.937,45.671,58.12,45.671,57.111L45.671,13.267C45.671,12.258,44.853,11.44,43.844,11.44C42.835,11.44,42.017,12.258,42.017,13.267ZM42.552,11.975L27.937,26.59C27.224,27.303,27.224,28.46,27.937,29.173C28.651,29.886,29.808,29.886,30.521,29.173L45.136,14.558C45.849,13.845,45.849,12.688,45.136,11.975C44.422,11.261,43.265,11.261,42.552,11.975ZM42.552,14.558L57.167,29.173C57.88,29.886,59.037,29.886,59.75,29.173C60.464,28.46,60.464,27.303,59.75,26.59L45.136,11.975C44.422,11.261,43.265,11.261,42.552,11.975C41.839,12.688,41.839,13.845,42.552,14.558ZM5.535,64.861L7.804,73.94C8.298,75.916,9.438,77.671,11.043,78.924C12.649,80.178,14.627,80.859,16.664,80.859L71.023,80.859C73.061,80.859,75.039,80.178,76.644,78.924C78.249,77.671,79.39,75.917,79.884,73.94L82.153,64.861C82.397,63.882,81.802,62.89,80.823,62.646C79.844,62.401,78.853,62.996,78.608,63.975L76.339,73.054C76.043,74.24,75.359,75.293,74.396,76.045C73.432,76.797,72.245,77.205,71.023,77.206L16.664,77.206C15.442,77.205,14.255,76.797,13.292,76.045C12.329,75.292,11.645,74.24,11.349,73.054L9.08,63.975C8.835,62.996,7.843,62.401,6.864,62.646C5.886,62.89,5.29,63.882,5.535,64.861Z"/>
</g>
 </g>
</svg>
