<?xml version="1.0" encoding="UTF-8"?>
<!-- Generator: CustomSymbols v2.6.2.41 by @serious_bret https://bretlester.com/app_content/CustomSymbols/ -->
<!-- Guides: Left/Right 0.0/0.0 Cap/Base 0.227/0.127 -->
<!-- Settings: RefScale 1.0 Min/Max Stroke Scales 0.5/2.21 -->
<!DOCTYPE svg
PUBLIC "-//W3C//DTD SVG 1.1//EN"
       "http://www.w3.org/Graphics/SVG/1.1/DTD/svg11.dtd">
<svg version="1.1" xmlns="http://www.w3.org/2000/svg" xmlns:xlink="http://www.w3.org/1999/xlink" width="3300" height="2200">
<![CDATA[<svg width="24" height="24" viewBox="0 0 24 24" fill="none" xmlns="http://www.w3.org/2000/svg">
<g clip-path="url(#clip0_60_2350)">
<path d="M2.53802 6.35326C2.53802 5.84733 2.739 5.36212 3.09675 5.00437C3.4545 4.64663 3.9397 4.44565 4.44563 4.44565H19.7065C20.2124 4.44565 20.6976 4.64663 21.0554 5.00437C21.4131 5.36212 21.6141 5.84733 21.6141 6.35326V17.7989C21.6141 18.3048 21.4131 18.79 21.0554 19.1478C20.6976 19.5055 20.2124 19.7065 19.7065 19.7065H4.44563C3.9397 19.7065 3.4545 19.5055 3.09675 19.1478C2.739 18.79 2.53802 18.3048 2.53802 17.7989V6.35326Z" stroke="white" stroke-width="3" stroke-linecap="round" stroke-linejoin="round"/>
<path d="M2.53802 8.26086L9.69251 13.9846C10.369 14.5259 11.2096 14.8208 12.0761 14.8208C12.9425 14.8208 13.7831 14.5259 14.4596 13.9846L21.6141 8.26086" stroke="white" stroke-width="3" stroke-linecap="round" stroke-linejoin="round"/>
</g>
<defs>
<clipPath id="clip0_60_2350">
<rect width="22.8913" height="22.8913" fill="white" transform="translate(0.630432 0.630432)"/>
</clipPath>
</defs>
</svg>
]]>
 <g id="Notes">
  <rect height="2200" id="artboard" style="fill:white;opacity:1" width="3300" x="0" y="0"/>
  <line id="" style="fill:none;stroke:black;opacity:1;stroke-width:0.5;" x1="263" x2="3036" y1="292" y2="292"/>
  <text id="reftext1" style="stroke:none;fill:black;font-family:-apple-system,&quot;SF Pro Display&quot;,&quot;SF Pro Text&quot;,Helvetica,sans-serif;font-weight:bold;" transform="matrix(1 0 0 1 263 322)">Weight/Scale Variations</text>
  <text id="reftext2" style="stroke:none;fill:black;font-family:-apple-system,&quot;SF Pro Display&quot;,&quot;SF Pro Text&quot;,Helvetica,sans-serif;text-anchor:middle;" transform="matrix(1 0 0 1 559.711 322)">Ultralight</text>
  <text style="stroke:none;fill:black;font-family:-apple-system,&quot;SF Pro Display&quot;,&quot;SF Pro Text&quot;,Helvetica,sans-serif;text-anchor:middle;" transform="matrix(1 0 0 1 856.422 322)">Thin</text>
  <text style="stroke:none;fill:black;font-family:-apple-system,&quot;SF Pro Display&quot;,&quot;SF Pro Text&quot;,Helvetica,sans-serif;text-anchor:middle;" transform="matrix(1 0 0 1 1153.13 322)">Light</text>
  <text style="stroke:none;fill:black;font-family:-apple-system,&quot;SF Pro Display&quot;,&quot;SF Pro Text&quot;,Helvetica,sans-serif;text-anchor:middle;" transform="matrix(1 0 0 1 1449.84 322)">Regular</text>
  <text style="stroke:none;fill:black;font-family:-apple-system,&quot;SF Pro Display&quot;,&quot;SF Pro Text&quot;,Helvetica,sans-serif;text-anchor:middle;" transform="matrix(1 0 0 1 1746.56 322)">Medium</text>
  <text style="stroke:none;fill:black;font-family:-apple-system,&quot;SF Pro Display&quot;,&quot;SF Pro Text&quot;,Helvetica,sans-serif;text-anchor:middle;" transform="matrix(1 0 0 1 2043.27 322)">Semibold</text>
  <text style="stroke:none;fill:black;font-family:-apple-system,&quot;SF Pro Display&quot;,&quot;SF Pro Text&quot;,Helvetica,sans-serif;text-anchor:middle;" transform="matrix(1 0 0 1 2339.98 322)">Bold</text>
  <text style="stroke:none;fill:black;font-family:-apple-system,&quot;SF Pro Display&quot;,&quot;SF Pro Text&quot;,Helvetica,sans-serif;text-anchor:middle;" transform="matrix(1 0 0 1 2636.69 322)">Heavy</text>
  <text style="stroke:none;fill:black;font-family:-apple-system,&quot;SF Pro Display&quot;,&quot;SF Pro Text&quot;,Helvetica,sans-serif;text-anchor:middle;" transform="matrix(1 0 0 1 2933.4 322)">Black</text>
  <line id="" style="fill:none;stroke:black;opacity:1;stroke-width:0.5;" x1="263" x2="3036" y1="1903" y2="1903"/>
  <g id="" transform="matrix(1 0 0 1 263 1933)">
   <path d="M9.24805 0.830078C13.5547 0.830078 17.1387-2.74414 17.1387-7.05078C17.1387-11.3574 13.5449-14.9316 9.23828-14.9316C4.94141-14.9316 1.36719-11.3574 1.36719-7.05078C1.36719-2.74414 4.95117 0.830078 9.24805 0.830078ZM9.24805-0.654297C5.70312-0.654297 2.87109-3.49609 2.87109-7.05078C2.87109-10.6055 5.69336-13.4473 9.23828-13.4473C12.793-13.4473 15.6348-10.6055 15.6445-7.05078C15.6543-3.49609 12.8027-0.654297 9.24805-0.654297ZM6.39648-6.31836L8.50586-6.31836L8.50586-4.19922C8.50586-3.75977 8.79883-3.45703 9.22852-3.45703C9.67773-3.45703 9.9707-3.75977 9.9707-4.19922L9.9707-6.31836L12.0996-6.31836C12.5391-6.31836 12.8418-6.61133 12.8418-7.04102C12.8418-7.48047 12.5391-7.7832 12.0996-7.7832L9.9707-7.7832L9.9707-9.89258C9.9707-10.3418 9.67773-10.6445 9.22852-10.6445C8.79883-10.6445 8.50586-10.3418 8.50586-9.89258L8.50586-7.7832L6.39648-7.7832C5.94727-7.7832 5.64453-7.48047 5.64453-7.04102C5.64453-6.61133 5.94727-6.31836 6.39648-6.31836Z"/>
  </g>
  <g id="" transform="matrix(1 0 0 1 281.506 1933)">
   <path d="M11.709 2.91016C17.1582 2.91016 21.6699-1.61133 21.6699-7.05078C21.6699-12.5 17.1484-17.0117 11.6992-17.0117C6.25977-17.0117 1.74805-12.5 1.74805-7.05078C1.74805-1.61133 6.26953 2.91016 11.709 2.91016ZM11.709 1.25C7.09961 1.25 3.41797-2.44141 3.41797-7.05078C3.41797-11.6602 7.08984-15.3516 11.6992-15.3516C16.3086-15.3516 20-11.6602 20.0098-7.05078C20.0195-2.44141 16.3184 1.25 11.709 1.25ZM7.98828-6.23047L10.8789-6.23047L10.8789-3.32031C10.8789-2.83203 11.2109-2.5 11.6895-2.5C12.1777-2.5 12.5195-2.83203 12.5195-3.32031L12.5195-6.23047L15.4297-6.23047C15.918-6.23047 16.25-6.5625 16.25-7.04102C16.25-7.5293 15.918-7.87109 15.4297-7.87109L12.5195-7.87109L12.5195-10.7617C12.5195-11.2695 12.1777-11.6016 11.6895-11.6016C11.2109-11.6016 10.8789-11.2598 10.8789-10.7617L10.8789-7.87109L7.98828-7.87109C7.48047-7.87109 7.14844-7.5293 7.14844-7.04102C7.14844-6.5625 7.49023-6.23047 7.98828-6.23047Z"/>
  </g>
  <g id="" transform="matrix(1 0 0 1 304.924 1933)">
   <path d="M14.9707 5.66406C21.9336 5.66406 27.6953-0.0976562 27.6953-7.05078C27.6953-14.0137 21.9238-19.7754 14.9609-19.7754C8.00781-19.7754 2.25586-14.0137 2.25586-7.05078C2.25586-0.0976562 8.01758 5.66406 14.9707 5.66406ZM14.9707 3.84766C8.93555 3.84766 4.08203-1.01562 4.08203-7.05078C4.08203-13.0957 8.92578-17.9492 14.9609-17.9492C21.0059-17.9492 25.8594-13.0957 25.8691-7.05078C25.8789-1.01562 21.0156 3.84766 14.9707 3.84766ZM10.0586-6.14258L14.0625-6.14258L14.0625-2.12891C14.0625-1.5918 14.4336-1.2207 14.9512-1.2207C15.4883-1.2207 15.8594-1.5918 15.8594-2.12891L15.8594-6.14258L19.8828-6.14258C20.4102-6.14258 20.791-6.51367 20.791-7.03125C20.791-7.56836 20.4199-7.94922 19.8828-7.94922L15.8594-7.94922L15.8594-11.9531C15.8594-12.5098 15.4883-12.8809 14.9512-12.8809C14.4336-12.8809 14.0625-12.5 14.0625-11.9531L14.0625-7.94922L10.0586-7.94922C9.50195-7.94922 9.13086-7.56836 9.13086-7.03125C9.13086-6.51367 9.51172-6.14258 10.0586-6.14258Z"/>
  </g>
  <text style="stroke:none;fill:black;font-family:-apple-system,&quot;SF Pro Display&quot;,&quot;SF Pro Text&quot;,Helvetica,sans-serif;font-weight:bold;" transform="matrix(1 0 0 1 263 1953)">Design Variations</text>
  <text style="stroke:none;fill:black;font-family:-apple-system,&quot;SF Pro Display&quot;,&quot;SF Pro Text&quot;,Helvetica,sans-serif;" transform="matrix(1 0 0 1 263 1971)">Symbols are supported in up to nine weights and three scales.</text>
  <text style="stroke:none;fill:black;font-family:-apple-system,&quot;SF Pro Display&quot;,&quot;SF Pro Text&quot;,Helvetica,sans-serif;" transform="matrix(1 0 0 1 263 1989)">For optimal layout with text and other symbols, vertically align</text>
  <text style="stroke:none;fill:black;font-family:-apple-system,&quot;SF Pro Display&quot;,&quot;SF Pro Text&quot;,Helvetica,sans-serif;" transform="matrix(1 0 0 1 263 2007)">symbols with the adjacent text.</text>
  <line id="" style="fill:none;stroke:#00AEEF;stroke-width:0.5;opacity:1.0;" x1="776" x2="776" y1="1919" y2="1933"/>
  <g id="" transform="matrix(1 0 0 1 776 1933)">
   <path d="M3.31055 0.126953C3.82812 0.126953 4.08203-0.0683594 4.26758-0.605469L5.52734-4.0625L11.2891-4.0625L12.5488-0.605469C12.7344-0.0683594 12.9883 0.126953 13.4961 0.126953C14.0137 0.126953 14.3457-0.185547 14.3457-0.673828C14.3457-0.839844 14.3164-0.986328 14.2383-1.20117L9.6582-13.3887C9.43359-13.9941 9.0332-14.2871 8.4082-14.2871C7.80273-14.2871 7.39258-13.9941 7.17773-13.3984L2.59766-1.19141C2.51953-0.976562 2.49023-0.830078 2.49023-0.664062C2.49023-0.175781 2.80273 0.126953 3.31055 0.126953ZM6.00586-5.53711L8.37891-12.1094L8.42773-12.1094L10.8008-5.53711Z"/>
  </g>
  <line id="" style="fill:none;stroke:#00AEEF;stroke-width:0.5;opacity:1.0;" x1="792.836" x2="792.836" y1="1919" y2="1933"/>
  <text style="stroke:none;fill:black;font-family:-apple-system,&quot;SF Pro Display&quot;,&quot;SF Pro Text&quot;,Helvetica,sans-serif;font-weight:bold;" transform="matrix(1 0 0 1 776 1953)">Margins</text>
  <text style="stroke:none;fill:black;font-family:-apple-system,&quot;SF Pro Display&quot;,&quot;SF Pro Text&quot;,Helvetica,sans-serif;" transform="matrix(1 0 0 1 776 1971)">Leading and trailing margins on the left and right side of each symbol</text>
  <text style="stroke:none;fill:black;font-family:-apple-system,&quot;SF Pro Display&quot;,&quot;SF Pro Text&quot;,Helvetica,sans-serif;" transform="matrix(1 0 0 1 776 1989)">can be adjusted by modifying the x-location of the margin guidelines.</text>
  <text style="stroke:none;fill:black;font-family:-apple-system,&quot;SF Pro Display&quot;,&quot;SF Pro Text&quot;,Helvetica,sans-serif;" transform="matrix(1 0 0 1 776 2007)">Modifications are automatically applied proportionally to all</text>
  <text style="stroke:none;fill:black;font-family:-apple-system,&quot;SF Pro Display&quot;,&quot;SF Pro Text&quot;,Helvetica,sans-serif;" transform="matrix(1 0 0 1 776 2025)">scales and weights.</text>
  <g id="" transform="matrix(1 0 0 1 1289 1933)">
   <path d="M2.8418 1.86523L4.54102 3.57422C5.40039 4.44336 6.38672 4.38477 7.31445 3.35938L17.4902-7.85156C17.7539-7.76367 18.0273-7.7832 18.3398-7.8418L19.4043-8.03711L20.0684-7.36328L20.0293-6.80664C19.9902-6.30859 20.1172-5.92773 20.6055-5.44922L21.3672-4.70703C21.8457-4.22852 22.4609-4.19922 22.9297-4.66797L25.8398-7.58789C26.3086-8.05664 26.2891-8.65234 25.8105-9.13086L25.0391-9.89258C24.5605-10.3711 24.1895-10.5273 23.7109-10.4883L23.1348-10.4395L22.4902-11.0742L22.7344-12.1973C22.8613-12.7637 22.7051-13.2031 22.1191-13.7891L19.9219-15.9766C16.582-19.2969 12.1484-19.2188 9.25781-16.3281C8.83789-15.918 8.80859-15.3418 9.04297-14.9512C9.27734-14.5898 9.73633-14.3555 10.3809-14.5215C11.8457-14.8633 13.3691-14.9219 14.7949-13.9844L14.209-12.5293C14.0137-12.0508 13.9844-11.6504 14.1113-11.2891L3.04688-0.898438C2.06055 0.0195312 1.98242 0.996094 2.8418 1.86523ZM10.752-15.957C13.1836-17.7344 16.4746-17.4316 18.7012-15.2051L21.1328-12.793C21.3672-12.5586 21.4062-12.373 21.3379-12.0312L21.0156-10.5469L22.5195-9.0625L23.5059-9.12109C23.7598-9.13086 23.8379-9.11133 24.0332-8.91602L24.6094-8.33984L22.168-5.89844L21.5918-6.47461C21.3965-6.66992 21.3672-6.74805 21.377-7.01172L21.4453-7.98828L19.9512-9.47266L18.4277-9.21875C18.1055-9.15039 17.959-9.17969 17.7148-9.41406L15.7129-11.416C15.459-11.6504 15.4297-11.8164 15.5859-12.1875L16.4648-14.2773C14.9023-15.7324 12.8711-16.3574 10.8398-15.7617C10.6836-15.7227 10.625-15.8496 10.752-15.957ZM5.27344 2.30469L4.10156 1.14258C3.63281 0.683594 3.74023 0.341797 4.14062-0.0195312L14.9512-10.1953L16.416-8.71094L6.42578 2.27539C6.07422 2.67578 5.74219 2.77344 5.27344 2.30469Z"/>
  </g>
  <text style="stroke:none;fill:black;font-family:-apple-system,&quot;SF Pro Display&quot;,&quot;SF Pro Text&quot;,Helvetica,sans-serif;font-weight:bold;" transform="matrix(1 0 0 1 1289 1953)">Exporting</text>
  <text style="stroke:none;fill:black;font-family:-apple-system,&quot;SF Pro Display&quot;,&quot;SF Pro Text&quot;,Helvetica,sans-serif;" transform="matrix(1 0 0 1 1289 1971)">Symbols should be outlined when exporting to ensure the</text>
  <text style="stroke:none;fill:black;font-family:-apple-system,&quot;SF Pro Display&quot;,&quot;SF Pro Text&quot;,Helvetica,sans-serif;" transform="matrix(1 0 0 1 1289 1989)">design is preserved when submitting to Xcode.</text>
  <text id="template-version" style="stroke:none;fill:black;font-family:-apple-system,&quot;SF Pro Display&quot;,&quot;SF Pro Text&quot;,Helvetica,sans-serif;text-anchor:end;" transform="matrix(1 0 0 1 3036 1933)">Template v.2.0</text>
  <text style="stroke:none;fill:black;font-family:-apple-system,&quot;SF Pro Display&quot;,&quot;SF Pro Text&quot;,Helvetica,sans-serif;text-anchor:end;" transform="matrix(1 0 0 1 3036 1951)">Requires Xcode 12 or greater</text>
  <text style="stroke:none;fill:black;font-family:-apple-system,&quot;SF Pro Display&quot;,&quot;SF Pro Text&quot;,Helvetica,sans-serif;" transform="matrix(1 0 0 1 263 726)">Small</text>
  <text style="stroke:none;fill:black;font-family:-apple-system,&quot;SF Pro Display&quot;,&quot;SF Pro Text&quot;,Helvetica,sans-serif;" transform="matrix(1 0 0 1 263 1156)">Medium</text>
  <text style="stroke:none;fill:black;font-family:-apple-system,&quot;SF Pro Display&quot;,&quot;SF Pro Text&quot;,Helvetica,sans-serif;" transform="matrix(1 0 0 1 263 1586)">Large</text>
 </g>
 <g id="Guides">
  <g id="H-reference" style="fill:#27AAE1;stroke:none;" transform="matrix(1 0 0 1 339 696)">
   <path d="M0.976562 0L3.66211 0L12.9883-24.4629L45.752-24.4629L55.127 0L57.7637 0L30.6152-70.459L28.125-70.459ZM29.3457-67.1387L29.4434-67.1387L44.873-26.709L13.8672-26.709Z"/>
  </g>
  <line id="Baseline-S" style="fill:none;stroke:#27AAE1;opacity:1;stroke-width:0.5;" x1="263" x2="3036" y1="696" y2="696"/>
  <line id="Capline-S" style="fill:none;stroke:#27AAE1;opacity:1;stroke-width:0.5;" x1="263" x2="3036" y1="625.541" y2="625.541"/>
  <g id="H-reference" style="fill:#27AAE1;stroke:none;" transform="matrix(1 0 0 1 339 1126)">
   <path d="M0.976562 0L3.66211 0L12.9883-24.4629L45.752-24.4629L55.127 0L57.7637 0L30.6152-70.459L28.125-70.459ZM29.3457-67.1387L29.4434-67.1387L44.873-26.709L13.8672-26.709Z"/>
  </g>
  <line id="Baseline-M" style="fill:none;stroke:#27AAE1;opacity:1;stroke-width:0.5;" x1="263" x2="3036" y1="1126" y2="1126"/>
  <line id="Capline-M" style="fill:none;stroke:#27AAE1;opacity:1;stroke-width:0.5;" x1="263" x2="3036" y1="1055.54" y2="1055.54"/>
  <g id="H-reference" style="fill:#27AAE1;stroke:none;" transform="matrix(1 0 0 1 339 1556)">
   <path d="M0.976562 0L3.66211 0L12.9883-24.4629L45.752-24.4629L55.127 0L57.7637 0L30.6152-70.459L28.125-70.459ZM29.3457-67.1387L29.4434-67.1387L44.873-26.709L13.8672-26.709Z"/>
  </g>
  <line id="Baseline-L" style="fill:none;stroke:#27AAE1;opacity:1;stroke-width:0.5;" x1="263" x2="3036" y1="1556" y2="1556"/>
  <line id="Capline-L" style="fill:none;stroke:#27AAE1;opacity:1;stroke-width:0.5;" x1="263" x2="3036" y1="1485.54" y2="1485.54"/>
  <line id="left-margin" x1="1396.5944265189628" x2="1396.5944265189628" y1="1030.79" y2="1150.12" style="fill:none;stroke:#00AEEF;stroke-width:0.5;opacity:1.0;"/>
  <line id="right-margin" x1="1505.665573481037" x2="1505.665573481037" y1="1030.79" y2="1150.12" style="fill:none;stroke:#00AEEF;stroke-width:0.5;opacity:1.0;"/>
 </g>
 <g id="Symbols">
  <g id="Black-L" transform="matrix(1.0,0.0,0.0,1.0,2864.3291102094618,1443.3840407616583)">  <path fill-rule="nonzero" stroke="none" fill-opacity="1" stroke-dasharray="none" fill="#000000" stroke-width="3px" stroke-miterlimit="4" stroke-opacity="1" stroke-linejoin="round" stroke-linecap="round" clip-path="url(#clip0_60_2350)" d="M34.314,37.246C34.314,39.435,33.444,41.533,31.897,43.081C30.35,44.628,28.251,45.497,26.063,45.497L115.531,45.497C113.343,45.497,111.245,44.628,109.698,43.082C108.149,41.533,107.28,39.435,107.28,37.246L107.28,104.347C107.28,102.159,108.149,100.062,109.695,98.515C111.245,96.965,113.343,96.096,115.531,96.096L26.063,96.096C28.251,96.096,30.349,96.965,31.896,98.512C33.445,100.061,34.314,102.159,34.314,104.347L34.314,37.246ZM-4.555,37.246L-4.555,104.347C-4.555,112.467,-1.33,120.255,4.412,125.997C10.156,131.74,17.943,134.965,26.063,134.965L115.531,134.965C123.65,134.965,131.437,131.74,137.179,126C142.923,120.254,146.149,112.467,146.149,104.347L146.149,37.246C146.149,29.126,142.923,21.339,137.182,15.597C131.438,9.854,123.651,6.629,115.531,6.629L26.063,6.629C17.943,6.629,10.155,9.854,4.413,15.596C-1.329,21.338,-4.555,29.126,-4.555,37.246Z"/>
  <path fill-rule="nonzero" stroke-opacity="1" stroke="none" stroke-width="3px" stroke-miterlimit="4" fill-opacity="1" fill="#000000" clip-path="url(#clip0_60_2350)" stroke-dasharray="none" stroke-linecap="round" stroke-linejoin="round" d="M2.739,63.605L44.682,97.161C52.093,103.091,61.304,106.322,70.797,106.322C80.29,106.322,89.5,103.091,96.912,97.16L138.855,63.606C147.236,56.9,148.595,44.67,141.89,36.289C135.185,27.908,122.955,26.549,114.573,33.254L72.63,66.81C72.109,67.227,71.463,67.454,70.797,67.454C70.131,67.454,69.485,67.227,68.965,66.811L27.02,33.254C18.639,26.549,6.409,27.908,-0.296,36.289C-7.001,44.67,-5.643,56.9,2.739,63.605Z"/>
</g>
  <g id="Heavy-L" transform="matrix(1.0,0.0,0.0,1.0,2567.6191102094617,1443.3840407616583)">  <path stroke-opacity="1" stroke-miterlimit="4" stroke="none" fill-rule="nonzero" stroke-dasharray="none" fill="#000000" stroke-linecap="round" clip-path="url(#clip0_60_2350)" stroke-linejoin="round" fill-opacity="1" stroke-width="3px" d="M32.186,37.246C32.186,38.87,31.541,40.428,30.392,41.576C29.244,42.724,27.687,43.369,26.063,43.369L115.531,43.369C113.907,43.369,112.35,42.724,111.202,41.577C110.053,40.427,109.408,38.87,109.408,37.246L109.408,104.347C109.408,102.724,110.053,101.167,111.2,100.02C112.351,98.869,113.907,98.224,115.531,98.224L26.063,98.224C27.687,98.224,29.244,98.869,30.391,100.017C31.541,101.167,32.186,102.724,32.186,104.347L32.186,37.246ZM-2.427,37.246L-2.427,104.347C-2.427,111.903,0.574,119.149,5.917,124.492C11.261,129.836,18.507,132.837,26.063,132.837L115.531,132.837C123.086,132.837,130.332,129.836,135.675,124.495C141.019,119.148,144.021,111.903,144.021,104.347L144.021,37.246C144.021,29.691,141.019,22.445,135.677,17.102C130.332,11.758,123.086,8.757,115.531,8.757L26.063,8.757C18.507,8.757,11.261,11.758,5.918,17.101C0.575,22.444,-2.427,29.69,-2.427,37.246Z"/>
  <path fill-opacity="1" stroke-linejoin="round" fill-rule="nonzero" stroke="none" fill="#000000" clip-path="url(#clip0_60_2350)" stroke-miterlimit="4" stroke-dasharray="none" stroke-opacity="1" stroke-width="3px" stroke-linecap="round" d="M4.068,61.944L46.012,95.5C53.046,101.128,61.787,104.194,70.797,104.194C79.807,104.194,88.548,101.128,95.583,95.499L137.526,61.944C144.989,55.973,146.199,45.082,140.228,37.619C134.257,30.155,123.366,28.945,115.903,34.916L73.959,68.472C73.061,69.191,71.946,69.582,70.797,69.582C69.647,69.582,68.533,69.191,67.636,68.473L25.691,34.916C18.227,28.945,7.336,30.155,1.366,37.619C-4.605,45.082,-3.395,55.973,4.068,61.944Z"/>
</g>
  <g id="Bold-L" transform="matrix(1.0,0.0,0.0,1.0,2270.9091102094617,1443.3840407616583)">  <path stroke-width="3px" stroke-miterlimit="4" stroke-opacity="1" stroke-linecap="round" fill="#000000" fill-opacity="1" stroke-linejoin="round" stroke-dasharray="none" clip-path="url(#clip0_60_2350)" fill-rule="nonzero" stroke="none" d="M30.058,37.246C30.058,38.306,29.637,39.322,28.888,40.071C28.138,40.82,27.122,41.241,26.063,41.241L115.531,41.241C114.471,41.241,113.456,40.82,112.707,40.072C111.957,39.321,111.536,38.306,111.536,37.246L111.536,104.347C111.536,103.288,111.957,102.273,112.705,101.524C113.456,100.773,114.471,100.353,115.531,100.353L26.063,100.353C27.122,100.353,28.138,100.773,28.887,101.522C29.637,102.272,30.058,103.288,30.058,104.347L30.058,37.246ZM-0.299,37.246L-0.299,104.347C-0.299,111.339,2.478,118.043,7.422,122.987C12.367,127.932,19.072,130.709,26.063,130.709L115.531,130.709C122.522,130.709,129.226,127.932,134.17,122.99C139.115,118.043,141.892,111.338,141.892,104.347L141.892,37.246C141.892,30.255,139.115,23.55,134.172,18.607C129.227,13.662,122.522,10.885,115.531,10.885L26.063,10.885C19.071,10.885,12.366,13.662,7.422,18.606C2.479,23.55,-0.299,30.255,-0.299,37.246Z"/>
  <path fill-rule="nonzero" stroke-linejoin="round" stroke-dasharray="none" clip-path="url(#clip0_60_2350)" stroke-opacity="1" stroke="none" fill-opacity="1" stroke-linecap="round" stroke-width="3px" fill="#000000" stroke-miterlimit="4" d="M5.397,60.282L47.341,93.838C53.998,99.164,62.27,102.066,70.797,102.066C79.323,102.066,87.596,99.164,94.253,93.837L136.196,60.282C142.742,55.045,143.803,45.494,138.566,38.948C133.33,32.402,123.778,31.341,117.232,36.578L75.289,70.134C74.013,71.154,72.429,71.71,70.797,71.71C69.164,71.71,67.58,71.154,66.306,70.134L24.361,36.578C17.816,31.341,8.264,32.402,3.027,38.948C-2.209,45.494,-1.148,55.045,5.397,60.282Z"/>
</g>
  <g id="Semibold-L" transform="matrix(1.0,0.0,0.0,1.0,1974.199110209462,1443.3840407616583)">  <path fill-opacity="1" stroke-miterlimit="4" stroke-width="3px" clip-path="url(#clip0_60_2350)" stroke-linecap="round" stroke-dasharray="none" stroke="none" stroke-linejoin="round" stroke-opacity="1" fill="#000000" fill-rule="nonzero" d="M27.929,37.246C27.929,37.742,27.733,38.216,27.383,38.566C27.033,38.916,26.558,39.113,26.063,39.113L115.531,39.113C115.036,39.113,114.561,38.917,114.212,38.567C113.861,38.216,113.664,37.741,113.664,37.246L113.664,104.347C113.664,103.852,113.861,103.378,114.21,103.029C114.562,102.677,115.036,102.481,115.531,102.481L26.063,102.481C26.558,102.481,27.032,102.677,27.382,103.027C27.733,103.378,27.929,103.852,27.929,104.347L27.929,37.246ZM1.829,37.246L1.829,104.347C1.829,110.774,4.382,116.938,8.926,121.483C13.472,126.028,19.636,128.581,26.063,128.581L115.531,128.581C121.957,128.581,128.121,126.028,132.665,121.485C137.211,116.937,139.764,110.774,139.764,104.347L139.764,37.246C139.764,30.82,137.211,24.656,132.667,20.111C128.121,15.566,121.958,13.013,115.531,13.013L26.063,13.013C19.636,13.013,13.472,15.566,8.927,20.111C4.382,24.655,1.829,30.819,1.829,37.246Z"/>
  <path fill-opacity="1" stroke-opacity="1" stroke-dasharray="none" fill="#000000" stroke="none" clip-path="url(#clip0_60_2350)" stroke-linecap="round" stroke-miterlimit="4" fill-rule="nonzero" stroke-width="3px" stroke-linejoin="round" d="M6.727,58.62L48.671,92.176C54.95,97.201,62.753,99.938,70.797,99.938C78.84,99.938,86.644,97.2,92.924,92.175L134.867,58.62C140.495,54.118,141.407,45.905,136.905,40.277C132.402,34.65,124.19,33.737,118.562,38.24L76.618,71.795C74.965,73.118,72.913,73.838,70.797,73.838C68.681,73.838,66.628,73.118,64.976,71.796L23.032,38.24C17.404,33.737,9.192,34.65,4.689,40.277C0.187,45.905,1.099,54.118,6.727,58.62Z"/>
</g>
  <g id="Medium-L" transform="matrix(1.0,0.0,0.0,1.0,1677.489110209462,1443.3840407616583)">  <path clip-path="url(#clip0_60_2350)" stroke-opacity="1" stroke-linecap="round" stroke-miterlimit="4" fill-opacity="1" stroke-dasharray="none" fill-rule="nonzero" stroke-width="3px" fill="#000000" stroke-linejoin="round" stroke="none" d="M25.801,37.246C25.801,37.177,25.829,37.111,25.878,37.061C25.927,37.012,25.993,36.985,26.063,36.985L115.531,36.985C115.6,36.985,115.667,37.013,115.717,37.062C115.765,37.11,115.792,37.177,115.792,37.246L115.792,104.347C115.792,104.417,115.765,104.484,115.715,104.533C115.667,104.581,115.6,104.609,115.531,104.609L26.063,104.609C25.993,104.609,25.927,104.581,25.877,104.532C25.829,104.483,25.801,104.417,25.801,104.347L25.801,37.246ZM3.957,37.246L3.957,104.347C3.957,110.21,6.286,115.832,10.431,119.978C14.578,124.124,20.2,126.453,26.063,126.453L115.531,126.453C121.393,126.453,127.015,124.124,131.161,119.979C135.308,115.832,137.636,110.209,137.636,104.347L137.636,37.246C137.636,31.384,135.307,25.762,131.162,21.616C127.015,17.47,121.393,15.141,115.531,15.141L26.063,15.141C20.2,15.141,14.578,17.47,10.432,21.615C6.286,25.761,3.957,31.384,3.957,37.246Z"/>
  <path stroke="none" stroke-linejoin="round" stroke-opacity="1" clip-path="url(#clip0_60_2350)" fill-rule="nonzero" fill-opacity="1" stroke-dasharray="none" stroke-width="3px" fill="#000000" stroke-linecap="round" stroke-miterlimit="4" d="M8.056,56.958L50,90.514C55.902,95.237,63.237,97.81,70.797,97.81C78.357,97.81,85.691,95.237,91.594,90.514L133.537,56.958C138.247,53.19,139.011,46.317,135.243,41.607C131.475,36.897,124.601,36.133,119.891,39.901L77.947,73.457C75.918,75.081,73.396,75.966,70.797,75.966C68.198,75.966,65.676,75.081,63.647,73.458L21.702,39.901C16.992,36.133,10.119,36.897,6.351,41.607C2.583,46.317,3.346,53.19,8.056,56.958Z"/>
</g>
  <g id="Regular-L" transform="matrix(1.0,0.0,0.0,1.0,1380.779110209462,1443.3840407616583)">  <path stroke-linejoin="round" stroke-width="3px" fill-rule="nonzero" fill="#000000" stroke-miterlimit="4" stroke-dasharray="none" stroke-opacity="1" stroke="none" clip-path="url(#clip0_60_2350)" stroke-linecap="round" fill-opacity="1" d="M23.673,37.246C23.673,36.613,23.925,36.005,24.373,35.557C24.821,35.109,25.429,34.857,26.063,34.857L115.531,34.857C116.165,34.857,116.773,35.109,117.221,35.557C117.669,36.005,117.92,36.613,117.92,37.246L117.92,104.347C117.92,104.981,117.668,105.589,117.22,106.038C116.773,106.485,116.164,106.737,115.531,106.737L26.063,106.737C25.429,106.737,24.821,106.485,24.373,106.037C23.925,105.589,23.673,104.981,23.673,104.347L23.673,37.246ZM6.085,37.246L6.085,104.347C6.085,109.645,8.19,114.726,11.936,118.473C15.684,122.22,20.765,124.325,26.063,124.325L115.531,124.325C120.829,124.325,125.909,122.22,129.656,118.474C133.404,114.726,135.508,109.645,135.508,104.347L135.508,37.246C135.508,31.948,133.403,26.867,129.657,23.121C125.91,19.374,120.829,17.269,115.531,17.269L26.063,17.269C20.765,17.269,15.683,19.374,11.937,23.12C8.19,26.867,6.085,31.948,6.085,37.246Z"/>
  <path fill-opacity="1" stroke-miterlimit="4" clip-path="url(#clip0_60_2350)" stroke-linejoin="round" stroke-width="3px" stroke="none" fill="#000000" fill-rule="nonzero" stroke-opacity="1" stroke-dasharray="none" stroke-linecap="round" d="M9.386,55.297L51.329,88.853C56.854,93.273,63.72,95.682,70.797,95.682C77.873,95.682,84.739,93.273,90.265,88.852L132.208,55.297C136,52.263,136.615,46.729,133.581,42.936C130.547,39.144,125.013,38.529,121.221,41.563L79.277,75.119C76.87,77.045,73.879,78.094,70.797,78.094C67.714,78.094,64.724,77.045,62.317,75.119L20.373,41.563C16.58,38.529,11.047,39.144,8.013,42.936C4.979,46.729,5.593,52.263,9.386,55.297Z"/>
</g>
  <g id="Light-L" transform="matrix(1.0,0.0,0.0,1.0,1084.0691102094622,1443.3840407616583)">  <path stroke-width="3px" fill-rule="nonzero" stroke-linecap="round" stroke-miterlimit="4" fill-opacity="1" stroke-opacity="1" clip-path="url(#clip0_60_2350)" stroke-dasharray="none" stroke-linejoin="round" stroke="none" fill="#000000" d="M22.208,37.246C22.208,36.224,22.614,35.243,23.337,34.52C24.06,33.797,25.04,33.391,26.063,33.391L115.531,33.391C116.553,33.391,117.534,33.797,118.257,34.521C118.98,35.243,119.386,36.224,119.386,37.246L119.386,104.347C119.386,105.37,118.98,106.351,118.256,107.074C117.534,107.796,116.553,108.203,115.531,108.203L26.063,108.203C25.04,108.203,24.06,107.796,23.336,107.073C22.614,106.35,22.208,105.37,22.208,104.347L22.208,37.246ZM7.551,37.246L7.551,104.347C7.551,109.257,9.501,113.965,12.973,117.437C16.445,120.909,21.153,122.859,26.063,122.859L115.531,122.859C120.44,122.859,125.148,120.909,128.62,117.438C132.092,113.965,134.042,109.256,134.042,104.347L134.042,37.246C134.042,32.337,132.092,27.629,128.621,24.157C125.148,20.685,120.44,18.735,115.531,18.735L26.063,18.735C21.153,18.735,16.445,20.685,12.973,24.157C9.501,27.628,7.551,32.337,7.551,37.246Z"/>
  <path fill="#000000" stroke-width="3px" stroke="none" stroke-opacity="1" fill-rule="nonzero" stroke-dasharray="none" stroke-linejoin="round" fill-opacity="1" stroke-linecap="round" clip-path="url(#clip0_60_2350)" stroke-miterlimit="4" d="M10.301,54.152L52.245,87.708C57.51,91.921,64.053,94.216,70.797,94.216C77.541,94.216,84.083,91.921,89.349,87.708L131.292,54.152C134.453,51.624,134.965,47.012,132.437,43.852C129.908,40.692,125.297,40.179,122.136,42.708L80.193,76.263C77.526,78.397,74.212,79.56,70.797,79.56C67.381,79.56,64.068,78.397,61.402,76.264L19.457,42.708C16.297,40.179,11.685,40.692,9.157,43.852C6.629,47.012,7.141,51.624,10.301,54.152Z"/>
</g>
  <g id="Thin-L" transform="matrix(1.0,0.0,0.0,1.0,787.3591102094621,1443.3840407616583)">  <path fill="#000000" fill-rule="nonzero" stroke-dasharray="none" stroke="none" stroke-linecap="round" stroke-linejoin="round" stroke-width="3px" clip-path="url(#clip0_60_2350)" fill-opacity="1" stroke-opacity="1" stroke-miterlimit="4" d="M20.742,37.246C20.742,35.835,21.303,34.482,22.3,33.484C23.298,32.486,24.652,31.926,26.063,31.926L115.531,31.926C116.942,31.926,118.295,32.486,119.294,33.484C120.291,34.482,120.852,35.835,120.852,37.246L120.852,104.347C120.852,105.758,120.291,107.112,119.293,108.111C118.296,109.108,116.942,109.668,115.531,109.668L26.063,109.668C24.652,109.668,23.298,109.108,22.3,108.11C21.303,107.112,20.742,105.758,20.742,104.347L20.742,37.246ZM9.017,37.246L9.017,104.347C9.017,108.868,10.813,113.204,14.009,116.401C17.207,119.598,21.542,121.393,26.063,121.393L115.531,121.393C120.051,121.393,124.387,119.598,127.584,116.401C130.781,113.203,132.577,108.868,132.577,104.347L132.577,37.246C132.577,32.726,130.781,28.39,127.585,25.193C124.387,21.996,120.051,20.2,115.531,20.2L26.063,20.2C21.542,20.2,17.206,21.996,14.01,25.193C10.813,28.39,9.017,32.726,9.017,37.246Z"/>
  <path stroke-dasharray="none" clip-path="url(#clip0_60_2350)" stroke="none" stroke-linecap="round" stroke-linejoin="round" stroke-opacity="1" fill-rule="nonzero" fill-opacity="1" fill="#000000" stroke-miterlimit="4" stroke-width="3px" d="M11.217,53.008L53.161,86.564C58.166,90.569,64.386,92.751,70.797,92.751C77.208,92.751,83.428,90.569,88.433,86.563L130.377,53.008C132.905,50.985,133.315,47.296,131.292,44.768C129.269,42.239,125.58,41.829,123.052,43.852L81.108,77.408C78.181,79.75,74.545,81.025,70.797,81.025C67.049,81.025,63.412,79.75,60.486,77.408L18.542,43.852C16.013,41.829,12.324,42.239,10.301,44.768C8.279,47.296,8.689,50.985,11.217,53.008Z"/>
</g>
  <g id="Ultralight-L" transform="matrix(1.0,0.0,0.0,1.0,490.6491102094621,1443.3840407616583)">  <path stroke-linejoin="round" stroke-miterlimit="4" stroke-width="3px" stroke-dasharray="none" stroke-linecap="round" fill-opacity="1" stroke="none" fill="#000000" clip-path="url(#clip0_60_2350)" fill-rule="nonzero" stroke-opacity="1" d="M19.276,37.246C19.276,35.447,19.991,33.72,21.264,32.448C22.537,31.175,24.263,30.46,26.063,30.46L115.531,30.46C117.331,30.46,119.057,31.175,120.33,32.448C121.602,33.72,122.317,35.447,122.317,37.246L122.317,104.347C122.317,106.147,121.602,107.873,120.329,109.147C119.057,110.419,117.33,111.134,115.531,111.134L26.063,111.134C24.263,111.134,22.537,110.419,21.264,109.146C19.991,107.873,19.276,106.147,19.276,104.347L19.276,37.246ZM10.482,37.246L10.482,104.347C10.482,108.479,12.124,112.442,15.046,115.364C17.968,118.286,21.931,119.928,26.063,119.928L115.531,119.928C119.663,119.928,123.625,118.286,126.548,115.365C129.47,112.442,131.111,108.479,131.111,104.347L131.111,37.246C131.111,33.114,129.47,29.152,126.548,26.23C123.625,23.307,119.663,21.666,115.531,21.666L26.063,21.666C21.931,21.666,17.968,23.308,15.046,26.229C12.124,29.151,10.482,33.114,10.482,37.246Z"/>
  <path stroke-width="3px" stroke-linecap="round" fill-opacity="1" clip-path="url(#clip0_60_2350)" stroke-opacity="1" fill-rule="nonzero" stroke-miterlimit="4" stroke-linejoin="round" fill="#000000" stroke="none" stroke-dasharray="none" d="M12.133,51.863L54.076,85.419C58.822,89.216,64.719,91.285,70.797,91.285C76.875,91.285,82.772,89.216,87.518,85.419L129.461,51.863C131.357,50.346,131.665,47.579,130.148,45.683C128.631,43.787,125.864,43.48,123.967,44.997L82.024,78.552C78.837,81.102,74.878,82.491,70.797,82.491C66.716,82.491,62.756,81.102,59.57,78.553L17.626,44.997C15.73,43.48,12.963,43.787,11.446,45.683C9.929,47.579,10.236,50.346,12.133,51.863Z"/>
</g>
  <g id="Black-M" transform="matrix(1.0,0.0,0.0,1.0,2880.1444265189625,1030.7808887021092)">  <path fill-rule="nonzero" stroke="none" fill-opacity="1" stroke-dasharray="none" fill="#000000" stroke-width="3px" stroke-miterlimit="4" stroke-opacity="1" stroke-linejoin="round" stroke-linecap="round" clip-path="url(#clip0_60_2350)" d="M26.6,28.873C26.6,30.57,25.926,32.196,24.726,33.396C23.527,34.595,21.9,35.269,20.204,35.269L89.559,35.269C87.863,35.269,86.236,34.596,85.037,33.397C83.836,32.196,83.163,30.569,83.163,28.873L83.163,80.889C83.163,79.193,83.836,77.567,85.035,76.368C86.236,75.167,87.863,74.493,89.559,74.493L20.204,74.493C21.9,74.493,23.527,75.167,24.726,76.366C25.926,77.567,26.6,79.193,26.6,80.889L26.6,28.873ZM-3.531,28.873L-3.531,80.889C-3.531,87.184,-1.031,93.221,3.42,97.672C7.873,102.124,13.909,104.624,20.204,104.624L89.559,104.624C95.853,104.624,101.889,102.124,106.34,97.674C110.793,93.22,113.294,87.184,113.294,80.889L113.294,28.873C113.294,22.579,110.793,16.542,106.343,12.091C101.89,7.639,95.853,5.138,89.559,5.138L20.204,5.138C13.909,5.138,7.872,7.639,3.421,12.09C-1.03,16.541,-3.531,22.578,-3.531,28.873Z"/>
  <path fill-rule="nonzero" stroke-opacity="1" stroke="none" stroke-width="3px" stroke-miterlimit="4" fill-opacity="1" fill="#000000" clip-path="url(#clip0_60_2350)" stroke-dasharray="none" stroke-linecap="round" stroke-linejoin="round" d="M2.123,49.307L34.637,75.319C40.382,79.916,47.522,82.421,54.881,82.421C62.24,82.421,69.38,79.916,75.126,75.318L107.64,49.307C114.137,44.109,115.19,34.628,109.992,28.131C104.794,21.634,95.314,20.581,88.817,25.779L56.302,51.791C55.898,52.114,55.398,52.29,54.881,52.29C54.365,52.29,53.864,52.114,53.461,51.792L20.946,25.779C14.449,20.581,4.968,21.634,-0.23,28.131C-5.427,34.628,-4.374,44.109,2.123,49.307Z"/>
</g>
  <g id="Heavy-M" transform="matrix(1.0,0.0,0.0,1.0,2583.4344265189625,1030.7808887021092)">  <path stroke-opacity="1" stroke-miterlimit="4" stroke="none" fill-rule="nonzero" stroke-dasharray="none" fill="#000000" stroke-linecap="round" clip-path="url(#clip0_60_2350)" stroke-linejoin="round" fill-opacity="1" stroke-width="3px" d="M24.95,28.873C24.95,30.132,24.45,31.339,23.56,32.229C22.67,33.12,21.463,33.62,20.204,33.62L89.559,33.62C88.3,33.62,87.093,33.12,86.203,32.23C85.312,31.339,84.812,30.132,84.812,28.873L84.812,80.889C84.812,79.631,85.312,78.424,86.201,77.535C87.093,76.643,88.3,76.143,89.559,76.143L20.204,76.143C21.463,76.143,22.669,76.643,23.559,77.533C24.45,78.424,24.95,79.631,24.95,80.889L24.95,28.873ZM-1.881,28.873L-1.881,80.889C-1.881,86.746,0.445,92.364,4.587,96.505C8.73,100.648,14.347,102.975,20.204,102.975L89.559,102.975C95.415,102.975,101.032,100.648,105.174,96.507C109.317,92.363,111.644,86.746,111.644,80.889L111.644,28.873C111.644,23.016,109.317,17.399,105.176,13.257C101.033,9.115,95.416,6.788,89.559,6.788L20.204,6.788C14.346,6.788,8.729,9.115,4.587,13.257C0.445,17.398,-1.881,23.016,-1.881,28.873Z"/>
  <path fill-opacity="1" stroke-linejoin="round" fill-rule="nonzero" stroke="none" fill="#000000" clip-path="url(#clip0_60_2350)" stroke-miterlimit="4" stroke-dasharray="none" stroke-opacity="1" stroke-width="3px" stroke-linecap="round" d="M3.153,48.018L35.668,74.031C41.121,78.394,47.897,80.771,54.881,80.771C61.866,80.771,68.642,78.394,74.095,74.03L106.609,48.018C112.395,43.39,113.333,34.947,108.704,29.162C104.075,23.376,95.633,22.438,89.847,27.067L57.333,53.079C56.636,53.636,55.772,53.939,54.881,53.939C53.99,53.939,53.126,53.636,52.431,53.08L19.915,27.067C14.13,22.438,5.687,23.376,1.059,29.162C-3.57,34.947,-2.632,43.39,3.153,48.018Z"/>
</g>
  <g id="Bold-M" transform="matrix(1.0,0.0,0.0,1.0,2286.7244265189624,1030.7808887021092)">  <path stroke-width="3px" stroke-miterlimit="4" stroke-opacity="1" stroke-linecap="round" fill="#000000" fill-opacity="1" stroke-linejoin="round" stroke-dasharray="none" clip-path="url(#clip0_60_2350)" fill-rule="nonzero" stroke="none" d="M23.3,28.873C23.3,29.695,22.974,30.482,22.393,31.063C21.813,31.644,21.025,31.97,20.204,31.97L89.559,31.97C88.738,31.97,87.95,31.644,87.37,31.064C86.788,30.482,86.462,29.694,86.462,28.873L86.462,80.889C86.462,80.068,86.788,79.281,87.368,78.701C87.95,78.119,88.738,77.793,89.559,77.793L20.204,77.793C21.025,77.793,21.812,78.119,22.393,78.699C22.974,79.281,23.3,80.068,23.3,80.889L23.3,28.873ZM-0.232,28.873L-0.232,80.889C-0.232,86.309,1.921,91.506,5.753,95.339C9.587,99.172,14.784,101.325,20.204,101.325L89.559,101.325C94.978,101.325,100.175,99.172,104.008,95.341C107.841,91.506,109.994,86.309,109.994,80.889L109.994,28.873C109.994,23.454,107.841,18.256,104.009,14.424C100.176,10.591,94.978,8.438,89.559,8.438L20.204,8.438C14.784,8.438,9.586,10.591,5.754,14.423C1.921,18.256,-0.232,23.453,-0.232,28.873Z"/>
  <path fill-rule="nonzero" stroke-linejoin="round" stroke-dasharray="none" clip-path="url(#clip0_60_2350)" stroke-opacity="1" stroke="none" fill-opacity="1" stroke-linecap="round" stroke-width="3px" fill="#000000" stroke-miterlimit="4" d="M4.184,46.73L36.699,72.742C41.859,76.871,48.271,79.121,54.881,79.121C61.491,79.121,67.904,76.871,73.065,72.742L105.578,46.73C110.653,42.671,111.475,35.266,107.416,30.192C103.356,25.118,95.952,24.295,90.878,28.355L58.363,54.367C57.375,55.158,56.147,55.589,54.881,55.589C53.616,55.589,52.388,55.158,51.4,54.368L18.885,28.355C13.81,24.295,6.406,25.118,2.347,30.192C-1.713,35.266,-0.89,42.671,4.184,46.73Z"/>
</g>
  <g id="Semibold-M" transform="matrix(1.0,0.0,0.0,1.0,1990.0144265189629,1030.7808887021092)">  <path fill-opacity="1" stroke-miterlimit="4" stroke-width="3px" clip-path="url(#clip0_60_2350)" stroke-linecap="round" stroke-dasharray="none" stroke="none" stroke-linejoin="round" stroke-opacity="1" fill="#000000" fill-rule="nonzero" d="M21.651,28.873C21.651,29.257,21.498,29.625,21.227,29.896C20.956,30.168,20.588,30.32,20.204,30.32L89.559,30.32C89.175,30.32,88.807,30.168,88.536,29.897C88.264,29.625,88.112,29.257,88.112,28.873L88.112,80.889C88.112,80.506,88.264,80.138,88.535,79.867C88.807,79.595,89.175,79.442,89.559,79.442L20.204,79.442C20.588,79.442,20.955,79.595,21.226,79.866C21.498,80.138,21.651,80.506,21.651,80.889L21.651,28.873ZM1.418,28.873L1.418,80.889C1.418,85.871,3.397,90.649,6.92,94.173C10.444,97.696,15.222,99.675,20.204,99.675L89.559,99.675C94.541,99.675,99.318,97.696,102.841,94.174C106.365,90.649,108.344,85.871,108.344,80.889L108.344,28.873C108.344,23.891,106.365,19.113,102.843,15.59C99.319,12.067,94.541,10.087,89.559,10.087L20.204,10.087C15.222,10.087,10.443,12.067,6.92,15.59C3.397,19.113,1.418,23.891,1.418,28.873Z"/>
  <path fill-opacity="1" stroke-opacity="1" stroke-dasharray="none" fill="#000000" stroke="none" clip-path="url(#clip0_60_2350)" stroke-linecap="round" stroke-miterlimit="4" fill-rule="nonzero" stroke-width="3px" stroke-linejoin="round" d="M5.215,45.442L37.729,71.454C42.597,75.349,48.646,77.471,54.881,77.471C61.116,77.471,67.166,75.349,72.034,71.454L104.548,45.442C108.911,41.952,109.618,35.586,106.128,31.223C102.637,26.86,96.271,26.153,91.908,29.643L59.394,55.655C58.113,56.68,56.521,57.239,54.881,57.239C53.241,57.239,51.65,56.681,50.369,55.656L17.854,29.643C13.491,26.153,7.125,26.86,3.635,31.223C0.145,35.586,0.852,41.952,5.215,45.442Z"/>
</g>
  <g id="Medium-M" transform="matrix(1.0,0.0,0.0,1.0,1693.3044265189628,1030.7808887021092)">  <path clip-path="url(#clip0_60_2350)" stroke-opacity="1" stroke-linecap="round" stroke-miterlimit="4" fill-opacity="1" stroke-dasharray="none" fill-rule="nonzero" stroke-width="3px" fill="#000000" stroke-linejoin="round" stroke="none" d="M20.001,28.873C20.001,28.819,20.022,28.768,20.06,28.73C20.098,28.692,20.15,28.67,20.204,28.67L89.559,28.67C89.613,28.67,89.664,28.692,89.703,28.73C89.74,28.768,89.761,28.819,89.761,28.873L89.761,80.889C89.761,80.943,89.74,80.995,89.701,81.034C89.664,81.071,89.612,81.092,89.559,81.092L20.204,81.092C20.15,81.092,20.098,81.071,20.06,81.032C20.022,80.995,20.001,80.943,20.001,80.889L20.001,28.873ZM3.068,28.873L3.068,80.889C3.068,85.434,4.873,89.792,8.086,93.006C11.301,96.22,15.659,98.025,20.204,98.025L89.559,98.025C94.103,98.025,98.461,96.22,101.675,93.007C104.89,89.792,106.695,85.434,106.695,80.889L106.695,28.873C106.695,24.329,104.889,19.97,101.676,16.757C98.462,13.542,94.103,11.737,89.559,11.737L20.204,11.737C15.659,11.737,11.3,13.543,8.087,16.756C4.873,19.97,3.068,24.328,3.068,28.873Z"/>
  <path stroke="none" stroke-linejoin="round" stroke-opacity="1" clip-path="url(#clip0_60_2350)" fill-rule="nonzero" fill-opacity="1" stroke-dasharray="none" stroke-width="3px" fill="#000000" stroke-linecap="round" stroke-miterlimit="4" d="M6.245,44.154L38.76,70.166C43.335,73.827,49.021,75.822,54.881,75.822C60.742,75.822,66.427,73.827,71.003,70.166L103.517,44.154C107.169,41.233,107.761,35.905,104.839,32.253C101.918,28.602,96.59,28.01,92.939,30.931L60.424,56.944C58.851,58.203,56.896,58.888,54.881,58.888C52.866,58.888,50.912,58.203,49.339,56.944L16.824,30.931C13.172,28.01,7.844,28.602,4.923,32.253C2.002,35.905,2.594,41.233,6.245,44.154Z"/>
</g>
  <g id="Regular-M" transform="matrix(1.0,0.0,0.0,1.0,1396.5944265189628,1030.7808887021092)">  <path stroke-linejoin="round" stroke-width="3px" fill-rule="nonzero" fill="#000000" stroke-miterlimit="4" stroke-dasharray="none" stroke-opacity="1" stroke="none" clip-path="url(#clip0_60_2350)" stroke-linecap="round" fill-opacity="1" d="M18.351,28.873C18.351,28.382,18.546,27.911,18.894,27.563C19.241,27.216,19.712,27.021,20.204,27.021L89.559,27.021C90.05,27.021,90.521,27.216,90.869,27.564C91.216,27.911,91.411,28.382,91.411,28.873L91.411,80.889C91.411,81.381,91.216,81.852,90.868,82.2C90.521,82.547,90.05,82.742,89.559,82.742L20.204,82.742C19.712,82.742,19.241,82.547,18.894,82.199C18.547,81.852,18.351,81.381,18.351,80.889L18.351,28.873ZM4.717,28.873L4.717,80.889C4.717,84.996,6.349,88.935,9.253,91.84C12.158,94.744,16.097,96.376,20.204,96.376L89.559,96.376C93.666,96.376,97.604,94.744,100.509,91.841C103.414,88.935,105.045,84.996,105.045,80.889L105.045,28.873C105.045,24.766,103.414,20.827,100.51,17.923C97.605,15.018,93.666,13.387,89.559,13.387L20.204,13.387C16.097,13.387,12.158,15.018,9.253,17.923C6.349,20.827,4.717,24.766,4.717,28.873Z"/>
  <path fill-opacity="1" stroke-miterlimit="4" clip-path="url(#clip0_60_2350)" stroke-linejoin="round" stroke-width="3px" stroke="none" fill="#000000" fill-rule="nonzero" stroke-opacity="1" stroke-dasharray="none" stroke-linecap="round" d="M7.276,42.866L39.79,68.878C44.073,72.305,49.395,74.172,54.881,74.172C60.367,74.172,65.689,72.305,69.973,68.878L102.487,42.866C105.427,40.514,105.903,36.224,103.551,33.284C101.199,30.344,96.909,29.868,93.97,32.219L61.455,58.232C59.589,59.725,57.271,60.538,54.881,60.538C52.492,60.538,50.173,59.725,48.308,58.232L15.793,32.219C12.853,29.868,8.563,30.344,6.211,33.284C3.859,36.224,4.336,40.514,7.276,42.866Z"/>
</g>
  <g id="Light-M" transform="matrix(1.0,0.0,0.0,1.0,1099.884426518963,1030.7808887021092)">  <path stroke-width="3px" fill-rule="nonzero" stroke-linecap="round" stroke-miterlimit="4" fill-opacity="1" stroke-opacity="1" clip-path="url(#clip0_60_2350)" stroke-dasharray="none" stroke-linejoin="round" stroke="none" fill="#000000" d="M17.215,28.873C17.215,28.081,17.53,27.32,18.091,26.76C18.651,26.199,19.411,25.885,20.204,25.885L89.559,25.885C90.351,25.885,91.112,26.2,91.672,26.76C92.232,27.32,92.547,28.081,92.547,28.873L92.547,80.889C92.547,81.682,92.232,82.442,91.672,83.003C91.112,83.563,90.351,83.878,89.559,83.878L20.204,83.878C19.411,83.878,18.651,83.563,18.09,83.002C17.53,82.442,17.215,81.682,17.215,80.889L17.215,28.873ZM5.854,28.873L5.854,80.889C5.854,84.695,7.365,88.345,10.056,91.036C12.748,93.728,16.398,95.24,20.204,95.24L89.559,95.24C93.364,95.24,97.014,93.728,99.705,91.037C102.397,88.345,103.909,84.695,103.909,80.889L103.909,28.873C103.909,25.068,102.397,21.418,99.706,18.726C97.014,16.035,93.364,14.523,89.559,14.523L20.204,14.523C16.398,14.523,12.748,16.035,10.057,18.726C7.365,21.417,5.854,25.067,5.854,28.873Z"/>
  <path fill="#000000" stroke-width="3px" stroke="none" stroke-opacity="1" fill-rule="nonzero" stroke-dasharray="none" stroke-linejoin="round" fill-opacity="1" stroke-linecap="round" clip-path="url(#clip0_60_2350)" stroke-miterlimit="4" d="M7.986,41.978L40.5,67.991C44.581,71.257,49.653,73.036,54.881,73.036C60.109,73.036,65.181,71.256,69.263,67.99L101.777,41.978C104.227,40.019,104.624,36.444,102.664,33.994C100.704,31.544,97.129,31.147,94.679,33.107L62.165,59.119C60.097,60.773,57.529,61.674,54.881,61.674C52.234,61.674,49.665,60.773,47.598,59.119L15.083,33.107C12.633,31.147,9.058,31.544,7.098,33.994C5.139,36.444,5.536,40.019,7.986,41.978Z"/>
</g>
  <g id="Thin-M" transform="matrix(1.0,0.0,0.0,1.0,803.174426518963,1030.7808887021092)">  <path fill="#000000" fill-rule="nonzero" stroke-dasharray="none" stroke="none" stroke-linecap="round" stroke-linejoin="round" stroke-width="3px" clip-path="url(#clip0_60_2350)" fill-opacity="1" stroke-opacity="1" stroke-miterlimit="4" d="M16.079,28.873C16.079,27.779,16.514,26.73,17.287,25.957C18.061,25.183,19.11,24.748,20.204,24.748L89.559,24.748C90.653,24.748,91.702,25.183,92.476,25.957C93.249,26.73,93.683,27.779,93.683,28.873L93.683,80.889C93.683,81.983,93.249,83.033,92.475,83.807C91.702,84.579,90.653,85.014,89.559,85.014L20.204,85.014C19.11,85.014,18.061,84.58,17.287,83.806C16.514,83.033,16.079,81.983,16.079,80.889L16.079,28.873ZM6.99,28.873L6.99,80.889C6.99,84.394,8.382,87.755,10.86,90.233C13.338,92.711,16.699,94.103,20.204,94.103L89.559,94.103C93.063,94.103,96.424,92.711,98.902,90.234C101.381,87.754,102.773,84.394,102.773,80.889L102.773,28.873C102.773,25.369,101.381,22.008,98.903,19.53C96.424,17.051,93.063,15.659,89.559,15.659L20.204,15.659C16.699,15.659,13.338,17.051,10.86,19.529C8.382,22.008,6.99,25.369,6.99,28.873Z"/>
  <path stroke-dasharray="none" clip-path="url(#clip0_60_2350)" stroke="none" stroke-linecap="round" stroke-linejoin="round" stroke-opacity="1" fill-rule="nonzero" fill-opacity="1" fill="#000000" stroke-miterlimit="4" stroke-width="3px" d="M8.695,41.091L41.21,67.104C45.09,70.208,49.911,71.9,54.881,71.9C59.851,71.9,64.673,70.208,68.553,67.103L101.067,41.091C103.027,39.523,103.345,36.663,101.777,34.704C100.209,32.744,97.349,32.426,95.389,33.994L62.874,60.006C60.606,61.822,57.787,62.81,54.881,62.81C51.976,62.81,49.157,61.822,46.888,60.006L14.373,33.994C12.414,32.426,9.554,32.744,7.986,34.704C6.418,36.663,6.735,39.523,8.695,41.091Z"/>
</g>
  <g id="Ultralight-M" transform="matrix(1.0,0.0,0.0,1.0,506.46442651896285,1030.7808887021092)">  <path stroke-linejoin="round" stroke-miterlimit="4" stroke-width="3px" stroke-dasharray="none" stroke-linecap="round" fill-opacity="1" stroke="none" fill="#000000" clip-path="url(#clip0_60_2350)" fill-rule="nonzero" stroke-opacity="1" d="M14.943,28.873C14.943,27.478,15.497,26.14,16.484,25.153C17.47,24.167,18.808,23.612,20.204,23.612L89.559,23.612C90.954,23.612,92.292,24.167,93.279,25.153C94.265,26.14,94.82,27.478,94.82,28.873L94.82,80.889C94.82,82.285,94.265,83.623,93.279,84.61C92.292,85.596,90.954,86.15,89.559,86.15L20.204,86.15C18.809,86.15,17.47,85.596,16.484,84.609C15.497,83.623,14.943,82.285,14.943,80.889L14.943,28.873ZM8.126,28.873L8.126,80.889C8.126,84.092,9.398,87.164,11.663,89.43C13.929,91.695,17.001,92.967,20.204,92.967L89.559,92.967C92.762,92.967,95.834,91.695,98.099,89.43C100.364,87.164,101.637,84.092,101.637,80.889L101.637,28.873C101.637,25.67,100.364,22.598,98.099,20.333C95.834,18.068,92.762,16.795,89.559,16.795L20.204,16.795C17.001,16.795,13.929,18.068,11.663,20.333C9.398,22.598,8.126,25.67,8.126,28.873Z"/>
  <path stroke-width="3px" stroke-linecap="round" fill-opacity="1" clip-path="url(#clip0_60_2350)" stroke-opacity="1" fill-rule="nonzero" stroke-miterlimit="4" stroke-linejoin="round" fill="#000000" stroke="none" stroke-dasharray="none" d="M9.405,40.204L41.92,66.216C45.598,69.16,50.169,70.764,54.881,70.764C59.593,70.764,64.164,69.16,67.843,66.216L100.357,40.204C101.827,39.028,102.066,36.883,100.89,35.413C99.714,33.943,97.569,33.705,96.099,34.881L63.584,60.893C61.114,62.87,58.045,63.947,54.881,63.947C51.718,63.947,48.648,62.87,46.178,60.893L13.664,34.881C12.194,33.705,10.049,33.943,8.873,35.413C7.697,36.883,7.935,39.028,9.405,40.204Z"/>
</g>
  <g id="Black-S" transform="matrix(1.0,0.0,0.0,1.0,2891.978645964348,613.7985300920327)">  <path fill-rule="nonzero" stroke="none" fill-opacity="1" stroke-dasharray="none" fill="#000000" stroke-width="3px" stroke-miterlimit="4" stroke-opacity="1" stroke-linejoin="round" stroke-linecap="round" clip-path="url(#clip0_60_2350)" d="M20.828,22.608C20.828,23.936,20.3,25.21,19.361,26.149C18.422,27.088,17.148,27.616,15.82,27.616L70.125,27.616C68.796,27.616,67.523,27.088,66.584,26.15C65.644,25.209,65.116,23.936,65.116,22.608L65.116,63.336C65.116,62.008,65.644,60.735,66.582,59.796C67.523,58.856,68.796,58.328,70.125,58.328L15.82,58.328C17.148,58.328,18.421,58.856,19.36,59.795C20.3,60.735,20.828,62.008,20.828,63.336L20.828,22.608ZM-2.765,22.608L-2.765,63.336C-2.765,68.265,-0.807,72.992,2.678,76.477C6.164,79.963,10.891,81.921,15.82,81.921L70.125,81.921C75.053,81.921,79.779,79.963,83.265,76.479C86.751,72.991,88.709,68.265,88.709,63.336L88.709,22.608C88.709,17.679,86.751,12.952,83.266,9.467C79.78,5.981,75.053,4.023,70.125,4.023L15.82,4.023C10.891,4.023,6.164,5.981,2.679,9.466C-0.807,12.952,-2.765,17.679,-2.765,22.608Z"/>
  <path fill-rule="nonzero" stroke-opacity="1" stroke="none" stroke-width="3px" stroke-miterlimit="4" fill-opacity="1" fill="#000000" clip-path="url(#clip0_60_2350)" stroke-dasharray="none" stroke-linecap="round" stroke-linejoin="round" d="M1.662,38.607L27.121,58.975C31.619,62.574,37.21,64.535,42.972,64.535C48.734,64.535,54.325,62.574,58.824,58.974L84.282,38.607C89.369,34.537,90.194,27.114,86.124,22.027C82.054,16.939,74.631,16.115,69.543,20.185L44.085,40.552C43.768,40.805,43.376,40.943,42.972,40.943C42.568,40.943,42.176,40.805,41.86,40.553L16.401,20.185C11.313,16.115,3.89,16.939,-0.18,22.027C-4.25,27.114,-3.425,34.537,1.662,38.607Z"/>
</g>
  <g id="Heavy-S" transform="matrix(1.0,0.0,0.0,1.0,2595.268645964348,613.7985300920327)">  <path stroke-opacity="1" stroke-miterlimit="4" stroke="none" fill-rule="nonzero" stroke-dasharray="none" fill="#000000" stroke-linecap="round" clip-path="url(#clip0_60_2350)" stroke-linejoin="round" fill-opacity="1" stroke-width="3px" d="M19.536,22.608C19.536,23.593,19.144,24.539,18.447,25.236C17.75,25.933,16.805,26.324,15.82,26.324L70.125,26.324C69.139,26.324,68.194,25.933,67.497,25.236C66.799,24.538,66.408,23.593,66.408,22.608L66.408,63.336C66.408,62.351,66.799,61.406,67.496,60.71C68.194,60.011,69.139,59.62,70.125,59.62L15.82,59.62C16.805,59.62,17.75,60.011,18.447,60.708C19.144,61.406,19.536,62.351,19.536,63.336L19.536,22.608ZM-1.473,22.608L-1.473,63.336C-1.473,67.922,0.349,72.321,3.591,75.564C6.835,78.807,11.233,80.629,15.82,80.629L70.125,80.629C74.71,80.629,79.108,78.807,82.351,75.565C85.595,72.32,87.417,67.922,87.417,63.336L87.417,22.608C87.417,18.022,85.595,13.623,82.353,10.38C79.109,7.137,74.711,5.315,70.125,5.315L15.82,5.315C11.233,5.315,6.835,7.137,3.592,10.38C0.349,13.623,-1.473,18.021,-1.473,22.608Z"/>
  <path fill-opacity="1" stroke-linejoin="round" fill-rule="nonzero" stroke="none" fill="#000000" clip-path="url(#clip0_60_2350)" stroke-miterlimit="4" stroke-dasharray="none" stroke-opacity="1" stroke-width="3px" stroke-linecap="round" d="M2.469,37.598L27.928,57.966C32.197,61.382,37.503,63.244,42.972,63.244C48.441,63.244,53.747,61.382,58.017,57.966L83.475,37.598C88.005,33.974,88.739,27.364,85.115,22.834C81.491,18.303,74.881,17.569,70.35,21.193L44.891,41.561C44.346,41.997,43.67,42.234,42.972,42.234C42.274,42.234,41.598,41.997,41.053,41.561L15.594,21.193C11.063,17.569,4.453,18.303,0.829,22.834C-2.795,27.364,-2.061,33.974,2.469,37.598Z"/>
</g>
  <g id="Bold-S" transform="matrix(1.0,0.0,0.0,1.0,2298.5586459643478,613.7985300920327)">  <path stroke-width="3px" stroke-miterlimit="4" stroke-opacity="1" stroke-linecap="round" fill="#000000" fill-opacity="1" stroke-linejoin="round" stroke-dasharray="none" clip-path="url(#clip0_60_2350)" fill-rule="nonzero" stroke="none" d="M18.244,22.608C18.244,23.251,17.989,23.868,17.534,24.322C17.079,24.777,16.463,25.032,15.82,25.032L70.125,25.032C69.481,25.032,68.865,24.777,68.411,24.323C67.955,23.867,67.7,23.251,67.7,22.608L67.7,63.336C67.7,62.693,67.955,62.077,68.409,61.623C68.865,61.167,69.481,60.912,70.125,60.912L15.82,60.912C16.463,60.912,17.079,61.167,17.534,61.622C17.989,62.077,18.244,62.693,18.244,63.336L18.244,22.608ZM-0.181,22.608L-0.181,63.336C-0.181,67.58,1.504,71.65,4.505,74.65C7.506,77.652,11.576,79.337,15.82,79.337L70.125,79.337C74.368,79.337,78.437,77.652,81.438,74.652C84.44,71.649,86.125,67.58,86.125,63.336L86.125,22.608C86.125,18.364,84.44,14.295,81.439,11.294C78.438,8.292,74.368,6.607,70.125,6.607L15.82,6.607C11.576,6.607,7.506,8.293,4.505,11.293C1.504,14.294,-0.181,18.364,-0.181,22.608Z"/>
  <path fill-rule="nonzero" stroke-linejoin="round" stroke-dasharray="none" clip-path="url(#clip0_60_2350)" stroke-opacity="1" stroke="none" fill-opacity="1" stroke-linecap="round" stroke-width="3px" fill="#000000" stroke-miterlimit="4" d="M3.276,36.59L28.735,56.957C32.775,60.19,37.797,61.952,42.972,61.952C48.147,61.952,53.169,60.19,57.21,56.957L82.668,36.59C86.641,33.411,87.285,27.614,84.107,23.641C80.928,19.667,75.13,19.023,71.157,22.202L45.698,42.57C44.924,43.189,43.963,43.526,42.972,43.526C41.981,43.526,41.02,43.189,40.246,42.57L14.787,22.202C10.814,19.023,5.016,19.667,1.837,23.641C-1.341,27.614,-0.697,33.411,3.276,36.59Z"/>
</g>
  <g id="Semibold-S" transform="matrix(1.0,0.0,0.0,1.0,2001.848645964348,613.7985300920327)">  <path fill-opacity="1" stroke-miterlimit="4" stroke-width="3px" clip-path="url(#clip0_60_2350)" stroke-linecap="round" stroke-dasharray="none" stroke="none" stroke-linejoin="round" stroke-opacity="1" fill="#000000" fill-rule="nonzero" d="M16.953,22.608C16.953,22.908,16.833,23.196,16.621,23.409C16.408,23.621,16.12,23.741,15.82,23.741L70.125,23.741C69.824,23.741,69.536,23.621,69.324,23.409C69.111,23.196,68.992,22.908,68.992,22.608L68.992,63.336C68.992,63.036,69.111,62.748,69.323,62.536C69.536,62.323,69.824,62.203,70.125,62.203L15.82,62.203C16.12,62.203,16.408,62.323,16.62,62.535C16.833,62.748,16.953,63.036,16.953,63.336L16.953,22.608ZM1.11,22.608L1.11,63.336C1.11,67.237,2.66,70.978,5.418,73.737C8.177,76.496,11.919,78.046,15.82,78.046L70.125,78.046C74.025,78.046,77.766,76.496,80.525,73.738C83.284,70.978,84.834,67.237,84.834,63.336L84.834,22.608C84.834,18.707,83.284,14.966,80.526,12.207C77.766,9.448,74.025,7.899,70.125,7.899L15.82,7.899C11.918,7.899,8.177,9.448,5.419,12.207C2.66,14.965,1.11,18.707,1.11,22.608Z"/>
  <path fill-opacity="1" stroke-opacity="1" stroke-dasharray="none" fill="#000000" stroke="none" clip-path="url(#clip0_60_2350)" stroke-linecap="round" stroke-miterlimit="4" fill-rule="nonzero" stroke-width="3px" stroke-linejoin="round" d="M4.083,35.581L29.542,55.949C33.353,58.998,38.09,60.66,42.972,60.66C47.854,60.66,52.591,58.998,56.403,55.948L81.861,35.581C85.277,32.848,85.831,27.864,83.098,24.447C80.365,21.031,75.38,20.478,71.964,23.211L46.505,43.578C45.502,44.381,44.256,44.818,42.972,44.818C41.688,44.818,40.442,44.381,39.439,43.579L13.98,23.211C10.564,20.478,5.579,21.031,2.846,24.447C0.113,27.864,0.667,32.848,4.083,35.581Z"/>
</g>
  <g id="Medium-S" transform="matrix(1.0,0.0,0.0,1.0,1705.138645964348,613.7985300920327)">  <path clip-path="url(#clip0_60_2350)" stroke-opacity="1" stroke-linecap="round" stroke-miterlimit="4" fill-opacity="1" stroke-dasharray="none" fill-rule="nonzero" stroke-width="3px" fill="#000000" stroke-linejoin="round" stroke="none" d="M15.661,22.608C15.661,22.566,15.678,22.525,15.707,22.495C15.737,22.466,15.777,22.449,15.82,22.449L70.125,22.449C70.167,22.449,70.207,22.466,70.237,22.496C70.266,22.525,70.283,22.566,70.283,22.608L70.283,63.336C70.283,63.378,70.266,63.419,70.236,63.449C70.207,63.478,70.167,63.495,70.125,63.495L15.82,63.495C15.777,63.495,15.737,63.478,15.707,63.448C15.678,63.419,15.661,63.378,15.661,63.336L15.661,22.608ZM2.402,22.608L2.402,63.336C2.402,66.895,3.816,70.307,6.332,72.824C8.849,75.34,12.261,76.754,15.82,76.754L70.125,76.754C73.683,76.754,77.095,75.34,79.612,72.825C82.129,70.307,83.542,66.895,83.542,63.336L83.542,22.608C83.542,19.049,82.128,15.637,79.613,13.12C77.095,10.604,73.683,9.19,70.125,9.19L15.82,9.19C12.261,9.19,8.848,10.604,6.332,13.12C3.816,15.636,2.402,19.049,2.402,22.608Z"/>
  <path stroke="none" stroke-linejoin="round" stroke-opacity="1" clip-path="url(#clip0_60_2350)" fill-rule="nonzero" fill-opacity="1" stroke-dasharray="none" stroke-width="3px" fill="#000000" stroke-linecap="round" stroke-miterlimit="4" d="M4.89,34.572L30.349,54.94C33.931,57.807,38.383,59.368,42.972,59.368C47.561,59.368,52.013,57.807,55.596,54.94L81.054,34.572C83.913,32.285,84.376,28.113,82.089,25.254C79.802,22.395,75.63,21.932,72.771,24.219L47.312,44.587C46.08,45.573,44.55,46.11,42.972,46.11C41.394,46.11,39.864,45.573,38.632,44.587L13.173,24.219C10.314,21.932,6.142,22.395,3.855,25.254C1.568,28.113,2.031,32.285,4.89,34.572Z"/>
</g>
  <g id="Regular-S" transform="matrix(1.0,0.0,0.0,1.0,1408.4286459643479,613.7985300920327)">  <path stroke-linejoin="round" stroke-width="3px" fill-rule="nonzero" fill="#000000" stroke-miterlimit="4" stroke-dasharray="none" stroke-opacity="1" stroke="none" clip-path="url(#clip0_60_2350)" stroke-linecap="round" fill-opacity="1" d="M14.369,22.608C14.369,22.223,14.522,21.854,14.794,21.582C15.066,21.31,15.435,21.157,15.82,21.157L70.125,21.157C70.509,21.157,70.878,21.31,71.151,21.582C71.422,21.854,71.575,22.223,71.575,22.608L71.575,63.336C71.575,63.721,71.422,64.09,71.15,64.363C70.878,64.634,70.509,64.787,70.125,64.787L15.82,64.787C15.435,64.787,15.066,64.634,14.794,64.362C14.522,64.09,14.369,63.721,14.369,63.336L14.369,22.608ZM3.694,22.608L3.694,63.336C3.694,66.552,4.971,69.636,7.245,71.91C9.52,74.185,12.604,75.462,15.82,75.462L70.125,75.462C73.34,75.462,76.424,74.185,78.698,71.911C80.973,69.636,82.25,66.552,82.25,63.336L82.25,22.608C82.25,19.392,80.973,16.308,78.699,14.034C76.424,11.759,73.34,10.482,70.125,10.482L15.82,10.482C12.604,10.482,9.519,11.759,7.245,14.033C4.971,16.308,3.694,19.392,3.694,22.608Z"/>
  <path fill-opacity="1" stroke-miterlimit="4" clip-path="url(#clip0_60_2350)" stroke-linejoin="round" stroke-width="3px" stroke="none" fill="#000000" fill-rule="nonzero" stroke-opacity="1" stroke-dasharray="none" stroke-linecap="round" d="M5.697,33.564L31.156,53.931C34.509,56.615,38.677,58.077,42.972,58.077C47.267,58.077,51.435,56.615,54.788,53.931L80.247,33.564C82.549,31.722,82.922,28.363,81.081,26.061C79.239,23.759,75.88,23.386,73.578,25.228L48.119,45.595C46.658,46.765,44.843,47.401,42.972,47.401C41.101,47.401,39.286,46.765,37.825,45.596L12.366,25.228C10.064,23.386,6.705,23.759,4.863,26.061C3.022,28.363,3.395,31.722,5.697,33.564Z"/>
</g>
  <g id="Light-S" transform="matrix(1.0,0.0,0.0,1.0,1111.718645964348,613.7985300920327)">  <path stroke-width="3px" fill-rule="nonzero" stroke-linecap="round" stroke-miterlimit="4" fill-opacity="1" stroke-opacity="1" clip-path="url(#clip0_60_2350)" stroke-dasharray="none" stroke-linejoin="round" stroke="none" fill="#000000" d="M13.479,22.608C13.479,21.987,13.726,21.392,14.165,20.953C14.604,20.514,15.199,20.268,15.82,20.268L70.125,20.268C70.745,20.268,71.34,20.514,71.78,20.953C72.218,21.392,72.465,21.987,72.465,22.608L72.465,63.336C72.465,63.957,72.218,64.552,71.779,64.992C71.34,65.43,70.745,65.676,70.125,65.676L15.82,65.676C15.199,65.676,14.604,65.43,14.165,64.991C13.726,64.552,13.479,63.957,13.479,63.336L13.479,22.608ZM4.583,22.608L4.583,63.336C4.583,66.316,5.767,69.174,7.874,71.281C9.982,73.389,12.84,74.573,15.82,74.573L70.125,74.573C73.104,74.573,75.962,73.389,78.069,71.282C80.177,69.174,81.361,66.316,81.361,63.336L81.361,22.608C81.361,19.628,80.177,16.77,78.07,14.663C75.962,12.555,73.104,11.372,70.125,11.372L15.82,11.372C12.84,11.372,9.982,12.555,7.874,14.662C5.767,16.77,4.583,19.628,4.583,22.608Z"/>
  <path fill="#000000" stroke-width="3px" stroke="none" stroke-opacity="1" fill-rule="nonzero" stroke-dasharray="none" stroke-linejoin="round" fill-opacity="1" stroke-linecap="round" clip-path="url(#clip0_60_2350)" stroke-miterlimit="4" d="M6.253,32.869L31.712,53.237C34.907,55.794,38.879,57.187,42.972,57.187C47.065,57.187,51.037,55.794,54.233,53.237L79.691,32.869C81.61,31.334,81.921,28.535,80.386,26.617C78.851,24.699,76.052,24.388,74.134,25.923L48.675,46.29C47.056,47.585,45.045,48.291,42.972,48.291C40.899,48.291,38.888,47.585,37.269,46.29L11.81,25.923C9.892,24.388,7.093,24.699,5.558,26.617C4.023,28.535,4.334,31.334,6.253,32.869Z"/>
</g>
  <g id="Thin-S" transform="matrix(1.0,0.0,0.0,1.0,815.0086459643479,613.7985300920327)">  <path fill="#000000" fill-rule="nonzero" stroke-dasharray="none" stroke="none" stroke-linecap="round" stroke-linejoin="round" stroke-width="3px" clip-path="url(#clip0_60_2350)" fill-opacity="1" stroke-opacity="1" stroke-miterlimit="4" d="M12.59,22.608C12.59,21.751,12.93,20.93,13.536,20.324C14.142,19.718,14.963,19.378,15.82,19.378L70.125,19.378C70.981,19.378,71.803,19.718,72.409,20.324C73.014,20.93,73.354,21.751,73.354,22.608L73.354,63.336C73.354,64.193,73.014,65.015,72.408,65.621C71.803,66.226,70.981,66.566,70.125,66.566L15.82,66.566C14.963,66.566,14.141,66.226,13.536,65.62C12.93,65.014,12.59,64.193,12.59,63.336L12.59,22.608ZM5.473,22.608L5.473,63.336C5.473,66.08,6.563,68.712,8.503,70.652C10.444,72.593,13.076,73.683,15.82,73.683L70.125,73.683C72.868,73.683,75.5,72.593,77.44,70.653C79.381,68.712,80.471,66.08,80.471,63.336L80.471,22.608C80.471,19.864,79.381,17.232,77.441,15.292C75.5,13.351,72.868,12.261,70.125,12.261L15.82,12.261C13.075,12.261,10.444,13.351,8.503,15.292C6.563,17.232,5.473,19.864,5.473,22.608Z"/>
  <path stroke-dasharray="none" clip-path="url(#clip0_60_2350)" stroke="none" stroke-linecap="round" stroke-linejoin="round" stroke-opacity="1" fill-rule="nonzero" fill-opacity="1" fill="#000000" stroke-miterlimit="4" stroke-width="3px" d="M6.808,32.174L32.267,52.542C35.305,54.973,39.081,56.297,42.972,56.297C46.863,56.297,50.639,54.973,53.677,52.542L79.136,32.174C80.67,30.947,80.919,28.707,79.691,27.173C78.464,25.638,76.224,25.389,74.69,26.617L49.231,46.985C47.454,48.406,45.247,49.181,42.972,49.181C40.697,49.181,38.49,48.406,36.713,46.985L11.254,26.617C9.72,25.389,7.48,25.638,6.253,27.173C5.025,28.707,5.274,30.947,6.808,32.174Z"/>
</g>
  <g id="Ultralight-S" transform="matrix(1.0,0.0,0.0,1.0,518.2986459643479,613.7985300920327)">  <path stroke-linejoin="round" stroke-miterlimit="4" stroke-width="3px" stroke-dasharray="none" stroke-linecap="round" fill-opacity="1" stroke="none" fill="#000000" clip-path="url(#clip0_60_2350)" fill-rule="nonzero" stroke-opacity="1" d="M11.7,22.608C11.7,21.515,12.134,20.467,12.907,19.695C13.679,18.922,14.727,18.488,15.82,18.488L70.125,18.488C71.217,18.488,72.265,18.922,73.038,19.695C73.81,20.467,74.244,21.515,74.244,22.608L74.244,63.336C74.244,64.429,73.81,65.477,73.037,66.25C72.265,67.022,71.217,67.456,70.125,67.456L15.82,67.456C14.727,67.456,13.679,67.022,12.907,66.249C12.134,65.477,11.7,64.429,11.7,63.336L11.7,22.608ZM6.363,22.608L6.363,63.336C6.363,65.844,7.359,68.25,9.132,70.023C10.906,71.797,13.312,72.793,15.82,72.793L70.125,72.793C72.632,72.793,75.038,71.797,76.811,70.024C78.585,68.25,79.581,65.844,79.581,63.336L79.581,22.608C79.581,20.1,78.585,17.694,76.812,15.921C75.038,14.147,72.632,13.151,70.125,13.151L15.82,13.151C13.311,13.151,10.906,14.147,9.132,15.921C7.359,17.694,6.363,20.1,6.363,22.608Z"/>
  <path stroke-width="3px" stroke-linecap="round" fill-opacity="1" clip-path="url(#clip0_60_2350)" stroke-opacity="1" fill-rule="nonzero" stroke-miterlimit="4" stroke-linejoin="round" fill="#000000" stroke="none" stroke-dasharray="none" d="M7.364,31.48L32.823,51.847C35.703,54.152,39.283,55.408,42.972,55.408C46.661,55.408,50.241,54.152,53.121,51.847L78.58,31.48C79.731,30.559,79.917,28.88,78.997,27.729C78.076,26.578,76.396,26.391,75.245,27.312L49.786,47.679C47.852,49.227,45.449,50.07,42.972,50.07C40.495,50.07,38.092,49.227,36.158,47.68L10.699,27.312C9.548,26.391,7.868,26.578,6.947,27.729C6.027,28.88,6.213,30.559,7.364,31.48Z"/>
</g>
 </g>
</svg>
