<?xml version="1.0" encoding="UTF-8"?>
<!-- Generator: CustomSymbols v2.6.2.41 by @serious_bret https://bretlester.com/app_content/CustomSymbols/ -->
<!-- Guides: Left/Right 0.0/0.0 Cap/Base 0.0/0.0 -->
<!-- Settings: RefScale 1.0 Min/Max Stroke Scales 0.5/2.21 -->
<!DOCTYPE svg
PUBLIC "-//W3C//DTD SVG 1.1//EN"
       "http://www.w3.org/Graphics/SVG/1.1/DTD/svg11.dtd">
<svg version="1.1" xmlns="http://www.w3.org/2000/svg" xmlns:xlink="http://www.w3.org/1999/xlink" width="3300" height="2200">
<![CDATA[<svg width="24" height="24" viewBox="0 0 24 24" fill="none" xmlns="http://www.w3.org/2000/svg">
<path d="M16.82 2H7.18001C5.05001 2 3.32001 3.74 3.32001 5.86V19.95C3.32001 21.75 4.61001 22.51 6.19001 21.64L11.07 18.93C11.59 18.64 12.43 18.64 12.94 18.93L17.82 21.64C19.4 22.52 20.69 21.76 20.69 19.95V5.86C20.68 3.74 18.95 2 16.82 2Z" fill="#808080" stroke="#808080" stroke-width="1.5" stroke-linecap="round" stroke-linejoin="round"/>
</svg>
]]>
 <g id="Notes">
  <rect height="2200" id="artboard" style="fill:white;opacity:1" width="3300" x="0" y="0"/>
  <line id="" style="fill:none;stroke:black;opacity:1;stroke-width:0.5;" x1="263" x2="3036" y1="292" y2="292"/>
  <text id="reftext1" style="stroke:none;fill:black;font-family:-apple-system,&quot;SF Pro Display&quot;,&quot;SF Pro Text&quot;,Helvetica,sans-serif;font-weight:bold;" transform="matrix(1 0 0 1 263 322)">Weight/Scale Variations</text>
  <text id="reftext2" style="stroke:none;fill:black;font-family:-apple-system,&quot;SF Pro Display&quot;,&quot;SF Pro Text&quot;,Helvetica,sans-serif;text-anchor:middle;" transform="matrix(1 0 0 1 559.711 322)">Ultralight</text>
  <text style="stroke:none;fill:black;font-family:-apple-system,&quot;SF Pro Display&quot;,&quot;SF Pro Text&quot;,Helvetica,sans-serif;text-anchor:middle;" transform="matrix(1 0 0 1 856.422 322)">Thin</text>
  <text style="stroke:none;fill:black;font-family:-apple-system,&quot;SF Pro Display&quot;,&quot;SF Pro Text&quot;,Helvetica,sans-serif;text-anchor:middle;" transform="matrix(1 0 0 1 1153.13 322)">Light</text>
  <text style="stroke:none;fill:black;font-family:-apple-system,&quot;SF Pro Display&quot;,&quot;SF Pro Text&quot;,Helvetica,sans-serif;text-anchor:middle;" transform="matrix(1 0 0 1 1449.84 322)">Regular</text>
  <text style="stroke:none;fill:black;font-family:-apple-system,&quot;SF Pro Display&quot;,&quot;SF Pro Text&quot;,Helvetica,sans-serif;text-anchor:middle;" transform="matrix(1 0 0 1 1746.56 322)">Medium</text>
  <text style="stroke:none;fill:black;font-family:-apple-system,&quot;SF Pro Display&quot;,&quot;SF Pro Text&quot;,Helvetica,sans-serif;text-anchor:middle;" transform="matrix(1 0 0 1 2043.27 322)">Semibold</text>
  <text style="stroke:none;fill:black;font-family:-apple-system,&quot;SF Pro Display&quot;,&quot;SF Pro Text&quot;,Helvetica,sans-serif;text-anchor:middle;" transform="matrix(1 0 0 1 2339.98 322)">Bold</text>
  <text style="stroke:none;fill:black;font-family:-apple-system,&quot;SF Pro Display&quot;,&quot;SF Pro Text&quot;,Helvetica,sans-serif;text-anchor:middle;" transform="matrix(1 0 0 1 2636.69 322)">Heavy</text>
  <text style="stroke:none;fill:black;font-family:-apple-system,&quot;SF Pro Display&quot;,&quot;SF Pro Text&quot;,Helvetica,sans-serif;text-anchor:middle;" transform="matrix(1 0 0 1 2933.4 322)">Black</text>
  <line id="" style="fill:none;stroke:black;opacity:1;stroke-width:0.5;" x1="263" x2="3036" y1="1903" y2="1903"/>
  <g id="" transform="matrix(1 0 0 1 263 1933)">
   <path d="M9.24805 0.830078C13.5547 0.830078 17.1387-2.74414 17.1387-7.05078C17.1387-11.3574 13.5449-14.9316 9.23828-14.9316C4.94141-14.9316 1.36719-11.3574 1.36719-7.05078C1.36719-2.74414 4.95117 0.830078 9.24805 0.830078ZM9.24805-0.654297C5.70312-0.654297 2.87109-3.49609 2.87109-7.05078C2.87109-10.6055 5.69336-13.4473 9.23828-13.4473C12.793-13.4473 15.6348-10.6055 15.6445-7.05078C15.6543-3.49609 12.8027-0.654297 9.24805-0.654297ZM6.39648-6.31836L8.50586-6.31836L8.50586-4.19922C8.50586-3.75977 8.79883-3.45703 9.22852-3.45703C9.67773-3.45703 9.9707-3.75977 9.9707-4.19922L9.9707-6.31836L12.0996-6.31836C12.5391-6.31836 12.8418-6.61133 12.8418-7.04102C12.8418-7.48047 12.5391-7.7832 12.0996-7.7832L9.9707-7.7832L9.9707-9.89258C9.9707-10.3418 9.67773-10.6445 9.22852-10.6445C8.79883-10.6445 8.50586-10.3418 8.50586-9.89258L8.50586-7.7832L6.39648-7.7832C5.94727-7.7832 5.64453-7.48047 5.64453-7.04102C5.64453-6.61133 5.94727-6.31836 6.39648-6.31836Z"/>
  </g>
  <g id="" transform="matrix(1 0 0 1 281.506 1933)">
   <path d="M11.709 2.91016C17.1582 2.91016 21.6699-1.61133 21.6699-7.05078C21.6699-12.5 17.1484-17.0117 11.6992-17.0117C6.25977-17.0117 1.74805-12.5 1.74805-7.05078C1.74805-1.61133 6.26953 2.91016 11.709 2.91016ZM11.709 1.25C7.09961 1.25 3.41797-2.44141 3.41797-7.05078C3.41797-11.6602 7.08984-15.3516 11.6992-15.3516C16.3086-15.3516 20-11.6602 20.0098-7.05078C20.0195-2.44141 16.3184 1.25 11.709 1.25ZM7.98828-6.23047L10.8789-6.23047L10.8789-3.32031C10.8789-2.83203 11.2109-2.5 11.6895-2.5C12.1777-2.5 12.5195-2.83203 12.5195-3.32031L12.5195-6.23047L15.4297-6.23047C15.918-6.23047 16.25-6.5625 16.25-7.04102C16.25-7.5293 15.918-7.87109 15.4297-7.87109L12.5195-7.87109L12.5195-10.7617C12.5195-11.2695 12.1777-11.6016 11.6895-11.6016C11.2109-11.6016 10.8789-11.2598 10.8789-10.7617L10.8789-7.87109L7.98828-7.87109C7.48047-7.87109 7.14844-7.5293 7.14844-7.04102C7.14844-6.5625 7.49023-6.23047 7.98828-6.23047Z"/>
  </g>
  <g id="" transform="matrix(1 0 0 1 304.924 1933)">
   <path d="M14.9707 5.66406C21.9336 5.66406 27.6953-0.0976562 27.6953-7.05078C27.6953-14.0137 21.9238-19.7754 14.9609-19.7754C8.00781-19.7754 2.25586-14.0137 2.25586-7.05078C2.25586-0.0976562 8.01758 5.66406 14.9707 5.66406ZM14.9707 3.84766C8.93555 3.84766 4.08203-1.01562 4.08203-7.05078C4.08203-13.0957 8.92578-17.9492 14.9609-17.9492C21.0059-17.9492 25.8594-13.0957 25.8691-7.05078C25.8789-1.01562 21.0156 3.84766 14.9707 3.84766ZM10.0586-6.14258L14.0625-6.14258L14.0625-2.12891C14.0625-1.5918 14.4336-1.2207 14.9512-1.2207C15.4883-1.2207 15.8594-1.5918 15.8594-2.12891L15.8594-6.14258L19.8828-6.14258C20.4102-6.14258 20.791-6.51367 20.791-7.03125C20.791-7.56836 20.4199-7.94922 19.8828-7.94922L15.8594-7.94922L15.8594-11.9531C15.8594-12.5098 15.4883-12.8809 14.9512-12.8809C14.4336-12.8809 14.0625-12.5 14.0625-11.9531L14.0625-7.94922L10.0586-7.94922C9.50195-7.94922 9.13086-7.56836 9.13086-7.03125C9.13086-6.51367 9.51172-6.14258 10.0586-6.14258Z"/>
  </g>
  <text style="stroke:none;fill:black;font-family:-apple-system,&quot;SF Pro Display&quot;,&quot;SF Pro Text&quot;,Helvetica,sans-serif;font-weight:bold;" transform="matrix(1 0 0 1 263 1953)">Design Variations</text>
  <text style="stroke:none;fill:black;font-family:-apple-system,&quot;SF Pro Display&quot;,&quot;SF Pro Text&quot;,Helvetica,sans-serif;" transform="matrix(1 0 0 1 263 1971)">Symbols are supported in up to nine weights and three scales.</text>
  <text style="stroke:none;fill:black;font-family:-apple-system,&quot;SF Pro Display&quot;,&quot;SF Pro Text&quot;,Helvetica,sans-serif;" transform="matrix(1 0 0 1 263 1989)">For optimal layout with text and other symbols, vertically align</text>
  <text style="stroke:none;fill:black;font-family:-apple-system,&quot;SF Pro Display&quot;,&quot;SF Pro Text&quot;,Helvetica,sans-serif;" transform="matrix(1 0 0 1 263 2007)">symbols with the adjacent text.</text>
  <line id="" style="fill:none;stroke:#00AEEF;stroke-width:0.5;opacity:1.0;" x1="776" x2="776" y1="1919" y2="1933"/>
  <g id="" transform="matrix(1 0 0 1 776 1933)">
   <path d="M3.31055 0.126953C3.82812 0.126953 4.08203-0.0683594 4.26758-0.605469L5.52734-4.0625L11.2891-4.0625L12.5488-0.605469C12.7344-0.0683594 12.9883 0.126953 13.4961 0.126953C14.0137 0.126953 14.3457-0.185547 14.3457-0.673828C14.3457-0.839844 14.3164-0.986328 14.2383-1.20117L9.6582-13.3887C9.43359-13.9941 9.0332-14.2871 8.4082-14.2871C7.80273-14.2871 7.39258-13.9941 7.17773-13.3984L2.59766-1.19141C2.51953-0.976562 2.49023-0.830078 2.49023-0.664062C2.49023-0.175781 2.80273 0.126953 3.31055 0.126953ZM6.00586-5.53711L8.37891-12.1094L8.42773-12.1094L10.8008-5.53711Z"/>
  </g>
  <line id="" style="fill:none;stroke:#00AEEF;stroke-width:0.5;opacity:1.0;" x1="792.836" x2="792.836" y1="1919" y2="1933"/>
  <text style="stroke:none;fill:black;font-family:-apple-system,&quot;SF Pro Display&quot;,&quot;SF Pro Text&quot;,Helvetica,sans-serif;font-weight:bold;" transform="matrix(1 0 0 1 776 1953)">Margins</text>
  <text style="stroke:none;fill:black;font-family:-apple-system,&quot;SF Pro Display&quot;,&quot;SF Pro Text&quot;,Helvetica,sans-serif;" transform="matrix(1 0 0 1 776 1971)">Leading and trailing margins on the left and right side of each symbol</text>
  <text style="stroke:none;fill:black;font-family:-apple-system,&quot;SF Pro Display&quot;,&quot;SF Pro Text&quot;,Helvetica,sans-serif;" transform="matrix(1 0 0 1 776 1989)">can be adjusted by modifying the x-location of the margin guidelines.</text>
  <text style="stroke:none;fill:black;font-family:-apple-system,&quot;SF Pro Display&quot;,&quot;SF Pro Text&quot;,Helvetica,sans-serif;" transform="matrix(1 0 0 1 776 2007)">Modifications are automatically applied proportionally to all</text>
  <text style="stroke:none;fill:black;font-family:-apple-system,&quot;SF Pro Display&quot;,&quot;SF Pro Text&quot;,Helvetica,sans-serif;" transform="matrix(1 0 0 1 776 2025)">scales and weights.</text>
  <g id="" transform="matrix(1 0 0 1 1289 1933)">
   <path d="M2.8418 1.86523L4.54102 3.57422C5.40039 4.44336 6.38672 4.38477 7.31445 3.35938L17.4902-7.85156C17.7539-7.76367 18.0273-7.7832 18.3398-7.8418L19.4043-8.03711L20.0684-7.36328L20.0293-6.80664C19.9902-6.30859 20.1172-5.92773 20.6055-5.44922L21.3672-4.70703C21.8457-4.22852 22.4609-4.19922 22.9297-4.66797L25.8398-7.58789C26.3086-8.05664 26.2891-8.65234 25.8105-9.13086L25.0391-9.89258C24.5605-10.3711 24.1895-10.5273 23.7109-10.4883L23.1348-10.4395L22.4902-11.0742L22.7344-12.1973C22.8613-12.7637 22.7051-13.2031 22.1191-13.7891L19.9219-15.9766C16.582-19.2969 12.1484-19.2188 9.25781-16.3281C8.83789-15.918 8.80859-15.3418 9.04297-14.9512C9.27734-14.5898 9.73633-14.3555 10.3809-14.5215C11.8457-14.8633 13.3691-14.9219 14.7949-13.9844L14.209-12.5293C14.0137-12.0508 13.9844-11.6504 14.1113-11.2891L3.04688-0.898438C2.06055 0.0195312 1.98242 0.996094 2.8418 1.86523ZM10.752-15.957C13.1836-17.7344 16.4746-17.4316 18.7012-15.2051L21.1328-12.793C21.3672-12.5586 21.4062-12.373 21.3379-12.0312L21.0156-10.5469L22.5195-9.0625L23.5059-9.12109C23.7598-9.13086 23.8379-9.11133 24.0332-8.91602L24.6094-8.33984L22.168-5.89844L21.5918-6.47461C21.3965-6.66992 21.3672-6.74805 21.377-7.01172L21.4453-7.98828L19.9512-9.47266L18.4277-9.21875C18.1055-9.15039 17.959-9.17969 17.7148-9.41406L15.7129-11.416C15.459-11.6504 15.4297-11.8164 15.5859-12.1875L16.4648-14.2773C14.9023-15.7324 12.8711-16.3574 10.8398-15.7617C10.6836-15.7227 10.625-15.8496 10.752-15.957ZM5.27344 2.30469L4.10156 1.14258C3.63281 0.683594 3.74023 0.341797 4.14062-0.0195312L14.9512-10.1953L16.416-8.71094L6.42578 2.27539C6.07422 2.67578 5.74219 2.77344 5.27344 2.30469Z"/>
  </g>
  <text style="stroke:none;fill:black;font-family:-apple-system,&quot;SF Pro Display&quot;,&quot;SF Pro Text&quot;,Helvetica,sans-serif;font-weight:bold;" transform="matrix(1 0 0 1 1289 1953)">Exporting</text>
  <text style="stroke:none;fill:black;font-family:-apple-system,&quot;SF Pro Display&quot;,&quot;SF Pro Text&quot;,Helvetica,sans-serif;" transform="matrix(1 0 0 1 1289 1971)">Symbols should be outlined when exporting to ensure the</text>
  <text style="stroke:none;fill:black;font-family:-apple-system,&quot;SF Pro Display&quot;,&quot;SF Pro Text&quot;,Helvetica,sans-serif;" transform="matrix(1 0 0 1 1289 1989)">design is preserved when submitting to Xcode.</text>
  <text id="template-version" style="stroke:none;fill:black;font-family:-apple-system,&quot;SF Pro Display&quot;,&quot;SF Pro Text&quot;,Helvetica,sans-serif;text-anchor:end;" transform="matrix(1 0 0 1 3036 1933)">Template v.2.0</text>
  <text style="stroke:none;fill:black;font-family:-apple-system,&quot;SF Pro Display&quot;,&quot;SF Pro Text&quot;,Helvetica,sans-serif;text-anchor:end;" transform="matrix(1 0 0 1 3036 1951)">Requires Xcode 12 or greater</text>
  <text style="stroke:none;fill:black;font-family:-apple-system,&quot;SF Pro Display&quot;,&quot;SF Pro Text&quot;,Helvetica,sans-serif;" transform="matrix(1 0 0 1 263 726)">Small</text>
  <text style="stroke:none;fill:black;font-family:-apple-system,&quot;SF Pro Display&quot;,&quot;SF Pro Text&quot;,Helvetica,sans-serif;" transform="matrix(1 0 0 1 263 1156)">Medium</text>
  <text style="stroke:none;fill:black;font-family:-apple-system,&quot;SF Pro Display&quot;,&quot;SF Pro Text&quot;,Helvetica,sans-serif;" transform="matrix(1 0 0 1 263 1586)">Large</text>
 </g>
 <g id="Guides">
  <g id="H-reference" style="fill:#27AAE1;stroke:none;" transform="matrix(1 0 0 1 339 696)">
   <path d="M0.976562 0L3.66211 0L12.9883-24.4629L45.752-24.4629L55.127 0L57.7637 0L30.6152-70.459L28.125-70.459ZM29.3457-67.1387L29.4434-67.1387L44.873-26.709L13.8672-26.709Z"/>
  </g>
  <line id="Baseline-S" style="fill:none;stroke:#27AAE1;opacity:1;stroke-width:0.5;" x1="263" x2="3036" y1="696" y2="696"/>
  <line id="Capline-S" style="fill:none;stroke:#27AAE1;opacity:1;stroke-width:0.5;" x1="263" x2="3036" y1="625.541" y2="625.541"/>
  <g id="H-reference" style="fill:#27AAE1;stroke:none;" transform="matrix(1 0 0 1 339 1126)">
   <path d="M0.976562 0L3.66211 0L12.9883-24.4629L45.752-24.4629L55.127 0L57.7637 0L30.6152-70.459L28.125-70.459ZM29.3457-67.1387L29.4434-67.1387L44.873-26.709L13.8672-26.709Z"/>
  </g>
  <line id="Baseline-M" style="fill:none;stroke:#27AAE1;opacity:1;stroke-width:0.5;" x1="263" x2="3036" y1="1126" y2="1126"/>
  <line id="Capline-M" style="fill:none;stroke:#27AAE1;opacity:1;stroke-width:0.5;" x1="263" x2="3036" y1="1055.54" y2="1055.54"/>
  <g id="H-reference" style="fill:#27AAE1;stroke:none;" transform="matrix(1 0 0 1 339 1556)">
   <path d="M0.976562 0L3.66211 0L12.9883-24.4629L45.752-24.4629L55.127 0L57.7637 0L30.6152-70.459L28.125-70.459ZM29.3457-67.1387L29.4434-67.1387L44.873-26.709L13.8672-26.709Z"/>
  </g>
  <line id="Baseline-L" style="fill:none;stroke:#27AAE1;opacity:1;stroke-width:0.5;" x1="263" x2="3036" y1="1556" y2="1556"/>
  <line id="Capline-L" style="fill:none;stroke:#27AAE1;opacity:1;stroke-width:0.5;" x1="263" x2="3036" y1="1485.54" y2="1485.54"/>
  <line id="left-margin" x1="1415.9000195312499" x2="1415.9000195312499" y1="1030.79" y2="1150.12" style="fill:none;stroke:#00AEEF;stroke-width:0.5;opacity:1.0;"/>
  <line id="right-margin" x1="1486.3599804687499" x2="1486.3599804687499" y1="1030.79" y2="1150.12" style="fill:none;stroke:#00AEEF;stroke-width:0.5;opacity:1.0;"/>
 </g>
 <g id="Symbols">
  <g id="Black-L" transform="matrix(1.0,0.0,0.0,1.0,2889.2333251953123,1475.3233447265625)">  <path stroke-dasharray="none" fill-opacity="1" stroke-miterlimit="4" stroke-linejoin="round" fill-rule="nonzero" stroke="none" stroke-width="1.5px" stroke-opacity="1" stroke-linecap="round" fill="#000000" d="M63.701,7.574L27.192,7.574C19.126,7.574,12.574,14.164,12.574,22.193L12.574,75.555C12.574,82.372,17.459,85.25,23.443,81.956L41.925,71.692C43.894,70.594,47.075,70.594,49.007,71.692L67.488,81.956C73.472,85.288,78.358,82.41,78.358,75.555L78.358,22.193C78.32,14.164,71.768,7.574,63.701,7.574ZM63.701,7.574"/>
  <path stroke="none" stroke-linejoin="round" stroke-dasharray="none" fill="#000000" stroke-opacity="1" stroke-width="1.5px" stroke-linecap="round" fill-rule="nonzero" fill-opacity="1" stroke-miterlimit="4" d="M63.701,1.297L27.192,1.297C15.669,1.297,6.296,10.687,6.296,22.193L6.296,75.555C6.296,87.154,16.308,93.05,26.471,87.454L44.972,77.18C44.917,77.211,44.921,77.209,44.979,77.196C45.117,77.165,45.294,77.146,45.48,77.146C45.663,77.146,45.834,77.164,45.963,77.194C46.004,77.203,45.989,77.198,45.904,77.149L64.441,87.443C74.604,93.104,84.635,87.197,84.635,75.555L84.635,22.193C84.581,10.667,75.211,1.297,63.701,1.297ZM63.701,13.852C68.287,13.852,72.059,17.623,72.08,22.223L72.08,75.555C72.08,76.36,71.966,76.931,71.812,77.261C71.786,77.317,71.775,77.334,71.784,77.324C71.829,77.273,71.898,77.216,71.981,77.167C72.065,77.117,72.149,77.085,72.217,77.07C72.231,77.067,72.213,77.068,72.153,77.064C71.794,77.038,71.243,76.861,70.543,76.471L52.054,66.204C48.262,64.047,42.745,64.047,38.867,66.21L20.395,76.468C19.715,76.842,19.163,77.017,18.801,77.041C18.738,77.045,18.716,77.043,18.726,77.046C18.79,77.06,18.87,77.091,18.95,77.138C19.031,77.186,19.098,77.241,19.142,77.291C19.151,77.301,19.14,77.285,19.115,77.231C18.963,76.908,18.851,76.347,18.851,75.555L18.851,22.193C18.851,17.615,22.608,13.852,27.192,13.852L63.701,13.852Z"/>
</g>
  <g id="Heavy-L" transform="matrix(1.0,0.0,0.0,1.0,2592.5233251953123,1475.3233447265625)">  <path stroke-width="1.5px" fill-rule="nonzero" stroke-linecap="round" stroke-opacity="1" stroke="none" fill="#000000" fill-opacity="1" stroke-miterlimit="4" stroke-linejoin="round" stroke-dasharray="none" d="M63.701,7.574L27.192,7.574C19.126,7.574,12.574,14.164,12.574,22.193L12.574,75.555C12.574,82.372,17.459,85.25,23.443,81.956L41.925,71.692C43.894,70.594,47.075,70.594,49.007,71.692L67.488,81.956C73.472,85.288,78.358,82.41,78.358,75.555L78.358,22.193C78.32,14.164,71.768,7.574,63.701,7.574ZM63.701,7.574"/>
  <path stroke-miterlimit="4" stroke-opacity="1" fill-opacity="1" stroke-linejoin="round" stroke-dasharray="none" stroke="none" stroke-linecap="round" fill-rule="nonzero" stroke-width="1.5px" fill="#000000" d="M63.701,1.985L27.192,1.985C16.049,1.985,6.984,11.066,6.984,22.193L6.984,75.555C6.984,86.63,16.434,92.196,26.139,86.852L44.638,76.579C44.917,76.424,46.019,76.424,46.244,76.551L64.774,86.842C74.48,92.248,83.948,86.672,83.948,75.555L83.948,22.193C83.895,11.048,74.832,1.985,63.701,1.985ZM63.701,13.164C68.666,13.164,72.744,17.243,72.768,22.219L72.768,75.555C72.768,78.148,72.463,78.328,70.208,77.072L51.721,66.805C48.132,64.764,42.87,64.764,39.202,66.81L20.729,77.069C18.485,78.304,18.164,78.115,18.164,75.555L18.164,22.193C18.164,17.236,22.228,13.164,27.192,13.164L63.701,13.164Z"/>
</g>
  <g id="Bold-L" transform="matrix(1.0,0.0,0.0,1.0,2295.8133251953122,1475.3233447265625)">  <path stroke-miterlimit="4" fill="#000000" stroke-linejoin="round" stroke="none" stroke-linecap="round" fill-rule="nonzero" stroke-opacity="1" stroke-width="1.5px" stroke-dasharray="none" fill-opacity="1" d="M63.701,7.574L27.192,7.574C19.126,7.574,12.574,14.164,12.574,22.193L12.574,75.555C12.574,82.372,17.459,85.25,23.443,81.956L41.925,71.692C43.894,70.594,47.075,70.594,49.007,71.692L67.488,81.956C73.472,85.288,78.358,82.41,78.358,75.555L78.358,22.193C78.32,14.164,71.768,7.574,63.701,7.574ZM63.701,7.574"/>
  <path stroke-width="1.5px" fill-rule="nonzero" fill-opacity="1" stroke-linecap="round" stroke-miterlimit="4" stroke="none" stroke-linejoin="round" stroke-dasharray="none" stroke-opacity="1" fill="#000000" d="M63.701,2.672L27.192,2.672C16.429,2.672,7.671,11.445,7.671,22.193L7.671,75.555C7.671,86.107,16.56,91.342,25.808,86.25L44.305,75.978C44.49,75.875,44.949,75.771,45.48,75.771C46,75.771,46.437,75.871,46.583,75.954L65.108,86.242C74.356,91.392,83.26,86.148,83.26,75.555L83.26,22.193C83.209,11.429,74.453,2.672,63.701,2.672ZM63.701,12.477C69.045,12.477,73.43,16.862,73.455,22.216L73.455,75.555C73.455,78.673,72.587,79.184,69.874,77.672L51.387,67.406C48.002,65.481,42.996,65.481,39.537,67.41L21.063,77.669C18.359,79.158,17.476,78.639,17.476,75.555L17.476,22.193C17.476,16.857,21.848,12.477,27.192,12.477L63.701,12.477Z"/>
</g>
  <g id="Semibold-L" transform="matrix(1.0,0.0,0.0,1.0,1999.1033251953124,1475.3233447265625)">  <path stroke-dasharray="none" stroke-width="1.5px" stroke-opacity="1" fill-rule="nonzero" stroke-linecap="round" stroke-linejoin="round" stroke-miterlimit="4" fill="#000000" fill-opacity="1" stroke="none" d="M63.701,7.574L27.192,7.574C19.126,7.574,12.574,14.164,12.574,22.193L12.574,75.555C12.574,82.372,17.459,85.25,23.443,81.956L41.925,71.692C43.894,70.594,47.075,70.594,49.007,71.692L67.488,81.956C73.472,85.288,78.358,82.41,78.358,75.555L78.358,22.193C78.32,14.164,71.768,7.574,63.701,7.574ZM63.701,7.574"/>
  <path stroke-miterlimit="4" stroke-linecap="round" stroke-opacity="1" fill="#000000" stroke="none" stroke-dasharray="none" stroke-width="1.5px" fill-rule="nonzero" fill-opacity="1" stroke-linejoin="round" d="M63.701,3.359L27.192,3.359C16.809,3.359,8.358,11.825,8.358,22.193L8.358,75.555C8.358,85.583,16.687,90.488,25.476,85.648L43.971,75.377C44.666,74.99,46.278,74.99,46.923,75.356L65.442,85.641C74.232,90.536,82.573,85.624,82.573,75.555L82.573,22.193C82.524,11.81,74.074,3.359,63.701,3.359ZM63.701,11.79C69.424,11.79,74.115,16.481,74.143,22.213L74.142,75.555C74.142,79.197,72.711,80.04,69.539,78.273L51.053,68.007C47.872,66.198,43.122,66.198,39.871,68.011L21.397,78.27C18.233,80.013,16.789,79.162,16.789,75.555L16.789,22.193C16.789,16.477,21.468,11.79,27.192,11.79L63.701,11.79Z"/>
</g>
  <g id="Medium-L" transform="matrix(1.0,0.0,0.0,1.0,1702.3933251953124,1475.3233447265625)">  <path fill-rule="nonzero" stroke-linecap="round" stroke="none" stroke-opacity="1" stroke-width="1.5px" stroke-linejoin="round" stroke-miterlimit="4" stroke-dasharray="none" fill-opacity="1" fill="#000000" d="M63.701,7.574L27.192,7.574C19.126,7.574,12.574,14.164,12.574,22.193L12.574,75.555C12.574,82.372,17.459,85.25,23.443,81.956L41.925,71.692C43.894,70.594,47.075,70.594,49.007,71.692L67.488,81.956C73.472,85.288,78.358,82.41,78.358,75.555L78.358,22.193C78.32,14.164,71.768,7.574,63.701,7.574ZM63.701,7.574"/>
  <path stroke-linejoin="round" fill-opacity="1" fill="#000000" stroke-linecap="round" stroke-miterlimit="4" stroke-width="1.5px" fill-rule="nonzero" stroke-dasharray="none" stroke="none" stroke-opacity="1" d="M63.701,4.047L27.192,4.047C17.189,4.047,9.046,12.204,9.046,22.193L9.046,75.555C9.046,85.059,16.813,89.634,25.145,85.046L43.637,74.776C44.54,74.273,46.408,74.273,47.263,74.759L65.776,85.04C74.108,89.681,81.885,85.1,81.885,75.555L81.885,22.193C81.838,12.19,73.695,4.047,63.701,4.047ZM63.701,11.102C69.803,11.102,74.801,16.1,74.83,22.21L74.83,75.555C74.83,79.721,72.835,80.895,69.205,78.873L50.719,68.608C47.742,66.915,43.248,66.915,40.206,68.611L21.73,78.871C18.107,80.867,16.101,79.686,16.101,75.555L16.101,22.193C16.101,16.098,21.088,11.102,27.192,11.102L63.701,11.102Z"/>
</g>
  <g id="Regular-L" transform="matrix(1.0,0.0,0.0,1.0,1405.6833251953124,1475.3233447265625)">  <path stroke-dasharray="none" stroke="none" stroke-miterlimit="4" fill-opacity="1" stroke-opacity="1" fill-rule="nonzero" stroke-linejoin="round" stroke-width="1.5px" stroke-linecap="round" fill="#000000" d="M63.701,7.574L27.192,7.574C19.126,7.574,12.574,14.164,12.574,22.193L12.574,75.555C12.574,82.372,17.459,85.25,23.443,81.956L41.925,71.692C43.894,70.594,47.075,70.594,49.007,71.692L67.488,81.956C73.472,85.288,78.358,82.41,78.358,75.555L78.358,22.193C78.32,14.164,71.768,7.574,63.701,7.574ZM63.701,7.574"/>
  <path stroke-miterlimit="4" fill-opacity="1" stroke-opacity="1" fill-rule="nonzero" stroke="none" stroke-linecap="round" stroke-width="1.5px" stroke-dasharray="none" stroke-linejoin="round" fill="#000000" d="M63.701,4.734L27.192,4.734C17.569,4.734,9.733,12.584,9.733,22.193L9.733,75.555C9.733,84.536,16.939,88.78,24.813,84.444L43.304,74.175C44.414,73.556,46.538,73.556,47.603,74.161L66.109,84.439C73.984,88.825,81.198,84.576,81.198,75.555L81.198,22.193C81.153,12.571,73.315,4.734,63.701,4.734ZM63.701,10.415C70.182,10.415,75.487,15.719,75.517,22.207L75.517,75.555C75.517,80.245,72.959,81.751,68.87,79.474L50.386,69.209C47.612,67.632,43.374,67.632,40.541,69.211L22.064,79.472C17.981,81.721,15.414,80.209,15.414,75.555L15.414,22.193C15.414,15.719,20.708,10.415,27.192,10.415L63.701,10.415Z"/>
</g>
  <g id="Light-L" transform="matrix(1.0,0.0,0.0,1.0,1108.9733251953126,1475.3233447265625)">  <path stroke-opacity="1" stroke-linecap="round" stroke="none" stroke-width="1.5px" fill-opacity="1" fill-rule="nonzero" stroke-linejoin="round" stroke-miterlimit="4" fill="#000000" stroke-dasharray="none" d="M63.701,7.574L27.192,7.574C19.126,7.574,12.574,14.164,12.574,22.193L12.574,75.555C12.574,82.372,17.459,85.25,23.443,81.956L41.925,71.692C43.894,70.594,47.075,70.594,49.007,71.692L67.488,81.956C73.472,85.288,78.358,82.41,78.358,75.555L78.358,22.193C78.32,14.164,71.768,7.574,63.701,7.574ZM63.701,7.574"/>
  <path stroke="none" stroke-width="1.5px" fill="#000000" fill-opacity="1" stroke-opacity="1" stroke-dasharray="none" stroke-miterlimit="4" stroke-linecap="round" fill-rule="nonzero" stroke-linejoin="round" d="M63.701,5.207L27.192,5.207C17.83,5.207,10.207,12.845,10.207,22.193L10.207,75.555C10.207,84.175,17.025,88.191,24.585,84.029L43.074,73.761C44.327,73.062,46.628,73.062,47.837,73.75L66.339,84.025C73.899,88.235,80.725,84.215,80.725,75.555L80.725,22.193C80.681,12.834,73.054,5.207,63.701,5.207ZM63.701,9.941C70.444,9.941,75.959,15.457,75.991,22.204L75.991,75.555C75.991,80.606,73.045,82.341,68.64,79.888L50.156,69.623C47.523,68.125,43.461,68.125,40.772,69.625L22.294,79.886C17.894,82.309,14.941,80.57,14.941,75.555L14.941,22.193C14.941,15.457,20.447,9.941,27.192,9.941L63.701,9.941Z"/>
</g>
  <g id="Thin-L" transform="matrix(1.0,0.0,0.0,1.0,812.2633251953125,1475.3233447265625)">  <path stroke-linecap="round" stroke-miterlimit="4" stroke-dasharray="none" stroke-linejoin="round" stroke-width="1.5px" fill="#000000" stroke="none" fill-rule="nonzero" stroke-opacity="1" fill-opacity="1" d="M63.701,7.574L27.192,7.574C19.126,7.574,12.574,14.164,12.574,22.193L12.574,75.555C12.574,82.372,17.459,85.25,23.443,81.956L41.925,71.692C43.894,70.594,47.075,70.594,49.007,71.692L67.488,81.956C73.472,85.288,78.358,82.41,78.358,75.555L78.358,22.193C78.32,14.164,71.768,7.574,63.701,7.574ZM63.701,7.574"/>
  <path stroke-miterlimit="4" stroke-linecap="round" stroke-width="1.5px" stroke="none" stroke-opacity="1" stroke-linejoin="round" fill="#000000" fill-opacity="1" stroke-dasharray="none" fill-rule="nonzero" d="M63.701,5.681L27.192,5.681C18.092,5.681,10.68,13.106,10.68,22.193L10.68,75.555C10.68,83.815,17.112,87.603,24.356,83.614L42.844,73.348C44.241,72.569,46.717,72.569,48.071,73.338L66.569,83.611C73.813,87.646,80.251,83.854,80.251,75.555L80.251,22.193C80.208,13.096,72.793,5.681,63.701,5.681ZM63.701,9.468C70.705,9.468,76.431,15.194,76.464,22.202L76.464,75.555C76.464,80.967,73.13,82.93,68.41,80.301L49.926,70.037C47.433,68.619,43.547,68.619,41.002,70.038L22.524,80.3C17.807,82.897,14.467,80.93,14.467,75.555L14.467,22.193C14.467,15.196,20.185,9.468,27.192,9.468L63.701,9.468Z"/>
</g>
  <g id="Ultralight-L" transform="matrix(1.0,0.0,0.0,1.0,515.5533251953125,1475.3233447265625)">  <path stroke-width="1.5px" stroke-linecap="round" stroke-dasharray="none" stroke-linejoin="round" stroke-opacity="1" stroke-miterlimit="4" fill-opacity="1" fill="#000000" stroke="none" fill-rule="nonzero" d="M63.701,7.574L27.192,7.574C19.126,7.574,12.574,14.164,12.574,22.193L12.574,75.555C12.574,82.372,17.459,85.25,23.443,81.956L41.925,71.692C43.894,70.594,47.075,70.594,49.007,71.692L67.488,81.956C73.472,85.288,78.358,82.41,78.358,75.555L78.358,22.193C78.32,14.164,71.768,7.574,63.701,7.574ZM63.701,7.574"/>
  <path stroke-miterlimit="4" stroke-linecap="round" stroke="none" stroke-opacity="1" stroke-dasharray="none" stroke-linejoin="round" stroke-width="1.5px" fill-opacity="1" fill-rule="nonzero" fill="#000000" d="M63.701,6.154L27.192,6.154C18.354,6.154,11.153,13.367,11.153,22.193L11.153,75.555C11.153,83.454,17.199,87.015,24.128,83.2L42.614,72.934C44.154,72.075,46.807,72.075,48.305,72.927L66.799,83.197C73.728,87.056,79.778,83.493,79.778,75.555L79.778,22.193C79.736,13.358,72.532,6.154,63.701,6.154ZM63.701,8.995C70.966,8.995,76.903,14.932,76.937,22.2L76.937,75.555C76.937,81.328,73.215,83.52,68.179,80.715L49.696,70.451C47.344,69.113,43.634,69.113,41.233,70.452L22.753,80.714C17.72,83.485,13.994,81.291,13.994,75.555L13.994,22.193C13.994,14.935,19.923,8.995,27.192,8.995L63.701,8.995Z"/>
</g>
  <g id="Black-M" transform="matrix(1.0,0.0,0.0,1.0,2899.45001953125,1055.5400390625)">  <path stroke-dasharray="none" fill-opacity="1" stroke-miterlimit="4" stroke-linejoin="round" fill-rule="nonzero" stroke="none" stroke-width="1.5px" stroke-opacity="1" stroke-linecap="round" fill="#000000" d="M49.381,5.872L21.079,5.872C14.826,5.872,9.747,10.98,9.747,17.204L9.747,58.57C9.747,63.854,13.534,66.086,18.173,63.531L32.5,55.575C34.026,54.724,36.492,54.724,37.99,55.575L52.317,63.531C56.955,66.115,60.742,63.884,60.742,58.57L60.742,17.204C60.713,10.98,55.634,5.872,49.381,5.872ZM49.381,5.872"/>
  <path stroke="none" stroke-linejoin="round" stroke-dasharray="none" fill="#000000" stroke-opacity="1" stroke-width="1.5px" stroke-linecap="round" fill-rule="nonzero" fill-opacity="1" stroke-miterlimit="4" d="M49.381,1.006L21.079,1.006C12.147,1.006,4.881,8.284,4.881,17.204L4.881,58.57C4.881,67.561,12.642,72.132,20.52,67.794L34.862,59.829C34.819,59.853,34.823,59.852,34.867,59.842C34.974,59.818,35.111,59.803,35.256,59.803C35.398,59.803,35.531,59.817,35.631,59.84C35.662,59.847,35.651,59.843,35.584,59.805L49.954,67.786C57.833,72.174,65.609,67.594,65.609,58.57L65.609,17.204C65.566,8.269,58.303,1.006,49.381,1.006ZM49.381,10.738C52.936,10.738,55.859,13.662,55.876,17.227L55.876,58.57C55.876,59.194,55.788,59.637,55.669,59.892C55.648,59.936,55.64,59.949,55.647,59.941C55.681,59.902,55.735,59.857,55.799,59.819C55.864,59.781,55.93,59.756,55.982,59.744C55.993,59.742,55.979,59.743,55.933,59.739C55.654,59.72,55.227,59.582,54.684,59.28L40.352,51.321C37.412,49.649,33.135,49.649,30.13,51.325L15.81,59.277C15.283,59.567,14.855,59.703,14.574,59.722C14.526,59.725,14.508,59.724,14.517,59.725C14.566,59.736,14.628,59.76,14.69,59.797C14.753,59.834,14.804,59.877,14.839,59.916C14.845,59.924,14.837,59.911,14.818,59.869C14.7,59.619,14.613,59.184,14.613,58.57L14.613,17.204C14.613,13.655,17.526,10.738,21.079,10.738L49.381,10.738Z"/>
</g>
  <g id="Heavy-M" transform="matrix(1.0,0.0,0.0,1.0,2602.74001953125,1055.5400390625)">  <path stroke-width="1.5px" fill-rule="nonzero" stroke-linecap="round" stroke-opacity="1" stroke="none" fill="#000000" fill-opacity="1" stroke-miterlimit="4" stroke-linejoin="round" stroke-dasharray="none" d="M49.381,5.872L21.079,5.872C14.826,5.872,9.747,10.98,9.747,17.204L9.747,58.57C9.747,63.854,13.534,66.086,18.173,63.531L32.5,55.575C34.026,54.724,36.492,54.724,37.99,55.575L52.317,63.531C56.955,66.115,60.742,63.884,60.742,58.57L60.742,17.204C60.713,10.98,55.634,5.872,49.381,5.872ZM49.381,5.872"/>
  <path stroke-miterlimit="4" stroke-opacity="1" fill-opacity="1" stroke-linejoin="round" stroke-dasharray="none" stroke="none" stroke-linecap="round" fill-rule="nonzero" stroke-width="1.5px" fill="#000000" d="M49.381,1.538L21.079,1.538C12.441,1.538,5.414,8.578,5.414,17.204L5.414,58.57C5.414,67.155,12.74,71.47,20.263,67.327L34.603,59.364C34.82,59.243,35.673,59.243,35.848,59.342L50.213,67.32C57.737,71.51,65.076,67.188,65.076,58.57L65.076,17.204C65.035,8.564,58.009,1.538,49.381,1.538ZM49.381,10.205C53.23,10.205,56.391,13.366,56.409,17.224L56.409,58.57C56.409,60.58,56.173,60.719,54.425,59.746L40.093,51.787C37.311,50.205,33.233,50.205,30.389,51.791L16.069,59.743C14.329,60.701,14.08,60.554,14.08,58.57L14.08,17.204C14.08,13.361,17.231,10.205,21.079,10.205L49.381,10.205Z"/>
</g>
  <g id="Bold-M" transform="matrix(1.0,0.0,0.0,1.0,2306.0300195312498,1055.5400390625)">  <path stroke-miterlimit="4" fill="#000000" stroke-linejoin="round" stroke="none" stroke-linecap="round" fill-rule="nonzero" stroke-opacity="1" stroke-width="1.5px" stroke-dasharray="none" fill-opacity="1" d="M49.381,5.872L21.079,5.872C14.826,5.872,9.747,10.98,9.747,17.204L9.747,58.57C9.747,63.854,13.534,66.086,18.173,63.531L32.5,55.575C34.026,54.724,36.492,54.724,37.99,55.575L52.317,63.531C56.955,66.115,60.742,63.884,60.742,58.57L60.742,17.204C60.713,10.98,55.634,5.872,49.381,5.872ZM49.381,5.872"/>
  <path stroke-width="1.5px" fill-rule="nonzero" fill-opacity="1" stroke-linecap="round" stroke-miterlimit="4" stroke="none" stroke-linejoin="round" stroke-dasharray="none" stroke-opacity="1" fill="#000000" d="M49.381,2.071L21.079,2.071C12.736,2.071,5.947,8.872,5.947,17.204L5.947,58.57C5.947,66.749,12.838,70.808,20.006,66.861L34.345,58.898C34.488,58.818,34.844,58.737,35.256,58.737C35.659,58.737,35.998,58.815,36.111,58.879L50.471,66.854C57.64,70.847,64.543,66.782,64.543,58.57L64.543,17.204C64.503,8.859,57.715,2.071,49.381,2.071ZM49.381,9.672C53.523,9.672,56.922,13.071,56.942,17.222L56.942,58.57C56.942,60.986,56.269,61.383,54.166,60.211L39.835,52.253C37.211,50.76,33.33,50.76,30.649,52.256L16.328,60.209C14.232,61.363,13.547,60.96,13.547,58.57L13.547,17.204C13.547,13.067,16.937,9.672,21.079,9.672L49.381,9.672Z"/>
</g>
  <g id="Semibold-M" transform="matrix(1.0,0.0,0.0,1.0,2009.32001953125,1055.5400390625)">  <path stroke-dasharray="none" stroke-width="1.5px" stroke-opacity="1" fill-rule="nonzero" stroke-linecap="round" stroke-linejoin="round" stroke-miterlimit="4" fill="#000000" fill-opacity="1" stroke="none" d="M49.381,5.872L21.079,5.872C14.826,5.872,9.747,10.98,9.747,17.204L9.747,58.57C9.747,63.854,13.534,66.086,18.173,63.531L32.5,55.575C34.026,54.724,36.492,54.724,37.99,55.575L52.317,63.531C56.955,66.115,60.742,63.884,60.742,58.57L60.742,17.204C60.713,10.98,55.634,5.872,49.381,5.872ZM49.381,5.872"/>
  <path stroke-miterlimit="4" stroke-linecap="round" stroke-opacity="1" fill="#000000" stroke="none" stroke-dasharray="none" stroke-width="1.5px" fill-rule="nonzero" fill-opacity="1" stroke-linejoin="round" d="M49.381,2.604L21.079,2.604C13.03,2.604,6.479,9.167,6.479,17.204L6.479,58.57C6.479,66.343,12.935,70.146,19.749,66.394L34.086,58.432C34.625,58.132,35.875,58.132,36.374,58.416L50.73,66.388C57.544,70.183,64.01,66.375,64.01,58.57L64.01,17.204C63.972,9.155,57.421,2.604,49.381,2.604ZM49.381,9.139C53.817,9.139,57.454,12.776,57.475,17.219L57.475,58.57C57.475,61.393,56.365,62.046,53.906,60.677L39.576,52.719C37.11,51.316,33.428,51.316,30.908,52.722L16.586,60.675C14.134,62.025,13.015,61.366,13.015,58.57L13.015,17.204C13.015,12.773,16.642,9.139,21.079,9.139L49.381,9.139Z"/>
</g>
  <g id="Medium-M" transform="matrix(1.0,0.0,0.0,1.0,1712.61001953125,1055.5400390625)">  <path fill-rule="nonzero" stroke-linecap="round" stroke="none" stroke-opacity="1" stroke-width="1.5px" stroke-linejoin="round" stroke-miterlimit="4" stroke-dasharray="none" fill-opacity="1" fill="#000000" d="M49.381,5.872L21.079,5.872C14.826,5.872,9.747,10.98,9.747,17.204L9.747,58.57C9.747,63.854,13.534,66.086,18.173,63.531L32.5,55.575C34.026,54.724,36.492,54.724,37.99,55.575L52.317,63.531C56.955,66.115,60.742,63.884,60.742,58.57L60.742,17.204C60.713,10.98,55.634,5.872,49.381,5.872ZM49.381,5.872"/>
  <path stroke-linejoin="round" fill-opacity="1" fill="#000000" stroke-linecap="round" stroke-miterlimit="4" stroke-width="1.5px" fill-rule="nonzero" stroke-dasharray="none" stroke="none" stroke-opacity="1" d="M49.381,3.137L21.079,3.137C13.325,3.137,7.012,9.461,7.012,17.204L7.012,58.57C7.012,65.938,13.033,69.483,19.492,65.927L33.827,57.966C34.527,57.576,35.976,57.576,36.638,57.953L50.989,65.922C57.448,69.52,63.477,65.969,63.477,58.57L63.477,17.204C63.441,9.45,57.128,3.137,49.381,3.137ZM49.381,8.606C54.111,8.606,57.985,12.481,58.008,17.217L58.008,58.57C58.008,61.799,56.461,62.71,53.647,61.142L39.317,53.184C37.009,51.872,33.526,51.872,31.168,53.187L16.845,61.141C14.036,62.687,12.482,61.772,12.482,58.57L12.482,17.204C12.482,12.479,16.348,8.606,21.079,8.606L49.381,8.606Z"/>
</g>
  <g id="Regular-M" transform="matrix(1.0,0.0,0.0,1.0,1415.9000195312499,1055.5400390625)">  <path stroke-dasharray="none" stroke="none" stroke-miterlimit="4" fill-opacity="1" stroke-opacity="1" fill-rule="nonzero" stroke-linejoin="round" stroke-width="1.5px" stroke-linecap="round" fill="#000000" d="M49.381,5.872L21.079,5.872C14.826,5.872,9.747,10.98,9.747,17.204L9.747,58.57C9.747,63.854,13.534,66.086,18.173,63.531L32.5,55.575C34.026,54.724,36.492,54.724,37.99,55.575L52.317,63.531C56.955,66.115,60.742,63.884,60.742,58.57L60.742,17.204C60.713,10.98,55.634,5.872,49.381,5.872ZM49.381,5.872"/>
  <path stroke-miterlimit="4" fill-opacity="1" stroke-opacity="1" fill-rule="nonzero" stroke="none" stroke-linecap="round" stroke-width="1.5px" stroke-dasharray="none" stroke-linejoin="round" fill="#000000" d="M49.381,3.67L21.079,3.67C13.619,3.67,7.545,9.755,7.545,17.204L7.545,58.57C7.545,65.532,13.131,68.821,19.235,65.46L33.569,57.5C34.429,57.02,36.076,57.02,36.901,57.489L51.248,65.456C57.352,68.856,62.944,65.563,62.944,58.57L62.944,17.204C62.909,9.745,56.834,3.67,49.381,3.67ZM49.381,8.074C54.405,8.074,58.517,12.185,58.541,17.214L58.54,58.57C58.54,62.205,56.558,63.373,53.388,61.608L39.059,53.65C36.909,52.428,33.623,52.428,31.427,53.652L17.104,61.606C13.938,63.349,11.949,62.178,11.949,58.57L11.949,17.204C11.949,12.185,16.053,8.074,21.079,8.074L49.381,8.074Z"/>
</g>
  <g id="Light-M" transform="matrix(1.0,0.0,0.0,1.0,1119.19001953125,1055.5400390625)">  <path stroke-opacity="1" stroke-linecap="round" stroke="none" stroke-width="1.5px" fill-opacity="1" fill-rule="nonzero" stroke-linejoin="round" stroke-miterlimit="4" fill="#000000" stroke-dasharray="none" d="M49.381,5.872L21.079,5.872C14.826,5.872,9.747,10.98,9.747,17.204L9.747,58.57C9.747,63.854,13.534,66.086,18.173,63.531L32.5,55.575C34.026,54.724,36.492,54.724,37.99,55.575L52.317,63.531C56.955,66.115,60.742,63.884,60.742,58.57L60.742,17.204C60.713,10.98,55.634,5.872,49.381,5.872ZM49.381,5.872"/>
  <path stroke="none" stroke-width="1.5px" fill="#000000" fill-opacity="1" stroke-opacity="1" stroke-dasharray="none" stroke-miterlimit="4" stroke-linecap="round" fill-rule="nonzero" stroke-linejoin="round" d="M49.381,4.037L21.079,4.037C13.822,4.037,7.912,9.957,7.912,17.204L7.912,58.57C7.912,65.252,13.198,68.365,19.058,65.139L33.39,57.179C34.362,56.637,36.146,56.637,37.083,57.17L51.426,65.136C57.286,68.399,62.577,65.283,62.577,58.57L62.577,17.204C62.543,9.949,56.631,4.037,49.381,4.037ZM49.381,7.707C54.607,7.707,58.883,11.982,58.907,17.213L58.907,58.57C58.907,62.485,56.624,63.83,53.209,61.928L38.88,53.971C36.839,52.81,33.69,52.81,31.606,53.973L17.282,61.927C13.871,63.805,11.582,62.457,11.582,58.57L11.582,17.204C11.582,11.983,15.85,7.707,21.079,7.707L49.381,7.707Z"/>
</g>
  <g id="Thin-M" transform="matrix(1.0,0.0,0.0,1.0,822.48001953125,1055.5400390625)">  <path stroke-linecap="round" stroke-miterlimit="4" stroke-dasharray="none" stroke-linejoin="round" stroke-width="1.5px" fill="#000000" stroke="none" fill-rule="nonzero" stroke-opacity="1" fill-opacity="1" d="M49.381,5.872L21.079,5.872C14.826,5.872,9.747,10.98,9.747,17.204L9.747,58.57C9.747,63.854,13.534,66.086,18.173,63.531L32.5,55.575C34.026,54.724,36.492,54.724,37.99,55.575L52.317,63.531C56.955,66.115,60.742,63.884,60.742,58.57L60.742,17.204C60.713,10.98,55.634,5.872,49.381,5.872ZM49.381,5.872"/>
  <path stroke-miterlimit="4" stroke-linecap="round" stroke-width="1.5px" stroke="none" stroke-opacity="1" stroke-linejoin="round" fill="#000000" fill-opacity="1" stroke-dasharray="none" fill-rule="nonzero" d="M49.381,4.404L21.079,4.404C14.025,4.404,8.279,10.16,8.279,17.204L8.279,58.57C8.279,64.973,13.265,67.909,18.881,64.817L33.212,56.859C34.295,56.255,36.215,56.255,37.264,56.851L51.604,64.815C57.22,67.942,62.21,65.003,62.21,58.57L62.21,17.204C62.177,10.152,56.429,4.404,49.381,4.404ZM49.381,7.34C54.81,7.34,59.249,11.779,59.274,17.211L59.274,58.57C59.274,62.765,56.69,64.287,53.031,62.249L38.702,54.292C36.77,53.193,33.758,53.193,31.785,54.293L17.46,62.248C13.804,64.261,11.215,62.737,11.215,58.57L11.215,17.204C11.215,11.78,15.647,7.34,21.079,7.34L49.381,7.34Z"/>
</g>
  <g id="Ultralight-M" transform="matrix(1.0,0.0,0.0,1.0,525.77001953125,1055.5400390625)">  <path stroke-width="1.5px" stroke-linecap="round" stroke-dasharray="none" stroke-linejoin="round" stroke-opacity="1" stroke-miterlimit="4" fill-opacity="1" fill="#000000" stroke="none" fill-rule="nonzero" d="M49.381,5.872L21.079,5.872C14.826,5.872,9.747,10.98,9.747,17.204L9.747,58.57C9.747,63.854,13.534,66.086,18.173,63.531L32.5,55.575C34.026,54.724,36.492,54.724,37.99,55.575L52.317,63.531C56.955,66.115,60.742,63.884,60.742,58.57L60.742,17.204C60.713,10.98,55.634,5.872,49.381,5.872ZM49.381,5.872"/>
  <path stroke-miterlimit="4" stroke-linecap="round" stroke="none" stroke-opacity="1" stroke-dasharray="none" stroke-linejoin="round" stroke-width="1.5px" fill-opacity="1" fill-rule="nonzero" fill="#000000" d="M49.381,4.771L21.079,4.771C14.228,4.771,8.646,10.362,8.646,17.204L8.646,58.57C8.646,64.693,13.333,67.453,18.704,64.496L33.034,56.538C34.228,55.872,36.284,55.872,37.445,56.532L51.782,64.494C57.153,67.486,61.843,64.723,61.843,58.57L61.843,17.204C61.811,10.355,56.227,4.771,49.381,4.771ZM49.381,6.973C55.012,6.973,59.615,11.575,59.641,17.209L59.641,58.57C59.641,63.045,56.756,64.744,52.852,62.57L38.524,54.613C36.7,53.576,33.825,53.576,31.963,54.614L17.638,62.569C13.736,64.717,10.848,63.016,10.848,58.57L10.848,17.204C10.848,11.577,15.445,6.973,21.079,6.973L49.381,6.973Z"/>
</g>
  <g id="Black-S" transform="matrix(1.0,0.0,0.0,1.0,2907.0949252929686,633.1849448242187)">  <path stroke-dasharray="none" fill-opacity="1" stroke-miterlimit="4" stroke-linejoin="round" fill-rule="nonzero" stroke="none" stroke-width="1.5px" stroke-opacity="1" stroke-linecap="round" fill="#000000" d="M38.665,4.598L16.505,4.598C11.609,4.598,7.632,8.597,7.632,13.471L7.632,45.86C7.632,49.998,10.597,51.745,14.229,49.745L25.447,43.515C26.643,42.849,28.574,42.849,29.746,43.515L40.964,49.745C44.596,51.768,47.561,50.021,47.561,45.86L47.561,13.471C47.538,8.597,43.561,4.598,38.665,4.598ZM38.665,4.598"/>
  <path stroke="none" stroke-linejoin="round" stroke-dasharray="none" fill="#000000" stroke-opacity="1" stroke-width="1.5px" stroke-linecap="round" fill-rule="nonzero" fill-opacity="1" stroke-miterlimit="4" d="M38.665,0.787L16.505,0.787C9.511,0.787,3.822,6.487,3.822,13.471L3.822,45.86C3.822,52.9,9.899,56.479,16.067,53.083L27.297,46.846C27.263,46.865,27.266,46.864,27.301,46.856C27.385,46.837,27.492,46.826,27.605,46.826C27.717,46.826,27.82,46.837,27.899,46.855C27.923,46.86,27.915,46.857,27.863,46.828L39.114,53.076C45.283,56.512,51.371,52.926,51.371,45.86L51.371,13.471C51.338,6.475,45.651,0.787,38.665,0.787ZM38.665,8.408C41.449,8.408,43.738,10.697,43.751,13.489L43.751,45.86C43.751,46.349,43.682,46.696,43.588,46.896C43.573,46.93,43.566,46.94,43.571,46.934C43.599,46.903,43.64,46.868,43.691,46.838C43.742,46.808,43.793,46.789,43.834,46.78C43.843,46.778,43.831,46.778,43.795,46.776C43.577,46.76,43.243,46.653,42.818,46.416L31.596,40.184C29.294,38.875,25.945,38.875,23.591,40.188L12.38,46.414C11.967,46.641,11.632,46.747,11.412,46.762C11.373,46.765,11.36,46.764,11.366,46.765C11.405,46.773,11.453,46.792,11.502,46.821C11.551,46.85,11.592,46.884,11.619,46.914C11.624,46.92,11.618,46.91,11.602,46.877C11.51,46.681,11.442,46.341,11.442,45.86L11.442,13.471C11.442,10.692,13.722,8.408,16.505,8.408L38.665,8.408Z"/>
</g>
  <g id="Heavy-S" transform="matrix(1.0,0.0,0.0,1.0,2610.3849252929685,633.1849448242187)">  <path stroke-width="1.5px" fill-rule="nonzero" stroke-linecap="round" stroke-opacity="1" stroke="none" fill="#000000" fill-opacity="1" stroke-miterlimit="4" stroke-linejoin="round" stroke-dasharray="none" d="M38.665,4.598L16.505,4.598C11.609,4.598,7.632,8.597,7.632,13.471L7.632,45.86C7.632,49.998,10.597,51.745,14.229,49.745L25.447,43.515C26.643,42.849,28.574,42.849,29.746,43.515L40.964,49.745C44.596,51.768,47.561,50.021,47.561,45.86L47.561,13.471C47.538,8.597,43.561,4.598,38.665,4.598ZM38.665,4.598"/>
  <path stroke-miterlimit="4" stroke-opacity="1" fill-opacity="1" stroke-linejoin="round" stroke-dasharray="none" stroke="none" stroke-linecap="round" fill-rule="nonzero" stroke-width="1.5px" fill="#000000" d="M38.665,1.205L16.505,1.205C9.741,1.205,4.239,6.717,4.239,13.471L4.239,45.86C4.239,52.582,9.975,55.961,15.866,52.717L27.094,46.482C27.264,46.387,27.932,46.387,28.069,46.465L39.317,52.711C45.208,55.993,50.954,52.608,50.954,45.86L50.954,13.471C50.922,6.706,45.421,1.205,38.665,1.205ZM38.665,7.99C41.679,7.99,44.154,10.466,44.168,13.487L44.168,45.86C44.168,47.434,43.983,47.543,42.615,46.781L31.393,40.549C29.215,39.31,26.021,39.31,23.795,40.552L12.582,46.779C11.22,47.529,11.025,47.414,11.025,45.86L11.025,13.471C11.025,10.462,13.492,7.99,16.505,7.99L38.665,7.99Z"/>
</g>
  <g id="Bold-S" transform="matrix(1.0,0.0,0.0,1.0,2313.6749252929685,633.1849448242187)">  <path stroke-miterlimit="4" fill="#000000" stroke-linejoin="round" stroke="none" stroke-linecap="round" fill-rule="nonzero" stroke-opacity="1" stroke-width="1.5px" stroke-dasharray="none" fill-opacity="1" d="M38.665,4.598L16.505,4.598C11.609,4.598,7.632,8.597,7.632,13.471L7.632,45.86C7.632,49.998,10.597,51.745,14.229,49.745L25.447,43.515C26.643,42.849,28.574,42.849,29.746,43.515L40.964,49.745C44.596,51.768,47.561,50.021,47.561,45.86L47.561,13.471C47.538,8.597,43.561,4.598,38.665,4.598ZM38.665,4.598"/>
  <path stroke-width="1.5px" fill-rule="nonzero" fill-opacity="1" stroke-linecap="round" stroke-miterlimit="4" stroke="none" stroke-linejoin="round" stroke-dasharray="none" stroke-opacity="1" fill="#000000" d="M38.665,1.622L16.505,1.622C9.972,1.622,4.656,6.947,4.656,13.471L4.656,45.86C4.656,52.265,10.052,55.442,15.665,52.352L26.892,46.117C27.004,46.054,27.283,45.991,27.605,45.991C27.921,45.991,28.186,46.052,28.275,46.102L39.519,52.347C45.132,55.473,50.537,52.29,50.537,45.86L50.537,13.471C50.506,6.937,45.191,1.622,38.665,1.622ZM38.665,7.573C41.909,7.573,44.57,10.235,44.586,13.485L44.586,45.86C44.586,47.752,44.059,48.063,42.412,47.145L31.191,40.914C29.136,39.745,26.098,39.745,23.998,40.917L12.785,47.144C11.143,48.047,10.608,47.732,10.608,45.86L10.608,13.471C10.608,10.232,13.261,7.573,16.505,7.573L38.665,7.573Z"/>
</g>
  <g id="Semibold-S" transform="matrix(1.0,0.0,0.0,1.0,2016.9649252929687,633.1849448242187)">  <path stroke-dasharray="none" stroke-width="1.5px" stroke-opacity="1" fill-rule="nonzero" stroke-linecap="round" stroke-linejoin="round" stroke-miterlimit="4" fill="#000000" fill-opacity="1" stroke="none" d="M38.665,4.598L16.505,4.598C11.609,4.598,7.632,8.597,7.632,13.471L7.632,45.86C7.632,49.998,10.597,51.745,14.229,49.745L25.447,43.515C26.643,42.849,28.574,42.849,29.746,43.515L40.964,49.745C44.596,51.768,47.561,50.021,47.561,45.86L47.561,13.471C47.538,8.597,43.561,4.598,38.665,4.598ZM38.665,4.598"/>
  <path stroke-miterlimit="4" stroke-linecap="round" stroke-opacity="1" fill="#000000" stroke="none" stroke-dasharray="none" stroke-width="1.5px" fill-rule="nonzero" fill-opacity="1" stroke-linejoin="round" d="M38.665,2.039L16.505,2.039C10.203,2.039,5.073,7.177,5.073,13.471L5.073,45.86C5.073,51.947,10.128,54.924,15.463,51.986L26.689,45.752C27.111,45.517,28.09,45.517,28.481,45.74L39.722,51.982C45.057,54.954,50.12,51.972,50.12,45.86L50.12,13.471C50.09,7.168,44.961,2.039,38.665,2.039ZM38.665,7.156C42.139,7.156,44.986,10.003,45.003,13.483L45.003,45.86C45.003,48.071,44.134,48.582,42.209,47.51L30.988,41.279C29.057,40.181,26.174,40.181,24.201,41.281L12.987,47.508C11.067,48.566,10.19,48.05,10.19,45.86L10.19,13.471C10.19,10.001,13.031,7.156,16.505,7.156L38.665,7.156Z"/>
</g>
  <g id="Medium-S" transform="matrix(1.0,0.0,0.0,1.0,1720.2549252929687,633.1849448242187)">  <path fill-rule="nonzero" stroke-linecap="round" stroke="none" stroke-opacity="1" stroke-width="1.5px" stroke-linejoin="round" stroke-miterlimit="4" stroke-dasharray="none" fill-opacity="1" fill="#000000" d="M38.665,4.598L16.505,4.598C11.609,4.598,7.632,8.597,7.632,13.471L7.632,45.86C7.632,49.998,10.597,51.745,14.229,49.745L25.447,43.515C26.643,42.849,28.574,42.849,29.746,43.515L40.964,49.745C44.596,51.768,47.561,50.021,47.561,45.86L47.561,13.471C47.538,8.597,43.561,4.598,38.665,4.598ZM38.665,4.598"/>
  <path stroke-linejoin="round" fill-opacity="1" fill="#000000" stroke-linecap="round" stroke-miterlimit="4" stroke-width="1.5px" fill-rule="nonzero" stroke-dasharray="none" stroke="none" stroke-opacity="1" d="M38.665,2.456L16.505,2.456C10.433,2.456,5.491,7.408,5.491,13.471L5.491,45.86C5.491,51.629,10.205,54.406,15.262,51.621L26.487,45.387C27.035,45.082,28.169,45.082,28.687,45.377L39.924,51.617C44.982,54.434,49.703,51.654,49.703,45.86L49.703,13.471C49.674,7.399,44.731,2.456,38.665,2.456ZM38.665,6.739C42.369,6.739,45.403,9.772,45.42,13.481L45.42,45.86C45.42,48.389,44.209,49.102,42.006,47.874L30.785,41.643C28.978,40.616,26.251,40.616,24.404,41.645L13.19,47.873C10.99,49.084,9.773,48.367,9.773,45.86L9.773,13.471C9.773,9.771,12.8,6.739,16.505,6.739L38.665,6.739Z"/>
</g>
  <g id="Regular-S" transform="matrix(1.0,0.0,0.0,1.0,1423.5449252929686,633.1849448242187)">  <path stroke-dasharray="none" stroke="none" stroke-miterlimit="4" fill-opacity="1" stroke-opacity="1" fill-rule="nonzero" stroke-linejoin="round" stroke-width="1.5px" stroke-linecap="round" fill="#000000" d="M38.665,4.598L16.505,4.598C11.609,4.598,7.632,8.597,7.632,13.471L7.632,45.86C7.632,49.998,10.597,51.745,14.229,49.745L25.447,43.515C26.643,42.849,28.574,42.849,29.746,43.515L40.964,49.745C44.596,51.768,47.561,50.021,47.561,45.86L47.561,13.471C47.538,8.597,43.561,4.598,38.665,4.598ZM38.665,4.598"/>
  <path stroke-miterlimit="4" fill-opacity="1" stroke-opacity="1" fill-rule="nonzero" stroke="none" stroke-linecap="round" stroke-width="1.5px" stroke-dasharray="none" stroke-linejoin="round" fill="#000000" d="M38.665,2.873L16.505,2.873C10.664,2.873,5.908,7.638,5.908,13.471L5.908,45.86C5.908,51.311,10.281,53.887,15.061,51.255L26.284,45.023C26.958,44.647,28.248,44.647,28.894,45.014L40.127,51.252C44.907,53.915,49.285,51.336,49.285,45.86L49.285,13.471C49.258,7.63,44.501,2.873,38.665,2.873ZM38.665,6.322C42.599,6.322,45.819,9.541,45.837,13.479L45.837,45.86C45.837,48.707,44.285,49.621,41.803,48.239L30.583,42.008C28.899,41.051,26.327,41.051,24.607,42.01L13.392,48.238C10.914,49.603,9.356,48.685,9.356,45.86L9.356,13.471C9.356,9.541,12.57,6.322,16.505,6.322L38.665,6.322Z"/>
</g>
  <g id="Light-S" transform="matrix(1.0,0.0,0.0,1.0,1126.8349252929688,633.1849448242187)">  <path stroke-opacity="1" stroke-linecap="round" stroke="none" stroke-width="1.5px" fill-opacity="1" fill-rule="nonzero" stroke-linejoin="round" stroke-miterlimit="4" fill="#000000" stroke-dasharray="none" d="M38.665,4.598L16.505,4.598C11.609,4.598,7.632,8.597,7.632,13.471L7.632,45.86C7.632,49.998,10.597,51.745,14.229,49.745L25.447,43.515C26.643,42.849,28.574,42.849,29.746,43.515L40.964,49.745C44.596,51.768,47.561,50.021,47.561,45.86L47.561,13.471C47.538,8.597,43.561,4.598,38.665,4.598ZM38.665,4.598"/>
  <path stroke="none" stroke-width="1.5px" fill="#000000" fill-opacity="1" stroke-opacity="1" stroke-dasharray="none" stroke-miterlimit="4" stroke-linecap="round" fill-rule="nonzero" stroke-linejoin="round" d="M38.665,3.161L16.505,3.161C10.823,3.161,6.195,7.797,6.195,13.471L6.195,45.86C6.195,51.093,10.334,53.53,14.922,51.004L26.145,44.771C26.906,44.347,28.302,44.347,29.036,44.764L40.266,51.001C44.855,53.557,48.998,51.117,48.998,45.86L48.998,13.471C48.971,7.79,44.342,3.161,38.665,3.161ZM38.665,6.034C42.758,6.034,46.105,9.382,46.125,13.477L46.125,45.86C46.125,48.926,44.336,49.979,41.663,48.49L30.443,42.259C28.845,41.35,26.38,41.35,24.747,42.261L13.532,48.489C10.861,49.96,9.069,48.904,9.069,45.86L9.069,13.471C9.069,9.382,12.411,6.034,16.505,6.034L38.665,6.034Z"/>
</g>
  <g id="Thin-S" transform="matrix(1.0,0.0,0.0,1.0,830.1249252929688,633.1849448242187)">  <path stroke-linecap="round" stroke-miterlimit="4" stroke-dasharray="none" stroke-linejoin="round" stroke-width="1.5px" fill="#000000" stroke="none" fill-rule="nonzero" stroke-opacity="1" fill-opacity="1" d="M38.665,4.598L16.505,4.598C11.609,4.598,7.632,8.597,7.632,13.471L7.632,45.86C7.632,49.998,10.597,51.745,14.229,49.745L25.447,43.515C26.643,42.849,28.574,42.849,29.746,43.515L40.964,49.745C44.596,51.768,47.561,50.021,47.561,45.86L47.561,13.471C47.538,8.597,43.561,4.598,38.665,4.598ZM38.665,4.598"/>
  <path stroke-miterlimit="4" stroke-linecap="round" stroke-width="1.5px" stroke="none" stroke-opacity="1" stroke-linejoin="round" fill="#000000" fill-opacity="1" stroke-dasharray="none" fill-rule="nonzero" d="M38.665,3.448L16.505,3.448C10.981,3.448,6.483,7.955,6.483,13.471L6.483,45.86C6.483,50.874,10.387,53.173,14.784,50.752L26.005,44.52C26.853,44.047,28.356,44.047,29.178,44.515L40.406,50.75C44.803,53.199,48.711,50.898,48.711,45.86L48.711,13.471C48.685,7.949,44.184,3.448,38.665,3.448ZM38.665,5.747C42.916,5.747,46.392,9.223,46.412,13.476L46.412,45.86C46.412,49.145,44.388,50.337,41.523,48.741L30.304,42.511C28.791,41.65,26.432,41.65,24.887,42.512L13.671,48.74C10.808,50.317,8.781,49.123,8.781,45.86L8.781,13.471C8.781,9.224,12.252,5.747,16.505,5.747L38.665,5.747Z"/>
</g>
  <g id="Ultralight-S" transform="matrix(1.0,0.0,0.0,1.0,533.4149252929687,633.1849448242187)">  <path stroke-width="1.5px" stroke-linecap="round" stroke-dasharray="none" stroke-linejoin="round" stroke-opacity="1" stroke-miterlimit="4" fill-opacity="1" fill="#000000" stroke="none" fill-rule="nonzero" d="M38.665,4.598L16.505,4.598C11.609,4.598,7.632,8.597,7.632,13.471L7.632,45.86C7.632,49.998,10.597,51.745,14.229,49.745L25.447,43.515C26.643,42.849,28.574,42.849,29.746,43.515L40.964,49.745C44.596,51.768,47.561,50.021,47.561,45.86L47.561,13.471C47.538,8.597,43.561,4.598,38.665,4.598ZM38.665,4.598"/>
  <path stroke-miterlimit="4" stroke-linecap="round" stroke="none" stroke-opacity="1" stroke-dasharray="none" stroke-linejoin="round" stroke-width="1.5px" fill-opacity="1" fill-rule="nonzero" fill="#000000" d="M38.665,3.735L16.505,3.735C11.14,3.735,6.77,8.114,6.77,13.471L6.77,45.86C6.77,50.655,10.439,52.816,14.645,50.5L25.866,44.269C26.8,43.748,28.411,43.748,29.32,44.265L40.545,50.499C44.751,52.841,48.423,50.678,48.423,45.86L48.423,13.471C48.398,8.108,44.025,3.735,38.665,3.735ZM38.665,5.46C43.075,5.46,46.678,9.063,46.699,13.475L46.699,45.86C46.699,49.364,44.44,50.695,41.383,48.992L30.164,42.762C28.736,41.95,26.485,41.95,25.027,42.763L13.811,48.991C10.756,50.674,8.494,49.342,8.494,45.86L8.494,13.471C8.494,9.065,12.093,5.46,16.505,5.46L38.665,5.46Z"/>
</g>
 </g>
</svg>
