<?xml version="1.0" encoding="UTF-8"?>
<!-- Generator: CustomSymbols v2.6.2.41 by @serious_bret https://bretlester.com/app_content/CustomSymbols/ -->
<!-- Guides: Left/Right 0.0/0.0 Cap/Base 0.0/0.0 -->
<!-- Settings: RefScale 1.0 Min/Max Stroke Scales 0.5/2.21 -->
<!DOCTYPE svg
PUBLIC "-//W3C//DTD SVG 1.1//EN"
       "http://www.w3.org/Graphics/SVG/1.1/DTD/svg11.dtd">
<svg version="1.1" xmlns="http://www.w3.org/2000/svg" xmlns:xlink="http://www.w3.org/1999/xlink" width="3300" height="2200">
<![CDATA[<svg width="36" height="36" viewBox="0 0 36 36" fill="none" xmlns="http://www.w3.org/2000/svg">
<path d="M31.5 33H4.5" stroke="black" stroke-width="3" stroke-linecap="round" stroke-linejoin="round"/>
<path d="M9 27V3H15V27H9Z" stroke="black" stroke-width="3" stroke-linecap="round" stroke-linejoin="round"/>
<path d="M21 27V12H27V27H21Z" stroke="black" stroke-width="3" stroke-linecap="round" stroke-linejoin="round"/>
</svg>
]]>
 <g id="Notes">
  <rect height="2200" id="artboard" style="fill:white;opacity:1" width="3300" x="0" y="0"/>
  <line id="" style="fill:none;stroke:black;opacity:1;stroke-width:0.5;" x1="263" x2="3036" y1="292" y2="292"/>
  <text id="reftext1" style="stroke:none;fill:black;font-family:-apple-system,&quot;SF Pro Display&quot;,&quot;SF Pro Text&quot;,Helvetica,sans-serif;font-weight:bold;" transform="matrix(1 0 0 1 263 322)">Weight/Scale Variations</text>
  <text id="reftext2" style="stroke:none;fill:black;font-family:-apple-system,&quot;SF Pro Display&quot;,&quot;SF Pro Text&quot;,Helvetica,sans-serif;text-anchor:middle;" transform="matrix(1 0 0 1 559.711 322)">Ultralight</text>
  <text style="stroke:none;fill:black;font-family:-apple-system,&quot;SF Pro Display&quot;,&quot;SF Pro Text&quot;,Helvetica,sans-serif;text-anchor:middle;" transform="matrix(1 0 0 1 856.422 322)">Thin</text>
  <text style="stroke:none;fill:black;font-family:-apple-system,&quot;SF Pro Display&quot;,&quot;SF Pro Text&quot;,Helvetica,sans-serif;text-anchor:middle;" transform="matrix(1 0 0 1 1153.13 322)">Light</text>
  <text style="stroke:none;fill:black;font-family:-apple-system,&quot;SF Pro Display&quot;,&quot;SF Pro Text&quot;,Helvetica,sans-serif;text-anchor:middle;" transform="matrix(1 0 0 1 1449.84 322)">Regular</text>
  <text style="stroke:none;fill:black;font-family:-apple-system,&quot;SF Pro Display&quot;,&quot;SF Pro Text&quot;,Helvetica,sans-serif;text-anchor:middle;" transform="matrix(1 0 0 1 1746.56 322)">Medium</text>
  <text style="stroke:none;fill:black;font-family:-apple-system,&quot;SF Pro Display&quot;,&quot;SF Pro Text&quot;,Helvetica,sans-serif;text-anchor:middle;" transform="matrix(1 0 0 1 2043.27 322)">Semibold</text>
  <text style="stroke:none;fill:black;font-family:-apple-system,&quot;SF Pro Display&quot;,&quot;SF Pro Text&quot;,Helvetica,sans-serif;text-anchor:middle;" transform="matrix(1 0 0 1 2339.98 322)">Bold</text>
  <text style="stroke:none;fill:black;font-family:-apple-system,&quot;SF Pro Display&quot;,&quot;SF Pro Text&quot;,Helvetica,sans-serif;text-anchor:middle;" transform="matrix(1 0 0 1 2636.69 322)">Heavy</text>
  <text style="stroke:none;fill:black;font-family:-apple-system,&quot;SF Pro Display&quot;,&quot;SF Pro Text&quot;,Helvetica,sans-serif;text-anchor:middle;" transform="matrix(1 0 0 1 2933.4 322)">Black</text>
  <line id="" style="fill:none;stroke:black;opacity:1;stroke-width:0.5;" x1="263" x2="3036" y1="1903" y2="1903"/>
  <g id="" transform="matrix(1 0 0 1 263 1933)">
   <path d="M9.24805 0.830078C13.5547 0.830078 17.1387-2.74414 17.1387-7.05078C17.1387-11.3574 13.5449-14.9316 9.23828-14.9316C4.94141-14.9316 1.36719-11.3574 1.36719-7.05078C1.36719-2.74414 4.95117 0.830078 9.24805 0.830078ZM9.24805-0.654297C5.70312-0.654297 2.87109-3.49609 2.87109-7.05078C2.87109-10.6055 5.69336-13.4473 9.23828-13.4473C12.793-13.4473 15.6348-10.6055 15.6445-7.05078C15.6543-3.49609 12.8027-0.654297 9.24805-0.654297ZM6.39648-6.31836L8.50586-6.31836L8.50586-4.19922C8.50586-3.75977 8.79883-3.45703 9.22852-3.45703C9.67773-3.45703 9.9707-3.75977 9.9707-4.19922L9.9707-6.31836L12.0996-6.31836C12.5391-6.31836 12.8418-6.61133 12.8418-7.04102C12.8418-7.48047 12.5391-7.7832 12.0996-7.7832L9.9707-7.7832L9.9707-9.89258C9.9707-10.3418 9.67773-10.6445 9.22852-10.6445C8.79883-10.6445 8.50586-10.3418 8.50586-9.89258L8.50586-7.7832L6.39648-7.7832C5.94727-7.7832 5.64453-7.48047 5.64453-7.04102C5.64453-6.61133 5.94727-6.31836 6.39648-6.31836Z"/>
  </g>
  <g id="" transform="matrix(1 0 0 1 281.506 1933)">
   <path d="M11.709 2.91016C17.1582 2.91016 21.6699-1.61133 21.6699-7.05078C21.6699-12.5 17.1484-17.0117 11.6992-17.0117C6.25977-17.0117 1.74805-12.5 1.74805-7.05078C1.74805-1.61133 6.26953 2.91016 11.709 2.91016ZM11.709 1.25C7.09961 1.25 3.41797-2.44141 3.41797-7.05078C3.41797-11.6602 7.08984-15.3516 11.6992-15.3516C16.3086-15.3516 20-11.6602 20.0098-7.05078C20.0195-2.44141 16.3184 1.25 11.709 1.25ZM7.98828-6.23047L10.8789-6.23047L10.8789-3.32031C10.8789-2.83203 11.2109-2.5 11.6895-2.5C12.1777-2.5 12.5195-2.83203 12.5195-3.32031L12.5195-6.23047L15.4297-6.23047C15.918-6.23047 16.25-6.5625 16.25-7.04102C16.25-7.5293 15.918-7.87109 15.4297-7.87109L12.5195-7.87109L12.5195-10.7617C12.5195-11.2695 12.1777-11.6016 11.6895-11.6016C11.2109-11.6016 10.8789-11.2598 10.8789-10.7617L10.8789-7.87109L7.98828-7.87109C7.48047-7.87109 7.14844-7.5293 7.14844-7.04102C7.14844-6.5625 7.49023-6.23047 7.98828-6.23047Z"/>
  </g>
  <g id="" transform="matrix(1 0 0 1 304.924 1933)">
   <path d="M14.9707 5.66406C21.9336 5.66406 27.6953-0.0976562 27.6953-7.05078C27.6953-14.0137 21.9238-19.7754 14.9609-19.7754C8.00781-19.7754 2.25586-14.0137 2.25586-7.05078C2.25586-0.0976562 8.01758 5.66406 14.9707 5.66406ZM14.9707 3.84766C8.93555 3.84766 4.08203-1.01562 4.08203-7.05078C4.08203-13.0957 8.92578-17.9492 14.9609-17.9492C21.0059-17.9492 25.8594-13.0957 25.8691-7.05078C25.8789-1.01562 21.0156 3.84766 14.9707 3.84766ZM10.0586-6.14258L14.0625-6.14258L14.0625-2.12891C14.0625-1.5918 14.4336-1.2207 14.9512-1.2207C15.4883-1.2207 15.8594-1.5918 15.8594-2.12891L15.8594-6.14258L19.8828-6.14258C20.4102-6.14258 20.791-6.51367 20.791-7.03125C20.791-7.56836 20.4199-7.94922 19.8828-7.94922L15.8594-7.94922L15.8594-11.9531C15.8594-12.5098 15.4883-12.8809 14.9512-12.8809C14.4336-12.8809 14.0625-12.5 14.0625-11.9531L14.0625-7.94922L10.0586-7.94922C9.50195-7.94922 9.13086-7.56836 9.13086-7.03125C9.13086-6.51367 9.51172-6.14258 10.0586-6.14258Z"/>
  </g>
  <text style="stroke:none;fill:black;font-family:-apple-system,&quot;SF Pro Display&quot;,&quot;SF Pro Text&quot;,Helvetica,sans-serif;font-weight:bold;" transform="matrix(1 0 0 1 263 1953)">Design Variations</text>
  <text style="stroke:none;fill:black;font-family:-apple-system,&quot;SF Pro Display&quot;,&quot;SF Pro Text&quot;,Helvetica,sans-serif;" transform="matrix(1 0 0 1 263 1971)">Symbols are supported in up to nine weights and three scales.</text>
  <text style="stroke:none;fill:black;font-family:-apple-system,&quot;SF Pro Display&quot;,&quot;SF Pro Text&quot;,Helvetica,sans-serif;" transform="matrix(1 0 0 1 263 1989)">For optimal layout with text and other symbols, vertically align</text>
  <text style="stroke:none;fill:black;font-family:-apple-system,&quot;SF Pro Display&quot;,&quot;SF Pro Text&quot;,Helvetica,sans-serif;" transform="matrix(1 0 0 1 263 2007)">symbols with the adjacent text.</text>
  <line id="" style="fill:none;stroke:#00AEEF;stroke-width:0.5;opacity:1.0;" x1="776" x2="776" y1="1919" y2="1933"/>
  <g id="" transform="matrix(1 0 0 1 776 1933)">
   <path d="M3.31055 0.126953C3.82812 0.126953 4.08203-0.0683594 4.26758-0.605469L5.52734-4.0625L11.2891-4.0625L12.5488-0.605469C12.7344-0.0683594 12.9883 0.126953 13.4961 0.126953C14.0137 0.126953 14.3457-0.185547 14.3457-0.673828C14.3457-0.839844 14.3164-0.986328 14.2383-1.20117L9.6582-13.3887C9.43359-13.9941 9.0332-14.2871 8.4082-14.2871C7.80273-14.2871 7.39258-13.9941 7.17773-13.3984L2.59766-1.19141C2.51953-0.976562 2.49023-0.830078 2.49023-0.664062C2.49023-0.175781 2.80273 0.126953 3.31055 0.126953ZM6.00586-5.53711L8.37891-12.1094L8.42773-12.1094L10.8008-5.53711Z"/>
  </g>
  <line id="" style="fill:none;stroke:#00AEEF;stroke-width:0.5;opacity:1.0;" x1="792.836" x2="792.836" y1="1919" y2="1933"/>
  <text style="stroke:none;fill:black;font-family:-apple-system,&quot;SF Pro Display&quot;,&quot;SF Pro Text&quot;,Helvetica,sans-serif;font-weight:bold;" transform="matrix(1 0 0 1 776 1953)">Margins</text>
  <text style="stroke:none;fill:black;font-family:-apple-system,&quot;SF Pro Display&quot;,&quot;SF Pro Text&quot;,Helvetica,sans-serif;" transform="matrix(1 0 0 1 776 1971)">Leading and trailing margins on the left and right side of each symbol</text>
  <text style="stroke:none;fill:black;font-family:-apple-system,&quot;SF Pro Display&quot;,&quot;SF Pro Text&quot;,Helvetica,sans-serif;" transform="matrix(1 0 0 1 776 1989)">can be adjusted by modifying the x-location of the margin guidelines.</text>
  <text style="stroke:none;fill:black;font-family:-apple-system,&quot;SF Pro Display&quot;,&quot;SF Pro Text&quot;,Helvetica,sans-serif;" transform="matrix(1 0 0 1 776 2007)">Modifications are automatically applied proportionally to all</text>
  <text style="stroke:none;fill:black;font-family:-apple-system,&quot;SF Pro Display&quot;,&quot;SF Pro Text&quot;,Helvetica,sans-serif;" transform="matrix(1 0 0 1 776 2025)">scales and weights.</text>
  <g id="" transform="matrix(1 0 0 1 1289 1933)">
   <path d="M2.8418 1.86523L4.54102 3.57422C5.40039 4.44336 6.38672 4.38477 7.31445 3.35938L17.4902-7.85156C17.7539-7.76367 18.0273-7.7832 18.3398-7.8418L19.4043-8.03711L20.0684-7.36328L20.0293-6.80664C19.9902-6.30859 20.1172-5.92773 20.6055-5.44922L21.3672-4.70703C21.8457-4.22852 22.4609-4.19922 22.9297-4.66797L25.8398-7.58789C26.3086-8.05664 26.2891-8.65234 25.8105-9.13086L25.0391-9.89258C24.5605-10.3711 24.1895-10.5273 23.7109-10.4883L23.1348-10.4395L22.4902-11.0742L22.7344-12.1973C22.8613-12.7637 22.7051-13.2031 22.1191-13.7891L19.9219-15.9766C16.582-19.2969 12.1484-19.2188 9.25781-16.3281C8.83789-15.918 8.80859-15.3418 9.04297-14.9512C9.27734-14.5898 9.73633-14.3555 10.3809-14.5215C11.8457-14.8633 13.3691-14.9219 14.7949-13.9844L14.209-12.5293C14.0137-12.0508 13.9844-11.6504 14.1113-11.2891L3.04688-0.898438C2.06055 0.0195312 1.98242 0.996094 2.8418 1.86523ZM10.752-15.957C13.1836-17.7344 16.4746-17.4316 18.7012-15.2051L21.1328-12.793C21.3672-12.5586 21.4062-12.373 21.3379-12.0312L21.0156-10.5469L22.5195-9.0625L23.5059-9.12109C23.7598-9.13086 23.8379-9.11133 24.0332-8.91602L24.6094-8.33984L22.168-5.89844L21.5918-6.47461C21.3965-6.66992 21.3672-6.74805 21.377-7.01172L21.4453-7.98828L19.9512-9.47266L18.4277-9.21875C18.1055-9.15039 17.959-9.17969 17.7148-9.41406L15.7129-11.416C15.459-11.6504 15.4297-11.8164 15.5859-12.1875L16.4648-14.2773C14.9023-15.7324 12.8711-16.3574 10.8398-15.7617C10.6836-15.7227 10.625-15.8496 10.752-15.957ZM5.27344 2.30469L4.10156 1.14258C3.63281 0.683594 3.74023 0.341797 4.14062-0.0195312L14.9512-10.1953L16.416-8.71094L6.42578 2.27539C6.07422 2.67578 5.74219 2.77344 5.27344 2.30469Z"/>
  </g>
  <text style="stroke:none;fill:black;font-family:-apple-system,&quot;SF Pro Display&quot;,&quot;SF Pro Text&quot;,Helvetica,sans-serif;font-weight:bold;" transform="matrix(1 0 0 1 1289 1953)">Exporting</text>
  <text style="stroke:none;fill:black;font-family:-apple-system,&quot;SF Pro Display&quot;,&quot;SF Pro Text&quot;,Helvetica,sans-serif;" transform="matrix(1 0 0 1 1289 1971)">Symbols should be outlined when exporting to ensure the</text>
  <text style="stroke:none;fill:black;font-family:-apple-system,&quot;SF Pro Display&quot;,&quot;SF Pro Text&quot;,Helvetica,sans-serif;" transform="matrix(1 0 0 1 1289 1989)">design is preserved when submitting to Xcode.</text>
  <text id="template-version" style="stroke:none;fill:black;font-family:-apple-system,&quot;SF Pro Display&quot;,&quot;SF Pro Text&quot;,Helvetica,sans-serif;text-anchor:end;" transform="matrix(1 0 0 1 3036 1933)">Template v.2.0</text>
  <text style="stroke:none;fill:black;font-family:-apple-system,&quot;SF Pro Display&quot;,&quot;SF Pro Text&quot;,Helvetica,sans-serif;text-anchor:end;" transform="matrix(1 0 0 1 3036 1951)">Requires Xcode 12 or greater</text>
  <text style="stroke:none;fill:black;font-family:-apple-system,&quot;SF Pro Display&quot;,&quot;SF Pro Text&quot;,Helvetica,sans-serif;" transform="matrix(1 0 0 1 263 726)">Small</text>
  <text style="stroke:none;fill:black;font-family:-apple-system,&quot;SF Pro Display&quot;,&quot;SF Pro Text&quot;,Helvetica,sans-serif;" transform="matrix(1 0 0 1 263 1156)">Medium</text>
  <text style="stroke:none;fill:black;font-family:-apple-system,&quot;SF Pro Display&quot;,&quot;SF Pro Text&quot;,Helvetica,sans-serif;" transform="matrix(1 0 0 1 263 1586)">Large</text>
 </g>
 <g id="Guides">
  <g id="H-reference" style="fill:#27AAE1;stroke:none;" transform="matrix(1 0 0 1 339 696)">
   <path d="M0.976562 0L3.66211 0L12.9883-24.4629L45.752-24.4629L55.127 0L57.7637 0L30.6152-70.459L28.125-70.459ZM29.3457-67.1387L29.4434-67.1387L44.873-26.709L13.8672-26.709Z"/>
  </g>
  <line id="Baseline-S" style="fill:none;stroke:#27AAE1;opacity:1;stroke-width:0.5;" x1="263" x2="3036" y1="696" y2="696"/>
  <line id="Capline-S" style="fill:none;stroke:#27AAE1;opacity:1;stroke-width:0.5;" x1="263" x2="3036" y1="625.541" y2="625.541"/>
  <g id="H-reference" style="fill:#27AAE1;stroke:none;" transform="matrix(1 0 0 1 339 1126)">
   <path d="M0.976562 0L3.66211 0L12.9883-24.4629L45.752-24.4629L55.127 0L57.7637 0L30.6152-70.459L28.125-70.459ZM29.3457-67.1387L29.4434-67.1387L44.873-26.709L13.8672-26.709Z"/>
  </g>
  <line id="Baseline-M" style="fill:none;stroke:#27AAE1;opacity:1;stroke-width:0.5;" x1="263" x2="3036" y1="1126" y2="1126"/>
  <line id="Capline-M" style="fill:none;stroke:#27AAE1;opacity:1;stroke-width:0.5;" x1="263" x2="3036" y1="1055.54" y2="1055.54"/>
  <g id="H-reference" style="fill:#27AAE1;stroke:none;" transform="matrix(1 0 0 1 339 1556)">
   <path d="M0.976562 0L3.66211 0L12.9883-24.4629L45.752-24.4629L55.127 0L57.7637 0L30.6152-70.459L28.125-70.459ZM29.3457-67.1387L29.4434-67.1387L44.873-26.709L13.8672-26.709Z"/>
  </g>
  <line id="Baseline-L" style="fill:none;stroke:#27AAE1;opacity:1;stroke-width:0.5;" x1="263" x2="3036" y1="1556" y2="1556"/>
  <line id="Capline-L" style="fill:none;stroke:#27AAE1;opacity:1;stroke-width:0.5;" x1="263" x2="3036" y1="1485.54" y2="1485.54"/>
  <line id="left-margin" x1="1415.9000195312499" x2="1415.9000195312499" y1="1030.79" y2="1150.12" style="fill:none;stroke:#00AEEF;stroke-width:0.5;opacity:1.0;"/>
  <line id="right-margin" x1="1486.3599804687499" x2="1486.3599804687499" y1="1030.79" y2="1150.12" style="fill:none;stroke:#00AEEF;stroke-width:0.5;opacity:1.0;"/>
 </g>
 <g id="Symbols">
  <g id="Black-L" transform="matrix(1.0,0.0,0.0,1.0,2889.2333251953123,1475.3233447265625)">  <path fill-rule="nonzero" stroke-opacity="1" stroke-linejoin="round" fill="#000000" stroke="none" fill-opacity="1" stroke-miterlimit="4" stroke-linecap="round" stroke-dasharray="none" stroke-width="3px" d="M79.532,74.949L11.362,74.949C6.739,74.949,2.992,78.696,2.992,83.319C2.992,87.941,6.739,91.689,11.362,91.689L79.532,91.689C84.154,91.689,87.901,87.941,87.901,83.319C87.901,78.696,84.154,74.949,79.532,74.949Z"/>
  <path stroke-dasharray="none" stroke="none" fill-opacity="1" fill-rule="nonzero" stroke-linecap="round" fill="#000000" stroke-linejoin="round" stroke-width="3px" stroke-miterlimit="4" stroke-opacity="1" d="M31.093,68.17L31.093,7.574L22.723,15.944L37.872,15.944L29.502,7.574L29.502,68.17L37.872,59.8L22.723,59.8L31.093,68.17ZM14.354,68.17C14.354,72.793,18.101,76.54,22.723,76.54L37.872,76.54C42.495,76.54,46.242,72.793,46.242,68.17L46.242,7.574C46.242,2.952,42.495,-0.795,37.872,-0.795L22.723,-0.795C18.101,-0.795,14.354,2.952,14.354,7.574L14.354,68.17Z"/>
  <path stroke-miterlimit="4" stroke-linejoin="round" stroke-opacity="1" fill-opacity="1" fill="#000000" fill-rule="nonzero" stroke-dasharray="none" stroke="none" stroke-width="3px" stroke-linecap="round" d="M61.391,68.17L61.391,30.298L53.021,38.668L68.17,38.668L59.8,30.298L59.8,68.17L68.17,59.8L53.021,59.8L61.391,68.17ZM44.651,68.17C44.651,72.793,48.399,76.54,53.021,76.54L68.17,76.54C72.793,76.54,76.54,72.793,76.54,68.17L76.54,30.298C76.54,25.675,72.793,21.928,68.17,21.928L53.021,21.928C48.399,21.928,44.651,25.675,44.651,30.298L44.651,68.17Z"/>
</g>
  <g id="Heavy-L" transform="matrix(1.0,0.0,0.0,1.0,2592.5233251953123,1475.3233447265625)">  <path stroke-opacity="1" stroke-linejoin="round" stroke-dasharray="none" stroke-miterlimit="4" fill-opacity="1" stroke-linecap="round" stroke-width="3px" stroke="none" fill="#000000" fill-rule="nonzero" d="M79.532,75.866L11.362,75.866C7.245,75.866,3.908,79.203,3.908,83.319C3.908,87.435,7.245,90.772,11.362,90.772L79.532,90.772C83.648,90.772,86.985,87.435,86.985,83.319C86.985,79.203,83.648,75.866,79.532,75.866Z"/>
  <path stroke-dasharray="none" stroke-linejoin="round" stroke-width="3px" stroke-opacity="1" stroke-miterlimit="4" stroke-linecap="round" stroke="none" fill-rule="nonzero" fill-opacity="1" fill="#000000" d="M30.177,68.17L30.177,7.574L22.723,15.028L37.872,15.028L30.419,7.574L30.419,68.17L37.872,60.717L22.723,60.717L30.177,68.17ZM15.27,68.17C15.27,72.286,18.607,75.623,22.723,75.623L37.872,75.623C41.989,75.623,45.325,72.286,45.325,68.17L45.325,7.574C45.325,3.458,41.989,0.121,37.872,0.121L22.723,0.121C18.607,0.121,15.27,3.458,15.27,7.574L15.27,68.17Z"/>
  <path stroke-miterlimit="4" stroke-linejoin="round" stroke="none" stroke-dasharray="none" fill-rule="nonzero" stroke-width="3px" stroke-opacity="1" fill-opacity="1" fill="#000000" stroke-linecap="round" d="M60.474,68.17L60.474,30.298L53.021,37.751L68.17,37.751L60.717,30.298L60.717,68.17L68.17,60.717L53.021,60.717L60.474,68.17ZM45.568,68.17C45.568,72.286,48.905,75.623,53.021,75.623L68.17,75.623C72.286,75.623,75.623,72.286,75.623,68.17L75.623,30.298C75.623,26.181,72.286,22.845,68.17,22.845L53.021,22.845C48.905,22.845,45.568,26.181,45.568,30.298L45.568,68.17Z"/>
</g>
  <g id="Bold-L" transform="matrix(1.0,0.0,0.0,1.0,2295.8133251953122,1475.3233447265625)">  <path fill="#000000" stroke-opacity="1" stroke-miterlimit="4" fill-opacity="1" stroke="none" stroke-dasharray="none" stroke-width="3px" stroke-linecap="round" stroke-linejoin="round" fill-rule="nonzero" d="M79.532,76.782L11.362,76.782C7.752,76.782,4.825,79.709,4.825,83.319C4.825,86.929,7.752,89.856,11.362,89.856L79.532,89.856C83.142,89.856,86.068,86.929,86.068,83.319C86.068,79.709,83.142,76.782,79.532,76.782Z"/>
  <path fill-rule="nonzero" stroke-opacity="1" stroke-miterlimit="4" stroke-width="3px" stroke-dasharray="none" fill-opacity="1" stroke-linejoin="round" fill="#000000" stroke-linecap="round" stroke="none" d="M29.26,68.17L29.26,7.574L22.723,14.111L37.872,14.111L31.335,7.574L31.335,68.17L37.872,61.633L22.723,61.633L29.26,68.17ZM16.187,68.17C16.187,71.78,19.113,74.707,22.723,74.707L37.872,74.707C41.482,74.707,44.409,71.78,44.409,68.17L44.409,7.574C44.409,3.964,41.482,1.038,37.872,1.038L22.723,1.038C19.113,1.038,16.187,3.964,16.187,7.574L16.187,68.17Z"/>
  <path stroke-linejoin="round" stroke="none" stroke-miterlimit="4" fill="#000000" stroke-opacity="1" stroke-linecap="round" stroke-dasharray="none" fill-rule="nonzero" fill-opacity="1" stroke-width="3px" d="M59.558,68.17L59.558,30.298L53.021,36.835L68.17,36.835L61.633,30.298L61.633,68.17L68.17,61.633L53.021,61.633L59.558,68.17ZM46.484,68.17C46.484,71.78,49.411,74.707,53.021,74.707L68.17,74.707C71.78,74.707,74.707,71.78,74.707,68.17L74.707,30.298C74.707,26.688,71.78,23.761,68.17,23.761L53.021,23.761C49.411,23.761,46.484,26.688,46.484,30.298L46.484,68.17Z"/>
</g>
  <g id="Semibold-L" transform="matrix(1.0,0.0,0.0,1.0,1999.1033251953124,1475.3233447265625)">  <path stroke-width="3px" fill="#000000" stroke-dasharray="none" stroke-opacity="1" stroke-miterlimit="4" fill-rule="nonzero" stroke-linejoin="round" stroke-linecap="round" fill-opacity="1" stroke="none" d="M79.532,77.699L11.362,77.699C8.258,77.699,5.741,80.215,5.741,83.319C5.741,86.423,8.258,88.939,11.362,88.939L79.532,88.939C82.636,88.939,85.152,86.423,85.152,83.319C85.152,80.215,82.636,77.699,79.532,77.699Z"/>
  <path fill-rule="nonzero" stroke-miterlimit="4" fill="#000000" fill-opacity="1" stroke-dasharray="none" stroke-linecap="round" stroke-width="3px" stroke="none" stroke-linejoin="round" stroke-opacity="1" d="M28.344,68.17L28.344,7.574L22.723,13.195L37.872,13.195L32.252,7.574L32.252,68.17L37.872,62.55L22.723,62.55L28.344,68.17ZM17.103,68.17C17.103,71.274,19.619,73.79,22.723,73.79L37.872,73.79C40.976,73.79,43.492,71.274,43.492,68.17L43.492,7.574C43.492,4.47,40.976,1.954,37.872,1.954L22.723,1.954C19.619,1.954,17.103,4.47,17.103,7.574L17.103,68.17Z"/>
  <path fill-opacity="1" stroke-miterlimit="4" fill-rule="nonzero" stroke-linejoin="round" stroke-width="3px" fill="#000000" stroke-opacity="1" stroke="none" stroke-linecap="round" stroke-dasharray="none" d="M58.641,68.17L58.641,30.298L53.021,35.918L68.17,35.918L62.55,30.298L62.55,68.17L68.17,62.55L53.021,62.55L58.641,68.17ZM47.401,68.17C47.401,71.274,49.917,73.79,53.021,73.79L68.17,73.79C71.274,73.79,73.79,71.274,73.79,68.17L73.79,30.298C73.79,27.194,71.274,24.678,68.17,24.678L53.021,24.678C49.917,24.678,47.401,27.194,47.401,30.298L47.401,68.17Z"/>
</g>
  <g id="Medium-L" transform="matrix(1.0,0.0,0.0,1.0,1702.3933251953124,1475.3233447265625)">  <path stroke-width="3px" stroke-opacity="1" fill="#000000" stroke-linecap="round" stroke="none" fill-opacity="1" stroke-linejoin="round" stroke-dasharray="none" fill-rule="nonzero" stroke-miterlimit="4" d="M79.532,78.615L11.362,78.615C8.764,78.615,6.658,80.721,6.658,83.319C6.658,85.917,8.764,88.023,11.362,88.023L79.532,88.023C82.129,88.023,84.235,85.917,84.235,83.319C84.235,80.721,82.129,78.615,79.532,78.615Z"/>
  <path stroke-linecap="round" stroke-width="3px" stroke-opacity="1" stroke-miterlimit="4" stroke-dasharray="none" stroke-linejoin="round" fill-rule="nonzero" fill-opacity="1" fill="#000000" stroke="none" d="M27.427,68.17L27.427,7.574L22.723,12.278L37.872,12.278L33.168,7.574L33.168,68.17L37.872,63.466L22.723,63.466L27.427,68.17ZM18.02,68.17C18.02,70.768,20.126,72.874,22.723,72.874L37.872,72.874C40.47,72.874,42.576,70.768,42.576,68.17L42.576,7.574C42.576,4.977,40.47,2.871,37.872,2.871L22.723,2.871C20.126,2.871,18.02,4.977,18.02,7.574L18.02,68.17Z"/>
  <path fill="#000000" stroke="none" stroke-width="3px" stroke-miterlimit="4" fill-rule="nonzero" stroke-opacity="1" stroke-dasharray="none" stroke-linecap="round" stroke-linejoin="round" fill-opacity="1" d="M57.725,68.17L57.725,30.298L53.021,35.002L68.17,35.002L63.466,30.298L63.466,68.17L68.17,63.466L53.021,63.466L57.725,68.17ZM48.317,68.17C48.317,70.768,50.423,72.874,53.021,72.874L68.17,72.874C70.768,72.874,72.874,70.768,72.874,68.17L72.874,30.298C72.874,27.7,70.768,25.594,68.17,25.594L53.021,25.594C50.423,25.594,48.317,27.7,48.317,30.298L48.317,68.17Z"/>
</g>
  <g id="Regular-L" transform="matrix(1.0,0.0,0.0,1.0,1405.6833251953124,1475.3233447265625)">  <path stroke-width="3px" stroke-opacity="1" stroke="none" stroke-miterlimit="4" fill-opacity="1" fill="#000000" stroke-dasharray="none" stroke-linejoin="round" fill-rule="nonzero" stroke-linecap="round" d="M79.532,79.532L11.362,79.532C9.27,79.532,7.574,81.227,7.574,83.319C7.574,85.411,9.27,87.106,11.362,87.106L79.532,87.106C81.623,87.106,83.319,85.411,83.319,83.319C83.319,81.227,81.623,79.532,79.532,79.532Z"/>
  <path stroke-linejoin="round" stroke-opacity="1" fill-rule="nonzero" fill-opacity="1" stroke-width="3px" stroke-linecap="round" stroke="none" stroke-dasharray="none" fill="#000000" stroke-miterlimit="4" d="M26.511,68.17L26.511,7.574L22.723,11.362L37.872,11.362L34.085,7.574L34.085,68.17L37.872,64.383L22.723,64.383L26.511,68.17ZM18.936,68.17C18.936,70.262,20.632,71.957,22.723,71.957L37.872,71.957C39.964,71.957,41.659,70.262,41.659,68.17L41.659,7.574C41.659,5.483,39.964,3.787,37.872,3.787L22.723,3.787C20.632,3.787,18.936,5.483,18.936,7.574L18.936,68.17Z"/>
  <path stroke-linejoin="round" stroke-width="3px" stroke-dasharray="none" stroke-linecap="round" fill="#000000" stroke-miterlimit="4" fill-rule="nonzero" stroke="none" stroke-opacity="1" fill-opacity="1" d="M56.808,68.17L56.808,30.298L53.021,34.085L68.17,34.085L64.383,30.298L64.383,68.17L68.17,64.383L53.021,64.383L56.808,68.17ZM49.234,68.17C49.234,70.262,50.929,71.957,53.021,71.957L68.17,71.957C70.262,71.957,71.957,70.262,71.957,68.17L71.957,30.298C71.957,28.206,70.262,26.511,68.17,26.511L53.021,26.511C50.929,26.511,49.234,28.206,49.234,30.298L49.234,68.17Z"/>
</g>
  <g id="Light-L" transform="matrix(1.0,0.0,0.0,1.0,1108.9733251953126,1475.3233447265625)">  <path fill="#000000" stroke-width="3px" stroke-linejoin="round" stroke-opacity="1" stroke-linecap="round" stroke="none" stroke-miterlimit="4" fill-opacity="1" stroke-dasharray="none" fill-rule="nonzero" d="M79.532,80.163L11.362,80.163C9.619,80.163,8.206,81.576,8.206,83.319C8.206,85.062,9.619,86.475,11.362,86.475L79.532,86.475C81.275,86.475,82.688,85.062,82.688,83.319C82.688,81.576,81.275,80.163,79.532,80.163Z"/>
  <path fill-rule="nonzero" fill="#000000" stroke="none" stroke-dasharray="none" stroke-opacity="1" stroke-width="3px" stroke-linejoin="round" stroke-miterlimit="4" stroke-linecap="round" fill-opacity="1" d="M25.879,68.17L25.879,7.574L22.723,10.73L37.872,10.73L34.716,7.574L34.716,68.17L37.872,65.014L22.723,65.014L25.879,68.17ZM19.567,68.17C19.567,69.913,20.98,71.326,22.723,71.326L37.872,71.326C39.615,71.326,41.028,69.913,41.028,68.17L41.028,7.574C41.028,5.831,39.615,4.418,37.872,4.418L22.723,4.418C20.98,4.418,19.567,5.831,19.567,7.574L19.567,68.17Z"/>
  <path fill-opacity="1" stroke-miterlimit="4" fill="#000000" stroke="none" stroke-linecap="round" stroke-dasharray="none" stroke-opacity="1" stroke-linejoin="round" stroke-width="3px" fill-rule="nonzero" d="M56.177,68.17L56.177,30.298L53.021,33.454L68.17,33.454L65.014,30.298L65.014,68.17L68.17,65.014L53.021,65.014L56.177,68.17ZM49.865,68.17C49.865,69.913,51.278,71.326,53.021,71.326L68.17,71.326C69.913,71.326,71.326,69.913,71.326,68.17L71.326,30.298C71.326,28.555,69.913,27.142,68.17,27.142L53.021,27.142C51.278,27.142,49.865,28.555,49.865,30.298L49.865,68.17Z"/>
</g>
  <g id="Thin-L" transform="matrix(1.0,0.0,0.0,1.0,812.2633251953125,1475.3233447265625)">  <path stroke-opacity="1" stroke="none" stroke-miterlimit="4" fill-opacity="1" stroke-dasharray="none" stroke-linejoin="round" fill-rule="nonzero" stroke-width="3px" fill="#000000" stroke-linecap="round" d="M79.532,80.794L11.362,80.794C9.967,80.794,8.837,81.924,8.837,83.319C8.837,84.713,9.967,85.844,11.362,85.844L79.532,85.844C80.926,85.844,82.056,84.713,82.056,83.319C82.056,81.924,80.926,80.794,79.532,80.794Z"/>
  <path stroke-linecap="round" stroke-width="3px" stroke-dasharray="none" fill-rule="nonzero" fill="#000000" stroke-linejoin="round" fill-opacity="1" stroke="none" stroke-opacity="1" stroke-miterlimit="4" d="M25.248,68.17L25.248,7.574L22.723,10.099L37.872,10.099L35.347,7.574L35.347,68.17L37.872,65.645L22.723,65.645L25.248,68.17ZM20.199,68.17C20.199,69.564,21.329,70.695,22.723,70.695L37.872,70.695C39.267,70.695,40.397,69.564,40.397,68.17L40.397,7.574C40.397,6.18,39.267,5.05,37.872,5.05L22.723,5.05C21.329,5.05,20.199,6.18,20.199,7.574L20.199,68.17Z"/>
  <path fill="#000000" stroke-miterlimit="4" stroke-dasharray="none" fill-opacity="1" stroke-opacity="1" stroke="none" stroke-linejoin="round" fill-rule="nonzero" stroke-width="3px" stroke-linecap="round" d="M55.546,68.17L55.546,30.298L53.021,32.823L68.17,32.823L65.645,30.298L65.645,68.17L68.17,65.645L53.021,65.645L55.546,68.17ZM50.496,68.17C50.496,69.564,51.627,70.695,53.021,70.695L68.17,70.695C69.564,70.695,70.695,69.564,70.695,68.17L70.695,30.298C70.695,28.903,69.564,27.773,68.17,27.773L53.021,27.773C51.627,27.773,50.496,28.903,50.496,30.298L50.496,68.17Z"/>
</g>
  <g id="Ultralight-L" transform="matrix(1.0,0.0,0.0,1.0,515.5533251953125,1475.3233447265625)">  <path stroke-width="3px" fill="#000000" fill-rule="nonzero" stroke-dasharray="none" stroke-linejoin="round" stroke="none" stroke-linecap="round" fill-opacity="1" stroke-opacity="1" stroke-miterlimit="4" d="M79.532,81.425L11.362,81.425C10.316,81.425,9.468,82.273,9.468,83.319C9.468,84.365,10.316,85.213,11.362,85.213L79.532,85.213C80.577,85.213,81.425,84.365,81.425,83.319C81.425,82.273,80.577,81.425,79.532,81.425Z"/>
  <path fill="#000000" stroke-dasharray="none" stroke-miterlimit="4" stroke-linejoin="round" fill-rule="nonzero" fill-opacity="1" stroke="none" stroke-linecap="round" stroke-opacity="1" stroke-width="3px" d="M24.617,68.17L24.617,7.574L22.723,9.468L37.872,9.468L35.979,7.574L35.979,68.17L37.872,66.276L22.723,66.276L24.617,68.17ZM20.83,68.17C20.83,69.216,21.678,70.064,22.723,70.064L37.872,70.064C38.918,70.064,39.766,69.216,39.766,68.17L39.766,7.574C39.766,6.529,38.918,5.681,37.872,5.681L22.723,5.681C21.678,5.681,20.83,6.529,20.83,7.574L20.83,68.17Z"/>
  <path fill-opacity="1" stroke-miterlimit="4" fill-rule="nonzero" stroke="none" stroke-width="3px" stroke-linejoin="round" stroke-opacity="1" stroke-dasharray="none" stroke-linecap="round" fill="#000000" d="M54.915,68.17L54.915,30.298L53.021,32.191L68.17,32.191L66.276,30.298L66.276,68.17L68.17,66.276L53.021,66.276L54.915,68.17ZM51.128,68.17C51.128,69.216,51.975,70.064,53.021,70.064L68.17,70.064C69.216,70.064,70.064,69.216,70.064,68.17L70.064,30.298C70.064,29.252,69.216,28.404,68.17,28.404L53.021,28.404C51.975,28.404,51.128,29.252,51.128,30.298L51.128,68.17Z"/>
</g>
  <g id="Black-M" transform="matrix(1.0,0.0,0.0,1.0,2899.45001953125,1055.5400390625)">  <path fill-rule="nonzero" stroke-opacity="1" stroke-linejoin="round" fill="#000000" stroke="none" fill-opacity="1" stroke-miterlimit="4" stroke-linecap="round" stroke-dasharray="none" stroke-width="3px" d="M61.652,58.1L8.807,58.1C5.224,58.1,2.319,61.005,2.319,64.588C2.319,68.172,5.224,71.076,8.807,71.076L61.652,71.076C65.236,71.076,68.141,68.172,68.141,64.588C68.141,61.005,65.236,58.1,61.652,58.1Z"/>
  <path stroke-dasharray="none" stroke="none" fill-opacity="1" fill-rule="nonzero" stroke-linecap="round" fill="#000000" stroke-linejoin="round" stroke-width="3px" stroke-miterlimit="4" stroke-opacity="1" d="M24.103,52.845L24.103,5.872L17.615,12.36L29.358,12.36L22.87,5.872L22.87,52.845L29.358,46.357L17.615,46.357L24.103,52.845ZM11.127,52.845C11.127,56.428,14.032,59.333,17.615,59.333L29.358,59.333C32.942,59.333,35.847,56.428,35.847,52.845L35.847,5.872C35.847,2.288,32.942,-0.617,29.358,-0.617L17.615,-0.617C14.032,-0.617,11.127,2.288,11.127,5.872L11.127,52.845Z"/>
  <path stroke-miterlimit="4" stroke-linejoin="round" stroke-opacity="1" fill-opacity="1" fill="#000000" fill-rule="nonzero" stroke-dasharray="none" stroke="none" stroke-width="3px" stroke-linecap="round" d="M47.59,52.845L47.59,23.487L41.102,29.975L52.845,29.975L46.357,23.487L46.357,52.845L52.845,46.357L41.102,46.357L47.59,52.845ZM34.613,52.845C34.613,56.428,37.518,59.333,41.102,59.333L52.845,59.333C56.428,59.333,59.333,56.428,59.333,52.845L59.333,23.487C59.333,19.903,56.428,16.998,52.845,16.998L41.102,16.998C37.518,16.998,34.613,19.903,34.613,23.487L34.613,52.845Z"/>
</g>
  <g id="Heavy-M" transform="matrix(1.0,0.0,0.0,1.0,2602.74001953125,1055.5400390625)">  <path stroke-opacity="1" stroke-linejoin="round" stroke-dasharray="none" stroke-miterlimit="4" fill-opacity="1" stroke-linecap="round" stroke-width="3px" stroke="none" fill="#000000" fill-rule="nonzero" d="M61.652,58.811L8.807,58.811C5.617,58.811,3.03,61.397,3.03,64.588C3.03,67.779,5.617,70.366,8.807,70.366L61.652,70.366C64.843,70.366,67.43,67.779,67.43,64.588C67.43,61.397,64.843,58.811,61.652,58.811Z"/>
  <path stroke-dasharray="none" stroke-linejoin="round" stroke-width="3px" stroke-opacity="1" stroke-miterlimit="4" stroke-linecap="round" stroke="none" fill-rule="nonzero" fill-opacity="1" fill="#000000" d="M23.393,52.845L23.393,5.872L17.615,11.649L29.358,11.649L23.581,5.872L23.581,52.845L29.358,47.067L17.615,47.067L23.393,52.845ZM11.837,52.845C11.837,56.036,14.424,58.623,17.615,58.623L29.358,58.623C32.549,58.623,35.136,56.036,35.136,52.845L35.136,5.872C35.136,2.681,32.549,0.094,29.358,0.094L17.615,0.094C14.424,0.094,11.837,2.681,11.837,5.872L11.837,52.845Z"/>
  <path stroke-miterlimit="4" stroke-linejoin="round" stroke="none" stroke-dasharray="none" fill-rule="nonzero" stroke-width="3px" stroke-opacity="1" fill-opacity="1" fill="#000000" stroke-linecap="round" d="M46.879,52.845L46.879,23.487L41.102,29.264L52.845,29.264L47.067,23.487L47.067,52.845L52.845,47.067L41.102,47.067L46.879,52.845ZM35.324,52.845C35.324,56.036,37.911,58.623,41.102,58.623L52.845,58.623C56.036,58.623,58.623,56.036,58.623,52.845L58.623,23.487C58.623,20.296,56.036,17.709,52.845,17.709L41.102,17.709C37.911,17.709,35.324,20.296,35.324,23.487L35.324,52.845Z"/>
</g>
  <g id="Bold-M" transform="matrix(1.0,0.0,0.0,1.0,2306.0300195312498,1055.5400390625)">  <path fill="#000000" stroke-opacity="1" stroke-miterlimit="4" fill-opacity="1" stroke="none" stroke-dasharray="none" stroke-width="3px" stroke-linecap="round" stroke-linejoin="round" fill-rule="nonzero" d="M61.652,59.521L8.807,59.521C6.009,59.521,3.74,61.79,3.74,64.588C3.74,67.387,6.009,69.656,8.807,69.656L61.652,69.656C64.451,69.656,66.72,67.387,66.72,64.588C66.72,61.79,64.451,59.521,61.652,59.521Z"/>
  <path fill-rule="nonzero" stroke-opacity="1" stroke-miterlimit="4" stroke-width="3px" stroke-dasharray="none" fill-opacity="1" stroke-linejoin="round" fill="#000000" stroke-linecap="round" stroke="none" d="M22.682,52.845L22.682,5.872L17.615,10.939L29.358,10.939L24.291,5.872L24.291,52.845L29.358,47.778L17.615,47.778L22.682,52.845ZM12.548,52.845C12.548,55.644,14.816,57.912,17.615,57.912L29.358,57.912C32.157,57.912,34.426,55.644,34.426,52.845L34.426,5.872C34.426,3.073,32.157,0.804,29.358,0.804L17.615,0.804C14.816,0.804,12.548,3.073,12.548,5.872L12.548,52.845Z"/>
  <path stroke-linejoin="round" stroke="none" stroke-miterlimit="4" fill="#000000" stroke-opacity="1" stroke-linecap="round" stroke-dasharray="none" fill-rule="nonzero" fill-opacity="1" stroke-width="3px" d="M46.169,52.845L46.169,23.487L41.102,28.554L52.845,28.554L47.778,23.487L47.778,52.845L52.845,47.778L41.102,47.778L46.169,52.845ZM36.034,52.845C36.034,55.644,38.303,57.912,41.102,57.912L52.845,57.912C55.644,57.912,57.912,55.644,57.912,52.845L57.912,23.487C57.912,20.688,55.644,18.419,52.845,18.419L41.102,18.419C38.303,18.419,36.034,20.688,36.034,23.487L36.034,52.845Z"/>
</g>
  <g id="Semibold-M" transform="matrix(1.0,0.0,0.0,1.0,2009.32001953125,1055.5400390625)">  <path stroke-width="3px" fill="#000000" stroke-dasharray="none" stroke-opacity="1" stroke-miterlimit="4" fill-rule="nonzero" stroke-linejoin="round" stroke-linecap="round" fill-opacity="1" stroke="none" d="M61.652,60.232L8.807,60.232C6.401,60.232,4.451,62.182,4.451,64.588C4.451,66.994,6.401,68.945,8.807,68.945L61.652,68.945C64.059,68.945,66.009,66.994,66.009,64.588C66.009,62.182,64.059,60.232,61.652,60.232Z"/>
  <path fill-rule="nonzero" stroke-miterlimit="4" fill="#000000" fill-opacity="1" stroke-dasharray="none" stroke-linecap="round" stroke-width="3px" stroke="none" stroke-linejoin="round" stroke-opacity="1" d="M21.972,52.845L21.972,5.872L17.615,10.228L29.358,10.228L25.002,5.872L25.002,52.845L29.358,48.488L17.615,48.488L21.972,52.845ZM13.258,52.845C13.258,55.251,15.209,57.202,17.615,57.202L29.358,57.202C31.764,57.202,33.715,55.251,33.715,52.845L33.715,5.872C33.715,3.465,31.764,1.515,29.358,1.515L17.615,1.515C15.209,1.515,13.258,3.465,13.258,5.872L13.258,52.845Z"/>
  <path fill-opacity="1" stroke-miterlimit="4" fill-rule="nonzero" stroke-linejoin="round" stroke-width="3px" fill="#000000" stroke-opacity="1" stroke="none" stroke-linecap="round" stroke-dasharray="none" d="M45.458,52.845L45.458,23.487L41.102,27.843L52.845,27.843L48.488,23.487L48.488,52.845L52.845,48.488L41.102,48.488L45.458,52.845ZM36.745,52.845C36.745,55.251,38.695,57.202,41.102,57.202L52.845,57.202C55.251,57.202,57.202,55.251,57.202,52.845L57.202,23.487C57.202,21.08,55.251,19.13,52.845,19.13L41.102,19.13C38.695,19.13,36.745,21.08,36.745,23.487L36.745,52.845Z"/>
</g>
  <g id="Medium-M" transform="matrix(1.0,0.0,0.0,1.0,1712.61001953125,1055.5400390625)">  <path stroke-width="3px" stroke-opacity="1" fill="#000000" stroke-linecap="round" stroke="none" fill-opacity="1" stroke-linejoin="round" stroke-dasharray="none" fill-rule="nonzero" stroke-miterlimit="4" d="M61.652,60.942L8.807,60.942C6.794,60.942,5.161,62.574,5.161,64.588C5.161,66.602,6.794,68.235,8.807,68.235L61.652,68.235C63.666,68.235,65.299,66.602,65.299,64.588C65.299,62.574,63.666,60.942,61.652,60.942Z"/>
  <path stroke-linecap="round" stroke-width="3px" stroke-opacity="1" stroke-miterlimit="4" stroke-dasharray="none" stroke-linejoin="round" fill-rule="nonzero" fill-opacity="1" fill="#000000" stroke="none" d="M21.261,52.845L21.261,5.872L17.615,9.518L29.358,9.518L25.712,5.872L25.712,52.845L29.358,49.199L17.615,49.199L21.261,52.845ZM13.969,52.845C13.969,54.859,15.601,56.491,17.615,56.491L29.358,56.491C31.372,56.491,33.005,54.859,33.005,52.845L33.005,5.872C33.005,3.858,31.372,2.225,29.358,2.225L17.615,2.225C15.601,2.225,13.969,3.858,13.969,5.872L13.969,52.845Z"/>
  <path fill="#000000" stroke="none" stroke-width="3px" stroke-miterlimit="4" fill-rule="nonzero" stroke-opacity="1" stroke-dasharray="none" stroke-linecap="round" stroke-linejoin="round" fill-opacity="1" d="M44.748,52.845L44.748,23.487L41.102,27.133L52.845,27.133L49.199,23.487L49.199,52.845L52.845,49.199L41.102,49.199L44.748,52.845ZM37.455,52.845C37.455,54.859,39.088,56.491,41.102,56.491L52.845,56.491C54.859,56.491,56.491,54.859,56.491,52.845L56.491,23.487C56.491,21.473,54.859,19.84,52.845,19.84L41.102,19.84C39.088,19.84,37.455,21.473,37.455,23.487L37.455,52.845Z"/>
</g>
  <g id="Regular-M" transform="matrix(1.0,0.0,0.0,1.0,1415.9000195312499,1055.5400390625)">  <path stroke-width="3px" stroke-opacity="1" stroke="none" stroke-miterlimit="4" fill-opacity="1" fill="#000000" stroke-dasharray="none" stroke-linejoin="round" fill-rule="nonzero" stroke-linecap="round" d="M61.652,61.652L8.807,61.652C7.186,61.652,5.872,62.967,5.872,64.588C5.872,66.21,7.186,67.524,8.807,67.524L61.652,67.524C63.274,67.524,64.588,66.21,64.588,64.588C64.588,62.967,63.274,61.652,61.652,61.652Z"/>
  <path stroke-linejoin="round" stroke-opacity="1" fill-rule="nonzero" fill-opacity="1" stroke-width="3px" stroke-linecap="round" stroke="none" stroke-dasharray="none" fill="#000000" stroke-miterlimit="4" d="M20.551,52.845L20.551,5.872L17.615,8.807L29.358,8.807L26.422,5.872L26.422,52.845L29.358,49.909L17.615,49.909L20.551,52.845ZM14.679,52.845C14.679,54.466,15.994,55.781,17.615,55.781L29.358,55.781C30.98,55.781,32.294,54.466,32.294,52.845L32.294,5.872C32.294,4.25,30.98,2.936,29.358,2.936L17.615,2.936C15.994,2.936,14.679,4.25,14.679,5.872L14.679,52.845Z"/>
  <path stroke-linejoin="round" stroke-width="3px" stroke-dasharray="none" stroke-linecap="round" fill="#000000" stroke-miterlimit="4" fill-rule="nonzero" stroke="none" stroke-opacity="1" fill-opacity="1" d="M44.037,52.845L44.037,23.487L41.102,26.422L52.845,26.422L49.909,23.487L49.909,52.845L52.845,49.909L41.102,49.909L44.037,52.845ZM38.166,52.845C38.166,54.466,39.48,55.781,41.102,55.781L52.845,55.781C54.466,55.781,55.781,54.466,55.781,52.845L55.781,23.487C55.781,21.865,54.466,20.551,52.845,20.551L41.102,20.551C39.48,20.551,38.166,21.865,38.166,23.487L38.166,52.845Z"/>
</g>
  <g id="Light-M" transform="matrix(1.0,0.0,0.0,1.0,1119.19001953125,1055.5400390625)">  <path fill="#000000" stroke-width="3px" stroke-linejoin="round" stroke-opacity="1" stroke-linecap="round" stroke="none" stroke-miterlimit="4" fill-opacity="1" stroke-dasharray="none" fill-rule="nonzero" d="M61.652,62.142L8.807,62.142C7.456,62.142,6.361,63.237,6.361,64.588C6.361,65.939,7.456,67.035,8.807,67.035L61.652,67.035C63.004,67.035,64.099,65.939,64.099,64.588C64.099,63.237,63.004,62.142,61.652,62.142Z"/>
  <path fill-rule="nonzero" fill="#000000" stroke="none" stroke-dasharray="none" stroke-opacity="1" stroke-width="3px" stroke-linejoin="round" stroke-miterlimit="4" stroke-linecap="round" fill-opacity="1" d="M20.062,52.845L20.062,5.872L17.615,8.318L29.358,8.318L26.912,5.872L26.912,52.845L29.358,50.398L17.615,50.398L20.062,52.845ZM15.168,52.845C15.168,54.196,16.264,55.291,17.615,55.291L29.358,55.291C30.709,55.291,31.805,54.196,31.805,52.845L31.805,5.872C31.805,4.52,30.709,3.425,29.358,3.425L17.615,3.425C16.264,3.425,15.168,4.52,15.168,5.872L15.168,52.845Z"/>
  <path fill-opacity="1" stroke-miterlimit="4" fill="#000000" stroke="none" stroke-linecap="round" stroke-dasharray="none" stroke-opacity="1" stroke-linejoin="round" stroke-width="3px" fill-rule="nonzero" d="M43.548,52.845L43.548,23.487L41.102,25.933L52.845,25.933L50.398,23.487L50.398,52.845L52.845,50.398L41.102,50.398L43.548,52.845ZM38.655,52.845C38.655,54.196,39.75,55.291,41.102,55.291L52.845,55.291C54.196,55.291,55.291,54.196,55.291,52.845L55.291,23.487C55.291,22.135,54.196,21.04,52.845,21.04L41.102,21.04C39.75,21.04,38.655,22.135,38.655,23.487L38.655,52.845Z"/>
</g>
  <g id="Thin-M" transform="matrix(1.0,0.0,0.0,1.0,822.48001953125,1055.5400390625)">  <path stroke-opacity="1" stroke="none" stroke-miterlimit="4" fill-opacity="1" stroke-dasharray="none" stroke-linejoin="round" fill-rule="nonzero" stroke-width="3px" fill="#000000" stroke-linecap="round" d="M61.652,62.631L8.807,62.631C7.727,62.631,6.85,63.507,6.85,64.588C6.85,65.669,7.727,66.546,8.807,66.546L61.652,66.546C62.733,66.546,63.61,65.669,63.61,64.588C63.61,63.507,62.733,62.631,61.652,62.631Z"/>
  <path stroke-linecap="round" stroke-width="3px" stroke-dasharray="none" fill-rule="nonzero" fill="#000000" stroke-linejoin="round" fill-opacity="1" stroke="none" stroke-opacity="1" stroke-miterlimit="4" d="M19.572,52.845L19.572,5.872L17.615,7.829L29.358,7.829L27.401,5.872L27.401,52.845L29.358,50.888L17.615,50.888L19.572,52.845ZM15.658,52.845C15.658,53.926,16.534,54.802,17.615,54.802L29.358,54.802C30.439,54.802,31.316,53.926,31.316,52.845L31.316,5.872C31.316,4.791,30.439,3.914,29.358,3.914L17.615,3.914C16.534,3.914,15.658,4.791,15.658,5.872L15.658,52.845Z"/>
  <path fill="#000000" stroke-miterlimit="4" stroke-dasharray="none" fill-opacity="1" stroke-opacity="1" stroke="none" stroke-linejoin="round" fill-rule="nonzero" stroke-width="3px" stroke-linecap="round" d="M43.059,52.845L43.059,23.487L41.102,25.444L52.845,25.444L50.888,23.487L50.888,52.845L52.845,50.888L41.102,50.888L43.059,52.845ZM39.144,52.845C39.144,53.926,40.021,54.802,41.102,54.802L52.845,54.802C53.926,54.802,54.802,53.926,54.802,52.845L54.802,23.487C54.802,22.406,53.926,21.529,52.845,21.529L41.102,21.529C40.021,21.529,39.144,22.406,39.144,23.487L39.144,52.845Z"/>
</g>
  <g id="Ultralight-M" transform="matrix(1.0,0.0,0.0,1.0,525.77001953125,1055.5400390625)">  <path stroke-width="3px" fill="#000000" fill-rule="nonzero" stroke-dasharray="none" stroke-linejoin="round" stroke="none" stroke-linecap="round" fill-opacity="1" stroke-opacity="1" stroke-miterlimit="4" d="M61.652,63.12L8.807,63.12C7.997,63.12,7.34,63.778,7.34,64.588C7.34,65.399,7.997,66.056,8.807,66.056L61.652,66.056C62.463,66.056,63.12,65.399,63.12,64.588C63.12,63.778,62.463,63.12,61.652,63.12Z"/>
  <path fill="#000000" stroke-dasharray="none" stroke-miterlimit="4" stroke-linejoin="round" fill-rule="nonzero" fill-opacity="1" stroke="none" stroke-linecap="round" stroke-opacity="1" stroke-width="3px" d="M19.083,52.845L19.083,5.872L17.615,7.34L29.358,7.34L27.89,5.872L27.89,52.845L29.358,51.377L17.615,51.377L19.083,52.845ZM16.147,52.845C16.147,53.656,16.804,54.313,17.615,54.313L29.358,54.313C30.169,54.313,30.826,53.656,30.826,52.845L30.826,5.872C30.826,5.061,30.169,4.404,29.358,4.404L17.615,4.404C16.804,4.404,16.147,5.061,16.147,5.872L16.147,52.845Z"/>
  <path fill-opacity="1" stroke-miterlimit="4" fill-rule="nonzero" stroke="none" stroke-width="3px" stroke-linejoin="round" stroke-opacity="1" stroke-dasharray="none" stroke-linecap="round" fill="#000000" d="M42.57,52.845L42.57,23.487L41.102,24.955L52.845,24.955L51.377,23.487L51.377,52.845L52.845,51.377L41.102,51.377L42.57,52.845ZM39.634,52.845C39.634,53.656,40.291,54.313,41.102,54.313L52.845,54.313C53.656,54.313,54.313,53.656,54.313,52.845L54.313,23.487C54.313,22.676,53.656,22.019,52.845,22.019L41.102,22.019C40.291,22.019,39.634,22.676,39.634,23.487L39.634,52.845Z"/>
</g>
  <g id="Black-S" transform="matrix(1.0,0.0,0.0,1.0,2907.0949252929686,633.1849448242187)">  <path fill-rule="nonzero" stroke-opacity="1" stroke-linejoin="round" fill="#000000" stroke="none" fill-opacity="1" stroke-miterlimit="4" stroke-linecap="round" stroke-dasharray="none" stroke-width="3px" d="M48.274,45.492L6.896,45.492C4.091,45.492,1.816,47.767,1.816,50.573C1.816,53.378,4.091,55.653,6.896,55.653L48.274,55.653C51.08,55.653,53.354,53.378,53.354,50.573C53.354,47.767,51.08,45.492,48.274,45.492Z"/>
  <path stroke-dasharray="none" stroke="none" fill-opacity="1" fill-rule="nonzero" stroke-linecap="round" fill="#000000" stroke-linejoin="round" stroke-width="3px" stroke-miterlimit="4" stroke-opacity="1" d="M18.873,41.378L18.873,4.598L13.793,9.678L22.988,9.678L17.907,4.598L17.907,41.378L22.988,36.297L13.793,36.297L18.873,41.378ZM8.712,41.378C8.712,44.183,10.987,46.458,13.793,46.458L22.988,46.458C25.793,46.458,28.068,44.183,28.068,41.378L28.068,4.598C28.068,1.792,25.793,-0.483,22.988,-0.483L13.793,-0.483C10.987,-0.483,8.712,1.792,8.712,4.598L8.712,41.378Z"/>
  <path stroke-miterlimit="4" stroke-linejoin="round" stroke-opacity="1" fill-opacity="1" fill="#000000" fill-rule="nonzero" stroke-dasharray="none" stroke="none" stroke-width="3px" stroke-linecap="round" d="M37.263,41.378L37.263,18.39L32.183,23.47L41.378,23.47L36.297,18.39L36.297,41.378L41.378,36.297L32.183,36.297L37.263,41.378ZM27.102,41.378C27.102,44.183,29.377,46.458,32.183,46.458L41.378,46.458C44.183,46.458,46.458,44.183,46.458,41.378L46.458,18.39C46.458,15.584,44.183,13.31,41.378,13.31L32.183,13.31C29.377,13.31,27.102,15.584,27.102,18.39L27.102,41.378Z"/>
</g>
  <g id="Heavy-S" transform="matrix(1.0,0.0,0.0,1.0,2610.3849252929685,633.1849448242187)">  <path stroke-opacity="1" stroke-linejoin="round" stroke-dasharray="none" stroke-miterlimit="4" fill-opacity="1" stroke-linecap="round" stroke-width="3px" stroke="none" fill="#000000" fill-rule="nonzero" d="M48.274,46.049L6.896,46.049C4.398,46.049,2.372,48.074,2.372,50.573C2.372,53.071,4.398,55.097,6.896,55.097L48.274,55.097C50.772,55.097,52.798,53.071,52.798,50.573C52.798,48.074,50.772,46.049,48.274,46.049Z"/>
  <path stroke-dasharray="none" stroke-linejoin="round" stroke-width="3px" stroke-opacity="1" stroke-miterlimit="4" stroke-linecap="round" stroke="none" fill-rule="nonzero" fill-opacity="1" fill="#000000" d="M18.316,41.378L18.316,4.598L13.793,9.121L22.988,9.121L18.464,4.598L18.464,41.378L22.988,36.854L13.793,36.854L18.316,41.378ZM9.269,41.378C9.269,43.876,11.294,45.902,13.793,45.902L22.988,45.902C25.486,45.902,27.512,43.876,27.512,41.378L27.512,4.598C27.512,2.099,25.486,0.074,22.988,0.074L13.793,0.074C11.294,0.074,9.269,2.099,9.269,4.598L9.269,41.378Z"/>
  <path stroke-miterlimit="4" stroke-linejoin="round" stroke="none" stroke-dasharray="none" fill-rule="nonzero" stroke-width="3px" stroke-opacity="1" fill-opacity="1" fill="#000000" stroke-linecap="round" d="M36.707,41.378L36.707,18.39L32.183,22.914L41.378,22.914L36.854,18.39L36.854,41.378L41.378,36.854L32.183,36.854L36.707,41.378ZM27.659,41.378C27.659,43.876,29.684,45.902,32.183,45.902L41.378,45.902C43.876,45.902,45.902,43.876,45.902,41.378L45.902,18.39C45.902,15.892,43.876,13.866,41.378,13.866L32.183,13.866C29.684,13.866,27.659,15.892,27.659,18.39L27.659,41.378Z"/>
</g>
  <g id="Bold-S" transform="matrix(1.0,0.0,0.0,1.0,2313.6749252929685,633.1849448242187)">  <path fill="#000000" stroke-opacity="1" stroke-miterlimit="4" fill-opacity="1" stroke="none" stroke-dasharray="none" stroke-width="3px" stroke-linecap="round" stroke-linejoin="round" fill-rule="nonzero" d="M48.274,46.605L6.896,46.605C4.705,46.605,2.929,48.381,2.929,50.573C2.929,52.764,4.705,54.54,6.896,54.54L48.274,54.54C50.465,54.54,52.242,52.764,52.242,50.573C52.242,48.381,50.465,46.605,48.274,46.605Z"/>
  <path fill-rule="nonzero" stroke-opacity="1" stroke-miterlimit="4" stroke-width="3px" stroke-dasharray="none" fill-opacity="1" stroke-linejoin="round" fill="#000000" stroke-linecap="round" stroke="none" d="M17.76,41.378L17.76,4.598L13.793,8.565L22.988,8.565L19.02,4.598L19.02,41.378L22.988,37.41L13.793,37.41L17.76,41.378ZM9.825,41.378C9.825,43.569,11.601,45.345,13.793,45.345L22.988,45.345C25.179,45.345,26.955,43.569,26.955,41.378L26.955,4.598C26.955,2.406,25.179,0.63,22.988,0.63L13.793,0.63C11.601,0.63,9.825,2.406,9.825,4.598L9.825,41.378Z"/>
  <path stroke-linejoin="round" stroke="none" stroke-miterlimit="4" fill="#000000" stroke-opacity="1" stroke-linecap="round" stroke-dasharray="none" fill-rule="nonzero" fill-opacity="1" stroke-width="3px" d="M36.15,41.378L36.15,18.39L32.183,22.358L41.378,22.358L37.41,18.39L37.41,41.378L41.378,37.41L32.183,37.41L36.15,41.378ZM28.215,41.378C28.215,43.569,29.991,45.345,32.183,45.345L41.378,45.345C43.569,45.345,45.345,43.569,45.345,41.378L45.345,18.39C45.345,16.199,43.569,14.422,41.378,14.422L32.183,14.422C29.991,14.422,28.215,16.199,28.215,18.39L28.215,41.378Z"/>
</g>
  <g id="Semibold-S" transform="matrix(1.0,0.0,0.0,1.0,2016.9649252929687,633.1849448242187)">  <path stroke-width="3px" fill="#000000" stroke-dasharray="none" stroke-opacity="1" stroke-miterlimit="4" fill-rule="nonzero" stroke-linejoin="round" stroke-linecap="round" fill-opacity="1" stroke="none" d="M48.274,47.161L6.896,47.161C5.012,47.161,3.485,48.689,3.485,50.573C3.485,52.457,5.012,53.984,6.896,53.984L48.274,53.984C50.158,53.984,51.685,52.457,51.685,50.573C51.685,48.689,50.158,47.161,48.274,47.161Z"/>
  <path fill-rule="nonzero" stroke-miterlimit="4" fill="#000000" fill-opacity="1" stroke-dasharray="none" stroke-linecap="round" stroke-width="3px" stroke="none" stroke-linejoin="round" stroke-opacity="1" d="M17.204,41.378L17.204,4.598L13.793,8.009L22.988,8.009L19.576,4.598L19.576,41.378L22.988,37.966L13.793,37.966L17.204,41.378ZM10.381,41.378C10.381,43.262,11.908,44.789,13.793,44.789L22.988,44.789C24.872,44.789,26.399,43.262,26.399,41.378L26.399,4.598C26.399,2.713,24.872,1.186,22.988,1.186L13.793,1.186C11.908,1.186,10.381,2.713,10.381,4.598L10.381,41.378Z"/>
  <path fill-opacity="1" stroke-miterlimit="4" fill-rule="nonzero" stroke-linejoin="round" stroke-width="3px" fill="#000000" stroke-opacity="1" stroke="none" stroke-linecap="round" stroke-dasharray="none" d="M35.594,41.378L35.594,18.39L32.183,21.801L41.378,21.801L37.966,18.39L37.966,41.378L41.378,37.966L32.183,37.966L35.594,41.378ZM28.771,41.378C28.771,43.262,30.299,44.789,32.183,44.789L41.378,44.789C43.262,44.789,44.789,43.262,44.789,41.378L44.789,18.39C44.789,16.506,43.262,14.979,41.378,14.979L32.183,14.979C30.299,14.979,28.771,16.506,28.771,18.39L28.771,41.378Z"/>
</g>
  <g id="Medium-S" transform="matrix(1.0,0.0,0.0,1.0,1720.2549252929687,633.1849448242187)">  <path stroke-width="3px" stroke-opacity="1" fill="#000000" stroke-linecap="round" stroke="none" fill-opacity="1" stroke-linejoin="round" stroke-dasharray="none" fill-rule="nonzero" stroke-miterlimit="4" d="M48.274,47.718L6.896,47.718C5.319,47.718,4.041,48.996,4.041,50.573C4.041,52.149,5.319,53.428,6.896,53.428L48.274,53.428C49.851,53.428,51.129,52.149,51.129,50.573C51.129,48.996,49.851,47.718,48.274,47.718Z"/>
  <path stroke-linecap="round" stroke-width="3px" stroke-opacity="1" stroke-miterlimit="4" stroke-dasharray="none" stroke-linejoin="round" fill-rule="nonzero" fill-opacity="1" fill="#000000" stroke="none" d="M16.648,41.378L16.648,4.598L13.793,7.453L22.988,7.453L20.133,4.598L20.133,41.378L22.988,38.523L13.793,38.523L16.648,41.378ZM10.937,41.378C10.937,42.954,12.216,44.233,13.793,44.233L22.988,44.233C24.564,44.233,25.843,42.954,25.843,41.378L25.843,4.598C25.843,3.021,24.564,1.742,22.988,1.742L13.793,1.742C12.216,1.742,10.937,3.021,10.937,4.598L10.937,41.378Z"/>
  <path fill="#000000" stroke="none" stroke-width="3px" stroke-miterlimit="4" fill-rule="nonzero" stroke-opacity="1" stroke-dasharray="none" stroke-linecap="round" stroke-linejoin="round" fill-opacity="1" d="M35.038,41.378L35.038,18.39L32.183,21.245L41.378,21.245L38.523,18.39L38.523,41.378L41.378,38.523L32.183,38.523L35.038,41.378ZM29.328,41.378C29.328,42.954,30.606,44.233,32.183,44.233L41.378,44.233C42.954,44.233,44.233,42.954,44.233,41.378L44.233,18.39C44.233,16.813,42.954,15.535,41.378,15.535L32.183,15.535C30.606,15.535,29.328,16.813,29.328,18.39L29.328,41.378Z"/>
</g>
  <g id="Regular-S" transform="matrix(1.0,0.0,0.0,1.0,1423.5449252929686,633.1849448242187)">  <path stroke-width="3px" stroke-opacity="1" stroke="none" stroke-miterlimit="4" fill-opacity="1" fill="#000000" stroke-dasharray="none" stroke-linejoin="round" fill-rule="nonzero" stroke-linecap="round" d="M48.274,48.274L6.896,48.274C5.627,48.274,4.598,49.303,4.598,50.573C4.598,51.842,5.627,52.871,6.896,52.871L48.274,52.871C49.543,52.871,50.573,51.842,50.573,50.573C50.573,49.303,49.543,48.274,48.274,48.274Z"/>
  <path stroke-linejoin="round" stroke-opacity="1" fill-rule="nonzero" fill-opacity="1" stroke-width="3px" stroke-linecap="round" stroke="none" stroke-dasharray="none" fill="#000000" stroke-miterlimit="4" d="M16.091,41.378L16.091,4.598L13.793,6.896L22.988,6.896L20.689,4.598L20.689,41.378L22.988,39.079L13.793,39.079L16.091,41.378ZM11.494,41.378C11.494,42.647,12.523,43.676,13.793,43.676L22.988,43.676C24.257,43.676,25.286,42.647,25.286,41.378L25.286,4.598C25.286,3.328,24.257,2.299,22.988,2.299L13.793,2.299C12.523,2.299,11.494,3.328,11.494,4.598L11.494,41.378Z"/>
  <path stroke-linejoin="round" stroke-width="3px" stroke-dasharray="none" stroke-linecap="round" fill="#000000" stroke-miterlimit="4" fill-rule="nonzero" stroke="none" stroke-opacity="1" fill-opacity="1" d="M34.481,41.378L34.481,18.39L32.183,20.689L41.378,20.689L39.079,18.39L39.079,41.378L41.378,39.079L32.183,39.079L34.481,41.378ZM29.884,41.378C29.884,42.647,30.913,43.676,32.183,43.676L41.378,43.676C42.647,43.676,43.676,42.647,43.676,41.378L43.676,18.39C43.676,17.12,42.647,16.091,41.378,16.091L32.183,16.091C30.913,16.091,29.884,17.12,29.884,18.39L29.884,41.378Z"/>
</g>
  <g id="Light-S" transform="matrix(1.0,0.0,0.0,1.0,1126.8349252929688,633.1849448242187)">  <path fill="#000000" stroke-width="3px" stroke-linejoin="round" stroke-opacity="1" stroke-linecap="round" stroke="none" stroke-miterlimit="4" fill-opacity="1" stroke-dasharray="none" fill-rule="nonzero" d="M48.274,48.657L6.896,48.657C5.838,48.657,4.981,49.515,4.981,50.573C4.981,51.631,5.838,52.488,6.896,52.488L48.274,52.488C49.332,52.488,50.19,51.631,50.19,50.573C50.19,49.515,49.332,48.657,48.274,48.657Z"/>
  <path fill-rule="nonzero" fill="#000000" stroke="none" stroke-dasharray="none" stroke-opacity="1" stroke-width="3px" stroke-linejoin="round" stroke-miterlimit="4" stroke-linecap="round" fill-opacity="1" d="M15.708,41.378L15.708,4.598L13.793,6.513L22.988,6.513L21.072,4.598L21.072,41.378L22.988,39.462L13.793,39.462L15.708,41.378ZM11.877,41.378C11.877,42.436,12.735,43.293,13.793,43.293L22.988,43.293C24.046,43.293,24.903,42.436,24.903,41.378L24.903,4.598C24.903,3.54,24.046,2.682,22.988,2.682L13.793,2.682C12.735,2.682,11.877,3.54,11.877,4.598L11.877,41.378Z"/>
  <path fill-opacity="1" stroke-miterlimit="4" fill="#000000" stroke="none" stroke-linecap="round" stroke-dasharray="none" stroke-opacity="1" stroke-linejoin="round" stroke-width="3px" fill-rule="nonzero" d="M34.098,41.378L34.098,18.39L32.183,20.306L41.378,20.306L39.462,18.39L39.462,41.378L41.378,39.462L32.183,39.462L34.098,41.378ZM30.267,41.378C30.267,42.436,31.125,43.293,32.183,43.293L41.378,43.293C42.436,43.293,43.293,42.436,43.293,41.378L43.293,18.39C43.293,17.332,42.436,16.474,41.378,16.474L32.183,16.474C31.125,16.474,30.267,17.332,30.267,18.39L30.267,41.378Z"/>
</g>
  <g id="Thin-S" transform="matrix(1.0,0.0,0.0,1.0,830.1249252929688,633.1849448242187)">  <path stroke-opacity="1" stroke="none" stroke-miterlimit="4" fill-opacity="1" stroke-dasharray="none" stroke-linejoin="round" fill-rule="nonzero" stroke-width="3px" fill="#000000" stroke-linecap="round" d="M48.274,49.04L6.896,49.04C6.05,49.04,5.364,49.726,5.364,50.573C5.364,51.419,6.05,52.105,6.896,52.105L48.274,52.105C49.12,52.105,49.806,51.419,49.806,50.573C49.806,49.726,49.12,49.04,48.274,49.04Z"/>
  <path stroke-linecap="round" stroke-width="3px" stroke-dasharray="none" fill-rule="nonzero" fill="#000000" stroke-linejoin="round" fill-opacity="1" stroke="none" stroke-opacity="1" stroke-miterlimit="4" d="M15.325,41.378L15.325,4.598L13.793,6.13L22.988,6.13L21.455,4.598L21.455,41.378L22.988,39.845L13.793,39.845L15.325,41.378ZM12.26,41.378C12.26,42.224,12.946,42.91,13.793,42.91L22.988,42.91C23.834,42.91,24.52,42.224,24.52,41.378L24.52,4.598C24.52,3.751,23.834,3.065,22.988,3.065L13.793,3.065C12.946,3.065,12.26,3.751,12.26,4.598L12.26,41.378Z"/>
  <path fill="#000000" stroke-miterlimit="4" stroke-dasharray="none" fill-opacity="1" stroke-opacity="1" stroke="none" stroke-linejoin="round" fill-rule="nonzero" stroke-width="3px" stroke-linecap="round" d="M33.715,41.378L33.715,18.39L32.183,19.923L41.378,19.923L39.845,18.39L39.845,41.378L41.378,39.845L32.183,39.845L33.715,41.378ZM30.65,41.378C30.65,42.224,31.336,42.91,32.183,42.91L41.378,42.91C42.224,42.91,42.91,42.224,42.91,41.378L42.91,18.39C42.91,17.544,42.224,16.858,41.378,16.858L32.183,16.858C31.336,16.858,30.65,17.544,30.65,18.39L30.65,41.378Z"/>
</g>
  <g id="Ultralight-S" transform="matrix(1.0,0.0,0.0,1.0,533.4149252929687,633.1849448242187)">  <path stroke-width="3px" fill="#000000" fill-rule="nonzero" stroke-dasharray="none" stroke-linejoin="round" stroke="none" stroke-linecap="round" fill-opacity="1" stroke-opacity="1" stroke-miterlimit="4" d="M48.274,49.423L6.896,49.423C6.261,49.423,5.747,49.938,5.747,50.573C5.747,51.207,6.261,51.722,6.896,51.722L48.274,51.722C48.909,51.722,49.423,51.207,49.423,50.573C49.423,49.938,48.909,49.423,48.274,49.423Z"/>
  <path fill="#000000" stroke-dasharray="none" stroke-miterlimit="4" stroke-linejoin="round" fill-rule="nonzero" fill-opacity="1" stroke="none" stroke-linecap="round" stroke-opacity="1" stroke-width="3px" d="M14.942,41.378L14.942,4.598L13.793,5.747L22.988,5.747L21.838,4.598L21.838,41.378L22.988,40.228L13.793,40.228L14.942,41.378ZM12.643,41.378C12.643,42.012,13.158,42.527,13.793,42.527L22.988,42.527C23.622,42.527,24.137,42.012,24.137,41.378L24.137,4.598C24.137,3.963,23.622,3.448,22.988,3.448L13.793,3.448C13.158,3.448,12.643,3.963,12.643,4.598L12.643,41.378Z"/>
  <path fill-opacity="1" stroke-miterlimit="4" fill-rule="nonzero" stroke="none" stroke-width="3px" stroke-linejoin="round" stroke-opacity="1" stroke-dasharray="none" stroke-linecap="round" fill="#000000" d="M33.332,41.378L33.332,18.39L32.183,19.539L41.378,19.539L40.228,18.39L40.228,41.378L41.378,40.228L32.183,40.228L33.332,41.378ZM31.033,41.378C31.033,42.012,31.548,42.527,32.183,42.527L41.378,42.527C42.012,42.527,42.527,42.012,42.527,41.378L42.527,18.39C42.527,17.755,42.012,17.241,41.378,17.241L32.183,17.241C31.548,17.241,31.033,17.755,31.033,18.39L31.033,41.378Z"/>
</g>
 </g>
</svg>
