<?xml version="1.0" encoding="UTF-8"?>
<!-- Generator: CustomSymbols v2.6.2.41 by @serious_bret https://bretlester.com/app_content/CustomSymbols/ -->
<!-- Guides: Left/Right 0.0/0.0 Cap/Base 0.0/0.0 -->
<!-- Settings: RefScale 1.0 Min/Max Stroke Scales 0.5/2.21 -->
<!DOCTYPE svg
PUBLIC "-//W3C//DTD SVG 1.1//EN"
       "http://www.w3.org/Graphics/SVG/1.1/DTD/svg11.dtd">
<svg version="1.1" xmlns="http://www.w3.org/2000/svg" xmlns:xlink="http://www.w3.org/1999/xlink" width="3300" height="2200">
<![CDATA[<svg xmlns="http://www.w3.org/2000/svg" width="36" height="36" viewBox="0 0 24 24" fill="none" stroke="currentColor" stroke-width="2" stroke-linecap="round" stroke-linejoin="round" class="ai ai-Bell"><path d="M12.721 5.003L11.255 5c-3.344-.008-6.247 2.709-6.27 6v3.79c0 .79-.1 1.561-.531 2.218l-.287.438C3.73 18.11 4.2 19 4.985 19h14.03c.785 0 1.254-.89.818-1.554l-.287-.438c-.43-.657-.531-1.429-.531-2.219v-3.788c-.04-3.292-2.95-5.99-6.294-5.998z"/><path d="M15 19a3 3 0 1 1-6 0"/><path d="M12 2a2 2 0 0 1 2 2v1h-4V4a2 2 0 0 1 2-2z"/></svg>]]>
 <g id="Notes">
  <rect height="2200" id="artboard" style="fill:white;opacity:1" width="3300" x="0" y="0"/>
  <line id="" style="fill:none;stroke:black;opacity:1;stroke-width:0.5;" x1="263" x2="3036" y1="292" y2="292"/>
  <text id="reftext1" style="stroke:none;fill:black;font-family:-apple-system,&quot;SF Pro Display&quot;,&quot;SF Pro Text&quot;,Helvetica,sans-serif;font-weight:bold;" transform="matrix(1 0 0 1 263 322)">Weight/Scale Variations</text>
  <text id="reftext2" style="stroke:none;fill:black;font-family:-apple-system,&quot;SF Pro Display&quot;,&quot;SF Pro Text&quot;,Helvetica,sans-serif;text-anchor:middle;" transform="matrix(1 0 0 1 559.711 322)">Ultralight</text>
  <text style="stroke:none;fill:black;font-family:-apple-system,&quot;SF Pro Display&quot;,&quot;SF Pro Text&quot;,Helvetica,sans-serif;text-anchor:middle;" transform="matrix(1 0 0 1 856.422 322)">Thin</text>
  <text style="stroke:none;fill:black;font-family:-apple-system,&quot;SF Pro Display&quot;,&quot;SF Pro Text&quot;,Helvetica,sans-serif;text-anchor:middle;" transform="matrix(1 0 0 1 1153.13 322)">Light</text>
  <text style="stroke:none;fill:black;font-family:-apple-system,&quot;SF Pro Display&quot;,&quot;SF Pro Text&quot;,Helvetica,sans-serif;text-anchor:middle;" transform="matrix(1 0 0 1 1449.84 322)">Regular</text>
  <text style="stroke:none;fill:black;font-family:-apple-system,&quot;SF Pro Display&quot;,&quot;SF Pro Text&quot;,Helvetica,sans-serif;text-anchor:middle;" transform="matrix(1 0 0 1 1746.56 322)">Medium</text>
  <text style="stroke:none;fill:black;font-family:-apple-system,&quot;SF Pro Display&quot;,&quot;SF Pro Text&quot;,Helvetica,sans-serif;text-anchor:middle;" transform="matrix(1 0 0 1 2043.27 322)">Semibold</text>
  <text style="stroke:none;fill:black;font-family:-apple-system,&quot;SF Pro Display&quot;,&quot;SF Pro Text&quot;,Helvetica,sans-serif;text-anchor:middle;" transform="matrix(1 0 0 1 2339.98 322)">Bold</text>
  <text style="stroke:none;fill:black;font-family:-apple-system,&quot;SF Pro Display&quot;,&quot;SF Pro Text&quot;,Helvetica,sans-serif;text-anchor:middle;" transform="matrix(1 0 0 1 2636.69 322)">Heavy</text>
  <text style="stroke:none;fill:black;font-family:-apple-system,&quot;SF Pro Display&quot;,&quot;SF Pro Text&quot;,Helvetica,sans-serif;text-anchor:middle;" transform="matrix(1 0 0 1 2933.4 322)">Black</text>
  <line id="" style="fill:none;stroke:black;opacity:1;stroke-width:0.5;" x1="263" x2="3036" y1="1903" y2="1903"/>
  <g id="" transform="matrix(1 0 0 1 263 1933)">
   <path d="M9.24805 0.830078C13.5547 0.830078 17.1387-2.74414 17.1387-7.05078C17.1387-11.3574 13.5449-14.9316 9.23828-14.9316C4.94141-14.9316 1.36719-11.3574 1.36719-7.05078C1.36719-2.74414 4.95117 0.830078 9.24805 0.830078ZM9.24805-0.654297C5.70312-0.654297 2.87109-3.49609 2.87109-7.05078C2.87109-10.6055 5.69336-13.4473 9.23828-13.4473C12.793-13.4473 15.6348-10.6055 15.6445-7.05078C15.6543-3.49609 12.8027-0.654297 9.24805-0.654297ZM6.39648-6.31836L8.50586-6.31836L8.50586-4.19922C8.50586-3.75977 8.79883-3.45703 9.22852-3.45703C9.67773-3.45703 9.9707-3.75977 9.9707-4.19922L9.9707-6.31836L12.0996-6.31836C12.5391-6.31836 12.8418-6.61133 12.8418-7.04102C12.8418-7.48047 12.5391-7.7832 12.0996-7.7832L9.9707-7.7832L9.9707-9.89258C9.9707-10.3418 9.67773-10.6445 9.22852-10.6445C8.79883-10.6445 8.50586-10.3418 8.50586-9.89258L8.50586-7.7832L6.39648-7.7832C5.94727-7.7832 5.64453-7.48047 5.64453-7.04102C5.64453-6.61133 5.94727-6.31836 6.39648-6.31836Z"/>
  </g>
  <g id="" transform="matrix(1 0 0 1 281.506 1933)">
   <path d="M11.709 2.91016C17.1582 2.91016 21.6699-1.61133 21.6699-7.05078C21.6699-12.5 17.1484-17.0117 11.6992-17.0117C6.25977-17.0117 1.74805-12.5 1.74805-7.05078C1.74805-1.61133 6.26953 2.91016 11.709 2.91016ZM11.709 1.25C7.09961 1.25 3.41797-2.44141 3.41797-7.05078C3.41797-11.6602 7.08984-15.3516 11.6992-15.3516C16.3086-15.3516 20-11.6602 20.0098-7.05078C20.0195-2.44141 16.3184 1.25 11.709 1.25ZM7.98828-6.23047L10.8789-6.23047L10.8789-3.32031C10.8789-2.83203 11.2109-2.5 11.6895-2.5C12.1777-2.5 12.5195-2.83203 12.5195-3.32031L12.5195-6.23047L15.4297-6.23047C15.918-6.23047 16.25-6.5625 16.25-7.04102C16.25-7.5293 15.918-7.87109 15.4297-7.87109L12.5195-7.87109L12.5195-10.7617C12.5195-11.2695 12.1777-11.6016 11.6895-11.6016C11.2109-11.6016 10.8789-11.2598 10.8789-10.7617L10.8789-7.87109L7.98828-7.87109C7.48047-7.87109 7.14844-7.5293 7.14844-7.04102C7.14844-6.5625 7.49023-6.23047 7.98828-6.23047Z"/>
  </g>
  <g id="" transform="matrix(1 0 0 1 304.924 1933)">
   <path d="M14.9707 5.66406C21.9336 5.66406 27.6953-0.0976562 27.6953-7.05078C27.6953-14.0137 21.9238-19.7754 14.9609-19.7754C8.00781-19.7754 2.25586-14.0137 2.25586-7.05078C2.25586-0.0976562 8.01758 5.66406 14.9707 5.66406ZM14.9707 3.84766C8.93555 3.84766 4.08203-1.01562 4.08203-7.05078C4.08203-13.0957 8.92578-17.9492 14.9609-17.9492C21.0059-17.9492 25.8594-13.0957 25.8691-7.05078C25.8789-1.01562 21.0156 3.84766 14.9707 3.84766ZM10.0586-6.14258L14.0625-6.14258L14.0625-2.12891C14.0625-1.5918 14.4336-1.2207 14.9512-1.2207C15.4883-1.2207 15.8594-1.5918 15.8594-2.12891L15.8594-6.14258L19.8828-6.14258C20.4102-6.14258 20.791-6.51367 20.791-7.03125C20.791-7.56836 20.4199-7.94922 19.8828-7.94922L15.8594-7.94922L15.8594-11.9531C15.8594-12.5098 15.4883-12.8809 14.9512-12.8809C14.4336-12.8809 14.0625-12.5 14.0625-11.9531L14.0625-7.94922L10.0586-7.94922C9.50195-7.94922 9.13086-7.56836 9.13086-7.03125C9.13086-6.51367 9.51172-6.14258 10.0586-6.14258Z"/>
  </g>
  <text style="stroke:none;fill:black;font-family:-apple-system,&quot;SF Pro Display&quot;,&quot;SF Pro Text&quot;,Helvetica,sans-serif;font-weight:bold;" transform="matrix(1 0 0 1 263 1953)">Design Variations</text>
  <text style="stroke:none;fill:black;font-family:-apple-system,&quot;SF Pro Display&quot;,&quot;SF Pro Text&quot;,Helvetica,sans-serif;" transform="matrix(1 0 0 1 263 1971)">Symbols are supported in up to nine weights and three scales.</text>
  <text style="stroke:none;fill:black;font-family:-apple-system,&quot;SF Pro Display&quot;,&quot;SF Pro Text&quot;,Helvetica,sans-serif;" transform="matrix(1 0 0 1 263 1989)">For optimal layout with text and other symbols, vertically align</text>
  <text style="stroke:none;fill:black;font-family:-apple-system,&quot;SF Pro Display&quot;,&quot;SF Pro Text&quot;,Helvetica,sans-serif;" transform="matrix(1 0 0 1 263 2007)">symbols with the adjacent text.</text>
  <line id="" style="fill:none;stroke:#00AEEF;stroke-width:0.5;opacity:1.0;" x1="776" x2="776" y1="1919" y2="1933"/>
  <g id="" transform="matrix(1 0 0 1 776 1933)">
   <path d="M3.31055 0.126953C3.82812 0.126953 4.08203-0.0683594 4.26758-0.605469L5.52734-4.0625L11.2891-4.0625L12.5488-0.605469C12.7344-0.0683594 12.9883 0.126953 13.4961 0.126953C14.0137 0.126953 14.3457-0.185547 14.3457-0.673828C14.3457-0.839844 14.3164-0.986328 14.2383-1.20117L9.6582-13.3887C9.43359-13.9941 9.0332-14.2871 8.4082-14.2871C7.80273-14.2871 7.39258-13.9941 7.17773-13.3984L2.59766-1.19141C2.51953-0.976562 2.49023-0.830078 2.49023-0.664062C2.49023-0.175781 2.80273 0.126953 3.31055 0.126953ZM6.00586-5.53711L8.37891-12.1094L8.42773-12.1094L10.8008-5.53711Z"/>
  </g>
  <line id="" style="fill:none;stroke:#00AEEF;stroke-width:0.5;opacity:1.0;" x1="792.836" x2="792.836" y1="1919" y2="1933"/>
  <text style="stroke:none;fill:black;font-family:-apple-system,&quot;SF Pro Display&quot;,&quot;SF Pro Text&quot;,Helvetica,sans-serif;font-weight:bold;" transform="matrix(1 0 0 1 776 1953)">Margins</text>
  <text style="stroke:none;fill:black;font-family:-apple-system,&quot;SF Pro Display&quot;,&quot;SF Pro Text&quot;,Helvetica,sans-serif;" transform="matrix(1 0 0 1 776 1971)">Leading and trailing margins on the left and right side of each symbol</text>
  <text style="stroke:none;fill:black;font-family:-apple-system,&quot;SF Pro Display&quot;,&quot;SF Pro Text&quot;,Helvetica,sans-serif;" transform="matrix(1 0 0 1 776 1989)">can be adjusted by modifying the x-location of the margin guidelines.</text>
  <text style="stroke:none;fill:black;font-family:-apple-system,&quot;SF Pro Display&quot;,&quot;SF Pro Text&quot;,Helvetica,sans-serif;" transform="matrix(1 0 0 1 776 2007)">Modifications are automatically applied proportionally to all</text>
  <text style="stroke:none;fill:black;font-family:-apple-system,&quot;SF Pro Display&quot;,&quot;SF Pro Text&quot;,Helvetica,sans-serif;" transform="matrix(1 0 0 1 776 2025)">scales and weights.</text>
  <g id="" transform="matrix(1 0 0 1 1289 1933)">
   <path d="M2.8418 1.86523L4.54102 3.57422C5.40039 4.44336 6.38672 4.38477 7.31445 3.35938L17.4902-7.85156C17.7539-7.76367 18.0273-7.7832 18.3398-7.8418L19.4043-8.03711L20.0684-7.36328L20.0293-6.80664C19.9902-6.30859 20.1172-5.92773 20.6055-5.44922L21.3672-4.70703C21.8457-4.22852 22.4609-4.19922 22.9297-4.66797L25.8398-7.58789C26.3086-8.05664 26.2891-8.65234 25.8105-9.13086L25.0391-9.89258C24.5605-10.3711 24.1895-10.5273 23.7109-10.4883L23.1348-10.4395L22.4902-11.0742L22.7344-12.1973C22.8613-12.7637 22.7051-13.2031 22.1191-13.7891L19.9219-15.9766C16.582-19.2969 12.1484-19.2188 9.25781-16.3281C8.83789-15.918 8.80859-15.3418 9.04297-14.9512C9.27734-14.5898 9.73633-14.3555 10.3809-14.5215C11.8457-14.8633 13.3691-14.9219 14.7949-13.9844L14.209-12.5293C14.0137-12.0508 13.9844-11.6504 14.1113-11.2891L3.04688-0.898438C2.06055 0.0195312 1.98242 0.996094 2.8418 1.86523ZM10.752-15.957C13.1836-17.7344 16.4746-17.4316 18.7012-15.2051L21.1328-12.793C21.3672-12.5586 21.4062-12.373 21.3379-12.0312L21.0156-10.5469L22.5195-9.0625L23.5059-9.12109C23.7598-9.13086 23.8379-9.11133 24.0332-8.91602L24.6094-8.33984L22.168-5.89844L21.5918-6.47461C21.3965-6.66992 21.3672-6.74805 21.377-7.01172L21.4453-7.98828L19.9512-9.47266L18.4277-9.21875C18.1055-9.15039 17.959-9.17969 17.7148-9.41406L15.7129-11.416C15.459-11.6504 15.4297-11.8164 15.5859-12.1875L16.4648-14.2773C14.9023-15.7324 12.8711-16.3574 10.8398-15.7617C10.6836-15.7227 10.625-15.8496 10.752-15.957ZM5.27344 2.30469L4.10156 1.14258C3.63281 0.683594 3.74023 0.341797 4.14062-0.0195312L14.9512-10.1953L16.416-8.71094L6.42578 2.27539C6.07422 2.67578 5.74219 2.77344 5.27344 2.30469Z"/>
  </g>
  <text style="stroke:none;fill:black;font-family:-apple-system,&quot;SF Pro Display&quot;,&quot;SF Pro Text&quot;,Helvetica,sans-serif;font-weight:bold;" transform="matrix(1 0 0 1 1289 1953)">Exporting</text>
  <text style="stroke:none;fill:black;font-family:-apple-system,&quot;SF Pro Display&quot;,&quot;SF Pro Text&quot;,Helvetica,sans-serif;" transform="matrix(1 0 0 1 1289 1971)">Symbols should be outlined when exporting to ensure the</text>
  <text style="stroke:none;fill:black;font-family:-apple-system,&quot;SF Pro Display&quot;,&quot;SF Pro Text&quot;,Helvetica,sans-serif;" transform="matrix(1 0 0 1 1289 1989)">design is preserved when submitting to Xcode.</text>
  <text id="template-version" style="stroke:none;fill:black;font-family:-apple-system,&quot;SF Pro Display&quot;,&quot;SF Pro Text&quot;,Helvetica,sans-serif;text-anchor:end;" transform="matrix(1 0 0 1 3036 1933)">Template v.2.0</text>
  <text style="stroke:none;fill:black;font-family:-apple-system,&quot;SF Pro Display&quot;,&quot;SF Pro Text&quot;,Helvetica,sans-serif;text-anchor:end;" transform="matrix(1 0 0 1 3036 1951)">Requires Xcode 12 or greater</text>
  <text style="stroke:none;fill:black;font-family:-apple-system,&quot;SF Pro Display&quot;,&quot;SF Pro Text&quot;,Helvetica,sans-serif;" transform="matrix(1 0 0 1 263 726)">Small</text>
  <text style="stroke:none;fill:black;font-family:-apple-system,&quot;SF Pro Display&quot;,&quot;SF Pro Text&quot;,Helvetica,sans-serif;" transform="matrix(1 0 0 1 263 1156)">Medium</text>
  <text style="stroke:none;fill:black;font-family:-apple-system,&quot;SF Pro Display&quot;,&quot;SF Pro Text&quot;,Helvetica,sans-serif;" transform="matrix(1 0 0 1 263 1586)">Large</text>
 </g>
 <g id="Guides">
  <g id="H-reference" style="fill:#27AAE1;stroke:none;" transform="matrix(1 0 0 1 339 696)">
   <path d="M0.976562 0L3.66211 0L12.9883-24.4629L45.752-24.4629L55.127 0L57.7637 0L30.6152-70.459L28.125-70.459ZM29.3457-67.1387L29.4434-67.1387L44.873-26.709L13.8672-26.709Z"/>
  </g>
  <line id="Baseline-S" style="fill:none;stroke:#27AAE1;opacity:1;stroke-width:0.5;" x1="263" x2="3036" y1="696" y2="696"/>
  <line id="Capline-S" style="fill:none;stroke:#27AAE1;opacity:1;stroke-width:0.5;" x1="263" x2="3036" y1="625.541" y2="625.541"/>
  <g id="H-reference" style="fill:#27AAE1;stroke:none;" transform="matrix(1 0 0 1 339 1126)">
   <path d="M0.976562 0L3.66211 0L12.9883-24.4629L45.752-24.4629L55.127 0L57.7637 0L30.6152-70.459L28.125-70.459ZM29.3457-67.1387L29.4434-67.1387L44.873-26.709L13.8672-26.709Z"/>
  </g>
  <line id="Baseline-M" style="fill:none;stroke:#27AAE1;opacity:1;stroke-width:0.5;" x1="263" x2="3036" y1="1126" y2="1126"/>
  <line id="Capline-M" style="fill:none;stroke:#27AAE1;opacity:1;stroke-width:0.5;" x1="263" x2="3036" y1="1055.54" y2="1055.54"/>
  <g id="H-reference" style="fill:#27AAE1;stroke:none;" transform="matrix(1 0 0 1 339 1556)">
   <path d="M0.976562 0L3.66211 0L12.9883-24.4629L45.752-24.4629L55.127 0L57.7637 0L30.6152-70.459L28.125-70.459ZM29.3457-67.1387L29.4434-67.1387L44.873-26.709L13.8672-26.709Z"/>
  </g>
  <line id="Baseline-L" style="fill:none;stroke:#27AAE1;opacity:1;stroke-width:0.5;" x1="263" x2="3036" y1="1556" y2="1556"/>
  <line id="Capline-L" style="fill:none;stroke:#27AAE1;opacity:1;stroke-width:0.5;" x1="263" x2="3036" y1="1485.54" y2="1485.54"/>
  <line id="left-margin" x1="1415.9000195312499" x2="1415.9000195312499" y1="1030.79" y2="1150.12" style="fill:none;stroke:#00AEEF;stroke-width:0.5;opacity:1.0;"/>
  <line id="right-margin" x1="1486.3599804687499" x2="1486.3599804687499" y1="1030.79" y2="1150.12" style="fill:none;stroke:#00AEEF;stroke-width:0.5;opacity:1.0;"/>
 </g>
 <g id="Symbols">
  <g id="Black-L" transform="matrix(1.0,0.0,0.0,1.0,2889.2333251953123,1475.3233447265625)">  <path fill-opacity="1" stroke-linejoin="round" stroke="none" fill-rule="nonzero" fill="#000000" stroke-opacity="1" stroke-miterlimit="4" stroke-dasharray="none" stroke-linecap="round" stroke-width="2px" d="M48.194,10.578L42.642,10.566C25.366,10.525,10.629,24.53,10.51,41.601L10.51,56.013C10.51,58.085,10.272,59.209,9.87,59.822L8.781,61.485C3.498,69.512,9.197,80.327,18.879,80.327L72.014,80.327C81.695,80.327,87.387,69.518,82.108,61.478L81.026,59.826C80.623,59.211,80.384,58.078,80.384,56.009L80.384,41.663L80.383,41.562C80.176,24.528,65.455,10.619,48.197,10.578ZM48.157,27.317C56.435,27.337,63.551,34.06,63.645,41.765L63.644,41.663L63.644,56.009C63.644,61.038,64.517,65.17,67.022,68.997L68.111,70.659C66.138,67.655,68.28,63.587,72.014,63.587L18.879,63.587C22.612,63.587,24.757,67.658,22.773,70.673L23.869,69C26.378,65.175,27.249,61.051,27.249,56.013L27.249,41.659C27.303,34.021,34.389,27.286,42.605,27.306L48.16,27.317Z"/>
  <path fill-opacity="1" stroke-opacity="1" stroke="none" fill-rule="nonzero" stroke-width="2px" stroke-miterlimit="4" stroke-linejoin="round" stroke-linecap="round" fill="#000000" stroke-dasharray="none" d="M48.439,71.957C48.439,73.61,47.099,74.949,45.447,74.949C43.794,74.949,42.455,73.61,42.455,71.957C42.455,67.335,38.707,63.587,34.085,63.587C29.463,63.587,25.715,67.335,25.715,71.957C25.715,82.855,34.549,91.689,45.447,91.689C56.344,91.689,65.178,82.855,65.178,71.957C65.178,67.335,61.431,63.587,56.808,63.587C52.186,63.587,48.439,67.335,48.439,71.957Z"/>
  <path stroke-dasharray="none" stroke-opacity="1" stroke-miterlimit="4" stroke-linejoin="round" stroke-width="2px" fill-opacity="1" stroke-linecap="round" fill-rule="nonzero" stroke="none" fill="#000000" d="M45.447,15.944C45.007,15.944,44.651,15.588,44.651,15.149L44.651,18.936L53.021,18.936L53.021,10.566L37.872,10.566L37.872,18.936L46.242,18.936L46.242,15.149C46.242,15.588,45.886,15.944,45.447,15.944ZM45.447,-0.795C36.641,-0.795,29.502,6.343,29.502,15.149L29.502,18.936C29.502,23.559,33.25,27.306,37.872,27.306L53.021,27.306C57.644,27.306,61.391,23.559,61.391,18.936L61.391,15.149C61.391,6.343,54.252,-0.795,45.447,-0.795Z"/>
</g>
  <g id="Heavy-L" transform="matrix(1.0,0.0,0.0,1.0,2592.5233251953123,1475.3233447265625)">  <path fill-rule="nonzero" stroke-dasharray="none" stroke-width="2px" stroke-linecap="round" stroke="none" stroke-miterlimit="4" fill-opacity="1" stroke-opacity="1" stroke-linejoin="round" fill="#000000" d="M48.193,11.494L42.64,11.483C25.86,11.443,11.542,25.049,11.426,41.607L11.426,56.013C11.426,58.248,11.154,59.535,10.636,60.325L9.547,61.987C4.662,69.411,9.932,79.41,18.879,79.41L72.014,79.41C80.961,79.41,86.224,69.416,81.342,61.981L80.259,60.328C79.741,59.537,79.467,58.24,79.467,56.009L79.467,41.663L79.467,41.573C79.266,25.05,64.961,11.534,48.195,11.494ZM48.159,26.401C56.929,26.422,64.462,33.538,64.561,41.754L64.561,41.663L64.561,56.009C64.561,60.876,65.399,64.844,67.789,68.495L68.878,70.157C67.302,67.757,69.015,64.504,72.014,64.504L18.879,64.504C21.877,64.504,23.593,67.76,22.007,70.169L23.102,68.498C25.497,64.849,26.333,60.888,26.333,56.013L26.333,41.659C26.39,33.501,33.895,26.369,42.607,26.389L48.162,26.401Z"/>
  <path fill-opacity="1" stroke-linejoin="round" stroke="none" fill="#000000" stroke-width="2px" stroke-opacity="1" stroke-linecap="round" stroke-miterlimit="4" fill-rule="nonzero" stroke-dasharray="none" d="M49.355,71.957C49.355,74.116,47.605,75.866,45.447,75.866C43.288,75.866,41.538,74.116,41.538,71.957C41.538,67.841,38.201,64.504,34.085,64.504C29.969,64.504,26.632,67.841,26.632,71.957C26.632,82.348,35.055,90.772,45.447,90.772C55.838,90.772,64.262,82.348,64.262,71.957C64.262,67.841,60.925,64.504,56.808,64.504C52.692,64.504,49.355,67.841,49.355,71.957Z"/>
  <path stroke-linejoin="round" stroke="none" stroke-miterlimit="4" stroke-linecap="round" stroke-width="2px" fill-opacity="1" stroke-dasharray="none" fill="#000000" fill-rule="nonzero" stroke-opacity="1" d="M45.447,15.028C45.514,15.028,45.568,15.082,45.568,15.149L45.568,18.936L53.021,18.936L53.021,11.483L37.872,11.483L37.872,18.936L45.325,18.936L45.325,15.149C45.325,15.082,45.38,15.028,45.447,15.028ZM45.447,0.121C37.147,0.121,30.419,6.849,30.419,15.149L30.419,18.936C30.419,23.052,33.756,26.389,37.872,26.389L53.021,26.389C57.137,26.389,60.474,23.052,60.474,18.936L60.474,15.149C60.474,6.849,53.746,0.121,45.447,0.121Z"/>
</g>
  <g id="Bold-L" transform="matrix(1.0,0.0,0.0,1.0,2295.8133251953122,1475.3233447265625)">  <path stroke-opacity="1" fill-rule="nonzero" stroke-linecap="round" stroke-dasharray="none" fill="#000000" stroke-miterlimit="4" stroke-linejoin="round" fill-opacity="1" stroke="none" stroke-width="2px" d="M48.191,12.411L42.639,12.399C26.354,12.36,12.455,25.569,12.343,41.614L12.343,56.013C12.343,58.41,12.036,59.862,11.403,60.828L10.314,62.489C5.826,69.309,10.666,78.494,18.879,78.494L72.014,78.494C80.226,78.494,85.061,69.314,80.576,62.484L79.493,60.83C78.86,59.863,78.551,58.402,78.551,56.009L78.551,41.663L78.55,41.584C78.356,25.572,64.467,12.45,48.193,12.411ZM48.162,25.484C57.423,25.506,65.372,33.017,65.478,41.743L65.477,41.663L65.477,56.009C65.477,60.714,66.281,64.517,68.556,67.993L69.644,69.655C68.465,67.859,69.749,65.42,72.014,65.42L18.879,65.42C21.143,65.42,22.429,67.861,21.242,69.665L22.336,67.996C24.615,64.522,25.416,60.726,25.416,56.013L25.416,41.659C25.477,32.981,33.401,25.451,42.61,25.473L48.164,25.484Z"/>
  <path fill="#000000" stroke-linecap="round" stroke-opacity="1" stroke-dasharray="none" fill-opacity="1" stroke-linejoin="round" stroke-width="2px" stroke-miterlimit="4" stroke="none" fill-rule="nonzero" d="M50.272,71.957C50.272,74.622,48.111,76.782,45.447,76.782C42.782,76.782,40.622,74.622,40.622,71.957C40.622,68.347,37.695,65.42,34.085,65.42C30.475,65.42,27.548,68.347,27.548,71.957C27.548,81.842,35.562,89.856,45.447,89.856C55.332,89.856,63.345,81.842,63.345,71.957C63.345,68.347,60.418,65.42,56.808,65.42C53.198,65.42,50.272,68.347,50.272,71.957Z"/>
  <path fill="#000000" stroke="none" stroke-width="2px" stroke-linejoin="round" stroke-dasharray="none" fill-rule="nonzero" stroke-opacity="1" fill-opacity="1" stroke-miterlimit="4" stroke-linecap="round" d="M45.447,14.111C46.02,14.111,46.484,14.576,46.484,15.149L46.484,18.936L53.021,18.936L53.021,12.399L37.872,12.399L37.872,18.936L44.409,18.936L44.409,15.149C44.409,14.576,44.874,14.111,45.447,14.111ZM45.447,1.038C37.653,1.038,31.335,7.355,31.335,15.149L31.335,18.936C31.335,22.546,34.262,25.473,37.872,25.473L53.021,25.473C56.631,25.473,59.558,22.546,59.558,18.936L59.558,15.149C59.558,7.355,53.24,1.038,45.447,1.038Z"/>
</g>
  <g id="Semibold-L" transform="matrix(1.0,0.0,0.0,1.0,1999.1033251953124,1475.3233447265625)">  <path stroke-linecap="round" stroke-linejoin="round" stroke-width="2px" stroke-dasharray="none" fill-opacity="1" fill="#000000" stroke="none" fill-rule="nonzero" stroke-opacity="1" stroke-miterlimit="4" d="M48.189,13.327L42.637,13.316C26.848,13.278,13.368,26.089,13.259,41.62L13.259,56.013C13.259,58.572,12.918,60.189,12.169,61.33L11.08,62.992C6.99,69.208,11.401,77.577,18.879,77.577L72.014,77.577C79.492,77.577,83.897,69.212,79.81,62.987L78.726,61.333C77.978,60.19,77.634,58.564,77.634,56.009L77.634,41.663L77.634,41.595C77.446,26.094,63.973,13.365,48.191,13.327ZM48.164,24.568C57.917,24.591,66.282,32.495,66.394,41.732L66.394,41.663L66.394,56.009C66.394,60.552,67.163,64.191,69.322,67.491L70.411,69.152C69.629,67.961,70.484,66.337,72.014,66.337L18.879,66.337C20.408,66.337,21.265,67.963,20.476,69.162L21.569,67.493C23.733,64.195,24.5,60.564,24.5,56.013L24.5,41.659C24.564,32.462,32.907,24.533,42.612,24.556L48.166,24.568Z"/>
  <path fill="#000000" fill-opacity="1" stroke="none" stroke-dasharray="none" stroke-linecap="round" stroke-width="2px" stroke-linejoin="round" stroke-miterlimit="4" fill-rule="nonzero" stroke-opacity="1" d="M51.188,71.957C51.188,75.128,48.618,77.699,45.447,77.699C42.276,77.699,39.705,75.128,39.705,71.957C39.705,68.853,37.189,66.337,34.085,66.337C30.981,66.337,28.465,68.853,28.465,71.957C28.465,81.336,36.068,88.939,45.447,88.939C54.826,88.939,62.429,81.336,62.429,71.957C62.429,68.853,59.912,66.337,56.808,66.337C53.704,66.337,51.188,68.853,51.188,71.957Z"/>
  <path fill-rule="nonzero" stroke-dasharray="none" stroke-linecap="round" stroke-opacity="1" fill-opacity="1" stroke-miterlimit="4" fill="#000000" stroke-width="2px" stroke="none" stroke-linejoin="round" d="M45.447,13.195C46.526,13.195,47.401,14.07,47.401,15.149L47.401,18.936L53.021,18.936L53.021,13.316L37.872,13.316L37.872,18.936L43.492,18.936L43.492,15.149C43.492,14.07,44.367,13.195,45.447,13.195ZM45.447,1.954C38.159,1.954,32.252,7.862,32.252,15.149L32.252,18.936C32.252,22.04,34.768,24.556,37.872,24.556L53.021,24.556C56.125,24.556,58.641,22.04,58.641,18.936L58.641,15.149C58.641,7.862,52.734,1.954,45.447,1.954Z"/>
</g>
  <g id="Medium-L" transform="matrix(1.0,0.0,0.0,1.0,1702.3933251953124,1475.3233447265625)">  <path fill-opacity="1" fill="#000000" stroke-width="2px" stroke-linejoin="round" stroke="none" stroke-linecap="round" stroke-opacity="1" stroke-dasharray="none" fill-rule="nonzero" stroke-miterlimit="4" d="M48.187,14.244L42.635,14.232C27.342,14.196,14.281,26.608,14.176,41.627L14.176,56.013C14.176,58.735,13.8,60.515,12.935,61.833L11.847,63.494C8.154,69.106,12.135,76.661,18.879,76.661L72.014,76.661C78.757,76.661,82.734,69.11,79.044,63.49L77.959,61.835C77.096,60.516,76.718,58.726,76.718,56.009L76.718,41.663C76.535,26.616,63.479,14.28,48.189,14.244ZM48.166,23.651C58.411,23.676,67.192,31.973,67.311,41.72L67.31,56.009C67.31,60.39,68.045,63.865,70.089,66.989L71.178,68.65C70.792,68.063,71.218,67.254,72.014,67.254L18.879,67.254C19.674,67.254,20.101,68.064,19.711,68.658L20.803,66.991C22.851,63.869,23.583,60.401,23.583,56.013L23.583,41.659C23.651,31.942,32.413,23.615,42.614,23.64L48.168,23.651Z"/>
  <path stroke="none" stroke-dasharray="none" fill-opacity="1" stroke-linejoin="round" stroke-miterlimit="4" stroke-linecap="round" fill-rule="nonzero" stroke-width="2px" fill="#000000" stroke-opacity="1" d="M52.105,71.957C52.105,75.634,49.124,78.615,45.447,78.615C41.77,78.615,38.789,75.634,38.789,71.957C38.789,69.359,36.683,67.254,34.085,67.254C31.487,67.254,29.381,69.359,29.381,71.957C29.381,80.83,36.574,88.023,45.447,88.023C54.319,88.023,61.512,80.83,61.512,71.957C61.512,69.359,59.406,67.254,56.808,67.254C54.211,67.254,52.105,69.359,52.105,71.957Z"/>
  <path stroke-linejoin="round" fill="#000000" stroke-miterlimit="4" stroke-dasharray="none" fill-opacity="1" stroke-linecap="round" stroke-opacity="1" stroke-width="2px" fill-rule="nonzero" stroke="none" d="M45.447,12.278C47.032,12.278,48.317,13.563,48.317,15.149L48.317,18.936L53.021,18.936L53.021,14.232L37.872,14.232L37.872,18.936L42.576,18.936L42.576,15.149C42.576,13.563,43.861,12.278,45.447,12.278ZM45.447,2.871C38.666,2.871,33.168,8.368,33.168,15.149L33.168,18.936C33.168,21.534,35.274,23.64,37.872,23.64L53.021,23.64C55.619,23.64,57.725,21.534,57.725,18.936L57.725,15.149C57.725,8.368,52.228,2.871,45.447,2.871Z"/>
</g>
  <g id="Regular-L" transform="matrix(1.0,0.0,0.0,1.0,1405.6833251953124,1475.3233447265625)">  <path fill-rule="nonzero" fill-opacity="1" stroke-linejoin="round" stroke-miterlimit="4" stroke="none" stroke-opacity="1" stroke-dasharray="none" fill="#000000" stroke-linecap="round" stroke-width="2px" d="M48.185,15.16L42.633,15.149C27.836,15.114,15.194,27.128,15.092,41.633L15.092,56.013C15.092,58.897,14.681,60.842,13.702,62.336L12.614,63.996C9.317,69.004,12.869,75.744,18.879,75.744L72.014,75.744C78.023,75.744,81.57,69.008,78.278,63.993L77.193,62.337C76.214,60.842,75.801,58.888,75.801,56.009L75.801,41.663C75.625,27.137,62.986,15.196,48.186,15.16ZM48.168,22.735C58.904,22.76,68.102,31.451,68.227,41.709L68.227,56.009C68.227,60.228,68.926,63.539,70.856,66.487L71.944,68.148C71.955,68.165,71.953,68.17,72.014,68.17L18.879,68.17C18.94,68.17,18.937,68.166,18.945,68.154L20.036,66.489C21.969,63.542,22.667,60.239,22.667,56.013L22.667,41.659C22.738,31.422,31.919,22.698,42.616,22.723L48.17,22.735Z"/>
  <path stroke-linecap="round" stroke-miterlimit="4" stroke-dasharray="none" stroke="none" stroke-width="2px" fill-opacity="1" fill="#000000" stroke-linejoin="round" stroke-opacity="1" fill-rule="nonzero" d="M53.021,71.957C53.021,76.14,49.63,79.532,45.447,79.532C41.263,79.532,37.872,76.14,37.872,71.957C37.872,69.866,36.177,68.17,34.085,68.17C31.993,68.17,30.298,69.866,30.298,71.957C30.298,80.324,37.08,87.106,45.447,87.106C53.813,87.106,60.596,80.324,60.596,71.957C60.596,69.866,58.9,68.17,56.808,68.17C54.717,68.17,53.021,69.866,53.021,71.957Z"/>
  <path stroke-miterlimit="4" fill-rule="nonzero" fill="#000000" stroke="none" fill-opacity="1" stroke-opacity="1" stroke-dasharray="none" stroke-linejoin="round" stroke-width="2px" stroke-linecap="round" d="M45.447,11.362C47.538,11.362,49.234,13.057,49.234,15.149L49.234,18.936L53.021,15.149L37.872,15.149L41.659,18.936L41.659,15.149C41.659,13.057,43.355,11.362,45.447,11.362ZM45.447,3.787C39.172,3.787,34.085,8.874,34.085,15.149L34.085,18.936C34.085,21.028,35.781,22.723,37.872,22.723L53.021,22.723C55.113,22.723,56.808,21.028,56.808,18.936L56.808,15.149C56.808,8.874,51.722,3.787,45.447,3.787Z"/>
</g>
  <g id="Light-L" transform="matrix(1.0,0.0,0.0,1.0,1108.9733251953126,1475.3233447265625)">  <path stroke-dasharray="none" fill-rule="nonzero" fill="#000000" stroke-linecap="round" fill-opacity="1" stroke-linejoin="round" stroke-miterlimit="4" stroke-width="2px" stroke-opacity="1" stroke="none" d="M48.184,15.791L42.632,15.78C28.177,15.746,15.822,27.486,15.723,41.637L15.723,56.013C15.723,59.009,15.289,61.067,14.229,62.682L13.142,64.342C10.119,68.935,13.375,75.113,18.879,75.113L72.014,75.113C77.517,75.113,80.769,68.937,77.75,64.34L76.665,62.683C75.607,61.067,75.17,59,75.17,56.009L75.17,41.663C74.998,27.497,62.646,15.826,48.185,15.791ZM48.17,22.103C59.244,22.13,68.729,31.091,68.858,41.702L68.858,56.009C68.858,60.116,69.534,63.314,71.384,66.141L72.472,67.802C72.757,68.235,72.458,68.801,72.014,68.801L18.879,68.801C18.434,68.801,18.136,68.236,18.418,67.807L19.508,66.143C21.362,63.317,22.035,60.127,22.035,56.013L22.035,41.659C22.109,31.065,31.579,22.066,42.618,22.092L48.171,22.103Z"/>
  <path stroke-miterlimit="4" fill="#000000" stroke-linejoin="round" fill-rule="nonzero" fill-opacity="1" stroke-linecap="round" stroke-opacity="1" stroke="none" stroke-dasharray="none" stroke-width="2px" d="M53.652,71.957C53.652,76.489,49.979,80.163,45.447,80.163C40.915,80.163,37.241,76.489,37.241,71.957C37.241,70.214,35.828,68.801,34.085,68.801C32.342,68.801,30.929,70.214,30.929,71.957C30.929,79.975,37.429,86.475,45.447,86.475C53.465,86.475,59.964,79.975,59.964,71.957C59.964,70.214,58.551,68.801,56.808,68.801C55.065,68.801,53.652,70.214,53.652,71.957Z"/>
  <path stroke-dasharray="none" fill-opacity="1" stroke-miterlimit="4" stroke-width="2px" stroke-opacity="1" fill="#000000" fill-rule="nonzero" stroke-linecap="round" stroke-linejoin="round" stroke="none" d="M45.447,10.73C47.887,10.73,49.865,12.709,49.865,15.149L49.865,18.936L53.021,15.78L37.872,15.78L41.028,18.936L41.028,15.149C41.028,12.709,43.006,10.73,45.447,10.73ZM45.447,4.418C39.52,4.418,34.716,9.223,34.716,15.149L34.716,18.936C34.716,20.679,36.129,22.092,37.872,22.092L53.021,22.092C54.764,22.092,56.177,20.679,56.177,18.936L56.177,15.149C56.177,9.223,51.373,4.418,45.447,4.418Z"/>
</g>
  <g id="Thin-L" transform="matrix(1.0,0.0,0.0,1.0,812.2633251953125,1475.3233447265625)">  <path fill-rule="nonzero" stroke-linejoin="round" stroke-opacity="1" stroke-miterlimit="4" stroke-dasharray="none" stroke-linecap="round" fill-opacity="1" stroke-width="2px" stroke="none" fill="#000000" d="M48.182,16.423L42.63,16.411C28.517,16.378,16.451,27.844,16.355,41.642L16.354,56.013C16.354,59.121,15.896,61.292,14.757,63.028L13.67,64.688C10.921,68.865,13.881,74.482,18.879,74.482L72.014,74.482C77.011,74.482,79.968,68.867,77.222,64.686L76.137,63.029C75,61.292,74.539,59.111,74.539,56.009L74.539,41.663C74.371,27.856,62.305,16.456,48.183,16.423ZM48.171,21.472C59.585,21.5,69.356,30.732,69.489,41.694L69.489,56.009C69.489,60.004,70.141,63.089,71.912,65.796L73,67.456C73.558,68.305,72.964,69.432,72.014,69.432L18.879,69.432C17.928,69.432,17.334,68.305,17.89,67.46L18.98,65.797C20.755,63.092,21.404,60.015,21.404,56.013L21.404,41.659C21.481,30.707,31.239,21.434,42.619,21.461L48.172,21.472Z"/>
  <path stroke-width="2px" stroke-linecap="round" stroke-opacity="1" fill-opacity="1" fill-rule="nonzero" stroke-linejoin="round" stroke-miterlimit="4" stroke="none" stroke-dasharray="none" fill="#000000" d="M54.284,71.957C54.284,76.838,50.327,80.794,45.447,80.794C40.566,80.794,36.61,76.838,36.61,71.957C36.61,70.563,35.479,69.432,34.085,69.432C32.691,69.432,31.56,70.563,31.56,71.957C31.56,79.627,37.777,85.844,45.447,85.844C53.116,85.844,59.333,79.627,59.333,71.957C59.333,70.563,58.203,69.432,56.808,69.432C55.414,69.432,54.284,70.563,54.284,71.957Z"/>
  <path stroke-miterlimit="4" fill-rule="nonzero" stroke-width="2px" stroke-dasharray="none" fill="#000000" fill-opacity="1" stroke="none" stroke-linecap="round" stroke-linejoin="round" stroke-opacity="1" d="M45.447,10.099C48.236,10.099,50.496,12.36,50.496,15.149L50.496,18.936L53.021,16.411L37.872,16.411L40.397,18.936L40.397,15.149C40.397,12.36,42.658,10.099,45.447,10.099ZM45.447,5.05C39.869,5.05,35.347,9.571,35.347,15.149L35.347,18.936C35.347,20.331,36.478,21.461,37.872,21.461L53.021,21.461C54.416,21.461,55.546,20.331,55.546,18.936L55.546,15.149C55.546,9.571,51.024,5.05,45.447,5.05Z"/>
</g>
  <g id="Ultralight-L" transform="matrix(1.0,0.0,0.0,1.0,515.5533251953125,1475.3233447265625)">  <path fill-opacity="1" fill="#000000" stroke-opacity="1" stroke-miterlimit="4" stroke-linejoin="round" stroke-width="2px" fill-rule="nonzero" stroke="none" stroke-dasharray="none" stroke-linecap="round" d="M48.181,17.054L42.629,17.043C28.857,17.01,17.08,28.202,16.986,41.646L16.986,56.013C16.986,59.232,16.503,61.517,15.285,63.374L14.197,65.034C11.722,68.795,14.387,73.851,18.879,73.851L72.014,73.851C76.505,73.851,79.167,68.797,76.695,65.033L75.609,63.375C74.392,61.516,73.908,59.223,73.908,56.009L73.908,41.663C73.744,28.216,61.965,17.087,48.182,17.054ZM48.173,20.841C59.925,20.869,69.983,30.372,70.121,41.686L70.12,56.009C70.12,59.893,70.748,62.864,72.441,65.45L73.528,67.11C74.359,68.375,73.47,70.064,72.014,70.064L18.879,70.064C17.422,70.064,16.532,68.375,17.363,67.113L18.452,65.451C20.147,62.867,20.773,59.903,20.773,56.013L20.773,41.659C20.852,30.349,30.899,20.802,42.621,20.83L48.173,20.841Z"/>
  <path stroke="none" stroke-linejoin="round" fill="#000000" fill-opacity="1" stroke-linecap="round" stroke-dasharray="none" fill-rule="nonzero" stroke-width="2px" stroke-miterlimit="4" stroke-opacity="1" d="M54.915,71.957C54.915,77.186,50.676,81.425,45.447,81.425C40.218,81.425,35.979,77.186,35.979,71.957C35.979,70.911,35.131,70.064,34.085,70.064C33.039,70.064,32.191,70.911,32.191,71.957C32.191,79.278,38.126,85.213,45.447,85.213C52.767,85.213,58.702,79.278,58.702,71.957C58.702,70.911,57.854,70.064,56.808,70.064C55.763,70.064,54.915,70.911,54.915,71.957Z"/>
  <path fill-rule="nonzero" stroke-linecap="round" stroke-linejoin="round" stroke-width="2px" stroke="none" stroke-dasharray="none" stroke-miterlimit="4" fill-opacity="1" stroke-opacity="1" fill="#000000" d="M45.447,9.468C48.584,9.468,51.128,12.011,51.128,15.149L51.128,18.936L53.021,17.043L37.872,17.043L39.766,18.936L39.766,15.149C39.766,12.011,42.309,9.468,45.447,9.468ZM45.447,5.681C40.218,5.681,35.979,9.92,35.979,15.149L35.979,18.936C35.979,19.982,36.826,20.83,37.872,20.83L53.021,20.83C54.067,20.83,54.915,19.982,54.915,18.936L54.915,15.149C54.915,9.92,50.676,5.681,45.447,5.681Z"/>
</g>
  <g id="Black-M" transform="matrix(1.0,0.0,0.0,1.0,2899.45001953125,1055.5400390625)">  <path fill-opacity="1" stroke-linejoin="round" stroke="none" fill-rule="nonzero" fill="#000000" stroke-opacity="1" stroke-miterlimit="4" stroke-dasharray="none" stroke-linecap="round" stroke-width="2px" d="M37.36,8.2L33.056,8.191C19.664,8.159,8.24,19.015,8.147,32.249L8.147,43.421C8.147,45.027,7.963,45.898,7.651,46.374L6.807,47.663C2.711,53.885,7.13,62.269,14.635,62.269L55.825,62.269C63.33,62.269,67.742,53.89,63.65,47.657L62.811,46.377C62.499,45.9,62.313,45.021,62.313,43.418L62.313,32.297L62.313,32.218C62.152,19.014,50.74,8.232,37.362,8.2ZM37.331,21.176C43.748,21.191,49.265,26.403,49.337,32.376L49.337,32.297L49.337,43.418C49.337,47.316,50.013,50.519,51.955,53.486L52.799,54.775C51.27,52.445,52.93,49.293,55.825,49.293L14.635,49.293C17.529,49.293,19.192,52.448,17.653,54.785L18.503,53.489C20.448,50.523,21.123,47.326,21.123,43.421L21.123,32.294C21.165,26.373,26.658,21.152,33.027,21.167L37.333,21.176Z"/>
  <path fill-opacity="1" stroke-opacity="1" stroke="none" fill-rule="nonzero" stroke-width="2px" stroke-miterlimit="4" stroke-linejoin="round" stroke-linecap="round" fill="#000000" stroke-dasharray="none" d="M37.549,55.781C37.549,57.062,36.511,58.1,35.23,58.1C33.949,58.1,32.911,57.062,32.911,55.781C32.911,52.197,30.006,49.293,26.422,49.293C22.839,49.293,19.934,52.197,19.934,55.781C19.934,64.228,26.782,71.076,35.23,71.076C43.678,71.076,50.526,64.228,50.526,55.781C50.526,52.197,47.621,49.293,44.037,49.293C40.454,49.293,37.549,52.197,37.549,55.781Z"/>
  <path stroke-dasharray="none" stroke-opacity="1" stroke-miterlimit="4" stroke-linejoin="round" stroke-width="2px" fill-opacity="1" stroke-linecap="round" fill-rule="nonzero" stroke="none" fill="#000000" d="M35.23,12.36C34.889,12.36,34.613,12.084,34.613,11.743L34.613,14.679L41.102,14.679L41.102,8.191L29.358,8.191L29.358,14.679L35.847,14.679L35.847,11.743C35.847,12.084,35.57,12.36,35.23,12.36ZM35.23,-0.617C28.404,-0.617,22.87,4.917,22.87,11.743L22.87,14.679C22.87,18.262,25.775,21.167,29.358,21.167L41.102,21.167C44.685,21.167,47.59,18.262,47.59,14.679L47.59,11.743C47.59,4.917,42.056,-0.617,35.23,-0.617Z"/>
</g>
  <g id="Heavy-M" transform="matrix(1.0,0.0,0.0,1.0,2602.74001953125,1055.5400390625)">  <path fill-rule="nonzero" stroke-dasharray="none" stroke-width="2px" stroke-linecap="round" stroke="none" stroke-miterlimit="4" fill-opacity="1" stroke-opacity="1" stroke-linejoin="round" fill="#000000" d="M37.359,8.91L33.055,8.901C20.047,8.87,8.947,19.418,8.858,32.254L8.857,43.421C8.857,45.153,8.647,46.152,8.245,46.763L7.401,48.052C3.614,53.807,7.699,61.559,14.635,61.559L55.825,61.559C62.76,61.559,66.84,53.811,63.056,48.047L62.216,46.766C61.815,46.153,61.603,45.147,61.603,43.418L61.603,32.297L61.602,32.227C61.446,19.418,50.357,8.941,37.361,8.91ZM37.333,20.466C44.131,20.482,49.97,25.999,50.048,32.367L50.047,32.297L50.047,43.418C50.047,47.191,50.697,50.266,52.549,53.097L53.394,54.385C52.172,52.524,53.5,50.003,55.825,50.003L14.635,50.003C16.959,50.003,18.289,52.527,17.06,54.395L17.909,53.099C19.765,50.27,20.413,47.2,20.413,43.421L20.413,32.294C20.457,25.97,26.275,20.441,33.029,20.457L37.335,20.466Z"/>
  <path fill-opacity="1" stroke-linejoin="round" stroke="none" fill="#000000" stroke-width="2px" stroke-opacity="1" stroke-linecap="round" stroke-miterlimit="4" fill-rule="nonzero" stroke-dasharray="none" d="M38.26,55.781C38.26,57.454,36.903,58.811,35.23,58.811C33.557,58.811,32.2,57.454,32.2,55.781C32.2,52.59,29.613,50.003,26.422,50.003C23.232,50.003,20.645,52.59,20.645,55.781C20.645,63.836,27.175,70.366,35.23,70.366C43.285,70.366,49.815,63.836,49.815,55.781C49.815,52.59,47.228,50.003,44.037,50.003C40.847,50.003,38.26,52.59,38.26,55.781Z"/>
  <path stroke-linejoin="round" stroke="none" stroke-miterlimit="4" stroke-linecap="round" stroke-width="2px" fill-opacity="1" stroke-dasharray="none" fill="#000000" fill-rule="nonzero" stroke-opacity="1" d="M35.23,11.649C35.282,11.649,35.324,11.691,35.324,11.743L35.324,14.679L41.102,14.679L41.102,8.901L29.358,8.901L29.358,14.679L35.136,14.679L35.136,11.743C35.136,11.691,35.178,11.649,35.23,11.649ZM35.23,0.094C28.796,0.094,23.581,5.31,23.581,11.743L23.581,14.679C23.581,17.87,26.167,20.457,29.358,20.457L41.102,20.457C44.293,20.457,46.879,17.87,46.879,14.679L46.879,11.743C46.879,5.31,41.664,0.094,35.23,0.094Z"/>
</g>
  <g id="Bold-M" transform="matrix(1.0,0.0,0.0,1.0,2306.0300195312498,1055.5400390625)">  <path stroke-opacity="1" fill-rule="nonzero" stroke-linecap="round" stroke-dasharray="none" fill="#000000" stroke-miterlimit="4" stroke-linejoin="round" fill-opacity="1" stroke="none" stroke-width="2px" d="M37.357,9.621L33.053,9.612C20.43,9.582,9.655,19.821,9.568,32.259L9.568,43.421C9.568,45.279,9.33,46.405,8.839,47.153L7.995,48.441C4.516,53.728,8.268,60.848,14.635,60.848L55.825,60.848C62.191,60.848,65.938,53.731,62.462,48.437L61.622,47.155C61.131,46.406,60.892,45.273,60.892,43.418L60.892,32.297L60.892,32.236C60.741,19.823,49.975,9.651,37.359,9.621ZM37.335,19.755C44.514,19.772,50.676,25.594,50.758,32.359L50.758,32.297L50.758,43.418C50.758,47.065,51.381,50.013,53.144,52.708L53.988,53.996C53.074,52.604,54.069,50.714,55.825,50.714L14.635,50.714C16.39,50.714,17.387,52.606,16.466,54.004L17.315,52.71C19.081,50.017,19.702,47.074,19.702,43.421L19.702,32.294C19.75,25.567,25.892,19.729,33.031,19.746L37.336,19.755Z"/>
  <path fill="#000000" stroke-linecap="round" stroke-opacity="1" stroke-dasharray="none" fill-opacity="1" stroke-linejoin="round" stroke-width="2px" stroke-miterlimit="4" stroke="none" fill-rule="nonzero" d="M38.97,55.781C38.97,57.846,37.296,59.521,35.23,59.521C33.164,59.521,31.49,57.846,31.49,55.781C31.49,52.982,29.221,50.714,26.422,50.714C23.624,50.714,21.355,52.982,21.355,55.781C21.355,63.444,27.567,69.656,35.23,69.656C42.893,69.656,49.105,63.444,49.105,55.781C49.105,52.982,46.836,50.714,44.037,50.714C41.239,50.714,38.97,52.982,38.97,55.781Z"/>
  <path fill="#000000" stroke="none" stroke-width="2px" stroke-linejoin="round" stroke-dasharray="none" fill-rule="nonzero" stroke-opacity="1" fill-opacity="1" stroke-miterlimit="4" stroke-linecap="round" d="M35.23,10.939C35.674,10.939,36.034,11.299,36.034,11.743L36.034,14.679L41.102,14.679L41.102,9.612L29.358,9.612L29.358,14.679L34.426,14.679L34.426,11.743C34.426,11.299,34.786,10.939,35.23,10.939ZM35.23,0.804C29.189,0.804,24.291,5.702,24.291,11.743L24.291,14.679C24.291,17.478,26.56,19.746,29.358,19.746L41.102,19.746C43.9,19.746,46.169,17.478,46.169,14.679L46.169,11.743C46.169,5.702,41.271,0.804,35.23,0.804Z"/>
</g>
  <g id="Semibold-M" transform="matrix(1.0,0.0,0.0,1.0,2009.32001953125,1055.5400390625)">  <path stroke-linecap="round" stroke-linejoin="round" stroke-width="2px" stroke-dasharray="none" fill-opacity="1" fill="#000000" stroke="none" fill-rule="nonzero" stroke-opacity="1" stroke-miterlimit="4" d="M37.356,10.331L33.052,10.322C20.813,10.293,10.363,20.224,10.278,32.264L10.278,43.421C10.278,45.405,10.014,46.658,9.433,47.543L8.589,48.831C5.418,53.649,8.838,60.138,14.635,60.138L55.825,60.138C61.621,60.138,65.037,53.652,61.868,48.827L61.028,47.545C60.448,46.659,60.182,45.398,60.182,43.418L60.182,32.297L60.181,32.244C60.035,20.228,49.592,10.36,37.357,10.331ZM37.336,19.045C44.897,19.063,51.381,25.19,51.468,32.35L51.468,32.297L51.468,43.418C51.468,46.939,52.064,49.761,53.738,52.319L54.582,53.606C53.976,52.683,54.638,51.424,55.825,51.424L14.635,51.424C15.821,51.424,16.485,52.684,15.873,53.614L16.72,52.32C18.398,49.764,18.992,46.948,18.992,43.421L18.992,32.294C19.042,25.164,25.51,19.018,33.032,19.036L37.338,19.045Z"/>
  <path fill="#000000" fill-opacity="1" stroke="none" stroke-dasharray="none" stroke-linecap="round" stroke-width="2px" stroke-linejoin="round" stroke-miterlimit="4" fill-rule="nonzero" stroke-opacity="1" d="M39.681,55.781C39.681,58.239,37.688,60.232,35.23,60.232C32.772,60.232,30.779,58.239,30.779,55.781C30.779,53.375,28.829,51.424,26.422,51.424C24.016,51.424,22.066,53.375,22.066,55.781C22.066,63.051,27.96,68.945,35.23,68.945C42.5,68.945,48.394,63.051,48.394,55.781C48.394,53.375,46.444,51.424,44.037,51.424C41.631,51.424,39.681,53.375,39.681,55.781Z"/>
  <path fill-rule="nonzero" stroke-dasharray="none" stroke-linecap="round" stroke-opacity="1" fill-opacity="1" stroke-miterlimit="4" fill="#000000" stroke-width="2px" stroke="none" stroke-linejoin="round" d="M35.23,10.228C36.067,10.228,36.745,10.907,36.745,11.743L36.745,14.679L41.102,14.679L41.102,10.322L29.358,10.322L29.358,14.679L33.715,14.679L33.715,11.743C33.715,10.907,34.393,10.228,35.23,10.228ZM35.23,1.515C29.581,1.515,25.002,6.094,25.002,11.743L25.002,14.679C25.002,17.085,26.952,19.036,29.358,19.036L41.102,19.036C43.508,19.036,45.458,17.085,45.458,14.679L45.458,11.743C45.458,6.094,40.879,1.515,35.23,1.515Z"/>
</g>
  <g id="Medium-M" transform="matrix(1.0,0.0,0.0,1.0,1712.61001953125,1055.5400390625)">  <path fill-opacity="1" fill="#000000" stroke-width="2px" stroke-linejoin="round" stroke="none" stroke-linecap="round" stroke-opacity="1" stroke-dasharray="none" fill-rule="nonzero" stroke-miterlimit="4" d="M37.354,11.042L33.05,11.033C21.196,11.005,11.07,20.627,10.989,32.269L10.989,43.421C10.989,45.531,10.697,46.911,10.027,47.933L9.184,49.22C6.321,53.571,9.407,59.427,14.635,59.427L55.825,59.427C61.052,59.427,64.135,53.573,61.274,49.217L60.434,47.934C59.764,46.911,59.471,45.524,59.471,43.418L59.471,32.297C59.33,20.632,49.209,11.07,37.355,11.042ZM37.338,18.334C45.279,18.353,52.087,24.785,52.179,32.341L52.179,43.418C52.179,46.814,52.748,49.508,54.333,51.929L55.176,53.217C54.878,52.762,55.208,52.134,55.825,52.134L14.635,52.134C15.251,52.134,15.582,52.763,15.279,53.223L16.126,51.931C17.714,49.511,18.281,46.823,18.281,43.421L18.281,32.294C18.334,24.761,25.127,18.307,33.034,18.325L37.339,18.334Z"/>
  <path stroke="none" stroke-dasharray="none" fill-opacity="1" stroke-linejoin="round" stroke-miterlimit="4" stroke-linecap="round" fill-rule="nonzero" stroke-width="2px" fill="#000000" stroke-opacity="1" d="M40.391,55.781C40.391,58.631,38.08,60.942,35.23,60.942C32.38,60.942,30.069,58.631,30.069,55.781C30.069,53.767,28.436,52.134,26.422,52.134C24.409,52.134,22.776,53.767,22.776,55.781C22.776,62.659,28.352,68.235,35.23,68.235C42.108,68.235,47.684,62.659,47.684,55.781C47.684,53.767,46.051,52.134,44.037,52.134C42.024,52.134,40.391,53.767,40.391,55.781Z"/>
  <path stroke-linejoin="round" fill="#000000" stroke-miterlimit="4" stroke-dasharray="none" fill-opacity="1" stroke-linecap="round" stroke-opacity="1" stroke-width="2px" fill-rule="nonzero" stroke="none" d="M35.23,9.518C36.459,9.518,37.455,10.514,37.455,11.743L37.455,14.679L41.102,14.679L41.102,11.033L29.358,11.033L29.358,14.679L33.005,14.679L33.005,11.743C33.005,10.514,34.001,9.518,35.23,9.518ZM35.23,2.225C29.973,2.225,25.712,6.487,25.712,11.743L25.712,14.679C25.712,16.693,27.345,18.325,29.358,18.325L41.102,18.325C43.115,18.325,44.748,16.693,44.748,14.679L44.748,11.743C44.748,6.487,40.487,2.225,35.23,2.225Z"/>
</g>
  <g id="Regular-M" transform="matrix(1.0,0.0,0.0,1.0,1415.9000195312499,1055.5400390625)">  <path fill-rule="nonzero" fill-opacity="1" stroke-linejoin="round" stroke-miterlimit="4" stroke="none" stroke-opacity="1" stroke-dasharray="none" fill="#000000" stroke-linecap="round" stroke-width="2px" d="M37.353,11.752L33.049,11.743C21.579,11.716,11.778,21.029,11.699,32.274L11.699,43.421C11.699,45.657,11.381,47.164,10.621,48.322L9.778,49.609C7.223,53.492,9.976,58.717,14.635,58.717L55.825,58.717C60.483,58.717,63.233,53.494,60.68,49.607L59.839,48.324C59.081,47.164,58.761,45.65,58.761,43.418L58.761,32.297C58.624,21.037,48.826,11.78,37.354,11.752ZM37.34,17.624C45.662,17.644,52.793,24.38,52.889,32.333L52.889,43.418C52.889,46.688,53.431,49.255,54.927,51.54L55.771,52.828C55.779,52.841,55.777,52.845,55.825,52.845L14.635,52.845C14.682,52.845,14.68,52.842,14.686,52.833L15.532,51.542C17.03,49.257,17.571,46.697,17.571,43.421L17.571,32.294C17.626,24.358,24.744,17.595,33.036,17.615L37.341,17.624Z"/>
  <path stroke-linecap="round" stroke-miterlimit="4" stroke-dasharray="none" stroke="none" stroke-width="2px" fill-opacity="1" fill="#000000" stroke-linejoin="round" stroke-opacity="1" fill-rule="nonzero" d="M41.102,55.781C41.102,59.024,38.473,61.652,35.23,61.652C31.987,61.652,29.358,59.024,29.358,55.781C29.358,54.159,28.044,52.845,26.422,52.845C24.801,52.845,23.487,54.159,23.487,55.781C23.487,62.266,28.744,67.524,35.23,67.524C41.716,67.524,46.973,62.266,46.973,55.781C46.973,54.159,45.659,52.845,44.037,52.845C42.416,52.845,41.102,54.159,41.102,55.781Z"/>
  <path stroke-miterlimit="4" fill-rule="nonzero" fill="#000000" stroke="none" fill-opacity="1" stroke-opacity="1" stroke-dasharray="none" stroke-linejoin="round" stroke-width="2px" stroke-linecap="round" d="M35.23,8.807C36.851,8.807,38.166,10.122,38.166,11.743L38.166,14.679L41.102,11.743L29.358,11.743L32.294,14.679L32.294,11.743C32.294,10.122,33.609,8.807,35.23,8.807ZM35.23,2.936C30.366,2.936,26.422,6.879,26.422,11.743L26.422,14.679C26.422,16.301,27.737,17.615,29.358,17.615L41.102,17.615C42.723,17.615,44.037,16.301,44.037,14.679L44.037,11.743C44.037,6.879,40.094,2.936,35.23,2.936Z"/>
</g>
  <g id="Light-M" transform="matrix(1.0,0.0,0.0,1.0,1119.19001953125,1055.5400390625)">  <path stroke-dasharray="none" fill-rule="nonzero" fill="#000000" stroke-linecap="round" fill-opacity="1" stroke-linejoin="round" stroke-miterlimit="4" stroke-width="2px" stroke-opacity="1" stroke="none" d="M37.352,12.241L33.048,12.233C21.842,12.206,12.265,21.307,12.189,32.277L12.189,43.421C12.189,45.743,11.852,47.339,11.031,48.591L10.187,49.878C7.844,53.438,10.368,58.227,14.635,58.227L55.825,58.227C60.091,58.227,62.612,53.44,60.271,49.876L59.43,48.592C58.61,47.339,58.271,45.736,58.271,43.418L58.271,32.297C58.138,21.315,48.562,12.268,37.353,12.241ZM37.341,17.134C45.926,17.155,53.279,24.102,53.378,32.327L53.378,43.418C53.378,46.602,53.902,49.08,55.337,51.272L56.18,52.559C56.401,52.895,56.169,53.334,55.825,53.334L14.635,53.334C14.29,53.334,14.059,52.896,14.277,52.564L15.123,51.273C16.56,49.083,17.082,46.61,17.082,43.421L17.082,32.294C17.139,24.081,24.48,17.105,33.037,17.126L37.342,17.134Z"/>
  <path stroke-miterlimit="4" fill="#000000" stroke-linejoin="round" fill-rule="nonzero" fill-opacity="1" stroke-linecap="round" stroke-opacity="1" stroke="none" stroke-dasharray="none" stroke-width="2px" d="M41.591,55.781C41.591,59.294,38.743,62.142,35.23,62.142C31.717,62.142,28.869,59.294,28.869,55.781C28.869,54.43,27.774,53.334,26.422,53.334C25.071,53.334,23.976,54.43,23.976,55.781C23.976,61.996,29.015,67.035,35.23,67.035C41.445,67.035,46.484,61.996,46.484,55.781C46.484,54.43,45.389,53.334,44.037,53.334C42.686,53.334,41.591,54.43,41.591,55.781Z"/>
  <path stroke-dasharray="none" fill-opacity="1" stroke-miterlimit="4" stroke-width="2px" stroke-opacity="1" fill="#000000" fill-rule="nonzero" stroke-linecap="round" stroke-linejoin="round" stroke="none" d="M35.23,8.318C37.122,8.318,38.655,9.852,38.655,11.743L38.655,14.679L41.102,12.233L29.358,12.233L31.805,14.679L31.805,11.743C31.805,9.852,33.338,8.318,35.23,8.318ZM35.23,3.425C30.636,3.425,26.912,7.149,26.912,11.743L26.912,14.679C26.912,16.03,28.007,17.126,29.358,17.126L41.102,17.126C42.453,17.126,43.548,16.03,43.548,14.679L43.548,11.743C43.548,7.149,39.824,3.425,35.23,3.425Z"/>
</g>
  <g id="Thin-M" transform="matrix(1.0,0.0,0.0,1.0,822.48001953125,1055.5400390625)">  <path fill-rule="nonzero" stroke-linejoin="round" stroke-opacity="1" stroke-miterlimit="4" stroke-dasharray="none" stroke-linecap="round" fill-opacity="1" stroke-width="2px" stroke="none" fill="#000000" d="M37.351,12.731L33.047,12.722C22.106,12.696,12.753,21.584,12.678,32.28L12.678,43.421C12.678,45.83,12.323,47.513,11.44,48.859L10.597,50.146C8.466,53.383,10.761,57.738,14.635,57.738L55.825,57.738C59.698,57.738,61.991,53.385,59.862,50.144L59.021,48.86C58.139,47.513,57.782,45.823,57.782,43.418L57.782,32.297C57.652,21.594,48.299,12.757,37.351,12.731ZM37.342,16.645C46.19,16.666,53.765,23.823,53.868,32.321L53.868,43.418C53.868,46.515,54.373,48.906,55.746,51.004L56.589,52.291C57.022,52.95,56.561,53.824,55.825,53.824L14.635,53.824C13.898,53.824,13.437,52.95,13.869,52.295L14.713,51.005C16.089,48.908,16.592,46.523,16.592,43.421L16.592,32.294C16.652,23.804,24.216,16.615,33.038,16.636L37.343,16.645Z"/>
  <path stroke-width="2px" stroke-linecap="round" stroke-opacity="1" fill-opacity="1" fill-rule="nonzero" stroke-linejoin="round" stroke-miterlimit="4" stroke="none" stroke-dasharray="none" fill="#000000" d="M42.08,55.781C42.08,59.564,39.013,62.631,35.23,62.631C31.447,62.631,28.38,59.564,28.38,55.781C28.38,54.7,27.503,53.824,26.422,53.824C25.342,53.824,24.465,54.7,24.465,55.781C24.465,61.726,29.285,66.546,35.23,66.546C41.175,66.546,45.995,61.726,45.995,55.781C45.995,54.7,45.118,53.824,44.037,53.824C42.957,53.824,42.08,54.7,42.08,55.781Z"/>
  <path stroke-miterlimit="4" fill-rule="nonzero" stroke-width="2px" stroke-dasharray="none" fill="#000000" fill-opacity="1" stroke="none" stroke-linecap="round" stroke-linejoin="round" stroke-opacity="1" d="M35.23,7.829C37.392,7.829,39.144,9.581,39.144,11.743L39.144,14.679L41.102,12.722L29.358,12.722L31.316,14.679L31.316,11.743C31.316,9.581,33.068,7.829,35.23,7.829ZM35.23,3.914C30.906,3.914,27.401,7.42,27.401,11.743L27.401,14.679C27.401,15.76,28.277,16.636,29.358,16.636L41.102,16.636C42.183,16.636,43.059,15.76,43.059,14.679L43.059,11.743C43.059,7.42,39.554,3.914,35.23,3.914Z"/>
</g>
  <g id="Ultralight-M" transform="matrix(1.0,0.0,0.0,1.0,525.77001953125,1055.5400390625)">  <path fill-opacity="1" fill="#000000" stroke-opacity="1" stroke-miterlimit="4" stroke-linejoin="round" stroke-width="2px" fill-rule="nonzero" stroke="none" stroke-dasharray="none" stroke-linecap="round" d="M37.35,13.22L33.046,13.211C22.37,13.186,13.24,21.862,13.167,32.284L13.167,43.421C13.167,45.917,12.793,47.688,11.849,49.127L11.006,50.414C9.087,53.329,11.153,57.249,14.635,57.249L55.825,57.249C59.306,57.249,61.369,53.331,59.453,50.413L58.612,49.128C57.668,47.687,57.293,45.909,57.293,43.418L57.293,32.297C57.166,21.873,48.035,13.246,37.35,13.22ZM37.343,16.156C46.453,16.178,54.25,23.545,54.357,32.315L54.357,43.418C54.357,46.428,54.844,48.732,56.156,50.736L56.999,52.023C57.643,53.004,56.954,54.313,55.825,54.313L14.635,54.313C13.505,54.313,12.816,53.004,13.46,52.026L14.304,50.737C15.618,48.734,16.103,46.437,16.103,43.421L16.103,32.294C16.164,23.526,23.952,16.125,33.039,16.147L37.344,16.156Z"/>
  <path stroke="none" stroke-linejoin="round" fill="#000000" fill-opacity="1" stroke-linecap="round" stroke-dasharray="none" fill-rule="nonzero" stroke-width="2px" stroke-miterlimit="4" stroke-opacity="1" d="M42.57,55.781C42.57,59.834,39.284,63.12,35.23,63.12C31.176,63.12,27.89,59.834,27.89,55.781C27.89,54.97,27.233,54.313,26.422,54.313C25.612,54.313,24.955,54.97,24.955,55.781C24.955,61.456,29.555,66.056,35.23,66.056C40.905,66.056,45.505,61.456,45.505,55.781C45.505,54.97,44.848,54.313,44.037,54.313C43.227,54.313,42.57,54.97,42.57,55.781Z"/>
  <path fill-rule="nonzero" stroke-linecap="round" stroke-linejoin="round" stroke-width="2px" stroke="none" stroke-dasharray="none" stroke-miterlimit="4" fill-opacity="1" stroke-opacity="1" fill="#000000" d="M35.23,7.34C37.662,7.34,39.634,9.311,39.634,11.743L39.634,14.679L41.102,13.211L29.358,13.211L30.826,14.679L30.826,11.743C30.826,9.311,32.798,7.34,35.23,7.34ZM35.23,4.404C31.176,4.404,27.89,7.69,27.89,11.743L27.89,14.679C27.89,15.49,28.548,16.147,29.358,16.147L41.102,16.147C41.912,16.147,42.57,15.49,42.57,14.679L42.57,11.743C42.57,7.69,39.284,4.404,35.23,4.404Z"/>
</g>
  <g id="Black-S" transform="matrix(1.0,0.0,0.0,1.0,2907.0949252929686,633.1849448242187)">  <path fill-opacity="1" stroke-linejoin="round" stroke="none" fill-rule="nonzero" fill="#000000" stroke-opacity="1" stroke-miterlimit="4" stroke-dasharray="none" stroke-linecap="round" stroke-width="2px" d="M29.253,6.42L25.883,6.414C15.397,6.388,6.452,14.889,6.379,25.251L6.379,33.999C6.379,35.256,6.235,35.938,5.991,36.311L5.33,37.32C2.123,42.192,5.582,48.757,11.459,48.757L43.711,48.757C49.587,48.757,53.042,42.196,49.838,37.316L49.181,36.313C48.936,35.94,48.791,35.252,48.791,33.996L48.791,25.289L48.791,25.227C48.665,14.888,39.73,6.446,29.255,6.42ZM29.23,16.581C34.255,16.593,38.574,20.674,38.631,25.35L38.631,25.289L38.631,33.996C38.631,37.049,39.161,39.557,40.681,41.879L41.342,42.888C40.144,41.065,41.444,38.596,43.711,38.596L11.459,38.596C13.725,38.596,15.027,41.067,13.823,42.897L14.488,41.882C16.011,39.56,16.54,37.056,16.54,33.999L16.54,25.286C16.572,20.65,20.874,16.562,25.86,16.574L29.232,16.581Z"/>
  <path fill-opacity="1" stroke-opacity="1" stroke="none" fill-rule="nonzero" stroke-width="2px" stroke-miterlimit="4" stroke-linejoin="round" stroke-linecap="round" fill="#000000" stroke-dasharray="none" d="M29.401,43.676C29.401,44.679,28.588,45.492,27.585,45.492C26.582,45.492,25.769,44.679,25.769,43.676C25.769,40.871,23.495,38.596,20.689,38.596C17.883,38.596,15.609,40.871,15.609,43.676C15.609,50.291,20.971,55.653,27.585,55.653C34.2,55.653,39.562,50.291,39.562,43.676C39.562,40.871,37.287,38.596,34.481,38.596C31.676,38.596,29.401,40.871,29.401,43.676Z"/>
  <path stroke-dasharray="none" stroke-opacity="1" stroke-miterlimit="4" stroke-linejoin="round" stroke-width="2px" fill-opacity="1" stroke-linecap="round" fill-rule="nonzero" stroke="none" fill="#000000" d="M27.585,9.678C27.318,9.678,27.102,9.462,27.102,9.195L27.102,11.494L32.183,11.494L32.183,6.414L22.988,6.414L22.988,11.494L28.068,11.494L28.068,9.195C28.068,9.462,27.852,9.678,27.585,9.678ZM27.585,-0.483C22.24,-0.483,17.907,3.85,17.907,9.195L17.907,11.494C17.907,14.3,20.182,16.574,22.988,16.574L32.183,16.574C34.988,16.574,37.263,14.3,37.263,11.494L37.263,9.195C37.263,3.85,32.93,-0.483,27.585,-0.483Z"/>
</g>
  <g id="Heavy-S" transform="matrix(1.0,0.0,0.0,1.0,2610.3849252929685,633.1849448242187)">  <path fill-rule="nonzero" stroke-dasharray="none" stroke-width="2px" stroke-linecap="round" stroke="none" stroke-miterlimit="4" fill-opacity="1" stroke-opacity="1" stroke-linejoin="round" fill="#000000" d="M29.252,6.977L25.882,6.97C15.697,6.945,7.006,15.204,6.935,25.255L6.935,33.999C6.935,35.355,6.77,36.137,6.456,36.616L5.795,37.625C2.829,42.131,6.028,48.2,11.459,48.2L43.711,48.2C49.141,48.2,52.336,42.134,49.373,37.621L48.715,36.618C48.401,36.138,48.235,35.35,48.235,33.996L48.235,25.289L48.234,25.234C48.113,15.205,39.43,7.001,29.253,6.977ZM29.232,16.025C34.555,16.037,39.127,20.357,39.187,25.344L39.187,25.289L39.187,33.996C39.187,36.95,39.696,39.359,41.146,41.575L41.807,42.584C40.851,41.127,41.89,39.152,43.711,39.152L11.459,39.152C13.279,39.152,14.321,41.129,13.358,42.591L14.023,41.577C15.476,39.362,15.983,36.958,15.983,33.999L15.983,25.286C16.018,20.334,20.574,16.005,25.862,16.018L29.233,16.025Z"/>
  <path fill-opacity="1" stroke-linejoin="round" stroke="none" fill="#000000" stroke-width="2px" stroke-opacity="1" stroke-linecap="round" stroke-miterlimit="4" fill-rule="nonzero" stroke-dasharray="none" d="M29.957,43.676C29.957,44.987,28.895,46.049,27.585,46.049C26.275,46.049,25.213,44.987,25.213,43.676C25.213,41.178,23.187,39.152,20.689,39.152C18.19,39.152,16.165,41.178,16.165,43.676C16.165,49.984,21.278,55.097,27.585,55.097C33.892,55.097,39.005,49.984,39.005,43.676C39.005,41.178,36.98,39.152,34.481,39.152C31.983,39.152,29.957,41.178,29.957,43.676Z"/>
  <path stroke-linejoin="round" stroke="none" stroke-miterlimit="4" stroke-linecap="round" stroke-width="2px" fill-opacity="1" stroke-dasharray="none" fill="#000000" fill-rule="nonzero" stroke-opacity="1" d="M27.585,9.121C27.626,9.121,27.659,9.154,27.659,9.195L27.659,11.494L32.183,11.494L32.183,6.97L22.988,6.97L22.988,11.494L27.512,11.494L27.512,9.195C27.512,9.154,27.544,9.121,27.585,9.121ZM27.585,0.074C22.547,0.074,18.464,4.157,18.464,9.195L18.464,11.494C18.464,13.992,20.489,16.018,22.988,16.018L32.183,16.018C34.681,16.018,36.707,13.992,36.707,11.494L36.707,9.195C36.707,4.157,32.623,0.074,27.585,0.074Z"/>
</g>
  <g id="Bold-S" transform="matrix(1.0,0.0,0.0,1.0,2313.6749252929685,633.1849448242187)">  <path stroke-opacity="1" fill-rule="nonzero" stroke-linecap="round" stroke-dasharray="none" fill="#000000" stroke-miterlimit="4" stroke-linejoin="round" fill-opacity="1" stroke="none" stroke-width="2px" d="M29.251,7.533L25.881,7.526C15.997,7.502,7.56,15.52,7.492,25.259L7.492,33.999C7.492,35.453,7.306,36.335,6.921,36.921L6.26,37.93C3.536,42.069,6.474,47.644,11.459,47.644L43.711,47.644C48.695,47.644,51.63,42.072,48.908,37.926L48.25,36.923C47.866,36.336,47.679,35.449,47.679,33.996L47.679,25.289L47.678,25.24C47.56,15.521,39.13,7.557,29.252,7.533ZM29.233,15.468C34.854,15.482,39.679,20.04,39.743,25.337L39.743,25.289L39.743,33.996C39.743,36.852,40.231,39.161,41.612,41.27L42.273,42.279C41.557,41.189,42.336,39.709,43.711,39.709L11.459,39.709C12.833,39.709,13.614,41.19,12.893,42.285L13.557,41.272C14.941,39.163,15.427,36.859,15.427,33.999L15.427,25.286C15.464,20.019,20.274,15.448,25.863,15.461L29.234,15.468Z"/>
  <path fill="#000000" stroke-linecap="round" stroke-opacity="1" stroke-dasharray="none" fill-opacity="1" stroke-linejoin="round" stroke-width="2px" stroke-miterlimit="4" stroke="none" fill-rule="nonzero" d="M30.514,43.676C30.514,45.294,29.203,46.605,27.585,46.605C25.968,46.605,24.656,45.294,24.656,43.676C24.656,41.485,22.88,39.709,20.689,39.709C18.498,39.709,16.721,41.485,16.721,43.676C16.721,49.676,21.585,54.54,27.585,54.54C33.585,54.54,38.449,49.676,38.449,43.676C38.449,41.485,36.673,39.709,34.481,39.709C32.29,39.709,30.514,41.485,30.514,43.676Z"/>
  <path fill="#000000" stroke="none" stroke-width="2px" stroke-linejoin="round" stroke-dasharray="none" fill-rule="nonzero" stroke-opacity="1" fill-opacity="1" stroke-miterlimit="4" stroke-linecap="round" d="M27.585,8.565C27.933,8.565,28.215,8.847,28.215,9.195L28.215,11.494L32.183,11.494L32.183,7.526L22.988,7.526L22.988,11.494L26.955,11.494L26.955,9.195C26.955,8.847,27.237,8.565,27.585,8.565ZM27.585,0.63C22.855,0.63,19.02,4.465,19.02,9.195L19.02,11.494C19.02,13.685,20.796,15.461,22.988,15.461L32.183,15.461C34.374,15.461,36.15,13.685,36.15,11.494L36.15,9.195C36.15,4.465,32.315,0.63,27.585,0.63Z"/>
</g>
  <g id="Semibold-S" transform="matrix(1.0,0.0,0.0,1.0,2016.9649252929687,633.1849448242187)">  <path stroke-linecap="round" stroke-linejoin="round" stroke-width="2px" stroke-dasharray="none" fill-opacity="1" fill="#000000" stroke="none" fill-rule="nonzero" stroke-opacity="1" stroke-miterlimit="4" d="M29.249,8.089L25.879,8.082C16.296,8.06,8.114,15.835,8.048,25.262L8.048,33.999C8.048,35.552,7.841,36.533,7.386,37.226L6.726,38.234C4.242,42.007,6.92,47.088,11.459,47.088L43.711,47.088C48.25,47.088,50.924,42.01,48.443,38.232L47.785,37.228C47.331,36.534,47.122,35.547,47.122,33.996L47.122,25.289L47.122,25.247C47.008,15.838,38.83,8.112,29.251,8.089ZM29.234,14.912C35.154,14.926,40.232,19.723,40.3,25.33L40.299,25.289L40.299,33.996C40.299,36.754,40.766,38.962,42.077,40.965L42.738,41.974C42.263,41.25,42.782,40.265,43.711,40.265L11.459,40.265C12.387,40.265,12.907,41.252,12.429,41.98L13.092,40.967C14.405,38.965,14.871,36.761,14.871,33.999L14.871,25.286C14.91,19.703,19.974,14.891,25.864,14.905L29.235,14.912Z"/>
  <path fill="#000000" fill-opacity="1" stroke="none" stroke-dasharray="none" stroke-linecap="round" stroke-width="2px" stroke-linejoin="round" stroke-miterlimit="4" fill-rule="nonzero" stroke-opacity="1" d="M31.07,43.676C31.07,45.601,29.51,47.161,27.585,47.161C25.66,47.161,24.1,45.601,24.1,43.676C24.1,41.792,22.573,40.265,20.689,40.265C18.805,40.265,17.277,41.792,17.277,43.676C17.277,49.369,21.892,53.984,27.585,53.984C33.278,53.984,37.893,49.369,37.893,43.676C37.893,41.792,36.365,40.265,34.481,40.265C32.597,40.265,31.07,41.792,31.07,43.676Z"/>
  <path fill-rule="nonzero" stroke-dasharray="none" stroke-linecap="round" stroke-opacity="1" fill-opacity="1" stroke-miterlimit="4" fill="#000000" stroke-width="2px" stroke="none" stroke-linejoin="round" d="M27.585,8.009C28.24,8.009,28.771,8.54,28.771,9.195L28.771,11.494L32.183,11.494L32.183,8.082L22.988,8.082L22.988,11.494L26.399,11.494L26.399,9.195C26.399,8.54,26.93,8.009,27.585,8.009ZM27.585,1.186C23.162,1.186,19.576,4.772,19.576,9.195L19.576,11.494C19.576,13.378,21.104,14.905,22.988,14.905L32.183,14.905C34.067,14.905,35.594,13.378,35.594,11.494L35.594,9.195C35.594,4.772,32.008,1.186,27.585,1.186Z"/>
</g>
  <g id="Medium-S" transform="matrix(1.0,0.0,0.0,1.0,1720.2549252929687,633.1849448242187)">  <path fill-opacity="1" fill="#000000" stroke-width="2px" stroke-linejoin="round" stroke="none" stroke-linecap="round" stroke-opacity="1" stroke-dasharray="none" fill-rule="nonzero" stroke-miterlimit="4" d="M29.248,8.646L25.878,8.639C16.596,8.617,8.668,16.151,8.604,25.266L8.604,33.999C8.604,35.651,8.376,36.731,7.851,37.531L7.191,38.539C4.949,41.946,7.366,46.531,11.459,46.531L43.711,46.531C47.804,46.531,50.217,41.948,47.978,38.537L47.32,37.532C46.795,36.732,46.566,35.645,46.566,33.996L46.566,25.289C46.455,16.155,38.531,8.668,29.249,8.646ZM29.236,14.356C35.454,14.371,40.784,19.407,40.856,25.323L40.856,33.996C40.856,36.655,41.301,38.764,42.543,40.661L43.203,41.669C42.969,41.312,43.228,40.821,43.711,40.821L11.459,40.821C11.942,40.821,12.201,41.313,11.964,41.674L12.627,40.662C13.87,38.767,14.314,36.662,14.314,33.999L14.314,25.286C14.356,19.388,19.674,14.334,25.866,14.349L29.237,14.356Z"/>
  <path stroke="none" stroke-dasharray="none" fill-opacity="1" stroke-linejoin="round" stroke-miterlimit="4" stroke-linecap="round" fill-rule="nonzero" stroke-width="2px" fill="#000000" stroke-opacity="1" d="M31.626,43.676C31.626,45.908,29.817,47.718,27.585,47.718C25.353,47.718,23.544,45.908,23.544,43.676C23.544,42.1,22.266,40.821,20.689,40.821C19.112,40.821,17.834,42.1,17.834,43.676C17.834,49.062,22.2,53.428,27.585,53.428C32.971,53.428,37.336,49.062,37.336,43.676C37.336,42.1,36.058,40.821,34.481,40.821C32.905,40.821,31.626,42.1,31.626,43.676Z"/>
  <path stroke-linejoin="round" fill="#000000" stroke-miterlimit="4" stroke-dasharray="none" fill-opacity="1" stroke-linecap="round" stroke-opacity="1" stroke-width="2px" fill-rule="nonzero" stroke="none" d="M27.585,7.453C28.547,7.453,29.328,8.233,29.328,9.195L29.328,11.494L32.183,11.494L32.183,8.639L22.988,8.639L22.988,11.494L25.843,11.494L25.843,9.195C25.843,8.233,26.623,7.453,27.585,7.453ZM27.585,1.742C23.469,1.742,20.133,5.079,20.133,9.195L20.133,11.494C20.133,13.071,21.411,14.349,22.988,14.349L32.183,14.349C33.759,14.349,35.038,13.071,35.038,11.494L35.038,9.195C35.038,5.079,31.701,1.742,27.585,1.742Z"/>
</g>
  <g id="Regular-S" transform="matrix(1.0,0.0,0.0,1.0,1423.5449252929686,633.1849448242187)">  <path fill-rule="nonzero" fill-opacity="1" stroke-linejoin="round" stroke-miterlimit="4" stroke="none" stroke-opacity="1" stroke-dasharray="none" fill="#000000" stroke-linecap="round" stroke-width="2px" d="M29.247,9.202L25.877,9.195C16.896,9.174,9.222,16.466,9.161,25.27L9.161,33.999C9.161,35.749,8.911,36.93,8.317,37.836L7.656,38.844C5.655,41.884,7.811,45.975,11.459,45.975L43.711,45.975C47.358,45.975,49.511,41.886,47.513,38.842L46.854,37.837C46.26,36.93,46.01,35.744,46.01,33.996L46.01,25.289C45.903,16.472,38.231,9.223,29.248,9.202ZM29.237,13.799C35.754,13.815,41.337,19.09,41.412,25.317L41.412,33.996C41.412,36.557,41.837,38.566,43.008,40.356L43.668,41.364C43.675,41.374,43.674,41.378,43.711,41.378L11.459,41.378C11.496,41.378,11.494,41.375,11.499,41.368L12.161,40.357C13.335,38.568,13.758,36.564,13.758,33.999L13.758,25.286C13.802,19.073,19.374,13.777,25.867,13.793L29.238,13.799Z"/>
  <path stroke-linecap="round" stroke-miterlimit="4" stroke-dasharray="none" stroke="none" stroke-width="2px" fill-opacity="1" fill="#000000" stroke-linejoin="round" stroke-opacity="1" fill-rule="nonzero" d="M32.183,43.676C32.183,46.216,30.124,48.274,27.585,48.274C25.046,48.274,22.988,46.216,22.988,43.676C22.988,42.407,21.958,41.378,20.689,41.378C19.419,41.378,18.39,42.407,18.39,43.676C18.39,48.755,22.507,52.871,27.585,52.871C32.663,52.871,36.78,48.755,36.78,43.676C36.78,42.407,35.751,41.378,34.481,41.378C33.212,41.378,32.183,42.407,32.183,43.676Z"/>
  <path stroke-miterlimit="4" fill-rule="nonzero" fill="#000000" stroke="none" fill-opacity="1" stroke-opacity="1" stroke-dasharray="none" stroke-linejoin="round" stroke-width="2px" stroke-linecap="round" d="M27.585,6.896C28.855,6.896,29.884,7.925,29.884,9.195L29.884,11.494L32.183,9.195L22.988,9.195L25.286,11.494L25.286,9.195C25.286,7.925,26.316,6.896,27.585,6.896ZM27.585,2.299C23.776,2.299,20.689,5.386,20.689,9.195L20.689,11.494C20.689,12.763,21.718,13.793,22.988,13.793L32.183,13.793C33.452,13.793,34.481,12.763,34.481,11.494L34.481,9.195C34.481,5.386,31.394,2.299,27.585,2.299Z"/>
</g>
  <g id="Light-S" transform="matrix(1.0,0.0,0.0,1.0,1126.8349252929688,633.1849448242187)">  <path stroke-dasharray="none" fill-rule="nonzero" fill="#000000" stroke-linecap="round" fill-opacity="1" stroke-linejoin="round" stroke-miterlimit="4" stroke-width="2px" stroke-opacity="1" stroke="none" d="M29.246,9.585L25.876,9.578C17.103,9.557,9.604,16.683,9.544,25.273L9.544,33.999C9.544,35.817,9.28,37.066,8.637,38.046L7.977,39.054C6.142,41.842,8.119,45.592,11.459,45.592L43.711,45.592C47.051,45.592,49.025,41.843,47.193,39.053L46.534,38.047C45.892,37.066,45.626,35.811,45.626,33.996L45.626,25.289C45.522,16.69,38.024,9.606,29.247,9.585ZM29.238,13.416C35.96,13.432,41.717,18.872,41.795,25.312L41.795,33.996C41.795,36.489,42.205,38.43,43.329,40.146L43.989,41.154C44.162,41.417,43.981,41.761,43.711,41.761L11.459,41.761C11.189,41.761,11.008,41.417,11.179,41.157L11.841,40.147C12.966,38.432,13.375,36.496,13.375,33.999L13.375,25.286C13.42,18.855,19.168,13.393,25.868,13.409L29.239,13.416Z"/>
  <path stroke-miterlimit="4" fill="#000000" stroke-linejoin="round" fill-rule="nonzero" fill-opacity="1" stroke-linecap="round" stroke-opacity="1" stroke="none" stroke-dasharray="none" stroke-width="2px" d="M32.566,43.676C32.566,46.427,30.336,48.657,27.585,48.657C24.834,48.657,22.604,46.427,22.604,43.676C22.604,42.618,21.747,41.761,20.689,41.761C19.631,41.761,18.773,42.618,18.773,43.676C18.773,48.543,22.718,52.488,27.585,52.488C32.452,52.488,36.397,48.543,36.397,43.676C36.397,42.618,35.539,41.761,34.481,41.761C33.423,41.761,32.566,42.618,32.566,43.676Z"/>
  <path stroke-dasharray="none" fill-opacity="1" stroke-miterlimit="4" stroke-width="2px" stroke-opacity="1" fill="#000000" fill-rule="nonzero" stroke-linecap="round" stroke-linejoin="round" stroke="none" d="M27.585,6.513C29.066,6.513,30.267,7.714,30.267,9.195L30.267,11.494L32.183,9.578L22.988,9.578L24.903,11.494L24.903,9.195C24.903,7.714,26.104,6.513,27.585,6.513ZM27.585,2.682C23.988,2.682,21.072,5.598,21.072,9.195L21.072,11.494C21.072,12.552,21.93,13.409,22.988,13.409L32.183,13.409C33.241,13.409,34.098,12.552,34.098,11.494L34.098,9.195C34.098,5.598,31.182,2.682,27.585,2.682Z"/>
</g>
  <g id="Thin-S" transform="matrix(1.0,0.0,0.0,1.0,830.1249252929688,633.1849448242187)">  <path fill-rule="nonzero" stroke-linejoin="round" stroke-opacity="1" stroke-miterlimit="4" stroke-dasharray="none" stroke-linecap="round" fill-opacity="1" stroke-width="2px" stroke="none" fill="#000000" d="M29.246,9.968L25.876,9.961C17.309,9.941,9.985,16.9,9.927,25.276L9.927,33.999C9.927,35.885,9.649,37.203,8.957,38.257L8.297,39.264C6.629,41.799,8.426,45.209,11.459,45.209L43.711,45.209C46.744,45.209,48.539,41.801,46.872,39.263L46.213,38.257C45.523,37.203,45.243,35.879,45.243,33.996L45.243,25.289C45.142,16.908,37.818,9.989,29.246,9.968ZM29.239,13.033C36.166,13.05,42.098,18.654,42.178,25.307L42.178,33.996C42.178,36.421,42.574,38.294,43.649,39.936L44.309,40.944C44.648,41.46,44.288,42.144,43.711,42.144L11.459,42.144C10.882,42.144,10.521,41.46,10.859,40.947L11.52,39.937C12.598,38.295,12.992,36.428,12.992,33.999L12.992,25.286C13.038,18.638,18.961,13.01,25.869,13.026L29.239,13.033Z"/>
  <path stroke-width="2px" stroke-linecap="round" stroke-opacity="1" fill-opacity="1" fill-rule="nonzero" stroke-linejoin="round" stroke-miterlimit="4" stroke="none" stroke-dasharray="none" fill="#000000" d="M32.949,43.676C32.949,46.639,30.547,49.04,27.585,49.04C24.623,49.04,22.221,46.639,22.221,43.676C22.221,42.83,21.535,42.144,20.689,42.144C19.842,42.144,19.156,42.83,19.156,43.676C19.156,48.331,22.93,52.105,27.585,52.105C32.24,52.105,36.014,48.331,36.014,43.676C36.014,42.83,35.328,42.144,34.481,42.144C33.635,42.144,32.949,42.83,32.949,43.676Z"/>
  <path stroke-miterlimit="4" fill-rule="nonzero" stroke-width="2px" stroke-dasharray="none" fill="#000000" fill-opacity="1" stroke="none" stroke-linecap="round" stroke-linejoin="round" stroke-opacity="1" d="M27.585,6.13C29.278,6.13,30.65,7.502,30.65,9.195L30.65,11.494L32.183,9.961L22.988,9.961L24.52,11.494L24.52,9.195C24.52,7.502,25.892,6.13,27.585,6.13ZM27.585,3.065C24.2,3.065,21.455,5.81,21.455,9.195L21.455,11.494C21.455,12.34,22.141,13.026,22.988,13.026L32.183,13.026C33.029,13.026,33.715,12.34,33.715,11.494L33.715,9.195C33.715,5.81,30.971,3.065,27.585,3.065Z"/>
</g>
  <g id="Ultralight-S" transform="matrix(1.0,0.0,0.0,1.0,533.4149252929687,633.1849448242187)">  <path fill-opacity="1" fill="#000000" stroke-opacity="1" stroke-miterlimit="4" stroke-linejoin="round" stroke-width="2px" fill-rule="nonzero" stroke="none" stroke-dasharray="none" stroke-linecap="round" d="M29.245,10.351L25.875,10.344C17.516,10.324,10.367,17.118,10.31,25.278L10.31,33.999C10.31,35.953,10.017,37.339,9.278,38.467L8.618,39.474C7.115,41.757,8.733,44.826,11.459,44.826L43.711,44.826C46.437,44.826,48.052,41.758,46.552,39.473L45.893,38.467C45.154,37.339,44.86,35.947,44.86,33.996L44.86,25.289C44.761,17.126,37.612,10.371,29.245,10.351ZM29.24,12.65C36.373,12.667,42.478,18.435,42.562,25.303L42.561,33.996C42.561,36.354,42.943,38.157,43.97,39.727L44.63,40.734C45.134,41.502,44.595,42.527,43.711,42.527L11.459,42.527C10.575,42.527,10.035,41.502,10.539,40.736L11.2,39.727C12.229,38.159,12.609,36.36,12.609,33.999L12.609,25.286C12.657,18.421,18.755,12.626,25.87,12.643L29.24,12.65Z"/>
  <path stroke="none" stroke-linejoin="round" fill="#000000" fill-opacity="1" stroke-linecap="round" stroke-dasharray="none" fill-rule="nonzero" stroke-width="2px" stroke-miterlimit="4" stroke-opacity="1" d="M33.332,43.676C33.332,46.85,30.759,49.423,27.585,49.423C24.411,49.423,21.838,46.85,21.838,43.676C21.838,43.042,21.324,42.527,20.689,42.527C20.054,42.527,19.539,43.042,19.539,43.676C19.539,48.12,23.142,51.722,27.585,51.722C32.029,51.722,35.631,48.12,35.631,43.676C35.631,43.042,35.116,42.527,34.481,42.527C33.847,42.527,33.332,43.042,33.332,43.676Z"/>
  <path fill-rule="nonzero" stroke-linecap="round" stroke-linejoin="round" stroke-width="2px" stroke="none" stroke-dasharray="none" stroke-miterlimit="4" fill-opacity="1" stroke-opacity="1" fill="#000000" d="M27.585,5.747C29.489,5.747,31.033,7.291,31.033,9.195L31.033,11.494L32.183,10.344L22.988,10.344L24.137,11.494L24.137,9.195C24.137,7.291,25.681,5.747,27.585,5.747ZM27.585,3.448C24.411,3.448,21.838,6.021,21.838,9.195L21.838,11.494C21.838,12.129,22.353,12.643,22.988,12.643L32.183,12.643C32.817,12.643,33.332,12.129,33.332,11.494L33.332,9.195C33.332,6.021,30.759,3.448,27.585,3.448Z"/>
</g>
 </g>
</svg>
