<?xml version="1.0" encoding="UTF-8"?>
<!-- Generator: CustomSymbols v2.6.2.41 by @serious_bret https://bretlester.com/app_content/CustomSymbols/ -->
<!-- Guides: Left/Right 0.0/0.0 Cap/Base 0.0/0.0 -->
<!-- Settings: RefScale 1.0 Min/Max Stroke Scales 0.5/2.21 -->
<!DOCTYPE svg
PUBLIC "-//W3C//DTD SVG 1.1//EN"
       "http://www.w3.org/Graphics/SVG/1.1/DTD/svg11.dtd">
<svg version="1.1" xmlns="http://www.w3.org/2000/svg" xmlns:xlink="http://www.w3.org/1999/xlink" width="3300" height="2200">
<![CDATA[<svg xmlns="http://www.w3.org/2000/svg" width="36" height="36" viewBox="0 0 24 24" fill="none" stroke="currentColor" stroke-width="2" stroke-linecap="round" stroke-linejoin="round" class="ai ai-ChatBubble"><path d="M14 19c3.771 0 5.657 0 6.828-1.172C22 16.657 22 14.771 22 11c0-3.771 0-5.657-1.172-6.828C19.657 3 17.771 3 14 3h-4C6.229 3 4.343 3 3.172 4.172 2 5.343 2 7.229 2 11c0 3.771 0 5.657 1.172 6.828.653.654 1.528.943 2.828 1.07"/><path d="M14 19c-1.236 0-2.598.5-3.841 1.145-1.998 1.037-2.997 1.556-3.489 1.225-.492-.33-.399-1.355-.212-3.404L6.5 17.5"/></svg>]]>
 <g id="Notes">
  <rect height="2200" id="artboard" style="fill:white;opacity:1" width="3300" x="0" y="0"/>
  <line id="" style="fill:none;stroke:black;opacity:1;stroke-width:0.5;" x1="263" x2="3036" y1="292" y2="292"/>
  <text id="reftext1" style="stroke:none;fill:black;font-family:-apple-system,&quot;SF Pro Display&quot;,&quot;SF Pro Text&quot;,Helvetica,sans-serif;font-weight:bold;" transform="matrix(1 0 0 1 263 322)">Weight/Scale Variations</text>
  <text id="reftext2" style="stroke:none;fill:black;font-family:-apple-system,&quot;SF Pro Display&quot;,&quot;SF Pro Text&quot;,Helvetica,sans-serif;text-anchor:middle;" transform="matrix(1 0 0 1 559.711 322)">Ultralight</text>
  <text style="stroke:none;fill:black;font-family:-apple-system,&quot;SF Pro Display&quot;,&quot;SF Pro Text&quot;,Helvetica,sans-serif;text-anchor:middle;" transform="matrix(1 0 0 1 856.422 322)">Thin</text>
  <text style="stroke:none;fill:black;font-family:-apple-system,&quot;SF Pro Display&quot;,&quot;SF Pro Text&quot;,Helvetica,sans-serif;text-anchor:middle;" transform="matrix(1 0 0 1 1153.13 322)">Light</text>
  <text style="stroke:none;fill:black;font-family:-apple-system,&quot;SF Pro Display&quot;,&quot;SF Pro Text&quot;,Helvetica,sans-serif;text-anchor:middle;" transform="matrix(1 0 0 1 1449.84 322)">Regular</text>
  <text style="stroke:none;fill:black;font-family:-apple-system,&quot;SF Pro Display&quot;,&quot;SF Pro Text&quot;,Helvetica,sans-serif;text-anchor:middle;" transform="matrix(1 0 0 1 1746.56 322)">Medium</text>
  <text style="stroke:none;fill:black;font-family:-apple-system,&quot;SF Pro Display&quot;,&quot;SF Pro Text&quot;,Helvetica,sans-serif;text-anchor:middle;" transform="matrix(1 0 0 1 2043.27 322)">Semibold</text>
  <text style="stroke:none;fill:black;font-family:-apple-system,&quot;SF Pro Display&quot;,&quot;SF Pro Text&quot;,Helvetica,sans-serif;text-anchor:middle;" transform="matrix(1 0 0 1 2339.98 322)">Bold</text>
  <text style="stroke:none;fill:black;font-family:-apple-system,&quot;SF Pro Display&quot;,&quot;SF Pro Text&quot;,Helvetica,sans-serif;text-anchor:middle;" transform="matrix(1 0 0 1 2636.69 322)">Heavy</text>
  <text style="stroke:none;fill:black;font-family:-apple-system,&quot;SF Pro Display&quot;,&quot;SF Pro Text&quot;,Helvetica,sans-serif;text-anchor:middle;" transform="matrix(1 0 0 1 2933.4 322)">Black</text>
  <line id="" style="fill:none;stroke:black;opacity:1;stroke-width:0.5;" x1="263" x2="3036" y1="1903" y2="1903"/>
  <g id="" transform="matrix(1 0 0 1 263 1933)">
   <path d="M9.24805 0.830078C13.5547 0.830078 17.1387-2.74414 17.1387-7.05078C17.1387-11.3574 13.5449-14.9316 9.23828-14.9316C4.94141-14.9316 1.36719-11.3574 1.36719-7.05078C1.36719-2.74414 4.95117 0.830078 9.24805 0.830078ZM9.24805-0.654297C5.70312-0.654297 2.87109-3.49609 2.87109-7.05078C2.87109-10.6055 5.69336-13.4473 9.23828-13.4473C12.793-13.4473 15.6348-10.6055 15.6445-7.05078C15.6543-3.49609 12.8027-0.654297 9.24805-0.654297ZM6.39648-6.31836L8.50586-6.31836L8.50586-4.19922C8.50586-3.75977 8.79883-3.45703 9.22852-3.45703C9.67773-3.45703 9.9707-3.75977 9.9707-4.19922L9.9707-6.31836L12.0996-6.31836C12.5391-6.31836 12.8418-6.61133 12.8418-7.04102C12.8418-7.48047 12.5391-7.7832 12.0996-7.7832L9.9707-7.7832L9.9707-9.89258C9.9707-10.3418 9.67773-10.6445 9.22852-10.6445C8.79883-10.6445 8.50586-10.3418 8.50586-9.89258L8.50586-7.7832L6.39648-7.7832C5.94727-7.7832 5.64453-7.48047 5.64453-7.04102C5.64453-6.61133 5.94727-6.31836 6.39648-6.31836Z"/>
  </g>
  <g id="" transform="matrix(1 0 0 1 281.506 1933)">
   <path d="M11.709 2.91016C17.1582 2.91016 21.6699-1.61133 21.6699-7.05078C21.6699-12.5 17.1484-17.0117 11.6992-17.0117C6.25977-17.0117 1.74805-12.5 1.74805-7.05078C1.74805-1.61133 6.26953 2.91016 11.709 2.91016ZM11.709 1.25C7.09961 1.25 3.41797-2.44141 3.41797-7.05078C3.41797-11.6602 7.08984-15.3516 11.6992-15.3516C16.3086-15.3516 20-11.6602 20.0098-7.05078C20.0195-2.44141 16.3184 1.25 11.709 1.25ZM7.98828-6.23047L10.8789-6.23047L10.8789-3.32031C10.8789-2.83203 11.2109-2.5 11.6895-2.5C12.1777-2.5 12.5195-2.83203 12.5195-3.32031L12.5195-6.23047L15.4297-6.23047C15.918-6.23047 16.25-6.5625 16.25-7.04102C16.25-7.5293 15.918-7.87109 15.4297-7.87109L12.5195-7.87109L12.5195-10.7617C12.5195-11.2695 12.1777-11.6016 11.6895-11.6016C11.2109-11.6016 10.8789-11.2598 10.8789-10.7617L10.8789-7.87109L7.98828-7.87109C7.48047-7.87109 7.14844-7.5293 7.14844-7.04102C7.14844-6.5625 7.49023-6.23047 7.98828-6.23047Z"/>
  </g>
  <g id="" transform="matrix(1 0 0 1 304.924 1933)">
   <path d="M14.9707 5.66406C21.9336 5.66406 27.6953-0.0976562 27.6953-7.05078C27.6953-14.0137 21.9238-19.7754 14.9609-19.7754C8.00781-19.7754 2.25586-14.0137 2.25586-7.05078C2.25586-0.0976562 8.01758 5.66406 14.9707 5.66406ZM14.9707 3.84766C8.93555 3.84766 4.08203-1.01562 4.08203-7.05078C4.08203-13.0957 8.92578-17.9492 14.9609-17.9492C21.0059-17.9492 25.8594-13.0957 25.8691-7.05078C25.8789-1.01562 21.0156 3.84766 14.9707 3.84766ZM10.0586-6.14258L14.0625-6.14258L14.0625-2.12891C14.0625-1.5918 14.4336-1.2207 14.9512-1.2207C15.4883-1.2207 15.8594-1.5918 15.8594-2.12891L15.8594-6.14258L19.8828-6.14258C20.4102-6.14258 20.791-6.51367 20.791-7.03125C20.791-7.56836 20.4199-7.94922 19.8828-7.94922L15.8594-7.94922L15.8594-11.9531C15.8594-12.5098 15.4883-12.8809 14.9512-12.8809C14.4336-12.8809 14.0625-12.5 14.0625-11.9531L14.0625-7.94922L10.0586-7.94922C9.50195-7.94922 9.13086-7.56836 9.13086-7.03125C9.13086-6.51367 9.51172-6.14258 10.0586-6.14258Z"/>
  </g>
  <text style="stroke:none;fill:black;font-family:-apple-system,&quot;SF Pro Display&quot;,&quot;SF Pro Text&quot;,Helvetica,sans-serif;font-weight:bold;" transform="matrix(1 0 0 1 263 1953)">Design Variations</text>
  <text style="stroke:none;fill:black;font-family:-apple-system,&quot;SF Pro Display&quot;,&quot;SF Pro Text&quot;,Helvetica,sans-serif;" transform="matrix(1 0 0 1 263 1971)">Symbols are supported in up to nine weights and three scales.</text>
  <text style="stroke:none;fill:black;font-family:-apple-system,&quot;SF Pro Display&quot;,&quot;SF Pro Text&quot;,Helvetica,sans-serif;" transform="matrix(1 0 0 1 263 1989)">For optimal layout with text and other symbols, vertically align</text>
  <text style="stroke:none;fill:black;font-family:-apple-system,&quot;SF Pro Display&quot;,&quot;SF Pro Text&quot;,Helvetica,sans-serif;" transform="matrix(1 0 0 1 263 2007)">symbols with the adjacent text.</text>
  <line id="" style="fill:none;stroke:#00AEEF;stroke-width:0.5;opacity:1.0;" x1="776" x2="776" y1="1919" y2="1933"/>
  <g id="" transform="matrix(1 0 0 1 776 1933)">
   <path d="M3.31055 0.126953C3.82812 0.126953 4.08203-0.0683594 4.26758-0.605469L5.52734-4.0625L11.2891-4.0625L12.5488-0.605469C12.7344-0.0683594 12.9883 0.126953 13.4961 0.126953C14.0137 0.126953 14.3457-0.185547 14.3457-0.673828C14.3457-0.839844 14.3164-0.986328 14.2383-1.20117L9.6582-13.3887C9.43359-13.9941 9.0332-14.2871 8.4082-14.2871C7.80273-14.2871 7.39258-13.9941 7.17773-13.3984L2.59766-1.19141C2.51953-0.976562 2.49023-0.830078 2.49023-0.664062C2.49023-0.175781 2.80273 0.126953 3.31055 0.126953ZM6.00586-5.53711L8.37891-12.1094L8.42773-12.1094L10.8008-5.53711Z"/>
  </g>
  <line id="" style="fill:none;stroke:#00AEEF;stroke-width:0.5;opacity:1.0;" x1="792.836" x2="792.836" y1="1919" y2="1933"/>
  <text style="stroke:none;fill:black;font-family:-apple-system,&quot;SF Pro Display&quot;,&quot;SF Pro Text&quot;,Helvetica,sans-serif;font-weight:bold;" transform="matrix(1 0 0 1 776 1953)">Margins</text>
  <text style="stroke:none;fill:black;font-family:-apple-system,&quot;SF Pro Display&quot;,&quot;SF Pro Text&quot;,Helvetica,sans-serif;" transform="matrix(1 0 0 1 776 1971)">Leading and trailing margins on the left and right side of each symbol</text>
  <text style="stroke:none;fill:black;font-family:-apple-system,&quot;SF Pro Display&quot;,&quot;SF Pro Text&quot;,Helvetica,sans-serif;" transform="matrix(1 0 0 1 776 1989)">can be adjusted by modifying the x-location of the margin guidelines.</text>
  <text style="stroke:none;fill:black;font-family:-apple-system,&quot;SF Pro Display&quot;,&quot;SF Pro Text&quot;,Helvetica,sans-serif;" transform="matrix(1 0 0 1 776 2007)">Modifications are automatically applied proportionally to all</text>
  <text style="stroke:none;fill:black;font-family:-apple-system,&quot;SF Pro Display&quot;,&quot;SF Pro Text&quot;,Helvetica,sans-serif;" transform="matrix(1 0 0 1 776 2025)">scales and weights.</text>
  <g id="" transform="matrix(1 0 0 1 1289 1933)">
   <path d="M2.8418 1.86523L4.54102 3.57422C5.40039 4.44336 6.38672 4.38477 7.31445 3.35938L17.4902-7.85156C17.7539-7.76367 18.0273-7.7832 18.3398-7.8418L19.4043-8.03711L20.0684-7.36328L20.0293-6.80664C19.9902-6.30859 20.1172-5.92773 20.6055-5.44922L21.3672-4.70703C21.8457-4.22852 22.4609-4.19922 22.9297-4.66797L25.8398-7.58789C26.3086-8.05664 26.2891-8.65234 25.8105-9.13086L25.0391-9.89258C24.5605-10.3711 24.1895-10.5273 23.7109-10.4883L23.1348-10.4395L22.4902-11.0742L22.7344-12.1973C22.8613-12.7637 22.7051-13.2031 22.1191-13.7891L19.9219-15.9766C16.582-19.2969 12.1484-19.2188 9.25781-16.3281C8.83789-15.918 8.80859-15.3418 9.04297-14.9512C9.27734-14.5898 9.73633-14.3555 10.3809-14.5215C11.8457-14.8633 13.3691-14.9219 14.7949-13.9844L14.209-12.5293C14.0137-12.0508 13.9844-11.6504 14.1113-11.2891L3.04688-0.898438C2.06055 0.0195312 1.98242 0.996094 2.8418 1.86523ZM10.752-15.957C13.1836-17.7344 16.4746-17.4316 18.7012-15.2051L21.1328-12.793C21.3672-12.5586 21.4062-12.373 21.3379-12.0312L21.0156-10.5469L22.5195-9.0625L23.5059-9.12109C23.7598-9.13086 23.8379-9.11133 24.0332-8.91602L24.6094-8.33984L22.168-5.89844L21.5918-6.47461C21.3965-6.66992 21.3672-6.74805 21.377-7.01172L21.4453-7.98828L19.9512-9.47266L18.4277-9.21875C18.1055-9.15039 17.959-9.17969 17.7148-9.41406L15.7129-11.416C15.459-11.6504 15.4297-11.8164 15.5859-12.1875L16.4648-14.2773C14.9023-15.7324 12.8711-16.3574 10.8398-15.7617C10.6836-15.7227 10.625-15.8496 10.752-15.957ZM5.27344 2.30469L4.10156 1.14258C3.63281 0.683594 3.74023 0.341797 4.14062-0.0195312L14.9512-10.1953L16.416-8.71094L6.42578 2.27539C6.07422 2.67578 5.74219 2.77344 5.27344 2.30469Z"/>
  </g>
  <text style="stroke:none;fill:black;font-family:-apple-system,&quot;SF Pro Display&quot;,&quot;SF Pro Text&quot;,Helvetica,sans-serif;font-weight:bold;" transform="matrix(1 0 0 1 1289 1953)">Exporting</text>
  <text style="stroke:none;fill:black;font-family:-apple-system,&quot;SF Pro Display&quot;,&quot;SF Pro Text&quot;,Helvetica,sans-serif;" transform="matrix(1 0 0 1 1289 1971)">Symbols should be outlined when exporting to ensure the</text>
  <text style="stroke:none;fill:black;font-family:-apple-system,&quot;SF Pro Display&quot;,&quot;SF Pro Text&quot;,Helvetica,sans-serif;" transform="matrix(1 0 0 1 1289 1989)">design is preserved when submitting to Xcode.</text>
  <text id="template-version" style="stroke:none;fill:black;font-family:-apple-system,&quot;SF Pro Display&quot;,&quot;SF Pro Text&quot;,Helvetica,sans-serif;text-anchor:end;" transform="matrix(1 0 0 1 3036 1933)">Template v.2.0</text>
  <text style="stroke:none;fill:black;font-family:-apple-system,&quot;SF Pro Display&quot;,&quot;SF Pro Text&quot;,Helvetica,sans-serif;text-anchor:end;" transform="matrix(1 0 0 1 3036 1951)">Requires Xcode 12 or greater</text>
  <text style="stroke:none;fill:black;font-family:-apple-system,&quot;SF Pro Display&quot;,&quot;SF Pro Text&quot;,Helvetica,sans-serif;" transform="matrix(1 0 0 1 263 726)">Small</text>
  <text style="stroke:none;fill:black;font-family:-apple-system,&quot;SF Pro Display&quot;,&quot;SF Pro Text&quot;,Helvetica,sans-serif;" transform="matrix(1 0 0 1 263 1156)">Medium</text>
  <text style="stroke:none;fill:black;font-family:-apple-system,&quot;SF Pro Display&quot;,&quot;SF Pro Text&quot;,Helvetica,sans-serif;" transform="matrix(1 0 0 1 263 1586)">Large</text>
 </g>
 <g id="Guides">
  <g id="H-reference" style="fill:#27AAE1;stroke:none;" transform="matrix(1 0 0 1 339 696)">
   <path d="M0.976562 0L3.66211 0L12.9883-24.4629L45.752-24.4629L55.127 0L57.7637 0L30.6152-70.459L28.125-70.459ZM29.3457-67.1387L29.4434-67.1387L44.873-26.709L13.8672-26.709Z"/>
  </g>
  <line id="Baseline-S" style="fill:none;stroke:#27AAE1;opacity:1;stroke-width:0.5;" x1="263" x2="3036" y1="696" y2="696"/>
  <line id="Capline-S" style="fill:none;stroke:#27AAE1;opacity:1;stroke-width:0.5;" x1="263" x2="3036" y1="625.541" y2="625.541"/>
  <g id="H-reference" style="fill:#27AAE1;stroke:none;" transform="matrix(1 0 0 1 339 1126)">
   <path d="M0.976562 0L3.66211 0L12.9883-24.4629L45.752-24.4629L55.127 0L57.7637 0L30.6152-70.459L28.125-70.459ZM29.3457-67.1387L29.4434-67.1387L44.873-26.709L13.8672-26.709Z"/>
  </g>
  <line id="Baseline-M" style="fill:none;stroke:#27AAE1;opacity:1;stroke-width:0.5;" x1="263" x2="3036" y1="1126" y2="1126"/>
  <line id="Capline-M" style="fill:none;stroke:#27AAE1;opacity:1;stroke-width:0.5;" x1="263" x2="3036" y1="1055.54" y2="1055.54"/>
  <g id="H-reference" style="fill:#27AAE1;stroke:none;" transform="matrix(1 0 0 1 339 1556)">
   <path d="M0.976562 0L3.66211 0L12.9883-24.4629L45.752-24.4629L55.127 0L57.7637 0L30.6152-70.459L28.125-70.459ZM29.3457-67.1387L29.4434-67.1387L44.873-26.709L13.8672-26.709Z"/>
  </g>
  <line id="Baseline-L" style="fill:none;stroke:#27AAE1;opacity:1;stroke-width:0.5;" x1="263" x2="3036" y1="1556" y2="1556"/>
  <line id="Capline-L" style="fill:none;stroke:#27AAE1;opacity:1;stroke-width:0.5;" x1="263" x2="3036" y1="1485.54" y2="1485.54"/>
  <line id="left-margin" x1="1415.9000195312499" x2="1415.9000195312499" y1="1030.79" y2="1150.12" style="fill:none;stroke:#00AEEF;stroke-width:0.5;opacity:1.0;"/>
  <line id="right-margin" x1="1486.3599804687499" x2="1486.3599804687499" y1="1030.79" y2="1150.12" style="fill:none;stroke:#00AEEF;stroke-width:0.5;opacity:1.0;"/>
 </g>
 <g id="Symbols">
  <g id="Black-L" transform="matrix(1.0,0.0,0.0,1.0,2889.2333251953123,1475.3233447265625)">  <path fill-opacity="1" stroke-linejoin="round" fill-rule="nonzero" stroke-dasharray="none" stroke-linecap="round" stroke="none" stroke-width="2px" fill="#000000" stroke-opacity="1" stroke-miterlimit="4" d="M53.021,80.327C63.288,80.327,66.723,80.24,70.759,79.697C76.701,78.898,81.187,77.052,84.801,73.434C88.414,69.825,90.26,65.339,91.059,59.397C91.602,55.361,91.689,51.926,91.689,41.659C91.689,31.393,91.602,27.957,91.059,23.922C90.26,17.98,88.414,13.494,84.796,9.879C81.187,6.267,76.701,4.421,70.759,3.621C66.723,3.079,63.288,2.992,53.021,2.992L37.872,2.992C27.605,2.992,24.17,3.079,20.134,3.621C14.192,4.421,9.707,6.267,6.092,9.885C2.48,13.494,0.633,17.98,-0.166,23.922C-0.709,27.957,-0.795,31.393,-0.795,41.659C-0.795,51.926,-0.709,55.361,-0.166,59.397C0.633,65.339,2.48,69.825,6.097,73.439C10.065,77.414,15.005,79.227,21.91,79.901C26.51,80.35,30.604,76.985,31.053,72.385C31.503,67.784,28.138,63.69,23.537,63.241C20.143,62.909,18.715,62.385,17.936,61.605C16.395,60.066,15.944,56.711,15.944,41.659C15.944,26.608,16.395,23.253,17.929,21.721C19.466,20.183,22.821,19.731,37.872,19.731L53.021,19.731C68.073,19.731,71.427,20.183,72.959,21.716C74.498,23.253,74.949,26.608,74.949,41.659C74.949,56.711,74.498,60.066,72.964,61.598C71.427,63.136,68.073,63.587,53.021,63.587C48.399,63.587,44.651,67.335,44.651,71.957C44.651,76.58,48.399,80.327,53.021,80.327Z"/>
  <path stroke-linejoin="round" fill-rule="nonzero" stroke-linecap="round" stroke-miterlimit="4" fill-opacity="1" stroke-width="2px" stroke="none" stroke-opacity="1" stroke-dasharray="none" fill="#000000" d="M53.021,63.587C47.18,63.587,41.06,65.523,34.619,68.864C29.748,71.393,28.094,72.212,26.697,72.755C26.405,72.868,26.183,72.943,26.039,72.983C26.033,72.985,26.101,72.972,26.261,72.956C27.314,72.857,28.64,73.119,29.933,73.988C31.122,74.786,31.868,75.861,32.198,76.862C32.262,77.054,32.288,77.171,32.294,77.221C32.281,77.125,32.268,76.951,32.262,76.704C32.227,75.397,32.345,73.712,32.793,68.802L32.953,67.028C33.368,62.424,29.972,58.355,25.368,57.94C20.764,57.525,16.696,60.921,16.281,65.525L16.122,67.29C15.599,73.017,15.468,74.893,15.528,77.153C15.653,81.781,16.832,85.358,20.599,87.884C22.806,89.369,25.299,89.861,27.834,89.622C29.444,89.47,31.009,89.038,32.76,88.358C34.974,87.497,36.776,86.605,42.33,83.722C46.6,81.507,50.331,80.327,53.021,80.327C57.644,80.327,61.391,76.58,61.391,71.957C61.391,67.335,57.644,63.587,53.021,63.587Z"/>
</g>
  <g id="Heavy-L" transform="matrix(1.0,0.0,0.0,1.0,2592.5233251953123,1475.3233447265625)">  <path stroke-linecap="round" stroke-opacity="1" fill-opacity="1" stroke="none" stroke-miterlimit="4" stroke-width="2px" stroke-linejoin="round" fill="#000000" fill-rule="nonzero" stroke-dasharray="none" d="M53.021,79.41C63.239,79.41,66.659,79.324,70.637,78.789C76.396,78.015,80.699,76.243,84.153,72.787C87.605,69.337,89.376,65.034,90.151,59.275C90.686,55.297,90.772,51.877,90.772,41.659C90.772,31.442,90.686,28.022,90.151,24.044C89.376,18.285,87.605,13.982,84.148,10.528C80.699,7.076,76.396,5.304,70.637,4.53C66.659,3.995,63.239,3.908,53.021,3.908L37.872,3.908C27.654,3.908,24.234,3.995,20.257,4.53C14.497,5.304,10.194,7.076,6.741,10.532C3.288,13.982,1.517,18.285,0.743,24.044C0.208,28.022,0.121,31.442,0.121,41.659C0.121,51.877,0.208,55.297,0.743,59.275C1.517,65.034,3.288,69.337,6.745,72.791C10.539,76.591,15.286,78.333,21.999,78.989C26.095,79.389,29.741,76.392,30.141,72.296C30.542,68.199,27.545,64.553,23.448,64.153C19.862,63.803,18.242,63.208,17.287,62.252C15.49,60.457,15.028,57.018,15.028,41.659C15.028,26.301,15.49,22.862,17.281,21.073C19.075,19.277,22.514,18.815,37.872,18.815L53.021,18.815C68.38,18.815,71.818,19.277,73.608,21.068C75.403,22.862,75.866,26.301,75.866,41.659C75.866,57.018,75.403,60.457,73.612,62.246C71.818,64.041,68.38,64.504,53.021,64.504C48.905,64.504,45.568,67.841,45.568,71.957C45.568,76.074,48.905,79.41,53.021,79.41Z"/>
  <path stroke-linecap="round" stroke-dasharray="none" fill-rule="nonzero" stroke="none" fill="#000000" stroke-miterlimit="4" stroke-opacity="1" stroke-linejoin="round" fill-opacity="1" stroke-width="2px" d="M53.021,64.504C47.353,64.504,41.363,66.398,35.042,69.678C30.133,72.226,28.47,73.049,27.029,73.609C26.71,73.733,26.459,73.818,26.283,73.867C26.228,73.882,26.245,73.879,26.347,73.869C27.204,73.788,28.321,74.009,29.421,74.749C30.43,75.425,31.058,76.33,31.328,77.149C31.373,77.284,31.387,77.347,31.386,77.345C31.368,77.214,31.353,77.007,31.346,76.728C31.309,75.369,31.428,73.674,31.88,68.719L32.04,66.945C32.41,62.846,29.386,59.223,25.286,58.853C21.186,58.484,17.563,61.508,17.194,65.607L17.035,67.372C16.516,73.055,16.385,74.921,16.444,77.129C16.562,81.488,17.656,84.807,21.109,87.123C23.125,88.479,25.409,88.93,27.748,88.709C29.26,88.567,30.749,88.156,32.428,87.503C34.597,86.66,36.392,85.772,41.908,82.909C46.297,80.631,50.159,79.41,53.021,79.41C57.137,79.41,60.474,76.074,60.474,71.957C60.474,67.841,57.137,64.504,53.021,64.504Z"/>
</g>
  <g id="Bold-L" transform="matrix(1.0,0.0,0.0,1.0,2295.8133251953122,1475.3233447265625)">  <path stroke-dasharray="none" stroke-miterlimit="4" stroke="none" stroke-opacity="1" stroke-width="2px" fill="#000000" fill-rule="nonzero" stroke-linecap="round" fill-opacity="1" stroke-linejoin="round" d="M53.021,78.494C63.19,78.494,66.595,78.408,70.515,77.881C76.091,77.131,80.211,75.435,83.504,72.139C86.797,68.85,88.492,64.729,89.242,59.153C89.77,55.233,89.856,51.828,89.856,41.659C89.856,31.491,89.77,28.086,89.242,24.166C88.492,18.59,86.797,14.469,83.5,11.176C80.211,7.884,76.091,6.188,70.515,5.438C66.595,4.911,63.19,4.825,53.021,4.825L37.872,4.825C27.703,4.825,24.299,4.911,20.379,5.438C14.802,6.188,10.682,7.884,7.389,11.18C4.097,14.469,2.401,18.59,1.651,24.166C1.124,28.086,1.038,31.491,1.038,41.659C1.038,51.828,1.124,55.233,1.651,59.153C2.401,64.729,4.097,68.85,7.393,72.143C11.013,75.768,15.568,77.44,22.088,78.077C25.681,78.428,28.878,75.8,29.229,72.207C29.58,68.613,26.952,65.416,23.359,65.065C19.58,64.696,17.768,64.031,16.639,62.9C14.585,60.848,14.111,57.325,14.111,41.659C14.111,25.994,14.585,22.471,16.633,20.424C18.684,18.372,22.207,17.898,37.872,17.898L53.021,17.898C68.686,17.898,72.21,18.372,74.256,20.42C76.308,22.471,76.782,25.994,76.782,41.659C76.782,57.325,76.308,60.848,74.26,62.894C72.21,64.947,68.686,65.42,53.021,65.42C49.411,65.42,46.484,68.347,46.484,71.957C46.484,75.567,49.411,78.494,53.021,78.494Z"/>
  <path stroke-dasharray="none" stroke-width="2px" fill-opacity="1" stroke-opacity="1" fill-rule="nonzero" stroke-miterlimit="4" stroke-linecap="round" stroke-linejoin="round" stroke="none" fill="#000000" d="M53.021,65.42C47.525,65.42,41.666,67.273,35.464,70.491C30.518,73.059,28.847,73.886,27.361,74.463C27.015,74.598,26.735,74.693,26.526,74.75C26.423,74.779,26.388,74.786,26.433,74.781C26.66,74.76,26.957,74.77,27.319,74.842C27.857,74.948,28.406,75.17,28.91,75.509C29.737,76.065,30.248,76.8,30.458,77.436C30.484,77.514,30.486,77.524,30.478,77.468C30.455,77.302,30.438,77.063,30.429,76.753C30.391,75.342,30.511,73.636,30.968,68.635L31.127,66.863C31.451,63.268,28.799,60.09,25.204,59.766C21.608,59.442,18.431,62.094,18.107,65.69L17.948,67.454C17.433,73.093,17.303,74.949,17.361,77.104C17.471,81.194,18.48,84.256,21.62,86.362C24.829,88.521,28.064,88.216,32.096,86.649C34.221,85.824,36.007,84.939,41.486,82.095C45.993,79.756,49.986,78.494,53.021,78.494C56.631,78.494,59.558,75.567,59.558,71.957C59.558,68.347,56.631,65.42,53.021,65.42Z"/>
</g>
  <g id="Semibold-L" transform="matrix(1.0,0.0,0.0,1.0,1999.1033251953124,1475.3233447265625)">  <path stroke="none" fill-rule="nonzero" stroke-miterlimit="4" fill-opacity="1" stroke-linejoin="round" stroke-linecap="round" stroke-width="2px" stroke-dasharray="none" stroke-opacity="1" fill="#000000" d="M53.021,77.577C63.141,77.577,66.531,77.492,70.392,76.972C75.786,76.247,79.723,74.626,82.856,71.491C85.988,68.362,87.609,64.424,88.334,59.031C88.854,55.169,88.939,51.779,88.939,41.659C88.939,31.54,88.854,28.15,88.334,24.288C87.609,18.895,85.988,14.957,82.853,11.824C79.723,8.693,75.786,7.072,70.392,6.346C66.531,5.827,63.141,5.741,53.021,5.741L37.872,5.741C27.753,5.741,24.363,5.827,20.501,6.346C15.107,7.072,11.17,8.693,8.037,11.828C4.905,14.957,3.285,18.895,2.559,24.288C2.04,28.15,1.954,31.54,1.954,41.659C1.954,51.779,2.04,55.169,2.559,59.031C3.285,64.424,4.905,68.362,8.041,71.494C11.486,74.945,15.849,76.546,22.177,77.165C25.266,77.466,28.015,75.207,28.317,72.117C28.619,69.028,26.359,66.279,23.27,65.977C19.299,65.589,17.294,64.854,15.99,63.548C13.68,61.239,13.195,57.631,13.195,41.659C13.195,25.687,13.68,22.08,15.985,19.776C18.292,17.467,21.9,16.982,37.872,16.982L53.021,16.982C68.993,16.982,72.601,17.467,74.904,19.773C77.213,22.08,77.699,25.687,77.699,41.659C77.699,57.631,77.213,61.239,74.908,63.543C72.601,65.852,68.993,66.337,53.021,66.337C49.917,66.337,47.401,68.853,47.401,71.957C47.401,75.061,49.917,77.577,53.021,77.577Z"/>
  <path stroke-miterlimit="4" stroke="none" stroke-width="2px" fill-rule="nonzero" stroke-linecap="round" stroke-dasharray="none" stroke-opacity="1" stroke-linejoin="round" fill="#000000" fill-opacity="1" d="M53.021,66.337C47.698,66.337,41.97,68.148,35.886,71.305C30.902,73.891,29.224,74.723,27.693,75.318C27.042,75.57,26.635,75.683,26.519,75.694C26.983,75.65,27.682,75.788,28.398,76.27C29.045,76.704,29.438,77.269,29.587,77.723C29.594,77.744,29.585,77.7,29.57,77.592C29.543,77.391,29.522,77.119,29.513,76.777C29.474,75.314,29.594,73.598,30.055,68.552L30.214,66.781C30.493,63.689,28.213,60.957,25.121,60.679C22.03,60.4,19.298,62.68,19.019,65.772L18.86,67.537C18.35,73.131,18.22,74.976,18.277,77.079C18.379,80.9,19.304,83.705,22.13,85.6C25.016,87.542,27.989,87.262,31.764,85.795C33.844,84.987,35.622,84.106,41.063,81.282C45.69,78.881,49.814,77.577,53.021,77.577C56.125,77.577,58.641,75.061,58.641,71.957C58.641,68.853,56.125,66.337,53.021,66.337Z"/>
</g>
  <g id="Medium-L" transform="matrix(1.0,0.0,0.0,1.0,1702.3933251953124,1475.3233447265625)">  <path stroke-miterlimit="4" stroke-opacity="1" fill="#000000" stroke-width="2px" stroke-linecap="round" stroke-dasharray="none" stroke="none" stroke-linejoin="round" fill-rule="nonzero" fill-opacity="1" d="M53.021,76.661C63.092,76.661,66.466,76.576,70.27,76.064C75.481,75.363,79.236,73.818,82.208,70.843C85.18,67.874,86.725,64.119,87.426,58.909C87.937,55.105,88.023,51.73,88.023,41.659C88.023,31.589,87.937,28.214,87.426,24.41C86.725,19.2,85.18,15.445,82.205,12.473C79.236,9.501,75.481,7.956,70.27,7.255C66.466,6.743,63.092,6.658,53.021,6.658L37.872,6.658C27.802,6.658,24.427,6.743,20.623,7.255C15.412,7.956,11.658,9.501,8.686,12.476C5.714,15.445,4.168,19.2,3.468,24.41C2.956,28.214,2.871,31.589,2.871,41.659C2.871,51.73,2.956,55.105,3.468,58.909C4.168,64.119,5.714,67.874,8.688,70.846C11.96,74.122,16.13,75.653,22.266,76.252C24.851,76.505,27.152,74.614,27.405,72.028C27.657,69.443,25.766,67.142,23.181,66.889C19.018,66.483,16.821,65.677,15.342,64.195C12.775,61.63,12.278,57.938,12.278,41.659C12.278,25.381,12.775,21.688,15.338,19.128C17.901,16.562,21.594,16.065,37.872,16.065L53.021,16.065C69.3,16.065,72.992,16.562,75.553,19.125C78.119,21.688,78.615,25.381,78.615,41.659C78.615,57.938,78.119,61.63,75.556,64.191C72.992,66.757,69.3,67.254,53.021,67.254C50.423,67.254,48.317,69.359,48.317,71.957C48.317,74.555,50.423,76.661,53.021,76.661Z"/>
  <path stroke-linejoin="round" stroke-width="2px" fill="#000000" stroke-linecap="round" fill-opacity="1" stroke-miterlimit="4" fill-rule="nonzero" stroke-opacity="1" stroke="none" stroke-dasharray="none" d="M53.021,67.254C47.87,67.254,42.273,69.023,36.308,72.119C31.287,74.724,29.6,75.56,28.025,76.172C27.302,76.453,26.819,76.586,26.605,76.606C26.665,76.601,26.786,76.605,26.964,76.64C27.268,76.7,27.589,76.83,27.886,77.03C28.352,77.343,28.628,77.739,28.717,78.01C28.705,77.975,28.684,77.876,28.662,77.716C28.63,77.479,28.607,77.175,28.597,76.802C28.556,75.287,28.678,73.56,29.142,68.469L29.302,66.699C29.535,64.111,27.626,61.825,25.039,61.592C22.452,61.358,20.165,63.267,19.932,65.854L19.773,67.619C19.267,73.169,19.138,75.004,19.193,77.055C19.288,80.607,20.129,83.154,22.641,84.839C25.203,86.563,27.914,86.308,31.432,84.94C33.467,84.15,35.237,83.273,40.641,80.469C45.387,78.006,49.641,76.661,53.021,76.661C55.619,76.661,57.725,74.555,57.725,71.957C57.725,69.359,55.619,67.254,53.021,67.254Z"/>
</g>
  <g id="Regular-L" transform="matrix(1.0,0.0,0.0,1.0,1405.6833251953124,1475.3233447265625)">  <path fill-rule="nonzero" stroke-dasharray="none" stroke="none" stroke-opacity="1" stroke-miterlimit="4" stroke-width="2px" stroke-linejoin="round" stroke-linecap="round" fill="#000000" fill-opacity="1" d="M53.021,75.744C63.043,75.744,66.402,75.66,70.148,75.156C75.176,74.48,78.748,73.009,81.559,70.195C84.371,67.386,85.841,63.814,86.518,58.786C87.021,55.04,87.106,51.681,87.106,41.659C87.106,31.638,87.021,28.278,86.518,24.533C85.841,19.505,84.371,15.933,81.557,13.121C78.748,10.31,75.176,8.839,70.148,8.163C66.402,7.659,63.043,7.574,53.021,7.574L37.872,7.574C27.851,7.574,24.491,7.659,20.745,8.163C15.717,8.839,12.146,10.31,9.334,13.123C6.522,15.933,5.052,19.505,4.376,24.533C3.872,28.278,3.787,31.638,3.787,41.659C3.787,51.681,3.872,55.04,4.376,58.786C5.052,63.814,6.522,67.386,9.336,70.198C12.433,73.3,16.412,74.76,22.355,75.34C24.437,75.544,26.289,74.021,26.493,71.939C26.696,69.857,25.173,68.005,23.092,67.802C18.737,67.376,16.347,66.499,14.693,64.843C11.87,62.022,11.362,58.245,11.362,41.659C11.362,25.074,11.87,21.297,14.69,18.479C17.51,15.657,21.287,15.149,37.872,15.149L53.021,15.149C69.607,15.149,73.383,15.657,76.201,18.477C79.024,21.297,79.532,25.074,79.532,41.659C79.532,58.245,79.024,62.022,76.203,64.839C73.383,67.662,69.607,68.17,53.021,68.17C50.929,68.17,49.234,69.866,49.234,71.957C49.234,74.049,50.929,75.744,53.021,75.744Z"/>
  <path fill-opacity="1" fill="#000000" stroke-width="2px" stroke-dasharray="none" stroke-opacity="1" stroke-miterlimit="4" stroke-linejoin="round" stroke-linecap="round" fill-rule="nonzero" stroke="none" d="M53.021,68.17C48.043,68.17,42.576,69.898,36.73,72.932C31.672,75.557,29.977,76.396,28.357,77.026C27.562,77.335,27.003,77.489,26.692,77.519C26.668,77.521,26.701,77.522,26.787,77.539C26.973,77.576,27.181,77.66,27.375,77.791C27.66,77.982,27.817,78.208,27.846,78.297C27.767,78.057,27.701,77.568,27.681,76.827C27.639,75.259,27.761,73.521,28.229,68.385L28.389,66.616C28.577,64.533,27.04,62.692,24.957,62.504C22.874,62.317,21.033,63.853,20.845,65.936L20.686,67.701C20.183,73.207,20.055,75.031,20.109,77.03C20.197,80.313,20.953,82.604,23.151,84.078C25.39,85.585,27.839,85.354,31.101,84.086C33.09,83.313,34.852,82.44,40.219,79.655C45.083,77.131,49.469,75.744,53.021,75.744C55.113,75.744,56.808,74.049,56.808,71.957C56.808,69.866,55.113,68.17,53.021,68.17Z"/>
</g>
  <g id="Light-L" transform="matrix(1.0,0.0,0.0,1.0,1108.9733251953126,1475.3233447265625)">  <path fill="#000000" fill-rule="nonzero" fill-opacity="1" stroke-linecap="round" stroke-linejoin="round" stroke-opacity="1" stroke-miterlimit="4" stroke-dasharray="none" stroke="none" stroke-width="2px" d="M53.021,75.113C63.009,75.113,66.358,75.029,70.064,74.53C74.966,73.871,78.412,72.453,81.113,69.749C83.814,67.05,85.233,63.604,85.892,58.702C86.39,54.996,86.475,51.647,86.475,41.659C86.475,31.672,86.39,28.323,85.892,24.617C85.233,19.715,83.814,16.269,81.111,13.568C78.412,10.866,74.966,9.448,70.064,8.789C66.358,8.29,63.009,8.206,53.021,8.206L37.872,8.206C27.884,8.206,24.535,8.29,20.829,8.789C15.927,9.448,12.481,10.866,9.78,13.57C7.079,16.269,5.661,19.715,5.001,24.617C4.503,28.323,4.418,31.672,4.418,41.659C4.418,51.647,4.503,54.996,5.001,58.702C5.661,63.604,7.079,67.05,9.782,69.751C12.759,72.733,16.605,74.144,22.416,74.712C24.151,74.881,25.695,73.613,25.864,71.878C26.034,70.143,24.765,68.599,23.03,68.43C18.543,67.991,16.021,67.066,14.246,65.289C11.246,62.291,10.73,58.456,10.73,41.659C10.73,24.863,11.246,21.028,14.244,18.033C17.241,15.033,21.076,14.518,37.872,14.518L53.021,14.518C69.818,14.518,73.653,15.033,76.648,18.031C79.647,21.028,80.163,24.863,80.163,41.659C80.163,58.456,79.647,62.291,76.65,65.286C73.653,68.285,69.818,68.801,53.021,68.801C51.278,68.801,49.865,70.214,49.865,71.957C49.865,73.7,51.278,75.113,53.021,75.113Z"/>
  <path stroke-opacity="1" fill-opacity="1" stroke-dasharray="none" stroke-miterlimit="4" stroke-linejoin="round" stroke-width="2px" stroke="none" stroke-linecap="round" fill="#000000" fill-rule="nonzero" d="M53.021,68.801C48.162,68.801,42.785,70.501,37.021,73.492C31.937,76.131,30.237,76.973,28.586,77.614C27.741,77.943,27.129,78.111,26.751,78.147C26.669,78.155,26.642,78.154,26.665,78.158C26.77,78.179,26.899,78.232,27.022,78.314C27.118,78.378,27.201,78.461,27.254,78.538C27.271,78.562,27.266,78.551,27.247,78.494C27.146,78.188,27.071,77.641,27.05,76.844C27.007,75.24,27.129,73.495,27.601,68.328L27.76,66.56C27.917,64.824,26.636,63.29,24.9,63.133C23.164,62.977,21.63,64.257,21.474,65.993L21.315,67.758C20.815,73.233,20.687,75.05,20.74,77.013C20.823,80.111,21.52,82.224,23.503,83.554C25.519,84.911,27.787,84.697,30.872,83.498C32.831,82.737,34.587,81.867,39.928,79.095C44.875,76.528,49.35,75.113,53.021,75.113C54.764,75.113,56.177,73.7,56.177,71.957C56.177,70.214,54.764,68.801,53.021,68.801Z"/>
</g>
  <g id="Thin-L" transform="matrix(1.0,0.0,0.0,1.0,812.2633251953125,1475.3233447265625)">  <path stroke-width="2px" stroke-linecap="round" fill="#000000" fill-opacity="1" fill-rule="nonzero" stroke-miterlimit="4" stroke-opacity="1" stroke-dasharray="none" stroke-linejoin="round" stroke="none" d="M53.021,74.482C62.975,74.482,66.314,74.398,69.98,73.905C74.756,73.262,78.076,71.896,80.666,69.303C83.257,66.714,84.624,63.394,85.266,58.618C85.759,54.952,85.844,51.613,85.844,41.659C85.844,31.705,85.759,28.367,85.266,24.701C84.624,19.925,83.257,16.605,80.665,14.014C78.076,11.423,74.756,10.057,69.98,9.414C66.314,8.921,62.975,8.837,53.021,8.837L37.872,8.837C27.918,8.837,24.58,8.921,20.914,9.414C16.137,10.057,12.817,11.423,10.227,14.016C7.636,16.605,6.269,19.925,5.627,24.701C5.134,28.367,5.05,31.705,5.05,41.659C5.05,51.613,5.134,54.952,5.627,58.618C6.269,63.394,7.636,66.714,10.229,69.305C13.086,72.166,16.799,73.529,22.478,74.084C23.866,74.219,25.101,73.204,25.236,71.816C25.372,70.429,24.357,69.194,22.969,69.058C18.349,68.607,15.695,67.633,13.8,65.735C10.623,62.56,10.099,58.667,10.099,41.659C10.099,24.652,10.623,20.758,13.798,17.586C16.971,14.41,20.864,13.886,37.872,13.886L53.021,13.886C70.029,13.886,73.922,14.41,77.094,17.585C80.27,20.758,80.794,24.652,80.794,41.659C80.794,58.667,80.27,62.56,77.096,65.733C73.922,68.909,70.029,69.432,53.021,69.432C51.627,69.432,50.496,70.563,50.496,71.957C50.496,73.352,51.627,74.482,53.021,74.482Z"/>
  <path fill="#000000" stroke-dasharray="none" fill-rule="nonzero" stroke-opacity="1" stroke-linejoin="round" stroke-linecap="round" stroke-miterlimit="4" stroke="none" fill-opacity="1" stroke-width="2px" d="M53.021,69.432C48.28,69.432,42.994,71.104,37.311,74.053C32.202,76.704,30.496,77.549,28.814,78.203C27.92,78.55,27.256,78.733,26.81,78.776C26.671,78.789,26.583,78.786,26.542,78.778C26.568,78.783,26.618,78.803,26.67,78.838C26.706,78.862,26.701,78.855,26.647,78.692C26.524,78.318,26.442,77.714,26.419,76.861C26.375,75.221,26.498,73.469,26.972,68.271L27.132,66.503C27.257,65.114,26.232,63.887,24.844,63.762C23.455,63.637,22.227,64.661,22.102,66.05L21.943,67.815C21.446,73.259,21.319,75.069,21.371,76.996C21.449,79.909,22.088,81.845,23.854,83.03C25.648,84.237,27.735,84.04,30.643,82.91C32.572,82.16,34.322,81.293,39.637,78.535C44.666,75.925,49.231,74.482,53.021,74.482C54.416,74.482,55.546,73.352,55.546,71.957C55.546,70.563,54.416,69.432,53.021,69.432Z"/>
</g>
  <g id="Ultralight-L" transform="matrix(1.0,0.0,0.0,1.0,515.5533251953125,1475.3233447265625)">  <path stroke="none" fill="#000000" fill-opacity="1" stroke-miterlimit="4" fill-rule="nonzero" stroke-width="2px" stroke-dasharray="none" stroke-opacity="1" stroke-linecap="round" stroke-linejoin="round" d="M53.021,73.851C62.941,73.851,66.269,73.767,69.896,73.279C74.546,72.654,77.74,71.339,80.22,68.857C82.701,66.378,84.015,63.184,84.641,58.534C85.128,54.908,85.213,51.58,85.213,41.659C85.213,31.739,85.128,28.411,84.641,24.785C84.015,20.135,82.701,16.941,80.219,14.461C77.74,11.98,74.546,10.665,69.896,10.04C66.269,9.552,62.941,9.468,53.021,9.468L37.872,9.468C27.952,9.468,24.624,9.552,20.998,10.04C16.347,10.665,13.153,11.98,10.674,14.462C8.193,16.941,6.878,20.135,6.253,24.785C5.765,28.411,5.681,31.739,5.681,41.659C5.681,51.58,5.765,54.908,6.253,58.534C6.878,63.184,8.193,66.378,10.675,68.858C13.412,71.599,16.993,72.914,22.539,73.456C23.58,73.557,24.506,72.796,24.608,71.755C24.71,70.714,23.948,69.788,22.907,69.686C18.155,69.222,15.369,68.199,13.353,66.181C9.999,62.83,9.468,58.879,9.468,41.659C9.468,24.44,9.999,20.489,13.351,17.14C16.702,13.787,20.653,13.255,37.872,13.255L53.021,13.255C70.24,13.255,74.192,13.787,77.541,17.139C80.894,20.489,81.425,24.44,81.425,41.659C81.425,58.879,80.894,62.83,77.542,66.179C74.192,69.532,70.24,70.064,53.021,70.064C51.975,70.064,51.128,70.911,51.128,71.957C51.128,73.003,51.975,73.851,53.021,73.851Z"/>
  <path fill-rule="nonzero" stroke-linecap="round" fill-opacity="1" stroke="none" stroke-width="2px" fill="#000000" stroke-opacity="1" stroke-linejoin="round" stroke-dasharray="none" stroke-miterlimit="4" d="M53.021,70.064C48.399,70.064,43.203,71.706,37.602,74.613C29.356,78.893,26.988,79.813,26.318,79.362C26.061,79.19,25.831,78.493,25.788,76.878C25.743,75.202,25.866,73.443,26.344,68.213L26.503,66.446C26.597,65.405,25.829,64.484,24.787,64.39C23.745,64.297,22.825,65.065,22.731,66.106L22.572,67.871C22.078,73.286,21.951,75.088,22.002,76.979C22.075,79.706,22.655,81.466,24.206,82.506C25.777,83.562,27.683,83.382,30.415,82.321C32.312,81.584,34.057,80.72,39.347,77.974C44.457,75.323,49.112,73.851,53.021,73.851C54.067,73.851,54.915,73.003,54.915,71.957C54.915,70.911,54.067,70.064,53.021,70.064Z"/>
</g>
  <g id="Black-M" transform="matrix(1.0,0.0,0.0,1.0,2899.45001953125,1055.5400390625)">  <path fill-opacity="1" stroke-linejoin="round" fill-rule="nonzero" stroke-dasharray="none" stroke-linecap="round" stroke="none" stroke-width="2px" fill="#000000" stroke-opacity="1" stroke-miterlimit="4" d="M41.102,62.269C49.06,62.269,51.723,62.202,54.852,61.781C59.458,61.161,62.935,59.73,65.737,56.926C68.538,54.128,69.969,50.651,70.588,46.044C71.009,42.916,71.076,40.253,71.076,32.294C71.076,24.335,71.009,21.672,70.588,18.544C69.969,13.938,68.538,10.46,65.733,7.658C62.935,4.858,59.458,3.427,54.852,2.807C51.723,2.387,49.06,2.319,41.102,2.319L29.358,2.319C21.4,2.319,18.737,2.387,15.608,2.807C11.002,3.427,7.524,4.858,4.723,7.662C1.922,10.46,0.491,13.938,-0.129,18.544C-0.549,21.672,-0.617,24.335,-0.617,32.294C-0.617,40.253,-0.549,42.916,-0.129,46.044C0.491,50.651,1.922,54.128,4.727,56.93C7.803,60.011,11.632,61.416,16.984,61.939C20.55,62.287,23.724,59.679,24.072,56.112C24.421,52.546,21.812,49.372,18.246,49.024C15.615,48.767,14.508,48.361,13.904,47.756C12.71,46.562,12.36,43.962,12.36,32.294C12.36,20.626,12.71,18.026,13.898,16.838C15.09,15.645,17.69,15.296,29.358,15.296L41.102,15.296C52.77,15.296,55.37,15.645,56.558,16.834C57.75,18.026,58.1,20.626,58.1,32.294C58.1,43.962,57.75,46.562,56.562,47.75C55.37,48.943,52.77,49.293,41.102,49.293C37.518,49.293,34.613,52.197,34.613,55.781C34.613,59.364,37.518,62.269,41.102,62.269Z"/>
  <path stroke-linejoin="round" fill-rule="nonzero" stroke-linecap="round" stroke-miterlimit="4" fill-opacity="1" stroke-width="2px" stroke="none" stroke-opacity="1" stroke-dasharray="none" fill="#000000" d="M41.102,49.293C36.574,49.293,31.829,50.793,26.837,53.383C23.06,55.343,21.778,55.978,20.695,56.399C20.469,56.487,20.297,56.545,20.185,56.576C20.18,56.577,20.234,56.567,20.357,56.555C21.174,56.478,22.202,56.681,23.204,57.355C24.126,57.974,24.704,58.807,24.96,59.583C25.009,59.732,25.029,59.823,25.034,59.861C25.024,59.787,25.014,59.652,25.009,59.46C24.982,58.447,25.074,57.141,25.421,53.335L25.545,51.959C25.867,48.391,23.234,45.237,19.665,44.915C16.096,44.593,12.943,47.226,12.621,50.795L12.498,52.163C12.092,56.602,11.99,58.057,12.037,59.809C12.134,63.396,13.048,66.169,15.968,68.127C17.679,69.278,19.611,69.66,21.577,69.474C22.825,69.357,24.038,69.022,25.396,68.494C27.112,67.827,28.509,67.136,32.814,64.901C36.124,63.183,39.016,62.269,41.102,62.269C44.685,62.269,47.59,59.364,47.59,55.781C47.59,52.197,44.685,49.293,41.102,49.293Z"/>
</g>
  <g id="Heavy-M" transform="matrix(1.0,0.0,0.0,1.0,2602.74001953125,1055.5400390625)">  <path stroke-linecap="round" stroke-opacity="1" fill-opacity="1" stroke="none" stroke-miterlimit="4" stroke-width="2px" stroke-linejoin="round" fill="#000000" fill-rule="nonzero" stroke-dasharray="none" d="M41.102,61.559C49.022,61.559,51.674,61.492,54.757,61.077C59.222,60.476,62.557,59.103,65.235,56.424C67.911,53.75,69.284,50.414,69.884,45.95C70.299,42.866,70.366,40.215,70.366,32.294C70.366,24.373,70.299,21.722,69.884,18.639C69.284,14.174,67.911,10.838,65.231,8.161C62.557,5.485,59.222,4.112,54.757,3.511C51.674,3.097,49.022,3.03,41.102,3.03L29.358,3.03C21.438,3.03,18.786,3.097,15.703,3.511C11.238,4.112,7.903,5.485,5.225,8.165C2.549,10.838,1.176,14.174,0.576,18.639C0.161,21.722,0.094,24.373,0.094,32.294C0.094,40.215,0.161,42.866,0.576,45.95C1.176,50.414,2.549,53.75,5.229,56.427C8.17,59.373,11.85,60.723,17.053,61.232C20.229,61.542,23.055,59.219,23.365,56.043C23.676,52.867,21.353,50.041,18.177,49.731C15.397,49.459,14.141,48.998,13.401,48.258C12.008,46.866,11.649,44.2,11.649,32.294C11.649,20.388,12.008,17.723,13.396,16.335C14.787,14.944,17.453,14.585,29.358,14.585L41.102,14.585C53.007,14.585,55.673,14.944,57.06,16.332C58.452,17.723,58.811,20.388,58.811,32.294C58.811,44.2,58.452,46.866,57.064,48.253C55.673,49.645,53.007,50.003,41.102,50.003C37.911,50.003,35.324,52.59,35.324,55.781C35.324,58.972,37.911,61.559,41.102,61.559Z"/>
  <path stroke-linecap="round" stroke-dasharray="none" fill-rule="nonzero" stroke="none" fill="#000000" stroke-miterlimit="4" stroke-opacity="1" stroke-linejoin="round" fill-opacity="1" stroke-width="2px" d="M41.102,50.003C36.708,50.003,32.064,51.471,27.164,54.014C23.359,55.989,22.07,56.627,20.953,57.061C20.705,57.157,20.511,57.223,20.374,57.261C20.332,57.273,20.345,57.27,20.424,57.263C21.088,57.2,21.954,57.371,22.807,57.945C23.589,58.469,24.076,59.171,24.285,59.805C24.32,59.91,24.331,59.959,24.33,59.957C24.317,59.856,24.305,59.695,24.299,59.479C24.271,58.426,24.363,57.111,24.713,53.27L24.837,51.896C25.124,48.718,22.78,45.909,19.602,45.623C16.423,45.336,13.615,47.68,13.329,50.858L13.205,52.227C12.803,56.632,12.702,58.078,12.748,59.79C12.838,63.169,13.687,65.742,16.364,67.537C17.927,68.589,19.697,68.938,21.51,68.767C22.682,68.656,23.836,68.338,25.138,67.832C26.82,67.179,28.211,66.49,32.487,64.27C35.889,62.505,38.883,61.559,41.102,61.559C44.293,61.559,46.879,58.972,46.879,55.781C46.879,52.59,44.293,50.003,41.102,50.003Z"/>
</g>
  <g id="Bold-M" transform="matrix(1.0,0.0,0.0,1.0,2306.0300195312498,1055.5400390625)">  <path stroke-dasharray="none" stroke-miterlimit="4" stroke="none" stroke-opacity="1" stroke-width="2px" fill="#000000" fill-rule="nonzero" stroke-linecap="round" fill-opacity="1" stroke-linejoin="round" d="M41.102,60.848C48.984,60.848,51.624,60.781,54.662,60.373C58.985,59.791,62.179,58.477,64.732,55.922C67.284,53.372,68.599,50.178,69.18,45.855C69.589,42.816,69.656,40.177,69.656,32.294C69.656,24.411,69.589,21.772,69.18,18.733C68.599,14.411,67.284,11.217,64.729,8.664C62.179,6.112,58.985,4.797,54.662,4.216C51.624,3.807,48.984,3.74,41.102,3.74L29.358,3.74C21.476,3.74,18.836,3.807,15.798,4.216C11.475,4.797,8.281,6.112,5.728,8.667C3.176,11.217,1.861,14.411,1.28,18.733C0.871,21.772,0.804,24.411,0.804,32.294C0.804,40.177,0.871,42.816,1.28,45.855C1.861,50.178,3.176,53.372,5.731,55.925C8.537,58.735,12.068,60.031,17.122,60.525C19.908,60.797,22.386,58.759,22.658,55.974C22.93,53.189,20.893,50.71,18.108,50.438C15.179,50.152,13.774,49.636,12.898,48.76C11.306,47.169,10.939,44.438,10.939,32.294C10.939,20.151,11.306,17.419,12.894,15.833C14.483,14.242,17.215,13.875,29.358,13.875L41.102,13.875C53.245,13.875,55.976,14.242,57.563,15.83C59.154,17.419,59.521,20.151,59.521,32.294C59.521,44.438,59.154,47.169,57.566,48.755C55.976,50.346,53.245,50.714,41.102,50.714C38.303,50.714,36.034,52.982,36.034,55.781C36.034,58.579,38.303,60.848,41.102,60.848Z"/>
  <path stroke-dasharray="none" stroke-width="2px" fill-opacity="1" stroke-opacity="1" fill-rule="nonzero" stroke-miterlimit="4" stroke-linecap="round" stroke-linejoin="round" stroke="none" fill="#000000" d="M41.102,50.714C36.841,50.714,32.3,52.149,27.491,54.645C23.657,56.635,22.362,57.276,21.21,57.723C20.942,57.828,20.725,57.901,20.563,57.946C20.483,57.968,20.456,57.973,20.491,57.97C20.667,57.953,20.897,57.961,21.178,58.017C21.595,58.099,22.02,58.272,22.411,58.534C23.052,58.965,23.448,59.535,23.611,60.028C23.631,60.089,23.632,60.096,23.626,60.053C23.609,59.924,23.595,59.739,23.589,59.498C23.559,58.405,23.652,57.082,24.006,53.206L24.13,51.832C24.381,49.045,22.325,46.581,19.538,46.33C16.751,46.079,14.287,48.135,14.036,50.922L13.913,52.29C13.514,56.661,13.413,58.1,13.458,59.771C13.543,62.941,14.326,65.315,16.759,66.947C19.248,68.621,21.755,68.384,24.881,67.17C26.528,66.53,27.912,65.844,32.159,63.64C35.654,61.827,38.749,60.848,41.102,60.848C43.9,60.848,46.169,58.579,46.169,55.781C46.169,52.982,43.9,50.714,41.102,50.714Z"/>
</g>
  <g id="Semibold-M" transform="matrix(1.0,0.0,0.0,1.0,2009.32001953125,1055.5400390625)">  <path stroke="none" fill-rule="nonzero" stroke-miterlimit="4" fill-opacity="1" stroke-linejoin="round" stroke-linecap="round" stroke-width="2px" stroke-dasharray="none" stroke-opacity="1" fill="#000000" d="M41.102,60.138C48.946,60.138,51.574,60.071,54.568,59.669C58.749,59.106,61.801,57.85,64.23,55.419C66.657,52.994,67.914,49.941,68.476,45.76C68.879,42.767,68.945,40.139,68.945,32.294C68.945,24.449,68.879,21.822,68.476,18.828C67.914,14.647,66.657,11.595,64.227,9.166C61.801,6.738,58.749,5.482,54.568,4.92C51.574,4.517,48.946,4.451,41.102,4.451L29.358,4.451C21.514,4.451,18.886,4.517,15.892,4.92C11.711,5.482,8.659,6.738,6.23,9.169C3.803,11.595,2.546,14.647,1.984,18.828C1.581,21.822,1.515,24.449,1.515,32.294C1.515,40.139,1.581,42.767,1.984,45.76C2.546,49.941,3.803,52.994,6.233,55.422C8.904,58.097,12.286,59.338,17.191,59.817C19.586,60.051,21.717,58.3,21.951,55.905C22.185,53.51,20.433,51.379,18.039,51.145C14.961,50.845,13.406,50.274,12.396,49.262C10.605,47.472,10.228,44.676,10.228,32.294C10.228,19.913,10.605,17.116,12.392,15.33C14.18,13.54,16.977,13.164,29.358,13.164L41.102,13.164C53.483,13.164,56.28,13.54,58.065,15.328C59.855,17.116,60.232,19.913,60.232,32.294C60.232,44.676,59.855,47.472,58.068,49.258C56.28,51.048,53.483,51.424,41.102,51.424C38.695,51.424,36.745,53.375,36.745,55.781C36.745,58.187,38.695,60.138,41.102,60.138Z"/>
  <path stroke-miterlimit="4" stroke="none" stroke-width="2px" fill-rule="nonzero" stroke-linecap="round" stroke-dasharray="none" stroke-opacity="1" stroke-linejoin="round" fill="#000000" fill-opacity="1" d="M41.102,51.424C36.975,51.424,32.535,52.828,27.818,55.275C23.955,57.28,22.654,57.925,21.467,58.386C20.963,58.582,20.647,58.669,20.558,58.677C20.917,58.643,21.459,58.75,22.014,59.124C22.515,59.46,22.82,59.899,22.936,60.25C22.941,60.267,22.934,60.232,22.922,60.149C22.901,59.993,22.886,59.782,22.878,59.517C22.848,58.383,22.941,57.052,23.298,53.141L23.422,51.768C23.638,49.372,21.87,47.254,19.474,47.038C17.078,46.822,14.96,48.59,14.744,50.986L14.62,52.354C14.225,56.691,14.124,58.121,14.168,59.751C14.248,62.713,14.965,64.888,17.155,66.357C19.393,67.862,21.697,67.645,24.624,66.508C26.236,65.881,27.614,65.199,31.832,63.009C35.419,61.148,38.615,60.138,41.102,60.138C43.508,60.138,45.458,58.187,45.458,55.781C45.458,53.375,43.508,51.424,41.102,51.424Z"/>
</g>
  <g id="Medium-M" transform="matrix(1.0,0.0,0.0,1.0,1712.61001953125,1055.5400390625)">  <path stroke-miterlimit="4" stroke-opacity="1" fill="#000000" stroke-width="2px" stroke-linecap="round" stroke-dasharray="none" stroke="none" stroke-linejoin="round" fill-rule="nonzero" fill-opacity="1" d="M41.102,59.427C48.908,59.427,51.524,59.361,54.473,58.964C58.512,58.421,61.423,57.223,63.727,54.917C66.031,52.615,67.229,49.705,67.772,45.666C68.169,42.717,68.235,40.101,68.235,32.294C68.235,24.487,68.169,21.872,67.772,18.923C67.229,14.883,66.031,11.973,63.725,9.669C61.423,7.365,58.512,6.167,54.473,5.624C51.524,5.227,48.908,5.161,41.102,5.161L29.358,5.161C21.552,5.161,18.936,5.227,15.987,5.624C11.948,6.167,9.037,7.365,6.733,9.671C4.429,11.973,3.231,14.883,2.688,18.923C2.291,21.872,2.225,24.487,2.225,32.294C2.225,40.101,2.291,42.717,2.688,45.666C3.231,49.705,4.429,52.615,6.735,54.919C9.271,57.459,12.504,58.646,17.26,59.11C19.265,59.306,21.048,57.84,21.244,55.836C21.44,53.832,19.974,52.048,17.97,51.852C14.742,51.537,13.039,50.912,11.893,49.764C9.903,47.776,9.518,44.913,9.518,32.294C9.518,19.675,9.903,16.813,11.89,14.828C13.877,12.839,16.739,12.454,29.358,12.454L41.102,12.454C53.721,12.454,56.583,12.839,58.568,14.826C60.557,16.813,60.942,19.675,60.942,32.294C60.942,44.913,60.557,47.776,58.57,49.761C56.583,51.75,53.721,52.134,41.102,52.134C39.088,52.134,37.455,53.767,37.455,55.781C37.455,57.795,39.088,59.427,41.102,59.427Z"/>
  <path stroke-linejoin="round" stroke-width="2px" fill="#000000" stroke-linecap="round" fill-opacity="1" stroke-miterlimit="4" fill-rule="nonzero" stroke-opacity="1" stroke="none" stroke-dasharray="none" d="M41.102,52.134C37.109,52.134,32.77,53.506,28.146,55.906C24.254,57.926,22.946,58.573,21.725,59.048C21.164,59.266,20.79,59.369,20.624,59.385C20.671,59.38,20.764,59.384,20.903,59.411C21.138,59.457,21.387,59.558,21.617,59.713C21.979,59.956,22.192,60.263,22.261,60.473C22.252,60.445,22.235,60.369,22.218,60.245C22.193,60.061,22.176,59.825,22.168,59.537C22.137,58.362,22.231,57.023,22.591,53.077L22.714,51.704C22.895,49.699,21.416,47.926,19.41,47.745C17.405,47.565,15.632,49.044,15.451,51.05L15.328,52.418C14.935,56.72,14.836,58.142,14.878,59.732C14.952,62.486,15.603,64.461,17.551,65.767C19.538,67.103,21.639,66.905,24.366,65.845C25.944,65.232,27.316,64.553,31.505,62.379C35.184,60.47,38.481,59.427,41.102,59.427C43.115,59.427,44.748,57.795,44.748,55.781C44.748,53.767,43.115,52.134,41.102,52.134Z"/>
</g>
  <g id="Regular-M" transform="matrix(1.0,0.0,0.0,1.0,1415.9000195312499,1055.5400390625)">  <path fill-rule="nonzero" stroke-dasharray="none" stroke="none" stroke-opacity="1" stroke-miterlimit="4" stroke-width="2px" stroke-linejoin="round" stroke-linecap="round" fill="#000000" fill-opacity="1" d="M41.102,58.717C48.87,58.717,51.474,58.651,54.378,58.26C58.276,57.736,61.045,56.596,63.224,54.415C65.404,52.237,66.544,49.469,67.068,45.571C67.458,42.667,67.524,40.063,67.524,32.294C67.524,24.525,67.458,21.921,67.068,19.017C66.544,15.12,65.404,12.351,63.223,10.171C61.045,7.992,58.276,6.852,54.378,6.328C51.474,5.937,48.87,5.872,41.102,5.872L29.358,5.872C21.59,5.872,18.985,5.937,16.082,6.328C12.184,6.852,9.415,7.992,7.236,10.173C5.056,12.351,3.916,15.12,3.392,19.017C3.002,21.921,2.936,24.525,2.936,32.294C2.936,40.063,3.002,42.667,3.392,45.571C3.916,49.469,5.056,52.237,7.237,54.417C9.638,56.821,12.722,57.953,17.33,58.403C18.943,58.561,20.379,57.381,20.537,55.767C20.695,54.153,19.514,52.717,17.9,52.559C14.524,52.23,12.672,51.55,11.39,50.266C9.201,48.079,8.807,45.151,8.807,32.294C8.807,19.437,9.201,16.51,11.388,14.325C13.574,12.137,16.501,11.743,29.358,11.743L41.102,11.743C53.959,11.743,56.886,12.137,59.071,14.323C61.259,16.51,61.652,19.437,61.652,32.294C61.652,45.151,61.259,48.079,59.072,50.263C56.886,52.451,53.959,52.845,41.102,52.845C39.48,52.845,38.166,54.159,38.166,55.781C38.166,57.402,39.48,58.717,41.102,58.717Z"/>
  <path fill-opacity="1" fill="#000000" stroke-width="2px" stroke-dasharray="none" stroke-opacity="1" stroke-miterlimit="4" stroke-linejoin="round" stroke-linecap="round" fill-rule="nonzero" stroke="none" d="M41.102,52.845C37.242,52.845,33.005,54.185,28.473,56.536C24.552,58.571,23.238,59.222,21.982,59.71C21.366,59.95,20.932,60.069,20.691,60.092C20.673,60.094,20.698,60.095,20.765,60.108C20.91,60.136,21.07,60.202,21.221,60.303C21.442,60.451,21.564,60.627,21.586,60.695C21.525,60.51,21.473,60.13,21.458,59.556C21.425,58.34,21.52,56.993,21.883,53.012L22.007,51.641C22.152,50.026,20.961,48.599,19.346,48.453C17.732,48.308,16.304,49.499,16.159,51.114L16.036,52.482C15.646,56.75,15.547,58.164,15.588,59.713C15.657,62.258,16.242,64.034,17.947,65.177C19.683,66.345,21.58,66.166,24.109,65.183C25.652,64.584,27.017,63.907,31.178,61.748C34.948,59.791,38.348,58.717,41.102,58.717C42.723,58.717,44.037,57.402,44.037,55.781C44.037,54.159,42.723,52.845,41.102,52.845Z"/>
</g>
  <g id="Light-M" transform="matrix(1.0,0.0,0.0,1.0,1119.19001953125,1055.5400390625)">  <path fill="#000000" fill-rule="nonzero" fill-opacity="1" stroke-linecap="round" stroke-linejoin="round" stroke-opacity="1" stroke-miterlimit="4" stroke-dasharray="none" stroke="none" stroke-width="2px" d="M41.102,58.227C48.844,58.227,51.44,58.162,54.313,57.775C58.113,57.264,60.784,56.165,62.878,54.069C64.972,51.977,66.072,49.306,66.583,45.506C66.969,42.633,67.035,40.037,67.035,32.294C67.035,24.552,66.969,21.956,66.583,19.083C66.072,15.283,64.972,12.611,62.877,10.518C60.784,8.423,58.113,7.324,54.313,6.813C51.44,6.427,48.844,6.361,41.102,6.361L29.358,6.361C21.616,6.361,19.02,6.427,16.147,6.813C12.347,7.324,9.676,8.424,7.582,10.519C5.488,12.611,4.388,15.283,3.877,19.083C3.491,21.956,3.425,24.552,3.425,32.294C3.425,40.037,3.491,42.633,3.877,45.506C4.388,49.306,5.488,51.977,7.583,54.071C9.891,56.382,12.872,57.476,17.377,57.916C18.722,58.048,19.919,57.064,20.05,55.719C20.181,54.374,19.198,53.178,17.853,53.046C14.374,52.707,12.419,51.989,11.044,50.611C8.718,48.288,8.318,45.315,8.318,32.294C8.318,19.273,8.718,16.301,11.042,13.979C13.365,11.654,16.338,11.254,29.358,11.254L41.102,11.254C54.122,11.254,57.095,11.654,59.417,13.978C61.742,16.301,62.142,19.273,62.142,32.294C62.142,45.315,61.742,48.288,59.418,50.609C57.095,52.934,54.122,53.334,41.102,53.334C39.75,53.334,38.655,54.43,38.655,55.781C38.655,57.132,39.75,58.227,41.102,58.227Z"/>
  <path stroke-opacity="1" fill-opacity="1" stroke-dasharray="none" stroke-miterlimit="4" stroke-linejoin="round" stroke-width="2px" stroke="none" stroke-linecap="round" fill="#000000" fill-rule="nonzero" d="M41.102,53.334C37.335,53.334,33.167,54.652,28.698,56.971C24.757,59.016,23.439,59.669,22.159,60.166C21.505,60.421,21.031,60.551,20.737,60.579C20.674,60.585,20.653,60.584,20.67,60.588C20.752,60.604,20.852,60.645,20.948,60.709C21.021,60.758,21.086,60.822,21.127,60.882C21.14,60.901,21.136,60.892,21.122,60.848C21.043,60.611,20.986,60.187,20.969,59.569C20.936,58.326,21.03,56.973,21.396,52.968L21.52,51.597C21.641,50.251,20.648,49.062,19.303,48.94C17.957,48.819,16.768,49.812,16.646,51.157L16.523,52.526C16.136,56.77,16.037,58.178,16.078,59.7C16.142,62.101,16.682,63.74,18.219,64.771C19.782,65.822,21.54,65.656,23.932,64.727C25.45,64.137,26.812,63.463,30.952,61.314C34.786,59.324,38.256,58.227,41.102,58.227C42.453,58.227,43.548,57.132,43.548,55.781C43.548,54.43,42.453,53.334,41.102,53.334Z"/>
</g>
  <g id="Thin-M" transform="matrix(1.0,0.0,0.0,1.0,822.48001953125,1055.5400390625)">  <path stroke-width="2px" stroke-linecap="round" fill="#000000" fill-opacity="1" fill-rule="nonzero" stroke-miterlimit="4" stroke-opacity="1" stroke-dasharray="none" stroke-linejoin="round" stroke="none" d="M41.102,57.738C48.818,57.738,51.406,57.673,54.248,57.29C57.95,56.792,60.524,55.733,62.532,53.723C64.541,51.716,65.6,49.143,66.098,45.44C66.48,42.598,66.546,40.01,66.546,32.294C66.546,24.578,66.48,21.99,66.098,19.148C65.6,15.445,64.541,12.872,62.531,10.864C60.524,8.855,57.95,7.796,54.248,7.298C51.406,6.916,48.818,6.85,41.102,6.85L29.358,6.85C21.642,6.85,19.054,6.916,16.212,7.298C12.51,7.796,9.936,8.855,7.928,10.865C5.919,12.872,4.86,15.445,4.362,19.148C3.98,21.99,3.914,24.578,3.914,32.294C3.914,40.01,3.98,42.598,4.362,45.44C4.86,49.143,5.919,51.716,7.929,53.725C10.144,55.943,13.023,56.999,17.425,57.429C18.501,57.534,19.458,56.747,19.563,55.672C19.668,54.596,18.881,53.638,17.805,53.533C14.224,53.184,12.167,52.428,10.697,50.957C8.235,48.497,7.829,45.479,7.829,32.294C7.829,19.11,8.235,16.092,10.696,13.633C13.156,11.171,16.174,10.765,29.358,10.765L41.102,10.765C54.286,10.765,57.304,11.171,59.763,13.632C62.225,16.092,62.631,19.11,62.631,32.294C62.631,45.479,62.225,48.497,59.764,50.955C57.304,53.418,54.286,53.824,41.102,53.824C40.021,53.824,39.144,54.7,39.144,55.781C39.144,56.862,40.021,57.738,41.102,57.738Z"/>
  <path fill="#000000" stroke-dasharray="none" fill-rule="nonzero" stroke-opacity="1" stroke-linejoin="round" stroke-linecap="round" stroke-miterlimit="4" stroke="none" fill-opacity="1" stroke-width="2px" d="M41.102,53.824C37.427,53.824,33.329,55.119,28.924,57.405C24.963,59.461,23.64,60.116,22.337,60.622C21.643,60.892,21.129,61.034,20.783,61.066C20.675,61.076,20.607,61.074,20.575,61.068C20.595,61.072,20.634,61.088,20.675,61.115C20.702,61.134,20.699,61.128,20.657,61.002C20.561,60.711,20.498,60.244,20.48,59.582C20.446,58.311,20.541,56.953,20.909,52.923L21.032,51.553C21.129,50.476,20.335,49.525,19.259,49.428C18.182,49.331,17.231,50.125,17.134,51.201L17.01,52.569C16.625,56.79,16.527,58.193,16.567,59.687C16.627,61.945,17.122,63.446,18.492,64.364C19.882,65.3,21.5,65.147,23.754,64.271C25.249,63.69,26.606,63.018,30.727,60.88C34.625,58.857,38.164,57.738,41.102,57.738C42.183,57.738,43.059,56.862,43.059,55.781C43.059,54.7,42.183,53.824,41.102,53.824Z"/>
</g>
  <g id="Ultralight-M" transform="matrix(1.0,0.0,0.0,1.0,525.77001953125,1055.5400390625)">  <path stroke="none" fill="#000000" fill-opacity="1" stroke-miterlimit="4" fill-rule="nonzero" stroke-width="2px" stroke-dasharray="none" stroke-opacity="1" stroke-linecap="round" stroke-linejoin="round" d="M41.102,57.249C48.792,57.249,51.372,57.184,54.183,56.806C57.788,56.321,60.264,55.302,62.186,53.378C64.109,51.456,65.128,48.98,65.613,45.375C65.991,42.564,66.056,39.984,66.056,32.294C66.056,24.604,65.991,22.024,65.613,19.213C65.128,15.608,64.109,13.132,62.185,11.21C60.264,9.287,57.788,8.268,54.183,7.783C51.372,7.405,48.792,7.34,41.102,7.34L29.358,7.34C21.668,7.34,19.088,7.405,16.277,7.783C12.672,8.268,10.196,9.287,8.274,11.211C6.351,13.132,5.332,15.608,4.847,19.213C4.469,22.024,4.404,24.604,4.404,32.294C4.404,39.984,4.469,42.564,4.847,45.375C5.332,48.98,6.351,51.456,8.275,53.378C10.397,55.503,13.173,56.522,17.472,56.942C18.279,57.021,18.997,56.431,19.076,55.624C19.155,54.817,18.565,54.099,17.758,54.02C14.074,53.661,11.914,52.868,10.351,51.303C7.752,48.705,7.34,45.642,7.34,32.294C7.34,18.946,7.752,15.883,10.35,13.287C12.947,10.687,16.01,10.275,29.358,10.275L41.102,10.275C54.45,10.275,57.513,10.687,60.109,13.286C62.708,15.883,63.12,18.946,63.12,32.294C63.12,45.642,62.708,48.705,60.11,51.302C57.513,53.901,54.45,54.313,41.102,54.313C40.291,54.313,39.634,54.97,39.634,55.781C39.634,56.592,40.291,57.249,41.102,57.249Z"/>
  <path fill-rule="nonzero" stroke-linecap="round" fill-opacity="1" stroke="none" stroke-width="2px" fill="#000000" stroke-opacity="1" stroke-linejoin="round" stroke-dasharray="none" stroke-miterlimit="4" d="M41.102,54.313C37.519,54.313,33.491,55.586,29.149,57.839C22.756,61.157,20.921,61.87,20.401,61.521C20.202,61.387,20.024,60.847,19.991,59.595C19.956,58.296,20.051,56.932,20.421,52.879L20.545,51.509C20.618,50.701,20.022,49.988,19.215,49.915C18.407,49.842,17.694,50.438,17.621,51.245L17.498,52.613C17.115,56.811,17.016,58.208,17.056,59.674C17.113,61.788,17.562,63.152,18.764,63.958C19.982,64.777,21.46,64.638,23.577,63.815C25.048,63.243,26.401,62.573,30.501,60.445C34.463,58.39,38.071,57.249,41.102,57.249C41.912,57.249,42.57,56.592,42.57,55.781C42.57,54.97,41.912,54.313,41.102,54.313Z"/>
</g>
  <g id="Black-S" transform="matrix(1.0,0.0,0.0,1.0,2907.0949252929686,633.1849448242187)">  <path fill-opacity="1" stroke-linejoin="round" fill-rule="nonzero" stroke-dasharray="none" stroke-linecap="round" stroke="none" stroke-width="2px" fill="#000000" stroke-opacity="1" stroke-miterlimit="4" d="M32.183,48.757C38.414,48.757,40.499,48.704,42.949,48.375C46.556,47.889,49.278,46.769,51.472,44.573C53.665,42.382,54.786,39.659,55.271,36.053C55.6,33.603,55.653,31.518,55.653,25.286C55.653,19.055,55.6,16.97,55.271,14.52C54.786,10.913,53.665,8.19,51.469,5.997C49.278,3.804,46.556,2.683,42.949,2.198C40.499,1.869,38.414,1.816,32.183,1.816L22.988,1.816C16.756,1.816,14.671,1.869,12.221,2.198C8.615,2.683,5.892,3.804,3.698,6C1.505,8.19,0.384,10.913,-0.101,14.52C-0.43,16.97,-0.483,19.055,-0.483,25.286C-0.483,31.518,-0.43,33.603,-0.101,36.053C0.384,39.659,1.505,42.382,3.701,44.576C6.109,46.988,9.108,48.089,13.299,48.498C16.091,48.771,18.576,46.728,18.849,43.936C19.122,41.143,17.079,38.659,14.286,38.386C12.226,38.184,11.36,37.866,10.887,37.393C9.952,36.458,9.678,34.422,9.678,25.286C9.678,16.15,9.952,14.114,10.882,13.184C11.815,12.25,13.852,11.977,22.988,11.977L32.183,11.977C41.319,11.977,43.355,12.25,44.285,13.181C45.219,14.114,45.492,16.15,45.492,25.286C45.492,34.422,45.219,36.458,44.288,37.388C43.355,38.322,41.319,38.596,32.183,38.596C29.377,38.596,27.102,40.871,27.102,43.676C27.102,46.482,29.377,48.757,32.183,48.757Z"/>
  <path stroke-linejoin="round" fill-rule="nonzero" stroke-linecap="round" stroke-miterlimit="4" fill-opacity="1" stroke-width="2px" stroke="none" stroke-opacity="1" stroke-dasharray="none" fill="#000000" d="M32.183,38.596C28.637,38.596,24.922,39.771,21.013,41.799C18.056,43.334,17.052,43.831,16.205,44.16C16.027,44.229,15.893,44.275,15.805,44.299C15.801,44.3,15.843,44.292,15.94,44.283C16.579,44.223,17.384,44.381,18.168,44.909C18.891,45.394,19.343,46.046,19.544,46.653C19.582,46.77,19.598,46.841,19.602,46.871C19.594,46.813,19.586,46.708,19.582,46.557C19.561,45.764,19.633,44.741,19.905,41.761L20.002,40.684C20.254,37.89,18.192,35.42,15.398,35.168C12.604,34.917,10.134,36.978,9.882,39.772L9.786,40.843C9.468,44.319,9.388,45.459,9.425,46.83C9.501,49.639,10.217,51.81,12.503,53.344C13.843,54.245,15.356,54.544,16.894,54.398C17.872,54.306,18.822,54.044,19.885,53.631C21.228,53.109,22.322,52.567,25.693,50.818C28.285,49.473,30.55,48.757,32.183,48.757C34.988,48.757,37.263,46.482,37.263,43.676C37.263,40.871,34.988,38.596,32.183,38.596Z"/>
</g>
  <g id="Heavy-S" transform="matrix(1.0,0.0,0.0,1.0,2610.3849252929685,633.1849448242187)">  <path stroke-linecap="round" stroke-opacity="1" fill-opacity="1" stroke="none" stroke-miterlimit="4" stroke-width="2px" stroke-linejoin="round" fill="#000000" fill-rule="nonzero" stroke-dasharray="none" d="M32.183,48.2C38.385,48.2,40.46,48.148,42.875,47.823C46.371,47.353,48.982,46.278,51.079,44.18C53.174,42.086,54.249,39.474,54.719,35.979C55.044,33.564,55.097,31.488,55.097,25.286C55.097,19.084,55.044,17.009,54.719,14.594C54.249,11.098,53.174,8.487,51.076,6.39C48.982,4.295,46.371,3.22,42.875,2.749C40.46,2.425,38.385,2.372,32.183,2.372L22.988,2.372C16.786,2.372,14.71,2.425,12.295,2.749C8.8,3.22,6.188,4.295,4.091,6.393C1.996,8.487,0.921,11.098,0.451,14.594C0.126,17.009,0.074,19.084,0.074,25.286C0.074,31.488,0.126,33.564,0.451,35.979C0.921,39.474,1.996,42.086,4.094,44.183C6.397,46.489,9.278,47.546,13.353,47.944C15.839,48.187,18.052,46.368,18.295,43.882C18.538,41.395,16.719,39.182,14.232,38.939C12.056,38.727,11.072,38.366,10.493,37.786C9.402,36.696,9.121,34.609,9.121,25.286C9.121,15.964,9.402,13.877,10.489,12.791C11.578,11.701,13.665,11.42,22.988,11.42L32.183,11.42C41.505,11.42,43.592,11.701,44.678,12.788C45.768,13.877,46.049,15.964,46.049,25.286C46.049,34.609,45.768,36.696,44.681,37.782C43.592,38.872,41.505,39.152,32.183,39.152C29.684,39.152,27.659,41.178,27.659,43.676C27.659,46.175,29.684,48.2,32.183,48.2Z"/>
  <path stroke-linecap="round" stroke-dasharray="none" fill-rule="nonzero" stroke="none" fill="#000000" stroke-miterlimit="4" stroke-opacity="1" stroke-linejoin="round" fill-opacity="1" stroke-width="2px" d="M32.183,39.152C28.742,39.152,25.106,40.302,21.269,42.293C18.29,43.839,17.281,44.339,16.406,44.679C16.212,44.754,16.06,44.806,15.953,44.835C15.92,44.845,15.93,44.843,15.992,44.837C16.512,44.788,17.19,44.921,17.858,45.371C18.47,45.781,18.852,46.331,19.015,46.827C19.043,46.91,19.051,46.948,19.051,46.946C19.04,46.867,19.031,46.742,19.026,46.572C19.004,45.747,19.076,44.718,19.351,41.711L19.448,40.634C19.672,38.146,17.836,35.947,15.348,35.723C12.86,35.498,10.661,37.334,10.436,39.822L10.34,40.893C10.025,44.343,9.945,45.475,9.981,46.815C10.052,49.461,10.717,51.476,12.813,52.882C14.037,53.705,15.423,53.979,16.842,53.845C17.76,53.758,18.664,53.509,19.683,53.112C21,52.601,22.089,52.062,25.437,50.324C28.101,48.941,30.445,48.2,32.183,48.2C34.681,48.2,36.707,46.175,36.707,43.676C36.707,41.178,34.681,39.152,32.183,39.152Z"/>
</g>
  <g id="Bold-S" transform="matrix(1.0,0.0,0.0,1.0,2313.6749252929685,633.1849448242187)">  <path stroke-dasharray="none" stroke-miterlimit="4" stroke="none" stroke-opacity="1" stroke-width="2px" fill="#000000" fill-rule="nonzero" stroke-linecap="round" fill-opacity="1" stroke-linejoin="round" d="M32.183,47.644C38.355,47.644,40.421,47.592,42.801,47.272C46.185,46.817,48.686,45.787,50.685,43.787C52.683,41.79,53.713,39.289,54.168,35.904C54.488,33.525,54.54,31.459,54.54,25.286C54.54,19.114,54.488,17.047,54.168,14.668C53.713,11.283,52.683,8.783,50.683,6.784C48.686,4.785,46.185,3.756,42.801,3.301C40.421,2.981,38.355,2.929,32.183,2.929L22.988,2.929C16.815,2.929,14.749,2.981,12.369,3.301C8.985,3.756,6.484,4.785,4.485,6.786C2.487,8.783,1.457,11.283,1.002,14.668C0.682,17.047,0.63,19.114,0.63,25.286C0.63,31.459,0.682,33.525,1.002,35.904C1.457,39.289,2.487,41.79,4.487,43.789C6.684,45.989,9.449,47.004,13.407,47.391C15.588,47.604,17.528,46.009,17.741,43.828C17.954,41.647,16.359,39.706,14.178,39.493C11.885,39.269,10.785,38.865,10.099,38.179C8.853,36.933,8.565,34.795,8.565,25.286C8.565,15.778,8.853,13.639,10.096,12.397C11.341,11.152,13.479,10.864,22.988,10.864L32.183,10.864C41.691,10.864,43.83,11.152,45.072,12.395C46.317,13.639,46.605,15.778,46.605,25.286C46.605,34.795,46.317,36.933,45.074,38.175C43.83,39.421,41.691,39.709,32.183,39.709C29.991,39.709,28.215,41.485,28.215,43.676C28.215,45.868,29.991,47.644,32.183,47.644Z"/>
  <path stroke-dasharray="none" stroke-width="2px" fill-opacity="1" stroke-opacity="1" fill-rule="nonzero" stroke-miterlimit="4" stroke-linecap="round" stroke-linejoin="round" stroke="none" fill="#000000" d="M32.183,39.709C28.847,39.709,25.291,40.833,21.526,42.787C18.524,44.345,17.509,44.847,16.608,45.197C16.397,45.279,16.228,45.337,16.101,45.372C16.038,45.389,16.017,45.393,16.044,45.391C16.182,45.378,16.362,45.384,16.582,45.427C16.909,45.492,17.242,45.627,17.547,45.832C18.05,46.169,18.36,46.616,18.487,47.002C18.503,47.049,18.504,47.055,18.499,47.021C18.486,46.921,18.475,46.775,18.47,46.587C18.447,45.731,18.52,44.695,18.797,41.66L18.894,40.584C19.09,38.402,17.481,36.473,15.298,36.277C13.116,36.08,11.187,37.69,10.99,39.872L10.894,40.943C10.581,44.366,10.502,45.492,10.537,46.8C10.604,49.283,11.217,51.141,13.123,52.42C15.071,53.73,17.034,53.545,19.482,52.594C20.771,52.093,21.855,51.556,25.181,49.83C27.917,48.41,30.34,47.644,32.183,47.644C34.374,47.644,36.15,45.868,36.15,43.676C36.15,41.485,34.374,39.709,32.183,39.709Z"/>
</g>
  <g id="Semibold-S" transform="matrix(1.0,0.0,0.0,1.0,2016.9649252929687,633.1849448242187)">  <path stroke="none" fill-rule="nonzero" stroke-miterlimit="4" fill-opacity="1" stroke-linejoin="round" stroke-linecap="round" stroke-width="2px" stroke-dasharray="none" stroke-opacity="1" fill="#000000" d="M32.183,47.088C38.325,47.088,40.382,47.036,42.727,46.721C46,46.28,48.39,45.296,50.292,43.393C52.193,41.494,53.176,39.104,53.617,35.83C53.932,33.486,53.984,31.429,53.984,25.286C53.984,19.144,53.932,17.086,53.617,14.742C53.176,11.469,52.193,9.079,50.29,7.177C48.39,5.276,46,4.292,42.727,3.852C40.382,3.537,38.325,3.485,32.183,3.485L22.988,3.485C16.845,3.485,14.788,3.537,12.444,3.852C9.17,4.292,6.78,5.276,4.878,7.179C2.977,9.079,1.994,11.469,1.553,14.742C1.238,17.086,1.186,19.144,1.186,25.286C1.186,31.429,1.238,33.486,1.553,35.83C1.994,39.104,2.977,41.494,4.88,43.395C6.972,45.49,9.62,46.462,13.461,46.837C15.336,47.02,17.005,45.649,17.188,43.774C17.371,41.898,15.999,40.23,14.124,40.047C11.714,39.811,10.497,39.365,9.706,38.572C8.303,37.171,8.009,34.981,8.009,25.286C8.009,15.592,8.303,13.402,9.703,12.004C11.103,10.602,13.293,10.308,22.988,10.308L32.183,10.308C41.877,10.308,44.067,10.602,45.465,12.002C46.867,13.402,47.161,15.592,47.161,25.286C47.161,34.981,46.867,37.171,45.467,38.569C44.067,39.97,41.877,40.265,32.183,40.265C30.299,40.265,28.771,41.792,28.771,43.676C28.771,45.56,30.299,47.088,32.183,47.088Z"/>
  <path stroke-miterlimit="4" stroke="none" stroke-width="2px" fill-rule="nonzero" stroke-linecap="round" stroke-dasharray="none" stroke-opacity="1" stroke-linejoin="round" fill="#000000" fill-opacity="1" d="M32.183,40.265C28.951,40.265,25.475,41.364,21.782,43.28C18.757,44.85,17.738,45.355,16.809,45.716C16.414,45.87,16.167,45.938,16.097,45.944C16.378,45.918,16.802,46.002,17.237,46.294C17.63,46.557,17.868,46.901,17.959,47.176C17.963,47.189,17.957,47.162,17.948,47.097C17.932,46.974,17.919,46.809,17.914,46.602C17.89,45.714,17.963,44.672,18.243,41.609L18.339,40.534C18.509,38.658,17.125,37,15.248,36.831C13.372,36.662,11.713,38.046,11.544,39.922L11.448,40.993C11.138,44.389,11.059,45.509,11.094,46.785C11.156,49.105,11.717,50.807,13.432,51.958C15.184,53.136,16.989,52.966,19.28,52.075C20.542,51.585,21.622,51.051,24.925,49.336C27.733,47.879,30.236,47.088,32.183,47.088C34.067,47.088,35.594,45.56,35.594,43.676C35.594,41.792,34.067,40.265,32.183,40.265Z"/>
</g>
  <g id="Medium-S" transform="matrix(1.0,0.0,0.0,1.0,1720.2549252929687,633.1849448242187)">  <path stroke-miterlimit="4" stroke-opacity="1" fill="#000000" stroke-width="2px" stroke-linecap="round" stroke-dasharray="none" stroke="none" stroke-linejoin="round" fill-rule="nonzero" fill-opacity="1" d="M32.183,46.531C38.295,46.531,40.343,46.48,42.652,46.169C45.815,45.744,48.094,44.806,49.898,43C51.702,41.198,52.64,38.919,53.065,35.756C53.376,33.447,53.428,31.399,53.428,25.286C53.428,19.174,53.376,17.125,53.065,14.817C52.64,11.654,51.702,9.375,49.896,7.571C48.094,5.767,45.815,4.829,42.652,4.403C40.343,4.093,38.295,4.041,32.183,4.041L22.988,4.041C16.875,4.041,14.827,4.093,12.518,4.403C9.355,4.829,7.076,5.767,5.272,7.572C3.468,9.375,2.53,11.654,2.105,14.817C1.794,17.125,1.742,19.174,1.742,25.286C1.742,31.399,1.794,33.447,2.105,35.756C2.53,38.919,3.468,41.198,5.274,43.002C7.259,44.991,9.791,45.92,13.515,46.283C15.084,46.437,16.481,45.289,16.634,43.719C16.787,42.15,15.639,40.754,14.07,40.6C11.543,40.354,10.21,39.864,9.312,38.965C7.754,37.408,7.453,35.167,7.453,25.286C7.453,15.406,7.754,13.164,9.31,11.61C10.866,10.053,13.107,9.751,22.988,9.751L32.183,9.751C42.063,9.751,44.304,10.053,45.859,11.608C47.416,13.164,47.718,15.406,47.718,25.286C47.718,35.167,47.416,37.408,45.861,38.963C44.305,40.52,42.063,40.821,32.183,40.821C30.606,40.821,29.328,42.1,29.328,43.676C29.328,45.253,30.606,46.531,32.183,46.531Z"/>
  <path stroke-linejoin="round" stroke-width="2px" fill="#000000" stroke-linecap="round" fill-opacity="1" stroke-miterlimit="4" fill-rule="nonzero" stroke-opacity="1" stroke="none" stroke-dasharray="none" d="M32.183,40.821C29.056,40.821,25.659,41.895,22.038,43.774C18.991,45.356,17.967,45.863,17.011,46.235C16.572,46.405,16.278,46.486,16.149,46.498C16.185,46.495,16.258,46.497,16.367,46.519C16.551,46.555,16.746,46.634,16.926,46.756C17.209,46.945,17.376,47.186,17.43,47.35C17.423,47.329,17.41,47.269,17.397,47.172C17.377,47.028,17.364,46.843,17.358,46.617C17.333,45.697,17.407,44.649,17.689,41.559L17.785,40.485C17.927,38.914,16.769,37.526,15.198,37.385C13.628,37.243,12.24,38.402,12.098,39.972L12.002,41.043C11.694,44.412,11.616,45.525,11.65,46.77C11.708,48.926,12.218,50.473,13.742,51.496C15.298,52.542,16.943,52.387,19.079,51.557C20.314,51.077,21.388,50.545,24.668,48.843C27.549,47.348,30.131,46.531,32.183,46.531C33.759,46.531,35.038,45.253,35.038,43.676C35.038,42.1,33.759,40.821,32.183,40.821Z"/>
</g>
  <g id="Regular-S" transform="matrix(1.0,0.0,0.0,1.0,1423.5449252929686,633.1849448242187)">  <path fill-rule="nonzero" stroke-dasharray="none" stroke="none" stroke-opacity="1" stroke-miterlimit="4" stroke-width="2px" stroke-linejoin="round" stroke-linecap="round" fill="#000000" fill-opacity="1" d="M32.183,45.975C38.265,45.975,40.305,45.924,42.578,45.618C45.63,45.207,47.798,44.315,49.505,42.607C51.211,40.902,52.104,38.734,52.514,35.682C52.82,33.408,52.871,31.369,52.871,25.286C52.871,19.203,52.82,17.164,52.514,14.891C52.104,11.839,51.211,9.671,49.503,7.964C47.798,6.258,45.63,5.365,42.578,4.955C40.305,4.649,38.265,4.598,32.183,4.598L22.988,4.598C16.905,4.598,14.866,4.649,12.592,4.955C9.54,5.365,7.372,6.258,5.665,7.966C3.959,9.671,3.067,11.839,2.656,14.891C2.35,17.164,2.299,19.203,2.299,25.286C2.299,31.369,2.35,33.408,2.656,35.682C3.067,38.734,3.959,40.902,5.667,42.608C7.547,44.491,9.961,45.377,13.569,45.73C14.833,45.853,15.957,44.929,16.08,43.665C16.204,42.402,15.28,41.277,14.016,41.154C11.373,40.896,9.922,40.364,8.918,39.358C7.205,37.646,6.896,35.353,6.896,25.286C6.896,15.219,7.205,12.927,8.916,11.217C10.628,9.503,12.921,9.195,22.988,9.195L32.183,9.195C42.25,9.195,44.542,9.503,46.252,11.215C47.966,12.927,48.274,15.219,48.274,25.286C48.274,35.353,47.966,37.646,46.254,39.356C44.542,41.069,42.25,41.378,32.183,41.378C30.913,41.378,29.884,42.407,29.884,43.676C29.884,44.946,30.913,45.975,32.183,45.975Z"/>
  <path fill-opacity="1" fill="#000000" stroke-width="2px" stroke-dasharray="none" stroke-opacity="1" stroke-miterlimit="4" stroke-linejoin="round" stroke-linecap="round" fill-rule="nonzero" stroke="none" d="M32.183,41.378C29.161,41.378,25.843,42.427,22.294,44.268C19.224,45.861,18.195,46.371,17.212,46.753C16.729,46.941,16.39,47.034,16.201,47.052C16.187,47.053,16.207,47.054,16.259,47.064C16.372,47.087,16.498,47.138,16.616,47.217C16.789,47.333,16.884,47.471,16.902,47.524C16.854,47.379,16.814,47.082,16.802,46.632C16.776,45.681,16.85,44.626,17.135,41.508L17.231,40.435C17.345,39.17,16.413,38.053,15.148,37.939C13.884,37.825,12.766,38.757,12.652,40.022L12.556,41.093C12.251,44.435,12.173,45.542,12.206,46.756C12.259,48.748,12.718,50.138,14.052,51.034C15.411,51.948,16.897,51.808,18.877,51.038C20.085,50.569,21.155,50.039,24.412,48.349C27.365,46.817,30.026,45.975,32.183,45.975C33.452,45.975,34.481,44.946,34.481,43.676C34.481,42.407,33.452,41.378,32.183,41.378Z"/>
</g>
  <g id="Light-S" transform="matrix(1.0,0.0,0.0,1.0,1126.8349252929688,633.1849448242187)">  <path fill="#000000" fill-rule="nonzero" fill-opacity="1" stroke-linecap="round" stroke-linejoin="round" stroke-opacity="1" stroke-miterlimit="4" stroke-dasharray="none" stroke="none" stroke-width="2px" d="M32.183,45.592C38.245,45.592,40.278,45.541,42.527,45.238C45.503,44.838,47.594,43.977,49.234,42.336C50.873,40.698,51.734,38.606,52.134,35.631C52.437,33.381,52.488,31.349,52.488,25.286C52.488,19.224,52.437,17.191,52.134,14.942C51.734,11.966,50.873,9.875,49.232,8.235C47.594,6.596,45.503,5.735,42.527,5.335C40.278,5.032,38.245,4.981,32.183,4.981L22.988,4.981C16.925,4.981,14.892,5.032,12.643,5.335C9.668,5.735,7.576,6.596,5.937,8.236C4.297,9.875,3.436,11.966,3.036,14.942C2.733,17.191,2.682,19.224,2.682,25.286C2.682,31.349,2.733,33.381,3.036,35.631C3.436,38.606,4.297,40.698,5.938,42.337C7.745,44.147,10.079,45.004,13.606,45.348C14.659,45.451,15.596,44.681,15.699,43.628C15.802,42.575,15.032,41.638,13.979,41.535C11.255,41.269,9.724,40.708,8.647,39.629C6.826,37.809,6.513,35.482,6.513,25.286C6.513,15.091,6.826,12.763,8.646,10.946C10.465,9.125,12.792,8.812,22.988,8.812L32.183,8.812C42.378,8.812,44.705,9.125,46.523,10.944C48.344,12.763,48.657,15.091,48.657,25.286C48.657,35.482,48.344,37.809,46.525,39.627C44.705,41.448,42.378,41.761,32.183,41.761C31.125,41.761,30.267,42.618,30.267,43.676C30.267,44.734,31.125,45.592,32.183,45.592Z"/>
  <path stroke-opacity="1" fill-opacity="1" stroke-dasharray="none" stroke-miterlimit="4" stroke-linejoin="round" stroke-width="2px" stroke="none" stroke-linecap="round" fill="#000000" fill-rule="nonzero" d="M32.183,41.761C29.233,41.761,25.97,42.792,22.471,44.608C19.385,46.21,18.353,46.721,17.351,47.11C16.838,47.309,16.467,47.412,16.237,47.433C16.188,47.438,16.171,47.438,16.185,47.44C16.249,47.453,16.327,47.485,16.402,47.535C16.46,47.574,16.51,47.624,16.543,47.671C16.553,47.685,16.55,47.678,16.538,47.644C16.477,47.458,16.432,47.126,16.419,46.642C16.393,45.669,16.467,44.61,16.753,41.474L16.85,40.4C16.945,39.346,16.168,38.415,15.114,38.32C14.06,38.225,13.129,39.003,13.034,40.056L12.937,41.127C12.634,44.451,12.557,45.554,12.589,46.745C12.639,48.625,13.062,49.908,14.266,50.715C15.49,51.539,16.866,51.409,18.739,50.681C19.928,50.219,20.994,49.691,24.236,48.009C27.238,46.451,29.954,45.592,32.183,45.592C33.241,45.592,34.098,44.734,34.098,43.676C34.098,42.618,33.241,41.761,32.183,41.761Z"/>
</g>
  <g id="Thin-S" transform="matrix(1.0,0.0,0.0,1.0,830.1249252929688,633.1849448242187)">  <path stroke-width="2px" stroke-linecap="round" fill="#000000" fill-opacity="1" fill-rule="nonzero" stroke-miterlimit="4" stroke-opacity="1" stroke-dasharray="none" stroke-linejoin="round" stroke="none" d="M32.183,45.209C38.224,45.209,40.251,45.158,42.476,44.858C45.375,44.469,47.39,43.639,48.963,42.065C50.535,40.494,51.365,38.479,51.755,35.58C52.054,33.355,52.105,31.328,52.105,25.286C52.105,19.244,52.054,17.218,51.755,14.993C51.365,12.094,50.535,10.079,48.962,8.506C47.39,6.934,45.375,6.104,42.476,5.714C40.251,5.415,38.224,5.364,32.183,5.364L22.988,5.364C16.946,5.364,14.919,5.415,12.694,5.714C9.795,6.104,7.78,6.934,6.208,8.507C4.635,10.079,3.805,12.094,3.415,14.993C3.116,17.218,3.065,19.244,3.065,25.286C3.065,31.328,3.116,33.355,3.415,35.58C3.805,38.479,4.635,40.494,6.208,42.066C7.943,43.803,10.197,44.63,13.644,44.967C14.486,45.049,15.235,44.433,15.318,43.591C15.4,42.749,14.784,41.999,13.942,41.917C11.137,41.643,9.526,41.051,8.376,39.899C6.448,37.973,6.13,35.61,6.13,25.286C6.13,14.963,6.448,12.6,8.375,10.675C10.301,8.747,12.664,8.429,22.988,8.429L32.183,8.429C42.506,8.429,44.869,8.747,46.794,10.674C48.722,12.6,49.04,14.963,49.04,25.286C49.04,35.61,48.722,37.973,46.795,39.898C44.869,41.826,42.506,42.144,32.183,42.144C31.336,42.144,30.65,42.83,30.65,43.676C30.65,44.523,31.336,45.209,32.183,45.209Z"/>
  <path fill="#000000" stroke-dasharray="none" fill-rule="nonzero" stroke-opacity="1" stroke-linejoin="round" stroke-linecap="round" stroke-miterlimit="4" stroke="none" fill-opacity="1" stroke-width="2px" d="M32.183,42.144C29.305,42.144,26.097,43.158,22.647,44.948C19.546,46.558,18.51,47.071,17.49,47.467C16.947,47.678,16.544,47.789,16.273,47.815C16.189,47.823,16.135,47.821,16.111,47.816C16.126,47.819,16.157,47.832,16.188,47.853C16.21,47.868,16.207,47.863,16.174,47.764C16.1,47.537,16.05,47.171,16.036,46.653C16.009,45.657,16.084,44.594,16.372,41.439L16.468,40.366C16.544,39.523,15.922,38.778,15.079,38.702C14.237,38.626,13.492,39.248,13.416,40.091L13.319,41.162C13.017,44.467,12.94,45.565,12.972,46.735C13.019,48.503,13.407,49.678,14.479,50.397C15.568,51.13,16.835,51.01,18.6,50.324C19.77,49.869,20.833,49.343,24.059,47.669C27.111,46.085,29.882,45.209,32.183,45.209C33.029,45.209,33.715,44.523,33.715,43.676C33.715,42.83,33.029,42.144,32.183,42.144Z"/>
</g>
  <g id="Ultralight-S" transform="matrix(1.0,0.0,0.0,1.0,533.4149252929687,633.1849448242187)">  <path stroke="none" fill="#000000" fill-opacity="1" stroke-miterlimit="4" fill-rule="nonzero" stroke-width="2px" stroke-dasharray="none" stroke-opacity="1" stroke-linecap="round" stroke-linejoin="round" d="M32.183,44.826C38.204,44.826,40.224,44.775,42.425,44.479C45.248,44.099,47.186,43.301,48.692,41.795C50.197,40.29,50.995,38.351,51.375,35.529C51.671,33.328,51.722,31.308,51.722,25.286C51.722,19.265,51.671,17.245,51.375,15.044C50.995,12.221,50.197,10.283,48.691,8.777C47.186,7.272,45.248,6.474,42.425,6.094C40.224,5.798,38.204,5.747,32.183,5.747L22.988,5.747C16.966,5.747,14.946,5.798,12.745,6.094C9.922,6.474,7.984,7.272,6.479,8.778C4.973,10.283,4.175,12.221,3.795,15.044C3.499,17.245,3.448,19.265,3.448,25.286C3.448,31.308,3.499,33.328,3.795,35.529C4.175,38.351,4.973,40.29,6.479,41.795C8.141,43.459,10.314,44.257,13.681,44.586C14.313,44.648,14.875,44.185,14.936,43.554C14.998,42.922,14.536,42.36,13.904,42.298C11.02,42.016,9.328,41.395,8.105,40.17C6.069,38.136,5.747,35.738,5.747,25.286C5.747,14.835,6.069,12.436,8.104,10.403C10.138,8.368,12.536,8.046,22.988,8.046L32.183,8.046C42.634,8.046,45.033,8.368,47.065,10.403C49.101,12.436,49.423,14.835,49.423,25.286C49.423,35.738,49.101,38.136,47.066,40.169C45.033,42.204,42.634,42.527,32.183,42.527C31.548,42.527,31.033,43.042,31.033,43.676C31.033,44.311,31.548,44.826,32.183,44.826Z"/>
  <path fill-rule="nonzero" stroke-linecap="round" fill-opacity="1" stroke="none" stroke-width="2px" fill="#000000" stroke-opacity="1" stroke-linejoin="round" stroke-dasharray="none" stroke-miterlimit="4" d="M32.183,42.527C29.377,42.527,26.223,43.524,22.824,45.288C17.818,47.886,16.381,48.445,15.974,48.171C15.818,48.066,15.679,47.644,15.653,46.663C15.625,45.646,15.7,44.578,15.99,41.404L16.087,40.331C16.144,39.699,15.677,39.14,15.045,39.083C14.413,39.027,13.854,39.493,13.797,40.125L13.701,41.196C13.401,44.483,13.324,45.577,13.355,46.725C13.399,48.38,13.751,49.448,14.692,50.079C15.646,50.72,16.803,50.611,18.461,49.967C19.613,49.519,20.672,48.995,23.883,47.329C26.984,45.719,29.81,44.826,32.183,44.826C32.817,44.826,33.332,44.311,33.332,43.676C33.332,43.042,32.817,42.527,32.183,42.527Z"/>
</g>
 </g>
</svg>
