<?xml version="1.0" encoding="UTF-8"?>
<!-- Generator: CustomSymbols v2.6.2.41 by @serious_bret https://bretlester.com/app_content/CustomSymbols/ -->
<!-- Guides: Left/Right 0.0/0.0 Cap/Base 0.0/0.0 -->
<!-- Settings: RefScale 1.0 Min/Max Stroke Scales 0.5/2.21 -->
<!DOCTYPE svg
PUBLIC "-//W3C//DTD SVG 1.1//EN"
       "http://www.w3.org/Graphics/SVG/1.1/DTD/svg11.dtd">
<svg version="1.1" xmlns="http://www.w3.org/2000/svg" xmlns:xlink="http://www.w3.org/1999/xlink" width="3300" height="2200">
<![CDATA[<svg xmlns="http://www.w3.org/2000/svg" width="36" height="36" viewBox="0 0 24 24" fill="none" stroke="currentColor" stroke-width="2" stroke-linecap="round" stroke-linejoin="round" class="ai ai-Heart"><path d="M7 3C4.239 3 2 5.216 2 7.95c0 2.207.875 7.445 9.488 12.74a.985.985 0 0 0 1.024 0C21.125 15.395 22 10.157 22 7.95 22 5.216 19.761 3 17 3s-5 3-5 3-2.239-3-5-3z"/></svg>]]>
 <g id="Notes">
  <rect height="2200" id="artboard" style="fill:white;opacity:1" width="3300" x="0" y="0"/>
  <line id="" style="fill:none;stroke:black;opacity:1;stroke-width:0.5;" x1="263" x2="3036" y1="292" y2="292"/>
  <text id="reftext1" style="stroke:none;fill:black;font-family:-apple-system,&quot;SF Pro Display&quot;,&quot;SF Pro Text&quot;,Helvetica,sans-serif;font-weight:bold;" transform="matrix(1 0 0 1 263 322)">Weight/Scale Variations</text>
  <text id="reftext2" style="stroke:none;fill:black;font-family:-apple-system,&quot;SF Pro Display&quot;,&quot;SF Pro Text&quot;,Helvetica,sans-serif;text-anchor:middle;" transform="matrix(1 0 0 1 559.711 322)">Ultralight</text>
  <text style="stroke:none;fill:black;font-family:-apple-system,&quot;SF Pro Display&quot;,&quot;SF Pro Text&quot;,Helvetica,sans-serif;text-anchor:middle;" transform="matrix(1 0 0 1 856.422 322)">Thin</text>
  <text style="stroke:none;fill:black;font-family:-apple-system,&quot;SF Pro Display&quot;,&quot;SF Pro Text&quot;,Helvetica,sans-serif;text-anchor:middle;" transform="matrix(1 0 0 1 1153.13 322)">Light</text>
  <text style="stroke:none;fill:black;font-family:-apple-system,&quot;SF Pro Display&quot;,&quot;SF Pro Text&quot;,Helvetica,sans-serif;text-anchor:middle;" transform="matrix(1 0 0 1 1449.84 322)">Regular</text>
  <text style="stroke:none;fill:black;font-family:-apple-system,&quot;SF Pro Display&quot;,&quot;SF Pro Text&quot;,Helvetica,sans-serif;text-anchor:middle;" transform="matrix(1 0 0 1 1746.56 322)">Medium</text>
  <text style="stroke:none;fill:black;font-family:-apple-system,&quot;SF Pro Display&quot;,&quot;SF Pro Text&quot;,Helvetica,sans-serif;text-anchor:middle;" transform="matrix(1 0 0 1 2043.27 322)">Semibold</text>
  <text style="stroke:none;fill:black;font-family:-apple-system,&quot;SF Pro Display&quot;,&quot;SF Pro Text&quot;,Helvetica,sans-serif;text-anchor:middle;" transform="matrix(1 0 0 1 2339.98 322)">Bold</text>
  <text style="stroke:none;fill:black;font-family:-apple-system,&quot;SF Pro Display&quot;,&quot;SF Pro Text&quot;,Helvetica,sans-serif;text-anchor:middle;" transform="matrix(1 0 0 1 2636.69 322)">Heavy</text>
  <text style="stroke:none;fill:black;font-family:-apple-system,&quot;SF Pro Display&quot;,&quot;SF Pro Text&quot;,Helvetica,sans-serif;text-anchor:middle;" transform="matrix(1 0 0 1 2933.4 322)">Black</text>
  <line id="" style="fill:none;stroke:black;opacity:1;stroke-width:0.5;" x1="263" x2="3036" y1="1903" y2="1903"/>
  <g id="" transform="matrix(1 0 0 1 263 1933)">
   <path d="M9.24805 0.830078C13.5547 0.830078 17.1387-2.74414 17.1387-7.05078C17.1387-11.3574 13.5449-14.9316 9.23828-14.9316C4.94141-14.9316 1.36719-11.3574 1.36719-7.05078C1.36719-2.74414 4.95117 0.830078 9.24805 0.830078ZM9.24805-0.654297C5.70312-0.654297 2.87109-3.49609 2.87109-7.05078C2.87109-10.6055 5.69336-13.4473 9.23828-13.4473C12.793-13.4473 15.6348-10.6055 15.6445-7.05078C15.6543-3.49609 12.8027-0.654297 9.24805-0.654297ZM6.39648-6.31836L8.50586-6.31836L8.50586-4.19922C8.50586-3.75977 8.79883-3.45703 9.22852-3.45703C9.67773-3.45703 9.9707-3.75977 9.9707-4.19922L9.9707-6.31836L12.0996-6.31836C12.5391-6.31836 12.8418-6.61133 12.8418-7.04102C12.8418-7.48047 12.5391-7.7832 12.0996-7.7832L9.9707-7.7832L9.9707-9.89258C9.9707-10.3418 9.67773-10.6445 9.22852-10.6445C8.79883-10.6445 8.50586-10.3418 8.50586-9.89258L8.50586-7.7832L6.39648-7.7832C5.94727-7.7832 5.64453-7.48047 5.64453-7.04102C5.64453-6.61133 5.94727-6.31836 6.39648-6.31836Z"/>
  </g>
  <g id="" transform="matrix(1 0 0 1 281.506 1933)">
   <path d="M11.709 2.91016C17.1582 2.91016 21.6699-1.61133 21.6699-7.05078C21.6699-12.5 17.1484-17.0117 11.6992-17.0117C6.25977-17.0117 1.74805-12.5 1.74805-7.05078C1.74805-1.61133 6.26953 2.91016 11.709 2.91016ZM11.709 1.25C7.09961 1.25 3.41797-2.44141 3.41797-7.05078C3.41797-11.6602 7.08984-15.3516 11.6992-15.3516C16.3086-15.3516 20-11.6602 20.0098-7.05078C20.0195-2.44141 16.3184 1.25 11.709 1.25ZM7.98828-6.23047L10.8789-6.23047L10.8789-3.32031C10.8789-2.83203 11.2109-2.5 11.6895-2.5C12.1777-2.5 12.5195-2.83203 12.5195-3.32031L12.5195-6.23047L15.4297-6.23047C15.918-6.23047 16.25-6.5625 16.25-7.04102C16.25-7.5293 15.918-7.87109 15.4297-7.87109L12.5195-7.87109L12.5195-10.7617C12.5195-11.2695 12.1777-11.6016 11.6895-11.6016C11.2109-11.6016 10.8789-11.2598 10.8789-10.7617L10.8789-7.87109L7.98828-7.87109C7.48047-7.87109 7.14844-7.5293 7.14844-7.04102C7.14844-6.5625 7.49023-6.23047 7.98828-6.23047Z"/>
  </g>
  <g id="" transform="matrix(1 0 0 1 304.924 1933)">
   <path d="M14.9707 5.66406C21.9336 5.66406 27.6953-0.0976562 27.6953-7.05078C27.6953-14.0137 21.9238-19.7754 14.9609-19.7754C8.00781-19.7754 2.25586-14.0137 2.25586-7.05078C2.25586-0.0976562 8.01758 5.66406 14.9707 5.66406ZM14.9707 3.84766C8.93555 3.84766 4.08203-1.01562 4.08203-7.05078C4.08203-13.0957 8.92578-17.9492 14.9609-17.9492C21.0059-17.9492 25.8594-13.0957 25.8691-7.05078C25.8789-1.01562 21.0156 3.84766 14.9707 3.84766ZM10.0586-6.14258L14.0625-6.14258L14.0625-2.12891C14.0625-1.5918 14.4336-1.2207 14.9512-1.2207C15.4883-1.2207 15.8594-1.5918 15.8594-2.12891L15.8594-6.14258L19.8828-6.14258C20.4102-6.14258 20.791-6.51367 20.791-7.03125C20.791-7.56836 20.4199-7.94922 19.8828-7.94922L15.8594-7.94922L15.8594-11.9531C15.8594-12.5098 15.4883-12.8809 14.9512-12.8809C14.4336-12.8809 14.0625-12.5 14.0625-11.9531L14.0625-7.94922L10.0586-7.94922C9.50195-7.94922 9.13086-7.56836 9.13086-7.03125C9.13086-6.51367 9.51172-6.14258 10.0586-6.14258Z"/>
  </g>
  <text style="stroke:none;fill:black;font-family:-apple-system,&quot;SF Pro Display&quot;,&quot;SF Pro Text&quot;,Helvetica,sans-serif;font-weight:bold;" transform="matrix(1 0 0 1 263 1953)">Design Variations</text>
  <text style="stroke:none;fill:black;font-family:-apple-system,&quot;SF Pro Display&quot;,&quot;SF Pro Text&quot;,Helvetica,sans-serif;" transform="matrix(1 0 0 1 263 1971)">Symbols are supported in up to nine weights and three scales.</text>
  <text style="stroke:none;fill:black;font-family:-apple-system,&quot;SF Pro Display&quot;,&quot;SF Pro Text&quot;,Helvetica,sans-serif;" transform="matrix(1 0 0 1 263 1989)">For optimal layout with text and other symbols, vertically align</text>
  <text style="stroke:none;fill:black;font-family:-apple-system,&quot;SF Pro Display&quot;,&quot;SF Pro Text&quot;,Helvetica,sans-serif;" transform="matrix(1 0 0 1 263 2007)">symbols with the adjacent text.</text>
  <line id="" style="fill:none;stroke:#00AEEF;stroke-width:0.5;opacity:1.0;" x1="776" x2="776" y1="1919" y2="1933"/>
  <g id="" transform="matrix(1 0 0 1 776 1933)">
   <path d="M3.31055 0.126953C3.82812 0.126953 4.08203-0.0683594 4.26758-0.605469L5.52734-4.0625L11.2891-4.0625L12.5488-0.605469C12.7344-0.0683594 12.9883 0.126953 13.4961 0.126953C14.0137 0.126953 14.3457-0.185547 14.3457-0.673828C14.3457-0.839844 14.3164-0.986328 14.2383-1.20117L9.6582-13.3887C9.43359-13.9941 9.0332-14.2871 8.4082-14.2871C7.80273-14.2871 7.39258-13.9941 7.17773-13.3984L2.59766-1.19141C2.51953-0.976562 2.49023-0.830078 2.49023-0.664062C2.49023-0.175781 2.80273 0.126953 3.31055 0.126953ZM6.00586-5.53711L8.37891-12.1094L8.42773-12.1094L10.8008-5.53711Z"/>
  </g>
  <line id="" style="fill:none;stroke:#00AEEF;stroke-width:0.5;opacity:1.0;" x1="792.836" x2="792.836" y1="1919" y2="1933"/>
  <text style="stroke:none;fill:black;font-family:-apple-system,&quot;SF Pro Display&quot;,&quot;SF Pro Text&quot;,Helvetica,sans-serif;font-weight:bold;" transform="matrix(1 0 0 1 776 1953)">Margins</text>
  <text style="stroke:none;fill:black;font-family:-apple-system,&quot;SF Pro Display&quot;,&quot;SF Pro Text&quot;,Helvetica,sans-serif;" transform="matrix(1 0 0 1 776 1971)">Leading and trailing margins on the left and right side of each symbol</text>
  <text style="stroke:none;fill:black;font-family:-apple-system,&quot;SF Pro Display&quot;,&quot;SF Pro Text&quot;,Helvetica,sans-serif;" transform="matrix(1 0 0 1 776 1989)">can be adjusted by modifying the x-location of the margin guidelines.</text>
  <text style="stroke:none;fill:black;font-family:-apple-system,&quot;SF Pro Display&quot;,&quot;SF Pro Text&quot;,Helvetica,sans-serif;" transform="matrix(1 0 0 1 776 2007)">Modifications are automatically applied proportionally to all</text>
  <text style="stroke:none;fill:black;font-family:-apple-system,&quot;SF Pro Display&quot;,&quot;SF Pro Text&quot;,Helvetica,sans-serif;" transform="matrix(1 0 0 1 776 2025)">scales and weights.</text>
  <g id="" transform="matrix(1 0 0 1 1289 1933)">
   <path d="M2.8418 1.86523L4.54102 3.57422C5.40039 4.44336 6.38672 4.38477 7.31445 3.35938L17.4902-7.85156C17.7539-7.76367 18.0273-7.7832 18.3398-7.8418L19.4043-8.03711L20.0684-7.36328L20.0293-6.80664C19.9902-6.30859 20.1172-5.92773 20.6055-5.44922L21.3672-4.70703C21.8457-4.22852 22.4609-4.19922 22.9297-4.66797L25.8398-7.58789C26.3086-8.05664 26.2891-8.65234 25.8105-9.13086L25.0391-9.89258C24.5605-10.3711 24.1895-10.5273 23.7109-10.4883L23.1348-10.4395L22.4902-11.0742L22.7344-12.1973C22.8613-12.7637 22.7051-13.2031 22.1191-13.7891L19.9219-15.9766C16.582-19.2969 12.1484-19.2188 9.25781-16.3281C8.83789-15.918 8.80859-15.3418 9.04297-14.9512C9.27734-14.5898 9.73633-14.3555 10.3809-14.5215C11.8457-14.8633 13.3691-14.9219 14.7949-13.9844L14.209-12.5293C14.0137-12.0508 13.9844-11.6504 14.1113-11.2891L3.04688-0.898438C2.06055 0.0195312 1.98242 0.996094 2.8418 1.86523ZM10.752-15.957C13.1836-17.7344 16.4746-17.4316 18.7012-15.2051L21.1328-12.793C21.3672-12.5586 21.4062-12.373 21.3379-12.0312L21.0156-10.5469L22.5195-9.0625L23.5059-9.12109C23.7598-9.13086 23.8379-9.11133 24.0332-8.91602L24.6094-8.33984L22.168-5.89844L21.5918-6.47461C21.3965-6.66992 21.3672-6.74805 21.377-7.01172L21.4453-7.98828L19.9512-9.47266L18.4277-9.21875C18.1055-9.15039 17.959-9.17969 17.7148-9.41406L15.7129-11.416C15.459-11.6504 15.4297-11.8164 15.5859-12.1875L16.4648-14.2773C14.9023-15.7324 12.8711-16.3574 10.8398-15.7617C10.6836-15.7227 10.625-15.8496 10.752-15.957ZM5.27344 2.30469L4.10156 1.14258C3.63281 0.683594 3.74023 0.341797 4.14062-0.0195312L14.9512-10.1953L16.416-8.71094L6.42578 2.27539C6.07422 2.67578 5.74219 2.77344 5.27344 2.30469Z"/>
  </g>
  <text style="stroke:none;fill:black;font-family:-apple-system,&quot;SF Pro Display&quot;,&quot;SF Pro Text&quot;,Helvetica,sans-serif;font-weight:bold;" transform="matrix(1 0 0 1 1289 1953)">Exporting</text>
  <text style="stroke:none;fill:black;font-family:-apple-system,&quot;SF Pro Display&quot;,&quot;SF Pro Text&quot;,Helvetica,sans-serif;" transform="matrix(1 0 0 1 1289 1971)">Symbols should be outlined when exporting to ensure the</text>
  <text style="stroke:none;fill:black;font-family:-apple-system,&quot;SF Pro Display&quot;,&quot;SF Pro Text&quot;,Helvetica,sans-serif;" transform="matrix(1 0 0 1 1289 1989)">design is preserved when submitting to Xcode.</text>
  <text id="template-version" style="stroke:none;fill:black;font-family:-apple-system,&quot;SF Pro Display&quot;,&quot;SF Pro Text&quot;,Helvetica,sans-serif;text-anchor:end;" transform="matrix(1 0 0 1 3036 1933)">Template v.2.0</text>
  <text style="stroke:none;fill:black;font-family:-apple-system,&quot;SF Pro Display&quot;,&quot;SF Pro Text&quot;,Helvetica,sans-serif;text-anchor:end;" transform="matrix(1 0 0 1 3036 1951)">Requires Xcode 12 or greater</text>
  <text style="stroke:none;fill:black;font-family:-apple-system,&quot;SF Pro Display&quot;,&quot;SF Pro Text&quot;,Helvetica,sans-serif;" transform="matrix(1 0 0 1 263 726)">Small</text>
  <text style="stroke:none;fill:black;font-family:-apple-system,&quot;SF Pro Display&quot;,&quot;SF Pro Text&quot;,Helvetica,sans-serif;" transform="matrix(1 0 0 1 263 1156)">Medium</text>
  <text style="stroke:none;fill:black;font-family:-apple-system,&quot;SF Pro Display&quot;,&quot;SF Pro Text&quot;,Helvetica,sans-serif;" transform="matrix(1 0 0 1 263 1586)">Large</text>
 </g>
 <g id="Guides">
  <g id="H-reference" style="fill:#27AAE1;stroke:none;" transform="matrix(1 0 0 1 339 696)">
   <path d="M0.976562 0L3.66211 0L12.9883-24.4629L45.752-24.4629L55.127 0L57.7637 0L30.6152-70.459L28.125-70.459ZM29.3457-67.1387L29.4434-67.1387L44.873-26.709L13.8672-26.709Z"/>
  </g>
  <line id="Baseline-S" style="fill:none;stroke:#27AAE1;opacity:1;stroke-width:0.5;" x1="263" x2="3036" y1="696" y2="696"/>
  <line id="Capline-S" style="fill:none;stroke:#27AAE1;opacity:1;stroke-width:0.5;" x1="263" x2="3036" y1="625.541" y2="625.541"/>
  <g id="H-reference" style="fill:#27AAE1;stroke:none;" transform="matrix(1 0 0 1 339 1126)">
   <path d="M0.976562 0L3.66211 0L12.9883-24.4629L45.752-24.4629L55.127 0L57.7637 0L30.6152-70.459L28.125-70.459ZM29.3457-67.1387L29.4434-67.1387L44.873-26.709L13.8672-26.709Z"/>
  </g>
  <line id="Baseline-M" style="fill:none;stroke:#27AAE1;opacity:1;stroke-width:0.5;" x1="263" x2="3036" y1="1126" y2="1126"/>
  <line id="Capline-M" style="fill:none;stroke:#27AAE1;opacity:1;stroke-width:0.5;" x1="263" x2="3036" y1="1055.54" y2="1055.54"/>
  <g id="H-reference" style="fill:#27AAE1;stroke:none;" transform="matrix(1 0 0 1 339 1556)">
   <path d="M0.976562 0L3.66211 0L12.9883-24.4629L45.752-24.4629L55.127 0L57.7637 0L30.6152-70.459L28.125-70.459ZM29.3457-67.1387L29.4434-67.1387L44.873-26.709L13.8672-26.709Z"/>
  </g>
  <line id="Baseline-L" style="fill:none;stroke:#27AAE1;opacity:1;stroke-width:0.5;" x1="263" x2="3036" y1="1556" y2="1556"/>
  <line id="Capline-L" style="fill:none;stroke:#27AAE1;opacity:1;stroke-width:0.5;" x1="263" x2="3036" y1="1485.54" y2="1485.54"/>
  <line id="left-margin" x1="1415.9000195312499" x2="1415.9000195312499" y1="1030.79" y2="1150.12" style="fill:none;stroke:#00AEEF;stroke-width:0.5;opacity:1.0;"/>
  <line id="right-margin" x1="1486.3599804687499" x2="1486.3599804687499" y1="1030.79" y2="1150.12" style="fill:none;stroke:#00AEEF;stroke-width:0.5;opacity:1.0;"/>
 </g>
 <g id="Symbols">
  <g id="Black-L" transform="matrix(1.0,0.0,0.0,1.0,2889.2333251953123,1475.3233447265625)">  <path fill-rule="nonzero" stroke="none" stroke-width="2px" stroke-opacity="1" stroke-linecap="round" stroke-miterlimit="4" stroke-dasharray="none" fill-opacity="1" stroke-linejoin="round" fill="#000000" d="M26.511,2.992C11.45,2.992,-0.795,15.113,-0.795,30.108C-0.795,37.533,1.167,45.544,6.057,54.027C12.459,65.132,23.244,75.725,39.124,85.488C43.021,87.859,47.873,87.859,51.736,85.508C67.65,75.725,78.435,65.132,84.836,54.027C89.726,45.544,91.689,37.533,91.689,30.108C91.689,15.113,79.444,2.992,64.383,2.992C57.523,2.992,51.299,5.918,45.652,10.598C43.817,12.12,42.169,13.732,40.713,15.35C40.196,15.924,39.736,16.464,39.334,16.959C39.071,17.283,38.872,17.539,38.739,17.717L52.154,17.717C52.021,17.539,51.822,17.283,51.559,16.959C51.157,16.464,50.697,15.924,50.18,15.35C48.725,13.732,47.076,12.12,45.241,10.598C39.594,5.918,33.37,2.992,26.511,2.992ZM26.511,19.731C28.8,19.731,31.638,21.066,34.559,23.487C35.722,24.451,36.796,25.501,37.736,26.546C38.274,27.144,38.62,27.569,38.739,27.729C42.086,32.214,48.807,32.214,52.154,27.729C52.274,27.569,52.619,27.144,53.157,26.546C54.097,25.501,55.171,24.451,56.335,23.487C59.255,21.066,62.093,19.731,64.383,19.731C70.237,19.731,74.949,24.397,74.949,30.108C74.949,34.71,73.692,39.84,70.333,45.668C65.395,54.234,56.612,62.861,43.002,71.228C44.517,70.306,46.377,70.306,47.858,71.207C34.282,62.861,25.498,54.234,20.56,45.668C17.201,39.84,15.944,34.71,15.944,30.108C15.944,24.397,20.657,19.731,26.511,19.731Z"/>
</g>
  <g id="Heavy-L" transform="matrix(1.0,0.0,0.0,1.0,2592.5233251953123,1475.3233447265625)">  <path stroke-dasharray="none" stroke-opacity="1" fill-rule="nonzero" fill="#000000" stroke="none" stroke-width="2px" fill-opacity="1" stroke-linecap="round" stroke-miterlimit="4" stroke-linejoin="round" d="M26.511,3.908C11.954,3.908,0.121,15.622,0.121,30.108C0.121,37.378,2.045,45.232,6.851,53.57C13.173,64.536,23.848,75.021,39.604,84.707C43.204,86.898,47.689,86.898,51.26,84.725C67.045,75.021,77.721,64.536,84.042,53.57C88.848,45.232,90.772,37.378,90.772,30.108C90.772,15.622,78.94,3.908,64.383,3.908C57.773,3.908,51.735,6.748,46.237,11.304C44.439,12.795,42.822,14.376,41.394,15.963C40.888,16.525,40.438,17.053,40.046,17.537C39.791,17.851,39.599,18.097,39.474,18.265L51.42,18.265C51.294,18.097,51.103,17.851,50.848,17.537C50.455,17.053,50.005,16.525,49.499,15.963C48.071,14.376,46.454,12.795,44.656,11.304C39.159,6.748,33.12,3.908,26.511,3.908ZM26.511,18.815C29.05,18.815,32.074,20.236,35.144,22.781C36.344,23.776,37.449,24.857,38.418,25.933C38.975,26.553,39.338,27,39.474,27.181C42.454,31.175,48.439,31.175,51.42,27.181C51.555,27,51.918,26.553,52.476,25.933C53.444,24.857,54.55,23.776,55.75,22.781C58.82,20.236,61.843,18.815,64.383,18.815C70.741,18.815,75.866,23.888,75.866,30.108C75.866,34.865,74.57,40.153,71.127,46.125C66.109,54.831,57.216,63.565,43.482,72.008C44.7,71.267,46.193,71.267,47.382,71.99C33.677,63.565,24.784,54.831,19.766,46.125C16.323,40.153,15.028,34.865,15.028,30.108C15.028,23.888,20.153,18.815,26.511,18.815Z"/>
</g>
  <g id="Bold-L" transform="matrix(1.0,0.0,0.0,1.0,2295.8133251953122,1475.3233447265625)">  <path stroke-dasharray="none" fill-rule="nonzero" stroke-opacity="1" stroke-linecap="round" stroke-width="2px" stroke="none" stroke-miterlimit="4" stroke-linejoin="round" fill="#000000" fill-opacity="1" d="M26.511,4.825C12.458,4.825,1.038,16.13,1.038,30.108C1.038,37.224,2.923,44.919,7.646,53.112C13.887,63.939,24.452,74.316,40.084,83.926C43.388,85.937,47.505,85.937,50.784,83.942C66.441,74.316,77.007,63.939,83.248,53.112C87.97,44.919,89.856,37.224,89.856,30.108C89.856,16.13,78.436,4.825,64.383,4.825C58.023,4.825,52.17,7.577,46.822,12.01C45.061,13.47,43.475,15.021,42.076,16.576C41.58,17.126,41.14,17.643,40.757,18.114C40.51,18.418,40.326,18.655,40.208,18.814L50.685,18.814C50.567,18.655,50.383,18.418,50.136,18.114C49.753,17.643,49.313,17.126,48.818,16.576C47.418,15.021,45.833,13.47,44.071,12.01C38.723,7.577,32.87,4.825,26.511,4.825ZM26.511,17.898C29.301,17.898,32.509,19.407,35.728,22.075C36.965,23.101,38.102,24.213,39.099,25.32C39.442,25.702,39.74,26.051,39.988,26.356C40.119,26.518,40.194,26.614,40.208,26.633C42.822,30.136,48.071,30.136,50.685,26.633C50.699,26.614,50.774,26.518,50.906,26.356C51.153,26.051,51.451,25.702,51.794,25.32C52.791,24.213,53.928,23.101,55.165,22.075C58.384,19.407,61.593,17.898,64.383,17.898C71.245,17.898,76.782,23.38,76.782,30.108C76.782,35.019,75.448,40.465,71.921,46.583C66.823,55.427,57.82,64.27,43.962,72.789C44.884,72.228,46.009,72.228,46.905,72.773C33.073,64.27,24.07,55.427,18.972,46.583C15.445,40.465,14.111,35.019,14.111,30.108C14.111,23.38,19.649,17.898,26.511,17.898Z"/>
</g>
  <g id="Semibold-L" transform="matrix(1.0,0.0,0.0,1.0,1999.1033251953124,1475.3233447265625)">  <path stroke-dasharray="none" fill-opacity="1" stroke-opacity="1" stroke-miterlimit="4" stroke-linejoin="round" stroke-width="2px" fill="#000000" stroke-linecap="round" fill-rule="nonzero" stroke="none" d="M26.511,5.741C12.962,5.741,1.954,16.638,1.954,30.108C1.954,37.069,3.801,44.607,8.44,52.654C14.6,63.342,25.057,73.612,40.564,83.145C43.572,84.976,47.321,84.976,50.307,83.159C65.837,73.612,76.293,63.342,82.454,52.654C87.092,44.607,88.939,37.069,88.939,30.108C88.939,16.638,77.931,5.741,64.383,5.741C58.274,5.741,52.606,8.406,47.407,12.715C45.682,14.145,44.128,15.665,42.757,17.189C42.272,17.728,41.842,18.232,41.469,18.692C41.23,18.986,41.054,19.213,40.943,19.362L49.951,19.362C49.84,19.213,49.664,18.986,49.425,18.692C49.051,18.232,48.621,17.728,48.136,17.189C46.765,15.665,45.211,14.145,43.486,12.715C38.287,8.406,32.62,5.741,26.511,5.741ZM26.511,16.982C29.551,16.982,32.945,18.578,36.313,21.37C37.587,22.425,38.756,23.568,39.78,24.707C40.134,25.101,40.442,25.461,40.699,25.778C40.839,25.95,40.921,26.056,40.943,26.085C43.19,29.096,47.703,29.096,49.951,26.085C49.972,26.056,50.055,25.95,50.194,25.778C50.451,25.461,50.759,25.101,51.113,24.707C52.138,23.568,53.306,22.425,54.58,21.37C57.949,18.578,61.342,16.982,64.383,16.982C71.749,16.982,77.699,22.872,77.699,30.108C77.699,35.174,76.326,40.777,72.715,47.041C67.537,56.024,58.425,64.974,44.442,73.57C45.068,73.189,45.826,73.189,46.429,73.556C32.469,64.974,23.356,56.024,18.178,47.041C14.567,40.777,13.195,35.174,13.195,30.108C13.195,22.872,19.145,16.982,26.511,16.982Z"/>
</g>
  <g id="Medium-L" transform="matrix(1.0,0.0,0.0,1.0,1702.3933251953124,1475.3233447265625)">  <path stroke="none" fill-rule="nonzero" stroke-opacity="1" stroke-width="2px" stroke-dasharray="none" stroke-miterlimit="4" stroke-linejoin="round" stroke-linecap="round" fill="#000000" fill-opacity="1" d="M26.511,6.658C13.466,6.658,2.871,17.146,2.871,30.108C2.871,36.914,4.679,44.295,9.234,52.196C15.314,62.746,25.661,72.908,41.044,82.365C43.756,84.015,47.138,84.015,49.831,82.376C65.232,72.908,75.579,62.746,81.66,52.196C86.215,44.295,88.023,36.914,88.023,30.108C88.023,17.146,77.427,6.658,64.383,6.658C58.524,6.658,53.042,9.236,47.992,13.421C46.304,14.82,44.781,16.309,43.438,17.802C42.618,18.714,42.024,19.445,41.677,19.91L49.216,19.91C48.869,19.445,48.275,18.714,47.455,17.802C46.112,16.309,44.59,14.82,42.901,13.421C37.852,9.236,32.369,6.658,26.511,6.658ZM26.511,16.065C29.801,16.065,33.38,17.748,36.898,20.664C38.209,21.75,39.409,22.924,40.462,24.094C40.826,24.499,41.144,24.872,41.41,25.2C41.499,25.31,41.574,25.404,41.635,25.482C41.664,25.52,41.678,25.539,41.677,25.537C43.558,28.057,47.335,28.057,49.216,25.537C49.215,25.539,49.229,25.52,49.259,25.482C49.319,25.404,49.394,25.31,49.483,25.2C49.749,24.872,50.067,24.499,50.432,24.094C51.485,22.924,52.685,21.75,53.995,20.664C57.513,17.748,61.092,16.065,64.383,16.065C72.253,16.065,78.615,22.363,78.615,30.108C78.615,35.328,77.204,41.089,73.509,47.498C68.251,56.621,59.029,65.678,44.922,74.351C45.252,74.15,45.642,74.15,45.953,74.339C31.864,65.678,22.642,56.621,17.384,47.498C13.69,41.089,12.278,35.328,12.278,30.108C12.278,22.363,18.64,16.065,26.511,16.065Z"/>
</g>
  <g id="Regular-L" transform="matrix(1.0,0.0,0.0,1.0,1405.6833251953124,1475.3233447265625)">  <path stroke="none" stroke-linecap="round" fill="#000000" stroke-linejoin="round" fill-rule="nonzero" fill-opacity="1" stroke-dasharray="none" stroke-opacity="1" stroke-miterlimit="4" stroke-width="2px" d="M26.511,7.574C13.97,7.574,3.787,17.655,3.787,30.108C3.787,36.76,5.557,43.982,10.028,51.739C16.028,62.149,26.265,72.203,41.524,81.584C43.939,83.054,46.954,83.054,49.354,81.593C64.628,72.203,74.865,62.149,80.866,51.739C85.337,43.982,87.106,36.76,87.106,30.108C87.106,17.655,76.923,7.574,64.383,7.574C58.774,7.574,53.477,10.065,48.577,14.127C46.925,15.495,45.434,16.954,44.12,18.415C43.319,19.305,42.742,20.015,42.412,20.458L48.482,20.458C48.151,20.015,47.574,19.305,46.774,18.415C45.459,16.954,43.968,15.495,42.317,14.127C37.416,10.065,32.119,7.574,26.511,7.574ZM26.511,15.149C30.051,15.149,33.816,16.919,37.483,19.958C38.83,21.075,40.062,22.279,41.143,23.481C41.518,23.898,41.846,24.283,42.122,24.623C42.278,24.814,42.375,24.94,42.412,24.989C43.926,27.018,46.967,27.018,48.482,24.989C48.518,24.94,48.616,24.814,48.771,24.623C49.048,24.283,49.375,23.898,49.75,23.481C50.832,22.279,52.063,21.075,53.41,19.958C57.077,16.919,60.842,15.149,64.383,15.149C72.757,15.149,79.532,21.855,79.532,30.108C79.532,35.483,78.082,41.402,74.303,47.956C68.965,57.218,59.633,66.382,45.402,75.131C45.435,75.111,45.458,75.111,45.476,75.122C31.26,66.382,21.928,57.218,16.59,47.956C12.812,41.402,11.362,35.483,11.362,30.108C11.362,21.855,18.136,15.149,26.511,15.149Z"/>
</g>
  <g id="Light-L" transform="matrix(1.0,0.0,0.0,1.0,1108.9733251953126,1475.3233447265625)">  <path stroke-opacity="1" stroke-linecap="round" stroke-miterlimit="4" stroke-dasharray="none" stroke="none" stroke-width="2px" fill-opacity="1" fill-rule="nonzero" stroke-linejoin="round" fill="#000000" d="M26.511,8.206C14.317,8.206,4.418,18.005,4.418,30.108C4.418,36.653,6.161,43.767,10.574,51.424C16.52,61.738,26.682,71.718,41.855,81.046C44.066,82.392,46.827,82.392,49.026,81.054C64.212,71.718,74.373,61.738,80.319,51.424C84.732,43.767,86.475,36.653,86.475,30.108C86.475,18.005,76.576,8.206,64.383,8.206C58.946,8.206,53.777,10.636,48.98,14.613C47.354,15.96,45.884,17.398,44.589,18.837C43.802,19.712,43.237,20.407,42.917,20.836L47.976,20.836C47.656,20.407,47.091,19.712,46.305,18.837C45.009,17.398,43.54,15.96,41.914,14.613C37.116,10.636,31.947,8.206,26.511,8.206ZM26.511,14.518C30.224,14.518,34.116,16.348,37.886,19.472C39.258,20.61,40.512,21.836,41.612,23.059C41.995,23.484,42.329,23.877,42.612,24.225C42.773,24.423,42.876,24.556,42.917,24.611C44.18,26.302,46.714,26.302,47.976,24.611C48.017,24.556,48.12,24.423,48.281,24.225C48.564,23.877,48.899,23.484,49.281,23.059C50.382,21.836,51.635,20.61,53.008,19.472C56.777,16.348,60.67,14.518,64.383,14.518C73.104,14.518,80.163,21.505,80.163,30.108C80.163,35.589,78.686,41.617,74.85,48.271C69.457,57.629,60.05,66.868,45.733,75.669C45.562,75.773,45.332,75.773,45.148,75.661C30.844,66.868,21.437,57.629,16.043,48.271C12.207,41.617,10.73,35.589,10.73,30.108C10.73,21.505,17.789,14.518,26.511,14.518Z"/>
</g>
  <g id="Thin-L" transform="matrix(1.0,0.0,0.0,1.0,812.2633251953125,1475.3233447265625)">  <path stroke="none" fill-rule="nonzero" stroke-miterlimit="4" stroke-dasharray="none" stroke-opacity="1" stroke-linecap="round" stroke-linejoin="round" stroke-width="2px" fill-opacity="1" fill="#000000" d="M26.511,8.837C14.665,8.837,5.05,18.355,5.05,30.108C5.05,36.547,6.766,43.552,11.121,51.108C17.012,61.327,27.098,71.233,42.185,80.509C44.193,81.73,46.701,81.73,48.698,80.515C63.796,71.233,73.882,61.327,79.772,51.108C84.128,43.552,85.844,36.547,85.844,30.108C85.844,18.355,76.229,8.837,64.383,8.837C59.119,8.837,54.077,11.207,49.382,15.099C47.782,16.425,46.334,17.841,45.058,19.259C44.285,20.119,43.732,20.799,43.423,21.213L47.47,21.213C47.161,20.799,46.609,20.119,45.835,19.259C44.56,17.841,43.112,16.425,41.511,15.099C36.816,11.207,31.775,8.837,26.511,8.837ZM26.511,13.886C30.396,13.886,34.416,15.777,38.289,18.986C39.687,20.145,40.961,21.392,42.081,22.637C42.471,23.07,42.813,23.471,43.102,23.827C43.269,24.032,43.377,24.172,43.423,24.233C44.433,25.586,46.46,25.586,47.47,24.233C47.516,24.172,47.624,24.032,47.791,23.827C48.081,23.471,48.422,23.07,48.812,22.637C49.932,21.392,51.207,20.145,52.605,18.986C56.477,15.777,60.497,13.886,64.383,13.886C73.451,13.886,80.794,21.155,80.794,30.108C80.794,35.696,79.291,41.832,75.397,48.587C69.948,58.039,60.466,67.353,46.063,76.207C45.688,76.435,45.205,76.435,44.82,76.201C30.428,67.353,20.945,58.039,15.496,48.587C11.603,41.832,10.099,35.696,10.099,30.108C10.099,21.155,17.442,13.886,26.511,13.886Z"/>
</g>
  <g id="Ultralight-L" transform="matrix(1.0,0.0,0.0,1.0,515.5533251953125,1475.3233447265625)">  <path fill="#000000" stroke-miterlimit="4" stroke-width="2px" stroke-opacity="1" stroke-dasharray="none" stroke-linecap="round" fill-opacity="1" stroke-linejoin="round" fill-rule="nonzero" stroke="none" d="M26.511,9.468C15.012,9.468,5.681,18.705,5.681,30.108C5.681,36.441,7.37,43.337,11.668,50.793C17.503,60.916,27.514,70.748,42.516,79.971C44.319,81.068,46.574,81.068,48.37,79.975C63.379,70.748,73.39,60.916,79.225,50.793C83.523,43.337,85.213,36.441,85.213,30.108C85.213,18.705,75.882,9.468,64.383,9.468C59.291,9.468,54.377,11.778,49.785,15.585C48.21,16.89,46.784,18.285,45.527,19.682C44.768,20.526,44.227,21.192,43.929,21.591L46.964,21.591C46.666,21.192,46.126,20.526,45.366,19.682C44.11,18.285,42.683,16.89,41.108,15.585C36.516,11.778,31.602,9.468,26.511,9.468ZM26.511,13.255C30.568,13.255,34.716,15.205,38.691,18.5C40.115,19.68,41.411,20.948,42.551,22.215C42.948,22.656,43.296,23.065,43.592,23.429C43.764,23.641,43.878,23.787,43.929,23.856C44.686,24.871,46.207,24.871,46.964,23.856C47.015,23.787,47.129,23.641,47.301,23.429C47.597,23.065,47.945,22.656,48.343,22.215C49.482,20.948,50.779,19.68,52.202,18.5C56.177,15.205,60.325,13.255,64.383,13.255C73.799,13.255,81.425,20.805,81.425,30.108C81.425,35.802,79.895,42.047,75.944,48.902C70.44,58.45,60.882,67.838,46.394,76.744C45.815,77.097,45.078,77.097,44.492,76.74C30.011,67.838,20.453,58.45,14.949,48.902C10.998,42.047,9.468,35.802,9.468,30.108C9.468,20.805,17.095,13.255,26.511,13.255Z"/>
</g>
  <g id="Black-M" transform="matrix(1.0,0.0,0.0,1.0,2899.45001953125,1055.5400390625)">  <path fill-rule="nonzero" stroke="none" stroke-width="2px" stroke-opacity="1" stroke-linecap="round" stroke-miterlimit="4" stroke-dasharray="none" fill-opacity="1" stroke-linejoin="round" fill="#000000" d="M20.551,2.319C8.876,2.319,-0.617,11.716,-0.617,23.34C-0.617,29.095,0.905,35.305,4.696,41.882C9.658,50.49,18.018,58.702,30.329,66.27C33.349,68.107,37.111,68.107,40.106,66.285C52.442,58.702,60.802,50.49,65.764,41.882C69.555,35.305,71.076,29.095,71.076,23.34C71.076,11.716,61.584,2.319,49.909,2.319C44.591,2.319,39.767,4.588,35.389,8.216C33.967,9.395,32.689,10.645,31.56,11.899C31.16,12.344,30.803,12.763,30.492,13.146C30.288,13.398,30.133,13.596,30.03,13.734L40.43,13.734C40.327,13.596,40.172,13.398,39.968,13.146C39.657,12.763,39.3,12.344,38.9,11.899C37.771,10.645,36.493,9.395,35.07,8.216C30.693,4.588,25.869,2.319,20.551,2.319ZM20.551,15.296C22.326,15.296,24.526,16.33,26.79,18.207C27.692,18.954,28.524,19.769,29.253,20.578C29.67,21.042,29.938,21.372,30.03,21.496C32.625,24.972,37.835,24.972,40.43,21.496C40.522,21.372,40.79,21.042,41.207,20.578C41.936,19.769,42.768,18.954,43.67,18.207C45.934,16.33,48.134,15.296,49.909,15.296C54.447,15.296,58.1,18.912,58.1,23.34C58.1,26.907,57.126,30.884,54.522,35.401C50.694,42.042,43.885,48.729,33.335,55.215C34.509,54.501,35.951,54.501,37.099,55.2C26.575,48.729,19.766,42.042,15.938,35.401C13.334,30.884,12.36,26.907,12.36,23.34C12.36,18.912,16.013,15.296,20.551,15.296Z"/>
</g>
  <g id="Heavy-M" transform="matrix(1.0,0.0,0.0,1.0,2602.74001953125,1055.5400390625)">  <path stroke-dasharray="none" stroke-opacity="1" fill-rule="nonzero" fill="#000000" stroke="none" stroke-width="2px" fill-opacity="1" stroke-linecap="round" stroke-miterlimit="4" stroke-linejoin="round" d="M20.551,3.03C9.266,3.03,0.094,12.11,0.094,23.34C0.094,28.975,1.585,35.063,5.311,41.527C10.211,50.028,18.487,58.156,30.701,65.664C33.492,67.363,36.968,67.363,39.736,65.678C51.973,58.156,60.249,50.028,65.149,41.527C68.875,35.063,70.366,28.975,70.366,23.34C70.366,12.11,61.194,3.03,49.909,3.03C44.785,3.03,40.104,5.231,35.843,8.763C34.449,9.918,33.195,11.144,32.089,12.374C31.696,12.81,31.347,13.22,31.043,13.594C30.845,13.838,30.697,14.029,30.6,14.159L39.86,14.159C39.763,14.029,39.614,13.838,39.417,13.594C39.113,13.22,38.763,12.81,38.371,12.374C37.265,11.144,36.011,9.918,34.617,8.763C30.356,5.231,25.675,3.03,20.551,3.03ZM20.551,14.585C22.52,14.585,24.863,15.687,27.243,17.66C28.173,18.431,29.031,19.269,29.781,20.103C30.214,20.584,30.495,20.93,30.6,21.071C32.91,24.167,37.55,24.167,39.86,21.071C39.965,20.93,40.246,20.584,40.679,20.103C41.429,19.269,42.286,18.431,43.217,17.66C45.597,15.687,47.94,14.585,49.909,14.585C54.838,14.585,58.811,18.518,58.811,23.34C58.811,27.027,57.806,31.126,55.137,35.756C51.247,42.504,44.354,49.275,33.707,55.82C34.651,55.246,35.809,55.246,36.73,55.807C26.106,49.275,19.213,42.504,15.323,35.756C12.654,31.126,11.649,27.027,11.649,23.34C11.649,18.518,15.622,14.585,20.551,14.585Z"/>
</g>
  <g id="Bold-M" transform="matrix(1.0,0.0,0.0,1.0,2306.0300195312498,1055.5400390625)">  <path stroke-dasharray="none" fill-rule="nonzero" stroke-opacity="1" stroke-linecap="round" stroke-width="2px" stroke="none" stroke-miterlimit="4" stroke-linejoin="round" fill="#000000" fill-opacity="1" d="M20.551,3.74C9.657,3.74,0.804,12.504,0.804,23.34C0.804,28.855,2.266,34.821,5.927,41.172C10.765,49.565,18.955,57.61,31.073,65.059C33.634,66.618,36.826,66.618,39.367,65.071C51.505,57.61,59.695,49.565,64.533,41.172C68.194,34.821,69.656,28.855,69.656,23.34C69.656,12.504,60.803,3.74,49.909,3.74C44.979,3.74,40.442,5.874,36.296,9.31C34.931,10.442,33.702,11.644,32.617,12.85C32.233,13.276,31.892,13.677,31.595,14.042C31.403,14.278,31.261,14.461,31.169,14.584L39.291,14.584C39.199,14.461,39.057,14.278,38.865,14.042C38.568,13.677,38.227,13.276,37.843,12.85C36.758,11.644,35.529,10.442,34.164,9.31C30.018,5.874,25.481,3.74,20.551,3.74ZM20.551,13.875C22.714,13.875,25.201,15.044,27.696,17.113C28.655,17.907,29.537,18.769,30.309,19.628C30.575,19.924,30.806,20.194,30.998,20.431C31.1,20.556,31.158,20.631,31.169,20.646C33.196,23.361,37.264,23.361,39.291,20.646C39.302,20.631,39.36,20.556,39.462,20.431C39.654,20.194,39.885,19.924,40.151,19.628C40.923,18.769,41.805,17.907,42.763,17.113C45.259,15.044,47.746,13.875,49.909,13.875C55.228,13.875,59.521,18.124,59.521,23.34C59.521,27.147,58.487,31.368,55.753,36.111C51.801,42.967,44.822,49.821,34.079,56.426C34.794,55.991,35.666,55.991,36.361,56.413C25.638,49.821,18.659,42.967,14.707,36.111C11.973,31.368,10.939,27.147,10.939,23.34C10.939,18.124,15.231,13.875,20.551,13.875Z"/>
</g>
  <g id="Semibold-M" transform="matrix(1.0,0.0,0.0,1.0,2009.32001953125,1055.5400390625)">  <path stroke-dasharray="none" fill-opacity="1" stroke-opacity="1" stroke-miterlimit="4" stroke-linejoin="round" stroke-width="2px" fill="#000000" stroke-linecap="round" fill-rule="nonzero" stroke="none" d="M20.551,4.451C10.048,4.451,1.515,12.898,1.515,23.34C1.515,28.736,2.946,34.579,6.542,40.817C11.318,49.103,19.424,57.064,31.445,64.454C33.777,65.873,36.683,65.873,38.998,64.464C51.036,57.064,59.142,49.103,63.918,40.817C67.514,34.579,68.945,28.736,68.945,23.34C68.945,12.898,60.412,4.451,49.909,4.451C45.173,4.451,40.78,6.516,36.75,9.857C35.413,10.965,34.208,12.143,33.145,13.325C32.769,13.742,32.436,14.133,32.146,14.49C31.961,14.718,31.824,14.894,31.738,15.009L38.722,15.009C38.636,14.894,38.499,14.718,38.314,14.49C38.024,14.133,37.691,13.742,37.315,13.325C36.252,12.143,35.047,10.965,33.71,9.857C29.68,6.516,25.287,4.451,20.551,4.451ZM20.551,13.164C22.908,13.164,25.539,14.401,28.15,16.566C29.137,17.384,30.043,18.27,30.837,19.153C31.112,19.458,31.35,19.738,31.55,19.983C31.658,20.116,31.722,20.199,31.738,20.221C33.481,22.555,36.979,22.555,38.722,20.221C38.738,20.199,38.802,20.116,38.91,19.983C39.11,19.738,39.348,19.458,39.623,19.153C40.417,18.27,41.323,17.384,42.31,16.566C44.921,14.401,47.552,13.164,49.909,13.164C55.619,13.164,60.232,17.73,60.232,23.34C60.232,27.266,59.167,31.61,56.368,36.466C52.354,43.43,45.291,50.367,34.451,57.031C34.936,56.736,35.524,56.736,35.991,57.02C25.169,50.367,18.106,43.43,14.091,36.466C11.293,31.61,10.228,27.266,10.228,23.34C10.228,17.73,14.841,13.164,20.551,13.164Z"/>
</g>
  <g id="Medium-M" transform="matrix(1.0,0.0,0.0,1.0,1712.61001953125,1055.5400390625)">  <path stroke="none" fill-rule="nonzero" stroke-opacity="1" stroke-width="2px" stroke-dasharray="none" stroke-miterlimit="4" stroke-linejoin="round" stroke-linecap="round" fill="#000000" fill-opacity="1" d="M20.551,5.161C10.439,5.161,2.225,13.292,2.225,23.34C2.225,28.616,3.627,34.337,7.158,40.462C11.872,48.64,19.892,56.518,31.817,63.849C33.919,65.128,36.541,65.128,38.628,63.857C50.568,56.518,58.588,48.64,63.302,40.462C66.833,34.337,68.235,28.616,68.235,23.34C68.235,13.292,60.021,5.161,49.909,5.161C45.367,5.161,41.117,7.159,37.203,10.404C35.894,11.488,34.714,12.643,33.673,13.8C33.037,14.507,32.577,15.074,32.308,15.434L38.152,15.434C37.883,15.074,37.423,14.507,36.787,13.8C35.746,12.643,34.566,11.488,33.257,10.404C29.342,7.159,25.093,5.161,20.551,5.161ZM20.551,12.454C23.102,12.454,25.876,13.758,28.603,16.019C29.619,16.861,30.549,17.77,31.366,18.678C31.648,18.992,31.894,19.281,32.101,19.535C32.17,19.62,32.228,19.693,32.275,19.753C32.298,19.783,32.309,19.797,32.308,19.796C33.766,21.75,36.694,21.75,38.152,19.796C38.151,19.797,38.162,19.783,38.185,19.753C38.232,19.693,38.29,19.62,38.359,19.535C38.566,19.281,38.812,18.992,39.094,18.678C39.911,17.77,40.841,16.861,41.857,16.019C44.584,13.758,47.358,12.454,49.909,12.454C56.01,12.454,60.942,17.336,60.942,23.34C60.942,27.386,59.848,31.852,56.984,36.82C52.908,43.892,45.759,50.913,34.823,57.636C35.079,57.481,35.381,57.481,35.622,57.627C24.701,50.913,17.552,43.892,13.476,36.82C10.612,31.852,9.518,27.386,9.518,23.34C9.518,17.336,14.45,12.454,20.551,12.454Z"/>
</g>
  <g id="Regular-M" transform="matrix(1.0,0.0,0.0,1.0,1415.9000195312499,1055.5400390625)">  <path stroke="none" stroke-linecap="round" fill="#000000" stroke-linejoin="round" fill-rule="nonzero" fill-opacity="1" stroke-dasharray="none" stroke-opacity="1" stroke-miterlimit="4" stroke-width="2px" d="M20.551,5.872C10.83,5.872,2.936,13.686,2.936,23.34C2.936,28.496,4.307,34.095,7.773,40.108C12.425,48.177,20.361,55.972,32.189,63.243C34.062,64.383,36.398,64.383,38.259,63.25C50.099,55.972,58.035,48.177,62.687,40.108C66.152,34.095,67.524,28.496,67.524,23.34C67.524,13.686,59.63,5.872,49.909,5.872C45.561,5.872,41.455,7.802,37.656,10.951C36.376,12.012,35.22,13.143,34.201,14.275C33.581,14.965,33.134,15.515,32.877,15.859L37.583,15.859C37.326,15.515,36.879,14.965,36.259,14.275C35.24,13.143,34.084,12.012,32.804,10.951C29.005,7.802,24.899,5.872,20.551,5.872ZM20.551,11.743C23.296,11.743,26.214,13.116,29.057,15.472C30.101,16.337,31.056,17.271,31.894,18.202C32.185,18.526,32.439,18.824,32.653,19.087C32.773,19.236,32.849,19.333,32.877,19.371C34.051,20.944,36.409,20.944,37.583,19.371C37.611,19.333,37.687,19.236,37.807,19.087C38.021,18.824,38.275,18.526,38.566,18.202C39.404,17.271,40.359,16.337,41.403,15.472C44.246,13.116,47.164,11.743,49.909,11.743C56.401,11.743,61.652,16.942,61.652,23.34C61.652,27.506,60.528,32.094,57.6,37.175C53.461,44.355,46.227,51.459,35.196,58.241C35.221,58.226,35.239,58.226,35.253,58.234C24.232,51.459,16.999,44.355,12.86,37.175C9.932,32.094,8.807,27.506,8.807,23.34C8.807,16.942,14.059,11.743,20.551,11.743Z"/>
</g>
  <g id="Light-M" transform="matrix(1.0,0.0,0.0,1.0,1119.19001953125,1055.5400390625)">  <path stroke-opacity="1" stroke-linecap="round" stroke-miterlimit="4" stroke-dasharray="none" stroke="none" stroke-width="2px" fill-opacity="1" fill-rule="nonzero" stroke-linejoin="round" fill="#000000" d="M20.551,6.361C11.099,6.361,3.425,13.957,3.425,23.34C3.425,28.414,4.776,33.928,8.197,39.863C12.806,47.859,20.683,55.596,32.446,62.827C34.16,63.87,36.3,63.87,38.005,62.832C49.777,55.596,57.654,47.859,62.263,39.863C65.684,33.928,67.035,28.414,67.035,23.34C67.035,13.957,59.361,6.361,49.909,6.361C45.695,6.361,41.688,8.245,37.969,11.328C36.708,12.372,35.569,13.487,34.565,14.602C33.955,15.28,33.517,15.819,33.269,16.152L37.191,16.152C36.943,15.819,36.505,15.28,35.895,14.602C34.891,13.487,33.752,12.372,32.491,11.328C28.772,8.245,24.765,6.361,20.551,6.361ZM20.551,11.254C23.429,11.254,26.447,12.673,29.369,15.095C30.433,15.977,31.404,16.927,32.258,17.875C32.554,18.205,32.813,18.509,33.033,18.779C33.158,18.933,33.237,19.036,33.269,19.078C34.248,20.389,36.212,20.389,37.191,19.078C37.223,19.036,37.302,18.933,37.427,18.779C37.647,18.509,37.906,18.205,38.202,17.875C39.056,16.927,40.027,15.977,41.091,15.095C44.013,12.673,47.031,11.254,49.909,11.254C56.67,11.254,62.142,16.671,62.142,23.34C62.142,27.588,60.997,32.261,58.023,37.42C53.842,44.673,46.55,51.835,35.452,58.658C35.319,58.739,35.141,58.739,34.999,58.652C23.91,51.835,16.618,44.673,12.436,37.42C9.463,32.261,8.318,27.588,8.318,23.34C8.318,16.671,13.79,11.254,20.551,11.254Z"/>
</g>
  <g id="Thin-M" transform="matrix(1.0,0.0,0.0,1.0,822.48001953125,1055.5400390625)">  <path stroke="none" fill-rule="nonzero" stroke-miterlimit="4" stroke-dasharray="none" stroke-opacity="1" stroke-linecap="round" stroke-linejoin="round" stroke-width="2px" fill-opacity="1" fill="#000000" d="M20.551,6.85C11.368,6.85,3.914,14.229,3.914,23.34C3.914,28.331,5.245,33.761,8.621,39.619C13.187,47.54,21.006,55.22,32.702,62.41C34.258,63.356,36.202,63.356,37.75,62.414C49.454,55.22,57.273,47.54,61.839,39.619C65.215,33.761,66.546,28.331,66.546,23.34C66.546,14.229,59.092,6.85,49.909,6.85C45.828,6.85,41.92,8.688,38.281,11.704C37.04,12.733,35.918,13.831,34.929,14.93C34.329,15.596,33.901,16.123,33.661,16.444L36.799,16.444C36.559,16.123,36.131,15.596,35.531,14.93C34.542,13.831,33.42,12.733,32.179,11.704C28.54,8.688,24.631,6.85,20.551,6.85ZM20.551,10.765C23.563,10.765,26.679,12.23,29.681,14.718C30.765,15.616,31.753,16.583,32.621,17.548C32.924,17.884,33.188,18.194,33.412,18.47C33.542,18.63,33.626,18.738,33.661,18.786C34.444,19.834,36.016,19.834,36.799,18.786C36.834,18.738,36.918,18.63,37.048,18.47C37.272,18.194,37.536,17.884,37.839,17.548C38.707,16.583,39.695,15.616,40.779,14.718C43.781,12.23,46.897,10.765,49.909,10.765C56.939,10.765,62.631,16.399,62.631,23.34C62.631,27.671,61.466,32.428,58.447,37.664C54.223,44.992,46.873,52.211,35.708,59.075C35.417,59.252,35.043,59.252,34.744,59.07C23.587,52.211,16.237,44.992,12.013,37.664C8.994,32.428,7.829,27.671,7.829,23.34C7.829,16.399,13.521,10.765,20.551,10.765Z"/>
</g>
  <g id="Ultralight-M" transform="matrix(1.0,0.0,0.0,1.0,525.77001953125,1055.5400390625)">  <path fill="#000000" stroke-miterlimit="4" stroke-width="2px" stroke-opacity="1" stroke-dasharray="none" stroke-linecap="round" fill-opacity="1" stroke-linejoin="round" fill-rule="nonzero" stroke="none" d="M20.551,7.34C11.637,7.34,4.404,14.5,4.404,23.34C4.404,28.249,5.714,33.595,9.045,39.374C13.569,47.222,21.329,54.844,32.958,61.993C34.356,62.843,36.104,62.843,37.496,61.996C49.131,54.844,56.891,47.222,61.415,39.374C64.746,33.595,66.056,28.249,66.056,23.34C66.056,14.5,58.823,7.34,49.909,7.34C45.962,7.34,42.153,9.131,38.593,12.081C37.372,13.093,36.266,14.175,35.292,15.257C34.704,15.912,34.285,16.428,34.054,16.737L36.406,16.737C36.175,16.428,35.756,15.912,35.167,15.257C34.194,14.175,33.088,13.093,31.867,12.081C28.307,9.131,24.498,7.34,20.551,7.34ZM20.551,10.275C23.696,10.275,26.912,11.787,29.993,14.341C31.097,15.256,32.102,16.239,32.985,17.221C33.293,17.563,33.563,17.88,33.792,18.162C33.926,18.327,34.014,18.44,34.054,18.493C34.641,19.28,35.819,19.28,36.406,18.493C36.446,18.44,36.534,18.327,36.668,18.162C36.897,17.88,37.167,17.563,37.475,17.221C38.358,16.239,39.363,15.256,40.467,14.341C43.548,11.787,46.764,10.275,49.909,10.275C57.208,10.275,63.12,16.128,63.12,23.34C63.12,27.753,61.934,32.594,58.871,37.908C54.605,45.31,47.195,52.587,35.964,59.492C35.515,59.765,34.944,59.765,34.49,59.488C23.265,52.587,15.855,45.31,11.589,37.908C8.526,32.594,7.34,27.753,7.34,23.34C7.34,16.128,13.252,10.275,20.551,10.275Z"/>
</g>
  <g id="Black-S" transform="matrix(1.0,0.0,0.0,1.0,2907.0949252929686,633.1849448242187)">  <path fill-rule="nonzero" stroke="none" stroke-width="2px" stroke-opacity="1" stroke-linecap="round" stroke-miterlimit="4" stroke-dasharray="none" fill-opacity="1" stroke-linejoin="round" fill="#000000" d="M16.091,1.816C6.95,1.816,-0.483,9.173,-0.483,18.275C-0.483,22.781,0.709,27.644,3.677,32.793C7.562,39.534,14.108,45.963,23.747,51.889C26.113,53.328,29.058,53.328,31.403,51.901C41.062,45.963,47.608,39.534,51.493,32.793C54.462,27.644,55.653,22.781,55.653,18.275C55.653,9.173,48.22,1.816,39.079,1.816C34.915,1.816,31.137,3.592,27.71,6.433C26.596,7.356,25.595,8.335,24.712,9.317C24.398,9.665,24.119,9.993,23.875,10.294C23.715,10.49,23.594,10.646,23.514,10.754L31.656,10.754C31.576,10.646,31.455,10.49,31.295,10.294C31.051,9.993,30.772,9.665,30.458,9.317C29.575,8.335,28.574,7.356,27.46,6.433C24.033,3.592,20.255,1.816,16.091,1.816ZM16.091,11.977C17.481,11.977,19.204,12.786,20.976,14.256C21.683,14.841,22.334,15.479,22.905,16.113C23.232,16.476,23.441,16.734,23.514,16.831C25.545,19.553,29.625,19.553,31.656,16.831C31.729,16.734,31.939,16.476,32.265,16.113C32.836,15.479,33.488,14.841,34.194,14.256C35.967,12.786,37.689,11.977,39.079,11.977C42.632,11.977,45.492,14.808,45.492,18.275C45.492,21.068,44.73,24.182,42.691,27.719C39.693,32.919,34.362,38.155,26.101,43.233C27.02,42.674,28.15,42.674,29.049,43.221C20.808,38.155,15.477,32.919,12.48,27.719C10.441,24.182,9.678,21.068,9.678,18.275C9.678,14.808,12.538,11.977,16.091,11.977Z"/>
</g>
  <g id="Heavy-S" transform="matrix(1.0,0.0,0.0,1.0,2610.3849252929685,633.1849448242187)">  <path stroke-dasharray="none" stroke-opacity="1" fill-rule="nonzero" fill="#000000" stroke="none" stroke-width="2px" fill-opacity="1" stroke-linecap="round" stroke-miterlimit="4" stroke-linejoin="round" d="M16.091,2.372C7.256,2.372,0.074,9.482,0.074,18.275C0.074,22.688,1.241,27.454,4.159,32.515C7.995,39.172,14.475,45.536,24.039,51.415C26.224,52.745,28.946,52.745,31.114,51.426C40.695,45.536,47.175,39.172,51.011,32.515C53.929,27.454,55.097,22.688,55.097,18.275C55.097,9.482,47.915,2.372,39.079,2.372C35.067,2.372,31.402,4.096,28.065,6.861C26.973,7.766,25.992,8.726,25.125,9.689C24.818,10.03,24.545,10.351,24.307,10.644C24.152,10.835,24.036,10.985,23.96,11.087L31.211,11.087C31.134,10.985,31.018,10.835,30.863,10.644C30.625,10.351,30.352,10.03,30.045,9.689C29.178,8.726,28.197,7.766,27.105,6.861C23.768,4.096,20.103,2.372,16.091,2.372ZM16.091,11.42C17.633,11.42,19.468,12.283,21.331,13.827C22.06,14.431,22.731,15.088,23.319,15.741C23.657,16.117,23.877,16.388,23.96,16.498C25.769,18.923,29.401,18.923,31.211,16.498C31.293,16.388,31.513,16.117,31.852,15.741C32.439,15.088,33.11,14.431,33.839,13.827C35.702,12.283,37.537,11.42,39.079,11.42C42.938,11.42,46.049,14.5,46.049,18.275C46.049,21.162,45.262,24.372,43.173,27.997C40.127,33.281,34.729,38.583,26.393,43.707C27.132,43.257,28.038,43.257,28.76,43.696C20.441,38.583,15.043,33.281,11.998,27.997C9.908,24.372,9.121,21.162,9.121,18.275C9.121,14.5,12.232,11.42,16.091,11.42Z"/>
</g>
  <g id="Bold-S" transform="matrix(1.0,0.0,0.0,1.0,2313.6749252929685,633.1849448242187)">  <path stroke-dasharray="none" fill-rule="nonzero" stroke-opacity="1" stroke-linecap="round" stroke-width="2px" stroke="none" stroke-miterlimit="4" stroke-linejoin="round" fill="#000000" fill-opacity="1" d="M16.091,2.929C7.562,2.929,0.63,9.79,0.63,18.275C0.63,22.594,1.774,27.265,4.641,32.238C8.429,38.809,14.842,45.108,24.33,50.941C26.336,52.162,28.835,52.162,30.824,50.951C40.328,45.108,46.741,38.809,50.529,32.238C53.396,27.265,54.54,22.594,54.54,18.275C54.54,9.79,47.609,2.929,39.079,2.929C35.219,2.929,31.666,4.599,28.42,7.29C27.351,8.176,26.388,9.117,25.539,10.061C25.238,10.395,24.971,10.709,24.739,10.995C24.589,11.18,24.477,11.323,24.405,11.419L30.765,11.419C30.693,11.323,30.581,11.18,30.432,10.995C30.199,10.709,29.932,10.395,29.631,10.061C28.782,9.117,27.819,8.176,26.75,7.29C23.504,4.599,19.951,2.929,16.091,2.929ZM16.091,10.864C17.785,10.864,19.732,11.78,21.686,13.399C22.437,14.021,23.127,14.697,23.732,15.369C23.941,15.6,24.121,15.812,24.272,15.997C24.351,16.096,24.397,16.154,24.405,16.166C25.992,18.292,29.178,18.292,30.765,16.166C30.773,16.154,30.819,16.096,30.899,15.997C31.049,15.812,31.23,15.6,31.438,15.369C32.043,14.697,32.733,14.021,33.484,13.399C35.438,11.78,37.385,10.864,39.079,10.864C43.244,10.864,46.605,14.191,46.605,18.275C46.605,21.256,45.795,24.561,43.655,28.275C40.56,33.643,35.096,39.01,26.684,44.181C27.244,43.841,27.927,43.841,28.47,44.172C20.074,39.01,14.61,33.643,11.516,28.275C9.375,24.561,8.565,21.256,8.565,18.275C8.565,14.191,11.926,10.864,16.091,10.864Z"/>
</g>
  <g id="Semibold-S" transform="matrix(1.0,0.0,0.0,1.0,2016.9649252929687,633.1849448242187)">  <path stroke-dasharray="none" fill-opacity="1" stroke-opacity="1" stroke-miterlimit="4" stroke-linejoin="round" stroke-width="2px" fill="#000000" stroke-linecap="round" fill-rule="nonzero" stroke="none" d="M16.091,3.485C7.868,3.485,1.186,10.099,1.186,18.275C1.186,22.5,2.307,27.075,5.123,31.96C8.862,38.447,15.209,44.681,24.622,50.467C26.447,51.578,28.723,51.578,30.535,50.476C39.961,44.681,46.308,38.447,50.048,31.96C52.863,27.075,53.984,22.5,53.984,18.275C53.984,10.099,47.303,3.485,39.079,3.485C35.371,3.485,31.931,5.102,28.775,7.718C27.728,8.586,26.785,9.508,25.952,10.433C25.658,10.76,25.397,11.067,25.17,11.346C25.026,11.524,24.919,11.662,24.851,11.752L30.319,11.752C30.252,11.662,30.145,11.524,30,11.346C29.773,11.067,29.512,10.76,29.218,10.433C28.385,9.508,27.442,8.586,26.395,7.718C23.24,5.102,19.799,3.485,16.091,3.485ZM16.091,10.308C17.937,10.308,19.997,11.276,22.041,12.971C22.814,13.612,23.524,14.305,24.146,14.997C24.361,15.236,24.547,15.454,24.703,15.647C24.788,15.751,24.838,15.815,24.851,15.833C26.215,17.661,28.955,17.661,30.319,15.833C30.332,15.815,30.382,15.751,30.467,15.647C30.623,15.454,30.81,15.236,31.024,14.997C31.646,14.305,32.356,13.612,33.129,12.971C35.173,11.276,37.233,10.308,39.079,10.308C43.55,10.308,47.161,13.883,47.161,18.275C47.161,21.35,46.328,24.751,44.137,28.553C40.993,34.005,35.462,39.438,26.975,44.655C27.355,44.424,27.815,44.424,28.181,44.647C19.708,39.438,14.177,34.005,11.034,28.553C8.842,24.751,8.009,21.35,8.009,18.275C8.009,13.883,11.62,10.308,16.091,10.308Z"/>
</g>
  <g id="Medium-S" transform="matrix(1.0,0.0,0.0,1.0,1720.2549252929687,633.1849448242187)">  <path stroke="none" fill-rule="nonzero" stroke-opacity="1" stroke-width="2px" stroke-dasharray="none" stroke-miterlimit="4" stroke-linejoin="round" stroke-linecap="round" fill="#000000" fill-opacity="1" d="M16.091,4.041C8.174,4.041,1.742,10.407,1.742,18.275C1.742,22.406,2.84,26.886,5.605,31.682C9.295,38.085,15.576,44.253,24.913,49.993C26.559,50.995,28.611,50.995,30.246,50C39.594,44.253,45.875,38.085,49.566,31.682C52.33,26.886,53.428,22.406,53.428,18.275C53.428,10.407,46.997,4.041,39.079,4.041C35.523,4.041,32.195,5.606,29.13,8.146C28.105,8.995,27.181,9.899,26.366,10.805C25.868,11.359,25.508,11.803,25.297,12.085L29.873,12.085C29.663,11.803,29.302,11.359,28.804,10.805C27.989,9.899,27.065,8.995,26.04,8.146C22.975,5.606,19.648,4.041,16.091,4.041ZM16.091,9.751C18.089,9.751,20.261,10.773,22.396,12.543C23.192,13.202,23.92,13.914,24.559,14.625C24.781,14.871,24.973,15.097,25.135,15.296C25.189,15.362,25.235,15.42,25.271,15.467C25.289,15.49,25.298,15.501,25.297,15.5C26.439,17.03,28.731,17.03,29.873,15.5C29.872,15.501,29.881,15.49,29.899,15.467C29.936,15.42,29.981,15.362,30.035,15.296C30.197,15.097,30.39,14.871,30.611,14.625C31.25,13.914,31.978,13.202,32.774,12.543C34.909,10.773,37.082,9.751,39.079,9.751C43.856,9.751,47.718,13.574,47.718,18.275C47.718,21.443,46.861,24.94,44.618,28.83C41.427,34.368,35.829,39.865,27.267,45.129C27.467,45.007,27.704,45.007,27.892,45.122C19.341,39.865,13.743,34.368,10.552,28.83C8.309,24.94,7.453,21.443,7.453,18.275C7.453,13.574,11.314,9.751,16.091,9.751Z"/>
</g>
  <g id="Regular-S" transform="matrix(1.0,0.0,0.0,1.0,1423.5449252929686,633.1849448242187)">  <path stroke="none" stroke-linecap="round" fill="#000000" stroke-linejoin="round" fill-rule="nonzero" fill-opacity="1" stroke-dasharray="none" stroke-opacity="1" stroke-miterlimit="4" stroke-width="2px" d="M16.091,4.598C8.48,4.598,2.299,10.716,2.299,18.275C2.299,22.312,3.373,26.696,6.087,31.404C9.729,37.723,15.943,43.826,25.204,49.52C26.67,50.412,28.5,50.412,29.957,49.525C39.228,43.826,45.441,37.723,49.084,31.404C51.797,26.696,52.871,22.312,52.871,18.275C52.871,10.716,46.691,4.598,39.079,4.598C35.675,4.598,32.459,6.109,29.485,8.575C28.483,9.405,27.578,10.291,26.78,11.177C26.294,11.718,25.944,12.149,25.743,12.418L29.427,12.418C29.226,12.149,28.876,11.718,28.391,11.177C27.593,10.291,26.687,9.405,25.685,8.575C22.711,6.109,19.496,4.598,16.091,4.598ZM16.091,9.195C18.24,9.195,20.526,10.269,22.751,12.114C23.569,12.792,24.317,13.523,24.973,14.253C25.201,14.506,25.399,14.739,25.567,14.945C25.662,15.062,25.721,15.138,25.743,15.167C26.662,16.399,28.508,16.399,29.427,15.167C29.449,15.138,29.509,15.062,29.603,14.945C29.771,14.739,29.97,14.506,30.197,14.253C30.854,13.523,31.601,12.792,32.419,12.114C34.645,10.269,36.93,9.195,39.079,9.195C44.162,9.195,48.274,13.266,48.274,18.275C48.274,21.537,47.394,25.13,45.1,29.108C41.86,34.73,36.196,40.293,27.558,45.603C27.578,45.591,27.592,45.591,27.603,45.597C18.974,40.293,13.31,34.73,10.07,29.108C7.776,25.13,6.896,21.537,6.896,18.275C6.896,13.266,11.008,9.195,16.091,9.195Z"/>
</g>
  <g id="Light-S" transform="matrix(1.0,0.0,0.0,1.0,1126.8349252929688,633.1849448242187)">  <path stroke-opacity="1" stroke-linecap="round" stroke-miterlimit="4" stroke-dasharray="none" stroke="none" stroke-width="2px" fill-opacity="1" fill-rule="nonzero" stroke-linejoin="round" fill="#000000" d="M16.091,4.981C8.69,4.981,2.682,10.928,2.682,18.275C2.682,22.248,3.74,26.566,6.418,31.213C10.027,37.474,16.195,43.531,25.405,49.193C26.747,50.01,28.423,50.01,29.758,49.198C38.975,43.531,45.143,37.474,48.752,31.213C51.43,26.566,52.488,22.248,52.488,18.275C52.488,10.928,46.48,4.981,39.079,4.981C35.779,4.981,32.642,6.456,29.729,8.87C28.743,9.688,27.851,10.56,27.064,11.434C26.587,11.965,26.244,12.387,26.05,12.647L29.12,12.647C28.926,12.387,28.583,11.965,28.106,11.434C27.32,10.56,26.428,9.688,25.441,8.87C22.529,6.456,19.391,4.981,16.091,4.981ZM16.091,8.812C18.345,8.812,20.708,9.923,22.996,11.819C23.829,12.51,24.59,13.254,25.258,13.996C25.49,14.254,25.693,14.493,25.864,14.704C25.962,14.824,26.025,14.905,26.05,14.938C26.816,15.965,28.354,15.965,29.12,14.938C29.145,14.905,29.208,14.824,29.306,14.704C29.477,14.493,29.68,14.254,29.913,13.996C30.581,13.254,31.341,12.51,32.174,11.819C34.462,9.923,36.825,8.812,39.079,8.812C44.373,8.812,48.657,13.053,48.657,18.275C48.657,21.602,47.761,25.26,45.432,29.3C42.159,34.979,36.449,40.587,27.759,45.929C27.655,45.992,27.515,45.992,27.404,45.925C18.721,40.587,13.012,34.979,9.738,29.3C7.409,25.26,6.513,21.602,6.513,18.275C6.513,13.053,10.798,8.812,16.091,8.812Z"/>
</g>
  <g id="Thin-S" transform="matrix(1.0,0.0,0.0,1.0,830.1249252929688,633.1849448242187)">  <path stroke="none" fill-rule="nonzero" stroke-miterlimit="4" stroke-dasharray="none" stroke-opacity="1" stroke-linecap="round" stroke-linejoin="round" stroke-width="2px" fill-opacity="1" fill="#000000" d="M16.091,5.364C8.901,5.364,3.065,11.141,3.065,18.275C3.065,22.183,4.107,26.435,6.75,31.022C10.326,37.224,16.448,43.237,25.606,48.867C26.824,49.608,28.346,49.608,29.559,48.87C38.722,43.237,44.844,37.224,48.42,31.022C51.063,26.435,52.105,22.183,52.105,18.275C52.105,11.141,46.269,5.364,39.079,5.364C35.884,5.364,32.824,6.803,29.974,9.164C29.002,9.97,28.124,10.829,27.349,11.69C26.88,12.212,26.544,12.625,26.357,12.876L28.813,12.876C28.626,12.625,28.29,12.212,27.821,11.69C27.047,10.829,26.168,9.97,25.196,9.164C22.347,6.803,19.286,5.364,16.091,5.364ZM16.091,8.429C18.45,8.429,20.89,9.576,23.24,11.524C24.089,12.228,24.863,12.984,25.542,13.74C25.779,14.003,25.986,14.246,26.162,14.462C26.263,14.587,26.329,14.672,26.357,14.709C26.97,15.53,28.2,15.53,28.813,14.709C28.841,14.672,28.907,14.587,29.008,14.462C29.184,14.246,29.391,14.003,29.628,13.74C30.308,12.984,31.081,12.228,31.93,11.524C34.28,9.576,36.721,8.429,39.079,8.429C44.583,8.429,49.04,12.841,49.04,18.275C49.04,21.666,48.128,25.391,45.764,29.491C42.457,35.229,36.701,40.881,27.959,46.256C27.732,46.394,27.438,46.394,27.205,46.252C18.469,40.881,12.713,35.229,9.406,29.491C7.042,25.391,6.13,21.666,6.13,18.275C6.13,12.841,10.587,8.429,16.091,8.429Z"/>
</g>
  <g id="Ultralight-S" transform="matrix(1.0,0.0,0.0,1.0,533.4149252929687,633.1849448242187)">  <path fill="#000000" stroke-miterlimit="4" stroke-width="2px" stroke-opacity="1" stroke-dasharray="none" stroke-linecap="round" fill-opacity="1" stroke-linejoin="round" fill-rule="nonzero" stroke="none" d="M16.091,5.747C9.112,5.747,3.448,11.353,3.448,18.275C3.448,22.119,4.474,26.305,7.082,30.83C10.624,36.975,16.7,42.942,25.806,48.54C26.901,49.206,28.269,49.206,29.359,48.543C38.47,42.942,44.546,36.975,48.088,30.83C50.696,26.305,51.722,22.119,51.722,18.275C51.722,11.353,46.058,5.747,39.079,5.747C35.988,5.747,33.006,7.149,30.218,9.459C29.262,10.252,28.397,11.099,27.634,11.946C27.173,12.459,26.845,12.863,26.664,13.105L28.506,13.105C28.325,12.863,27.997,12.459,27.536,11.946C26.774,11.099,25.908,10.252,24.952,9.459C22.164,7.149,19.182,5.747,16.091,5.747ZM16.091,8.046C18.554,8.046,21.072,9.229,23.485,11.229C24.349,11.945,25.136,12.715,25.827,13.484C26.068,13.752,26.28,14,26.459,14.221C26.564,14.35,26.633,14.438,26.664,14.48C27.124,15.096,28.047,15.096,28.506,14.48C28.537,14.438,28.606,14.35,28.711,14.221C28.89,14,29.102,13.752,29.343,13.484C30.035,12.715,30.821,11.945,31.685,11.229C34.098,9.229,36.616,8.046,39.079,8.046C44.794,8.046,49.423,12.628,49.423,18.275C49.423,21.731,48.495,25.521,46.096,29.682C42.755,35.478,36.954,41.176,28.16,46.582C27.809,46.796,27.362,46.796,27.006,46.579C18.216,41.176,12.415,35.478,9.074,29.682C6.676,25.521,5.747,21.731,5.747,18.275C5.747,12.628,10.376,8.046,16.091,8.046Z"/>
</g>
 </g>
</svg>
