<?xml version="1.0" encoding="UTF-8"?>
<!-- Generator: CustomSymbols v2.6.2.41 by @serious_bret https://bretlester.com/app_content/CustomSymbols/ -->
<!-- Guides: Left/Right 0.0/0.0 Cap/Base 0.0/0.0 -->
<!-- Settings: RefScale 1.0 Min/Max Stroke Scales 0.5/2.21 -->
<!DOCTYPE svg
PUBLIC "-//W3C//DTD SVG 1.1//EN"
       "http://www.w3.org/Graphics/SVG/1.1/DTD/svg11.dtd">
<svg version="1.1" xmlns="http://www.w3.org/2000/svg" xmlns:xlink="http://www.w3.org/1999/xlink" width="3300" height="2200">
<![CDATA[<svg xmlns="http://www.w3.org/2000/svg" width="36" height="36" viewBox="0 0 24 24" fill="none" stroke="currentColor" stroke-width="2" stroke-linecap="round" stroke-linejoin="round" class="ai ai-Person"><circle cx="12" cy="7" r="5"/><path d="M17 14h.352a3 3 0 0 1 2.976 2.628l.391 3.124A2 2 0 0 1 18.734 22H5.266a2 2 0 0 1-1.985-2.248l.39-3.124A3 3 0 0 1 6.649 14H7"/></svg>]]>
 <g id="Notes">
  <rect height="2200" id="artboard" style="fill:white;opacity:1" width="3300" x="0" y="0"/>
  <line id="" style="fill:none;stroke:black;opacity:1;stroke-width:0.5;" x1="263" x2="3036" y1="292" y2="292"/>
  <text id="reftext1" style="stroke:none;fill:black;font-family:-apple-system,&quot;SF Pro Display&quot;,&quot;SF Pro Text&quot;,Helvetica,sans-serif;font-weight:bold;" transform="matrix(1 0 0 1 263 322)">Weight/Scale Variations</text>
  <text id="reftext2" style="stroke:none;fill:black;font-family:-apple-system,&quot;SF Pro Display&quot;,&quot;SF Pro Text&quot;,Helvetica,sans-serif;text-anchor:middle;" transform="matrix(1 0 0 1 559.711 322)">Ultralight</text>
  <text style="stroke:none;fill:black;font-family:-apple-system,&quot;SF Pro Display&quot;,&quot;SF Pro Text&quot;,Helvetica,sans-serif;text-anchor:middle;" transform="matrix(1 0 0 1 856.422 322)">Thin</text>
  <text style="stroke:none;fill:black;font-family:-apple-system,&quot;SF Pro Display&quot;,&quot;SF Pro Text&quot;,Helvetica,sans-serif;text-anchor:middle;" transform="matrix(1 0 0 1 1153.13 322)">Light</text>
  <text style="stroke:none;fill:black;font-family:-apple-system,&quot;SF Pro Display&quot;,&quot;SF Pro Text&quot;,Helvetica,sans-serif;text-anchor:middle;" transform="matrix(1 0 0 1 1449.84 322)">Regular</text>
  <text style="stroke:none;fill:black;font-family:-apple-system,&quot;SF Pro Display&quot;,&quot;SF Pro Text&quot;,Helvetica,sans-serif;text-anchor:middle;" transform="matrix(1 0 0 1 1746.56 322)">Medium</text>
  <text style="stroke:none;fill:black;font-family:-apple-system,&quot;SF Pro Display&quot;,&quot;SF Pro Text&quot;,Helvetica,sans-serif;text-anchor:middle;" transform="matrix(1 0 0 1 2043.27 322)">Semibold</text>
  <text style="stroke:none;fill:black;font-family:-apple-system,&quot;SF Pro Display&quot;,&quot;SF Pro Text&quot;,Helvetica,sans-serif;text-anchor:middle;" transform="matrix(1 0 0 1 2339.98 322)">Bold</text>
  <text style="stroke:none;fill:black;font-family:-apple-system,&quot;SF Pro Display&quot;,&quot;SF Pro Text&quot;,Helvetica,sans-serif;text-anchor:middle;" transform="matrix(1 0 0 1 2636.69 322)">Heavy</text>
  <text style="stroke:none;fill:black;font-family:-apple-system,&quot;SF Pro Display&quot;,&quot;SF Pro Text&quot;,Helvetica,sans-serif;text-anchor:middle;" transform="matrix(1 0 0 1 2933.4 322)">Black</text>
  <line id="" style="fill:none;stroke:black;opacity:1;stroke-width:0.5;" x1="263" x2="3036" y1="1903" y2="1903"/>
  <g id="" transform="matrix(1 0 0 1 263 1933)">
   <path d="M9.24805 0.830078C13.5547 0.830078 17.1387-2.74414 17.1387-7.05078C17.1387-11.3574 13.5449-14.9316 9.23828-14.9316C4.94141-14.9316 1.36719-11.3574 1.36719-7.05078C1.36719-2.74414 4.95117 0.830078 9.24805 0.830078ZM9.24805-0.654297C5.70312-0.654297 2.87109-3.49609 2.87109-7.05078C2.87109-10.6055 5.69336-13.4473 9.23828-13.4473C12.793-13.4473 15.6348-10.6055 15.6445-7.05078C15.6543-3.49609 12.8027-0.654297 9.24805-0.654297ZM6.39648-6.31836L8.50586-6.31836L8.50586-4.19922C8.50586-3.75977 8.79883-3.45703 9.22852-3.45703C9.67773-3.45703 9.9707-3.75977 9.9707-4.19922L9.9707-6.31836L12.0996-6.31836C12.5391-6.31836 12.8418-6.61133 12.8418-7.04102C12.8418-7.48047 12.5391-7.7832 12.0996-7.7832L9.9707-7.7832L9.9707-9.89258C9.9707-10.3418 9.67773-10.6445 9.22852-10.6445C8.79883-10.6445 8.50586-10.3418 8.50586-9.89258L8.50586-7.7832L6.39648-7.7832C5.94727-7.7832 5.64453-7.48047 5.64453-7.04102C5.64453-6.61133 5.94727-6.31836 6.39648-6.31836Z"/>
  </g>
  <g id="" transform="matrix(1 0 0 1 281.506 1933)">
   <path d="M11.709 2.91016C17.1582 2.91016 21.6699-1.61133 21.6699-7.05078C21.6699-12.5 17.1484-17.0117 11.6992-17.0117C6.25977-17.0117 1.74805-12.5 1.74805-7.05078C1.74805-1.61133 6.26953 2.91016 11.709 2.91016ZM11.709 1.25C7.09961 1.25 3.41797-2.44141 3.41797-7.05078C3.41797-11.6602 7.08984-15.3516 11.6992-15.3516C16.3086-15.3516 20-11.6602 20.0098-7.05078C20.0195-2.44141 16.3184 1.25 11.709 1.25ZM7.98828-6.23047L10.8789-6.23047L10.8789-3.32031C10.8789-2.83203 11.2109-2.5 11.6895-2.5C12.1777-2.5 12.5195-2.83203 12.5195-3.32031L12.5195-6.23047L15.4297-6.23047C15.918-6.23047 16.25-6.5625 16.25-7.04102C16.25-7.5293 15.918-7.87109 15.4297-7.87109L12.5195-7.87109L12.5195-10.7617C12.5195-11.2695 12.1777-11.6016 11.6895-11.6016C11.2109-11.6016 10.8789-11.2598 10.8789-10.7617L10.8789-7.87109L7.98828-7.87109C7.48047-7.87109 7.14844-7.5293 7.14844-7.04102C7.14844-6.5625 7.49023-6.23047 7.98828-6.23047Z"/>
  </g>
  <g id="" transform="matrix(1 0 0 1 304.924 1933)">
   <path d="M14.9707 5.66406C21.9336 5.66406 27.6953-0.0976562 27.6953-7.05078C27.6953-14.0137 21.9238-19.7754 14.9609-19.7754C8.00781-19.7754 2.25586-14.0137 2.25586-7.05078C2.25586-0.0976562 8.01758 5.66406 14.9707 5.66406ZM14.9707 3.84766C8.93555 3.84766 4.08203-1.01562 4.08203-7.05078C4.08203-13.0957 8.92578-17.9492 14.9609-17.9492C21.0059-17.9492 25.8594-13.0957 25.8691-7.05078C25.8789-1.01562 21.0156 3.84766 14.9707 3.84766ZM10.0586-6.14258L14.0625-6.14258L14.0625-2.12891C14.0625-1.5918 14.4336-1.2207 14.9512-1.2207C15.4883-1.2207 15.8594-1.5918 15.8594-2.12891L15.8594-6.14258L19.8828-6.14258C20.4102-6.14258 20.791-6.51367 20.791-7.03125C20.791-7.56836 20.4199-7.94922 19.8828-7.94922L15.8594-7.94922L15.8594-11.9531C15.8594-12.5098 15.4883-12.8809 14.9512-12.8809C14.4336-12.8809 14.0625-12.5 14.0625-11.9531L14.0625-7.94922L10.0586-7.94922C9.50195-7.94922 9.13086-7.56836 9.13086-7.03125C9.13086-6.51367 9.51172-6.14258 10.0586-6.14258Z"/>
  </g>
  <text style="stroke:none;fill:black;font-family:-apple-system,&quot;SF Pro Display&quot;,&quot;SF Pro Text&quot;,Helvetica,sans-serif;font-weight:bold;" transform="matrix(1 0 0 1 263 1953)">Design Variations</text>
  <text style="stroke:none;fill:black;font-family:-apple-system,&quot;SF Pro Display&quot;,&quot;SF Pro Text&quot;,Helvetica,sans-serif;" transform="matrix(1 0 0 1 263 1971)">Symbols are supported in up to nine weights and three scales.</text>
  <text style="stroke:none;fill:black;font-family:-apple-system,&quot;SF Pro Display&quot;,&quot;SF Pro Text&quot;,Helvetica,sans-serif;" transform="matrix(1 0 0 1 263 1989)">For optimal layout with text and other symbols, vertically align</text>
  <text style="stroke:none;fill:black;font-family:-apple-system,&quot;SF Pro Display&quot;,&quot;SF Pro Text&quot;,Helvetica,sans-serif;" transform="matrix(1 0 0 1 263 2007)">symbols with the adjacent text.</text>
  <line id="" style="fill:none;stroke:#00AEEF;stroke-width:0.5;opacity:1.0;" x1="776" x2="776" y1="1919" y2="1933"/>
  <g id="" transform="matrix(1 0 0 1 776 1933)">
   <path d="M3.31055 0.126953C3.82812 0.126953 4.08203-0.0683594 4.26758-0.605469L5.52734-4.0625L11.2891-4.0625L12.5488-0.605469C12.7344-0.0683594 12.9883 0.126953 13.4961 0.126953C14.0137 0.126953 14.3457-0.185547 14.3457-0.673828C14.3457-0.839844 14.3164-0.986328 14.2383-1.20117L9.6582-13.3887C9.43359-13.9941 9.0332-14.2871 8.4082-14.2871C7.80273-14.2871 7.39258-13.9941 7.17773-13.3984L2.59766-1.19141C2.51953-0.976562 2.49023-0.830078 2.49023-0.664062C2.49023-0.175781 2.80273 0.126953 3.31055 0.126953ZM6.00586-5.53711L8.37891-12.1094L8.42773-12.1094L10.8008-5.53711Z"/>
  </g>
  <line id="" style="fill:none;stroke:#00AEEF;stroke-width:0.5;opacity:1.0;" x1="792.836" x2="792.836" y1="1919" y2="1933"/>
  <text style="stroke:none;fill:black;font-family:-apple-system,&quot;SF Pro Display&quot;,&quot;SF Pro Text&quot;,Helvetica,sans-serif;font-weight:bold;" transform="matrix(1 0 0 1 776 1953)">Margins</text>
  <text style="stroke:none;fill:black;font-family:-apple-system,&quot;SF Pro Display&quot;,&quot;SF Pro Text&quot;,Helvetica,sans-serif;" transform="matrix(1 0 0 1 776 1971)">Leading and trailing margins on the left and right side of each symbol</text>
  <text style="stroke:none;fill:black;font-family:-apple-system,&quot;SF Pro Display&quot;,&quot;SF Pro Text&quot;,Helvetica,sans-serif;" transform="matrix(1 0 0 1 776 1989)">can be adjusted by modifying the x-location of the margin guidelines.</text>
  <text style="stroke:none;fill:black;font-family:-apple-system,&quot;SF Pro Display&quot;,&quot;SF Pro Text&quot;,Helvetica,sans-serif;" transform="matrix(1 0 0 1 776 2007)">Modifications are automatically applied proportionally to all</text>
  <text style="stroke:none;fill:black;font-family:-apple-system,&quot;SF Pro Display&quot;,&quot;SF Pro Text&quot;,Helvetica,sans-serif;" transform="matrix(1 0 0 1 776 2025)">scales and weights.</text>
  <g id="" transform="matrix(1 0 0 1 1289 1933)">
   <path d="M2.8418 1.86523L4.54102 3.57422C5.40039 4.44336 6.38672 4.38477 7.31445 3.35938L17.4902-7.85156C17.7539-7.76367 18.0273-7.7832 18.3398-7.8418L19.4043-8.03711L20.0684-7.36328L20.0293-6.80664C19.9902-6.30859 20.1172-5.92773 20.6055-5.44922L21.3672-4.70703C21.8457-4.22852 22.4609-4.19922 22.9297-4.66797L25.8398-7.58789C26.3086-8.05664 26.2891-8.65234 25.8105-9.13086L25.0391-9.89258C24.5605-10.3711 24.1895-10.5273 23.7109-10.4883L23.1348-10.4395L22.4902-11.0742L22.7344-12.1973C22.8613-12.7637 22.7051-13.2031 22.1191-13.7891L19.9219-15.9766C16.582-19.2969 12.1484-19.2188 9.25781-16.3281C8.83789-15.918 8.80859-15.3418 9.04297-14.9512C9.27734-14.5898 9.73633-14.3555 10.3809-14.5215C11.8457-14.8633 13.3691-14.9219 14.7949-13.9844L14.209-12.5293C14.0137-12.0508 13.9844-11.6504 14.1113-11.2891L3.04688-0.898438C2.06055 0.0195312 1.98242 0.996094 2.8418 1.86523ZM10.752-15.957C13.1836-17.7344 16.4746-17.4316 18.7012-15.2051L21.1328-12.793C21.3672-12.5586 21.4062-12.373 21.3379-12.0312L21.0156-10.5469L22.5195-9.0625L23.5059-9.12109C23.7598-9.13086 23.8379-9.11133 24.0332-8.91602L24.6094-8.33984L22.168-5.89844L21.5918-6.47461C21.3965-6.66992 21.3672-6.74805 21.377-7.01172L21.4453-7.98828L19.9512-9.47266L18.4277-9.21875C18.1055-9.15039 17.959-9.17969 17.7148-9.41406L15.7129-11.416C15.459-11.6504 15.4297-11.8164 15.5859-12.1875L16.4648-14.2773C14.9023-15.7324 12.8711-16.3574 10.8398-15.7617C10.6836-15.7227 10.625-15.8496 10.752-15.957ZM5.27344 2.30469L4.10156 1.14258C3.63281 0.683594 3.74023 0.341797 4.14062-0.0195312L14.9512-10.1953L16.416-8.71094L6.42578 2.27539C6.07422 2.67578 5.74219 2.77344 5.27344 2.30469Z"/>
  </g>
  <text style="stroke:none;fill:black;font-family:-apple-system,&quot;SF Pro Display&quot;,&quot;SF Pro Text&quot;,Helvetica,sans-serif;font-weight:bold;" transform="matrix(1 0 0 1 1289 1953)">Exporting</text>
  <text style="stroke:none;fill:black;font-family:-apple-system,&quot;SF Pro Display&quot;,&quot;SF Pro Text&quot;,Helvetica,sans-serif;" transform="matrix(1 0 0 1 1289 1971)">Symbols should be outlined when exporting to ensure the</text>
  <text style="stroke:none;fill:black;font-family:-apple-system,&quot;SF Pro Display&quot;,&quot;SF Pro Text&quot;,Helvetica,sans-serif;" transform="matrix(1 0 0 1 1289 1989)">design is preserved when submitting to Xcode.</text>
  <text id="template-version" style="stroke:none;fill:black;font-family:-apple-system,&quot;SF Pro Display&quot;,&quot;SF Pro Text&quot;,Helvetica,sans-serif;text-anchor:end;" transform="matrix(1 0 0 1 3036 1933)">Template v.2.0</text>
  <text style="stroke:none;fill:black;font-family:-apple-system,&quot;SF Pro Display&quot;,&quot;SF Pro Text&quot;,Helvetica,sans-serif;text-anchor:end;" transform="matrix(1 0 0 1 3036 1951)">Requires Xcode 12 or greater</text>
  <text style="stroke:none;fill:black;font-family:-apple-system,&quot;SF Pro Display&quot;,&quot;SF Pro Text&quot;,Helvetica,sans-serif;" transform="matrix(1 0 0 1 263 726)">Small</text>
  <text style="stroke:none;fill:black;font-family:-apple-system,&quot;SF Pro Display&quot;,&quot;SF Pro Text&quot;,Helvetica,sans-serif;" transform="matrix(1 0 0 1 263 1156)">Medium</text>
  <text style="stroke:none;fill:black;font-family:-apple-system,&quot;SF Pro Display&quot;,&quot;SF Pro Text&quot;,Helvetica,sans-serif;" transform="matrix(1 0 0 1 263 1586)">Large</text>
 </g>
 <g id="Guides">
  <g id="H-reference" style="fill:#27AAE1;stroke:none;" transform="matrix(1 0 0 1 339 696)">
   <path d="M0.976562 0L3.66211 0L12.9883-24.4629L45.752-24.4629L55.127 0L57.7637 0L30.6152-70.459L28.125-70.459ZM29.3457-67.1387L29.4434-67.1387L44.873-26.709L13.8672-26.709Z"/>
  </g>
  <line id="Baseline-S" style="fill:none;stroke:#27AAE1;opacity:1;stroke-width:0.5;" x1="263" x2="3036" y1="696" y2="696"/>
  <line id="Capline-S" style="fill:none;stroke:#27AAE1;opacity:1;stroke-width:0.5;" x1="263" x2="3036" y1="625.541" y2="625.541"/>
  <g id="H-reference" style="fill:#27AAE1;stroke:none;" transform="matrix(1 0 0 1 339 1126)">
   <path d="M0.976562 0L3.66211 0L12.9883-24.4629L45.752-24.4629L55.127 0L57.7637 0L30.6152-70.459L28.125-70.459ZM29.3457-67.1387L29.4434-67.1387L44.873-26.709L13.8672-26.709Z"/>
  </g>
  <line id="Baseline-M" style="fill:none;stroke:#27AAE1;opacity:1;stroke-width:0.5;" x1="263" x2="3036" y1="1126" y2="1126"/>
  <line id="Capline-M" style="fill:none;stroke:#27AAE1;opacity:1;stroke-width:0.5;" x1="263" x2="3036" y1="1055.54" y2="1055.54"/>
  <g id="H-reference" style="fill:#27AAE1;stroke:none;" transform="matrix(1 0 0 1 339 1556)">
   <path d="M0.976562 0L3.66211 0L12.9883-24.4629L45.752-24.4629L55.127 0L57.7637 0L30.6152-70.459L28.125-70.459ZM29.3457-67.1387L29.4434-67.1387L44.873-26.709L13.8672-26.709Z"/>
  </g>
  <line id="Baseline-L" style="fill:none;stroke:#27AAE1;opacity:1;stroke-width:0.5;" x1="263" x2="3036" y1="1556" y2="1556"/>
  <line id="Capline-L" style="fill:none;stroke:#27AAE1;opacity:1;stroke-width:0.5;" x1="263" x2="3036" y1="1485.54" y2="1485.54"/>
  <line id="left-margin" x1="1415.9000195312499" x2="1415.9000195312499" y1="1030.79" y2="1150.12" style="fill:none;stroke:#00AEEF;stroke-width:0.5;opacity:1.0;"/>
  <line id="right-margin" x1="1486.3599804687499" x2="1486.3599804687499" y1="1030.79" y2="1150.12" style="fill:none;stroke:#00AEEF;stroke-width:0.5;opacity:1.0;"/>
 </g>
 <g id="Symbols">
  <g id="Black-L" transform="matrix(1.0,0.0,0.0,1.0,2889.2333251953123,1475.3233447265625)">  <path stroke-width="2px" stroke="none" cx="12" stroke-miterlimit="4" r="5" fill-rule="nonzero" stroke-linejoin="round" fill="#000000" stroke-opacity="1" cy="7" stroke-dasharray="none" stroke-linecap="round" fill-opacity="1" d="M56.013,26.511C56.013,32.346,51.282,37.077,45.447,37.077C39.611,37.077,34.88,32.346,34.88,26.511C34.88,20.675,39.611,15.944,45.447,15.944C51.282,15.944,56.013,20.675,56.013,26.511ZM72.753,26.511C72.753,11.43,60.527,-0.795,45.447,-0.795C30.366,-0.795,18.141,11.43,18.141,26.511C18.141,41.591,30.366,53.816,45.447,53.816C60.527,53.816,72.753,41.591,72.753,26.511Z"/>
  <path fill-opacity="1" fill-rule="nonzero" stroke-linecap="round" stroke="none" stroke-width="2px" stroke-opacity="1" fill="#000000" stroke-miterlimit="4" stroke-linejoin="round" stroke-dasharray="none" d="M64.383,61.391L65.716,61.391C67.222,61.391,68.494,62.515,68.682,64.012L70.163,75.845C70.134,75.617,70.204,75.389,70.355,75.218C70.506,75.047,70.724,74.949,70.952,74.949L19.944,74.949C20.17,74.949,20.387,75.047,20.538,75.218C20.689,75.389,20.759,75.617,20.731,75.843L22.208,64.011C22.395,62.514,23.669,61.39,25.178,61.391L26.511,61.391C31.133,61.391,34.88,57.644,34.88,53.021C34.88,48.399,31.133,44.651,26.511,44.651L25.181,44.651C15.23,44.648,6.832,52.059,5.598,61.936L4.121,73.768C3.554,78.306,4.963,82.869,7.99,86.298C11.018,89.726,15.372,91.69,19.945,91.689L70.95,91.689C75.522,91.69,79.876,89.726,82.903,86.298C85.931,82.869,87.34,78.306,86.773,73.767L85.292,61.934C84.058,52.064,75.667,44.654,65.718,44.651L64.383,44.651C59.76,44.651,56.013,48.399,56.013,53.021C56.013,57.644,59.76,61.391,64.383,61.391Z"/>
</g>
  <g id="Heavy-L" transform="matrix(1.0,0.0,0.0,1.0,2592.5233251953123,1475.3233447265625)">  <path cx="12" stroke="none" stroke-width="2px" fill-rule="nonzero" r="5" stroke-miterlimit="4" fill-opacity="1" stroke-linecap="round" cy="7" fill="#000000" stroke-linejoin="round" stroke-opacity="1" stroke-dasharray="none" d="M56.93,26.511C56.93,32.852,51.788,37.993,45.447,37.993C39.105,37.993,33.964,32.852,33.964,26.511C33.964,20.169,39.105,15.028,45.447,15.028C51.788,15.028,56.93,20.169,56.93,26.511ZM71.836,26.511C71.836,11.936,60.021,0.121,45.447,0.121C30.872,0.121,19.057,11.936,19.057,26.511C19.057,41.085,30.872,52.9,45.447,52.9C60.021,52.9,71.836,41.085,71.836,26.511Z"/>
  <path stroke-width="2px" fill-rule="nonzero" stroke-opacity="1" stroke-dasharray="none" fill-opacity="1" stroke-linecap="round" fill="#000000" stroke="none" stroke-linejoin="round" stroke-miterlimit="4" d="M64.383,60.474L65.716,60.474C67.685,60.475,69.347,61.943,69.591,63.898L71.072,75.731C71.076,75.764,71.065,75.799,71.042,75.825C71.019,75.851,70.986,75.866,70.951,75.866L19.944,75.866C19.907,75.866,19.874,75.851,19.851,75.825C19.828,75.799,19.817,75.764,19.822,75.729L21.299,63.897C21.543,61.942,23.207,60.474,25.178,60.474L26.511,60.474C30.627,60.474,33.964,57.137,33.964,53.021C33.964,48.905,30.627,45.568,26.511,45.568L25.181,45.568C15.692,45.564,7.684,52.631,6.507,62.05L5.03,73.882C4.496,78.159,5.824,82.46,8.677,85.691C11.531,88.923,15.634,90.773,19.945,90.772L70.95,90.772C75.259,90.773,79.363,88.923,82.216,85.691C85.07,82.46,86.398,78.159,85.863,73.881L84.382,62.048C83.206,52.636,75.205,45.571,65.718,45.568L64.383,45.568C60.266,45.568,56.93,48.905,56.93,53.021C56.93,57.137,60.266,60.474,64.383,60.474Z"/>
</g>
  <g id="Bold-L" transform="matrix(1.0,0.0,0.0,1.0,2295.8133251953122,1475.3233447265625)">  <path r="5" cx="12" stroke="none" fill="#000000" fill-opacity="1" stroke-miterlimit="4" stroke-linejoin="round" stroke-width="2px" cy="7" stroke-dasharray="none" stroke-linecap="round" fill-rule="nonzero" stroke-opacity="1" d="M57.846,26.511C57.846,33.359,52.295,38.91,45.447,38.91C38.599,38.91,33.047,33.359,33.047,26.511C33.047,19.663,38.599,14.111,45.447,14.111C52.295,14.111,57.846,19.663,57.846,26.511ZM70.92,26.511C70.92,12.442,59.515,1.038,45.447,1.038C31.378,1.038,19.974,12.442,19.974,26.511C19.974,40.579,31.378,51.983,45.447,51.983C59.515,51.983,70.92,40.579,70.92,26.511Z"/>
  <path stroke-opacity="1" stroke="none" stroke-width="2px" fill="#000000" stroke-miterlimit="4" fill-opacity="1" stroke-dasharray="none" stroke-linejoin="round" fill-rule="nonzero" stroke-linecap="round" d="M64.383,59.558L65.716,59.558C68.147,59.559,70.199,61.37,70.5,63.784L71.981,75.617C72.018,75.911,71.926,76.208,71.729,76.431C71.532,76.654,71.249,76.782,70.951,76.782L19.944,76.782C19.644,76.782,19.361,76.654,19.164,76.431C18.967,76.208,18.875,75.911,18.912,75.616L20.389,63.784C20.691,61.369,22.745,59.557,25.179,59.558L26.511,59.558C30.121,59.558,33.047,56.631,33.047,53.021C33.047,49.411,30.121,46.484,26.511,46.484L25.181,46.484C16.154,46.481,8.536,53.204,7.417,62.163L5.939,73.995C5.438,78.011,6.685,82.05,9.364,85.085C12.044,88.119,15.897,89.857,19.945,89.856L70.95,89.856C74.996,89.857,78.85,88.119,81.529,85.085C84.209,82.05,85.456,78.011,84.954,73.995L83.473,62.162C82.354,53.208,74.743,46.487,65.718,46.484L64.383,46.484C60.773,46.484,57.846,49.411,57.846,53.021C57.846,56.631,60.773,59.558,64.383,59.558Z"/>
</g>
  <g id="Semibold-L" transform="matrix(1.0,0.0,0.0,1.0,1999.1033251953124,1475.3233447265625)">  <path r="5" cy="7" stroke-width="2px" stroke-opacity="1" fill-opacity="1" fill="#000000" stroke-linecap="round" cx="12" stroke="none" fill-rule="nonzero" stroke-miterlimit="4" stroke-linejoin="round" stroke-dasharray="none" d="M58.763,26.511C58.763,33.865,52.801,39.826,45.447,39.826C38.093,39.826,32.131,33.865,32.131,26.511C32.131,19.156,38.093,13.195,45.447,13.195C52.801,13.195,58.763,19.156,58.763,26.511ZM70.003,26.511C70.003,12.948,59.009,1.954,45.447,1.954C31.885,1.954,20.89,12.948,20.89,26.511C20.89,40.073,31.885,51.067,45.447,51.067C59.009,51.067,70.003,40.073,70.003,26.511Z"/>
  <path fill-rule="nonzero" stroke-width="2px" stroke-dasharray="none" stroke-miterlimit="4" fill="#000000" stroke="none" stroke-linejoin="round" stroke-opacity="1" stroke-linecap="round" fill-opacity="1" d="M64.383,58.641L65.716,58.641C68.609,58.642,71.051,60.798,71.41,63.671L72.891,75.503C72.96,76.058,72.787,76.618,72.416,77.038C72.045,77.458,71.512,77.699,70.951,77.699L19.944,77.699C19.382,77.699,18.848,77.458,18.477,77.038C18.106,76.618,17.933,76.058,18.003,75.502L19.48,63.67C19.839,60.797,22.283,58.64,25.179,58.641L26.511,58.641C29.615,58.641,32.131,56.125,32.131,53.021C32.131,49.917,29.615,47.401,26.511,47.401L25.181,47.401C16.616,47.398,9.388,53.776,8.326,62.277L6.849,74.109C6.38,77.864,7.546,81.641,10.051,84.478C12.557,87.315,16.16,88.94,19.945,88.939L70.95,88.939C74.734,88.94,78.337,87.315,80.842,84.478C83.347,81.641,84.514,77.864,84.044,74.108L82.563,62.276C81.502,53.78,74.28,47.403,65.717,47.401L64.383,47.401C61.279,47.401,58.763,49.917,58.763,53.021C58.763,56.125,61.279,58.641,64.383,58.641Z"/>
</g>
  <g id="Medium-L" transform="matrix(1.0,0.0,0.0,1.0,1702.3933251953124,1475.3233447265625)">  <path stroke-dasharray="none" fill-rule="nonzero" stroke-miterlimit="4" r="5" stroke="none" fill="#000000" cx="12" fill-opacity="1" stroke-width="2px" stroke-opacity="1" stroke-linejoin="round" stroke-linecap="round" cy="7" d="M59.679,26.511C59.679,34.371,53.307,40.743,45.447,40.743C37.586,40.743,31.214,34.371,31.214,26.511C31.214,18.65,37.586,12.278,45.447,12.278C53.307,12.278,59.679,18.65,59.679,26.511ZM69.087,26.511C69.087,13.455,58.503,2.871,45.447,2.871C32.391,2.871,21.807,13.455,21.807,26.511C21.807,39.566,32.391,50.15,45.447,50.15C58.503,50.15,69.087,39.566,69.087,26.511Z"/>
  <path fill-opacity="1" stroke-width="2px" stroke="none" stroke-linejoin="round" stroke-dasharray="none" stroke-opacity="1" fill="#000000" fill-rule="nonzero" stroke-linecap="round" stroke-miterlimit="4" d="M64.383,57.725L65.716,57.725C69.072,57.726,71.903,60.226,72.319,63.557L73.8,75.389C73.902,76.206,73.648,77.027,73.103,77.645C72.558,78.262,71.774,78.615,70.951,78.615L19.944,78.615C19.119,78.615,18.335,78.262,17.79,77.645C17.245,77.027,16.991,76.206,17.093,75.388L18.57,63.557C18.987,60.224,21.821,57.724,25.179,57.725L26.511,57.725C29.108,57.725,31.214,55.619,31.214,53.021C31.214,50.423,29.108,48.317,26.511,48.317L25.181,48.317C17.078,48.314,10.24,54.349,9.235,62.391L7.758,74.223C7.322,77.717,8.407,81.231,10.738,83.871C13.07,86.512,16.422,88.023,19.945,88.023L70.95,88.023C74.471,88.023,77.824,86.512,80.155,83.871C82.486,81.231,83.572,77.717,83.135,74.222L81.654,62.39C80.65,54.353,73.818,48.32,65.717,48.317L64.383,48.317C61.785,48.317,59.679,50.423,59.679,53.021C59.679,55.619,61.785,57.725,64.383,57.725Z"/>
</g>
  <g id="Regular-L" transform="matrix(1.0,0.0,0.0,1.0,1405.6833251953124,1475.3233447265625)">  <path stroke-dasharray="none" stroke-miterlimit="4" fill-rule="nonzero" stroke-linecap="round" r="5" cx="12" stroke="none" stroke-linejoin="round" stroke-opacity="1" fill="#000000" cy="7" fill-opacity="1" stroke-width="2px" d="M60.596,26.511C60.596,34.877,53.813,41.659,45.447,41.659C37.08,41.659,30.298,34.877,30.298,26.511C30.298,18.144,37.08,11.362,45.447,11.362C53.813,11.362,60.596,18.144,60.596,26.511ZM68.17,26.511C68.17,13.961,57.996,3.787,45.447,3.787C32.897,3.787,22.723,13.961,22.723,26.511C22.723,39.06,32.897,49.234,45.447,49.234C57.996,49.234,68.17,39.06,68.17,26.511Z"/>
  <path stroke="none" fill-opacity="1" fill-rule="nonzero" stroke-linejoin="round" stroke-miterlimit="4" stroke-width="2px" stroke-dasharray="none" stroke-opacity="1" fill="#000000" stroke-linecap="round" d="M64.383,56.808L65.716,56.808C69.534,56.809,72.755,59.654,73.229,63.444L74.71,75.276C74.844,76.353,74.509,77.437,73.79,78.251C73.071,79.066,72.037,79.532,70.951,79.532L19.944,79.532C18.856,79.532,17.822,79.066,17.103,78.251C16.384,77.437,16.049,76.353,16.184,75.275L17.661,63.443C18.135,59.652,21.359,56.807,25.18,56.808L26.511,56.808C28.602,56.808,30.298,55.113,30.298,53.021C30.298,50.929,28.602,49.234,26.511,49.234L25.181,49.234C17.54,49.231,11.093,54.921,10.145,62.504L8.668,74.336C8.264,77.57,9.268,80.822,11.425,83.265C13.583,85.708,16.685,87.107,19.944,87.106L70.95,87.106C74.208,87.107,77.311,85.708,79.468,83.265C81.625,80.822,82.63,77.57,82.225,74.336L80.745,62.504C79.797,54.925,73.355,49.236,65.717,49.234L64.383,49.234C62.291,49.234,60.596,50.929,60.596,53.021C60.596,55.113,62.291,56.808,64.383,56.808Z"/>
</g>
  <g id="Light-L" transform="matrix(1.0,0.0,0.0,1.0,1108.9733251953126,1475.3233447265625)">  <path stroke-linecap="round" r="5" cx="12" fill-rule="nonzero" stroke-opacity="1" fill="#000000" stroke-miterlimit="4" stroke-dasharray="none" stroke="none" stroke-linejoin="round" cy="7" fill-opacity="1" stroke-width="2px" d="M61.227,26.511C61.227,35.226,54.162,42.291,45.447,42.291C36.732,42.291,29.667,35.226,29.667,26.511C29.667,17.795,36.732,10.73,45.447,10.73C54.162,10.73,61.227,17.795,61.227,26.511ZM67.539,26.511C67.539,14.309,57.648,4.418,45.447,4.418C33.246,4.418,23.355,14.309,23.355,26.511C23.355,38.712,33.246,48.603,45.447,48.603C57.648,48.603,67.539,38.712,67.539,26.511Z"/>
  <path stroke-linejoin="round" stroke="none" stroke-dasharray="none" fill="#000000" stroke-miterlimit="4" stroke-linecap="round" stroke-width="2px" stroke-opacity="1" fill-rule="nonzero" fill-opacity="1" d="M64.383,56.177L65.716,56.177C69.853,56.178,73.342,59.26,73.855,63.365L75.336,75.197C75.493,76.454,75.102,77.719,74.264,78.669C73.425,79.619,72.218,80.163,70.951,80.163L19.944,80.163C18.675,80.163,17.469,79.619,16.63,78.669C15.791,77.719,15.4,76.454,15.558,75.197L17.035,63.365C17.548,59.258,21.04,56.176,25.18,56.177L26.511,56.177C28.254,56.177,29.667,54.764,29.667,53.021C29.667,51.278,28.254,49.865,26.511,49.865L25.181,49.865C17.859,49.862,11.679,55.315,10.771,62.583L9.294,74.414C8.913,77.468,9.861,80.54,11.898,82.847C13.936,85.154,16.866,86.476,19.944,86.475L70.95,86.475C74.027,86.476,76.958,85.154,78.995,82.847C81.032,80.54,81.981,77.468,81.599,74.414L80.118,62.582C79.211,55.319,73.037,49.867,65.717,49.865L64.383,49.865C62.64,49.865,61.227,51.278,61.227,53.021C61.227,54.764,62.64,56.177,64.383,56.177Z"/>
</g>
  <g id="Thin-L" transform="matrix(1.0,0.0,0.0,1.0,812.2633251953125,1475.3233447265625)">  <path cy="7" fill="#000000" fill-rule="nonzero" stroke-opacity="1" cx="12" stroke-dasharray="none" r="5" stroke-width="2px" stroke-miterlimit="4" stroke-linecap="round" fill-opacity="1" stroke="none" stroke-linejoin="round" d="M61.858,26.511C61.858,35.574,54.51,42.922,45.447,42.922C36.383,42.922,29.035,35.574,29.035,26.511C29.035,17.447,36.383,10.099,45.447,10.099C54.51,10.099,61.858,17.447,61.858,26.511ZM66.908,26.511C66.908,14.658,57.299,5.05,45.447,5.05C33.594,5.05,23.986,14.658,23.986,26.511C23.986,38.363,33.594,47.971,45.447,47.971C57.299,47.971,66.908,38.363,66.908,26.511Z"/>
  <path stroke-miterlimit="4" fill-rule="nonzero" stroke="none" stroke-linejoin="round" fill="#000000" stroke-dasharray="none" stroke-linecap="round" stroke-opacity="1" fill-opacity="1" stroke-width="2px" d="M64.383,55.546L65.716,55.546C70.171,55.547,73.929,58.866,74.481,63.287L75.962,75.119C76.142,76.556,75.695,78.001,74.737,79.087C73.778,80.173,72.399,80.794,70.95,80.794L19.944,80.794C18.494,80.794,17.115,80.173,16.157,79.087C15.198,78.001,14.752,76.556,14.931,75.118L16.408,63.287C16.961,58.863,20.722,55.544,25.18,55.546L26.511,55.546C27.905,55.546,29.035,54.416,29.035,53.021C29.035,51.627,27.905,50.496,26.511,50.496L25.181,50.496C18.177,50.494,12.266,55.709,11.398,62.661L9.921,74.492C9.561,77.367,10.454,80.257,12.372,82.429C14.289,84.601,17.047,85.844,19.944,85.844L70.95,85.844C73.846,85.844,76.604,84.601,78.522,82.429C80.439,80.257,81.332,77.367,80.973,74.492L79.492,62.66C78.624,55.713,72.719,50.498,65.717,50.496L64.383,50.496C62.988,50.496,61.858,51.627,61.858,53.021C61.858,54.416,62.988,55.546,64.383,55.546Z"/>
</g>
  <g id="Ultralight-L" transform="matrix(1.0,0.0,0.0,1.0,515.5533251953125,1475.3233447265625)">  <path fill-opacity="1" r="5" cy="7" stroke-width="2px" stroke="none" stroke-linecap="round" stroke-miterlimit="4" stroke-dasharray="none" stroke-opacity="1" fill="#000000" cx="12" stroke-linejoin="round" fill-rule="nonzero" d="M62.489,26.511C62.489,35.923,54.859,43.553,45.447,43.553C36.034,43.553,28.404,35.923,28.404,26.511C28.404,17.098,36.034,9.468,45.447,9.468C54.859,9.468,62.489,17.098,62.489,26.511ZM66.276,26.511C66.276,15.007,56.951,5.681,45.447,5.681C33.943,5.681,24.617,15.007,24.617,26.511C24.617,38.015,33.943,47.34,45.447,47.34C56.951,47.34,66.276,38.015,66.276,26.511Z"/>
  <path stroke-width="2px" fill="#000000" stroke="none" stroke-dasharray="none" fill-opacity="1" stroke-opacity="1" fill-rule="nonzero" stroke-miterlimit="4" stroke-linejoin="round" stroke-linecap="round" d="M64.383,54.915L65.716,54.915C70.489,54.916,74.516,58.472,75.108,63.209L76.589,75.04C76.791,76.657,76.288,78.283,75.21,79.505C74.131,80.726,72.58,81.426,70.95,81.425L19.944,81.425C18.313,81.426,16.762,80.726,15.684,79.505C14.605,78.283,14.103,76.657,14.305,75.04L15.782,63.209C16.374,58.469,20.404,54.913,25.181,54.915L26.511,54.915C27.556,54.915,28.404,54.067,28.404,53.021C28.404,51.975,27.556,51.128,26.511,51.128L25.181,51.128C18.495,51.125,12.853,56.104,12.024,62.739L10.547,74.571C10.21,77.265,11.047,79.975,12.845,82.011C14.642,84.047,17.228,85.213,19.944,85.213L70.95,85.213C73.665,85.213,76.251,84.047,78.049,82.011C79.846,79.975,80.683,77.265,80.346,74.57L78.866,62.739C78.037,56.107,72.4,51.129,65.716,51.128L64.383,51.128C63.337,51.128,62.489,51.975,62.489,53.021C62.489,54.067,63.337,54.915,64.383,54.915Z"/>
</g>
  <g id="Black-M" transform="matrix(1.0,0.0,0.0,1.0,2899.45001953125,1055.5400390625)">  <path stroke-width="2px" stroke="none" cx="12" stroke-miterlimit="4" r="5" fill-rule="nonzero" stroke-linejoin="round" fill="#000000" stroke-opacity="1" cy="7" stroke-dasharray="none" stroke-linecap="round" fill-opacity="1" d="M43.421,20.551C43.421,25.075,39.754,28.742,35.23,28.742C30.706,28.742,27.039,25.075,27.039,20.551C27.039,16.027,30.706,12.36,35.23,12.36C39.754,12.36,43.421,16.027,43.421,20.551ZM56.397,20.551C56.397,8.86,46.92,-0.617,35.23,-0.617C23.54,-0.617,14.063,8.86,14.063,20.551C14.063,32.241,23.54,41.718,35.23,41.718C46.92,41.718,56.397,32.241,56.397,20.551Z"/>
  <path fill-opacity="1" fill-rule="nonzero" stroke-linecap="round" stroke="none" stroke-width="2px" stroke-opacity="1" fill="#000000" stroke-miterlimit="4" stroke-linejoin="round" stroke-dasharray="none" d="M49.909,47.59L50.943,47.59C52.11,47.59,53.096,48.461,53.241,49.622L54.39,58.794C54.367,58.618,54.422,58.441,54.539,58.309C54.656,58.176,54.824,58.1,55.001,58.1L15.46,58.1C15.636,58.1,15.804,58.176,15.921,58.309C16.038,58.441,16.093,58.618,16.071,58.793L17.216,49.621C17.361,48.461,18.348,47.589,19.518,47.59L20.551,47.59C24.134,47.59,27.039,44.685,27.039,41.102C27.039,37.518,24.134,34.613,20.551,34.613L19.52,34.613C11.806,34.61,5.296,40.356,4.339,48.012L3.194,57.185C2.755,60.702,3.847,64.24,6.194,66.898C8.541,69.555,11.916,71.077,15.462,71.076L55,71.076C58.544,71.077,61.919,69.555,64.266,66.898C66.613,64.24,67.705,60.702,67.266,57.184L66.118,48.011C65.161,40.359,58.657,34.616,50.944,34.613L49.909,34.613C46.326,34.613,43.421,37.518,43.421,41.102C43.421,44.685,46.326,47.59,49.909,47.59Z"/>
</g>
  <g id="Heavy-M" transform="matrix(1.0,0.0,0.0,1.0,2602.74001953125,1055.5400390625)">  <path cx="12" stroke="none" stroke-width="2px" fill-rule="nonzero" r="5" stroke-miterlimit="4" fill-opacity="1" stroke-linecap="round" cy="7" fill="#000000" stroke-linejoin="round" stroke-opacity="1" stroke-dasharray="none" d="M44.131,20.551C44.131,25.467,40.146,29.452,35.23,29.452C30.314,29.452,26.329,25.467,26.329,20.551C26.329,15.635,30.314,11.649,35.23,11.649C40.146,11.649,44.131,15.635,44.131,20.551ZM55.687,20.551C55.687,9.253,46.528,0.094,35.23,0.094C23.932,0.094,14.773,9.253,14.773,20.551C14.773,31.849,23.932,41.008,35.23,41.008C46.528,41.008,55.687,31.849,55.687,20.551Z"/>
  <path stroke-width="2px" fill-rule="nonzero" stroke-opacity="1" stroke-dasharray="none" fill-opacity="1" stroke-linecap="round" fill="#000000" stroke="none" stroke-linejoin="round" stroke-miterlimit="4" d="M49.909,46.879L50.943,46.879C52.469,46.88,53.757,48.018,53.946,49.533L55.095,58.706C55.098,58.732,55.089,58.759,55.072,58.779C55.054,58.799,55.028,58.811,55.001,58.811L15.46,58.811C15.432,58.811,15.406,58.799,15.388,58.779C15.371,58.759,15.362,58.732,15.366,58.705L16.511,49.533C16.7,48.017,17.99,46.879,19.518,46.879L20.551,46.879C23.742,46.879,26.329,44.293,26.329,41.102C26.329,37.911,23.742,35.324,20.551,35.324L19.52,35.324C12.165,35.321,5.957,40.799,5.044,48.101L3.899,57.273C3.485,60.588,4.515,63.922,6.726,66.427C8.938,68.932,12.12,70.367,15.461,70.366L55,70.366C58.34,70.367,61.522,68.932,63.733,66.427C65.945,63.922,66.975,60.588,66.561,57.272L65.413,48.099C64.501,40.803,58.298,35.326,50.944,35.324L49.909,35.324C46.718,35.324,44.131,37.911,44.131,41.102C44.131,44.293,46.718,46.879,49.909,46.879Z"/>
</g>
  <g id="Bold-M" transform="matrix(1.0,0.0,0.0,1.0,2306.0300195312498,1055.5400390625)">  <path r="5" cx="12" stroke="none" fill="#000000" fill-opacity="1" stroke-miterlimit="4" stroke-linejoin="round" stroke-width="2px" cy="7" stroke-dasharray="none" stroke-linecap="round" fill-rule="nonzero" stroke-opacity="1" d="M44.842,20.551C44.842,25.859,40.538,30.163,35.23,30.163C29.921,30.163,25.618,25.859,25.618,20.551C25.618,15.242,29.921,10.939,35.23,10.939C40.538,10.939,44.842,15.242,44.842,20.551ZM54.976,20.551C54.976,9.645,46.136,0.804,35.23,0.804C24.324,0.804,15.484,9.645,15.484,20.551C15.484,31.456,24.324,40.297,35.23,40.297C46.136,40.297,54.976,31.456,54.976,20.551Z"/>
  <path stroke-opacity="1" stroke="none" stroke-width="2px" fill="#000000" stroke-miterlimit="4" fill-opacity="1" stroke-dasharray="none" stroke-linejoin="round" fill-rule="nonzero" stroke-linecap="round" d="M49.909,46.169L50.943,46.169C52.827,46.169,54.418,47.574,54.651,49.445L55.799,58.618C55.828,58.846,55.757,59.076,55.604,59.249C55.451,59.422,55.232,59.521,55.001,59.521L15.46,59.521C15.228,59.521,15.009,59.422,14.856,59.249C14.703,59.076,14.632,58.846,14.661,58.617L15.806,49.445C16.04,47.573,17.632,46.168,19.518,46.169L20.551,46.169C23.349,46.169,25.618,43.9,25.618,41.102C25.618,38.303,23.349,36.034,20.551,36.034L19.52,36.034C12.523,36.032,6.617,41.243,5.749,48.189L4.604,57.361C4.215,60.474,5.182,63.605,7.259,65.957C9.336,68.309,12.323,69.656,15.461,69.656L55,69.656C58.137,69.656,61.124,68.309,63.201,65.957C65.278,63.605,66.245,60.474,65.856,57.36L64.708,48.188C63.84,41.247,57.94,36.036,50.944,36.034L49.909,36.034C47.111,36.034,44.842,38.303,44.842,41.102C44.842,43.9,47.111,46.169,49.909,46.169Z"/>
</g>
  <g id="Semibold-M" transform="matrix(1.0,0.0,0.0,1.0,2009.32001953125,1055.5400390625)">  <path r="5" cy="7" stroke-width="2px" stroke-opacity="1" fill-opacity="1" fill="#000000" stroke-linecap="round" cx="12" stroke="none" fill-rule="nonzero" stroke-miterlimit="4" stroke-linejoin="round" stroke-dasharray="none" d="M45.552,20.551C45.552,26.252,40.931,30.873,35.23,30.873C29.529,30.873,24.908,26.252,24.908,20.551C24.908,14.85,29.529,10.228,35.23,10.228C40.931,10.228,45.552,14.85,45.552,20.551ZM54.266,20.551C54.266,10.038,45.743,1.515,35.23,1.515C24.717,1.515,16.194,10.038,16.194,20.551C16.194,31.064,24.717,39.587,35.23,39.587C45.743,39.587,54.266,31.064,54.266,20.551Z"/>
  <path fill-rule="nonzero" stroke-width="2px" stroke-dasharray="none" stroke-miterlimit="4" fill="#000000" stroke="none" stroke-linejoin="round" stroke-opacity="1" stroke-linecap="round" fill-opacity="1" d="M49.909,45.458L50.943,45.458C53.186,45.459,55.078,47.13,55.356,49.357L56.504,58.53C56.558,58.96,56.424,59.394,56.137,59.719C55.849,60.045,55.435,60.232,55.001,60.232L15.46,60.232C15.025,60.232,14.611,60.045,14.323,59.719C14.036,59.394,13.902,58.96,13.956,58.529L15.101,49.357C15.379,47.129,17.273,45.458,19.519,45.458L20.551,45.458C22.957,45.458,24.908,43.508,24.908,41.102C24.908,38.695,22.957,36.745,20.551,36.745L19.52,36.745C12.881,36.742,7.278,41.687,6.454,48.277L5.309,57.449C4.945,60.36,5.85,63.287,7.792,65.487C9.734,67.686,12.527,68.946,15.461,68.945L55,68.945C57.933,68.946,60.726,67.686,62.668,65.487C64.61,63.287,65.514,60.36,65.151,57.448L64.003,48.276C63.18,41.69,57.582,36.747,50.944,36.745L49.909,36.745C47.503,36.745,45.552,38.695,45.552,41.102C45.552,43.508,47.503,45.458,49.909,45.458Z"/>
</g>
  <g id="Medium-M" transform="matrix(1.0,0.0,0.0,1.0,1712.61001953125,1055.5400390625)">  <path stroke-dasharray="none" fill-rule="nonzero" stroke-miterlimit="4" r="5" stroke="none" fill="#000000" cx="12" fill-opacity="1" stroke-width="2px" stroke-opacity="1" stroke-linejoin="round" stroke-linecap="round" cy="7" d="M46.263,20.551C46.263,26.644,41.323,31.584,35.23,31.584C29.137,31.584,24.197,26.644,24.197,20.551C24.197,14.458,29.137,9.518,35.23,9.518C41.323,9.518,46.263,14.458,46.263,20.551ZM53.555,20.551C53.555,10.43,45.351,2.225,35.23,2.225C25.109,2.225,16.905,10.43,16.905,20.551C16.905,30.672,25.109,38.876,35.23,38.876C45.351,38.876,53.555,30.672,53.555,20.551Z"/>
  <path fill-opacity="1" stroke-width="2px" stroke="none" stroke-linejoin="round" stroke-dasharray="none" stroke-opacity="1" fill="#000000" fill-rule="nonzero" stroke-linecap="round" stroke-miterlimit="4" d="M49.909,44.748L50.943,44.748C53.544,44.749,55.739,46.687,56.061,49.269L57.209,58.441C57.288,59.074,57.092,59.711,56.669,60.19C56.247,60.668,55.639,60.942,55.001,60.942L15.46,60.942C14.821,60.942,14.213,60.668,13.791,60.19C13.368,59.711,13.171,59.074,13.251,58.441L14.396,49.269C14.718,46.686,16.915,44.747,19.519,44.748L20.551,44.748C22.565,44.748,24.197,43.115,24.197,41.102C24.197,39.088,22.565,37.455,20.551,37.455L19.52,37.455C13.239,37.453,7.938,42.131,7.159,48.365L6.014,57.537C5.676,60.246,6.517,62.97,8.324,65.017C10.131,67.063,12.731,68.235,15.461,68.235L55,68.235C57.729,68.235,60.329,67.063,62.136,65.017C63.943,62.97,64.784,60.246,64.446,57.536L63.298,48.364C62.519,42.134,57.223,37.457,50.944,37.455L49.909,37.455C47.895,37.455,46.263,39.088,46.263,41.102C46.263,43.115,47.895,44.748,49.909,44.748Z"/>
</g>
  <g id="Regular-M" transform="matrix(1.0,0.0,0.0,1.0,1415.9000195312499,1055.5400390625)">  <path stroke-dasharray="none" stroke-miterlimit="4" fill-rule="nonzero" stroke-linecap="round" r="5" cx="12" stroke="none" stroke-linejoin="round" stroke-opacity="1" fill="#000000" cy="7" fill-opacity="1" stroke-width="2px" d="M46.973,20.551C46.973,27.036,41.716,32.294,35.23,32.294C28.744,32.294,23.487,27.036,23.487,20.551C23.487,14.065,28.744,8.807,35.23,8.807C41.716,8.807,46.973,14.065,46.973,20.551ZM52.845,20.551C52.845,10.822,44.958,2.936,35.23,2.936C25.501,2.936,17.615,10.822,17.615,20.551C17.615,30.279,25.501,38.166,35.23,38.166C44.958,38.166,52.845,30.279,52.845,20.551Z"/>
  <path stroke="none" fill-opacity="1" fill-rule="nonzero" stroke-linejoin="round" stroke-miterlimit="4" stroke-width="2px" stroke-dasharray="none" stroke-opacity="1" fill="#000000" stroke-linecap="round" d="M49.909,44.037L50.943,44.037C53.902,44.038,56.399,46.243,56.766,49.181L57.914,58.353C58.019,59.188,57.759,60.029,57.202,60.66C56.644,61.291,55.843,61.653,55.001,61.652L15.46,61.652C14.617,61.653,13.816,61.291,13.258,60.66C12.701,60.029,12.441,59.188,12.546,58.353L13.691,49.181C14.058,46.242,16.557,44.036,19.519,44.037L20.551,44.037C22.172,44.037,23.487,42.723,23.487,41.102C23.487,39.48,22.172,38.166,20.551,38.166L19.52,38.166C13.597,38.164,8.599,42.574,7.864,48.453L6.719,57.625C6.406,60.132,7.184,62.652,8.857,64.546C10.529,66.44,12.934,67.525,15.461,67.524L55,67.524C57.526,67.525,59.931,66.44,61.603,64.546C63.276,62.652,64.054,60.132,63.741,57.625L62.593,48.452C61.859,42.577,56.865,38.167,50.943,38.166L49.909,38.166C48.288,38.166,46.973,39.48,46.973,41.102C46.973,42.723,48.288,44.037,49.909,44.037Z"/>
</g>
  <g id="Light-M" transform="matrix(1.0,0.0,0.0,1.0,1119.19001953125,1055.5400390625)">  <path stroke-linecap="round" r="5" cx="12" fill-rule="nonzero" stroke-opacity="1" fill="#000000" stroke-miterlimit="4" stroke-dasharray="none" stroke="none" stroke-linejoin="round" cy="7" fill-opacity="1" stroke-width="2px" d="M47.463,20.551C47.463,27.307,41.986,32.783,35.23,32.783C28.474,32.783,22.997,27.307,22.997,20.551C22.997,13.795,28.474,8.318,35.23,8.318C41.986,8.318,47.463,13.795,47.463,20.551ZM52.356,20.551C52.356,11.093,44.688,3.425,35.23,3.425C25.772,3.425,18.104,11.093,18.104,20.551C18.104,30.009,25.772,37.677,35.23,37.677C44.688,37.677,52.356,30.009,52.356,20.551Z"/>
  <path stroke-linejoin="round" stroke="none" stroke-dasharray="none" fill="#000000" stroke-miterlimit="4" stroke-linecap="round" stroke-width="2px" stroke-opacity="1" fill-rule="nonzero" fill-opacity="1" d="M49.909,43.548L50.943,43.548C54.149,43.549,56.854,45.938,57.252,49.12L58.4,58.292C58.522,59.267,58.219,60.247,57.569,60.984C56.918,61.72,55.983,62.142,55,62.142L15.46,62.142C14.477,62.142,13.542,61.72,12.891,60.984C12.241,60.247,11.938,59.267,12.06,58.292L13.205,49.12C13.603,45.936,16.31,43.547,19.519,43.548L20.551,43.548C21.902,43.548,22.997,42.453,22.997,41.102C22.997,39.75,21.902,38.655,20.551,38.655L19.52,38.655C13.844,38.653,9.054,42.88,8.35,48.514L7.205,57.685C6.909,60.053,7.644,62.434,9.224,64.222C10.803,66.011,13.074,67.035,15.461,67.035L55,67.035C57.386,67.035,59.657,66.011,61.236,64.222C62.816,62.434,63.551,60.053,63.255,57.685L62.107,48.513C61.404,42.883,56.618,38.657,50.943,38.655L49.909,38.655C48.558,38.655,47.463,39.75,47.463,41.102C47.463,42.453,48.558,43.548,49.909,43.548Z"/>
</g>
  <g id="Thin-M" transform="matrix(1.0,0.0,0.0,1.0,822.48001953125,1055.5400390625)">  <path cy="7" fill="#000000" fill-rule="nonzero" stroke-opacity="1" cx="12" stroke-dasharray="none" r="5" stroke-width="2px" stroke-miterlimit="4" stroke-linecap="round" fill-opacity="1" stroke="none" stroke-linejoin="round" d="M47.952,20.551C47.952,27.577,42.256,33.273,35.23,33.273C28.204,33.273,22.508,27.577,22.508,20.551C22.508,13.525,28.204,7.829,35.23,7.829C42.256,7.829,47.952,13.525,47.952,20.551ZM51.866,20.551C51.866,11.363,44.418,3.914,35.23,3.914C26.042,3.914,18.594,11.363,18.594,20.551C18.594,29.739,26.042,37.187,35.23,37.187C44.418,37.187,51.866,29.739,51.866,20.551Z"/>
  <path stroke-miterlimit="4" fill-rule="nonzero" stroke="none" stroke-linejoin="round" fill="#000000" stroke-dasharray="none" stroke-linecap="round" stroke-opacity="1" fill-opacity="1" stroke-width="2px" d="M49.909,43.059L50.943,43.059C54.396,43.06,57.309,45.632,57.737,49.06L58.885,58.232C59.025,59.345,58.679,60.466,57.935,61.308C57.192,62.149,56.123,62.631,55,62.631L15.46,62.631C14.337,62.631,13.268,62.149,12.525,61.308C11.781,60.466,11.435,59.345,11.575,58.231L12.72,49.059C13.148,45.631,16.064,43.058,19.52,43.059L20.551,43.059C21.632,43.059,22.508,42.183,22.508,41.102C22.508,40.021,21.632,39.144,20.551,39.144L19.52,39.144C14.09,39.142,9.509,43.186,8.835,48.574L7.69,57.746C7.412,59.974,8.104,62.215,9.59,63.899C11.077,65.582,13.215,66.546,15.461,66.546L55,66.546C57.245,66.546,59.383,65.582,60.87,63.899C62.356,62.215,63.048,59.974,62.77,57.746L61.622,48.574C60.949,43.188,56.371,39.146,50.943,39.144L49.909,39.144C48.828,39.144,47.952,40.021,47.952,41.102C47.952,42.183,48.828,43.059,49.909,43.059Z"/>
</g>
  <g id="Ultralight-M" transform="matrix(1.0,0.0,0.0,1.0,525.77001953125,1055.5400390625)">  <path fill-opacity="1" r="5" cy="7" stroke-width="2px" stroke="none" stroke-linecap="round" stroke-miterlimit="4" stroke-dasharray="none" stroke-opacity="1" fill="#000000" cx="12" stroke-linejoin="round" fill-rule="nonzero" d="M48.441,20.551C48.441,27.847,42.526,33.762,35.23,33.762C27.934,33.762,22.019,27.847,22.019,20.551C22.019,13.254,27.934,7.34,35.23,7.34C42.526,7.34,48.441,13.254,48.441,20.551ZM51.377,20.551C51.377,11.633,44.148,4.404,35.23,4.404C26.312,4.404,19.083,11.633,19.083,20.551C19.083,29.469,26.312,36.698,35.23,36.698C44.148,36.698,51.377,29.469,51.377,20.551Z"/>
  <path stroke-width="2px" fill="#000000" stroke="none" stroke-dasharray="none" fill-opacity="1" stroke-opacity="1" fill-rule="nonzero" stroke-miterlimit="4" stroke-linejoin="round" stroke-linecap="round" d="M49.909,42.57L50.943,42.57C54.643,42.571,57.764,45.327,58.223,48.999L59.371,58.171C59.528,59.424,59.138,60.685,58.302,61.631C57.466,62.578,56.263,63.121,55,63.12L15.46,63.12C14.196,63.121,12.994,62.578,12.158,61.631C11.322,60.685,10.932,59.424,11.089,58.171L12.234,48.999C12.693,45.325,15.817,42.568,19.52,42.57L20.551,42.57C21.362,42.57,22.019,41.912,22.019,41.102C22.019,40.291,21.362,39.634,20.551,39.634L19.52,39.634C14.337,39.632,9.964,43.491,9.321,48.635L8.176,57.807C7.915,59.896,8.564,61.996,9.957,63.575C11.351,65.153,13.355,66.057,15.46,66.056L55,66.056C57.105,66.057,59.109,65.153,60.503,63.575C61.896,61.996,62.545,59.896,62.284,57.807L61.136,48.635C60.494,43.494,56.124,39.635,50.943,39.634L49.909,39.634C49.098,39.634,48.441,40.291,48.441,41.102C48.441,41.912,49.098,42.57,49.909,42.57Z"/>
</g>
  <g id="Black-S" transform="matrix(1.0,0.0,0.0,1.0,2907.0949252929686,633.1849448242187)">  <path stroke-width="2px" stroke="none" cx="12" stroke-miterlimit="4" r="5" fill-rule="nonzero" stroke-linejoin="round" fill="#000000" stroke-opacity="1" cy="7" stroke-dasharray="none" stroke-linecap="round" fill-opacity="1" d="M33.999,16.091C33.999,19.633,31.127,22.505,27.585,22.505C24.043,22.505,21.172,19.633,21.172,16.091C21.172,12.549,24.043,9.678,27.585,9.678C31.127,9.678,33.999,12.549,33.999,16.091ZM44.159,16.091C44.159,6.938,36.739,-0.483,27.585,-0.483C18.431,-0.483,11.011,6.938,11.011,16.091C11.011,25.245,18.431,32.665,27.585,32.665C36.739,32.665,44.159,25.245,44.159,16.091Z"/>
  <path fill-opacity="1" fill-rule="nonzero" stroke-linecap="round" stroke="none" stroke-width="2px" stroke-opacity="1" fill="#000000" stroke-miterlimit="4" stroke-linejoin="round" stroke-dasharray="none" d="M39.079,37.263L39.888,37.263C40.802,37.263,41.575,37.945,41.688,38.854L42.587,46.036C42.57,45.898,42.612,45.759,42.704,45.656C42.796,45.552,42.928,45.492,43.066,45.492L12.105,45.492C12.243,45.492,12.374,45.552,12.466,45.656C12.558,45.759,12.6,45.898,12.583,46.035L13.48,38.853C13.593,37.945,14.366,37.262,15.282,37.263L16.091,37.263C18.897,37.263,21.172,34.988,21.172,32.183C21.172,29.377,18.897,27.102,16.091,27.102L15.284,27.102C9.244,27.1,4.147,31.598,3.398,37.594L2.501,44.776C2.157,47.53,3.012,50.3,4.85,52.381C6.687,54.462,9.33,55.653,12.106,55.653L43.065,55.653C45.84,55.653,48.483,54.462,50.32,52.381C52.158,50.3,53.013,47.53,52.669,44.775L51.77,37.593C51.021,31.601,45.928,27.104,39.889,27.102L39.079,27.102C36.273,27.102,33.999,29.377,33.999,32.183C33.999,34.988,36.273,37.263,39.079,37.263Z"/>
</g>
  <g id="Heavy-S" transform="matrix(1.0,0.0,0.0,1.0,2610.3849252929685,633.1849448242187)">  <path cx="12" stroke="none" stroke-width="2px" fill-rule="nonzero" r="5" stroke-miterlimit="4" fill-opacity="1" stroke-linecap="round" cy="7" fill="#000000" stroke-linejoin="round" stroke-opacity="1" stroke-dasharray="none" d="M34.555,16.091C34.555,19.941,31.434,23.061,27.585,23.061C23.736,23.061,20.615,19.941,20.615,16.091C20.615,12.242,23.736,9.121,27.585,9.121C31.434,9.121,34.555,12.242,34.555,16.091ZM43.603,16.091C43.603,7.245,36.431,0.074,27.585,0.074C18.739,0.074,11.567,7.245,11.567,16.091C11.567,24.938,18.739,32.109,27.585,32.109C36.431,32.109,43.603,24.938,43.603,16.091Z"/>
  <path stroke-width="2px" fill-rule="nonzero" stroke-opacity="1" stroke-dasharray="none" fill-opacity="1" stroke-linecap="round" fill="#000000" stroke="none" stroke-linejoin="round" stroke-miterlimit="4" d="M39.079,36.707L39.888,36.707C41.083,36.707,42.092,37.598,42.24,38.785L43.139,45.967C43.142,45.987,43.135,46.008,43.121,46.024C43.107,46.04,43.087,46.049,43.066,46.049L12.105,46.049C12.083,46.049,12.063,46.04,12.049,46.024C12.035,46.008,12.029,45.987,12.031,45.966L12.928,38.784C13.076,37.597,14.086,36.706,15.283,36.707L16.091,36.707C18.59,36.707,20.615,34.681,20.615,32.183C20.615,29.684,18.59,27.659,16.091,27.659L15.284,27.659C9.525,27.656,4.664,31.946,3.95,37.663L3.053,44.845C2.729,47.44,3.535,50.051,5.267,52.013C6.999,53.974,9.49,55.097,12.106,55.097L43.065,55.097C45.681,55.097,48.171,53.974,49.903,52.013C51.635,50.051,52.441,47.44,52.117,44.844L51.218,37.662C50.504,31.949,45.648,27.66,39.889,27.659L39.079,27.659C36.58,27.659,34.555,29.684,34.555,32.183C34.555,34.681,36.58,36.707,39.079,36.707Z"/>
</g>
  <g id="Bold-S" transform="matrix(1.0,0.0,0.0,1.0,2313.6749252929685,633.1849448242187)">  <path r="5" cx="12" stroke="none" fill="#000000" fill-opacity="1" stroke-miterlimit="4" stroke-linejoin="round" stroke-width="2px" cy="7" stroke-dasharray="none" stroke-linecap="round" fill-rule="nonzero" stroke-opacity="1" d="M35.111,16.091C35.111,20.248,31.742,23.617,27.585,23.617C23.429,23.617,20.059,20.248,20.059,16.091C20.059,11.935,23.429,8.565,27.585,8.565C31.742,8.565,35.111,11.935,35.111,16.091ZM43.047,16.091C43.047,7.552,36.124,0.63,27.585,0.63C19.046,0.63,12.124,7.552,12.124,16.091C12.124,24.63,19.046,31.553,27.585,31.553C36.124,31.553,43.047,24.63,43.047,16.091Z"/>
  <path stroke-opacity="1" stroke="none" stroke-width="2px" fill="#000000" stroke-miterlimit="4" fill-opacity="1" stroke-dasharray="none" stroke-linejoin="round" fill-rule="nonzero" stroke-linecap="round" d="M39.079,36.15L39.888,36.15C41.364,36.151,42.609,37.25,42.792,38.716L43.691,45.898C43.713,46.076,43.658,46.257,43.538,46.392C43.418,46.527,43.246,46.605,43.066,46.605L12.105,46.605C11.924,46.605,11.752,46.527,11.632,46.392C11.513,46.257,11.457,46.076,11.479,45.897L12.376,38.715C12.559,37.25,13.805,36.15,15.283,36.15L16.091,36.15C18.283,36.15,20.059,34.374,20.059,32.183C20.059,29.991,18.283,28.215,16.091,28.215L15.284,28.215C9.805,28.213,5.181,32.293,4.502,37.732L3.605,44.914C3.301,47.351,4.058,49.803,5.684,51.644C7.31,53.486,9.649,54.541,12.106,54.54L43.065,54.54C45.521,54.541,47.86,53.486,49.486,51.644C51.113,49.803,51.87,47.351,51.565,44.913L50.666,37.731C49.987,32.296,45.367,28.216,39.889,28.215L39.079,28.215C36.888,28.215,35.111,29.991,35.111,32.183C35.111,34.374,36.888,36.15,39.079,36.15Z"/>
</g>
  <g id="Semibold-S" transform="matrix(1.0,0.0,0.0,1.0,2016.9649252929687,633.1849448242187)">  <path r="5" cy="7" stroke-width="2px" stroke-opacity="1" fill-opacity="1" fill="#000000" stroke-linecap="round" cx="12" stroke="none" fill-rule="nonzero" stroke-miterlimit="4" stroke-linejoin="round" stroke-dasharray="none" d="M35.668,16.091C35.668,20.555,32.049,24.174,27.585,24.174C23.121,24.174,19.503,20.555,19.503,16.091C19.503,11.627,23.121,8.009,27.585,8.009C32.049,8.009,35.668,11.627,35.668,16.091ZM42.49,16.091C42.49,7.859,35.817,1.186,27.585,1.186C19.353,1.186,12.68,7.859,12.68,16.091C12.68,24.323,19.353,30.996,27.585,30.996C35.817,30.996,42.49,24.323,42.49,16.091Z"/>
  <path fill-rule="nonzero" stroke-width="2px" stroke-dasharray="none" stroke-miterlimit="4" fill="#000000" stroke="none" stroke-linejoin="round" stroke-opacity="1" stroke-linecap="round" fill-opacity="1" d="M39.079,35.594L39.888,35.594C41.644,35.594,43.126,36.903,43.344,38.647L44.243,45.829C44.285,46.166,44.18,46.505,43.955,46.76C43.73,47.015,43.406,47.161,43.066,47.161L12.105,47.161C11.764,47.161,11.44,47.015,11.215,46.76C10.99,46.505,10.885,46.166,10.927,45.828L11.824,38.646C12.042,36.902,13.525,35.593,15.283,35.594L16.091,35.594C17.975,35.594,19.503,34.067,19.503,32.183C19.503,30.299,17.975,28.771,16.091,28.771L15.284,28.771C10.086,28.769,5.699,32.641,5.054,37.801L4.157,44.982C3.872,47.262,4.58,49.554,6.101,51.276C7.622,52.998,9.809,53.984,12.106,53.984L43.065,53.984C45.362,53.984,47.549,52.998,49.069,51.276C50.59,49.554,51.298,47.262,51.013,44.982L50.114,37.8C49.47,32.643,45.086,28.773,39.889,28.771L39.079,28.771C37.195,28.771,35.668,30.299,35.668,32.183C35.668,34.067,37.195,35.594,39.079,35.594Z"/>
</g>
  <g id="Medium-S" transform="matrix(1.0,0.0,0.0,1.0,1720.2549252929687,633.1849448242187)">  <path stroke-dasharray="none" fill-rule="nonzero" stroke-miterlimit="4" r="5" stroke="none" fill="#000000" cx="12" fill-opacity="1" stroke-width="2px" stroke-opacity="1" stroke-linejoin="round" stroke-linecap="round" cy="7" d="M36.224,16.091C36.224,20.862,32.356,24.73,27.585,24.73C22.814,24.73,18.946,20.862,18.946,16.091C18.946,11.32,22.814,7.453,27.585,7.453C32.356,7.453,36.224,11.32,36.224,16.091ZM41.934,16.091C41.934,8.167,35.51,1.742,27.585,1.742C19.66,1.742,13.236,8.167,13.236,16.091C13.236,24.016,19.66,30.44,27.585,30.44C35.51,30.44,41.934,24.016,41.934,16.091Z"/>
  <path fill-opacity="1" stroke-width="2px" stroke="none" stroke-linejoin="round" stroke-dasharray="none" stroke-opacity="1" fill="#000000" fill-rule="nonzero" stroke-linecap="round" stroke-miterlimit="4" d="M39.079,35.038L39.888,35.038C41.925,35.038,43.643,36.556,43.896,38.578L44.795,45.76C44.857,46.255,44.703,46.754,44.372,47.128C44.041,47.503,43.565,47.718,43.066,47.718L12.105,47.718C11.605,47.718,11.129,47.503,10.798,47.128C10.467,46.754,10.313,46.255,10.375,45.759L11.272,38.577C11.525,36.555,13.245,35.037,15.283,35.038L16.091,35.038C17.668,35.038,18.946,33.759,18.946,32.183C18.946,30.606,17.668,29.328,16.091,29.328L15.284,29.328C10.366,29.326,6.216,32.988,5.606,37.87L4.709,45.051C4.444,47.172,5.103,49.305,6.518,50.908C7.933,52.51,9.968,53.428,12.106,53.428L43.065,53.428C45.202,53.428,47.237,52.51,48.652,50.908C50.067,49.305,50.726,47.172,50.461,45.051L49.562,37.869C48.952,32.991,44.806,29.329,39.889,29.328L39.079,29.328C37.502,29.328,36.224,30.606,36.224,32.183C36.224,33.759,37.502,35.038,39.079,35.038Z"/>
</g>
  <g id="Regular-S" transform="matrix(1.0,0.0,0.0,1.0,1423.5449252929686,633.1849448242187)">  <path stroke-dasharray="none" stroke-miterlimit="4" fill-rule="nonzero" stroke-linecap="round" r="5" cx="12" stroke="none" stroke-linejoin="round" stroke-opacity="1" fill="#000000" cy="7" fill-opacity="1" stroke-width="2px" d="M36.78,16.091C36.78,21.17,32.663,25.286,27.585,25.286C22.507,25.286,18.39,21.17,18.39,16.091C18.39,11.013,22.507,6.896,27.585,6.896C32.663,6.896,36.78,11.013,36.78,16.091ZM41.378,16.091C41.378,8.474,35.202,2.299,27.585,2.299C19.968,2.299,13.793,8.474,13.793,16.091C13.793,23.709,19.968,29.884,27.585,29.884C35.202,29.884,41.378,23.709,41.378,16.091Z"/>
  <path stroke="none" fill-opacity="1" fill-rule="nonzero" stroke-linejoin="round" stroke-miterlimit="4" stroke-width="2px" stroke-dasharray="none" stroke-opacity="1" fill="#000000" stroke-linecap="round" d="M39.079,34.481L39.888,34.481C42.206,34.482,44.161,36.208,44.448,38.509L45.347,45.691C45.429,46.344,45.226,47.002,44.789,47.497C44.353,47.991,43.725,48.274,43.065,48.274L12.105,48.274C11.445,48.274,10.818,47.991,10.381,47.497C9.945,47.002,9.741,46.344,9.823,45.69L10.72,38.508C11.007,36.207,12.964,34.48,15.284,34.481L16.091,34.481C17.361,34.481,18.39,33.452,18.39,32.183C18.39,30.913,17.361,29.884,16.091,29.884L15.284,29.884C10.647,29.882,6.733,33.336,6.158,37.939L5.261,45.12C5.016,47.083,5.625,49.057,6.935,50.54C8.244,52.023,10.127,52.872,12.106,52.871L43.065,52.871C45.043,52.872,46.926,52.023,48.235,50.54C49.545,49.057,50.154,47.083,49.909,45.12L49.01,37.938C48.435,33.338,44.525,29.885,39.889,29.884L39.079,29.884C37.809,29.884,36.78,30.913,36.78,32.183C36.78,33.452,37.809,34.481,39.079,34.481Z"/>
</g>
  <g id="Light-S" transform="matrix(1.0,0.0,0.0,1.0,1126.8349252929688,633.1849448242187)">  <path stroke-linecap="round" r="5" cx="12" fill-rule="nonzero" stroke-opacity="1" fill="#000000" stroke-miterlimit="4" stroke-dasharray="none" stroke="none" stroke-linejoin="round" cy="7" fill-opacity="1" stroke-width="2px" d="M37.163,16.091C37.163,21.381,32.875,25.669,27.585,25.669C22.295,25.669,18.007,21.381,18.007,16.091C18.007,10.801,22.295,6.513,27.585,6.513C32.875,6.513,37.163,10.801,37.163,16.091ZM40.994,16.091C40.994,8.685,34.991,2.682,27.585,2.682C20.179,2.682,14.176,8.685,14.176,16.091C14.176,23.497,20.179,29.501,27.585,29.501C34.991,29.501,40.994,23.497,40.994,16.091Z"/>
  <path stroke-linejoin="round" stroke="none" stroke-dasharray="none" fill="#000000" stroke-miterlimit="4" stroke-linecap="round" stroke-width="2px" stroke-opacity="1" fill-rule="nonzero" fill-opacity="1" d="M39.079,34.098L39.888,34.098C42.399,34.099,44.517,35.969,44.828,38.461L45.727,45.643C45.822,46.406,45.585,47.174,45.076,47.75C44.567,48.327,43.835,48.657,43.065,48.657L12.105,48.657C11.336,48.657,10.603,48.327,10.094,47.75C9.585,47.174,9.348,46.406,9.443,45.643L10.34,38.461C10.651,35.968,12.771,34.097,15.284,34.098L16.091,34.098C17.149,34.098,18.007,33.241,18.007,32.183C18.007,31.125,17.149,30.267,16.091,30.267L15.284,30.267C10.84,30.265,7.089,33.575,6.538,37.986L5.641,45.168C5.41,47.021,5.985,48.886,7.222,50.286C8.459,51.687,10.237,52.489,12.106,52.488L43.065,52.488C44.933,52.489,46.711,51.687,47.948,50.286C49.185,48.886,49.76,47.021,49.529,45.167L48.63,37.986C48.079,33.577,44.332,30.268,39.889,30.267L39.079,30.267C38.021,30.267,37.163,31.125,37.163,32.183C37.163,33.241,38.021,34.098,39.079,34.098Z"/>
</g>
  <g id="Thin-S" transform="matrix(1.0,0.0,0.0,1.0,830.1249252929688,633.1849448242187)">  <path cy="7" fill="#000000" fill-rule="nonzero" stroke-opacity="1" cx="12" stroke-dasharray="none" r="5" stroke-width="2px" stroke-miterlimit="4" stroke-linecap="round" fill-opacity="1" stroke="none" stroke-linejoin="round" d="M37.546,16.091C37.546,21.593,33.087,26.053,27.585,26.053C22.084,26.053,17.624,21.593,17.624,16.091C17.624,10.59,22.084,6.13,27.585,6.13C33.087,6.13,37.546,10.59,37.546,16.091ZM40.611,16.091C40.611,8.897,34.779,3.065,27.585,3.065C20.391,3.065,14.559,8.897,14.559,16.091C14.559,23.286,20.391,29.118,27.585,29.118C34.779,29.118,40.611,23.286,40.611,16.091Z"/>
  <path stroke-miterlimit="4" fill-rule="nonzero" stroke="none" stroke-linejoin="round" fill="#000000" stroke-dasharray="none" stroke-linecap="round" stroke-opacity="1" fill-opacity="1" stroke-width="2px" d="M39.079,33.715L39.888,33.715C42.592,33.716,44.873,35.73,45.208,38.414L46.107,45.595C46.216,46.468,45.945,47.345,45.363,48.004C44.781,48.663,43.944,49.04,43.065,49.04L12.105,49.04C11.226,49.04,10.389,48.663,9.807,48.004C9.225,47.345,8.954,46.468,9.063,45.595L9.959,38.414C10.295,35.729,12.578,33.714,15.284,33.715L16.091,33.715C16.938,33.715,17.624,33.029,17.624,32.183C17.624,31.336,16.938,30.65,16.091,30.65L15.284,30.65C11.033,30.648,7.445,33.814,6.918,38.034L6.022,45.215C5.803,46.96,6.345,48.714,7.509,50.033C8.673,51.351,10.347,52.106,12.106,52.105L43.065,52.105C44.823,52.106,46.497,51.351,47.661,50.033C48.825,48.714,49.367,46.96,49.149,45.215L48.25,38.033C47.723,33.816,44.138,30.651,39.888,30.65L39.079,30.65C38.232,30.65,37.546,31.336,37.546,32.183C37.546,33.029,38.232,33.715,39.079,33.715Z"/>
</g>
  <g id="Ultralight-S" transform="matrix(1.0,0.0,0.0,1.0,533.4149252929687,633.1849448242187)">  <path fill-opacity="1" r="5" cy="7" stroke-width="2px" stroke="none" stroke-linecap="round" stroke-miterlimit="4" stroke-dasharray="none" stroke-opacity="1" fill="#000000" cx="12" stroke-linejoin="round" fill-rule="nonzero" d="M37.929,16.091C37.929,21.804,33.298,26.436,27.585,26.436C21.872,26.436,17.241,21.804,17.241,16.091C17.241,10.378,21.872,5.747,27.585,5.747C33.298,5.747,37.929,10.378,37.929,16.091ZM40.228,16.091C40.228,9.109,34.568,3.448,27.585,3.448C20.602,3.448,14.942,9.109,14.942,16.091C14.942,23.074,20.602,28.734,27.585,28.734C34.568,28.734,40.228,23.074,40.228,16.091Z"/>
  <path stroke-width="2px" fill="#000000" stroke="none" stroke-dasharray="none" fill-opacity="1" stroke-opacity="1" fill-rule="nonzero" stroke-miterlimit="4" stroke-linejoin="round" stroke-linecap="round" d="M39.079,33.332L39.888,33.332C42.785,33.333,45.229,35.491,45.589,38.366L46.487,45.548C46.61,46.529,46.305,47.516,45.651,48.257C44.996,48.999,44.054,49.423,43.065,49.423L12.105,49.423C11.116,49.423,10.174,48.999,9.52,48.257C8.865,47.516,8.56,46.529,8.683,45.548L9.579,38.366C9.939,35.489,12.385,33.331,15.284,33.332L16.091,33.332C16.726,33.332,17.241,32.817,17.241,32.183C17.241,31.548,16.726,31.033,16.091,31.033L15.284,31.033C11.226,31.032,7.802,34.054,7.298,38.081L6.402,45.263C6.197,46.898,6.705,48.543,7.796,49.779C8.888,51.015,10.457,51.722,12.106,51.722L43.065,51.722C44.713,51.722,46.283,51.015,47.374,49.779C48.465,48.543,48.973,46.898,48.768,45.263L47.87,38.081C47.367,34.056,43.945,31.034,39.888,31.033L39.079,31.033C38.444,31.033,37.929,31.548,37.929,32.183C37.929,32.817,38.444,33.332,39.079,33.332Z"/>
</g>
 </g>
</svg>
