<?xml version="1.0" encoding="UTF-8"?>
<!-- Generator: CustomSymbols v2.6.2.41 by @serious_bret https://bretlester.com/app_content/CustomSymbols/ -->
<!-- Guides: Left/Right 0.0/0.0 Cap/Base 0.0/0.0 -->
<!-- Settings: RefScale 1.0 Min/Max Stroke Scales 0.5/2.21 -->
<!DOCTYPE svg
PUBLIC "-//W3C//DTD SVG 1.1//EN"
       "http://www.w3.org/Graphics/SVG/1.1/DTD/svg11.dtd">
<svg version="1.1" xmlns="http://www.w3.org/2000/svg" xmlns:xlink="http://www.w3.org/1999/xlink" width="3300" height="2200">
<![CDATA[<svg width="40" height="40" viewBox="0 0 40 40" fill="none" xmlns="http://www.w3.org/2000/svg">
<path d="M26.9833 3.33333H13.0166C6.94992 3.33333 3.33325 6.94999 3.33325 13.0167V26.9833C3.33325 33.05 6.94992 36.6667 13.0166 36.6667H26.9833C33.0499 36.6667 36.6666 33.05 36.6666 26.9833V13.0167C36.6666 6.94999 33.0499 3.33333 26.9833 3.33333ZM16.6166 24.8333L12.8666 28.5833C12.6166 28.8333 12.2999 28.95 11.9833 28.95C11.6666 28.95 11.3333 28.8333 11.0999 28.5833L9.84992 27.3333C9.34992 26.85 9.34992 26.05 9.84992 25.5667C10.3333 25.0833 11.1166 25.0833 11.6166 25.5667L11.9833 25.9333L14.8499 23.0667C15.3333 22.5833 16.1166 22.5833 16.6166 23.0667C17.0999 23.55 17.0999 24.35 16.6166 24.8333ZM16.6166 13.1667L12.8666 16.9167C12.6166 17.1667 12.2999 17.2833 11.9833 17.2833C11.6666 17.2833 11.3333 17.1667 11.0999 16.9167L9.84992 15.6667C9.34992 15.1833 9.34992 14.3833 9.84992 13.9C10.3333 13.4167 11.1166 13.4167 11.6166 13.9L11.9833 14.2667L14.8499 11.4C15.3333 10.9167 16.1166 10.9167 16.6166 11.4C17.0999 11.8833 17.0999 12.6833 16.6166 13.1667ZM29.2666 27.7H20.5166C19.8333 27.7 19.2666 27.1333 19.2666 26.45C19.2666 25.7667 19.8333 25.2 20.5166 25.2H29.2666C29.9666 25.2 30.5166 25.7667 30.5166 26.45C30.5166 27.1333 29.9666 27.7 29.2666 27.7ZM29.2666 16.0333H20.5166C19.8333 16.0333 19.2666 15.4667 19.2666 14.7833C19.2666 14.1 19.8333 13.5333 20.5166 13.5333H29.2666C29.9666 13.5333 30.5166 14.1 30.5166 14.7833C30.5166 15.4667 29.9666 16.0333 29.2666 16.0333Z" fill="#B30000"/>
</svg>
]]>
 <g id="Notes">
  <rect height="2200" id="artboard" style="fill:white;opacity:1" width="3300" x="0" y="0"/>
  <line id="" style="fill:none;stroke:black;opacity:1;stroke-width:0.5;" x1="263" x2="3036" y1="292" y2="292"/>
  <text id="reftext1" style="stroke:none;fill:black;font-family:-apple-system,&quot;SF Pro Display&quot;,&quot;SF Pro Text&quot;,Helvetica,sans-serif;font-weight:bold;" transform="matrix(1 0 0 1 263 322)">Weight/Scale Variations</text>
  <text id="reftext2" style="stroke:none;fill:black;font-family:-apple-system,&quot;SF Pro Display&quot;,&quot;SF Pro Text&quot;,Helvetica,sans-serif;text-anchor:middle;" transform="matrix(1 0 0 1 559.711 322)">Ultralight</text>
  <text style="stroke:none;fill:black;font-family:-apple-system,&quot;SF Pro Display&quot;,&quot;SF Pro Text&quot;,Helvetica,sans-serif;text-anchor:middle;" transform="matrix(1 0 0 1 856.422 322)">Thin</text>
  <text style="stroke:none;fill:black;font-family:-apple-system,&quot;SF Pro Display&quot;,&quot;SF Pro Text&quot;,Helvetica,sans-serif;text-anchor:middle;" transform="matrix(1 0 0 1 1153.13 322)">Light</text>
  <text style="stroke:none;fill:black;font-family:-apple-system,&quot;SF Pro Display&quot;,&quot;SF Pro Text&quot;,Helvetica,sans-serif;text-anchor:middle;" transform="matrix(1 0 0 1 1449.84 322)">Regular</text>
  <text style="stroke:none;fill:black;font-family:-apple-system,&quot;SF Pro Display&quot;,&quot;SF Pro Text&quot;,Helvetica,sans-serif;text-anchor:middle;" transform="matrix(1 0 0 1 1746.56 322)">Medium</text>
  <text style="stroke:none;fill:black;font-family:-apple-system,&quot;SF Pro Display&quot;,&quot;SF Pro Text&quot;,Helvetica,sans-serif;text-anchor:middle;" transform="matrix(1 0 0 1 2043.27 322)">Semibold</text>
  <text style="stroke:none;fill:black;font-family:-apple-system,&quot;SF Pro Display&quot;,&quot;SF Pro Text&quot;,Helvetica,sans-serif;text-anchor:middle;" transform="matrix(1 0 0 1 2339.98 322)">Bold</text>
  <text style="stroke:none;fill:black;font-family:-apple-system,&quot;SF Pro Display&quot;,&quot;SF Pro Text&quot;,Helvetica,sans-serif;text-anchor:middle;" transform="matrix(1 0 0 1 2636.69 322)">Heavy</text>
  <text style="stroke:none;fill:black;font-family:-apple-system,&quot;SF Pro Display&quot;,&quot;SF Pro Text&quot;,Helvetica,sans-serif;text-anchor:middle;" transform="matrix(1 0 0 1 2933.4 322)">Black</text>
  <line id="" style="fill:none;stroke:black;opacity:1;stroke-width:0.5;" x1="263" x2="3036" y1="1903" y2="1903"/>
  <g id="" transform="matrix(1 0 0 1 263 1933)">
   <path d="M9.24805 0.830078C13.5547 0.830078 17.1387-2.74414 17.1387-7.05078C17.1387-11.3574 13.5449-14.9316 9.23828-14.9316C4.94141-14.9316 1.36719-11.3574 1.36719-7.05078C1.36719-2.74414 4.95117 0.830078 9.24805 0.830078ZM9.24805-0.654297C5.70312-0.654297 2.87109-3.49609 2.87109-7.05078C2.87109-10.6055 5.69336-13.4473 9.23828-13.4473C12.793-13.4473 15.6348-10.6055 15.6445-7.05078C15.6543-3.49609 12.8027-0.654297 9.24805-0.654297ZM6.39648-6.31836L8.50586-6.31836L8.50586-4.19922C8.50586-3.75977 8.79883-3.45703 9.22852-3.45703C9.67773-3.45703 9.9707-3.75977 9.9707-4.19922L9.9707-6.31836L12.0996-6.31836C12.5391-6.31836 12.8418-6.61133 12.8418-7.04102C12.8418-7.48047 12.5391-7.7832 12.0996-7.7832L9.9707-7.7832L9.9707-9.89258C9.9707-10.3418 9.67773-10.6445 9.22852-10.6445C8.79883-10.6445 8.50586-10.3418 8.50586-9.89258L8.50586-7.7832L6.39648-7.7832C5.94727-7.7832 5.64453-7.48047 5.64453-7.04102C5.64453-6.61133 5.94727-6.31836 6.39648-6.31836Z"/>
  </g>
  <g id="" transform="matrix(1 0 0 1 281.506 1933)">
   <path d="M11.709 2.91016C17.1582 2.91016 21.6699-1.61133 21.6699-7.05078C21.6699-12.5 17.1484-17.0117 11.6992-17.0117C6.25977-17.0117 1.74805-12.5 1.74805-7.05078C1.74805-1.61133 6.26953 2.91016 11.709 2.91016ZM11.709 1.25C7.09961 1.25 3.41797-2.44141 3.41797-7.05078C3.41797-11.6602 7.08984-15.3516 11.6992-15.3516C16.3086-15.3516 20-11.6602 20.0098-7.05078C20.0195-2.44141 16.3184 1.25 11.709 1.25ZM7.98828-6.23047L10.8789-6.23047L10.8789-3.32031C10.8789-2.83203 11.2109-2.5 11.6895-2.5C12.1777-2.5 12.5195-2.83203 12.5195-3.32031L12.5195-6.23047L15.4297-6.23047C15.918-6.23047 16.25-6.5625 16.25-7.04102C16.25-7.5293 15.918-7.87109 15.4297-7.87109L12.5195-7.87109L12.5195-10.7617C12.5195-11.2695 12.1777-11.6016 11.6895-11.6016C11.2109-11.6016 10.8789-11.2598 10.8789-10.7617L10.8789-7.87109L7.98828-7.87109C7.48047-7.87109 7.14844-7.5293 7.14844-7.04102C7.14844-6.5625 7.49023-6.23047 7.98828-6.23047Z"/>
  </g>
  <g id="" transform="matrix(1 0 0 1 304.924 1933)">
   <path d="M14.9707 5.66406C21.9336 5.66406 27.6953-0.0976562 27.6953-7.05078C27.6953-14.0137 21.9238-19.7754 14.9609-19.7754C8.00781-19.7754 2.25586-14.0137 2.25586-7.05078C2.25586-0.0976562 8.01758 5.66406 14.9707 5.66406ZM14.9707 3.84766C8.93555 3.84766 4.08203-1.01562 4.08203-7.05078C4.08203-13.0957 8.92578-17.9492 14.9609-17.9492C21.0059-17.9492 25.8594-13.0957 25.8691-7.05078C25.8789-1.01562 21.0156 3.84766 14.9707 3.84766ZM10.0586-6.14258L14.0625-6.14258L14.0625-2.12891C14.0625-1.5918 14.4336-1.2207 14.9512-1.2207C15.4883-1.2207 15.8594-1.5918 15.8594-2.12891L15.8594-6.14258L19.8828-6.14258C20.4102-6.14258 20.791-6.51367 20.791-7.03125C20.791-7.56836 20.4199-7.94922 19.8828-7.94922L15.8594-7.94922L15.8594-11.9531C15.8594-12.5098 15.4883-12.8809 14.9512-12.8809C14.4336-12.8809 14.0625-12.5 14.0625-11.9531L14.0625-7.94922L10.0586-7.94922C9.50195-7.94922 9.13086-7.56836 9.13086-7.03125C9.13086-6.51367 9.51172-6.14258 10.0586-6.14258Z"/>
  </g>
  <text style="stroke:none;fill:black;font-family:-apple-system,&quot;SF Pro Display&quot;,&quot;SF Pro Text&quot;,Helvetica,sans-serif;font-weight:bold;" transform="matrix(1 0 0 1 263 1953)">Design Variations</text>
  <text style="stroke:none;fill:black;font-family:-apple-system,&quot;SF Pro Display&quot;,&quot;SF Pro Text&quot;,Helvetica,sans-serif;" transform="matrix(1 0 0 1 263 1971)">Symbols are supported in up to nine weights and three scales.</text>
  <text style="stroke:none;fill:black;font-family:-apple-system,&quot;SF Pro Display&quot;,&quot;SF Pro Text&quot;,Helvetica,sans-serif;" transform="matrix(1 0 0 1 263 1989)">For optimal layout with text and other symbols, vertically align</text>
  <text style="stroke:none;fill:black;font-family:-apple-system,&quot;SF Pro Display&quot;,&quot;SF Pro Text&quot;,Helvetica,sans-serif;" transform="matrix(1 0 0 1 263 2007)">symbols with the adjacent text.</text>
  <line id="" style="fill:none;stroke:#00AEEF;stroke-width:0.5;opacity:1.0;" x1="776" x2="776" y1="1919" y2="1933"/>
  <g id="" transform="matrix(1 0 0 1 776 1933)">
   <path d="M3.31055 0.126953C3.82812 0.126953 4.08203-0.0683594 4.26758-0.605469L5.52734-4.0625L11.2891-4.0625L12.5488-0.605469C12.7344-0.0683594 12.9883 0.126953 13.4961 0.126953C14.0137 0.126953 14.3457-0.185547 14.3457-0.673828C14.3457-0.839844 14.3164-0.986328 14.2383-1.20117L9.6582-13.3887C9.43359-13.9941 9.0332-14.2871 8.4082-14.2871C7.80273-14.2871 7.39258-13.9941 7.17773-13.3984L2.59766-1.19141C2.51953-0.976562 2.49023-0.830078 2.49023-0.664062C2.49023-0.175781 2.80273 0.126953 3.31055 0.126953ZM6.00586-5.53711L8.37891-12.1094L8.42773-12.1094L10.8008-5.53711Z"/>
  </g>
  <line id="" style="fill:none;stroke:#00AEEF;stroke-width:0.5;opacity:1.0;" x1="792.836" x2="792.836" y1="1919" y2="1933"/>
  <text style="stroke:none;fill:black;font-family:-apple-system,&quot;SF Pro Display&quot;,&quot;SF Pro Text&quot;,Helvetica,sans-serif;font-weight:bold;" transform="matrix(1 0 0 1 776 1953)">Margins</text>
  <text style="stroke:none;fill:black;font-family:-apple-system,&quot;SF Pro Display&quot;,&quot;SF Pro Text&quot;,Helvetica,sans-serif;" transform="matrix(1 0 0 1 776 1971)">Leading and trailing margins on the left and right side of each symbol</text>
  <text style="stroke:none;fill:black;font-family:-apple-system,&quot;SF Pro Display&quot;,&quot;SF Pro Text&quot;,Helvetica,sans-serif;" transform="matrix(1 0 0 1 776 1989)">can be adjusted by modifying the x-location of the margin guidelines.</text>
  <text style="stroke:none;fill:black;font-family:-apple-system,&quot;SF Pro Display&quot;,&quot;SF Pro Text&quot;,Helvetica,sans-serif;" transform="matrix(1 0 0 1 776 2007)">Modifications are automatically applied proportionally to all</text>
  <text style="stroke:none;fill:black;font-family:-apple-system,&quot;SF Pro Display&quot;,&quot;SF Pro Text&quot;,Helvetica,sans-serif;" transform="matrix(1 0 0 1 776 2025)">scales and weights.</text>
  <g id="" transform="matrix(1 0 0 1 1289 1933)">
   <path d="M2.8418 1.86523L4.54102 3.57422C5.40039 4.44336 6.38672 4.38477 7.31445 3.35938L17.4902-7.85156C17.7539-7.76367 18.0273-7.7832 18.3398-7.8418L19.4043-8.03711L20.0684-7.36328L20.0293-6.80664C19.9902-6.30859 20.1172-5.92773 20.6055-5.44922L21.3672-4.70703C21.8457-4.22852 22.4609-4.19922 22.9297-4.66797L25.8398-7.58789C26.3086-8.05664 26.2891-8.65234 25.8105-9.13086L25.0391-9.89258C24.5605-10.3711 24.1895-10.5273 23.7109-10.4883L23.1348-10.4395L22.4902-11.0742L22.7344-12.1973C22.8613-12.7637 22.7051-13.2031 22.1191-13.7891L19.9219-15.9766C16.582-19.2969 12.1484-19.2188 9.25781-16.3281C8.83789-15.918 8.80859-15.3418 9.04297-14.9512C9.27734-14.5898 9.73633-14.3555 10.3809-14.5215C11.8457-14.8633 13.3691-14.9219 14.7949-13.9844L14.209-12.5293C14.0137-12.0508 13.9844-11.6504 14.1113-11.2891L3.04688-0.898438C2.06055 0.0195312 1.98242 0.996094 2.8418 1.86523ZM10.752-15.957C13.1836-17.7344 16.4746-17.4316 18.7012-15.2051L21.1328-12.793C21.3672-12.5586 21.4062-12.373 21.3379-12.0312L21.0156-10.5469L22.5195-9.0625L23.5059-9.12109C23.7598-9.13086 23.8379-9.11133 24.0332-8.91602L24.6094-8.33984L22.168-5.89844L21.5918-6.47461C21.3965-6.66992 21.3672-6.74805 21.377-7.01172L21.4453-7.98828L19.9512-9.47266L18.4277-9.21875C18.1055-9.15039 17.959-9.17969 17.7148-9.41406L15.7129-11.416C15.459-11.6504 15.4297-11.8164 15.5859-12.1875L16.4648-14.2773C14.9023-15.7324 12.8711-16.3574 10.8398-15.7617C10.6836-15.7227 10.625-15.8496 10.752-15.957ZM5.27344 2.30469L4.10156 1.14258C3.63281 0.683594 3.74023 0.341797 4.14062-0.0195312L14.9512-10.1953L16.416-8.71094L6.42578 2.27539C6.07422 2.67578 5.74219 2.77344 5.27344 2.30469Z"/>
  </g>
  <text style="stroke:none;fill:black;font-family:-apple-system,&quot;SF Pro Display&quot;,&quot;SF Pro Text&quot;,Helvetica,sans-serif;font-weight:bold;" transform="matrix(1 0 0 1 1289 1953)">Exporting</text>
  <text style="stroke:none;fill:black;font-family:-apple-system,&quot;SF Pro Display&quot;,&quot;SF Pro Text&quot;,Helvetica,sans-serif;" transform="matrix(1 0 0 1 1289 1971)">Symbols should be outlined when exporting to ensure the</text>
  <text style="stroke:none;fill:black;font-family:-apple-system,&quot;SF Pro Display&quot;,&quot;SF Pro Text&quot;,Helvetica,sans-serif;" transform="matrix(1 0 0 1 1289 1989)">design is preserved when submitting to Xcode.</text>
  <text id="template-version" style="stroke:none;fill:black;font-family:-apple-system,&quot;SF Pro Display&quot;,&quot;SF Pro Text&quot;,Helvetica,sans-serif;text-anchor:end;" transform="matrix(1 0 0 1 3036 1933)">Template v.2.0</text>
  <text style="stroke:none;fill:black;font-family:-apple-system,&quot;SF Pro Display&quot;,&quot;SF Pro Text&quot;,Helvetica,sans-serif;text-anchor:end;" transform="matrix(1 0 0 1 3036 1951)">Requires Xcode 12 or greater</text>
  <text style="stroke:none;fill:black;font-family:-apple-system,&quot;SF Pro Display&quot;,&quot;SF Pro Text&quot;,Helvetica,sans-serif;" transform="matrix(1 0 0 1 263 726)">Small</text>
  <text style="stroke:none;fill:black;font-family:-apple-system,&quot;SF Pro Display&quot;,&quot;SF Pro Text&quot;,Helvetica,sans-serif;" transform="matrix(1 0 0 1 263 1156)">Medium</text>
  <text style="stroke:none;fill:black;font-family:-apple-system,&quot;SF Pro Display&quot;,&quot;SF Pro Text&quot;,Helvetica,sans-serif;" transform="matrix(1 0 0 1 263 1586)">Large</text>
 </g>
 <g id="Guides">
  <g id="H-reference" style="fill:#27AAE1;stroke:none;" transform="matrix(1 0 0 1 339 696)">
   <path d="M0.976562 0L3.66211 0L12.9883-24.4629L45.752-24.4629L55.127 0L57.7637 0L30.6152-70.459L28.125-70.459ZM29.3457-67.1387L29.4434-67.1387L44.873-26.709L13.8672-26.709Z"/>
  </g>
  <line id="Baseline-S" style="fill:none;stroke:#27AAE1;opacity:1;stroke-width:0.5;" x1="263" x2="3036" y1="696" y2="696"/>
  <line id="Capline-S" style="fill:none;stroke:#27AAE1;opacity:1;stroke-width:0.5;" x1="263" x2="3036" y1="625.541" y2="625.541"/>
  <g id="H-reference" style="fill:#27AAE1;stroke:none;" transform="matrix(1 0 0 1 339 1126)">
   <path d="M0.976562 0L3.66211 0L12.9883-24.4629L45.752-24.4629L55.127 0L57.7637 0L30.6152-70.459L28.125-70.459ZM29.3457-67.1387L29.4434-67.1387L44.873-26.709L13.8672-26.709Z"/>
  </g>
  <line id="Baseline-M" style="fill:none;stroke:#27AAE1;opacity:1;stroke-width:0.5;" x1="263" x2="3036" y1="1126" y2="1126"/>
  <line id="Capline-M" style="fill:none;stroke:#27AAE1;opacity:1;stroke-width:0.5;" x1="263" x2="3036" y1="1055.54" y2="1055.54"/>
  <g id="H-reference" style="fill:#27AAE1;stroke:none;" transform="matrix(1 0 0 1 339 1556)">
   <path d="M0.976562 0L3.66211 0L12.9883-24.4629L45.752-24.4629L55.127 0L57.7637 0L30.6152-70.459L28.125-70.459ZM29.3457-67.1387L29.4434-67.1387L44.873-26.709L13.8672-26.709Z"/>
  </g>
  <line id="Baseline-L" style="fill:none;stroke:#27AAE1;opacity:1;stroke-width:0.5;" x1="263" x2="3036" y1="1556" y2="1556"/>
  <line id="Capline-L" style="fill:none;stroke:#27AAE1;opacity:1;stroke-width:0.5;" x1="263" x2="3036" y1="1485.54" y2="1485.54"/>
  <line id="left-margin" x1="1415.9000195312499" x2="1415.9000195312499" y1="1030.79" y2="1150.12" style="fill:none;stroke:#00AEEF;stroke-width:0.5;opacity:1.0;"/>
  <line id="right-margin" x1="1486.3599804687499" x2="1486.3599804687499" y1="1030.79" y2="1150.12" style="fill:none;stroke:#00AEEF;stroke-width:0.5;opacity:1.0;"/>
 </g>
 <g id="Symbols">
  <g id="Black-L" transform="matrix(1.0,0.0,0.0,1.0,2889.2333251953123,1475.3233447265625)">  <path stroke="none" stroke-linejoin="miter" stroke-linecap="butt" fill-opacity="1" stroke-miterlimit="4" fill="#000000" fill-rule="nonzero" stroke-opacity="1" stroke-width="1px" stroke-dasharray="none" d="M61.315,7.574L29.578,7.574C15.793,7.574,7.574,15.793,7.574,29.578L7.574,61.315C7.574,75.101,15.793,83.319,29.578,83.319L61.315,83.319C75.1,83.319,83.319,75.101,83.319,61.315L83.319,29.578C83.319,15.793,75.1,7.574,61.315,7.574ZM37.758,56.43L29.237,64.951C28.669,65.519,27.949,65.784,27.23,65.784C26.51,65.784,25.753,65.519,25.223,64.951L22.382,62.11C21.246,61.012,21.246,59.194,22.382,58.096C23.481,56.998,25.261,56.998,26.397,58.096L27.23,58.929L33.744,52.415C34.842,51.317,36.622,51.317,37.758,52.415C38.857,53.513,38.857,55.331,37.758,56.43ZM37.758,29.919L29.237,38.44C28.669,39.008,27.949,39.273,27.23,39.273C26.51,39.273,25.753,39.008,25.223,38.44L22.382,35.6C21.246,34.502,21.246,32.684,22.382,31.585C23.481,30.487,25.261,30.487,26.397,31.585L27.23,32.419L33.744,25.905C34.842,24.806,36.622,24.806,37.758,25.905C38.857,27.003,38.857,28.821,37.758,29.919ZM66.503,62.944L46.621,62.944C45.068,62.944,43.78,61.656,43.78,60.103C43.78,58.551,45.068,57.263,46.621,57.263L66.503,57.263C68.094,57.263,69.344,58.551,69.344,60.103C69.344,61.656,68.094,62.944,66.503,62.944ZM66.503,36.433L46.621,36.433C45.068,36.433,43.78,35.146,43.78,33.593C43.78,32.04,45.068,30.752,46.621,30.752L66.503,30.752C68.094,30.752,69.344,32.04,69.344,33.593C69.344,35.146,68.094,36.433,66.503,36.433ZM66.503,36.433"/>
</g>
  <g id="Heavy-L" transform="matrix(1.0,0.0,0.0,1.0,2592.5233251953123,1475.3233447265625)">  <path fill-opacity="1" fill="#000000" fill-rule="nonzero" stroke-miterlimit="4" stroke="none" stroke-width="1px" stroke-linecap="butt" stroke-linejoin="miter" stroke-dasharray="none" stroke-opacity="1" d="M61.315,7.574L29.578,7.574C15.793,7.574,7.574,15.793,7.574,29.578L7.574,61.315C7.574,75.101,15.793,83.319,29.578,83.319L61.315,83.319C75.1,83.319,83.319,75.101,83.319,61.315L83.319,29.578C83.319,15.793,75.1,7.574,61.315,7.574ZM37.758,56.43L29.237,64.951C28.669,65.519,27.949,65.784,27.23,65.784C26.51,65.784,25.753,65.519,25.223,64.951L22.382,62.11C21.246,61.012,21.246,59.194,22.382,58.096C23.481,56.998,25.261,56.998,26.397,58.096L27.23,58.929L33.744,52.415C34.842,51.317,36.622,51.317,37.758,52.415C38.857,53.513,38.857,55.331,37.758,56.43ZM37.758,29.919L29.237,38.44C28.669,39.008,27.949,39.273,27.23,39.273C26.51,39.273,25.753,39.008,25.223,38.44L22.382,35.6C21.246,34.502,21.246,32.684,22.382,31.585C23.481,30.487,25.261,30.487,26.397,31.585L27.23,32.419L33.744,25.905C34.842,24.806,36.622,24.806,37.758,25.905C38.857,27.003,38.857,28.821,37.758,29.919ZM66.503,62.944L46.621,62.944C45.068,62.944,43.78,61.656,43.78,60.103C43.78,58.551,45.068,57.263,46.621,57.263L66.503,57.263C68.094,57.263,69.344,58.551,69.344,60.103C69.344,61.656,68.094,62.944,66.503,62.944ZM66.503,36.433L46.621,36.433C45.068,36.433,43.78,35.146,43.78,33.593C43.78,32.04,45.068,30.752,46.621,30.752L66.503,30.752C68.094,30.752,69.344,32.04,69.344,33.593C69.344,35.146,68.094,36.433,66.503,36.433ZM66.503,36.433"/>
</g>
  <g id="Bold-L" transform="matrix(1.0,0.0,0.0,1.0,2295.8133251953122,1475.3233447265625)">  <path stroke-linecap="butt" stroke-opacity="1" fill-rule="nonzero" stroke-miterlimit="4" stroke="none" stroke-linejoin="miter" fill="#000000" stroke-dasharray="none" fill-opacity="1" stroke-width="1px" d="M61.315,7.574L29.578,7.574C15.793,7.574,7.574,15.793,7.574,29.578L7.574,61.315C7.574,75.101,15.793,83.319,29.578,83.319L61.315,83.319C75.1,83.319,83.319,75.101,83.319,61.315L83.319,29.578C83.319,15.793,75.1,7.574,61.315,7.574ZM37.758,56.43L29.237,64.951C28.669,65.519,27.949,65.784,27.23,65.784C26.51,65.784,25.753,65.519,25.223,64.951L22.382,62.11C21.246,61.012,21.246,59.194,22.382,58.096C23.481,56.998,25.261,56.998,26.397,58.096L27.23,58.929L33.744,52.415C34.842,51.317,36.622,51.317,37.758,52.415C38.857,53.513,38.857,55.331,37.758,56.43ZM37.758,29.919L29.237,38.44C28.669,39.008,27.949,39.273,27.23,39.273C26.51,39.273,25.753,39.008,25.223,38.44L22.382,35.6C21.246,34.502,21.246,32.684,22.382,31.585C23.481,30.487,25.261,30.487,26.397,31.585L27.23,32.419L33.744,25.905C34.842,24.806,36.622,24.806,37.758,25.905C38.857,27.003,38.857,28.821,37.758,29.919ZM66.503,62.944L46.621,62.944C45.068,62.944,43.78,61.656,43.78,60.103C43.78,58.551,45.068,57.263,46.621,57.263L66.503,57.263C68.094,57.263,69.344,58.551,69.344,60.103C69.344,61.656,68.094,62.944,66.503,62.944ZM66.503,36.433L46.621,36.433C45.068,36.433,43.78,35.146,43.78,33.593C43.78,32.04,45.068,30.752,46.621,30.752L66.503,30.752C68.094,30.752,69.344,32.04,69.344,33.593C69.344,35.146,68.094,36.433,66.503,36.433ZM66.503,36.433"/>
</g>
  <g id="Semibold-L" transform="matrix(1.0,0.0,0.0,1.0,1999.1033251953124,1475.3233447265625)">  <path stroke-miterlimit="4" fill-rule="nonzero" fill-opacity="1" stroke-dasharray="none" stroke-opacity="1" stroke-linecap="butt" stroke-linejoin="miter" fill="#000000" stroke="none" stroke-width="1px" d="M61.315,7.574L29.578,7.574C15.793,7.574,7.574,15.793,7.574,29.578L7.574,61.315C7.574,75.101,15.793,83.319,29.578,83.319L61.315,83.319C75.1,83.319,83.319,75.101,83.319,61.315L83.319,29.578C83.319,15.793,75.1,7.574,61.315,7.574ZM37.758,56.43L29.237,64.951C28.669,65.519,27.949,65.784,27.23,65.784C26.51,65.784,25.753,65.519,25.223,64.951L22.382,62.11C21.246,61.012,21.246,59.194,22.382,58.096C23.481,56.998,25.261,56.998,26.397,58.096L27.23,58.929L33.744,52.415C34.842,51.317,36.622,51.317,37.758,52.415C38.857,53.513,38.857,55.331,37.758,56.43ZM37.758,29.919L29.237,38.44C28.669,39.008,27.949,39.273,27.23,39.273C26.51,39.273,25.753,39.008,25.223,38.44L22.382,35.6C21.246,34.502,21.246,32.684,22.382,31.585C23.481,30.487,25.261,30.487,26.397,31.585L27.23,32.419L33.744,25.905C34.842,24.806,36.622,24.806,37.758,25.905C38.857,27.003,38.857,28.821,37.758,29.919ZM66.503,62.944L46.621,62.944C45.068,62.944,43.78,61.656,43.78,60.103C43.78,58.551,45.068,57.263,46.621,57.263L66.503,57.263C68.094,57.263,69.344,58.551,69.344,60.103C69.344,61.656,68.094,62.944,66.503,62.944ZM66.503,36.433L46.621,36.433C45.068,36.433,43.78,35.146,43.78,33.593C43.78,32.04,45.068,30.752,46.621,30.752L66.503,30.752C68.094,30.752,69.344,32.04,69.344,33.593C69.344,35.146,68.094,36.433,66.503,36.433ZM66.503,36.433"/>
</g>
  <g id="Medium-L" transform="matrix(1.0,0.0,0.0,1.0,1702.3933251953124,1475.3233447265625)">  <path stroke-miterlimit="4" fill="#000000" stroke-opacity="1" stroke-linejoin="miter" stroke-width="1px" fill-rule="nonzero" fill-opacity="1" stroke="none" stroke-linecap="butt" stroke-dasharray="none" d="M61.315,7.574L29.578,7.574C15.793,7.574,7.574,15.793,7.574,29.578L7.574,61.315C7.574,75.101,15.793,83.319,29.578,83.319L61.315,83.319C75.1,83.319,83.319,75.101,83.319,61.315L83.319,29.578C83.319,15.793,75.1,7.574,61.315,7.574ZM37.758,56.43L29.237,64.951C28.669,65.519,27.949,65.784,27.23,65.784C26.51,65.784,25.753,65.519,25.223,64.951L22.382,62.11C21.246,61.012,21.246,59.194,22.382,58.096C23.481,56.998,25.261,56.998,26.397,58.096L27.23,58.929L33.744,52.415C34.842,51.317,36.622,51.317,37.758,52.415C38.857,53.513,38.857,55.331,37.758,56.43ZM37.758,29.919L29.237,38.44C28.669,39.008,27.949,39.273,27.23,39.273C26.51,39.273,25.753,39.008,25.223,38.44L22.382,35.6C21.246,34.502,21.246,32.684,22.382,31.585C23.481,30.487,25.261,30.487,26.397,31.585L27.23,32.419L33.744,25.905C34.842,24.806,36.622,24.806,37.758,25.905C38.857,27.003,38.857,28.821,37.758,29.919ZM66.503,62.944L46.621,62.944C45.068,62.944,43.78,61.656,43.78,60.103C43.78,58.551,45.068,57.263,46.621,57.263L66.503,57.263C68.094,57.263,69.344,58.551,69.344,60.103C69.344,61.656,68.094,62.944,66.503,62.944ZM66.503,36.433L46.621,36.433C45.068,36.433,43.78,35.146,43.78,33.593C43.78,32.04,45.068,30.752,46.621,30.752L66.503,30.752C68.094,30.752,69.344,32.04,69.344,33.593C69.344,35.146,68.094,36.433,66.503,36.433ZM66.503,36.433"/>
</g>
  <g id="Regular-L" transform="matrix(1.0,0.0,0.0,1.0,1405.6833251953124,1475.3233447265625)">  <path stroke="none" stroke-linejoin="miter" stroke-dasharray="none" fill-opacity="1" stroke-width="1px" stroke-linecap="butt" stroke-miterlimit="4" fill-rule="nonzero" stroke-opacity="1" fill="#000000" d="M61.315,7.574L29.578,7.574C15.793,7.574,7.574,15.793,7.574,29.578L7.574,61.315C7.574,75.101,15.793,83.319,29.578,83.319L61.315,83.319C75.1,83.319,83.319,75.101,83.319,61.315L83.319,29.578C83.319,15.793,75.1,7.574,61.315,7.574ZM37.758,56.43L29.237,64.951C28.669,65.519,27.949,65.784,27.23,65.784C26.51,65.784,25.753,65.519,25.223,64.951L22.382,62.11C21.246,61.012,21.246,59.194,22.382,58.096C23.481,56.998,25.261,56.998,26.397,58.096L27.23,58.929L33.744,52.415C34.842,51.317,36.622,51.317,37.758,52.415C38.857,53.513,38.857,55.331,37.758,56.43ZM37.758,29.919L29.237,38.44C28.669,39.008,27.949,39.273,27.23,39.273C26.51,39.273,25.753,39.008,25.223,38.44L22.382,35.6C21.246,34.502,21.246,32.684,22.382,31.585C23.481,30.487,25.261,30.487,26.397,31.585L27.23,32.419L33.744,25.905C34.842,24.806,36.622,24.806,37.758,25.905C38.857,27.003,38.857,28.821,37.758,29.919ZM66.503,62.944L46.621,62.944C45.068,62.944,43.78,61.656,43.78,60.103C43.78,58.551,45.068,57.263,46.621,57.263L66.503,57.263C68.094,57.263,69.344,58.551,69.344,60.103C69.344,61.656,68.094,62.944,66.503,62.944ZM66.503,36.433L46.621,36.433C45.068,36.433,43.78,35.146,43.78,33.593C43.78,32.04,45.068,30.752,46.621,30.752L66.503,30.752C68.094,30.752,69.344,32.04,69.344,33.593C69.344,35.146,68.094,36.433,66.503,36.433ZM66.503,36.433"/>
</g>
  <g id="Light-L" transform="matrix(1.0,0.0,0.0,1.0,1108.9733251953126,1475.3233447265625)">  <path fill-opacity="1" stroke-dasharray="none" stroke-miterlimit="4" stroke-linejoin="miter" stroke-width="1px" fill="#000000" stroke-linecap="butt" stroke-opacity="1" fill-rule="nonzero" stroke="none" d="M61.315,7.574L29.578,7.574C15.793,7.574,7.574,15.793,7.574,29.578L7.574,61.315C7.574,75.101,15.793,83.319,29.578,83.319L61.315,83.319C75.1,83.319,83.319,75.101,83.319,61.315L83.319,29.578C83.319,15.793,75.1,7.574,61.315,7.574ZM37.758,56.43L29.237,64.951C28.669,65.519,27.949,65.784,27.23,65.784C26.51,65.784,25.753,65.519,25.223,64.951L22.382,62.11C21.246,61.012,21.246,59.194,22.382,58.096C23.481,56.998,25.261,56.998,26.397,58.096L27.23,58.929L33.744,52.415C34.842,51.317,36.622,51.317,37.758,52.415C38.857,53.513,38.857,55.331,37.758,56.43ZM37.758,29.919L29.237,38.44C28.669,39.008,27.949,39.273,27.23,39.273C26.51,39.273,25.753,39.008,25.223,38.44L22.382,35.6C21.246,34.502,21.246,32.684,22.382,31.585C23.481,30.487,25.261,30.487,26.397,31.585L27.23,32.419L33.744,25.905C34.842,24.806,36.622,24.806,37.758,25.905C38.857,27.003,38.857,28.821,37.758,29.919ZM66.503,62.944L46.621,62.944C45.068,62.944,43.78,61.656,43.78,60.103C43.78,58.551,45.068,57.263,46.621,57.263L66.503,57.263C68.094,57.263,69.344,58.551,69.344,60.103C69.344,61.656,68.094,62.944,66.503,62.944ZM66.503,36.433L46.621,36.433C45.068,36.433,43.78,35.146,43.78,33.593C43.78,32.04,45.068,30.752,46.621,30.752L66.503,30.752C68.094,30.752,69.344,32.04,69.344,33.593C69.344,35.146,68.094,36.433,66.503,36.433ZM66.503,36.433"/>
</g>
  <g id="Thin-L" transform="matrix(1.0,0.0,0.0,1.0,812.2633251953125,1475.3233447265625)">  <path fill-rule="nonzero" stroke-opacity="1" stroke-width="1px" stroke-linecap="butt" fill-opacity="1" stroke-dasharray="none" stroke-linejoin="miter" fill="#000000" stroke-miterlimit="4" stroke="none" d="M61.315,7.574L29.578,7.574C15.793,7.574,7.574,15.793,7.574,29.578L7.574,61.315C7.574,75.101,15.793,83.319,29.578,83.319L61.315,83.319C75.1,83.319,83.319,75.101,83.319,61.315L83.319,29.578C83.319,15.793,75.1,7.574,61.315,7.574ZM37.758,56.43L29.237,64.951C28.669,65.519,27.949,65.784,27.23,65.784C26.51,65.784,25.753,65.519,25.223,64.951L22.382,62.11C21.246,61.012,21.246,59.194,22.382,58.096C23.481,56.998,25.261,56.998,26.397,58.096L27.23,58.929L33.744,52.415C34.842,51.317,36.622,51.317,37.758,52.415C38.857,53.513,38.857,55.331,37.758,56.43ZM37.758,29.919L29.237,38.44C28.669,39.008,27.949,39.273,27.23,39.273C26.51,39.273,25.753,39.008,25.223,38.44L22.382,35.6C21.246,34.502,21.246,32.684,22.382,31.585C23.481,30.487,25.261,30.487,26.397,31.585L27.23,32.419L33.744,25.905C34.842,24.806,36.622,24.806,37.758,25.905C38.857,27.003,38.857,28.821,37.758,29.919ZM66.503,62.944L46.621,62.944C45.068,62.944,43.78,61.656,43.78,60.103C43.78,58.551,45.068,57.263,46.621,57.263L66.503,57.263C68.094,57.263,69.344,58.551,69.344,60.103C69.344,61.656,68.094,62.944,66.503,62.944ZM66.503,36.433L46.621,36.433C45.068,36.433,43.78,35.146,43.78,33.593C43.78,32.04,45.068,30.752,46.621,30.752L66.503,30.752C68.094,30.752,69.344,32.04,69.344,33.593C69.344,35.146,68.094,36.433,66.503,36.433ZM66.503,36.433"/>
</g>
  <g id="Ultralight-L" transform="matrix(1.0,0.0,0.0,1.0,515.5533251953125,1475.3233447265625)">  <path stroke-opacity="1" fill-rule="nonzero" stroke-linejoin="miter" fill="#000000" stroke-dasharray="none" stroke-width="1px" stroke-linecap="butt" stroke="none" fill-opacity="1" stroke-miterlimit="4" d="M61.315,7.574L29.578,7.574C15.793,7.574,7.574,15.793,7.574,29.578L7.574,61.315C7.574,75.101,15.793,83.319,29.578,83.319L61.315,83.319C75.1,83.319,83.319,75.101,83.319,61.315L83.319,29.578C83.319,15.793,75.1,7.574,61.315,7.574ZM37.758,56.43L29.237,64.951C28.669,65.519,27.949,65.784,27.23,65.784C26.51,65.784,25.753,65.519,25.223,64.951L22.382,62.11C21.246,61.012,21.246,59.194,22.382,58.096C23.481,56.998,25.261,56.998,26.397,58.096L27.23,58.929L33.744,52.415C34.842,51.317,36.622,51.317,37.758,52.415C38.857,53.513,38.857,55.331,37.758,56.43ZM37.758,29.919L29.237,38.44C28.669,39.008,27.949,39.273,27.23,39.273C26.51,39.273,25.753,39.008,25.223,38.44L22.382,35.6C21.246,34.502,21.246,32.684,22.382,31.585C23.481,30.487,25.261,30.487,26.397,31.585L27.23,32.419L33.744,25.905C34.842,24.806,36.622,24.806,37.758,25.905C38.857,27.003,38.857,28.821,37.758,29.919ZM66.503,62.944L46.621,62.944C45.068,62.944,43.78,61.656,43.78,60.103C43.78,58.551,45.068,57.263,46.621,57.263L66.503,57.263C68.094,57.263,69.344,58.551,69.344,60.103C69.344,61.656,68.094,62.944,66.503,62.944ZM66.503,36.433L46.621,36.433C45.068,36.433,43.78,35.146,43.78,33.593C43.78,32.04,45.068,30.752,46.621,30.752L66.503,30.752C68.094,30.752,69.344,32.04,69.344,33.593C69.344,35.146,68.094,36.433,66.503,36.433ZM66.503,36.433"/>
</g>
  <g id="Black-M" transform="matrix(1.0,0.0,0.0,1.0,2899.45001953125,1055.5400390625)">  <path stroke="none" stroke-linejoin="miter" stroke-linecap="butt" fill-opacity="1" stroke-miterlimit="4" fill="#000000" fill-rule="nonzero" stroke-opacity="1" stroke-width="1px" stroke-dasharray="none" d="M47.531,5.872L22.929,5.872C12.242,5.872,5.872,12.242,5.872,22.929L5.872,47.531C5.872,58.218,12.242,64.588,22.929,64.588L47.531,64.588C58.217,64.588,64.588,58.218,64.588,47.531L64.588,22.929C64.588,12.242,58.217,5.872,47.531,5.872ZM29.27,43.744L22.665,50.349C22.224,50.79,21.666,50.995,21.109,50.995C20.551,50.995,19.964,50.79,19.552,50.349L17.351,48.148C16.47,47.296,16.47,45.887,17.351,45.036C18.202,44.184,19.582,44.184,20.463,45.036L21.109,45.681L26.158,40.632C27.01,39.78,28.389,39.78,29.27,40.632C30.121,41.483,30.121,42.893,29.27,43.744ZM29.27,23.193L22.665,29.799C22.224,30.239,21.666,30.445,21.109,30.445C20.551,30.445,19.964,30.239,19.552,29.799L17.351,27.597C16.47,26.745,16.47,25.336,17.351,24.485C18.202,23.634,19.582,23.634,20.463,24.485L21.109,25.131L26.158,20.081C27.01,19.23,28.389,19.23,29.27,20.081C30.121,20.932,30.121,22.342,29.27,23.193ZM51.553,48.794L36.14,48.794C34.936,48.794,33.938,47.795,33.938,46.592C33.938,45.388,34.936,44.39,36.14,44.39L51.553,44.39C52.786,44.39,53.755,45.388,53.755,46.592C53.755,47.795,52.786,48.794,51.553,48.794ZM51.553,28.243L36.14,28.243C34.936,28.243,33.938,27.245,33.938,26.041C33.938,24.837,34.936,23.839,36.14,23.839L51.553,23.839C52.786,23.839,53.755,24.837,53.755,26.041C53.755,27.245,52.786,28.243,51.553,28.243ZM51.553,28.243"/>
</g>
  <g id="Heavy-M" transform="matrix(1.0,0.0,0.0,1.0,2602.74001953125,1055.5400390625)">  <path fill-opacity="1" fill="#000000" fill-rule="nonzero" stroke-miterlimit="4" stroke="none" stroke-width="1px" stroke-linecap="butt" stroke-linejoin="miter" stroke-dasharray="none" stroke-opacity="1" d="M47.531,5.872L22.929,5.872C12.242,5.872,5.872,12.242,5.872,22.929L5.872,47.531C5.872,58.218,12.242,64.588,22.929,64.588L47.531,64.588C58.217,64.588,64.588,58.218,64.588,47.531L64.588,22.929C64.588,12.242,58.217,5.872,47.531,5.872ZM29.27,43.744L22.665,50.349C22.224,50.79,21.666,50.995,21.109,50.995C20.551,50.995,19.964,50.79,19.552,50.349L17.351,48.148C16.47,47.296,16.47,45.887,17.351,45.036C18.202,44.184,19.582,44.184,20.463,45.036L21.109,45.681L26.158,40.632C27.01,39.78,28.389,39.78,29.27,40.632C30.121,41.483,30.121,42.893,29.27,43.744ZM29.27,23.193L22.665,29.799C22.224,30.239,21.666,30.445,21.109,30.445C20.551,30.445,19.964,30.239,19.552,29.799L17.351,27.597C16.47,26.745,16.47,25.336,17.351,24.485C18.202,23.634,19.582,23.634,20.463,24.485L21.109,25.131L26.158,20.081C27.01,19.23,28.389,19.23,29.27,20.081C30.121,20.932,30.121,22.342,29.27,23.193ZM51.553,48.794L36.14,48.794C34.936,48.794,33.938,47.795,33.938,46.592C33.938,45.388,34.936,44.39,36.14,44.39L51.553,44.39C52.786,44.39,53.755,45.388,53.755,46.592C53.755,47.795,52.786,48.794,51.553,48.794ZM51.553,28.243L36.14,28.243C34.936,28.243,33.938,27.245,33.938,26.041C33.938,24.837,34.936,23.839,36.14,23.839L51.553,23.839C52.786,23.839,53.755,24.837,53.755,26.041C53.755,27.245,52.786,28.243,51.553,28.243ZM51.553,28.243"/>
</g>
  <g id="Bold-M" transform="matrix(1.0,0.0,0.0,1.0,2306.0300195312498,1055.5400390625)">  <path stroke-linecap="butt" stroke-opacity="1" fill-rule="nonzero" stroke-miterlimit="4" stroke="none" stroke-linejoin="miter" fill="#000000" stroke-dasharray="none" fill-opacity="1" stroke-width="1px" d="M47.531,5.872L22.929,5.872C12.242,5.872,5.872,12.242,5.872,22.929L5.872,47.531C5.872,58.218,12.242,64.588,22.929,64.588L47.531,64.588C58.217,64.588,64.588,58.218,64.588,47.531L64.588,22.929C64.588,12.242,58.217,5.872,47.531,5.872ZM29.27,43.744L22.665,50.349C22.224,50.79,21.666,50.995,21.109,50.995C20.551,50.995,19.964,50.79,19.552,50.349L17.351,48.148C16.47,47.296,16.47,45.887,17.351,45.036C18.202,44.184,19.582,44.184,20.463,45.036L21.109,45.681L26.158,40.632C27.01,39.78,28.389,39.78,29.27,40.632C30.121,41.483,30.121,42.893,29.27,43.744ZM29.27,23.193L22.665,29.799C22.224,30.239,21.666,30.445,21.109,30.445C20.551,30.445,19.964,30.239,19.552,29.799L17.351,27.597C16.47,26.745,16.47,25.336,17.351,24.485C18.202,23.634,19.582,23.634,20.463,24.485L21.109,25.131L26.158,20.081C27.01,19.23,28.389,19.23,29.27,20.081C30.121,20.932,30.121,22.342,29.27,23.193ZM51.553,48.794L36.14,48.794C34.936,48.794,33.938,47.795,33.938,46.592C33.938,45.388,34.936,44.39,36.14,44.39L51.553,44.39C52.786,44.39,53.755,45.388,53.755,46.592C53.755,47.795,52.786,48.794,51.553,48.794ZM51.553,28.243L36.14,28.243C34.936,28.243,33.938,27.245,33.938,26.041C33.938,24.837,34.936,23.839,36.14,23.839L51.553,23.839C52.786,23.839,53.755,24.837,53.755,26.041C53.755,27.245,52.786,28.243,51.553,28.243ZM51.553,28.243"/>
</g>
  <g id="Semibold-M" transform="matrix(1.0,0.0,0.0,1.0,2009.32001953125,1055.5400390625)">  <path stroke-miterlimit="4" fill-rule="nonzero" fill-opacity="1" stroke-dasharray="none" stroke-opacity="1" stroke-linecap="butt" stroke-linejoin="miter" fill="#000000" stroke="none" stroke-width="1px" d="M47.531,5.872L22.929,5.872C12.242,5.872,5.872,12.242,5.872,22.929L5.872,47.531C5.872,58.218,12.242,64.588,22.929,64.588L47.531,64.588C58.217,64.588,64.588,58.218,64.588,47.531L64.588,22.929C64.588,12.242,58.217,5.872,47.531,5.872ZM29.27,43.744L22.665,50.349C22.224,50.79,21.666,50.995,21.109,50.995C20.551,50.995,19.964,50.79,19.552,50.349L17.351,48.148C16.47,47.296,16.47,45.887,17.351,45.036C18.202,44.184,19.582,44.184,20.463,45.036L21.109,45.681L26.158,40.632C27.01,39.78,28.389,39.78,29.27,40.632C30.121,41.483,30.121,42.893,29.27,43.744ZM29.27,23.193L22.665,29.799C22.224,30.239,21.666,30.445,21.109,30.445C20.551,30.445,19.964,30.239,19.552,29.799L17.351,27.597C16.47,26.745,16.47,25.336,17.351,24.485C18.202,23.634,19.582,23.634,20.463,24.485L21.109,25.131L26.158,20.081C27.01,19.23,28.389,19.23,29.27,20.081C30.121,20.932,30.121,22.342,29.27,23.193ZM51.553,48.794L36.14,48.794C34.936,48.794,33.938,47.795,33.938,46.592C33.938,45.388,34.936,44.39,36.14,44.39L51.553,44.39C52.786,44.39,53.755,45.388,53.755,46.592C53.755,47.795,52.786,48.794,51.553,48.794ZM51.553,28.243L36.14,28.243C34.936,28.243,33.938,27.245,33.938,26.041C33.938,24.837,34.936,23.839,36.14,23.839L51.553,23.839C52.786,23.839,53.755,24.837,53.755,26.041C53.755,27.245,52.786,28.243,51.553,28.243ZM51.553,28.243"/>
</g>
  <g id="Medium-M" transform="matrix(1.0,0.0,0.0,1.0,1712.61001953125,1055.5400390625)">  <path stroke-miterlimit="4" fill="#000000" stroke-opacity="1" stroke-linejoin="miter" stroke-width="1px" fill-rule="nonzero" fill-opacity="1" stroke="none" stroke-linecap="butt" stroke-dasharray="none" d="M47.531,5.872L22.929,5.872C12.242,5.872,5.872,12.242,5.872,22.929L5.872,47.531C5.872,58.218,12.242,64.588,22.929,64.588L47.531,64.588C58.217,64.588,64.588,58.218,64.588,47.531L64.588,22.929C64.588,12.242,58.217,5.872,47.531,5.872ZM29.27,43.744L22.665,50.349C22.224,50.79,21.666,50.995,21.109,50.995C20.551,50.995,19.964,50.79,19.552,50.349L17.351,48.148C16.47,47.296,16.47,45.887,17.351,45.036C18.202,44.184,19.582,44.184,20.463,45.036L21.109,45.681L26.158,40.632C27.01,39.78,28.389,39.78,29.27,40.632C30.121,41.483,30.121,42.893,29.27,43.744ZM29.27,23.193L22.665,29.799C22.224,30.239,21.666,30.445,21.109,30.445C20.551,30.445,19.964,30.239,19.552,29.799L17.351,27.597C16.47,26.745,16.47,25.336,17.351,24.485C18.202,23.634,19.582,23.634,20.463,24.485L21.109,25.131L26.158,20.081C27.01,19.23,28.389,19.23,29.27,20.081C30.121,20.932,30.121,22.342,29.27,23.193ZM51.553,48.794L36.14,48.794C34.936,48.794,33.938,47.795,33.938,46.592C33.938,45.388,34.936,44.39,36.14,44.39L51.553,44.39C52.786,44.39,53.755,45.388,53.755,46.592C53.755,47.795,52.786,48.794,51.553,48.794ZM51.553,28.243L36.14,28.243C34.936,28.243,33.938,27.245,33.938,26.041C33.938,24.837,34.936,23.839,36.14,23.839L51.553,23.839C52.786,23.839,53.755,24.837,53.755,26.041C53.755,27.245,52.786,28.243,51.553,28.243ZM51.553,28.243"/>
</g>
  <g id="Regular-M" transform="matrix(1.0,0.0,0.0,1.0,1415.9000195312499,1055.5400390625)">  <path stroke="none" stroke-linejoin="miter" stroke-dasharray="none" fill-opacity="1" stroke-width="1px" stroke-linecap="butt" stroke-miterlimit="4" fill-rule="nonzero" stroke-opacity="1" fill="#000000" d="M47.531,5.872L22.929,5.872C12.242,5.872,5.872,12.242,5.872,22.929L5.872,47.531C5.872,58.218,12.242,64.588,22.929,64.588L47.531,64.588C58.217,64.588,64.588,58.218,64.588,47.531L64.588,22.929C64.588,12.242,58.217,5.872,47.531,5.872ZM29.27,43.744L22.665,50.349C22.224,50.79,21.666,50.995,21.109,50.995C20.551,50.995,19.964,50.79,19.552,50.349L17.351,48.148C16.47,47.296,16.47,45.887,17.351,45.036C18.202,44.184,19.582,44.184,20.463,45.036L21.109,45.681L26.158,40.632C27.01,39.78,28.389,39.78,29.27,40.632C30.121,41.483,30.121,42.893,29.27,43.744ZM29.27,23.193L22.665,29.799C22.224,30.239,21.666,30.445,21.109,30.445C20.551,30.445,19.964,30.239,19.552,29.799L17.351,27.597C16.47,26.745,16.47,25.336,17.351,24.485C18.202,23.634,19.582,23.634,20.463,24.485L21.109,25.131L26.158,20.081C27.01,19.23,28.389,19.23,29.27,20.081C30.121,20.932,30.121,22.342,29.27,23.193ZM51.553,48.794L36.14,48.794C34.936,48.794,33.938,47.795,33.938,46.592C33.938,45.388,34.936,44.39,36.14,44.39L51.553,44.39C52.786,44.39,53.755,45.388,53.755,46.592C53.755,47.795,52.786,48.794,51.553,48.794ZM51.553,28.243L36.14,28.243C34.936,28.243,33.938,27.245,33.938,26.041C33.938,24.837,34.936,23.839,36.14,23.839L51.553,23.839C52.786,23.839,53.755,24.837,53.755,26.041C53.755,27.245,52.786,28.243,51.553,28.243ZM51.553,28.243"/>
</g>
  <g id="Light-M" transform="matrix(1.0,0.0,0.0,1.0,1119.19001953125,1055.5400390625)">  <path fill-opacity="1" stroke-dasharray="none" stroke-miterlimit="4" stroke-linejoin="miter" stroke-width="1px" fill="#000000" stroke-linecap="butt" stroke-opacity="1" fill-rule="nonzero" stroke="none" d="M47.531,5.872L22.929,5.872C12.242,5.872,5.872,12.242,5.872,22.929L5.872,47.531C5.872,58.218,12.242,64.588,22.929,64.588L47.531,64.588C58.217,64.588,64.588,58.218,64.588,47.531L64.588,22.929C64.588,12.242,58.217,5.872,47.531,5.872ZM29.27,43.744L22.665,50.349C22.224,50.79,21.666,50.995,21.109,50.995C20.551,50.995,19.964,50.79,19.552,50.349L17.351,48.148C16.47,47.296,16.47,45.887,17.351,45.036C18.202,44.184,19.582,44.184,20.463,45.036L21.109,45.681L26.158,40.632C27.01,39.78,28.389,39.78,29.27,40.632C30.121,41.483,30.121,42.893,29.27,43.744ZM29.27,23.193L22.665,29.799C22.224,30.239,21.666,30.445,21.109,30.445C20.551,30.445,19.964,30.239,19.552,29.799L17.351,27.597C16.47,26.745,16.47,25.336,17.351,24.485C18.202,23.634,19.582,23.634,20.463,24.485L21.109,25.131L26.158,20.081C27.01,19.23,28.389,19.23,29.27,20.081C30.121,20.932,30.121,22.342,29.27,23.193ZM51.553,48.794L36.14,48.794C34.936,48.794,33.938,47.795,33.938,46.592C33.938,45.388,34.936,44.39,36.14,44.39L51.553,44.39C52.786,44.39,53.755,45.388,53.755,46.592C53.755,47.795,52.786,48.794,51.553,48.794ZM51.553,28.243L36.14,28.243C34.936,28.243,33.938,27.245,33.938,26.041C33.938,24.837,34.936,23.839,36.14,23.839L51.553,23.839C52.786,23.839,53.755,24.837,53.755,26.041C53.755,27.245,52.786,28.243,51.553,28.243ZM51.553,28.243"/>
</g>
  <g id="Thin-M" transform="matrix(1.0,0.0,0.0,1.0,822.48001953125,1055.5400390625)">  <path fill-rule="nonzero" stroke-opacity="1" stroke-width="1px" stroke-linecap="butt" fill-opacity="1" stroke-dasharray="none" stroke-linejoin="miter" fill="#000000" stroke-miterlimit="4" stroke="none" d="M47.531,5.872L22.929,5.872C12.242,5.872,5.872,12.242,5.872,22.929L5.872,47.531C5.872,58.218,12.242,64.588,22.929,64.588L47.531,64.588C58.217,64.588,64.588,58.218,64.588,47.531L64.588,22.929C64.588,12.242,58.217,5.872,47.531,5.872ZM29.27,43.744L22.665,50.349C22.224,50.79,21.666,50.995,21.109,50.995C20.551,50.995,19.964,50.79,19.552,50.349L17.351,48.148C16.47,47.296,16.47,45.887,17.351,45.036C18.202,44.184,19.582,44.184,20.463,45.036L21.109,45.681L26.158,40.632C27.01,39.78,28.389,39.78,29.27,40.632C30.121,41.483,30.121,42.893,29.27,43.744ZM29.27,23.193L22.665,29.799C22.224,30.239,21.666,30.445,21.109,30.445C20.551,30.445,19.964,30.239,19.552,29.799L17.351,27.597C16.47,26.745,16.47,25.336,17.351,24.485C18.202,23.634,19.582,23.634,20.463,24.485L21.109,25.131L26.158,20.081C27.01,19.23,28.389,19.23,29.27,20.081C30.121,20.932,30.121,22.342,29.27,23.193ZM51.553,48.794L36.14,48.794C34.936,48.794,33.938,47.795,33.938,46.592C33.938,45.388,34.936,44.39,36.14,44.39L51.553,44.39C52.786,44.39,53.755,45.388,53.755,46.592C53.755,47.795,52.786,48.794,51.553,48.794ZM51.553,28.243L36.14,28.243C34.936,28.243,33.938,27.245,33.938,26.041C33.938,24.837,34.936,23.839,36.14,23.839L51.553,23.839C52.786,23.839,53.755,24.837,53.755,26.041C53.755,27.245,52.786,28.243,51.553,28.243ZM51.553,28.243"/>
</g>
  <g id="Ultralight-M" transform="matrix(1.0,0.0,0.0,1.0,525.77001953125,1055.5400390625)">  <path stroke-opacity="1" fill-rule="nonzero" stroke-linejoin="miter" fill="#000000" stroke-dasharray="none" stroke-width="1px" stroke-linecap="butt" stroke="none" fill-opacity="1" stroke-miterlimit="4" d="M47.531,5.872L22.929,5.872C12.242,5.872,5.872,12.242,5.872,22.929L5.872,47.531C5.872,58.218,12.242,64.588,22.929,64.588L47.531,64.588C58.217,64.588,64.588,58.218,64.588,47.531L64.588,22.929C64.588,12.242,58.217,5.872,47.531,5.872ZM29.27,43.744L22.665,50.349C22.224,50.79,21.666,50.995,21.109,50.995C20.551,50.995,19.964,50.79,19.552,50.349L17.351,48.148C16.47,47.296,16.47,45.887,17.351,45.036C18.202,44.184,19.582,44.184,20.463,45.036L21.109,45.681L26.158,40.632C27.01,39.78,28.389,39.78,29.27,40.632C30.121,41.483,30.121,42.893,29.27,43.744ZM29.27,23.193L22.665,29.799C22.224,30.239,21.666,30.445,21.109,30.445C20.551,30.445,19.964,30.239,19.552,29.799L17.351,27.597C16.47,26.745,16.47,25.336,17.351,24.485C18.202,23.634,19.582,23.634,20.463,24.485L21.109,25.131L26.158,20.081C27.01,19.23,28.389,19.23,29.27,20.081C30.121,20.932,30.121,22.342,29.27,23.193ZM51.553,48.794L36.14,48.794C34.936,48.794,33.938,47.795,33.938,46.592C33.938,45.388,34.936,44.39,36.14,44.39L51.553,44.39C52.786,44.39,53.755,45.388,53.755,46.592C53.755,47.795,52.786,48.794,51.553,48.794ZM51.553,28.243L36.14,28.243C34.936,28.243,33.938,27.245,33.938,26.041C33.938,24.837,34.936,23.839,36.14,23.839L51.553,23.839C52.786,23.839,53.755,24.837,53.755,26.041C53.755,27.245,52.786,28.243,51.553,28.243ZM51.553,28.243"/>
</g>
  <g id="Black-S" transform="matrix(1.0,0.0,0.0,1.0,2907.0949252929686,633.1849448242187)">  <path stroke="none" stroke-linejoin="miter" stroke-linecap="butt" fill-opacity="1" stroke-miterlimit="4" fill="#000000" fill-rule="nonzero" stroke-opacity="1" stroke-width="1px" stroke-dasharray="none" d="M37.217,4.598L17.953,4.598C9.586,4.598,4.597,9.586,4.597,17.953L4.597,37.217C4.597,45.584,9.586,50.573,17.953,50.573L37.217,50.573C45.584,50.573,50.573,45.584,50.573,37.217L50.573,17.953C50.573,9.586,45.584,4.598,37.217,4.598ZM22.919,34.251L17.746,39.424C17.401,39.768,16.965,39.929,16.528,39.929C16.091,39.929,15.631,39.768,15.31,39.424L13.586,37.7C12.896,37.033,12.896,35.93,13.586,35.263C14.252,34.596,15.333,34.596,16.022,35.263L16.528,35.769L20.482,31.815C21.149,31.148,22.229,31.148,22.919,31.815C23.585,32.481,23.585,33.585,22.919,34.251ZM22.919,18.16L17.746,23.332C17.401,23.677,16.965,23.838,16.528,23.838C16.091,23.838,15.631,23.677,15.31,23.332L13.586,21.608C12.896,20.942,12.896,19.838,13.586,19.172C14.252,18.505,15.333,18.505,16.022,19.172L16.528,19.677L20.482,15.723C21.149,15.057,22.229,15.057,22.919,15.723C23.585,16.39,23.585,17.493,22.919,18.16ZM40.366,38.205L28.298,38.205C27.355,38.205,26.574,37.424,26.574,36.481C26.574,35.539,27.355,34.757,28.298,34.757L40.366,34.757C41.332,34.757,42.09,35.539,42.09,36.481C42.09,37.424,41.332,38.205,40.366,38.205ZM40.366,22.114L28.298,22.114C27.355,22.114,26.574,21.333,26.574,20.39C26.574,19.447,27.355,18.666,28.298,18.666L40.366,18.666C41.332,18.666,42.09,19.447,42.09,20.39C42.09,21.333,41.332,22.114,40.366,22.114ZM40.366,22.114"/>
</g>
  <g id="Heavy-S" transform="matrix(1.0,0.0,0.0,1.0,2610.3849252929685,633.1849448242187)">  <path fill-opacity="1" fill="#000000" fill-rule="nonzero" stroke-miterlimit="4" stroke="none" stroke-width="1px" stroke-linecap="butt" stroke-linejoin="miter" stroke-dasharray="none" stroke-opacity="1" d="M37.217,4.598L17.953,4.598C9.586,4.598,4.597,9.586,4.597,17.953L4.597,37.217C4.597,45.584,9.586,50.573,17.953,50.573L37.217,50.573C45.584,50.573,50.573,45.584,50.573,37.217L50.573,17.953C50.573,9.586,45.584,4.598,37.217,4.598ZM22.919,34.251L17.746,39.424C17.401,39.768,16.965,39.929,16.528,39.929C16.091,39.929,15.631,39.768,15.31,39.424L13.586,37.7C12.896,37.033,12.896,35.93,13.586,35.263C14.252,34.596,15.333,34.596,16.022,35.263L16.528,35.769L20.482,31.815C21.149,31.148,22.229,31.148,22.919,31.815C23.585,32.481,23.585,33.585,22.919,34.251ZM22.919,18.16L17.746,23.332C17.401,23.677,16.965,23.838,16.528,23.838C16.091,23.838,15.631,23.677,15.31,23.332L13.586,21.608C12.896,20.942,12.896,19.838,13.586,19.172C14.252,18.505,15.333,18.505,16.022,19.172L16.528,19.677L20.482,15.723C21.149,15.057,22.229,15.057,22.919,15.723C23.585,16.39,23.585,17.493,22.919,18.16ZM40.366,38.205L28.298,38.205C27.355,38.205,26.574,37.424,26.574,36.481C26.574,35.539,27.355,34.757,28.298,34.757L40.366,34.757C41.332,34.757,42.09,35.539,42.09,36.481C42.09,37.424,41.332,38.205,40.366,38.205ZM40.366,22.114L28.298,22.114C27.355,22.114,26.574,21.333,26.574,20.39C26.574,19.447,27.355,18.666,28.298,18.666L40.366,18.666C41.332,18.666,42.09,19.447,42.09,20.39C42.09,21.333,41.332,22.114,40.366,22.114ZM40.366,22.114"/>
</g>
  <g id="Bold-S" transform="matrix(1.0,0.0,0.0,1.0,2313.6749252929685,633.1849448242187)">  <path stroke-linecap="butt" stroke-opacity="1" fill-rule="nonzero" stroke-miterlimit="4" stroke="none" stroke-linejoin="miter" fill="#000000" stroke-dasharray="none" fill-opacity="1" stroke-width="1px" d="M37.217,4.598L17.953,4.598C9.586,4.598,4.597,9.586,4.597,17.953L4.597,37.217C4.597,45.584,9.586,50.573,17.953,50.573L37.217,50.573C45.584,50.573,50.573,45.584,50.573,37.217L50.573,17.953C50.573,9.586,45.584,4.598,37.217,4.598ZM22.919,34.251L17.746,39.424C17.401,39.768,16.965,39.929,16.528,39.929C16.091,39.929,15.631,39.768,15.31,39.424L13.586,37.7C12.896,37.033,12.896,35.93,13.586,35.263C14.252,34.596,15.333,34.596,16.022,35.263L16.528,35.769L20.482,31.815C21.149,31.148,22.229,31.148,22.919,31.815C23.585,32.481,23.585,33.585,22.919,34.251ZM22.919,18.16L17.746,23.332C17.401,23.677,16.965,23.838,16.528,23.838C16.091,23.838,15.631,23.677,15.31,23.332L13.586,21.608C12.896,20.942,12.896,19.838,13.586,19.172C14.252,18.505,15.333,18.505,16.022,19.172L16.528,19.677L20.482,15.723C21.149,15.057,22.229,15.057,22.919,15.723C23.585,16.39,23.585,17.493,22.919,18.16ZM40.366,38.205L28.298,38.205C27.355,38.205,26.574,37.424,26.574,36.481C26.574,35.539,27.355,34.757,28.298,34.757L40.366,34.757C41.332,34.757,42.09,35.539,42.09,36.481C42.09,37.424,41.332,38.205,40.366,38.205ZM40.366,22.114L28.298,22.114C27.355,22.114,26.574,21.333,26.574,20.39C26.574,19.447,27.355,18.666,28.298,18.666L40.366,18.666C41.332,18.666,42.09,19.447,42.09,20.39C42.09,21.333,41.332,22.114,40.366,22.114ZM40.366,22.114"/>
</g>
  <g id="Semibold-S" transform="matrix(1.0,0.0,0.0,1.0,2016.9649252929687,633.1849448242187)">  <path stroke-miterlimit="4" fill-rule="nonzero" fill-opacity="1" stroke-dasharray="none" stroke-opacity="1" stroke-linecap="butt" stroke-linejoin="miter" fill="#000000" stroke="none" stroke-width="1px" d="M37.217,4.598L17.953,4.598C9.586,4.598,4.597,9.586,4.597,17.953L4.597,37.217C4.597,45.584,9.586,50.573,17.953,50.573L37.217,50.573C45.584,50.573,50.573,45.584,50.573,37.217L50.573,17.953C50.573,9.586,45.584,4.598,37.217,4.598ZM22.919,34.251L17.746,39.424C17.401,39.768,16.965,39.929,16.528,39.929C16.091,39.929,15.631,39.768,15.31,39.424L13.586,37.7C12.896,37.033,12.896,35.93,13.586,35.263C14.252,34.596,15.333,34.596,16.022,35.263L16.528,35.769L20.482,31.815C21.149,31.148,22.229,31.148,22.919,31.815C23.585,32.481,23.585,33.585,22.919,34.251ZM22.919,18.16L17.746,23.332C17.401,23.677,16.965,23.838,16.528,23.838C16.091,23.838,15.631,23.677,15.31,23.332L13.586,21.608C12.896,20.942,12.896,19.838,13.586,19.172C14.252,18.505,15.333,18.505,16.022,19.172L16.528,19.677L20.482,15.723C21.149,15.057,22.229,15.057,22.919,15.723C23.585,16.39,23.585,17.493,22.919,18.16ZM40.366,38.205L28.298,38.205C27.355,38.205,26.574,37.424,26.574,36.481C26.574,35.539,27.355,34.757,28.298,34.757L40.366,34.757C41.332,34.757,42.09,35.539,42.09,36.481C42.09,37.424,41.332,38.205,40.366,38.205ZM40.366,22.114L28.298,22.114C27.355,22.114,26.574,21.333,26.574,20.39C26.574,19.447,27.355,18.666,28.298,18.666L40.366,18.666C41.332,18.666,42.09,19.447,42.09,20.39C42.09,21.333,41.332,22.114,40.366,22.114ZM40.366,22.114"/>
</g>
  <g id="Medium-S" transform="matrix(1.0,0.0,0.0,1.0,1720.2549252929687,633.1849448242187)">  <path stroke-miterlimit="4" fill="#000000" stroke-opacity="1" stroke-linejoin="miter" stroke-width="1px" fill-rule="nonzero" fill-opacity="1" stroke="none" stroke-linecap="butt" stroke-dasharray="none" d="M37.217,4.598L17.953,4.598C9.586,4.598,4.597,9.586,4.597,17.953L4.597,37.217C4.597,45.584,9.586,50.573,17.953,50.573L37.217,50.573C45.584,50.573,50.573,45.584,50.573,37.217L50.573,17.953C50.573,9.586,45.584,4.598,37.217,4.598ZM22.919,34.251L17.746,39.424C17.401,39.768,16.965,39.929,16.528,39.929C16.091,39.929,15.631,39.768,15.31,39.424L13.586,37.7C12.896,37.033,12.896,35.93,13.586,35.263C14.252,34.596,15.333,34.596,16.022,35.263L16.528,35.769L20.482,31.815C21.149,31.148,22.229,31.148,22.919,31.815C23.585,32.481,23.585,33.585,22.919,34.251ZM22.919,18.16L17.746,23.332C17.401,23.677,16.965,23.838,16.528,23.838C16.091,23.838,15.631,23.677,15.31,23.332L13.586,21.608C12.896,20.942,12.896,19.838,13.586,19.172C14.252,18.505,15.333,18.505,16.022,19.172L16.528,19.677L20.482,15.723C21.149,15.057,22.229,15.057,22.919,15.723C23.585,16.39,23.585,17.493,22.919,18.16ZM40.366,38.205L28.298,38.205C27.355,38.205,26.574,37.424,26.574,36.481C26.574,35.539,27.355,34.757,28.298,34.757L40.366,34.757C41.332,34.757,42.09,35.539,42.09,36.481C42.09,37.424,41.332,38.205,40.366,38.205ZM40.366,22.114L28.298,22.114C27.355,22.114,26.574,21.333,26.574,20.39C26.574,19.447,27.355,18.666,28.298,18.666L40.366,18.666C41.332,18.666,42.09,19.447,42.09,20.39C42.09,21.333,41.332,22.114,40.366,22.114ZM40.366,22.114"/>
</g>
  <g id="Regular-S" transform="matrix(1.0,0.0,0.0,1.0,1423.5449252929686,633.1849448242187)">  <path stroke="none" stroke-linejoin="miter" stroke-dasharray="none" fill-opacity="1" stroke-width="1px" stroke-linecap="butt" stroke-miterlimit="4" fill-rule="nonzero" stroke-opacity="1" fill="#000000" d="M37.217,4.598L17.953,4.598C9.586,4.598,4.597,9.586,4.597,17.953L4.597,37.217C4.597,45.584,9.586,50.573,17.953,50.573L37.217,50.573C45.584,50.573,50.573,45.584,50.573,37.217L50.573,17.953C50.573,9.586,45.584,4.598,37.217,4.598ZM22.919,34.251L17.746,39.424C17.401,39.768,16.965,39.929,16.528,39.929C16.091,39.929,15.631,39.768,15.31,39.424L13.586,37.7C12.896,37.033,12.896,35.93,13.586,35.263C14.252,34.596,15.333,34.596,16.022,35.263L16.528,35.769L20.482,31.815C21.149,31.148,22.229,31.148,22.919,31.815C23.585,32.481,23.585,33.585,22.919,34.251ZM22.919,18.16L17.746,23.332C17.401,23.677,16.965,23.838,16.528,23.838C16.091,23.838,15.631,23.677,15.31,23.332L13.586,21.608C12.896,20.942,12.896,19.838,13.586,19.172C14.252,18.505,15.333,18.505,16.022,19.172L16.528,19.677L20.482,15.723C21.149,15.057,22.229,15.057,22.919,15.723C23.585,16.39,23.585,17.493,22.919,18.16ZM40.366,38.205L28.298,38.205C27.355,38.205,26.574,37.424,26.574,36.481C26.574,35.539,27.355,34.757,28.298,34.757L40.366,34.757C41.332,34.757,42.09,35.539,42.09,36.481C42.09,37.424,41.332,38.205,40.366,38.205ZM40.366,22.114L28.298,22.114C27.355,22.114,26.574,21.333,26.574,20.39C26.574,19.447,27.355,18.666,28.298,18.666L40.366,18.666C41.332,18.666,42.09,19.447,42.09,20.39C42.09,21.333,41.332,22.114,40.366,22.114ZM40.366,22.114"/>
</g>
  <g id="Light-S" transform="matrix(1.0,0.0,0.0,1.0,1126.8349252929688,633.1849448242187)">  <path fill-opacity="1" stroke-dasharray="none" stroke-miterlimit="4" stroke-linejoin="miter" stroke-width="1px" fill="#000000" stroke-linecap="butt" stroke-opacity="1" fill-rule="nonzero" stroke="none" d="M37.217,4.598L17.953,4.598C9.586,4.598,4.597,9.586,4.597,17.953L4.597,37.217C4.597,45.584,9.586,50.573,17.953,50.573L37.217,50.573C45.584,50.573,50.573,45.584,50.573,37.217L50.573,17.953C50.573,9.586,45.584,4.598,37.217,4.598ZM22.919,34.251L17.746,39.424C17.401,39.768,16.965,39.929,16.528,39.929C16.091,39.929,15.631,39.768,15.31,39.424L13.586,37.7C12.896,37.033,12.896,35.93,13.586,35.263C14.252,34.596,15.333,34.596,16.022,35.263L16.528,35.769L20.482,31.815C21.149,31.148,22.229,31.148,22.919,31.815C23.585,32.481,23.585,33.585,22.919,34.251ZM22.919,18.16L17.746,23.332C17.401,23.677,16.965,23.838,16.528,23.838C16.091,23.838,15.631,23.677,15.31,23.332L13.586,21.608C12.896,20.942,12.896,19.838,13.586,19.172C14.252,18.505,15.333,18.505,16.022,19.172L16.528,19.677L20.482,15.723C21.149,15.057,22.229,15.057,22.919,15.723C23.585,16.39,23.585,17.493,22.919,18.16ZM40.366,38.205L28.298,38.205C27.355,38.205,26.574,37.424,26.574,36.481C26.574,35.539,27.355,34.757,28.298,34.757L40.366,34.757C41.332,34.757,42.09,35.539,42.09,36.481C42.09,37.424,41.332,38.205,40.366,38.205ZM40.366,22.114L28.298,22.114C27.355,22.114,26.574,21.333,26.574,20.39C26.574,19.447,27.355,18.666,28.298,18.666L40.366,18.666C41.332,18.666,42.09,19.447,42.09,20.39C42.09,21.333,41.332,22.114,40.366,22.114ZM40.366,22.114"/>
</g>
  <g id="Thin-S" transform="matrix(1.0,0.0,0.0,1.0,830.1249252929688,633.1849448242187)">  <path fill-rule="nonzero" stroke-opacity="1" stroke-width="1px" stroke-linecap="butt" fill-opacity="1" stroke-dasharray="none" stroke-linejoin="miter" fill="#000000" stroke-miterlimit="4" stroke="none" d="M37.217,4.598L17.953,4.598C9.586,4.598,4.597,9.586,4.597,17.953L4.597,37.217C4.597,45.584,9.586,50.573,17.953,50.573L37.217,50.573C45.584,50.573,50.573,45.584,50.573,37.217L50.573,17.953C50.573,9.586,45.584,4.598,37.217,4.598ZM22.919,34.251L17.746,39.424C17.401,39.768,16.965,39.929,16.528,39.929C16.091,39.929,15.631,39.768,15.31,39.424L13.586,37.7C12.896,37.033,12.896,35.93,13.586,35.263C14.252,34.596,15.333,34.596,16.022,35.263L16.528,35.769L20.482,31.815C21.149,31.148,22.229,31.148,22.919,31.815C23.585,32.481,23.585,33.585,22.919,34.251ZM22.919,18.16L17.746,23.332C17.401,23.677,16.965,23.838,16.528,23.838C16.091,23.838,15.631,23.677,15.31,23.332L13.586,21.608C12.896,20.942,12.896,19.838,13.586,19.172C14.252,18.505,15.333,18.505,16.022,19.172L16.528,19.677L20.482,15.723C21.149,15.057,22.229,15.057,22.919,15.723C23.585,16.39,23.585,17.493,22.919,18.16ZM40.366,38.205L28.298,38.205C27.355,38.205,26.574,37.424,26.574,36.481C26.574,35.539,27.355,34.757,28.298,34.757L40.366,34.757C41.332,34.757,42.09,35.539,42.09,36.481C42.09,37.424,41.332,38.205,40.366,38.205ZM40.366,22.114L28.298,22.114C27.355,22.114,26.574,21.333,26.574,20.39C26.574,19.447,27.355,18.666,28.298,18.666L40.366,18.666C41.332,18.666,42.09,19.447,42.09,20.39C42.09,21.333,41.332,22.114,40.366,22.114ZM40.366,22.114"/>
</g>
  <g id="Ultralight-S" transform="matrix(1.0,0.0,0.0,1.0,533.4149252929687,633.1849448242187)">  <path stroke-opacity="1" fill-rule="nonzero" stroke-linejoin="miter" fill="#000000" stroke-dasharray="none" stroke-width="1px" stroke-linecap="butt" stroke="none" fill-opacity="1" stroke-miterlimit="4" d="M37.217,4.598L17.953,4.598C9.586,4.598,4.597,9.586,4.597,17.953L4.597,37.217C4.597,45.584,9.586,50.573,17.953,50.573L37.217,50.573C45.584,50.573,50.573,45.584,50.573,37.217L50.573,17.953C50.573,9.586,45.584,4.598,37.217,4.598ZM22.919,34.251L17.746,39.424C17.401,39.768,16.965,39.929,16.528,39.929C16.091,39.929,15.631,39.768,15.31,39.424L13.586,37.7C12.896,37.033,12.896,35.93,13.586,35.263C14.252,34.596,15.333,34.596,16.022,35.263L16.528,35.769L20.482,31.815C21.149,31.148,22.229,31.148,22.919,31.815C23.585,32.481,23.585,33.585,22.919,34.251ZM22.919,18.16L17.746,23.332C17.401,23.677,16.965,23.838,16.528,23.838C16.091,23.838,15.631,23.677,15.31,23.332L13.586,21.608C12.896,20.942,12.896,19.838,13.586,19.172C14.252,18.505,15.333,18.505,16.022,19.172L16.528,19.677L20.482,15.723C21.149,15.057,22.229,15.057,22.919,15.723C23.585,16.39,23.585,17.493,22.919,18.16ZM40.366,38.205L28.298,38.205C27.355,38.205,26.574,37.424,26.574,36.481C26.574,35.539,27.355,34.757,28.298,34.757L40.366,34.757C41.332,34.757,42.09,35.539,42.09,36.481C42.09,37.424,41.332,38.205,40.366,38.205ZM40.366,22.114L28.298,22.114C27.355,22.114,26.574,21.333,26.574,20.39C26.574,19.447,27.355,18.666,28.298,18.666L40.366,18.666C41.332,18.666,42.09,19.447,42.09,20.39C42.09,21.333,41.332,22.114,40.366,22.114ZM40.366,22.114"/>
</g>
 </g>
</svg>
