<?xml version="1.0" encoding="UTF-8"?>
<!-- Generator: CustomSymbols v2.6.2.41 by @serious_bret https://bretlester.com/app_content/CustomSymbols/ -->
<!-- Guides: Left/Right 0.0/0.0 Cap/Base 0.0/0.0 -->
<!-- Settings: RefScale 1.0 Min/Max Stroke Scales 0.5/2.21 -->
<!DOCTYPE svg
PUBLIC "-//W3C//DTD SVG 1.1//EN"
       "http://www.w3.org/Graphics/SVG/1.1/DTD/svg11.dtd">
<svg version="1.1" xmlns="http://www.w3.org/2000/svg" xmlns:xlink="http://www.w3.org/1999/xlink" width="3300" height="2200">
<![CDATA[<svg width="24" height="24" viewBox="0 0 24 24" fill="none" xmlns="http://www.w3.org/2000/svg">
<path d="M12 15C13.6569 15 15 13.6569 15 12C15 10.3431 13.6569 9 12 9C10.3431 9 9 10.3431 9 12C9 13.6569 10.3431 15 12 15Z" stroke="#B30000" stroke-width="1.5" stroke-miterlimit="10" stroke-linecap="round" stroke-linejoin="round"/>
<path d="M2 12.88V11.12C2 10.08 2.85 9.22 3.9 9.22C5.71 9.22 6.45 7.94 5.54 6.37C5.02 5.47 5.33 4.3 6.24 3.78L7.97 2.79C8.76 2.32 9.78 2.6 10.25 3.39L10.36 3.58C11.26 5.15 12.74 5.15 13.65 3.58L13.76 3.39C14.23 2.6 15.25 2.32 16.04 2.79L17.77 3.78C18.68 4.3 18.99 5.47 18.47 6.37C17.56 7.94 18.3 9.22 20.11 9.22C21.15 9.22 22.01 10.07 22.01 11.12V12.88C22.01 13.92 21.16 14.78 20.11 14.78C18.3 14.78 17.56 16.06 18.47 17.63C18.99 18.54 18.68 19.7 17.77 20.22L16.04 21.21C15.25 21.68 14.23 21.4 13.76 20.61L13.65 20.42C12.75 18.85 11.27 18.85 10.36 20.42L10.25 20.61C9.78 21.4 8.76 21.68 7.97 21.21L6.24 20.22C5.33 19.7 5.02 18.53 5.54 17.63C6.45 16.06 5.71 14.78 3.9 14.78C2.85 14.78 2 13.92 2 12.88Z" stroke="#B30000" stroke-width="1.5" stroke-miterlimit="10" stroke-linecap="round" stroke-linejoin="round"/>
</svg>
]]>
 <g id="Notes">
  <rect height="2200" id="artboard" style="fill:white;opacity:1" width="3300" x="0" y="0"/>
  <line id="" style="fill:none;stroke:black;opacity:1;stroke-width:0.5;" x1="263" x2="3036" y1="292" y2="292"/>
  <text id="reftext1" style="stroke:none;fill:black;font-family:-apple-system,&quot;SF Pro Display&quot;,&quot;SF Pro Text&quot;,Helvetica,sans-serif;font-weight:bold;" transform="matrix(1 0 0 1 263 322)">Weight/Scale Variations</text>
  <text id="reftext2" style="stroke:none;fill:black;font-family:-apple-system,&quot;SF Pro Display&quot;,&quot;SF Pro Text&quot;,Helvetica,sans-serif;text-anchor:middle;" transform="matrix(1 0 0 1 559.711 322)">Ultralight</text>
  <text style="stroke:none;fill:black;font-family:-apple-system,&quot;SF Pro Display&quot;,&quot;SF Pro Text&quot;,Helvetica,sans-serif;text-anchor:middle;" transform="matrix(1 0 0 1 856.422 322)">Thin</text>
  <text style="stroke:none;fill:black;font-family:-apple-system,&quot;SF Pro Display&quot;,&quot;SF Pro Text&quot;,Helvetica,sans-serif;text-anchor:middle;" transform="matrix(1 0 0 1 1153.13 322)">Light</text>
  <text style="stroke:none;fill:black;font-family:-apple-system,&quot;SF Pro Display&quot;,&quot;SF Pro Text&quot;,Helvetica,sans-serif;text-anchor:middle;" transform="matrix(1 0 0 1 1449.84 322)">Regular</text>
  <text style="stroke:none;fill:black;font-family:-apple-system,&quot;SF Pro Display&quot;,&quot;SF Pro Text&quot;,Helvetica,sans-serif;text-anchor:middle;" transform="matrix(1 0 0 1 1746.56 322)">Medium</text>
  <text style="stroke:none;fill:black;font-family:-apple-system,&quot;SF Pro Display&quot;,&quot;SF Pro Text&quot;,Helvetica,sans-serif;text-anchor:middle;" transform="matrix(1 0 0 1 2043.27 322)">Semibold</text>
  <text style="stroke:none;fill:black;font-family:-apple-system,&quot;SF Pro Display&quot;,&quot;SF Pro Text&quot;,Helvetica,sans-serif;text-anchor:middle;" transform="matrix(1 0 0 1 2339.98 322)">Bold</text>
  <text style="stroke:none;fill:black;font-family:-apple-system,&quot;SF Pro Display&quot;,&quot;SF Pro Text&quot;,Helvetica,sans-serif;text-anchor:middle;" transform="matrix(1 0 0 1 2636.69 322)">Heavy</text>
  <text style="stroke:none;fill:black;font-family:-apple-system,&quot;SF Pro Display&quot;,&quot;SF Pro Text&quot;,Helvetica,sans-serif;text-anchor:middle;" transform="matrix(1 0 0 1 2933.4 322)">Black</text>
  <line id="" style="fill:none;stroke:black;opacity:1;stroke-width:0.5;" x1="263" x2="3036" y1="1903" y2="1903"/>
  <g id="" transform="matrix(1 0 0 1 263 1933)">
   <path d="M9.24805 0.830078C13.5547 0.830078 17.1387-2.74414 17.1387-7.05078C17.1387-11.3574 13.5449-14.9316 9.23828-14.9316C4.94141-14.9316 1.36719-11.3574 1.36719-7.05078C1.36719-2.74414 4.95117 0.830078 9.24805 0.830078ZM9.24805-0.654297C5.70312-0.654297 2.87109-3.49609 2.87109-7.05078C2.87109-10.6055 5.69336-13.4473 9.23828-13.4473C12.793-13.4473 15.6348-10.6055 15.6445-7.05078C15.6543-3.49609 12.8027-0.654297 9.24805-0.654297ZM6.39648-6.31836L8.50586-6.31836L8.50586-4.19922C8.50586-3.75977 8.79883-3.45703 9.22852-3.45703C9.67773-3.45703 9.9707-3.75977 9.9707-4.19922L9.9707-6.31836L12.0996-6.31836C12.5391-6.31836 12.8418-6.61133 12.8418-7.04102C12.8418-7.48047 12.5391-7.7832 12.0996-7.7832L9.9707-7.7832L9.9707-9.89258C9.9707-10.3418 9.67773-10.6445 9.22852-10.6445C8.79883-10.6445 8.50586-10.3418 8.50586-9.89258L8.50586-7.7832L6.39648-7.7832C5.94727-7.7832 5.64453-7.48047 5.64453-7.04102C5.64453-6.61133 5.94727-6.31836 6.39648-6.31836Z"/>
  </g>
  <g id="" transform="matrix(1 0 0 1 281.506 1933)">
   <path d="M11.709 2.91016C17.1582 2.91016 21.6699-1.61133 21.6699-7.05078C21.6699-12.5 17.1484-17.0117 11.6992-17.0117C6.25977-17.0117 1.74805-12.5 1.74805-7.05078C1.74805-1.61133 6.26953 2.91016 11.709 2.91016ZM11.709 1.25C7.09961 1.25 3.41797-2.44141 3.41797-7.05078C3.41797-11.6602 7.08984-15.3516 11.6992-15.3516C16.3086-15.3516 20-11.6602 20.0098-7.05078C20.0195-2.44141 16.3184 1.25 11.709 1.25ZM7.98828-6.23047L10.8789-6.23047L10.8789-3.32031C10.8789-2.83203 11.2109-2.5 11.6895-2.5C12.1777-2.5 12.5195-2.83203 12.5195-3.32031L12.5195-6.23047L15.4297-6.23047C15.918-6.23047 16.25-6.5625 16.25-7.04102C16.25-7.5293 15.918-7.87109 15.4297-7.87109L12.5195-7.87109L12.5195-10.7617C12.5195-11.2695 12.1777-11.6016 11.6895-11.6016C11.2109-11.6016 10.8789-11.2598 10.8789-10.7617L10.8789-7.87109L7.98828-7.87109C7.48047-7.87109 7.14844-7.5293 7.14844-7.04102C7.14844-6.5625 7.49023-6.23047 7.98828-6.23047Z"/>
  </g>
  <g id="" transform="matrix(1 0 0 1 304.924 1933)">
   <path d="M14.9707 5.66406C21.9336 5.66406 27.6953-0.0976562 27.6953-7.05078C27.6953-14.0137 21.9238-19.7754 14.9609-19.7754C8.00781-19.7754 2.25586-14.0137 2.25586-7.05078C2.25586-0.0976562 8.01758 5.66406 14.9707 5.66406ZM14.9707 3.84766C8.93555 3.84766 4.08203-1.01562 4.08203-7.05078C4.08203-13.0957 8.92578-17.9492 14.9609-17.9492C21.0059-17.9492 25.8594-13.0957 25.8691-7.05078C25.8789-1.01562 21.0156 3.84766 14.9707 3.84766ZM10.0586-6.14258L14.0625-6.14258L14.0625-2.12891C14.0625-1.5918 14.4336-1.2207 14.9512-1.2207C15.4883-1.2207 15.8594-1.5918 15.8594-2.12891L15.8594-6.14258L19.8828-6.14258C20.4102-6.14258 20.791-6.51367 20.791-7.03125C20.791-7.56836 20.4199-7.94922 19.8828-7.94922L15.8594-7.94922L15.8594-11.9531C15.8594-12.5098 15.4883-12.8809 14.9512-12.8809C14.4336-12.8809 14.0625-12.5 14.0625-11.9531L14.0625-7.94922L10.0586-7.94922C9.50195-7.94922 9.13086-7.56836 9.13086-7.03125C9.13086-6.51367 9.51172-6.14258 10.0586-6.14258Z"/>
  </g>
  <text style="stroke:none;fill:black;font-family:-apple-system,&quot;SF Pro Display&quot;,&quot;SF Pro Text&quot;,Helvetica,sans-serif;font-weight:bold;" transform="matrix(1 0 0 1 263 1953)">Design Variations</text>
  <text style="stroke:none;fill:black;font-family:-apple-system,&quot;SF Pro Display&quot;,&quot;SF Pro Text&quot;,Helvetica,sans-serif;" transform="matrix(1 0 0 1 263 1971)">Symbols are supported in up to nine weights and three scales.</text>
  <text style="stroke:none;fill:black;font-family:-apple-system,&quot;SF Pro Display&quot;,&quot;SF Pro Text&quot;,Helvetica,sans-serif;" transform="matrix(1 0 0 1 263 1989)">For optimal layout with text and other symbols, vertically align</text>
  <text style="stroke:none;fill:black;font-family:-apple-system,&quot;SF Pro Display&quot;,&quot;SF Pro Text&quot;,Helvetica,sans-serif;" transform="matrix(1 0 0 1 263 2007)">symbols with the adjacent text.</text>
  <line id="" style="fill:none;stroke:#00AEEF;stroke-width:0.5;opacity:1.0;" x1="776" x2="776" y1="1919" y2="1933"/>
  <g id="" transform="matrix(1 0 0 1 776 1933)">
   <path d="M3.31055 0.126953C3.82812 0.126953 4.08203-0.0683594 4.26758-0.605469L5.52734-4.0625L11.2891-4.0625L12.5488-0.605469C12.7344-0.0683594 12.9883 0.126953 13.4961 0.126953C14.0137 0.126953 14.3457-0.185547 14.3457-0.673828C14.3457-0.839844 14.3164-0.986328 14.2383-1.20117L9.6582-13.3887C9.43359-13.9941 9.0332-14.2871 8.4082-14.2871C7.80273-14.2871 7.39258-13.9941 7.17773-13.3984L2.59766-1.19141C2.51953-0.976562 2.49023-0.830078 2.49023-0.664062C2.49023-0.175781 2.80273 0.126953 3.31055 0.126953ZM6.00586-5.53711L8.37891-12.1094L8.42773-12.1094L10.8008-5.53711Z"/>
  </g>
  <line id="" style="fill:none;stroke:#00AEEF;stroke-width:0.5;opacity:1.0;" x1="792.836" x2="792.836" y1="1919" y2="1933"/>
  <text style="stroke:none;fill:black;font-family:-apple-system,&quot;SF Pro Display&quot;,&quot;SF Pro Text&quot;,Helvetica,sans-serif;font-weight:bold;" transform="matrix(1 0 0 1 776 1953)">Margins</text>
  <text style="stroke:none;fill:black;font-family:-apple-system,&quot;SF Pro Display&quot;,&quot;SF Pro Text&quot;,Helvetica,sans-serif;" transform="matrix(1 0 0 1 776 1971)">Leading and trailing margins on the left and right side of each symbol</text>
  <text style="stroke:none;fill:black;font-family:-apple-system,&quot;SF Pro Display&quot;,&quot;SF Pro Text&quot;,Helvetica,sans-serif;" transform="matrix(1 0 0 1 776 1989)">can be adjusted by modifying the x-location of the margin guidelines.</text>
  <text style="stroke:none;fill:black;font-family:-apple-system,&quot;SF Pro Display&quot;,&quot;SF Pro Text&quot;,Helvetica,sans-serif;" transform="matrix(1 0 0 1 776 2007)">Modifications are automatically applied proportionally to all</text>
  <text style="stroke:none;fill:black;font-family:-apple-system,&quot;SF Pro Display&quot;,&quot;SF Pro Text&quot;,Helvetica,sans-serif;" transform="matrix(1 0 0 1 776 2025)">scales and weights.</text>
  <g id="" transform="matrix(1 0 0 1 1289 1933)">
   <path d="M2.8418 1.86523L4.54102 3.57422C5.40039 4.44336 6.38672 4.38477 7.31445 3.35938L17.4902-7.85156C17.7539-7.76367 18.0273-7.7832 18.3398-7.8418L19.4043-8.03711L20.0684-7.36328L20.0293-6.80664C19.9902-6.30859 20.1172-5.92773 20.6055-5.44922L21.3672-4.70703C21.8457-4.22852 22.4609-4.19922 22.9297-4.66797L25.8398-7.58789C26.3086-8.05664 26.2891-8.65234 25.8105-9.13086L25.0391-9.89258C24.5605-10.3711 24.1895-10.5273 23.7109-10.4883L23.1348-10.4395L22.4902-11.0742L22.7344-12.1973C22.8613-12.7637 22.7051-13.2031 22.1191-13.7891L19.9219-15.9766C16.582-19.2969 12.1484-19.2188 9.25781-16.3281C8.83789-15.918 8.80859-15.3418 9.04297-14.9512C9.27734-14.5898 9.73633-14.3555 10.3809-14.5215C11.8457-14.8633 13.3691-14.9219 14.7949-13.9844L14.209-12.5293C14.0137-12.0508 13.9844-11.6504 14.1113-11.2891L3.04688-0.898438C2.06055 0.0195312 1.98242 0.996094 2.8418 1.86523ZM10.752-15.957C13.1836-17.7344 16.4746-17.4316 18.7012-15.2051L21.1328-12.793C21.3672-12.5586 21.4062-12.373 21.3379-12.0312L21.0156-10.5469L22.5195-9.0625L23.5059-9.12109C23.7598-9.13086 23.8379-9.11133 24.0332-8.91602L24.6094-8.33984L22.168-5.89844L21.5918-6.47461C21.3965-6.66992 21.3672-6.74805 21.377-7.01172L21.4453-7.98828L19.9512-9.47266L18.4277-9.21875C18.1055-9.15039 17.959-9.17969 17.7148-9.41406L15.7129-11.416C15.459-11.6504 15.4297-11.8164 15.5859-12.1875L16.4648-14.2773C14.9023-15.7324 12.8711-16.3574 10.8398-15.7617C10.6836-15.7227 10.625-15.8496 10.752-15.957ZM5.27344 2.30469L4.10156 1.14258C3.63281 0.683594 3.74023 0.341797 4.14062-0.0195312L14.9512-10.1953L16.416-8.71094L6.42578 2.27539C6.07422 2.67578 5.74219 2.77344 5.27344 2.30469Z"/>
  </g>
  <text style="stroke:none;fill:black;font-family:-apple-system,&quot;SF Pro Display&quot;,&quot;SF Pro Text&quot;,Helvetica,sans-serif;font-weight:bold;" transform="matrix(1 0 0 1 1289 1953)">Exporting</text>
  <text style="stroke:none;fill:black;font-family:-apple-system,&quot;SF Pro Display&quot;,&quot;SF Pro Text&quot;,Helvetica,sans-serif;" transform="matrix(1 0 0 1 1289 1971)">Symbols should be outlined when exporting to ensure the</text>
  <text style="stroke:none;fill:black;font-family:-apple-system,&quot;SF Pro Display&quot;,&quot;SF Pro Text&quot;,Helvetica,sans-serif;" transform="matrix(1 0 0 1 1289 1989)">design is preserved when submitting to Xcode.</text>
  <text id="template-version" style="stroke:none;fill:black;font-family:-apple-system,&quot;SF Pro Display&quot;,&quot;SF Pro Text&quot;,Helvetica,sans-serif;text-anchor:end;" transform="matrix(1 0 0 1 3036 1933)">Template v.2.0</text>
  <text style="stroke:none;fill:black;font-family:-apple-system,&quot;SF Pro Display&quot;,&quot;SF Pro Text&quot;,Helvetica,sans-serif;text-anchor:end;" transform="matrix(1 0 0 1 3036 1951)">Requires Xcode 12 or greater</text>
  <text style="stroke:none;fill:black;font-family:-apple-system,&quot;SF Pro Display&quot;,&quot;SF Pro Text&quot;,Helvetica,sans-serif;" transform="matrix(1 0 0 1 263 726)">Small</text>
  <text style="stroke:none;fill:black;font-family:-apple-system,&quot;SF Pro Display&quot;,&quot;SF Pro Text&quot;,Helvetica,sans-serif;" transform="matrix(1 0 0 1 263 1156)">Medium</text>
  <text style="stroke:none;fill:black;font-family:-apple-system,&quot;SF Pro Display&quot;,&quot;SF Pro Text&quot;,Helvetica,sans-serif;" transform="matrix(1 0 0 1 263 1586)">Large</text>
 </g>
 <g id="Guides">
  <g id="H-reference" style="fill:#27AAE1;stroke:none;" transform="matrix(1 0 0 1 339 696)">
   <path d="M0.976562 0L3.66211 0L12.9883-24.4629L45.752-24.4629L55.127 0L57.7637 0L30.6152-70.459L28.125-70.459ZM29.3457-67.1387L29.4434-67.1387L44.873-26.709L13.8672-26.709Z"/>
  </g>
  <line id="Baseline-S" style="fill:none;stroke:#27AAE1;opacity:1;stroke-width:0.5;" x1="263" x2="3036" y1="696" y2="696"/>
  <line id="Capline-S" style="fill:none;stroke:#27AAE1;opacity:1;stroke-width:0.5;" x1="263" x2="3036" y1="625.541" y2="625.541"/>
  <g id="H-reference" style="fill:#27AAE1;stroke:none;" transform="matrix(1 0 0 1 339 1126)">
   <path d="M0.976562 0L3.66211 0L12.9883-24.4629L45.752-24.4629L55.127 0L57.7637 0L30.6152-70.459L28.125-70.459ZM29.3457-67.1387L29.4434-67.1387L44.873-26.709L13.8672-26.709Z"/>
  </g>
  <line id="Baseline-M" style="fill:none;stroke:#27AAE1;opacity:1;stroke-width:0.5;" x1="263" x2="3036" y1="1126" y2="1126"/>
  <line id="Capline-M" style="fill:none;stroke:#27AAE1;opacity:1;stroke-width:0.5;" x1="263" x2="3036" y1="1055.54" y2="1055.54"/>
  <g id="H-reference" style="fill:#27AAE1;stroke:none;" transform="matrix(1 0 0 1 339 1556)">
   <path d="M0.976562 0L3.66211 0L12.9883-24.4629L45.752-24.4629L55.127 0L57.7637 0L30.6152-70.459L28.125-70.459ZM29.3457-67.1387L29.4434-67.1387L44.873-26.709L13.8672-26.709Z"/>
  </g>
  <line id="Baseline-L" style="fill:none;stroke:#27AAE1;opacity:1;stroke-width:0.5;" x1="263" x2="3036" y1="1556" y2="1556"/>
  <line id="Capline-L" style="fill:none;stroke:#27AAE1;opacity:1;stroke-width:0.5;" x1="263" x2="3036" y1="1485.54" y2="1485.54"/>
  <line id="left-margin" x1="1415.9000195312499" x2="1415.9000195312499" y1="1030.79" y2="1150.12" style="fill:none;stroke:#00AEEF;stroke-width:0.5;opacity:1.0;"/>
  <line id="right-margin" x1="1486.3599804687499" x2="1486.3599804687499" y1="1030.79" y2="1150.12" style="fill:none;stroke:#00AEEF;stroke-width:0.5;opacity:1.0;"/>
 </g>
 <g id="Symbols">
  <g id="Black-L" transform="matrix(1.0,0.0,0.0,1.0,2889.2333251953123,1475.3233447265625)">  <path stroke-opacity="1" fill="#000000" stroke-dasharray="none" stroke-linecap="round" stroke-miterlimit="10" stroke-width="1.5px" stroke-linejoin="round" fill-opacity="1" fill-rule="nonzero" stroke="none" d="M45.447,63.086C55.189,63.086,63.086,55.189,63.086,45.447C63.086,35.705,55.189,27.808,45.447,27.808C35.705,27.808,27.808,35.705,27.808,45.447C27.808,55.189,35.705,63.086,45.447,63.086ZM45.447,50.531C42.638,50.531,40.362,48.255,40.362,45.447C40.362,42.638,42.638,40.362,45.447,40.362C48.255,40.362,50.531,42.638,50.531,45.447C50.531,48.255,48.255,50.531,45.447,50.531Z"/>
  <path stroke-miterlimit="10" fill-rule="nonzero" fill="#000000" stroke-width="1.5px" stroke-linejoin="round" stroke-dasharray="none" stroke-linecap="round" stroke-opacity="1" fill-opacity="1" stroke="none" d="M13.852,48.779L13.852,42.114C13.852,41.624,14.279,41.196,14.77,41.196C26.466,41.196,32.282,31.104,26.412,20.977C26.18,20.575,26.334,20.002,26.747,19.766L33.302,16.015L33.394,15.961C33.359,15.981,33.389,15.989,33.424,16.048L38.819,12.839L33.386,15.984L33.803,16.703C39.607,26.829,51.259,26.829,57.127,16.706L57.545,15.984L52.112,12.839L57.507,16.048C57.542,15.989,57.572,15.981,57.538,15.961L57.629,16.015L64.181,19.764C64.598,20.002,64.751,20.575,64.515,20.984C58.649,31.104,64.465,41.196,76.161,41.196C76.651,41.196,77.079,41.622,77.079,42.114L77.079,48.779C77.079,49.269,76.653,49.698,76.161,49.698C64.465,49.698,58.649,59.79,64.519,69.917C64.757,70.333,64.608,70.886,64.185,71.127L57.629,74.879L57.538,74.932C57.572,74.912,57.542,74.904,57.507,74.845L52.112,78.055L57.545,74.909L57.128,74.19C51.324,64.064,39.672,64.064,33.805,74.187L33.386,74.91L38.819,78.055L33.424,74.845C33.389,74.904,33.359,74.912,33.394,74.932L33.302,74.879L26.75,71.129C26.334,70.891,26.18,70.319,26.417,69.909C32.282,59.79,26.466,49.698,14.77,49.698C14.279,49.698,13.852,49.269,13.852,48.779ZM1.297,48.779C1.297,56.193,7.335,62.252,14.77,62.252C15.576,62.252,16.144,62.365,16.462,62.514C16.508,62.535,16.514,62.539,16.493,62.52C16.427,62.462,16.358,62.378,16.3,62.276C16.241,62.175,16.203,62.073,16.186,61.988C16.18,61.96,16.18,61.967,16.176,62.018C16.145,62.369,15.957,62.92,15.55,63.621C11.833,70.055,14.057,78.336,20.518,82.028L27.066,85.775L30.184,80.327L26.975,85.722C32.957,89.281,40.667,87.225,44.214,81.264L44.252,81.2L44.668,80.48C45.074,79.78,45.46,79.34,45.753,79.136C45.797,79.105,45.806,79.101,45.782,79.109C45.701,79.135,45.595,79.153,45.48,79.153C45.288,79.153,45.166,79.112,45.188,79.128C45.473,79.328,45.85,79.761,46.25,80.457L46.68,81.2L46.717,81.264C50.264,87.225,57.974,89.281,63.957,85.722L60.747,80.327L63.865,85.775L70.417,82.026C76.872,78.337,79.088,70.109,75.4,63.654C74.975,62.92,74.787,62.369,74.755,62.018C74.751,61.967,74.751,61.96,74.745,61.988C74.728,62.073,74.69,62.175,74.631,62.276C74.573,62.378,74.504,62.462,74.439,62.52C74.417,62.539,74.423,62.535,74.469,62.514C74.787,62.365,75.355,62.252,76.161,62.252C83.597,62.252,89.634,56.193,89.634,48.779L89.634,42.114C89.634,34.678,83.575,28.641,76.161,28.641C75.355,28.641,74.787,28.528,74.469,28.38C74.423,28.358,74.417,28.354,74.439,28.373C74.504,28.431,74.573,28.516,74.631,28.617C74.69,28.718,74.728,28.821,74.745,28.906C74.751,28.933,74.751,28.926,74.755,28.876C74.787,28.524,74.975,27.974,75.381,27.273C79.098,20.838,76.874,12.557,70.413,8.865L63.865,5.118L60.747,10.566L63.957,5.172C57.974,1.612,50.264,3.668,46.717,9.629L46.68,9.694L46.263,10.413C45.857,11.113,45.471,11.553,45.178,11.758C45.134,11.788,45.125,11.793,45.15,11.785C45.23,11.758,45.336,11.74,45.451,11.74C45.643,11.74,45.766,11.781,45.743,11.765C45.458,11.566,45.081,11.133,44.682,10.436L44.252,9.694L44.214,9.629C40.667,3.668,32.957,1.612,26.975,5.172L30.184,10.566L27.066,5.118L20.514,8.867C14.057,12.557,11.833,20.838,15.546,27.265C15.957,27.974,16.145,28.524,16.176,28.876C16.18,28.926,16.18,28.933,16.186,28.906C16.203,28.821,16.241,28.718,16.3,28.617C16.358,28.516,16.427,28.431,16.493,28.373C16.514,28.354,16.508,28.358,16.462,28.38C16.144,28.528,15.576,28.641,14.77,28.641C7.335,28.641,1.297,34.7,1.297,42.114L1.297,48.779Z"/>
</g>
  <g id="Heavy-L" transform="matrix(1.0,0.0,0.0,1.0,2592.5233251953123,1475.3233447265625)">  <path stroke-dasharray="none" stroke-opacity="1" stroke-width="1.5px" stroke-linecap="round" fill-rule="nonzero" stroke="none" stroke-miterlimit="10" stroke-linejoin="round" fill-opacity="1" fill="#000000" d="M45.447,62.398C54.809,62.398,62.398,54.809,62.398,45.447C62.398,36.084,54.809,28.495,45.447,28.495C36.084,28.495,28.495,36.084,28.495,45.447C28.495,54.809,36.084,62.398,45.447,62.398ZM45.447,51.218C42.259,51.218,39.675,48.634,39.675,45.447C39.675,42.259,42.259,39.675,45.447,39.675C48.634,39.675,51.218,42.259,51.218,45.447C51.218,48.634,48.634,51.218,45.447,51.218Z"/>
  <path fill-rule="nonzero" stroke-opacity="1" fill="#000000" stroke="none" stroke-dasharray="none" fill-opacity="1" stroke-miterlimit="10" stroke-linejoin="round" stroke-width="1.5px" stroke-linecap="round" d="M13.164,48.779L13.164,42.114C13.164,41.245,13.898,40.508,14.77,40.508C25.937,40.508,31.422,30.99,25.817,21.321C25.394,20.589,25.662,19.594,26.406,19.169L32.961,15.418L33.042,15.37C33.337,15.195,33.788,15.315,34.015,15.697L34.398,16.359C39.94,26.027,50.93,26.027,56.532,16.361L56.95,15.639C57.143,15.315,57.594,15.195,57.889,15.37L57.971,15.418L64.523,19.167C65.27,19.594,65.537,20.589,65.11,21.328C59.51,30.99,64.994,40.508,76.161,40.508C77.03,40.508,77.767,41.242,77.767,42.114L77.767,48.779C77.767,49.649,77.033,50.385,76.161,50.385C64.994,50.385,59.51,59.903,65.114,69.572C65.541,70.32,65.279,71.294,64.526,71.724L57.971,75.475L57.889,75.523C57.594,75.699,57.143,75.579,56.916,75.197L56.533,74.534C50.991,64.866,40.002,64.866,34.399,74.532L33.981,75.254C33.788,75.579,33.337,75.699,33.042,75.523L32.961,75.475L26.409,71.726C25.662,71.299,25.394,70.304,25.821,69.565C31.422,59.903,25.937,50.385,14.77,50.385C13.898,50.385,13.164,49.649,13.164,48.779ZM1.985,48.779C1.985,55.814,7.715,61.565,14.77,61.565C17.322,61.565,17.429,61.75,16.145,63.966C12.618,70.069,14.729,77.929,20.859,81.431L27.408,85.179L30.184,80.327L27.326,85.131C32.979,88.494,40.269,86.551,43.623,80.913L44.073,80.136C45.362,77.912,45.583,77.912,46.846,80.115L47.275,80.855C50.662,86.551,57.952,88.494,63.605,85.131L60.747,80.327L63.523,85.179L70.075,81.429C76.201,77.929,78.304,70.121,74.803,63.995C73.502,61.75,73.609,61.565,76.161,61.565C83.216,61.565,88.947,55.814,88.947,48.779L88.947,42.114C88.947,35.059,83.196,29.328,76.161,29.328C73.609,29.328,73.502,29.143,74.786,26.928C78.313,20.824,76.202,12.965,70.072,9.462L63.523,5.715L60.747,10.566L63.605,5.762C57.952,2.399,50.662,4.343,47.308,9.981L46.858,10.757C45.569,12.981,45.348,12.981,44.085,10.778L43.657,10.038C40.269,4.343,32.98,2.399,27.326,5.762L30.184,10.566L27.408,5.715L20.856,9.464C14.729,12.965,12.618,20.824,16.141,26.921C17.429,29.143,17.322,29.328,14.77,29.328C7.715,29.328,1.985,35.079,1.985,42.114L1.985,48.779Z"/>
</g>
  <g id="Bold-L" transform="matrix(1.0,0.0,0.0,1.0,2295.8133251953122,1475.3233447265625)">  <path stroke-miterlimit="10" stroke-linecap="round" stroke-linejoin="round" stroke="none" fill-rule="nonzero" stroke-dasharray="none" fill="#000000" stroke-width="1.5px" fill-opacity="1" stroke-opacity="1" d="M45.447,61.711C54.429,61.711,61.711,54.429,61.711,45.447C61.711,36.464,54.429,29.182,45.447,29.182C36.464,29.182,29.182,36.464,29.182,45.447C29.182,54.429,36.464,61.711,45.447,61.711ZM45.447,51.906C41.879,51.906,38.988,49.014,38.988,45.447C38.988,41.879,41.879,38.988,45.447,38.988C49.014,38.988,51.906,41.879,51.906,45.447C51.906,49.014,49.014,51.906,45.447,51.906Z"/>
  <path stroke-opacity="1" fill="#000000" fill-opacity="1" stroke-dasharray="none" stroke="none" stroke-miterlimit="10" stroke-linecap="round" stroke-linejoin="round" stroke-width="1.5px" fill-rule="nonzero" d="M12.477,48.779L12.477,42.114C12.477,40.866,13.518,39.821,14.77,39.821C25.407,39.821,30.561,30.877,25.223,21.666C24.609,20.603,24.989,19.187,26.065,18.572L32.619,14.821L32.691,14.78C33.315,14.408,34.186,14.64,34.606,15.345L34.993,16.015C40.273,25.225,50.6,25.225,55.937,16.017L56.355,15.295C56.745,14.64,57.616,14.408,58.24,14.78L58.312,14.821L64.864,18.571C65.942,19.187,66.322,20.603,65.705,21.672C60.37,30.877,65.524,39.821,76.161,39.821C77.409,39.821,78.454,40.862,78.454,42.114L78.454,48.779C78.454,50.028,77.413,51.073,76.161,51.073C65.524,51.073,60.37,60.017,65.708,69.227C66.326,70.308,65.951,71.702,64.867,72.321L58.312,76.072L58.24,76.114C57.616,76.485,56.745,76.253,56.325,75.548L55.938,74.879C50.659,65.669,40.331,65.669,34.994,74.877L34.576,75.598C34.186,76.253,33.315,76.485,32.691,76.114L32.619,76.072L26.067,72.323C24.989,71.707,24.609,70.29,25.226,69.221C30.561,60.017,25.407,51.073,14.77,51.073C13.518,51.073,12.477,50.028,12.477,48.779ZM2.672,48.779C2.672,55.435,8.095,60.878,14.77,60.878C17.852,60.878,18.289,61.637,16.74,64.31C13.404,70.084,15.402,77.521,21.2,80.834L27.749,84.582L30.184,80.327L27.678,84.54C33.002,87.708,39.87,85.876,43.032,80.561L43.478,79.791C45.033,77.11,45.915,77.11,47.442,79.773L47.869,80.511C51.061,85.876,57.93,87.708,63.254,84.54L60.747,80.327L63.182,84.582L69.734,80.833C75.529,77.521,77.519,70.133,74.207,64.336C72.642,61.637,73.079,60.878,76.161,60.878C82.836,60.878,88.259,55.435,88.259,48.779L88.259,42.114C88.259,35.439,82.816,30.016,76.161,30.016C73.079,30.016,72.642,29.257,74.192,26.583C77.527,20.81,75.53,13.372,69.731,10.059L63.182,6.311L60.747,10.566L63.254,6.353C57.93,3.186,51.061,5.017,47.899,10.332L47.453,11.102C45.898,13.784,45.016,13.784,43.489,11.12L43.062,10.382C39.87,5.017,33.002,3.186,27.678,6.353L30.184,10.566L27.749,6.311L21.197,10.061C15.402,13.372,13.404,20.81,16.736,26.577C18.289,29.257,17.852,30.016,14.77,30.016C8.095,30.016,2.672,35.458,2.672,42.114L2.672,48.779Z"/>
</g>
  <g id="Semibold-L" transform="matrix(1.0,0.0,0.0,1.0,1999.1033251953124,1475.3233447265625)">  <path stroke="none" stroke-linecap="round" stroke-width="1.5px" stroke-dasharray="none" stroke-opacity="1" fill="#000000" fill-opacity="1" stroke-miterlimit="10" fill-rule="nonzero" stroke-linejoin="round" d="M45.447,61.024C54.05,61.024,61.024,54.05,61.024,45.447C61.024,36.844,54.05,29.87,45.447,29.87C36.844,29.87,29.87,36.844,29.87,45.447C29.87,54.05,36.844,61.024,45.447,61.024ZM45.447,52.593C41.5,52.593,38.3,49.394,38.3,45.447C38.3,41.5,41.5,38.3,45.447,38.3C49.394,38.3,52.593,41.5,52.593,45.447C52.593,49.394,49.394,52.593,45.447,52.593Z"/>
  <path stroke-width="1.5px" stroke-linecap="round" stroke="none" stroke-opacity="1" stroke-dasharray="none" fill="#000000" fill-opacity="1" fill-rule="nonzero" stroke-miterlimit="10" stroke-linejoin="round" d="M11.79,48.779L11.79,42.114C11.79,40.487,13.138,39.133,14.77,39.133C24.877,39.133,29.701,30.763,24.628,22.011C23.823,20.618,24.317,18.779,25.724,17.976L32.278,14.225C33.293,13.621,34.585,13.966,35.196,14.994L35.588,15.67C40.605,24.423,50.27,24.423,55.342,15.672L55.76,14.951C56.346,13.966,57.638,13.621,58.592,14.189L65.205,17.974C66.614,18.779,67.108,20.618,66.3,22.016C61.23,30.763,66.054,39.133,76.161,39.133C77.788,39.133,79.142,40.482,79.142,42.114L79.142,48.779C79.142,50.407,77.793,51.76,76.161,51.76C66.054,51.76,61.23,60.13,66.303,68.883C67.111,70.296,66.622,72.11,65.208,72.918L58.653,76.668C57.638,77.272,56.346,76.928,55.735,75.899L55.344,75.223C50.326,66.471,40.661,66.471,35.589,75.221L35.171,75.943C34.585,76.928,33.293,77.272,32.339,76.704L25.726,72.919C24.317,72.114,23.823,70.275,24.631,68.877C29.701,60.13,24.877,51.76,14.77,51.76C13.138,51.76,11.79,50.407,11.79,48.779ZM3.359,48.779C3.359,55.056,8.475,60.19,14.77,60.19C18.382,60.19,19.15,61.523,17.334,64.655C14.189,70.098,16.074,77.113,21.541,80.237L28.091,83.985C33.024,86.921,39.472,85.201,42.442,80.21L42.884,79.447C44.703,76.308,46.248,76.308,48.039,79.431L48.464,80.167C51.459,85.201,57.908,86.921,62.902,83.95L69.393,80.236C74.858,77.113,76.734,70.145,73.61,64.677C71.782,61.523,72.55,60.19,76.161,60.19C82.456,60.19,87.572,55.056,87.572,48.779L87.572,42.114C87.572,35.819,82.437,30.703,76.161,30.703C72.55,30.703,71.782,29.37,73.597,26.238C76.742,20.795,74.858,13.78,69.39,10.656L62.841,6.908C57.908,3.972,51.459,5.692,48.49,10.683L48.048,11.446C46.228,14.586,44.683,14.586,42.893,11.462L42.467,10.727C39.472,5.692,33.024,3.972,28.029,6.944L21.539,10.657C16.074,13.78,14.189,20.795,17.331,26.233C19.15,29.37,18.382,30.703,14.77,30.703C8.475,30.703,3.359,35.838,3.359,42.114L3.359,48.779Z"/>
</g>
  <g id="Medium-L" transform="matrix(1.0,0.0,0.0,1.0,1702.3933251953124,1475.3233447265625)">  <path fill-rule="nonzero" stroke-linejoin="round" stroke-opacity="1" stroke-miterlimit="10" stroke-dasharray="none" stroke-linecap="round" fill-opacity="1" stroke-width="1.5px" stroke="none" fill="#000000" d="M45.447,60.336C53.67,60.336,60.336,53.67,60.336,45.447C60.336,37.223,53.67,30.557,45.447,30.557C37.223,30.557,30.557,37.223,30.557,45.447C30.557,53.67,37.223,60.336,45.447,60.336ZM45.447,53.281C41.12,53.281,37.613,49.773,37.613,45.447C37.613,41.12,41.12,37.613,45.447,37.613C49.773,37.613,53.281,41.12,53.281,45.447C53.281,49.773,49.773,53.281,45.447,53.281Z"/>
  <path stroke-width="1.5px" fill-rule="nonzero" stroke-linecap="round" stroke-linejoin="round" stroke-miterlimit="10" fill-opacity="1" stroke-opacity="1" stroke-dasharray="none" fill="#000000" stroke="none" d="M11.102,48.779L11.102,42.114C11.102,40.108,12.758,38.446,14.77,38.446C24.348,38.446,28.841,30.65,24.033,22.356C23.038,20.632,23.645,18.372,25.383,17.379L31.936,13.628C33.271,12.835,34.983,13.291,35.787,14.642L36.183,15.326C40.938,23.621,49.941,23.621,54.748,15.327L55.165,14.606C55.948,13.291,57.66,12.835,58.943,13.598L65.547,17.378C67.286,18.372,67.893,20.632,66.895,22.36C62.091,30.65,66.583,38.446,76.161,38.446C78.167,38.446,79.829,40.102,79.829,42.114L79.829,48.779C79.829,50.786,78.173,52.447,76.161,52.447C66.583,52.447,62.091,60.244,66.898,68.538C67.895,70.284,67.294,72.518,65.549,73.515L58.995,77.265C57.66,78.059,55.948,77.602,55.144,76.251L54.749,75.568C49.994,67.273,40.99,67.273,36.183,75.566L35.766,76.287C34.983,77.602,33.271,78.059,31.988,77.295L25.384,73.516C23.645,72.522,23.038,70.261,24.036,68.534C28.841,60.244,24.348,52.447,14.77,52.447C12.758,52.447,11.102,50.786,11.102,48.779ZM4.047,48.779C4.047,54.677,8.855,59.503,14.77,59.503C18.911,59.503,20.01,61.41,17.929,65C14.975,70.113,16.746,76.706,21.882,79.641L28.432,83.389C33.046,86.134,39.073,84.527,41.851,79.858L42.289,79.103C44.374,75.506,46.581,75.506,48.635,79.09L49.059,79.822C51.858,84.527,57.886,86.134,62.551,83.359L69.051,79.64C74.186,76.705,75.95,70.158,73.013,65.018C70.921,61.41,72.02,59.503,76.161,59.503C82.076,59.503,86.885,54.677,86.885,48.779L86.885,42.114C86.885,36.199,82.058,31.39,76.161,31.39C72.02,31.39,70.921,29.484,73.002,25.894C75.956,20.781,74.185,14.188,69.049,11.253L62.499,7.504C57.886,4.759,51.858,6.367,49.08,11.035L48.643,11.791C46.558,15.388,44.351,15.388,42.296,11.804L41.872,11.071C39.073,6.367,33.046,4.759,28.38,7.535L21.88,11.254C16.746,14.188,14.975,20.781,17.927,25.889C20.01,29.484,18.911,31.39,14.77,31.39C8.855,31.39,4.047,36.217,4.047,42.114L4.047,48.779Z"/>
</g>
  <g id="Regular-L" transform="matrix(1.0,0.0,0.0,1.0,1405.6833251953124,1475.3233447265625)">  <path stroke-dasharray="none" fill="#000000" stroke="none" fill-rule="nonzero" stroke-linecap="round" stroke-linejoin="round" stroke-opacity="1" fill-opacity="1" stroke-miterlimit="10" stroke-width="1.5px" d="M45.447,59.649C53.29,59.649,59.649,53.29,59.649,45.447C59.649,37.603,53.29,31.245,45.447,31.245C37.603,31.245,31.245,37.603,31.245,45.447C31.245,53.29,37.603,59.649,45.447,59.649ZM45.447,53.968C40.74,53.968,36.925,50.153,36.925,45.447C36.925,40.74,40.74,36.925,45.447,36.925C50.153,36.925,53.968,40.74,53.968,45.447C53.968,50.153,50.153,53.968,45.447,53.968Z"/>
  <path fill-rule="nonzero" fill-opacity="1" stroke-linejoin="round" stroke-miterlimit="10" stroke="none" stroke-opacity="1" stroke-dasharray="none" fill="#000000" stroke-linecap="round" stroke-width="1.5px" d="M10.415,48.779L10.415,42.114C10.415,39.729,12.378,37.759,14.77,37.759C23.818,37.759,27.98,30.536,23.439,22.7C22.252,20.647,22.973,17.964,25.042,16.782L31.595,13.032C33.249,12.048,35.382,12.616,36.378,14.291L36.777,14.981C41.27,22.819,49.611,22.819,54.153,14.983L54.57,14.262C55.55,12.616,57.682,12.048,59.295,13.007L65.888,16.781C67.958,17.964,68.679,20.647,67.491,22.704C62.951,30.536,67.113,37.759,76.161,37.759C78.546,37.759,80.516,39.721,80.516,42.114L80.516,48.779C80.516,51.165,78.554,53.135,76.161,53.135C67.113,53.135,62.951,60.357,67.493,68.193C68.68,70.271,67.965,72.926,65.89,74.111L59.336,77.862C57.682,78.846,55.55,78.277,54.553,76.602L54.154,75.912C49.661,68.075,41.32,68.075,36.778,75.911L36.361,76.632C35.382,78.277,33.249,78.846,31.636,77.886L25.043,74.112C22.973,72.929,22.252,70.247,23.441,68.19C27.98,60.357,23.818,53.135,14.77,53.135C12.378,53.135,10.415,51.165,10.415,48.779ZM4.734,48.779C4.734,54.298,9.236,58.816,14.77,58.816C19.441,58.816,20.87,61.296,18.524,65.344C15.76,70.127,17.418,76.298,22.223,79.044L28.773,82.792C33.068,85.348,38.675,83.852,41.26,79.507L41.694,78.758C44.044,74.704,46.913,74.704,49.231,78.748L49.654,79.478C52.256,83.852,57.864,85.348,62.199,82.768L68.71,79.043C73.515,76.297,75.165,70.17,72.416,65.359C70.061,61.296,71.49,58.816,76.161,58.816C81.696,58.816,86.197,54.298,86.197,48.779L86.197,42.114C86.197,36.579,81.679,32.078,76.161,32.078C71.49,32.078,70.061,29.597,72.407,25.549C75.171,20.766,73.513,14.595,68.708,11.85L62.158,8.101C57.864,5.546,52.256,7.041,49.671,11.386L49.237,12.135C46.887,16.19,44.018,16.19,41.7,12.146L41.277,11.416C38.675,7.041,33.068,5.546,28.732,8.125L22.221,11.85C17.418,14.595,15.76,20.766,18.522,25.546C20.87,29.597,19.441,32.078,14.77,32.078C9.236,32.078,4.734,36.596,4.734,42.114L4.734,48.779Z"/>
</g>
  <g id="Light-L" transform="matrix(1.0,0.0,0.0,1.0,1108.9733251953126,1475.3233447265625)">  <path stroke-miterlimit="10" fill="#000000" stroke-linecap="round" stroke="none" fill-rule="nonzero" stroke-opacity="1" stroke-width="1.5px" fill-opacity="1" stroke-dasharray="none" stroke-linejoin="round" d="M45.447,59.175C53.029,59.175,59.175,53.029,59.175,45.447C59.175,37.864,53.029,31.718,45.447,31.718C37.864,31.718,31.718,37.864,31.718,45.447C31.718,53.029,37.864,59.175,45.447,59.175ZM45.447,54.441C40.479,54.441,36.452,50.414,36.452,45.447C36.452,40.479,40.479,36.452,45.447,36.452C50.414,36.452,54.441,40.479,54.441,45.447C54.441,50.414,50.414,54.441,45.447,54.441Z"/>
  <path stroke="none" stroke-dasharray="none" fill-opacity="1" stroke-linejoin="round" stroke-miterlimit="10" stroke-linecap="round" fill-rule="nonzero" stroke-width="1.5px" fill="#000000" stroke-opacity="1" d="M9.941,48.779L9.941,42.114C9.941,39.467,12.116,37.285,14.77,37.285C23.453,37.285,27.388,30.458,23.029,22.938C21.711,20.657,22.51,17.683,24.807,16.371L31.36,12.621C33.234,11.506,35.656,12.152,36.785,14.049L37.187,14.744C41.499,22.266,49.384,22.266,53.743,14.745L54.161,14.025C55.275,12.152,57.697,11.506,59.537,12.601L66.123,16.37C68.421,17.683,69.22,20.657,67.9,22.94C63.543,30.458,67.478,37.285,76.161,37.285C78.808,37.285,80.99,39.46,80.99,42.114L80.99,48.779C80.99,51.426,78.815,53.608,76.161,53.608C67.478,53.608,63.543,60.436,67.902,67.956C69.22,70.263,68.428,73.207,66.125,74.522L59.571,78.273C57.697,79.387,55.275,78.742,54.146,76.844L53.744,76.149C49.432,68.627,41.547,68.627,37.188,76.148L36.771,76.869C35.656,78.742,33.234,79.387,31.394,78.293L24.808,74.523C22.51,73.21,21.711,70.237,23.031,67.953C27.388,60.436,23.453,53.608,14.77,53.608C12.116,53.608,9.941,51.426,9.941,48.779ZM5.207,48.779C5.207,54.037,9.497,58.342,14.77,58.342C19.806,58.342,21.463,61.218,18.933,65.582C16.301,70.137,17.881,76.017,22.458,78.633L29.009,82.381C33.083,84.806,38.401,83.388,40.853,79.265L41.284,78.521C43.817,74.151,47.142,74.151,49.642,78.512L50.064,79.241C52.531,83.388,57.849,84.806,61.957,82.361L68.475,78.632C73.052,76.016,74.625,70.178,72.005,65.594C69.468,61.218,71.126,58.342,76.161,58.342C81.434,58.342,85.724,54.037,85.724,48.779L85.724,42.114C85.724,36.841,81.418,32.551,76.161,32.551C71.126,32.551,69.468,29.676,71.998,25.312C74.63,20.756,73.05,14.876,68.473,12.261L61.923,8.512C57.849,6.088,52.531,7.506,50.078,11.628L49.647,12.372C47.114,16.742,43.789,16.742,41.289,12.381L40.868,11.653C38.401,7.506,33.083,6.088,28.974,8.532L22.457,12.261C17.881,14.876,16.301,20.756,18.932,25.309C21.463,29.676,19.806,32.551,14.77,32.551C9.497,32.551,5.207,36.857,5.207,42.114L5.207,48.779Z"/>
</g>
  <g id="Thin-L" transform="matrix(1.0,0.0,0.0,1.0,812.2633251953125,1475.3233447265625)">  <path stroke-linejoin="round" fill="#000000" fill-opacity="1" stroke-dasharray="none" stroke-opacity="1" stroke="none" stroke-linecap="round" fill-rule="nonzero" stroke-width="1.5px" stroke-miterlimit="10" d="M45.447,58.702C52.768,58.702,58.702,52.768,58.702,45.447C58.702,38.126,52.768,32.191,45.447,32.191C38.126,32.191,32.191,38.126,32.191,45.447C32.191,52.768,38.126,58.702,45.447,58.702ZM45.447,54.915C40.217,54.915,35.979,50.676,35.979,45.447C35.979,40.217,40.217,35.979,45.447,35.979C50.676,35.979,54.915,40.217,54.915,45.447C54.915,50.676,50.676,54.915,45.447,54.915Z"/>
  <path stroke-linejoin="round" stroke-miterlimit="10" fill-rule="nonzero" stroke-dasharray="none" stroke-opacity="1" stroke-width="1.5px" fill-opacity="1" fill="#000000" stroke="none" stroke-linecap="round" d="M9.468,48.779L9.468,42.114C9.468,39.206,11.854,36.812,14.77,36.812C23.089,36.812,26.795,30.38,22.62,23.175C21.17,20.667,22.047,17.402,24.572,15.96L31.125,12.21C33.219,10.964,35.931,11.687,37.192,13.807L37.597,14.507C41.728,21.714,49.157,21.714,53.334,14.508L53.751,13.787C55.001,11.687,57.712,10.964,59.779,12.194L66.358,15.959C68.884,17.402,69.761,20.667,68.31,23.177C64.136,30.38,67.843,36.812,76.161,36.812C79.069,36.812,81.463,39.198,81.463,42.114L81.463,48.779C81.463,51.687,79.077,54.082,76.161,54.082C67.843,54.082,64.136,60.514,68.312,67.718C69.761,70.254,68.89,73.487,66.359,74.934L59.807,78.683C57.712,79.929,55.001,79.206,53.74,77.086L53.334,76.386C49.203,69.18,41.774,69.18,37.597,76.386L37.18,77.106C35.931,79.206,33.219,79.929,31.152,78.7L24.573,74.934C22.047,73.491,21.17,70.227,22.621,67.716C26.795,60.514,23.089,54.082,14.77,54.082C11.854,54.082,9.468,51.687,9.468,48.779ZM5.681,48.779C5.681,53.776,9.759,57.869,14.77,57.869C20.17,57.869,22.055,61.14,19.343,65.819C16.842,70.147,18.344,75.737,22.693,78.222L29.244,81.971C33.098,84.264,38.126,82.923,40.446,79.023L40.874,78.284C43.59,73.599,47.371,73.599,50.053,78.277L50.473,79.003C52.805,82.923,57.833,84.264,61.715,81.954L68.239,78.221C72.59,75.735,74.084,70.187,71.594,65.829C68.876,61.14,70.761,57.869,76.161,57.869C81.172,57.869,85.25,53.776,85.25,48.779L85.25,42.114C85.25,37.103,81.157,33.025,76.161,33.025C70.761,33.025,68.876,29.754,71.588,25.074C74.089,20.746,72.587,15.157,68.238,12.672L61.688,8.923C57.833,6.629,52.805,7.97,50.485,11.87L50.057,12.609C47.341,17.295,43.56,17.295,40.878,12.617L40.458,11.89C38.126,7.97,33.098,6.629,29.216,8.939L22.692,12.672C18.344,15.157,16.842,20.746,19.342,25.072C22.055,29.754,20.17,33.025,14.77,33.025C9.759,33.025,5.681,37.118,5.681,42.114L5.681,48.779Z"/>
</g>
  <g id="Ultralight-L" transform="matrix(1.0,0.0,0.0,1.0,515.5533251953125,1475.3233447265625)">  <path stroke="none" stroke-linejoin="round" fill="#000000" fill-opacity="1" stroke-linecap="round" stroke-dasharray="none" fill-rule="nonzero" stroke-width="1.5px" stroke-miterlimit="10" stroke-opacity="1" d="M45.447,58.229C52.506,58.229,58.229,52.506,58.229,45.447C58.229,38.387,52.506,32.665,45.447,32.665C38.387,32.665,32.665,38.387,32.665,45.447C32.665,52.506,38.387,58.229,45.447,58.229ZM45.447,55.388C39.956,55.388,35.505,50.937,35.505,45.447C35.505,39.956,39.956,35.505,45.447,35.505C50.937,35.505,55.388,39.956,55.388,45.447C55.388,50.937,50.937,55.388,45.447,55.388Z"/>
  <path stroke="none" fill="#000000" fill-opacity="1" stroke-linejoin="round" stroke-opacity="1" stroke-miterlimit="10" fill-rule="nonzero" stroke-dasharray="none" stroke-width="1.5px" stroke-linecap="round" d="M8.995,48.779L8.995,42.114C8.995,38.945,11.592,36.338,14.77,36.338C22.724,36.338,26.203,30.301,22.21,23.412C20.629,20.677,21.584,17.122,24.337,15.549L30.89,11.799C33.204,10.422,36.205,11.223,37.598,13.565L38.007,14.27C41.957,21.161,48.93,21.161,52.924,14.27L53.341,13.55C54.726,11.223,57.727,10.422,60.021,11.787L66.594,15.548C69.347,17.122,70.302,20.677,68.72,23.414C64.728,30.301,68.207,36.338,76.161,36.338C79.33,36.338,81.937,38.936,81.937,42.114L81.937,48.779C81.937,51.948,79.339,54.555,76.161,54.555C68.207,54.555,64.728,60.592,68.721,67.481C70.301,70.246,69.353,73.768,66.594,75.345L60.042,79.094C57.727,80.471,54.726,79.671,53.333,77.329L52.925,76.624C48.974,69.732,42.001,69.732,38.007,76.623L37.59,77.343C36.205,79.671,33.204,80.471,30.91,79.106L24.338,75.345C21.584,73.772,20.629,70.217,22.211,67.479C26.203,60.592,22.724,54.555,14.77,54.555C11.592,54.555,8.995,51.948,8.995,48.779ZM6.154,48.779C6.154,53.514,10.021,57.395,14.77,57.395C20.535,57.395,22.648,61.061,19.752,66.057C17.383,70.157,18.807,75.456,22.928,77.811L29.479,81.56C33.113,83.722,37.852,82.458,40.04,78.781L40.465,78.047C43.363,73.046,47.6,73.046,50.463,78.041L50.883,78.766C53.08,82.458,57.818,83.722,61.473,81.548L68.004,77.81C72.127,75.454,73.544,70.195,71.183,66.064C68.283,61.061,70.396,57.395,76.161,57.395C80.91,57.395,84.777,53.514,84.777,48.779L84.777,42.114C84.777,37.365,80.896,33.498,76.161,33.498C70.396,33.498,68.283,29.832,71.179,24.837C73.548,20.736,72.124,15.437,68.004,13.083L61.452,9.334C57.818,7.171,53.08,8.435,50.892,12.113L50.467,12.847C47.568,17.847,43.331,17.847,40.468,12.852L40.048,12.127C37.852,8.435,33.113,7.171,29.458,9.346L22.927,13.083C18.807,15.437,17.383,20.736,19.752,24.835C22.648,29.832,20.535,33.498,14.77,33.498C10.021,33.498,6.154,37.379,6.154,42.114L6.154,48.779Z"/>
</g>
  <g id="Black-M" transform="matrix(1.0,0.0,0.0,1.0,2899.45001953125,1055.5400390625)">  <path stroke-opacity="1" fill="#000000" stroke-dasharray="none" stroke-linecap="round" stroke-miterlimit="10" stroke-width="1.5px" stroke-linejoin="round" fill-opacity="1" fill-rule="nonzero" stroke="none" d="M35.23,48.904C42.782,48.904,48.904,42.782,48.904,35.23C48.904,27.678,42.782,21.556,35.23,21.556C27.678,21.556,21.556,27.678,21.556,35.23C21.556,42.782,27.678,48.904,35.23,48.904ZM35.23,39.171C33.053,39.171,31.289,37.407,31.289,35.23C31.289,33.053,33.053,31.289,35.23,31.289C37.407,31.289,39.171,33.053,39.171,35.23C39.171,37.407,37.407,39.171,35.23,39.171Z"/>
  <path stroke-miterlimit="10" fill-rule="nonzero" fill="#000000" stroke-width="1.5px" stroke-linejoin="round" stroke-dasharray="none" stroke-linecap="round" stroke-opacity="1" fill-opacity="1" stroke="none" d="M10.738,37.814L10.738,32.646C10.738,32.267,11.069,31.935,11.45,31.935C20.517,31.935,25.025,24.111,20.475,16.261C20.294,15.949,20.414,15.505,20.734,15.322L25.815,12.414L25.887,12.373C25.86,12.389,25.883,12.395,25.91,12.44L30.092,9.952L25.881,12.391L26.204,12.948C30.703,20.798,39.736,20.798,44.284,12.951L44.608,12.391L40.397,9.952L44.579,12.44C44.606,12.395,44.629,12.389,44.603,12.373L44.674,12.414L49.753,15.321C50.076,15.505,50.195,15.949,50.011,16.267C45.465,24.111,49.973,31.935,59.04,31.935C59.419,31.935,59.752,32.265,59.752,32.646L59.752,37.814C59.752,38.193,59.421,38.525,59.04,38.525C49.973,38.525,45.465,46.349,50.015,54.199C50.199,54.521,50.083,54.95,49.755,55.138L44.674,58.045L44.603,58.087C44.629,58.071,44.606,58.065,44.579,58.019L40.397,60.507L44.608,58.069L44.285,57.512C39.786,49.662,30.754,49.662,26.205,57.509L25.881,58.069L30.092,60.507L25.91,58.019C25.883,58.065,25.86,58.071,25.887,58.087L25.815,58.045L20.736,55.139C20.414,54.955,20.294,54.511,20.478,54.193C25.025,46.349,20.517,38.525,11.45,38.525C11.069,38.525,10.738,38.193,10.738,37.814ZM1.006,37.814C1.006,43.56,5.686,48.258,11.45,48.258C12.075,48.258,12.515,48.345,12.762,48.46C12.797,48.477,12.801,48.48,12.785,48.465C12.734,48.42,12.681,48.355,12.636,48.276C12.59,48.198,12.56,48.118,12.547,48.052C12.543,48.031,12.543,48.037,12.54,48.076C12.515,48.348,12.37,48.775,12.054,49.318C9.173,54.306,10.897,60.726,15.905,63.588L20.982,66.492L23.399,62.269L20.911,66.451C25.548,69.21,31.525,67.616,34.274,62.996L34.304,62.946L34.627,62.388C34.941,61.845,35.24,61.504,35.468,61.345C35.502,61.322,35.508,61.318,35.49,61.325C35.427,61.345,35.345,61.359,35.256,61.359C35.107,61.359,35.012,61.327,35.03,61.34C35.25,61.494,35.543,61.83,35.852,62.37L36.186,62.946L36.215,62.996C38.964,67.616,44.941,69.21,49.579,66.451L47.091,62.269L49.508,66.492L54.587,63.586C59.591,60.726,61.309,54.348,58.45,49.344C58.12,48.775,57.974,48.348,57.95,48.076C57.946,48.037,57.947,48.031,57.942,48.052C57.929,48.118,57.899,48.198,57.854,48.276C57.809,48.355,57.755,48.42,57.704,48.465C57.688,48.48,57.692,48.477,57.728,48.46C57.975,48.345,58.415,48.258,59.04,48.258C64.804,48.258,69.484,43.56,69.484,37.814L69.484,32.646C69.484,26.882,64.787,22.202,59.04,22.202C58.415,22.202,57.975,22.115,57.728,22C57.692,21.983,57.688,21.98,57.704,21.995C57.755,22.04,57.809,22.105,57.854,22.184C57.899,22.262,57.929,22.342,57.942,22.407C57.947,22.429,57.946,22.423,57.95,22.384C57.974,22.112,58.12,21.685,58.435,21.141C61.317,16.154,59.592,9.734,54.584,6.872L49.508,3.967L47.091,8.191L49.579,4.009C44.941,1.25,38.964,2.844,36.215,7.464L36.186,7.514L35.863,8.072C35.548,8.615,35.249,8.956,35.022,9.115C34.988,9.138,34.981,9.142,35,9.135C35.062,9.115,35.144,9.101,35.234,9.101C35.382,9.101,35.477,9.133,35.459,9.12C35.239,8.966,34.946,8.63,34.637,8.09L34.304,7.514L34.274,7.464C31.525,2.844,25.548,1.25,20.911,4.009L23.399,8.191L20.982,3.967L15.903,6.874C10.897,9.734,9.173,16.154,12.051,21.136C12.37,21.685,12.515,22.112,12.54,22.384C12.543,22.423,12.543,22.429,12.547,22.407C12.56,22.342,12.59,22.262,12.636,22.184C12.681,22.105,12.734,22.04,12.785,21.995C12.801,21.98,12.797,21.983,12.762,22C12.515,22.115,12.075,22.202,11.45,22.202C5.686,22.202,1.006,26.899,1.006,32.646L1.006,37.814Z"/>
</g>
  <g id="Heavy-M" transform="matrix(1.0,0.0,0.0,1.0,2602.74001953125,1055.5400390625)">  <path stroke-dasharray="none" stroke-opacity="1" stroke-width="1.5px" stroke-linecap="round" fill-rule="nonzero" stroke="none" stroke-miterlimit="10" stroke-linejoin="round" fill-opacity="1" fill="#000000" d="M35.23,48.371C42.488,48.371,48.371,42.488,48.371,35.23C48.371,27.972,42.488,22.089,35.23,22.089C27.972,22.089,22.089,27.972,22.089,35.23C22.089,42.488,27.972,48.371,35.23,48.371ZM35.23,39.704C32.759,39.704,30.756,37.701,30.756,35.23C30.756,32.759,32.759,30.756,35.23,30.756C37.701,30.756,39.704,32.759,39.704,35.23C39.704,37.701,37.701,39.704,35.23,39.704Z"/>
  <path fill-rule="nonzero" stroke-opacity="1" fill="#000000" stroke="none" stroke-dasharray="none" fill-opacity="1" stroke-miterlimit="10" stroke-linejoin="round" stroke-width="1.5px" stroke-linecap="round" d="M10.205,37.814L10.205,32.646C10.205,31.973,10.774,31.402,11.45,31.402C20.106,31.402,24.358,24.023,20.014,16.528C19.686,15.96,19.893,15.189,20.47,14.86L25.551,11.952L25.614,11.915C25.843,11.779,26.192,11.872,26.368,12.168L26.665,12.681C30.961,20.176,39.48,20.176,43.823,12.683L44.147,12.124C44.297,11.872,44.646,11.779,44.875,11.915L44.938,11.952L50.017,14.858C50.597,15.189,50.804,15.96,50.473,16.533C46.131,24.023,50.383,31.402,59.04,31.402C59.713,31.402,60.284,31.971,60.284,32.646L60.284,37.814C60.284,38.487,59.715,39.058,59.04,39.058C50.383,39.058,46.131,46.437,50.476,53.932C50.807,54.512,50.604,55.266,50.02,55.6L44.938,58.508L44.875,58.545C44.646,58.681,44.297,58.588,44.121,58.292L43.824,57.779C39.528,50.284,31.009,50.284,26.666,57.777L26.342,58.336C26.192,58.588,25.843,58.681,25.614,58.545L25.551,58.508L20.472,55.602C19.893,55.271,19.686,54.499,20.017,53.927C24.358,46.437,20.106,39.058,11.45,39.058C10.774,39.058,10.205,38.487,10.205,37.814ZM1.538,37.814C1.538,43.267,5.98,47.725,11.45,47.725C13.428,47.725,13.511,47.868,12.515,49.586C9.782,54.317,11.418,60.41,16.17,63.125L21.246,66.03L23.399,62.269L21.183,65.993C25.566,68.6,31.216,67.094,33.816,62.723L34.165,62.121C35.165,60.397,35.336,60.397,36.315,62.105L36.647,62.679C39.273,67.094,44.924,68.6,49.306,65.993L47.091,62.269L49.243,66.03L54.322,63.124C59.07,60.41,60.701,54.357,57.987,49.609C56.978,47.868,57.061,47.725,59.04,47.725C64.509,47.725,68.951,43.267,68.951,37.814L68.951,32.646C68.951,27.177,64.493,22.735,59.04,22.735C57.061,22.735,56.978,22.592,57.974,20.874C60.708,16.143,59.071,10.05,54.32,7.335L49.243,4.43L47.091,8.191L49.306,4.467C44.924,1.86,39.273,3.366,36.673,7.737L36.324,8.339C35.325,10.063,35.154,10.063,34.175,8.355L33.842,7.781C31.216,3.366,25.566,1.86,21.183,4.467L23.399,8.191L21.246,4.43L16.167,7.336C11.418,10.05,9.782,16.143,12.512,20.869C13.511,22.592,13.428,22.735,11.45,22.735C5.98,22.735,1.538,27.193,1.538,32.646L1.538,37.814Z"/>
</g>
  <g id="Bold-M" transform="matrix(1.0,0.0,0.0,1.0,2306.0300195312498,1055.5400390625)">  <path stroke-miterlimit="10" stroke-linecap="round" stroke-linejoin="round" stroke="none" fill-rule="nonzero" stroke-dasharray="none" fill="#000000" stroke-width="1.5px" fill-opacity="1" stroke-opacity="1" d="M35.23,47.838C42.193,47.838,47.838,42.193,47.838,35.23C47.838,28.267,42.193,22.622,35.23,22.622C28.267,22.622,22.622,28.267,22.622,35.23C22.622,42.193,28.267,47.838,35.23,47.838ZM35.23,40.237C32.465,40.237,30.223,37.995,30.223,35.23C30.223,32.465,32.465,30.223,35.23,30.223C37.995,30.223,40.237,32.465,40.237,35.23C40.237,37.995,37.995,40.237,35.23,40.237Z"/>
  <path stroke-opacity="1" fill="#000000" fill-opacity="1" stroke-dasharray="none" stroke="none" stroke-miterlimit="10" stroke-linecap="round" stroke-linejoin="round" stroke-width="1.5px" fill-rule="nonzero" d="M9.672,37.814L9.672,32.646C9.672,31.679,10.479,30.869,11.45,30.869C19.695,30.869,23.691,23.935,19.553,16.795C19.077,15.972,19.372,14.873,20.205,14.397L25.286,11.489L25.342,11.457C25.826,11.169,26.501,11.349,26.826,11.896L27.126,12.414C31.219,19.554,39.225,19.554,43.362,12.416L43.686,11.857C43.988,11.349,44.663,11.169,45.148,11.457L45.203,11.489L50.282,14.396C51.118,14.873,51.413,15.972,50.934,16.8C46.798,23.935,50.794,30.869,59.04,30.869C60.007,30.869,60.817,31.676,60.817,32.646L60.817,37.814C60.817,38.781,60.01,39.591,59.04,39.591C50.794,39.591,46.798,46.525,50.937,53.665C51.415,54.502,51.125,55.583,50.284,56.063L45.203,58.97L45.148,59.003C44.663,59.291,43.988,59.111,43.663,58.564L43.363,58.046C39.27,50.906,31.265,50.906,27.127,58.044L26.803,58.603C26.501,59.111,25.826,59.291,25.342,59.003L25.286,58.97L20.207,56.064C19.372,55.587,19.077,54.488,19.555,53.66C23.691,46.525,19.695,39.591,11.45,39.591C10.479,39.591,9.672,38.781,9.672,37.814ZM2.071,37.814C2.071,42.973,6.275,47.192,11.45,47.192C13.839,47.192,14.178,47.78,12.976,49.853C10.391,54.329,11.939,60.094,16.434,62.662L21.511,65.568L23.399,62.269L21.455,65.535C25.583,67.99,30.907,66.571,33.358,62.451L33.704,61.854C34.909,59.775,35.593,59.775,36.777,61.84L37.108,62.412C39.582,66.571,44.907,67.99,49.034,65.535L47.091,62.269L48.978,65.568L54.057,62.661C58.55,60.094,60.092,54.367,57.525,49.873C56.312,47.78,56.651,47.192,59.04,47.192C64.214,47.192,68.418,42.973,68.418,37.814L68.418,32.646C68.418,27.472,64.199,23.268,59.04,23.268C56.651,23.268,56.312,22.68,57.513,20.607C60.099,16.131,58.55,10.366,54.055,7.798L48.978,4.892L47.091,8.191L49.034,4.925C44.907,2.469,39.582,3.889,37.131,8.009L36.785,8.606C35.58,10.685,34.896,10.685,33.712,8.62L33.381,8.048C30.907,3.889,25.583,2.469,21.455,4.925L23.399,8.191L21.511,4.892L16.432,7.799C11.939,10.366,10.391,16.131,12.974,20.603C14.178,22.68,13.839,23.268,11.45,23.268C6.275,23.268,2.071,27.487,2.071,32.646L2.071,37.814Z"/>
</g>
  <g id="Semibold-M" transform="matrix(1.0,0.0,0.0,1.0,2009.32001953125,1055.5400390625)">  <path stroke="none" stroke-linecap="round" stroke-width="1.5px" stroke-dasharray="none" stroke-opacity="1" fill="#000000" fill-opacity="1" stroke-miterlimit="10" fill-rule="nonzero" stroke-linejoin="round" d="M35.23,47.305C41.899,47.305,47.305,41.899,47.305,35.23C47.305,28.561,41.899,23.155,35.23,23.155C28.561,23.155,23.155,28.561,23.155,35.23C23.155,41.899,28.561,47.305,35.23,47.305ZM35.23,40.77C32.17,40.77,29.69,38.29,29.69,35.23C29.69,32.17,32.17,29.69,35.23,29.69C38.29,29.69,40.77,32.17,40.77,35.23C40.77,38.29,38.29,40.77,35.23,40.77Z"/>
  <path stroke-width="1.5px" stroke-linecap="round" stroke="none" stroke-opacity="1" stroke-dasharray="none" fill="#000000" fill-opacity="1" fill-rule="nonzero" stroke-miterlimit="10" stroke-linejoin="round" d="M9.139,37.814L9.139,32.646C9.139,31.385,10.185,30.336,11.45,30.336C19.285,30.336,23.024,23.847,19.092,17.063C18.468,15.983,18.851,14.557,19.941,13.934L25.022,11.027C25.809,10.559,26.81,10.826,27.284,11.623L27.587,12.147C31.477,18.932,38.969,18.932,42.901,12.149L43.225,11.59C43.679,10.826,44.68,10.559,45.42,10.999L50.547,13.933C51.639,14.557,52.022,15.983,51.396,17.067C47.465,23.847,51.204,30.336,59.04,30.336C60.301,30.336,61.35,31.381,61.35,32.646L61.35,37.814C61.35,39.075,60.305,40.124,59.04,40.124C51.204,40.124,47.465,46.613,51.398,53.397C52.024,54.493,51.645,55.899,50.549,56.525L45.468,59.433C44.68,59.901,43.679,59.634,43.205,58.837L42.902,58.313C39.013,51.528,31.52,51.528,27.588,58.311L27.264,58.87C26.81,59.634,25.809,59.901,25.069,59.461L19.943,56.526C18.851,55.902,18.468,54.477,19.094,53.393C23.024,46.613,19.285,40.124,11.45,40.124C10.185,40.124,9.139,39.075,9.139,37.814ZM2.604,37.814C2.604,42.679,6.57,46.659,11.45,46.659C14.249,46.659,14.845,47.692,13.437,50.12C10.999,54.34,12.46,59.778,16.698,62.2L21.776,65.105C25.6,67.381,30.598,66.048,32.9,62.178L33.243,61.587C34.654,59.153,35.851,59.153,37.239,61.575L37.569,62.145C39.891,66.048,44.89,67.381,48.761,65.077L53.793,62.199C58.029,59.778,59.484,54.376,57.062,50.138C55.645,47.692,56.24,46.659,59.04,46.659C63.919,46.659,67.885,42.679,67.885,37.814L67.885,32.646C67.885,27.767,63.905,23.801,59.04,23.801C56.24,23.801,55.645,22.768,57.052,20.34C59.49,16.12,58.029,10.682,53.791,8.26L48.714,5.355C44.89,3.079,39.891,4.412,37.589,8.282L37.246,8.873C35.836,11.307,34.638,11.307,33.25,8.885L32.92,8.315C30.598,4.412,25.6,3.079,21.728,5.383L16.697,8.261C12.46,10.682,10.999,16.12,13.435,20.336C14.845,22.768,14.249,23.801,11.45,23.801C6.57,23.801,2.604,27.781,2.604,32.646L2.604,37.814Z"/>
</g>
  <g id="Medium-M" transform="matrix(1.0,0.0,0.0,1.0,1712.61001953125,1055.5400390625)">  <path fill-rule="nonzero" stroke-linejoin="round" stroke-opacity="1" stroke-miterlimit="10" stroke-dasharray="none" stroke-linecap="round" fill-opacity="1" stroke-width="1.5px" stroke="none" fill="#000000" d="M35.23,46.772C41.605,46.772,46.772,41.605,46.772,35.23C46.772,28.855,41.605,23.688,35.23,23.688C28.855,23.688,23.688,28.855,23.688,35.23C23.688,41.605,28.855,46.772,35.23,46.772ZM35.23,41.303C31.876,41.303,29.157,38.584,29.157,35.23C29.157,31.876,31.876,29.157,35.23,29.157C38.584,29.157,41.303,31.876,41.303,35.23C41.303,38.584,38.584,41.303,35.23,41.303Z"/>
  <path stroke-width="1.5px" fill-rule="nonzero" stroke-linecap="round" stroke-linejoin="round" stroke-miterlimit="10" fill-opacity="1" stroke-opacity="1" stroke-dasharray="none" fill="#000000" stroke="none" d="M8.606,37.814L8.606,32.646C8.606,31.091,9.89,29.803,11.45,29.803C18.874,29.803,22.357,23.759,18.631,17.33C17.859,15.994,18.33,14.241,19.676,13.472L24.757,10.565C25.792,9.949,27.119,10.303,27.742,11.351L28.049,11.88C31.735,18.311,38.714,18.311,42.44,11.882L42.764,11.323C43.371,10.303,44.697,9.949,45.692,10.541L50.811,13.471C52.16,14.241,52.631,15.994,51.857,17.333C48.132,23.759,51.615,29.803,59.04,29.803C60.595,29.803,61.883,31.087,61.883,32.646L61.883,37.814C61.883,39.369,60.6,40.657,59.04,40.657C51.615,40.657,48.132,46.701,51.859,53.13C52.632,54.483,52.166,56.215,50.813,56.988L45.732,59.895C44.697,60.511,43.371,60.157,42.747,59.109L42.441,58.579C38.755,52.149,31.776,52.149,28.049,58.578L27.726,59.137C27.119,60.157,25.792,60.511,24.797,59.919L19.678,56.989C18.33,56.218,17.859,54.466,18.632,53.127C22.357,46.701,18.874,40.657,11.45,40.657C9.89,40.657,8.606,39.369,8.606,37.814ZM3.137,37.814C3.137,42.385,6.865,46.126,11.45,46.126C14.66,46.126,15.512,47.604,13.898,50.387C11.608,54.351,12.981,59.462,16.963,61.737L22.04,64.643C25.617,66.771,30.289,65.525,32.443,61.906L32.782,61.32C34.398,58.531,36.109,58.531,37.702,61.31L38.03,61.878C40.2,65.525,44.873,66.771,48.489,64.619L53.528,61.736C57.509,59.461,58.876,54.386,56.599,50.402C54.978,47.604,55.829,46.126,59.04,46.126C63.625,46.126,67.352,42.385,67.352,37.814L67.352,32.646C67.352,28.061,63.611,24.334,59.04,24.334C55.829,24.334,54.978,22.856,56.591,20.073C58.881,16.109,57.508,10.998,53.527,8.723L48.449,5.817C44.873,3.689,40.2,4.935,38.047,8.554L37.707,9.14C36.091,11.928,34.38,11.928,32.788,9.15L32.459,8.582C30.289,4.935,25.617,3.689,22,5.841L16.961,8.724C12.981,10.998,11.608,16.109,13.897,20.069C15.512,22.856,14.66,24.334,11.45,24.334C6.865,24.334,3.137,28.075,3.137,32.646L3.137,37.814Z"/>
</g>
  <g id="Regular-M" transform="matrix(1.0,0.0,0.0,1.0,1415.9000195312499,1055.5400390625)">  <path stroke-dasharray="none" fill="#000000" stroke="none" fill-rule="nonzero" stroke-linecap="round" stroke-linejoin="round" stroke-opacity="1" fill-opacity="1" stroke-miterlimit="10" stroke-width="1.5px" d="M35.23,46.239C41.31,46.239,46.239,41.31,46.239,35.23C46.239,29.15,41.31,24.221,35.23,24.221C29.15,24.221,24.221,29.15,24.221,35.23C24.221,41.31,29.15,46.239,35.23,46.239ZM35.23,41.836C31.582,41.836,28.624,38.878,28.624,35.23C28.624,31.582,31.582,28.624,35.23,28.624C38.878,28.624,41.836,31.582,41.836,35.23C41.836,38.878,38.878,41.836,35.23,41.836Z"/>
  <path fill-rule="nonzero" fill-opacity="1" stroke-linejoin="round" stroke-miterlimit="10" stroke="none" stroke-opacity="1" stroke-dasharray="none" fill="#000000" stroke-linecap="round" stroke-width="1.5px" d="M8.074,37.814L8.074,32.646C8.074,30.797,9.595,29.27,11.45,29.27C18.464,29.27,21.69,23.671,18.17,17.597C17.25,16.005,17.808,13.926,19.412,13.009L24.492,10.102C25.775,9.339,27.428,9.78,28.2,11.078L28.51,11.613C31.992,17.689,38.458,17.689,41.979,11.614L42.303,11.056C43.062,9.78,44.715,9.339,45.965,10.083L51.076,13.009C52.681,13.926,53.239,16.005,52.318,17.6C48.799,23.671,52.026,29.27,59.04,29.27C60.889,29.27,62.416,30.792,62.416,32.646L62.416,37.814C62.416,39.663,60.894,41.19,59.04,41.19C52.026,41.19,48.799,46.789,52.32,52.863C53.24,54.474,52.686,56.531,51.077,57.451L45.997,60.358C44.715,61.121,43.062,60.68,42.289,59.382L41.98,58.846C38.497,52.771,32.031,52.771,28.51,58.846L28.187,59.404C27.428,60.68,25.775,61.121,24.524,60.377L19.413,57.451C17.808,56.534,17.25,54.455,18.171,52.86C21.69,46.789,18.464,41.19,11.45,41.19C9.595,41.19,8.074,39.663,8.074,37.814ZM3.67,37.814C3.67,42.091,7.159,45.593,11.45,45.593C15.07,45.593,16.179,47.516,14.36,50.655C12.217,54.362,13.502,59.146,17.227,61.274L22.305,64.18C25.634,66.161,29.981,65.002,31.985,61.633L32.321,61.053C34.143,57.91,36.367,57.91,38.164,61.045L38.491,61.611C40.509,65.002,44.856,66.161,48.217,64.161L53.263,61.274C56.988,59.145,58.267,54.395,56.137,50.666C54.311,47.516,55.419,45.593,59.04,45.593C63.33,45.593,66.82,42.091,66.82,37.814L66.82,32.646C66.82,28.356,63.317,24.866,59.04,24.866C55.419,24.866,54.311,22.944,56.13,19.805C58.272,16.098,56.987,11.314,53.262,9.186L48.184,6.28C44.856,4.299,40.509,5.458,38.505,8.827L38.169,9.407C36.347,12.55,34.123,12.55,32.325,9.415L31.998,8.849C29.981,5.458,25.634,4.299,22.273,6.299L17.226,9.186C13.502,11.314,12.217,16.098,14.358,19.803C16.179,22.944,15.07,24.866,11.45,24.866C7.159,24.866,3.67,28.369,3.67,32.646L3.67,37.814Z"/>
</g>
  <g id="Light-M" transform="matrix(1.0,0.0,0.0,1.0,1119.19001953125,1055.5400390625)">  <path stroke-miterlimit="10" fill="#000000" stroke-linecap="round" stroke="none" fill-rule="nonzero" stroke-opacity="1" stroke-width="1.5px" fill-opacity="1" stroke-dasharray="none" stroke-linejoin="round" d="M35.23,45.872C41.108,45.872,45.872,41.108,45.872,35.23C45.872,29.352,41.108,24.588,35.23,24.588C29.352,24.588,24.588,29.352,24.588,35.23C24.588,41.108,29.352,45.872,35.23,45.872ZM35.23,42.203C31.379,42.203,28.257,39.081,28.257,35.23C28.257,31.379,31.379,28.257,35.23,28.257C39.081,28.257,42.203,31.379,42.203,35.23C42.203,39.081,39.081,42.203,35.23,42.203Z"/>
  <path stroke="none" stroke-dasharray="none" fill-opacity="1" stroke-linejoin="round" stroke-miterlimit="10" stroke-linecap="round" fill-rule="nonzero" stroke-width="1.5px" fill="#000000" stroke-opacity="1" d="M7.707,37.814L7.707,32.646C7.707,30.595,9.392,28.903,11.45,28.903C18.181,28.903,21.231,23.611,17.852,17.781C16.83,16.013,17.45,13.708,19.23,12.691L24.31,9.784C25.763,8.919,27.64,9.42,28.515,10.891L28.827,11.43C32.17,17.261,38.282,17.261,41.662,11.43L41.985,10.872C42.849,9.42,44.726,8.919,46.153,9.768L51.258,12.69C53.04,13.708,53.659,16.013,52.636,17.783C49.258,23.611,52.308,28.903,59.04,28.903C61.091,28.903,62.783,30.589,62.783,32.646L62.783,37.814C62.783,39.865,61.097,41.557,59.04,41.557C52.308,41.557,49.258,46.849,52.637,52.679C53.659,54.467,53.045,56.749,51.259,57.769L46.179,60.676C44.726,61.541,42.849,61.04,41.974,59.569L41.662,59.03C38.319,53.199,32.207,53.199,28.828,59.03L28.504,59.588C27.64,61.04,25.763,61.541,24.337,60.692L19.231,57.77C17.45,56.752,16.83,54.447,17.853,52.677C21.231,46.849,18.181,41.557,11.45,41.557C9.392,41.557,7.707,39.865,7.707,37.814ZM4.037,37.814C4.037,41.889,7.362,45.226,11.45,45.226C15.353,45.226,16.638,47.456,14.677,50.839C12.637,54.37,13.861,58.928,17.409,60.956L22.487,63.862C25.646,65.741,29.768,64.642,31.669,61.446L32.003,60.869C33.967,57.482,36.544,57.482,38.482,60.862L38.809,61.427C40.721,64.642,44.844,65.741,48.029,63.846L53.081,60.955C56.63,58.927,57.848,54.402,55.818,50.848C53.851,47.456,55.136,45.226,59.04,45.226C63.127,45.226,66.453,41.889,66.453,37.814L66.453,32.646C66.453,28.559,63.115,25.233,59.04,25.233C55.136,25.233,53.851,23.004,55.812,19.621C57.853,16.09,56.628,11.532,53.08,9.504L48.002,6.598C44.844,4.719,40.721,5.818,38.82,9.014L38.486,9.591C36.523,12.978,33.945,12.978,32.007,9.598L31.68,9.033C29.768,5.818,25.646,4.719,22.46,6.614L17.408,9.505C13.861,11.532,12.637,16.09,14.676,19.619C16.638,23.004,15.353,25.233,11.45,25.233C7.362,25.233,4.037,28.571,4.037,32.646L4.037,37.814Z"/>
</g>
  <g id="Thin-M" transform="matrix(1.0,0.0,0.0,1.0,822.48001953125,1055.5400390625)">  <path stroke-linejoin="round" fill="#000000" fill-opacity="1" stroke-dasharray="none" stroke-opacity="1" stroke="none" stroke-linecap="round" fill-rule="nonzero" stroke-width="1.5px" stroke-miterlimit="10" d="M35.23,45.505C40.905,45.505,45.505,40.905,45.505,35.23C45.505,29.555,40.905,24.955,35.23,24.955C29.555,24.955,24.955,29.555,24.955,35.23C24.955,40.905,29.555,45.505,35.23,45.505ZM35.23,42.57C31.176,42.57,27.89,39.284,27.89,35.23C27.89,31.176,31.176,27.89,35.23,27.89C39.284,27.89,42.57,31.176,42.57,35.23C42.57,39.284,39.284,42.57,35.23,42.57Z"/>
  <path stroke-linejoin="round" stroke-miterlimit="10" fill-rule="nonzero" stroke-dasharray="none" stroke-opacity="1" stroke-width="1.5px" fill-opacity="1" fill="#000000" stroke="none" stroke-linecap="round" d="M7.34,37.814L7.34,32.646C7.34,30.393,9.189,28.536,11.45,28.536C17.898,28.536,20.772,23.55,17.535,17.965C16.411,16.021,17.091,13.49,19.048,12.372L24.128,9.465C25.751,8.499,27.853,9.06,28.831,10.703L29.145,11.246C32.347,16.832,38.106,16.832,41.344,11.246L41.667,10.688C42.636,9.06,44.738,8.499,46.34,9.453L51.441,12.371C53.399,13.49,54.078,16.021,52.954,17.967C49.718,23.55,52.591,28.536,59.04,28.536C61.293,28.536,63.15,30.386,63.15,32.646L63.15,37.814C63.15,40.067,61.3,41.924,59.04,41.924C52.591,41.924,49.718,46.91,52.955,52.495C54.078,54.461,53.403,56.967,51.441,58.088L46.362,60.995C44.738,61.961,42.636,61.4,41.659,59.757L41.344,59.214C38.142,53.628,32.383,53.628,29.145,59.214L28.822,59.772C27.853,61.4,25.751,61.961,24.149,61.007L19.049,58.088C17.091,56.97,16.411,54.439,17.536,52.493C20.772,46.91,17.898,41.924,11.45,41.924C9.189,41.924,7.34,40.067,7.34,37.814ZM4.404,37.814C4.404,41.686,7.565,44.86,11.45,44.86C15.636,44.86,17.097,47.395,14.995,51.023C13.056,54.378,14.22,58.711,17.591,60.637L22.669,63.543C25.657,65.321,29.555,64.281,31.354,61.258L31.686,60.685C33.791,57.053,36.722,57.053,38.801,60.68L39.127,61.243C40.934,64.281,44.832,65.321,47.841,63.531L52.899,60.637C56.271,58.71,57.43,54.408,55.499,51.03C53.392,47.395,54.853,44.86,59.04,44.86C62.924,44.86,66.086,41.686,66.086,37.814L66.086,32.646C66.086,28.762,62.912,25.6,59.04,25.6C54.853,25.6,53.392,23.065,55.495,19.437C57.433,16.082,56.269,11.749,52.898,9.823L47.82,6.917C44.832,5.139,40.934,6.179,39.136,9.202L38.804,9.775C36.699,13.407,33.768,13.407,31.689,9.78L31.363,9.217C29.555,6.179,25.657,5.139,22.648,6.929L17.591,9.823C14.22,11.749,13.056,16.082,14.993,19.436C17.097,23.065,15.636,25.6,11.45,25.6C7.565,25.6,4.404,28.774,4.404,32.646L4.404,37.814Z"/>
</g>
  <g id="Ultralight-M" transform="matrix(1.0,0.0,0.0,1.0,525.77001953125,1055.5400390625)">  <path stroke="none" stroke-linejoin="round" fill="#000000" fill-opacity="1" stroke-linecap="round" stroke-dasharray="none" fill-rule="nonzero" stroke-width="1.5px" stroke-miterlimit="10" stroke-opacity="1" d="M35.23,45.138C40.702,45.138,45.138,40.702,45.138,35.23C45.138,29.758,40.702,25.322,35.23,25.322C29.758,25.322,25.322,29.758,25.322,35.23C25.322,40.702,29.758,45.138,35.23,45.138ZM35.23,42.937C30.974,42.937,27.523,39.486,27.523,35.23C27.523,30.974,30.974,27.523,35.23,27.523C39.486,27.523,42.937,30.974,42.937,35.23C42.937,39.486,39.486,42.937,35.23,42.937Z"/>
  <path stroke="none" fill="#000000" fill-opacity="1" stroke-linejoin="round" stroke-opacity="1" stroke-miterlimit="10" fill-rule="nonzero" stroke-dasharray="none" stroke-width="1.5px" stroke-linecap="round" d="M6.973,37.814L6.973,32.646C6.973,30.19,8.986,28.169,11.45,28.169C17.615,28.169,20.312,23.489,17.217,18.149C15.992,16.028,16.732,13.273,18.866,12.053L23.945,9.147C25.74,8.079,28.066,8.7,29.146,10.515L29.462,11.062C32.525,16.404,37.93,16.404,41.027,11.062L41.35,10.504C42.423,8.7,44.75,8.079,46.528,9.137L51.623,12.053C53.757,13.273,54.498,16.028,53.272,18.15C50.177,23.489,52.874,28.169,59.04,28.169C61.496,28.169,63.517,30.183,63.517,32.646L63.517,37.814C63.517,40.27,61.503,42.291,59.04,42.291C52.874,42.291,50.177,46.971,53.272,52.311C54.497,54.454,53.762,57.185,51.624,58.407L46.544,61.313C44.75,62.381,42.423,61.76,41.343,59.945L41.027,59.398C37.964,54.056,32.559,54.056,29.463,59.398L29.139,59.956C28.066,61.76,25.74,62.381,23.961,61.323L18.866,58.407C16.732,57.187,15.992,54.432,17.218,52.309C20.312,46.971,17.615,42.291,11.45,42.291C8.986,42.291,6.973,40.27,6.973,37.814ZM4.771,37.814C4.771,41.484,7.768,44.493,11.45,44.493C15.919,44.493,17.556,47.334,15.312,51.207C13.475,54.385,14.579,58.493,17.773,60.318L22.852,63.225C25.669,64.901,29.342,63.921,31.038,61.07L31.368,60.501C33.615,56.625,36.899,56.625,39.119,60.497L39.444,61.059C41.147,63.921,44.82,64.901,47.654,63.215L52.717,60.318C55.913,58.492,57.011,54.415,55.181,51.212C52.933,47.334,54.571,44.493,59.04,44.493C62.721,44.493,65.719,41.484,65.719,37.814L65.719,32.646C65.719,28.965,62.71,25.967,59.04,25.967C54.571,25.967,52.933,23.126,55.177,19.253C57.014,16.075,55.91,11.967,52.716,10.142L47.638,7.235C44.82,5.559,41.147,6.539,39.451,9.39L39.121,9.959C36.875,13.835,33.59,13.835,31.37,9.963L31.045,9.401C29.342,6.539,25.669,5.559,22.836,7.245L17.773,10.142C14.579,11.967,13.475,16.075,15.311,19.252C17.556,23.126,15.919,25.967,11.45,25.967C7.768,25.967,4.771,28.976,4.771,32.646L4.771,37.814Z"/>
</g>
  <g id="Black-S" transform="matrix(1.0,0.0,0.0,1.0,2907.0949252929686,633.1849448242187)">  <path stroke-opacity="1" fill="#000000" stroke-dasharray="none" stroke-linecap="round" stroke-miterlimit="10" stroke-width="1.5px" stroke-linejoin="round" fill-opacity="1" fill-rule="nonzero" stroke="none" d="M27.585,38.292C33.498,38.292,38.292,33.498,38.292,27.585C38.292,21.672,33.498,16.879,27.585,16.879C21.672,16.879,16.879,21.672,16.879,27.585C16.879,33.498,21.672,38.292,27.585,38.292ZM27.585,30.671C25.881,30.671,24.499,29.29,24.499,27.585C24.499,25.881,25.881,24.499,27.585,24.499C29.29,24.499,30.671,25.881,30.671,27.585C30.671,29.29,29.29,30.671,27.585,30.671Z"/>
  <path stroke-miterlimit="10" fill-rule="nonzero" fill="#000000" stroke-width="1.5px" stroke-linejoin="round" stroke-dasharray="none" stroke-linecap="round" stroke-opacity="1" fill-opacity="1" stroke="none" d="M8.408,29.608L8.408,25.562C8.408,25.265,8.667,25.005,8.965,25.005C16.065,25.005,19.594,18.879,16.032,12.732C15.891,12.488,15.984,12.141,16.235,11.997L20.214,9.721L20.269,9.688C20.248,9.7,20.267,9.705,20.288,9.741L23.562,7.793L20.265,9.702L20.518,10.139C24.041,16.285,31.113,16.285,34.675,10.14L34.928,9.702L31.631,7.793L34.905,9.741C34.927,9.705,34.945,9.7,34.924,9.688L34.98,9.721L38.956,11.996C39.209,12.141,39.303,12.488,39.159,12.737C35.599,18.879,39.129,25.005,46.228,25.005C46.525,25.005,46.785,25.264,46.785,25.562L46.785,29.608C46.785,29.905,46.526,30.165,46.228,30.165C39.129,30.165,35.599,36.291,39.162,42.438C39.306,42.69,39.215,43.026,38.959,43.173L34.98,45.45L34.924,45.482C34.945,45.47,34.927,45.465,34.905,45.429L31.631,47.377L34.928,45.468L34.675,45.032C31.152,38.886,24.08,38.886,20.519,45.03L20.265,45.468L23.562,47.377L20.288,45.429C20.267,45.465,20.248,45.47,20.269,45.482L20.214,45.45L16.237,43.174C15.984,43.029,15.891,42.682,16.034,42.433C19.594,36.291,16.065,30.165,8.965,30.165C8.667,30.165,8.408,29.905,8.408,29.608ZM0.787,29.608C0.787,34.108,4.452,37.786,8.965,37.786C9.455,37.786,9.799,37.854,9.992,37.944C10.02,37.957,10.023,37.96,10.011,37.948C9.971,37.913,9.929,37.862,9.894,37.8C9.858,37.739,9.835,37.677,9.824,37.625C9.821,37.608,9.821,37.613,9.818,37.643C9.799,37.857,9.685,38.191,9.439,38.616C7.182,42.522,8.532,47.548,12.454,49.789L16.429,52.064L18.321,48.757L16.373,52.031C20.004,54.192,24.684,52.944,26.837,49.325L26.86,49.286L27.113,48.85C27.359,48.425,27.593,48.158,27.771,48.033C27.798,48.015,27.803,48.012,27.788,48.017C27.74,48.033,27.675,48.044,27.605,48.044C27.489,48.044,27.415,48.019,27.428,48.029C27.601,48.15,27.83,48.413,28.072,48.836L28.333,49.286L28.356,49.325C30.509,52.944,35.189,54.192,38.82,52.031L36.872,48.757L38.764,52.064L42.741,49.788C46.66,47.549,48.005,42.554,45.766,38.637C45.508,38.191,45.394,37.857,45.375,37.643C45.372,37.613,45.372,37.608,45.369,37.625C45.358,37.677,45.335,37.739,45.3,37.8C45.264,37.862,45.222,37.913,45.183,37.948C45.17,37.96,45.173,37.957,45.201,37.944C45.394,37.854,45.739,37.786,46.228,37.786C50.741,37.786,54.406,34.108,54.406,29.608L54.406,25.562C54.406,21.049,50.728,17.384,46.228,17.384C45.739,17.384,45.394,17.316,45.201,17.226C45.173,17.213,45.17,17.211,45.183,17.222C45.222,17.257,45.264,17.308,45.3,17.37C45.335,17.431,45.358,17.493,45.369,17.545C45.372,17.562,45.372,17.558,45.375,17.527C45.394,17.313,45.508,16.979,45.755,16.554C48.011,12.648,46.661,7.622,42.739,5.381L38.764,3.107L36.872,6.414L38.82,3.139C35.189,0.979,30.509,2.226,28.356,5.845L28.333,5.884L28.081,6.32C27.834,6.746,27.6,7.012,27.422,7.137C27.395,7.155,27.39,7.158,27.405,7.153C27.454,7.137,27.518,7.126,27.588,7.126C27.704,7.126,27.779,7.151,27.765,7.141C27.592,7.02,27.363,6.757,27.121,6.335L26.86,5.884L26.837,5.845C24.684,2.226,20.004,0.979,16.373,3.139L18.321,6.414L16.429,3.107L12.452,5.382C8.532,7.622,7.182,12.648,9.436,16.549C9.685,16.979,9.799,17.313,9.818,17.527C9.821,17.558,9.821,17.562,9.824,17.545C9.835,17.493,9.858,17.431,9.894,17.37C9.929,17.308,9.971,17.257,10.011,17.222C10.023,17.211,10.02,17.213,9.992,17.226C9.799,17.316,9.455,17.384,8.965,17.384C4.452,17.384,0.787,21.062,0.787,25.562L0.787,29.608Z"/>
</g>
  <g id="Heavy-S" transform="matrix(1.0,0.0,0.0,1.0,2610.3849252929685,633.1849448242187)">  <path stroke-dasharray="none" stroke-opacity="1" stroke-width="1.5px" stroke-linecap="round" fill-rule="nonzero" stroke="none" stroke-miterlimit="10" stroke-linejoin="round" fill-opacity="1" fill="#000000" d="M27.585,37.874C33.268,37.874,37.874,33.268,37.874,27.585C37.874,21.902,33.268,17.296,27.585,17.296C21.902,17.296,17.296,21.902,17.296,27.585C17.296,33.268,21.902,37.874,27.585,37.874ZM27.585,31.088C25.65,31.088,24.082,29.52,24.082,27.585C24.082,25.65,25.65,24.082,27.585,24.082C29.52,24.082,31.088,25.65,31.088,27.585C31.088,29.52,29.52,31.088,27.585,31.088Z"/>
  <path fill-rule="nonzero" stroke-opacity="1" fill="#000000" stroke="none" stroke-dasharray="none" fill-opacity="1" stroke-miterlimit="10" stroke-linejoin="round" stroke-width="1.5px" stroke-linecap="round" d="M7.99,29.608L7.99,25.562C7.99,25.035,8.436,24.587,8.965,24.587C15.743,24.587,19.072,18.81,15.671,12.942C15.414,12.497,15.576,11.893,16.028,11.635L20.006,9.358L20.056,9.329C20.235,9.223,20.508,9.296,20.646,9.528L20.879,9.93C24.243,15.798,30.913,15.798,34.314,9.931L34.567,9.493C34.685,9.296,34.958,9.223,35.137,9.329L35.187,9.358L39.164,11.634C39.617,11.893,39.779,12.497,39.52,12.946C36.121,18.81,39.45,24.587,46.228,24.587C46.756,24.587,47.203,25.033,47.203,25.562L47.203,29.608C47.203,30.135,46.757,30.583,46.228,30.583C39.45,30.583,36.121,36.36,39.523,42.229C39.782,42.683,39.623,43.274,39.166,43.535L35.187,45.812L35.137,45.841C34.958,45.947,34.685,45.874,34.547,45.643L34.314,45.241C30.95,39.372,24.28,39.372,20.88,45.239L20.626,45.677C20.508,45.874,20.235,45.947,20.056,45.841L20.006,45.812L16.029,43.536C15.576,43.277,15.414,42.673,15.673,42.224C19.072,36.36,15.743,30.583,8.965,30.583C8.436,30.583,7.99,30.135,7.99,29.608ZM1.205,29.608C1.205,33.878,4.683,37.369,8.965,37.369C10.514,37.369,10.579,37.481,9.8,38.826C7.659,42.53,8.94,47.301,12.661,49.427L16.636,51.701L18.321,48.757L16.586,51.673C20.018,53.714,24.442,52.534,26.478,49.112L26.751,48.641C27.534,47.291,27.668,47.291,28.434,48.628L28.695,49.077C30.751,52.534,35.175,53.714,38.607,51.673L36.872,48.757L38.557,51.701L42.534,49.426C46.252,47.301,47.529,42.562,45.404,38.844C44.614,37.481,44.679,37.369,46.228,37.369C50.51,37.369,53.989,33.878,53.989,29.608L53.989,25.562C53.989,21.28,50.498,17.802,46.228,17.802C44.679,17.802,44.614,17.689,45.394,16.345C47.534,12.64,46.253,7.869,42.532,5.743L38.557,3.469L36.872,6.414L38.607,3.498C35.175,1.456,30.751,2.636,28.715,6.058L28.442,6.53C27.659,7.879,27.525,7.879,26.759,6.542L26.499,6.093C24.442,2.636,20.018,1.456,16.586,3.498L18.321,6.414L16.636,3.469L12.659,5.744C8.94,7.869,7.659,12.64,9.797,16.341C10.579,17.689,10.514,17.802,8.965,17.802C4.683,17.802,1.205,21.292,1.205,25.562L1.205,29.608Z"/>
</g>
  <g id="Bold-S" transform="matrix(1.0,0.0,0.0,1.0,2313.6749252929685,633.1849448242187)">  <path stroke-miterlimit="10" stroke-linecap="round" stroke-linejoin="round" stroke="none" fill-rule="nonzero" stroke-dasharray="none" fill="#000000" stroke-width="1.5px" fill-opacity="1" stroke-opacity="1" d="M27.585,37.457C33.037,37.457,37.457,33.037,37.457,27.585C37.457,22.133,33.037,17.713,27.585,17.713C22.133,17.713,17.713,22.133,17.713,27.585C17.713,33.037,22.133,37.457,27.585,37.457ZM27.585,31.506C25.42,31.506,23.665,29.75,23.665,27.585C23.665,25.42,25.42,23.665,27.585,23.665C29.75,23.665,31.506,25.42,31.506,27.585C31.506,29.75,29.75,31.506,27.585,31.506Z"/>
  <path stroke-opacity="1" fill="#000000" fill-opacity="1" stroke-dasharray="none" stroke="none" stroke-miterlimit="10" stroke-linecap="round" stroke-linejoin="round" stroke-width="1.5px" fill-rule="nonzero" d="M7.573,29.608L7.573,25.562C7.573,24.805,8.205,24.17,8.965,24.17C15.422,24.17,18.55,18.741,15.31,13.151C14.937,12.506,15.168,11.646,15.821,11.273L19.799,8.996L19.843,8.971C20.222,8.745,20.75,8.886,21.005,9.314L21.24,9.72C24.444,15.311,30.713,15.311,33.953,9.722L34.206,9.284C34.443,8.886,34.971,8.745,35.351,8.971L35.394,8.996L39.371,11.272C40.025,11.646,40.256,12.506,39.881,13.154C36.643,18.741,39.772,24.17,46.228,24.17C46.986,24.17,47.62,24.802,47.62,25.562L47.62,29.608C47.62,30.366,46.988,31,46.228,31C39.772,31,36.643,36.429,39.883,42.019C40.258,42.675,40.031,43.521,39.373,43.897L35.394,46.174L35.351,46.199C34.971,46.425,34.443,46.284,34.188,45.856L33.953,45.45C30.749,39.859,24.48,39.859,21.241,45.448L20.987,45.886C20.75,46.284,20.222,46.425,19.843,46.199L19.799,46.174L15.822,43.898C15.168,43.524,14.937,42.664,15.312,42.016C18.55,36.429,15.422,31,8.965,31C8.205,31,7.573,30.366,7.573,29.608ZM1.622,29.608C1.622,33.648,4.913,36.951,8.965,36.951C10.836,36.951,11.101,37.412,10.161,39.035C8.136,42.539,9.348,47.053,12.868,49.065L16.843,51.339L18.321,48.757L16.8,51.314C20.031,53.237,24.2,52.125,26.12,48.899L26.39,48.432C27.334,46.804,27.87,46.804,28.796,48.421L29.056,48.868C30.993,52.125,35.162,53.237,38.394,51.314L36.872,48.757L38.35,51.339L42.327,49.064C45.844,47.054,47.052,42.569,45.042,39.051C44.092,37.412,44.357,36.951,46.228,36.951C50.28,36.951,53.571,33.648,53.571,29.608L53.571,25.562C53.571,21.511,50.268,18.219,46.228,18.219C44.357,18.219,44.092,17.758,45.033,16.135C47.057,12.631,45.845,8.117,42.325,6.106L38.35,3.831L36.872,6.414L38.394,3.856C35.162,1.934,30.993,3.045,29.074,6.271L28.803,6.739C27.859,8.366,27.324,8.366,26.397,6.75L26.138,6.302C24.2,3.045,20.031,1.934,16.8,3.856L18.321,6.414L16.843,3.831L12.866,6.107C9.348,8.117,8.136,12.631,10.159,16.132C11.101,17.758,10.836,18.219,8.965,18.219C4.913,18.219,1.622,21.522,1.622,25.562L1.622,29.608Z"/>
</g>
  <g id="Semibold-S" transform="matrix(1.0,0.0,0.0,1.0,2016.9649252929687,633.1849448242187)">  <path stroke="none" stroke-linecap="round" stroke-width="1.5px" stroke-dasharray="none" stroke-opacity="1" fill="#000000" fill-opacity="1" stroke-miterlimit="10" fill-rule="nonzero" stroke-linejoin="round" d="M27.585,37.04C32.807,37.04,37.04,32.807,37.04,27.585C37.04,22.363,32.807,18.13,27.585,18.13C22.363,18.13,18.13,22.363,18.13,27.585C18.13,32.807,22.363,37.04,27.585,37.04ZM27.585,31.923C25.189,31.923,23.247,29.981,23.247,27.585C23.247,25.189,25.189,23.247,27.585,23.247C29.981,23.247,31.923,25.189,31.923,27.585C31.923,29.981,29.981,31.923,27.585,31.923Z"/>
  <path stroke-width="1.5px" stroke-linecap="round" stroke="none" stroke-opacity="1" stroke-dasharray="none" fill="#000000" fill-opacity="1" fill-rule="nonzero" stroke-miterlimit="10" stroke-linejoin="round" d="M7.156,29.608L7.156,25.562C7.156,24.574,7.974,23.753,8.965,23.753C15.1,23.753,18.028,18.672,14.949,13.36C14.46,12.515,14.76,11.398,15.614,10.911L19.592,8.634C20.208,8.268,20.992,8.477,21.363,9.101L21.601,9.511C24.646,14.824,30.513,14.824,33.592,9.513L33.845,9.075C34.201,8.477,34.985,8.268,35.564,8.612L39.578,10.91C40.433,11.398,40.733,12.515,40.243,13.363C37.165,18.672,40.093,23.753,46.228,23.753C47.216,23.753,48.037,24.572,48.037,25.562L48.037,29.608C48.037,30.596,47.219,31.417,46.228,31.417C40.093,31.417,37.165,36.498,40.244,41.81C40.735,42.668,40.438,43.769,39.58,44.259L35.601,46.536C34.985,46.902,34.201,46.693,33.83,46.069L33.592,45.659C30.547,40.346,24.68,40.346,21.602,45.658L21.348,46.095C20.992,46.693,20.208,46.902,19.629,46.558L15.615,44.26C14.76,43.772,14.46,42.656,14.95,41.807C18.028,36.498,15.1,31.417,8.965,31.417C7.974,31.417,7.156,30.596,7.156,29.608ZM2.039,29.608C2.039,33.418,5.144,36.534,8.965,36.534C11.157,36.534,11.623,37.343,10.522,39.244C8.613,42.548,9.756,46.806,13.075,48.702L17.05,50.977C20.045,52.759,23.959,51.715,25.761,48.686L26.029,48.223C27.134,46.317,28.071,46.317,29.158,48.213L29.417,48.659C31.235,51.715,35.149,52.759,38.18,50.955L42.12,48.701C45.437,46.806,46.576,42.577,44.679,39.258C43.57,37.343,44.036,36.534,46.228,36.534C50.049,36.534,53.154,33.418,53.154,29.608L53.154,25.562C53.154,21.741,50.038,18.636,46.228,18.636C44.036,18.636,43.57,17.827,44.672,15.926C46.581,12.622,45.437,8.364,42.118,6.468L38.143,4.193C35.149,2.411,31.235,3.455,29.432,6.485L29.164,6.948C28.059,8.853,27.122,8.853,26.035,6.957L25.776,6.511C23.959,3.455,20.045,2.411,17.013,4.215L13.073,6.469C9.756,8.364,8.613,12.622,10.52,15.923C11.623,17.827,11.157,18.636,8.965,18.636C5.144,18.636,2.039,21.753,2.039,25.562L2.039,29.608Z"/>
</g>
  <g id="Medium-S" transform="matrix(1.0,0.0,0.0,1.0,1720.2549252929687,633.1849448242187)">  <path fill-rule="nonzero" stroke-linejoin="round" stroke-opacity="1" stroke-miterlimit="10" stroke-dasharray="none" stroke-linecap="round" fill-opacity="1" stroke-width="1.5px" stroke="none" fill="#000000" d="M27.585,36.623C32.576,36.623,36.623,32.576,36.623,27.585C36.623,22.594,32.576,18.548,27.585,18.548C22.594,18.548,18.548,22.594,18.548,27.585C18.548,32.576,22.594,36.623,27.585,36.623ZM27.585,32.34C24.959,32.34,22.83,30.211,22.83,27.585C22.83,24.959,24.959,22.83,27.585,22.83C30.211,22.83,32.34,24.959,32.34,27.585C32.34,30.211,30.211,32.34,27.585,32.34Z"/>
  <path stroke-width="1.5px" fill-rule="nonzero" stroke-linecap="round" stroke-linejoin="round" stroke-miterlimit="10" fill-opacity="1" stroke-opacity="1" stroke-dasharray="none" fill="#000000" stroke="none" d="M6.739,29.608L6.739,25.562C6.739,24.344,7.744,23.336,8.965,23.336C14.779,23.336,17.506,18.604,14.588,13.569C13.983,12.523,14.352,11.151,15.407,10.548L19.385,8.272C20.195,7.79,21.234,8.067,21.722,8.888L21.962,9.302C24.848,14.337,30.313,14.337,33.231,9.303L33.484,8.866C33.959,8.067,34.998,7.79,35.777,8.254L39.785,10.548C40.841,11.151,41.21,12.523,40.604,13.572C37.687,18.604,40.415,23.336,46.228,23.336C47.446,23.336,48.454,24.341,48.454,25.562L48.454,29.608C48.454,30.826,47.449,31.834,46.228,31.834C40.415,31.834,37.687,36.567,40.605,41.601C41.211,42.66,40.846,44.016,39.787,44.622L35.809,46.898C34.998,47.38,33.959,47.103,33.471,46.283L33.231,45.868C30.345,40.833,24.88,40.833,21.963,45.867L21.709,46.305C21.234,47.103,20.195,47.38,19.416,46.916L15.408,44.622C14.352,44.019,13.983,42.647,14.589,41.598C17.506,36.567,14.779,31.834,8.965,31.834C7.744,31.834,6.739,30.826,6.739,29.608ZM2.456,29.608C2.456,33.187,5.375,36.117,8.965,36.117C11.479,36.117,12.146,37.274,10.883,39.453C9.089,42.557,10.164,46.559,13.282,48.34L17.258,50.615C20.058,52.281,23.717,51.306,25.402,48.472L25.668,48.013C26.934,45.83,28.273,45.83,29.52,48.006L29.778,48.45C31.476,51.306,35.135,52.281,37.967,50.597L41.912,48.339C45.029,46.558,46.1,42.584,44.317,39.465C43.048,37.274,43.714,36.117,46.228,36.117C49.818,36.117,52.737,33.187,52.737,29.608L52.737,25.562C52.737,21.972,49.808,19.053,46.228,19.053C43.714,19.053,43.048,17.896,44.311,15.717C46.104,12.613,45.029,8.612,41.911,6.83L37.936,4.555C35.135,2.889,31.476,3.864,29.791,6.698L29.525,7.157C28.259,9.34,26.92,9.34,25.673,7.165L25.415,6.72C23.717,3.864,20.058,2.889,17.226,4.573L13.281,6.831C10.164,8.612,9.089,12.613,10.881,15.714C12.146,17.896,11.479,19.053,8.965,19.053C5.375,19.053,2.456,21.983,2.456,25.562L2.456,29.608Z"/>
</g>
  <g id="Regular-S" transform="matrix(1.0,0.0,0.0,1.0,1423.5449252929686,633.1849448242187)">  <path stroke-dasharray="none" fill="#000000" stroke="none" fill-rule="nonzero" stroke-linecap="round" stroke-linejoin="round" stroke-opacity="1" fill-opacity="1" stroke-miterlimit="10" stroke-width="1.5px" d="M27.585,36.205C32.346,36.205,36.205,32.346,36.205,27.585C36.205,22.824,32.346,18.965,27.585,18.965C22.824,18.965,18.965,22.824,18.965,27.585C18.965,32.346,22.824,36.205,27.585,36.205ZM27.585,32.757C24.728,32.757,22.413,30.442,22.413,27.585C22.413,24.728,24.728,22.413,27.585,22.413C30.442,22.413,32.757,24.728,32.757,27.585C32.757,30.442,30.442,32.757,27.585,32.757Z"/>
  <path fill-rule="nonzero" fill-opacity="1" stroke-linejoin="round" stroke-miterlimit="10" stroke="none" stroke-opacity="1" stroke-dasharray="none" fill="#000000" stroke-linecap="round" stroke-width="1.5px" d="M6.322,29.608L6.322,25.562C6.322,24.114,7.513,22.919,8.965,22.919C14.457,22.919,16.983,18.535,14.227,13.779C13.507,12.532,13.944,10.904,15.2,10.186L19.177,7.91C20.182,7.313,21.476,7.658,22.081,8.674L22.323,9.093C25.05,13.85,30.113,13.85,32.87,9.094L33.123,8.657C33.717,7.658,35.012,7.313,35.991,7.895L39.993,10.186C41.249,10.904,41.687,12.532,40.965,13.781C38.21,18.535,40.736,22.919,46.228,22.919C47.676,22.919,48.872,24.11,48.872,25.562L48.872,29.608C48.872,31.056,47.68,32.252,46.228,32.252C40.736,32.252,38.21,36.636,40.966,41.392C41.687,42.653,41.253,44.264,39.994,44.984L36.016,47.26C35.012,47.857,33.717,47.512,33.113,46.496L32.87,46.077C30.143,41.32,25.08,41.32,22.323,46.076L22.07,46.514C21.476,47.512,20.182,47.857,19.203,47.275L15.201,44.984C13.944,44.266,13.507,42.638,14.228,41.39C16.983,36.636,14.457,32.252,8.965,32.252C7.513,32.252,6.322,31.056,6.322,29.608ZM2.873,29.608C2.873,32.957,5.606,35.7,8.965,35.7C11.8,35.7,12.668,37.205,11.243,39.663C9.566,42.566,10.572,46.311,13.489,47.978L17.465,50.253C20.071,51.804,23.475,50.896,25.044,48.259L25.307,47.804C26.734,45.343,28.475,45.343,29.882,47.798L30.139,48.241C31.718,50.896,35.122,51.804,37.754,50.238L41.705,47.977C44.622,46.311,45.623,42.591,43.955,39.672C42.525,37.205,43.393,35.7,46.228,35.7C49.587,35.7,52.32,32.957,52.32,29.608L52.32,25.562C52.32,22.203,49.577,19.47,46.228,19.47C43.393,19.47,42.525,17.965,43.95,15.508C45.627,12.605,44.621,8.859,41.704,7.192L37.728,4.917C35.122,3.366,31.718,4.274,30.149,6.911L29.886,7.366C28.459,9.827,26.718,9.827,25.311,7.372L25.054,6.929C23.475,4.274,20.071,3.366,17.44,4.932L13.488,7.193C10.572,8.859,9.566,12.605,11.242,15.506C12.668,17.965,11.8,19.47,8.965,19.47C5.606,19.47,2.873,22.213,2.873,25.562L2.873,29.608Z"/>
</g>
  <g id="Light-S" transform="matrix(1.0,0.0,0.0,1.0,1126.8349252929688,633.1849448242187)">  <path stroke-miterlimit="10" fill="#000000" stroke-linecap="round" stroke="none" fill-rule="nonzero" stroke-opacity="1" stroke-width="1.5px" fill-opacity="1" stroke-dasharray="none" stroke-linejoin="round" d="M27.585,35.918C32.187,35.918,35.918,32.187,35.918,27.585C35.918,22.983,32.187,19.252,27.585,19.252C22.983,19.252,19.252,22.983,19.252,27.585C19.252,32.187,22.983,35.918,27.585,35.918ZM27.585,33.045C24.57,33.045,22.126,30.6,22.126,27.585C22.126,24.57,24.57,22.126,27.585,22.126C30.6,22.126,33.045,24.57,33.045,27.585C33.045,30.6,30.6,33.045,27.585,33.045Z"/>
  <path stroke="none" stroke-dasharray="none" fill-opacity="1" stroke-linejoin="round" stroke-miterlimit="10" stroke-linecap="round" fill-rule="nonzero" stroke-width="1.5px" fill="#000000" stroke-opacity="1" d="M6.034,29.608L6.034,25.562C6.034,23.956,7.354,22.631,8.965,22.631C14.236,22.631,16.624,18.487,13.978,13.923C13.178,12.538,13.663,10.733,15.057,9.937L19.035,7.661C20.172,6.984,21.642,7.376,22.328,8.527L22.572,8.949C25.189,13.515,29.975,13.515,32.621,8.95L32.874,8.513C33.551,7.376,35.021,6.984,36.137,7.648L40.135,9.936C41.53,10.733,42.015,12.538,41.214,13.924C38.569,18.487,40.957,22.631,46.228,22.631C47.834,22.631,49.159,23.951,49.159,25.562L49.159,29.608C49.159,31.214,47.839,32.539,46.228,32.539C40.957,32.539,38.569,36.683,41.215,41.248C42.015,42.648,41.534,44.435,40.136,45.233L36.158,47.51C35.021,48.186,33.551,47.794,32.866,46.643L32.621,46.221C30.004,41.655,25.218,41.655,22.572,46.22L22.319,46.658C21.642,47.794,20.172,48.186,19.056,47.522L15.058,45.234C13.663,44.437,13.178,42.632,13.979,41.246C16.624,36.683,14.236,32.539,8.965,32.539C7.354,32.539,6.034,31.214,6.034,29.608ZM3.161,29.608C3.161,32.799,5.765,35.412,8.965,35.412C12.022,35.412,13.027,37.158,11.492,39.807C9.895,42.572,10.853,46.141,13.631,47.728L17.607,50.004C20.08,51.475,23.308,50.614,24.797,48.112L25.058,47.66C26.596,45.008,28.614,45.008,30.132,47.655L30.388,48.097C31.885,50.614,35.113,51.475,37.607,49.991L41.562,47.728C44.341,46.14,45.295,42.597,43.705,39.814C42.166,37.158,43.172,35.412,46.228,35.412C49.428,35.412,52.032,32.799,52.032,29.608L52.032,25.562C52.032,22.362,49.419,19.758,46.228,19.758C43.172,19.758,42.166,18.012,43.701,15.364C45.299,12.599,44.34,9.029,41.562,7.442L37.586,5.167C35.113,3.695,31.885,4.556,30.396,7.058L30.135,7.51C28.597,10.162,26.579,10.162,25.062,7.515L24.806,7.073C23.308,4.556,20.08,3.695,17.587,5.179L13.631,7.442C10.853,9.029,9.895,12.599,11.491,15.362C13.027,18.012,12.022,19.758,8.965,19.758C5.765,19.758,3.161,22.371,3.161,25.562L3.161,29.608Z"/>
</g>
  <g id="Thin-S" transform="matrix(1.0,0.0,0.0,1.0,830.1249252929688,633.1849448242187)">  <path stroke-linejoin="round" fill="#000000" fill-opacity="1" stroke-dasharray="none" stroke-opacity="1" stroke="none" stroke-linecap="round" fill-rule="nonzero" stroke-width="1.5px" stroke-miterlimit="10" d="M27.585,35.631C32.029,35.631,35.631,32.029,35.631,27.585C35.631,23.141,32.029,19.539,27.585,19.539C23.141,19.539,19.539,23.141,19.539,27.585C19.539,32.029,23.141,35.631,27.585,35.631ZM27.585,33.332C24.411,33.332,21.838,30.759,21.838,27.585C21.838,24.411,24.411,21.838,27.585,21.838C30.759,21.838,33.332,24.411,33.332,27.585C33.332,30.759,30.759,33.332,27.585,33.332Z"/>
  <path stroke-linejoin="round" stroke-miterlimit="10" fill-rule="nonzero" stroke-dasharray="none" stroke-opacity="1" stroke-width="1.5px" fill-opacity="1" fill="#000000" stroke="none" stroke-linecap="round" d="M5.747,29.608L5.747,25.562C5.747,23.797,7.195,22.344,8.965,22.344C14.014,22.344,16.264,18.44,13.73,14.067C12.85,12.544,13.382,10.563,14.914,9.687L18.892,7.411C20.163,6.655,21.809,7.094,22.574,8.38L22.82,8.805C25.328,13.18,29.837,13.18,32.372,8.806L32.626,8.369C33.384,7.094,35.03,6.655,36.284,7.401L40.278,9.687C41.811,10.563,42.343,12.544,41.463,14.068C38.929,18.44,41.179,22.344,46.228,22.344C47.993,22.344,49.446,23.792,49.446,25.562L49.446,29.608C49.446,31.373,47.998,32.826,46.228,32.826C41.179,32.826,38.929,36.73,41.464,41.103C42.343,42.643,41.815,44.605,40.279,45.483L36.301,47.759C35.03,48.515,33.384,48.076,32.619,46.79L32.373,46.365C29.865,41.99,25.356,41.99,22.821,46.364L22.568,46.801C21.809,48.076,20.163,48.515,18.909,47.769L14.915,45.483C13.382,44.607,12.85,42.626,13.73,41.102C16.264,36.73,14.014,32.826,8.965,32.826C7.195,32.826,5.747,31.373,5.747,29.608ZM3.448,29.608C3.448,32.64,5.924,35.125,8.965,35.125C12.243,35.125,13.387,37.11,11.741,39.951C10.223,42.578,11.134,45.97,13.774,47.479L17.75,49.754C20.09,51.146,23.142,50.332,24.55,47.965L24.81,47.516C26.458,44.673,28.753,44.673,30.381,47.512L30.636,47.953C32.051,50.332,35.104,51.146,37.46,49.744L41.42,47.478C44.06,45.97,44.967,42.602,43.456,39.957C41.806,37.11,42.95,35.125,46.228,35.125C49.269,35.125,51.745,32.64,51.745,29.608L51.745,25.562C51.745,22.521,49.26,20.045,46.228,20.045C42.95,20.045,41.806,18.06,43.452,15.219C44.97,12.593,44.059,9.2,41.419,7.691L37.443,5.416C35.104,4.024,32.051,4.838,30.643,7.205L30.383,7.654C28.735,10.497,26.44,10.497,24.812,7.658L24.557,7.217C23.142,4.838,20.09,4.024,17.733,5.426L13.773,7.692C11.134,9.2,10.223,12.593,11.74,15.218C13.387,18.06,12.243,20.045,8.965,20.045C5.924,20.045,3.448,22.53,3.448,25.562L3.448,29.608Z"/>
</g>
  <g id="Ultralight-S" transform="matrix(1.0,0.0,0.0,1.0,533.4149252929687,633.1849448242187)">  <path stroke="none" stroke-linejoin="round" fill="#000000" fill-opacity="1" stroke-linecap="round" stroke-dasharray="none" fill-rule="nonzero" stroke-width="1.5px" stroke-miterlimit="10" stroke-opacity="1" d="M27.585,35.343C31.87,35.343,35.343,31.87,35.343,27.585C35.343,23.3,31.87,19.827,27.585,19.827C23.3,19.827,19.827,23.3,19.827,27.585C19.827,31.87,23.3,35.343,27.585,35.343ZM27.585,33.619C24.252,33.619,21.551,30.918,21.551,27.585C21.551,24.252,24.252,21.551,27.585,21.551C30.918,21.551,33.619,24.252,33.619,27.585C33.619,30.918,30.918,33.619,27.585,33.619Z"/>
  <path stroke="none" fill="#000000" fill-opacity="1" stroke-linejoin="round" stroke-opacity="1" stroke-miterlimit="10" fill-rule="nonzero" stroke-dasharray="none" stroke-width="1.5px" stroke-linecap="round" d="M5.46,29.608L5.46,25.562C5.46,23.639,7.036,22.057,8.965,22.057C13.793,22.057,15.905,18.392,13.481,14.211C12.522,12.55,13.101,10.393,14.772,9.438L18.749,7.162C20.154,6.326,21.976,6.812,22.821,8.234L23.069,8.661C25.467,12.844,29.699,12.844,32.124,8.662L32.377,8.225C33.218,6.812,35.039,6.326,36.431,7.154L40.421,9.437C42.092,10.393,42.672,12.55,41.712,14.212C39.289,18.392,41.4,22.057,46.228,22.057C48.151,22.057,49.734,23.633,49.734,25.562L49.734,29.608C49.734,31.531,48.157,33.114,46.228,33.114C41.4,33.114,39.289,36.778,41.712,40.959C42.671,42.638,42.095,44.776,40.421,45.732L36.444,48.008C35.039,48.844,33.218,48.358,32.372,46.937L32.124,46.509C29.726,42.326,25.494,42.326,23.069,46.508L22.816,46.945C21.976,48.358,20.154,48.844,18.762,48.016L14.772,45.733C13.101,44.778,12.522,42.62,13.482,40.958C15.905,36.778,13.793,33.114,8.965,33.114C7.036,33.114,5.46,31.531,5.46,29.608ZM3.735,29.608C3.735,32.482,6.083,34.838,8.965,34.838C12.464,34.838,13.747,37.063,11.989,40.095C10.551,42.584,11.415,45.8,13.917,47.229L17.893,49.505C20.099,50.817,22.975,50.05,24.303,47.818L24.561,47.373C26.32,44.337,28.892,44.337,30.63,47.369L30.885,47.809C32.218,50.05,35.094,50.817,37.313,49.497L41.277,47.229C43.78,45.799,44.639,42.607,43.206,40.099C41.446,37.063,42.729,34.838,46.228,34.838C49.111,34.838,51.458,32.482,51.458,29.608L51.458,25.562C51.458,22.68,49.102,20.332,46.228,20.332C42.729,20.332,41.446,18.107,43.204,15.075C44.642,12.587,43.778,9.37,41.277,7.941L37.3,5.665C35.094,4.353,32.218,5.12,30.89,7.352L30.632,7.798C28.873,10.833,26.301,10.833,24.563,7.801L24.308,7.361C22.975,5.12,20.099,4.353,17.88,5.673L13.916,7.941C11.415,9.37,10.551,12.586,11.989,15.074C13.747,18.107,12.464,20.332,8.965,20.332C6.083,20.332,3.735,22.688,3.735,25.562L3.735,29.608Z"/>
</g>
 </g>
</svg>
