<?xml version="1.0" encoding="UTF-8"?>
<!-- Generator: CustomSymbols v2.6.2.41 by @serious_bret https://bretlester.com/app_content/CustomSymbols/ -->
<!-- Guides: Left/Right 0.0/0.0 Cap/Base 0.0/0.0 -->
<!-- Settings: RefScale 1.0 Min/Max Stroke Scales 0.5/2.21 -->
<!DOCTYPE svg
PUBLIC "-//W3C//DTD SVG 1.1//EN"
       "http://www.w3.org/Graphics/SVG/1.1/DTD/svg11.dtd">
<svg version="1.1" xmlns="http://www.w3.org/2000/svg" xmlns:xlink="http://www.w3.org/1999/xlink" width="3300" height="2200">
<![CDATA[<svg xmlns="http://www.w3.org/2000/svg" width="36" height="36" viewBox="0 0 24 24" fill="none" stroke="currentColor" stroke-width="2" stroke-linecap="round" stroke-linejoin="round" class="ai ai-ShareBox"><path d="M12 3v12m0-12L8 7m4-4l4 4"/><path d="M2 17l.621 2.485A2 2 0 0 0 4.561 21H19.439a2 2 0 0 0 1.94-1.515L22 17"/></svg>]]>
 <g id="Notes">
  <rect height="2200" id="artboard" style="fill:white;opacity:1" width="3300" x="0" y="0"/>
  <line id="" style="fill:none;stroke:black;opacity:1;stroke-width:0.5;" x1="263" x2="3036" y1="292" y2="292"/>
  <text id="reftext1" style="stroke:none;fill:black;font-family:-apple-system,&quot;SF Pro Display&quot;,&quot;SF Pro Text&quot;,Helvetica,sans-serif;font-weight:bold;" transform="matrix(1 0 0 1 263 322)">Weight/Scale Variations</text>
  <text id="reftext2" style="stroke:none;fill:black;font-family:-apple-system,&quot;SF Pro Display&quot;,&quot;SF Pro Text&quot;,Helvetica,sans-serif;text-anchor:middle;" transform="matrix(1 0 0 1 559.711 322)">Ultralight</text>
  <text style="stroke:none;fill:black;font-family:-apple-system,&quot;SF Pro Display&quot;,&quot;SF Pro Text&quot;,Helvetica,sans-serif;text-anchor:middle;" transform="matrix(1 0 0 1 856.422 322)">Thin</text>
  <text style="stroke:none;fill:black;font-family:-apple-system,&quot;SF Pro Display&quot;,&quot;SF Pro Text&quot;,Helvetica,sans-serif;text-anchor:middle;" transform="matrix(1 0 0 1 1153.13 322)">Light</text>
  <text style="stroke:none;fill:black;font-family:-apple-system,&quot;SF Pro Display&quot;,&quot;SF Pro Text&quot;,Helvetica,sans-serif;text-anchor:middle;" transform="matrix(1 0 0 1 1449.84 322)">Regular</text>
  <text style="stroke:none;fill:black;font-family:-apple-system,&quot;SF Pro Display&quot;,&quot;SF Pro Text&quot;,Helvetica,sans-serif;text-anchor:middle;" transform="matrix(1 0 0 1 1746.56 322)">Medium</text>
  <text style="stroke:none;fill:black;font-family:-apple-system,&quot;SF Pro Display&quot;,&quot;SF Pro Text&quot;,Helvetica,sans-serif;text-anchor:middle;" transform="matrix(1 0 0 1 2043.27 322)">Semibold</text>
  <text style="stroke:none;fill:black;font-family:-apple-system,&quot;SF Pro Display&quot;,&quot;SF Pro Text&quot;,Helvetica,sans-serif;text-anchor:middle;" transform="matrix(1 0 0 1 2339.98 322)">Bold</text>
  <text style="stroke:none;fill:black;font-family:-apple-system,&quot;SF Pro Display&quot;,&quot;SF Pro Text&quot;,Helvetica,sans-serif;text-anchor:middle;" transform="matrix(1 0 0 1 2636.69 322)">Heavy</text>
  <text style="stroke:none;fill:black;font-family:-apple-system,&quot;SF Pro Display&quot;,&quot;SF Pro Text&quot;,Helvetica,sans-serif;text-anchor:middle;" transform="matrix(1 0 0 1 2933.4 322)">Black</text>
  <line id="" style="fill:none;stroke:black;opacity:1;stroke-width:0.5;" x1="263" x2="3036" y1="1903" y2="1903"/>
  <g id="" transform="matrix(1 0 0 1 263 1933)">
   <path d="M9.24805 0.830078C13.5547 0.830078 17.1387-2.74414 17.1387-7.05078C17.1387-11.3574 13.5449-14.9316 9.23828-14.9316C4.94141-14.9316 1.36719-11.3574 1.36719-7.05078C1.36719-2.74414 4.95117 0.830078 9.24805 0.830078ZM9.24805-0.654297C5.70312-0.654297 2.87109-3.49609 2.87109-7.05078C2.87109-10.6055 5.69336-13.4473 9.23828-13.4473C12.793-13.4473 15.6348-10.6055 15.6445-7.05078C15.6543-3.49609 12.8027-0.654297 9.24805-0.654297ZM6.39648-6.31836L8.50586-6.31836L8.50586-4.19922C8.50586-3.75977 8.79883-3.45703 9.22852-3.45703C9.67773-3.45703 9.9707-3.75977 9.9707-4.19922L9.9707-6.31836L12.0996-6.31836C12.5391-6.31836 12.8418-6.61133 12.8418-7.04102C12.8418-7.48047 12.5391-7.7832 12.0996-7.7832L9.9707-7.7832L9.9707-9.89258C9.9707-10.3418 9.67773-10.6445 9.22852-10.6445C8.79883-10.6445 8.50586-10.3418 8.50586-9.89258L8.50586-7.7832L6.39648-7.7832C5.94727-7.7832 5.64453-7.48047 5.64453-7.04102C5.64453-6.61133 5.94727-6.31836 6.39648-6.31836Z"/>
  </g>
  <g id="" transform="matrix(1 0 0 1 281.506 1933)">
   <path d="M11.709 2.91016C17.1582 2.91016 21.6699-1.61133 21.6699-7.05078C21.6699-12.5 17.1484-17.0117 11.6992-17.0117C6.25977-17.0117 1.74805-12.5 1.74805-7.05078C1.74805-1.61133 6.26953 2.91016 11.709 2.91016ZM11.709 1.25C7.09961 1.25 3.41797-2.44141 3.41797-7.05078C3.41797-11.6602 7.08984-15.3516 11.6992-15.3516C16.3086-15.3516 20-11.6602 20.0098-7.05078C20.0195-2.44141 16.3184 1.25 11.709 1.25ZM7.98828-6.23047L10.8789-6.23047L10.8789-3.32031C10.8789-2.83203 11.2109-2.5 11.6895-2.5C12.1777-2.5 12.5195-2.83203 12.5195-3.32031L12.5195-6.23047L15.4297-6.23047C15.918-6.23047 16.25-6.5625 16.25-7.04102C16.25-7.5293 15.918-7.87109 15.4297-7.87109L12.5195-7.87109L12.5195-10.7617C12.5195-11.2695 12.1777-11.6016 11.6895-11.6016C11.2109-11.6016 10.8789-11.2598 10.8789-10.7617L10.8789-7.87109L7.98828-7.87109C7.48047-7.87109 7.14844-7.5293 7.14844-7.04102C7.14844-6.5625 7.49023-6.23047 7.98828-6.23047Z"/>
  </g>
  <g id="" transform="matrix(1 0 0 1 304.924 1933)">
   <path d="M14.9707 5.66406C21.9336 5.66406 27.6953-0.0976562 27.6953-7.05078C27.6953-14.0137 21.9238-19.7754 14.9609-19.7754C8.00781-19.7754 2.25586-14.0137 2.25586-7.05078C2.25586-0.0976562 8.01758 5.66406 14.9707 5.66406ZM14.9707 3.84766C8.93555 3.84766 4.08203-1.01562 4.08203-7.05078C4.08203-13.0957 8.92578-17.9492 14.9609-17.9492C21.0059-17.9492 25.8594-13.0957 25.8691-7.05078C25.8789-1.01562 21.0156 3.84766 14.9707 3.84766ZM10.0586-6.14258L14.0625-6.14258L14.0625-2.12891C14.0625-1.5918 14.4336-1.2207 14.9512-1.2207C15.4883-1.2207 15.8594-1.5918 15.8594-2.12891L15.8594-6.14258L19.8828-6.14258C20.4102-6.14258 20.791-6.51367 20.791-7.03125C20.791-7.56836 20.4199-7.94922 19.8828-7.94922L15.8594-7.94922L15.8594-11.9531C15.8594-12.5098 15.4883-12.8809 14.9512-12.8809C14.4336-12.8809 14.0625-12.5 14.0625-11.9531L14.0625-7.94922L10.0586-7.94922C9.50195-7.94922 9.13086-7.56836 9.13086-7.03125C9.13086-6.51367 9.51172-6.14258 10.0586-6.14258Z"/>
  </g>
  <text style="stroke:none;fill:black;font-family:-apple-system,&quot;SF Pro Display&quot;,&quot;SF Pro Text&quot;,Helvetica,sans-serif;font-weight:bold;" transform="matrix(1 0 0 1 263 1953)">Design Variations</text>
  <text style="stroke:none;fill:black;font-family:-apple-system,&quot;SF Pro Display&quot;,&quot;SF Pro Text&quot;,Helvetica,sans-serif;" transform="matrix(1 0 0 1 263 1971)">Symbols are supported in up to nine weights and three scales.</text>
  <text style="stroke:none;fill:black;font-family:-apple-system,&quot;SF Pro Display&quot;,&quot;SF Pro Text&quot;,Helvetica,sans-serif;" transform="matrix(1 0 0 1 263 1989)">For optimal layout with text and other symbols, vertically align</text>
  <text style="stroke:none;fill:black;font-family:-apple-system,&quot;SF Pro Display&quot;,&quot;SF Pro Text&quot;,Helvetica,sans-serif;" transform="matrix(1 0 0 1 263 2007)">symbols with the adjacent text.</text>
  <line id="" style="fill:none;stroke:#00AEEF;stroke-width:0.5;opacity:1.0;" x1="776" x2="776" y1="1919" y2="1933"/>
  <g id="" transform="matrix(1 0 0 1 776 1933)">
   <path d="M3.31055 0.126953C3.82812 0.126953 4.08203-0.0683594 4.26758-0.605469L5.52734-4.0625L11.2891-4.0625L12.5488-0.605469C12.7344-0.0683594 12.9883 0.126953 13.4961 0.126953C14.0137 0.126953 14.3457-0.185547 14.3457-0.673828C14.3457-0.839844 14.3164-0.986328 14.2383-1.20117L9.6582-13.3887C9.43359-13.9941 9.0332-14.2871 8.4082-14.2871C7.80273-14.2871 7.39258-13.9941 7.17773-13.3984L2.59766-1.19141C2.51953-0.976562 2.49023-0.830078 2.49023-0.664062C2.49023-0.175781 2.80273 0.126953 3.31055 0.126953ZM6.00586-5.53711L8.37891-12.1094L8.42773-12.1094L10.8008-5.53711Z"/>
  </g>
  <line id="" style="fill:none;stroke:#00AEEF;stroke-width:0.5;opacity:1.0;" x1="792.836" x2="792.836" y1="1919" y2="1933"/>
  <text style="stroke:none;fill:black;font-family:-apple-system,&quot;SF Pro Display&quot;,&quot;SF Pro Text&quot;,Helvetica,sans-serif;font-weight:bold;" transform="matrix(1 0 0 1 776 1953)">Margins</text>
  <text style="stroke:none;fill:black;font-family:-apple-system,&quot;SF Pro Display&quot;,&quot;SF Pro Text&quot;,Helvetica,sans-serif;" transform="matrix(1 0 0 1 776 1971)">Leading and trailing margins on the left and right side of each symbol</text>
  <text style="stroke:none;fill:black;font-family:-apple-system,&quot;SF Pro Display&quot;,&quot;SF Pro Text&quot;,Helvetica,sans-serif;" transform="matrix(1 0 0 1 776 1989)">can be adjusted by modifying the x-location of the margin guidelines.</text>
  <text style="stroke:none;fill:black;font-family:-apple-system,&quot;SF Pro Display&quot;,&quot;SF Pro Text&quot;,Helvetica,sans-serif;" transform="matrix(1 0 0 1 776 2007)">Modifications are automatically applied proportionally to all</text>
  <text style="stroke:none;fill:black;font-family:-apple-system,&quot;SF Pro Display&quot;,&quot;SF Pro Text&quot;,Helvetica,sans-serif;" transform="matrix(1 0 0 1 776 2025)">scales and weights.</text>
  <g id="" transform="matrix(1 0 0 1 1289 1933)">
   <path d="M2.8418 1.86523L4.54102 3.57422C5.40039 4.44336 6.38672 4.38477 7.31445 3.35938L17.4902-7.85156C17.7539-7.76367 18.0273-7.7832 18.3398-7.8418L19.4043-8.03711L20.0684-7.36328L20.0293-6.80664C19.9902-6.30859 20.1172-5.92773 20.6055-5.44922L21.3672-4.70703C21.8457-4.22852 22.4609-4.19922 22.9297-4.66797L25.8398-7.58789C26.3086-8.05664 26.2891-8.65234 25.8105-9.13086L25.0391-9.89258C24.5605-10.3711 24.1895-10.5273 23.7109-10.4883L23.1348-10.4395L22.4902-11.0742L22.7344-12.1973C22.8613-12.7637 22.7051-13.2031 22.1191-13.7891L19.9219-15.9766C16.582-19.2969 12.1484-19.2188 9.25781-16.3281C8.83789-15.918 8.80859-15.3418 9.04297-14.9512C9.27734-14.5898 9.73633-14.3555 10.3809-14.5215C11.8457-14.8633 13.3691-14.9219 14.7949-13.9844L14.209-12.5293C14.0137-12.0508 13.9844-11.6504 14.1113-11.2891L3.04688-0.898438C2.06055 0.0195312 1.98242 0.996094 2.8418 1.86523ZM10.752-15.957C13.1836-17.7344 16.4746-17.4316 18.7012-15.2051L21.1328-12.793C21.3672-12.5586 21.4062-12.373 21.3379-12.0312L21.0156-10.5469L22.5195-9.0625L23.5059-9.12109C23.7598-9.13086 23.8379-9.11133 24.0332-8.91602L24.6094-8.33984L22.168-5.89844L21.5918-6.47461C21.3965-6.66992 21.3672-6.74805 21.377-7.01172L21.4453-7.98828L19.9512-9.47266L18.4277-9.21875C18.1055-9.15039 17.959-9.17969 17.7148-9.41406L15.7129-11.416C15.459-11.6504 15.4297-11.8164 15.5859-12.1875L16.4648-14.2773C14.9023-15.7324 12.8711-16.3574 10.8398-15.7617C10.6836-15.7227 10.625-15.8496 10.752-15.957ZM5.27344 2.30469L4.10156 1.14258C3.63281 0.683594 3.74023 0.341797 4.14062-0.0195312L14.9512-10.1953L16.416-8.71094L6.42578 2.27539C6.07422 2.67578 5.74219 2.77344 5.27344 2.30469Z"/>
  </g>
  <text style="stroke:none;fill:black;font-family:-apple-system,&quot;SF Pro Display&quot;,&quot;SF Pro Text&quot;,Helvetica,sans-serif;font-weight:bold;" transform="matrix(1 0 0 1 1289 1953)">Exporting</text>
  <text style="stroke:none;fill:black;font-family:-apple-system,&quot;SF Pro Display&quot;,&quot;SF Pro Text&quot;,Helvetica,sans-serif;" transform="matrix(1 0 0 1 1289 1971)">Symbols should be outlined when exporting to ensure the</text>
  <text style="stroke:none;fill:black;font-family:-apple-system,&quot;SF Pro Display&quot;,&quot;SF Pro Text&quot;,Helvetica,sans-serif;" transform="matrix(1 0 0 1 1289 1989)">design is preserved when submitting to Xcode.</text>
  <text id="template-version" style="stroke:none;fill:black;font-family:-apple-system,&quot;SF Pro Display&quot;,&quot;SF Pro Text&quot;,Helvetica,sans-serif;text-anchor:end;" transform="matrix(1 0 0 1 3036 1933)">Template v.2.0</text>
  <text style="stroke:none;fill:black;font-family:-apple-system,&quot;SF Pro Display&quot;,&quot;SF Pro Text&quot;,Helvetica,sans-serif;text-anchor:end;" transform="matrix(1 0 0 1 3036 1951)">Requires Xcode 12 or greater</text>
  <text style="stroke:none;fill:black;font-family:-apple-system,&quot;SF Pro Display&quot;,&quot;SF Pro Text&quot;,Helvetica,sans-serif;" transform="matrix(1 0 0 1 263 726)">Small</text>
  <text style="stroke:none;fill:black;font-family:-apple-system,&quot;SF Pro Display&quot;,&quot;SF Pro Text&quot;,Helvetica,sans-serif;" transform="matrix(1 0 0 1 263 1156)">Medium</text>
  <text style="stroke:none;fill:black;font-family:-apple-system,&quot;SF Pro Display&quot;,&quot;SF Pro Text&quot;,Helvetica,sans-serif;" transform="matrix(1 0 0 1 263 1586)">Large</text>
 </g>
 <g id="Guides">
  <g id="H-reference" style="fill:#27AAE1;stroke:none;" transform="matrix(1 0 0 1 339 696)">
   <path d="M0.976562 0L3.66211 0L12.9883-24.4629L45.752-24.4629L55.127 0L57.7637 0L30.6152-70.459L28.125-70.459ZM29.3457-67.1387L29.4434-67.1387L44.873-26.709L13.8672-26.709Z"/>
  </g>
  <line id="Baseline-S" style="fill:none;stroke:#27AAE1;opacity:1;stroke-width:0.5;" x1="263" x2="3036" y1="696" y2="696"/>
  <line id="Capline-S" style="fill:none;stroke:#27AAE1;opacity:1;stroke-width:0.5;" x1="263" x2="3036" y1="625.541" y2="625.541"/>
  <g id="H-reference" style="fill:#27AAE1;stroke:none;" transform="matrix(1 0 0 1 339 1126)">
   <path d="M0.976562 0L3.66211 0L12.9883-24.4629L45.752-24.4629L55.127 0L57.7637 0L30.6152-70.459L28.125-70.459ZM29.3457-67.1387L29.4434-67.1387L44.873-26.709L13.8672-26.709Z"/>
  </g>
  <line id="Baseline-M" style="fill:none;stroke:#27AAE1;opacity:1;stroke-width:0.5;" x1="263" x2="3036" y1="1126" y2="1126"/>
  <line id="Capline-M" style="fill:none;stroke:#27AAE1;opacity:1;stroke-width:0.5;" x1="263" x2="3036" y1="1055.54" y2="1055.54"/>
  <g id="H-reference" style="fill:#27AAE1;stroke:none;" transform="matrix(1 0 0 1 339 1556)">
   <path d="M0.976562 0L3.66211 0L12.9883-24.4629L45.752-24.4629L55.127 0L57.7637 0L30.6152-70.459L28.125-70.459ZM29.3457-67.1387L29.4434-67.1387L44.873-26.709L13.8672-26.709Z"/>
  </g>
  <line id="Baseline-L" style="fill:none;stroke:#27AAE1;opacity:1;stroke-width:0.5;" x1="263" x2="3036" y1="1556" y2="1556"/>
  <line id="Capline-L" style="fill:none;stroke:#27AAE1;opacity:1;stroke-width:0.5;" x1="263" x2="3036" y1="1485.54" y2="1485.54"/>
  <line id="left-margin" x1="1415.9000195312499" x2="1415.9000195312499" y1="1030.79" y2="1150.12" style="fill:none;stroke:#00AEEF;stroke-width:0.5;opacity:1.0;"/>
  <line id="right-margin" x1="1486.3599804687499" x2="1486.3599804687499" y1="1030.79" y2="1150.12" style="fill:none;stroke:#00AEEF;stroke-width:0.5;opacity:1.0;"/>
 </g>
 <g id="Symbols">
  <g id="Black-L" transform="matrix(1.0,0.0,0.0,1.0,2889.2333251953123,1475.3233447265625)">  <path stroke-opacity="1" fill-opacity="1" stroke-linejoin="round" stroke-dasharray="none" fill-rule="nonzero" stroke-linecap="round" fill="#000000" stroke-miterlimit="4" stroke-width="2px" stroke="none" d="M37.077,11.362L37.077,56.808C37.077,61.431,40.824,65.178,45.447,65.178C50.069,65.178,53.816,61.431,53.816,56.808L53.816,11.362C53.816,6.739,50.069,2.992,45.447,2.992C40.824,2.992,37.077,6.739,37.077,11.362ZM39.528,5.443L24.379,20.592C21.111,23.861,21.111,29.16,24.379,32.429C27.648,35.697,32.948,35.697,36.216,32.429L51.365,17.28C54.634,14.011,54.634,8.712,51.365,5.443C48.096,2.175,42.797,2.175,39.528,5.443ZM39.528,17.28L54.677,32.429C57.946,35.697,63.245,35.697,66.514,32.429C69.782,29.16,69.782,23.861,66.514,20.592L51.365,5.443C48.096,2.175,42.797,2.175,39.528,5.443C36.26,8.712,36.26,14.011,39.528,17.28Z"/>
  <path stroke="none" stroke-dasharray="none" fill-opacity="1" stroke-miterlimit="4" stroke-width="2px" fill-rule="nonzero" stroke-opacity="1" fill="#000000" stroke-linejoin="round" stroke-linecap="round" d="M-0.546,66.412L1.806,75.823C3.58,82.921,9.957,87.9,17.272,87.901L73.62,87.901C80.937,87.9,87.313,82.921,89.087,75.824L91.439,66.412C92.56,61.927,89.833,57.383,85.348,56.263C80.864,55.142,76.32,57.869,75.199,62.354L72.847,71.765C72.936,71.41,73.254,71.162,73.619,71.162L17.274,71.162C17.64,71.162,17.958,71.41,18.046,71.764L15.695,62.354C14.574,57.869,10.03,55.142,5.545,56.263C1.061,57.383,-1.666,61.927,-0.546,66.412Z"/>
</g>
  <g id="Heavy-L" transform="matrix(1.0,0.0,0.0,1.0,2592.5233251953123,1475.3233447265625)">  <path stroke-miterlimit="4" stroke-linecap="round" fill-opacity="1" stroke-opacity="1" fill-rule="nonzero" stroke-linejoin="round" stroke-width="2px" stroke-dasharray="none" fill="#000000" stroke="none" d="M37.993,11.362L37.993,56.808C37.993,60.925,41.33,64.262,45.447,64.262C49.563,64.262,52.9,60.925,52.9,56.808L52.9,11.362C52.9,7.245,49.563,3.908,45.447,3.908C41.33,3.908,37.993,7.245,37.993,11.362ZM40.176,6.091L25.028,21.24C22.117,24.151,22.117,28.87,25.028,31.781C27.938,34.691,32.657,34.691,35.568,31.781L50.717,16.632C53.628,13.721,53.628,9.002,50.717,6.091C47.806,3.181,43.087,3.181,40.176,6.091ZM40.176,16.632L55.325,31.781C58.236,34.691,62.955,34.691,65.866,31.781C68.776,28.87,68.776,24.151,65.866,21.24L50.717,6.091C47.806,3.181,43.087,3.181,40.176,6.091C37.266,9.002,37.266,13.721,40.176,16.632Z"/>
  <path fill="#000000" stroke-width="2px" stroke-linecap="round" stroke-linejoin="round" stroke="none" fill-opacity="1" fill-rule="nonzero" stroke-opacity="1" stroke-dasharray="none" stroke-miterlimit="4" d="M0.344,66.19L2.695,75.601C4.368,82.291,10.377,86.984,17.272,86.985L73.62,86.985C80.516,86.984,86.526,82.291,88.198,75.601L90.55,66.19C91.548,62.196,89.119,58.15,85.126,57.152C81.132,56.154,77.086,58.582,76.088,62.576L73.736,71.987C73.723,72.041,73.674,72.078,73.619,72.078L17.274,72.078C17.219,72.078,17.171,72.041,17.157,71.987L14.805,62.576C13.807,58.582,9.761,56.154,5.767,57.152C1.774,58.15,-0.654,62.196,0.344,66.19Z"/>
</g>
  <g id="Bold-L" transform="matrix(1.0,0.0,0.0,1.0,2295.8133251953122,1475.3233447265625)">  <path fill-opacity="1" stroke-miterlimit="4" stroke-linejoin="round" stroke-dasharray="none" fill-rule="nonzero" stroke-linecap="round" stroke="none" stroke-width="2px" stroke-opacity="1" fill="#000000" d="M38.91,11.362L38.91,56.808C38.91,60.418,41.837,63.345,45.447,63.345C49.057,63.345,51.983,60.418,51.983,56.808L51.983,11.362C51.983,7.752,49.057,4.825,45.447,4.825C41.837,4.825,38.91,7.752,38.91,11.362ZM40.824,6.739L25.676,21.888C23.123,24.441,23.123,28.58,25.676,31.133C28.228,33.685,32.367,33.685,34.92,31.133L50.069,15.984C52.622,13.431,52.622,9.292,50.069,6.739C47.516,4.187,43.377,4.187,40.824,6.739ZM40.824,15.984L55.973,31.133C58.526,33.685,62.665,33.685,65.218,31.133C67.771,28.58,67.771,24.441,65.218,21.888L50.069,6.739C47.516,4.187,43.377,4.187,40.824,6.739C38.272,9.292,38.272,13.431,40.824,15.984Z"/>
  <path stroke-miterlimit="4" stroke-width="2px" stroke="none" fill="#000000" fill-rule="nonzero" stroke-dasharray="none" stroke-opacity="1" stroke-linejoin="round" stroke-linecap="round" fill-opacity="1" d="M1.233,65.968L3.585,75.379C5.155,81.661,10.798,86.067,17.273,86.068L73.62,86.068C80.095,86.067,85.739,81.661,87.309,75.379L89.661,65.968C90.536,62.465,88.406,58.916,84.904,58.041C81.401,57.166,77.852,59.296,76.977,62.798L74.625,72.209C74.51,72.671,74.095,72.995,73.619,72.995L17.274,72.995C16.798,72.995,16.383,72.671,16.268,72.209L13.916,62.798C13.041,59.296,9.492,57.166,5.99,58.041C2.487,58.916,0.357,62.465,1.233,65.968Z"/>
</g>
  <g id="Semibold-L" transform="matrix(1.0,0.0,0.0,1.0,1999.1033251953124,1475.3233447265625)">  <path stroke-linecap="round" fill="#000000" fill-opacity="1" fill-rule="nonzero" stroke-linejoin="round" stroke-opacity="1" stroke-miterlimit="4" stroke-width="2px" stroke-dasharray="none" stroke="none" d="M39.826,11.362L39.826,56.808C39.826,59.912,42.343,62.429,45.447,62.429C48.551,62.429,51.067,59.912,51.067,56.808L51.067,11.362C51.067,8.258,48.551,5.741,45.447,5.741C42.343,5.741,39.826,8.258,39.826,11.362ZM41.473,7.388L26.324,22.536C24.129,24.731,24.129,28.29,26.324,30.485C28.519,32.68,32.077,32.68,34.272,30.485L49.421,15.336C51.616,13.141,51.616,9.582,49.421,7.388C47.226,5.193,43.667,5.193,41.473,7.388ZM41.473,15.336L56.621,30.485C58.816,32.68,62.375,32.68,64.57,30.485C66.765,28.29,66.765,24.731,64.57,22.536L49.421,7.388C47.226,5.193,43.667,5.193,41.473,7.388C39.278,9.582,39.278,13.141,41.473,15.336Z"/>
  <path fill-opacity="1" fill="#000000" fill-rule="nonzero" stroke-miterlimit="4" stroke-linecap="round" stroke-opacity="1" stroke="none" stroke-linejoin="round" stroke-dasharray="none" stroke-width="2px" d="M2.122,65.745L4.474,75.157C5.942,81.03,11.219,85.151,17.273,85.152L73.62,85.152C79.675,85.151,84.951,81.03,86.42,75.157L88.771,65.745C89.524,62.734,87.693,59.683,84.681,58.93C81.67,58.178,78.619,60.009,77.866,63.02L75.514,72.431C75.297,73.301,74.516,73.911,73.619,73.911L17.274,73.911C16.378,73.911,15.596,73.301,15.379,72.431L13.027,63.02C12.274,60.009,9.223,58.178,6.212,58.93C3.2,59.683,1.369,62.734,2.122,65.745Z"/>
</g>
  <g id="Medium-L" transform="matrix(1.0,0.0,0.0,1.0,1702.3933251953124,1475.3233447265625)">  <path stroke-linejoin="round" stroke-dasharray="none" fill-rule="nonzero" stroke="none" stroke-opacity="1" fill="#000000" fill-opacity="1" stroke-miterlimit="4" stroke-linecap="round" stroke-width="2px" d="M40.743,11.362L40.743,56.808C40.743,59.406,42.849,61.512,45.447,61.512C48.044,61.512,50.15,59.406,50.15,56.808L50.15,11.362C50.15,8.764,48.044,6.658,45.447,6.658C42.849,6.658,40.743,8.764,40.743,11.362ZM42.121,8.036L26.972,23.185C25.135,25.021,25.135,28,26.972,29.837C28.809,31.674,31.787,31.674,33.624,29.837L48.773,14.688C50.61,12.851,50.61,9.873,48.773,8.036C46.936,6.199,43.958,6.199,42.121,8.036ZM42.121,14.688L57.27,29.837C59.106,31.674,62.085,31.674,63.922,29.837C65.759,28,65.759,25.021,63.922,23.185L48.773,8.036C46.936,6.199,43.958,6.199,42.121,8.036C40.284,9.873,40.284,12.851,42.121,14.688Z"/>
  <path fill-rule="nonzero" stroke-width="2px" stroke-dasharray="none" stroke="none" fill-opacity="1" fill="#000000" stroke-linecap="round" stroke-linejoin="round" stroke-miterlimit="4" stroke-opacity="1" d="M3.011,65.523L5.363,74.934C6.729,80.4,11.639,84.235,17.273,84.235L73.62,84.235C79.254,84.235,84.164,80.4,85.53,74.935L87.882,65.523C88.512,63.003,86.98,60.449,84.459,59.819C81.939,59.19,79.385,60.722,78.756,63.242L76.404,72.654C76.084,73.931,74.936,74.828,73.619,74.828L17.274,74.828C15.957,74.828,14.809,73.931,14.49,72.653L12.138,63.242C11.508,60.722,8.954,59.19,6.434,59.819C3.914,60.449,2.381,63.003,3.011,65.523Z"/>
</g>
  <g id="Regular-L" transform="matrix(1.0,0.0,0.0,1.0,1405.6833251953124,1475.3233447265625)">  <path fill-opacity="1" stroke-miterlimit="4" fill-rule="nonzero" stroke-width="2px" stroke-linecap="round" stroke-opacity="1" stroke-linejoin="round" stroke="none" stroke-dasharray="none" fill="#000000" d="M41.659,11.362L41.659,56.808C41.659,58.9,43.355,60.596,45.447,60.596C47.538,60.596,49.234,58.9,49.234,56.808L49.234,11.362C49.234,9.27,47.538,7.574,45.447,7.574C43.355,7.574,41.659,9.27,41.659,11.362ZM42.769,8.684L27.62,23.833C26.141,25.312,26.141,27.71,27.62,29.189C29.099,30.668,31.497,30.668,32.976,29.189L48.125,14.04C49.604,12.561,49.604,10.163,48.125,8.684C46.646,7.205,44.248,7.205,42.769,8.684ZM42.769,14.04L57.918,29.189C59.397,30.668,61.795,30.668,63.274,29.189C64.753,27.71,64.753,25.312,63.274,23.833L48.125,8.684C46.646,7.205,44.248,7.205,42.769,8.684C41.29,10.163,41.29,12.561,42.769,14.04Z"/>
  <path stroke-miterlimit="4" stroke-width="2px" fill-opacity="1" stroke-opacity="1" fill-rule="nonzero" stroke="none" stroke-linecap="round" stroke-linejoin="round" stroke-dasharray="none" fill="#000000" d="M3.9,65.301L6.252,74.712C7.516,79.77,12.06,83.318,17.273,83.319L73.62,83.319C78.833,83.318,83.377,79.77,84.641,74.712L86.993,65.301C87.5,63.272,86.266,61.216,84.237,60.709C82.208,60.201,80.152,61.435,79.645,63.465L77.293,72.876C76.871,74.561,75.357,75.744,73.619,75.744L17.274,75.744C15.536,75.744,14.022,74.561,13.6,72.876L11.249,63.465C10.742,61.435,8.685,60.201,6.656,60.709C4.627,61.216,3.393,63.272,3.9,65.301Z"/>
</g>
  <g id="Light-L" transform="matrix(1.0,0.0,0.0,1.0,1108.9733251953126,1475.3233447265625)">  <path stroke-linecap="round" stroke="none" stroke-dasharray="none" fill-opacity="1" fill="#000000" stroke-width="2px" fill-rule="nonzero" stroke-linejoin="round" stroke-opacity="1" stroke-miterlimit="4" d="M42.291,11.362L42.291,56.808C42.291,58.551,43.704,59.964,45.447,59.964C47.19,59.964,48.603,58.551,48.603,56.808L48.603,11.362C48.603,9.619,47.19,8.206,45.447,8.206C43.704,8.206,42.291,9.619,42.291,11.362ZM43.215,9.13L28.066,24.279C26.834,25.511,26.834,27.51,28.066,28.742C29.299,29.975,31.297,29.975,32.529,28.742L47.678,13.593C48.911,12.361,48.911,10.363,47.678,9.13C46.446,7.898,44.448,7.898,43.215,9.13ZM43.215,13.593L58.364,28.742C59.596,29.975,61.595,29.975,62.827,28.742C64.06,27.51,64.06,25.511,62.827,24.279L47.678,9.13C46.446,7.898,44.448,7.898,43.215,9.13C41.983,10.363,41.983,12.361,43.215,13.593Z"/>
  <path stroke-linejoin="round" fill-rule="nonzero" fill-opacity="1" stroke-width="2px" stroke-opacity="1" stroke-dasharray="none" stroke="none" fill="#000000" stroke-linecap="round" stroke-miterlimit="4" d="M4.513,65.148L6.864,74.559C8.058,79.336,12.35,82.687,17.273,82.688L73.62,82.688C78.544,82.687,82.835,79.336,84.029,74.559L86.381,65.148C86.803,63.457,85.775,61.744,84.084,61.321C82.393,60.898,80.68,61.927,80.257,63.618L77.905,73.029C77.414,74.995,75.647,76.375,73.619,76.376L17.274,76.376C15.247,76.375,13.48,74.995,12.988,73.029L10.636,63.618C10.214,61.927,8.5,60.898,6.809,61.321C5.118,61.744,4.09,63.457,4.513,65.148Z"/>
</g>
  <g id="Thin-L" transform="matrix(1.0,0.0,0.0,1.0,812.2633251953125,1475.3233447265625)">  <path stroke-opacity="1" stroke-linejoin="round" fill-rule="nonzero" stroke-miterlimit="4" stroke="none" stroke-width="2px" fill="#000000" stroke-dasharray="none" stroke-linecap="round" fill-opacity="1" d="M42.922,11.362L42.922,56.808C42.922,58.203,44.052,59.333,45.447,59.333C46.841,59.333,47.971,58.203,47.971,56.808L47.971,11.362C47.971,9.967,46.841,8.837,45.447,8.837C44.052,8.837,42.922,9.967,42.922,11.362ZM43.661,9.576L28.512,24.725C27.526,25.711,27.526,27.31,28.512,28.296C29.498,29.282,31.097,29.282,32.083,28.296L47.232,13.147C48.218,12.161,48.218,10.562,47.232,9.576C46.246,8.59,44.647,8.59,43.661,9.576ZM43.661,13.147L58.81,28.296C59.796,29.282,61.395,29.282,62.381,28.296C63.367,27.31,63.367,25.711,62.381,24.725L47.232,9.576C46.246,8.59,44.647,8.59,43.661,9.576C42.675,10.562,42.675,12.161,43.661,13.147Z"/>
  <path stroke-linejoin="round" fill="#000000" stroke-linecap="round" stroke-miterlimit="4" stroke-dasharray="none" fill-opacity="1" stroke="none" stroke-opacity="1" fill-rule="nonzero" stroke-width="2px" d="M5.125,64.995L7.477,74.406C8.601,78.902,12.639,82.056,17.273,82.056L73.62,82.056C78.254,82.056,82.293,78.902,83.416,74.406L85.768,64.995C86.106,63.642,85.284,62.271,83.931,61.933C82.578,61.595,81.207,62.418,80.869,63.771L78.518,73.182C77.956,75.43,75.936,77.007,73.619,77.007L17.274,77.007C14.957,77.007,12.938,75.43,12.376,73.182L10.024,63.771C9.686,62.418,8.315,61.595,6.962,61.933C5.61,62.271,4.787,63.642,5.125,64.995Z"/>
</g>
  <g id="Ultralight-L" transform="matrix(1.0,0.0,0.0,1.0,515.5533251953125,1475.3233447265625)">  <path fill-opacity="1" stroke-miterlimit="4" stroke-dasharray="none" stroke-width="2px" stroke-linecap="round" fill-rule="nonzero" stroke-opacity="1" fill="#000000" stroke-linejoin="round" stroke="none" d="M43.553,11.362L43.553,56.808C43.553,57.854,44.401,58.702,45.447,58.702C46.492,58.702,47.34,57.854,47.34,56.808L47.34,11.362C47.34,10.316,46.492,9.468,45.447,9.468C44.401,9.468,43.553,10.316,43.553,11.362ZM44.108,10.023L28.959,25.172C28.219,25.911,28.219,27.11,28.959,27.85C29.698,28.589,30.897,28.589,31.637,27.85L46.786,12.701C47.525,11.961,47.525,10.762,46.786,10.023C46.046,9.283,44.847,9.283,44.108,10.023ZM44.108,12.701L59.257,27.85C59.996,28.589,61.195,28.589,61.935,27.85C62.674,27.11,62.674,25.911,61.935,25.172L46.786,10.023C46.046,9.283,44.847,9.283,44.108,10.023C43.368,10.762,43.368,11.961,44.108,12.701Z"/>
  <path stroke-width="2px" stroke-opacity="1" fill-opacity="1" stroke-linejoin="round" stroke-linecap="round" stroke-dasharray="none" fill="#000000" fill-rule="nonzero" stroke-miterlimit="4" stroke="none" d="M5.737,64.842L8.089,74.253C9.143,78.468,12.929,81.425,17.273,81.425L73.62,81.425C77.964,81.425,81.751,78.468,82.804,74.253L85.156,64.842C85.41,63.827,84.793,62.799,83.778,62.546C82.763,62.292,81.735,62.909,81.482,63.924L79.13,73.335C78.498,75.864,76.226,77.638,73.62,77.638L17.274,77.638C14.667,77.638,12.395,75.864,11.763,73.335L9.412,63.924C9.158,62.909,8.13,62.292,7.115,62.546C6.101,62.799,5.484,63.827,5.737,64.842Z"/>
</g>
  <g id="Black-M" transform="matrix(1.0,0.0,0.0,1.0,2899.45001953125,1055.5400390625)">  <path stroke-opacity="1" fill-opacity="1" stroke-linejoin="round" stroke-dasharray="none" fill-rule="nonzero" stroke-linecap="round" fill="#000000" stroke-miterlimit="4" stroke-width="2px" stroke="none" d="M28.742,8.807L28.742,44.037C28.742,47.621,31.647,50.526,35.23,50.526C38.813,50.526,41.718,47.621,41.718,44.037L41.718,8.807C41.718,5.224,38.813,2.319,35.23,2.319C31.647,2.319,28.742,5.224,28.742,8.807ZM30.642,4.22L18.899,15.963C16.365,18.497,16.365,22.605,18.899,25.139C21.433,27.672,25.541,27.672,28.074,25.139L39.818,13.395C42.352,10.862,42.352,6.753,39.818,4.22C37.284,1.686,33.176,1.686,30.642,4.22ZM30.642,13.395L42.385,25.139C44.919,27.672,49.027,27.672,51.561,25.139C54.095,22.605,54.095,18.497,51.561,15.963L39.818,4.22C37.284,1.686,33.176,1.686,30.642,4.22C28.108,6.753,28.108,10.862,30.642,13.395Z"/>
  <path stroke="none" stroke-dasharray="none" fill-opacity="1" stroke-miterlimit="4" stroke-width="2px" fill-rule="nonzero" stroke-opacity="1" fill="#000000" stroke-linejoin="round" stroke-linecap="round" d="M-0.423,51.482L1.4,58.778C2.776,64.28,7.718,68.14,13.389,68.141L57.07,68.141C62.742,68.14,67.684,64.28,69.06,58.778L70.883,51.482C71.752,48.006,69.638,44.483,66.161,43.615C62.685,42.746,59.162,44.86,58.294,48.336L56.471,55.632C56.539,55.357,56.786,55.164,57.069,55.164L13.39,55.164C13.674,55.164,13.921,55.357,13.989,55.631L12.166,48.336C11.298,44.86,7.775,42.746,4.299,43.615C0.822,44.483,-1.292,48.006,-0.423,51.482Z"/>
</g>
  <g id="Heavy-M" transform="matrix(1.0,0.0,0.0,1.0,2602.74001953125,1055.5400390625)">  <path stroke-miterlimit="4" stroke-linecap="round" fill-opacity="1" stroke-opacity="1" fill-rule="nonzero" stroke-linejoin="round" stroke-width="2px" stroke-dasharray="none" fill="#000000" stroke="none" d="M29.452,8.807L29.452,44.037C29.452,47.228,32.039,49.815,35.23,49.815C38.421,49.815,41.008,47.228,41.008,44.037L41.008,8.807C41.008,5.617,38.421,3.03,35.23,3.03C32.039,3.03,29.452,5.617,29.452,8.807ZM31.145,4.722L19.401,16.465C17.145,18.722,17.145,22.38,19.401,24.636C21.658,26.893,25.316,26.893,27.572,24.636L39.315,12.893C41.572,10.637,41.572,6.978,39.315,4.722C37.059,2.466,33.401,2.466,31.145,4.722ZM31.145,12.893L42.888,24.636C45.144,26.893,48.802,26.893,51.059,24.636C53.315,22.38,53.315,18.722,51.059,16.465L39.315,4.722C37.059,2.466,33.401,2.466,31.145,4.722C28.888,6.978,28.888,10.637,31.145,12.893Z"/>
  <path fill="#000000" stroke-width="2px" stroke-linecap="round" stroke-linejoin="round" stroke="none" fill-opacity="1" fill-rule="nonzero" stroke-opacity="1" stroke-dasharray="none" stroke-miterlimit="4" d="M0.266,51.31L2.089,58.605C3.386,63.791,8.044,67.429,13.389,67.43L57.07,67.43C62.416,67.429,67.074,63.791,68.37,58.606L70.194,51.31C70.967,48.214,69.085,45.077,65.989,44.304C62.893,43.53,59.757,45.413,58.983,48.508L57.16,55.804C57.149,55.845,57.112,55.875,57.069,55.875L13.39,55.875C13.348,55.875,13.311,55.845,13.3,55.804L11.477,48.508C10.703,45.413,7.567,43.53,4.471,44.304C1.375,45.077,-0.507,48.214,0.266,51.31Z"/>
</g>
  <g id="Bold-M" transform="matrix(1.0,0.0,0.0,1.0,2306.0300195312498,1055.5400390625)">  <path fill-opacity="1" stroke-miterlimit="4" stroke-linejoin="round" stroke-dasharray="none" fill-rule="nonzero" stroke-linecap="round" stroke="none" stroke-width="2px" stroke-opacity="1" fill="#000000" d="M30.163,8.807L30.163,44.037C30.163,46.836,32.431,49.105,35.23,49.105C38.029,49.105,40.297,46.836,40.297,44.037L40.297,8.807C40.297,6.009,38.029,3.74,35.23,3.74C32.431,3.74,30.163,6.009,30.163,8.807ZM31.647,5.224L19.904,16.968C17.925,18.947,17.925,22.155,19.904,24.134C21.882,26.113,25.091,26.113,27.07,24.134L38.813,12.391C40.792,10.412,40.792,7.203,38.813,5.224C36.834,3.246,33.626,3.246,31.647,5.224ZM31.647,12.391L43.39,24.134C45.369,26.113,48.578,26.113,50.556,24.134C52.535,22.155,52.535,18.947,50.556,16.968L38.813,5.224C36.834,3.246,33.626,3.246,31.647,5.224C29.668,7.203,29.668,10.412,31.647,12.391Z"/>
  <path stroke-miterlimit="4" stroke-width="2px" stroke="none" fill="#000000" fill-rule="nonzero" stroke-dasharray="none" stroke-opacity="1" stroke-linejoin="round" stroke-linecap="round" fill-opacity="1" d="M0.956,51.138L2.779,58.433C3.996,63.303,8.371,66.719,13.39,66.72L57.07,66.72C62.089,66.719,66.464,63.303,67.681,58.433L69.504,51.138C70.183,48.423,68.532,45.672,65.817,44.993C63.102,44.315,60.351,45.966,59.672,48.681L57.849,55.976C57.76,56.334,57.438,56.585,57.069,56.585L13.39,56.585C13.022,56.585,12.7,56.334,12.611,55.976L10.788,48.681C10.109,45.966,7.358,44.315,4.643,44.993C1.928,45.672,0.277,48.423,0.956,51.138Z"/>
</g>
  <g id="Semibold-M" transform="matrix(1.0,0.0,0.0,1.0,2009.32001953125,1055.5400390625)">  <path stroke-linecap="round" fill="#000000" fill-opacity="1" fill-rule="nonzero" stroke-linejoin="round" stroke-opacity="1" stroke-miterlimit="4" stroke-width="2px" stroke-dasharray="none" stroke="none" d="M30.873,8.807L30.873,44.037C30.873,46.444,32.824,48.394,35.23,48.394C37.636,48.394,39.587,46.444,39.587,44.037L39.587,8.807C39.587,6.401,37.636,4.451,35.23,4.451C32.824,4.451,30.873,6.401,30.873,8.807ZM32.149,5.727L20.406,17.47C18.705,19.172,18.705,21.93,20.406,23.632C22.107,25.333,24.866,25.333,26.567,23.632L38.311,11.888C40.012,10.187,40.012,7.428,38.311,5.727C36.609,4.025,33.851,4.025,32.149,5.727ZM32.149,11.888L43.893,23.632C45.594,25.333,48.353,25.333,50.054,23.632C51.755,21.93,51.755,19.172,50.054,17.47L38.311,5.727C36.609,4.025,33.851,4.025,32.149,5.727C30.448,7.428,30.448,10.187,32.149,11.888Z"/>
  <path fill-opacity="1" fill="#000000" fill-rule="nonzero" stroke-miterlimit="4" stroke-linecap="round" stroke-opacity="1" stroke="none" stroke-linejoin="round" stroke-dasharray="none" stroke-width="2px" d="M1.645,50.965L3.468,58.261C4.606,62.814,8.697,66.009,13.39,66.009L57.07,66.009C61.763,66.009,65.854,62.814,66.992,58.261L68.815,50.965C69.398,48.631,67.979,46.266,65.645,45.682C63.31,45.099,60.945,46.518,60.362,48.853L58.538,56.148C58.37,56.822,57.764,57.296,57.069,57.296L13.39,57.296C12.696,57.296,12.09,56.822,11.922,56.148L10.098,48.853C9.515,46.518,7.15,45.099,4.815,45.682C2.481,46.266,1.062,48.631,1.645,50.965Z"/>
</g>
  <g id="Medium-M" transform="matrix(1.0,0.0,0.0,1.0,1712.61001953125,1055.5400390625)">  <path stroke-linejoin="round" stroke-dasharray="none" fill-rule="nonzero" stroke="none" stroke-opacity="1" fill="#000000" fill-opacity="1" stroke-miterlimit="4" stroke-linecap="round" stroke-width="2px" d="M31.584,8.807L31.584,44.037C31.584,46.051,33.216,47.684,35.23,47.684C37.244,47.684,38.876,46.051,38.876,44.037L38.876,8.807C38.876,6.794,37.244,5.161,35.23,5.161C33.216,5.161,31.584,6.794,31.584,8.807ZM32.652,6.229L20.908,17.972C19.484,19.396,19.484,21.705,20.908,23.129C22.332,24.553,24.641,24.553,26.065,23.129L37.808,11.386C39.232,9.962,39.232,7.653,37.808,6.229C36.384,4.805,34.076,4.805,32.652,6.229ZM32.652,11.386L44.395,23.129C45.819,24.553,48.128,24.553,49.552,23.129C50.976,21.705,50.976,19.396,49.552,17.972L37.808,6.229C36.384,4.805,34.076,4.805,32.652,6.229C31.228,7.653,31.228,9.962,32.652,11.386Z"/>
  <path fill-rule="nonzero" stroke-width="2px" stroke-dasharray="none" stroke="none" fill-opacity="1" fill="#000000" stroke-linecap="round" stroke-linejoin="round" stroke-miterlimit="4" stroke-opacity="1" d="M2.334,50.793L4.157,58.089C5.216,62.326,9.023,65.298,13.39,65.299L57.07,65.299C61.437,65.298,65.244,62.326,66.303,58.089L68.126,50.793C68.614,48.839,67.426,46.86,65.472,46.372C63.519,45.883,61.539,47.071,61.051,49.025L59.228,56.321C58.98,57.311,58.09,58.006,57.069,58.006L13.39,58.006C12.37,58.006,11.48,57.311,11.232,56.32L9.409,49.025C8.921,47.071,6.941,45.883,4.988,46.372C3.034,46.86,1.846,48.839,2.334,50.793Z"/>
</g>
  <g id="Regular-M" transform="matrix(1.0,0.0,0.0,1.0,1415.9000195312499,1055.5400390625)">  <path fill-opacity="1" stroke-miterlimit="4" fill-rule="nonzero" stroke-width="2px" stroke-linecap="round" stroke-opacity="1" stroke-linejoin="round" stroke="none" stroke-dasharray="none" fill="#000000" d="M32.294,8.807L32.294,44.037C32.294,45.659,33.609,46.973,35.23,46.973C36.851,46.973,38.166,45.659,38.166,44.037L38.166,8.807C38.166,7.186,36.851,5.872,35.23,5.872C33.609,5.872,32.294,7.186,32.294,8.807ZM33.154,6.732L21.411,18.475C20.264,19.621,20.264,21.48,21.411,22.627C22.557,23.773,24.416,23.773,25.563,22.627L37.306,10.883C38.452,9.737,38.452,7.878,37.306,6.732C36.159,5.585,34.301,5.585,33.154,6.732ZM33.154,10.883L44.897,22.627C46.044,23.773,47.903,23.773,49.049,22.627C50.196,21.48,50.196,19.621,49.049,18.475L37.306,6.732C36.159,5.585,34.301,5.585,33.154,6.732C32.008,7.878,32.008,9.737,33.154,10.883Z"/>
  <path stroke-miterlimit="4" stroke-width="2px" fill-opacity="1" stroke-opacity="1" fill-rule="nonzero" stroke="none" stroke-linecap="round" stroke-linejoin="round" stroke-dasharray="none" fill="#000000" d="M3.023,50.621L4.847,57.916C5.827,61.837,9.349,64.588,13.39,64.588L57.07,64.588C61.111,64.588,64.633,61.837,65.613,57.917L67.437,50.621C67.83,49.048,66.873,47.454,65.3,47.061C63.727,46.668,62.133,47.624,61.74,49.197L59.917,56.493C59.59,57.8,58.416,58.716,57.069,58.717L13.39,58.717C12.044,58.716,10.87,57.8,10.543,56.493L8.72,49.197C8.327,47.624,6.733,46.668,5.16,47.061C3.587,47.454,2.63,49.048,3.023,50.621Z"/>
</g>
  <g id="Light-M" transform="matrix(1.0,0.0,0.0,1.0,1119.19001953125,1055.5400390625)">  <path stroke-linecap="round" stroke="none" stroke-dasharray="none" fill-opacity="1" fill="#000000" stroke-width="2px" fill-rule="nonzero" stroke-linejoin="round" stroke-opacity="1" stroke-miterlimit="4" d="M32.783,8.807L32.783,44.037C32.783,45.389,33.879,46.484,35.23,46.484C36.581,46.484,37.677,45.389,37.677,44.037L37.677,8.807C37.677,7.456,36.581,6.361,35.23,6.361C33.879,6.361,32.783,7.456,32.783,8.807ZM33.5,7.078L21.757,18.821C20.801,19.776,20.801,21.325,21.757,22.281C22.712,23.236,24.261,23.236,25.217,22.281L36.96,10.537C37.915,9.582,37.915,8.033,36.96,7.078C36.005,6.122,34.455,6.122,33.5,7.078ZM33.5,10.537L45.243,22.281C46.199,23.236,47.748,23.236,48.703,22.281C49.659,21.325,49.659,19.776,48.703,18.821L36.96,7.078C36.005,6.122,34.455,6.122,33.5,7.078C32.545,8.033,32.545,9.582,33.5,10.537Z"/>
  <path stroke-linejoin="round" fill-rule="nonzero" fill-opacity="1" stroke-width="2px" stroke-opacity="1" stroke-dasharray="none" stroke="none" fill="#000000" stroke-linecap="round" stroke-miterlimit="4" d="M3.498,50.502L5.321,57.798C6.247,61.501,9.573,64.098,13.39,64.099L57.07,64.099C60.887,64.098,64.213,61.501,65.139,57.798L66.962,50.502C67.289,49.191,66.492,47.863,65.181,47.536C63.871,47.208,62.542,48.005,62.215,49.316L60.392,56.612C60.011,58.136,58.641,59.206,57.069,59.206L13.39,59.206C11.819,59.206,10.449,58.136,10.068,56.611L8.245,49.316C7.918,48.005,6.589,47.208,5.279,47.536C3.968,47.863,3.171,49.191,3.498,50.502Z"/>
</g>
  <g id="Thin-M" transform="matrix(1.0,0.0,0.0,1.0,822.48001953125,1055.5400390625)">  <path stroke-opacity="1" stroke-linejoin="round" fill-rule="nonzero" stroke-miterlimit="4" stroke="none" stroke-width="2px" fill="#000000" stroke-dasharray="none" stroke-linecap="round" fill-opacity="1" d="M33.273,8.807L33.273,44.037C33.273,45.118,34.149,45.995,35.23,45.995C36.311,45.995,37.187,45.118,37.187,44.037L37.187,8.807C37.187,7.727,36.311,6.85,35.23,6.85C34.149,6.85,33.273,7.727,33.273,8.807ZM33.846,7.424L22.103,19.167C21.338,19.931,21.338,21.17,22.103,21.935C22.867,22.699,24.106,22.699,24.871,21.935L36.614,10.191C37.378,9.427,37.378,8.188,36.614,7.424C35.85,6.659,34.61,6.659,33.846,7.424ZM33.846,10.191L45.589,21.935C46.354,22.699,47.593,22.699,48.357,21.935C49.122,21.17,49.122,19.931,48.357,19.167L36.614,7.424C35.85,6.659,34.61,6.659,33.846,7.424C33.082,8.188,33.082,9.427,33.846,10.191Z"/>
  <path stroke-linejoin="round" fill="#000000" stroke-linecap="round" stroke-miterlimit="4" stroke-dasharray="none" fill-opacity="1" stroke="none" stroke-opacity="1" fill-rule="nonzero" stroke-width="2px" d="M3.973,50.384L5.796,57.679C6.667,61.164,9.798,63.609,13.39,63.61L57.07,63.61C60.662,63.609,63.793,61.164,64.664,57.679L66.487,50.384C66.749,49.335,66.112,48.272,65.063,48.01C64.014,47.748,62.952,48.386,62.689,49.435L60.866,56.73C60.431,58.472,58.865,59.695,57.069,59.695L13.39,59.695C11.595,59.695,10.029,58.472,9.594,56.73L7.77,49.435C7.508,48.386,6.446,47.748,5.397,48.01C4.348,48.272,3.711,49.335,3.973,50.384Z"/>
</g>
  <g id="Ultralight-M" transform="matrix(1.0,0.0,0.0,1.0,525.77001953125,1055.5400390625)">  <path fill-opacity="1" stroke-miterlimit="4" stroke-dasharray="none" stroke-width="2px" stroke-linecap="round" fill-rule="nonzero" stroke-opacity="1" fill="#000000" stroke-linejoin="round" stroke="none" d="M33.762,8.807L33.762,44.037C33.762,44.848,34.419,45.505,35.23,45.505C36.041,45.505,36.698,44.848,36.698,44.037L36.698,8.807C36.698,7.997,36.041,7.34,35.23,7.34C34.419,7.34,33.762,7.997,33.762,8.807ZM34.192,7.77L22.449,19.513C21.875,20.086,21.875,21.016,22.449,21.589C23.022,22.162,23.951,22.162,24.525,21.589L36.268,9.845C36.841,9.272,36.841,8.343,36.268,7.77C35.695,7.196,34.765,7.196,34.192,7.77ZM34.192,9.845L45.935,21.589C46.509,22.162,47.438,22.162,48.011,21.589C48.585,21.016,48.585,20.086,48.011,19.513L36.268,7.77C35.695,7.196,34.765,7.196,34.192,7.77C33.619,8.343,33.619,9.272,34.192,9.845Z"/>
  <path stroke-width="2px" stroke-opacity="1" fill-opacity="1" stroke-linejoin="round" stroke-linecap="round" stroke-dasharray="none" fill="#000000" fill-rule="nonzero" stroke-miterlimit="4" stroke="none" d="M4.448,50.265L6.271,57.561C7.087,60.828,10.023,63.12,13.39,63.12L57.07,63.12C60.437,63.12,63.373,60.828,64.189,57.561L66.012,50.265C66.209,49.479,65.731,48.682,64.944,48.485C64.158,48.288,63.361,48.767,63.164,49.553L61.341,56.849C60.851,58.809,59.09,60.184,57.069,60.185L13.39,60.185C11.37,60.184,9.609,58.809,9.119,56.849L7.296,49.553C7.099,48.767,6.302,48.288,5.516,48.485C4.729,48.682,4.251,49.479,4.448,50.265Z"/>
</g>
  <g id="Black-S" transform="matrix(1.0,0.0,0.0,1.0,2907.0949252929686,633.1849448242187)">  <path stroke-opacity="1" fill-opacity="1" stroke-linejoin="round" stroke-dasharray="none" fill-rule="nonzero" stroke-linecap="round" fill="#000000" stroke-miterlimit="4" stroke-width="2px" stroke="none" d="M22.505,6.896L22.505,34.481C22.505,37.287,24.779,39.562,27.585,39.562C30.391,39.562,32.665,37.287,32.665,34.481L32.665,6.896C32.665,4.091,30.391,1.816,27.585,1.816C24.779,1.816,22.505,4.091,22.505,6.896ZM23.993,3.304L14.798,12.499C12.814,14.483,12.814,17.7,14.798,19.684C16.782,21.668,19.998,21.668,21.982,19.684L31.177,10.489C33.161,8.505,33.161,5.288,31.177,3.304C29.193,1.32,25.977,1.32,23.993,3.304ZM23.993,10.489L33.188,19.684C35.172,21.668,38.388,21.668,40.372,19.684C42.356,17.7,42.356,14.483,40.372,12.499L31.177,3.304C29.193,1.32,25.977,1.32,23.993,3.304C22.009,5.288,22.009,8.505,23.993,10.489Z"/>
  <path stroke="none" stroke-dasharray="none" fill-opacity="1" stroke-miterlimit="4" stroke-width="2px" fill-rule="nonzero" stroke-opacity="1" fill="#000000" stroke-linejoin="round" stroke-linecap="round" d="M-0.331,40.311L1.096,46.023C2.173,50.331,6.043,53.353,10.484,53.354L44.686,53.354C49.127,53.353,52.997,50.331,54.074,46.023L55.501,40.311C56.182,37.588,54.526,34.83,51.804,34.15C49.082,33.47,46.324,35.125,45.644,37.847L44.216,43.56C44.27,43.344,44.463,43.194,44.685,43.194L10.485,43.194C10.707,43.194,10.9,43.344,10.954,43.559L9.526,37.847C8.846,35.125,6.088,33.47,3.366,34.15C0.644,34.83,-1.011,37.588,-0.331,40.311Z"/>
</g>
  <g id="Heavy-S" transform="matrix(1.0,0.0,0.0,1.0,2610.3849252929685,633.1849448242187)">  <path stroke-miterlimit="4" stroke-linecap="round" fill-opacity="1" stroke-opacity="1" fill-rule="nonzero" stroke-linejoin="round" stroke-width="2px" stroke-dasharray="none" fill="#000000" stroke="none" d="M23.061,6.896L23.061,34.481C23.061,36.98,25.087,39.005,27.585,39.005C30.084,39.005,32.109,36.98,32.109,34.481L32.109,6.896C32.109,4.398,30.084,2.372,27.585,2.372C25.087,2.372,23.061,4.398,23.061,6.896ZM24.386,3.697L15.191,12.892C13.424,14.659,13.424,17.523,15.191,19.29C16.958,21.057,19.822,21.057,21.589,19.29L30.784,10.095C32.551,8.328,32.551,5.464,30.784,3.697C29.017,1.931,26.153,1.931,24.386,3.697ZM24.386,10.095L33.581,19.29C35.348,21.057,38.212,21.057,39.979,19.29C41.746,17.523,41.746,14.659,39.979,12.892L30.784,3.697C29.017,1.931,26.153,1.931,24.386,3.697C22.619,5.464,22.619,8.328,24.386,10.095Z"/>
  <path fill="#000000" stroke-width="2px" stroke-linecap="round" stroke-linejoin="round" stroke="none" fill-opacity="1" fill-rule="nonzero" stroke-opacity="1" stroke-dasharray="none" stroke-miterlimit="4" d="M0.209,40.176L1.636,45.888C2.651,49.949,6.299,52.797,10.484,52.798L44.686,52.798C48.871,52.797,52.519,49.949,53.534,45.888L54.962,40.176C55.567,37.752,54.093,35.296,51.669,34.69C49.245,34.084,46.789,35.558,46.184,37.982L44.756,43.694C44.748,43.727,44.719,43.75,44.685,43.75L10.485,43.75C10.452,43.75,10.422,43.727,10.414,43.694L8.986,37.982C8.381,35.558,5.925,34.084,3.501,34.69C1.077,35.296,-0.397,37.752,0.209,40.176Z"/>
</g>
  <g id="Bold-S" transform="matrix(1.0,0.0,0.0,1.0,2313.6749252929685,633.1849448242187)">  <path fill-opacity="1" stroke-miterlimit="4" stroke-linejoin="round" stroke-dasharray="none" fill-rule="nonzero" stroke-linecap="round" stroke="none" stroke-width="2px" stroke-opacity="1" fill="#000000" d="M23.617,6.896L23.617,34.481C23.617,36.673,25.394,38.449,27.585,38.449C29.776,38.449,31.553,36.673,31.553,34.481L31.553,6.896C31.553,4.705,29.776,2.929,27.585,2.929C25.394,2.929,23.617,4.705,23.617,6.896ZM24.78,4.091L15.584,13.286C14.035,14.835,14.035,17.347,15.584,18.897C17.134,20.446,19.646,20.446,21.196,18.897L30.391,9.702C31.94,8.152,31.94,5.64,30.391,4.091C28.841,2.541,26.329,2.541,24.78,4.091ZM24.78,9.702L33.975,18.897C35.524,20.446,38.036,20.446,39.586,18.897C41.135,17.347,41.135,14.835,39.586,13.286L30.391,4.091C28.841,2.541,26.329,2.541,24.78,4.091C23.23,5.64,23.23,8.152,24.78,9.702Z"/>
  <path stroke-miterlimit="4" stroke-width="2px" stroke="none" fill="#000000" fill-rule="nonzero" stroke-dasharray="none" stroke-opacity="1" stroke-linejoin="round" stroke-linecap="round" fill-opacity="1" d="M0.748,40.041L2.176,45.753C3.129,49.566,6.554,52.241,10.484,52.242L44.686,52.242C48.616,52.241,52.041,49.566,52.994,45.753L54.422,40.041C54.953,37.915,53.66,35.761,51.535,35.23C49.409,34.698,47.255,35.991,46.723,38.117L45.296,43.829C45.226,44.109,44.974,44.306,44.685,44.306L10.485,44.306C10.196,44.306,9.944,44.109,9.874,43.829L8.447,38.117C7.916,35.991,5.761,34.698,3.636,35.23C1.51,35.761,0.217,37.915,0.748,40.041Z"/>
</g>
  <g id="Semibold-S" transform="matrix(1.0,0.0,0.0,1.0,2016.9649252929687,633.1849448242187)">  <path stroke-linecap="round" fill="#000000" fill-opacity="1" fill-rule="nonzero" stroke-linejoin="round" stroke-opacity="1" stroke-miterlimit="4" stroke-width="2px" stroke-dasharray="none" stroke="none" d="M24.174,6.896L24.174,34.481C24.174,36.365,25.701,37.893,27.585,37.893C29.469,37.893,30.996,36.365,30.996,34.481L30.996,6.896C30.996,5.012,29.469,3.485,27.585,3.485C25.701,3.485,24.174,5.012,24.174,6.896ZM25.173,4.484L15.978,13.679C14.646,15.011,14.646,17.171,15.978,18.503C17.31,19.836,19.47,19.836,20.802,18.503L29.997,9.308C31.329,7.976,31.329,5.816,29.997,4.484C28.665,3.152,26.505,3.152,25.173,4.484ZM25.173,9.308L34.368,18.503C35.7,19.836,37.86,19.836,39.192,18.503C40.525,17.171,40.525,15.011,39.192,13.679L29.997,4.484C28.665,3.152,26.505,3.152,25.173,4.484C23.841,5.816,23.841,7.976,25.173,9.308Z"/>
  <path fill-opacity="1" fill="#000000" fill-rule="nonzero" stroke-miterlimit="4" stroke-linecap="round" stroke-opacity="1" stroke="none" stroke-linejoin="round" stroke-dasharray="none" stroke-width="2px" d="M1.288,39.906L2.715,45.618C3.607,49.184,6.809,51.685,10.484,51.685L44.686,51.685C48.361,51.685,51.564,49.184,52.455,45.619L53.882,39.906C54.339,38.078,53.228,36.226,51.4,35.769C49.572,35.313,47.72,36.424,47.263,38.252L45.836,43.964C45.704,44.492,45.229,44.862,44.685,44.863L10.485,44.863C9.941,44.862,9.467,44.492,9.335,43.964L7.907,38.252C7.45,36.424,5.598,35.313,3.77,35.769C1.943,36.226,0.831,38.078,1.288,39.906Z"/>
</g>
  <g id="Medium-S" transform="matrix(1.0,0.0,0.0,1.0,1720.2549252929687,633.1849448242187)">  <path stroke-linejoin="round" stroke-dasharray="none" fill-rule="nonzero" stroke="none" stroke-opacity="1" fill="#000000" fill-opacity="1" stroke-miterlimit="4" stroke-linecap="round" stroke-width="2px" d="M24.73,6.896L24.73,34.481C24.73,36.058,26.008,37.336,27.585,37.336C29.162,37.336,30.44,36.058,30.44,34.481L30.44,6.896C30.44,5.319,29.162,4.041,27.585,4.041C26.008,4.041,24.73,5.319,24.73,6.896ZM25.566,4.877L16.371,14.072C15.256,15.187,15.256,16.995,16.371,18.11C17.486,19.225,19.294,19.225,20.409,18.11L29.604,8.915C30.719,7.8,30.719,5.992,29.604,4.877C28.489,3.762,26.681,3.762,25.566,4.877ZM25.566,8.915L34.761,18.11C35.876,19.225,37.684,19.225,38.799,18.11C39.914,16.995,39.914,15.187,38.799,14.072L29.604,4.877C28.489,3.762,26.681,3.762,25.566,4.877C24.451,5.992,24.451,7.8,25.566,8.915Z"/>
  <path fill-rule="nonzero" stroke-width="2px" stroke-dasharray="none" stroke="none" fill-opacity="1" fill="#000000" stroke-linecap="round" stroke-linejoin="round" stroke-miterlimit="4" stroke-opacity="1" d="M1.828,39.771L3.255,45.483C4.084,48.801,7.065,51.128,10.484,51.129L44.686,51.129C48.105,51.128,51.086,48.801,51.915,45.484L53.343,39.771C53.725,38.241,52.795,36.691,51.265,36.309C49.735,35.927,48.185,36.857,47.803,38.387L46.375,44.099C46.181,44.875,45.485,45.419,44.685,45.419L10.485,45.419C9.686,45.419,8.989,44.875,8.795,44.099L7.367,38.387C6.985,36.857,5.435,35.927,3.905,36.309C2.376,36.691,1.445,38.241,1.828,39.771Z"/>
</g>
  <g id="Regular-S" transform="matrix(1.0,0.0,0.0,1.0,1423.5449252929686,633.1849448242187)">  <path fill-opacity="1" stroke-miterlimit="4" fill-rule="nonzero" stroke-width="2px" stroke-linecap="round" stroke-opacity="1" stroke-linejoin="round" stroke="none" stroke-dasharray="none" fill="#000000" d="M25.286,6.896L25.286,34.481C25.286,35.751,26.316,36.78,27.585,36.78C28.855,36.78,29.884,35.751,29.884,34.481L29.884,6.896C29.884,5.627,28.855,4.598,27.585,4.598C26.316,4.598,25.286,5.627,25.286,6.896ZM25.96,5.271L16.765,14.466C15.867,15.364,15.867,16.819,16.765,17.717C17.662,18.614,19.118,18.614,20.016,17.717L29.211,8.522C30.108,7.624,30.108,6.169,29.211,5.271C28.313,4.373,26.857,4.373,25.96,5.271ZM25.96,8.522L35.155,17.717C36.052,18.614,37.508,18.614,38.406,17.717C39.303,16.819,39.303,15.364,38.406,14.466L29.211,5.271C28.313,4.373,26.857,4.373,25.96,5.271C25.062,6.169,25.062,7.624,25.96,8.522Z"/>
  <path stroke-miterlimit="4" stroke-width="2px" fill-opacity="1" stroke-opacity="1" fill-rule="nonzero" stroke="none" stroke-linecap="round" stroke-linejoin="round" stroke-dasharray="none" fill="#000000" d="M2.367,39.636L3.795,45.349C4.562,48.418,7.32,50.572,10.484,50.573L44.686,50.573C47.85,50.572,50.608,48.418,51.375,45.349L52.803,39.636C53.111,38.404,52.362,37.156,51.13,36.849C49.898,36.541,48.65,37.29,48.342,38.522L46.915,44.234C46.659,45.257,45.74,45.975,44.685,45.975L10.485,45.975C9.43,45.975,8.511,45.257,8.255,44.234L6.828,38.522C6.52,37.29,5.272,36.541,4.04,36.849C2.809,37.156,2.06,38.404,2.367,39.636Z"/>
</g>
  <g id="Light-S" transform="matrix(1.0,0.0,0.0,1.0,1126.8349252929688,633.1849448242187)">  <path stroke-linecap="round" stroke="none" stroke-dasharray="none" fill-opacity="1" fill="#000000" stroke-width="2px" fill-rule="nonzero" stroke-linejoin="round" stroke-opacity="1" stroke-miterlimit="4" d="M25.669,6.896L25.669,34.481C25.669,35.539,26.527,36.397,27.585,36.397C28.643,36.397,29.501,35.539,29.501,34.481L29.501,6.896C29.501,5.838,28.643,4.981,27.585,4.981C26.527,4.981,25.669,5.838,25.669,6.896ZM26.231,5.542L17.035,14.737C16.287,15.485,16.287,16.698,17.035,17.446C17.784,18.194,18.997,18.194,19.745,17.446L28.94,8.251C29.688,7.503,29.688,6.29,28.94,5.542C28.192,4.794,26.979,4.794,26.231,5.542ZM26.231,8.251L35.426,17.446C36.174,18.194,37.387,18.194,38.135,17.446C38.883,16.698,38.883,15.485,38.135,14.737L28.94,5.542C28.192,4.794,26.979,4.794,26.231,5.542C25.482,6.29,25.482,7.503,26.231,8.251Z"/>
  <path stroke-linejoin="round" fill-rule="nonzero" fill-opacity="1" stroke-width="2px" stroke-opacity="1" stroke-dasharray="none" stroke="none" fill="#000000" stroke-linecap="round" stroke-miterlimit="4" d="M2.739,39.543L4.167,45.256C4.891,48.155,7.496,50.189,10.484,50.19L44.686,50.19C47.674,50.189,50.279,48.155,51.004,45.256L52.431,39.543C52.688,38.517,52.063,37.477,51.037,37.22C50.011,36.964,48.971,37.588,48.714,38.614L47.287,44.327C46.988,45.521,45.916,46.358,44.685,46.358L10.485,46.358C9.254,46.358,8.182,45.521,7.883,44.327L6.456,38.614C6.199,37.588,5.159,36.964,4.133,37.22C3.107,37.477,2.483,38.517,2.739,39.543Z"/>
</g>
  <g id="Thin-S" transform="matrix(1.0,0.0,0.0,1.0,830.1249252929688,633.1849448242187)">  <path stroke-opacity="1" stroke-linejoin="round" fill-rule="nonzero" stroke-miterlimit="4" stroke="none" stroke-width="2px" fill="#000000" stroke-dasharray="none" stroke-linecap="round" fill-opacity="1" d="M26.053,6.896L26.053,34.481C26.053,35.328,26.739,36.014,27.585,36.014C28.431,36.014,29.118,35.328,29.118,34.481L29.118,6.896C29.118,6.05,28.431,5.364,27.585,5.364C26.739,5.364,26.053,6.05,26.053,6.896ZM26.501,5.813L17.306,15.008C16.708,15.606,16.708,16.576,17.306,17.175C17.905,17.773,18.875,17.773,19.474,17.175L28.669,7.98C29.267,7.381,29.267,6.411,28.669,5.813C28.07,5.214,27.1,5.214,26.501,5.813ZM26.501,7.98L35.696,17.175C36.295,17.773,37.265,17.773,37.864,17.175C38.462,16.576,38.462,15.606,37.864,15.008L28.669,5.813C28.07,5.214,27.1,5.214,26.501,5.813C25.903,6.411,25.903,7.381,26.501,7.98Z"/>
  <path stroke-linejoin="round" fill="#000000" stroke-linecap="round" stroke-miterlimit="4" stroke-dasharray="none" fill-opacity="1" stroke="none" stroke-opacity="1" fill-rule="nonzero" stroke-width="2px" d="M3.111,39.45L4.538,45.163C5.22,47.892,7.672,49.806,10.484,49.806L44.686,49.806C47.498,49.806,49.95,47.892,50.632,45.163L52.059,39.45C52.265,38.629,51.765,37.797,50.944,37.592C50.123,37.387,49.291,37.886,49.086,38.707L47.658,44.42C47.317,45.784,46.092,46.741,44.685,46.741L10.485,46.741C9.079,46.741,7.853,45.784,7.512,44.42L6.084,38.707C5.879,37.886,5.047,37.387,4.226,37.592C3.405,37.797,2.906,38.629,3.111,39.45Z"/>
</g>
  <g id="Ultralight-S" transform="matrix(1.0,0.0,0.0,1.0,533.4149252929687,633.1849448242187)">  <path fill-opacity="1" stroke-miterlimit="4" stroke-dasharray="none" stroke-width="2px" stroke-linecap="round" fill-rule="nonzero" stroke-opacity="1" fill="#000000" stroke-linejoin="round" stroke="none" d="M26.436,6.896L26.436,34.481C26.436,35.116,26.95,35.631,27.585,35.631C28.22,35.631,28.734,35.116,28.734,34.481L28.734,6.896C28.734,6.261,28.22,5.747,27.585,5.747C26.95,5.747,26.436,6.261,26.436,6.896ZM26.772,6.084L17.577,15.279C17.128,15.727,17.128,16.455,17.577,16.904C18.026,17.353,18.754,17.353,19.203,16.904L28.398,7.709C28.847,7.26,28.847,6.532,28.398,6.084C27.949,5.635,27.221,5.635,26.772,6.084ZM26.772,7.709L35.967,16.904C36.416,17.353,37.144,17.353,37.593,16.904C38.042,16.455,38.042,15.727,37.593,15.279L28.398,6.084C27.949,5.635,27.221,5.635,26.772,6.084C26.323,6.532,26.323,7.26,26.772,7.709Z"/>
  <path stroke-width="2px" stroke-opacity="1" fill-opacity="1" stroke-linejoin="round" stroke-linecap="round" stroke-dasharray="none" fill="#000000" fill-rule="nonzero" stroke-miterlimit="4" stroke="none" d="M3.482,39.358L4.91,45.07C5.549,47.628,7.848,49.423,10.484,49.423L44.686,49.423C47.323,49.423,49.621,47.628,50.26,45.07L51.688,39.358C51.842,38.742,51.467,38.118,50.851,37.964C50.235,37.81,49.611,38.184,49.458,38.8L48.03,44.513C47.646,46.047,46.267,47.124,44.685,47.125L10.485,47.125C8.903,47.124,7.524,46.047,7.14,44.513L5.713,38.8C5.559,38.184,4.935,37.81,4.319,37.964C3.703,38.118,3.329,38.742,3.482,39.358Z"/>
</g>
 </g>
</svg>
