<?xml version="1.0" encoding="UTF-8"?>
<!-- Generator: CustomSymbols v2.6.2.41 by @serious_bret https://bretlester.com/app_content/CustomSymbols/ -->
<!-- Guides: Left/Right 0.0/0.0 Cap/Base 0.269/0.127 -->
<!-- Settings: RefScale 1.0 Min/Max Stroke Scales 0.5/2.21 -->
<!DOCTYPE svg
PUBLIC "-//W3C//DTD SVG 1.1//EN"
       "http://www.w3.org/Graphics/SVG/1.1/DTD/svg11.dtd">
<svg version="1.1" xmlns="http://www.w3.org/2000/svg" xmlns:xlink="http://www.w3.org/1999/xlink" width="3300" height="2200">
<![CDATA[<svg width="24" height="25" viewBox="0 0 24 25" fill="none" xmlns="http://www.w3.org/2000/svg">
<path d="M14 19.7832C17.771 19.7832 19.657 19.7832 20.828 18.6112C22 17.4402 22 15.5542 22 11.7832C22 8.01217 22 6.12617 20.828 4.95517C19.657 3.78317 17.771 3.78317 14 3.78317H10C6.229 3.78317 4.343 3.78317 3.172 4.95517C2 6.12617 2 8.01217 2 11.7832C2 15.5542 2 17.4402 3.172 18.6112C3.825 19.2652 4.7 19.5542 6 19.6812" stroke="#777777" stroke-width="2.25" stroke-linecap="round" stroke-linejoin="round"/>
<path d="M14 19.7832C12.764 19.7832 11.402 20.2832 10.159 20.9282C8.161 21.9652 7.162 22.4842 6.67 22.1532C6.178 21.8232 6.271 20.7982 6.458 18.7492L6.5 18.2832" stroke="#777777" stroke-width="2.25" stroke-linecap="round" stroke-linejoin="round"/>
</svg>
]]>
 <g id="Notes">
  <rect height="2200" id="artboard" style="fill:white;opacity:1" width="3300" x="0" y="0"/>
  <line id="" style="fill:none;stroke:black;opacity:1;stroke-width:0.5;" x1="263" x2="3036" y1="292" y2="292"/>
  <text id="reftext1" style="stroke:none;fill:black;font-family:-apple-system,&quot;SF Pro Display&quot;,&quot;SF Pro Text&quot;,Helvetica,sans-serif;font-weight:bold;" transform="matrix(1 0 0 1 263 322)">Weight/Scale Variations</text>
  <text id="reftext2" style="stroke:none;fill:black;font-family:-apple-system,&quot;SF Pro Display&quot;,&quot;SF Pro Text&quot;,Helvetica,sans-serif;text-anchor:middle;" transform="matrix(1 0 0 1 559.711 322)">Ultralight</text>
  <text style="stroke:none;fill:black;font-family:-apple-system,&quot;SF Pro Display&quot;,&quot;SF Pro Text&quot;,Helvetica,sans-serif;text-anchor:middle;" transform="matrix(1 0 0 1 856.422 322)">Thin</text>
  <text style="stroke:none;fill:black;font-family:-apple-system,&quot;SF Pro Display&quot;,&quot;SF Pro Text&quot;,Helvetica,sans-serif;text-anchor:middle;" transform="matrix(1 0 0 1 1153.13 322)">Light</text>
  <text style="stroke:none;fill:black;font-family:-apple-system,&quot;SF Pro Display&quot;,&quot;SF Pro Text&quot;,Helvetica,sans-serif;text-anchor:middle;" transform="matrix(1 0 0 1 1449.84 322)">Regular</text>
  <text style="stroke:none;fill:black;font-family:-apple-system,&quot;SF Pro Display&quot;,&quot;SF Pro Text&quot;,Helvetica,sans-serif;text-anchor:middle;" transform="matrix(1 0 0 1 1746.56 322)">Medium</text>
  <text style="stroke:none;fill:black;font-family:-apple-system,&quot;SF Pro Display&quot;,&quot;SF Pro Text&quot;,Helvetica,sans-serif;text-anchor:middle;" transform="matrix(1 0 0 1 2043.27 322)">Semibold</text>
  <text style="stroke:none;fill:black;font-family:-apple-system,&quot;SF Pro Display&quot;,&quot;SF Pro Text&quot;,Helvetica,sans-serif;text-anchor:middle;" transform="matrix(1 0 0 1 2339.98 322)">Bold</text>
  <text style="stroke:none;fill:black;font-family:-apple-system,&quot;SF Pro Display&quot;,&quot;SF Pro Text&quot;,Helvetica,sans-serif;text-anchor:middle;" transform="matrix(1 0 0 1 2636.69 322)">Heavy</text>
  <text style="stroke:none;fill:black;font-family:-apple-system,&quot;SF Pro Display&quot;,&quot;SF Pro Text&quot;,Helvetica,sans-serif;text-anchor:middle;" transform="matrix(1 0 0 1 2933.4 322)">Black</text>
  <line id="" style="fill:none;stroke:black;opacity:1;stroke-width:0.5;" x1="263" x2="3036" y1="1903" y2="1903"/>
  <g id="" transform="matrix(1 0 0 1 263 1933)">
   <path d="M9.24805 0.830078C13.5547 0.830078 17.1387-2.74414 17.1387-7.05078C17.1387-11.3574 13.5449-14.9316 9.23828-14.9316C4.94141-14.9316 1.36719-11.3574 1.36719-7.05078C1.36719-2.74414 4.95117 0.830078 9.24805 0.830078ZM9.24805-0.654297C5.70312-0.654297 2.87109-3.49609 2.87109-7.05078C2.87109-10.6055 5.69336-13.4473 9.23828-13.4473C12.793-13.4473 15.6348-10.6055 15.6445-7.05078C15.6543-3.49609 12.8027-0.654297 9.24805-0.654297ZM6.39648-6.31836L8.50586-6.31836L8.50586-4.19922C8.50586-3.75977 8.79883-3.45703 9.22852-3.45703C9.67773-3.45703 9.9707-3.75977 9.9707-4.19922L9.9707-6.31836L12.0996-6.31836C12.5391-6.31836 12.8418-6.61133 12.8418-7.04102C12.8418-7.48047 12.5391-7.7832 12.0996-7.7832L9.9707-7.7832L9.9707-9.89258C9.9707-10.3418 9.67773-10.6445 9.22852-10.6445C8.79883-10.6445 8.50586-10.3418 8.50586-9.89258L8.50586-7.7832L6.39648-7.7832C5.94727-7.7832 5.64453-7.48047 5.64453-7.04102C5.64453-6.61133 5.94727-6.31836 6.39648-6.31836Z"/>
  </g>
  <g id="" transform="matrix(1 0 0 1 281.506 1933)">
   <path d="M11.709 2.91016C17.1582 2.91016 21.6699-1.61133 21.6699-7.05078C21.6699-12.5 17.1484-17.0117 11.6992-17.0117C6.25977-17.0117 1.74805-12.5 1.74805-7.05078C1.74805-1.61133 6.26953 2.91016 11.709 2.91016ZM11.709 1.25C7.09961 1.25 3.41797-2.44141 3.41797-7.05078C3.41797-11.6602 7.08984-15.3516 11.6992-15.3516C16.3086-15.3516 20-11.6602 20.0098-7.05078C20.0195-2.44141 16.3184 1.25 11.709 1.25ZM7.98828-6.23047L10.8789-6.23047L10.8789-3.32031C10.8789-2.83203 11.2109-2.5 11.6895-2.5C12.1777-2.5 12.5195-2.83203 12.5195-3.32031L12.5195-6.23047L15.4297-6.23047C15.918-6.23047 16.25-6.5625 16.25-7.04102C16.25-7.5293 15.918-7.87109 15.4297-7.87109L12.5195-7.87109L12.5195-10.7617C12.5195-11.2695 12.1777-11.6016 11.6895-11.6016C11.2109-11.6016 10.8789-11.2598 10.8789-10.7617L10.8789-7.87109L7.98828-7.87109C7.48047-7.87109 7.14844-7.5293 7.14844-7.04102C7.14844-6.5625 7.49023-6.23047 7.98828-6.23047Z"/>
  </g>
  <g id="" transform="matrix(1 0 0 1 304.924 1933)">
   <path d="M14.9707 5.66406C21.9336 5.66406 27.6953-0.0976562 27.6953-7.05078C27.6953-14.0137 21.9238-19.7754 14.9609-19.7754C8.00781-19.7754 2.25586-14.0137 2.25586-7.05078C2.25586-0.0976562 8.01758 5.66406 14.9707 5.66406ZM14.9707 3.84766C8.93555 3.84766 4.08203-1.01562 4.08203-7.05078C4.08203-13.0957 8.92578-17.9492 14.9609-17.9492C21.0059-17.9492 25.8594-13.0957 25.8691-7.05078C25.8789-1.01562 21.0156 3.84766 14.9707 3.84766ZM10.0586-6.14258L14.0625-6.14258L14.0625-2.12891C14.0625-1.5918 14.4336-1.2207 14.9512-1.2207C15.4883-1.2207 15.8594-1.5918 15.8594-2.12891L15.8594-6.14258L19.8828-6.14258C20.4102-6.14258 20.791-6.51367 20.791-7.03125C20.791-7.56836 20.4199-7.94922 19.8828-7.94922L15.8594-7.94922L15.8594-11.9531C15.8594-12.5098 15.4883-12.8809 14.9512-12.8809C14.4336-12.8809 14.0625-12.5 14.0625-11.9531L14.0625-7.94922L10.0586-7.94922C9.50195-7.94922 9.13086-7.56836 9.13086-7.03125C9.13086-6.51367 9.51172-6.14258 10.0586-6.14258Z"/>
  </g>
  <text style="stroke:none;fill:black;font-family:-apple-system,&quot;SF Pro Display&quot;,&quot;SF Pro Text&quot;,Helvetica,sans-serif;font-weight:bold;" transform="matrix(1 0 0 1 263 1953)">Design Variations</text>
  <text style="stroke:none;fill:black;font-family:-apple-system,&quot;SF Pro Display&quot;,&quot;SF Pro Text&quot;,Helvetica,sans-serif;" transform="matrix(1 0 0 1 263 1971)">Symbols are supported in up to nine weights and three scales.</text>
  <text style="stroke:none;fill:black;font-family:-apple-system,&quot;SF Pro Display&quot;,&quot;SF Pro Text&quot;,Helvetica,sans-serif;" transform="matrix(1 0 0 1 263 1989)">For optimal layout with text and other symbols, vertically align</text>
  <text style="stroke:none;fill:black;font-family:-apple-system,&quot;SF Pro Display&quot;,&quot;SF Pro Text&quot;,Helvetica,sans-serif;" transform="matrix(1 0 0 1 263 2007)">symbols with the adjacent text.</text>
  <line id="" style="fill:none;stroke:#00AEEF;stroke-width:0.5;opacity:1.0;" x1="776" x2="776" y1="1919" y2="1933"/>
  <g id="" transform="matrix(1 0 0 1 776 1933)">
   <path d="M3.31055 0.126953C3.82812 0.126953 4.08203-0.0683594 4.26758-0.605469L5.52734-4.0625L11.2891-4.0625L12.5488-0.605469C12.7344-0.0683594 12.9883 0.126953 13.4961 0.126953C14.0137 0.126953 14.3457-0.185547 14.3457-0.673828C14.3457-0.839844 14.3164-0.986328 14.2383-1.20117L9.6582-13.3887C9.43359-13.9941 9.0332-14.2871 8.4082-14.2871C7.80273-14.2871 7.39258-13.9941 7.17773-13.3984L2.59766-1.19141C2.51953-0.976562 2.49023-0.830078 2.49023-0.664062C2.49023-0.175781 2.80273 0.126953 3.31055 0.126953ZM6.00586-5.53711L8.37891-12.1094L8.42773-12.1094L10.8008-5.53711Z"/>
  </g>
  <line id="" style="fill:none;stroke:#00AEEF;stroke-width:0.5;opacity:1.0;" x1="792.836" x2="792.836" y1="1919" y2="1933"/>
  <text style="stroke:none;fill:black;font-family:-apple-system,&quot;SF Pro Display&quot;,&quot;SF Pro Text&quot;,Helvetica,sans-serif;font-weight:bold;" transform="matrix(1 0 0 1 776 1953)">Margins</text>
  <text style="stroke:none;fill:black;font-family:-apple-system,&quot;SF Pro Display&quot;,&quot;SF Pro Text&quot;,Helvetica,sans-serif;" transform="matrix(1 0 0 1 776 1971)">Leading and trailing margins on the left and right side of each symbol</text>
  <text style="stroke:none;fill:black;font-family:-apple-system,&quot;SF Pro Display&quot;,&quot;SF Pro Text&quot;,Helvetica,sans-serif;" transform="matrix(1 0 0 1 776 1989)">can be adjusted by modifying the x-location of the margin guidelines.</text>
  <text style="stroke:none;fill:black;font-family:-apple-system,&quot;SF Pro Display&quot;,&quot;SF Pro Text&quot;,Helvetica,sans-serif;" transform="matrix(1 0 0 1 776 2007)">Modifications are automatically applied proportionally to all</text>
  <text style="stroke:none;fill:black;font-family:-apple-system,&quot;SF Pro Display&quot;,&quot;SF Pro Text&quot;,Helvetica,sans-serif;" transform="matrix(1 0 0 1 776 2025)">scales and weights.</text>
  <g id="" transform="matrix(1 0 0 1 1289 1933)">
   <path d="M2.8418 1.86523L4.54102 3.57422C5.40039 4.44336 6.38672 4.38477 7.31445 3.35938L17.4902-7.85156C17.7539-7.76367 18.0273-7.7832 18.3398-7.8418L19.4043-8.03711L20.0684-7.36328L20.0293-6.80664C19.9902-6.30859 20.1172-5.92773 20.6055-5.44922L21.3672-4.70703C21.8457-4.22852 22.4609-4.19922 22.9297-4.66797L25.8398-7.58789C26.3086-8.05664 26.2891-8.65234 25.8105-9.13086L25.0391-9.89258C24.5605-10.3711 24.1895-10.5273 23.7109-10.4883L23.1348-10.4395L22.4902-11.0742L22.7344-12.1973C22.8613-12.7637 22.7051-13.2031 22.1191-13.7891L19.9219-15.9766C16.582-19.2969 12.1484-19.2188 9.25781-16.3281C8.83789-15.918 8.80859-15.3418 9.04297-14.9512C9.27734-14.5898 9.73633-14.3555 10.3809-14.5215C11.8457-14.8633 13.3691-14.9219 14.7949-13.9844L14.209-12.5293C14.0137-12.0508 13.9844-11.6504 14.1113-11.2891L3.04688-0.898438C2.06055 0.0195312 1.98242 0.996094 2.8418 1.86523ZM10.752-15.957C13.1836-17.7344 16.4746-17.4316 18.7012-15.2051L21.1328-12.793C21.3672-12.5586 21.4062-12.373 21.3379-12.0312L21.0156-10.5469L22.5195-9.0625L23.5059-9.12109C23.7598-9.13086 23.8379-9.11133 24.0332-8.91602L24.6094-8.33984L22.168-5.89844L21.5918-6.47461C21.3965-6.66992 21.3672-6.74805 21.377-7.01172L21.4453-7.98828L19.9512-9.47266L18.4277-9.21875C18.1055-9.15039 17.959-9.17969 17.7148-9.41406L15.7129-11.416C15.459-11.6504 15.4297-11.8164 15.5859-12.1875L16.4648-14.2773C14.9023-15.7324 12.8711-16.3574 10.8398-15.7617C10.6836-15.7227 10.625-15.8496 10.752-15.957ZM5.27344 2.30469L4.10156 1.14258C3.63281 0.683594 3.74023 0.341797 4.14062-0.0195312L14.9512-10.1953L16.416-8.71094L6.42578 2.27539C6.07422 2.67578 5.74219 2.77344 5.27344 2.30469Z"/>
  </g>
  <text style="stroke:none;fill:black;font-family:-apple-system,&quot;SF Pro Display&quot;,&quot;SF Pro Text&quot;,Helvetica,sans-serif;font-weight:bold;" transform="matrix(1 0 0 1 1289 1953)">Exporting</text>
  <text style="stroke:none;fill:black;font-family:-apple-system,&quot;SF Pro Display&quot;,&quot;SF Pro Text&quot;,Helvetica,sans-serif;" transform="matrix(1 0 0 1 1289 1971)">Symbols should be outlined when exporting to ensure the</text>
  <text style="stroke:none;fill:black;font-family:-apple-system,&quot;SF Pro Display&quot;,&quot;SF Pro Text&quot;,Helvetica,sans-serif;" transform="matrix(1 0 0 1 1289 1989)">design is preserved when submitting to Xcode.</text>
  <text id="template-version" style="stroke:none;fill:black;font-family:-apple-system,&quot;SF Pro Display&quot;,&quot;SF Pro Text&quot;,Helvetica,sans-serif;text-anchor:end;" transform="matrix(1 0 0 1 3036 1933)">Template v.2.0</text>
  <text style="stroke:none;fill:black;font-family:-apple-system,&quot;SF Pro Display&quot;,&quot;SF Pro Text&quot;,Helvetica,sans-serif;text-anchor:end;" transform="matrix(1 0 0 1 3036 1951)">Requires Xcode 12 or greater</text>
  <text style="stroke:none;fill:black;font-family:-apple-system,&quot;SF Pro Display&quot;,&quot;SF Pro Text&quot;,Helvetica,sans-serif;" transform="matrix(1 0 0 1 263 726)">Small</text>
  <text style="stroke:none;fill:black;font-family:-apple-system,&quot;SF Pro Display&quot;,&quot;SF Pro Text&quot;,Helvetica,sans-serif;" transform="matrix(1 0 0 1 263 1156)">Medium</text>
  <text style="stroke:none;fill:black;font-family:-apple-system,&quot;SF Pro Display&quot;,&quot;SF Pro Text&quot;,Helvetica,sans-serif;" transform="matrix(1 0 0 1 263 1586)">Large</text>
 </g>
 <g id="Guides">
  <g id="H-reference" style="fill:#27AAE1;stroke:none;" transform="matrix(1 0 0 1 339 696)">
   <path d="M0.976562 0L3.66211 0L12.9883-24.4629L45.752-24.4629L55.127 0L57.7637 0L30.6152-70.459L28.125-70.459ZM29.3457-67.1387L29.4434-67.1387L44.873-26.709L13.8672-26.709Z"/>
  </g>
  <line id="Baseline-S" style="fill:none;stroke:#27AAE1;opacity:1;stroke-width:0.5;" x1="263" x2="3036" y1="696" y2="696"/>
  <line id="Capline-S" style="fill:none;stroke:#27AAE1;opacity:1;stroke-width:0.5;" x1="263" x2="3036" y1="625.541" y2="625.541"/>
  <g id="H-reference" style="fill:#27AAE1;stroke:none;" transform="matrix(1 0 0 1 339 1126)">
   <path d="M0.976562 0L3.66211 0L12.9883-24.4629L45.752-24.4629L55.127 0L57.7637 0L30.6152-70.459L28.125-70.459ZM29.3457-67.1387L29.4434-67.1387L44.873-26.709L13.8672-26.709Z"/>
  </g>
  <line id="Baseline-M" style="fill:none;stroke:#27AAE1;opacity:1;stroke-width:0.5;" x1="263" x2="3036" y1="1126" y2="1126"/>
  <line id="Capline-M" style="fill:none;stroke:#27AAE1;opacity:1;stroke-width:0.5;" x1="263" x2="3036" y1="1055.54" y2="1055.54"/>
  <g id="H-reference" style="fill:#27AAE1;stroke:none;" transform="matrix(1 0 0 1 339 1556)">
   <path d="M0.976562 0L3.66211 0L12.9883-24.4629L45.752-24.4629L55.127 0L57.7637 0L30.6152-70.459L28.125-70.459ZM29.3457-67.1387L29.4434-67.1387L44.873-26.709L13.8672-26.709Z"/>
  </g>
  <line id="Baseline-L" style="fill:none;stroke:#27AAE1;opacity:1;stroke-width:0.5;" x1="263" x2="3036" y1="1556" y2="1556"/>
  <line id="Capline-L" style="fill:none;stroke:#27AAE1;opacity:1;stroke-width:0.5;" x1="263" x2="3036" y1="1485.54" y2="1485.54"/>
  <line id="left-margin" x1="1395.1353290562913" x2="1395.1353290562913" y1="1030.79" y2="1150.12" style="fill:none;stroke:#00AEEF;stroke-width:0.5;opacity:1.0;"/>
  <line id="right-margin" x1="1507.1246709437085" x2="1507.1246709437085" y1="1030.79" y2="1150.12" style="fill:none;stroke:#00AEEF;stroke-width:0.5;opacity:1.0;"/>
 </g>
 <g id="Symbols">
  <g id="Black-L" transform="matrix(1.0,0.0,0.0,1.0,2862.446874482616,1434.8426973011951)">  <path stroke-miterlimit="4" stroke-opacity="1" stroke="none" stroke-width="2.25px" fill-rule="nonzero" fill-opacity="1" stroke-linecap="round" fill="#000000" stroke-linejoin="round" stroke-dasharray="none" d="M84.272,134.049C100.679,134.049,106.166,133.911,112.686,133.034C122.462,131.719,129.924,128.648,135.96,122.607C141.992,116.58,145.063,109.118,146.378,99.342C147.255,92.823,147.393,87.335,147.393,70.928C147.393,54.521,147.255,49.034,146.378,42.514C145.063,32.738,141.992,25.276,135.951,19.24C129.924,13.208,122.462,10.137,112.686,8.822C106.166,7.945,100.679,7.807,84.272,7.807L60.194,7.807C43.787,7.807,38.3,7.945,31.78,8.822C22.004,10.137,14.543,13.208,8.507,19.249C2.475,25.276,-0.597,32.738,-1.912,42.514C-2.788,49.034,-2.927,54.521,-2.927,70.928C-2.927,87.335,-2.788,92.823,-1.912,99.342C-0.597,109.118,2.475,116.58,8.516,122.616C15.139,129.249,23.339,132.258,34.661,133.364C42.888,134.168,50.208,128.151,51.011,119.925C51.815,111.698,45.798,104.378,37.572,103.575C32.526,103.082,30.605,102.377,29.684,101.454C27.701,99.473,27.005,94.295,27.005,70.928C27.005,47.561,27.701,42.383,29.672,40.414C31.649,38.435,36.828,37.738,60.194,37.738L84.272,37.738C107.639,37.738,112.817,38.435,114.786,40.405C116.765,42.383,117.462,47.561,117.462,70.928C117.462,94.295,116.765,99.473,114.795,101.442C112.817,103.421,107.639,104.118,84.272,104.118C76.007,104.118,69.306,110.818,69.306,119.084C69.306,127.349,76.007,134.049,84.272,134.049Z"/>
  <path stroke-dasharray="none" stroke-linecap="round" stroke="none" stroke-miterlimit="4" stroke-opacity="1" fill-opacity="1" stroke-width="2.25px" fill-rule="nonzero" stroke-linejoin="round" fill="#000000" d="M84.272,104.118C74.675,104.118,64.71,107.268,54.258,112.692C46.583,116.675,43.969,117.97,41.83,118.801C41.415,118.962,41.115,119.064,40.944,119.111C41.023,119.09,41.225,119.05,41.583,119.016C43.614,118.825,46.1,119.315,48.503,120.932C50.722,122.421,52.122,124.436,52.755,126.358C52.89,126.767,52.953,127.051,52.976,127.225C52.964,127.138,52.948,126.92,52.939,126.583C52.886,124.601,53.073,121.941,53.777,114.22L54.032,111.398C54.774,103.166,48.702,95.891,40.47,95.149C32.238,94.407,24.963,100.479,24.221,108.711L23.968,111.516C23.13,120.698,22.919,123.7,23.018,127.387C23.1,130.434,23.465,133.109,24.329,135.731C25.662,139.771,28.108,143.293,31.813,145.779C35.668,148.372,40.009,149.229,44.395,148.815C47.133,148.557,49.757,147.833,52.672,146.7C56.271,145.301,59.151,143.876,68.046,139.259C74.617,135.849,80.31,134.049,84.272,134.049C92.537,134.049,99.238,127.349,99.238,119.084C99.238,110.818,92.537,104.118,84.272,104.118Z"/>
</g>
  <g id="Heavy-L" transform="matrix(1.0,0.0,0.0,1.0,2565.736874482616,1434.8426973011951)">  <path stroke-opacity="1" stroke-miterlimit="4" stroke="none" fill-opacity="1" fill-rule="nonzero" stroke-linejoin="round" stroke-linecap="round" fill="#000000" stroke-width="2.25px" stroke-dasharray="none" d="M84.272,132.411C100.591,132.411,106.052,132.273,112.468,131.41C121.917,130.139,129.051,127.202,134.8,121.448C140.546,115.707,143.483,108.573,144.754,99.124C145.617,92.708,145.754,87.248,145.754,70.928C145.754,54.609,145.617,49.148,144.754,42.732C143.483,33.283,140.546,26.149,134.792,20.4C129.051,14.654,121.917,11.717,112.468,10.446C106.052,9.583,100.591,9.446,84.272,9.446L60.194,9.446C43.875,9.446,38.415,9.583,31.999,10.446C22.55,11.717,15.415,14.654,9.666,20.408C3.92,26.149,0.983,33.283,-0.287,42.732C-1.15,49.148,-1.288,54.609,-1.288,70.928C-1.288,87.248,-1.15,92.708,-0.287,99.124C0.983,108.573,3.92,115.707,9.674,121.456C15.986,127.778,23.842,130.661,34.821,131.733C42.146,132.449,48.665,127.091,49.38,119.765C50.096,112.44,44.738,105.921,37.412,105.206C32.023,104.679,29.758,103.848,28.524,102.612C26.083,100.173,25.366,94.843,25.366,70.928C25.366,47.013,26.083,41.683,28.513,39.255C30.95,36.816,36.279,36.1,60.194,36.1L84.272,36.1C108.187,36.1,113.516,36.816,115.945,39.247C118.384,41.683,119.1,47.013,119.1,70.928C119.1,94.843,118.384,100.173,115.953,102.601C113.516,105.04,108.187,105.757,84.272,105.757C76.912,105.757,70.945,111.723,70.945,119.084C70.945,126.444,76.912,132.411,84.272,132.411Z"/>
  <path stroke="none" fill-opacity="1" stroke-opacity="1" stroke-miterlimit="4" stroke-linejoin="round" fill-rule="nonzero" stroke-dasharray="none" stroke-linecap="round" stroke-width="2.25px" fill="#000000" d="M84.272,105.757C74.984,105.757,65.253,108.833,55.013,114.147C47.272,118.165,44.642,119.467,42.424,120.329C41.96,120.509,41.609,120.628,41.38,120.691C41.371,120.693,41.482,120.672,41.737,120.648C43.417,120.489,45.529,120.906,47.589,122.292C49.484,123.563,50.673,125.275,51.199,126.871C51.301,127.178,51.342,127.366,51.353,127.446C51.332,127.296,51.312,127.02,51.301,126.627C51.245,124.551,51.433,121.873,52.145,114.071L52.399,111.251C53.06,103.92,47.653,97.442,40.323,96.781C32.992,96.12,26.514,101.528,25.853,108.858L25.6,111.663C24.769,120.767,24.56,123.75,24.657,127.343C24.854,134.705,26.731,140.397,32.726,144.418C36.239,146.781,40.207,147.565,44.241,147.184C46.804,146.942,49.293,146.255,52.078,145.173C55.598,143.805,58.463,142.386,67.291,137.804C74.074,134.284,80.001,132.411,84.272,132.411C91.632,132.411,97.599,126.444,97.599,119.084C97.599,111.723,91.632,105.757,84.272,105.757Z"/>
</g>
  <g id="Bold-L" transform="matrix(1.0,0.0,0.0,1.0,2269.0268744826158,1434.8426973011951)">  <path fill-opacity="1" fill="#000000" stroke-miterlimit="4" stroke-linejoin="round" fill-rule="nonzero" stroke="none" stroke-linecap="round" stroke-width="2.25px" stroke-opacity="1" stroke-dasharray="none" d="M84.272,130.772C100.504,130.772,105.937,130.635,112.249,129.786C121.371,128.559,128.179,125.757,133.641,120.29C139.1,114.835,141.903,108.028,143.129,98.905C143.978,92.593,144.116,87.16,144.116,70.928C144.116,54.696,143.978,49.263,143.129,42.951C141.903,33.829,139.1,27.021,133.634,21.559C128.179,16.1,121.371,13.297,112.249,12.07C105.937,11.221,100.504,11.084,84.272,11.084L60.194,11.084C43.963,11.084,38.529,11.221,32.217,12.07C23.095,13.297,16.287,16.1,10.825,21.566C5.366,27.021,2.564,33.829,1.337,42.951C0.488,49.263,0.351,54.696,0.351,70.928C0.351,87.16,0.488,92.593,1.337,98.905C2.564,108.028,5.366,114.835,10.832,120.297C16.832,126.306,24.345,129.063,34.98,130.102C41.405,130.73,47.122,126.031,47.749,119.606C48.377,113.181,43.678,107.464,37.253,106.837C31.52,106.277,28.911,105.319,27.365,103.77C24.464,100.872,23.727,95.392,23.727,70.928C23.727,46.464,24.464,40.984,27.355,38.096C30.25,35.198,35.731,34.461,60.194,34.461L84.272,34.461C108.736,34.461,114.216,35.198,117.104,38.089C120.002,40.984,120.739,46.464,120.739,70.928C120.739,95.392,120.002,100.872,117.111,103.76C114.216,106.658,108.736,107.395,84.272,107.395C77.817,107.395,72.584,112.628,72.584,119.084C72.584,125.539,77.817,130.772,84.272,130.772Z"/>
  <path stroke-linejoin="round" stroke-miterlimit="4" stroke-linecap="round" stroke="none" stroke-opacity="1" fill-opacity="1" fill="#000000" stroke-dasharray="none" fill-rule="nonzero" stroke-width="2.25px" d="M84.272,107.395C75.292,107.395,65.795,110.398,55.768,115.601C47.96,119.654,45.316,120.963,43.017,121.856C42.505,122.055,42.102,122.192,41.816,122.271C41.72,122.297,41.738,122.294,41.891,122.279C43.219,122.154,44.958,122.497,46.674,123.652C48.246,124.706,49.224,126.115,49.643,127.384C49.711,127.59,49.731,127.681,49.729,127.667C49.7,127.454,49.675,127.12,49.663,126.671C49.605,124.502,49.794,121.805,50.513,113.922L50.767,111.104C51.347,104.674,46.605,98.993,40.175,98.413C33.746,97.834,28.065,102.576,27.485,109.005L27.232,111.81C26.409,120.835,26.201,123.799,26.295,127.299C26.48,134.18,28.205,139.412,33.639,143.057C36.811,145.19,40.404,145.9,44.087,145.552C46.475,145.327,48.828,144.678,51.485,143.645C54.924,142.309,57.775,140.897,66.536,136.35C73.532,132.72,79.693,130.772,84.272,130.772C90.727,130.772,95.96,125.539,95.96,119.084C95.96,112.628,90.727,107.395,84.272,107.395Z"/>
</g>
  <g id="Semibold-L" transform="matrix(1.0,0.0,0.0,1.0,1972.3168744826157,1434.8426973011951)">  <path fill-rule="nonzero" stroke-width="2.25px" stroke="none" stroke-linejoin="round" fill="#000000" fill-opacity="1" stroke-linecap="round" stroke-dasharray="none" stroke-opacity="1" stroke-miterlimit="4" d="M84.272,129.133C100.416,129.133,105.822,128.996,112.031,128.161C120.826,126.979,127.307,124.311,132.482,119.132C137.655,113.963,140.322,107.482,141.505,98.687C142.34,92.478,142.477,87.072,142.477,70.928C142.477,54.784,142.34,49.378,141.505,43.169C140.322,34.374,137.655,27.893,132.476,22.718C127.307,17.545,120.826,14.878,112.031,13.695C105.822,12.86,100.416,12.723,84.272,12.723L60.194,12.723C44.05,12.723,38.644,12.86,32.435,13.695C23.64,14.878,17.159,17.545,11.985,22.724C6.811,27.893,4.144,34.374,2.961,43.169C2.126,49.378,1.989,54.784,1.989,70.928C1.989,87.072,2.126,92.478,2.961,98.687C4.144,107.482,6.811,113.963,11.991,119.138C17.679,124.835,24.848,127.466,35.139,128.471C40.663,129.011,45.579,124.971,46.118,119.447C46.658,113.923,42.618,109.007,37.094,108.468C31.017,107.874,28.065,106.791,26.205,104.928C22.846,101.572,22.088,95.94,22.088,70.928C22.088,45.916,22.846,40.284,26.197,36.936C29.551,33.579,35.182,32.822,60.194,32.822L84.272,32.822C109.284,32.822,114.915,33.579,118.264,36.93C121.621,40.284,122.378,45.916,122.378,70.928C122.378,95.94,121.621,101.572,118.27,104.92C114.916,108.277,109.284,109.034,84.272,109.034C78.722,109.034,74.223,113.533,74.223,119.084C74.223,124.634,78.722,129.133,84.272,129.133Z"/>
  <path fill="#000000" fill-opacity="1" stroke-dasharray="none" fill-rule="nonzero" stroke-opacity="1" stroke-linecap="round" stroke-linejoin="round" stroke-miterlimit="4" stroke-width="2.25px" stroke="none" d="M84.272,109.034C75.601,109.034,66.337,111.963,56.523,117.056C48.648,121.143,45.989,122.459,43.611,123.384C43.05,123.602,42.596,123.756,42.252,123.851C42.069,123.901,41.995,123.916,42.045,123.911C42.375,123.88,42.813,123.895,43.356,124.002C44.167,124.162,44.997,124.498,45.759,125.011C47.008,125.849,47.776,126.954,48.086,127.897C48.121,128.001,48.12,127.996,48.105,127.889C48.067,127.612,48.038,127.219,48.025,126.715C47.964,124.453,48.154,121.737,48.881,113.773L49.135,110.956C49.633,105.429,45.556,100.544,40.028,100.046C34.501,99.547,29.616,103.625,29.117,109.152L28.865,111.957C28.048,120.903,27.841,123.848,27.933,127.255C28.105,133.655,29.678,138.427,34.552,141.696C39.533,145.047,44.578,144.571,50.891,142.118C54.251,140.812,57.087,139.408,65.781,134.895C72.99,131.155,79.384,129.133,84.272,129.133C89.822,129.133,94.321,124.634,94.321,119.084C94.321,113.533,89.822,109.034,84.272,109.034Z"/>
</g>
  <g id="Medium-L" transform="matrix(1.0,0.0,0.0,1.0,1675.6068744826157,1434.8426973011951)">  <path stroke-opacity="1" stroke-miterlimit="4" fill-opacity="1" fill-rule="nonzero" stroke-dasharray="none" stroke-linecap="round" fill="#000000" stroke-linejoin="round" stroke-width="2.25px" stroke="none" d="M84.272,127.494C100.328,127.494,105.707,127.358,111.812,126.537C120.281,125.398,126.435,122.865,131.322,117.973C136.209,113.091,138.742,106.937,139.881,98.468C140.702,92.363,140.838,86.984,140.838,70.928C140.838,54.872,140.702,49.493,139.881,43.388C138.742,34.919,136.209,28.765,131.317,23.878C126.435,18.991,120.281,16.458,111.812,15.319C105.707,14.498,100.328,14.362,84.272,14.362L60.194,14.362C44.138,14.362,38.759,14.498,32.654,15.319C24.185,16.458,18.031,18.991,13.144,23.883C8.257,28.765,5.724,34.919,4.585,43.388C3.764,49.493,3.628,54.872,3.628,70.928C3.628,86.984,3.764,92.363,4.585,98.468C5.724,106.937,8.257,113.091,13.149,117.979C18.526,123.364,25.351,125.868,35.299,126.84C39.922,127.292,44.036,123.91,44.487,119.287C44.939,114.664,41.557,110.55,36.934,110.099C30.514,109.472,27.218,108.262,25.045,106.086C21.227,102.271,20.449,96.489,20.449,70.928C20.449,45.367,21.227,39.585,25.038,35.777C28.851,31.961,34.634,31.183,60.194,31.183L84.272,31.183C109.833,31.183,115.615,31.961,119.423,35.772C123.239,39.585,124.017,45.367,124.017,70.928C124.017,96.489,123.239,102.271,119.428,106.079C115.615,109.895,109.833,110.673,84.272,110.673C79.627,110.673,75.861,114.438,75.861,119.084C75.861,123.729,79.627,127.494,84.272,127.494Z"/>
  <path fill="#000000" stroke-dasharray="none" fill-opacity="1" stroke-width="2.25px" fill-rule="nonzero" stroke="none" stroke-linejoin="round" stroke-miterlimit="4" stroke-opacity="1" stroke-linecap="round" d="M84.272,110.673C75.909,110.673,66.88,113.528,57.278,118.51C49.336,122.632,46.663,123.956,44.205,124.911C43.595,125.148,43.089,125.32,42.688,125.43C42.418,125.505,42.251,125.537,42.199,125.542C42.824,125.483,43.815,125.679,44.844,126.371C45.77,126.992,46.327,127.794,46.53,128.41C46.489,128.286,46.412,127.724,46.386,126.759C46.323,124.404,46.515,121.669,47.249,113.624L47.503,110.809C47.92,106.183,44.508,102.095,39.881,101.678C35.255,101.261,31.167,104.673,30.75,109.299L30.497,112.104C29.688,120.971,29.482,123.897,29.571,127.211C29.73,133.13,31.152,137.442,35.465,140.335C39.868,143.297,44.443,142.865,50.297,140.59C53.577,139.316,56.399,137.919,65.026,133.441C72.447,129.59,79.076,127.494,84.272,127.494C88.917,127.494,92.683,123.729,92.683,119.084C92.683,114.438,88.917,110.673,84.272,110.673Z"/>
</g>
  <g id="Regular-L" transform="matrix(1.0,0.0,0.0,1.0,1378.8968744826157,1434.8426973011951)">  <path stroke-linejoin="round" fill="#000000" stroke-linecap="round" fill-opacity="1" stroke-dasharray="none" stroke="none" stroke-opacity="1" fill-rule="nonzero" stroke-miterlimit="4" stroke-width="2.25px" d="M84.272,125.855C100.241,125.855,105.592,125.72,111.594,124.913C119.735,123.818,125.563,121.42,130.163,116.815C134.763,112.219,137.162,106.392,138.257,98.25C139.064,92.249,139.199,86.897,139.199,70.928C139.199,54.959,139.064,49.607,138.257,43.606C137.162,35.464,134.763,29.637,130.159,25.037C125.563,20.436,119.735,18.038,111.594,16.943C105.592,16.136,100.241,16.001,84.272,16.001L60.194,16.001C44.226,16.001,38.874,16.136,32.872,16.943C24.731,18.038,18.904,20.436,14.303,25.041C9.703,29.637,7.304,35.464,6.209,43.606C5.402,49.607,5.267,54.959,5.267,70.928C5.267,86.897,5.402,92.249,6.209,98.25C7.304,106.392,9.703,112.219,14.307,116.819C19.373,121.893,25.854,124.271,35.458,125.209C39.18,125.573,42.493,122.85,42.856,119.128C43.22,115.406,40.497,112.093,36.775,111.73C30.011,111.069,26.371,109.733,23.886,107.244C19.609,102.971,18.811,97.037,18.811,70.928C18.811,44.819,19.609,38.885,23.88,34.618C28.152,30.342,34.085,29.544,60.194,29.544L84.272,29.544C110.381,29.544,116.315,30.342,120.582,34.614C124.858,38.885,125.656,44.819,125.656,70.928C125.656,97.037,124.858,102.971,120.586,107.238C116.315,111.514,110.381,112.312,84.272,112.312C80.532,112.312,77.5,115.344,77.5,119.084C77.5,122.824,80.532,125.855,84.272,125.855Z"/>
  <path fill-rule="nonzero" stroke-linejoin="round" fill-opacity="1" stroke-width="2.25px" stroke-opacity="1" stroke-miterlimit="4" stroke="none" fill="#000000" stroke-dasharray="none" stroke-linecap="round" d="M84.272,112.312C76.218,112.312,67.422,115.093,58.032,119.965C50.024,124.122,47.337,125.452,44.798,126.439C43.594,126.907,42.767,127.135,42.353,127.174C42.627,127.148,43.244,127.27,43.93,127.731C44.263,127.955,44.552,128.241,44.76,128.542C44.888,128.726,44.953,128.86,44.974,128.924C44.875,128.624,44.778,127.914,44.748,126.803C44.682,124.354,44.876,121.601,45.617,113.475L45.871,110.662C46.207,106.937,43.459,103.646,39.734,103.31C36.009,102.974,32.717,105.722,32.382,109.447L32.129,112.252C31.327,121.039,31.123,123.947,31.209,127.167C31.356,132.605,32.626,136.457,36.377,138.974C40.202,141.547,44.309,141.159,49.704,139.063C52.903,137.819,55.71,136.429,64.271,131.986C71.905,128.025,78.767,125.855,84.272,125.855C88.012,125.855,91.044,122.824,91.044,119.084C91.044,115.344,88.012,112.312,84.272,112.312Z"/>
</g>
  <g id="Light-L" transform="matrix(1.0,0.0,0.0,1.0,1082.1868744826158,1434.8426973011951)">  <path stroke-width="2.25px" stroke-miterlimit="4" stroke="none" stroke-linecap="round" fill-opacity="1" stroke-opacity="1" stroke-dasharray="none" fill-rule="nonzero" fill="#000000" stroke-linejoin="round" d="M84.272,124.727C100.18,124.727,105.513,124.592,111.443,123.795C119.36,122.73,124.962,120.424,129.365,116.017C133.768,111.618,136.074,106.016,137.138,98.1C137.936,92.17,138.071,86.836,138.071,70.928C138.071,55.02,137.936,49.687,137.138,43.756C136.074,35.84,133.768,30.238,129.361,25.835C124.962,21.432,119.36,19.126,111.443,18.062C105.513,17.264,100.18,17.129,84.272,17.129L60.194,17.129C44.286,17.129,38.953,17.264,33.023,18.062C25.106,19.126,19.504,21.432,15.102,25.839C10.698,30.238,8.393,35.84,7.328,43.756C6.53,49.687,6.396,55.02,6.396,70.928C6.396,86.836,6.53,92.17,7.328,98.1C8.393,106.016,10.698,111.618,15.105,116.021C19.956,120.879,26.2,123.171,35.568,124.086C38.67,124.389,41.43,122.12,41.733,119.018C42.036,115.916,39.767,113.156,36.665,112.853C29.664,112.169,25.788,110.746,23.087,108.041C18.494,103.452,17.682,97.415,17.682,70.928C17.682,44.441,18.494,38.404,23.082,33.819C27.67,29.228,33.707,28.416,60.194,28.416L84.272,28.416C110.759,28.416,116.796,29.228,121.381,33.816C125.972,38.404,126.784,44.441,126.784,70.928C126.784,97.415,125.972,103.452,121.384,108.037C116.796,112.628,110.759,113.44,84.272,113.44C81.155,113.44,78.629,115.967,78.629,119.084C78.629,122.2,81.155,124.727,84.272,124.727Z"/>
  <path stroke-linejoin="round" stroke-opacity="1" stroke-width="2.25px" stroke-linecap="round" fill-rule="nonzero" stroke-dasharray="none" stroke="none" stroke-miterlimit="4" fill-opacity="1" fill="#000000" d="M84.272,113.44C76.43,113.44,67.796,116.17,58.552,120.967C50.498,125.147,47.8,126.483,45.207,127.491C43.914,127.993,42.994,128.247,42.459,128.298C42.491,128.294,42.851,128.366,43.3,128.667C43.516,128.812,43.704,128.999,43.833,129.186C43.896,129.276,43.913,129.312,43.902,129.277C43.763,128.857,43.653,128.045,43.62,126.833C43.552,124.32,43.747,121.554,44.493,113.372L44.747,110.561C45.026,107.457,42.737,104.714,39.633,104.434C36.529,104.154,33.786,106.444,33.506,109.548L33.253,112.353C32.456,121.086,32.253,123.981,32.338,127.136C32.475,132.244,33.641,135.779,37.006,138.036C40.432,140.341,44.216,139.984,49.295,138.011C52.439,136.789,55.237,135.404,63.751,130.985C71.531,126.947,78.555,124.727,84.272,124.727C87.389,124.727,89.915,122.2,89.915,119.084C89.915,115.967,87.389,113.44,84.272,113.44Z"/>
</g>
  <g id="Thin-L" transform="matrix(1.0,0.0,0.0,1.0,785.4768744826159,1434.8426973011951)">  <path stroke-miterlimit="4" fill="#000000" stroke-width="2.25px" stroke-opacity="1" fill-opacity="1" fill-rule="nonzero" stroke-linecap="round" stroke-linejoin="round" stroke-dasharray="none" stroke="none" d="M84.272,123.598C100.12,123.598,105.434,123.464,111.293,122.676C118.984,121.642,124.361,119.428,128.566,115.22C132.772,111.017,134.985,105.641,136.02,97.949C136.808,92.09,136.942,86.776,136.942,70.928C136.942,55.08,136.808,49.766,136.02,43.907C134.985,36.216,132.772,30.839,128.564,26.634C124.361,22.428,118.984,20.215,111.293,19.18C105.434,18.392,100.12,18.258,84.272,18.258L60.194,18.258C44.347,18.258,39.032,18.392,33.173,19.18C25.482,20.215,20.105,22.428,15.9,26.636C11.694,30.839,9.481,36.216,8.446,43.907C7.658,49.766,7.524,55.08,7.524,70.928C7.524,86.776,7.658,92.09,8.446,97.949C9.481,105.641,11.694,111.017,15.903,115.222C20.539,119.866,26.547,122.071,35.678,122.963C38.159,123.205,40.367,121.39,40.61,118.909C40.852,116.427,39.037,114.219,36.556,113.976C29.318,113.269,25.205,111.76,22.288,108.839C17.379,103.934,16.553,97.793,16.553,70.928C16.553,44.063,17.379,37.922,22.285,33.021C27.188,28.113,33.33,27.287,60.194,27.287L84.272,27.287C111.137,27.287,117.278,28.113,122.179,33.018C127.087,37.922,127.913,44.063,127.913,70.928C127.913,97.793,127.087,103.934,122.182,108.835C117.278,113.743,111.137,114.569,84.272,114.569C81.779,114.569,79.757,116.59,79.757,119.084C79.757,121.577,81.779,123.598,84.272,123.598Z"/>
  <path fill="#000000" stroke-opacity="1" fill-rule="nonzero" stroke-miterlimit="4" fill-opacity="1" stroke-width="2.25px" stroke-linejoin="round" stroke-dasharray="none" stroke-linecap="round" stroke="none" d="M84.272,114.569C76.643,114.569,68.169,117.248,59.072,121.969C50.972,126.173,48.264,127.513,45.616,128.543C44.234,129.08,43.22,129.359,42.565,129.421C42.39,129.438,42.298,129.435,42.284,129.432C42.388,129.452,42.53,129.51,42.67,129.604C42.769,129.67,42.856,129.757,42.906,129.829C42.903,129.825,42.874,129.764,42.83,129.631C42.652,129.09,42.527,128.176,42.492,126.864C42.423,124.286,42.618,121.507,43.369,113.27L43.623,110.46C43.846,107.976,42.015,105.782,39.532,105.558C37.048,105.334,34.854,107.166,34.63,109.649L34.377,112.454C33.585,121.132,33.383,124.015,33.466,127.106C33.594,131.882,34.655,135.101,37.635,137.099C40.663,139.136,44.124,138.809,48.886,136.959C51.976,135.758,54.763,134.378,63.231,129.983C71.158,125.87,78.342,123.598,84.272,123.598C86.765,123.598,88.787,121.577,88.787,119.084C88.787,116.59,86.765,114.569,84.272,114.569Z"/>
</g>
  <g id="Ultralight-L" transform="matrix(1.0,0.0,0.0,1.0,488.7668744826159,1434.8426973011951)">  <path fill-opacity="1" stroke-dasharray="none" fill-rule="nonzero" stroke-linejoin="round" fill="#000000" stroke="none" stroke-miterlimit="4" stroke-width="2.25px" stroke-opacity="1" stroke-linecap="round" d="M84.272,122.469C100.059,122.469,105.355,122.336,111.143,121.557C118.609,120.553,123.761,118.433,127.768,114.422C131.777,110.417,133.897,105.265,134.901,97.799C135.68,92.011,135.813,86.715,135.813,70.928C135.813,55.141,135.68,49.845,134.901,44.057C133.897,36.591,131.777,31.439,127.766,27.432C123.761,23.423,118.609,21.303,111.143,20.299C105.355,19.52,100.059,19.387,84.272,19.387L60.194,19.387C44.407,19.387,39.111,19.52,33.324,20.299C25.857,21.303,20.706,23.423,16.698,27.434C12.69,31.439,10.569,36.591,9.565,44.057C8.787,49.845,8.653,55.141,8.653,70.928C8.653,86.715,8.787,92.011,9.565,97.799C10.569,105.265,12.69,110.417,16.7,114.424C21.122,118.853,26.893,120.971,35.787,121.839C37.648,122.021,39.305,120.66,39.486,118.799C39.668,116.938,38.307,115.281,36.446,115.1C28.972,114.369,24.622,112.773,21.49,109.636C16.265,104.416,15.425,98.17,15.425,70.928C15.425,43.686,16.265,37.44,21.487,32.223C26.706,26.998,32.952,26.158,60.194,26.158L84.272,26.158C111.514,26.158,117.76,26.998,122.977,32.22C128.201,37.44,129.041,43.686,129.041,70.928C129.041,98.17,128.201,104.416,122.979,109.634C117.76,114.858,111.514,115.698,84.272,115.698C82.402,115.698,80.886,117.214,80.886,119.084C80.886,120.954,82.402,122.469,84.272,122.469Z"/>
  <path stroke="none" fill="#000000" stroke-linejoin="round" stroke-miterlimit="4" stroke-linecap="round" fill-rule="nonzero" fill-opacity="1" stroke-dasharray="none" stroke-width="2.25px" stroke-opacity="1" d="M84.272,115.698C76.855,115.698,68.543,118.326,59.592,122.97C46.727,129.648,42.915,131.129,42.04,130.54C41.141,129.938,41.044,126.329,42.245,113.167L42.499,110.358C42.666,108.496,41.293,106.85,39.43,106.682C37.568,106.514,35.922,107.888,35.754,109.75L35.501,112.556C34.714,121.179,34.513,124.049,34.594,127.076C34.714,131.521,35.67,134.422,38.263,136.162C40.893,137.931,44.031,137.635,48.477,135.907C51.512,134.728,54.289,133.352,62.711,128.981C70.784,124.792,78.13,122.469,84.272,122.469C86.142,122.469,87.658,120.954,87.658,119.084C87.658,117.214,86.142,115.698,84.272,115.698Z"/>
</g>
  <g id="Black-M" transform="matrix(1.0,0.0,0.0,1.0,2878.6853290562913,1024.15969222113)">  <path stroke-miterlimit="4" stroke-opacity="1" stroke="none" stroke-width="2.25px" fill-rule="nonzero" fill-opacity="1" stroke-linecap="round" fill="#000000" stroke-linejoin="round" stroke-dasharray="none" d="M65.327,103.914C78.046,103.914,82.3,103.807,87.354,103.127C94.932,102.108,100.716,99.727,105.395,95.044C110.071,90.372,112.452,84.588,113.471,77.01C114.151,71.955,114.258,67.702,114.258,54.983C114.258,42.264,114.151,38.01,113.471,32.956C112.452,25.378,110.071,19.594,105.388,14.915C100.716,10.239,94.932,7.858,87.354,6.839C82.3,6.159,78.046,6.052,65.327,6.052L46.662,6.052C33.943,6.052,29.69,6.159,24.636,6.839C17.058,7.858,11.273,10.239,6.594,14.922C1.918,19.594,-0.463,25.378,-1.482,32.956C-2.162,38.01,-2.269,42.264,-2.269,54.983C-2.269,67.702,-2.162,71.955,-1.482,77.01C-0.463,84.588,1.918,90.372,6.601,95.051C11.735,100.193,18.092,102.526,26.869,103.383C33.246,104.006,38.921,99.342,39.544,92.965C40.167,86.588,35.502,80.913,29.125,80.29C25.214,79.908,23.725,79.362,23.011,78.647C21.474,77.111,20.934,73.097,20.934,54.983C20.934,36.869,21.474,32.855,23.001,31.329C24.534,29.794,28.548,29.255,46.662,29.255L65.327,29.255C83.441,29.255,87.455,29.794,88.981,31.322C90.516,32.855,91.056,36.869,91.056,54.983C91.056,73.097,90.516,77.111,88.988,78.637C87.455,80.172,83.441,80.711,65.327,80.711C58.92,80.711,53.726,85.906,53.726,92.313C53.726,98.72,58.92,103.914,65.327,103.914Z"/>
  <path stroke-dasharray="none" stroke-linecap="round" stroke="none" stroke-miterlimit="4" stroke-opacity="1" fill-opacity="1" stroke-width="2.25px" fill-rule="nonzero" stroke-linejoin="round" fill="#000000" d="M65.327,80.711C57.888,80.711,50.163,83.154,42.061,87.358C36.111,90.446,34.084,91.45,32.427,92.094C32.105,92.219,31.872,92.298,31.739,92.334C31.8,92.318,31.957,92.287,32.235,92.261C33.809,92.112,35.737,92.493,37.6,93.746C39.32,94.9,40.404,96.462,40.896,97.952C41,98.269,41.049,98.489,41.067,98.624C41.058,98.556,41.045,98.387,41.038,98.126C40.997,96.59,41.142,94.528,41.688,88.542L41.885,86.355C42.46,79.973,37.753,74.334,31.372,73.759C24.99,73.184,19.351,77.891,18.776,84.272L18.58,86.447C17.93,93.565,17.767,95.892,17.844,98.749C17.907,101.112,18.19,103.185,18.86,105.218C19.893,108.35,21.789,111.08,24.661,113.007C27.65,115.017,31.015,115.682,34.415,115.361C36.537,115.161,38.571,114.599,40.831,113.721C43.621,112.637,45.853,111.531,52.749,107.953C57.842,105.309,62.255,103.914,65.327,103.914C71.734,103.914,76.929,98.72,76.929,92.313C76.929,85.906,71.734,80.711,65.327,80.711Z"/>
</g>
  <g id="Heavy-M" transform="matrix(1.0,0.0,0.0,1.0,2581.9753290562912,1024.15969222113)">  <path stroke-opacity="1" stroke-miterlimit="4" stroke="none" fill-opacity="1" fill-rule="nonzero" stroke-linejoin="round" stroke-linecap="round" fill="#000000" stroke-width="2.25px" stroke-dasharray="none" d="M65.327,102.644C77.978,102.644,82.211,102.537,87.184,101.868C94.509,100.883,100.04,98.606,104.496,94.146C108.95,89.696,111.227,84.165,112.212,76.84C112.881,71.866,112.988,67.634,112.988,54.983C112.988,42.332,112.881,38.099,112.212,33.126C111.227,25.801,108.95,20.27,104.49,15.814C100.04,11.36,94.509,9.083,87.184,8.098C82.211,7.429,77.978,7.322,65.327,7.322L46.662,7.322C34.011,7.322,29.779,7.429,24.805,8.098C17.48,9.083,11.95,11.36,7.493,15.82C3.039,20.27,0.762,25.801,-0.223,33.126C-0.892,38.099,-0.999,42.332,-0.999,54.983C-0.999,67.634,-0.892,71.866,-0.223,76.84C0.762,84.165,3.039,89.696,7.499,94.152C12.392,99.052,18.482,101.287,26.993,102.119C32.671,102.674,37.725,98.52,38.279,92.841C38.834,87.163,34.68,82.11,29.002,81.555C24.824,81.147,23.068,80.502,22.112,79.544C20.219,77.653,19.663,73.522,19.663,54.983C19.663,36.444,20.219,32.313,22.103,30.43C23.992,28.54,28.123,27.984,46.662,27.984L65.327,27.984C83.866,27.984,87.997,28.54,89.88,30.424C91.77,32.313,92.326,36.444,92.326,54.983C92.326,73.522,91.77,77.653,89.886,79.536C87.997,81.426,83.866,81.982,65.327,81.982C59.621,81.982,54.996,86.607,54.996,92.313C54.996,98.018,59.621,102.644,65.327,102.644Z"/>
  <path stroke="none" fill-opacity="1" stroke-opacity="1" stroke-miterlimit="4" stroke-linejoin="round" fill-rule="nonzero" stroke-dasharray="none" stroke-linecap="round" stroke-width="2.25px" fill="#000000" d="M65.327,81.982C58.127,81.982,50.583,84.367,42.646,88.486C36.645,91.6,34.606,92.61,32.887,93.278C32.527,93.418,32.255,93.51,32.077,93.559C32.071,93.561,32.156,93.544,32.354,93.525C33.656,93.403,35.294,93.726,36.89,94.8C38.36,95.786,39.281,97.113,39.689,98.35C39.768,98.588,39.8,98.733,39.808,98.795C39.792,98.679,39.776,98.465,39.768,98.16C39.725,96.551,39.871,94.475,40.423,88.427L40.62,86.241C41.132,80.558,36.94,75.536,31.258,75.024C25.575,74.512,20.553,78.703,20.041,84.386L19.845,86.561C19.201,93.617,19.039,95.93,19.114,98.715C19.267,104.423,20.722,108.835,25.369,111.952C28.093,113.784,31.168,114.391,34.296,114.096C36.282,113.909,38.211,113.376,40.371,112.537C43.099,111.477,45.32,110.377,52.163,106.825C57.422,104.096,62.016,102.644,65.327,102.644C71.033,102.644,75.658,98.018,75.658,92.313C75.658,86.607,71.033,81.982,65.327,81.982Z"/>
</g>
  <g id="Bold-M" transform="matrix(1.0,0.0,0.0,1.0,2285.265329056291,1024.15969222113)">  <path fill-opacity="1" fill="#000000" stroke-miterlimit="4" stroke-linejoin="round" fill-rule="nonzero" stroke="none" stroke-linecap="round" stroke-width="2.25px" stroke-opacity="1" stroke-dasharray="none" d="M65.327,101.373C77.91,101.373,82.122,101.267,87.015,100.609C94.086,99.658,99.364,97.486,103.598,93.248C107.83,89.02,110.002,83.742,110.953,76.671C111.611,71.778,111.718,67.566,111.718,54.983C111.718,42.4,111.611,38.188,110.953,33.295C110.002,26.224,107.83,20.946,103.592,16.712C99.364,12.48,94.086,10.308,87.015,9.357C82.122,8.699,77.91,8.592,65.327,8.592L46.662,8.592C34.079,8.592,29.868,8.699,24.974,9.357C17.903,10.308,12.626,12.48,8.392,16.718C4.16,20.946,1.987,26.224,1.036,33.295C0.378,38.188,0.272,42.4,0.272,54.983C0.272,67.566,0.378,71.778,1.036,76.671C1.987,83.742,4.16,89.02,8.397,93.254C13.048,97.912,18.872,100.049,27.116,100.855C32.097,101.341,36.528,97.698,37.015,92.718C37.502,87.737,33.859,83.306,28.878,82.819C24.434,82.385,22.412,81.643,21.213,80.442C18.964,78.195,18.393,73.947,18.393,54.983C18.393,36.019,18.964,31.77,21.205,29.531C23.45,27.285,27.698,26.714,46.662,26.714L65.327,26.714C84.291,26.714,88.54,27.285,90.779,29.526C93.025,31.77,93.596,36.019,93.596,54.983C93.596,73.947,93.025,78.195,90.784,80.434C88.54,82.681,84.291,83.252,65.327,83.252C60.323,83.252,56.266,87.309,56.266,92.313C56.266,97.317,60.323,101.373,65.327,101.373Z"/>
  <path stroke-linejoin="round" stroke-miterlimit="4" stroke-linecap="round" stroke="none" stroke-opacity="1" fill-opacity="1" fill="#000000" stroke-dasharray="none" fill-rule="nonzero" stroke-width="2.25px" d="M65.327,83.252C58.366,83.252,51.004,85.58,43.231,89.613C37.178,92.755,35.129,93.77,33.347,94.462C32.95,94.616,32.637,94.722,32.415,94.784C32.341,94.804,32.355,94.801,32.474,94.79C33.503,94.693,34.851,94.959,36.181,95.854C37.4,96.671,38.158,97.763,38.483,98.747C38.535,98.907,38.551,98.978,38.549,98.967C38.527,98.801,38.508,98.542,38.498,98.194C38.453,96.513,38.6,94.423,39.158,88.311L39.355,86.127C39.804,81.143,36.128,76.739,31.144,76.289C26.16,75.84,21.756,79.516,21.306,84.5L21.11,86.675C20.472,93.67,20.311,95.968,20.384,98.681C20.527,104.016,21.864,108.071,26.077,110.897C28.535,112.551,31.321,113.101,34.176,112.831C36.027,112.657,37.851,112.153,39.91,111.353C42.577,110.317,44.787,109.223,51.578,105.698C57.002,102.883,61.777,101.373,65.327,101.373C70.331,101.373,74.388,97.317,74.388,92.313C74.388,87.309,70.331,83.252,65.327,83.252Z"/>
</g>
  <g id="Semibold-M" transform="matrix(1.0,0.0,0.0,1.0,1988.5553290562914,1024.15969222113)">  <path fill-rule="nonzero" stroke-width="2.25px" stroke="none" stroke-linejoin="round" fill="#000000" fill-opacity="1" stroke-linecap="round" stroke-dasharray="none" stroke-opacity="1" stroke-miterlimit="4" d="M65.327,100.103C77.842,100.103,82.033,99.997,86.846,99.35C93.664,98.433,98.688,96.365,102.699,92.35C106.709,88.343,108.777,83.32,109.694,76.501C110.341,71.689,110.447,67.498,110.447,54.983C110.447,42.468,110.341,38.277,109.694,33.464C108.777,26.646,106.709,21.622,102.694,17.611C98.688,13.601,93.664,11.533,86.846,10.616C82.033,9.969,77.842,9.863,65.327,9.863L46.662,9.863C34.147,9.863,29.957,9.969,25.144,10.616C18.326,11.533,13.302,13.601,9.29,17.616C5.28,21.622,3.212,26.646,2.295,33.464C1.648,38.277,1.542,42.468,1.542,54.983C1.542,67.498,1.648,71.689,2.295,76.501C3.212,83.32,5.28,88.343,9.295,92.355C13.705,96.771,19.262,98.811,27.24,99.59C31.522,100.009,35.332,96.876,35.751,92.594C36.169,88.312,33.037,84.502,28.755,84.084C24.044,83.623,21.756,82.783,20.314,81.34C17.71,78.738,17.123,74.372,17.123,54.983C17.123,35.594,17.71,31.228,20.307,28.633C22.908,26.03,27.273,25.443,46.662,25.443L65.327,25.443C84.716,25.443,89.082,26.03,91.677,28.628C94.28,31.228,94.867,35.594,94.867,54.983C94.867,74.372,94.28,78.738,91.682,81.333C89.082,83.935,84.716,84.523,65.327,84.523C61.025,84.523,57.537,88.01,57.537,92.313C57.537,96.615,61.025,100.103,65.327,100.103Z"/>
  <path fill="#000000" fill-opacity="1" stroke-dasharray="none" fill-rule="nonzero" stroke-opacity="1" stroke-linecap="round" stroke-linejoin="round" stroke-miterlimit="4" stroke-width="2.25px" stroke="none" d="M65.327,84.523C58.605,84.523,51.424,86.793,43.816,90.741C37.711,93.909,35.651,94.93,33.807,95.646C33.372,95.815,33.02,95.935,32.753,96.008C32.612,96.047,32.554,96.059,32.593,96.055C32.849,96.031,33.189,96.042,33.609,96.125C34.238,96.25,34.881,96.51,35.472,96.908C36.44,97.557,37.035,98.414,37.276,99.145C37.303,99.226,37.302,99.222,37.291,99.139C37.261,98.924,37.239,98.62,37.228,98.229C37.181,96.475,37.329,94.37,37.892,88.196L38.089,86.013C38.475,81.728,35.315,77.941,31.03,77.555C26.745,77.168,22.958,80.329,22.572,84.614L22.376,86.789C21.743,93.723,21.583,96.006,21.653,98.647C21.787,103.609,23.006,107.308,26.784,109.841C30.646,112.44,34.556,112.071,39.45,110.169C42.055,109.157,44.253,108.068,50.993,104.57C56.581,101.67,61.538,100.103,65.327,100.103C69.63,100.103,73.117,96.615,73.117,92.313C73.117,88.01,69.63,84.523,65.327,84.523Z"/>
</g>
  <g id="Medium-M" transform="matrix(1.0,0.0,0.0,1.0,1691.8453290562913,1024.15969222113)">  <path stroke-opacity="1" stroke-miterlimit="4" fill-opacity="1" fill-rule="nonzero" stroke-dasharray="none" stroke-linecap="round" fill="#000000" stroke-linejoin="round" stroke-width="2.25px" stroke="none" d="M65.327,98.833C77.774,98.833,81.944,98.727,86.676,98.091C93.241,97.208,98.011,95.244,101.8,91.452C105.588,87.667,107.552,82.897,108.435,76.332C109.072,71.6,109.177,67.43,109.177,54.983C109.177,42.536,109.072,38.366,108.435,33.634C107.552,27.069,105.588,22.299,101.796,18.51C98.011,14.722,93.241,12.758,86.676,11.875C81.944,11.238,77.774,11.133,65.327,11.133L46.662,11.133C34.215,11.133,30.046,11.238,25.313,11.875C18.748,12.758,13.978,14.722,10.189,18.514C6.401,22.299,4.437,27.069,3.554,33.634C2.918,38.366,2.813,42.536,2.813,54.983C2.813,67.43,2.918,71.6,3.554,76.332C4.437,82.897,6.401,87.667,10.193,91.456C14.361,95.631,19.652,97.572,27.363,98.326C30.947,98.676,34.136,96.055,34.486,92.471C34.836,88.887,32.215,85.698,28.631,85.348C23.654,84.862,21.099,83.924,19.415,82.237C16.455,79.28,15.852,74.797,15.852,54.983C15.852,35.168,16.455,30.686,19.41,27.734C22.365,24.776,26.848,24.173,46.662,24.173L65.327,24.173C85.142,24.173,89.624,24.776,92.576,27.73C95.534,30.686,96.137,35.168,96.137,54.983C96.137,74.797,95.534,79.28,92.58,82.232C89.624,85.19,85.142,85.793,65.327,85.793C61.726,85.793,58.807,88.712,58.807,92.313C58.807,95.914,61.726,98.833,65.327,98.833Z"/>
  <path fill="#000000" stroke-dasharray="none" fill-opacity="1" stroke-width="2.25px" fill-rule="nonzero" stroke="none" stroke-linejoin="round" stroke-miterlimit="4" stroke-opacity="1" stroke-linecap="round" d="M65.327,85.793C58.844,85.793,51.845,88.006,44.401,91.869C38.245,95.064,36.173,96.09,34.267,96.83C33.795,97.014,33.402,97.147,33.091,97.233C32.882,97.29,32.753,97.316,32.712,97.32C33.197,97.274,33.965,97.426,34.763,97.962C35.48,98.443,35.912,99.065,36.07,99.543C36.038,99.446,35.979,99.011,35.958,98.263C35.909,96.437,36.058,94.317,36.627,88.081L36.824,85.899C37.147,82.312,34.502,79.143,30.916,78.82C27.329,78.497,24.16,81.142,23.837,84.728L23.641,86.903C23.014,93.776,22.854,96.045,22.923,98.613C23.047,103.202,24.149,106.544,27.492,108.786C30.905,111.083,34.452,110.748,38.99,108.985C41.533,107.997,43.72,106.914,50.408,103.443C56.161,100.457,61.299,98.833,65.327,98.833C68.928,98.833,71.847,95.914,71.847,92.313C71.847,88.712,68.928,85.793,65.327,85.793Z"/>
</g>
  <g id="Regular-M" transform="matrix(1.0,0.0,0.0,1.0,1395.1353290562913,1024.15969222113)">  <path stroke-linejoin="round" fill="#000000" stroke-linecap="round" fill-opacity="1" stroke-dasharray="none" stroke="none" stroke-opacity="1" fill-rule="nonzero" stroke-miterlimit="4" stroke-width="2.25px" d="M65.327,97.562C77.706,97.562,81.855,97.458,86.507,96.832C92.818,95.983,97.335,94.124,100.902,90.554C104.468,86.991,106.327,82.474,107.176,76.163C107.802,71.511,107.906,67.362,107.906,54.983C107.906,42.604,107.802,38.455,107.176,33.803C106.327,27.492,104.468,22.975,100.898,19.408C97.335,15.842,92.818,13.983,86.507,13.134C81.855,12.508,77.706,12.404,65.327,12.404L46.662,12.404C34.283,12.404,30.135,12.508,25.482,13.134C19.171,13.983,14.654,15.842,11.088,19.412C7.522,22.975,5.662,27.492,4.813,33.803C4.188,38.455,4.083,42.604,4.083,54.983C4.083,67.362,4.188,71.511,4.813,76.163C5.662,82.474,7.522,86.991,11.091,90.558C15.018,94.49,20.042,96.334,27.487,97.061C30.372,97.343,32.94,95.233,33.222,92.347C33.504,89.462,31.393,86.894,28.508,86.612C23.264,86.1,20.443,85.064,18.516,83.135C15.201,79.822,14.582,75.223,14.582,54.983C14.582,34.743,15.201,30.144,18.512,26.835C21.823,23.521,26.423,22.903,46.662,22.903L65.327,22.903C85.567,22.903,90.166,23.521,93.475,26.832C96.789,30.144,97.407,34.743,97.407,54.983C97.407,75.223,96.789,79.822,93.478,83.13C90.166,86.445,85.567,87.063,65.327,87.063C62.428,87.063,60.078,89.414,60.078,92.313C60.078,95.212,62.428,97.562,65.327,97.562Z"/>
  <path fill-rule="nonzero" stroke-linejoin="round" fill-opacity="1" stroke-width="2.25px" stroke-opacity="1" stroke-miterlimit="4" stroke="none" fill="#000000" stroke-dasharray="none" stroke-linecap="round" d="M65.327,87.063C59.084,87.063,52.265,89.219,44.986,92.996C38.778,96.218,36.695,97.25,34.727,98.014C33.793,98.377,33.153,98.554,32.832,98.584C33.044,98.564,33.523,98.659,34.054,99.016C34.313,99.19,34.536,99.412,34.698,99.645C34.797,99.788,34.847,99.891,34.863,99.941C34.787,99.708,34.712,99.158,34.689,98.297C34.638,96.399,34.787,94.264,35.362,87.965L35.559,85.785C35.819,82.897,33.689,80.345,30.802,80.085C27.914,79.825,25.362,81.955,25.102,84.842L24.906,87.017C24.284,93.828,24.126,96.083,24.193,98.579C24.307,102.795,25.291,105.781,28.2,107.731C31.164,109.726,34.348,109.426,38.53,107.801C41.01,106.837,43.186,105.759,49.822,102.315C55.74,99.244,61.06,97.562,65.327,97.562C68.226,97.562,70.577,95.212,70.577,92.313C70.577,89.414,68.226,87.063,65.327,87.063Z"/>
</g>
  <g id="Light-M" transform="matrix(1.0,0.0,0.0,1.0,1098.4253290562915,1024.15969222113)">  <path stroke-width="2.25px" stroke-miterlimit="4" stroke="none" stroke-linecap="round" fill-opacity="1" stroke-opacity="1" stroke-dasharray="none" fill-rule="nonzero" fill="#000000" stroke-linejoin="round" d="M65.327,96.687C77.659,96.687,81.793,96.583,86.39,95.965C92.527,95.139,96.87,93.352,100.283,89.936C103.696,86.526,105.483,82.183,106.309,76.046C106.927,71.449,107.031,67.315,107.031,54.983C107.031,42.651,106.927,38.517,106.309,33.92C105.483,27.783,103.696,23.44,100.28,20.027C96.87,16.614,92.527,14.827,86.39,14.001C81.793,13.383,77.659,13.279,65.327,13.279L46.662,13.279C34.33,13.279,30.196,13.383,25.599,14.001C19.462,14.827,15.12,16.614,11.707,20.03C8.293,23.44,6.506,27.783,5.681,33.92C5.062,38.517,4.958,42.651,4.958,54.983C4.958,67.315,5.062,71.449,5.681,76.046C6.506,82.183,8.293,86.526,11.709,89.939C15.47,93.705,20.31,95.481,27.572,96.191C29.977,96.426,32.116,94.667,32.351,92.262C32.586,89.858,30.827,87.718,28.423,87.483C22.996,86.953,19.991,85.85,17.897,83.753C14.336,80.196,13.707,75.515,13.707,54.983C13.707,34.45,14.336,29.77,17.893,26.217C21.45,22.657,26.13,22.028,46.662,22.028L65.327,22.028C85.86,22.028,90.54,22.657,94.093,26.214C97.653,29.77,98.282,34.45,98.282,54.983C98.282,75.515,97.653,80.196,94.096,83.749C90.54,87.309,85.86,87.938,65.327,87.938C62.911,87.938,60.953,89.897,60.953,92.313C60.953,94.729,62.911,96.687,65.327,96.687Z"/>
  <path stroke-linejoin="round" stroke-opacity="1" stroke-width="2.25px" stroke-linecap="round" fill-rule="nonzero" stroke-dasharray="none" stroke="none" stroke-miterlimit="4" fill-opacity="1" fill="#000000" d="M65.327,87.938C59.248,87.938,52.555,90.054,45.389,93.773C39.146,97.013,37.055,98.049,35.044,98.83C34.042,99.22,33.328,99.416,32.914,99.455C32.939,99.453,33.218,99.508,33.566,99.742C33.733,99.855,33.879,99.999,33.979,100.144C34.028,100.214,34.041,100.242,34.032,100.215C33.925,99.889,33.839,99.26,33.814,98.32C33.762,96.372,33.912,94.228,34.491,87.886L34.687,85.706C34.904,83.3,33.129,81.173,30.723,80.957C28.317,80.74,26.19,82.515,25.974,84.921L25.778,87.095C25.16,93.865,25.002,96.109,25.068,98.555C25.174,102.515,26.078,105.255,28.687,107.005C31.343,108.792,34.276,108.515,38.213,106.985C40.651,106.038,42.819,104.964,49.419,101.538C55.451,98.409,60.895,96.687,65.327,96.687C67.743,96.687,69.702,94.729,69.702,92.313C69.702,89.897,67.743,87.938,65.327,87.938Z"/>
</g>
  <g id="Thin-M" transform="matrix(1.0,0.0,0.0,1.0,801.7153290562915,1024.15969222113)">  <path stroke-miterlimit="4" fill="#000000" stroke-width="2.25px" stroke-opacity="1" fill-opacity="1" fill-rule="nonzero" stroke-linecap="round" stroke-linejoin="round" stroke-dasharray="none" stroke="none" d="M65.327,95.812C77.612,95.812,81.732,95.708,86.274,95.098C92.236,94.296,96.404,92.58,99.664,89.318C102.924,86.06,104.64,81.892,105.442,75.93C106.053,71.388,106.157,67.268,106.157,54.983C106.157,42.698,106.053,38.578,105.442,34.036C104.64,28.074,102.924,23.906,99.662,20.646C96.404,17.386,92.236,15.67,86.274,14.868C81.732,14.257,77.612,14.153,65.327,14.153L46.662,14.153C34.377,14.153,30.257,14.257,25.716,14.868C19.753,15.67,15.585,17.386,12.326,20.648C9.065,23.906,7.35,28.074,6.548,34.036C5.937,38.578,5.833,42.698,5.833,54.983C5.833,67.268,5.937,71.388,6.548,75.93C7.35,81.892,9.065,86.06,12.328,89.32C15.922,92.919,20.579,94.628,27.657,95.32C29.581,95.508,31.292,94.101,31.48,92.177C31.668,90.253,30.261,88.542,28.338,88.354C22.727,87.806,19.539,86.635,17.278,84.371C13.472,80.569,12.832,75.808,12.832,54.983C12.832,34.158,13.472,29.397,17.275,25.598C21.076,21.793,25.837,21.153,46.662,21.153L65.327,21.153C86.152,21.153,90.913,21.793,94.712,25.596C98.517,29.397,99.157,34.158,99.157,54.983C99.157,75.808,98.517,80.569,94.714,84.368C90.913,88.173,86.152,88.813,65.327,88.813C63.394,88.813,61.827,90.38,61.827,92.313C61.827,94.246,63.394,95.812,65.327,95.812Z"/>
  <path fill="#000000" stroke-opacity="1" fill-rule="nonzero" stroke-miterlimit="4" fill-opacity="1" stroke-width="2.25px" stroke-linejoin="round" stroke-dasharray="none" stroke-linecap="round" stroke="none" d="M65.327,88.813C59.413,88.813,52.844,90.89,45.792,94.549C39.513,97.808,37.414,98.848,35.361,99.645C34.29,100.062,33.504,100.279,32.996,100.326C32.86,100.339,32.789,100.337,32.778,100.335C32.859,100.351,32.969,100.396,33.077,100.468C33.154,100.52,33.222,100.587,33.261,100.643C33.258,100.64,33.236,100.592,33.202,100.489C33.063,100.069,32.967,99.361,32.939,98.344C32.886,96.346,33.037,94.192,33.62,87.806L33.816,85.628C33.989,83.703,32.57,82.001,30.645,81.828C28.72,81.654,27.018,83.074,26.845,84.999L26.649,87.174C26.035,93.901,25.878,96.135,25.943,98.532C26.042,102.234,26.865,104.729,29.174,106.278C31.521,107.857,34.204,107.604,37.896,106.17C40.291,105.239,42.452,104.169,49.016,100.762C55.161,97.573,60.73,95.812,65.327,95.812C67.26,95.812,68.827,94.246,68.827,92.313C68.827,90.38,67.26,88.813,65.327,88.813Z"/>
</g>
  <g id="Ultralight-M" transform="matrix(1.0,0.0,0.0,1.0,505.0053290562914,1024.15969222113)">  <path fill-opacity="1" stroke-dasharray="none" fill-rule="nonzero" stroke-linejoin="round" fill="#000000" stroke="none" stroke-miterlimit="4" stroke-width="2.25px" stroke-opacity="1" stroke-linecap="round" d="M65.327,94.938C77.565,94.938,81.671,94.834,86.157,94.231C91.945,93.452,95.938,91.808,99.045,88.699C102.152,85.594,103.796,81.601,104.575,75.813C105.178,71.327,105.282,67.221,105.282,54.983C105.282,42.745,105.178,38.639,104.575,34.153C103.796,28.365,102.152,24.372,99.043,21.265C95.938,18.158,91.945,16.514,86.157,15.735C81.671,15.132,77.565,15.028,65.327,15.028L46.662,15.028C34.424,15.028,30.319,15.132,25.832,15.735C20.044,16.514,16.051,18.158,12.944,21.267C9.837,24.372,8.193,28.365,7.415,34.153C6.811,38.639,6.708,42.745,6.708,54.983C6.708,67.221,6.811,71.327,7.415,75.813C8.193,81.601,9.837,85.594,12.946,88.701C16.374,92.134,20.847,93.776,27.742,94.449C29.185,94.59,30.469,93.535,30.61,92.092C30.751,90.649,29.695,89.365,28.253,89.225C22.459,88.659,19.086,87.421,16.659,84.989C12.608,80.943,11.957,76.101,11.957,54.983C11.957,33.865,12.608,29.023,16.656,24.979C20.703,20.929,25.544,20.278,46.662,20.278L65.327,20.278C86.445,20.278,91.287,20.929,95.331,24.977C99.381,29.023,100.032,33.865,100.032,54.983C100.032,76.101,99.381,80.943,95.333,84.987C91.287,89.037,86.445,89.688,65.327,89.688C63.878,89.688,62.702,90.863,62.702,92.313C62.702,93.762,63.878,94.938,65.327,94.938Z"/>
  <path stroke="none" fill="#000000" stroke-linejoin="round" stroke-miterlimit="4" stroke-linecap="round" fill-rule="nonzero" fill-opacity="1" stroke-dasharray="none" stroke-width="2.25px" stroke-opacity="1" d="M65.327,89.688C59.578,89.688,53.134,91.725,46.195,95.326C36.222,100.502,33.267,101.65,32.589,101.194C31.892,100.727,31.817,97.929,32.748,87.726L32.945,85.549C33.075,84.105,32.01,82.829,30.566,82.699C29.122,82.569,27.846,83.634,27.716,85.078L27.52,87.252C26.91,93.937,26.754,96.162,26.817,98.508C26.91,101.954,27.651,104.203,29.662,105.552C31.7,106.923,34.133,106.693,37.579,105.354C39.932,104.44,42.084,103.374,48.613,99.985C54.871,96.738,60.566,94.938,65.327,94.938C66.777,94.938,67.952,93.762,67.952,92.313C67.952,90.863,66.777,89.688,65.327,89.688Z"/>
</g>
  <g id="Black-S" transform="matrix(1.0,0.0,0.0,1.0,2890.836172651076,608.614133247426)">  <path stroke-miterlimit="4" stroke-opacity="1" stroke="none" stroke-width="2.25px" fill-rule="nonzero" fill-opacity="1" stroke-linecap="round" fill="#000000" stroke-linejoin="round" stroke-dasharray="none" d="M51.151,81.365C61.11,81.365,64.441,81.281,68.398,80.749C74.332,79.95,78.861,78.086,82.524,74.419C86.186,70.761,88.05,66.232,88.848,60.298C89.38,56.341,89.464,53.01,89.464,43.052C89.464,33.093,89.38,29.762,88.848,25.805C88.05,19.871,86.186,15.342,82.519,11.678C78.861,8.017,74.332,6.153,68.398,5.355C64.441,4.823,61.11,4.738,51.151,4.738L36.537,4.738C26.578,4.738,23.247,4.823,19.29,5.355C13.356,6.153,8.827,8.017,5.163,11.684C1.502,15.342,-0.362,19.871,-1.16,25.805C-1.693,29.762,-1.777,33.093,-1.777,43.052C-1.777,53.01,-1.693,56.341,-1.16,60.298C-0.362,66.232,1.502,70.761,5.169,74.425C9.189,78.451,14.166,80.278,21.039,80.949C26.032,81.437,30.475,77.785,30.963,72.791C31.451,67.798,27.798,63.355,22.805,62.867C19.742,62.568,18.577,62.14,18.018,61.58C16.814,60.378,16.391,57.235,16.391,43.052C16.391,28.869,16.814,25.725,18.01,24.53C19.21,23.329,22.353,22.906,36.537,22.906L51.151,22.906C65.334,22.906,68.477,23.329,69.672,24.525C70.874,25.725,71.296,28.869,71.296,43.052C71.296,57.235,70.874,60.378,69.678,61.573C68.477,62.774,65.334,63.197,51.151,63.197C46.134,63.197,42.067,67.264,42.067,72.281C42.067,77.298,46.134,81.365,51.151,81.365Z"/>
  <path stroke-dasharray="none" stroke-linecap="round" stroke="none" stroke-miterlimit="4" stroke-opacity="1" fill-opacity="1" stroke-width="2.25px" fill-rule="nonzero" stroke-linejoin="round" fill="#000000" d="M51.151,63.197C45.326,63.197,39.278,65.109,32.934,68.401C28.275,70.819,26.688,71.605,25.39,72.109C25.138,72.207,24.956,72.269,24.852,72.298C24.9,72.285,25.023,72.261,25.24,72.24C26.473,72.124,27.982,72.422,29.44,73.403C30.787,74.306,31.637,75.529,32.021,76.696C32.103,76.945,32.141,77.117,32.155,77.223C32.148,77.17,32.138,77.037,32.133,76.833C32.101,75.63,32.214,74.015,32.642,69.329L32.796,67.616C33.246,62.619,29.561,58.204,24.564,57.753C19.568,57.303,15.152,60.988,14.702,65.985L14.548,67.688C14.039,73.261,13.912,75.083,13.972,77.321C14.021,79.17,14.243,80.794,14.767,82.386C15.576,84.838,17.061,86.976,19.31,88.484C21.65,90.058,24.285,90.579,26.947,90.327C28.608,90.171,30.201,89.731,31.97,89.044C34.155,88.195,35.903,87.329,41.302,84.527C45.291,82.457,48.746,81.365,51.151,81.365C56.168,81.365,60.235,77.298,60.235,72.281C60.235,67.264,56.168,63.197,51.151,63.197Z"/>
</g>
  <g id="Heavy-S" transform="matrix(1.0,0.0,0.0,1.0,2594.126172651076,608.614133247426)">  <path stroke-opacity="1" stroke-miterlimit="4" stroke="none" fill-opacity="1" fill-rule="nonzero" stroke-linejoin="round" stroke-linecap="round" fill="#000000" stroke-width="2.25px" stroke-dasharray="none" d="M51.151,80.37C61.057,80.37,64.371,80.286,68.265,79.763C74.001,78.991,78.331,77.209,81.821,73.716C85.308,70.232,87.091,65.901,87.862,60.166C88.386,56.271,88.47,52.957,88.47,43.052C88.47,33.146,88.386,29.832,87.862,25.937C87.091,20.202,85.308,15.872,81.816,12.382C78.331,8.895,74.001,7.112,68.265,6.341C64.371,5.817,61.057,5.733,51.151,5.733L36.537,5.733C26.631,5.733,23.317,5.817,19.422,6.341C13.687,7.112,9.356,8.895,5.867,12.387C2.379,15.872,0.597,20.202,-0.174,25.937C-0.698,29.832,-0.782,33.146,-0.782,43.052C-0.782,52.957,-0.698,56.271,-0.174,60.166C0.597,65.901,2.379,70.232,5.872,73.721C9.703,77.558,14.471,79.308,21.135,79.959C25.582,80.393,29.538,77.141,29.973,72.695C30.407,68.248,27.155,64.292,22.708,63.857C19.437,63.538,18.063,63.033,17.314,62.283C15.832,60.802,15.396,57.568,15.396,43.052C15.396,28.536,15.832,25.301,17.307,23.827C18.786,22.347,22.021,21.912,36.537,21.912L51.151,21.912C65.667,21.912,68.902,22.347,70.376,23.822C71.856,25.301,72.291,28.536,72.291,43.052C72.291,57.568,71.856,60.802,70.381,62.276C68.902,63.757,65.667,64.192,51.151,64.192C46.684,64.192,43.062,67.813,43.062,72.281C43.062,76.748,46.684,80.37,51.151,80.37Z"/>
  <path stroke="none" fill-opacity="1" stroke-opacity="1" stroke-miterlimit="4" stroke-linejoin="round" fill-rule="nonzero" stroke-dasharray="none" stroke-linecap="round" stroke-width="2.25px" fill="#000000" d="M51.151,64.192C45.513,64.192,39.607,66.059,33.392,69.284C28.693,71.723,27.097,72.513,25.75,73.037C25.469,73.146,25.256,73.218,25.116,73.257C25.112,73.258,25.178,73.245,25.334,73.23C26.353,73.134,27.635,73.387,28.885,74.228C30.036,75,30.757,76.039,31.077,77.008C31.138,77.194,31.163,77.308,31.17,77.357C31.157,77.265,31.145,77.098,31.139,76.86C31.105,75.6,31.219,73.974,31.651,69.238L31.805,67.527C32.206,63.077,28.924,59.145,24.475,58.744C20.025,58.343,16.093,61.625,15.692,66.074L15.539,67.777C15.034,73.302,14.907,75.113,14.966,77.294C15.086,81.763,16.225,85.217,19.864,87.658C21.996,89.093,24.405,89.568,26.853,89.337C28.409,89.19,29.919,88.773,31.61,88.116C33.746,87.286,35.486,86.425,40.844,83.644C44.961,81.507,48.559,80.37,51.151,80.37C55.619,80.37,59.24,76.748,59.24,72.281C59.24,67.813,55.619,64.192,51.151,64.192Z"/>
</g>
  <g id="Bold-S" transform="matrix(1.0,0.0,0.0,1.0,2297.416172651076,608.614133247426)">  <path fill-opacity="1" fill="#000000" stroke-miterlimit="4" stroke-linejoin="round" fill-rule="nonzero" stroke="none" stroke-linecap="round" stroke-width="2.25px" stroke-opacity="1" stroke-dasharray="none" d="M51.151,79.375C61.003,79.375,64.301,79.292,68.133,78.777C73.67,78.032,77.802,76.331,81.117,73.013C84.431,69.702,86.132,65.57,86.876,60.033C87.392,56.202,87.475,52.904,87.475,43.052C87.475,33.199,87.392,29.902,86.876,26.07C86.132,20.533,84.431,16.401,81.113,13.086C77.802,9.772,73.67,8.071,68.133,7.326C64.301,6.811,61.003,6.728,51.151,6.728L36.537,6.728C26.684,6.728,23.386,6.811,19.555,7.326C14.018,8.071,9.886,9.772,6.571,13.09C3.257,16.401,1.556,20.533,0.811,26.07C0.296,29.902,0.213,33.199,0.213,43.052C0.213,52.904,0.296,56.202,0.811,60.033C1.556,65.57,3.257,69.702,6.575,73.018C10.217,76.665,14.777,78.338,21.232,78.969C25.132,79.35,28.602,76.498,28.983,72.598C29.364,68.698,26.511,65.228,22.612,64.847C19.132,64.507,17.549,63.926,16.61,62.986C14.849,61.227,14.402,57.901,14.402,43.052C14.402,28.203,14.849,24.876,16.604,23.123C18.361,21.364,21.688,20.917,36.537,20.917L51.151,20.917C66,20.917,69.326,21.364,71.08,23.119C72.838,24.876,73.286,28.203,73.286,43.052C73.286,57.901,72.838,61.227,71.084,62.98C69.326,64.739,66,65.186,51.151,65.186C47.233,65.186,44.057,68.363,44.057,72.281C44.057,76.199,47.233,79.375,51.151,79.375Z"/>
  <path stroke-linejoin="round" stroke-miterlimit="4" stroke-linecap="round" stroke="none" stroke-opacity="1" fill-opacity="1" fill="#000000" stroke-dasharray="none" fill-rule="nonzero" stroke-width="2.25px" d="M51.151,65.186C45.701,65.186,39.936,67.009,33.85,70.167C29.11,72.627,27.506,73.422,26.111,73.964C25.8,74.085,25.555,74.168,25.381,74.216C25.323,74.232,25.334,74.229,25.427,74.221C26.233,74.145,27.288,74.353,28.33,75.054C29.284,75.694,29.878,76.549,30.132,77.319C30.173,77.444,30.185,77.499,30.184,77.491C30.167,77.361,30.151,77.159,30.144,76.886C30.109,75.57,30.224,73.933,30.66,69.148L30.815,67.437C31.166,63.535,28.288,60.086,24.386,59.735C20.483,59.383,17.035,62.261,16.683,66.164L16.529,67.866C16.03,73.344,15.903,75.143,15.96,77.267C16.073,81.444,17.12,84.62,20.418,86.832C22.343,88.127,24.524,88.558,26.76,88.347C28.209,88.21,29.637,87.816,31.25,87.189C33.338,86.378,35.068,85.521,40.386,82.761C44.632,80.558,48.372,79.375,51.151,79.375C55.069,79.375,58.246,76.199,58.246,72.281C58.246,68.363,55.069,65.186,51.151,65.186Z"/>
</g>
  <g id="Semibold-S" transform="matrix(1.0,0.0,0.0,1.0,2000.706172651076,608.614133247426)">  <path fill-rule="nonzero" stroke-width="2.25px" stroke="none" stroke-linejoin="round" fill="#000000" fill-opacity="1" stroke-linecap="round" stroke-dasharray="none" stroke-opacity="1" stroke-miterlimit="4" d="M51.151,78.381C60.95,78.381,64.232,78.298,68,77.791C73.339,77.073,77.272,75.454,80.413,72.31C83.553,69.173,85.172,65.239,85.89,59.901C86.397,56.132,86.48,52.851,86.48,43.052C86.48,33.253,86.397,29.971,85.89,26.203C85.172,20.864,83.553,16.93,80.41,13.789C77.272,10.65,73.339,9.03,68,8.312C64.232,7.805,60.95,7.723,51.151,7.723L36.537,7.723C26.737,7.723,23.456,7.805,19.688,8.312C14.349,9.03,10.415,10.65,7.274,13.793C4.134,16.93,2.515,20.864,1.797,26.203C1.29,29.971,1.208,33.253,1.208,43.052C1.208,52.851,1.29,56.132,1.797,59.901C2.515,65.239,4.134,69.173,7.278,72.314C10.731,75.772,15.082,77.369,21.329,77.979C24.682,78.307,27.665,75.854,27.993,72.501C28.32,69.148,25.868,66.165,22.515,65.837C18.826,65.477,17.035,64.819,15.906,63.689C13.867,61.652,13.407,58.234,13.407,43.052C13.407,27.87,13.867,24.452,15.901,22.419C17.937,20.382,21.355,19.922,36.537,19.922L51.151,19.922C66.333,19.922,69.751,20.382,71.783,22.416C73.821,24.452,74.281,27.87,74.281,43.052C74.281,58.234,73.821,61.652,71.787,63.684C69.751,65.721,66.333,66.181,51.151,66.181C47.782,66.181,45.051,68.912,45.051,72.281C45.051,75.65,47.782,78.381,51.151,78.381Z"/>
  <path fill="#000000" fill-opacity="1" stroke-dasharray="none" fill-rule="nonzero" stroke-opacity="1" stroke-linecap="round" stroke-linejoin="round" stroke-miterlimit="4" stroke-width="2.25px" stroke="none" d="M51.151,66.181C45.888,66.181,40.265,67.959,34.308,71.05C29.528,73.531,27.914,74.33,26.471,74.891C26.13,75.023,25.855,75.117,25.646,75.174C25.535,75.205,25.49,75.214,25.52,75.211C25.721,75.192,25.987,75.201,26.316,75.266C26.808,75.363,27.312,75.568,27.775,75.879C28.533,76.387,28.999,77.058,29.187,77.631C29.208,77.694,29.207,77.691,29.199,77.625C29.176,77.457,29.158,77.219,29.15,76.913C29.113,75.54,29.229,73.892,29.67,69.057L29.824,67.348C30.126,63.993,27.651,61.028,24.296,60.725C20.941,60.423,17.976,62.898,17.674,66.253L17.52,67.956C17.025,73.385,16.899,75.173,16.955,77.241C17.059,81.126,18.014,84.022,20.972,86.006C23.996,88.04,27.058,87.751,30.89,86.262C32.929,85.47,34.65,84.617,39.927,81.878C44.303,79.608,48.184,78.381,51.151,78.381C54.52,78.381,57.251,75.65,57.251,72.281C57.251,68.912,54.52,66.181,51.151,66.181Z"/>
</g>
  <g id="Medium-S" transform="matrix(1.0,0.0,0.0,1.0,1703.996172651076,608.614133247426)">  <path stroke-opacity="1" stroke-miterlimit="4" fill-opacity="1" fill-rule="nonzero" stroke-dasharray="none" stroke-linecap="round" fill="#000000" stroke-linejoin="round" stroke-width="2.25px" stroke="none" d="M51.151,77.386C60.897,77.386,64.162,77.304,67.867,76.805C73.008,76.114,76.743,74.576,79.71,71.607C82.676,68.644,84.213,64.908,84.905,59.768C85.403,56.062,85.485,52.798,85.485,43.052C85.485,33.306,85.403,30.041,84.905,26.335C84.213,21.195,82.676,17.46,79.707,14.493C76.743,11.527,73.008,9.989,67.867,9.298C64.162,8.8,60.897,8.717,51.151,8.717L36.537,8.717C26.791,8.717,23.526,8.8,19.82,9.298C14.68,9.989,10.945,11.527,7.978,14.496C5.012,17.46,3.474,21.195,2.783,26.335C2.285,30.041,2.202,33.306,2.202,43.052C2.202,52.798,2.285,56.062,2.783,59.768C3.474,64.908,5.012,68.644,7.981,71.61C11.245,74.879,15.387,76.399,21.426,76.989C24.232,77.263,26.729,75.211,27.003,72.405C27.277,69.599,25.224,67.102,22.418,66.827C18.521,66.447,16.521,65.712,15.202,64.392C12.884,62.076,12.412,58.566,12.412,43.052C12.412,27.537,12.884,24.027,15.198,21.716C17.512,19.4,21.022,18.927,36.537,18.927L51.151,18.927C66.666,18.927,70.176,19.4,72.487,21.713C74.803,24.027,75.275,27.537,75.275,43.052C75.275,58.566,74.803,62.076,72.49,64.387C70.176,66.704,66.666,67.176,51.151,67.176C48.332,67.176,46.046,69.461,46.046,72.281C46.046,75.1,48.332,77.386,51.151,77.386Z"/>
  <path fill="#000000" stroke-dasharray="none" fill-opacity="1" stroke-width="2.25px" fill-rule="nonzero" stroke="none" stroke-linejoin="round" stroke-miterlimit="4" stroke-opacity="1" stroke-linecap="round" d="M51.151,67.176C46.075,67.176,40.594,68.909,34.766,71.933C29.946,74.435,28.323,75.238,26.831,75.818C26.461,75.962,26.154,76.066,25.91,76.133C25.747,76.178,25.645,76.198,25.614,76.201C25.993,76.165,26.595,76.284,27.219,76.704C27.781,77.081,28.119,77.568,28.243,77.942C28.218,77.866,28.171,77.525,28.155,76.94C28.117,75.51,28.234,73.85,28.679,68.967L28.833,67.259C29.086,64.451,27.015,61.969,24.207,61.716C21.399,61.463,18.917,63.534,18.664,66.342L18.511,68.045C18.02,73.426,17.895,75.203,17.949,77.214C18.046,80.807,18.909,83.424,21.526,85.18C24.199,86.978,26.976,86.716,30.529,85.335C32.52,84.561,34.233,83.713,39.469,80.995C43.974,78.658,47.997,77.386,51.151,77.386C53.971,77.386,56.256,75.1,56.256,72.281C56.256,69.461,53.971,67.176,51.151,67.176Z"/>
</g>
  <g id="Regular-S" transform="matrix(1.0,0.0,0.0,1.0,1407.286172651076,608.614133247426)">  <path stroke-linejoin="round" fill="#000000" stroke-linecap="round" fill-opacity="1" stroke-dasharray="none" stroke="none" stroke-opacity="1" fill-rule="nonzero" stroke-miterlimit="4" stroke-width="2.25px" d="M51.151,76.391C60.844,76.391,64.092,76.309,67.735,75.819C72.677,75.155,76.214,73.699,79.006,70.904C81.798,68.114,83.254,64.577,83.919,59.635C84.409,55.993,84.491,52.744,84.491,43.052C84.491,33.359,84.409,30.111,83.919,26.468C83.254,21.526,81.798,17.989,79.003,15.197C76.214,12.404,72.677,10.949,67.735,10.284C64.092,9.794,60.844,9.712,51.151,9.712L36.537,9.712C26.844,9.712,23.595,9.794,19.953,10.284C15.011,10.949,11.474,12.404,8.682,15.199C5.889,17.989,4.434,21.526,3.769,26.468C3.279,30.111,3.197,33.359,3.197,43.052C3.197,52.744,3.279,55.993,3.769,59.635C4.434,64.577,5.889,68.114,8.684,70.907C11.759,73.986,15.693,75.43,21.522,75.999C23.782,76.22,25.792,74.567,26.013,72.308C26.234,70.049,24.581,68.038,22.322,67.817C18.216,67.416,16.007,66.605,14.498,65.095C11.902,62.501,11.418,58.899,11.418,43.052C11.418,27.204,11.902,23.603,14.495,21.012C17.087,18.417,20.689,17.933,36.537,17.933L51.151,17.933C66.999,17.933,70.6,18.417,73.191,21.01C75.786,23.603,76.27,27.204,76.27,43.052C76.27,58.899,75.786,62.501,73.193,65.091C70.6,67.686,66.999,68.171,51.151,68.171C48.881,68.171,47.041,70.011,47.041,72.281C47.041,74.551,48.881,76.391,51.151,76.391Z"/>
  <path fill-rule="nonzero" stroke-linejoin="round" fill-opacity="1" stroke-width="2.25px" stroke-opacity="1" stroke-miterlimit="4" stroke="none" fill="#000000" stroke-dasharray="none" stroke-linecap="round" d="M51.151,68.171C46.262,68.171,40.924,69.858,35.224,72.816C30.363,75.339,28.732,76.147,27.191,76.745C26.46,77.029,25.959,77.168,25.707,77.192C25.874,77.176,26.248,77.25,26.664,77.53C26.867,77.665,27.042,77.839,27.168,78.022C27.246,78.134,27.285,78.215,27.298,78.254C27.238,78.072,27.179,77.641,27.161,76.966C27.121,75.48,27.238,73.809,27.689,68.877L27.843,67.169C28.046,64.908,26.379,62.91,24.118,62.707C21.857,62.503,19.859,64.171,19.655,66.431L19.502,68.134C19.015,73.468,18.891,75.233,18.943,77.187C19.032,80.488,19.803,82.826,22.08,84.354C24.402,85.916,26.894,85.68,30.169,84.408C32.111,83.653,33.815,82.809,39.011,80.113C43.645,77.708,47.81,76.391,51.151,76.391C53.421,76.391,55.261,74.551,55.261,72.281C55.261,70.011,53.421,68.171,51.151,68.171Z"/>
</g>
  <g id="Light-S" transform="matrix(1.0,0.0,0.0,1.0,1110.5761726510761,608.614133247426)">  <path stroke-width="2.25px" stroke-miterlimit="4" stroke="none" stroke-linecap="round" fill-opacity="1" stroke-opacity="1" stroke-dasharray="none" fill-rule="nonzero" fill="#000000" stroke-linejoin="round" d="M51.151,75.706C60.807,75.706,64.044,75.625,67.644,75.14C72.449,74.494,75.849,73.095,78.521,70.42C81.194,67.75,82.594,64.349,83.24,59.544C83.724,55.945,83.806,52.708,83.806,43.052C83.806,33.396,83.724,30.159,83.24,26.559C82.594,21.754,81.194,18.354,78.519,15.681C75.849,13.009,72.449,11.609,67.644,10.963C64.044,10.479,60.807,10.397,51.151,10.397L36.537,10.397C26.881,10.397,23.643,10.479,20.044,10.963C15.239,11.609,11.839,13.009,9.166,15.683C6.494,18.354,5.094,21.754,4.448,26.559C3.964,30.159,3.882,33.396,3.882,43.052C3.882,52.708,3.964,55.945,4.448,59.544C5.094,64.349,6.494,67.75,9.168,70.422C12.113,73.371,15.903,74.762,21.589,75.317C23.472,75.501,25.147,74.124,25.331,72.241C25.515,70.359,24.138,68.683,22.255,68.499C18.006,68.084,15.653,67.221,14.013,65.579C11.225,62.793,10.733,59.129,10.733,43.052C10.733,26.975,11.225,23.31,14.01,20.528C16.795,17.741,20.46,17.248,36.537,17.248L51.151,17.248C67.228,17.248,70.893,17.741,73.675,20.525C76.462,23.31,76.955,26.975,76.955,43.052C76.955,59.129,76.462,62.793,73.677,65.576C70.893,68.363,67.228,68.856,51.151,68.856C49.259,68.856,47.726,70.389,47.726,72.281C47.726,74.173,49.259,75.706,51.151,75.706Z"/>
  <path stroke-linejoin="round" stroke-opacity="1" stroke-width="2.25px" stroke-linecap="round" fill-rule="nonzero" stroke-dasharray="none" stroke="none" stroke-miterlimit="4" fill-opacity="1" fill="#000000" d="M51.151,68.856C46.391,68.856,41.15,70.513,35.54,73.424C30.651,75.961,29.014,76.772,27.44,77.384C26.655,77.689,26.096,77.843,25.772,77.874C25.791,77.872,26.01,77.915,26.282,78.098C26.413,78.186,26.527,78.299,26.606,78.413C26.644,78.467,26.654,78.489,26.647,78.468C26.563,78.213,26.496,77.72,26.476,76.985C26.435,75.46,26.553,73.781,27.006,68.814L27.16,67.108C27.33,65.224,25.94,63.559,24.056,63.389C22.172,63.219,20.507,64.609,20.337,66.493L20.184,68.196C19.7,73.496,19.577,75.253,19.628,77.169C19.711,80.269,20.419,82.415,22.462,83.785C24.542,85.184,26.838,84.967,29.921,83.769C31.83,83.028,33.527,82.187,38.695,79.505C43.418,77.054,47.681,75.706,51.151,75.706C53.043,75.706,54.576,74.173,54.576,72.281C54.576,70.389,53.043,68.856,51.151,68.856Z"/>
</g>
  <g id="Thin-S" transform="matrix(1.0,0.0,0.0,1.0,813.8661726510762,608.614133247426)">  <path stroke-miterlimit="4" fill="#000000" stroke-width="2.25px" stroke-opacity="1" fill-opacity="1" fill-rule="nonzero" stroke-linecap="round" stroke-linejoin="round" stroke-dasharray="none" stroke="none" d="M51.151,75.021C60.77,75.021,63.996,74.94,67.552,74.461C72.221,73.834,75.484,72.49,78.037,69.936C80.59,67.385,81.933,64.121,82.561,59.453C83.039,55.897,83.121,52.671,83.121,43.052C83.121,33.432,83.039,30.207,82.561,26.65C81.933,21.982,80.59,18.718,78.035,16.166C75.484,13.613,72.221,12.27,67.552,11.642C63.996,11.164,60.77,11.082,51.151,11.082L36.537,11.082C26.917,11.082,23.691,11.164,20.135,11.642C15.467,12.27,12.203,13.613,9.651,16.168C7.098,18.718,5.755,21.982,5.127,26.65C4.648,30.207,4.567,33.432,4.567,43.052C4.567,52.671,4.649,55.897,5.127,59.453C5.755,64.121,7.098,67.385,9.653,69.937C12.467,72.756,16.113,74.094,21.655,74.636C23.162,74.783,24.502,73.681,24.649,72.175C24.796,70.668,23.695,69.328,22.188,69.181C17.795,68.752,15.299,67.836,13.529,66.063C10.549,63.086,10.048,59.358,10.048,43.052C10.048,26.745,10.549,23.018,13.526,20.043C16.503,17.064,20.23,16.563,36.537,16.563L51.151,16.563C67.457,16.563,71.185,17.064,74.16,20.041C77.139,23.018,77.64,26.745,77.64,43.052C77.64,59.358,77.139,63.086,74.161,66.06C71.185,69.039,67.457,69.541,51.151,69.541C49.638,69.541,48.411,70.768,48.411,72.281C48.411,73.794,49.638,75.021,51.151,75.021Z"/>
  <path fill="#000000" stroke-opacity="1" fill-rule="nonzero" stroke-miterlimit="4" fill-opacity="1" stroke-width="2.25px" stroke-linejoin="round" stroke-dasharray="none" stroke-linecap="round" stroke="none" d="M51.151,69.541C46.52,69.541,41.377,71.167,35.855,74.032C30.939,76.584,29.295,77.398,27.688,78.022C26.849,78.348,26.234,78.518,25.836,78.556C25.73,78.566,25.674,78.564,25.665,78.562C25.728,78.575,25.815,78.61,25.899,78.666C25.96,78.707,26.013,78.759,26.043,78.803C26.041,78.801,26.024,78.764,25.997,78.683C25.889,78.354,25.813,77.8,25.792,77.003C25.749,75.439,25.868,73.752,26.324,68.752L26.478,67.046C26.614,65.539,25.502,64.207,23.995,64.071C22.487,63.935,21.155,65.047,21.02,66.554L20.866,68.257C20.385,73.525,20.263,75.274,20.313,77.15C20.391,80.049,21.035,82.003,22.843,83.216C24.681,84.452,26.782,84.254,29.673,83.131C31.548,82.402,33.24,81.564,38.38,78.897C43.191,76.4,47.552,75.021,51.151,75.021C52.665,75.021,53.891,73.794,53.891,72.281C53.891,70.768,52.665,69.541,51.151,69.541Z"/>
</g>
  <g id="Ultralight-S" transform="matrix(1.0,0.0,0.0,1.0,517.1561726510762,608.614133247426)">  <path fill-opacity="1" stroke-dasharray="none" fill-rule="nonzero" stroke-linejoin="round" fill="#000000" stroke="none" stroke-miterlimit="4" stroke-width="2.25px" stroke-opacity="1" stroke-linecap="round" d="M51.151,74.336C60.734,74.336,63.948,74.255,67.461,73.783C71.993,73.173,75.12,71.886,77.552,69.451C79.985,67.02,81.272,63.893,81.882,59.362C82.354,55.849,82.436,52.634,82.436,43.052C82.436,33.469,82.354,30.255,81.882,26.742C81.272,22.21,79.985,19.083,77.551,16.651C75.12,14.217,71.993,12.93,67.461,12.321C63.948,11.848,60.734,11.767,51.151,11.767L36.537,11.767C26.954,11.767,23.739,11.848,20.227,12.321C15.695,12.93,12.568,14.217,10.136,16.652C7.702,19.083,6.415,22.21,5.806,26.742C5.333,30.255,5.252,33.469,5.252,43.052C5.252,52.634,5.333,55.849,5.806,59.362C6.415,63.893,7.702,67.02,10.137,69.453C12.821,72.141,16.323,73.426,21.722,73.954C22.852,74.064,23.857,73.238,23.967,72.108C24.078,70.978,23.251,69.973,22.122,69.863C17.585,69.42,14.945,68.451,13.044,66.547C9.872,63.378,9.362,59.587,9.362,43.052C9.362,26.516,9.872,22.725,13.042,19.558C16.21,16.387,20.001,15.878,36.537,15.878L51.151,15.878C67.687,15.878,71.477,16.387,74.644,19.557C77.815,22.725,78.325,26.516,78.325,43.052C78.325,59.587,77.815,63.378,74.646,66.545C71.477,69.716,67.687,70.226,51.151,70.226C50.016,70.226,49.096,71.146,49.096,72.281C49.096,73.416,50.016,74.336,51.151,74.336Z"/>
  <path stroke="none" fill="#000000" stroke-linejoin="round" stroke-miterlimit="4" stroke-linecap="round" fill-rule="nonzero" fill-opacity="1" stroke-dasharray="none" stroke-width="2.25px" stroke-opacity="1" d="M51.151,70.226C46.649,70.226,41.604,71.821,36.171,74.64C28.362,78.693,26.048,79.592,25.517,79.235C24.972,78.869,24.913,76.679,25.642,68.69L25.796,66.985C25.898,65.854,25.064,64.855,23.933,64.754C22.803,64.652,21.804,65.486,21.702,66.616L21.548,68.319C21.071,73.553,20.948,75.295,20.998,77.132C21.07,79.83,21.651,81.591,23.225,82.647C24.821,83.721,26.726,83.541,29.425,82.492C31.266,81.777,32.952,80.942,38.064,78.288C42.964,75.746,47.423,74.336,51.151,74.336C52.286,74.336,53.206,73.416,53.206,72.281C53.206,71.146,52.286,70.226,51.151,70.226Z"/>
</g>
 </g>
</svg>
