<?xml version="1.0" encoding="UTF-8"?>
<!-- Generator: CustomSymbols v2.6.2.41 by @serious_bret https://bretlester.com/app_content/CustomSymbols/ -->
<!-- Guides: Left/Right 0.0/0.0 Cap/Base 0.227/0.127 -->
<!-- Settings: RefScale 1.0 Min/Max Stroke Scales 0.5/2.21 -->
<!DOCTYPE svg
PUBLIC "-//W3C//DTD SVG 1.1//EN"
       "http://www.w3.org/Graphics/SVG/1.1/DTD/svg11.dtd">
<svg version="1.1" xmlns="http://www.w3.org/2000/svg" xmlns:xlink="http://www.w3.org/1999/xlink" width="3300" height="2200">
<![CDATA[<svg width="40" height="40" viewBox="0 0 40 40" fill="none" xmlns="http://www.w3.org/2000/svg">
<path d="M34.9501 1.66667H30.0501C28.6001 1.66667 27.5334 2.26667 27.0501 3.33334C26.7834 3.81667 26.6667 4.38334 26.6667 5.05V9.95C26.6667 12.0667 27.9334 13.3333 30.0501 13.3333H34.9501C35.6167 13.3333 36.1834 13.2167 36.6667 12.95C37.7334 12.4667 38.3334 11.4 38.3334 9.95V5.05C38.3334 2.93334 37.0667 1.66667 34.9501 1.66667ZM36.5167 8.21667C36.3501 8.38334 36.1001 8.50001 35.8334 8.51667H33.4834V9.36667L33.5001 10.8333C33.4834 11.1167 33.3834 11.35 33.1834 11.55C33.0167 11.7167 32.7667 11.8333 32.5001 11.8333C31.9501 11.8333 31.5001 11.3833 31.5001 10.8333V8.5L29.1667 8.51667C28.6167 8.51667 28.1667 8.05 28.1667 7.5C28.1667 6.95 28.6167 6.50001 29.1667 6.50001L30.6334 6.51667H31.5001V4.18334C31.5001 3.63334 31.9501 3.16667 32.5001 3.16667C33.0501 3.16667 33.5001 3.63334 33.5001 4.18334L33.4834 5.36667V6.50001H35.8334C36.3834 6.50001 36.8334 6.95 36.8334 7.5C36.8167 7.78334 36.7001 8.01667 36.5167 8.21667Z" fill="#B30000"/>
<path d="M15.0001 17.3C17.1908 17.3 18.9668 15.5241 18.9668 13.3333C18.9668 11.1426 17.1908 9.36667 15.0001 9.36667C12.8094 9.36667 11.0334 11.1426 11.0334 13.3333C11.0334 15.5241 12.8094 17.3 15.0001 17.3Z" fill="#B30000"/>
<path d="M34.9499 13.3333H34.1666V21.0167L33.9499 20.8333C32.6499 19.7167 30.5499 19.7167 29.2499 20.8333L22.3166 26.7833C21.0166 27.9 18.9166 27.9 17.6166 26.7833L17.0499 26.3167C15.8666 25.2833 13.9833 25.1833 12.6499 26.0833L6.41659 30.2667C6.04992 29.3333 5.83325 28.25 5.83325 26.9833V13.0167C5.83325 8.31668 8.31659 5.83334 13.0166 5.83334H26.6666V5.05001C26.6666 4.38334 26.7833 3.81668 27.0499 3.33334H13.0166C6.94992 3.33334 3.33325 6.95001 3.33325 13.0167V26.9833C3.33325 28.8 3.64992 30.3833 4.26659 31.7167C5.69992 34.8833 8.76659 36.6667 13.0166 36.6667H26.9833C33.0499 36.6667 36.6666 33.05 36.6666 26.9833V12.95C36.1833 13.2167 35.6166 13.3333 34.9499 13.3333Z" fill="#B30000"/>
</svg>
]]>
 <g id="Notes">
  <rect height="2200" id="artboard" style="fill:white;opacity:1" width="3300" x="0" y="0"/>
  <line id="" style="fill:none;stroke:black;opacity:1;stroke-width:0.5;" x1="263" x2="3036" y1="292" y2="292"/>
  <text id="reftext1" style="stroke:none;fill:black;font-family:-apple-system,&quot;SF Pro Display&quot;,&quot;SF Pro Text&quot;,Helvetica,sans-serif;font-weight:bold;" transform="matrix(1 0 0 1 263 322)">Weight/Scale Variations</text>
  <text id="reftext2" style="stroke:none;fill:black;font-family:-apple-system,&quot;SF Pro Display&quot;,&quot;SF Pro Text&quot;,Helvetica,sans-serif;text-anchor:middle;" transform="matrix(1 0 0 1 559.711 322)">Ultralight</text>
  <text style="stroke:none;fill:black;font-family:-apple-system,&quot;SF Pro Display&quot;,&quot;SF Pro Text&quot;,Helvetica,sans-serif;text-anchor:middle;" transform="matrix(1 0 0 1 856.422 322)">Thin</text>
  <text style="stroke:none;fill:black;font-family:-apple-system,&quot;SF Pro Display&quot;,&quot;SF Pro Text&quot;,Helvetica,sans-serif;text-anchor:middle;" transform="matrix(1 0 0 1 1153.13 322)">Light</text>
  <text style="stroke:none;fill:black;font-family:-apple-system,&quot;SF Pro Display&quot;,&quot;SF Pro Text&quot;,Helvetica,sans-serif;text-anchor:middle;" transform="matrix(1 0 0 1 1449.84 322)">Regular</text>
  <text style="stroke:none;fill:black;font-family:-apple-system,&quot;SF Pro Display&quot;,&quot;SF Pro Text&quot;,Helvetica,sans-serif;text-anchor:middle;" transform="matrix(1 0 0 1 1746.56 322)">Medium</text>
  <text style="stroke:none;fill:black;font-family:-apple-system,&quot;SF Pro Display&quot;,&quot;SF Pro Text&quot;,Helvetica,sans-serif;text-anchor:middle;" transform="matrix(1 0 0 1 2043.27 322)">Semibold</text>
  <text style="stroke:none;fill:black;font-family:-apple-system,&quot;SF Pro Display&quot;,&quot;SF Pro Text&quot;,Helvetica,sans-serif;text-anchor:middle;" transform="matrix(1 0 0 1 2339.98 322)">Bold</text>
  <text style="stroke:none;fill:black;font-family:-apple-system,&quot;SF Pro Display&quot;,&quot;SF Pro Text&quot;,Helvetica,sans-serif;text-anchor:middle;" transform="matrix(1 0 0 1 2636.69 322)">Heavy</text>
  <text style="stroke:none;fill:black;font-family:-apple-system,&quot;SF Pro Display&quot;,&quot;SF Pro Text&quot;,Helvetica,sans-serif;text-anchor:middle;" transform="matrix(1 0 0 1 2933.4 322)">Black</text>
  <line id="" style="fill:none;stroke:black;opacity:1;stroke-width:0.5;" x1="263" x2="3036" y1="1903" y2="1903"/>
  <g id="" transform="matrix(1 0 0 1 263 1933)">
   <path d="M9.24805 0.830078C13.5547 0.830078 17.1387-2.74414 17.1387-7.05078C17.1387-11.3574 13.5449-14.9316 9.23828-14.9316C4.94141-14.9316 1.36719-11.3574 1.36719-7.05078C1.36719-2.74414 4.95117 0.830078 9.24805 0.830078ZM9.24805-0.654297C5.70312-0.654297 2.87109-3.49609 2.87109-7.05078C2.87109-10.6055 5.69336-13.4473 9.23828-13.4473C12.793-13.4473 15.6348-10.6055 15.6445-7.05078C15.6543-3.49609 12.8027-0.654297 9.24805-0.654297ZM6.39648-6.31836L8.50586-6.31836L8.50586-4.19922C8.50586-3.75977 8.79883-3.45703 9.22852-3.45703C9.67773-3.45703 9.9707-3.75977 9.9707-4.19922L9.9707-6.31836L12.0996-6.31836C12.5391-6.31836 12.8418-6.61133 12.8418-7.04102C12.8418-7.48047 12.5391-7.7832 12.0996-7.7832L9.9707-7.7832L9.9707-9.89258C9.9707-10.3418 9.67773-10.6445 9.22852-10.6445C8.79883-10.6445 8.50586-10.3418 8.50586-9.89258L8.50586-7.7832L6.39648-7.7832C5.94727-7.7832 5.64453-7.48047 5.64453-7.04102C5.64453-6.61133 5.94727-6.31836 6.39648-6.31836Z"/>
  </g>
  <g id="" transform="matrix(1 0 0 1 281.506 1933)">
   <path d="M11.709 2.91016C17.1582 2.91016 21.6699-1.61133 21.6699-7.05078C21.6699-12.5 17.1484-17.0117 11.6992-17.0117C6.25977-17.0117 1.74805-12.5 1.74805-7.05078C1.74805-1.61133 6.26953 2.91016 11.709 2.91016ZM11.709 1.25C7.09961 1.25 3.41797-2.44141 3.41797-7.05078C3.41797-11.6602 7.08984-15.3516 11.6992-15.3516C16.3086-15.3516 20-11.6602 20.0098-7.05078C20.0195-2.44141 16.3184 1.25 11.709 1.25ZM7.98828-6.23047L10.8789-6.23047L10.8789-3.32031C10.8789-2.83203 11.2109-2.5 11.6895-2.5C12.1777-2.5 12.5195-2.83203 12.5195-3.32031L12.5195-6.23047L15.4297-6.23047C15.918-6.23047 16.25-6.5625 16.25-7.04102C16.25-7.5293 15.918-7.87109 15.4297-7.87109L12.5195-7.87109L12.5195-10.7617C12.5195-11.2695 12.1777-11.6016 11.6895-11.6016C11.2109-11.6016 10.8789-11.2598 10.8789-10.7617L10.8789-7.87109L7.98828-7.87109C7.48047-7.87109 7.14844-7.5293 7.14844-7.04102C7.14844-6.5625 7.49023-6.23047 7.98828-6.23047Z"/>
  </g>
  <g id="" transform="matrix(1 0 0 1 304.924 1933)">
   <path d="M14.9707 5.66406C21.9336 5.66406 27.6953-0.0976562 27.6953-7.05078C27.6953-14.0137 21.9238-19.7754 14.9609-19.7754C8.00781-19.7754 2.25586-14.0137 2.25586-7.05078C2.25586-0.0976562 8.01758 5.66406 14.9707 5.66406ZM14.9707 3.84766C8.93555 3.84766 4.08203-1.01562 4.08203-7.05078C4.08203-13.0957 8.92578-17.9492 14.9609-17.9492C21.0059-17.9492 25.8594-13.0957 25.8691-7.05078C25.8789-1.01562 21.0156 3.84766 14.9707 3.84766ZM10.0586-6.14258L14.0625-6.14258L14.0625-2.12891C14.0625-1.5918 14.4336-1.2207 14.9512-1.2207C15.4883-1.2207 15.8594-1.5918 15.8594-2.12891L15.8594-6.14258L19.8828-6.14258C20.4102-6.14258 20.791-6.51367 20.791-7.03125C20.791-7.56836 20.4199-7.94922 19.8828-7.94922L15.8594-7.94922L15.8594-11.9531C15.8594-12.5098 15.4883-12.8809 14.9512-12.8809C14.4336-12.8809 14.0625-12.5 14.0625-11.9531L14.0625-7.94922L10.0586-7.94922C9.50195-7.94922 9.13086-7.56836 9.13086-7.03125C9.13086-6.51367 9.51172-6.14258 10.0586-6.14258Z"/>
  </g>
  <text style="stroke:none;fill:black;font-family:-apple-system,&quot;SF Pro Display&quot;,&quot;SF Pro Text&quot;,Helvetica,sans-serif;font-weight:bold;" transform="matrix(1 0 0 1 263 1953)">Design Variations</text>
  <text style="stroke:none;fill:black;font-family:-apple-system,&quot;SF Pro Display&quot;,&quot;SF Pro Text&quot;,Helvetica,sans-serif;" transform="matrix(1 0 0 1 263 1971)">Symbols are supported in up to nine weights and three scales.</text>
  <text style="stroke:none;fill:black;font-family:-apple-system,&quot;SF Pro Display&quot;,&quot;SF Pro Text&quot;,Helvetica,sans-serif;" transform="matrix(1 0 0 1 263 1989)">For optimal layout with text and other symbols, vertically align</text>
  <text style="stroke:none;fill:black;font-family:-apple-system,&quot;SF Pro Display&quot;,&quot;SF Pro Text&quot;,Helvetica,sans-serif;" transform="matrix(1 0 0 1 263 2007)">symbols with the adjacent text.</text>
  <line id="" style="fill:none;stroke:#00AEEF;stroke-width:0.5;opacity:1.0;" x1="776" x2="776" y1="1919" y2="1933"/>
  <g id="" transform="matrix(1 0 0 1 776 1933)">
   <path d="M3.31055 0.126953C3.82812 0.126953 4.08203-0.0683594 4.26758-0.605469L5.52734-4.0625L11.2891-4.0625L12.5488-0.605469C12.7344-0.0683594 12.9883 0.126953 13.4961 0.126953C14.0137 0.126953 14.3457-0.185547 14.3457-0.673828C14.3457-0.839844 14.3164-0.986328 14.2383-1.20117L9.6582-13.3887C9.43359-13.9941 9.0332-14.2871 8.4082-14.2871C7.80273-14.2871 7.39258-13.9941 7.17773-13.3984L2.59766-1.19141C2.51953-0.976562 2.49023-0.830078 2.49023-0.664062C2.49023-0.175781 2.80273 0.126953 3.31055 0.126953ZM6.00586-5.53711L8.37891-12.1094L8.42773-12.1094L10.8008-5.53711Z"/>
  </g>
  <line id="" style="fill:none;stroke:#00AEEF;stroke-width:0.5;opacity:1.0;" x1="792.836" x2="792.836" y1="1919" y2="1933"/>
  <text style="stroke:none;fill:black;font-family:-apple-system,&quot;SF Pro Display&quot;,&quot;SF Pro Text&quot;,Helvetica,sans-serif;font-weight:bold;" transform="matrix(1 0 0 1 776 1953)">Margins</text>
  <text style="stroke:none;fill:black;font-family:-apple-system,&quot;SF Pro Display&quot;,&quot;SF Pro Text&quot;,Helvetica,sans-serif;" transform="matrix(1 0 0 1 776 1971)">Leading and trailing margins on the left and right side of each symbol</text>
  <text style="stroke:none;fill:black;font-family:-apple-system,&quot;SF Pro Display&quot;,&quot;SF Pro Text&quot;,Helvetica,sans-serif;" transform="matrix(1 0 0 1 776 1989)">can be adjusted by modifying the x-location of the margin guidelines.</text>
  <text style="stroke:none;fill:black;font-family:-apple-system,&quot;SF Pro Display&quot;,&quot;SF Pro Text&quot;,Helvetica,sans-serif;" transform="matrix(1 0 0 1 776 2007)">Modifications are automatically applied proportionally to all</text>
  <text style="stroke:none;fill:black;font-family:-apple-system,&quot;SF Pro Display&quot;,&quot;SF Pro Text&quot;,Helvetica,sans-serif;" transform="matrix(1 0 0 1 776 2025)">scales and weights.</text>
  <g id="" transform="matrix(1 0 0 1 1289 1933)">
   <path d="M2.8418 1.86523L4.54102 3.57422C5.40039 4.44336 6.38672 4.38477 7.31445 3.35938L17.4902-7.85156C17.7539-7.76367 18.0273-7.7832 18.3398-7.8418L19.4043-8.03711L20.0684-7.36328L20.0293-6.80664C19.9902-6.30859 20.1172-5.92773 20.6055-5.44922L21.3672-4.70703C21.8457-4.22852 22.4609-4.19922 22.9297-4.66797L25.8398-7.58789C26.3086-8.05664 26.2891-8.65234 25.8105-9.13086L25.0391-9.89258C24.5605-10.3711 24.1895-10.5273 23.7109-10.4883L23.1348-10.4395L22.4902-11.0742L22.7344-12.1973C22.8613-12.7637 22.7051-13.2031 22.1191-13.7891L19.9219-15.9766C16.582-19.2969 12.1484-19.2188 9.25781-16.3281C8.83789-15.918 8.80859-15.3418 9.04297-14.9512C9.27734-14.5898 9.73633-14.3555 10.3809-14.5215C11.8457-14.8633 13.3691-14.9219 14.7949-13.9844L14.209-12.5293C14.0137-12.0508 13.9844-11.6504 14.1113-11.2891L3.04688-0.898438C2.06055 0.0195312 1.98242 0.996094 2.8418 1.86523ZM10.752-15.957C13.1836-17.7344 16.4746-17.4316 18.7012-15.2051L21.1328-12.793C21.3672-12.5586 21.4062-12.373 21.3379-12.0312L21.0156-10.5469L22.5195-9.0625L23.5059-9.12109C23.7598-9.13086 23.8379-9.11133 24.0332-8.91602L24.6094-8.33984L22.168-5.89844L21.5918-6.47461C21.3965-6.66992 21.3672-6.74805 21.377-7.01172L21.4453-7.98828L19.9512-9.47266L18.4277-9.21875C18.1055-9.15039 17.959-9.17969 17.7148-9.41406L15.7129-11.416C15.459-11.6504 15.4297-11.8164 15.5859-12.1875L16.4648-14.2773C14.9023-15.7324 12.8711-16.3574 10.8398-15.7617C10.6836-15.7227 10.625-15.8496 10.752-15.957ZM5.27344 2.30469L4.10156 1.14258C3.63281 0.683594 3.74023 0.341797 4.14062-0.0195312L14.9512-10.1953L16.416-8.71094L6.42578 2.27539C6.07422 2.67578 5.74219 2.77344 5.27344 2.30469Z"/>
  </g>
  <text style="stroke:none;fill:black;font-family:-apple-system,&quot;SF Pro Display&quot;,&quot;SF Pro Text&quot;,Helvetica,sans-serif;font-weight:bold;" transform="matrix(1 0 0 1 1289 1953)">Exporting</text>
  <text style="stroke:none;fill:black;font-family:-apple-system,&quot;SF Pro Display&quot;,&quot;SF Pro Text&quot;,Helvetica,sans-serif;" transform="matrix(1 0 0 1 1289 1971)">Symbols should be outlined when exporting to ensure the</text>
  <text style="stroke:none;fill:black;font-family:-apple-system,&quot;SF Pro Display&quot;,&quot;SF Pro Text&quot;,Helvetica,sans-serif;" transform="matrix(1 0 0 1 1289 1989)">design is preserved when submitting to Xcode.</text>
  <text id="template-version" style="stroke:none;fill:black;font-family:-apple-system,&quot;SF Pro Display&quot;,&quot;SF Pro Text&quot;,Helvetica,sans-serif;text-anchor:end;" transform="matrix(1 0 0 1 3036 1933)">Template v.2.0</text>
  <text style="stroke:none;fill:black;font-family:-apple-system,&quot;SF Pro Display&quot;,&quot;SF Pro Text&quot;,Helvetica,sans-serif;text-anchor:end;" transform="matrix(1 0 0 1 3036 1951)">Requires Xcode 12 or greater</text>
  <text style="stroke:none;fill:black;font-family:-apple-system,&quot;SF Pro Display&quot;,&quot;SF Pro Text&quot;,Helvetica,sans-serif;" transform="matrix(1 0 0 1 263 726)">Small</text>
  <text style="stroke:none;fill:black;font-family:-apple-system,&quot;SF Pro Display&quot;,&quot;SF Pro Text&quot;,Helvetica,sans-serif;" transform="matrix(1 0 0 1 263 1156)">Medium</text>
  <text style="stroke:none;fill:black;font-family:-apple-system,&quot;SF Pro Display&quot;,&quot;SF Pro Text&quot;,Helvetica,sans-serif;" transform="matrix(1 0 0 1 263 1586)">Large</text>
 </g>
 <g id="Guides">
  <g id="H-reference" style="fill:#27AAE1;stroke:none;" transform="matrix(1 0 0 1 339 696)">
   <path d="M0.976562 0L3.66211 0L12.9883-24.4629L45.752-24.4629L55.127 0L57.7637 0L30.6152-70.459L28.125-70.459ZM29.3457-67.1387L29.4434-67.1387L44.873-26.709L13.8672-26.709Z"/>
  </g>
  <line id="Baseline-S" style="fill:none;stroke:#27AAE1;opacity:1;stroke-width:0.5;" x1="263" x2="3036" y1="696" y2="696"/>
  <line id="Capline-S" style="fill:none;stroke:#27AAE1;opacity:1;stroke-width:0.5;" x1="263" x2="3036" y1="625.541" y2="625.541"/>
  <g id="H-reference" style="fill:#27AAE1;stroke:none;" transform="matrix(1 0 0 1 339 1126)">
   <path d="M0.976562 0L3.66211 0L12.9883-24.4629L45.752-24.4629L55.127 0L57.7637 0L30.6152-70.459L28.125-70.459ZM29.3457-67.1387L29.4434-67.1387L44.873-26.709L13.8672-26.709Z"/>
  </g>
  <line id="Baseline-M" style="fill:none;stroke:#27AAE1;opacity:1;stroke-width:0.5;" x1="263" x2="3036" y1="1126" y2="1126"/>
  <line id="Capline-M" style="fill:none;stroke:#27AAE1;opacity:1;stroke-width:0.5;" x1="263" x2="3036" y1="1055.54" y2="1055.54"/>
  <g id="H-reference" style="fill:#27AAE1;stroke:none;" transform="matrix(1 0 0 1 339 1556)">
   <path d="M0.976562 0L3.66211 0L12.9883-24.4629L45.752-24.4629L55.127 0L57.7637 0L30.6152-70.459L28.125-70.459ZM29.3457-67.1387L29.4434-67.1387L44.873-26.709L13.8672-26.709Z"/>
  </g>
  <line id="Baseline-L" style="fill:none;stroke:#27AAE1;opacity:1;stroke-width:0.5;" x1="263" x2="3036" y1="1556" y2="1556"/>
  <line id="Capline-L" style="fill:none;stroke:#27AAE1;opacity:1;stroke-width:0.5;" x1="263" x2="3036" y1="1485.54" y2="1485.54"/>
  <line id="left-margin" x1="1396.5944265189628" x2="1396.5944265189628" y1="1030.79" y2="1150.12" style="fill:none;stroke:#00AEEF;stroke-width:0.5;opacity:1.0;"/>
  <line id="right-margin" x1="1505.665573481037" x2="1505.665573481037" y1="1030.79" y2="1150.12" style="fill:none;stroke:#00AEEF;stroke-width:0.5;opacity:1.0;"/>
 </g>
 <g id="Symbols">
  <g id="Black-L" transform="matrix(1.0,0.0,0.0,1.0,2864.3291102094618,1443.3840407616583)">  <path fill-rule="nonzero" stroke-dasharray="none" stroke-linejoin="miter" fill="#000000" stroke-width="1px" stroke-linecap="butt" fill-opacity="1" stroke-opacity="1" stroke="none" stroke-miterlimit="4" d="M122.939,5.863L105.703,5.863C100.602,5.863,96.85,7.973,95.15,11.725C94.212,13.425,93.801,15.419,93.801,17.764L93.801,35C93.801,42.445,98.257,46.9,105.703,46.9L122.939,46.9C125.283,46.9,127.277,46.49,128.977,45.552C132.729,43.852,134.839,40.1,134.839,35L134.839,17.764C134.839,10.318,130.384,5.863,122.939,5.863ZM128.449,28.903C127.863,29.489,126.984,29.899,126.046,29.958L117.779,29.958L117.779,32.948L117.838,38.107C117.779,39.103,117.428,39.924,116.724,40.628C116.138,41.214,115.258,41.624,114.321,41.624C112.386,41.624,110.803,40.041,110.803,38.107L110.803,29.899L102.595,29.958C100.661,29.958,99.078,28.316,99.078,26.382C99.078,24.447,100.661,22.864,102.595,22.864L107.754,22.923L110.803,22.923L110.803,14.715C110.803,12.78,112.386,11.139,114.321,11.139C116.255,11.139,117.838,12.78,117.838,14.715L117.779,18.878L117.779,22.864L126.046,22.864C127.98,22.864,129.563,24.447,129.563,26.382C129.504,27.378,129.094,28.199,128.449,28.903ZM128.449,28.903"/>
  <path stroke-miterlimit="4" stroke-opacity="1" stroke-linecap="butt" stroke="none" stroke-width="1px" fill="#000000" fill-opacity="1" fill-rule="nonzero" stroke-linejoin="miter" stroke-dasharray="none" d="M52.764,60.854C60.469,60.854,66.717,54.607,66.717,46.9C66.717,39.195,60.469,32.948,52.764,32.948C45.058,32.948,38.81,39.195,38.81,46.9C38.81,54.607,45.058,60.854,52.764,60.854ZM52.764,60.854"/>
  <path stroke-width="1px" fill-rule="nonzero" stroke-dasharray="none" stroke-linecap="butt" stroke-linejoin="miter" stroke="none" stroke-opacity="1" stroke-miterlimit="4" fill="#000000" fill-opacity="1" d="M122.938,46.9L120.183,46.9L120.183,73.927L119.42,73.282C114.847,69.354,107.461,69.354,102.888,73.282L78.5,94.211C73.927,98.139,66.54,98.139,61.967,94.211L59.974,92.57C55.811,88.935,49.187,88.583,44.497,91.749L22.571,106.464C21.281,103.181,20.519,99.371,20.519,94.915L20.519,45.787C20.519,29.254,29.254,20.519,45.786,20.519L93.801,20.519L93.801,17.764C93.801,15.419,94.211,13.425,95.149,11.725L45.786,11.725C24.447,11.725,11.725,24.447,11.725,45.787L11.725,94.915C11.725,101.305,12.839,106.875,15.008,111.565C20.05,122.704,30.837,128.977,45.786,128.977L94.915,128.977C116.254,128.977,128.976,116.255,128.976,94.915L128.976,45.552C127.276,46.49,125.283,46.9,122.938,46.9ZM122.938,46.9"/>
</g>
  <g id="Heavy-L" transform="matrix(1.0,0.0,0.0,1.0,2567.6191102094617,1443.3840407616583)">  <path fill-opacity="1" stroke-miterlimit="4" fill-rule="nonzero" stroke-opacity="1" stroke-linecap="butt" stroke-width="1px" stroke-dasharray="none" fill="#000000" stroke="none" stroke-linejoin="miter" d="M122.939,5.863L105.703,5.863C100.602,5.863,96.85,7.973,95.15,11.725C94.212,13.425,93.801,15.419,93.801,17.764L93.801,35C93.801,42.445,98.257,46.9,105.703,46.9L122.939,46.9C125.283,46.9,127.277,46.49,128.977,45.552C132.729,43.852,134.839,40.1,134.839,35L134.839,17.764C134.839,10.318,130.384,5.863,122.939,5.863ZM128.449,28.903C127.863,29.489,126.984,29.899,126.046,29.958L117.779,29.958L117.779,32.948L117.838,38.107C117.779,39.103,117.428,39.924,116.724,40.628C116.138,41.214,115.258,41.624,114.321,41.624C112.386,41.624,110.803,40.041,110.803,38.107L110.803,29.899L102.595,29.958C100.661,29.958,99.078,28.316,99.078,26.382C99.078,24.447,100.661,22.864,102.595,22.864L107.754,22.923L110.803,22.923L110.803,14.715C110.803,12.78,112.386,11.139,114.321,11.139C116.255,11.139,117.838,12.78,117.838,14.715L117.779,18.878L117.779,22.864L126.046,22.864C127.98,22.864,129.563,24.447,129.563,26.382C129.504,27.378,129.094,28.199,128.449,28.903ZM128.449,28.903"/>
  <path stroke-linecap="butt" fill="#000000" stroke-miterlimit="4" stroke-opacity="1" fill-opacity="1" stroke="none" stroke-linejoin="miter" stroke-dasharray="none" fill-rule="nonzero" stroke-width="1px" d="M52.764,60.854C60.469,60.854,66.717,54.607,66.717,46.9C66.717,39.195,60.469,32.948,52.764,32.948C45.058,32.948,38.81,39.195,38.81,46.9C38.81,54.607,45.058,60.854,52.764,60.854ZM52.764,60.854"/>
  <path fill-rule="nonzero" stroke-linecap="butt" stroke-width="1px" stroke-opacity="1" stroke-miterlimit="4" fill="#000000" fill-opacity="1" stroke="none" stroke-dasharray="none" stroke-linejoin="miter" d="M122.938,46.9L120.183,46.9L120.183,73.927L119.42,73.282C114.847,69.354,107.461,69.354,102.888,73.282L78.5,94.211C73.927,98.139,66.54,98.139,61.967,94.211L59.974,92.57C55.811,88.935,49.187,88.583,44.497,91.749L22.571,106.464C21.281,103.181,20.519,99.371,20.519,94.915L20.519,45.787C20.519,29.254,29.254,20.519,45.786,20.519L93.801,20.519L93.801,17.764C93.801,15.419,94.211,13.425,95.149,11.725L45.786,11.725C24.447,11.725,11.725,24.447,11.725,45.787L11.725,94.915C11.725,101.305,12.839,106.875,15.008,111.565C20.05,122.704,30.837,128.977,45.786,128.977L94.915,128.977C116.254,128.977,128.976,116.255,128.976,94.915L128.976,45.552C127.276,46.49,125.283,46.9,122.938,46.9ZM122.938,46.9"/>
</g>
  <g id="Bold-L" transform="matrix(1.0,0.0,0.0,1.0,2270.9091102094617,1443.3840407616583)">  <path stroke-width="1px" fill-rule="nonzero" stroke-linejoin="miter" stroke-opacity="1" stroke="none" stroke-linecap="butt" fill="#000000" stroke-miterlimit="4" fill-opacity="1" stroke-dasharray="none" d="M122.939,5.863L105.703,5.863C100.602,5.863,96.85,7.973,95.15,11.725C94.212,13.425,93.801,15.419,93.801,17.764L93.801,35C93.801,42.445,98.257,46.9,105.703,46.9L122.939,46.9C125.283,46.9,127.277,46.49,128.977,45.552C132.729,43.852,134.839,40.1,134.839,35L134.839,17.764C134.839,10.318,130.384,5.863,122.939,5.863ZM128.449,28.903C127.863,29.489,126.984,29.899,126.046,29.958L117.779,29.958L117.779,32.948L117.838,38.107C117.779,39.103,117.428,39.924,116.724,40.628C116.138,41.214,115.258,41.624,114.321,41.624C112.386,41.624,110.803,40.041,110.803,38.107L110.803,29.899L102.595,29.958C100.661,29.958,99.078,28.316,99.078,26.382C99.078,24.447,100.661,22.864,102.595,22.864L107.754,22.923L110.803,22.923L110.803,14.715C110.803,12.78,112.386,11.139,114.321,11.139C116.255,11.139,117.838,12.78,117.838,14.715L117.779,18.878L117.779,22.864L126.046,22.864C127.98,22.864,129.563,24.447,129.563,26.382C129.504,27.378,129.094,28.199,128.449,28.903ZM128.449,28.903"/>
  <path fill-opacity="1" stroke-opacity="1" fill="#000000" stroke-linejoin="miter" stroke-miterlimit="4" stroke-width="1px" stroke-dasharray="none" fill-rule="nonzero" stroke="none" stroke-linecap="butt" d="M52.764,60.854C60.469,60.854,66.717,54.607,66.717,46.9C66.717,39.195,60.469,32.948,52.764,32.948C45.058,32.948,38.81,39.195,38.81,46.9C38.81,54.607,45.058,60.854,52.764,60.854ZM52.764,60.854"/>
  <path stroke-width="1px" stroke-opacity="1" fill-opacity="1" stroke-linecap="butt" fill="#000000" stroke-linejoin="miter" fill-rule="nonzero" stroke="none" stroke-miterlimit="4" stroke-dasharray="none" d="M122.938,46.9L120.183,46.9L120.183,73.927L119.42,73.282C114.847,69.354,107.461,69.354,102.888,73.282L78.5,94.211C73.927,98.139,66.54,98.139,61.967,94.211L59.974,92.57C55.811,88.935,49.187,88.583,44.497,91.749L22.571,106.464C21.281,103.181,20.519,99.371,20.519,94.915L20.519,45.787C20.519,29.254,29.254,20.519,45.786,20.519L93.801,20.519L93.801,17.764C93.801,15.419,94.211,13.425,95.149,11.725L45.786,11.725C24.447,11.725,11.725,24.447,11.725,45.787L11.725,94.915C11.725,101.305,12.839,106.875,15.008,111.565C20.05,122.704,30.837,128.977,45.786,128.977L94.915,128.977C116.254,128.977,128.976,116.255,128.976,94.915L128.976,45.552C127.276,46.49,125.283,46.9,122.938,46.9ZM122.938,46.9"/>
</g>
  <g id="Semibold-L" transform="matrix(1.0,0.0,0.0,1.0,1974.199110209462,1443.3840407616583)">  <path fill="#000000" stroke-linecap="butt" stroke-miterlimit="4" stroke-width="1px" stroke-opacity="1" fill-opacity="1" stroke-dasharray="none" stroke-linejoin="miter" fill-rule="nonzero" stroke="none" d="M122.939,5.863L105.703,5.863C100.602,5.863,96.85,7.973,95.15,11.725C94.212,13.425,93.801,15.419,93.801,17.764L93.801,35C93.801,42.445,98.257,46.9,105.703,46.9L122.939,46.9C125.283,46.9,127.277,46.49,128.977,45.552C132.729,43.852,134.839,40.1,134.839,35L134.839,17.764C134.839,10.318,130.384,5.863,122.939,5.863ZM128.449,28.903C127.863,29.489,126.984,29.899,126.046,29.958L117.779,29.958L117.779,32.948L117.838,38.107C117.779,39.103,117.428,39.924,116.724,40.628C116.138,41.214,115.258,41.624,114.321,41.624C112.386,41.624,110.803,40.041,110.803,38.107L110.803,29.899L102.595,29.958C100.661,29.958,99.078,28.316,99.078,26.382C99.078,24.447,100.661,22.864,102.595,22.864L107.754,22.923L110.803,22.923L110.803,14.715C110.803,12.78,112.386,11.139,114.321,11.139C116.255,11.139,117.838,12.78,117.838,14.715L117.779,18.878L117.779,22.864L126.046,22.864C127.98,22.864,129.563,24.447,129.563,26.382C129.504,27.378,129.094,28.199,128.449,28.903ZM128.449,28.903"/>
  <path stroke-opacity="1" stroke-linejoin="miter" fill="#000000" stroke-linecap="butt" stroke-width="1px" fill-opacity="1" fill-rule="nonzero" stroke="none" stroke-miterlimit="4" stroke-dasharray="none" d="M52.764,60.854C60.469,60.854,66.717,54.607,66.717,46.9C66.717,39.195,60.469,32.948,52.764,32.948C45.058,32.948,38.81,39.195,38.81,46.9C38.81,54.607,45.058,60.854,52.764,60.854ZM52.764,60.854"/>
  <path stroke="none" fill-rule="nonzero" stroke-width="1px" stroke-linejoin="miter" fill="#000000" stroke-linecap="butt" stroke-miterlimit="4" stroke-dasharray="none" stroke-opacity="1" fill-opacity="1" d="M122.938,46.9L120.183,46.9L120.183,73.927L119.42,73.282C114.847,69.354,107.461,69.354,102.888,73.282L78.5,94.211C73.927,98.139,66.54,98.139,61.967,94.211L59.974,92.57C55.811,88.935,49.187,88.583,44.497,91.749L22.571,106.464C21.281,103.181,20.519,99.371,20.519,94.915L20.519,45.787C20.519,29.254,29.254,20.519,45.786,20.519L93.801,20.519L93.801,17.764C93.801,15.419,94.211,13.425,95.149,11.725L45.786,11.725C24.447,11.725,11.725,24.447,11.725,45.787L11.725,94.915C11.725,101.305,12.839,106.875,15.008,111.565C20.05,122.704,30.837,128.977,45.786,128.977L94.915,128.977C116.254,128.977,128.976,116.255,128.976,94.915L128.976,45.552C127.276,46.49,125.283,46.9,122.938,46.9ZM122.938,46.9"/>
</g>
  <g id="Medium-L" transform="matrix(1.0,0.0,0.0,1.0,1677.489110209462,1443.3840407616583)">  <path stroke-opacity="1" stroke-miterlimit="4" stroke="none" stroke-width="1px" fill-rule="nonzero" stroke-linecap="butt" fill="#000000" stroke-dasharray="none" fill-opacity="1" stroke-linejoin="miter" d="M122.939,5.863L105.703,5.863C100.602,5.863,96.85,7.973,95.15,11.725C94.212,13.425,93.801,15.419,93.801,17.764L93.801,35C93.801,42.445,98.257,46.9,105.703,46.9L122.939,46.9C125.283,46.9,127.277,46.49,128.977,45.552C132.729,43.852,134.839,40.1,134.839,35L134.839,17.764C134.839,10.318,130.384,5.863,122.939,5.863ZM128.449,28.903C127.863,29.489,126.984,29.899,126.046,29.958L117.779,29.958L117.779,32.948L117.838,38.107C117.779,39.103,117.428,39.924,116.724,40.628C116.138,41.214,115.258,41.624,114.321,41.624C112.386,41.624,110.803,40.041,110.803,38.107L110.803,29.899L102.595,29.958C100.661,29.958,99.078,28.316,99.078,26.382C99.078,24.447,100.661,22.864,102.595,22.864L107.754,22.923L110.803,22.923L110.803,14.715C110.803,12.78,112.386,11.139,114.321,11.139C116.255,11.139,117.838,12.78,117.838,14.715L117.779,18.878L117.779,22.864L126.046,22.864C127.98,22.864,129.563,24.447,129.563,26.382C129.504,27.378,129.094,28.199,128.449,28.903ZM128.449,28.903"/>
  <path stroke="none" stroke-linecap="butt" stroke-width="1px" stroke-linejoin="miter" stroke-opacity="1" fill-opacity="1" fill-rule="nonzero" stroke-dasharray="none" stroke-miterlimit="4" fill="#000000" d="M52.764,60.854C60.469,60.854,66.717,54.607,66.717,46.9C66.717,39.195,60.469,32.948,52.764,32.948C45.058,32.948,38.81,39.195,38.81,46.9C38.81,54.607,45.058,60.854,52.764,60.854ZM52.764,60.854"/>
  <path stroke-width="1px" stroke="none" fill="#000000" stroke-dasharray="none" stroke-miterlimit="4" stroke-opacity="1" stroke-linecap="butt" fill-opacity="1" fill-rule="nonzero" stroke-linejoin="miter" d="M122.938,46.9L120.183,46.9L120.183,73.927L119.42,73.282C114.847,69.354,107.461,69.354,102.888,73.282L78.5,94.211C73.927,98.139,66.54,98.139,61.967,94.211L59.974,92.57C55.811,88.935,49.187,88.583,44.497,91.749L22.571,106.464C21.281,103.181,20.519,99.371,20.519,94.915L20.519,45.787C20.519,29.254,29.254,20.519,45.786,20.519L93.801,20.519L93.801,17.764C93.801,15.419,94.211,13.425,95.149,11.725L45.786,11.725C24.447,11.725,11.725,24.447,11.725,45.787L11.725,94.915C11.725,101.305,12.839,106.875,15.008,111.565C20.05,122.704,30.837,128.977,45.786,128.977L94.915,128.977C116.254,128.977,128.976,116.255,128.976,94.915L128.976,45.552C127.276,46.49,125.283,46.9,122.938,46.9ZM122.938,46.9"/>
</g>
  <g id="Regular-L" transform="matrix(1.0,0.0,0.0,1.0,1380.779110209462,1443.3840407616583)">  <path stroke-miterlimit="4" fill="#000000" stroke="none" stroke-opacity="1" stroke-linecap="butt" fill-opacity="1" stroke-dasharray="none" fill-rule="nonzero" stroke-linejoin="miter" stroke-width="1px" d="M122.939,5.863L105.703,5.863C100.602,5.863,96.85,7.973,95.15,11.725C94.212,13.425,93.801,15.419,93.801,17.764L93.801,35C93.801,42.445,98.257,46.9,105.703,46.9L122.939,46.9C125.283,46.9,127.277,46.49,128.977,45.552C132.729,43.852,134.839,40.1,134.839,35L134.839,17.764C134.839,10.318,130.384,5.863,122.939,5.863ZM128.449,28.903C127.863,29.489,126.984,29.899,126.046,29.958L117.779,29.958L117.779,32.948L117.838,38.107C117.779,39.103,117.428,39.924,116.724,40.628C116.138,41.214,115.258,41.624,114.321,41.624C112.386,41.624,110.803,40.041,110.803,38.107L110.803,29.899L102.595,29.958C100.661,29.958,99.078,28.316,99.078,26.382C99.078,24.447,100.661,22.864,102.595,22.864L107.754,22.923L110.803,22.923L110.803,14.715C110.803,12.78,112.386,11.139,114.321,11.139C116.255,11.139,117.838,12.78,117.838,14.715L117.779,18.878L117.779,22.864L126.046,22.864C127.98,22.864,129.563,24.447,129.563,26.382C129.504,27.378,129.094,28.199,128.449,28.903ZM128.449,28.903"/>
  <path stroke="none" stroke-opacity="1" fill-rule="nonzero" stroke-width="1px" stroke-dasharray="none" fill-opacity="1" stroke-linejoin="miter" stroke-miterlimit="4" fill="#000000" stroke-linecap="butt" d="M52.764,60.854C60.469,60.854,66.717,54.607,66.717,46.9C66.717,39.195,60.469,32.948,52.764,32.948C45.058,32.948,38.81,39.195,38.81,46.9C38.81,54.607,45.058,60.854,52.764,60.854ZM52.764,60.854"/>
  <path fill-rule="nonzero" fill="#000000" stroke-dasharray="none" stroke-miterlimit="4" stroke-opacity="1" stroke-width="1px" stroke-linejoin="miter" stroke="none" stroke-linecap="butt" fill-opacity="1" d="M122.938,46.9L120.183,46.9L120.183,73.927L119.42,73.282C114.847,69.354,107.461,69.354,102.888,73.282L78.5,94.211C73.927,98.139,66.54,98.139,61.967,94.211L59.974,92.57C55.811,88.935,49.187,88.583,44.497,91.749L22.571,106.464C21.281,103.181,20.519,99.371,20.519,94.915L20.519,45.787C20.519,29.254,29.254,20.519,45.786,20.519L93.801,20.519L93.801,17.764C93.801,15.419,94.211,13.425,95.149,11.725L45.786,11.725C24.447,11.725,11.725,24.447,11.725,45.787L11.725,94.915C11.725,101.305,12.839,106.875,15.008,111.565C20.05,122.704,30.837,128.977,45.786,128.977L94.915,128.977C116.254,128.977,128.976,116.255,128.976,94.915L128.976,45.552C127.276,46.49,125.283,46.9,122.938,46.9ZM122.938,46.9"/>
</g>
  <g id="Light-L" transform="matrix(1.0,0.0,0.0,1.0,1084.0691102094622,1443.3840407616583)">  <path fill-rule="nonzero" stroke-opacity="1" stroke-linejoin="miter" stroke="none" fill-opacity="1" stroke-dasharray="none" fill="#000000" stroke-linecap="butt" stroke-miterlimit="4" stroke-width="1px" d="M122.939,5.863L105.703,5.863C100.602,5.863,96.85,7.973,95.15,11.725C94.212,13.425,93.801,15.419,93.801,17.764L93.801,35C93.801,42.445,98.257,46.9,105.703,46.9L122.939,46.9C125.283,46.9,127.277,46.49,128.977,45.552C132.729,43.852,134.839,40.1,134.839,35L134.839,17.764C134.839,10.318,130.384,5.863,122.939,5.863ZM128.449,28.903C127.863,29.489,126.984,29.899,126.046,29.958L117.779,29.958L117.779,32.948L117.838,38.107C117.779,39.103,117.428,39.924,116.724,40.628C116.138,41.214,115.258,41.624,114.321,41.624C112.386,41.624,110.803,40.041,110.803,38.107L110.803,29.899L102.595,29.958C100.661,29.958,99.078,28.316,99.078,26.382C99.078,24.447,100.661,22.864,102.595,22.864L107.754,22.923L110.803,22.923L110.803,14.715C110.803,12.78,112.386,11.139,114.321,11.139C116.255,11.139,117.838,12.78,117.838,14.715L117.779,18.878L117.779,22.864L126.046,22.864C127.98,22.864,129.563,24.447,129.563,26.382C129.504,27.378,129.094,28.199,128.449,28.903ZM128.449,28.903"/>
  <path stroke-opacity="1" stroke-miterlimit="4" fill-rule="nonzero" fill-opacity="1" stroke="none" stroke-linecap="butt" fill="#000000" stroke-linejoin="miter" stroke-dasharray="none" stroke-width="1px" d="M52.764,60.854C60.469,60.854,66.717,54.607,66.717,46.9C66.717,39.195,60.469,32.948,52.764,32.948C45.058,32.948,38.81,39.195,38.81,46.9C38.81,54.607,45.058,60.854,52.764,60.854ZM52.764,60.854"/>
  <path stroke-miterlimit="4" stroke="none" fill-rule="nonzero" fill="#000000" stroke-width="1px" stroke-opacity="1" stroke-dasharray="none" stroke-linecap="butt" stroke-linejoin="miter" fill-opacity="1" d="M122.938,46.9L120.183,46.9L120.183,73.927L119.42,73.282C114.847,69.354,107.461,69.354,102.888,73.282L78.5,94.211C73.927,98.139,66.54,98.139,61.967,94.211L59.974,92.57C55.811,88.935,49.187,88.583,44.497,91.749L22.571,106.464C21.281,103.181,20.519,99.371,20.519,94.915L20.519,45.787C20.519,29.254,29.254,20.519,45.786,20.519L93.801,20.519L93.801,17.764C93.801,15.419,94.211,13.425,95.149,11.725L45.786,11.725C24.447,11.725,11.725,24.447,11.725,45.787L11.725,94.915C11.725,101.305,12.839,106.875,15.008,111.565C20.05,122.704,30.837,128.977,45.786,128.977L94.915,128.977C116.254,128.977,128.976,116.255,128.976,94.915L128.976,45.552C127.276,46.49,125.283,46.9,122.938,46.9ZM122.938,46.9"/>
</g>
  <g id="Thin-L" transform="matrix(1.0,0.0,0.0,1.0,787.3591102094621,1443.3840407616583)">  <path stroke-dasharray="none" stroke="none" stroke-opacity="1" fill="#000000" stroke-miterlimit="4" stroke-linejoin="miter" fill-opacity="1" stroke-width="1px" stroke-linecap="butt" fill-rule="nonzero" d="M122.939,5.863L105.703,5.863C100.602,5.863,96.85,7.973,95.15,11.725C94.212,13.425,93.801,15.419,93.801,17.764L93.801,35C93.801,42.445,98.257,46.9,105.703,46.9L122.939,46.9C125.283,46.9,127.277,46.49,128.977,45.552C132.729,43.852,134.839,40.1,134.839,35L134.839,17.764C134.839,10.318,130.384,5.863,122.939,5.863ZM128.449,28.903C127.863,29.489,126.984,29.899,126.046,29.958L117.779,29.958L117.779,32.948L117.838,38.107C117.779,39.103,117.428,39.924,116.724,40.628C116.138,41.214,115.258,41.624,114.321,41.624C112.386,41.624,110.803,40.041,110.803,38.107L110.803,29.899L102.595,29.958C100.661,29.958,99.078,28.316,99.078,26.382C99.078,24.447,100.661,22.864,102.595,22.864L107.754,22.923L110.803,22.923L110.803,14.715C110.803,12.78,112.386,11.139,114.321,11.139C116.255,11.139,117.838,12.78,117.838,14.715L117.779,18.878L117.779,22.864L126.046,22.864C127.98,22.864,129.563,24.447,129.563,26.382C129.504,27.378,129.094,28.199,128.449,28.903ZM128.449,28.903"/>
  <path fill-opacity="1" stroke="none" stroke-width="1px" stroke-miterlimit="4" stroke-linecap="butt" fill="#000000" stroke-dasharray="none" stroke-linejoin="miter" stroke-opacity="1" fill-rule="nonzero" d="M52.764,60.854C60.469,60.854,66.717,54.607,66.717,46.9C66.717,39.195,60.469,32.948,52.764,32.948C45.058,32.948,38.81,39.195,38.81,46.9C38.81,54.607,45.058,60.854,52.764,60.854ZM52.764,60.854"/>
  <path stroke-dasharray="none" fill="#000000" fill-opacity="1" stroke-linecap="butt" fill-rule="nonzero" stroke-width="1px" stroke-opacity="1" stroke="none" stroke-miterlimit="4" stroke-linejoin="miter" d="M122.938,46.9L120.183,46.9L120.183,73.927L119.42,73.282C114.847,69.354,107.461,69.354,102.888,73.282L78.5,94.211C73.927,98.139,66.54,98.139,61.967,94.211L59.974,92.57C55.811,88.935,49.187,88.583,44.497,91.749L22.571,106.464C21.281,103.181,20.519,99.371,20.519,94.915L20.519,45.787C20.519,29.254,29.254,20.519,45.786,20.519L93.801,20.519L93.801,17.764C93.801,15.419,94.211,13.425,95.149,11.725L45.786,11.725C24.447,11.725,11.725,24.447,11.725,45.787L11.725,94.915C11.725,101.305,12.839,106.875,15.008,111.565C20.05,122.704,30.837,128.977,45.786,128.977L94.915,128.977C116.254,128.977,128.976,116.255,128.976,94.915L128.976,45.552C127.276,46.49,125.283,46.9,122.938,46.9ZM122.938,46.9"/>
</g>
  <g id="Ultralight-L" transform="matrix(1.0,0.0,0.0,1.0,490.6491102094621,1443.3840407616583)">  <path stroke-linejoin="miter" stroke-dasharray="none" stroke-linecap="butt" fill-opacity="1" fill-rule="nonzero" fill="#000000" stroke-opacity="1" stroke-miterlimit="4" stroke-width="1px" stroke="none" d="M122.939,5.863L105.703,5.863C100.602,5.863,96.85,7.973,95.15,11.725C94.212,13.425,93.801,15.419,93.801,17.764L93.801,35C93.801,42.445,98.257,46.9,105.703,46.9L122.939,46.9C125.283,46.9,127.277,46.49,128.977,45.552C132.729,43.852,134.839,40.1,134.839,35L134.839,17.764C134.839,10.318,130.384,5.863,122.939,5.863ZM128.449,28.903C127.863,29.489,126.984,29.899,126.046,29.958L117.779,29.958L117.779,32.948L117.838,38.107C117.779,39.103,117.428,39.924,116.724,40.628C116.138,41.214,115.258,41.624,114.321,41.624C112.386,41.624,110.803,40.041,110.803,38.107L110.803,29.899L102.595,29.958C100.661,29.958,99.078,28.316,99.078,26.382C99.078,24.447,100.661,22.864,102.595,22.864L107.754,22.923L110.803,22.923L110.803,14.715C110.803,12.78,112.386,11.139,114.321,11.139C116.255,11.139,117.838,12.78,117.838,14.715L117.779,18.878L117.779,22.864L126.046,22.864C127.98,22.864,129.563,24.447,129.563,26.382C129.504,27.378,129.094,28.199,128.449,28.903ZM128.449,28.903"/>
  <path fill-opacity="1" stroke-dasharray="none" stroke-opacity="1" fill-rule="nonzero" fill="#000000" stroke-width="1px" stroke-linejoin="miter" stroke-linecap="butt" stroke-miterlimit="4" stroke="none" d="M52.764,60.854C60.469,60.854,66.717,54.607,66.717,46.9C66.717,39.195,60.469,32.948,52.764,32.948C45.058,32.948,38.81,39.195,38.81,46.9C38.81,54.607,45.058,60.854,52.764,60.854ZM52.764,60.854"/>
  <path stroke-opacity="1" stroke-linejoin="miter" fill="#000000" stroke="none" fill-rule="nonzero" stroke-miterlimit="4" stroke-width="1px" stroke-dasharray="none" stroke-linecap="butt" fill-opacity="1" d="M122.938,46.9L120.183,46.9L120.183,73.927L119.42,73.282C114.847,69.354,107.461,69.354,102.888,73.282L78.5,94.211C73.927,98.139,66.54,98.139,61.967,94.211L59.974,92.57C55.811,88.935,49.187,88.583,44.497,91.749L22.571,106.464C21.281,103.181,20.519,99.371,20.519,94.915L20.519,45.787C20.519,29.254,29.254,20.519,45.786,20.519L93.801,20.519L93.801,17.764C93.801,15.419,94.211,13.425,95.149,11.725L45.786,11.725C24.447,11.725,11.725,24.447,11.725,45.787L11.725,94.915C11.725,101.305,12.839,106.875,15.008,111.565C20.05,122.704,30.837,128.977,45.786,128.977L94.915,128.977C116.254,128.977,128.976,116.255,128.976,94.915L128.976,45.552C127.276,46.49,125.283,46.9,122.938,46.9ZM122.938,46.9"/>
</g>
  <g id="Black-M" transform="matrix(1.0,0.0,0.0,1.0,2880.1444265189625,1030.7808887021092)">  <path fill-rule="nonzero" stroke-dasharray="none" stroke-linejoin="miter" fill="#000000" stroke-width="1px" stroke-linecap="butt" fill-opacity="1" stroke-opacity="1" stroke="none" stroke-miterlimit="4" d="M95.301,4.545L81.94,4.545C77.986,4.545,75.077,6.181,73.76,9.089C73.032,10.407,72.714,11.952,72.714,13.77L72.714,27.131C72.714,32.903,76.168,36.357,81.94,36.357L95.301,36.357C97.119,36.357,98.664,36.039,99.982,35.312C102.891,33.994,104.527,31.085,104.527,27.131L104.527,13.77C104.527,7.999,101.073,4.545,95.301,4.545ZM99.573,22.405C99.119,22.86,98.437,23.178,97.71,23.223L91.302,23.223L91.302,25.541L91.347,29.54C91.302,30.313,91.029,30.949,90.484,31.494C90.029,31.949,89.348,32.267,88.621,32.267C87.121,32.267,85.894,31.04,85.894,29.54L85.894,23.178L79.531,23.223C78.031,23.223,76.804,21.951,76.804,20.451C76.804,18.951,78.031,17.724,79.531,17.724L83.531,17.77L85.894,17.77L85.894,11.407C85.894,9.907,87.121,8.635,88.621,8.635C90.12,8.635,91.347,9.907,91.347,11.407L91.302,14.634L91.302,17.724L97.71,17.724C99.209,17.724,100.437,18.951,100.437,20.451C100.391,21.223,100.073,21.86,99.573,22.405ZM99.573,22.405"/>
  <path stroke-miterlimit="4" stroke-opacity="1" stroke-linecap="butt" stroke="none" stroke-width="1px" fill="#000000" fill-opacity="1" fill-rule="nonzero" stroke-linejoin="miter" stroke-dasharray="none" d="M40.902,47.173C46.876,47.173,51.718,42.331,51.718,36.357C51.718,30.383,46.876,25.541,40.902,25.541C34.928,25.541,30.086,30.383,30.086,36.357C30.086,42.331,34.928,47.173,40.902,47.173ZM40.902,47.173"/>
  <path stroke-width="1px" fill-rule="nonzero" stroke-dasharray="none" stroke-linecap="butt" stroke-linejoin="miter" stroke="none" stroke-opacity="1" stroke-miterlimit="4" fill="#000000" fill-opacity="1" d="M95.301,36.357L93.165,36.357L93.165,57.308L92.574,56.808C89.029,53.763,83.303,53.763,79.758,56.808L60.852,73.032C57.308,76.077,51.581,76.077,48.037,73.032L46.491,71.76C43.265,68.942,38.129,68.669,34.493,71.123L17.497,82.531C16.497,79.985,15.906,77.031,15.906,73.577L15.906,35.494C15.906,22.678,22.678,15.906,35.493,15.906L72.714,15.906L72.714,13.77C72.714,11.952,73.032,10.407,73.759,9.089L35.493,9.089C18.951,9.089,9.089,18.951,9.089,35.494L9.089,73.577C9.089,78.531,9.953,82.849,11.634,86.484C15.542,95.119,23.905,99.982,35.493,99.982L73.577,99.982C90.12,99.982,99.982,90.12,99.982,73.577L99.982,35.312C98.664,36.039,97.119,36.357,95.301,36.357ZM95.301,36.357"/>
</g>
  <g id="Heavy-M" transform="matrix(1.0,0.0,0.0,1.0,2583.4344265189625,1030.7808887021092)">  <path fill-opacity="1" stroke-miterlimit="4" fill-rule="nonzero" stroke-opacity="1" stroke-linecap="butt" stroke-width="1px" stroke-dasharray="none" fill="#000000" stroke="none" stroke-linejoin="miter" d="M95.301,4.545L81.94,4.545C77.986,4.545,75.077,6.181,73.76,9.089C73.032,10.407,72.714,11.952,72.714,13.77L72.714,27.131C72.714,32.903,76.168,36.357,81.94,36.357L95.301,36.357C97.119,36.357,98.664,36.039,99.982,35.312C102.891,33.994,104.527,31.085,104.527,27.131L104.527,13.77C104.527,7.999,101.073,4.545,95.301,4.545ZM99.573,22.405C99.119,22.86,98.437,23.178,97.71,23.223L91.302,23.223L91.302,25.541L91.347,29.54C91.302,30.313,91.029,30.949,90.484,31.494C90.029,31.949,89.348,32.267,88.621,32.267C87.121,32.267,85.894,31.04,85.894,29.54L85.894,23.178L79.531,23.223C78.031,23.223,76.804,21.951,76.804,20.451C76.804,18.951,78.031,17.724,79.531,17.724L83.531,17.77L85.894,17.77L85.894,11.407C85.894,9.907,87.121,8.635,88.621,8.635C90.12,8.635,91.347,9.907,91.347,11.407L91.302,14.634L91.302,17.724L97.71,17.724C99.209,17.724,100.437,18.951,100.437,20.451C100.391,21.223,100.073,21.86,99.573,22.405ZM99.573,22.405"/>
  <path stroke-linecap="butt" fill="#000000" stroke-miterlimit="4" stroke-opacity="1" fill-opacity="1" stroke="none" stroke-linejoin="miter" stroke-dasharray="none" fill-rule="nonzero" stroke-width="1px" d="M40.902,47.173C46.876,47.173,51.718,42.331,51.718,36.357C51.718,30.383,46.876,25.541,40.902,25.541C34.928,25.541,30.086,30.383,30.086,36.357C30.086,42.331,34.928,47.173,40.902,47.173ZM40.902,47.173"/>
  <path fill-rule="nonzero" stroke-linecap="butt" stroke-width="1px" stroke-opacity="1" stroke-miterlimit="4" fill="#000000" fill-opacity="1" stroke="none" stroke-dasharray="none" stroke-linejoin="miter" d="M95.301,36.357L93.165,36.357L93.165,57.308L92.574,56.808C89.029,53.763,83.303,53.763,79.758,56.808L60.852,73.032C57.308,76.077,51.581,76.077,48.037,73.032L46.491,71.76C43.265,68.942,38.129,68.669,34.493,71.123L17.497,82.531C16.497,79.985,15.906,77.031,15.906,73.577L15.906,35.494C15.906,22.678,22.678,15.906,35.493,15.906L72.714,15.906L72.714,13.77C72.714,11.952,73.032,10.407,73.759,9.089L35.493,9.089C18.951,9.089,9.089,18.951,9.089,35.494L9.089,73.577C9.089,78.531,9.953,82.849,11.634,86.484C15.542,95.119,23.905,99.982,35.493,99.982L73.577,99.982C90.12,99.982,99.982,90.12,99.982,73.577L99.982,35.312C98.664,36.039,97.119,36.357,95.301,36.357ZM95.301,36.357"/>
</g>
  <g id="Bold-M" transform="matrix(1.0,0.0,0.0,1.0,2286.7244265189624,1030.7808887021092)">  <path stroke-width="1px" fill-rule="nonzero" stroke-linejoin="miter" stroke-opacity="1" stroke="none" stroke-linecap="butt" fill="#000000" stroke-miterlimit="4" fill-opacity="1" stroke-dasharray="none" d="M95.301,4.545L81.94,4.545C77.986,4.545,75.077,6.181,73.76,9.089C73.032,10.407,72.714,11.952,72.714,13.77L72.714,27.131C72.714,32.903,76.168,36.357,81.94,36.357L95.301,36.357C97.119,36.357,98.664,36.039,99.982,35.312C102.891,33.994,104.527,31.085,104.527,27.131L104.527,13.77C104.527,7.999,101.073,4.545,95.301,4.545ZM99.573,22.405C99.119,22.86,98.437,23.178,97.71,23.223L91.302,23.223L91.302,25.541L91.347,29.54C91.302,30.313,91.029,30.949,90.484,31.494C90.029,31.949,89.348,32.267,88.621,32.267C87.121,32.267,85.894,31.04,85.894,29.54L85.894,23.178L79.531,23.223C78.031,23.223,76.804,21.951,76.804,20.451C76.804,18.951,78.031,17.724,79.531,17.724L83.531,17.77L85.894,17.77L85.894,11.407C85.894,9.907,87.121,8.635,88.621,8.635C90.12,8.635,91.347,9.907,91.347,11.407L91.302,14.634L91.302,17.724L97.71,17.724C99.209,17.724,100.437,18.951,100.437,20.451C100.391,21.223,100.073,21.86,99.573,22.405ZM99.573,22.405"/>
  <path fill-opacity="1" stroke-opacity="1" fill="#000000" stroke-linejoin="miter" stroke-miterlimit="4" stroke-width="1px" stroke-dasharray="none" fill-rule="nonzero" stroke="none" stroke-linecap="butt" d="M40.902,47.173C46.876,47.173,51.718,42.331,51.718,36.357C51.718,30.383,46.876,25.541,40.902,25.541C34.928,25.541,30.086,30.383,30.086,36.357C30.086,42.331,34.928,47.173,40.902,47.173ZM40.902,47.173"/>
  <path stroke-width="1px" stroke-opacity="1" fill-opacity="1" stroke-linecap="butt" fill="#000000" stroke-linejoin="miter" fill-rule="nonzero" stroke="none" stroke-miterlimit="4" stroke-dasharray="none" d="M95.301,36.357L93.165,36.357L93.165,57.308L92.574,56.808C89.029,53.763,83.303,53.763,79.758,56.808L60.852,73.032C57.308,76.077,51.581,76.077,48.037,73.032L46.491,71.76C43.265,68.942,38.129,68.669,34.493,71.123L17.497,82.531C16.497,79.985,15.906,77.031,15.906,73.577L15.906,35.494C15.906,22.678,22.678,15.906,35.493,15.906L72.714,15.906L72.714,13.77C72.714,11.952,73.032,10.407,73.759,9.089L35.493,9.089C18.951,9.089,9.089,18.951,9.089,35.494L9.089,73.577C9.089,78.531,9.953,82.849,11.634,86.484C15.542,95.119,23.905,99.982,35.493,99.982L73.577,99.982C90.12,99.982,99.982,90.12,99.982,73.577L99.982,35.312C98.664,36.039,97.119,36.357,95.301,36.357ZM95.301,36.357"/>
</g>
  <g id="Semibold-M" transform="matrix(1.0,0.0,0.0,1.0,1990.0144265189629,1030.7808887021092)">  <path fill="#000000" stroke-linecap="butt" stroke-miterlimit="4" stroke-width="1px" stroke-opacity="1" fill-opacity="1" stroke-dasharray="none" stroke-linejoin="miter" fill-rule="nonzero" stroke="none" d="M95.301,4.545L81.94,4.545C77.986,4.545,75.077,6.181,73.76,9.089C73.032,10.407,72.714,11.952,72.714,13.77L72.714,27.131C72.714,32.903,76.168,36.357,81.94,36.357L95.301,36.357C97.119,36.357,98.664,36.039,99.982,35.312C102.891,33.994,104.527,31.085,104.527,27.131L104.527,13.77C104.527,7.999,101.073,4.545,95.301,4.545ZM99.573,22.405C99.119,22.86,98.437,23.178,97.71,23.223L91.302,23.223L91.302,25.541L91.347,29.54C91.302,30.313,91.029,30.949,90.484,31.494C90.029,31.949,89.348,32.267,88.621,32.267C87.121,32.267,85.894,31.04,85.894,29.54L85.894,23.178L79.531,23.223C78.031,23.223,76.804,21.951,76.804,20.451C76.804,18.951,78.031,17.724,79.531,17.724L83.531,17.77L85.894,17.77L85.894,11.407C85.894,9.907,87.121,8.635,88.621,8.635C90.12,8.635,91.347,9.907,91.347,11.407L91.302,14.634L91.302,17.724L97.71,17.724C99.209,17.724,100.437,18.951,100.437,20.451C100.391,21.223,100.073,21.86,99.573,22.405ZM99.573,22.405"/>
  <path stroke-opacity="1" stroke-linejoin="miter" fill="#000000" stroke-linecap="butt" stroke-width="1px" fill-opacity="1" fill-rule="nonzero" stroke="none" stroke-miterlimit="4" stroke-dasharray="none" d="M40.902,47.173C46.876,47.173,51.718,42.331,51.718,36.357C51.718,30.383,46.876,25.541,40.902,25.541C34.928,25.541,30.086,30.383,30.086,36.357C30.086,42.331,34.928,47.173,40.902,47.173ZM40.902,47.173"/>
  <path stroke="none" fill-rule="nonzero" stroke-width="1px" stroke-linejoin="miter" fill="#000000" stroke-linecap="butt" stroke-miterlimit="4" stroke-dasharray="none" stroke-opacity="1" fill-opacity="1" d="M95.301,36.357L93.165,36.357L93.165,57.308L92.574,56.808C89.029,53.763,83.303,53.763,79.758,56.808L60.852,73.032C57.308,76.077,51.581,76.077,48.037,73.032L46.491,71.76C43.265,68.942,38.129,68.669,34.493,71.123L17.497,82.531C16.497,79.985,15.906,77.031,15.906,73.577L15.906,35.494C15.906,22.678,22.678,15.906,35.493,15.906L72.714,15.906L72.714,13.77C72.714,11.952,73.032,10.407,73.759,9.089L35.493,9.089C18.951,9.089,9.089,18.951,9.089,35.494L9.089,73.577C9.089,78.531,9.953,82.849,11.634,86.484C15.542,95.119,23.905,99.982,35.493,99.982L73.577,99.982C90.12,99.982,99.982,90.12,99.982,73.577L99.982,35.312C98.664,36.039,97.119,36.357,95.301,36.357ZM95.301,36.357"/>
</g>
  <g id="Medium-M" transform="matrix(1.0,0.0,0.0,1.0,1693.3044265189628,1030.7808887021092)">  <path stroke-opacity="1" stroke-miterlimit="4" stroke="none" stroke-width="1px" fill-rule="nonzero" stroke-linecap="butt" fill="#000000" stroke-dasharray="none" fill-opacity="1" stroke-linejoin="miter" d="M95.301,4.545L81.94,4.545C77.986,4.545,75.077,6.181,73.76,9.089C73.032,10.407,72.714,11.952,72.714,13.77L72.714,27.131C72.714,32.903,76.168,36.357,81.94,36.357L95.301,36.357C97.119,36.357,98.664,36.039,99.982,35.312C102.891,33.994,104.527,31.085,104.527,27.131L104.527,13.77C104.527,7.999,101.073,4.545,95.301,4.545ZM99.573,22.405C99.119,22.86,98.437,23.178,97.71,23.223L91.302,23.223L91.302,25.541L91.347,29.54C91.302,30.313,91.029,30.949,90.484,31.494C90.029,31.949,89.348,32.267,88.621,32.267C87.121,32.267,85.894,31.04,85.894,29.54L85.894,23.178L79.531,23.223C78.031,23.223,76.804,21.951,76.804,20.451C76.804,18.951,78.031,17.724,79.531,17.724L83.531,17.77L85.894,17.77L85.894,11.407C85.894,9.907,87.121,8.635,88.621,8.635C90.12,8.635,91.347,9.907,91.347,11.407L91.302,14.634L91.302,17.724L97.71,17.724C99.209,17.724,100.437,18.951,100.437,20.451C100.391,21.223,100.073,21.86,99.573,22.405ZM99.573,22.405"/>
  <path stroke="none" stroke-linecap="butt" stroke-width="1px" stroke-linejoin="miter" stroke-opacity="1" fill-opacity="1" fill-rule="nonzero" stroke-dasharray="none" stroke-miterlimit="4" fill="#000000" d="M40.902,47.173C46.876,47.173,51.718,42.331,51.718,36.357C51.718,30.383,46.876,25.541,40.902,25.541C34.928,25.541,30.086,30.383,30.086,36.357C30.086,42.331,34.928,47.173,40.902,47.173ZM40.902,47.173"/>
  <path stroke-width="1px" stroke="none" fill="#000000" stroke-dasharray="none" stroke-miterlimit="4" stroke-opacity="1" stroke-linecap="butt" fill-opacity="1" fill-rule="nonzero" stroke-linejoin="miter" d="M95.301,36.357L93.165,36.357L93.165,57.308L92.574,56.808C89.029,53.763,83.303,53.763,79.758,56.808L60.852,73.032C57.308,76.077,51.581,76.077,48.037,73.032L46.491,71.76C43.265,68.942,38.129,68.669,34.493,71.123L17.497,82.531C16.497,79.985,15.906,77.031,15.906,73.577L15.906,35.494C15.906,22.678,22.678,15.906,35.493,15.906L72.714,15.906L72.714,13.77C72.714,11.952,73.032,10.407,73.759,9.089L35.493,9.089C18.951,9.089,9.089,18.951,9.089,35.494L9.089,73.577C9.089,78.531,9.953,82.849,11.634,86.484C15.542,95.119,23.905,99.982,35.493,99.982L73.577,99.982C90.12,99.982,99.982,90.12,99.982,73.577L99.982,35.312C98.664,36.039,97.119,36.357,95.301,36.357ZM95.301,36.357"/>
</g>
  <g id="Regular-M" transform="matrix(1.0,0.0,0.0,1.0,1396.5944265189628,1030.7808887021092)">  <path stroke-miterlimit="4" fill="#000000" stroke="none" stroke-opacity="1" stroke-linecap="butt" fill-opacity="1" stroke-dasharray="none" fill-rule="nonzero" stroke-linejoin="miter" stroke-width="1px" d="M95.301,4.545L81.94,4.545C77.986,4.545,75.077,6.181,73.76,9.089C73.032,10.407,72.714,11.952,72.714,13.77L72.714,27.131C72.714,32.903,76.168,36.357,81.94,36.357L95.301,36.357C97.119,36.357,98.664,36.039,99.982,35.312C102.891,33.994,104.527,31.085,104.527,27.131L104.527,13.77C104.527,7.999,101.073,4.545,95.301,4.545ZM99.573,22.405C99.119,22.86,98.437,23.178,97.71,23.223L91.302,23.223L91.302,25.541L91.347,29.54C91.302,30.313,91.029,30.949,90.484,31.494C90.029,31.949,89.348,32.267,88.621,32.267C87.121,32.267,85.894,31.04,85.894,29.54L85.894,23.178L79.531,23.223C78.031,23.223,76.804,21.951,76.804,20.451C76.804,18.951,78.031,17.724,79.531,17.724L83.531,17.77L85.894,17.77L85.894,11.407C85.894,9.907,87.121,8.635,88.621,8.635C90.12,8.635,91.347,9.907,91.347,11.407L91.302,14.634L91.302,17.724L97.71,17.724C99.209,17.724,100.437,18.951,100.437,20.451C100.391,21.223,100.073,21.86,99.573,22.405ZM99.573,22.405"/>
  <path stroke="none" stroke-opacity="1" fill-rule="nonzero" stroke-width="1px" stroke-dasharray="none" fill-opacity="1" stroke-linejoin="miter" stroke-miterlimit="4" fill="#000000" stroke-linecap="butt" d="M40.902,47.173C46.876,47.173,51.718,42.331,51.718,36.357C51.718,30.383,46.876,25.541,40.902,25.541C34.928,25.541,30.086,30.383,30.086,36.357C30.086,42.331,34.928,47.173,40.902,47.173ZM40.902,47.173"/>
  <path fill-rule="nonzero" fill="#000000" stroke-dasharray="none" stroke-miterlimit="4" stroke-opacity="1" stroke-width="1px" stroke-linejoin="miter" stroke="none" stroke-linecap="butt" fill-opacity="1" d="M95.301,36.357L93.165,36.357L93.165,57.308L92.574,56.808C89.029,53.763,83.303,53.763,79.758,56.808L60.852,73.032C57.308,76.077,51.581,76.077,48.037,73.032L46.491,71.76C43.265,68.942,38.129,68.669,34.493,71.123L17.497,82.531C16.497,79.985,15.906,77.031,15.906,73.577L15.906,35.494C15.906,22.678,22.678,15.906,35.493,15.906L72.714,15.906L72.714,13.77C72.714,11.952,73.032,10.407,73.759,9.089L35.493,9.089C18.951,9.089,9.089,18.951,9.089,35.494L9.089,73.577C9.089,78.531,9.953,82.849,11.634,86.484C15.542,95.119,23.905,99.982,35.493,99.982L73.577,99.982C90.12,99.982,99.982,90.12,99.982,73.577L99.982,35.312C98.664,36.039,97.119,36.357,95.301,36.357ZM95.301,36.357"/>
</g>
  <g id="Light-M" transform="matrix(1.0,0.0,0.0,1.0,1099.884426518963,1030.7808887021092)">  <path fill-rule="nonzero" stroke-opacity="1" stroke-linejoin="miter" stroke="none" fill-opacity="1" stroke-dasharray="none" fill="#000000" stroke-linecap="butt" stroke-miterlimit="4" stroke-width="1px" d="M95.301,4.545L81.94,4.545C77.986,4.545,75.077,6.181,73.76,9.089C73.032,10.407,72.714,11.952,72.714,13.77L72.714,27.131C72.714,32.903,76.168,36.357,81.94,36.357L95.301,36.357C97.119,36.357,98.664,36.039,99.982,35.312C102.891,33.994,104.527,31.085,104.527,27.131L104.527,13.77C104.527,7.999,101.073,4.545,95.301,4.545ZM99.573,22.405C99.119,22.86,98.437,23.178,97.71,23.223L91.302,23.223L91.302,25.541L91.347,29.54C91.302,30.313,91.029,30.949,90.484,31.494C90.029,31.949,89.348,32.267,88.621,32.267C87.121,32.267,85.894,31.04,85.894,29.54L85.894,23.178L79.531,23.223C78.031,23.223,76.804,21.951,76.804,20.451C76.804,18.951,78.031,17.724,79.531,17.724L83.531,17.77L85.894,17.77L85.894,11.407C85.894,9.907,87.121,8.635,88.621,8.635C90.12,8.635,91.347,9.907,91.347,11.407L91.302,14.634L91.302,17.724L97.71,17.724C99.209,17.724,100.437,18.951,100.437,20.451C100.391,21.223,100.073,21.86,99.573,22.405ZM99.573,22.405"/>
  <path stroke-opacity="1" stroke-miterlimit="4" fill-rule="nonzero" fill-opacity="1" stroke="none" stroke-linecap="butt" fill="#000000" stroke-linejoin="miter" stroke-dasharray="none" stroke-width="1px" d="M40.902,47.173C46.876,47.173,51.718,42.331,51.718,36.357C51.718,30.383,46.876,25.541,40.902,25.541C34.928,25.541,30.086,30.383,30.086,36.357C30.086,42.331,34.928,47.173,40.902,47.173ZM40.902,47.173"/>
  <path stroke-miterlimit="4" stroke="none" fill-rule="nonzero" fill="#000000" stroke-width="1px" stroke-opacity="1" stroke-dasharray="none" stroke-linecap="butt" stroke-linejoin="miter" fill-opacity="1" d="M95.301,36.357L93.165,36.357L93.165,57.308L92.574,56.808C89.029,53.763,83.303,53.763,79.758,56.808L60.852,73.032C57.308,76.077,51.581,76.077,48.037,73.032L46.491,71.76C43.265,68.942,38.129,68.669,34.493,71.123L17.497,82.531C16.497,79.985,15.906,77.031,15.906,73.577L15.906,35.494C15.906,22.678,22.678,15.906,35.493,15.906L72.714,15.906L72.714,13.77C72.714,11.952,73.032,10.407,73.759,9.089L35.493,9.089C18.951,9.089,9.089,18.951,9.089,35.494L9.089,73.577C9.089,78.531,9.953,82.849,11.634,86.484C15.542,95.119,23.905,99.982,35.493,99.982L73.577,99.982C90.12,99.982,99.982,90.12,99.982,73.577L99.982,35.312C98.664,36.039,97.119,36.357,95.301,36.357ZM95.301,36.357"/>
</g>
  <g id="Thin-M" transform="matrix(1.0,0.0,0.0,1.0,803.174426518963,1030.7808887021092)">  <path stroke-dasharray="none" stroke="none" stroke-opacity="1" fill="#000000" stroke-miterlimit="4" stroke-linejoin="miter" fill-opacity="1" stroke-width="1px" stroke-linecap="butt" fill-rule="nonzero" d="M95.301,4.545L81.94,4.545C77.986,4.545,75.077,6.181,73.76,9.089C73.032,10.407,72.714,11.952,72.714,13.77L72.714,27.131C72.714,32.903,76.168,36.357,81.94,36.357L95.301,36.357C97.119,36.357,98.664,36.039,99.982,35.312C102.891,33.994,104.527,31.085,104.527,27.131L104.527,13.77C104.527,7.999,101.073,4.545,95.301,4.545ZM99.573,22.405C99.119,22.86,98.437,23.178,97.71,23.223L91.302,23.223L91.302,25.541L91.347,29.54C91.302,30.313,91.029,30.949,90.484,31.494C90.029,31.949,89.348,32.267,88.621,32.267C87.121,32.267,85.894,31.04,85.894,29.54L85.894,23.178L79.531,23.223C78.031,23.223,76.804,21.951,76.804,20.451C76.804,18.951,78.031,17.724,79.531,17.724L83.531,17.77L85.894,17.77L85.894,11.407C85.894,9.907,87.121,8.635,88.621,8.635C90.12,8.635,91.347,9.907,91.347,11.407L91.302,14.634L91.302,17.724L97.71,17.724C99.209,17.724,100.437,18.951,100.437,20.451C100.391,21.223,100.073,21.86,99.573,22.405ZM99.573,22.405"/>
  <path fill-opacity="1" stroke="none" stroke-width="1px" stroke-miterlimit="4" stroke-linecap="butt" fill="#000000" stroke-dasharray="none" stroke-linejoin="miter" stroke-opacity="1" fill-rule="nonzero" d="M40.902,47.173C46.876,47.173,51.718,42.331,51.718,36.357C51.718,30.383,46.876,25.541,40.902,25.541C34.928,25.541,30.086,30.383,30.086,36.357C30.086,42.331,34.928,47.173,40.902,47.173ZM40.902,47.173"/>
  <path stroke-dasharray="none" fill="#000000" fill-opacity="1" stroke-linecap="butt" fill-rule="nonzero" stroke-width="1px" stroke-opacity="1" stroke="none" stroke-miterlimit="4" stroke-linejoin="miter" d="M95.301,36.357L93.165,36.357L93.165,57.308L92.574,56.808C89.029,53.763,83.303,53.763,79.758,56.808L60.852,73.032C57.308,76.077,51.581,76.077,48.037,73.032L46.491,71.76C43.265,68.942,38.129,68.669,34.493,71.123L17.497,82.531C16.497,79.985,15.906,77.031,15.906,73.577L15.906,35.494C15.906,22.678,22.678,15.906,35.493,15.906L72.714,15.906L72.714,13.77C72.714,11.952,73.032,10.407,73.759,9.089L35.493,9.089C18.951,9.089,9.089,18.951,9.089,35.494L9.089,73.577C9.089,78.531,9.953,82.849,11.634,86.484C15.542,95.119,23.905,99.982,35.493,99.982L73.577,99.982C90.12,99.982,99.982,90.12,99.982,73.577L99.982,35.312C98.664,36.039,97.119,36.357,95.301,36.357ZM95.301,36.357"/>
</g>
  <g id="Ultralight-M" transform="matrix(1.0,0.0,0.0,1.0,506.46442651896285,1030.7808887021092)">  <path stroke-linejoin="miter" stroke-dasharray="none" stroke-linecap="butt" fill-opacity="1" fill-rule="nonzero" fill="#000000" stroke-opacity="1" stroke-miterlimit="4" stroke-width="1px" stroke="none" d="M95.301,4.545L81.94,4.545C77.986,4.545,75.077,6.181,73.76,9.089C73.032,10.407,72.714,11.952,72.714,13.77L72.714,27.131C72.714,32.903,76.168,36.357,81.94,36.357L95.301,36.357C97.119,36.357,98.664,36.039,99.982,35.312C102.891,33.994,104.527,31.085,104.527,27.131L104.527,13.77C104.527,7.999,101.073,4.545,95.301,4.545ZM99.573,22.405C99.119,22.86,98.437,23.178,97.71,23.223L91.302,23.223L91.302,25.541L91.347,29.54C91.302,30.313,91.029,30.949,90.484,31.494C90.029,31.949,89.348,32.267,88.621,32.267C87.121,32.267,85.894,31.04,85.894,29.54L85.894,23.178L79.531,23.223C78.031,23.223,76.804,21.951,76.804,20.451C76.804,18.951,78.031,17.724,79.531,17.724L83.531,17.77L85.894,17.77L85.894,11.407C85.894,9.907,87.121,8.635,88.621,8.635C90.12,8.635,91.347,9.907,91.347,11.407L91.302,14.634L91.302,17.724L97.71,17.724C99.209,17.724,100.437,18.951,100.437,20.451C100.391,21.223,100.073,21.86,99.573,22.405ZM99.573,22.405"/>
  <path fill-opacity="1" stroke-dasharray="none" stroke-opacity="1" fill-rule="nonzero" fill="#000000" stroke-width="1px" stroke-linejoin="miter" stroke-linecap="butt" stroke-miterlimit="4" stroke="none" d="M40.902,47.173C46.876,47.173,51.718,42.331,51.718,36.357C51.718,30.383,46.876,25.541,40.902,25.541C34.928,25.541,30.086,30.383,30.086,36.357C30.086,42.331,34.928,47.173,40.902,47.173ZM40.902,47.173"/>
  <path stroke-opacity="1" stroke-linejoin="miter" fill="#000000" stroke="none" fill-rule="nonzero" stroke-miterlimit="4" stroke-width="1px" stroke-dasharray="none" stroke-linecap="butt" fill-opacity="1" d="M95.301,36.357L93.165,36.357L93.165,57.308L92.574,56.808C89.029,53.763,83.303,53.763,79.758,56.808L60.852,73.032C57.308,76.077,51.581,76.077,48.037,73.032L46.491,71.76C43.265,68.942,38.129,68.669,34.493,71.123L17.497,82.531C16.497,79.985,15.906,77.031,15.906,73.577L15.906,35.494C15.906,22.678,22.678,15.906,35.493,15.906L72.714,15.906L72.714,13.77C72.714,11.952,73.032,10.407,73.759,9.089L35.493,9.089C18.951,9.089,9.089,18.951,9.089,35.494L9.089,73.577C9.089,78.531,9.953,82.849,11.634,86.484C15.542,95.119,23.905,99.982,35.493,99.982L73.577,99.982C90.12,99.982,99.982,90.12,99.982,73.577L99.982,35.312C98.664,36.039,97.119,36.357,95.301,36.357ZM95.301,36.357"/>
</g>
  <g id="Black-S" transform="matrix(1.0,0.0,0.0,1.0,2891.978645964348,613.7985300920327)">  <path fill-rule="nonzero" stroke-dasharray="none" stroke-linejoin="miter" fill="#000000" stroke-width="1px" stroke-linecap="butt" fill-opacity="1" stroke-opacity="1" stroke="none" stroke-miterlimit="4" d="M74.621,3.558L64.159,3.558C61.063,3.558,58.786,4.839,57.754,7.117C57.184,8.149,56.935,9.359,56.935,10.782L56.935,21.244C56.935,25.763,59.64,28.467,64.159,28.467L74.621,28.467C76.044,28.467,77.254,28.219,78.286,27.649C80.563,26.617,81.844,24.34,81.844,21.244L81.844,10.782C81.844,6.263,79.14,3.558,74.621,3.558ZM77.966,17.543C77.61,17.899,77.076,18.148,76.507,18.184L71.489,18.184L71.489,19.998L71.525,23.13C71.489,23.735,71.276,24.233,70.849,24.66C70.493,25.016,69.959,25.265,69.39,25.265C68.216,25.265,67.255,24.304,67.255,23.13L67.255,18.148L62.273,18.184C61.099,18.184,60.138,17.187,60.138,16.013C60.138,14.839,61.099,13.878,62.273,13.878L65.404,13.914L67.255,13.914L67.255,8.932C67.255,7.757,68.216,6.761,69.39,6.761C70.564,6.761,71.525,7.757,71.525,8.932L71.489,11.458L71.489,13.878L76.507,13.878C77.681,13.878,78.642,14.839,78.642,16.013C78.606,16.618,78.357,17.116,77.966,17.543ZM77.966,17.543"/>
  <path stroke-miterlimit="4" stroke-opacity="1" stroke-linecap="butt" stroke="none" stroke-width="1px" fill="#000000" fill-opacity="1" fill-rule="nonzero" stroke-linejoin="miter" stroke-dasharray="none" d="M32.026,36.937C36.704,36.937,40.495,33.145,40.495,28.467C40.495,23.79,36.704,19.998,32.026,19.998C27.349,19.998,23.557,23.79,23.557,28.467C23.557,33.145,27.349,36.937,32.026,36.937ZM32.026,36.937"/>
  <path stroke-width="1px" fill-rule="nonzero" stroke-dasharray="none" stroke-linecap="butt" stroke-linejoin="miter" stroke="none" stroke-opacity="1" stroke-miterlimit="4" fill="#000000" fill-opacity="1" d="M74.62,28.467L72.948,28.467L72.948,44.872L72.485,44.481C69.71,42.096,65.226,42.096,62.451,44.481L47.647,57.184C44.872,59.568,40.388,59.568,37.613,57.184L36.403,56.188C33.876,53.982,29.855,53.768,27.008,55.69L13.7,64.621C12.917,62.629,12.454,60.316,12.454,57.611L12.454,27.792C12.454,17.757,17.756,12.455,27.791,12.455L56.935,12.455L56.935,10.782C56.935,9.359,57.184,8.149,57.753,7.117L27.791,7.117C14.839,7.117,7.117,14.839,7.117,27.792L7.117,57.611C7.117,61.49,7.793,64.87,9.109,67.717C12.17,74.478,18.717,78.286,27.791,78.286L57.611,78.286C70.564,78.286,78.286,70.564,78.286,57.611L78.286,27.649C77.254,28.219,76.044,28.467,74.62,28.467ZM74.62,28.467"/>
</g>
  <g id="Heavy-S" transform="matrix(1.0,0.0,0.0,1.0,2595.268645964348,613.7985300920327)">  <path fill-opacity="1" stroke-miterlimit="4" fill-rule="nonzero" stroke-opacity="1" stroke-linecap="butt" stroke-width="1px" stroke-dasharray="none" fill="#000000" stroke="none" stroke-linejoin="miter" d="M74.621,3.558L64.159,3.558C61.063,3.558,58.786,4.839,57.754,7.117C57.184,8.149,56.935,9.359,56.935,10.782L56.935,21.244C56.935,25.763,59.64,28.467,64.159,28.467L74.621,28.467C76.044,28.467,77.254,28.219,78.286,27.649C80.563,26.617,81.844,24.34,81.844,21.244L81.844,10.782C81.844,6.263,79.14,3.558,74.621,3.558ZM77.966,17.543C77.61,17.899,77.076,18.148,76.507,18.184L71.489,18.184L71.489,19.998L71.525,23.13C71.489,23.735,71.276,24.233,70.849,24.66C70.493,25.016,69.959,25.265,69.39,25.265C68.216,25.265,67.255,24.304,67.255,23.13L67.255,18.148L62.273,18.184C61.099,18.184,60.138,17.187,60.138,16.013C60.138,14.839,61.099,13.878,62.273,13.878L65.404,13.914L67.255,13.914L67.255,8.932C67.255,7.757,68.216,6.761,69.39,6.761C70.564,6.761,71.525,7.757,71.525,8.932L71.489,11.458L71.489,13.878L76.507,13.878C77.681,13.878,78.642,14.839,78.642,16.013C78.606,16.618,78.357,17.116,77.966,17.543ZM77.966,17.543"/>
  <path stroke-linecap="butt" fill="#000000" stroke-miterlimit="4" stroke-opacity="1" fill-opacity="1" stroke="none" stroke-linejoin="miter" stroke-dasharray="none" fill-rule="nonzero" stroke-width="1px" d="M32.026,36.937C36.704,36.937,40.495,33.145,40.495,28.467C40.495,23.79,36.704,19.998,32.026,19.998C27.349,19.998,23.557,23.79,23.557,28.467C23.557,33.145,27.349,36.937,32.026,36.937ZM32.026,36.937"/>
  <path fill-rule="nonzero" stroke-linecap="butt" stroke-width="1px" stroke-opacity="1" stroke-miterlimit="4" fill="#000000" fill-opacity="1" stroke="none" stroke-dasharray="none" stroke-linejoin="miter" d="M74.62,28.467L72.948,28.467L72.948,44.872L72.485,44.481C69.71,42.096,65.226,42.096,62.451,44.481L47.647,57.184C44.872,59.568,40.388,59.568,37.613,57.184L36.403,56.188C33.876,53.982,29.855,53.768,27.008,55.69L13.7,64.621C12.917,62.629,12.454,60.316,12.454,57.611L12.454,27.792C12.454,17.757,17.756,12.455,27.791,12.455L56.935,12.455L56.935,10.782C56.935,9.359,57.184,8.149,57.753,7.117L27.791,7.117C14.839,7.117,7.117,14.839,7.117,27.792L7.117,57.611C7.117,61.49,7.793,64.87,9.109,67.717C12.17,74.478,18.717,78.286,27.791,78.286L57.611,78.286C70.564,78.286,78.286,70.564,78.286,57.611L78.286,27.649C77.254,28.219,76.044,28.467,74.62,28.467ZM74.62,28.467"/>
</g>
  <g id="Bold-S" transform="matrix(1.0,0.0,0.0,1.0,2298.5586459643478,613.7985300920327)">  <path stroke-width="1px" fill-rule="nonzero" stroke-linejoin="miter" stroke-opacity="1" stroke="none" stroke-linecap="butt" fill="#000000" stroke-miterlimit="4" fill-opacity="1" stroke-dasharray="none" d="M74.621,3.558L64.159,3.558C61.063,3.558,58.786,4.839,57.754,7.117C57.184,8.149,56.935,9.359,56.935,10.782L56.935,21.244C56.935,25.763,59.64,28.467,64.159,28.467L74.621,28.467C76.044,28.467,77.254,28.219,78.286,27.649C80.563,26.617,81.844,24.34,81.844,21.244L81.844,10.782C81.844,6.263,79.14,3.558,74.621,3.558ZM77.966,17.543C77.61,17.899,77.076,18.148,76.507,18.184L71.489,18.184L71.489,19.998L71.525,23.13C71.489,23.735,71.276,24.233,70.849,24.66C70.493,25.016,69.959,25.265,69.39,25.265C68.216,25.265,67.255,24.304,67.255,23.13L67.255,18.148L62.273,18.184C61.099,18.184,60.138,17.187,60.138,16.013C60.138,14.839,61.099,13.878,62.273,13.878L65.404,13.914L67.255,13.914L67.255,8.932C67.255,7.757,68.216,6.761,69.39,6.761C70.564,6.761,71.525,7.757,71.525,8.932L71.489,11.458L71.489,13.878L76.507,13.878C77.681,13.878,78.642,14.839,78.642,16.013C78.606,16.618,78.357,17.116,77.966,17.543ZM77.966,17.543"/>
  <path fill-opacity="1" stroke-opacity="1" fill="#000000" stroke-linejoin="miter" stroke-miterlimit="4" stroke-width="1px" stroke-dasharray="none" fill-rule="nonzero" stroke="none" stroke-linecap="butt" d="M32.026,36.937C36.704,36.937,40.495,33.145,40.495,28.467C40.495,23.79,36.704,19.998,32.026,19.998C27.349,19.998,23.557,23.79,23.557,28.467C23.557,33.145,27.349,36.937,32.026,36.937ZM32.026,36.937"/>
  <path stroke-width="1px" stroke-opacity="1" fill-opacity="1" stroke-linecap="butt" fill="#000000" stroke-linejoin="miter" fill-rule="nonzero" stroke="none" stroke-miterlimit="4" stroke-dasharray="none" d="M74.62,28.467L72.948,28.467L72.948,44.872L72.485,44.481C69.71,42.096,65.226,42.096,62.451,44.481L47.647,57.184C44.872,59.568,40.388,59.568,37.613,57.184L36.403,56.188C33.876,53.982,29.855,53.768,27.008,55.69L13.7,64.621C12.917,62.629,12.454,60.316,12.454,57.611L12.454,27.792C12.454,17.757,17.756,12.455,27.791,12.455L56.935,12.455L56.935,10.782C56.935,9.359,57.184,8.149,57.753,7.117L27.791,7.117C14.839,7.117,7.117,14.839,7.117,27.792L7.117,57.611C7.117,61.49,7.793,64.87,9.109,67.717C12.17,74.478,18.717,78.286,27.791,78.286L57.611,78.286C70.564,78.286,78.286,70.564,78.286,57.611L78.286,27.649C77.254,28.219,76.044,28.467,74.62,28.467ZM74.62,28.467"/>
</g>
  <g id="Semibold-S" transform="matrix(1.0,0.0,0.0,1.0,2001.848645964348,613.7985300920327)">  <path fill="#000000" stroke-linecap="butt" stroke-miterlimit="4" stroke-width="1px" stroke-opacity="1" fill-opacity="1" stroke-dasharray="none" stroke-linejoin="miter" fill-rule="nonzero" stroke="none" d="M74.621,3.558L64.159,3.558C61.063,3.558,58.786,4.839,57.754,7.117C57.184,8.149,56.935,9.359,56.935,10.782L56.935,21.244C56.935,25.763,59.64,28.467,64.159,28.467L74.621,28.467C76.044,28.467,77.254,28.219,78.286,27.649C80.563,26.617,81.844,24.34,81.844,21.244L81.844,10.782C81.844,6.263,79.14,3.558,74.621,3.558ZM77.966,17.543C77.61,17.899,77.076,18.148,76.507,18.184L71.489,18.184L71.489,19.998L71.525,23.13C71.489,23.735,71.276,24.233,70.849,24.66C70.493,25.016,69.959,25.265,69.39,25.265C68.216,25.265,67.255,24.304,67.255,23.13L67.255,18.148L62.273,18.184C61.099,18.184,60.138,17.187,60.138,16.013C60.138,14.839,61.099,13.878,62.273,13.878L65.404,13.914L67.255,13.914L67.255,8.932C67.255,7.757,68.216,6.761,69.39,6.761C70.564,6.761,71.525,7.757,71.525,8.932L71.489,11.458L71.489,13.878L76.507,13.878C77.681,13.878,78.642,14.839,78.642,16.013C78.606,16.618,78.357,17.116,77.966,17.543ZM77.966,17.543"/>
  <path stroke-opacity="1" stroke-linejoin="miter" fill="#000000" stroke-linecap="butt" stroke-width="1px" fill-opacity="1" fill-rule="nonzero" stroke="none" stroke-miterlimit="4" stroke-dasharray="none" d="M32.026,36.937C36.704,36.937,40.495,33.145,40.495,28.467C40.495,23.79,36.704,19.998,32.026,19.998C27.349,19.998,23.557,23.79,23.557,28.467C23.557,33.145,27.349,36.937,32.026,36.937ZM32.026,36.937"/>
  <path stroke="none" fill-rule="nonzero" stroke-width="1px" stroke-linejoin="miter" fill="#000000" stroke-linecap="butt" stroke-miterlimit="4" stroke-dasharray="none" stroke-opacity="1" fill-opacity="1" d="M74.62,28.467L72.948,28.467L72.948,44.872L72.485,44.481C69.71,42.096,65.226,42.096,62.451,44.481L47.647,57.184C44.872,59.568,40.388,59.568,37.613,57.184L36.403,56.188C33.876,53.982,29.855,53.768,27.008,55.69L13.7,64.621C12.917,62.629,12.454,60.316,12.454,57.611L12.454,27.792C12.454,17.757,17.756,12.455,27.791,12.455L56.935,12.455L56.935,10.782C56.935,9.359,57.184,8.149,57.753,7.117L27.791,7.117C14.839,7.117,7.117,14.839,7.117,27.792L7.117,57.611C7.117,61.49,7.793,64.87,9.109,67.717C12.17,74.478,18.717,78.286,27.791,78.286L57.611,78.286C70.564,78.286,78.286,70.564,78.286,57.611L78.286,27.649C77.254,28.219,76.044,28.467,74.62,28.467ZM74.62,28.467"/>
</g>
  <g id="Medium-S" transform="matrix(1.0,0.0,0.0,1.0,1705.138645964348,613.7985300920327)">  <path stroke-opacity="1" stroke-miterlimit="4" stroke="none" stroke-width="1px" fill-rule="nonzero" stroke-linecap="butt" fill="#000000" stroke-dasharray="none" fill-opacity="1" stroke-linejoin="miter" d="M74.621,3.558L64.159,3.558C61.063,3.558,58.786,4.839,57.754,7.117C57.184,8.149,56.935,9.359,56.935,10.782L56.935,21.244C56.935,25.763,59.64,28.467,64.159,28.467L74.621,28.467C76.044,28.467,77.254,28.219,78.286,27.649C80.563,26.617,81.844,24.34,81.844,21.244L81.844,10.782C81.844,6.263,79.14,3.558,74.621,3.558ZM77.966,17.543C77.61,17.899,77.076,18.148,76.507,18.184L71.489,18.184L71.489,19.998L71.525,23.13C71.489,23.735,71.276,24.233,70.849,24.66C70.493,25.016,69.959,25.265,69.39,25.265C68.216,25.265,67.255,24.304,67.255,23.13L67.255,18.148L62.273,18.184C61.099,18.184,60.138,17.187,60.138,16.013C60.138,14.839,61.099,13.878,62.273,13.878L65.404,13.914L67.255,13.914L67.255,8.932C67.255,7.757,68.216,6.761,69.39,6.761C70.564,6.761,71.525,7.757,71.525,8.932L71.489,11.458L71.489,13.878L76.507,13.878C77.681,13.878,78.642,14.839,78.642,16.013C78.606,16.618,78.357,17.116,77.966,17.543ZM77.966,17.543"/>
  <path stroke="none" stroke-linecap="butt" stroke-width="1px" stroke-linejoin="miter" stroke-opacity="1" fill-opacity="1" fill-rule="nonzero" stroke-dasharray="none" stroke-miterlimit="4" fill="#000000" d="M32.026,36.937C36.704,36.937,40.495,33.145,40.495,28.467C40.495,23.79,36.704,19.998,32.026,19.998C27.349,19.998,23.557,23.79,23.557,28.467C23.557,33.145,27.349,36.937,32.026,36.937ZM32.026,36.937"/>
  <path stroke-width="1px" stroke="none" fill="#000000" stroke-dasharray="none" stroke-miterlimit="4" stroke-opacity="1" stroke-linecap="butt" fill-opacity="1" fill-rule="nonzero" stroke-linejoin="miter" d="M74.62,28.467L72.948,28.467L72.948,44.872L72.485,44.481C69.71,42.096,65.226,42.096,62.451,44.481L47.647,57.184C44.872,59.568,40.388,59.568,37.613,57.184L36.403,56.188C33.876,53.982,29.855,53.768,27.008,55.69L13.7,64.621C12.917,62.629,12.454,60.316,12.454,57.611L12.454,27.792C12.454,17.757,17.756,12.455,27.791,12.455L56.935,12.455L56.935,10.782C56.935,9.359,57.184,8.149,57.753,7.117L27.791,7.117C14.839,7.117,7.117,14.839,7.117,27.792L7.117,57.611C7.117,61.49,7.793,64.87,9.109,67.717C12.17,74.478,18.717,78.286,27.791,78.286L57.611,78.286C70.564,78.286,78.286,70.564,78.286,57.611L78.286,27.649C77.254,28.219,76.044,28.467,74.62,28.467ZM74.62,28.467"/>
</g>
  <g id="Regular-S" transform="matrix(1.0,0.0,0.0,1.0,1408.4286459643479,613.7985300920327)">  <path stroke-miterlimit="4" fill="#000000" stroke="none" stroke-opacity="1" stroke-linecap="butt" fill-opacity="1" stroke-dasharray="none" fill-rule="nonzero" stroke-linejoin="miter" stroke-width="1px" d="M74.621,3.558L64.159,3.558C61.063,3.558,58.786,4.839,57.754,7.117C57.184,8.149,56.935,9.359,56.935,10.782L56.935,21.244C56.935,25.763,59.64,28.467,64.159,28.467L74.621,28.467C76.044,28.467,77.254,28.219,78.286,27.649C80.563,26.617,81.844,24.34,81.844,21.244L81.844,10.782C81.844,6.263,79.14,3.558,74.621,3.558ZM77.966,17.543C77.61,17.899,77.076,18.148,76.507,18.184L71.489,18.184L71.489,19.998L71.525,23.13C71.489,23.735,71.276,24.233,70.849,24.66C70.493,25.016,69.959,25.265,69.39,25.265C68.216,25.265,67.255,24.304,67.255,23.13L67.255,18.148L62.273,18.184C61.099,18.184,60.138,17.187,60.138,16.013C60.138,14.839,61.099,13.878,62.273,13.878L65.404,13.914L67.255,13.914L67.255,8.932C67.255,7.757,68.216,6.761,69.39,6.761C70.564,6.761,71.525,7.757,71.525,8.932L71.489,11.458L71.489,13.878L76.507,13.878C77.681,13.878,78.642,14.839,78.642,16.013C78.606,16.618,78.357,17.116,77.966,17.543ZM77.966,17.543"/>
  <path stroke="none" stroke-opacity="1" fill-rule="nonzero" stroke-width="1px" stroke-dasharray="none" fill-opacity="1" stroke-linejoin="miter" stroke-miterlimit="4" fill="#000000" stroke-linecap="butt" d="M32.026,36.937C36.704,36.937,40.495,33.145,40.495,28.467C40.495,23.79,36.704,19.998,32.026,19.998C27.349,19.998,23.557,23.79,23.557,28.467C23.557,33.145,27.349,36.937,32.026,36.937ZM32.026,36.937"/>
  <path fill-rule="nonzero" fill="#000000" stroke-dasharray="none" stroke-miterlimit="4" stroke-opacity="1" stroke-width="1px" stroke-linejoin="miter" stroke="none" stroke-linecap="butt" fill-opacity="1" d="M74.62,28.467L72.948,28.467L72.948,44.872L72.485,44.481C69.71,42.096,65.226,42.096,62.451,44.481L47.647,57.184C44.872,59.568,40.388,59.568,37.613,57.184L36.403,56.188C33.876,53.982,29.855,53.768,27.008,55.69L13.7,64.621C12.917,62.629,12.454,60.316,12.454,57.611L12.454,27.792C12.454,17.757,17.756,12.455,27.791,12.455L56.935,12.455L56.935,10.782C56.935,9.359,57.184,8.149,57.753,7.117L27.791,7.117C14.839,7.117,7.117,14.839,7.117,27.792L7.117,57.611C7.117,61.49,7.793,64.87,9.109,67.717C12.17,74.478,18.717,78.286,27.791,78.286L57.611,78.286C70.564,78.286,78.286,70.564,78.286,57.611L78.286,27.649C77.254,28.219,76.044,28.467,74.62,28.467ZM74.62,28.467"/>
</g>
  <g id="Light-S" transform="matrix(1.0,0.0,0.0,1.0,1111.718645964348,613.7985300920327)">  <path fill-rule="nonzero" stroke-opacity="1" stroke-linejoin="miter" stroke="none" fill-opacity="1" stroke-dasharray="none" fill="#000000" stroke-linecap="butt" stroke-miterlimit="4" stroke-width="1px" d="M74.621,3.558L64.159,3.558C61.063,3.558,58.786,4.839,57.754,7.117C57.184,8.149,56.935,9.359,56.935,10.782L56.935,21.244C56.935,25.763,59.64,28.467,64.159,28.467L74.621,28.467C76.044,28.467,77.254,28.219,78.286,27.649C80.563,26.617,81.844,24.34,81.844,21.244L81.844,10.782C81.844,6.263,79.14,3.558,74.621,3.558ZM77.966,17.543C77.61,17.899,77.076,18.148,76.507,18.184L71.489,18.184L71.489,19.998L71.525,23.13C71.489,23.735,71.276,24.233,70.849,24.66C70.493,25.016,69.959,25.265,69.39,25.265C68.216,25.265,67.255,24.304,67.255,23.13L67.255,18.148L62.273,18.184C61.099,18.184,60.138,17.187,60.138,16.013C60.138,14.839,61.099,13.878,62.273,13.878L65.404,13.914L67.255,13.914L67.255,8.932C67.255,7.757,68.216,6.761,69.39,6.761C70.564,6.761,71.525,7.757,71.525,8.932L71.489,11.458L71.489,13.878L76.507,13.878C77.681,13.878,78.642,14.839,78.642,16.013C78.606,16.618,78.357,17.116,77.966,17.543ZM77.966,17.543"/>
  <path stroke-opacity="1" stroke-miterlimit="4" fill-rule="nonzero" fill-opacity="1" stroke="none" stroke-linecap="butt" fill="#000000" stroke-linejoin="miter" stroke-dasharray="none" stroke-width="1px" d="M32.026,36.937C36.704,36.937,40.495,33.145,40.495,28.467C40.495,23.79,36.704,19.998,32.026,19.998C27.349,19.998,23.557,23.79,23.557,28.467C23.557,33.145,27.349,36.937,32.026,36.937ZM32.026,36.937"/>
  <path stroke-miterlimit="4" stroke="none" fill-rule="nonzero" fill="#000000" stroke-width="1px" stroke-opacity="1" stroke-dasharray="none" stroke-linecap="butt" stroke-linejoin="miter" fill-opacity="1" d="M74.62,28.467L72.948,28.467L72.948,44.872L72.485,44.481C69.71,42.096,65.226,42.096,62.451,44.481L47.647,57.184C44.872,59.568,40.388,59.568,37.613,57.184L36.403,56.188C33.876,53.982,29.855,53.768,27.008,55.69L13.7,64.621C12.917,62.629,12.454,60.316,12.454,57.611L12.454,27.792C12.454,17.757,17.756,12.455,27.791,12.455L56.935,12.455L56.935,10.782C56.935,9.359,57.184,8.149,57.753,7.117L27.791,7.117C14.839,7.117,7.117,14.839,7.117,27.792L7.117,57.611C7.117,61.49,7.793,64.87,9.109,67.717C12.17,74.478,18.717,78.286,27.791,78.286L57.611,78.286C70.564,78.286,78.286,70.564,78.286,57.611L78.286,27.649C77.254,28.219,76.044,28.467,74.62,28.467ZM74.62,28.467"/>
</g>
  <g id="Thin-S" transform="matrix(1.0,0.0,0.0,1.0,815.0086459643479,613.7985300920327)">  <path stroke-dasharray="none" stroke="none" stroke-opacity="1" fill="#000000" stroke-miterlimit="4" stroke-linejoin="miter" fill-opacity="1" stroke-width="1px" stroke-linecap="butt" fill-rule="nonzero" d="M74.621,3.558L64.159,3.558C61.063,3.558,58.786,4.839,57.754,7.117C57.184,8.149,56.935,9.359,56.935,10.782L56.935,21.244C56.935,25.763,59.64,28.467,64.159,28.467L74.621,28.467C76.044,28.467,77.254,28.219,78.286,27.649C80.563,26.617,81.844,24.34,81.844,21.244L81.844,10.782C81.844,6.263,79.14,3.558,74.621,3.558ZM77.966,17.543C77.61,17.899,77.076,18.148,76.507,18.184L71.489,18.184L71.489,19.998L71.525,23.13C71.489,23.735,71.276,24.233,70.849,24.66C70.493,25.016,69.959,25.265,69.39,25.265C68.216,25.265,67.255,24.304,67.255,23.13L67.255,18.148L62.273,18.184C61.099,18.184,60.138,17.187,60.138,16.013C60.138,14.839,61.099,13.878,62.273,13.878L65.404,13.914L67.255,13.914L67.255,8.932C67.255,7.757,68.216,6.761,69.39,6.761C70.564,6.761,71.525,7.757,71.525,8.932L71.489,11.458L71.489,13.878L76.507,13.878C77.681,13.878,78.642,14.839,78.642,16.013C78.606,16.618,78.357,17.116,77.966,17.543ZM77.966,17.543"/>
  <path fill-opacity="1" stroke="none" stroke-width="1px" stroke-miterlimit="4" stroke-linecap="butt" fill="#000000" stroke-dasharray="none" stroke-linejoin="miter" stroke-opacity="1" fill-rule="nonzero" d="M32.026,36.937C36.704,36.937,40.495,33.145,40.495,28.467C40.495,23.79,36.704,19.998,32.026,19.998C27.349,19.998,23.557,23.79,23.557,28.467C23.557,33.145,27.349,36.937,32.026,36.937ZM32.026,36.937"/>
  <path stroke-dasharray="none" fill="#000000" fill-opacity="1" stroke-linecap="butt" fill-rule="nonzero" stroke-width="1px" stroke-opacity="1" stroke="none" stroke-miterlimit="4" stroke-linejoin="miter" d="M74.62,28.467L72.948,28.467L72.948,44.872L72.485,44.481C69.71,42.096,65.226,42.096,62.451,44.481L47.647,57.184C44.872,59.568,40.388,59.568,37.613,57.184L36.403,56.188C33.876,53.982,29.855,53.768,27.008,55.69L13.7,64.621C12.917,62.629,12.454,60.316,12.454,57.611L12.454,27.792C12.454,17.757,17.756,12.455,27.791,12.455L56.935,12.455L56.935,10.782C56.935,9.359,57.184,8.149,57.753,7.117L27.791,7.117C14.839,7.117,7.117,14.839,7.117,27.792L7.117,57.611C7.117,61.49,7.793,64.87,9.109,67.717C12.17,74.478,18.717,78.286,27.791,78.286L57.611,78.286C70.564,78.286,78.286,70.564,78.286,57.611L78.286,27.649C77.254,28.219,76.044,28.467,74.62,28.467ZM74.62,28.467"/>
</g>
  <g id="Ultralight-S" transform="matrix(1.0,0.0,0.0,1.0,518.2986459643479,613.7985300920327)">  <path stroke-linejoin="miter" stroke-dasharray="none" stroke-linecap="butt" fill-opacity="1" fill-rule="nonzero" fill="#000000" stroke-opacity="1" stroke-miterlimit="4" stroke-width="1px" stroke="none" d="M74.621,3.558L64.159,3.558C61.063,3.558,58.786,4.839,57.754,7.117C57.184,8.149,56.935,9.359,56.935,10.782L56.935,21.244C56.935,25.763,59.64,28.467,64.159,28.467L74.621,28.467C76.044,28.467,77.254,28.219,78.286,27.649C80.563,26.617,81.844,24.34,81.844,21.244L81.844,10.782C81.844,6.263,79.14,3.558,74.621,3.558ZM77.966,17.543C77.61,17.899,77.076,18.148,76.507,18.184L71.489,18.184L71.489,19.998L71.525,23.13C71.489,23.735,71.276,24.233,70.849,24.66C70.493,25.016,69.959,25.265,69.39,25.265C68.216,25.265,67.255,24.304,67.255,23.13L67.255,18.148L62.273,18.184C61.099,18.184,60.138,17.187,60.138,16.013C60.138,14.839,61.099,13.878,62.273,13.878L65.404,13.914L67.255,13.914L67.255,8.932C67.255,7.757,68.216,6.761,69.39,6.761C70.564,6.761,71.525,7.757,71.525,8.932L71.489,11.458L71.489,13.878L76.507,13.878C77.681,13.878,78.642,14.839,78.642,16.013C78.606,16.618,78.357,17.116,77.966,17.543ZM77.966,17.543"/>
  <path fill-opacity="1" stroke-dasharray="none" stroke-opacity="1" fill-rule="nonzero" fill="#000000" stroke-width="1px" stroke-linejoin="miter" stroke-linecap="butt" stroke-miterlimit="4" stroke="none" d="M32.026,36.937C36.704,36.937,40.495,33.145,40.495,28.467C40.495,23.79,36.704,19.998,32.026,19.998C27.349,19.998,23.557,23.79,23.557,28.467C23.557,33.145,27.349,36.937,32.026,36.937ZM32.026,36.937"/>
  <path stroke-opacity="1" stroke-linejoin="miter" fill="#000000" stroke="none" fill-rule="nonzero" stroke-miterlimit="4" stroke-width="1px" stroke-dasharray="none" stroke-linecap="butt" fill-opacity="1" d="M74.62,28.467L72.948,28.467L72.948,44.872L72.485,44.481C69.71,42.096,65.226,42.096,62.451,44.481L47.647,57.184C44.872,59.568,40.388,59.568,37.613,57.184L36.403,56.188C33.876,53.982,29.855,53.768,27.008,55.69L13.7,64.621C12.917,62.629,12.454,60.316,12.454,57.611L12.454,27.792C12.454,17.757,17.756,12.455,27.791,12.455L56.935,12.455L56.935,10.782C56.935,9.359,57.184,8.149,57.753,7.117L27.791,7.117C14.839,7.117,7.117,14.839,7.117,27.792L7.117,57.611C7.117,61.49,7.793,64.87,9.109,67.717C12.17,74.478,18.717,78.286,27.791,78.286L57.611,78.286C70.564,78.286,78.286,70.564,78.286,57.611L78.286,27.649C77.254,28.219,76.044,28.467,74.62,28.467ZM74.62,28.467"/>
</g>
 </g>
</svg>
