<?xml version="1.0" encoding="UTF-8"?>
<!-- Generator: CustomSymbols v2.6.2.41 by @serious_bret https://bretlester.com/app_content/CustomSymbols/ -->
<!-- Guides: Left/Right 0.0/0.0 Cap/Base 0.227/0.127 -->
<!-- Settings: RefScale 1.0 Min/Max Stroke Scales 0.5/2.21 -->
<!DOCTYPE svg
PUBLIC "-//W3C//DTD SVG 1.1//EN"
       "http://www.w3.org/Graphics/SVG/1.1/DTD/svg11.dtd">
<svg version="1.1" xmlns="http://www.w3.org/2000/svg" xmlns:xlink="http://www.w3.org/1999/xlink" width="3300" height="2200">
<![CDATA[<svg width="26" height="26" viewBox="0 0 26 26" fill="none" xmlns="http://www.w3.org/2000/svg">
<path fill-rule="evenodd" clip-rule="evenodd" d="M10.6667 1.33333C10.6669 1.09002 10.591 0.852729 10.4497 0.654666C10.3084 0.456604 10.1087 0.30768 9.87854 0.228736C9.6484 0.149792 9.39933 0.144778 9.16619 0.214396C8.93305 0.284014 8.72751 0.42478 8.57834 0.616995L0.411673 11.117C0.252359 11.3218 0.165863 11.5739 0.165863 11.8333C0.165863 12.0928 0.252359 12.3449 0.411673 12.5497L8.57834 23.0497C8.72751 23.2419 8.93305 23.3826 9.16619 23.4523C9.39933 23.5219 9.6484 23.5169 9.87854 23.4379C10.1087 23.359 10.3084 23.2101 10.4497 23.012C10.591 22.8139 10.6669 22.5766 10.6667 22.3333V17.6783C16.9422 17.809 19.9568 19.0002 21.4712 20.2952C22.9108 21.526 23.1745 22.9738 23.4487 24.4905L23.5198 24.8813C23.5722 25.161 23.7249 25.4119 23.9493 25.5868C24.1737 25.7617 24.4543 25.8486 24.7383 25.8311C25.0223 25.8136 25.2901 25.693 25.4913 25.4918C25.6926 25.2907 25.8134 25.023 25.831 24.739C26.0305 21.533 25.7307 16.8873 23.4662 13.0012C21.2682 9.22933 17.3097 6.32899 10.6667 6.02566V1.33333Z" fill="#0000FF"/>
</svg>
]]>
 <g id="Notes">
  <rect height="2200" id="artboard" style="fill:white;opacity:1" width="3300" x="0" y="0"/>
  <line id="" style="fill:none;stroke:black;opacity:1;stroke-width:0.5;" x1="263" x2="3036" y1="292" y2="292"/>
  <text id="reftext1" style="stroke:none;fill:black;font-family:-apple-system,&quot;SF Pro Display&quot;,&quot;SF Pro Text&quot;,Helvetica,sans-serif;font-weight:bold;" transform="matrix(1 0 0 1 263 322)">Weight/Scale Variations</text>
  <text id="reftext2" style="stroke:none;fill:black;font-family:-apple-system,&quot;SF Pro Display&quot;,&quot;SF Pro Text&quot;,Helvetica,sans-serif;text-anchor:middle;" transform="matrix(1 0 0 1 559.711 322)">Ultralight</text>
  <text style="stroke:none;fill:black;font-family:-apple-system,&quot;SF Pro Display&quot;,&quot;SF Pro Text&quot;,Helvetica,sans-serif;text-anchor:middle;" transform="matrix(1 0 0 1 856.422 322)">Thin</text>
  <text style="stroke:none;fill:black;font-family:-apple-system,&quot;SF Pro Display&quot;,&quot;SF Pro Text&quot;,Helvetica,sans-serif;text-anchor:middle;" transform="matrix(1 0 0 1 1153.13 322)">Light</text>
  <text style="stroke:none;fill:black;font-family:-apple-system,&quot;SF Pro Display&quot;,&quot;SF Pro Text&quot;,Helvetica,sans-serif;text-anchor:middle;" transform="matrix(1 0 0 1 1449.84 322)">Regular</text>
  <text style="stroke:none;fill:black;font-family:-apple-system,&quot;SF Pro Display&quot;,&quot;SF Pro Text&quot;,Helvetica,sans-serif;text-anchor:middle;" transform="matrix(1 0 0 1 1746.56 322)">Medium</text>
  <text style="stroke:none;fill:black;font-family:-apple-system,&quot;SF Pro Display&quot;,&quot;SF Pro Text&quot;,Helvetica,sans-serif;text-anchor:middle;" transform="matrix(1 0 0 1 2043.27 322)">Semibold</text>
  <text style="stroke:none;fill:black;font-family:-apple-system,&quot;SF Pro Display&quot;,&quot;SF Pro Text&quot;,Helvetica,sans-serif;text-anchor:middle;" transform="matrix(1 0 0 1 2339.98 322)">Bold</text>
  <text style="stroke:none;fill:black;font-family:-apple-system,&quot;SF Pro Display&quot;,&quot;SF Pro Text&quot;,Helvetica,sans-serif;text-anchor:middle;" transform="matrix(1 0 0 1 2636.69 322)">Heavy</text>
  <text style="stroke:none;fill:black;font-family:-apple-system,&quot;SF Pro Display&quot;,&quot;SF Pro Text&quot;,Helvetica,sans-serif;text-anchor:middle;" transform="matrix(1 0 0 1 2933.4 322)">Black</text>
  <line id="" style="fill:none;stroke:black;opacity:1;stroke-width:0.5;" x1="263" x2="3036" y1="1903" y2="1903"/>
  <g id="" transform="matrix(1 0 0 1 263 1933)">
   <path d="M9.24805 0.830078C13.5547 0.830078 17.1387-2.74414 17.1387-7.05078C17.1387-11.3574 13.5449-14.9316 9.23828-14.9316C4.94141-14.9316 1.36719-11.3574 1.36719-7.05078C1.36719-2.74414 4.95117 0.830078 9.24805 0.830078ZM9.24805-0.654297C5.70312-0.654297 2.87109-3.49609 2.87109-7.05078C2.87109-10.6055 5.69336-13.4473 9.23828-13.4473C12.793-13.4473 15.6348-10.6055 15.6445-7.05078C15.6543-3.49609 12.8027-0.654297 9.24805-0.654297ZM6.39648-6.31836L8.50586-6.31836L8.50586-4.19922C8.50586-3.75977 8.79883-3.45703 9.22852-3.45703C9.67773-3.45703 9.9707-3.75977 9.9707-4.19922L9.9707-6.31836L12.0996-6.31836C12.5391-6.31836 12.8418-6.61133 12.8418-7.04102C12.8418-7.48047 12.5391-7.7832 12.0996-7.7832L9.9707-7.7832L9.9707-9.89258C9.9707-10.3418 9.67773-10.6445 9.22852-10.6445C8.79883-10.6445 8.50586-10.3418 8.50586-9.89258L8.50586-7.7832L6.39648-7.7832C5.94727-7.7832 5.64453-7.48047 5.64453-7.04102C5.64453-6.61133 5.94727-6.31836 6.39648-6.31836Z"/>
  </g>
  <g id="" transform="matrix(1 0 0 1 281.506 1933)">
   <path d="M11.709 2.91016C17.1582 2.91016 21.6699-1.61133 21.6699-7.05078C21.6699-12.5 17.1484-17.0117 11.6992-17.0117C6.25977-17.0117 1.74805-12.5 1.74805-7.05078C1.74805-1.61133 6.26953 2.91016 11.709 2.91016ZM11.709 1.25C7.09961 1.25 3.41797-2.44141 3.41797-7.05078C3.41797-11.6602 7.08984-15.3516 11.6992-15.3516C16.3086-15.3516 20-11.6602 20.0098-7.05078C20.0195-2.44141 16.3184 1.25 11.709 1.25ZM7.98828-6.23047L10.8789-6.23047L10.8789-3.32031C10.8789-2.83203 11.2109-2.5 11.6895-2.5C12.1777-2.5 12.5195-2.83203 12.5195-3.32031L12.5195-6.23047L15.4297-6.23047C15.918-6.23047 16.25-6.5625 16.25-7.04102C16.25-7.5293 15.918-7.87109 15.4297-7.87109L12.5195-7.87109L12.5195-10.7617C12.5195-11.2695 12.1777-11.6016 11.6895-11.6016C11.2109-11.6016 10.8789-11.2598 10.8789-10.7617L10.8789-7.87109L7.98828-7.87109C7.48047-7.87109 7.14844-7.5293 7.14844-7.04102C7.14844-6.5625 7.49023-6.23047 7.98828-6.23047Z"/>
  </g>
  <g id="" transform="matrix(1 0 0 1 304.924 1933)">
   <path d="M14.9707 5.66406C21.9336 5.66406 27.6953-0.0976562 27.6953-7.05078C27.6953-14.0137 21.9238-19.7754 14.9609-19.7754C8.00781-19.7754 2.25586-14.0137 2.25586-7.05078C2.25586-0.0976562 8.01758 5.66406 14.9707 5.66406ZM14.9707 3.84766C8.93555 3.84766 4.08203-1.01562 4.08203-7.05078C4.08203-13.0957 8.92578-17.9492 14.9609-17.9492C21.0059-17.9492 25.8594-13.0957 25.8691-7.05078C25.8789-1.01562 21.0156 3.84766 14.9707 3.84766ZM10.0586-6.14258L14.0625-6.14258L14.0625-2.12891C14.0625-1.5918 14.4336-1.2207 14.9512-1.2207C15.4883-1.2207 15.8594-1.5918 15.8594-2.12891L15.8594-6.14258L19.8828-6.14258C20.4102-6.14258 20.791-6.51367 20.791-7.03125C20.791-7.56836 20.4199-7.94922 19.8828-7.94922L15.8594-7.94922L15.8594-11.9531C15.8594-12.5098 15.4883-12.8809 14.9512-12.8809C14.4336-12.8809 14.0625-12.5 14.0625-11.9531L14.0625-7.94922L10.0586-7.94922C9.50195-7.94922 9.13086-7.56836 9.13086-7.03125C9.13086-6.51367 9.51172-6.14258 10.0586-6.14258Z"/>
  </g>
  <text style="stroke:none;fill:black;font-family:-apple-system,&quot;SF Pro Display&quot;,&quot;SF Pro Text&quot;,Helvetica,sans-serif;font-weight:bold;" transform="matrix(1 0 0 1 263 1953)">Design Variations</text>
  <text style="stroke:none;fill:black;font-family:-apple-system,&quot;SF Pro Display&quot;,&quot;SF Pro Text&quot;,Helvetica,sans-serif;" transform="matrix(1 0 0 1 263 1971)">Symbols are supported in up to nine weights and three scales.</text>
  <text style="stroke:none;fill:black;font-family:-apple-system,&quot;SF Pro Display&quot;,&quot;SF Pro Text&quot;,Helvetica,sans-serif;" transform="matrix(1 0 0 1 263 1989)">For optimal layout with text and other symbols, vertically align</text>
  <text style="stroke:none;fill:black;font-family:-apple-system,&quot;SF Pro Display&quot;,&quot;SF Pro Text&quot;,Helvetica,sans-serif;" transform="matrix(1 0 0 1 263 2007)">symbols with the adjacent text.</text>
  <line id="" style="fill:none;stroke:#00AEEF;stroke-width:0.5;opacity:1.0;" x1="776" x2="776" y1="1919" y2="1933"/>
  <g id="" transform="matrix(1 0 0 1 776 1933)">
   <path d="M3.31055 0.126953C3.82812 0.126953 4.08203-0.0683594 4.26758-0.605469L5.52734-4.0625L11.2891-4.0625L12.5488-0.605469C12.7344-0.0683594 12.9883 0.126953 13.4961 0.126953C14.0137 0.126953 14.3457-0.185547 14.3457-0.673828C14.3457-0.839844 14.3164-0.986328 14.2383-1.20117L9.6582-13.3887C9.43359-13.9941 9.0332-14.2871 8.4082-14.2871C7.80273-14.2871 7.39258-13.9941 7.17773-13.3984L2.59766-1.19141C2.51953-0.976562 2.49023-0.830078 2.49023-0.664062C2.49023-0.175781 2.80273 0.126953 3.31055 0.126953ZM6.00586-5.53711L8.37891-12.1094L8.42773-12.1094L10.8008-5.53711Z"/>
  </g>
  <line id="" style="fill:none;stroke:#00AEEF;stroke-width:0.5;opacity:1.0;" x1="792.836" x2="792.836" y1="1919" y2="1933"/>
  <text style="stroke:none;fill:black;font-family:-apple-system,&quot;SF Pro Display&quot;,&quot;SF Pro Text&quot;,Helvetica,sans-serif;font-weight:bold;" transform="matrix(1 0 0 1 776 1953)">Margins</text>
  <text style="stroke:none;fill:black;font-family:-apple-system,&quot;SF Pro Display&quot;,&quot;SF Pro Text&quot;,Helvetica,sans-serif;" transform="matrix(1 0 0 1 776 1971)">Leading and trailing margins on the left and right side of each symbol</text>
  <text style="stroke:none;fill:black;font-family:-apple-system,&quot;SF Pro Display&quot;,&quot;SF Pro Text&quot;,Helvetica,sans-serif;" transform="matrix(1 0 0 1 776 1989)">can be adjusted by modifying the x-location of the margin guidelines.</text>
  <text style="stroke:none;fill:black;font-family:-apple-system,&quot;SF Pro Display&quot;,&quot;SF Pro Text&quot;,Helvetica,sans-serif;" transform="matrix(1 0 0 1 776 2007)">Modifications are automatically applied proportionally to all</text>
  <text style="stroke:none;fill:black;font-family:-apple-system,&quot;SF Pro Display&quot;,&quot;SF Pro Text&quot;,Helvetica,sans-serif;" transform="matrix(1 0 0 1 776 2025)">scales and weights.</text>
  <g id="" transform="matrix(1 0 0 1 1289 1933)">
   <path d="M2.8418 1.86523L4.54102 3.57422C5.40039 4.44336 6.38672 4.38477 7.31445 3.35938L17.4902-7.85156C17.7539-7.76367 18.0273-7.7832 18.3398-7.8418L19.4043-8.03711L20.0684-7.36328L20.0293-6.80664C19.9902-6.30859 20.1172-5.92773 20.6055-5.44922L21.3672-4.70703C21.8457-4.22852 22.4609-4.19922 22.9297-4.66797L25.8398-7.58789C26.3086-8.05664 26.2891-8.65234 25.8105-9.13086L25.0391-9.89258C24.5605-10.3711 24.1895-10.5273 23.7109-10.4883L23.1348-10.4395L22.4902-11.0742L22.7344-12.1973C22.8613-12.7637 22.7051-13.2031 22.1191-13.7891L19.9219-15.9766C16.582-19.2969 12.1484-19.2188 9.25781-16.3281C8.83789-15.918 8.80859-15.3418 9.04297-14.9512C9.27734-14.5898 9.73633-14.3555 10.3809-14.5215C11.8457-14.8633 13.3691-14.9219 14.7949-13.9844L14.209-12.5293C14.0137-12.0508 13.9844-11.6504 14.1113-11.2891L3.04688-0.898438C2.06055 0.0195312 1.98242 0.996094 2.8418 1.86523ZM10.752-15.957C13.1836-17.7344 16.4746-17.4316 18.7012-15.2051L21.1328-12.793C21.3672-12.5586 21.4062-12.373 21.3379-12.0312L21.0156-10.5469L22.5195-9.0625L23.5059-9.12109C23.7598-9.13086 23.8379-9.11133 24.0332-8.91602L24.6094-8.33984L22.168-5.89844L21.5918-6.47461C21.3965-6.66992 21.3672-6.74805 21.377-7.01172L21.4453-7.98828L19.9512-9.47266L18.4277-9.21875C18.1055-9.15039 17.959-9.17969 17.7148-9.41406L15.7129-11.416C15.459-11.6504 15.4297-11.8164 15.5859-12.1875L16.4648-14.2773C14.9023-15.7324 12.8711-16.3574 10.8398-15.7617C10.6836-15.7227 10.625-15.8496 10.752-15.957ZM5.27344 2.30469L4.10156 1.14258C3.63281 0.683594 3.74023 0.341797 4.14062-0.0195312L14.9512-10.1953L16.416-8.71094L6.42578 2.27539C6.07422 2.67578 5.74219 2.77344 5.27344 2.30469Z"/>
  </g>
  <text style="stroke:none;fill:black;font-family:-apple-system,&quot;SF Pro Display&quot;,&quot;SF Pro Text&quot;,Helvetica,sans-serif;font-weight:bold;" transform="matrix(1 0 0 1 1289 1953)">Exporting</text>
  <text style="stroke:none;fill:black;font-family:-apple-system,&quot;SF Pro Display&quot;,&quot;SF Pro Text&quot;,Helvetica,sans-serif;" transform="matrix(1 0 0 1 1289 1971)">Symbols should be outlined when exporting to ensure the</text>
  <text style="stroke:none;fill:black;font-family:-apple-system,&quot;SF Pro Display&quot;,&quot;SF Pro Text&quot;,Helvetica,sans-serif;" transform="matrix(1 0 0 1 1289 1989)">design is preserved when submitting to Xcode.</text>
  <text id="template-version" style="stroke:none;fill:black;font-family:-apple-system,&quot;SF Pro Display&quot;,&quot;SF Pro Text&quot;,Helvetica,sans-serif;text-anchor:end;" transform="matrix(1 0 0 1 3036 1933)">Template v.2.0</text>
  <text style="stroke:none;fill:black;font-family:-apple-system,&quot;SF Pro Display&quot;,&quot;SF Pro Text&quot;,Helvetica,sans-serif;text-anchor:end;" transform="matrix(1 0 0 1 3036 1951)">Requires Xcode 12 or greater</text>
  <text style="stroke:none;fill:black;font-family:-apple-system,&quot;SF Pro Display&quot;,&quot;SF Pro Text&quot;,Helvetica,sans-serif;" transform="matrix(1 0 0 1 263 726)">Small</text>
  <text style="stroke:none;fill:black;font-family:-apple-system,&quot;SF Pro Display&quot;,&quot;SF Pro Text&quot;,Helvetica,sans-serif;" transform="matrix(1 0 0 1 263 1156)">Medium</text>
  <text style="stroke:none;fill:black;font-family:-apple-system,&quot;SF Pro Display&quot;,&quot;SF Pro Text&quot;,Helvetica,sans-serif;" transform="matrix(1 0 0 1 263 1586)">Large</text>
 </g>
 <g id="Guides">
  <g id="H-reference" style="fill:#27AAE1;stroke:none;" transform="matrix(1 0 0 1 339 696)">
   <path d="M0.976562 0L3.66211 0L12.9883-24.4629L45.752-24.4629L55.127 0L57.7637 0L30.6152-70.459L28.125-70.459ZM29.3457-67.1387L29.4434-67.1387L44.873-26.709L13.8672-26.709Z"/>
  </g>
  <line id="Baseline-S" style="fill:none;stroke:#27AAE1;opacity:1;stroke-width:0.5;" x1="263" x2="3036" y1="696" y2="696"/>
  <line id="Capline-S" style="fill:none;stroke:#27AAE1;opacity:1;stroke-width:0.5;" x1="263" x2="3036" y1="625.541" y2="625.541"/>
  <g id="H-reference" style="fill:#27AAE1;stroke:none;" transform="matrix(1 0 0 1 339 1126)">
   <path d="M0.976562 0L3.66211 0L12.9883-24.4629L45.752-24.4629L55.127 0L57.7637 0L30.6152-70.459L28.125-70.459ZM29.3457-67.1387L29.4434-67.1387L44.873-26.709L13.8672-26.709Z"/>
  </g>
  <line id="Baseline-M" style="fill:none;stroke:#27AAE1;opacity:1;stroke-width:0.5;" x1="263" x2="3036" y1="1126" y2="1126"/>
  <line id="Capline-M" style="fill:none;stroke:#27AAE1;opacity:1;stroke-width:0.5;" x1="263" x2="3036" y1="1055.54" y2="1055.54"/>
  <g id="H-reference" style="fill:#27AAE1;stroke:none;" transform="matrix(1 0 0 1 339 1556)">
   <path d="M0.976562 0L3.66211 0L12.9883-24.4629L45.752-24.4629L55.127 0L57.7637 0L30.6152-70.459L28.125-70.459ZM29.3457-67.1387L29.4434-67.1387L44.873-26.709L13.8672-26.709Z"/>
  </g>
  <line id="Baseline-L" style="fill:none;stroke:#27AAE1;opacity:1;stroke-width:0.5;" x1="263" x2="3036" y1="1556" y2="1556"/>
  <line id="Capline-L" style="fill:none;stroke:#27AAE1;opacity:1;stroke-width:0.5;" x1="263" x2="3036" y1="1485.54" y2="1485.54"/>
  <line id="left-margin" x1="1396.5944265189628" x2="1396.5944265189628" y1="1030.79" y2="1150.12" style="fill:none;stroke:#00AEEF;stroke-width:0.5;opacity:1.0;"/>
  <line id="right-margin" x1="1505.665573481037" x2="1505.665573481037" y1="1030.79" y2="1150.12" style="fill:none;stroke:#00AEEF;stroke-width:0.5;opacity:1.0;"/>
 </g>
 <g id="Symbols">
  <g id="Black-L" transform="matrix(1.0,0.0,0.0,1.0,2864.3291102094618,1443.3840407616583)">  <path fill-rule="evenodd" stroke-dasharray="none" stroke="none" stroke-opacity="1" fill="#000000" clip-rule="evenodd" stroke-width="1px" fill-opacity="1" stroke-miterlimit="4" stroke-linecap="butt" stroke-linejoin="miter" d="M57.724,7.215C57.725,5.899,57.314,4.615,56.55,3.543C55.785,2.471,54.704,1.665,53.459,1.238C52.213,0.811,50.865,0.783,49.604,1.16C48.342,1.537,47.23,2.299,46.423,3.339L2.228,60.161C1.366,61.269,0.898,62.633,0.898,64.037C0.898,65.441,1.366,66.806,2.228,67.914L46.423,124.736C47.23,125.776,48.342,126.537,49.604,126.915C50.865,127.291,52.213,127.264,53.459,126.837C54.704,126.41,55.785,125.604,56.55,124.532C57.314,123.46,57.725,122.176,57.724,120.859L57.724,95.668C91.685,96.375,107.998,102.822,116.194,109.83C123.984,116.49,125.411,124.325,126.895,132.533L127.28,134.648C127.563,136.161,128.39,137.519,129.604,138.466C130.819,139.412,132.337,139.882,133.874,139.788C135.411,139.693,136.86,139.04,137.949,137.952C139.038,136.863,139.692,135.415,139.787,133.878C140.867,116.528,139.244,91.387,126.99,70.357C115.095,49.946,93.673,34.25,57.724,32.609L57.724,7.215ZM57.724,7.215"/>
</g>
  <g id="Heavy-L" transform="matrix(1.0,0.0,0.0,1.0,2567.6191102094617,1443.3840407616583)">  <path stroke-opacity="1" stroke-dasharray="none" fill="#000000" stroke-linejoin="miter" fill-rule="evenodd" fill-opacity="1" stroke="none" clip-rule="evenodd" stroke-linecap="butt" stroke-width="1px" stroke-miterlimit="4" d="M57.724,7.215C57.725,5.899,57.314,4.615,56.55,3.543C55.785,2.471,54.704,1.665,53.459,1.238C52.213,0.811,50.865,0.783,49.604,1.16C48.342,1.537,47.23,2.299,46.423,3.339L2.228,60.161C1.366,61.269,0.898,62.633,0.898,64.037C0.898,65.441,1.366,66.806,2.228,67.914L46.423,124.736C47.23,125.776,48.342,126.537,49.604,126.915C50.865,127.291,52.213,127.264,53.459,126.837C54.704,126.41,55.785,125.604,56.55,124.532C57.314,123.46,57.725,122.176,57.724,120.859L57.724,95.668C91.685,96.375,107.998,102.822,116.194,109.83C123.984,116.49,125.411,124.325,126.895,132.533L127.28,134.648C127.563,136.161,128.39,137.519,129.604,138.466C130.819,139.412,132.337,139.882,133.874,139.788C135.411,139.693,136.86,139.04,137.949,137.952C139.038,136.863,139.692,135.415,139.787,133.878C140.867,116.528,139.244,91.387,126.99,70.357C115.095,49.946,93.673,34.25,57.724,32.609L57.724,7.215ZM57.724,7.215"/>
</g>
  <g id="Bold-L" transform="matrix(1.0,0.0,0.0,1.0,2270.9091102094617,1443.3840407616583)">  <path stroke-dasharray="none" stroke="none" fill-opacity="1" clip-rule="evenodd" fill-rule="evenodd" stroke-linejoin="miter" stroke-opacity="1" stroke-width="1px" stroke-linecap="butt" fill="#000000" stroke-miterlimit="4" d="M57.724,7.215C57.725,5.899,57.314,4.615,56.55,3.543C55.785,2.471,54.704,1.665,53.459,1.238C52.213,0.811,50.865,0.783,49.604,1.16C48.342,1.537,47.23,2.299,46.423,3.339L2.228,60.161C1.366,61.269,0.898,62.633,0.898,64.037C0.898,65.441,1.366,66.806,2.228,67.914L46.423,124.736C47.23,125.776,48.342,126.537,49.604,126.915C50.865,127.291,52.213,127.264,53.459,126.837C54.704,126.41,55.785,125.604,56.55,124.532C57.314,123.46,57.725,122.176,57.724,120.859L57.724,95.668C91.685,96.375,107.998,102.822,116.194,109.83C123.984,116.49,125.411,124.325,126.895,132.533L127.28,134.648C127.563,136.161,128.39,137.519,129.604,138.466C130.819,139.412,132.337,139.882,133.874,139.788C135.411,139.693,136.86,139.04,137.949,137.952C139.038,136.863,139.692,135.415,139.787,133.878C140.867,116.528,139.244,91.387,126.99,70.357C115.095,49.946,93.673,34.25,57.724,32.609L57.724,7.215ZM57.724,7.215"/>
</g>
  <g id="Semibold-L" transform="matrix(1.0,0.0,0.0,1.0,1974.199110209462,1443.3840407616583)">  <path stroke-width="1px" clip-rule="evenodd" stroke-dasharray="none" stroke-miterlimit="4" stroke="none" fill-opacity="1" stroke-linecap="butt" fill="#000000" stroke-opacity="1" fill-rule="evenodd" stroke-linejoin="miter" d="M57.724,7.215C57.725,5.899,57.314,4.615,56.55,3.543C55.785,2.471,54.704,1.665,53.459,1.238C52.213,0.811,50.865,0.783,49.604,1.16C48.342,1.537,47.23,2.299,46.423,3.339L2.228,60.161C1.366,61.269,0.898,62.633,0.898,64.037C0.898,65.441,1.366,66.806,2.228,67.914L46.423,124.736C47.23,125.776,48.342,126.537,49.604,126.915C50.865,127.291,52.213,127.264,53.459,126.837C54.704,126.41,55.785,125.604,56.55,124.532C57.314,123.46,57.725,122.176,57.724,120.859L57.724,95.668C91.685,96.375,107.998,102.822,116.194,109.83C123.984,116.49,125.411,124.325,126.895,132.533L127.28,134.648C127.563,136.161,128.39,137.519,129.604,138.466C130.819,139.412,132.337,139.882,133.874,139.788C135.411,139.693,136.86,139.04,137.949,137.952C139.038,136.863,139.692,135.415,139.787,133.878C140.867,116.528,139.244,91.387,126.99,70.357C115.095,49.946,93.673,34.25,57.724,32.609L57.724,7.215ZM57.724,7.215"/>
</g>
  <g id="Medium-L" transform="matrix(1.0,0.0,0.0,1.0,1677.489110209462,1443.3840407616583)">  <path stroke="none" stroke-width="1px" clip-rule="evenodd" fill-rule="evenodd" fill-opacity="1" stroke-linecap="butt" stroke-linejoin="miter" stroke-opacity="1" stroke-miterlimit="4" fill="#000000" stroke-dasharray="none" d="M57.724,7.215C57.725,5.899,57.314,4.615,56.55,3.543C55.785,2.471,54.704,1.665,53.459,1.238C52.213,0.811,50.865,0.783,49.604,1.16C48.342,1.537,47.23,2.299,46.423,3.339L2.228,60.161C1.366,61.269,0.898,62.633,0.898,64.037C0.898,65.441,1.366,66.806,2.228,67.914L46.423,124.736C47.23,125.776,48.342,126.537,49.604,126.915C50.865,127.291,52.213,127.264,53.459,126.837C54.704,126.41,55.785,125.604,56.55,124.532C57.314,123.46,57.725,122.176,57.724,120.859L57.724,95.668C91.685,96.375,107.998,102.822,116.194,109.83C123.984,116.49,125.411,124.325,126.895,132.533L127.28,134.648C127.563,136.161,128.39,137.519,129.604,138.466C130.819,139.412,132.337,139.882,133.874,139.788C135.411,139.693,136.86,139.04,137.949,137.952C139.038,136.863,139.692,135.415,139.787,133.878C140.867,116.528,139.244,91.387,126.99,70.357C115.095,49.946,93.673,34.25,57.724,32.609L57.724,7.215ZM57.724,7.215"/>
</g>
  <g id="Regular-L" transform="matrix(1.0,0.0,0.0,1.0,1380.779110209462,1443.3840407616583)">  <path fill-rule="evenodd" stroke-opacity="1" stroke-width="1px" clip-rule="evenodd" stroke-miterlimit="4" stroke-linejoin="miter" stroke-linecap="butt" stroke-dasharray="none" fill="#000000" stroke="none" fill-opacity="1" d="M57.724,7.215C57.725,5.899,57.314,4.615,56.55,3.543C55.785,2.471,54.704,1.665,53.459,1.238C52.213,0.811,50.865,0.783,49.604,1.16C48.342,1.537,47.23,2.299,46.423,3.339L2.228,60.161C1.366,61.269,0.898,62.633,0.898,64.037C0.898,65.441,1.366,66.806,2.228,67.914L46.423,124.736C47.23,125.776,48.342,126.537,49.604,126.915C50.865,127.291,52.213,127.264,53.459,126.837C54.704,126.41,55.785,125.604,56.55,124.532C57.314,123.46,57.725,122.176,57.724,120.859L57.724,95.668C91.685,96.375,107.998,102.822,116.194,109.83C123.984,116.49,125.411,124.325,126.895,132.533L127.28,134.648C127.563,136.161,128.39,137.519,129.604,138.466C130.819,139.412,132.337,139.882,133.874,139.788C135.411,139.693,136.86,139.04,137.949,137.952C139.038,136.863,139.692,135.415,139.787,133.878C140.867,116.528,139.244,91.387,126.99,70.357C115.095,49.946,93.673,34.25,57.724,32.609L57.724,7.215ZM57.724,7.215"/>
</g>
  <g id="Light-L" transform="matrix(1.0,0.0,0.0,1.0,1084.0691102094622,1443.3840407616583)">  <path fill="#000000" stroke-linejoin="miter" fill-rule="evenodd" stroke="none" fill-opacity="1" stroke-linecap="butt" stroke-opacity="1" stroke-dasharray="none" stroke-width="1px" clip-rule="evenodd" stroke-miterlimit="4" d="M57.724,7.215C57.725,5.899,57.314,4.615,56.55,3.543C55.785,2.471,54.704,1.665,53.459,1.238C52.213,0.811,50.865,0.783,49.604,1.16C48.342,1.537,47.23,2.299,46.423,3.339L2.228,60.161C1.366,61.269,0.898,62.633,0.898,64.037C0.898,65.441,1.366,66.806,2.228,67.914L46.423,124.736C47.23,125.776,48.342,126.537,49.604,126.915C50.865,127.291,52.213,127.264,53.459,126.837C54.704,126.41,55.785,125.604,56.55,124.532C57.314,123.46,57.725,122.176,57.724,120.859L57.724,95.668C91.685,96.375,107.998,102.822,116.194,109.83C123.984,116.49,125.411,124.325,126.895,132.533L127.28,134.648C127.563,136.161,128.39,137.519,129.604,138.466C130.819,139.412,132.337,139.882,133.874,139.788C135.411,139.693,136.86,139.04,137.949,137.952C139.038,136.863,139.692,135.415,139.787,133.878C140.867,116.528,139.244,91.387,126.99,70.357C115.095,49.946,93.673,34.25,57.724,32.609L57.724,7.215ZM57.724,7.215"/>
</g>
  <g id="Thin-L" transform="matrix(1.0,0.0,0.0,1.0,787.3591102094621,1443.3840407616583)">  <path stroke-linecap="butt" stroke-opacity="1" stroke-miterlimit="4" clip-rule="evenodd" stroke-linejoin="miter" fill-opacity="1" stroke-dasharray="none" fill="#000000" stroke="none" fill-rule="evenodd" stroke-width="1px" d="M57.724,7.215C57.725,5.899,57.314,4.615,56.55,3.543C55.785,2.471,54.704,1.665,53.459,1.238C52.213,0.811,50.865,0.783,49.604,1.16C48.342,1.537,47.23,2.299,46.423,3.339L2.228,60.161C1.366,61.269,0.898,62.633,0.898,64.037C0.898,65.441,1.366,66.806,2.228,67.914L46.423,124.736C47.23,125.776,48.342,126.537,49.604,126.915C50.865,127.291,52.213,127.264,53.459,126.837C54.704,126.41,55.785,125.604,56.55,124.532C57.314,123.46,57.725,122.176,57.724,120.859L57.724,95.668C91.685,96.375,107.998,102.822,116.194,109.83C123.984,116.49,125.411,124.325,126.895,132.533L127.28,134.648C127.563,136.161,128.39,137.519,129.604,138.466C130.819,139.412,132.337,139.882,133.874,139.788C135.411,139.693,136.86,139.04,137.949,137.952C139.038,136.863,139.692,135.415,139.787,133.878C140.867,116.528,139.244,91.387,126.99,70.357C115.095,49.946,93.673,34.25,57.724,32.609L57.724,7.215ZM57.724,7.215"/>
</g>
  <g id="Ultralight-L" transform="matrix(1.0,0.0,0.0,1.0,490.6491102094621,1443.3840407616583)">  <path stroke-opacity="1" fill-rule="evenodd" stroke-width="1px" fill="#000000" fill-opacity="1" stroke-linejoin="miter" clip-rule="evenodd" stroke-linecap="butt" stroke="none" stroke-miterlimit="4" stroke-dasharray="none" d="M57.724,7.215C57.725,5.899,57.314,4.615,56.55,3.543C55.785,2.471,54.704,1.665,53.459,1.238C52.213,0.811,50.865,0.783,49.604,1.16C48.342,1.537,47.23,2.299,46.423,3.339L2.228,60.161C1.366,61.269,0.898,62.633,0.898,64.037C0.898,65.441,1.366,66.806,2.228,67.914L46.423,124.736C47.23,125.776,48.342,126.537,49.604,126.915C50.865,127.291,52.213,127.264,53.459,126.837C54.704,126.41,55.785,125.604,56.55,124.532C57.314,123.46,57.725,122.176,57.724,120.859L57.724,95.668C91.685,96.375,107.998,102.822,116.194,109.83C123.984,116.49,125.411,124.325,126.895,132.533L127.28,134.648C127.563,136.161,128.39,137.519,129.604,138.466C130.819,139.412,132.337,139.882,133.874,139.788C135.411,139.693,136.86,139.04,137.949,137.952C139.038,136.863,139.692,135.415,139.787,133.878C140.867,116.528,139.244,91.387,126.99,70.357C115.095,49.946,93.673,34.25,57.724,32.609L57.724,7.215ZM57.724,7.215"/>
</g>
  <g id="Black-M" transform="matrix(1.0,0.0,0.0,1.0,2880.1444265189625,1030.7808887021092)">  <path fill-rule="evenodd" stroke-dasharray="none" stroke="none" stroke-opacity="1" fill="#000000" clip-rule="evenodd" stroke-width="1px" fill-opacity="1" stroke-miterlimit="4" stroke-linecap="butt" stroke-linejoin="miter" d="M44.747,5.593C44.748,4.573,44.43,3.577,43.837,2.746C43.244,1.915,42.406,1.291,41.441,0.96C40.475,0.628,39.431,0.607,38.453,0.899C37.475,1.191,36.612,1.782,35.987,2.588L1.727,46.636C1.059,47.495,0.696,48.553,0.696,49.641C0.696,50.73,1.059,51.787,1.727,52.647L35.987,96.695C36.612,97.501,37.475,98.091,38.453,98.383C39.431,98.675,40.475,98.654,41.441,98.323C42.406,97.992,43.244,97.367,43.837,96.536C44.43,95.705,44.748,94.71,44.747,93.689L44.747,74.161C71.073,74.71,83.72,79.707,90.073,85.139C96.112,90.303,97.218,96.376,98.368,102.739L98.667,104.378C98.886,105.552,99.527,106.604,100.468,107.338C101.41,108.071,102.587,108.436,103.778,108.363C104.97,108.289,106.093,107.783,106.937,106.939C107.782,106.096,108.288,104.973,108.362,103.781C109.199,90.332,107.941,70.843,98.442,54.541C89.221,38.717,72.615,26.55,44.747,25.278L44.747,5.593ZM44.747,5.593"/>
</g>
  <g id="Heavy-M" transform="matrix(1.0,0.0,0.0,1.0,2583.4344265189625,1030.7808887021092)">  <path stroke-opacity="1" stroke-dasharray="none" fill="#000000" stroke-linejoin="miter" fill-rule="evenodd" fill-opacity="1" stroke="none" clip-rule="evenodd" stroke-linecap="butt" stroke-width="1px" stroke-miterlimit="4" d="M44.747,5.593C44.748,4.573,44.43,3.577,43.837,2.746C43.244,1.915,42.406,1.291,41.441,0.96C40.475,0.628,39.431,0.607,38.453,0.899C37.475,1.191,36.612,1.782,35.987,2.588L1.727,46.636C1.059,47.495,0.696,48.553,0.696,49.641C0.696,50.73,1.059,51.787,1.727,52.647L35.987,96.695C36.612,97.501,37.475,98.091,38.453,98.383C39.431,98.675,40.475,98.654,41.441,98.323C42.406,97.992,43.244,97.367,43.837,96.536C44.43,95.705,44.748,94.71,44.747,93.689L44.747,74.161C71.073,74.71,83.72,79.707,90.073,85.139C96.112,90.303,97.218,96.376,98.368,102.739L98.667,104.378C98.886,105.552,99.527,106.604,100.468,107.338C101.41,108.071,102.587,108.436,103.778,108.363C104.97,108.289,106.093,107.783,106.937,106.939C107.782,106.096,108.288,104.973,108.362,103.781C109.199,90.332,107.941,70.843,98.442,54.541C89.221,38.717,72.615,26.55,44.747,25.278L44.747,5.593ZM44.747,5.593"/>
</g>
  <g id="Bold-M" transform="matrix(1.0,0.0,0.0,1.0,2286.7244265189624,1030.7808887021092)">  <path stroke-dasharray="none" stroke="none" fill-opacity="1" clip-rule="evenodd" fill-rule="evenodd" stroke-linejoin="miter" stroke-opacity="1" stroke-width="1px" stroke-linecap="butt" fill="#000000" stroke-miterlimit="4" d="M44.747,5.593C44.748,4.573,44.43,3.577,43.837,2.746C43.244,1.915,42.406,1.291,41.441,0.96C40.475,0.628,39.431,0.607,38.453,0.899C37.475,1.191,36.612,1.782,35.987,2.588L1.727,46.636C1.059,47.495,0.696,48.553,0.696,49.641C0.696,50.73,1.059,51.787,1.727,52.647L35.987,96.695C36.612,97.501,37.475,98.091,38.453,98.383C39.431,98.675,40.475,98.654,41.441,98.323C42.406,97.992,43.244,97.367,43.837,96.536C44.43,95.705,44.748,94.71,44.747,93.689L44.747,74.161C71.073,74.71,83.72,79.707,90.073,85.139C96.112,90.303,97.218,96.376,98.368,102.739L98.667,104.378C98.886,105.552,99.527,106.604,100.468,107.338C101.41,108.071,102.587,108.436,103.778,108.363C104.97,108.289,106.093,107.783,106.937,106.939C107.782,106.096,108.288,104.973,108.362,103.781C109.199,90.332,107.941,70.843,98.442,54.541C89.221,38.717,72.615,26.55,44.747,25.278L44.747,5.593ZM44.747,5.593"/>
</g>
  <g id="Semibold-M" transform="matrix(1.0,0.0,0.0,1.0,1990.0144265189629,1030.7808887021092)">  <path stroke-width="1px" clip-rule="evenodd" stroke-dasharray="none" stroke-miterlimit="4" stroke="none" fill-opacity="1" stroke-linecap="butt" fill="#000000" stroke-opacity="1" fill-rule="evenodd" stroke-linejoin="miter" d="M44.747,5.593C44.748,4.573,44.43,3.577,43.837,2.746C43.244,1.915,42.406,1.291,41.441,0.96C40.475,0.628,39.431,0.607,38.453,0.899C37.475,1.191,36.612,1.782,35.987,2.588L1.727,46.636C1.059,47.495,0.696,48.553,0.696,49.641C0.696,50.73,1.059,51.787,1.727,52.647L35.987,96.695C36.612,97.501,37.475,98.091,38.453,98.383C39.431,98.675,40.475,98.654,41.441,98.323C42.406,97.992,43.244,97.367,43.837,96.536C44.43,95.705,44.748,94.71,44.747,93.689L44.747,74.161C71.073,74.71,83.72,79.707,90.073,85.139C96.112,90.303,97.218,96.376,98.368,102.739L98.667,104.378C98.886,105.552,99.527,106.604,100.468,107.338C101.41,108.071,102.587,108.436,103.778,108.363C104.97,108.289,106.093,107.783,106.937,106.939C107.782,106.096,108.288,104.973,108.362,103.781C109.199,90.332,107.941,70.843,98.442,54.541C89.221,38.717,72.615,26.55,44.747,25.278L44.747,5.593ZM44.747,5.593"/>
</g>
  <g id="Medium-M" transform="matrix(1.0,0.0,0.0,1.0,1693.3044265189628,1030.7808887021092)">  <path stroke="none" stroke-width="1px" clip-rule="evenodd" fill-rule="evenodd" fill-opacity="1" stroke-linecap="butt" stroke-linejoin="miter" stroke-opacity="1" stroke-miterlimit="4" fill="#000000" stroke-dasharray="none" d="M44.747,5.593C44.748,4.573,44.43,3.577,43.837,2.746C43.244,1.915,42.406,1.291,41.441,0.96C40.475,0.628,39.431,0.607,38.453,0.899C37.475,1.191,36.612,1.782,35.987,2.588L1.727,46.636C1.059,47.495,0.696,48.553,0.696,49.641C0.696,50.73,1.059,51.787,1.727,52.647L35.987,96.695C36.612,97.501,37.475,98.091,38.453,98.383C39.431,98.675,40.475,98.654,41.441,98.323C42.406,97.992,43.244,97.367,43.837,96.536C44.43,95.705,44.748,94.71,44.747,93.689L44.747,74.161C71.073,74.71,83.72,79.707,90.073,85.139C96.112,90.303,97.218,96.376,98.368,102.739L98.667,104.378C98.886,105.552,99.527,106.604,100.468,107.338C101.41,108.071,102.587,108.436,103.778,108.363C104.97,108.289,106.093,107.783,106.937,106.939C107.782,106.096,108.288,104.973,108.362,103.781C109.199,90.332,107.941,70.843,98.442,54.541C89.221,38.717,72.615,26.55,44.747,25.278L44.747,5.593ZM44.747,5.593"/>
</g>
  <g id="Regular-M" transform="matrix(1.0,0.0,0.0,1.0,1396.5944265189628,1030.7808887021092)">  <path fill-rule="evenodd" stroke-opacity="1" stroke-width="1px" clip-rule="evenodd" stroke-miterlimit="4" stroke-linejoin="miter" stroke-linecap="butt" stroke-dasharray="none" fill="#000000" stroke="none" fill-opacity="1" d="M44.747,5.593C44.748,4.573,44.43,3.577,43.837,2.746C43.244,1.915,42.406,1.291,41.441,0.96C40.475,0.628,39.431,0.607,38.453,0.899C37.475,1.191,36.612,1.782,35.987,2.588L1.727,46.636C1.059,47.495,0.696,48.553,0.696,49.641C0.696,50.73,1.059,51.787,1.727,52.647L35.987,96.695C36.612,97.501,37.475,98.091,38.453,98.383C39.431,98.675,40.475,98.654,41.441,98.323C42.406,97.992,43.244,97.367,43.837,96.536C44.43,95.705,44.748,94.71,44.747,93.689L44.747,74.161C71.073,74.71,83.72,79.707,90.073,85.139C96.112,90.303,97.218,96.376,98.368,102.739L98.667,104.378C98.886,105.552,99.527,106.604,100.468,107.338C101.41,108.071,102.587,108.436,103.778,108.363C104.97,108.289,106.093,107.783,106.937,106.939C107.782,106.096,108.288,104.973,108.362,103.781C109.199,90.332,107.941,70.843,98.442,54.541C89.221,38.717,72.615,26.55,44.747,25.278L44.747,5.593ZM44.747,5.593"/>
</g>
  <g id="Light-M" transform="matrix(1.0,0.0,0.0,1.0,1099.884426518963,1030.7808887021092)">  <path fill="#000000" stroke-linejoin="miter" fill-rule="evenodd" stroke="none" fill-opacity="1" stroke-linecap="butt" stroke-opacity="1" stroke-dasharray="none" stroke-width="1px" clip-rule="evenodd" stroke-miterlimit="4" d="M44.747,5.593C44.748,4.573,44.43,3.577,43.837,2.746C43.244,1.915,42.406,1.291,41.441,0.96C40.475,0.628,39.431,0.607,38.453,0.899C37.475,1.191,36.612,1.782,35.987,2.588L1.727,46.636C1.059,47.495,0.696,48.553,0.696,49.641C0.696,50.73,1.059,51.787,1.727,52.647L35.987,96.695C36.612,97.501,37.475,98.091,38.453,98.383C39.431,98.675,40.475,98.654,41.441,98.323C42.406,97.992,43.244,97.367,43.837,96.536C44.43,95.705,44.748,94.71,44.747,93.689L44.747,74.161C71.073,74.71,83.72,79.707,90.073,85.139C96.112,90.303,97.218,96.376,98.368,102.739L98.667,104.378C98.886,105.552,99.527,106.604,100.468,107.338C101.41,108.071,102.587,108.436,103.778,108.363C104.97,108.289,106.093,107.783,106.937,106.939C107.782,106.096,108.288,104.973,108.362,103.781C109.199,90.332,107.941,70.843,98.442,54.541C89.221,38.717,72.615,26.55,44.747,25.278L44.747,5.593ZM44.747,5.593"/>
</g>
  <g id="Thin-M" transform="matrix(1.0,0.0,0.0,1.0,803.174426518963,1030.7808887021092)">  <path stroke-linecap="butt" stroke-opacity="1" stroke-miterlimit="4" clip-rule="evenodd" stroke-linejoin="miter" fill-opacity="1" stroke-dasharray="none" fill="#000000" stroke="none" fill-rule="evenodd" stroke-width="1px" d="M44.747,5.593C44.748,4.573,44.43,3.577,43.837,2.746C43.244,1.915,42.406,1.291,41.441,0.96C40.475,0.628,39.431,0.607,38.453,0.899C37.475,1.191,36.612,1.782,35.987,2.588L1.727,46.636C1.059,47.495,0.696,48.553,0.696,49.641C0.696,50.73,1.059,51.787,1.727,52.647L35.987,96.695C36.612,97.501,37.475,98.091,38.453,98.383C39.431,98.675,40.475,98.654,41.441,98.323C42.406,97.992,43.244,97.367,43.837,96.536C44.43,95.705,44.748,94.71,44.747,93.689L44.747,74.161C71.073,74.71,83.72,79.707,90.073,85.139C96.112,90.303,97.218,96.376,98.368,102.739L98.667,104.378C98.886,105.552,99.527,106.604,100.468,107.338C101.41,108.071,102.587,108.436,103.778,108.363C104.97,108.289,106.093,107.783,106.937,106.939C107.782,106.096,108.288,104.973,108.362,103.781C109.199,90.332,107.941,70.843,98.442,54.541C89.221,38.717,72.615,26.55,44.747,25.278L44.747,5.593ZM44.747,5.593"/>
</g>
  <g id="Ultralight-M" transform="matrix(1.0,0.0,0.0,1.0,506.46442651896285,1030.7808887021092)">  <path stroke-opacity="1" fill-rule="evenodd" stroke-width="1px" fill="#000000" fill-opacity="1" stroke-linejoin="miter" clip-rule="evenodd" stroke-linecap="butt" stroke="none" stroke-miterlimit="4" stroke-dasharray="none" d="M44.747,5.593C44.748,4.573,44.43,3.577,43.837,2.746C43.244,1.915,42.406,1.291,41.441,0.96C40.475,0.628,39.431,0.607,38.453,0.899C37.475,1.191,36.612,1.782,35.987,2.588L1.727,46.636C1.059,47.495,0.696,48.553,0.696,49.641C0.696,50.73,1.059,51.787,1.727,52.647L35.987,96.695C36.612,97.501,37.475,98.091,38.453,98.383C39.431,98.675,40.475,98.654,41.441,98.323C42.406,97.992,43.244,97.367,43.837,96.536C44.43,95.705,44.748,94.71,44.747,93.689L44.747,74.161C71.073,74.71,83.72,79.707,90.073,85.139C96.112,90.303,97.218,96.376,98.368,102.739L98.667,104.378C98.886,105.552,99.527,106.604,100.468,107.338C101.41,108.071,102.587,108.436,103.778,108.363C104.97,108.289,106.093,107.783,106.937,106.939C107.782,106.096,108.288,104.973,108.362,103.781C109.199,90.332,107.941,70.843,98.442,54.541C89.221,38.717,72.615,26.55,44.747,25.278L44.747,5.593ZM44.747,5.593"/>
</g>
  <g id="Black-S" transform="matrix(1.0,0.0,0.0,1.0,2891.978645964348,613.7985300920327)">  <path fill-rule="evenodd" stroke-dasharray="none" stroke="none" stroke-opacity="1" fill="#000000" clip-rule="evenodd" stroke-width="1px" fill-opacity="1" stroke-miterlimit="4" stroke-linecap="butt" stroke-linejoin="miter" d="M35.037,4.38C35.038,3.58,34.788,2.801,34.324,2.15C33.86,1.5,33.204,1.011,32.448,0.751C31.692,0.492,30.874,0.476,30.108,0.704C29.343,0.933,28.667,1.395,28.177,2.027L1.352,36.516C0.829,37.189,0.545,38.017,0.545,38.869C0.545,39.721,0.829,40.55,1.352,41.222L28.177,75.712C28.667,76.343,29.343,76.805,30.108,77.034C30.874,77.263,31.692,77.246,32.448,76.987C33.204,76.728,33.86,76.239,34.324,75.588C34.788,74.937,35.038,74.158,35.037,73.359L35.037,58.068C55.65,58.498,65.552,62.41,70.527,66.664C75.256,70.707,76.122,75.462,77.022,80.444L77.256,81.728C77.428,82.647,77.93,83.471,78.667,84.045C79.404,84.62,80.326,84.905,81.258,84.848C82.191,84.79,83.071,84.394,83.732,83.733C84.393,83.073,84.79,82.194,84.848,81.261C85.503,70.73,84.518,55.47,77.08,42.705C69.86,30.316,56.858,20.789,35.037,19.793L35.037,4.38ZM35.037,4.38"/>
</g>
  <g id="Heavy-S" transform="matrix(1.0,0.0,0.0,1.0,2595.268645964348,613.7985300920327)">  <path stroke-opacity="1" stroke-dasharray="none" fill="#000000" stroke-linejoin="miter" fill-rule="evenodd" fill-opacity="1" stroke="none" clip-rule="evenodd" stroke-linecap="butt" stroke-width="1px" stroke-miterlimit="4" d="M35.037,4.38C35.038,3.58,34.788,2.801,34.324,2.15C33.86,1.5,33.204,1.011,32.448,0.751C31.692,0.492,30.874,0.476,30.108,0.704C29.343,0.933,28.667,1.395,28.177,2.027L1.352,36.516C0.829,37.189,0.545,38.017,0.545,38.869C0.545,39.721,0.829,40.55,1.352,41.222L28.177,75.712C28.667,76.343,29.343,76.805,30.108,77.034C30.874,77.263,31.692,77.246,32.448,76.987C33.204,76.728,33.86,76.239,34.324,75.588C34.788,74.937,35.038,74.158,35.037,73.359L35.037,58.068C55.65,58.498,65.552,62.41,70.527,66.664C75.256,70.707,76.122,75.462,77.022,80.444L77.256,81.728C77.428,82.647,77.93,83.471,78.667,84.045C79.404,84.62,80.326,84.905,81.258,84.848C82.191,84.79,83.071,84.394,83.732,83.733C84.393,83.073,84.79,82.194,84.848,81.261C85.503,70.73,84.518,55.47,77.08,42.705C69.86,30.316,56.858,20.789,35.037,19.793L35.037,4.38ZM35.037,4.38"/>
</g>
  <g id="Bold-S" transform="matrix(1.0,0.0,0.0,1.0,2298.5586459643478,613.7985300920327)">  <path stroke-dasharray="none" stroke="none" fill-opacity="1" clip-rule="evenodd" fill-rule="evenodd" stroke-linejoin="miter" stroke-opacity="1" stroke-width="1px" stroke-linecap="butt" fill="#000000" stroke-miterlimit="4" d="M35.037,4.38C35.038,3.58,34.788,2.801,34.324,2.15C33.86,1.5,33.204,1.011,32.448,0.751C31.692,0.492,30.874,0.476,30.108,0.704C29.343,0.933,28.667,1.395,28.177,2.027L1.352,36.516C0.829,37.189,0.545,38.017,0.545,38.869C0.545,39.721,0.829,40.55,1.352,41.222L28.177,75.712C28.667,76.343,29.343,76.805,30.108,77.034C30.874,77.263,31.692,77.246,32.448,76.987C33.204,76.728,33.86,76.239,34.324,75.588C34.788,74.937,35.038,74.158,35.037,73.359L35.037,58.068C55.65,58.498,65.552,62.41,70.527,66.664C75.256,70.707,76.122,75.462,77.022,80.444L77.256,81.728C77.428,82.647,77.93,83.471,78.667,84.045C79.404,84.62,80.326,84.905,81.258,84.848C82.191,84.79,83.071,84.394,83.732,83.733C84.393,83.073,84.79,82.194,84.848,81.261C85.503,70.73,84.518,55.47,77.08,42.705C69.86,30.316,56.858,20.789,35.037,19.793L35.037,4.38ZM35.037,4.38"/>
</g>
  <g id="Semibold-S" transform="matrix(1.0,0.0,0.0,1.0,2001.848645964348,613.7985300920327)">  <path stroke-width="1px" clip-rule="evenodd" stroke-dasharray="none" stroke-miterlimit="4" stroke="none" fill-opacity="1" stroke-linecap="butt" fill="#000000" stroke-opacity="1" fill-rule="evenodd" stroke-linejoin="miter" d="M35.037,4.38C35.038,3.58,34.788,2.801,34.324,2.15C33.86,1.5,33.204,1.011,32.448,0.751C31.692,0.492,30.874,0.476,30.108,0.704C29.343,0.933,28.667,1.395,28.177,2.027L1.352,36.516C0.829,37.189,0.545,38.017,0.545,38.869C0.545,39.721,0.829,40.55,1.352,41.222L28.177,75.712C28.667,76.343,29.343,76.805,30.108,77.034C30.874,77.263,31.692,77.246,32.448,76.987C33.204,76.728,33.86,76.239,34.324,75.588C34.788,74.937,35.038,74.158,35.037,73.359L35.037,58.068C55.65,58.498,65.552,62.41,70.527,66.664C75.256,70.707,76.122,75.462,77.022,80.444L77.256,81.728C77.428,82.647,77.93,83.471,78.667,84.045C79.404,84.62,80.326,84.905,81.258,84.848C82.191,84.79,83.071,84.394,83.732,83.733C84.393,83.073,84.79,82.194,84.848,81.261C85.503,70.73,84.518,55.47,77.08,42.705C69.86,30.316,56.858,20.789,35.037,19.793L35.037,4.38ZM35.037,4.38"/>
</g>
  <g id="Medium-S" transform="matrix(1.0,0.0,0.0,1.0,1705.138645964348,613.7985300920327)">  <path stroke="none" stroke-width="1px" clip-rule="evenodd" fill-rule="evenodd" fill-opacity="1" stroke-linecap="butt" stroke-linejoin="miter" stroke-opacity="1" stroke-miterlimit="4" fill="#000000" stroke-dasharray="none" d="M35.037,4.38C35.038,3.58,34.788,2.801,34.324,2.15C33.86,1.5,33.204,1.011,32.448,0.751C31.692,0.492,30.874,0.476,30.108,0.704C29.343,0.933,28.667,1.395,28.177,2.027L1.352,36.516C0.829,37.189,0.545,38.017,0.545,38.869C0.545,39.721,0.829,40.55,1.352,41.222L28.177,75.712C28.667,76.343,29.343,76.805,30.108,77.034C30.874,77.263,31.692,77.246,32.448,76.987C33.204,76.728,33.86,76.239,34.324,75.588C34.788,74.937,35.038,74.158,35.037,73.359L35.037,58.068C55.65,58.498,65.552,62.41,70.527,66.664C75.256,70.707,76.122,75.462,77.022,80.444L77.256,81.728C77.428,82.647,77.93,83.471,78.667,84.045C79.404,84.62,80.326,84.905,81.258,84.848C82.191,84.79,83.071,84.394,83.732,83.733C84.393,83.073,84.79,82.194,84.848,81.261C85.503,70.73,84.518,55.47,77.08,42.705C69.86,30.316,56.858,20.789,35.037,19.793L35.037,4.38ZM35.037,4.38"/>
</g>
  <g id="Regular-S" transform="matrix(1.0,0.0,0.0,1.0,1408.4286459643479,613.7985300920327)">  <path fill-rule="evenodd" stroke-opacity="1" stroke-width="1px" clip-rule="evenodd" stroke-miterlimit="4" stroke-linejoin="miter" stroke-linecap="butt" stroke-dasharray="none" fill="#000000" stroke="none" fill-opacity="1" d="M35.037,4.38C35.038,3.58,34.788,2.801,34.324,2.15C33.86,1.5,33.204,1.011,32.448,0.751C31.692,0.492,30.874,0.476,30.108,0.704C29.343,0.933,28.667,1.395,28.177,2.027L1.352,36.516C0.829,37.189,0.545,38.017,0.545,38.869C0.545,39.721,0.829,40.55,1.352,41.222L28.177,75.712C28.667,76.343,29.343,76.805,30.108,77.034C30.874,77.263,31.692,77.246,32.448,76.987C33.204,76.728,33.86,76.239,34.324,75.588C34.788,74.937,35.038,74.158,35.037,73.359L35.037,58.068C55.65,58.498,65.552,62.41,70.527,66.664C75.256,70.707,76.122,75.462,77.022,80.444L77.256,81.728C77.428,82.647,77.93,83.471,78.667,84.045C79.404,84.62,80.326,84.905,81.258,84.848C82.191,84.79,83.071,84.394,83.732,83.733C84.393,83.073,84.79,82.194,84.848,81.261C85.503,70.73,84.518,55.47,77.08,42.705C69.86,30.316,56.858,20.789,35.037,19.793L35.037,4.38ZM35.037,4.38"/>
</g>
  <g id="Light-S" transform="matrix(1.0,0.0,0.0,1.0,1111.718645964348,613.7985300920327)">  <path fill="#000000" stroke-linejoin="miter" fill-rule="evenodd" stroke="none" fill-opacity="1" stroke-linecap="butt" stroke-opacity="1" stroke-dasharray="none" stroke-width="1px" clip-rule="evenodd" stroke-miterlimit="4" d="M35.037,4.38C35.038,3.58,34.788,2.801,34.324,2.15C33.86,1.5,33.204,1.011,32.448,0.751C31.692,0.492,30.874,0.476,30.108,0.704C29.343,0.933,28.667,1.395,28.177,2.027L1.352,36.516C0.829,37.189,0.545,38.017,0.545,38.869C0.545,39.721,0.829,40.55,1.352,41.222L28.177,75.712C28.667,76.343,29.343,76.805,30.108,77.034C30.874,77.263,31.692,77.246,32.448,76.987C33.204,76.728,33.86,76.239,34.324,75.588C34.788,74.937,35.038,74.158,35.037,73.359L35.037,58.068C55.65,58.498,65.552,62.41,70.527,66.664C75.256,70.707,76.122,75.462,77.022,80.444L77.256,81.728C77.428,82.647,77.93,83.471,78.667,84.045C79.404,84.62,80.326,84.905,81.258,84.848C82.191,84.79,83.071,84.394,83.732,83.733C84.393,83.073,84.79,82.194,84.848,81.261C85.503,70.73,84.518,55.47,77.08,42.705C69.86,30.316,56.858,20.789,35.037,19.793L35.037,4.38ZM35.037,4.38"/>
</g>
  <g id="Thin-S" transform="matrix(1.0,0.0,0.0,1.0,815.0086459643479,613.7985300920327)">  <path stroke-linecap="butt" stroke-opacity="1" stroke-miterlimit="4" clip-rule="evenodd" stroke-linejoin="miter" fill-opacity="1" stroke-dasharray="none" fill="#000000" stroke="none" fill-rule="evenodd" stroke-width="1px" d="M35.037,4.38C35.038,3.58,34.788,2.801,34.324,2.15C33.86,1.5,33.204,1.011,32.448,0.751C31.692,0.492,30.874,0.476,30.108,0.704C29.343,0.933,28.667,1.395,28.177,2.027L1.352,36.516C0.829,37.189,0.545,38.017,0.545,38.869C0.545,39.721,0.829,40.55,1.352,41.222L28.177,75.712C28.667,76.343,29.343,76.805,30.108,77.034C30.874,77.263,31.692,77.246,32.448,76.987C33.204,76.728,33.86,76.239,34.324,75.588C34.788,74.937,35.038,74.158,35.037,73.359L35.037,58.068C55.65,58.498,65.552,62.41,70.527,66.664C75.256,70.707,76.122,75.462,77.022,80.444L77.256,81.728C77.428,82.647,77.93,83.471,78.667,84.045C79.404,84.62,80.326,84.905,81.258,84.848C82.191,84.79,83.071,84.394,83.732,83.733C84.393,83.073,84.79,82.194,84.848,81.261C85.503,70.73,84.518,55.47,77.08,42.705C69.86,30.316,56.858,20.789,35.037,19.793L35.037,4.38ZM35.037,4.38"/>
</g>
  <g id="Ultralight-S" transform="matrix(1.0,0.0,0.0,1.0,518.2986459643479,613.7985300920327)">  <path stroke-opacity="1" fill-rule="evenodd" stroke-width="1px" fill="#000000" fill-opacity="1" stroke-linejoin="miter" clip-rule="evenodd" stroke-linecap="butt" stroke="none" stroke-miterlimit="4" stroke-dasharray="none" d="M35.037,4.38C35.038,3.58,34.788,2.801,34.324,2.15C33.86,1.5,33.204,1.011,32.448,0.751C31.692,0.492,30.874,0.476,30.108,0.704C29.343,0.933,28.667,1.395,28.177,2.027L1.352,36.516C0.829,37.189,0.545,38.017,0.545,38.869C0.545,39.721,0.829,40.55,1.352,41.222L28.177,75.712C28.667,76.343,29.343,76.805,30.108,77.034C30.874,77.263,31.692,77.246,32.448,76.987C33.204,76.728,33.86,76.239,34.324,75.588C34.788,74.937,35.038,74.158,35.037,73.359L35.037,58.068C55.65,58.498,65.552,62.41,70.527,66.664C75.256,70.707,76.122,75.462,77.022,80.444L77.256,81.728C77.428,82.647,77.93,83.471,78.667,84.045C79.404,84.62,80.326,84.905,81.258,84.848C82.191,84.79,83.071,84.394,83.732,83.733C84.393,83.073,84.79,82.194,84.848,81.261C85.503,70.73,84.518,55.47,77.08,42.705C69.86,30.316,56.858,20.789,35.037,19.793L35.037,4.38ZM35.037,4.38"/>
</g>
 </g>
</svg>
