<?xml version="1.0" encoding="UTF-8"?>
<!-- Generator: CustomSymbols v2.6.2.41 by @serious_bret https://bretlester.com/app_content/CustomSymbols/ -->
<!-- Guides: Left/Right 0.0/0.0 Cap/Base 0.0/0.0 -->
<!-- Settings: RefScale 1.0 Min/Max Stroke Scales 0.5/2.21 -->
<!DOCTYPE svg
PUBLIC "-//W3C//DTD SVG 1.1//EN"
       "http://www.w3.org/Graphics/SVG/1.1/DTD/svg11.dtd">
<svg version="1.1" xmlns="http://www.w3.org/2000/svg" xmlns:xlink="http://www.w3.org/1999/xlink" width="3300" height="2200">
<![CDATA[<svg width="40" height="40" viewBox="0 0 40 40" fill="none" xmlns="http://www.w3.org/2000/svg">
<path d="M34.9501 1.66667H30.0501C28.6001 1.66667 27.5334 2.26667 27.0501 3.33334C26.7834 3.81667 26.6667 4.38334 26.6667 5.05V9.95C26.6667 12.0667 27.9334 13.3333 30.0501 13.3333H34.9501C35.6167 13.3333 36.1834 13.2167 36.6667 12.95C37.7334 12.4667 38.3334 11.4 38.3334 9.95V5.05C38.3334 2.93334 37.0667 1.66667 34.9501 1.66667ZM36.5167 8.21667C36.3501 8.38334 36.1001 8.50001 35.8334 8.51667H33.4834V9.36667L33.5001 10.8333C33.4834 11.1167 33.3834 11.35 33.1834 11.55C33.0167 11.7167 32.7667 11.8333 32.5001 11.8333C31.9501 11.8333 31.5001 11.3833 31.5001 10.8333V8.5L29.1667 8.51667C28.6167 8.51667 28.1667 8.05 28.1667 7.5C28.1667 6.95001 28.6167 6.50001 29.1667 6.50001L30.6334 6.51667H31.5001V4.18334C31.5001 3.63334 31.9501 3.16667 32.5001 3.16667C33.0501 3.16667 33.5001 3.63334 33.5001 4.18334L33.4834 5.36667V6.50001H35.8334C36.3834 6.50001 36.8334 6.95001 36.8334 7.5C36.8167 7.78334 36.7001 8.01667 36.5167 8.21667Z" fill="#B30000"/>
<path d="M15.0001 17.3C17.1908 17.3 18.9668 15.5241 18.9668 13.3333C18.9668 11.1426 17.1908 9.36667 15.0001 9.36667C12.8094 9.36667 11.0334 11.1426 11.0334 13.3333C11.0334 15.5241 12.8094 17.3 15.0001 17.3Z" fill="#B30000"/>
<path d="M34.9499 13.3333H34.1666V21.0167L33.9499 20.8333C32.6499 19.7167 30.5499 19.7167 29.2499 20.8333L22.3166 26.7833C21.0166 27.9 18.9166 27.9 17.6166 26.7833L17.0499 26.3167C15.8666 25.2833 13.9833 25.1833 12.6499 26.0833L6.41659 30.2667C6.04992 29.3333 5.83325 28.25 5.83325 26.9833V13.0167C5.83325 8.31666 8.31659 5.83333 13.0166 5.83333H26.6666V5.04999C26.6666 4.38333 26.7833 3.81666 27.0499 3.33333H13.0166C6.94992 3.33333 3.33325 6.94999 3.33325 13.0167V26.9833C3.33325 28.8 3.64992 30.3833 4.26659 31.7167C5.69992 34.8833 8.76659 36.6667 13.0166 36.6667H26.9833C33.0499 36.6667 36.6666 33.05 36.6666 26.9833V12.95C36.1833 13.2167 35.6166 13.3333 34.9499 13.3333Z" fill="#B30000"/>
</svg>
]]>
 <g id="Notes">
  <rect height="2200" id="artboard" style="fill:white;opacity:1" width="3300" x="0" y="0"/>
  <line id="" style="fill:none;stroke:black;opacity:1;stroke-width:0.5;" x1="263" x2="3036" y1="292" y2="292"/>
  <text id="reftext1" style="stroke:none;fill:black;font-family:-apple-system,&quot;SF Pro Display&quot;,&quot;SF Pro Text&quot;,Helvetica,sans-serif;font-weight:bold;" transform="matrix(1 0 0 1 263 322)">Weight/Scale Variations</text>
  <text id="reftext2" style="stroke:none;fill:black;font-family:-apple-system,&quot;SF Pro Display&quot;,&quot;SF Pro Text&quot;,Helvetica,sans-serif;text-anchor:middle;" transform="matrix(1 0 0 1 559.711 322)">Ultralight</text>
  <text style="stroke:none;fill:black;font-family:-apple-system,&quot;SF Pro Display&quot;,&quot;SF Pro Text&quot;,Helvetica,sans-serif;text-anchor:middle;" transform="matrix(1 0 0 1 856.422 322)">Thin</text>
  <text style="stroke:none;fill:black;font-family:-apple-system,&quot;SF Pro Display&quot;,&quot;SF Pro Text&quot;,Helvetica,sans-serif;text-anchor:middle;" transform="matrix(1 0 0 1 1153.13 322)">Light</text>
  <text style="stroke:none;fill:black;font-family:-apple-system,&quot;SF Pro Display&quot;,&quot;SF Pro Text&quot;,Helvetica,sans-serif;text-anchor:middle;" transform="matrix(1 0 0 1 1449.84 322)">Regular</text>
  <text style="stroke:none;fill:black;font-family:-apple-system,&quot;SF Pro Display&quot;,&quot;SF Pro Text&quot;,Helvetica,sans-serif;text-anchor:middle;" transform="matrix(1 0 0 1 1746.56 322)">Medium</text>
  <text style="stroke:none;fill:black;font-family:-apple-system,&quot;SF Pro Display&quot;,&quot;SF Pro Text&quot;,Helvetica,sans-serif;text-anchor:middle;" transform="matrix(1 0 0 1 2043.27 322)">Semibold</text>
  <text style="stroke:none;fill:black;font-family:-apple-system,&quot;SF Pro Display&quot;,&quot;SF Pro Text&quot;,Helvetica,sans-serif;text-anchor:middle;" transform="matrix(1 0 0 1 2339.98 322)">Bold</text>
  <text style="stroke:none;fill:black;font-family:-apple-system,&quot;SF Pro Display&quot;,&quot;SF Pro Text&quot;,Helvetica,sans-serif;text-anchor:middle;" transform="matrix(1 0 0 1 2636.69 322)">Heavy</text>
  <text style="stroke:none;fill:black;font-family:-apple-system,&quot;SF Pro Display&quot;,&quot;SF Pro Text&quot;,Helvetica,sans-serif;text-anchor:middle;" transform="matrix(1 0 0 1 2933.4 322)">Black</text>
  <line id="" style="fill:none;stroke:black;opacity:1;stroke-width:0.5;" x1="263" x2="3036" y1="1903" y2="1903"/>
  <g id="" transform="matrix(1 0 0 1 263 1933)">
   <path d="M9.24805 0.830078C13.5547 0.830078 17.1387-2.74414 17.1387-7.05078C17.1387-11.3574 13.5449-14.9316 9.23828-14.9316C4.94141-14.9316 1.36719-11.3574 1.36719-7.05078C1.36719-2.74414 4.95117 0.830078 9.24805 0.830078ZM9.24805-0.654297C5.70312-0.654297 2.87109-3.49609 2.87109-7.05078C2.87109-10.6055 5.69336-13.4473 9.23828-13.4473C12.793-13.4473 15.6348-10.6055 15.6445-7.05078C15.6543-3.49609 12.8027-0.654297 9.24805-0.654297ZM6.39648-6.31836L8.50586-6.31836L8.50586-4.19922C8.50586-3.75977 8.79883-3.45703 9.22852-3.45703C9.67773-3.45703 9.9707-3.75977 9.9707-4.19922L9.9707-6.31836L12.0996-6.31836C12.5391-6.31836 12.8418-6.61133 12.8418-7.04102C12.8418-7.48047 12.5391-7.7832 12.0996-7.7832L9.9707-7.7832L9.9707-9.89258C9.9707-10.3418 9.67773-10.6445 9.22852-10.6445C8.79883-10.6445 8.50586-10.3418 8.50586-9.89258L8.50586-7.7832L6.39648-7.7832C5.94727-7.7832 5.64453-7.48047 5.64453-7.04102C5.64453-6.61133 5.94727-6.31836 6.39648-6.31836Z"/>
  </g>
  <g id="" transform="matrix(1 0 0 1 281.506 1933)">
   <path d="M11.709 2.91016C17.1582 2.91016 21.6699-1.61133 21.6699-7.05078C21.6699-12.5 17.1484-17.0117 11.6992-17.0117C6.25977-17.0117 1.74805-12.5 1.74805-7.05078C1.74805-1.61133 6.26953 2.91016 11.709 2.91016ZM11.709 1.25C7.09961 1.25 3.41797-2.44141 3.41797-7.05078C3.41797-11.6602 7.08984-15.3516 11.6992-15.3516C16.3086-15.3516 20-11.6602 20.0098-7.05078C20.0195-2.44141 16.3184 1.25 11.709 1.25ZM7.98828-6.23047L10.8789-6.23047L10.8789-3.32031C10.8789-2.83203 11.2109-2.5 11.6895-2.5C12.1777-2.5 12.5195-2.83203 12.5195-3.32031L12.5195-6.23047L15.4297-6.23047C15.918-6.23047 16.25-6.5625 16.25-7.04102C16.25-7.5293 15.918-7.87109 15.4297-7.87109L12.5195-7.87109L12.5195-10.7617C12.5195-11.2695 12.1777-11.6016 11.6895-11.6016C11.2109-11.6016 10.8789-11.2598 10.8789-10.7617L10.8789-7.87109L7.98828-7.87109C7.48047-7.87109 7.14844-7.5293 7.14844-7.04102C7.14844-6.5625 7.49023-6.23047 7.98828-6.23047Z"/>
  </g>
  <g id="" transform="matrix(1 0 0 1 304.924 1933)">
   <path d="M14.9707 5.66406C21.9336 5.66406 27.6953-0.0976562 27.6953-7.05078C27.6953-14.0137 21.9238-19.7754 14.9609-19.7754C8.00781-19.7754 2.25586-14.0137 2.25586-7.05078C2.25586-0.0976562 8.01758 5.66406 14.9707 5.66406ZM14.9707 3.84766C8.93555 3.84766 4.08203-1.01562 4.08203-7.05078C4.08203-13.0957 8.92578-17.9492 14.9609-17.9492C21.0059-17.9492 25.8594-13.0957 25.8691-7.05078C25.8789-1.01562 21.0156 3.84766 14.9707 3.84766ZM10.0586-6.14258L14.0625-6.14258L14.0625-2.12891C14.0625-1.5918 14.4336-1.2207 14.9512-1.2207C15.4883-1.2207 15.8594-1.5918 15.8594-2.12891L15.8594-6.14258L19.8828-6.14258C20.4102-6.14258 20.791-6.51367 20.791-7.03125C20.791-7.56836 20.4199-7.94922 19.8828-7.94922L15.8594-7.94922L15.8594-11.9531C15.8594-12.5098 15.4883-12.8809 14.9512-12.8809C14.4336-12.8809 14.0625-12.5 14.0625-11.9531L14.0625-7.94922L10.0586-7.94922C9.50195-7.94922 9.13086-7.56836 9.13086-7.03125C9.13086-6.51367 9.51172-6.14258 10.0586-6.14258Z"/>
  </g>
  <text style="stroke:none;fill:black;font-family:-apple-system,&quot;SF Pro Display&quot;,&quot;SF Pro Text&quot;,Helvetica,sans-serif;font-weight:bold;" transform="matrix(1 0 0 1 263 1953)">Design Variations</text>
  <text style="stroke:none;fill:black;font-family:-apple-system,&quot;SF Pro Display&quot;,&quot;SF Pro Text&quot;,Helvetica,sans-serif;" transform="matrix(1 0 0 1 263 1971)">Symbols are supported in up to nine weights and three scales.</text>
  <text style="stroke:none;fill:black;font-family:-apple-system,&quot;SF Pro Display&quot;,&quot;SF Pro Text&quot;,Helvetica,sans-serif;" transform="matrix(1 0 0 1 263 1989)">For optimal layout with text and other symbols, vertically align</text>
  <text style="stroke:none;fill:black;font-family:-apple-system,&quot;SF Pro Display&quot;,&quot;SF Pro Text&quot;,Helvetica,sans-serif;" transform="matrix(1 0 0 1 263 2007)">symbols with the adjacent text.</text>
  <line id="" style="fill:none;stroke:#00AEEF;stroke-width:0.5;opacity:1.0;" x1="776" x2="776" y1="1919" y2="1933"/>
  <g id="" transform="matrix(1 0 0 1 776 1933)">
   <path d="M3.31055 0.126953C3.82812 0.126953 4.08203-0.0683594 4.26758-0.605469L5.52734-4.0625L11.2891-4.0625L12.5488-0.605469C12.7344-0.0683594 12.9883 0.126953 13.4961 0.126953C14.0137 0.126953 14.3457-0.185547 14.3457-0.673828C14.3457-0.839844 14.3164-0.986328 14.2383-1.20117L9.6582-13.3887C9.43359-13.9941 9.0332-14.2871 8.4082-14.2871C7.80273-14.2871 7.39258-13.9941 7.17773-13.3984L2.59766-1.19141C2.51953-0.976562 2.49023-0.830078 2.49023-0.664062C2.49023-0.175781 2.80273 0.126953 3.31055 0.126953ZM6.00586-5.53711L8.37891-12.1094L8.42773-12.1094L10.8008-5.53711Z"/>
  </g>
  <line id="" style="fill:none;stroke:#00AEEF;stroke-width:0.5;opacity:1.0;" x1="792.836" x2="792.836" y1="1919" y2="1933"/>
  <text style="stroke:none;fill:black;font-family:-apple-system,&quot;SF Pro Display&quot;,&quot;SF Pro Text&quot;,Helvetica,sans-serif;font-weight:bold;" transform="matrix(1 0 0 1 776 1953)">Margins</text>
  <text style="stroke:none;fill:black;font-family:-apple-system,&quot;SF Pro Display&quot;,&quot;SF Pro Text&quot;,Helvetica,sans-serif;" transform="matrix(1 0 0 1 776 1971)">Leading and trailing margins on the left and right side of each symbol</text>
  <text style="stroke:none;fill:black;font-family:-apple-system,&quot;SF Pro Display&quot;,&quot;SF Pro Text&quot;,Helvetica,sans-serif;" transform="matrix(1 0 0 1 776 1989)">can be adjusted by modifying the x-location of the margin guidelines.</text>
  <text style="stroke:none;fill:black;font-family:-apple-system,&quot;SF Pro Display&quot;,&quot;SF Pro Text&quot;,Helvetica,sans-serif;" transform="matrix(1 0 0 1 776 2007)">Modifications are automatically applied proportionally to all</text>
  <text style="stroke:none;fill:black;font-family:-apple-system,&quot;SF Pro Display&quot;,&quot;SF Pro Text&quot;,Helvetica,sans-serif;" transform="matrix(1 0 0 1 776 2025)">scales and weights.</text>
  <g id="" transform="matrix(1 0 0 1 1289 1933)">
   <path d="M2.8418 1.86523L4.54102 3.57422C5.40039 4.44336 6.38672 4.38477 7.31445 3.35938L17.4902-7.85156C17.7539-7.76367 18.0273-7.7832 18.3398-7.8418L19.4043-8.03711L20.0684-7.36328L20.0293-6.80664C19.9902-6.30859 20.1172-5.92773 20.6055-5.44922L21.3672-4.70703C21.8457-4.22852 22.4609-4.19922 22.9297-4.66797L25.8398-7.58789C26.3086-8.05664 26.2891-8.65234 25.8105-9.13086L25.0391-9.89258C24.5605-10.3711 24.1895-10.5273 23.7109-10.4883L23.1348-10.4395L22.4902-11.0742L22.7344-12.1973C22.8613-12.7637 22.7051-13.2031 22.1191-13.7891L19.9219-15.9766C16.582-19.2969 12.1484-19.2188 9.25781-16.3281C8.83789-15.918 8.80859-15.3418 9.04297-14.9512C9.27734-14.5898 9.73633-14.3555 10.3809-14.5215C11.8457-14.8633 13.3691-14.9219 14.7949-13.9844L14.209-12.5293C14.0137-12.0508 13.9844-11.6504 14.1113-11.2891L3.04688-0.898438C2.06055 0.0195312 1.98242 0.996094 2.8418 1.86523ZM10.752-15.957C13.1836-17.7344 16.4746-17.4316 18.7012-15.2051L21.1328-12.793C21.3672-12.5586 21.4062-12.373 21.3379-12.0312L21.0156-10.5469L22.5195-9.0625L23.5059-9.12109C23.7598-9.13086 23.8379-9.11133 24.0332-8.91602L24.6094-8.33984L22.168-5.89844L21.5918-6.47461C21.3965-6.66992 21.3672-6.74805 21.377-7.01172L21.4453-7.98828L19.9512-9.47266L18.4277-9.21875C18.1055-9.15039 17.959-9.17969 17.7148-9.41406L15.7129-11.416C15.459-11.6504 15.4297-11.8164 15.5859-12.1875L16.4648-14.2773C14.9023-15.7324 12.8711-16.3574 10.8398-15.7617C10.6836-15.7227 10.625-15.8496 10.752-15.957ZM5.27344 2.30469L4.10156 1.14258C3.63281 0.683594 3.74023 0.341797 4.14062-0.0195312L14.9512-10.1953L16.416-8.71094L6.42578 2.27539C6.07422 2.67578 5.74219 2.77344 5.27344 2.30469Z"/>
  </g>
  <text style="stroke:none;fill:black;font-family:-apple-system,&quot;SF Pro Display&quot;,&quot;SF Pro Text&quot;,Helvetica,sans-serif;font-weight:bold;" transform="matrix(1 0 0 1 1289 1953)">Exporting</text>
  <text style="stroke:none;fill:black;font-family:-apple-system,&quot;SF Pro Display&quot;,&quot;SF Pro Text&quot;,Helvetica,sans-serif;" transform="matrix(1 0 0 1 1289 1971)">Symbols should be outlined when exporting to ensure the</text>
  <text style="stroke:none;fill:black;font-family:-apple-system,&quot;SF Pro Display&quot;,&quot;SF Pro Text&quot;,Helvetica,sans-serif;" transform="matrix(1 0 0 1 1289 1989)">design is preserved when submitting to Xcode.</text>
  <text id="template-version" style="stroke:none;fill:black;font-family:-apple-system,&quot;SF Pro Display&quot;,&quot;SF Pro Text&quot;,Helvetica,sans-serif;text-anchor:end;" transform="matrix(1 0 0 1 3036 1933)">Template v.2.0</text>
  <text style="stroke:none;fill:black;font-family:-apple-system,&quot;SF Pro Display&quot;,&quot;SF Pro Text&quot;,Helvetica,sans-serif;text-anchor:end;" transform="matrix(1 0 0 1 3036 1951)">Requires Xcode 12 or greater</text>
  <text style="stroke:none;fill:black;font-family:-apple-system,&quot;SF Pro Display&quot;,&quot;SF Pro Text&quot;,Helvetica,sans-serif;" transform="matrix(1 0 0 1 263 726)">Small</text>
  <text style="stroke:none;fill:black;font-family:-apple-system,&quot;SF Pro Display&quot;,&quot;SF Pro Text&quot;,Helvetica,sans-serif;" transform="matrix(1 0 0 1 263 1156)">Medium</text>
  <text style="stroke:none;fill:black;font-family:-apple-system,&quot;SF Pro Display&quot;,&quot;SF Pro Text&quot;,Helvetica,sans-serif;" transform="matrix(1 0 0 1 263 1586)">Large</text>
 </g>
 <g id="Guides">
  <g id="H-reference" style="fill:#27AAE1;stroke:none;" transform="matrix(1 0 0 1 339 696)">
   <path d="M0.976562 0L3.66211 0L12.9883-24.4629L45.752-24.4629L55.127 0L57.7637 0L30.6152-70.459L28.125-70.459ZM29.3457-67.1387L29.4434-67.1387L44.873-26.709L13.8672-26.709Z"/>
  </g>
  <line id="Baseline-S" style="fill:none;stroke:#27AAE1;opacity:1;stroke-width:0.5;" x1="263" x2="3036" y1="696" y2="696"/>
  <line id="Capline-S" style="fill:none;stroke:#27AAE1;opacity:1;stroke-width:0.5;" x1="263" x2="3036" y1="625.541" y2="625.541"/>
  <g id="H-reference" style="fill:#27AAE1;stroke:none;" transform="matrix(1 0 0 1 339 1126)">
   <path d="M0.976562 0L3.66211 0L12.9883-24.4629L45.752-24.4629L55.127 0L57.7637 0L30.6152-70.459L28.125-70.459ZM29.3457-67.1387L29.4434-67.1387L44.873-26.709L13.8672-26.709Z"/>
  </g>
  <line id="Baseline-M" style="fill:none;stroke:#27AAE1;opacity:1;stroke-width:0.5;" x1="263" x2="3036" y1="1126" y2="1126"/>
  <line id="Capline-M" style="fill:none;stroke:#27AAE1;opacity:1;stroke-width:0.5;" x1="263" x2="3036" y1="1055.54" y2="1055.54"/>
  <g id="H-reference" style="fill:#27AAE1;stroke:none;" transform="matrix(1 0 0 1 339 1556)">
   <path d="M0.976562 0L3.66211 0L12.9883-24.4629L45.752-24.4629L55.127 0L57.7637 0L30.6152-70.459L28.125-70.459ZM29.3457-67.1387L29.4434-67.1387L44.873-26.709L13.8672-26.709Z"/>
  </g>
  <line id="Baseline-L" style="fill:none;stroke:#27AAE1;opacity:1;stroke-width:0.5;" x1="263" x2="3036" y1="1556" y2="1556"/>
  <line id="Capline-L" style="fill:none;stroke:#27AAE1;opacity:1;stroke-width:0.5;" x1="263" x2="3036" y1="1485.54" y2="1485.54"/>
  <line id="left-margin" x1="1415.9000195312499" x2="1415.9000195312499" y1="1030.79" y2="1150.12" style="fill:none;stroke:#00AEEF;stroke-width:0.5;opacity:1.0;"/>
  <line id="right-margin" x1="1486.3599804687499" x2="1486.3599804687499" y1="1030.79" y2="1150.12" style="fill:none;stroke:#00AEEF;stroke-width:0.5;opacity:1.0;"/>
 </g>
 <g id="Symbols">
  <g id="Black-L" transform="matrix(1.0,0.0,0.0,1.0,2889.2333251953123,1475.3233447265625)">  <path stroke-width="1px" stroke="none" stroke-opacity="1" stroke-linejoin="miter" stroke-linecap="butt" stroke-miterlimit="4" fill-rule="nonzero" stroke-dasharray="none" fill="#000000" fill-opacity="1" d="M79.418,3.787L68.284,3.787C64.989,3.787,62.565,5.151,61.467,7.574C60.861,8.673,60.596,9.96,60.596,11.475L60.596,22.61C60.596,27.42,63.474,30.298,68.284,30.298L79.418,30.298C80.933,30.298,82.221,30.033,83.319,29.427C85.743,28.329,87.106,25.905,87.106,22.61L87.106,11.475C87.106,6.666,84.228,3.787,79.418,3.787ZM82.978,18.671C82.6,19.05,82.031,19.315,81.425,19.353L76.085,19.353L76.085,21.284L76.123,24.617C76.085,25.261,75.858,25.791,75.404,26.245C75.025,26.624,74.457,26.889,73.851,26.889C72.601,26.889,71.579,25.867,71.579,24.617L71.579,19.315L66.276,19.353C65.027,19.353,64.004,18.292,64.004,17.043C64.004,15.793,65.027,14.77,66.276,14.77L69.609,14.808L71.579,14.808L71.579,9.506C71.579,8.256,72.601,7.196,73.851,7.196C75.101,7.196,76.123,8.256,76.123,9.506L76.085,12.195L76.085,14.77L81.425,14.77C82.675,14.77,83.698,15.793,83.698,17.043C83.66,17.686,83.395,18.217,82.978,18.671ZM82.978,18.671"/>
  <path stroke-dasharray="none" stroke-miterlimit="4" stroke-opacity="1" fill="#000000" stroke-linecap="butt" fill-rule="nonzero" stroke-width="1px" stroke-linejoin="miter" fill-opacity="1" stroke="none" d="M34.085,39.311C39.063,39.311,43.099,35.276,43.099,30.298C43.099,25.32,39.063,21.284,34.085,21.284C29.107,21.284,25.072,25.32,25.072,30.298C25.072,35.276,29.107,39.311,34.085,39.311ZM34.085,39.311"/>
  <path fill-rule="nonzero" stroke-dasharray="none" stroke-linejoin="miter" stroke-width="1px" fill-opacity="1" stroke="none" fill="#000000" stroke-opacity="1" stroke-miterlimit="4" stroke-linecap="butt" d="M79.418,30.298L77.638,30.298L77.638,47.757L77.146,47.34C74.191,44.803,69.42,44.803,66.466,47.34L50.711,60.861C47.757,63.398,42.985,63.398,40.031,60.861L38.743,59.8C36.054,57.452,31.775,57.225,28.745,59.27L14.581,68.776C13.747,66.655,13.255,64.193,13.255,61.315L13.255,29.578C13.255,18.898,18.898,13.255,29.578,13.255L60.595,13.255L60.595,11.475C60.595,9.96,60.861,8.673,61.466,7.574L29.578,7.574C15.793,7.574,7.574,15.793,7.574,29.578L7.574,61.315C7.574,65.443,8.294,69.041,9.695,72.071C12.952,79.267,19.921,83.319,29.578,83.319L61.315,83.319C75.1,83.319,83.319,75.101,83.319,61.315L83.319,29.427C82.221,30.033,80.933,30.298,79.418,30.298ZM79.418,30.298"/>
</g>
  <g id="Heavy-L" transform="matrix(1.0,0.0,0.0,1.0,2592.5233251953123,1475.3233447265625)">  <path fill="#000000" stroke-width="1px" stroke-miterlimit="4" stroke-linecap="butt" fill-rule="nonzero" fill-opacity="1" stroke-opacity="1" stroke-linejoin="miter" stroke-dasharray="none" stroke="none" d="M79.418,3.787L68.284,3.787C64.989,3.787,62.565,5.151,61.467,7.574C60.861,8.673,60.596,9.96,60.596,11.475L60.596,22.61C60.596,27.42,63.474,30.298,68.284,30.298L79.418,30.298C80.933,30.298,82.221,30.033,83.319,29.427C85.743,28.329,87.106,25.905,87.106,22.61L87.106,11.475C87.106,6.666,84.228,3.787,79.418,3.787ZM82.978,18.671C82.6,19.05,82.031,19.315,81.425,19.353L76.085,19.353L76.085,21.284L76.123,24.617C76.085,25.261,75.858,25.791,75.404,26.245C75.025,26.624,74.457,26.889,73.851,26.889C72.601,26.889,71.579,25.867,71.579,24.617L71.579,19.315L66.276,19.353C65.027,19.353,64.004,18.292,64.004,17.043C64.004,15.793,65.027,14.77,66.276,14.77L69.609,14.808L71.579,14.808L71.579,9.506C71.579,8.256,72.601,7.196,73.851,7.196C75.101,7.196,76.123,8.256,76.123,9.506L76.085,12.195L76.085,14.77L81.425,14.77C82.675,14.77,83.698,15.793,83.698,17.043C83.66,17.686,83.395,18.217,82.978,18.671ZM82.978,18.671"/>
  <path stroke-width="1px" stroke-opacity="1" stroke-miterlimit="4" stroke="none" stroke-dasharray="none" fill-opacity="1" stroke-linejoin="miter" fill-rule="nonzero" fill="#000000" stroke-linecap="butt" d="M34.085,39.311C39.063,39.311,43.099,35.276,43.099,30.298C43.099,25.32,39.063,21.284,34.085,21.284C29.107,21.284,25.072,25.32,25.072,30.298C25.072,35.276,29.107,39.311,34.085,39.311ZM34.085,39.311"/>
  <path stroke-miterlimit="4" stroke-opacity="1" stroke-linejoin="miter" fill="#000000" stroke="none" stroke-linecap="butt" fill-rule="nonzero" stroke-dasharray="none" stroke-width="1px" fill-opacity="1" d="M79.418,30.298L77.638,30.298L77.638,47.757L77.146,47.34C74.191,44.803,69.42,44.803,66.466,47.34L50.711,60.861C47.757,63.398,42.985,63.398,40.031,60.861L38.743,59.8C36.054,57.452,31.775,57.225,28.745,59.27L14.581,68.776C13.747,66.655,13.255,64.193,13.255,61.315L13.255,29.578C13.255,18.898,18.898,13.255,29.578,13.255L60.595,13.255L60.595,11.475C60.595,9.96,60.861,8.673,61.466,7.574L29.578,7.574C15.793,7.574,7.574,15.793,7.574,29.578L7.574,61.315C7.574,65.443,8.294,69.041,9.695,72.071C12.952,79.267,19.921,83.319,29.578,83.319L61.315,83.319C75.1,83.319,83.319,75.101,83.319,61.315L83.319,29.427C82.221,30.033,80.933,30.298,79.418,30.298ZM79.418,30.298"/>
</g>
  <g id="Bold-L" transform="matrix(1.0,0.0,0.0,1.0,2295.8133251953122,1475.3233447265625)">  <path stroke-opacity="1" stroke-width="1px" stroke-dasharray="none" stroke-linejoin="miter" stroke-miterlimit="4" stroke-linecap="butt" fill="#000000" stroke="none" fill-opacity="1" fill-rule="nonzero" d="M79.418,3.787L68.284,3.787C64.989,3.787,62.565,5.151,61.467,7.574C60.861,8.673,60.596,9.96,60.596,11.475L60.596,22.61C60.596,27.42,63.474,30.298,68.284,30.298L79.418,30.298C80.933,30.298,82.221,30.033,83.319,29.427C85.743,28.329,87.106,25.905,87.106,22.61L87.106,11.475C87.106,6.666,84.228,3.787,79.418,3.787ZM82.978,18.671C82.6,19.05,82.031,19.315,81.425,19.353L76.085,19.353L76.085,21.284L76.123,24.617C76.085,25.261,75.858,25.791,75.404,26.245C75.025,26.624,74.457,26.889,73.851,26.889C72.601,26.889,71.579,25.867,71.579,24.617L71.579,19.315L66.276,19.353C65.027,19.353,64.004,18.292,64.004,17.043C64.004,15.793,65.027,14.77,66.276,14.77L69.609,14.808L71.579,14.808L71.579,9.506C71.579,8.256,72.601,7.196,73.851,7.196C75.101,7.196,76.123,8.256,76.123,9.506L76.085,12.195L76.085,14.77L81.425,14.77C82.675,14.77,83.698,15.793,83.698,17.043C83.66,17.686,83.395,18.217,82.978,18.671ZM82.978,18.671"/>
  <path stroke-miterlimit="4" fill-opacity="1" stroke-linejoin="miter" fill="#000000" stroke="none" stroke-dasharray="none" stroke-opacity="1" fill-rule="nonzero" stroke-linecap="butt" stroke-width="1px" d="M34.085,39.311C39.063,39.311,43.099,35.276,43.099,30.298C43.099,25.32,39.063,21.284,34.085,21.284C29.107,21.284,25.072,25.32,25.072,30.298C25.072,35.276,29.107,39.311,34.085,39.311ZM34.085,39.311"/>
  <path stroke-dasharray="none" stroke="none" stroke-linejoin="miter" stroke-width="1px" stroke-opacity="1" stroke-miterlimit="4" fill-rule="nonzero" fill="#000000" fill-opacity="1" stroke-linecap="butt" d="M79.418,30.298L77.638,30.298L77.638,47.757L77.146,47.34C74.191,44.803,69.42,44.803,66.466,47.34L50.711,60.861C47.757,63.398,42.985,63.398,40.031,60.861L38.743,59.8C36.054,57.452,31.775,57.225,28.745,59.27L14.581,68.776C13.747,66.655,13.255,64.193,13.255,61.315L13.255,29.578C13.255,18.898,18.898,13.255,29.578,13.255L60.595,13.255L60.595,11.475C60.595,9.96,60.861,8.673,61.466,7.574L29.578,7.574C15.793,7.574,7.574,15.793,7.574,29.578L7.574,61.315C7.574,65.443,8.294,69.041,9.695,72.071C12.952,79.267,19.921,83.319,29.578,83.319L61.315,83.319C75.1,83.319,83.319,75.101,83.319,61.315L83.319,29.427C82.221,30.033,80.933,30.298,79.418,30.298ZM79.418,30.298"/>
</g>
  <g id="Semibold-L" transform="matrix(1.0,0.0,0.0,1.0,1999.1033251953124,1475.3233447265625)">  <path fill-rule="nonzero" fill-opacity="1" stroke-dasharray="none" stroke-miterlimit="4" fill="#000000" stroke-opacity="1" stroke-linecap="butt" stroke="none" stroke-width="1px" stroke-linejoin="miter" d="M79.418,3.787L68.284,3.787C64.989,3.787,62.565,5.151,61.467,7.574C60.861,8.673,60.596,9.96,60.596,11.475L60.596,22.61C60.596,27.42,63.474,30.298,68.284,30.298L79.418,30.298C80.933,30.298,82.221,30.033,83.319,29.427C85.743,28.329,87.106,25.905,87.106,22.61L87.106,11.475C87.106,6.666,84.228,3.787,79.418,3.787ZM82.978,18.671C82.6,19.05,82.031,19.315,81.425,19.353L76.085,19.353L76.085,21.284L76.123,24.617C76.085,25.261,75.858,25.791,75.404,26.245C75.025,26.624,74.457,26.889,73.851,26.889C72.601,26.889,71.579,25.867,71.579,24.617L71.579,19.315L66.276,19.353C65.027,19.353,64.004,18.292,64.004,17.043C64.004,15.793,65.027,14.77,66.276,14.77L69.609,14.808L71.579,14.808L71.579,9.506C71.579,8.256,72.601,7.196,73.851,7.196C75.101,7.196,76.123,8.256,76.123,9.506L76.085,12.195L76.085,14.77L81.425,14.77C82.675,14.77,83.698,15.793,83.698,17.043C83.66,17.686,83.395,18.217,82.978,18.671ZM82.978,18.671"/>
  <path fill="#000000" stroke-dasharray="none" fill-opacity="1" fill-rule="nonzero" stroke-opacity="1" stroke-linecap="butt" stroke-linejoin="miter" stroke="none" stroke-width="1px" stroke-miterlimit="4" d="M34.085,39.311C39.063,39.311,43.099,35.276,43.099,30.298C43.099,25.32,39.063,21.284,34.085,21.284C29.107,21.284,25.072,25.32,25.072,30.298C25.072,35.276,29.107,39.311,34.085,39.311ZM34.085,39.311"/>
  <path stroke-dasharray="none" stroke-width="1px" stroke-opacity="1" fill-rule="nonzero" stroke="none" stroke-miterlimit="4" stroke-linejoin="miter" stroke-linecap="butt" fill="#000000" fill-opacity="1" d="M79.418,30.298L77.638,30.298L77.638,47.757L77.146,47.34C74.191,44.803,69.42,44.803,66.466,47.34L50.711,60.861C47.757,63.398,42.985,63.398,40.031,60.861L38.743,59.8C36.054,57.452,31.775,57.225,28.745,59.27L14.581,68.776C13.747,66.655,13.255,64.193,13.255,61.315L13.255,29.578C13.255,18.898,18.898,13.255,29.578,13.255L60.595,13.255L60.595,11.475C60.595,9.96,60.861,8.673,61.466,7.574L29.578,7.574C15.793,7.574,7.574,15.793,7.574,29.578L7.574,61.315C7.574,65.443,8.294,69.041,9.695,72.071C12.952,79.267,19.921,83.319,29.578,83.319L61.315,83.319C75.1,83.319,83.319,75.101,83.319,61.315L83.319,29.427C82.221,30.033,80.933,30.298,79.418,30.298ZM79.418,30.298"/>
</g>
  <g id="Medium-L" transform="matrix(1.0,0.0,0.0,1.0,1702.3933251953124,1475.3233447265625)">  <path stroke-miterlimit="4" stroke-opacity="1" stroke-dasharray="none" fill-opacity="1" stroke-linecap="butt" stroke="none" fill="#000000" fill-rule="nonzero" stroke-width="1px" stroke-linejoin="miter" d="M79.418,3.787L68.284,3.787C64.989,3.787,62.565,5.151,61.467,7.574C60.861,8.673,60.596,9.96,60.596,11.475L60.596,22.61C60.596,27.42,63.474,30.298,68.284,30.298L79.418,30.298C80.933,30.298,82.221,30.033,83.319,29.427C85.743,28.329,87.106,25.905,87.106,22.61L87.106,11.475C87.106,6.666,84.228,3.787,79.418,3.787ZM82.978,18.671C82.6,19.05,82.031,19.315,81.425,19.353L76.085,19.353L76.085,21.284L76.123,24.617C76.085,25.261,75.858,25.791,75.404,26.245C75.025,26.624,74.457,26.889,73.851,26.889C72.601,26.889,71.579,25.867,71.579,24.617L71.579,19.315L66.276,19.353C65.027,19.353,64.004,18.292,64.004,17.043C64.004,15.793,65.027,14.77,66.276,14.77L69.609,14.808L71.579,14.808L71.579,9.506C71.579,8.256,72.601,7.196,73.851,7.196C75.101,7.196,76.123,8.256,76.123,9.506L76.085,12.195L76.085,14.77L81.425,14.77C82.675,14.77,83.698,15.793,83.698,17.043C83.66,17.686,83.395,18.217,82.978,18.671ZM82.978,18.671"/>
  <path stroke-linecap="butt" fill-rule="nonzero" stroke="none" fill-opacity="1" stroke-width="1px" stroke-opacity="1" stroke-miterlimit="4" stroke-dasharray="none" stroke-linejoin="miter" fill="#000000" d="M34.085,39.311C39.063,39.311,43.099,35.276,43.099,30.298C43.099,25.32,39.063,21.284,34.085,21.284C29.107,21.284,25.072,25.32,25.072,30.298C25.072,35.276,29.107,39.311,34.085,39.311ZM34.085,39.311"/>
  <path stroke="none" stroke-width="1px" stroke-miterlimit="4" fill="#000000" fill-rule="nonzero" stroke-opacity="1" stroke-linecap="butt" stroke-linejoin="miter" stroke-dasharray="none" fill-opacity="1" d="M79.418,30.298L77.638,30.298L77.638,47.757L77.146,47.34C74.191,44.803,69.42,44.803,66.466,47.34L50.711,60.861C47.757,63.398,42.985,63.398,40.031,60.861L38.743,59.8C36.054,57.452,31.775,57.225,28.745,59.27L14.581,68.776C13.747,66.655,13.255,64.193,13.255,61.315L13.255,29.578C13.255,18.898,18.898,13.255,29.578,13.255L60.595,13.255L60.595,11.475C60.595,9.96,60.861,8.673,61.466,7.574L29.578,7.574C15.793,7.574,7.574,15.793,7.574,29.578L7.574,61.315C7.574,65.443,8.294,69.041,9.695,72.071C12.952,79.267,19.921,83.319,29.578,83.319L61.315,83.319C75.1,83.319,83.319,75.101,83.319,61.315L83.319,29.427C82.221,30.033,80.933,30.298,79.418,30.298ZM79.418,30.298"/>
</g>
  <g id="Regular-L" transform="matrix(1.0,0.0,0.0,1.0,1405.6833251953124,1475.3233447265625)">  <path stroke-dasharray="none" fill-opacity="1" stroke-width="1px" stroke-linecap="butt" stroke="none" fill-rule="nonzero" stroke-linejoin="miter" fill="#000000" stroke-miterlimit="4" stroke-opacity="1" d="M79.418,3.787L68.284,3.787C64.989,3.787,62.565,5.151,61.467,7.574C60.861,8.673,60.596,9.96,60.596,11.475L60.596,22.61C60.596,27.42,63.474,30.298,68.284,30.298L79.418,30.298C80.933,30.298,82.221,30.033,83.319,29.427C85.743,28.329,87.106,25.905,87.106,22.61L87.106,11.475C87.106,6.666,84.228,3.787,79.418,3.787ZM82.978,18.671C82.6,19.05,82.031,19.315,81.425,19.353L76.085,19.353L76.085,21.284L76.123,24.617C76.085,25.261,75.858,25.791,75.404,26.245C75.025,26.624,74.457,26.889,73.851,26.889C72.601,26.889,71.579,25.867,71.579,24.617L71.579,19.315L66.276,19.353C65.027,19.353,64.004,18.292,64.004,17.043C64.004,15.793,65.027,14.77,66.276,14.77L69.609,14.808L71.579,14.808L71.579,9.506C71.579,8.256,72.601,7.196,73.851,7.196C75.101,7.196,76.123,8.256,76.123,9.506L76.085,12.195L76.085,14.77L81.425,14.77C82.675,14.77,83.698,15.793,83.698,17.043C83.66,17.686,83.395,18.217,82.978,18.671ZM82.978,18.671"/>
  <path fill-opacity="1" stroke-linejoin="miter" stroke="none" stroke-miterlimit="4" stroke-linecap="butt" fill-rule="nonzero" stroke-width="1px" stroke-opacity="1" stroke-dasharray="none" fill="#000000" d="M34.085,39.311C39.063,39.311,43.099,35.276,43.099,30.298C43.099,25.32,39.063,21.284,34.085,21.284C29.107,21.284,25.072,25.32,25.072,30.298C25.072,35.276,29.107,39.311,34.085,39.311ZM34.085,39.311"/>
  <path stroke-dasharray="none" fill-opacity="1" stroke-opacity="1" fill="#000000" stroke-linejoin="miter" stroke-width="1px" stroke-miterlimit="4" stroke="none" stroke-linecap="butt" fill-rule="nonzero" d="M79.418,30.298L77.638,30.298L77.638,47.757L77.146,47.34C74.191,44.803,69.42,44.803,66.466,47.34L50.711,60.861C47.757,63.398,42.985,63.398,40.031,60.861L38.743,59.8C36.054,57.452,31.775,57.225,28.745,59.27L14.581,68.776C13.747,66.655,13.255,64.193,13.255,61.315L13.255,29.578C13.255,18.898,18.898,13.255,29.578,13.255L60.595,13.255L60.595,11.475C60.595,9.96,60.861,8.673,61.466,7.574L29.578,7.574C15.793,7.574,7.574,15.793,7.574,29.578L7.574,61.315C7.574,65.443,8.294,69.041,9.695,72.071C12.952,79.267,19.921,83.319,29.578,83.319L61.315,83.319C75.1,83.319,83.319,75.101,83.319,61.315L83.319,29.427C82.221,30.033,80.933,30.298,79.418,30.298ZM79.418,30.298"/>
</g>
  <g id="Light-L" transform="matrix(1.0,0.0,0.0,1.0,1108.9733251953126,1475.3233447265625)">  <path fill-rule="nonzero" stroke-miterlimit="4" stroke-linejoin="miter" fill="#000000" stroke-width="1px" stroke-dasharray="none" stroke="none" fill-opacity="1" stroke-opacity="1" stroke-linecap="butt" d="M79.418,3.787L68.284,3.787C64.989,3.787,62.565,5.151,61.467,7.574C60.861,8.673,60.596,9.96,60.596,11.475L60.596,22.61C60.596,27.42,63.474,30.298,68.284,30.298L79.418,30.298C80.933,30.298,82.221,30.033,83.319,29.427C85.743,28.329,87.106,25.905,87.106,22.61L87.106,11.475C87.106,6.666,84.228,3.787,79.418,3.787ZM82.978,18.671C82.6,19.05,82.031,19.315,81.425,19.353L76.085,19.353L76.085,21.284L76.123,24.617C76.085,25.261,75.858,25.791,75.404,26.245C75.025,26.624,74.457,26.889,73.851,26.889C72.601,26.889,71.579,25.867,71.579,24.617L71.579,19.315L66.276,19.353C65.027,19.353,64.004,18.292,64.004,17.043C64.004,15.793,65.027,14.77,66.276,14.77L69.609,14.808L71.579,14.808L71.579,9.506C71.579,8.256,72.601,7.196,73.851,7.196C75.101,7.196,76.123,8.256,76.123,9.506L76.085,12.195L76.085,14.77L81.425,14.77C82.675,14.77,83.698,15.793,83.698,17.043C83.66,17.686,83.395,18.217,82.978,18.671ZM82.978,18.671"/>
  <path stroke-width="1px" fill-rule="nonzero" stroke-opacity="1" stroke-miterlimit="4" stroke-linejoin="miter" stroke-dasharray="none" fill-opacity="1" stroke="none" fill="#000000" stroke-linecap="butt" d="M34.085,39.311C39.063,39.311,43.099,35.276,43.099,30.298C43.099,25.32,39.063,21.284,34.085,21.284C29.107,21.284,25.072,25.32,25.072,30.298C25.072,35.276,29.107,39.311,34.085,39.311ZM34.085,39.311"/>
  <path stroke-linecap="butt" stroke-dasharray="none" stroke="none" stroke-linejoin="miter" stroke-opacity="1" fill-opacity="1" fill-rule="nonzero" stroke-width="1px" stroke-miterlimit="4" fill="#000000" d="M79.418,30.298L77.638,30.298L77.638,47.757L77.146,47.34C74.191,44.803,69.42,44.803,66.466,47.34L50.711,60.861C47.757,63.398,42.985,63.398,40.031,60.861L38.743,59.8C36.054,57.452,31.775,57.225,28.745,59.27L14.581,68.776C13.747,66.655,13.255,64.193,13.255,61.315L13.255,29.578C13.255,18.898,18.898,13.255,29.578,13.255L60.595,13.255L60.595,11.475C60.595,9.96,60.861,8.673,61.466,7.574L29.578,7.574C15.793,7.574,7.574,15.793,7.574,29.578L7.574,61.315C7.574,65.443,8.294,69.041,9.695,72.071C12.952,79.267,19.921,83.319,29.578,83.319L61.315,83.319C75.1,83.319,83.319,75.101,83.319,61.315L83.319,29.427C82.221,30.033,80.933,30.298,79.418,30.298ZM79.418,30.298"/>
</g>
  <g id="Thin-L" transform="matrix(1.0,0.0,0.0,1.0,812.2633251953125,1475.3233447265625)">  <path stroke-miterlimit="4" stroke="none" stroke-opacity="1" stroke-dasharray="none" fill-rule="nonzero" fill-opacity="1" stroke-linecap="butt" stroke-width="1px" stroke-linejoin="miter" fill="#000000" d="M79.418,3.787L68.284,3.787C64.989,3.787,62.565,5.151,61.467,7.574C60.861,8.673,60.596,9.96,60.596,11.475L60.596,22.61C60.596,27.42,63.474,30.298,68.284,30.298L79.418,30.298C80.933,30.298,82.221,30.033,83.319,29.427C85.743,28.329,87.106,25.905,87.106,22.61L87.106,11.475C87.106,6.666,84.228,3.787,79.418,3.787ZM82.978,18.671C82.6,19.05,82.031,19.315,81.425,19.353L76.085,19.353L76.085,21.284L76.123,24.617C76.085,25.261,75.858,25.791,75.404,26.245C75.025,26.624,74.457,26.889,73.851,26.889C72.601,26.889,71.579,25.867,71.579,24.617L71.579,19.315L66.276,19.353C65.027,19.353,64.004,18.292,64.004,17.043C64.004,15.793,65.027,14.77,66.276,14.77L69.609,14.808L71.579,14.808L71.579,9.506C71.579,8.256,72.601,7.196,73.851,7.196C75.101,7.196,76.123,8.256,76.123,9.506L76.085,12.195L76.085,14.77L81.425,14.77C82.675,14.77,83.698,15.793,83.698,17.043C83.66,17.686,83.395,18.217,82.978,18.671ZM82.978,18.671"/>
  <path fill-rule="nonzero" stroke-miterlimit="4" stroke-opacity="1" stroke="none" stroke-dasharray="none" stroke-linejoin="miter" stroke-width="1px" fill-opacity="1" fill="#000000" stroke-linecap="butt" d="M34.085,39.311C39.063,39.311,43.099,35.276,43.099,30.298C43.099,25.32,39.063,21.284,34.085,21.284C29.107,21.284,25.072,25.32,25.072,30.298C25.072,35.276,29.107,39.311,34.085,39.311ZM34.085,39.311"/>
  <path fill-rule="nonzero" stroke-width="1px" fill-opacity="1" stroke-opacity="1" stroke-miterlimit="4" fill="#000000" stroke-linecap="butt" stroke-linejoin="miter" stroke="none" stroke-dasharray="none" d="M79.418,30.298L77.638,30.298L77.638,47.757L77.146,47.34C74.191,44.803,69.42,44.803,66.466,47.34L50.711,60.861C47.757,63.398,42.985,63.398,40.031,60.861L38.743,59.8C36.054,57.452,31.775,57.225,28.745,59.27L14.581,68.776C13.747,66.655,13.255,64.193,13.255,61.315L13.255,29.578C13.255,18.898,18.898,13.255,29.578,13.255L60.595,13.255L60.595,11.475C60.595,9.96,60.861,8.673,61.466,7.574L29.578,7.574C15.793,7.574,7.574,15.793,7.574,29.578L7.574,61.315C7.574,65.443,8.294,69.041,9.695,72.071C12.952,79.267,19.921,83.319,29.578,83.319L61.315,83.319C75.1,83.319,83.319,75.101,83.319,61.315L83.319,29.427C82.221,30.033,80.933,30.298,79.418,30.298ZM79.418,30.298"/>
</g>
  <g id="Ultralight-L" transform="matrix(1.0,0.0,0.0,1.0,515.5533251953125,1475.3233447265625)">  <path stroke-opacity="1" stroke-dasharray="none" stroke="none" stroke-width="1px" fill-opacity="1" fill="#000000" stroke-linejoin="miter" stroke-linecap="butt" stroke-miterlimit="4" fill-rule="nonzero" d="M79.418,3.787L68.284,3.787C64.989,3.787,62.565,5.151,61.467,7.574C60.861,8.673,60.596,9.96,60.596,11.475L60.596,22.61C60.596,27.42,63.474,30.298,68.284,30.298L79.418,30.298C80.933,30.298,82.221,30.033,83.319,29.427C85.743,28.329,87.106,25.905,87.106,22.61L87.106,11.475C87.106,6.666,84.228,3.787,79.418,3.787ZM82.978,18.671C82.6,19.05,82.031,19.315,81.425,19.353L76.085,19.353L76.085,21.284L76.123,24.617C76.085,25.261,75.858,25.791,75.404,26.245C75.025,26.624,74.457,26.889,73.851,26.889C72.601,26.889,71.579,25.867,71.579,24.617L71.579,19.315L66.276,19.353C65.027,19.353,64.004,18.292,64.004,17.043C64.004,15.793,65.027,14.77,66.276,14.77L69.609,14.808L71.579,14.808L71.579,9.506C71.579,8.256,72.601,7.196,73.851,7.196C75.101,7.196,76.123,8.256,76.123,9.506L76.085,12.195L76.085,14.77L81.425,14.77C82.675,14.77,83.698,15.793,83.698,17.043C83.66,17.686,83.395,18.217,82.978,18.671ZM82.978,18.671"/>
  <path stroke-width="1px" stroke-miterlimit="4" stroke="none" stroke-linejoin="miter" stroke-opacity="1" fill-opacity="1" stroke-dasharray="none" fill-rule="nonzero" fill="#000000" stroke-linecap="butt" d="M34.085,39.311C39.063,39.311,43.099,35.276,43.099,30.298C43.099,25.32,39.063,21.284,34.085,21.284C29.107,21.284,25.072,25.32,25.072,30.298C25.072,35.276,29.107,39.311,34.085,39.311ZM34.085,39.311"/>
  <path stroke="none" stroke-linecap="butt" stroke-linejoin="miter" stroke-opacity="1" fill-rule="nonzero" stroke-dasharray="none" fill="#000000" stroke-miterlimit="4" stroke-width="1px" fill-opacity="1" d="M79.418,30.298L77.638,30.298L77.638,47.757L77.146,47.34C74.191,44.803,69.42,44.803,66.466,47.34L50.711,60.861C47.757,63.398,42.985,63.398,40.031,60.861L38.743,59.8C36.054,57.452,31.775,57.225,28.745,59.27L14.581,68.776C13.747,66.655,13.255,64.193,13.255,61.315L13.255,29.578C13.255,18.898,18.898,13.255,29.578,13.255L60.595,13.255L60.595,11.475C60.595,9.96,60.861,8.673,61.466,7.574L29.578,7.574C15.793,7.574,7.574,15.793,7.574,29.578L7.574,61.315C7.574,65.443,8.294,69.041,9.695,72.071C12.952,79.267,19.921,83.319,29.578,83.319L61.315,83.319C75.1,83.319,83.319,75.101,83.319,61.315L83.319,29.427C82.221,30.033,80.933,30.298,79.418,30.298ZM79.418,30.298"/>
</g>
  <g id="Black-M" transform="matrix(1.0,0.0,0.0,1.0,2899.45001953125,1055.5400390625)">  <path stroke-width="1px" stroke="none" stroke-opacity="1" stroke-linejoin="miter" stroke-linecap="butt" stroke-miterlimit="4" fill-rule="nonzero" stroke-dasharray="none" fill="#000000" fill-opacity="1" d="M61.565,2.936L52.933,2.936C50.379,2.936,48.5,3.993,47.649,5.872C47.179,6.723,46.973,7.721,46.973,8.896L46.973,17.527C46.973,21.255,49.205,23.487,52.933,23.487L61.565,23.487C62.739,23.487,63.737,23.281,64.588,22.811C66.467,21.96,67.524,20.081,67.524,17.527L67.524,8.896C67.524,5.167,65.293,2.936,61.565,2.936ZM64.324,14.474C64.031,14.767,63.59,14.973,63.121,15.002L58.981,15.002L58.981,16.499L59.01,19.083C58.981,19.582,58.805,19.993,58.453,20.345C58.159,20.639,57.719,20.844,57.249,20.844C56.28,20.844,55.487,20.052,55.487,19.083L55.487,14.973L51.377,15.002C50.408,15.002,49.616,14.18,49.616,13.211C49.616,12.242,50.408,11.45,51.377,11.45L53.961,11.479L55.487,11.479L55.487,7.369C55.487,6.4,56.28,5.578,57.249,5.578C58.218,5.578,59.01,6.4,59.01,7.369L58.981,9.453L58.981,11.45L63.121,11.45C64.089,11.45,64.882,12.242,64.882,13.211C64.853,13.71,64.647,14.121,64.324,14.474ZM64.324,14.474"/>
  <path stroke-dasharray="none" stroke-miterlimit="4" stroke-opacity="1" fill="#000000" stroke-linecap="butt" fill-rule="nonzero" stroke-width="1px" stroke-linejoin="miter" fill-opacity="1" stroke="none" d="M26.423,30.474C30.282,30.474,33.41,27.346,33.41,23.487C33.41,19.628,30.282,16.499,26.423,16.499C22.564,16.499,19.435,19.628,19.435,23.487C19.435,27.346,22.564,30.474,26.423,30.474ZM26.423,30.474"/>
  <path fill-rule="nonzero" stroke-dasharray="none" stroke-linejoin="miter" stroke-width="1px" fill-opacity="1" stroke="none" fill="#000000" stroke-opacity="1" stroke-miterlimit="4" stroke-linecap="butt" d="M61.564,23.487L60.184,23.487L60.184,37.021L59.803,36.698C57.513,34.731,53.814,34.731,51.524,36.698L39.311,47.179C37.021,49.146,33.322,49.146,31.032,47.179L30.033,46.357C27.949,44.537,24.632,44.36,22.283,45.946L11.303,53.315C10.657,51.671,10.275,49.762,10.275,47.531L10.275,22.929C10.275,14.65,14.65,10.275,22.929,10.275L46.973,10.275L46.973,8.896C46.973,7.721,47.179,6.723,47.648,5.872L22.929,5.872C12.242,5.872,5.872,12.242,5.872,22.929L5.872,47.531C5.872,50.731,6.429,53.52,7.516,55.869C10.04,61.447,15.442,64.588,22.929,64.588L47.531,64.588C58.217,64.588,64.588,58.218,64.588,47.531L64.588,22.811C63.737,23.281,62.739,23.487,61.564,23.487ZM61.564,23.487"/>
</g>
  <g id="Heavy-M" transform="matrix(1.0,0.0,0.0,1.0,2602.74001953125,1055.5400390625)">  <path fill="#000000" stroke-width="1px" stroke-miterlimit="4" stroke-linecap="butt" fill-rule="nonzero" fill-opacity="1" stroke-opacity="1" stroke-linejoin="miter" stroke-dasharray="none" stroke="none" d="M61.565,2.936L52.933,2.936C50.379,2.936,48.5,3.993,47.649,5.872C47.179,6.723,46.973,7.721,46.973,8.896L46.973,17.527C46.973,21.255,49.205,23.487,52.933,23.487L61.565,23.487C62.739,23.487,63.737,23.281,64.588,22.811C66.467,21.96,67.524,20.081,67.524,17.527L67.524,8.896C67.524,5.167,65.293,2.936,61.565,2.936ZM64.324,14.474C64.031,14.767,63.59,14.973,63.121,15.002L58.981,15.002L58.981,16.499L59.01,19.083C58.981,19.582,58.805,19.993,58.453,20.345C58.159,20.639,57.719,20.844,57.249,20.844C56.28,20.844,55.487,20.052,55.487,19.083L55.487,14.973L51.377,15.002C50.408,15.002,49.616,14.18,49.616,13.211C49.616,12.242,50.408,11.45,51.377,11.45L53.961,11.479L55.487,11.479L55.487,7.369C55.487,6.4,56.28,5.578,57.249,5.578C58.218,5.578,59.01,6.4,59.01,7.369L58.981,9.453L58.981,11.45L63.121,11.45C64.089,11.45,64.882,12.242,64.882,13.211C64.853,13.71,64.647,14.121,64.324,14.474ZM64.324,14.474"/>
  <path stroke-width="1px" stroke-opacity="1" stroke-miterlimit="4" stroke="none" stroke-dasharray="none" fill-opacity="1" stroke-linejoin="miter" fill-rule="nonzero" fill="#000000" stroke-linecap="butt" d="M26.423,30.474C30.282,30.474,33.41,27.346,33.41,23.487C33.41,19.628,30.282,16.499,26.423,16.499C22.564,16.499,19.435,19.628,19.435,23.487C19.435,27.346,22.564,30.474,26.423,30.474ZM26.423,30.474"/>
  <path stroke-miterlimit="4" stroke-opacity="1" stroke-linejoin="miter" fill="#000000" stroke="none" stroke-linecap="butt" fill-rule="nonzero" stroke-dasharray="none" stroke-width="1px" fill-opacity="1" d="M61.564,23.487L60.184,23.487L60.184,37.021L59.803,36.698C57.513,34.731,53.814,34.731,51.524,36.698L39.311,47.179C37.021,49.146,33.322,49.146,31.032,47.179L30.033,46.357C27.949,44.537,24.632,44.36,22.283,45.946L11.303,53.315C10.657,51.671,10.275,49.762,10.275,47.531L10.275,22.929C10.275,14.65,14.65,10.275,22.929,10.275L46.973,10.275L46.973,8.896C46.973,7.721,47.179,6.723,47.648,5.872L22.929,5.872C12.242,5.872,5.872,12.242,5.872,22.929L5.872,47.531C5.872,50.731,6.429,53.52,7.516,55.869C10.04,61.447,15.442,64.588,22.929,64.588L47.531,64.588C58.217,64.588,64.588,58.218,64.588,47.531L64.588,22.811C63.737,23.281,62.739,23.487,61.564,23.487ZM61.564,23.487"/>
</g>
  <g id="Bold-M" transform="matrix(1.0,0.0,0.0,1.0,2306.0300195312498,1055.5400390625)">  <path stroke-opacity="1" stroke-width="1px" stroke-dasharray="none" stroke-linejoin="miter" stroke-miterlimit="4" stroke-linecap="butt" fill="#000000" stroke="none" fill-opacity="1" fill-rule="nonzero" d="M61.565,2.936L52.933,2.936C50.379,2.936,48.5,3.993,47.649,5.872C47.179,6.723,46.973,7.721,46.973,8.896L46.973,17.527C46.973,21.255,49.205,23.487,52.933,23.487L61.565,23.487C62.739,23.487,63.737,23.281,64.588,22.811C66.467,21.96,67.524,20.081,67.524,17.527L67.524,8.896C67.524,5.167,65.293,2.936,61.565,2.936ZM64.324,14.474C64.031,14.767,63.59,14.973,63.121,15.002L58.981,15.002L58.981,16.499L59.01,19.083C58.981,19.582,58.805,19.993,58.453,20.345C58.159,20.639,57.719,20.844,57.249,20.844C56.28,20.844,55.487,20.052,55.487,19.083L55.487,14.973L51.377,15.002C50.408,15.002,49.616,14.18,49.616,13.211C49.616,12.242,50.408,11.45,51.377,11.45L53.961,11.479L55.487,11.479L55.487,7.369C55.487,6.4,56.28,5.578,57.249,5.578C58.218,5.578,59.01,6.4,59.01,7.369L58.981,9.453L58.981,11.45L63.121,11.45C64.089,11.45,64.882,12.242,64.882,13.211C64.853,13.71,64.647,14.121,64.324,14.474ZM64.324,14.474"/>
  <path stroke-miterlimit="4" fill-opacity="1" stroke-linejoin="miter" fill="#000000" stroke="none" stroke-dasharray="none" stroke-opacity="1" fill-rule="nonzero" stroke-linecap="butt" stroke-width="1px" d="M26.423,30.474C30.282,30.474,33.41,27.346,33.41,23.487C33.41,19.628,30.282,16.499,26.423,16.499C22.564,16.499,19.435,19.628,19.435,23.487C19.435,27.346,22.564,30.474,26.423,30.474ZM26.423,30.474"/>
  <path stroke-dasharray="none" stroke="none" stroke-linejoin="miter" stroke-width="1px" stroke-opacity="1" stroke-miterlimit="4" fill-rule="nonzero" fill="#000000" fill-opacity="1" stroke-linecap="butt" d="M61.564,23.487L60.184,23.487L60.184,37.021L59.803,36.698C57.513,34.731,53.814,34.731,51.524,36.698L39.311,47.179C37.021,49.146,33.322,49.146,31.032,47.179L30.033,46.357C27.949,44.537,24.632,44.36,22.283,45.946L11.303,53.315C10.657,51.671,10.275,49.762,10.275,47.531L10.275,22.929C10.275,14.65,14.65,10.275,22.929,10.275L46.973,10.275L46.973,8.896C46.973,7.721,47.179,6.723,47.648,5.872L22.929,5.872C12.242,5.872,5.872,12.242,5.872,22.929L5.872,47.531C5.872,50.731,6.429,53.52,7.516,55.869C10.04,61.447,15.442,64.588,22.929,64.588L47.531,64.588C58.217,64.588,64.588,58.218,64.588,47.531L64.588,22.811C63.737,23.281,62.739,23.487,61.564,23.487ZM61.564,23.487"/>
</g>
  <g id="Semibold-M" transform="matrix(1.0,0.0,0.0,1.0,2009.32001953125,1055.5400390625)">  <path fill-rule="nonzero" fill-opacity="1" stroke-dasharray="none" stroke-miterlimit="4" fill="#000000" stroke-opacity="1" stroke-linecap="butt" stroke="none" stroke-width="1px" stroke-linejoin="miter" d="M61.565,2.936L52.933,2.936C50.379,2.936,48.5,3.993,47.649,5.872C47.179,6.723,46.973,7.721,46.973,8.896L46.973,17.527C46.973,21.255,49.205,23.487,52.933,23.487L61.565,23.487C62.739,23.487,63.737,23.281,64.588,22.811C66.467,21.96,67.524,20.081,67.524,17.527L67.524,8.896C67.524,5.167,65.293,2.936,61.565,2.936ZM64.324,14.474C64.031,14.767,63.59,14.973,63.121,15.002L58.981,15.002L58.981,16.499L59.01,19.083C58.981,19.582,58.805,19.993,58.453,20.345C58.159,20.639,57.719,20.844,57.249,20.844C56.28,20.844,55.487,20.052,55.487,19.083L55.487,14.973L51.377,15.002C50.408,15.002,49.616,14.18,49.616,13.211C49.616,12.242,50.408,11.45,51.377,11.45L53.961,11.479L55.487,11.479L55.487,7.369C55.487,6.4,56.28,5.578,57.249,5.578C58.218,5.578,59.01,6.4,59.01,7.369L58.981,9.453L58.981,11.45L63.121,11.45C64.089,11.45,64.882,12.242,64.882,13.211C64.853,13.71,64.647,14.121,64.324,14.474ZM64.324,14.474"/>
  <path fill="#000000" stroke-dasharray="none" fill-opacity="1" fill-rule="nonzero" stroke-opacity="1" stroke-linecap="butt" stroke-linejoin="miter" stroke="none" stroke-width="1px" stroke-miterlimit="4" d="M26.423,30.474C30.282,30.474,33.41,27.346,33.41,23.487C33.41,19.628,30.282,16.499,26.423,16.499C22.564,16.499,19.435,19.628,19.435,23.487C19.435,27.346,22.564,30.474,26.423,30.474ZM26.423,30.474"/>
  <path stroke-dasharray="none" stroke-width="1px" stroke-opacity="1" fill-rule="nonzero" stroke="none" stroke-miterlimit="4" stroke-linejoin="miter" stroke-linecap="butt" fill="#000000" fill-opacity="1" d="M61.564,23.487L60.184,23.487L60.184,37.021L59.803,36.698C57.513,34.731,53.814,34.731,51.524,36.698L39.311,47.179C37.021,49.146,33.322,49.146,31.032,47.179L30.033,46.357C27.949,44.537,24.632,44.36,22.283,45.946L11.303,53.315C10.657,51.671,10.275,49.762,10.275,47.531L10.275,22.929C10.275,14.65,14.65,10.275,22.929,10.275L46.973,10.275L46.973,8.896C46.973,7.721,47.179,6.723,47.648,5.872L22.929,5.872C12.242,5.872,5.872,12.242,5.872,22.929L5.872,47.531C5.872,50.731,6.429,53.52,7.516,55.869C10.04,61.447,15.442,64.588,22.929,64.588L47.531,64.588C58.217,64.588,64.588,58.218,64.588,47.531L64.588,22.811C63.737,23.281,62.739,23.487,61.564,23.487ZM61.564,23.487"/>
</g>
  <g id="Medium-M" transform="matrix(1.0,0.0,0.0,1.0,1712.61001953125,1055.5400390625)">  <path stroke-miterlimit="4" stroke-opacity="1" stroke-dasharray="none" fill-opacity="1" stroke-linecap="butt" stroke="none" fill="#000000" fill-rule="nonzero" stroke-width="1px" stroke-linejoin="miter" d="M61.565,2.936L52.933,2.936C50.379,2.936,48.5,3.993,47.649,5.872C47.179,6.723,46.973,7.721,46.973,8.896L46.973,17.527C46.973,21.255,49.205,23.487,52.933,23.487L61.565,23.487C62.739,23.487,63.737,23.281,64.588,22.811C66.467,21.96,67.524,20.081,67.524,17.527L67.524,8.896C67.524,5.167,65.293,2.936,61.565,2.936ZM64.324,14.474C64.031,14.767,63.59,14.973,63.121,15.002L58.981,15.002L58.981,16.499L59.01,19.083C58.981,19.582,58.805,19.993,58.453,20.345C58.159,20.639,57.719,20.844,57.249,20.844C56.28,20.844,55.487,20.052,55.487,19.083L55.487,14.973L51.377,15.002C50.408,15.002,49.616,14.18,49.616,13.211C49.616,12.242,50.408,11.45,51.377,11.45L53.961,11.479L55.487,11.479L55.487,7.369C55.487,6.4,56.28,5.578,57.249,5.578C58.218,5.578,59.01,6.4,59.01,7.369L58.981,9.453L58.981,11.45L63.121,11.45C64.089,11.45,64.882,12.242,64.882,13.211C64.853,13.71,64.647,14.121,64.324,14.474ZM64.324,14.474"/>
  <path stroke-linecap="butt" fill-rule="nonzero" stroke="none" fill-opacity="1" stroke-width="1px" stroke-opacity="1" stroke-miterlimit="4" stroke-dasharray="none" stroke-linejoin="miter" fill="#000000" d="M26.423,30.474C30.282,30.474,33.41,27.346,33.41,23.487C33.41,19.628,30.282,16.499,26.423,16.499C22.564,16.499,19.435,19.628,19.435,23.487C19.435,27.346,22.564,30.474,26.423,30.474ZM26.423,30.474"/>
  <path stroke="none" stroke-width="1px" stroke-miterlimit="4" fill="#000000" fill-rule="nonzero" stroke-opacity="1" stroke-linecap="butt" stroke-linejoin="miter" stroke-dasharray="none" fill-opacity="1" d="M61.564,23.487L60.184,23.487L60.184,37.021L59.803,36.698C57.513,34.731,53.814,34.731,51.524,36.698L39.311,47.179C37.021,49.146,33.322,49.146,31.032,47.179L30.033,46.357C27.949,44.537,24.632,44.36,22.283,45.946L11.303,53.315C10.657,51.671,10.275,49.762,10.275,47.531L10.275,22.929C10.275,14.65,14.65,10.275,22.929,10.275L46.973,10.275L46.973,8.896C46.973,7.721,47.179,6.723,47.648,5.872L22.929,5.872C12.242,5.872,5.872,12.242,5.872,22.929L5.872,47.531C5.872,50.731,6.429,53.52,7.516,55.869C10.04,61.447,15.442,64.588,22.929,64.588L47.531,64.588C58.217,64.588,64.588,58.218,64.588,47.531L64.588,22.811C63.737,23.281,62.739,23.487,61.564,23.487ZM61.564,23.487"/>
</g>
  <g id="Regular-M" transform="matrix(1.0,0.0,0.0,1.0,1415.9000195312499,1055.5400390625)">  <path stroke-dasharray="none" fill-opacity="1" stroke-width="1px" stroke-linecap="butt" stroke="none" fill-rule="nonzero" stroke-linejoin="miter" fill="#000000" stroke-miterlimit="4" stroke-opacity="1" d="M61.565,2.936L52.933,2.936C50.379,2.936,48.5,3.993,47.649,5.872C47.179,6.723,46.973,7.721,46.973,8.896L46.973,17.527C46.973,21.255,49.205,23.487,52.933,23.487L61.565,23.487C62.739,23.487,63.737,23.281,64.588,22.811C66.467,21.96,67.524,20.081,67.524,17.527L67.524,8.896C67.524,5.167,65.293,2.936,61.565,2.936ZM64.324,14.474C64.031,14.767,63.59,14.973,63.121,15.002L58.981,15.002L58.981,16.499L59.01,19.083C58.981,19.582,58.805,19.993,58.453,20.345C58.159,20.639,57.719,20.844,57.249,20.844C56.28,20.844,55.487,20.052,55.487,19.083L55.487,14.973L51.377,15.002C50.408,15.002,49.616,14.18,49.616,13.211C49.616,12.242,50.408,11.45,51.377,11.45L53.961,11.479L55.487,11.479L55.487,7.369C55.487,6.4,56.28,5.578,57.249,5.578C58.218,5.578,59.01,6.4,59.01,7.369L58.981,9.453L58.981,11.45L63.121,11.45C64.089,11.45,64.882,12.242,64.882,13.211C64.853,13.71,64.647,14.121,64.324,14.474ZM64.324,14.474"/>
  <path fill-opacity="1" stroke-linejoin="miter" stroke="none" stroke-miterlimit="4" stroke-linecap="butt" fill-rule="nonzero" stroke-width="1px" stroke-opacity="1" stroke-dasharray="none" fill="#000000" d="M26.423,30.474C30.282,30.474,33.41,27.346,33.41,23.487C33.41,19.628,30.282,16.499,26.423,16.499C22.564,16.499,19.435,19.628,19.435,23.487C19.435,27.346,22.564,30.474,26.423,30.474ZM26.423,30.474"/>
  <path stroke-dasharray="none" fill-opacity="1" stroke-opacity="1" fill="#000000" stroke-linejoin="miter" stroke-width="1px" stroke-miterlimit="4" stroke="none" stroke-linecap="butt" fill-rule="nonzero" d="M61.564,23.487L60.184,23.487L60.184,37.021L59.803,36.698C57.513,34.731,53.814,34.731,51.524,36.698L39.311,47.179C37.021,49.146,33.322,49.146,31.032,47.179L30.033,46.357C27.949,44.537,24.632,44.36,22.283,45.946L11.303,53.315C10.657,51.671,10.275,49.762,10.275,47.531L10.275,22.929C10.275,14.65,14.65,10.275,22.929,10.275L46.973,10.275L46.973,8.896C46.973,7.721,47.179,6.723,47.648,5.872L22.929,5.872C12.242,5.872,5.872,12.242,5.872,22.929L5.872,47.531C5.872,50.731,6.429,53.52,7.516,55.869C10.04,61.447,15.442,64.588,22.929,64.588L47.531,64.588C58.217,64.588,64.588,58.218,64.588,47.531L64.588,22.811C63.737,23.281,62.739,23.487,61.564,23.487ZM61.564,23.487"/>
</g>
  <g id="Light-M" transform="matrix(1.0,0.0,0.0,1.0,1119.19001953125,1055.5400390625)">  <path fill-rule="nonzero" stroke-miterlimit="4" stroke-linejoin="miter" fill="#000000" stroke-width="1px" stroke-dasharray="none" stroke="none" fill-opacity="1" stroke-opacity="1" stroke-linecap="butt" d="M61.565,2.936L52.933,2.936C50.379,2.936,48.5,3.993,47.649,5.872C47.179,6.723,46.973,7.721,46.973,8.896L46.973,17.527C46.973,21.255,49.205,23.487,52.933,23.487L61.565,23.487C62.739,23.487,63.737,23.281,64.588,22.811C66.467,21.96,67.524,20.081,67.524,17.527L67.524,8.896C67.524,5.167,65.293,2.936,61.565,2.936ZM64.324,14.474C64.031,14.767,63.59,14.973,63.121,15.002L58.981,15.002L58.981,16.499L59.01,19.083C58.981,19.582,58.805,19.993,58.453,20.345C58.159,20.639,57.719,20.844,57.249,20.844C56.28,20.844,55.487,20.052,55.487,19.083L55.487,14.973L51.377,15.002C50.408,15.002,49.616,14.18,49.616,13.211C49.616,12.242,50.408,11.45,51.377,11.45L53.961,11.479L55.487,11.479L55.487,7.369C55.487,6.4,56.28,5.578,57.249,5.578C58.218,5.578,59.01,6.4,59.01,7.369L58.981,9.453L58.981,11.45L63.121,11.45C64.089,11.45,64.882,12.242,64.882,13.211C64.853,13.71,64.647,14.121,64.324,14.474ZM64.324,14.474"/>
  <path stroke-width="1px" fill-rule="nonzero" stroke-opacity="1" stroke-miterlimit="4" stroke-linejoin="miter" stroke-dasharray="none" fill-opacity="1" stroke="none" fill="#000000" stroke-linecap="butt" d="M26.423,30.474C30.282,30.474,33.41,27.346,33.41,23.487C33.41,19.628,30.282,16.499,26.423,16.499C22.564,16.499,19.435,19.628,19.435,23.487C19.435,27.346,22.564,30.474,26.423,30.474ZM26.423,30.474"/>
  <path stroke-linecap="butt" stroke-dasharray="none" stroke="none" stroke-linejoin="miter" stroke-opacity="1" fill-opacity="1" fill-rule="nonzero" stroke-width="1px" stroke-miterlimit="4" fill="#000000" d="M61.564,23.487L60.184,23.487L60.184,37.021L59.803,36.698C57.513,34.731,53.814,34.731,51.524,36.698L39.311,47.179C37.021,49.146,33.322,49.146,31.032,47.179L30.033,46.357C27.949,44.537,24.632,44.36,22.283,45.946L11.303,53.315C10.657,51.671,10.275,49.762,10.275,47.531L10.275,22.929C10.275,14.65,14.65,10.275,22.929,10.275L46.973,10.275L46.973,8.896C46.973,7.721,47.179,6.723,47.648,5.872L22.929,5.872C12.242,5.872,5.872,12.242,5.872,22.929L5.872,47.531C5.872,50.731,6.429,53.52,7.516,55.869C10.04,61.447,15.442,64.588,22.929,64.588L47.531,64.588C58.217,64.588,64.588,58.218,64.588,47.531L64.588,22.811C63.737,23.281,62.739,23.487,61.564,23.487ZM61.564,23.487"/>
</g>
  <g id="Thin-M" transform="matrix(1.0,0.0,0.0,1.0,822.48001953125,1055.5400390625)">  <path stroke-miterlimit="4" stroke="none" stroke-opacity="1" stroke-dasharray="none" fill-rule="nonzero" fill-opacity="1" stroke-linecap="butt" stroke-width="1px" stroke-linejoin="miter" fill="#000000" d="M61.565,2.936L52.933,2.936C50.379,2.936,48.5,3.993,47.649,5.872C47.179,6.723,46.973,7.721,46.973,8.896L46.973,17.527C46.973,21.255,49.205,23.487,52.933,23.487L61.565,23.487C62.739,23.487,63.737,23.281,64.588,22.811C66.467,21.96,67.524,20.081,67.524,17.527L67.524,8.896C67.524,5.167,65.293,2.936,61.565,2.936ZM64.324,14.474C64.031,14.767,63.59,14.973,63.121,15.002L58.981,15.002L58.981,16.499L59.01,19.083C58.981,19.582,58.805,19.993,58.453,20.345C58.159,20.639,57.719,20.844,57.249,20.844C56.28,20.844,55.487,20.052,55.487,19.083L55.487,14.973L51.377,15.002C50.408,15.002,49.616,14.18,49.616,13.211C49.616,12.242,50.408,11.45,51.377,11.45L53.961,11.479L55.487,11.479L55.487,7.369C55.487,6.4,56.28,5.578,57.249,5.578C58.218,5.578,59.01,6.4,59.01,7.369L58.981,9.453L58.981,11.45L63.121,11.45C64.089,11.45,64.882,12.242,64.882,13.211C64.853,13.71,64.647,14.121,64.324,14.474ZM64.324,14.474"/>
  <path fill-rule="nonzero" stroke-miterlimit="4" stroke-opacity="1" stroke="none" stroke-dasharray="none" stroke-linejoin="miter" stroke-width="1px" fill-opacity="1" fill="#000000" stroke-linecap="butt" d="M26.423,30.474C30.282,30.474,33.41,27.346,33.41,23.487C33.41,19.628,30.282,16.499,26.423,16.499C22.564,16.499,19.435,19.628,19.435,23.487C19.435,27.346,22.564,30.474,26.423,30.474ZM26.423,30.474"/>
  <path fill-rule="nonzero" stroke-width="1px" fill-opacity="1" stroke-opacity="1" stroke-miterlimit="4" fill="#000000" stroke-linecap="butt" stroke-linejoin="miter" stroke="none" stroke-dasharray="none" d="M61.564,23.487L60.184,23.487L60.184,37.021L59.803,36.698C57.513,34.731,53.814,34.731,51.524,36.698L39.311,47.179C37.021,49.146,33.322,49.146,31.032,47.179L30.033,46.357C27.949,44.537,24.632,44.36,22.283,45.946L11.303,53.315C10.657,51.671,10.275,49.762,10.275,47.531L10.275,22.929C10.275,14.65,14.65,10.275,22.929,10.275L46.973,10.275L46.973,8.896C46.973,7.721,47.179,6.723,47.648,5.872L22.929,5.872C12.242,5.872,5.872,12.242,5.872,22.929L5.872,47.531C5.872,50.731,6.429,53.52,7.516,55.869C10.04,61.447,15.442,64.588,22.929,64.588L47.531,64.588C58.217,64.588,64.588,58.218,64.588,47.531L64.588,22.811C63.737,23.281,62.739,23.487,61.564,23.487ZM61.564,23.487"/>
</g>
  <g id="Ultralight-M" transform="matrix(1.0,0.0,0.0,1.0,525.77001953125,1055.5400390625)">  <path stroke-opacity="1" stroke-dasharray="none" stroke="none" stroke-width="1px" fill-opacity="1" fill="#000000" stroke-linejoin="miter" stroke-linecap="butt" stroke-miterlimit="4" fill-rule="nonzero" d="M61.565,2.936L52.933,2.936C50.379,2.936,48.5,3.993,47.649,5.872C47.179,6.723,46.973,7.721,46.973,8.896L46.973,17.527C46.973,21.255,49.205,23.487,52.933,23.487L61.565,23.487C62.739,23.487,63.737,23.281,64.588,22.811C66.467,21.96,67.524,20.081,67.524,17.527L67.524,8.896C67.524,5.167,65.293,2.936,61.565,2.936ZM64.324,14.474C64.031,14.767,63.59,14.973,63.121,15.002L58.981,15.002L58.981,16.499L59.01,19.083C58.981,19.582,58.805,19.993,58.453,20.345C58.159,20.639,57.719,20.844,57.249,20.844C56.28,20.844,55.487,20.052,55.487,19.083L55.487,14.973L51.377,15.002C50.408,15.002,49.616,14.18,49.616,13.211C49.616,12.242,50.408,11.45,51.377,11.45L53.961,11.479L55.487,11.479L55.487,7.369C55.487,6.4,56.28,5.578,57.249,5.578C58.218,5.578,59.01,6.4,59.01,7.369L58.981,9.453L58.981,11.45L63.121,11.45C64.089,11.45,64.882,12.242,64.882,13.211C64.853,13.71,64.647,14.121,64.324,14.474ZM64.324,14.474"/>
  <path stroke-width="1px" stroke-miterlimit="4" stroke="none" stroke-linejoin="miter" stroke-opacity="1" fill-opacity="1" stroke-dasharray="none" fill-rule="nonzero" fill="#000000" stroke-linecap="butt" d="M26.423,30.474C30.282,30.474,33.41,27.346,33.41,23.487C33.41,19.628,30.282,16.499,26.423,16.499C22.564,16.499,19.435,19.628,19.435,23.487C19.435,27.346,22.564,30.474,26.423,30.474ZM26.423,30.474"/>
  <path stroke="none" stroke-linecap="butt" stroke-linejoin="miter" stroke-opacity="1" fill-rule="nonzero" stroke-dasharray="none" fill="#000000" stroke-miterlimit="4" stroke-width="1px" fill-opacity="1" d="M61.564,23.487L60.184,23.487L60.184,37.021L59.803,36.698C57.513,34.731,53.814,34.731,51.524,36.698L39.311,47.179C37.021,49.146,33.322,49.146,31.032,47.179L30.033,46.357C27.949,44.537,24.632,44.36,22.283,45.946L11.303,53.315C10.657,51.671,10.275,49.762,10.275,47.531L10.275,22.929C10.275,14.65,14.65,10.275,22.929,10.275L46.973,10.275L46.973,8.896C46.973,7.721,47.179,6.723,47.648,5.872L22.929,5.872C12.242,5.872,5.872,12.242,5.872,22.929L5.872,47.531C5.872,50.731,6.429,53.52,7.516,55.869C10.04,61.447,15.442,64.588,22.929,64.588L47.531,64.588C58.217,64.588,64.588,58.218,64.588,47.531L64.588,22.811C63.737,23.281,62.739,23.487,61.564,23.487ZM61.564,23.487"/>
</g>
  <g id="Black-S" transform="matrix(1.0,0.0,0.0,1.0,2907.0949252929686,633.1849448242187)">  <path stroke-width="1px" stroke="none" stroke-opacity="1" stroke-linejoin="miter" stroke-linecap="butt" stroke-miterlimit="4" fill-rule="nonzero" stroke-dasharray="none" fill="#000000" fill-opacity="1" d="M48.205,2.299L41.447,2.299C39.447,2.299,37.976,3.126,37.309,4.598C36.941,5.264,36.78,6.046,36.78,6.965L36.78,13.724C36.78,16.643,38.527,18.39,41.447,18.39L48.205,18.39C49.124,18.39,49.906,18.229,50.573,17.861C52.044,17.195,52.871,15.723,52.871,13.724L52.871,6.965C52.871,4.046,51.124,2.299,48.205,2.299ZM50.366,11.333C50.136,11.563,49.791,11.724,49.423,11.747L46.182,11.747L46.182,12.919L46.205,14.942C46.182,15.333,46.044,15.655,45.768,15.93C45.538,16.16,45.194,16.321,44.826,16.321C44.067,16.321,43.447,15.7,43.447,14.942L43.447,11.724L40.228,11.747C39.47,11.747,38.849,11.103,38.849,10.344C38.849,9.586,39.47,8.965,40.228,8.965L42.251,8.988L43.447,8.988L43.447,5.77C43.447,5.011,44.067,4.368,44.826,4.368C45.584,4.368,46.205,5.011,46.205,5.77L46.182,7.402L46.182,8.965L49.423,8.965C50.182,8.965,50.803,9.586,50.803,10.344C50.78,10.735,50.619,11.057,50.366,11.333ZM50.366,11.333"/>
  <path stroke-dasharray="none" stroke-miterlimit="4" stroke-opacity="1" fill="#000000" stroke-linecap="butt" fill-rule="nonzero" stroke-width="1px" stroke-linejoin="miter" fill-opacity="1" stroke="none" d="M20.689,23.861C23.71,23.861,26.16,21.412,26.16,18.39C26.16,15.368,23.71,12.919,20.689,12.919C17.667,12.919,15.218,15.368,15.218,18.39C15.218,21.412,17.667,23.861,20.689,23.861ZM20.689,23.861"/>
  <path fill-rule="nonzero" stroke-dasharray="none" stroke-linejoin="miter" stroke-width="1px" fill-opacity="1" stroke="none" fill="#000000" stroke-opacity="1" stroke-miterlimit="4" stroke-linecap="butt" d="M48.205,18.39L47.124,18.39L47.124,28.987L46.826,28.734C45.032,27.194,42.136,27.194,40.343,28.734L30.78,36.941C28.987,38.481,26.091,38.481,24.298,36.941L23.516,36.297C21.884,34.872,19.287,34.734,17.447,35.975L8.85,41.745C8.344,40.458,8.046,38.964,8.046,37.217L8.046,17.953C8.046,11.471,11.471,8.046,17.953,8.046L36.78,8.046L36.78,6.965C36.78,6.046,36.941,5.264,37.309,4.598L17.953,4.598C9.586,4.598,4.597,9.586,4.597,17.953L4.597,37.217C4.597,39.723,5.034,41.906,5.885,43.745C7.862,48.113,12.091,50.573,17.953,50.573L37.217,50.573C45.584,50.573,50.573,45.584,50.573,37.217L50.573,17.861C49.906,18.229,49.124,18.39,48.205,18.39ZM48.205,18.39"/>
</g>
  <g id="Heavy-S" transform="matrix(1.0,0.0,0.0,1.0,2610.3849252929685,633.1849448242187)">  <path fill="#000000" stroke-width="1px" stroke-miterlimit="4" stroke-linecap="butt" fill-rule="nonzero" fill-opacity="1" stroke-opacity="1" stroke-linejoin="miter" stroke-dasharray="none" stroke="none" d="M48.205,2.299L41.447,2.299C39.447,2.299,37.976,3.126,37.309,4.598C36.941,5.264,36.78,6.046,36.78,6.965L36.78,13.724C36.78,16.643,38.527,18.39,41.447,18.39L48.205,18.39C49.124,18.39,49.906,18.229,50.573,17.861C52.044,17.195,52.871,15.723,52.871,13.724L52.871,6.965C52.871,4.046,51.124,2.299,48.205,2.299ZM50.366,11.333C50.136,11.563,49.791,11.724,49.423,11.747L46.182,11.747L46.182,12.919L46.205,14.942C46.182,15.333,46.044,15.655,45.768,15.93C45.538,16.16,45.194,16.321,44.826,16.321C44.067,16.321,43.447,15.7,43.447,14.942L43.447,11.724L40.228,11.747C39.47,11.747,38.849,11.103,38.849,10.344C38.849,9.586,39.47,8.965,40.228,8.965L42.251,8.988L43.447,8.988L43.447,5.77C43.447,5.011,44.067,4.368,44.826,4.368C45.584,4.368,46.205,5.011,46.205,5.77L46.182,7.402L46.182,8.965L49.423,8.965C50.182,8.965,50.803,9.586,50.803,10.344C50.78,10.735,50.619,11.057,50.366,11.333ZM50.366,11.333"/>
  <path stroke-width="1px" stroke-opacity="1" stroke-miterlimit="4" stroke="none" stroke-dasharray="none" fill-opacity="1" stroke-linejoin="miter" fill-rule="nonzero" fill="#000000" stroke-linecap="butt" d="M20.689,23.861C23.71,23.861,26.16,21.412,26.16,18.39C26.16,15.368,23.71,12.919,20.689,12.919C17.667,12.919,15.218,15.368,15.218,18.39C15.218,21.412,17.667,23.861,20.689,23.861ZM20.689,23.861"/>
  <path stroke-miterlimit="4" stroke-opacity="1" stroke-linejoin="miter" fill="#000000" stroke="none" stroke-linecap="butt" fill-rule="nonzero" stroke-dasharray="none" stroke-width="1px" fill-opacity="1" d="M48.205,18.39L47.124,18.39L47.124,28.987L46.826,28.734C45.032,27.194,42.136,27.194,40.343,28.734L30.78,36.941C28.987,38.481,26.091,38.481,24.298,36.941L23.516,36.297C21.884,34.872,19.287,34.734,17.447,35.975L8.85,41.745C8.344,40.458,8.046,38.964,8.046,37.217L8.046,17.953C8.046,11.471,11.471,8.046,17.953,8.046L36.78,8.046L36.78,6.965C36.78,6.046,36.941,5.264,37.309,4.598L17.953,4.598C9.586,4.598,4.597,9.586,4.597,17.953L4.597,37.217C4.597,39.723,5.034,41.906,5.885,43.745C7.862,48.113,12.091,50.573,17.953,50.573L37.217,50.573C45.584,50.573,50.573,45.584,50.573,37.217L50.573,17.861C49.906,18.229,49.124,18.39,48.205,18.39ZM48.205,18.39"/>
</g>
  <g id="Bold-S" transform="matrix(1.0,0.0,0.0,1.0,2313.6749252929685,633.1849448242187)">  <path stroke-opacity="1" stroke-width="1px" stroke-dasharray="none" stroke-linejoin="miter" stroke-miterlimit="4" stroke-linecap="butt" fill="#000000" stroke="none" fill-opacity="1" fill-rule="nonzero" d="M48.205,2.299L41.447,2.299C39.447,2.299,37.976,3.126,37.309,4.598C36.941,5.264,36.78,6.046,36.78,6.965L36.78,13.724C36.78,16.643,38.527,18.39,41.447,18.39L48.205,18.39C49.124,18.39,49.906,18.229,50.573,17.861C52.044,17.195,52.871,15.723,52.871,13.724L52.871,6.965C52.871,4.046,51.124,2.299,48.205,2.299ZM50.366,11.333C50.136,11.563,49.791,11.724,49.423,11.747L46.182,11.747L46.182,12.919L46.205,14.942C46.182,15.333,46.044,15.655,45.768,15.93C45.538,16.16,45.194,16.321,44.826,16.321C44.067,16.321,43.447,15.7,43.447,14.942L43.447,11.724L40.228,11.747C39.47,11.747,38.849,11.103,38.849,10.344C38.849,9.586,39.47,8.965,40.228,8.965L42.251,8.988L43.447,8.988L43.447,5.77C43.447,5.011,44.067,4.368,44.826,4.368C45.584,4.368,46.205,5.011,46.205,5.77L46.182,7.402L46.182,8.965L49.423,8.965C50.182,8.965,50.803,9.586,50.803,10.344C50.78,10.735,50.619,11.057,50.366,11.333ZM50.366,11.333"/>
  <path stroke-miterlimit="4" fill-opacity="1" stroke-linejoin="miter" fill="#000000" stroke="none" stroke-dasharray="none" stroke-opacity="1" fill-rule="nonzero" stroke-linecap="butt" stroke-width="1px" d="M20.689,23.861C23.71,23.861,26.16,21.412,26.16,18.39C26.16,15.368,23.71,12.919,20.689,12.919C17.667,12.919,15.218,15.368,15.218,18.39C15.218,21.412,17.667,23.861,20.689,23.861ZM20.689,23.861"/>
  <path stroke-dasharray="none" stroke="none" stroke-linejoin="miter" stroke-width="1px" stroke-opacity="1" stroke-miterlimit="4" fill-rule="nonzero" fill="#000000" fill-opacity="1" stroke-linecap="butt" d="M48.205,18.39L47.124,18.39L47.124,28.987L46.826,28.734C45.032,27.194,42.136,27.194,40.343,28.734L30.78,36.941C28.987,38.481,26.091,38.481,24.298,36.941L23.516,36.297C21.884,34.872,19.287,34.734,17.447,35.975L8.85,41.745C8.344,40.458,8.046,38.964,8.046,37.217L8.046,17.953C8.046,11.471,11.471,8.046,17.953,8.046L36.78,8.046L36.78,6.965C36.78,6.046,36.941,5.264,37.309,4.598L17.953,4.598C9.586,4.598,4.597,9.586,4.597,17.953L4.597,37.217C4.597,39.723,5.034,41.906,5.885,43.745C7.862,48.113,12.091,50.573,17.953,50.573L37.217,50.573C45.584,50.573,50.573,45.584,50.573,37.217L50.573,17.861C49.906,18.229,49.124,18.39,48.205,18.39ZM48.205,18.39"/>
</g>
  <g id="Semibold-S" transform="matrix(1.0,0.0,0.0,1.0,2016.9649252929687,633.1849448242187)">  <path fill-rule="nonzero" fill-opacity="1" stroke-dasharray="none" stroke-miterlimit="4" fill="#000000" stroke-opacity="1" stroke-linecap="butt" stroke="none" stroke-width="1px" stroke-linejoin="miter" d="M48.205,2.299L41.447,2.299C39.447,2.299,37.976,3.126,37.309,4.598C36.941,5.264,36.78,6.046,36.78,6.965L36.78,13.724C36.78,16.643,38.527,18.39,41.447,18.39L48.205,18.39C49.124,18.39,49.906,18.229,50.573,17.861C52.044,17.195,52.871,15.723,52.871,13.724L52.871,6.965C52.871,4.046,51.124,2.299,48.205,2.299ZM50.366,11.333C50.136,11.563,49.791,11.724,49.423,11.747L46.182,11.747L46.182,12.919L46.205,14.942C46.182,15.333,46.044,15.655,45.768,15.93C45.538,16.16,45.194,16.321,44.826,16.321C44.067,16.321,43.447,15.7,43.447,14.942L43.447,11.724L40.228,11.747C39.47,11.747,38.849,11.103,38.849,10.344C38.849,9.586,39.47,8.965,40.228,8.965L42.251,8.988L43.447,8.988L43.447,5.77C43.447,5.011,44.067,4.368,44.826,4.368C45.584,4.368,46.205,5.011,46.205,5.77L46.182,7.402L46.182,8.965L49.423,8.965C50.182,8.965,50.803,9.586,50.803,10.344C50.78,10.735,50.619,11.057,50.366,11.333ZM50.366,11.333"/>
  <path fill="#000000" stroke-dasharray="none" fill-opacity="1" fill-rule="nonzero" stroke-opacity="1" stroke-linecap="butt" stroke-linejoin="miter" stroke="none" stroke-width="1px" stroke-miterlimit="4" d="M20.689,23.861C23.71,23.861,26.16,21.412,26.16,18.39C26.16,15.368,23.71,12.919,20.689,12.919C17.667,12.919,15.218,15.368,15.218,18.39C15.218,21.412,17.667,23.861,20.689,23.861ZM20.689,23.861"/>
  <path stroke-dasharray="none" stroke-width="1px" stroke-opacity="1" fill-rule="nonzero" stroke="none" stroke-miterlimit="4" stroke-linejoin="miter" stroke-linecap="butt" fill="#000000" fill-opacity="1" d="M48.205,18.39L47.124,18.39L47.124,28.987L46.826,28.734C45.032,27.194,42.136,27.194,40.343,28.734L30.78,36.941C28.987,38.481,26.091,38.481,24.298,36.941L23.516,36.297C21.884,34.872,19.287,34.734,17.447,35.975L8.85,41.745C8.344,40.458,8.046,38.964,8.046,37.217L8.046,17.953C8.046,11.471,11.471,8.046,17.953,8.046L36.78,8.046L36.78,6.965C36.78,6.046,36.941,5.264,37.309,4.598L17.953,4.598C9.586,4.598,4.597,9.586,4.597,17.953L4.597,37.217C4.597,39.723,5.034,41.906,5.885,43.745C7.862,48.113,12.091,50.573,17.953,50.573L37.217,50.573C45.584,50.573,50.573,45.584,50.573,37.217L50.573,17.861C49.906,18.229,49.124,18.39,48.205,18.39ZM48.205,18.39"/>
</g>
  <g id="Medium-S" transform="matrix(1.0,0.0,0.0,1.0,1720.2549252929687,633.1849448242187)">  <path stroke-miterlimit="4" stroke-opacity="1" stroke-dasharray="none" fill-opacity="1" stroke-linecap="butt" stroke="none" fill="#000000" fill-rule="nonzero" stroke-width="1px" stroke-linejoin="miter" d="M48.205,2.299L41.447,2.299C39.447,2.299,37.976,3.126,37.309,4.598C36.941,5.264,36.78,6.046,36.78,6.965L36.78,13.724C36.78,16.643,38.527,18.39,41.447,18.39L48.205,18.39C49.124,18.39,49.906,18.229,50.573,17.861C52.044,17.195,52.871,15.723,52.871,13.724L52.871,6.965C52.871,4.046,51.124,2.299,48.205,2.299ZM50.366,11.333C50.136,11.563,49.791,11.724,49.423,11.747L46.182,11.747L46.182,12.919L46.205,14.942C46.182,15.333,46.044,15.655,45.768,15.93C45.538,16.16,45.194,16.321,44.826,16.321C44.067,16.321,43.447,15.7,43.447,14.942L43.447,11.724L40.228,11.747C39.47,11.747,38.849,11.103,38.849,10.344C38.849,9.586,39.47,8.965,40.228,8.965L42.251,8.988L43.447,8.988L43.447,5.77C43.447,5.011,44.067,4.368,44.826,4.368C45.584,4.368,46.205,5.011,46.205,5.77L46.182,7.402L46.182,8.965L49.423,8.965C50.182,8.965,50.803,9.586,50.803,10.344C50.78,10.735,50.619,11.057,50.366,11.333ZM50.366,11.333"/>
  <path stroke-linecap="butt" fill-rule="nonzero" stroke="none" fill-opacity="1" stroke-width="1px" stroke-opacity="1" stroke-miterlimit="4" stroke-dasharray="none" stroke-linejoin="miter" fill="#000000" d="M20.689,23.861C23.71,23.861,26.16,21.412,26.16,18.39C26.16,15.368,23.71,12.919,20.689,12.919C17.667,12.919,15.218,15.368,15.218,18.39C15.218,21.412,17.667,23.861,20.689,23.861ZM20.689,23.861"/>
  <path stroke="none" stroke-width="1px" stroke-miterlimit="4" fill="#000000" fill-rule="nonzero" stroke-opacity="1" stroke-linecap="butt" stroke-linejoin="miter" stroke-dasharray="none" fill-opacity="1" d="M48.205,18.39L47.124,18.39L47.124,28.987L46.826,28.734C45.032,27.194,42.136,27.194,40.343,28.734L30.78,36.941C28.987,38.481,26.091,38.481,24.298,36.941L23.516,36.297C21.884,34.872,19.287,34.734,17.447,35.975L8.85,41.745C8.344,40.458,8.046,38.964,8.046,37.217L8.046,17.953C8.046,11.471,11.471,8.046,17.953,8.046L36.78,8.046L36.78,6.965C36.78,6.046,36.941,5.264,37.309,4.598L17.953,4.598C9.586,4.598,4.597,9.586,4.597,17.953L4.597,37.217C4.597,39.723,5.034,41.906,5.885,43.745C7.862,48.113,12.091,50.573,17.953,50.573L37.217,50.573C45.584,50.573,50.573,45.584,50.573,37.217L50.573,17.861C49.906,18.229,49.124,18.39,48.205,18.39ZM48.205,18.39"/>
</g>
  <g id="Regular-S" transform="matrix(1.0,0.0,0.0,1.0,1423.5449252929686,633.1849448242187)">  <path stroke-dasharray="none" fill-opacity="1" stroke-width="1px" stroke-linecap="butt" stroke="none" fill-rule="nonzero" stroke-linejoin="miter" fill="#000000" stroke-miterlimit="4" stroke-opacity="1" d="M48.205,2.299L41.447,2.299C39.447,2.299,37.976,3.126,37.309,4.598C36.941,5.264,36.78,6.046,36.78,6.965L36.78,13.724C36.78,16.643,38.527,18.39,41.447,18.39L48.205,18.39C49.124,18.39,49.906,18.229,50.573,17.861C52.044,17.195,52.871,15.723,52.871,13.724L52.871,6.965C52.871,4.046,51.124,2.299,48.205,2.299ZM50.366,11.333C50.136,11.563,49.791,11.724,49.423,11.747L46.182,11.747L46.182,12.919L46.205,14.942C46.182,15.333,46.044,15.655,45.768,15.93C45.538,16.16,45.194,16.321,44.826,16.321C44.067,16.321,43.447,15.7,43.447,14.942L43.447,11.724L40.228,11.747C39.47,11.747,38.849,11.103,38.849,10.344C38.849,9.586,39.47,8.965,40.228,8.965L42.251,8.988L43.447,8.988L43.447,5.77C43.447,5.011,44.067,4.368,44.826,4.368C45.584,4.368,46.205,5.011,46.205,5.77L46.182,7.402L46.182,8.965L49.423,8.965C50.182,8.965,50.803,9.586,50.803,10.344C50.78,10.735,50.619,11.057,50.366,11.333ZM50.366,11.333"/>
  <path fill-opacity="1" stroke-linejoin="miter" stroke="none" stroke-miterlimit="4" stroke-linecap="butt" fill-rule="nonzero" stroke-width="1px" stroke-opacity="1" stroke-dasharray="none" fill="#000000" d="M20.689,23.861C23.71,23.861,26.16,21.412,26.16,18.39C26.16,15.368,23.71,12.919,20.689,12.919C17.667,12.919,15.218,15.368,15.218,18.39C15.218,21.412,17.667,23.861,20.689,23.861ZM20.689,23.861"/>
  <path stroke-dasharray="none" fill-opacity="1" stroke-opacity="1" fill="#000000" stroke-linejoin="miter" stroke-width="1px" stroke-miterlimit="4" stroke="none" stroke-linecap="butt" fill-rule="nonzero" d="M48.205,18.39L47.124,18.39L47.124,28.987L46.826,28.734C45.032,27.194,42.136,27.194,40.343,28.734L30.78,36.941C28.987,38.481,26.091,38.481,24.298,36.941L23.516,36.297C21.884,34.872,19.287,34.734,17.447,35.975L8.85,41.745C8.344,40.458,8.046,38.964,8.046,37.217L8.046,17.953C8.046,11.471,11.471,8.046,17.953,8.046L36.78,8.046L36.78,6.965C36.78,6.046,36.941,5.264,37.309,4.598L17.953,4.598C9.586,4.598,4.597,9.586,4.597,17.953L4.597,37.217C4.597,39.723,5.034,41.906,5.885,43.745C7.862,48.113,12.091,50.573,17.953,50.573L37.217,50.573C45.584,50.573,50.573,45.584,50.573,37.217L50.573,17.861C49.906,18.229,49.124,18.39,48.205,18.39ZM48.205,18.39"/>
</g>
  <g id="Light-S" transform="matrix(1.0,0.0,0.0,1.0,1126.8349252929688,633.1849448242187)">  <path fill-rule="nonzero" stroke-miterlimit="4" stroke-linejoin="miter" fill="#000000" stroke-width="1px" stroke-dasharray="none" stroke="none" fill-opacity="1" stroke-opacity="1" stroke-linecap="butt" d="M48.205,2.299L41.447,2.299C39.447,2.299,37.976,3.126,37.309,4.598C36.941,5.264,36.78,6.046,36.78,6.965L36.78,13.724C36.78,16.643,38.527,18.39,41.447,18.39L48.205,18.39C49.124,18.39,49.906,18.229,50.573,17.861C52.044,17.195,52.871,15.723,52.871,13.724L52.871,6.965C52.871,4.046,51.124,2.299,48.205,2.299ZM50.366,11.333C50.136,11.563,49.791,11.724,49.423,11.747L46.182,11.747L46.182,12.919L46.205,14.942C46.182,15.333,46.044,15.655,45.768,15.93C45.538,16.16,45.194,16.321,44.826,16.321C44.067,16.321,43.447,15.7,43.447,14.942L43.447,11.724L40.228,11.747C39.47,11.747,38.849,11.103,38.849,10.344C38.849,9.586,39.47,8.965,40.228,8.965L42.251,8.988L43.447,8.988L43.447,5.77C43.447,5.011,44.067,4.368,44.826,4.368C45.584,4.368,46.205,5.011,46.205,5.77L46.182,7.402L46.182,8.965L49.423,8.965C50.182,8.965,50.803,9.586,50.803,10.344C50.78,10.735,50.619,11.057,50.366,11.333ZM50.366,11.333"/>
  <path stroke-width="1px" fill-rule="nonzero" stroke-opacity="1" stroke-miterlimit="4" stroke-linejoin="miter" stroke-dasharray="none" fill-opacity="1" stroke="none" fill="#000000" stroke-linecap="butt" d="M20.689,23.861C23.71,23.861,26.16,21.412,26.16,18.39C26.16,15.368,23.71,12.919,20.689,12.919C17.667,12.919,15.218,15.368,15.218,18.39C15.218,21.412,17.667,23.861,20.689,23.861ZM20.689,23.861"/>
  <path stroke-linecap="butt" stroke-dasharray="none" stroke="none" stroke-linejoin="miter" stroke-opacity="1" fill-opacity="1" fill-rule="nonzero" stroke-width="1px" stroke-miterlimit="4" fill="#000000" d="M48.205,18.39L47.124,18.39L47.124,28.987L46.826,28.734C45.032,27.194,42.136,27.194,40.343,28.734L30.78,36.941C28.987,38.481,26.091,38.481,24.298,36.941L23.516,36.297C21.884,34.872,19.287,34.734,17.447,35.975L8.85,41.745C8.344,40.458,8.046,38.964,8.046,37.217L8.046,17.953C8.046,11.471,11.471,8.046,17.953,8.046L36.78,8.046L36.78,6.965C36.78,6.046,36.941,5.264,37.309,4.598L17.953,4.598C9.586,4.598,4.597,9.586,4.597,17.953L4.597,37.217C4.597,39.723,5.034,41.906,5.885,43.745C7.862,48.113,12.091,50.573,17.953,50.573L37.217,50.573C45.584,50.573,50.573,45.584,50.573,37.217L50.573,17.861C49.906,18.229,49.124,18.39,48.205,18.39ZM48.205,18.39"/>
</g>
  <g id="Thin-S" transform="matrix(1.0,0.0,0.0,1.0,830.1249252929688,633.1849448242187)">  <path stroke-miterlimit="4" stroke="none" stroke-opacity="1" stroke-dasharray="none" fill-rule="nonzero" fill-opacity="1" stroke-linecap="butt" stroke-width="1px" stroke-linejoin="miter" fill="#000000" d="M48.205,2.299L41.447,2.299C39.447,2.299,37.976,3.126,37.309,4.598C36.941,5.264,36.78,6.046,36.78,6.965L36.78,13.724C36.78,16.643,38.527,18.39,41.447,18.39L48.205,18.39C49.124,18.39,49.906,18.229,50.573,17.861C52.044,17.195,52.871,15.723,52.871,13.724L52.871,6.965C52.871,4.046,51.124,2.299,48.205,2.299ZM50.366,11.333C50.136,11.563,49.791,11.724,49.423,11.747L46.182,11.747L46.182,12.919L46.205,14.942C46.182,15.333,46.044,15.655,45.768,15.93C45.538,16.16,45.194,16.321,44.826,16.321C44.067,16.321,43.447,15.7,43.447,14.942L43.447,11.724L40.228,11.747C39.47,11.747,38.849,11.103,38.849,10.344C38.849,9.586,39.47,8.965,40.228,8.965L42.251,8.988L43.447,8.988L43.447,5.77C43.447,5.011,44.067,4.368,44.826,4.368C45.584,4.368,46.205,5.011,46.205,5.77L46.182,7.402L46.182,8.965L49.423,8.965C50.182,8.965,50.803,9.586,50.803,10.344C50.78,10.735,50.619,11.057,50.366,11.333ZM50.366,11.333"/>
  <path fill-rule="nonzero" stroke-miterlimit="4" stroke-opacity="1" stroke="none" stroke-dasharray="none" stroke-linejoin="miter" stroke-width="1px" fill-opacity="1" fill="#000000" stroke-linecap="butt" d="M20.689,23.861C23.71,23.861,26.16,21.412,26.16,18.39C26.16,15.368,23.71,12.919,20.689,12.919C17.667,12.919,15.218,15.368,15.218,18.39C15.218,21.412,17.667,23.861,20.689,23.861ZM20.689,23.861"/>
  <path fill-rule="nonzero" stroke-width="1px" fill-opacity="1" stroke-opacity="1" stroke-miterlimit="4" fill="#000000" stroke-linecap="butt" stroke-linejoin="miter" stroke="none" stroke-dasharray="none" d="M48.205,18.39L47.124,18.39L47.124,28.987L46.826,28.734C45.032,27.194,42.136,27.194,40.343,28.734L30.78,36.941C28.987,38.481,26.091,38.481,24.298,36.941L23.516,36.297C21.884,34.872,19.287,34.734,17.447,35.975L8.85,41.745C8.344,40.458,8.046,38.964,8.046,37.217L8.046,17.953C8.046,11.471,11.471,8.046,17.953,8.046L36.78,8.046L36.78,6.965C36.78,6.046,36.941,5.264,37.309,4.598L17.953,4.598C9.586,4.598,4.597,9.586,4.597,17.953L4.597,37.217C4.597,39.723,5.034,41.906,5.885,43.745C7.862,48.113,12.091,50.573,17.953,50.573L37.217,50.573C45.584,50.573,50.573,45.584,50.573,37.217L50.573,17.861C49.906,18.229,49.124,18.39,48.205,18.39ZM48.205,18.39"/>
</g>
  <g id="Ultralight-S" transform="matrix(1.0,0.0,0.0,1.0,533.4149252929687,633.1849448242187)">  <path stroke-opacity="1" stroke-dasharray="none" stroke="none" stroke-width="1px" fill-opacity="1" fill="#000000" stroke-linejoin="miter" stroke-linecap="butt" stroke-miterlimit="4" fill-rule="nonzero" d="M48.205,2.299L41.447,2.299C39.447,2.299,37.976,3.126,37.309,4.598C36.941,5.264,36.78,6.046,36.78,6.965L36.78,13.724C36.78,16.643,38.527,18.39,41.447,18.39L48.205,18.39C49.124,18.39,49.906,18.229,50.573,17.861C52.044,17.195,52.871,15.723,52.871,13.724L52.871,6.965C52.871,4.046,51.124,2.299,48.205,2.299ZM50.366,11.333C50.136,11.563,49.791,11.724,49.423,11.747L46.182,11.747L46.182,12.919L46.205,14.942C46.182,15.333,46.044,15.655,45.768,15.93C45.538,16.16,45.194,16.321,44.826,16.321C44.067,16.321,43.447,15.7,43.447,14.942L43.447,11.724L40.228,11.747C39.47,11.747,38.849,11.103,38.849,10.344C38.849,9.586,39.47,8.965,40.228,8.965L42.251,8.988L43.447,8.988L43.447,5.77C43.447,5.011,44.067,4.368,44.826,4.368C45.584,4.368,46.205,5.011,46.205,5.77L46.182,7.402L46.182,8.965L49.423,8.965C50.182,8.965,50.803,9.586,50.803,10.344C50.78,10.735,50.619,11.057,50.366,11.333ZM50.366,11.333"/>
  <path stroke-width="1px" stroke-miterlimit="4" stroke="none" stroke-linejoin="miter" stroke-opacity="1" fill-opacity="1" stroke-dasharray="none" fill-rule="nonzero" fill="#000000" stroke-linecap="butt" d="M20.689,23.861C23.71,23.861,26.16,21.412,26.16,18.39C26.16,15.368,23.71,12.919,20.689,12.919C17.667,12.919,15.218,15.368,15.218,18.39C15.218,21.412,17.667,23.861,20.689,23.861ZM20.689,23.861"/>
  <path stroke="none" stroke-linecap="butt" stroke-linejoin="miter" stroke-opacity="1" fill-rule="nonzero" stroke-dasharray="none" fill="#000000" stroke-miterlimit="4" stroke-width="1px" fill-opacity="1" d="M48.205,18.39L47.124,18.39L47.124,28.987L46.826,28.734C45.032,27.194,42.136,27.194,40.343,28.734L30.78,36.941C28.987,38.481,26.091,38.481,24.298,36.941L23.516,36.297C21.884,34.872,19.287,34.734,17.447,35.975L8.85,41.745C8.344,40.458,8.046,38.964,8.046,37.217L8.046,17.953C8.046,11.471,11.471,8.046,17.953,8.046L36.78,8.046L36.78,6.965C36.78,6.046,36.941,5.264,37.309,4.598L17.953,4.598C9.586,4.598,4.597,9.586,4.597,17.953L4.597,37.217C4.597,39.723,5.034,41.906,5.885,43.745C7.862,48.113,12.091,50.573,17.953,50.573L37.217,50.573C45.584,50.573,50.573,45.584,50.573,37.217L50.573,17.861C49.906,18.229,49.124,18.39,48.205,18.39ZM48.205,18.39"/>
</g>
 </g>
</svg>
