<?xml version="1.0" encoding="UTF-8"?>
<!-- Generator: CustomSymbols v2.6.2.41 by @serious_bret https://bretlester.com/app_content/CustomSymbols/ -->
<!-- Guides: Left/Right 0.0/0.0 Cap/Base 0.0/0.0 -->
<!-- Settings: RefScale 1.0 Min/Max Stroke Scales 0.5/2.21 -->
<!DOCTYPE svg
PUBLIC "-//W3C//DTD SVG 1.1//EN"
       "http://www.w3.org/Graphics/SVG/1.1/DTD/svg11.dtd">
<svg version="1.1" xmlns="http://www.w3.org/2000/svg" xmlns:xlink="http://www.w3.org/1999/xlink" width="3300" height="2200">
<![CDATA[<svg width="36" height="37" viewBox="0 0 36 37" fill="none" xmlns="http://www.w3.org/2000/svg">
<path d="M16.5 8L6 18.5L16.5 29" stroke="black" stroke-width="3" stroke-linecap="round" stroke-linejoin="round"/>
<path d="M6 18.5H30" stroke="black" stroke-width="3" stroke-linecap="round" stroke-linejoin="round"/>
</svg>
]]>
 <g id="Notes">
  <rect height="2200" id="artboard" style="fill:white;opacity:1" width="3300" x="0" y="0"/>
  <line id="" style="fill:none;stroke:black;opacity:1;stroke-width:0.5;" x1="263" x2="3036" y1="292" y2="292"/>
  <text id="reftext1" style="stroke:none;fill:black;font-family:-apple-system,&quot;SF Pro Display&quot;,&quot;SF Pro Text&quot;,Helvetica,sans-serif;font-weight:bold;" transform="matrix(1 0 0 1 263 322)">Weight/Scale Variations</text>
  <text id="reftext2" style="stroke:none;fill:black;font-family:-apple-system,&quot;SF Pro Display&quot;,&quot;SF Pro Text&quot;,Helvetica,sans-serif;text-anchor:middle;" transform="matrix(1 0 0 1 559.711 322)">Ultralight</text>
  <text style="stroke:none;fill:black;font-family:-apple-system,&quot;SF Pro Display&quot;,&quot;SF Pro Text&quot;,Helvetica,sans-serif;text-anchor:middle;" transform="matrix(1 0 0 1 856.422 322)">Thin</text>
  <text style="stroke:none;fill:black;font-family:-apple-system,&quot;SF Pro Display&quot;,&quot;SF Pro Text&quot;,Helvetica,sans-serif;text-anchor:middle;" transform="matrix(1 0 0 1 1153.13 322)">Light</text>
  <text style="stroke:none;fill:black;font-family:-apple-system,&quot;SF Pro Display&quot;,&quot;SF Pro Text&quot;,Helvetica,sans-serif;text-anchor:middle;" transform="matrix(1 0 0 1 1449.84 322)">Regular</text>
  <text style="stroke:none;fill:black;font-family:-apple-system,&quot;SF Pro Display&quot;,&quot;SF Pro Text&quot;,Helvetica,sans-serif;text-anchor:middle;" transform="matrix(1 0 0 1 1746.56 322)">Medium</text>
  <text style="stroke:none;fill:black;font-family:-apple-system,&quot;SF Pro Display&quot;,&quot;SF Pro Text&quot;,Helvetica,sans-serif;text-anchor:middle;" transform="matrix(1 0 0 1 2043.27 322)">Semibold</text>
  <text style="stroke:none;fill:black;font-family:-apple-system,&quot;SF Pro Display&quot;,&quot;SF Pro Text&quot;,Helvetica,sans-serif;text-anchor:middle;" transform="matrix(1 0 0 1 2339.98 322)">Bold</text>
  <text style="stroke:none;fill:black;font-family:-apple-system,&quot;SF Pro Display&quot;,&quot;SF Pro Text&quot;,Helvetica,sans-serif;text-anchor:middle;" transform="matrix(1 0 0 1 2636.69 322)">Heavy</text>
  <text style="stroke:none;fill:black;font-family:-apple-system,&quot;SF Pro Display&quot;,&quot;SF Pro Text&quot;,Helvetica,sans-serif;text-anchor:middle;" transform="matrix(1 0 0 1 2933.4 322)">Black</text>
  <line id="" style="fill:none;stroke:black;opacity:1;stroke-width:0.5;" x1="263" x2="3036" y1="1903" y2="1903"/>
  <g id="" transform="matrix(1 0 0 1 263 1933)">
   <path d="M9.24805 0.830078C13.5547 0.830078 17.1387-2.74414 17.1387-7.05078C17.1387-11.3574 13.5449-14.9316 9.23828-14.9316C4.94141-14.9316 1.36719-11.3574 1.36719-7.05078C1.36719-2.74414 4.95117 0.830078 9.24805 0.830078ZM9.24805-0.654297C5.70312-0.654297 2.87109-3.49609 2.87109-7.05078C2.87109-10.6055 5.69336-13.4473 9.23828-13.4473C12.793-13.4473 15.6348-10.6055 15.6445-7.05078C15.6543-3.49609 12.8027-0.654297 9.24805-0.654297ZM6.39648-6.31836L8.50586-6.31836L8.50586-4.19922C8.50586-3.75977 8.79883-3.45703 9.22852-3.45703C9.67773-3.45703 9.9707-3.75977 9.9707-4.19922L9.9707-6.31836L12.0996-6.31836C12.5391-6.31836 12.8418-6.61133 12.8418-7.04102C12.8418-7.48047 12.5391-7.7832 12.0996-7.7832L9.9707-7.7832L9.9707-9.89258C9.9707-10.3418 9.67773-10.6445 9.22852-10.6445C8.79883-10.6445 8.50586-10.3418 8.50586-9.89258L8.50586-7.7832L6.39648-7.7832C5.94727-7.7832 5.64453-7.48047 5.64453-7.04102C5.64453-6.61133 5.94727-6.31836 6.39648-6.31836Z"/>
  </g>
  <g id="" transform="matrix(1 0 0 1 281.506 1933)">
   <path d="M11.709 2.91016C17.1582 2.91016 21.6699-1.61133 21.6699-7.05078C21.6699-12.5 17.1484-17.0117 11.6992-17.0117C6.25977-17.0117 1.74805-12.5 1.74805-7.05078C1.74805-1.61133 6.26953 2.91016 11.709 2.91016ZM11.709 1.25C7.09961 1.25 3.41797-2.44141 3.41797-7.05078C3.41797-11.6602 7.08984-15.3516 11.6992-15.3516C16.3086-15.3516 20-11.6602 20.0098-7.05078C20.0195-2.44141 16.3184 1.25 11.709 1.25ZM7.98828-6.23047L10.8789-6.23047L10.8789-3.32031C10.8789-2.83203 11.2109-2.5 11.6895-2.5C12.1777-2.5 12.5195-2.83203 12.5195-3.32031L12.5195-6.23047L15.4297-6.23047C15.918-6.23047 16.25-6.5625 16.25-7.04102C16.25-7.5293 15.918-7.87109 15.4297-7.87109L12.5195-7.87109L12.5195-10.7617C12.5195-11.2695 12.1777-11.6016 11.6895-11.6016C11.2109-11.6016 10.8789-11.2598 10.8789-10.7617L10.8789-7.87109L7.98828-7.87109C7.48047-7.87109 7.14844-7.5293 7.14844-7.04102C7.14844-6.5625 7.49023-6.23047 7.98828-6.23047Z"/>
  </g>
  <g id="" transform="matrix(1 0 0 1 304.924 1933)">
   <path d="M14.9707 5.66406C21.9336 5.66406 27.6953-0.0976562 27.6953-7.05078C27.6953-14.0137 21.9238-19.7754 14.9609-19.7754C8.00781-19.7754 2.25586-14.0137 2.25586-7.05078C2.25586-0.0976562 8.01758 5.66406 14.9707 5.66406ZM14.9707 3.84766C8.93555 3.84766 4.08203-1.01562 4.08203-7.05078C4.08203-13.0957 8.92578-17.9492 14.9609-17.9492C21.0059-17.9492 25.8594-13.0957 25.8691-7.05078C25.8789-1.01562 21.0156 3.84766 14.9707 3.84766ZM10.0586-6.14258L14.0625-6.14258L14.0625-2.12891C14.0625-1.5918 14.4336-1.2207 14.9512-1.2207C15.4883-1.2207 15.8594-1.5918 15.8594-2.12891L15.8594-6.14258L19.8828-6.14258C20.4102-6.14258 20.791-6.51367 20.791-7.03125C20.791-7.56836 20.4199-7.94922 19.8828-7.94922L15.8594-7.94922L15.8594-11.9531C15.8594-12.5098 15.4883-12.8809 14.9512-12.8809C14.4336-12.8809 14.0625-12.5 14.0625-11.9531L14.0625-7.94922L10.0586-7.94922C9.50195-7.94922 9.13086-7.56836 9.13086-7.03125C9.13086-6.51367 9.51172-6.14258 10.0586-6.14258Z"/>
  </g>
  <text style="stroke:none;fill:black;font-family:-apple-system,&quot;SF Pro Display&quot;,&quot;SF Pro Text&quot;,Helvetica,sans-serif;font-weight:bold;" transform="matrix(1 0 0 1 263 1953)">Design Variations</text>
  <text style="stroke:none;fill:black;font-family:-apple-system,&quot;SF Pro Display&quot;,&quot;SF Pro Text&quot;,Helvetica,sans-serif;" transform="matrix(1 0 0 1 263 1971)">Symbols are supported in up to nine weights and three scales.</text>
  <text style="stroke:none;fill:black;font-family:-apple-system,&quot;SF Pro Display&quot;,&quot;SF Pro Text&quot;,Helvetica,sans-serif;" transform="matrix(1 0 0 1 263 1989)">For optimal layout with text and other symbols, vertically align</text>
  <text style="stroke:none;fill:black;font-family:-apple-system,&quot;SF Pro Display&quot;,&quot;SF Pro Text&quot;,Helvetica,sans-serif;" transform="matrix(1 0 0 1 263 2007)">symbols with the adjacent text.</text>
  <line id="" style="fill:none;stroke:#00AEEF;stroke-width:0.5;opacity:1.0;" x1="776" x2="776" y1="1919" y2="1933"/>
  <g id="" transform="matrix(1 0 0 1 776 1933)">
   <path d="M3.31055 0.126953C3.82812 0.126953 4.08203-0.0683594 4.26758-0.605469L5.52734-4.0625L11.2891-4.0625L12.5488-0.605469C12.7344-0.0683594 12.9883 0.126953 13.4961 0.126953C14.0137 0.126953 14.3457-0.185547 14.3457-0.673828C14.3457-0.839844 14.3164-0.986328 14.2383-1.20117L9.6582-13.3887C9.43359-13.9941 9.0332-14.2871 8.4082-14.2871C7.80273-14.2871 7.39258-13.9941 7.17773-13.3984L2.59766-1.19141C2.51953-0.976562 2.49023-0.830078 2.49023-0.664062C2.49023-0.175781 2.80273 0.126953 3.31055 0.126953ZM6.00586-5.53711L8.37891-12.1094L8.42773-12.1094L10.8008-5.53711Z"/>
  </g>
  <line id="" style="fill:none;stroke:#00AEEF;stroke-width:0.5;opacity:1.0;" x1="792.836" x2="792.836" y1="1919" y2="1933"/>
  <text style="stroke:none;fill:black;font-family:-apple-system,&quot;SF Pro Display&quot;,&quot;SF Pro Text&quot;,Helvetica,sans-serif;font-weight:bold;" transform="matrix(1 0 0 1 776 1953)">Margins</text>
  <text style="stroke:none;fill:black;font-family:-apple-system,&quot;SF Pro Display&quot;,&quot;SF Pro Text&quot;,Helvetica,sans-serif;" transform="matrix(1 0 0 1 776 1971)">Leading and trailing margins on the left and right side of each symbol</text>
  <text style="stroke:none;fill:black;font-family:-apple-system,&quot;SF Pro Display&quot;,&quot;SF Pro Text&quot;,Helvetica,sans-serif;" transform="matrix(1 0 0 1 776 1989)">can be adjusted by modifying the x-location of the margin guidelines.</text>
  <text style="stroke:none;fill:black;font-family:-apple-system,&quot;SF Pro Display&quot;,&quot;SF Pro Text&quot;,Helvetica,sans-serif;" transform="matrix(1 0 0 1 776 2007)">Modifications are automatically applied proportionally to all</text>
  <text style="stroke:none;fill:black;font-family:-apple-system,&quot;SF Pro Display&quot;,&quot;SF Pro Text&quot;,Helvetica,sans-serif;" transform="matrix(1 0 0 1 776 2025)">scales and weights.</text>
  <g id="" transform="matrix(1 0 0 1 1289 1933)">
   <path d="M2.8418 1.86523L4.54102 3.57422C5.40039 4.44336 6.38672 4.38477 7.31445 3.35938L17.4902-7.85156C17.7539-7.76367 18.0273-7.7832 18.3398-7.8418L19.4043-8.03711L20.0684-7.36328L20.0293-6.80664C19.9902-6.30859 20.1172-5.92773 20.6055-5.44922L21.3672-4.70703C21.8457-4.22852 22.4609-4.19922 22.9297-4.66797L25.8398-7.58789C26.3086-8.05664 26.2891-8.65234 25.8105-9.13086L25.0391-9.89258C24.5605-10.3711 24.1895-10.5273 23.7109-10.4883L23.1348-10.4395L22.4902-11.0742L22.7344-12.1973C22.8613-12.7637 22.7051-13.2031 22.1191-13.7891L19.9219-15.9766C16.582-19.2969 12.1484-19.2188 9.25781-16.3281C8.83789-15.918 8.80859-15.3418 9.04297-14.9512C9.27734-14.5898 9.73633-14.3555 10.3809-14.5215C11.8457-14.8633 13.3691-14.9219 14.7949-13.9844L14.209-12.5293C14.0137-12.0508 13.9844-11.6504 14.1113-11.2891L3.04688-0.898438C2.06055 0.0195312 1.98242 0.996094 2.8418 1.86523ZM10.752-15.957C13.1836-17.7344 16.4746-17.4316 18.7012-15.2051L21.1328-12.793C21.3672-12.5586 21.4062-12.373 21.3379-12.0312L21.0156-10.5469L22.5195-9.0625L23.5059-9.12109C23.7598-9.13086 23.8379-9.11133 24.0332-8.91602L24.6094-8.33984L22.168-5.89844L21.5918-6.47461C21.3965-6.66992 21.3672-6.74805 21.377-7.01172L21.4453-7.98828L19.9512-9.47266L18.4277-9.21875C18.1055-9.15039 17.959-9.17969 17.7148-9.41406L15.7129-11.416C15.459-11.6504 15.4297-11.8164 15.5859-12.1875L16.4648-14.2773C14.9023-15.7324 12.8711-16.3574 10.8398-15.7617C10.6836-15.7227 10.625-15.8496 10.752-15.957ZM5.27344 2.30469L4.10156 1.14258C3.63281 0.683594 3.74023 0.341797 4.14062-0.0195312L14.9512-10.1953L16.416-8.71094L6.42578 2.27539C6.07422 2.67578 5.74219 2.77344 5.27344 2.30469Z"/>
  </g>
  <text style="stroke:none;fill:black;font-family:-apple-system,&quot;SF Pro Display&quot;,&quot;SF Pro Text&quot;,Helvetica,sans-serif;font-weight:bold;" transform="matrix(1 0 0 1 1289 1953)">Exporting</text>
  <text style="stroke:none;fill:black;font-family:-apple-system,&quot;SF Pro Display&quot;,&quot;SF Pro Text&quot;,Helvetica,sans-serif;" transform="matrix(1 0 0 1 1289 1971)">Symbols should be outlined when exporting to ensure the</text>
  <text style="stroke:none;fill:black;font-family:-apple-system,&quot;SF Pro Display&quot;,&quot;SF Pro Text&quot;,Helvetica,sans-serif;" transform="matrix(1 0 0 1 1289 1989)">design is preserved when submitting to Xcode.</text>
  <text id="template-version" style="stroke:none;fill:black;font-family:-apple-system,&quot;SF Pro Display&quot;,&quot;SF Pro Text&quot;,Helvetica,sans-serif;text-anchor:end;" transform="matrix(1 0 0 1 3036 1933)">Template v.2.0</text>
  <text style="stroke:none;fill:black;font-family:-apple-system,&quot;SF Pro Display&quot;,&quot;SF Pro Text&quot;,Helvetica,sans-serif;text-anchor:end;" transform="matrix(1 0 0 1 3036 1951)">Requires Xcode 12 or greater</text>
  <text style="stroke:none;fill:black;font-family:-apple-system,&quot;SF Pro Display&quot;,&quot;SF Pro Text&quot;,Helvetica,sans-serif;" transform="matrix(1 0 0 1 263 726)">Small</text>
  <text style="stroke:none;fill:black;font-family:-apple-system,&quot;SF Pro Display&quot;,&quot;SF Pro Text&quot;,Helvetica,sans-serif;" transform="matrix(1 0 0 1 263 1156)">Medium</text>
  <text style="stroke:none;fill:black;font-family:-apple-system,&quot;SF Pro Display&quot;,&quot;SF Pro Text&quot;,Helvetica,sans-serif;" transform="matrix(1 0 0 1 263 1586)">Large</text>
 </g>
 <g id="Guides">
  <g id="H-reference" style="fill:#27AAE1;stroke:none;" transform="matrix(1 0 0 1 339 696)">
   <path d="M0.976562 0L3.66211 0L12.9883-24.4629L45.752-24.4629L55.127 0L57.7637 0L30.6152-70.459L28.125-70.459ZM29.3457-67.1387L29.4434-67.1387L44.873-26.709L13.8672-26.709Z"/>
  </g>
  <line id="Baseline-S" style="fill:none;stroke:#27AAE1;opacity:1;stroke-width:0.5;" x1="263" x2="3036" y1="696" y2="696"/>
  <line id="Capline-S" style="fill:none;stroke:#27AAE1;opacity:1;stroke-width:0.5;" x1="263" x2="3036" y1="625.541" y2="625.541"/>
  <g id="H-reference" style="fill:#27AAE1;stroke:none;" transform="matrix(1 0 0 1 339 1126)">
   <path d="M0.976562 0L3.66211 0L12.9883-24.4629L45.752-24.4629L55.127 0L57.7637 0L30.6152-70.459L28.125-70.459ZM29.3457-67.1387L29.4434-67.1387L44.873-26.709L13.8672-26.709Z"/>
  </g>
  <line id="Baseline-M" style="fill:none;stroke:#27AAE1;opacity:1;stroke-width:0.5;" x1="263" x2="3036" y1="1126" y2="1126"/>
  <line id="Capline-M" style="fill:none;stroke:#27AAE1;opacity:1;stroke-width:0.5;" x1="263" x2="3036" y1="1055.54" y2="1055.54"/>
  <g id="H-reference" style="fill:#27AAE1;stroke:none;" transform="matrix(1 0 0 1 339 1556)">
   <path d="M0.976562 0L3.66211 0L12.9883-24.4629L45.752-24.4629L55.127 0L57.7637 0L30.6152-70.459L28.125-70.459ZM29.3457-67.1387L29.4434-67.1387L44.873-26.709L13.8672-26.709Z"/>
  </g>
  <line id="Baseline-L" style="fill:none;stroke:#27AAE1;opacity:1;stroke-width:0.5;" x1="263" x2="3036" y1="1556" y2="1556"/>
  <line id="Capline-L" style="fill:none;stroke:#27AAE1;opacity:1;stroke-width:0.5;" x1="263" x2="3036" y1="1485.54" y2="1485.54"/>
  <line id="left-margin" x1="1416.8521811655405" x2="1416.8521811655405" y1="1030.79" y2="1150.12" style="fill:none;stroke:#00AEEF;stroke-width:0.5;opacity:1.0;"/>
  <line id="right-margin" x1="1485.4078188344592" x2="1485.4078188344592" y1="1030.79" y2="1150.12" style="fill:none;stroke:#00AEEF;stroke-width:0.5;opacity:1.0;"/>
 </g>
 <g id="Symbols">
  <g id="Black-L" transform="matrix(1.0,0.0,0.0,1.0,2890.4616137035473,1475.3233447265625)">  <path fill-opacity="1" stroke-linejoin="round" stroke="none" stroke-linecap="round" stroke-miterlimit="4" fill="#000000" stroke-width="3px" stroke-dasharray="none" stroke-opacity="1" fill-rule="nonzero" d="M34.775,13.894L8.981,39.688C5.801,42.869,5.801,48.025,8.981,51.205L34.775,76.999C37.955,80.179,43.112,80.179,46.292,76.999C49.472,73.819,49.472,68.663,46.292,65.482L20.498,39.688L20.498,51.205L46.292,25.411C49.472,22.231,49.472,17.075,46.292,13.894C43.112,10.714,37.955,10.714,34.775,13.894Z"/>
  <path stroke-dasharray="none" stroke-width="3px" fill-rule="nonzero" fill="#000000" stroke="none" stroke-linecap="round" stroke-opacity="1" fill-opacity="1" stroke-linejoin="round" stroke-miterlimit="4" d="M14.739,53.59L73.697,53.59C78.195,53.59,81.841,49.944,81.841,45.447C81.841,40.949,78.195,37.303,73.697,37.303L14.739,37.303C10.242,37.303,6.596,40.949,6.596,45.447C6.596,49.944,10.242,53.59,14.739,53.59Z"/>
</g>
  <g id="Heavy-L" transform="matrix(1.0,0.0,0.0,1.0,2593.7516137035473,1475.3233447265625)">  <path stroke-opacity="1" stroke-width="3px" stroke-dasharray="none" fill-rule="nonzero" stroke-linejoin="round" fill-opacity="1" fill="#000000" stroke-linecap="round" stroke-miterlimit="4" stroke="none" d="M35.406,14.525L9.612,40.319C6.78,43.151,6.78,47.742,9.612,50.574L35.406,76.369C38.238,79.201,42.829,79.201,45.661,76.369C48.493,73.537,48.493,68.945,45.661,66.113L19.867,40.319L19.867,50.574L45.661,24.78C48.493,21.948,48.493,17.357,45.661,14.525C42.829,11.693,38.238,11.693,35.406,14.525Z"/>
  <path fill-rule="nonzero" stroke="none" stroke-miterlimit="4" stroke-linejoin="round" stroke-dasharray="none" stroke-opacity="1" stroke-width="3px" fill-opacity="1" stroke-linecap="round" fill="#000000" d="M14.739,52.698L73.697,52.698C77.702,52.698,80.949,49.452,80.949,45.447C80.949,41.442,77.702,38.195,73.697,38.195L14.739,38.195C10.734,38.195,7.488,41.442,7.488,45.447C7.488,49.452,10.734,52.698,14.739,52.698Z"/>
</g>
  <g id="Bold-L" transform="matrix(1.0,0.0,0.0,1.0,2297.0416137035472,1475.3233447265625)">  <path stroke-opacity="1" stroke-linejoin="round" stroke-linecap="round" stroke-dasharray="none" fill-opacity="1" fill-rule="nonzero" fill="#000000" stroke-miterlimit="4" stroke="none" stroke-width="3px" d="M36.036,15.155L10.242,40.949C7.758,43.433,7.758,47.46,10.242,49.944L36.036,75.738C38.52,78.222,42.547,78.222,45.031,75.738C47.515,73.254,47.515,69.227,45.031,66.743L19.237,40.949L19.237,49.944L45.031,24.15C47.515,21.666,47.515,17.639,45.031,15.155C42.547,12.672,38.52,12.672,36.036,15.155Z"/>
  <path stroke-opacity="1" stroke-dasharray="none" fill-rule="nonzero" fill="#000000" stroke-width="3px" stroke-linejoin="round" stroke-miterlimit="4" stroke-linecap="round" stroke="none" fill-opacity="1" d="M14.739,51.807L73.697,51.807C77.21,51.807,80.057,48.959,80.057,45.447C80.057,41.934,77.21,39.087,73.697,39.087L14.739,39.087C11.227,39.087,8.379,41.934,8.379,45.447C8.379,48.959,11.227,51.807,14.739,51.807Z"/>
</g>
  <g id="Semibold-L" transform="matrix(1.0,0.0,0.0,1.0,2000.3316137035472,1475.3233447265625)">  <path fill="#000000" stroke="none" stroke-miterlimit="4" fill-opacity="1" stroke-linejoin="round" stroke-width="3px" fill-rule="nonzero" stroke-dasharray="none" stroke-opacity="1" stroke-linecap="round" d="M36.667,15.786L10.873,41.58C8.737,43.715,8.737,47.178,10.873,49.313L36.667,75.107C38.802,77.243,42.265,77.243,44.4,75.107C46.536,72.972,46.536,69.51,44.4,67.374L18.606,41.58L18.606,49.313L44.4,23.519C46.536,21.384,46.536,17.921,44.4,15.786C42.265,13.65,38.802,13.65,36.667,15.786Z"/>
  <path fill-opacity="1" fill="#000000" stroke-linejoin="round" stroke="none" stroke-width="3px" stroke-opacity="1" stroke-dasharray="none" fill-rule="nonzero" stroke-linecap="round" stroke-miterlimit="4" d="M14.739,50.915L73.697,50.915C76.717,50.915,79.166,48.467,79.166,45.447C79.166,42.427,76.717,39.978,73.697,39.978L14.739,39.978C11.719,39.978,9.271,42.427,9.271,45.447C9.271,48.467,11.719,50.915,14.739,50.915Z"/>
</g>
  <g id="Medium-L" transform="matrix(1.0,0.0,0.0,1.0,1703.6216137035472,1475.3233447265625)">  <path stroke="none" fill-rule="nonzero" fill="#000000" stroke-linecap="round" fill-opacity="1" stroke-linejoin="round" stroke-dasharray="none" stroke-opacity="1" stroke-miterlimit="4" stroke-width="3px" d="M37.297,16.416L11.503,42.211C9.716,43.998,9.716,46.896,11.503,48.683L37.297,74.477C39.085,76.264,41.982,76.264,43.77,74.477C45.557,72.69,45.557,69.792,43.77,68.005L17.976,42.211L17.976,48.683L43.77,22.889C45.557,21.101,45.557,18.204,43.77,16.416C41.982,14.629,39.085,14.629,37.297,16.416Z"/>
  <path fill-rule="nonzero" stroke-linecap="round" stroke-dasharray="none" stroke-linejoin="round" stroke-opacity="1" stroke-width="3px" stroke-miterlimit="4" fill="#000000" fill-opacity="1" stroke="none" d="M14.739,50.023L73.697,50.023C76.225,50.023,78.274,47.974,78.274,45.447C78.274,42.919,76.225,40.87,73.697,40.87L14.739,40.87C12.212,40.87,10.163,42.919,10.163,45.447C10.163,47.974,12.212,50.023,14.739,50.023Z"/>
</g>
  <g id="Regular-L" transform="matrix(1.0,0.0,0.0,1.0,1406.9116137035471,1475.3233447265625)">  <path fill="#000000" stroke-width="3px" stroke-miterlimit="4" stroke-opacity="1" stroke-linejoin="round" stroke-dasharray="none" stroke-linecap="round" fill-opacity="1" stroke="none" fill-rule="nonzero" d="M37.928,17.047L12.134,42.841C10.695,44.28,10.695,46.613,12.134,48.052L37.928,73.846C39.367,75.285,41.7,75.285,43.139,73.846C44.578,72.407,44.578,70.074,43.139,68.635L17.345,42.841L17.345,48.052L43.139,22.258C44.578,20.819,44.578,18.486,43.139,17.047C41.7,15.608,39.367,15.608,37.928,17.047Z"/>
  <path stroke="none" stroke-linejoin="round" fill-opacity="1" stroke-dasharray="none" fill-rule="nonzero" stroke-linecap="round" stroke-opacity="1" stroke-miterlimit="4" fill="#000000" stroke-width="3px" d="M14.739,49.132L73.697,49.132C75.732,49.132,77.382,47.482,77.382,45.447C77.382,43.412,75.732,41.762,73.697,41.762L14.739,41.762C12.704,41.762,11.055,43.412,11.055,45.447C11.055,47.482,12.704,49.132,14.739,49.132Z"/>
</g>
  <g id="Light-L" transform="matrix(1.0,0.0,0.0,1.0,1110.2016137035473,1475.3233447265625)">  <path stroke-miterlimit="4" fill-opacity="1" fill-rule="nonzero" stroke-dasharray="none" stroke="none" stroke-opacity="1" fill="#000000" stroke-width="3px" stroke-linecap="round" stroke-linejoin="round" d="M38.362,17.481L12.568,43.275C11.369,44.475,11.369,46.419,12.568,47.618L38.362,73.412C39.561,74.611,41.506,74.611,42.705,73.412C43.904,72.213,43.904,70.269,42.705,69.069L16.911,43.275L16.911,47.618L42.705,21.824C43.904,20.625,43.904,18.68,42.705,17.481C41.506,16.282,39.561,16.282,38.362,17.481Z"/>
  <path stroke-linecap="round" fill-opacity="1" fill-rule="nonzero" fill="#000000" stroke-opacity="1" stroke-miterlimit="4" stroke-linejoin="round" stroke="none" stroke-dasharray="none" stroke-width="3px" d="M14.739,48.517L73.697,48.517C75.393,48.517,76.768,47.143,76.768,45.447C76.768,43.751,75.393,42.376,73.697,42.376L14.739,42.376C13.044,42.376,11.669,43.751,11.669,45.447C11.669,47.143,13.044,48.517,14.739,48.517Z"/>
</g>
  <g id="Thin-L" transform="matrix(1.0,0.0,0.0,1.0,813.4916137035473,1475.3233447265625)">  <path stroke-opacity="1" fill="#000000" stroke-miterlimit="4" fill-opacity="1" stroke-linecap="round" stroke-dasharray="none" stroke-linejoin="round" fill-rule="nonzero" stroke="none" stroke-width="3px" d="M38.796,17.916L13.002,43.71C12.043,44.669,12.043,46.224,13.002,47.184L38.796,72.978C39.756,73.937,41.311,73.937,42.271,72.978C43.23,72.018,43.23,70.463,42.271,69.504L16.477,43.71L16.477,47.184L42.271,21.39C43.23,20.43,43.23,18.875,42.271,17.916C41.311,16.956,39.756,16.956,38.796,17.916Z"/>
  <path fill-rule="nonzero" stroke-linecap="round" stroke-miterlimit="4" fill="#000000" stroke-linejoin="round" stroke-dasharray="none" fill-opacity="1" stroke="none" stroke-opacity="1" stroke-width="3px" d="M14.739,47.903L73.697,47.903C75.054,47.903,76.154,46.803,76.154,45.447C76.154,44.09,75.054,42.99,73.697,42.99L14.739,42.99C13.383,42.99,12.283,44.09,12.283,45.447C12.283,46.803,13.383,47.903,14.739,47.903Z"/>
</g>
  <g id="Ultralight-L" transform="matrix(1.0,0.0,0.0,1.0,516.7816137035472,1475.3233447265625)">  <path stroke-width="3px" stroke-linecap="round" stroke-dasharray="none" stroke="none" stroke-linejoin="round" fill-opacity="1" stroke-opacity="1" stroke-miterlimit="4" fill-rule="nonzero" fill="#000000" d="M39.231,18.35L13.437,44.144C12.717,44.863,12.717,46.03,13.437,46.749L39.231,72.544C39.95,73.263,41.117,73.263,41.836,72.544C42.556,71.824,42.556,70.657,41.836,69.938L16.042,44.144L16.042,46.749L41.836,20.955C42.556,20.236,42.556,19.069,41.836,18.35C41.117,17.63,39.95,17.63,39.231,18.35Z"/>
  <path fill-rule="nonzero" stroke="none" stroke-dasharray="none" fill-opacity="1" stroke-linejoin="round" stroke-miterlimit="4" stroke-opacity="1" stroke-width="3px" fill="#000000" stroke-linecap="round" d="M14.739,47.289L73.697,47.289C74.715,47.289,75.54,46.464,75.54,45.447C75.54,44.429,74.715,43.604,73.697,43.604L14.739,43.604C13.722,43.604,12.897,44.429,12.897,45.447C12.897,46.464,13.722,47.289,14.739,47.289Z"/>
</g>
  <g id="Black-M" transform="matrix(1.0,0.0,0.0,1.0,2900.4021811655402,1055.5400390625)">  <path fill-opacity="1" stroke-linejoin="round" stroke="none" stroke-linecap="round" stroke-miterlimit="4" fill="#000000" stroke-width="3px" stroke-dasharray="none" stroke-opacity="1" fill-rule="nonzero" d="M26.957,10.771L6.962,30.766C4.497,33.231,4.497,37.229,6.962,39.694L26.957,59.689C29.423,62.155,33.42,62.155,35.885,59.689C38.35,57.224,38.35,53.227,35.885,50.762L15.89,30.766L15.89,39.694L35.885,19.698C38.35,17.233,38.35,13.236,35.885,10.771C33.42,8.305,29.423,8.305,26.957,10.771Z"/>
  <path stroke-dasharray="none" stroke-width="3px" fill-rule="nonzero" fill="#000000" stroke="none" stroke-linecap="round" stroke-opacity="1" fill-opacity="1" stroke-linejoin="round" stroke-miterlimit="4" d="M11.426,41.543L57.13,41.543C60.616,41.543,63.443,38.716,63.443,35.23C63.443,31.743,60.616,28.917,57.13,28.917L11.426,28.917C7.939,28.917,5.113,31.743,5.113,35.23C5.113,38.716,7.939,41.543,11.426,41.543Z"/>
</g>
  <g id="Heavy-M" transform="matrix(1.0,0.0,0.0,1.0,2603.69218116554,1055.5400390625)">  <path stroke-opacity="1" stroke-width="3px" stroke-dasharray="none" fill-rule="nonzero" stroke-linejoin="round" fill-opacity="1" fill="#000000" stroke-linecap="round" stroke-miterlimit="4" stroke="none" d="M27.446,11.26L7.451,31.255C5.256,33.45,5.256,37.01,7.451,39.205L27.446,59.2C29.642,61.396,33.201,61.396,35.396,59.2C37.592,57.005,37.592,53.446,35.396,51.25L15.401,31.255L15.401,39.205L35.396,19.21C37.592,17.014,37.592,13.455,35.396,11.26C33.201,9.064,29.642,9.064,27.446,11.26Z"/>
  <path fill-rule="nonzero" stroke="none" stroke-miterlimit="4" stroke-linejoin="round" stroke-dasharray="none" stroke-opacity="1" stroke-width="3px" fill-opacity="1" stroke-linecap="round" fill="#000000" d="M11.426,40.852L57.13,40.852C60.234,40.852,62.751,38.335,62.751,35.23C62.751,32.125,60.234,29.608,57.13,29.608L11.426,29.608C8.321,29.608,5.804,32.125,5.804,35.23C5.804,38.335,8.321,40.852,11.426,40.852Z"/>
</g>
  <g id="Bold-M" transform="matrix(1.0,0.0,0.0,1.0,2306.98218116554,1055.5400390625)">  <path stroke-opacity="1" stroke-linejoin="round" stroke-linecap="round" stroke-dasharray="none" fill-opacity="1" fill-rule="nonzero" fill="#000000" stroke-miterlimit="4" stroke="none" stroke-width="3px" d="M27.935,11.748L7.94,31.744C6.014,33.669,6.014,36.791,7.94,38.716L27.935,58.712C29.86,60.637,32.982,60.637,34.908,58.712C36.833,56.786,36.833,53.665,34.908,51.739L14.912,31.744L14.912,38.716L34.908,18.721C36.833,16.795,36.833,13.674,34.908,11.748C32.982,9.823,29.86,9.823,27.935,11.748Z"/>
  <path stroke-opacity="1" stroke-dasharray="none" fill-rule="nonzero" fill="#000000" stroke-width="3px" stroke-linejoin="round" stroke-miterlimit="4" stroke-linecap="round" stroke="none" fill-opacity="1" d="M11.426,40.16L57.13,40.16C59.853,40.16,62.06,37.953,62.06,35.23C62.06,32.507,59.853,30.3,57.13,30.3L11.426,30.3C8.703,30.3,6.496,32.507,6.496,35.23C6.496,37.953,8.703,40.16,11.426,40.16Z"/>
</g>
  <g id="Semibold-M" transform="matrix(1.0,0.0,0.0,1.0,2010.2721811655406,1055.5400390625)">  <path fill="#000000" stroke="none" stroke-miterlimit="4" fill-opacity="1" stroke-linejoin="round" stroke-width="3px" fill-rule="nonzero" stroke-dasharray="none" stroke-opacity="1" stroke-linecap="round" d="M28.424,12.237L8.428,32.233C6.773,33.888,6.773,36.572,8.428,38.227L28.424,58.223C30.079,59.878,32.763,59.878,34.419,58.223C36.074,56.567,36.074,53.883,34.419,52.228L14.423,32.233L14.423,38.227L34.419,18.232C36.074,16.577,36.074,13.893,34.419,12.237C32.763,10.582,30.079,10.582,28.424,12.237Z"/>
  <path fill-opacity="1" fill="#000000" stroke-linejoin="round" stroke="none" stroke-width="3px" stroke-opacity="1" stroke-dasharray="none" fill-rule="nonzero" stroke-linecap="round" stroke-miterlimit="4" d="M11.426,39.469L57.13,39.469C59.471,39.469,61.369,37.571,61.369,35.23C61.369,32.889,59.471,30.991,57.13,30.991L11.426,30.991C9.085,30.991,7.187,32.889,7.187,35.23C7.187,37.571,9.085,39.469,11.426,39.469Z"/>
</g>
  <g id="Medium-M" transform="matrix(1.0,0.0,0.0,1.0,1713.5621811655406,1055.5400390625)">  <path stroke="none" fill-rule="nonzero" fill="#000000" stroke-linecap="round" fill-opacity="1" stroke-linejoin="round" stroke-dasharray="none" stroke-opacity="1" stroke-miterlimit="4" stroke-width="3px" d="M28.913,12.726L8.917,32.721C7.532,34.107,7.532,36.353,8.917,37.739L28.913,57.734C30.298,59.12,32.544,59.12,33.93,57.734C35.315,56.349,35.315,54.102,33.93,52.717L13.935,32.721L13.935,37.739L33.93,17.743C35.315,16.358,35.315,14.111,33.93,12.726C32.544,11.34,30.298,11.34,28.913,12.726Z"/>
  <path fill-rule="nonzero" stroke-linecap="round" stroke-dasharray="none" stroke-linejoin="round" stroke-opacity="1" stroke-width="3px" stroke-miterlimit="4" fill="#000000" fill-opacity="1" stroke="none" d="M11.426,38.778L57.13,38.778C59.089,38.778,60.677,37.189,60.677,35.23C60.677,33.271,59.089,31.682,57.13,31.682L11.426,31.682C9.467,31.682,7.878,33.271,7.878,35.23C7.878,37.189,9.467,38.778,11.426,38.778Z"/>
</g>
  <g id="Regular-M" transform="matrix(1.0,0.0,0.0,1.0,1416.8521811655405,1055.5400390625)">  <path fill="#000000" stroke-width="3px" stroke-miterlimit="4" stroke-opacity="1" stroke-linejoin="round" stroke-dasharray="none" stroke-linecap="round" fill-opacity="1" stroke="none" fill-rule="nonzero" d="M29.401,13.215L9.406,33.21C8.291,34.326,8.291,36.134,9.406,37.25L29.401,57.245C30.517,58.361,32.326,58.361,33.441,57.245C34.557,56.13,34.557,54.321,33.441,53.206L13.446,33.21L13.446,37.25L33.441,17.254C34.557,16.139,34.557,14.33,33.441,13.215C32.326,12.099,30.517,12.099,29.401,13.215Z"/>
  <path stroke="none" stroke-linejoin="round" fill-opacity="1" stroke-dasharray="none" fill-rule="nonzero" stroke-linecap="round" stroke-opacity="1" stroke-miterlimit="4" fill="#000000" stroke-width="3px" d="M11.426,38.086L57.13,38.086C58.707,38.086,59.986,36.808,59.986,35.23C59.986,33.652,58.707,32.373,57.13,32.373L11.426,32.373C9.848,32.373,8.569,33.652,8.569,35.23C8.569,36.808,9.848,38.086,11.426,38.086Z"/>
</g>
  <g id="Light-M" transform="matrix(1.0,0.0,0.0,1.0,1120.1421811655407,1055.5400390625)">  <path stroke-miterlimit="4" fill-opacity="1" fill-rule="nonzero" stroke-dasharray="none" stroke="none" stroke-opacity="1" fill="#000000" stroke-width="3px" stroke-linecap="round" stroke-linejoin="round" d="M29.738,13.551L9.743,33.547C8.813,34.476,8.813,35.984,9.743,36.913L29.738,56.909C30.668,57.838,32.175,57.838,33.105,56.909C34.034,55.979,34.034,54.472,33.105,53.542L13.109,33.547L13.109,36.913L33.105,16.918C34.034,15.988,34.034,14.481,33.105,13.551C32.175,12.622,30.668,12.622,29.738,13.551Z"/>
  <path stroke-linecap="round" fill-opacity="1" fill-rule="nonzero" fill="#000000" stroke-opacity="1" stroke-miterlimit="4" stroke-linejoin="round" stroke="none" stroke-dasharray="none" stroke-width="3px" d="M11.426,37.61L57.13,37.61C58.444,37.61,59.51,36.545,59.51,35.23C59.51,33.915,58.444,32.85,57.13,32.85L11.426,32.85C10.111,32.85,9.046,33.915,9.046,35.23C9.046,36.545,10.111,37.61,11.426,37.61Z"/>
</g>
  <g id="Thin-M" transform="matrix(1.0,0.0,0.0,1.0,823.4321811655406,1055.5400390625)">  <path stroke-opacity="1" fill="#000000" stroke-miterlimit="4" fill-opacity="1" stroke-linecap="round" stroke-dasharray="none" stroke-linejoin="round" fill-rule="nonzero" stroke="none" stroke-width="3px" d="M30.075,13.888L10.079,33.883C9.336,34.627,9.336,35.833,10.079,36.577L30.075,56.572C30.818,57.316,32.024,57.316,32.768,56.572C33.512,55.828,33.512,54.622,32.768,53.879L12.772,33.883L12.772,36.577L32.768,16.581C33.512,15.837,33.512,14.632,32.768,13.888C32.024,13.144,30.818,13.144,30.075,13.888Z"/>
  <path fill-rule="nonzero" stroke-linecap="round" stroke-miterlimit="4" fill="#000000" stroke-linejoin="round" stroke-dasharray="none" fill-opacity="1" stroke="none" stroke-opacity="1" stroke-width="3px" d="M11.426,37.134L57.13,37.134C58.181,37.134,59.034,36.282,59.034,35.23C59.034,34.178,58.181,33.326,57.13,33.326L11.426,33.326C10.374,33.326,9.522,34.178,9.522,35.23C9.522,36.282,10.374,37.134,11.426,37.134Z"/>
</g>
  <g id="Ultralight-M" transform="matrix(1.0,0.0,0.0,1.0,526.7221811655405,1055.5400390625)">  <path stroke-width="3px" stroke-linecap="round" stroke-dasharray="none" stroke="none" stroke-linejoin="round" fill-opacity="1" stroke-opacity="1" stroke-miterlimit="4" fill-rule="nonzero" fill="#000000" d="M30.411,14.225L10.416,34.22C9.858,34.778,9.858,35.682,10.416,36.24L30.411,56.235C30.969,56.793,31.873,56.793,32.431,56.235C32.989,55.678,32.989,54.773,32.431,54.215L12.436,34.22L12.436,36.24L32.431,16.245C32.989,15.687,32.989,14.782,32.431,14.225C31.873,13.667,30.969,13.667,30.411,14.225Z"/>
  <path fill-rule="nonzero" stroke="none" stroke-dasharray="none" fill-opacity="1" stroke-linejoin="round" stroke-miterlimit="4" stroke-opacity="1" stroke-width="3px" fill="#000000" stroke-linecap="round" d="M11.426,36.658L57.13,36.658C57.918,36.658,58.558,36.019,58.558,35.23C58.558,34.441,57.918,33.802,57.13,33.802L11.426,33.802C10.637,33.802,9.998,34.441,9.998,35.23C9.998,36.019,10.637,36.658,11.426,36.658Z"/>
</g>
  <g id="Black-S" transform="matrix(1.0,0.0,0.0,1.0,2907.840467852618,633.1849448242187)">  <path fill-opacity="1" stroke-linejoin="round" stroke="none" stroke-linecap="round" stroke-miterlimit="4" fill="#000000" stroke-width="3px" stroke-dasharray="none" stroke-opacity="1" fill-rule="nonzero" d="M21.108,8.433L5.451,24.09C3.521,26.02,3.521,29.15,5.451,31.08L21.108,46.737C23.038,48.667,26.168,48.667,28.098,46.737C30.028,44.806,30.028,41.677,28.098,39.746L12.442,24.09L12.442,31.08L28.098,15.424C30.028,13.494,30.028,10.364,28.098,8.433C26.168,6.503,23.038,6.503,21.108,8.433Z"/>
  <path stroke-dasharray="none" stroke-width="3px" fill-rule="nonzero" fill="#000000" stroke="none" stroke-linecap="round" stroke-opacity="1" fill-opacity="1" stroke-linejoin="round" stroke-miterlimit="4" d="M8.947,32.528L44.733,32.528C47.462,32.528,49.676,30.315,49.676,27.585C49.676,24.855,47.462,22.642,44.733,22.642L8.947,22.642C6.217,22.642,4.004,24.855,4.004,27.585C4.004,30.315,6.217,32.528,8.947,32.528Z"/>
</g>
  <g id="Heavy-S" transform="matrix(1.0,0.0,0.0,1.0,2611.130467852618,633.1849448242187)">  <path stroke-opacity="1" stroke-width="3px" stroke-dasharray="none" fill-rule="nonzero" stroke-linejoin="round" fill-opacity="1" fill="#000000" stroke-linecap="round" stroke-miterlimit="4" stroke="none" d="M21.49,8.816L5.834,24.473C4.115,26.192,4.115,28.979,5.834,30.698L21.49,46.354C23.209,48.073,25.996,48.073,27.715,46.354C29.434,44.635,29.434,41.848,27.715,40.129L12.059,24.473L12.059,30.698L27.715,15.041C29.434,13.322,29.434,10.535,27.715,8.816C25.996,7.097,23.209,7.097,21.49,8.816Z"/>
  <path fill-rule="nonzero" stroke="none" stroke-miterlimit="4" stroke-linejoin="round" stroke-dasharray="none" stroke-opacity="1" stroke-width="3px" fill-opacity="1" stroke-linecap="round" fill="#000000" d="M8.947,31.987L44.733,31.987C47.164,31.987,49.134,30.016,49.134,27.585C49.134,25.154,47.164,23.183,44.733,23.183L8.947,23.183C6.516,23.183,4.545,25.154,4.545,27.585C4.545,30.016,6.516,31.987,8.947,31.987Z"/>
</g>
  <g id="Bold-S" transform="matrix(1.0,0.0,0.0,1.0,2314.420467852618,633.1849448242187)">  <path stroke-opacity="1" stroke-linejoin="round" stroke-linecap="round" stroke-dasharray="none" fill-opacity="1" fill-rule="nonzero" fill="#000000" stroke-miterlimit="4" stroke="none" stroke-width="3px" d="M21.873,9.199L6.217,24.855C4.709,26.363,4.709,28.807,6.217,30.315L21.873,45.971C23.381,47.479,25.825,47.479,27.333,45.971C28.84,44.464,28.84,42.019,27.333,40.512L11.676,24.855L11.676,30.315L27.333,14.658C28.84,13.151,28.84,10.707,27.333,9.199C25.825,7.691,23.381,7.691,21.873,9.199Z"/>
  <path stroke-opacity="1" stroke-dasharray="none" fill-rule="nonzero" fill="#000000" stroke-width="3px" stroke-linejoin="round" stroke-miterlimit="4" stroke-linecap="round" stroke="none" fill-opacity="1" d="M8.947,31.445L44.733,31.445C46.865,31.445,48.593,29.717,48.593,27.585C48.593,25.453,46.865,23.725,44.733,23.725L8.947,23.725C6.814,23.725,5.086,25.453,5.086,27.585C5.086,29.717,6.814,31.445,8.947,31.445Z"/>
</g>
  <g id="Semibold-S" transform="matrix(1.0,0.0,0.0,1.0,2017.7104678526182,633.1849448242187)">  <path fill="#000000" stroke="none" stroke-miterlimit="4" fill-opacity="1" stroke-linejoin="round" stroke-width="3px" fill-rule="nonzero" stroke-dasharray="none" stroke-opacity="1" stroke-linecap="round" d="M22.256,9.582L6.6,25.238C5.303,26.534,5.303,28.636,6.6,29.932L22.256,45.588C23.552,46.885,25.654,46.885,26.95,45.588C28.246,44.292,28.246,42.191,26.95,40.894L11.294,25.238L11.294,29.932L26.95,14.276C28.246,12.979,28.246,10.878,26.95,9.582C25.654,8.285,23.552,8.285,22.256,9.582Z"/>
  <path fill-opacity="1" fill="#000000" stroke-linejoin="round" stroke="none" stroke-width="3px" stroke-opacity="1" stroke-dasharray="none" fill-rule="nonzero" stroke-linecap="round" stroke-miterlimit="4" d="M8.947,30.904L44.733,30.904C46.566,30.904,48.052,29.418,48.052,27.585C48.052,25.752,46.566,24.266,44.733,24.266L8.947,24.266C7.113,24.266,5.627,25.752,5.627,27.585C5.627,29.418,7.113,30.904,8.947,30.904Z"/>
</g>
  <g id="Medium-S" transform="matrix(1.0,0.0,0.0,1.0,1721.0004678526182,633.1849448242187)">  <path stroke="none" fill-rule="nonzero" fill="#000000" stroke-linecap="round" fill-opacity="1" stroke-linejoin="round" stroke-dasharray="none" stroke-opacity="1" stroke-miterlimit="4" stroke-width="3px" d="M22.639,9.964L6.982,25.621C5.897,26.706,5.897,28.465,6.982,29.549L22.639,45.206C23.723,46.291,25.482,46.291,26.567,45.206C27.652,44.121,27.652,42.362,26.567,41.277L10.911,25.621L10.911,29.549L26.567,13.893C27.652,12.808,27.652,11.049,26.567,9.964C25.482,8.88,23.723,8.88,22.639,9.964Z"/>
  <path fill-rule="nonzero" stroke-linecap="round" stroke-dasharray="none" stroke-linejoin="round" stroke-opacity="1" stroke-width="3px" stroke-miterlimit="4" fill="#000000" fill-opacity="1" stroke="none" d="M8.947,30.363L44.733,30.363C46.267,30.363,47.51,29.119,47.51,27.585C47.51,26.051,46.267,24.807,44.733,24.807L8.947,24.807C7.412,24.807,6.169,26.051,6.169,27.585C6.169,29.119,7.412,30.363,8.947,30.363Z"/>
</g>
  <g id="Regular-S" transform="matrix(1.0,0.0,0.0,1.0,1424.2904678526181,633.1849448242187)">  <path fill="#000000" stroke-width="3px" stroke-miterlimit="4" stroke-opacity="1" stroke-linejoin="round" stroke-dasharray="none" stroke-linecap="round" fill-opacity="1" stroke="none" fill-rule="nonzero" d="M23.021,10.347L7.365,26.004C6.492,26.877,6.492,28.293,7.365,29.167L23.021,44.823C23.895,45.696,25.311,45.696,26.184,44.823C27.058,43.95,27.058,42.533,26.184,41.66L10.528,26.004L10.528,29.167L26.184,13.51C27.058,12.637,27.058,11.221,26.184,10.347C25.311,9.474,23.895,9.474,23.021,10.347Z"/>
  <path stroke="none" stroke-linejoin="round" fill-opacity="1" stroke-dasharray="none" fill-rule="nonzero" stroke-linecap="round" stroke-opacity="1" stroke-miterlimit="4" fill="#000000" stroke-width="3px" d="M8.947,29.822L44.733,29.822C45.968,29.822,46.969,28.82,46.969,27.585C46.969,26.35,45.968,25.348,44.733,25.348L8.947,25.348C7.711,25.348,6.71,26.35,6.71,27.585C6.71,28.82,7.711,29.822,8.947,29.822Z"/>
</g>
  <g id="Light-S" transform="matrix(1.0,0.0,0.0,1.0,1127.5804678526183,633.1849448242187)">  <path stroke-miterlimit="4" fill-opacity="1" fill-rule="nonzero" stroke-dasharray="none" stroke="none" stroke-opacity="1" fill="#000000" stroke-width="3px" stroke-linecap="round" stroke-linejoin="round" d="M23.285,10.611L7.629,26.267C6.901,26.995,6.901,28.175,7.629,28.903L23.285,44.559C24.013,45.287,25.193,45.287,25.921,44.559C26.649,43.832,26.649,42.651,25.921,41.924L10.264,26.267L10.264,28.903L25.921,13.247C26.649,12.519,26.649,11.339,25.921,10.611C25.193,9.883,24.013,9.883,23.285,10.611Z"/>
  <path stroke-linecap="round" fill-opacity="1" fill-rule="nonzero" fill="#000000" stroke-opacity="1" stroke-miterlimit="4" stroke-linejoin="round" stroke="none" stroke-dasharray="none" stroke-width="3px" d="M8.947,29.449L44.733,29.449C45.762,29.449,46.596,28.614,46.596,27.585C46.596,26.556,45.762,25.721,44.733,25.721L8.947,25.721C7.917,25.721,7.083,26.556,7.083,27.585C7.083,28.614,7.917,29.449,8.947,29.449Z"/>
</g>
  <g id="Thin-S" transform="matrix(1.0,0.0,0.0,1.0,830.8704678526183,633.1849448242187)">  <path stroke-opacity="1" fill="#000000" stroke-miterlimit="4" fill-opacity="1" stroke-linecap="round" stroke-dasharray="none" stroke-linejoin="round" fill-rule="nonzero" stroke="none" stroke-width="3px" d="M23.549,10.874L7.892,26.531C7.31,27.113,7.31,28.057,7.892,28.639L23.549,44.296C24.131,44.878,25.075,44.878,25.657,44.296C26.24,43.714,26.24,42.769,25.657,42.187L10.001,26.531L10.001,28.639L25.657,12.983C26.24,12.401,26.24,11.457,25.657,10.874C25.075,10.292,24.131,10.292,23.549,10.874Z"/>
  <path fill-rule="nonzero" stroke-linecap="round" stroke-miterlimit="4" fill="#000000" stroke-linejoin="round" stroke-dasharray="none" fill-opacity="1" stroke="none" stroke-opacity="1" stroke-width="3px" d="M8.947,29.076L44.733,29.076C45.556,29.076,46.224,28.409,46.224,27.585C46.224,26.762,45.556,26.094,44.733,26.094L8.947,26.094C8.123,26.094,7.455,26.762,7.455,27.585C7.455,28.409,8.123,29.076,8.947,29.076Z"/>
</g>
  <g id="Ultralight-S" transform="matrix(1.0,0.0,0.0,1.0,534.1604678526182,633.1849448242187)">  <path stroke-width="3px" stroke-linecap="round" stroke-dasharray="none" stroke="none" stroke-linejoin="round" fill-opacity="1" stroke-opacity="1" stroke-miterlimit="4" fill-rule="nonzero" fill="#000000" d="M23.812,11.138L8.156,26.794C7.719,27.231,7.719,27.939,8.156,28.376L23.812,44.032C24.249,44.469,24.957,44.469,25.394,44.032C25.83,43.596,25.83,42.887,25.394,42.451L9.737,26.794L9.737,28.376L25.394,12.719C25.83,12.283,25.83,11.575,25.394,11.138C24.957,10.701,24.249,10.701,23.812,11.138Z"/>
  <path fill-rule="nonzero" stroke="none" stroke-dasharray="none" fill-opacity="1" stroke-linejoin="round" stroke-miterlimit="4" stroke-opacity="1" stroke-width="3px" fill="#000000" stroke-linecap="round" d="M8.947,28.703L44.733,28.703C45.35,28.703,45.851,28.203,45.851,27.585C45.851,26.967,45.35,26.467,44.733,26.467L8.947,26.467C8.329,26.467,7.828,26.967,7.828,27.585C7.828,28.203,8.329,28.703,8.947,28.703Z"/>
</g>
 </g>
</svg>
