<?xml version="1.0" encoding="UTF-8"?>
<!-- Generator: CustomSymbols v2.6.2.41 by @serious_bret https://bretlester.com/app_content/CustomSymbols/ -->
<!-- Guides: Left/Right 0.0/0.0 Cap/Base 0.227/0.127 -->
<!-- Settings: RefScale 1.0 Min/Max Stroke Scales 0.5/2.21 -->
<!DOCTYPE svg
PUBLIC "-//W3C//DTD SVG 1.1//EN"
       "http://www.w3.org/Graphics/SVG/1.1/DTD/svg11.dtd">
<svg version="1.1" xmlns="http://www.w3.org/2000/svg" xmlns:xlink="http://www.w3.org/1999/xlink" width="3300" height="2200">
<![CDATA[<svg width="22" height="28" viewBox="0 0 22 28" fill="none" xmlns="http://www.w3.org/2000/svg">
<path d="M20.4273 12.6715C19.839 11.3041 18.9838 10.0767 17.9151 9.06625L17.0333 8.23067C17.0034 8.20307 16.9673 8.18349 16.9284 8.17364C16.8894 8.16379 16.8487 8.16397 16.8098 8.17416C16.7709 8.18436 16.735 8.20426 16.7053 8.23212C16.6756 8.25998 16.6529 8.29494 16.6394 8.33394L16.2454 9.50126C16 10.2336 15.5485 10.9815 14.9091 11.717C14.8667 11.7639 14.8182 11.7764 14.7848 11.7796C14.7515 11.7827 14.7 11.7764 14.6545 11.7326C14.6121 11.6951 14.5909 11.6387 14.5939 11.5824C14.706 9.69842 14.1606 7.57346 12.9667 5.26073C11.9788 3.33919 10.606 1.84014 8.8909 0.794867L7.63939 0.0343879C7.47575 -0.0657575 7.26666 0.0656832 7.27575 0.262845L7.34242 1.76503C7.38787 2.79152 7.27272 3.69908 6.99999 4.45331C6.66666 5.37652 6.18787 6.23402 5.57575 7.00388C5.14976 7.53892 4.66694 8.02286 4.13636 8.4466C2.8585 9.4611 1.81943 10.761 1.09697 12.249C0.376284 13.75 0.000879274 15.4025 0 17.0779C0 18.555 0.281818 19.9852 0.839393 21.3341C1.37778 22.6327 2.15472 23.8113 3.12727 24.8047C4.10909 25.8062 5.24848 26.5948 6.51818 27.1425C7.83333 27.7121 9.22726 28 10.6667 28C12.106 28 13.5 27.7121 14.8151 27.1456C16.0817 26.6012 17.2335 25.8071 18.206 24.8079C19.1879 23.8064 19.9576 22.636 20.4939 21.3372C21.0507 19.9921 21.3363 18.5439 21.3333 17.081C21.3333 15.5538 21.0303 14.0704 20.4273 12.6715Z" fill="#FF9500"/>
</svg>
]]>
 <g id="Notes">
  <rect height="2200" id="artboard" style="fill:white;opacity:1" width="3300" x="0" y="0"/>
  <line id="" style="fill:none;stroke:black;opacity:1;stroke-width:0.5;" x1="263" x2="3036" y1="292" y2="292"/>
  <text id="reftext1" style="stroke:none;fill:black;font-family:-apple-system,&quot;SF Pro Display&quot;,&quot;SF Pro Text&quot;,Helvetica,sans-serif;font-weight:bold;" transform="matrix(1 0 0 1 263 322)">Weight/Scale Variations</text>
  <text id="reftext2" style="stroke:none;fill:black;font-family:-apple-system,&quot;SF Pro Display&quot;,&quot;SF Pro Text&quot;,Helvetica,sans-serif;text-anchor:middle;" transform="matrix(1 0 0 1 559.711 322)">Ultralight</text>
  <text style="stroke:none;fill:black;font-family:-apple-system,&quot;SF Pro Display&quot;,&quot;SF Pro Text&quot;,Helvetica,sans-serif;text-anchor:middle;" transform="matrix(1 0 0 1 856.422 322)">Thin</text>
  <text style="stroke:none;fill:black;font-family:-apple-system,&quot;SF Pro Display&quot;,&quot;SF Pro Text&quot;,Helvetica,sans-serif;text-anchor:middle;" transform="matrix(1 0 0 1 1153.13 322)">Light</text>
  <text style="stroke:none;fill:black;font-family:-apple-system,&quot;SF Pro Display&quot;,&quot;SF Pro Text&quot;,Helvetica,sans-serif;text-anchor:middle;" transform="matrix(1 0 0 1 1449.84 322)">Regular</text>
  <text style="stroke:none;fill:black;font-family:-apple-system,&quot;SF Pro Display&quot;,&quot;SF Pro Text&quot;,Helvetica,sans-serif;text-anchor:middle;" transform="matrix(1 0 0 1 1746.56 322)">Medium</text>
  <text style="stroke:none;fill:black;font-family:-apple-system,&quot;SF Pro Display&quot;,&quot;SF Pro Text&quot;,Helvetica,sans-serif;text-anchor:middle;" transform="matrix(1 0 0 1 2043.27 322)">Semibold</text>
  <text style="stroke:none;fill:black;font-family:-apple-system,&quot;SF Pro Display&quot;,&quot;SF Pro Text&quot;,Helvetica,sans-serif;text-anchor:middle;" transform="matrix(1 0 0 1 2339.98 322)">Bold</text>
  <text style="stroke:none;fill:black;font-family:-apple-system,&quot;SF Pro Display&quot;,&quot;SF Pro Text&quot;,Helvetica,sans-serif;text-anchor:middle;" transform="matrix(1 0 0 1 2636.69 322)">Heavy</text>
  <text style="stroke:none;fill:black;font-family:-apple-system,&quot;SF Pro Display&quot;,&quot;SF Pro Text&quot;,Helvetica,sans-serif;text-anchor:middle;" transform="matrix(1 0 0 1 2933.4 322)">Black</text>
  <line id="" style="fill:none;stroke:black;opacity:1;stroke-width:0.5;" x1="263" x2="3036" y1="1903" y2="1903"/>
  <g id="" transform="matrix(1 0 0 1 263 1933)">
   <path d="M9.24805 0.830078C13.5547 0.830078 17.1387-2.74414 17.1387-7.05078C17.1387-11.3574 13.5449-14.9316 9.23828-14.9316C4.94141-14.9316 1.36719-11.3574 1.36719-7.05078C1.36719-2.74414 4.95117 0.830078 9.24805 0.830078ZM9.24805-0.654297C5.70312-0.654297 2.87109-3.49609 2.87109-7.05078C2.87109-10.6055 5.69336-13.4473 9.23828-13.4473C12.793-13.4473 15.6348-10.6055 15.6445-7.05078C15.6543-3.49609 12.8027-0.654297 9.24805-0.654297ZM6.39648-6.31836L8.50586-6.31836L8.50586-4.19922C8.50586-3.75977 8.79883-3.45703 9.22852-3.45703C9.67773-3.45703 9.9707-3.75977 9.9707-4.19922L9.9707-6.31836L12.0996-6.31836C12.5391-6.31836 12.8418-6.61133 12.8418-7.04102C12.8418-7.48047 12.5391-7.7832 12.0996-7.7832L9.9707-7.7832L9.9707-9.89258C9.9707-10.3418 9.67773-10.6445 9.22852-10.6445C8.79883-10.6445 8.50586-10.3418 8.50586-9.89258L8.50586-7.7832L6.39648-7.7832C5.94727-7.7832 5.64453-7.48047 5.64453-7.04102C5.64453-6.61133 5.94727-6.31836 6.39648-6.31836Z"/>
  </g>
  <g id="" transform="matrix(1 0 0 1 281.506 1933)">
   <path d="M11.709 2.91016C17.1582 2.91016 21.6699-1.61133 21.6699-7.05078C21.6699-12.5 17.1484-17.0117 11.6992-17.0117C6.25977-17.0117 1.74805-12.5 1.74805-7.05078C1.74805-1.61133 6.26953 2.91016 11.709 2.91016ZM11.709 1.25C7.09961 1.25 3.41797-2.44141 3.41797-7.05078C3.41797-11.6602 7.08984-15.3516 11.6992-15.3516C16.3086-15.3516 20-11.6602 20.0098-7.05078C20.0195-2.44141 16.3184 1.25 11.709 1.25ZM7.98828-6.23047L10.8789-6.23047L10.8789-3.32031C10.8789-2.83203 11.2109-2.5 11.6895-2.5C12.1777-2.5 12.5195-2.83203 12.5195-3.32031L12.5195-6.23047L15.4297-6.23047C15.918-6.23047 16.25-6.5625 16.25-7.04102C16.25-7.5293 15.918-7.87109 15.4297-7.87109L12.5195-7.87109L12.5195-10.7617C12.5195-11.2695 12.1777-11.6016 11.6895-11.6016C11.2109-11.6016 10.8789-11.2598 10.8789-10.7617L10.8789-7.87109L7.98828-7.87109C7.48047-7.87109 7.14844-7.5293 7.14844-7.04102C7.14844-6.5625 7.49023-6.23047 7.98828-6.23047Z"/>
  </g>
  <g id="" transform="matrix(1 0 0 1 304.924 1933)">
   <path d="M14.9707 5.66406C21.9336 5.66406 27.6953-0.0976562 27.6953-7.05078C27.6953-14.0137 21.9238-19.7754 14.9609-19.7754C8.00781-19.7754 2.25586-14.0137 2.25586-7.05078C2.25586-0.0976562 8.01758 5.66406 14.9707 5.66406ZM14.9707 3.84766C8.93555 3.84766 4.08203-1.01562 4.08203-7.05078C4.08203-13.0957 8.92578-17.9492 14.9609-17.9492C21.0059-17.9492 25.8594-13.0957 25.8691-7.05078C25.8789-1.01562 21.0156 3.84766 14.9707 3.84766ZM10.0586-6.14258L14.0625-6.14258L14.0625-2.12891C14.0625-1.5918 14.4336-1.2207 14.9512-1.2207C15.4883-1.2207 15.8594-1.5918 15.8594-2.12891L15.8594-6.14258L19.8828-6.14258C20.4102-6.14258 20.791-6.51367 20.791-7.03125C20.791-7.56836 20.4199-7.94922 19.8828-7.94922L15.8594-7.94922L15.8594-11.9531C15.8594-12.5098 15.4883-12.8809 14.9512-12.8809C14.4336-12.8809 14.0625-12.5 14.0625-11.9531L14.0625-7.94922L10.0586-7.94922C9.50195-7.94922 9.13086-7.56836 9.13086-7.03125C9.13086-6.51367 9.51172-6.14258 10.0586-6.14258Z"/>
  </g>
  <text style="stroke:none;fill:black;font-family:-apple-system,&quot;SF Pro Display&quot;,&quot;SF Pro Text&quot;,Helvetica,sans-serif;font-weight:bold;" transform="matrix(1 0 0 1 263 1953)">Design Variations</text>
  <text style="stroke:none;fill:black;font-family:-apple-system,&quot;SF Pro Display&quot;,&quot;SF Pro Text&quot;,Helvetica,sans-serif;" transform="matrix(1 0 0 1 263 1971)">Symbols are supported in up to nine weights and three scales.</text>
  <text style="stroke:none;fill:black;font-family:-apple-system,&quot;SF Pro Display&quot;,&quot;SF Pro Text&quot;,Helvetica,sans-serif;" transform="matrix(1 0 0 1 263 1989)">For optimal layout with text and other symbols, vertically align</text>
  <text style="stroke:none;fill:black;font-family:-apple-system,&quot;SF Pro Display&quot;,&quot;SF Pro Text&quot;,Helvetica,sans-serif;" transform="matrix(1 0 0 1 263 2007)">symbols with the adjacent text.</text>
  <line id="" style="fill:none;stroke:#00AEEF;stroke-width:0.5;opacity:1.0;" x1="776" x2="776" y1="1919" y2="1933"/>
  <g id="" transform="matrix(1 0 0 1 776 1933)">
   <path d="M3.31055 0.126953C3.82812 0.126953 4.08203-0.0683594 4.26758-0.605469L5.52734-4.0625L11.2891-4.0625L12.5488-0.605469C12.7344-0.0683594 12.9883 0.126953 13.4961 0.126953C14.0137 0.126953 14.3457-0.185547 14.3457-0.673828C14.3457-0.839844 14.3164-0.986328 14.2383-1.20117L9.6582-13.3887C9.43359-13.9941 9.0332-14.2871 8.4082-14.2871C7.80273-14.2871 7.39258-13.9941 7.17773-13.3984L2.59766-1.19141C2.51953-0.976562 2.49023-0.830078 2.49023-0.664062C2.49023-0.175781 2.80273 0.126953 3.31055 0.126953ZM6.00586-5.53711L8.37891-12.1094L8.42773-12.1094L10.8008-5.53711Z"/>
  </g>
  <line id="" style="fill:none;stroke:#00AEEF;stroke-width:0.5;opacity:1.0;" x1="792.836" x2="792.836" y1="1919" y2="1933"/>
  <text style="stroke:none;fill:black;font-family:-apple-system,&quot;SF Pro Display&quot;,&quot;SF Pro Text&quot;,Helvetica,sans-serif;font-weight:bold;" transform="matrix(1 0 0 1 776 1953)">Margins</text>
  <text style="stroke:none;fill:black;font-family:-apple-system,&quot;SF Pro Display&quot;,&quot;SF Pro Text&quot;,Helvetica,sans-serif;" transform="matrix(1 0 0 1 776 1971)">Leading and trailing margins on the left and right side of each symbol</text>
  <text style="stroke:none;fill:black;font-family:-apple-system,&quot;SF Pro Display&quot;,&quot;SF Pro Text&quot;,Helvetica,sans-serif;" transform="matrix(1 0 0 1 776 1989)">can be adjusted by modifying the x-location of the margin guidelines.</text>
  <text style="stroke:none;fill:black;font-family:-apple-system,&quot;SF Pro Display&quot;,&quot;SF Pro Text&quot;,Helvetica,sans-serif;" transform="matrix(1 0 0 1 776 2007)">Modifications are automatically applied proportionally to all</text>
  <text style="stroke:none;fill:black;font-family:-apple-system,&quot;SF Pro Display&quot;,&quot;SF Pro Text&quot;,Helvetica,sans-serif;" transform="matrix(1 0 0 1 776 2025)">scales and weights.</text>
  <g id="" transform="matrix(1 0 0 1 1289 1933)">
   <path d="M2.8418 1.86523L4.54102 3.57422C5.40039 4.44336 6.38672 4.38477 7.31445 3.35938L17.4902-7.85156C17.7539-7.76367 18.0273-7.7832 18.3398-7.8418L19.4043-8.03711L20.0684-7.36328L20.0293-6.80664C19.9902-6.30859 20.1172-5.92773 20.6055-5.44922L21.3672-4.70703C21.8457-4.22852 22.4609-4.19922 22.9297-4.66797L25.8398-7.58789C26.3086-8.05664 26.2891-8.65234 25.8105-9.13086L25.0391-9.89258C24.5605-10.3711 24.1895-10.5273 23.7109-10.4883L23.1348-10.4395L22.4902-11.0742L22.7344-12.1973C22.8613-12.7637 22.7051-13.2031 22.1191-13.7891L19.9219-15.9766C16.582-19.2969 12.1484-19.2188 9.25781-16.3281C8.83789-15.918 8.80859-15.3418 9.04297-14.9512C9.27734-14.5898 9.73633-14.3555 10.3809-14.5215C11.8457-14.8633 13.3691-14.9219 14.7949-13.9844L14.209-12.5293C14.0137-12.0508 13.9844-11.6504 14.1113-11.2891L3.04688-0.898438C2.06055 0.0195312 1.98242 0.996094 2.8418 1.86523ZM10.752-15.957C13.1836-17.7344 16.4746-17.4316 18.7012-15.2051L21.1328-12.793C21.3672-12.5586 21.4062-12.373 21.3379-12.0312L21.0156-10.5469L22.5195-9.0625L23.5059-9.12109C23.7598-9.13086 23.8379-9.11133 24.0332-8.91602L24.6094-8.33984L22.168-5.89844L21.5918-6.47461C21.3965-6.66992 21.3672-6.74805 21.377-7.01172L21.4453-7.98828L19.9512-9.47266L18.4277-9.21875C18.1055-9.15039 17.959-9.17969 17.7148-9.41406L15.7129-11.416C15.459-11.6504 15.4297-11.8164 15.5859-12.1875L16.4648-14.2773C14.9023-15.7324 12.8711-16.3574 10.8398-15.7617C10.6836-15.7227 10.625-15.8496 10.752-15.957ZM5.27344 2.30469L4.10156 1.14258C3.63281 0.683594 3.74023 0.341797 4.14062-0.0195312L14.9512-10.1953L16.416-8.71094L6.42578 2.27539C6.07422 2.67578 5.74219 2.77344 5.27344 2.30469Z"/>
  </g>
  <text style="stroke:none;fill:black;font-family:-apple-system,&quot;SF Pro Display&quot;,&quot;SF Pro Text&quot;,Helvetica,sans-serif;font-weight:bold;" transform="matrix(1 0 0 1 1289 1953)">Exporting</text>
  <text style="stroke:none;fill:black;font-family:-apple-system,&quot;SF Pro Display&quot;,&quot;SF Pro Text&quot;,Helvetica,sans-serif;" transform="matrix(1 0 0 1 1289 1971)">Symbols should be outlined when exporting to ensure the</text>
  <text style="stroke:none;fill:black;font-family:-apple-system,&quot;SF Pro Display&quot;,&quot;SF Pro Text&quot;,Helvetica,sans-serif;" transform="matrix(1 0 0 1 1289 1989)">design is preserved when submitting to Xcode.</text>
  <text id="template-version" style="stroke:none;fill:black;font-family:-apple-system,&quot;SF Pro Display&quot;,&quot;SF Pro Text&quot;,Helvetica,sans-serif;text-anchor:end;" transform="matrix(1 0 0 1 3036 1933)">Template v.2.0</text>
  <text style="stroke:none;fill:black;font-family:-apple-system,&quot;SF Pro Display&quot;,&quot;SF Pro Text&quot;,Helvetica,sans-serif;text-anchor:end;" transform="matrix(1 0 0 1 3036 1951)">Requires Xcode 12 or greater</text>
  <text style="stroke:none;fill:black;font-family:-apple-system,&quot;SF Pro Display&quot;,&quot;SF Pro Text&quot;,Helvetica,sans-serif;" transform="matrix(1 0 0 1 263 726)">Small</text>
  <text style="stroke:none;fill:black;font-family:-apple-system,&quot;SF Pro Display&quot;,&quot;SF Pro Text&quot;,Helvetica,sans-serif;" transform="matrix(1 0 0 1 263 1156)">Medium</text>
  <text style="stroke:none;fill:black;font-family:-apple-system,&quot;SF Pro Display&quot;,&quot;SF Pro Text&quot;,Helvetica,sans-serif;" transform="matrix(1 0 0 1 263 1586)">Large</text>
 </g>
 <g id="Guides">
  <g id="H-reference" style="fill:#27AAE1;stroke:none;" transform="matrix(1 0 0 1 339 696)">
   <path d="M0.976562 0L3.66211 0L12.9883-24.4629L45.752-24.4629L55.127 0L57.7637 0L30.6152-70.459L28.125-70.459ZM29.3457-67.1387L29.4434-67.1387L44.873-26.709L13.8672-26.709Z"/>
  </g>
  <line id="Baseline-S" style="fill:none;stroke:#27AAE1;opacity:1;stroke-width:0.5;" x1="263" x2="3036" y1="696" y2="696"/>
  <line id="Capline-S" style="fill:none;stroke:#27AAE1;opacity:1;stroke-width:0.5;" x1="263" x2="3036" y1="625.541" y2="625.541"/>
  <g id="H-reference" style="fill:#27AAE1;stroke:none;" transform="matrix(1 0 0 1 339 1126)">
   <path d="M0.976562 0L3.66211 0L12.9883-24.4629L45.752-24.4629L55.127 0L57.7637 0L30.6152-70.459L28.125-70.459ZM29.3457-67.1387L29.4434-67.1387L44.873-26.709L13.8672-26.709Z"/>
  </g>
  <line id="Baseline-M" style="fill:none;stroke:#27AAE1;opacity:1;stroke-width:0.5;" x1="263" x2="3036" y1="1126" y2="1126"/>
  <line id="Capline-M" style="fill:none;stroke:#27AAE1;opacity:1;stroke-width:0.5;" x1="263" x2="3036" y1="1055.54" y2="1055.54"/>
  <g id="H-reference" style="fill:#27AAE1;stroke:none;" transform="matrix(1 0 0 1 339 1556)">
   <path d="M0.976562 0L3.66211 0L12.9883-24.4629L45.752-24.4629L55.127 0L57.7637 0L30.6152-70.459L28.125-70.459ZM29.3457-67.1387L29.4434-67.1387L44.873-26.709L13.8672-26.709Z"/>
  </g>
  <line id="Baseline-L" style="fill:none;stroke:#27AAE1;opacity:1;stroke-width:0.5;" x1="263" x2="3036" y1="1556" y2="1556"/>
  <line id="Capline-L" style="fill:none;stroke:#27AAE1;opacity:1;stroke-width:0.5;" x1="263" x2="3036" y1="1485.54" y2="1485.54"/>
  <line id="left-margin" x1="1408.280620836328" x2="1408.280620836328" y1="1030.79" y2="1150.12" style="fill:none;stroke:#00AEEF;stroke-width:0.5;opacity:1.0;"/>
  <line id="right-margin" x1="1493.9793791636719" x2="1493.9793791636719" y1="1030.79" y2="1150.12" style="fill:none;stroke:#00AEEF;stroke-width:0.5;opacity:1.0;"/>
 </g>
 <g id="Symbols">
  <g id="Black-L" transform="matrix(1.0,0.0,0.0,1.0,2879.404300878863,1443.3840407616583)">  <path stroke-opacity="1" stroke-miterlimit="4" stroke-linejoin="miter" fill-rule="nonzero" stroke="none" stroke-width="1px" stroke-linecap="butt" fill="#000000" fill-opacity="1" stroke-dasharray="none" d="M102.648,63.675C99.692,56.804,95.395,50.636,90.025,45.558L85.593,41.36C85.443,41.221,85.262,41.123,85.066,41.073C84.87,41.024,84.666,41.024,84.47,41.076C84.275,41.127,84.094,41.227,83.945,41.367C83.796,41.507,83.682,41.683,83.614,41.879L81.634,47.744C80.401,51.424,78.132,55.183,74.919,58.879C74.706,59.114,74.462,59.177,74.295,59.193C74.127,59.209,73.868,59.177,73.64,58.957C73.427,58.769,73.32,58.485,73.335,58.202C73.899,48.735,71.158,38.057,65.158,26.436C60.194,16.78,53.296,9.247,44.677,3.994L38.388,0.173C37.566,-0.33,36.515,0.33,36.561,1.321L36.896,8.869C37.125,14.028,36.546,18.588,35.175,22.378C33.5,27.017,31.094,31.326,28.018,35.195C25.878,37.884,23.452,40.315,20.785,42.445C14.364,47.543,9.143,54.075,5.512,61.552C1.891,69.095,0.004,77.399,0,85.818C0,93.24,1.416,100.427,4.218,107.205C6.923,113.731,10.828,119.653,15.715,124.645C20.648,129.678,26.374,133.641,32.754,136.393C39.363,139.255,46.368,140.702,53.601,140.702C60.833,140.702,67.838,139.255,74.447,136.408C80.812,133.673,86.599,129.682,91.486,124.661C96.42,119.629,100.288,113.747,102.983,107.221C105.781,100.462,107.216,93.184,107.201,85.833C107.201,78.159,105.679,70.705,102.648,63.675ZM102.648,63.675"/>
</g>
  <g id="Heavy-L" transform="matrix(1.0,0.0,0.0,1.0,2582.694300878863,1443.3840407616583)">  <path stroke-opacity="1" fill="#000000" stroke-linecap="butt" fill-opacity="1" stroke-dasharray="none" fill-rule="nonzero" stroke="none" stroke-width="1px" stroke-linejoin="miter" stroke-miterlimit="4" d="M102.648,63.675C99.692,56.804,95.395,50.636,90.025,45.558L85.593,41.36C85.443,41.221,85.262,41.123,85.066,41.073C84.87,41.024,84.666,41.024,84.47,41.076C84.275,41.127,84.094,41.227,83.945,41.367C83.796,41.507,83.682,41.683,83.614,41.879L81.634,47.744C80.401,51.424,78.132,55.183,74.919,58.879C74.706,59.114,74.462,59.177,74.295,59.193C74.127,59.209,73.868,59.177,73.64,58.957C73.427,58.769,73.32,58.485,73.335,58.202C73.899,48.735,71.158,38.057,65.158,26.436C60.194,16.78,53.296,9.247,44.677,3.994L38.388,0.173C37.566,-0.33,36.515,0.33,36.561,1.321L36.896,8.869C37.125,14.028,36.546,18.588,35.175,22.378C33.5,27.017,31.094,31.326,28.018,35.195C25.878,37.884,23.452,40.315,20.785,42.445C14.364,47.543,9.143,54.075,5.512,61.552C1.891,69.095,0.004,77.399,0,85.818C0,93.24,1.416,100.427,4.218,107.205C6.923,113.731,10.828,119.653,15.715,124.645C20.648,129.678,26.374,133.641,32.754,136.393C39.363,139.255,46.368,140.702,53.601,140.702C60.833,140.702,67.838,139.255,74.447,136.408C80.812,133.673,86.599,129.682,91.486,124.661C96.42,119.629,100.288,113.747,102.983,107.221C105.781,100.462,107.216,93.184,107.201,85.833C107.201,78.159,105.679,70.705,102.648,63.675ZM102.648,63.675"/>
</g>
  <g id="Bold-L" transform="matrix(1.0,0.0,0.0,1.0,2285.984300878863,1443.3840407616583)">  <path stroke-dasharray="none" stroke="none" fill-opacity="1" stroke-opacity="1" fill-rule="nonzero" stroke-miterlimit="4" stroke-width="1px" stroke-linejoin="miter" fill="#000000" stroke-linecap="butt" d="M102.648,63.675C99.692,56.804,95.395,50.636,90.025,45.558L85.593,41.36C85.443,41.221,85.262,41.123,85.066,41.073C84.87,41.024,84.666,41.024,84.47,41.076C84.275,41.127,84.094,41.227,83.945,41.367C83.796,41.507,83.682,41.683,83.614,41.879L81.634,47.744C80.401,51.424,78.132,55.183,74.919,58.879C74.706,59.114,74.462,59.177,74.295,59.193C74.127,59.209,73.868,59.177,73.64,58.957C73.427,58.769,73.32,58.485,73.335,58.202C73.899,48.735,71.158,38.057,65.158,26.436C60.194,16.78,53.296,9.247,44.677,3.994L38.388,0.173C37.566,-0.33,36.515,0.33,36.561,1.321L36.896,8.869C37.125,14.028,36.546,18.588,35.175,22.378C33.5,27.017,31.094,31.326,28.018,35.195C25.878,37.884,23.452,40.315,20.785,42.445C14.364,47.543,9.143,54.075,5.512,61.552C1.891,69.095,0.004,77.399,0,85.818C0,93.24,1.416,100.427,4.218,107.205C6.923,113.731,10.828,119.653,15.715,124.645C20.648,129.678,26.374,133.641,32.754,136.393C39.363,139.255,46.368,140.702,53.601,140.702C60.833,140.702,67.838,139.255,74.447,136.408C80.812,133.673,86.599,129.682,91.486,124.661C96.42,119.629,100.288,113.747,102.983,107.221C105.781,100.462,107.216,93.184,107.201,85.833C107.201,78.159,105.679,70.705,102.648,63.675ZM102.648,63.675"/>
</g>
  <g id="Semibold-L" transform="matrix(1.0,0.0,0.0,1.0,1989.274300878863,1443.3840407616583)">  <path stroke-width="1px" stroke-dasharray="none" fill-rule="nonzero" fill="#000000" stroke-linejoin="miter" stroke-opacity="1" fill-opacity="1" stroke="none" stroke-linecap="butt" stroke-miterlimit="4" d="M102.648,63.675C99.692,56.804,95.395,50.636,90.025,45.558L85.593,41.36C85.443,41.221,85.262,41.123,85.066,41.073C84.87,41.024,84.666,41.024,84.47,41.076C84.275,41.127,84.094,41.227,83.945,41.367C83.796,41.507,83.682,41.683,83.614,41.879L81.634,47.744C80.401,51.424,78.132,55.183,74.919,58.879C74.706,59.114,74.462,59.177,74.295,59.193C74.127,59.209,73.868,59.177,73.64,58.957C73.427,58.769,73.32,58.485,73.335,58.202C73.899,48.735,71.158,38.057,65.158,26.436C60.194,16.78,53.296,9.247,44.677,3.994L38.388,0.173C37.566,-0.33,36.515,0.33,36.561,1.321L36.896,8.869C37.125,14.028,36.546,18.588,35.175,22.378C33.5,27.017,31.094,31.326,28.018,35.195C25.878,37.884,23.452,40.315,20.785,42.445C14.364,47.543,9.143,54.075,5.512,61.552C1.891,69.095,0.004,77.399,0,85.818C0,93.24,1.416,100.427,4.218,107.205C6.923,113.731,10.828,119.653,15.715,124.645C20.648,129.678,26.374,133.641,32.754,136.393C39.363,139.255,46.368,140.702,53.601,140.702C60.833,140.702,67.838,139.255,74.447,136.408C80.812,133.673,86.599,129.682,91.486,124.661C96.42,119.629,100.288,113.747,102.983,107.221C105.781,100.462,107.216,93.184,107.201,85.833C107.201,78.159,105.679,70.705,102.648,63.675ZM102.648,63.675"/>
</g>
  <g id="Medium-L" transform="matrix(1.0,0.0,0.0,1.0,1692.564300878863,1443.3840407616583)">  <path stroke-dasharray="none" stroke="none" stroke-opacity="1" fill="#000000" stroke-miterlimit="4" stroke-linejoin="miter" fill-opacity="1" stroke-width="1px" stroke-linecap="butt" fill-rule="nonzero" d="M102.648,63.675C99.692,56.804,95.395,50.636,90.025,45.558L85.593,41.36C85.443,41.221,85.262,41.123,85.066,41.073C84.87,41.024,84.666,41.024,84.47,41.076C84.275,41.127,84.094,41.227,83.945,41.367C83.796,41.507,83.682,41.683,83.614,41.879L81.634,47.744C80.401,51.424,78.132,55.183,74.919,58.879C74.706,59.114,74.462,59.177,74.295,59.193C74.127,59.209,73.868,59.177,73.64,58.957C73.427,58.769,73.32,58.485,73.335,58.202C73.899,48.735,71.158,38.057,65.158,26.436C60.194,16.78,53.296,9.247,44.677,3.994L38.388,0.173C37.566,-0.33,36.515,0.33,36.561,1.321L36.896,8.869C37.125,14.028,36.546,18.588,35.175,22.378C33.5,27.017,31.094,31.326,28.018,35.195C25.878,37.884,23.452,40.315,20.785,42.445C14.364,47.543,9.143,54.075,5.512,61.552C1.891,69.095,0.004,77.399,0,85.818C0,93.24,1.416,100.427,4.218,107.205C6.923,113.731,10.828,119.653,15.715,124.645C20.648,129.678,26.374,133.641,32.754,136.393C39.363,139.255,46.368,140.702,53.601,140.702C60.833,140.702,67.838,139.255,74.447,136.408C80.812,133.673,86.599,129.682,91.486,124.661C96.42,119.629,100.288,113.747,102.983,107.221C105.781,100.462,107.216,93.184,107.201,85.833C107.201,78.159,105.679,70.705,102.648,63.675ZM102.648,63.675"/>
</g>
  <g id="Regular-L" transform="matrix(1.0,0.0,0.0,1.0,1395.854300878863,1443.3840407616583)">  <path stroke-dasharray="none" fill-rule="nonzero" stroke="none" stroke-opacity="1" stroke-linejoin="miter" fill="#000000" stroke-miterlimit="4" fill-opacity="1" stroke-width="1px" stroke-linecap="butt" d="M102.648,63.675C99.692,56.804,95.395,50.636,90.025,45.558L85.593,41.36C85.443,41.221,85.262,41.123,85.066,41.073C84.87,41.024,84.666,41.024,84.47,41.076C84.275,41.127,84.094,41.227,83.945,41.367C83.796,41.507,83.682,41.683,83.614,41.879L81.634,47.744C80.401,51.424,78.132,55.183,74.919,58.879C74.706,59.114,74.462,59.177,74.295,59.193C74.127,59.209,73.868,59.177,73.64,58.957C73.427,58.769,73.32,58.485,73.335,58.202C73.899,48.735,71.158,38.057,65.158,26.436C60.194,16.78,53.296,9.247,44.677,3.994L38.388,0.173C37.566,-0.33,36.515,0.33,36.561,1.321L36.896,8.869C37.125,14.028,36.546,18.588,35.175,22.378C33.5,27.017,31.094,31.326,28.018,35.195C25.878,37.884,23.452,40.315,20.785,42.445C14.364,47.543,9.143,54.075,5.512,61.552C1.891,69.095,0.004,77.399,0,85.818C0,93.24,1.416,100.427,4.218,107.205C6.923,113.731,10.828,119.653,15.715,124.645C20.648,129.678,26.374,133.641,32.754,136.393C39.363,139.255,46.368,140.702,53.601,140.702C60.833,140.702,67.838,139.255,74.447,136.408C80.812,133.673,86.599,129.682,91.486,124.661C96.42,119.629,100.288,113.747,102.983,107.221C105.781,100.462,107.216,93.184,107.201,85.833C107.201,78.159,105.679,70.705,102.648,63.675ZM102.648,63.675"/>
</g>
  <g id="Light-L" transform="matrix(1.0,0.0,0.0,1.0,1099.144300878863,1443.3840407616583)">  <path stroke-linejoin="miter" stroke-dasharray="none" stroke-linecap="butt" fill-opacity="1" fill-rule="nonzero" fill="#000000" stroke-opacity="1" stroke-miterlimit="4" stroke-width="1px" stroke="none" d="M102.648,63.675C99.692,56.804,95.395,50.636,90.025,45.558L85.593,41.36C85.443,41.221,85.262,41.123,85.066,41.073C84.87,41.024,84.666,41.024,84.47,41.076C84.275,41.127,84.094,41.227,83.945,41.367C83.796,41.507,83.682,41.683,83.614,41.879L81.634,47.744C80.401,51.424,78.132,55.183,74.919,58.879C74.706,59.114,74.462,59.177,74.295,59.193C74.127,59.209,73.868,59.177,73.64,58.957C73.427,58.769,73.32,58.485,73.335,58.202C73.899,48.735,71.158,38.057,65.158,26.436C60.194,16.78,53.296,9.247,44.677,3.994L38.388,0.173C37.566,-0.33,36.515,0.33,36.561,1.321L36.896,8.869C37.125,14.028,36.546,18.588,35.175,22.378C33.5,27.017,31.094,31.326,28.018,35.195C25.878,37.884,23.452,40.315,20.785,42.445C14.364,47.543,9.143,54.075,5.512,61.552C1.891,69.095,0.004,77.399,0,85.818C0,93.24,1.416,100.427,4.218,107.205C6.923,113.731,10.828,119.653,15.715,124.645C20.648,129.678,26.374,133.641,32.754,136.393C39.363,139.255,46.368,140.702,53.601,140.702C60.833,140.702,67.838,139.255,74.447,136.408C80.812,133.673,86.599,129.682,91.486,124.661C96.42,119.629,100.288,113.747,102.983,107.221C105.781,100.462,107.216,93.184,107.201,85.833C107.201,78.159,105.679,70.705,102.648,63.675ZM102.648,63.675"/>
</g>
  <g id="Thin-L" transform="matrix(1.0,0.0,0.0,1.0,802.434300878863,1443.3840407616583)">  <path fill-rule="nonzero" stroke-opacity="1" stroke-linejoin="miter" stroke="none" fill-opacity="1" stroke-dasharray="none" fill="#000000" stroke-linecap="butt" stroke-miterlimit="4" stroke-width="1px" d="M102.648,63.675C99.692,56.804,95.395,50.636,90.025,45.558L85.593,41.36C85.443,41.221,85.262,41.123,85.066,41.073C84.87,41.024,84.666,41.024,84.47,41.076C84.275,41.127,84.094,41.227,83.945,41.367C83.796,41.507,83.682,41.683,83.614,41.879L81.634,47.744C80.401,51.424,78.132,55.183,74.919,58.879C74.706,59.114,74.462,59.177,74.295,59.193C74.127,59.209,73.868,59.177,73.64,58.957C73.427,58.769,73.32,58.485,73.335,58.202C73.899,48.735,71.158,38.057,65.158,26.436C60.194,16.78,53.296,9.247,44.677,3.994L38.388,0.173C37.566,-0.33,36.515,0.33,36.561,1.321L36.896,8.869C37.125,14.028,36.546,18.588,35.175,22.378C33.5,27.017,31.094,31.326,28.018,35.195C25.878,37.884,23.452,40.315,20.785,42.445C14.364,47.543,9.143,54.075,5.512,61.552C1.891,69.095,0.004,77.399,0,85.818C0,93.24,1.416,100.427,4.218,107.205C6.923,113.731,10.828,119.653,15.715,124.645C20.648,129.678,26.374,133.641,32.754,136.393C39.363,139.255,46.368,140.702,53.601,140.702C60.833,140.702,67.838,139.255,74.447,136.408C80.812,133.673,86.599,129.682,91.486,124.661C96.42,119.629,100.288,113.747,102.983,107.221C105.781,100.462,107.216,93.184,107.201,85.833C107.201,78.159,105.679,70.705,102.648,63.675ZM102.648,63.675"/>
</g>
  <g id="Ultralight-L" transform="matrix(1.0,0.0,0.0,1.0,505.72430087886306,1443.3840407616583)">  <path stroke="none" stroke-linejoin="miter" fill="#000000" stroke-miterlimit="4" stroke-dasharray="none" fill-rule="nonzero" stroke-opacity="1" fill-opacity="1" stroke-width="1px" stroke-linecap="butt" d="M102.648,63.675C99.692,56.804,95.395,50.636,90.025,45.558L85.593,41.36C85.443,41.221,85.262,41.123,85.066,41.073C84.87,41.024,84.666,41.024,84.47,41.076C84.275,41.127,84.094,41.227,83.945,41.367C83.796,41.507,83.682,41.683,83.614,41.879L81.634,47.744C80.401,51.424,78.132,55.183,74.919,58.879C74.706,59.114,74.462,59.177,74.295,59.193C74.127,59.209,73.868,59.177,73.64,58.957C73.427,58.769,73.32,58.485,73.335,58.202C73.899,48.735,71.158,38.057,65.158,26.436C60.194,16.78,53.296,9.247,44.677,3.994L38.388,0.173C37.566,-0.33,36.515,0.33,36.561,1.321L36.896,8.869C37.125,14.028,36.546,18.588,35.175,22.378C33.5,27.017,31.094,31.326,28.018,35.195C25.878,37.884,23.452,40.315,20.785,42.445C14.364,47.543,9.143,54.075,5.512,61.552C1.891,69.095,0.004,77.399,0,85.818C0,93.24,1.416,100.427,4.218,107.205C6.923,113.731,10.828,119.653,15.715,124.645C20.648,129.678,26.374,133.641,32.754,136.393C39.363,139.255,46.368,140.702,53.601,140.702C60.833,140.702,67.838,139.255,74.447,136.408C80.812,133.673,86.599,129.682,91.486,124.661C96.42,119.629,100.288,113.747,102.983,107.221C105.781,100.462,107.216,93.184,107.201,85.833C107.201,78.159,105.679,70.705,102.648,63.675ZM102.648,63.675"/>
</g>
  <g id="Black-M" transform="matrix(1.0,0.0,0.0,1.0,2891.830620836328,1030.7808887021092)">  <path stroke-opacity="1" stroke-miterlimit="4" stroke-linejoin="miter" fill-rule="nonzero" stroke="none" stroke-width="1px" stroke-linecap="butt" fill="#000000" fill-opacity="1" stroke-dasharray="none" d="M79.572,49.361C77.281,44.034,73.949,39.253,69.786,35.317L66.351,32.062C66.235,31.954,66.094,31.878,65.943,31.84C65.791,31.801,65.632,31.802,65.481,31.842C65.329,31.881,65.189,31.959,65.074,32.067C64.958,32.176,64.87,32.312,64.817,32.464L63.282,37.011C62.326,39.864,60.568,42.777,58.077,45.642C57.912,45.825,57.723,45.874,57.593,45.886C57.463,45.898,57.262,45.874,57.085,45.703C56.92,45.557,56.837,45.337,56.849,45.118C57.286,37.779,55.161,29.502,50.51,20.493C46.662,13.007,41.315,7.168,34.634,3.096L29.758,0.134C29.121,-0.256,28.307,0.256,28.342,1.024L28.602,6.875C28.779,10.874,28.33,14.409,27.268,17.347C25.969,20.944,24.104,24.284,21.72,27.283C20.06,29.367,18.18,31.252,16.113,32.903C11.135,36.855,7.087,41.918,4.273,47.715C1.466,53.562,0.003,59.999,0,66.525C0,72.279,1.098,77.85,3.27,83.105C5.367,88.163,8.393,92.754,12.182,96.624C16.007,100.525,20.445,103.597,25.391,105.731C30.514,107.95,35.944,109.071,41.551,109.071C47.158,109.071,52.588,107.95,57.711,105.743C62.645,103.622,67.131,100.529,70.92,96.637C74.745,92.735,77.743,88.176,79.832,83.117C82.001,77.877,83.113,72.236,83.102,66.537C83.102,60.588,81.921,54.81,79.572,49.361ZM79.572,49.361"/>
</g>
  <g id="Heavy-M" transform="matrix(1.0,0.0,0.0,1.0,2595.120620836328,1030.7808887021092)">  <path stroke-opacity="1" fill="#000000" stroke-linecap="butt" fill-opacity="1" stroke-dasharray="none" fill-rule="nonzero" stroke="none" stroke-width="1px" stroke-linejoin="miter" stroke-miterlimit="4" d="M79.572,49.361C77.281,44.034,73.949,39.253,69.786,35.317L66.351,32.062C66.235,31.954,66.094,31.878,65.943,31.84C65.791,31.801,65.632,31.802,65.481,31.842C65.329,31.881,65.189,31.959,65.074,32.067C64.958,32.176,64.87,32.312,64.817,32.464L63.282,37.011C62.326,39.864,60.568,42.777,58.077,45.642C57.912,45.825,57.723,45.874,57.593,45.886C57.463,45.898,57.262,45.874,57.085,45.703C56.92,45.557,56.837,45.337,56.849,45.118C57.286,37.779,55.161,29.502,50.51,20.493C46.662,13.007,41.315,7.168,34.634,3.096L29.758,0.134C29.121,-0.256,28.307,0.256,28.342,1.024L28.602,6.875C28.779,10.874,28.33,14.409,27.268,17.347C25.969,20.944,24.104,24.284,21.72,27.283C20.06,29.367,18.18,31.252,16.113,32.903C11.135,36.855,7.087,41.918,4.273,47.715C1.466,53.562,0.003,59.999,0,66.525C0,72.279,1.098,77.85,3.27,83.105C5.367,88.163,8.393,92.754,12.182,96.624C16.007,100.525,20.445,103.597,25.391,105.731C30.514,107.95,35.944,109.071,41.551,109.071C47.158,109.071,52.588,107.95,57.711,105.743C62.645,103.622,67.131,100.529,70.92,96.637C74.745,92.735,77.743,88.176,79.832,83.117C82.001,77.877,83.113,72.236,83.102,66.537C83.102,60.588,81.921,54.81,79.572,49.361ZM79.572,49.361"/>
</g>
  <g id="Bold-M" transform="matrix(1.0,0.0,0.0,1.0,2298.410620836328,1030.7808887021092)">  <path stroke-dasharray="none" stroke="none" fill-opacity="1" stroke-opacity="1" fill-rule="nonzero" stroke-miterlimit="4" stroke-width="1px" stroke-linejoin="miter" fill="#000000" stroke-linecap="butt" d="M79.572,49.361C77.281,44.034,73.949,39.253,69.786,35.317L66.351,32.062C66.235,31.954,66.094,31.878,65.943,31.84C65.791,31.801,65.632,31.802,65.481,31.842C65.329,31.881,65.189,31.959,65.074,32.067C64.958,32.176,64.87,32.312,64.817,32.464L63.282,37.011C62.326,39.864,60.568,42.777,58.077,45.642C57.912,45.825,57.723,45.874,57.593,45.886C57.463,45.898,57.262,45.874,57.085,45.703C56.92,45.557,56.837,45.337,56.849,45.118C57.286,37.779,55.161,29.502,50.51,20.493C46.662,13.007,41.315,7.168,34.634,3.096L29.758,0.134C29.121,-0.256,28.307,0.256,28.342,1.024L28.602,6.875C28.779,10.874,28.33,14.409,27.268,17.347C25.969,20.944,24.104,24.284,21.72,27.283C20.06,29.367,18.18,31.252,16.113,32.903C11.135,36.855,7.087,41.918,4.273,47.715C1.466,53.562,0.003,59.999,0,66.525C0,72.279,1.098,77.85,3.27,83.105C5.367,88.163,8.393,92.754,12.182,96.624C16.007,100.525,20.445,103.597,25.391,105.731C30.514,107.95,35.944,109.071,41.551,109.071C47.158,109.071,52.588,107.95,57.711,105.743C62.645,103.622,67.131,100.529,70.92,96.637C74.745,92.735,77.743,88.176,79.832,83.117C82.001,77.877,83.113,72.236,83.102,66.537C83.102,60.588,81.921,54.81,79.572,49.361ZM79.572,49.361"/>
</g>
  <g id="Semibold-M" transform="matrix(1.0,0.0,0.0,1.0,2001.700620836328,1030.7808887021092)">  <path stroke-width="1px" stroke-dasharray="none" fill-rule="nonzero" fill="#000000" stroke-linejoin="miter" stroke-opacity="1" fill-opacity="1" stroke="none" stroke-linecap="butt" stroke-miterlimit="4" d="M79.572,49.361C77.281,44.034,73.949,39.253,69.786,35.317L66.351,32.062C66.235,31.954,66.094,31.878,65.943,31.84C65.791,31.801,65.632,31.802,65.481,31.842C65.329,31.881,65.189,31.959,65.074,32.067C64.958,32.176,64.87,32.312,64.817,32.464L63.282,37.011C62.326,39.864,60.568,42.777,58.077,45.642C57.912,45.825,57.723,45.874,57.593,45.886C57.463,45.898,57.262,45.874,57.085,45.703C56.92,45.557,56.837,45.337,56.849,45.118C57.286,37.779,55.161,29.502,50.51,20.493C46.662,13.007,41.315,7.168,34.634,3.096L29.758,0.134C29.121,-0.256,28.307,0.256,28.342,1.024L28.602,6.875C28.779,10.874,28.33,14.409,27.268,17.347C25.969,20.944,24.104,24.284,21.72,27.283C20.06,29.367,18.18,31.252,16.113,32.903C11.135,36.855,7.087,41.918,4.273,47.715C1.466,53.562,0.003,59.999,0,66.525C0,72.279,1.098,77.85,3.27,83.105C5.367,88.163,8.393,92.754,12.182,96.624C16.007,100.525,20.445,103.597,25.391,105.731C30.514,107.95,35.944,109.071,41.551,109.071C47.158,109.071,52.588,107.95,57.711,105.743C62.645,103.622,67.131,100.529,70.92,96.637C74.745,92.735,77.743,88.176,79.832,83.117C82.001,77.877,83.113,72.236,83.102,66.537C83.102,60.588,81.921,54.81,79.572,49.361ZM79.572,49.361"/>
</g>
  <g id="Medium-M" transform="matrix(1.0,0.0,0.0,1.0,1704.990620836328,1030.7808887021092)">  <path stroke-dasharray="none" stroke="none" stroke-opacity="1" fill="#000000" stroke-miterlimit="4" stroke-linejoin="miter" fill-opacity="1" stroke-width="1px" stroke-linecap="butt" fill-rule="nonzero" d="M79.572,49.361C77.281,44.034,73.949,39.253,69.786,35.317L66.351,32.062C66.235,31.954,66.094,31.878,65.943,31.84C65.791,31.801,65.632,31.802,65.481,31.842C65.329,31.881,65.189,31.959,65.074,32.067C64.958,32.176,64.87,32.312,64.817,32.464L63.282,37.011C62.326,39.864,60.568,42.777,58.077,45.642C57.912,45.825,57.723,45.874,57.593,45.886C57.463,45.898,57.262,45.874,57.085,45.703C56.92,45.557,56.837,45.337,56.849,45.118C57.286,37.779,55.161,29.502,50.51,20.493C46.662,13.007,41.315,7.168,34.634,3.096L29.758,0.134C29.121,-0.256,28.307,0.256,28.342,1.024L28.602,6.875C28.779,10.874,28.33,14.409,27.268,17.347C25.969,20.944,24.104,24.284,21.72,27.283C20.06,29.367,18.18,31.252,16.113,32.903C11.135,36.855,7.087,41.918,4.273,47.715C1.466,53.562,0.003,59.999,0,66.525C0,72.279,1.098,77.85,3.27,83.105C5.367,88.163,8.393,92.754,12.182,96.624C16.007,100.525,20.445,103.597,25.391,105.731C30.514,107.95,35.944,109.071,41.551,109.071C47.158,109.071,52.588,107.95,57.711,105.743C62.645,103.622,67.131,100.529,70.92,96.637C74.745,92.735,77.743,88.176,79.832,83.117C82.001,77.877,83.113,72.236,83.102,66.537C83.102,60.588,81.921,54.81,79.572,49.361ZM79.572,49.361"/>
</g>
  <g id="Regular-M" transform="matrix(1.0,0.0,0.0,1.0,1408.280620836328,1030.7808887021092)">  <path stroke-dasharray="none" fill-rule="nonzero" stroke="none" stroke-opacity="1" stroke-linejoin="miter" fill="#000000" stroke-miterlimit="4" fill-opacity="1" stroke-width="1px" stroke-linecap="butt" d="M79.572,49.361C77.281,44.034,73.949,39.253,69.786,35.317L66.351,32.062C66.235,31.954,66.094,31.878,65.943,31.84C65.791,31.801,65.632,31.802,65.481,31.842C65.329,31.881,65.189,31.959,65.074,32.067C64.958,32.176,64.87,32.312,64.817,32.464L63.282,37.011C62.326,39.864,60.568,42.777,58.077,45.642C57.912,45.825,57.723,45.874,57.593,45.886C57.463,45.898,57.262,45.874,57.085,45.703C56.92,45.557,56.837,45.337,56.849,45.118C57.286,37.779,55.161,29.502,50.51,20.493C46.662,13.007,41.315,7.168,34.634,3.096L29.758,0.134C29.121,-0.256,28.307,0.256,28.342,1.024L28.602,6.875C28.779,10.874,28.33,14.409,27.268,17.347C25.969,20.944,24.104,24.284,21.72,27.283C20.06,29.367,18.18,31.252,16.113,32.903C11.135,36.855,7.087,41.918,4.273,47.715C1.466,53.562,0.003,59.999,0,66.525C0,72.279,1.098,77.85,3.27,83.105C5.367,88.163,8.393,92.754,12.182,96.624C16.007,100.525,20.445,103.597,25.391,105.731C30.514,107.95,35.944,109.071,41.551,109.071C47.158,109.071,52.588,107.95,57.711,105.743C62.645,103.622,67.131,100.529,70.92,96.637C74.745,92.735,77.743,88.176,79.832,83.117C82.001,77.877,83.113,72.236,83.102,66.537C83.102,60.588,81.921,54.81,79.572,49.361ZM79.572,49.361"/>
</g>
  <g id="Light-M" transform="matrix(1.0,0.0,0.0,1.0,1111.570620836328,1030.7808887021092)">  <path stroke-linejoin="miter" stroke-dasharray="none" stroke-linecap="butt" fill-opacity="1" fill-rule="nonzero" fill="#000000" stroke-opacity="1" stroke-miterlimit="4" stroke-width="1px" stroke="none" d="M79.572,49.361C77.281,44.034,73.949,39.253,69.786,35.317L66.351,32.062C66.235,31.954,66.094,31.878,65.943,31.84C65.791,31.801,65.632,31.802,65.481,31.842C65.329,31.881,65.189,31.959,65.074,32.067C64.958,32.176,64.87,32.312,64.817,32.464L63.282,37.011C62.326,39.864,60.568,42.777,58.077,45.642C57.912,45.825,57.723,45.874,57.593,45.886C57.463,45.898,57.262,45.874,57.085,45.703C56.92,45.557,56.837,45.337,56.849,45.118C57.286,37.779,55.161,29.502,50.51,20.493C46.662,13.007,41.315,7.168,34.634,3.096L29.758,0.134C29.121,-0.256,28.307,0.256,28.342,1.024L28.602,6.875C28.779,10.874,28.33,14.409,27.268,17.347C25.969,20.944,24.104,24.284,21.72,27.283C20.06,29.367,18.18,31.252,16.113,32.903C11.135,36.855,7.087,41.918,4.273,47.715C1.466,53.562,0.003,59.999,0,66.525C0,72.279,1.098,77.85,3.27,83.105C5.367,88.163,8.393,92.754,12.182,96.624C16.007,100.525,20.445,103.597,25.391,105.731C30.514,107.95,35.944,109.071,41.551,109.071C47.158,109.071,52.588,107.95,57.711,105.743C62.645,103.622,67.131,100.529,70.92,96.637C74.745,92.735,77.743,88.176,79.832,83.117C82.001,77.877,83.113,72.236,83.102,66.537C83.102,60.588,81.921,54.81,79.572,49.361ZM79.572,49.361"/>
</g>
  <g id="Thin-M" transform="matrix(1.0,0.0,0.0,1.0,814.8606208363279,1030.7808887021092)">  <path fill-rule="nonzero" stroke-opacity="1" stroke-linejoin="miter" stroke="none" fill-opacity="1" stroke-dasharray="none" fill="#000000" stroke-linecap="butt" stroke-miterlimit="4" stroke-width="1px" d="M79.572,49.361C77.281,44.034,73.949,39.253,69.786,35.317L66.351,32.062C66.235,31.954,66.094,31.878,65.943,31.84C65.791,31.801,65.632,31.802,65.481,31.842C65.329,31.881,65.189,31.959,65.074,32.067C64.958,32.176,64.87,32.312,64.817,32.464L63.282,37.011C62.326,39.864,60.568,42.777,58.077,45.642C57.912,45.825,57.723,45.874,57.593,45.886C57.463,45.898,57.262,45.874,57.085,45.703C56.92,45.557,56.837,45.337,56.849,45.118C57.286,37.779,55.161,29.502,50.51,20.493C46.662,13.007,41.315,7.168,34.634,3.096L29.758,0.134C29.121,-0.256,28.307,0.256,28.342,1.024L28.602,6.875C28.779,10.874,28.33,14.409,27.268,17.347C25.969,20.944,24.104,24.284,21.72,27.283C20.06,29.367,18.18,31.252,16.113,32.903C11.135,36.855,7.087,41.918,4.273,47.715C1.466,53.562,0.003,59.999,0,66.525C0,72.279,1.098,77.85,3.27,83.105C5.367,88.163,8.393,92.754,12.182,96.624C16.007,100.525,20.445,103.597,25.391,105.731C30.514,107.95,35.944,109.071,41.551,109.071C47.158,109.071,52.588,107.95,57.711,105.743C62.645,103.622,67.131,100.529,70.92,96.637C74.745,92.735,77.743,88.176,79.832,83.117C82.001,77.877,83.113,72.236,83.102,66.537C83.102,60.588,81.921,54.81,79.572,49.361ZM79.572,49.361"/>
</g>
  <g id="Ultralight-M" transform="matrix(1.0,0.0,0.0,1.0,518.1506208363279,1030.7808887021092)">  <path stroke="none" stroke-linejoin="miter" fill="#000000" stroke-miterlimit="4" stroke-dasharray="none" fill-rule="nonzero" stroke-opacity="1" fill-opacity="1" stroke-width="1px" stroke-linecap="butt" d="M79.572,49.361C77.281,44.034,73.949,39.253,69.786,35.317L66.351,32.062C66.235,31.954,66.094,31.878,65.943,31.84C65.791,31.801,65.632,31.802,65.481,31.842C65.329,31.881,65.189,31.959,65.074,32.067C64.958,32.176,64.87,32.312,64.817,32.464L63.282,37.011C62.326,39.864,60.568,42.777,58.077,45.642C57.912,45.825,57.723,45.874,57.593,45.886C57.463,45.898,57.262,45.874,57.085,45.703C56.92,45.557,56.837,45.337,56.849,45.118C57.286,37.779,55.161,29.502,50.51,20.493C46.662,13.007,41.315,7.168,34.634,3.096L29.758,0.134C29.121,-0.256,28.307,0.256,28.342,1.024L28.602,6.875C28.779,10.874,28.33,14.409,27.268,17.347C25.969,20.944,24.104,24.284,21.72,27.283C20.06,29.367,18.18,31.252,16.113,32.903C11.135,36.855,7.087,41.918,4.273,47.715C1.466,53.562,0.003,59.999,0,66.525C0,72.279,1.098,77.85,3.27,83.105C5.367,88.163,8.393,92.754,12.182,96.624C16.007,100.525,20.445,103.597,25.391,105.731C30.514,107.95,35.944,109.071,41.551,109.071C47.158,109.071,52.588,107.95,57.711,105.743C62.645,103.622,67.131,100.529,70.92,96.637C74.745,92.735,77.743,88.176,79.832,83.117C82.001,77.877,83.113,72.236,83.102,66.537C83.102,60.588,81.921,54.81,79.572,49.361ZM79.572,49.361"/>
</g>
  <g id="Black-S" transform="matrix(1.0,0.0,0.0,1.0,2901.1289361148447,613.7985300920327)">  <path stroke-opacity="1" stroke-miterlimit="4" stroke-linejoin="miter" fill-rule="nonzero" stroke="none" stroke-width="1px" stroke-linecap="butt" fill="#000000" fill-opacity="1" stroke-dasharray="none" d="M62.305,38.649C60.511,34.479,57.902,30.735,54.643,27.653L51.953,25.104C51.862,25.02,51.752,24.96,51.633,24.93C51.514,24.9,51.39,24.901,51.272,24.932C51.153,24.963,51.043,25.024,50.953,25.109C50.862,25.194,50.793,25.3,50.752,25.419L49.55,28.98C48.802,31.213,47.424,33.495,45.474,35.738C45.345,35.881,45.197,35.919,45.095,35.929C44.994,35.938,44.836,35.919,44.698,35.786C44.568,35.671,44.504,35.499,44.513,35.327C44.855,29.581,43.191,23.1,39.55,16.046C36.536,10.185,32.349,5.613,27.118,2.424L23.301,0.105C22.802,-0.201,22.164,0.2,22.192,0.802L22.395,5.384C22.534,8.514,22.182,11.283,21.351,13.583C20.334,16.399,18.874,19.014,17.007,21.363C15.707,22.994,14.235,24.47,12.616,25.763C8.719,28.857,5.549,32.822,3.346,37.361C1.148,41.939,0.003,46.979,0,52.089C0,56.595,0.86,60.957,2.56,65.071C4.202,69.032,6.572,72.627,9.538,75.657C12.533,78.711,16.008,81.117,19.881,82.787C23.892,84.525,28.144,85.403,32.534,85.403C36.924,85.403,41.176,84.525,45.187,82.797C49.051,81.136,52.564,78.714,55.53,75.666C58.525,72.612,60.873,69.042,62.508,65.081C64.207,60.978,65.078,56.561,65.069,52.099C65.069,47.441,64.144,42.916,62.305,38.649ZM62.305,38.649"/>
</g>
  <g id="Heavy-S" transform="matrix(1.0,0.0,0.0,1.0,2604.4189361148447,613.7985300920327)">  <path stroke-opacity="1" fill="#000000" stroke-linecap="butt" fill-opacity="1" stroke-dasharray="none" fill-rule="nonzero" stroke="none" stroke-width="1px" stroke-linejoin="miter" stroke-miterlimit="4" d="M62.305,38.649C60.511,34.479,57.902,30.735,54.643,27.653L51.953,25.104C51.862,25.02,51.752,24.96,51.633,24.93C51.514,24.9,51.39,24.901,51.272,24.932C51.153,24.963,51.043,25.024,50.953,25.109C50.862,25.194,50.793,25.3,50.752,25.419L49.55,28.98C48.802,31.213,47.424,33.495,45.474,35.738C45.345,35.881,45.197,35.919,45.095,35.929C44.994,35.938,44.836,35.919,44.698,35.786C44.568,35.671,44.504,35.499,44.513,35.327C44.855,29.581,43.191,23.1,39.55,16.046C36.536,10.185,32.349,5.613,27.118,2.424L23.301,0.105C22.802,-0.201,22.164,0.2,22.192,0.802L22.395,5.384C22.534,8.514,22.182,11.283,21.351,13.583C20.334,16.399,18.874,19.014,17.007,21.363C15.707,22.994,14.235,24.47,12.616,25.763C8.719,28.857,5.549,32.822,3.346,37.361C1.148,41.939,0.003,46.979,0,52.089C0,56.595,0.86,60.957,2.56,65.071C4.202,69.032,6.572,72.627,9.538,75.657C12.533,78.711,16.008,81.117,19.881,82.787C23.892,84.525,28.144,85.403,32.534,85.403C36.924,85.403,41.176,84.525,45.187,82.797C49.051,81.136,52.564,78.714,55.53,75.666C58.525,72.612,60.873,69.042,62.508,65.081C64.207,60.978,65.078,56.561,65.069,52.099C65.069,47.441,64.144,42.916,62.305,38.649ZM62.305,38.649"/>
</g>
  <g id="Bold-S" transform="matrix(1.0,0.0,0.0,1.0,2307.7089361148446,613.7985300920327)">  <path stroke-dasharray="none" stroke="none" fill-opacity="1" stroke-opacity="1" fill-rule="nonzero" stroke-miterlimit="4" stroke-width="1px" stroke-linejoin="miter" fill="#000000" stroke-linecap="butt" d="M62.305,38.649C60.511,34.479,57.902,30.735,54.643,27.653L51.953,25.104C51.862,25.02,51.752,24.96,51.633,24.93C51.514,24.9,51.39,24.901,51.272,24.932C51.153,24.963,51.043,25.024,50.953,25.109C50.862,25.194,50.793,25.3,50.752,25.419L49.55,28.98C48.802,31.213,47.424,33.495,45.474,35.738C45.345,35.881,45.197,35.919,45.095,35.929C44.994,35.938,44.836,35.919,44.698,35.786C44.568,35.671,44.504,35.499,44.513,35.327C44.855,29.581,43.191,23.1,39.55,16.046C36.536,10.185,32.349,5.613,27.118,2.424L23.301,0.105C22.802,-0.201,22.164,0.2,22.192,0.802L22.395,5.384C22.534,8.514,22.182,11.283,21.351,13.583C20.334,16.399,18.874,19.014,17.007,21.363C15.707,22.994,14.235,24.47,12.616,25.763C8.719,28.857,5.549,32.822,3.346,37.361C1.148,41.939,0.003,46.979,0,52.089C0,56.595,0.86,60.957,2.56,65.071C4.202,69.032,6.572,72.627,9.538,75.657C12.533,78.711,16.008,81.117,19.881,82.787C23.892,84.525,28.144,85.403,32.534,85.403C36.924,85.403,41.176,84.525,45.187,82.797C49.051,81.136,52.564,78.714,55.53,75.666C58.525,72.612,60.873,69.042,62.508,65.081C64.207,60.978,65.078,56.561,65.069,52.099C65.069,47.441,64.144,42.916,62.305,38.649ZM62.305,38.649"/>
</g>
  <g id="Semibold-S" transform="matrix(1.0,0.0,0.0,1.0,2010.9989361148448,613.7985300920327)">  <path stroke-width="1px" stroke-dasharray="none" fill-rule="nonzero" fill="#000000" stroke-linejoin="miter" stroke-opacity="1" fill-opacity="1" stroke="none" stroke-linecap="butt" stroke-miterlimit="4" d="M62.305,38.649C60.511,34.479,57.902,30.735,54.643,27.653L51.953,25.104C51.862,25.02,51.752,24.96,51.633,24.93C51.514,24.9,51.39,24.901,51.272,24.932C51.153,24.963,51.043,25.024,50.953,25.109C50.862,25.194,50.793,25.3,50.752,25.419L49.55,28.98C48.802,31.213,47.424,33.495,45.474,35.738C45.345,35.881,45.197,35.919,45.095,35.929C44.994,35.938,44.836,35.919,44.698,35.786C44.568,35.671,44.504,35.499,44.513,35.327C44.855,29.581,43.191,23.1,39.55,16.046C36.536,10.185,32.349,5.613,27.118,2.424L23.301,0.105C22.802,-0.201,22.164,0.2,22.192,0.802L22.395,5.384C22.534,8.514,22.182,11.283,21.351,13.583C20.334,16.399,18.874,19.014,17.007,21.363C15.707,22.994,14.235,24.47,12.616,25.763C8.719,28.857,5.549,32.822,3.346,37.361C1.148,41.939,0.003,46.979,0,52.089C0,56.595,0.86,60.957,2.56,65.071C4.202,69.032,6.572,72.627,9.538,75.657C12.533,78.711,16.008,81.117,19.881,82.787C23.892,84.525,28.144,85.403,32.534,85.403C36.924,85.403,41.176,84.525,45.187,82.797C49.051,81.136,52.564,78.714,55.53,75.666C58.525,72.612,60.873,69.042,62.508,65.081C64.207,60.978,65.078,56.561,65.069,52.099C65.069,47.441,64.144,42.916,62.305,38.649ZM62.305,38.649"/>
</g>
  <g id="Medium-S" transform="matrix(1.0,0.0,0.0,1.0,1714.2889361148448,613.7985300920327)">  <path stroke-dasharray="none" stroke="none" stroke-opacity="1" fill="#000000" stroke-miterlimit="4" stroke-linejoin="miter" fill-opacity="1" stroke-width="1px" stroke-linecap="butt" fill-rule="nonzero" d="M62.305,38.649C60.511,34.479,57.902,30.735,54.643,27.653L51.953,25.104C51.862,25.02,51.752,24.96,51.633,24.93C51.514,24.9,51.39,24.901,51.272,24.932C51.153,24.963,51.043,25.024,50.953,25.109C50.862,25.194,50.793,25.3,50.752,25.419L49.55,28.98C48.802,31.213,47.424,33.495,45.474,35.738C45.345,35.881,45.197,35.919,45.095,35.929C44.994,35.938,44.836,35.919,44.698,35.786C44.568,35.671,44.504,35.499,44.513,35.327C44.855,29.581,43.191,23.1,39.55,16.046C36.536,10.185,32.349,5.613,27.118,2.424L23.301,0.105C22.802,-0.201,22.164,0.2,22.192,0.802L22.395,5.384C22.534,8.514,22.182,11.283,21.351,13.583C20.334,16.399,18.874,19.014,17.007,21.363C15.707,22.994,14.235,24.47,12.616,25.763C8.719,28.857,5.549,32.822,3.346,37.361C1.148,41.939,0.003,46.979,0,52.089C0,56.595,0.86,60.957,2.56,65.071C4.202,69.032,6.572,72.627,9.538,75.657C12.533,78.711,16.008,81.117,19.881,82.787C23.892,84.525,28.144,85.403,32.534,85.403C36.924,85.403,41.176,84.525,45.187,82.797C49.051,81.136,52.564,78.714,55.53,75.666C58.525,72.612,60.873,69.042,62.508,65.081C64.207,60.978,65.078,56.561,65.069,52.099C65.069,47.441,64.144,42.916,62.305,38.649ZM62.305,38.649"/>
</g>
  <g id="Regular-S" transform="matrix(1.0,0.0,0.0,1.0,1417.5789361148447,613.7985300920327)">  <path stroke-dasharray="none" fill-rule="nonzero" stroke="none" stroke-opacity="1" stroke-linejoin="miter" fill="#000000" stroke-miterlimit="4" fill-opacity="1" stroke-width="1px" stroke-linecap="butt" d="M62.305,38.649C60.511,34.479,57.902,30.735,54.643,27.653L51.953,25.104C51.862,25.02,51.752,24.96,51.633,24.93C51.514,24.9,51.39,24.901,51.272,24.932C51.153,24.963,51.043,25.024,50.953,25.109C50.862,25.194,50.793,25.3,50.752,25.419L49.55,28.98C48.802,31.213,47.424,33.495,45.474,35.738C45.345,35.881,45.197,35.919,45.095,35.929C44.994,35.938,44.836,35.919,44.698,35.786C44.568,35.671,44.504,35.499,44.513,35.327C44.855,29.581,43.191,23.1,39.55,16.046C36.536,10.185,32.349,5.613,27.118,2.424L23.301,0.105C22.802,-0.201,22.164,0.2,22.192,0.802L22.395,5.384C22.534,8.514,22.182,11.283,21.351,13.583C20.334,16.399,18.874,19.014,17.007,21.363C15.707,22.994,14.235,24.47,12.616,25.763C8.719,28.857,5.549,32.822,3.346,37.361C1.148,41.939,0.003,46.979,0,52.089C0,56.595,0.86,60.957,2.56,65.071C4.202,69.032,6.572,72.627,9.538,75.657C12.533,78.711,16.008,81.117,19.881,82.787C23.892,84.525,28.144,85.403,32.534,85.403C36.924,85.403,41.176,84.525,45.187,82.797C49.051,81.136,52.564,78.714,55.53,75.666C58.525,72.612,60.873,69.042,62.508,65.081C64.207,60.978,65.078,56.561,65.069,52.099C65.069,47.441,64.144,42.916,62.305,38.649ZM62.305,38.649"/>
</g>
  <g id="Light-S" transform="matrix(1.0,0.0,0.0,1.0,1120.868936114845,613.7985300920327)">  <path stroke-linejoin="miter" stroke-dasharray="none" stroke-linecap="butt" fill-opacity="1" fill-rule="nonzero" fill="#000000" stroke-opacity="1" stroke-miterlimit="4" stroke-width="1px" stroke="none" d="M62.305,38.649C60.511,34.479,57.902,30.735,54.643,27.653L51.953,25.104C51.862,25.02,51.752,24.96,51.633,24.93C51.514,24.9,51.39,24.901,51.272,24.932C51.153,24.963,51.043,25.024,50.953,25.109C50.862,25.194,50.793,25.3,50.752,25.419L49.55,28.98C48.802,31.213,47.424,33.495,45.474,35.738C45.345,35.881,45.197,35.919,45.095,35.929C44.994,35.938,44.836,35.919,44.698,35.786C44.568,35.671,44.504,35.499,44.513,35.327C44.855,29.581,43.191,23.1,39.55,16.046C36.536,10.185,32.349,5.613,27.118,2.424L23.301,0.105C22.802,-0.201,22.164,0.2,22.192,0.802L22.395,5.384C22.534,8.514,22.182,11.283,21.351,13.583C20.334,16.399,18.874,19.014,17.007,21.363C15.707,22.994,14.235,24.47,12.616,25.763C8.719,28.857,5.549,32.822,3.346,37.361C1.148,41.939,0.003,46.979,0,52.089C0,56.595,0.86,60.957,2.56,65.071C4.202,69.032,6.572,72.627,9.538,75.657C12.533,78.711,16.008,81.117,19.881,82.787C23.892,84.525,28.144,85.403,32.534,85.403C36.924,85.403,41.176,84.525,45.187,82.797C49.051,81.136,52.564,78.714,55.53,75.666C58.525,72.612,60.873,69.042,62.508,65.081C64.207,60.978,65.078,56.561,65.069,52.099C65.069,47.441,64.144,42.916,62.305,38.649ZM62.305,38.649"/>
</g>
  <g id="Thin-S" transform="matrix(1.0,0.0,0.0,1.0,824.1589361148448,613.7985300920327)">  <path fill-rule="nonzero" stroke-opacity="1" stroke-linejoin="miter" stroke="none" fill-opacity="1" stroke-dasharray="none" fill="#000000" stroke-linecap="butt" stroke-miterlimit="4" stroke-width="1px" d="M62.305,38.649C60.511,34.479,57.902,30.735,54.643,27.653L51.953,25.104C51.862,25.02,51.752,24.96,51.633,24.93C51.514,24.9,51.39,24.901,51.272,24.932C51.153,24.963,51.043,25.024,50.953,25.109C50.862,25.194,50.793,25.3,50.752,25.419L49.55,28.98C48.802,31.213,47.424,33.495,45.474,35.738C45.345,35.881,45.197,35.919,45.095,35.929C44.994,35.938,44.836,35.919,44.698,35.786C44.568,35.671,44.504,35.499,44.513,35.327C44.855,29.581,43.191,23.1,39.55,16.046C36.536,10.185,32.349,5.613,27.118,2.424L23.301,0.105C22.802,-0.201,22.164,0.2,22.192,0.802L22.395,5.384C22.534,8.514,22.182,11.283,21.351,13.583C20.334,16.399,18.874,19.014,17.007,21.363C15.707,22.994,14.235,24.47,12.616,25.763C8.719,28.857,5.549,32.822,3.346,37.361C1.148,41.939,0.003,46.979,0,52.089C0,56.595,0.86,60.957,2.56,65.071C4.202,69.032,6.572,72.627,9.538,75.657C12.533,78.711,16.008,81.117,19.881,82.787C23.892,84.525,28.144,85.403,32.534,85.403C36.924,85.403,41.176,84.525,45.187,82.797C49.051,81.136,52.564,78.714,55.53,75.666C58.525,72.612,60.873,69.042,62.508,65.081C64.207,60.978,65.078,56.561,65.069,52.099C65.069,47.441,64.144,42.916,62.305,38.649ZM62.305,38.649"/>
</g>
  <g id="Ultralight-S" transform="matrix(1.0,0.0,0.0,1.0,527.4489361148447,613.7985300920327)">  <path stroke="none" stroke-linejoin="miter" fill="#000000" stroke-miterlimit="4" stroke-dasharray="none" fill-rule="nonzero" stroke-opacity="1" fill-opacity="1" stroke-width="1px" stroke-linecap="butt" d="M62.305,38.649C60.511,34.479,57.902,30.735,54.643,27.653L51.953,25.104C51.862,25.02,51.752,24.96,51.633,24.93C51.514,24.9,51.39,24.901,51.272,24.932C51.153,24.963,51.043,25.024,50.953,25.109C50.862,25.194,50.793,25.3,50.752,25.419L49.55,28.98C48.802,31.213,47.424,33.495,45.474,35.738C45.345,35.881,45.197,35.919,45.095,35.929C44.994,35.938,44.836,35.919,44.698,35.786C44.568,35.671,44.504,35.499,44.513,35.327C44.855,29.581,43.191,23.1,39.55,16.046C36.536,10.185,32.349,5.613,27.118,2.424L23.301,0.105C22.802,-0.201,22.164,0.2,22.192,0.802L22.395,5.384C22.534,8.514,22.182,11.283,21.351,13.583C20.334,16.399,18.874,19.014,17.007,21.363C15.707,22.994,14.235,24.47,12.616,25.763C8.719,28.857,5.549,32.822,3.346,37.361C1.148,41.939,0.003,46.979,0,52.089C0,56.595,0.86,60.957,2.56,65.071C4.202,69.032,6.572,72.627,9.538,75.657C12.533,78.711,16.008,81.117,19.881,82.787C23.892,84.525,28.144,85.403,32.534,85.403C36.924,85.403,41.176,84.525,45.187,82.797C49.051,81.136,52.564,78.714,55.53,75.666C58.525,72.612,60.873,69.042,62.508,65.081C64.207,60.978,65.078,56.561,65.069,52.099C65.069,47.441,64.144,42.916,62.305,38.649ZM62.305,38.649"/>
</g>
 </g>
</svg>
