<?xml version="1.0" encoding="UTF-8"?>
<!-- Generator: CustomSymbols v2.6.2.41 by @serious_bret https://bretlester.com/app_content/CustomSymbols/ -->
<!-- Guides: Left/Right 0.0/0.0 Cap/Base 0.227/0.127 -->
<!-- Settings: RefScale 1.0 Min/Max Stroke Scales 0.5/2.21 -->
<!DOCTYPE svg
PUBLIC "-//W3C//DTD SVG 1.1//EN"
       "http://www.w3.org/Graphics/SVG/1.1/DTD/svg11.dtd">
<svg version="1.1" xmlns="http://www.w3.org/2000/svg" xmlns:xlink="http://www.w3.org/1999/xlink" width="3300" height="2200">
<![CDATA[<svg width="24" height="24" viewBox="0 0 24 24" fill="none" xmlns="http://www.w3.org/2000/svg">
<g clip-path="url(#clip0_151_1553)">
<path d="M18 4H6C3.79086 4 2 5.79086 2 8V18C2 20.2091 3.79086 22 6 22H18C20.2091 22 22 20.2091 22 18V8C22 5.79086 20.2091 4 18 4Z" stroke="black" stroke-width="3" stroke-linecap="round" stroke-linejoin="round"/>
<path d="M8 2V6" stroke="black" stroke-width="3" stroke-linecap="round" stroke-linejoin="round"/>
<path d="M16 2V6" stroke="black" stroke-width="3" stroke-linecap="round" stroke-linejoin="round"/>
<path d="M2 10H22" stroke="black" stroke-width="3" stroke-linecap="round" stroke-linejoin="round"/>
</g>
<defs>
<clipPath id="clip0_151_1553">
<rect width="24" height="24" fill="white"/>
</clipPath>
</defs>
</svg>
]]>
 <g id="Notes">
  <rect height="2200" id="artboard" style="fill:white;opacity:1" width="3300" x="0" y="0"/>
  <line id="" style="fill:none;stroke:black;opacity:1;stroke-width:0.5;" x1="263" x2="3036" y1="292" y2="292"/>
  <text id="reftext1" style="stroke:none;fill:black;font-family:-apple-system,&quot;SF Pro Display&quot;,&quot;SF Pro Text&quot;,Helvetica,sans-serif;font-weight:bold;" transform="matrix(1 0 0 1 263 322)">Weight/Scale Variations</text>
  <text id="reftext2" style="stroke:none;fill:black;font-family:-apple-system,&quot;SF Pro Display&quot;,&quot;SF Pro Text&quot;,Helvetica,sans-serif;text-anchor:middle;" transform="matrix(1 0 0 1 559.711 322)">Ultralight</text>
  <text style="stroke:none;fill:black;font-family:-apple-system,&quot;SF Pro Display&quot;,&quot;SF Pro Text&quot;,Helvetica,sans-serif;text-anchor:middle;" transform="matrix(1 0 0 1 856.422 322)">Thin</text>
  <text style="stroke:none;fill:black;font-family:-apple-system,&quot;SF Pro Display&quot;,&quot;SF Pro Text&quot;,Helvetica,sans-serif;text-anchor:middle;" transform="matrix(1 0 0 1 1153.13 322)">Light</text>
  <text style="stroke:none;fill:black;font-family:-apple-system,&quot;SF Pro Display&quot;,&quot;SF Pro Text&quot;,Helvetica,sans-serif;text-anchor:middle;" transform="matrix(1 0 0 1 1449.84 322)">Regular</text>
  <text style="stroke:none;fill:black;font-family:-apple-system,&quot;SF Pro Display&quot;,&quot;SF Pro Text&quot;,Helvetica,sans-serif;text-anchor:middle;" transform="matrix(1 0 0 1 1746.56 322)">Medium</text>
  <text style="stroke:none;fill:black;font-family:-apple-system,&quot;SF Pro Display&quot;,&quot;SF Pro Text&quot;,Helvetica,sans-serif;text-anchor:middle;" transform="matrix(1 0 0 1 2043.27 322)">Semibold</text>
  <text style="stroke:none;fill:black;font-family:-apple-system,&quot;SF Pro Display&quot;,&quot;SF Pro Text&quot;,Helvetica,sans-serif;text-anchor:middle;" transform="matrix(1 0 0 1 2339.98 322)">Bold</text>
  <text style="stroke:none;fill:black;font-family:-apple-system,&quot;SF Pro Display&quot;,&quot;SF Pro Text&quot;,Helvetica,sans-serif;text-anchor:middle;" transform="matrix(1 0 0 1 2636.69 322)">Heavy</text>
  <text style="stroke:none;fill:black;font-family:-apple-system,&quot;SF Pro Display&quot;,&quot;SF Pro Text&quot;,Helvetica,sans-serif;text-anchor:middle;" transform="matrix(1 0 0 1 2933.4 322)">Black</text>
  <line id="" style="fill:none;stroke:black;opacity:1;stroke-width:0.5;" x1="263" x2="3036" y1="1903" y2="1903"/>
  <g id="" transform="matrix(1 0 0 1 263 1933)">
   <path d="M9.24805 0.830078C13.5547 0.830078 17.1387-2.74414 17.1387-7.05078C17.1387-11.3574 13.5449-14.9316 9.23828-14.9316C4.94141-14.9316 1.36719-11.3574 1.36719-7.05078C1.36719-2.74414 4.95117 0.830078 9.24805 0.830078ZM9.24805-0.654297C5.70312-0.654297 2.87109-3.49609 2.87109-7.05078C2.87109-10.6055 5.69336-13.4473 9.23828-13.4473C12.793-13.4473 15.6348-10.6055 15.6445-7.05078C15.6543-3.49609 12.8027-0.654297 9.24805-0.654297ZM6.39648-6.31836L8.50586-6.31836L8.50586-4.19922C8.50586-3.75977 8.79883-3.45703 9.22852-3.45703C9.67773-3.45703 9.9707-3.75977 9.9707-4.19922L9.9707-6.31836L12.0996-6.31836C12.5391-6.31836 12.8418-6.61133 12.8418-7.04102C12.8418-7.48047 12.5391-7.7832 12.0996-7.7832L9.9707-7.7832L9.9707-9.89258C9.9707-10.3418 9.67773-10.6445 9.22852-10.6445C8.79883-10.6445 8.50586-10.3418 8.50586-9.89258L8.50586-7.7832L6.39648-7.7832C5.94727-7.7832 5.64453-7.48047 5.64453-7.04102C5.64453-6.61133 5.94727-6.31836 6.39648-6.31836Z"/>
  </g>
  <g id="" transform="matrix(1 0 0 1 281.506 1933)">
   <path d="M11.709 2.91016C17.1582 2.91016 21.6699-1.61133 21.6699-7.05078C21.6699-12.5 17.1484-17.0117 11.6992-17.0117C6.25977-17.0117 1.74805-12.5 1.74805-7.05078C1.74805-1.61133 6.26953 2.91016 11.709 2.91016ZM11.709 1.25C7.09961 1.25 3.41797-2.44141 3.41797-7.05078C3.41797-11.6602 7.08984-15.3516 11.6992-15.3516C16.3086-15.3516 20-11.6602 20.0098-7.05078C20.0195-2.44141 16.3184 1.25 11.709 1.25ZM7.98828-6.23047L10.8789-6.23047L10.8789-3.32031C10.8789-2.83203 11.2109-2.5 11.6895-2.5C12.1777-2.5 12.5195-2.83203 12.5195-3.32031L12.5195-6.23047L15.4297-6.23047C15.918-6.23047 16.25-6.5625 16.25-7.04102C16.25-7.5293 15.918-7.87109 15.4297-7.87109L12.5195-7.87109L12.5195-10.7617C12.5195-11.2695 12.1777-11.6016 11.6895-11.6016C11.2109-11.6016 10.8789-11.2598 10.8789-10.7617L10.8789-7.87109L7.98828-7.87109C7.48047-7.87109 7.14844-7.5293 7.14844-7.04102C7.14844-6.5625 7.49023-6.23047 7.98828-6.23047Z"/>
  </g>
  <g id="" transform="matrix(1 0 0 1 304.924 1933)">
   <path d="M14.9707 5.66406C21.9336 5.66406 27.6953-0.0976562 27.6953-7.05078C27.6953-14.0137 21.9238-19.7754 14.9609-19.7754C8.00781-19.7754 2.25586-14.0137 2.25586-7.05078C2.25586-0.0976562 8.01758 5.66406 14.9707 5.66406ZM14.9707 3.84766C8.93555 3.84766 4.08203-1.01562 4.08203-7.05078C4.08203-13.0957 8.92578-17.9492 14.9609-17.9492C21.0059-17.9492 25.8594-13.0957 25.8691-7.05078C25.8789-1.01562 21.0156 3.84766 14.9707 3.84766ZM10.0586-6.14258L14.0625-6.14258L14.0625-2.12891C14.0625-1.5918 14.4336-1.2207 14.9512-1.2207C15.4883-1.2207 15.8594-1.5918 15.8594-2.12891L15.8594-6.14258L19.8828-6.14258C20.4102-6.14258 20.791-6.51367 20.791-7.03125C20.791-7.56836 20.4199-7.94922 19.8828-7.94922L15.8594-7.94922L15.8594-11.9531C15.8594-12.5098 15.4883-12.8809 14.9512-12.8809C14.4336-12.8809 14.0625-12.5 14.0625-11.9531L14.0625-7.94922L10.0586-7.94922C9.50195-7.94922 9.13086-7.56836 9.13086-7.03125C9.13086-6.51367 9.51172-6.14258 10.0586-6.14258Z"/>
  </g>
  <text style="stroke:none;fill:black;font-family:-apple-system,&quot;SF Pro Display&quot;,&quot;SF Pro Text&quot;,Helvetica,sans-serif;font-weight:bold;" transform="matrix(1 0 0 1 263 1953)">Design Variations</text>
  <text style="stroke:none;fill:black;font-family:-apple-system,&quot;SF Pro Display&quot;,&quot;SF Pro Text&quot;,Helvetica,sans-serif;" transform="matrix(1 0 0 1 263 1971)">Symbols are supported in up to nine weights and three scales.</text>
  <text style="stroke:none;fill:black;font-family:-apple-system,&quot;SF Pro Display&quot;,&quot;SF Pro Text&quot;,Helvetica,sans-serif;" transform="matrix(1 0 0 1 263 1989)">For optimal layout with text and other symbols, vertically align</text>
  <text style="stroke:none;fill:black;font-family:-apple-system,&quot;SF Pro Display&quot;,&quot;SF Pro Text&quot;,Helvetica,sans-serif;" transform="matrix(1 0 0 1 263 2007)">symbols with the adjacent text.</text>
  <line id="" style="fill:none;stroke:#00AEEF;stroke-width:0.5;opacity:1.0;" x1="776" x2="776" y1="1919" y2="1933"/>
  <g id="" transform="matrix(1 0 0 1 776 1933)">
   <path d="M3.31055 0.126953C3.82812 0.126953 4.08203-0.0683594 4.26758-0.605469L5.52734-4.0625L11.2891-4.0625L12.5488-0.605469C12.7344-0.0683594 12.9883 0.126953 13.4961 0.126953C14.0137 0.126953 14.3457-0.185547 14.3457-0.673828C14.3457-0.839844 14.3164-0.986328 14.2383-1.20117L9.6582-13.3887C9.43359-13.9941 9.0332-14.2871 8.4082-14.2871C7.80273-14.2871 7.39258-13.9941 7.17773-13.3984L2.59766-1.19141C2.51953-0.976562 2.49023-0.830078 2.49023-0.664062C2.49023-0.175781 2.80273 0.126953 3.31055 0.126953ZM6.00586-5.53711L8.37891-12.1094L8.42773-12.1094L10.8008-5.53711Z"/>
  </g>
  <line id="" style="fill:none;stroke:#00AEEF;stroke-width:0.5;opacity:1.0;" x1="792.836" x2="792.836" y1="1919" y2="1933"/>
  <text style="stroke:none;fill:black;font-family:-apple-system,&quot;SF Pro Display&quot;,&quot;SF Pro Text&quot;,Helvetica,sans-serif;font-weight:bold;" transform="matrix(1 0 0 1 776 1953)">Margins</text>
  <text style="stroke:none;fill:black;font-family:-apple-system,&quot;SF Pro Display&quot;,&quot;SF Pro Text&quot;,Helvetica,sans-serif;" transform="matrix(1 0 0 1 776 1971)">Leading and trailing margins on the left and right side of each symbol</text>
  <text style="stroke:none;fill:black;font-family:-apple-system,&quot;SF Pro Display&quot;,&quot;SF Pro Text&quot;,Helvetica,sans-serif;" transform="matrix(1 0 0 1 776 1989)">can be adjusted by modifying the x-location of the margin guidelines.</text>
  <text style="stroke:none;fill:black;font-family:-apple-system,&quot;SF Pro Display&quot;,&quot;SF Pro Text&quot;,Helvetica,sans-serif;" transform="matrix(1 0 0 1 776 2007)">Modifications are automatically applied proportionally to all</text>
  <text style="stroke:none;fill:black;font-family:-apple-system,&quot;SF Pro Display&quot;,&quot;SF Pro Text&quot;,Helvetica,sans-serif;" transform="matrix(1 0 0 1 776 2025)">scales and weights.</text>
  <g id="" transform="matrix(1 0 0 1 1289 1933)">
   <path d="M2.8418 1.86523L4.54102 3.57422C5.40039 4.44336 6.38672 4.38477 7.31445 3.35938L17.4902-7.85156C17.7539-7.76367 18.0273-7.7832 18.3398-7.8418L19.4043-8.03711L20.0684-7.36328L20.0293-6.80664C19.9902-6.30859 20.1172-5.92773 20.6055-5.44922L21.3672-4.70703C21.8457-4.22852 22.4609-4.19922 22.9297-4.66797L25.8398-7.58789C26.3086-8.05664 26.2891-8.65234 25.8105-9.13086L25.0391-9.89258C24.5605-10.3711 24.1895-10.5273 23.7109-10.4883L23.1348-10.4395L22.4902-11.0742L22.7344-12.1973C22.8613-12.7637 22.7051-13.2031 22.1191-13.7891L19.9219-15.9766C16.582-19.2969 12.1484-19.2188 9.25781-16.3281C8.83789-15.918 8.80859-15.3418 9.04297-14.9512C9.27734-14.5898 9.73633-14.3555 10.3809-14.5215C11.8457-14.8633 13.3691-14.9219 14.7949-13.9844L14.209-12.5293C14.0137-12.0508 13.9844-11.6504 14.1113-11.2891L3.04688-0.898438C2.06055 0.0195312 1.98242 0.996094 2.8418 1.86523ZM10.752-15.957C13.1836-17.7344 16.4746-17.4316 18.7012-15.2051L21.1328-12.793C21.3672-12.5586 21.4062-12.373 21.3379-12.0312L21.0156-10.5469L22.5195-9.0625L23.5059-9.12109C23.7598-9.13086 23.8379-9.11133 24.0332-8.91602L24.6094-8.33984L22.168-5.89844L21.5918-6.47461C21.3965-6.66992 21.3672-6.74805 21.377-7.01172L21.4453-7.98828L19.9512-9.47266L18.4277-9.21875C18.1055-9.15039 17.959-9.17969 17.7148-9.41406L15.7129-11.416C15.459-11.6504 15.4297-11.8164 15.5859-12.1875L16.4648-14.2773C14.9023-15.7324 12.8711-16.3574 10.8398-15.7617C10.6836-15.7227 10.625-15.8496 10.752-15.957ZM5.27344 2.30469L4.10156 1.14258C3.63281 0.683594 3.74023 0.341797 4.14062-0.0195312L14.9512-10.1953L16.416-8.71094L6.42578 2.27539C6.07422 2.67578 5.74219 2.77344 5.27344 2.30469Z"/>
  </g>
  <text style="stroke:none;fill:black;font-family:-apple-system,&quot;SF Pro Display&quot;,&quot;SF Pro Text&quot;,Helvetica,sans-serif;font-weight:bold;" transform="matrix(1 0 0 1 1289 1953)">Exporting</text>
  <text style="stroke:none;fill:black;font-family:-apple-system,&quot;SF Pro Display&quot;,&quot;SF Pro Text&quot;,Helvetica,sans-serif;" transform="matrix(1 0 0 1 1289 1971)">Symbols should be outlined when exporting to ensure the</text>
  <text style="stroke:none;fill:black;font-family:-apple-system,&quot;SF Pro Display&quot;,&quot;SF Pro Text&quot;,Helvetica,sans-serif;" transform="matrix(1 0 0 1 1289 1989)">design is preserved when submitting to Xcode.</text>
  <text id="template-version" style="stroke:none;fill:black;font-family:-apple-system,&quot;SF Pro Display&quot;,&quot;SF Pro Text&quot;,Helvetica,sans-serif;text-anchor:end;" transform="matrix(1 0 0 1 3036 1933)">Template v.2.0</text>
  <text style="stroke:none;fill:black;font-family:-apple-system,&quot;SF Pro Display&quot;,&quot;SF Pro Text&quot;,Helvetica,sans-serif;text-anchor:end;" transform="matrix(1 0 0 1 3036 1951)">Requires Xcode 12 or greater</text>
  <text style="stroke:none;fill:black;font-family:-apple-system,&quot;SF Pro Display&quot;,&quot;SF Pro Text&quot;,Helvetica,sans-serif;" transform="matrix(1 0 0 1 263 726)">Small</text>
  <text style="stroke:none;fill:black;font-family:-apple-system,&quot;SF Pro Display&quot;,&quot;SF Pro Text&quot;,Helvetica,sans-serif;" transform="matrix(1 0 0 1 263 1156)">Medium</text>
  <text style="stroke:none;fill:black;font-family:-apple-system,&quot;SF Pro Display&quot;,&quot;SF Pro Text&quot;,Helvetica,sans-serif;" transform="matrix(1 0 0 1 263 1586)">Large</text>
 </g>
 <g id="Guides">
  <g id="H-reference" style="fill:#27AAE1;stroke:none;" transform="matrix(1 0 0 1 339 696)">
   <path d="M0.976562 0L3.66211 0L12.9883-24.4629L45.752-24.4629L55.127 0L57.7637 0L30.6152-70.459L28.125-70.459ZM29.3457-67.1387L29.4434-67.1387L44.873-26.709L13.8672-26.709Z"/>
  </g>
  <line id="Baseline-S" style="fill:none;stroke:#27AAE1;opacity:1;stroke-width:0.5;" x1="263" x2="3036" y1="696" y2="696"/>
  <line id="Capline-S" style="fill:none;stroke:#27AAE1;opacity:1;stroke-width:0.5;" x1="263" x2="3036" y1="625.541" y2="625.541"/>
  <g id="H-reference" style="fill:#27AAE1;stroke:none;" transform="matrix(1 0 0 1 339 1126)">
   <path d="M0.976562 0L3.66211 0L12.9883-24.4629L45.752-24.4629L55.127 0L57.7637 0L30.6152-70.459L28.125-70.459ZM29.3457-67.1387L29.4434-67.1387L44.873-26.709L13.8672-26.709Z"/>
  </g>
  <line id="Baseline-M" style="fill:none;stroke:#27AAE1;opacity:1;stroke-width:0.5;" x1="263" x2="3036" y1="1126" y2="1126"/>
  <line id="Capline-M" style="fill:none;stroke:#27AAE1;opacity:1;stroke-width:0.5;" x1="263" x2="3036" y1="1055.54" y2="1055.54"/>
  <g id="H-reference" style="fill:#27AAE1;stroke:none;" transform="matrix(1 0 0 1 339 1556)">
   <path d="M0.976562 0L3.66211 0L12.9883-24.4629L45.752-24.4629L55.127 0L57.7637 0L30.6152-70.459L28.125-70.459ZM29.3457-67.1387L29.4434-67.1387L44.873-26.709L13.8672-26.709Z"/>
  </g>
  <line id="Baseline-L" style="fill:none;stroke:#27AAE1;opacity:1;stroke-width:0.5;" x1="263" x2="3036" y1="1556" y2="1556"/>
  <line id="Capline-L" style="fill:none;stroke:#27AAE1;opacity:1;stroke-width:0.5;" x1="263" x2="3036" y1="1485.54" y2="1485.54"/>
  <line id="left-margin" x1="1396.5944265189628" x2="1396.5944265189628" y1="1030.79" y2="1150.12" style="fill:none;stroke:#00AEEF;stroke-width:0.5;opacity:1.0;"/>
  <line id="right-margin" x1="1505.665573481037" x2="1505.665573481037" y1="1030.79" y2="1150.12" style="fill:none;stroke:#00AEEF;stroke-width:0.5;opacity:1.0;"/>
 </g>
 <g id="Symbols">
  <g id="Black-L" transform="matrix(1.0,0.0,0.0,1.0,2864.3291102094618,1443.3840407616583)">  <path stroke-opacity="1" stroke-linejoin="round" fill-rule="nonzero" stroke-dasharray="none" stroke="none" stroke-width="3px" stroke-miterlimit="4" stroke-linecap="round" fill-opacity="1" fill="#000000" clip-path="url(#clip0_151_1553)" d="M105.526,4.016L35.175,4.016C11.491,4.016,-7.709,23.216,-7.709,46.901L-7.709,105.526C-7.709,129.211,11.491,148.411,35.175,148.411L105.526,148.411C129.211,148.411,148.411,129.211,148.411,105.526L148.411,46.901C148.411,23.216,129.211,4.016,105.526,4.016ZM105.526,42.885C107.744,42.885,109.542,44.683,109.542,46.901L109.542,105.526C109.542,107.744,107.744,109.542,105.526,109.542L35.175,109.542C32.958,109.542,31.16,107.744,31.16,105.526L31.16,46.901C31.16,44.683,32.958,42.885,35.175,42.885L105.526,42.885Z"/>
  <path clip-path="url(#clip0_151_1553)" stroke-width="3px" stroke-dasharray="none" fill-opacity="1" fill="#000000" stroke-miterlimit="4" stroke-opacity="1" stroke="none" stroke-linecap="round" stroke-linejoin="round" fill-rule="nonzero" d="M27.466,11.725L27.466,35.175C27.466,45.909,36.167,54.61,46.901,54.61C57.634,54.61,66.335,45.909,66.335,35.175L66.335,11.725C66.335,0.992,57.634,-7.709,46.901,-7.709C36.167,-7.709,27.466,0.992,27.466,11.725Z"/>
  <path stroke-width="3px" stroke-miterlimit="4" stroke-linejoin="round" stroke-opacity="1" fill-rule="nonzero" stroke="none" fill-opacity="1" fill="#000000" stroke-dasharray="none" clip-path="url(#clip0_151_1553)" stroke-linecap="round" d="M74.367,11.725L74.367,35.175C74.367,45.909,83.068,54.61,93.801,54.61C104.535,54.61,113.236,45.909,113.236,35.175L113.236,11.725C113.236,0.992,104.535,-7.709,93.801,-7.709C83.068,-7.709,74.367,0.992,74.367,11.725Z"/>
  <path stroke-miterlimit="4" stroke-linecap="round" fill="#000000" stroke-linejoin="round" fill-rule="nonzero" clip-path="url(#clip0_151_1553)" fill-opacity="1" stroke-opacity="1" stroke-dasharray="none" stroke-width="3px" stroke="none" d="M11.725,78.06L128.977,78.06C139.71,78.06,148.411,69.359,148.411,58.626C148.411,47.892,139.71,39.191,128.977,39.191L11.725,39.191C0.992,39.191,-7.709,47.892,-7.709,58.626C-7.709,69.359,0.992,78.06,11.725,78.06Z"/>
</g>
  <g id="Heavy-L" transform="matrix(1.0,0.0,0.0,1.0,2567.6191102094617,1443.3840407616583)">  <path clip-path="url(#clip0_151_1553)" fill-rule="nonzero" stroke-linecap="round" stroke-width="3px" stroke-opacity="1" stroke-miterlimit="4" fill="#000000" fill-opacity="1" stroke="none" stroke-dasharray="none" stroke-linejoin="round" d="M105.526,6.144L35.175,6.144C12.666,6.144,-5.581,24.391,-5.581,46.901L-5.581,105.526C-5.581,128.035,12.666,146.283,35.175,146.283L105.526,146.283C128.035,146.283,146.283,128.035,146.283,105.526L146.283,46.901C146.283,24.391,128.035,6.144,105.526,6.144ZM105.526,40.757C108.919,40.757,111.67,43.507,111.67,46.901L111.67,105.526C111.67,108.919,108.919,111.67,105.526,111.67L35.175,111.67C31.782,111.67,29.031,108.919,29.031,105.526L29.031,46.901C29.031,43.507,31.782,40.757,35.175,40.757L105.526,40.757Z"/>
  <path stroke-linejoin="round" clip-path="url(#clip0_151_1553)" stroke-dasharray="none" fill="#000000" fill-rule="nonzero" stroke="none" fill-opacity="1" stroke-linecap="round" stroke-opacity="1" stroke-miterlimit="4" stroke-width="3px" d="M29.594,11.725L29.594,35.175C29.594,44.733,37.343,52.482,46.901,52.482C56.459,52.482,64.207,44.733,64.207,35.175L64.207,11.725C64.207,2.167,56.459,-5.581,46.901,-5.581C37.343,-5.581,29.594,2.167,29.594,11.725Z"/>
  <path stroke="none" clip-path="url(#clip0_151_1553)" fill-rule="nonzero" stroke-miterlimit="4" stroke-linecap="round" stroke-opacity="1" fill-opacity="1" stroke-dasharray="none" stroke-width="3px" fill="#000000" stroke-linejoin="round" d="M76.495,11.725L76.495,35.175C76.495,44.733,84.243,52.482,93.801,52.482C103.359,52.482,111.108,44.733,111.108,35.175L111.108,11.725C111.108,2.167,103.359,-5.581,93.801,-5.581C84.243,-5.581,76.495,2.167,76.495,11.725Z"/>
  <path stroke-width="3px" stroke-dasharray="none" stroke-linecap="round" stroke-miterlimit="4" fill="#000000" stroke="none" clip-path="url(#clip0_151_1553)" fill-opacity="1" stroke-linejoin="round" stroke-opacity="1" fill-rule="nonzero" d="M11.725,75.932L128.977,75.932C138.535,75.932,146.283,68.184,146.283,58.626C146.283,49.068,138.535,41.319,128.977,41.319L11.725,41.319C2.167,41.319,-5.581,49.068,-5.581,58.626C-5.581,68.184,2.167,75.932,11.725,75.932Z"/>
</g>
  <g id="Bold-L" transform="matrix(1.0,0.0,0.0,1.0,2270.9091102094617,1443.3840407616583)">  <path stroke-linejoin="round" stroke-width="3px" fill-rule="nonzero" stroke-miterlimit="4" stroke="none" stroke-opacity="1" stroke-linecap="round" stroke-dasharray="none" fill="#000000" fill-opacity="1" clip-path="url(#clip0_151_1553)" d="M105.526,8.272L35.175,8.272C13.842,8.272,-3.453,25.567,-3.453,46.901L-3.453,105.526C-3.453,126.86,13.842,144.155,35.175,144.155L105.526,144.155C126.86,144.155,144.155,126.86,144.155,105.526L144.155,46.901C144.155,25.567,126.86,8.272,105.526,8.272ZM105.526,38.629C110.095,38.629,113.798,42.332,113.798,46.901L113.798,105.526C113.798,110.095,110.095,113.798,105.526,113.798L35.175,113.798C30.607,113.798,26.903,110.095,26.903,105.526L26.903,46.901C26.903,42.332,30.607,38.629,35.175,38.629L105.526,38.629Z"/>
  <path stroke="none" stroke-dasharray="none" stroke-width="3px" stroke-linejoin="round" fill-rule="nonzero" stroke-opacity="1" stroke-linecap="round" fill="#000000" stroke-miterlimit="4" fill-opacity="1" clip-path="url(#clip0_151_1553)" d="M31.722,11.725L31.722,35.175C31.722,43.558,38.518,50.354,46.901,50.354C55.283,50.354,62.079,43.558,62.079,35.175L62.079,11.725C62.079,3.342,55.283,-3.453,46.901,-3.453C38.518,-3.453,31.722,3.342,31.722,11.725Z"/>
  <path stroke-opacity="1" stroke-linecap="round" clip-path="url(#clip0_151_1553)" stroke-dasharray="none" stroke-width="3px" fill-opacity="1" stroke-linejoin="round" stroke="none" fill-rule="nonzero" stroke-miterlimit="4" fill="#000000" d="M78.623,11.725L78.623,35.175C78.623,43.558,85.418,50.354,93.801,50.354C102.184,50.354,108.979,43.558,108.979,35.175L108.979,11.725C108.979,3.342,102.184,-3.453,93.801,-3.453C85.418,-3.453,78.623,3.342,78.623,11.725Z"/>
  <path stroke-width="3px" fill="#000000" stroke-linecap="round" clip-path="url(#clip0_151_1553)" fill-opacity="1" stroke-opacity="1" stroke="none" fill-rule="nonzero" stroke-miterlimit="4" stroke-dasharray="none" stroke-linejoin="round" d="M11.725,73.804L128.977,73.804C137.359,73.804,144.155,67.008,144.155,58.626C144.155,50.243,137.359,43.448,128.977,43.448L11.725,43.448C3.342,43.448,-3.453,50.243,-3.453,58.626C-3.453,67.008,3.342,73.804,11.725,73.804Z"/>
</g>
  <g id="Semibold-L" transform="matrix(1.0,0.0,0.0,1.0,1974.199110209462,1443.3840407616583)">  <path stroke-width="3px" clip-path="url(#clip0_151_1553)" stroke="none" stroke-linejoin="round" fill-rule="nonzero" stroke-dasharray="none" stroke-linecap="round" stroke-opacity="1" stroke-miterlimit="4" fill="#000000" fill-opacity="1" d="M105.526,10.4L35.175,10.4C15.017,10.4,-1.325,26.742,-1.325,46.901L-1.325,105.526C-1.325,125.685,15.017,142.027,35.175,142.027L105.526,142.027C125.685,142.027,142.027,125.685,142.027,105.526L142.027,46.901C142.027,26.742,125.685,10.4,105.526,10.4ZM105.526,36.5C111.27,36.5,115.927,41.157,115.927,46.901L115.927,105.526C115.927,111.27,111.27,115.927,105.526,115.927L35.175,115.927C29.432,115.927,24.775,111.27,24.775,105.526L24.775,46.901C24.775,41.157,29.432,36.5,35.175,36.5L105.526,36.5Z"/>
  <path fill-rule="nonzero" stroke-width="3px" stroke-linecap="round" stroke-dasharray="none" stroke-opacity="1" fill="#000000" stroke-linejoin="round" stroke="none" stroke-miterlimit="4" clip-path="url(#clip0_151_1553)" fill-opacity="1" d="M33.851,11.725L33.851,35.175C33.851,42.383,39.693,48.226,46.901,48.226C54.108,48.226,59.951,42.383,59.951,35.175L59.951,11.725C59.951,4.518,54.108,-1.325,46.901,-1.325C39.693,-1.325,33.851,4.518,33.851,11.725Z"/>
  <path stroke="none" clip-path="url(#clip0_151_1553)" stroke-linejoin="round" stroke-dasharray="none" stroke-miterlimit="4" fill-opacity="1" stroke-width="3px" fill="#000000" fill-rule="nonzero" stroke-opacity="1" stroke-linecap="round" d="M80.751,11.725L80.751,35.175C80.751,42.383,86.594,48.226,93.801,48.226C101.009,48.226,106.851,42.383,106.851,35.175L106.851,11.725C106.851,4.518,101.009,-1.325,93.801,-1.325C86.594,-1.325,80.751,4.518,80.751,11.725Z"/>
  <path stroke="none" stroke-dasharray="none" stroke-linecap="round" stroke-width="3px" fill-rule="nonzero" stroke-miterlimit="4" stroke-linejoin="round" fill-opacity="1" stroke-opacity="1" clip-path="url(#clip0_151_1553)" fill="#000000" d="M11.725,71.676L128.977,71.676C136.184,71.676,142.027,65.833,142.027,58.626C142.027,51.418,136.184,45.576,128.977,45.576L11.725,45.576C4.518,45.576,-1.325,51.418,-1.325,58.626C-1.325,65.833,4.518,71.676,11.725,71.676Z"/>
</g>
  <g id="Medium-L" transform="matrix(1.0,0.0,0.0,1.0,1677.489110209462,1443.3840407616583)">  <path stroke-linejoin="round" stroke-linecap="round" clip-path="url(#clip0_151_1553)" stroke-miterlimit="4" fill-opacity="1" stroke="none" stroke-opacity="1" stroke-dasharray="none" fill="#000000" stroke-width="3px" fill-rule="nonzero" d="M105.526,12.528L35.175,12.528C16.192,12.528,0.803,27.917,0.803,46.901L0.803,105.526C0.803,124.509,16.192,139.899,35.175,139.899L105.526,139.899C124.509,139.899,139.899,124.509,139.899,105.526L139.899,46.901C139.899,27.917,124.509,12.528,105.526,12.528ZM105.526,34.372C112.445,34.372,118.055,39.981,118.055,46.901L118.055,105.526C118.055,112.445,112.445,118.055,105.526,118.055L35.175,118.055C28.256,118.055,22.647,112.445,22.647,105.526L22.647,46.901C22.647,39.981,28.256,34.372,35.175,34.372L105.526,34.372Z"/>
  <path clip-path="url(#clip0_151_1553)" stroke-opacity="1" fill="#000000" stroke-linejoin="round" stroke-miterlimit="4" fill-opacity="1" stroke-width="3px" fill-rule="nonzero" stroke="none" stroke-linecap="round" stroke-dasharray="none" d="M35.979,11.725L35.979,35.175C35.979,41.207,40.869,46.097,46.901,46.097C52.933,46.097,57.823,41.207,57.823,35.175L57.823,11.725C57.823,5.693,52.933,0.803,46.901,0.803C40.869,0.803,35.979,5.693,35.979,11.725Z"/>
  <path stroke-linecap="round" stroke="none" stroke-miterlimit="4" stroke-dasharray="none" stroke-opacity="1" stroke-width="3px" stroke-linejoin="round" clip-path="url(#clip0_151_1553)" fill-opacity="1" fill="#000000" fill-rule="nonzero" d="M82.879,11.725L82.879,35.175C82.879,41.207,87.769,46.097,93.801,46.097C99.833,46.097,104.723,41.207,104.723,35.175L104.723,11.725C104.723,5.693,99.833,0.803,93.801,0.803C87.769,0.803,82.879,5.693,82.879,11.725Z"/>
  <path stroke-linejoin="round" stroke-opacity="1" fill-opacity="1" stroke-linecap="round" fill-rule="nonzero" stroke-width="3px" clip-path="url(#clip0_151_1553)" stroke-dasharray="none" stroke="none" stroke-miterlimit="4" fill="#000000" d="M11.725,69.548L128.977,69.548C135.009,69.548,139.899,64.658,139.899,58.626C139.899,52.594,135.009,47.704,128.977,47.704L11.725,47.704C5.693,47.704,0.803,52.594,0.803,58.626C0.803,64.658,5.693,69.548,11.725,69.548Z"/>
</g>
  <g id="Regular-L" transform="matrix(1.0,0.0,0.0,1.0,1380.779110209462,1443.3840407616583)">  <path clip-path="url(#clip0_151_1553)" stroke-dasharray="none" stroke-opacity="1" fill="#000000" stroke="none" fill-opacity="1" stroke-width="3px" stroke-miterlimit="4" fill-rule="nonzero" stroke-linejoin="round" stroke-linecap="round" d="M105.526,14.656L35.175,14.656C17.367,14.656,2.931,29.093,2.931,46.901L2.931,105.526C2.931,123.334,17.368,137.77,35.175,137.77L105.526,137.77C123.334,137.77,137.77,123.334,137.77,105.526L137.77,46.901C137.77,29.093,123.334,14.656,105.526,14.656ZM105.526,32.244C113.621,32.244,120.183,38.806,120.183,46.901L120.183,105.526C120.183,113.621,113.621,120.183,105.526,120.183L35.175,120.183C27.081,120.183,20.519,113.621,20.519,105.526L20.519,46.901C20.519,38.806,27.081,32.244,35.175,32.244L105.526,32.244Z"/>
  <path fill-rule="nonzero" stroke-linejoin="round" fill="#000000" stroke-opacity="1" stroke-dasharray="none" clip-path="url(#clip0_151_1553)" fill-opacity="1" stroke-linecap="round" stroke="none" stroke-width="3px" stroke-miterlimit="4" d="M38.107,11.725L38.107,35.175C38.107,40.032,42.044,43.969,46.901,43.969C51.757,43.969,55.694,40.032,55.694,35.175L55.694,11.725C55.694,6.868,51.757,2.931,46.901,2.931C42.044,2.931,38.107,6.868,38.107,11.725Z"/>
  <path stroke-dasharray="none" clip-path="url(#clip0_151_1553)" fill-rule="nonzero" stroke-linejoin="round" stroke-opacity="1" stroke="none" fill-opacity="1" fill="#000000" stroke-miterlimit="4" stroke-width="3px" stroke-linecap="round" d="M85.007,11.725L85.007,35.175C85.007,40.032,88.944,43.969,93.801,43.969C98.658,43.969,102.595,40.032,102.595,35.175L102.595,11.725C102.595,6.868,98.658,2.931,93.801,2.931C88.944,2.931,85.007,6.868,85.007,11.725Z"/>
  <path clip-path="url(#clip0_151_1553)" fill-rule="nonzero" stroke-width="3px" fill="#000000" stroke-linejoin="round" stroke-linecap="round" stroke-opacity="1" stroke-miterlimit="4" stroke-dasharray="none" fill-opacity="1" stroke="none" d="M11.725,67.42L128.977,67.42C133.833,67.42,137.77,63.482,137.77,58.626C137.77,53.769,133.833,49.832,128.977,49.832L11.725,49.832C6.868,49.832,2.931,53.769,2.931,58.626C2.931,63.482,6.868,67.42,11.725,67.42Z"/>
</g>
  <g id="Light-L" transform="matrix(1.0,0.0,0.0,1.0,1084.0691102094622,1443.3840407616583)">  <path stroke-dasharray="none" fill-rule="nonzero" stroke="none" stroke-opacity="1" clip-path="url(#clip0_151_1553)" stroke-linejoin="round" fill="#000000" stroke-miterlimit="4" fill-opacity="1" stroke-width="3px" stroke-linecap="round" d="M105.526,16.122L35.175,16.122C18.177,16.122,4.397,29.902,4.397,46.901L4.397,105.526C4.397,122.525,18.177,136.305,35.175,136.305L105.526,136.305C122.525,136.305,136.305,122.525,136.305,105.526L136.305,46.901C136.305,29.902,122.525,16.122,105.526,16.122ZM105.526,30.779C114.43,30.779,121.648,37.997,121.648,46.901L121.648,105.526C121.648,114.43,114.43,121.648,105.526,121.648L35.175,121.648C26.272,121.648,19.053,114.43,19.053,105.526L19.053,46.901C19.053,37.997,26.271,30.779,35.175,30.779L105.526,30.779Z"/>
  <path fill-opacity="1" stroke="none" stroke-width="3px" stroke-miterlimit="4" stroke-linecap="round" fill="#000000" clip-path="url(#clip0_151_1553)" stroke-dasharray="none" stroke-linejoin="round" stroke-opacity="1" fill-rule="nonzero" d="M39.572,11.725L39.572,35.175C39.572,39.223,42.853,42.504,46.901,42.504C50.948,42.504,54.229,39.223,54.229,35.175L54.229,11.725C54.229,7.678,50.948,4.397,46.901,4.397C42.853,4.397,39.572,7.678,39.572,11.725Z"/>
  <path fill-rule="nonzero" stroke-miterlimit="4" stroke-linecap="round" clip-path="url(#clip0_151_1553)" stroke-width="3px" stroke-dasharray="none" stroke-opacity="1" stroke-linejoin="round" fill="#000000" fill-opacity="1" stroke="none" d="M86.473,11.725L86.473,35.175C86.473,39.223,89.754,42.504,93.801,42.504C97.848,42.504,101.129,39.223,101.129,35.175L101.129,11.725C101.129,7.678,97.848,4.397,93.801,4.397C89.754,4.397,86.473,7.678,86.473,11.725Z"/>
  <path stroke-width="3px" stroke="none" fill-opacity="1" clip-path="url(#clip0_151_1553)" stroke-linecap="round" stroke-dasharray="none" stroke-miterlimit="4" stroke-linejoin="round" fill-rule="nonzero" stroke-opacity="1" fill="#000000" d="M11.725,65.954L128.977,65.954C133.024,65.954,136.305,62.673,136.305,58.626C136.305,54.578,133.024,51.298,128.977,51.298L11.725,51.298C7.678,51.298,4.397,54.578,4.397,58.626C4.397,62.673,7.678,65.954,11.725,65.954Z"/>
</g>
  <g id="Thin-L" transform="matrix(1.0,0.0,0.0,1.0,787.3591102094621,1443.3840407616583)">  <path clip-path="url(#clip0_151_1553)" stroke-dasharray="none" fill="#000000" fill-opacity="1" stroke-linecap="round" fill-rule="nonzero" stroke-width="3px" stroke-opacity="1" stroke="none" stroke-miterlimit="4" stroke-linejoin="round" d="M105.526,17.588L35.175,17.588C18.986,17.588,5.863,30.712,5.863,46.901L5.863,105.526C5.863,121.715,18.986,134.839,35.175,134.839L105.526,134.839C121.715,134.839,134.839,121.715,134.839,105.526L134.839,46.901C134.839,30.712,121.715,17.588,105.526,17.588ZM105.526,29.313C115.24,29.313,123.114,37.187,123.114,46.901L123.114,105.526C123.114,115.24,115.24,123.114,105.526,123.114L35.175,123.114C25.462,123.114,17.588,115.24,17.588,105.526L17.588,46.901C17.588,37.187,25.462,29.313,35.175,29.313L105.526,29.313Z"/>
  <path clip-path="url(#clip0_151_1553)" stroke-dasharray="none" stroke="none" stroke-opacity="1" fill="#000000" stroke-miterlimit="4" stroke-linejoin="round" fill-opacity="1" stroke-width="3px" stroke-linecap="round" fill-rule="nonzero" d="M41.038,11.725L41.038,35.175C41.038,38.413,43.663,41.038,46.901,41.038C50.138,41.038,52.763,38.413,52.763,35.175L52.763,11.725C52.763,8.487,50.138,5.863,46.901,5.863C43.663,5.863,41.038,8.487,41.038,11.725Z"/>
  <path fill-rule="nonzero" stroke-opacity="1" stroke-linejoin="round" stroke="none" fill-opacity="1" stroke-dasharray="none" clip-path="url(#clip0_151_1553)" fill="#000000" stroke-linecap="round" stroke-miterlimit="4" stroke-width="3px" d="M87.939,11.725L87.939,35.175C87.939,38.413,90.563,41.038,93.801,41.038C97.039,41.038,99.664,38.413,99.664,35.175L99.664,11.725C99.664,8.487,97.039,5.863,93.801,5.863C90.563,5.863,87.939,8.487,87.939,11.725Z"/>
  <path stroke="none" stroke-linejoin="round" fill="#000000" stroke-miterlimit="4" stroke-dasharray="none" fill-rule="nonzero" stroke-opacity="1" fill-opacity="1" clip-path="url(#clip0_151_1553)" stroke-width="3px" stroke-linecap="round" d="M11.725,64.488L128.977,64.488C132.214,64.488,134.839,61.864,134.839,58.626C134.839,55.388,132.214,52.763,128.977,52.763L11.725,52.763C8.487,52.763,5.863,55.388,5.863,58.626C5.863,61.864,8.487,64.488,11.725,64.488Z"/>
</g>
  <g id="Ultralight-L" transform="matrix(1.0,0.0,0.0,1.0,490.6491102094621,1443.3840407616583)">  <path stroke-width="3px" stroke-miterlimit="4" stroke="none" stroke-opacity="1" stroke-linejoin="round" fill="#000000" stroke-dasharray="none" clip-path="url(#clip0_151_1553)" stroke-linecap="round" fill-rule="nonzero" fill-opacity="1" d="M105.526,19.053L35.175,19.053C19.796,19.053,7.328,31.521,7.328,46.901L7.328,105.526C7.328,120.906,19.796,133.374,35.175,133.374L105.526,133.374C120.906,133.374,133.374,120.906,133.374,105.526L133.374,46.901C133.374,31.521,120.906,19.053,105.526,19.053ZM105.526,27.847C116.049,27.847,124.58,36.378,124.58,46.901L124.58,105.526C124.58,116.049,116.049,124.58,105.526,124.58L35.175,124.58C24.653,124.58,16.122,116.049,16.122,105.526L16.122,46.901C16.122,36.378,24.653,27.847,35.175,27.847L105.526,27.847Z"/>
  <path fill="#000000" stroke-linecap="round" stroke-width="3px" stroke-linejoin="round" fill-opacity="1" stroke-miterlimit="4" stroke-dasharray="none" stroke="none" clip-path="url(#clip0_151_1553)" fill-rule="nonzero" stroke-opacity="1" d="M42.504,11.725L42.504,35.175C42.504,37.604,44.472,39.572,46.901,39.572C49.329,39.572,51.298,37.604,51.298,35.175L51.298,11.725C51.298,9.297,49.329,7.328,46.901,7.328C44.472,7.328,42.504,9.297,42.504,11.725Z"/>
  <path fill-opacity="1" stroke-dasharray="none" stroke-opacity="1" clip-path="url(#clip0_151_1553)" fill="#000000" fill-rule="nonzero" stroke-width="3px" stroke-linejoin="round" stroke-linecap="round" stroke-miterlimit="4" stroke="none" d="M89.404,11.725L89.404,35.175C89.404,37.604,91.373,39.572,93.801,39.572C96.23,39.572,98.198,37.604,98.198,35.175L98.198,11.725C98.198,9.297,96.23,7.328,93.801,7.328C91.373,7.328,89.404,9.297,89.404,11.725Z"/>
  <path stroke="none" stroke-width="3px" clip-path="url(#clip0_151_1553)" stroke-opacity="1" stroke-linejoin="round" fill="#000000" stroke-linecap="round" fill-opacity="1" stroke-miterlimit="4" fill-rule="nonzero" stroke-dasharray="none" d="M11.725,63.023L128.977,63.023C131.405,63.023,133.374,61.054,133.374,58.626C133.374,56.197,131.405,54.229,128.977,54.229L11.725,54.229C9.297,54.229,7.328,56.197,7.328,58.626C7.328,61.054,9.297,63.023,11.725,63.023Z"/>
</g>
  <g id="Black-M" transform="matrix(1.0,0.0,0.0,1.0,2880.1444265189625,1030.7808887021092)">  <path stroke-opacity="1" stroke-linejoin="round" fill-rule="nonzero" stroke-dasharray="none" stroke="none" stroke-width="3px" stroke-miterlimit="4" stroke-linecap="round" fill-opacity="1" fill="#000000" clip-path="url(#clip0_151_1553)" d="M81.803,3.113L27.268,3.113C8.908,3.113,-5.976,17.997,-5.976,36.357L-5.976,81.803C-5.976,100.163,8.908,115.047,27.268,115.047L81.803,115.047C100.163,115.047,115.047,100.163,115.047,81.803L115.047,36.357C115.047,17.997,100.163,3.113,81.803,3.113ZM81.803,33.244C83.523,33.244,84.916,34.638,84.916,36.357L84.916,81.803C84.916,83.522,83.522,84.916,81.803,84.916L27.268,84.916C25.549,84.916,24.155,83.523,24.155,81.803L24.155,36.357C24.155,34.638,25.548,33.244,27.268,33.244L81.803,33.244Z"/>
  <path clip-path="url(#clip0_151_1553)" stroke-width="3px" stroke-dasharray="none" fill-opacity="1" fill="#000000" stroke-miterlimit="4" stroke-opacity="1" stroke="none" stroke-linecap="round" stroke-linejoin="round" fill-rule="nonzero" d="M21.292,9.089L21.292,27.268C21.292,35.588,28.037,42.333,36.357,42.333C44.677,42.333,51.423,35.588,51.423,27.268L51.423,9.089C51.423,0.769,44.677,-5.976,36.357,-5.976C28.037,-5.976,21.292,0.769,21.292,9.089Z"/>
  <path stroke-width="3px" stroke-miterlimit="4" stroke-linejoin="round" stroke-opacity="1" fill-rule="nonzero" stroke="none" fill-opacity="1" fill="#000000" stroke-dasharray="none" clip-path="url(#clip0_151_1553)" stroke-linecap="round" d="M57.649,9.089L57.649,27.268C57.649,35.588,64.394,42.333,72.714,42.333C81.035,42.333,87.78,35.588,87.78,27.268L87.78,9.089C87.78,0.769,81.035,-5.976,72.714,-5.976C64.394,-5.976,57.649,0.769,57.649,9.089Z"/>
  <path stroke-miterlimit="4" stroke-linecap="round" fill="#000000" stroke-linejoin="round" fill-rule="nonzero" clip-path="url(#clip0_151_1553)" fill-opacity="1" stroke-opacity="1" stroke-dasharray="none" stroke-width="3px" stroke="none" d="M9.089,60.512L99.982,60.512C108.302,60.512,115.047,53.767,115.047,45.446C115.047,37.126,108.302,30.381,99.982,30.381L9.089,30.381C0.769,30.381,-5.976,37.126,-5.976,45.446C-5.976,53.767,0.769,60.512,9.089,60.512Z"/>
</g>
  <g id="Heavy-M" transform="matrix(1.0,0.0,0.0,1.0,2583.4344265189625,1030.7808887021092)">  <path clip-path="url(#clip0_151_1553)" fill-rule="nonzero" stroke-linecap="round" stroke-width="3px" stroke-opacity="1" stroke-miterlimit="4" fill="#000000" fill-opacity="1" stroke="none" stroke-dasharray="none" stroke-linejoin="round" d="M81.803,4.763L27.268,4.763C9.819,4.763,-4.326,18.908,-4.326,36.357L-4.326,81.803C-4.326,99.252,9.819,113.398,27.268,113.398L81.803,113.398C99.252,113.398,113.398,99.252,113.398,81.803L113.398,36.357C113.398,18.908,99.252,4.763,81.803,4.763ZM81.803,31.594C84.434,31.594,86.566,33.727,86.566,36.357L86.566,81.803C86.566,84.434,84.434,86.566,81.803,86.566L27.268,86.566C24.637,86.566,22.505,84.434,22.505,81.803L22.505,36.357C22.505,33.727,24.637,31.594,27.268,31.594L81.803,31.594Z"/>
  <path stroke-linejoin="round" clip-path="url(#clip0_151_1553)" stroke-dasharray="none" fill="#000000" fill-rule="nonzero" stroke="none" fill-opacity="1" stroke-linecap="round" stroke-opacity="1" stroke-miterlimit="4" stroke-width="3px" d="M22.941,9.089L22.941,27.268C22.941,34.677,28.948,40.684,36.357,40.684C43.766,40.684,49.773,34.677,49.773,27.268L49.773,9.089C49.773,1.68,43.766,-4.326,36.357,-4.326C28.948,-4.326,22.941,1.68,22.941,9.089Z"/>
  <path stroke="none" clip-path="url(#clip0_151_1553)" fill-rule="nonzero" stroke-miterlimit="4" stroke-linecap="round" stroke-opacity="1" fill-opacity="1" stroke-dasharray="none" stroke-width="3px" fill="#000000" stroke-linejoin="round" d="M59.298,9.089L59.298,27.268C59.298,34.677,65.305,40.684,72.714,40.684C80.123,40.684,86.13,34.677,86.13,27.268L86.13,9.089C86.13,1.68,80.123,-4.326,72.714,-4.326C65.305,-4.326,59.298,1.68,59.298,9.089Z"/>
  <path stroke-width="3px" stroke-dasharray="none" stroke-linecap="round" stroke-miterlimit="4" fill="#000000" stroke="none" clip-path="url(#clip0_151_1553)" fill-opacity="1" stroke-linejoin="round" stroke-opacity="1" fill-rule="nonzero" d="M9.089,58.862L99.982,58.862C107.391,58.862,113.398,52.856,113.398,45.446C113.398,38.037,107.391,32.031,99.982,32.031L9.089,32.031C1.68,32.031,-4.326,38.037,-4.326,45.446C-4.326,52.856,1.68,58.862,9.089,58.862Z"/>
</g>
  <g id="Bold-M" transform="matrix(1.0,0.0,0.0,1.0,2286.7244265189624,1030.7808887021092)">  <path stroke-linejoin="round" stroke-width="3px" fill-rule="nonzero" stroke-miterlimit="4" stroke="none" stroke-opacity="1" stroke-linecap="round" stroke-dasharray="none" fill="#000000" fill-opacity="1" clip-path="url(#clip0_151_1553)" d="M81.803,6.412L27.268,6.412C10.73,6.412,-2.677,19.819,-2.677,36.357L-2.677,81.803C-2.677,98.341,10.73,111.748,27.268,111.748L81.803,111.748C98.341,111.748,111.748,98.341,111.748,81.803L111.748,36.357C111.748,19.819,98.341,6.412,81.803,6.412ZM81.803,29.945C85.345,29.945,88.216,32.816,88.216,36.357L88.216,81.803C88.216,85.345,85.345,88.216,81.803,88.216L27.268,88.216C23.726,88.216,20.855,85.345,20.855,81.803L20.855,36.357C20.855,32.816,23.726,29.945,27.268,29.945L81.803,29.945Z"/>
  <path stroke="none" stroke-dasharray="none" stroke-width="3px" stroke-linejoin="round" fill-rule="nonzero" stroke-opacity="1" stroke-linecap="round" fill="#000000" stroke-miterlimit="4" fill-opacity="1" clip-path="url(#clip0_151_1553)" d="M24.591,9.089L24.591,27.268C24.591,33.766,29.859,39.034,36.357,39.034C42.855,39.034,48.123,33.766,48.123,27.268L48.123,9.089C48.123,2.591,42.855,-2.677,36.357,-2.677C29.859,-2.677,24.591,2.591,24.591,9.089Z"/>
  <path stroke-opacity="1" stroke-linecap="round" clip-path="url(#clip0_151_1553)" stroke-dasharray="none" stroke-width="3px" fill-opacity="1" stroke-linejoin="round" stroke="none" fill-rule="nonzero" stroke-miterlimit="4" fill="#000000" d="M60.948,9.089L60.948,27.268C60.948,33.766,66.216,39.034,72.714,39.034C79.212,39.034,84.48,33.766,84.48,27.268L84.48,9.089C84.48,2.591,79.212,-2.677,72.714,-2.677C66.216,-2.677,60.948,2.591,60.948,9.089Z"/>
  <path stroke-width="3px" fill="#000000" stroke-linecap="round" clip-path="url(#clip0_151_1553)" fill-opacity="1" stroke-opacity="1" stroke="none" fill-rule="nonzero" stroke-miterlimit="4" stroke-dasharray="none" stroke-linejoin="round" d="M9.089,57.212L99.982,57.212C106.48,57.212,111.748,51.945,111.748,45.446C111.748,38.948,106.48,33.68,99.982,33.68L9.089,33.68C2.591,33.68,-2.677,38.948,-2.677,45.446C-2.677,51.945,2.591,57.212,9.089,57.212Z"/>
</g>
  <g id="Semibold-M" transform="matrix(1.0,0.0,0.0,1.0,1990.0144265189629,1030.7808887021092)">  <path stroke-width="3px" clip-path="url(#clip0_151_1553)" stroke="none" stroke-linejoin="round" fill-rule="nonzero" stroke-dasharray="none" stroke-linecap="round" stroke-opacity="1" stroke-miterlimit="4" fill="#000000" fill-opacity="1" d="M81.803,8.062L27.268,8.062C11.641,8.062,-1.027,20.73,-1.027,36.357L-1.027,81.803C-1.027,97.43,11.641,110.098,27.268,110.098L81.803,110.098C97.43,110.098,110.098,97.43,110.098,81.803L110.098,36.357C110.098,20.73,97.43,8.062,81.803,8.062ZM81.803,28.295C86.256,28.295,89.866,31.905,89.866,36.357L89.866,81.803C89.866,86.256,86.256,89.866,81.803,89.866L27.268,89.866C22.815,89.866,19.206,86.256,19.206,81.803L19.206,36.357C19.206,31.904,22.815,28.295,27.268,28.295L81.803,28.295Z"/>
  <path fill-rule="nonzero" stroke-width="3px" stroke-linecap="round" stroke-dasharray="none" stroke-opacity="1" fill="#000000" stroke-linejoin="round" stroke="none" stroke-miterlimit="4" clip-path="url(#clip0_151_1553)" fill-opacity="1" d="M26.241,9.089L26.241,27.268C26.241,32.855,30.77,37.384,36.357,37.384C41.944,37.384,46.473,32.855,46.473,27.268L46.473,9.089C46.473,3.502,41.944,-1.027,36.357,-1.027C30.77,-1.027,26.241,3.502,26.241,9.089Z"/>
  <path stroke="none" clip-path="url(#clip0_151_1553)" stroke-linejoin="round" stroke-dasharray="none" stroke-miterlimit="4" fill-opacity="1" stroke-width="3px" fill="#000000" fill-rule="nonzero" stroke-opacity="1" stroke-linecap="round" d="M62.598,9.089L62.598,27.268C62.598,32.855,67.127,37.384,72.714,37.384C78.301,37.384,82.83,32.855,82.83,27.268L82.83,9.089C82.83,3.502,78.301,-1.027,72.714,-1.027C67.127,-1.027,62.598,3.502,62.598,9.089Z"/>
  <path stroke="none" stroke-dasharray="none" stroke-linecap="round" stroke-width="3px" fill-rule="nonzero" stroke-miterlimit="4" stroke-linejoin="round" fill-opacity="1" stroke-opacity="1" clip-path="url(#clip0_151_1553)" fill="#000000" d="M9.089,55.563L99.982,55.563C105.569,55.563,110.098,51.033,110.098,45.446C110.098,39.859,105.569,35.33,99.982,35.33L9.089,35.33C3.502,35.33,-1.027,39.859,-1.027,45.446C-1.027,51.033,3.502,55.563,9.089,55.563Z"/>
</g>
  <g id="Medium-M" transform="matrix(1.0,0.0,0.0,1.0,1693.3044265189628,1030.7808887021092)">  <path stroke-linejoin="round" stroke-linecap="round" clip-path="url(#clip0_151_1553)" stroke-miterlimit="4" fill-opacity="1" stroke="none" stroke-opacity="1" stroke-dasharray="none" fill="#000000" stroke-width="3px" fill-rule="nonzero" d="M81.803,9.712L27.268,9.712C12.552,9.712,0.623,21.641,0.623,36.357L0.623,81.803C0.623,96.519,12.552,108.449,27.268,108.449L81.803,108.449C96.519,108.449,108.449,96.519,108.449,81.803L108.449,36.357C108.449,21.641,96.519,9.712,81.803,9.712ZM81.803,26.645C87.167,26.645,91.515,30.993,91.515,36.357L91.515,81.803C91.515,87.167,87.167,91.515,81.803,91.515L27.268,91.515C21.904,91.515,17.556,87.167,17.556,81.803L17.556,36.357C17.556,30.993,21.904,26.645,27.268,26.645L81.803,26.645Z"/>
  <path clip-path="url(#clip0_151_1553)" stroke-opacity="1" fill="#000000" stroke-linejoin="round" stroke-miterlimit="4" fill-opacity="1" stroke-width="3px" fill-rule="nonzero" stroke="none" stroke-linecap="round" stroke-dasharray="none" d="M27.89,9.089L27.89,27.268C27.89,31.944,31.681,35.734,36.357,35.734C41.033,35.734,44.824,31.944,44.824,27.268L44.824,9.089C44.824,4.413,41.033,0.623,36.357,0.623C31.681,0.623,27.89,4.413,27.89,9.089Z"/>
  <path stroke-linecap="round" stroke="none" stroke-miterlimit="4" stroke-dasharray="none" stroke-opacity="1" stroke-width="3px" stroke-linejoin="round" clip-path="url(#clip0_151_1553)" fill-opacity="1" fill="#000000" fill-rule="nonzero" d="M64.247,9.089L64.247,27.268C64.247,31.944,68.038,35.734,72.714,35.734C77.39,35.734,81.181,31.944,81.181,27.268L81.181,9.089C81.181,4.413,77.39,0.623,72.714,0.623C68.038,0.623,64.247,4.413,64.247,9.089Z"/>
  <path stroke-linejoin="round" stroke-opacity="1" fill-opacity="1" stroke-linecap="round" fill-rule="nonzero" stroke-width="3px" clip-path="url(#clip0_151_1553)" stroke-dasharray="none" stroke="none" stroke-miterlimit="4" fill="#000000" d="M9.089,53.913L99.982,53.913C104.658,53.913,108.449,50.122,108.449,45.446C108.449,40.77,104.658,36.98,99.982,36.98L9.089,36.98C4.413,36.98,0.623,40.77,0.623,45.446C0.623,50.122,4.413,53.913,9.089,53.913Z"/>
</g>
  <g id="Regular-M" transform="matrix(1.0,0.0,0.0,1.0,1396.5944265189628,1030.7808887021092)">  <path clip-path="url(#clip0_151_1553)" stroke-dasharray="none" stroke-opacity="1" fill="#000000" stroke="none" fill-opacity="1" stroke-width="3px" stroke-miterlimit="4" fill-rule="nonzero" stroke-linejoin="round" stroke-linecap="round" d="M81.803,11.362L27.268,11.362C13.463,11.362,2.272,22.552,2.272,36.357L2.272,81.803C2.272,95.608,13.463,106.799,27.268,106.799L81.803,106.799C95.608,106.799,106.799,95.608,106.799,81.803L106.799,36.357C106.799,22.552,95.608,11.362,81.803,11.362ZM81.803,24.995C88.078,24.995,93.165,30.082,93.165,36.357L93.165,81.803C93.165,88.078,88.078,93.165,81.803,93.165L27.268,93.165C20.993,93.165,15.906,88.078,15.906,81.803L15.906,36.357C15.906,30.082,20.993,24.995,27.268,24.995L81.803,24.995Z"/>
  <path fill-rule="nonzero" stroke-linejoin="round" fill="#000000" stroke-opacity="1" stroke-dasharray="none" clip-path="url(#clip0_151_1553)" fill-opacity="1" stroke-linecap="round" stroke="none" stroke-width="3px" stroke-miterlimit="4" d="M29.54,9.089L29.54,27.268C29.54,31.033,32.592,34.085,36.357,34.085C40.122,34.085,43.174,31.033,43.174,27.268L43.174,9.089C43.174,5.324,40.122,2.272,36.357,2.272C32.592,2.272,29.54,5.324,29.54,9.089Z"/>
  <path stroke-dasharray="none" clip-path="url(#clip0_151_1553)" fill-rule="nonzero" stroke-linejoin="round" stroke-opacity="1" stroke="none" fill-opacity="1" fill="#000000" stroke-miterlimit="4" stroke-width="3px" stroke-linecap="round" d="M65.897,9.089L65.897,27.268C65.897,31.033,68.949,34.085,72.714,34.085C76.479,34.085,79.531,31.033,79.531,27.268L79.531,9.089C79.531,5.324,76.479,2.272,72.714,2.272C68.949,2.272,65.897,5.324,65.897,9.089Z"/>
  <path clip-path="url(#clip0_151_1553)" fill-rule="nonzero" stroke-width="3px" fill="#000000" stroke-linejoin="round" stroke-linecap="round" stroke-opacity="1" stroke-miterlimit="4" stroke-dasharray="none" fill-opacity="1" stroke="none" d="M9.089,52.263L99.982,52.263C103.747,52.263,106.799,49.211,106.799,45.446C106.799,41.681,103.747,38.629,99.982,38.629L9.089,38.629C5.324,38.629,2.272,41.681,2.272,45.446C2.272,49.211,5.324,52.263,9.089,52.263Z"/>
</g>
  <g id="Light-M" transform="matrix(1.0,0.0,0.0,1.0,1099.884426518963,1030.7808887021092)">  <path stroke-dasharray="none" fill-rule="nonzero" stroke="none" stroke-opacity="1" clip-path="url(#clip0_151_1553)" stroke-linejoin="round" fill="#000000" stroke-miterlimit="4" fill-opacity="1" stroke-width="3px" stroke-linecap="round" d="M81.803,12.498L27.268,12.498C14.091,12.498,3.408,23.18,3.408,36.357L3.408,81.803C3.408,94.98,14.091,105.663,27.268,105.663L81.803,105.663C94.98,105.663,105.663,94.98,105.663,81.803L105.663,36.357C105.663,23.18,94.98,12.498,81.803,12.498ZM81.803,23.859C88.706,23.859,94.301,29.455,94.301,36.357L94.301,81.803C94.301,88.705,88.705,94.301,81.803,94.301L27.268,94.301C20.366,94.301,14.77,88.706,14.77,81.803L14.77,36.357C14.77,29.455,20.365,23.859,27.268,23.859L81.803,23.859Z"/>
  <path fill-opacity="1" stroke="none" stroke-width="3px" stroke-miterlimit="4" stroke-linecap="round" fill="#000000" clip-path="url(#clip0_151_1553)" stroke-dasharray="none" stroke-linejoin="round" stroke-opacity="1" fill-rule="nonzero" d="M30.676,9.089L30.676,27.268C30.676,30.405,33.22,32.949,36.357,32.949C39.494,32.949,42.038,30.405,42.038,27.268L42.038,9.089C42.038,5.952,39.494,3.408,36.357,3.408C33.22,3.408,30.676,5.952,30.676,9.089Z"/>
  <path fill-rule="nonzero" stroke-miterlimit="4" stroke-linecap="round" clip-path="url(#clip0_151_1553)" stroke-width="3px" stroke-dasharray="none" stroke-opacity="1" stroke-linejoin="round" fill="#000000" fill-opacity="1" stroke="none" d="M67.033,9.089L67.033,27.268C67.033,30.405,69.577,32.949,72.714,32.949C75.852,32.949,78.395,30.405,78.395,27.268L78.395,9.089C78.395,5.952,75.852,3.408,72.714,3.408C69.577,3.408,67.033,5.952,67.033,9.089Z"/>
  <path stroke-width="3px" stroke="none" fill-opacity="1" clip-path="url(#clip0_151_1553)" stroke-linecap="round" stroke-dasharray="none" stroke-miterlimit="4" stroke-linejoin="round" fill-rule="nonzero" stroke-opacity="1" fill="#000000" d="M9.089,51.127L99.982,51.127C103.119,51.127,105.663,48.584,105.663,45.446C105.663,42.309,103.119,39.766,99.982,39.766L9.089,39.766C5.952,39.766,3.408,42.309,3.408,45.446C3.408,48.584,5.952,51.127,9.089,51.127Z"/>
</g>
  <g id="Thin-M" transform="matrix(1.0,0.0,0.0,1.0,803.174426518963,1030.7808887021092)">  <path clip-path="url(#clip0_151_1553)" stroke-dasharray="none" fill="#000000" fill-opacity="1" stroke-linecap="round" fill-rule="nonzero" stroke-width="3px" stroke-opacity="1" stroke="none" stroke-miterlimit="4" stroke-linejoin="round" d="M81.803,13.634L27.268,13.634C14.718,13.634,4.545,23.807,4.545,36.357L4.545,81.803C4.545,94.353,14.718,104.527,27.268,104.527L81.803,104.527C94.353,104.527,104.527,94.353,104.527,81.803L104.527,36.357C104.527,23.807,94.353,13.634,81.803,13.634ZM81.803,22.723C89.333,22.723,95.437,28.827,95.437,36.357L95.437,81.803C95.437,89.333,89.333,95.437,81.803,95.437L27.268,95.437C19.738,95.437,13.634,89.333,13.634,81.803L13.634,36.357C13.634,28.827,19.738,22.723,27.268,22.723L81.803,22.723Z"/>
  <path clip-path="url(#clip0_151_1553)" stroke-dasharray="none" stroke="none" stroke-opacity="1" fill="#000000" stroke-miterlimit="4" stroke-linejoin="round" fill-opacity="1" stroke-width="3px" stroke-linecap="round" fill-rule="nonzero" d="M31.812,9.089L31.812,27.268C31.812,29.778,33.847,31.812,36.357,31.812C38.867,31.812,40.902,29.778,40.902,27.268L40.902,9.089C40.902,6.579,38.867,4.545,36.357,4.545C33.847,4.545,31.812,6.579,31.812,9.089Z"/>
  <path fill-rule="nonzero" stroke-opacity="1" stroke-linejoin="round" stroke="none" fill-opacity="1" stroke-dasharray="none" clip-path="url(#clip0_151_1553)" fill="#000000" stroke-linecap="round" stroke-miterlimit="4" stroke-width="3px" d="M68.169,9.089L68.169,27.268C68.169,29.778,70.204,31.812,72.714,31.812C75.224,31.812,77.259,29.778,77.259,27.268L77.259,9.089C77.259,6.579,75.224,4.545,72.714,4.545C70.204,4.545,68.169,6.579,68.169,9.089Z"/>
  <path stroke="none" stroke-linejoin="round" fill="#000000" stroke-miterlimit="4" stroke-dasharray="none" fill-rule="nonzero" stroke-opacity="1" fill-opacity="1" clip-path="url(#clip0_151_1553)" stroke-width="3px" stroke-linecap="round" d="M9.089,49.991L99.982,49.991C102.492,49.991,104.527,47.956,104.527,45.446C104.527,42.936,102.492,40.902,99.982,40.902L9.089,40.902C6.579,40.902,4.545,42.936,4.545,45.446C4.545,47.956,6.579,49.991,9.089,49.991Z"/>
</g>
  <g id="Ultralight-M" transform="matrix(1.0,0.0,0.0,1.0,506.46442651896285,1030.7808887021092)">  <path stroke-width="3px" stroke-miterlimit="4" stroke="none" stroke-opacity="1" stroke-linejoin="round" fill="#000000" stroke-dasharray="none" clip-path="url(#clip0_151_1553)" stroke-linecap="round" fill-rule="nonzero" fill-opacity="1" d="M81.803,14.77L27.268,14.77C15.346,14.77,5.681,24.435,5.681,36.357L5.681,81.803C5.681,93.725,15.346,103.39,27.268,103.39L81.803,103.39C93.725,103.39,103.39,93.725,103.39,81.803L103.39,36.357C103.39,24.435,93.725,14.77,81.803,14.77ZM81.803,21.587C89.961,21.587,96.573,28.2,96.573,36.357L96.573,81.803C96.573,89.96,89.96,96.573,81.803,96.573L27.268,96.573C19.111,96.573,12.498,89.961,12.498,81.803L12.498,36.357C12.498,28.2,19.111,21.587,27.268,21.587L81.803,21.587Z"/>
  <path fill="#000000" stroke-linecap="round" stroke-width="3px" stroke-linejoin="round" fill-opacity="1" stroke-miterlimit="4" stroke-dasharray="none" stroke="none" clip-path="url(#clip0_151_1553)" fill-rule="nonzero" stroke-opacity="1" d="M32.949,9.089L32.949,27.268C32.949,29.15,34.475,30.676,36.357,30.676C38.239,30.676,39.766,29.15,39.766,27.268L39.766,9.089C39.766,7.207,38.239,5.681,36.357,5.681C34.475,5.681,32.949,7.207,32.949,9.089Z"/>
  <path fill-opacity="1" stroke-dasharray="none" stroke-opacity="1" clip-path="url(#clip0_151_1553)" fill="#000000" fill-rule="nonzero" stroke-width="3px" stroke-linejoin="round" stroke-linecap="round" stroke-miterlimit="4" stroke="none" d="M69.306,9.089L69.306,27.268C69.306,29.15,70.832,30.676,72.714,30.676C74.597,30.676,76.123,29.15,76.123,27.268L76.123,9.089C76.123,7.207,74.597,5.681,72.714,5.681C70.832,5.681,69.306,7.207,69.306,9.089Z"/>
  <path stroke="none" stroke-width="3px" clip-path="url(#clip0_151_1553)" stroke-opacity="1" stroke-linejoin="round" fill="#000000" stroke-linecap="round" fill-opacity="1" stroke-miterlimit="4" fill-rule="nonzero" stroke-dasharray="none" d="M9.089,48.855L99.982,48.855C101.864,48.855,103.39,47.329,103.39,45.446C103.39,43.564,101.864,42.038,99.982,42.038L9.089,42.038C7.207,42.038,5.681,43.564,5.681,45.446C5.681,47.329,7.207,48.855,9.089,48.855Z"/>
</g>
  <g id="Black-S" transform="matrix(1.0,0.0,0.0,1.0,2891.978645964348,613.7985300920327)">  <path stroke-opacity="1" stroke-linejoin="round" fill-rule="nonzero" stroke-dasharray="none" stroke="none" stroke-width="3px" stroke-miterlimit="4" stroke-linecap="round" fill-opacity="1" fill="#000000" clip-path="url(#clip0_151_1553)" d="M64.052,2.438L21.351,2.438C6.975,2.438,-4.679,14.092,-4.679,28.468L-4.679,64.052C-4.679,78.428,6.975,90.082,21.351,90.082L64.052,90.082C78.428,90.082,90.082,78.428,90.082,64.052L90.082,28.468C90.082,14.092,78.428,2.438,64.052,2.438ZM64.052,26.03C65.398,26.03,66.49,27.121,66.49,28.468L66.49,64.052C66.49,65.398,65.398,66.49,64.052,66.49L21.351,66.49C20.005,66.49,18.913,65.398,18.913,64.052L18.913,28.468C18.913,27.121,20.004,26.03,21.351,26.03L64.052,26.03Z"/>
  <path clip-path="url(#clip0_151_1553)" stroke-width="3px" stroke-dasharray="none" fill-opacity="1" fill="#000000" stroke-miterlimit="4" stroke-opacity="1" stroke="none" stroke-linecap="round" stroke-linejoin="round" fill-rule="nonzero" d="M16.671,7.117L16.671,21.351C16.671,27.866,21.953,33.147,28.468,33.147C34.982,33.147,40.264,27.866,40.264,21.351L40.264,7.117C40.264,0.602,34.982,-4.679,28.468,-4.679C21.953,-4.679,16.671,0.602,16.671,7.117Z"/>
  <path stroke-width="3px" stroke-miterlimit="4" stroke-linejoin="round" stroke-opacity="1" fill-rule="nonzero" stroke="none" fill-opacity="1" fill="#000000" stroke-dasharray="none" clip-path="url(#clip0_151_1553)" stroke-linecap="round" d="M45.139,7.117L45.139,21.351C45.139,27.866,50.42,33.147,56.935,33.147C63.45,33.147,68.731,27.866,68.731,21.351L68.731,7.117C68.731,0.602,63.45,-4.679,56.935,-4.679C50.42,-4.679,45.139,0.602,45.139,7.117Z"/>
  <path stroke-miterlimit="4" stroke-linecap="round" fill="#000000" stroke-linejoin="round" fill-rule="nonzero" clip-path="url(#clip0_151_1553)" fill-opacity="1" stroke-opacity="1" stroke-dasharray="none" stroke-width="3px" stroke="none" d="M7.117,47.381L78.286,47.381C84.801,47.381,90.082,42.099,90.082,35.584C90.082,29.07,84.801,23.788,78.286,23.788L7.117,23.788C0.602,23.788,-4.679,29.07,-4.679,35.584C-4.679,42.099,0.602,47.381,7.117,47.381Z"/>
</g>
  <g id="Heavy-S" transform="matrix(1.0,0.0,0.0,1.0,2595.268645964348,613.7985300920327)">  <path clip-path="url(#clip0_151_1553)" fill-rule="nonzero" stroke-linecap="round" stroke-width="3px" stroke-opacity="1" stroke-miterlimit="4" fill="#000000" fill-opacity="1" stroke="none" stroke-dasharray="none" stroke-linejoin="round" d="M64.052,3.729L21.351,3.729C7.688,3.729,-3.388,14.805,-3.388,28.468L-3.388,64.052C-3.388,77.715,7.688,88.79,21.351,88.79L64.052,88.79C77.714,88.79,88.79,77.714,88.79,64.052L88.79,28.468C88.79,14.805,77.715,3.729,64.052,3.729ZM64.052,24.738C66.112,24.738,67.781,26.408,67.781,28.468L67.781,64.052C67.781,66.112,66.112,67.781,64.052,67.781L21.351,67.781C19.291,67.781,17.621,66.112,17.621,64.052L17.621,28.468C17.621,26.408,19.291,24.738,21.351,24.738L64.052,24.738Z"/>
  <path stroke-linejoin="round" clip-path="url(#clip0_151_1553)" stroke-dasharray="none" fill="#000000" fill-rule="nonzero" stroke="none" fill-opacity="1" stroke-linecap="round" stroke-opacity="1" stroke-miterlimit="4" stroke-width="3px" d="M17.963,7.117L17.963,21.351C17.963,27.152,22.666,31.855,28.468,31.855C34.269,31.855,38.972,27.152,38.972,21.351L38.972,7.117C38.972,1.315,34.269,-3.388,28.468,-3.388C22.666,-3.388,17.963,1.315,17.963,7.117Z"/>
  <path stroke="none" clip-path="url(#clip0_151_1553)" fill-rule="nonzero" stroke-miterlimit="4" stroke-linecap="round" stroke-opacity="1" fill-opacity="1" stroke-dasharray="none" stroke-width="3px" fill="#000000" stroke-linejoin="round" d="M46.431,7.117L46.431,21.351C46.431,27.152,51.134,31.855,56.935,31.855C62.737,31.855,67.44,27.152,67.44,21.351L67.44,7.117C67.44,1.315,62.737,-3.388,56.935,-3.388C51.134,-3.388,46.431,1.315,46.431,7.117Z"/>
  <path stroke-width="3px" stroke-dasharray="none" stroke-linecap="round" stroke-miterlimit="4" fill="#000000" stroke="none" clip-path="url(#clip0_151_1553)" fill-opacity="1" stroke-linejoin="round" stroke-opacity="1" fill-rule="nonzero" d="M7.117,46.089L78.286,46.089C84.087,46.089,88.79,41.386,88.79,35.584C88.79,29.783,84.087,25.08,78.286,25.08L7.117,25.08C1.315,25.08,-3.388,29.783,-3.388,35.584C-3.388,41.386,1.315,46.089,7.117,46.089Z"/>
</g>
  <g id="Bold-S" transform="matrix(1.0,0.0,0.0,1.0,2298.5586459643478,613.7985300920327)">  <path stroke-linejoin="round" stroke-width="3px" fill-rule="nonzero" stroke-miterlimit="4" stroke="none" stroke-opacity="1" stroke-linecap="round" stroke-dasharray="none" fill="#000000" fill-opacity="1" clip-path="url(#clip0_151_1553)" d="M64.052,5.021L21.351,5.021C8.401,5.021,-2.096,15.518,-2.096,28.468L-2.096,64.052C-2.096,77.001,8.402,87.499,21.351,87.499L64.052,87.499C77.001,87.499,87.499,77.001,87.499,64.052L87.499,28.468C87.499,15.518,77.001,5.021,64.052,5.021ZM64.052,23.447C66.825,23.447,69.073,25.695,69.073,28.468L69.073,64.052C69.073,66.825,66.825,69.073,64.052,69.073L21.351,69.073C18.578,69.073,16.33,66.825,16.33,64.052L16.33,28.468C16.33,25.695,18.578,23.447,21.351,23.447L64.052,23.447Z"/>
  <path stroke="none" stroke-dasharray="none" stroke-width="3px" stroke-linejoin="round" fill-rule="nonzero" stroke-opacity="1" stroke-linecap="round" fill="#000000" stroke-miterlimit="4" fill-opacity="1" clip-path="url(#clip0_151_1553)" d="M19.255,7.117L19.255,21.351C19.255,26.439,23.379,30.563,28.468,30.563C33.556,30.563,37.68,26.439,37.68,21.351L37.68,7.117C37.68,2.029,33.556,-2.096,28.468,-2.096C23.379,-2.096,19.255,2.029,19.255,7.117Z"/>
  <path stroke-opacity="1" stroke-linecap="round" clip-path="url(#clip0_151_1553)" stroke-dasharray="none" stroke-width="3px" fill-opacity="1" stroke-linejoin="round" stroke="none" fill-rule="nonzero" stroke-miterlimit="4" fill="#000000" d="M47.722,7.117L47.722,21.351C47.722,26.439,51.847,30.563,56.935,30.563C62.023,30.563,66.148,26.439,66.148,21.351L66.148,7.117C66.148,2.029,62.023,-2.096,56.935,-2.096C51.847,-2.096,47.722,2.029,47.722,7.117Z"/>
  <path stroke-width="3px" fill="#000000" stroke-linecap="round" clip-path="url(#clip0_151_1553)" fill-opacity="1" stroke-opacity="1" stroke="none" fill-rule="nonzero" stroke-miterlimit="4" stroke-dasharray="none" stroke-linejoin="round" d="M7.117,44.797L78.286,44.797C83.374,44.797,87.499,40.673,87.499,35.584C87.499,30.496,83.374,26.372,78.286,26.372L7.117,26.372C2.029,26.372,-2.096,30.496,-2.096,35.584C-2.096,40.673,2.029,44.797,7.117,44.797Z"/>
</g>
  <g id="Semibold-S" transform="matrix(1.0,0.0,0.0,1.0,2001.848645964348,613.7985300920327)">  <path stroke-width="3px" clip-path="url(#clip0_151_1553)" stroke="none" stroke-linejoin="round" fill-rule="nonzero" stroke-dasharray="none" stroke-linecap="round" stroke-opacity="1" stroke-miterlimit="4" fill="#000000" fill-opacity="1" d="M64.052,6.313L21.351,6.313C9.115,6.313,-0.804,16.232,-0.804,28.468L-0.804,64.052C-0.804,76.288,9.115,86.207,21.351,86.207L64.052,86.207C76.288,86.207,86.207,76.288,86.207,64.052L86.207,28.468C86.207,16.232,76.288,6.313,64.052,6.313ZM64.052,22.155C67.538,22.155,70.365,24.981,70.365,28.468L70.365,64.052C70.365,67.538,67.538,70.365,64.052,70.365L21.351,70.365C17.864,70.365,15.038,67.538,15.038,64.052L15.038,28.468C15.038,24.981,17.864,22.155,21.351,22.155L64.052,22.155Z"/>
  <path fill-rule="nonzero" stroke-width="3px" stroke-linecap="round" stroke-dasharray="none" stroke-opacity="1" fill="#000000" stroke-linejoin="round" stroke="none" stroke-miterlimit="4" clip-path="url(#clip0_151_1553)" fill-opacity="1" d="M20.546,7.117L20.546,21.351C20.546,25.725,24.093,29.272,28.468,29.272C32.842,29.272,36.389,25.725,36.389,21.351L36.389,7.117C36.389,2.742,32.842,-0.804,28.468,-0.804C24.093,-0.804,20.546,2.742,20.546,7.117Z"/>
  <path stroke="none" clip-path="url(#clip0_151_1553)" stroke-linejoin="round" stroke-dasharray="none" stroke-miterlimit="4" fill-opacity="1" stroke-width="3px" fill="#000000" fill-rule="nonzero" stroke-opacity="1" stroke-linecap="round" d="M49.014,7.117L49.014,21.351C49.014,25.725,52.56,29.272,56.935,29.272C61.31,29.272,64.856,25.725,64.856,21.351L64.856,7.117C64.856,2.742,61.31,-0.804,56.935,-0.804C52.56,-0.804,49.014,2.742,49.014,7.117Z"/>
  <path stroke="none" stroke-dasharray="none" stroke-linecap="round" stroke-width="3px" fill-rule="nonzero" stroke-miterlimit="4" stroke-linejoin="round" fill-opacity="1" stroke-opacity="1" clip-path="url(#clip0_151_1553)" fill="#000000" d="M7.117,43.506L78.286,43.506C82.661,43.506,86.207,39.959,86.207,35.584C86.207,31.21,82.661,27.663,78.286,27.663L7.117,27.663C2.742,27.663,-0.804,31.21,-0.804,35.584C-0.804,39.959,2.742,43.506,7.117,43.506Z"/>
</g>
  <g id="Medium-S" transform="matrix(1.0,0.0,0.0,1.0,1705.138645964348,613.7985300920327)">  <path stroke-linejoin="round" stroke-linecap="round" clip-path="url(#clip0_151_1553)" stroke-miterlimit="4" fill-opacity="1" stroke="none" stroke-opacity="1" stroke-dasharray="none" fill="#000000" stroke-width="3px" fill-rule="nonzero" d="M64.052,7.604L21.351,7.604C9.828,7.604,0.488,16.945,0.488,28.468L0.488,64.052C0.488,75.574,9.828,84.915,21.351,84.915L64.052,84.915C75.574,84.915,84.915,75.574,84.915,64.052L84.915,28.468C84.915,16.945,75.574,7.604,64.052,7.604ZM64.052,20.863C68.252,20.863,71.656,24.268,71.656,28.468L71.656,64.052C71.656,68.252,68.252,71.656,64.052,71.656L21.351,71.656C17.151,71.656,13.746,68.252,13.746,64.052L13.746,28.468C13.746,24.268,17.151,20.863,21.351,20.863L64.052,20.863Z"/>
  <path clip-path="url(#clip0_151_1553)" stroke-opacity="1" fill="#000000" stroke-linejoin="round" stroke-miterlimit="4" fill-opacity="1" stroke-width="3px" fill-rule="nonzero" stroke="none" stroke-linecap="round" stroke-dasharray="none" d="M21.838,7.117L21.838,21.351C21.838,25.012,24.806,27.98,28.468,27.98C32.129,27.98,35.097,25.012,35.097,21.351L35.097,7.117C35.097,3.456,32.129,0.488,28.468,0.488C24.806,0.488,21.838,3.456,21.838,7.117Z"/>
  <path stroke-linecap="round" stroke="none" stroke-miterlimit="4" stroke-dasharray="none" stroke-opacity="1" stroke-width="3px" stroke-linejoin="round" clip-path="url(#clip0_151_1553)" fill-opacity="1" fill="#000000" fill-rule="nonzero" d="M50.306,7.117L50.306,21.351C50.306,25.012,53.274,27.98,56.935,27.98C60.596,27.98,63.565,25.012,63.565,21.351L63.565,7.117C63.565,3.456,60.596,0.488,56.935,0.488C53.274,0.488,50.306,3.456,50.306,7.117Z"/>
  <path stroke-linejoin="round" stroke-opacity="1" fill-opacity="1" stroke-linecap="round" fill-rule="nonzero" stroke-width="3px" clip-path="url(#clip0_151_1553)" stroke-dasharray="none" stroke="none" stroke-miterlimit="4" fill="#000000" d="M7.117,42.214L78.286,42.214C81.947,42.214,84.915,39.246,84.915,35.584C84.915,31.923,81.947,28.955,78.286,28.955L7.117,28.955C3.456,28.955,0.488,31.923,0.488,35.584C0.488,39.246,3.456,42.214,7.117,42.214Z"/>
</g>
  <g id="Regular-S" transform="matrix(1.0,0.0,0.0,1.0,1408.4286459643479,613.7985300920327)">  <path clip-path="url(#clip0_151_1553)" stroke-dasharray="none" stroke-opacity="1" fill="#000000" stroke="none" fill-opacity="1" stroke-width="3px" stroke-miterlimit="4" fill-rule="nonzero" stroke-linejoin="round" stroke-linecap="round" d="M64.052,8.896L21.351,8.896C10.542,8.896,1.779,17.659,1.779,28.468L1.779,64.052C1.779,74.861,10.542,83.623,21.351,83.623L64.052,83.623C74.861,83.623,83.623,74.861,83.623,64.052L83.623,28.468C83.623,17.659,74.861,8.896,64.052,8.896ZM64.052,19.571C68.965,19.571,72.948,23.554,72.948,28.468L72.948,64.052C72.948,68.965,68.965,72.948,64.052,72.948L21.351,72.948C16.438,72.948,12.455,68.965,12.455,64.052L12.455,28.468C12.455,23.554,16.437,19.571,21.351,19.571L64.052,19.571Z"/>
  <path fill-rule="nonzero" stroke-linejoin="round" fill="#000000" stroke-opacity="1" stroke-dasharray="none" clip-path="url(#clip0_151_1553)" fill-opacity="1" stroke-linecap="round" stroke="none" stroke-width="3px" stroke-miterlimit="4" d="M23.13,7.117L23.13,21.351C23.13,24.299,25.52,26.688,28.468,26.688C31.415,26.688,33.805,24.299,33.805,21.351L33.805,7.117C33.805,4.169,31.415,1.779,28.468,1.779C25.52,1.779,23.13,4.169,23.13,7.117Z"/>
  <path stroke-dasharray="none" clip-path="url(#clip0_151_1553)" fill-rule="nonzero" stroke-linejoin="round" stroke-opacity="1" stroke="none" fill-opacity="1" fill="#000000" stroke-miterlimit="4" stroke-width="3px" stroke-linecap="round" d="M51.597,7.117L51.597,21.351C51.597,24.299,53.987,26.688,56.935,26.688C59.883,26.688,62.273,24.299,62.273,21.351L62.273,7.117C62.273,4.169,59.883,1.779,56.935,1.779C53.987,1.779,51.597,4.169,51.597,7.117Z"/>
  <path clip-path="url(#clip0_151_1553)" fill-rule="nonzero" stroke-width="3px" fill="#000000" stroke-linejoin="round" stroke-linecap="round" stroke-opacity="1" stroke-miterlimit="4" stroke-dasharray="none" fill-opacity="1" stroke="none" d="M7.117,40.922L78.286,40.922C81.234,40.922,83.623,38.532,83.623,35.584C83.623,32.637,81.234,30.247,78.286,30.247L7.117,30.247C4.169,30.247,1.779,32.637,1.779,35.584C1.779,38.532,4.169,40.922,7.117,40.922Z"/>
</g>
  <g id="Light-S" transform="matrix(1.0,0.0,0.0,1.0,1111.718645964348,613.7985300920327)">  <path stroke-dasharray="none" fill-rule="nonzero" stroke="none" stroke-opacity="1" clip-path="url(#clip0_151_1553)" stroke-linejoin="round" fill="#000000" stroke-miterlimit="4" fill-opacity="1" stroke-width="3px" stroke-linecap="round" d="M64.052,9.786L21.351,9.786C11.033,9.786,2.669,18.15,2.669,28.468L2.669,64.052C2.669,74.37,11.033,82.734,21.351,82.734L64.052,82.734C74.37,82.734,82.734,74.37,82.734,64.052L82.734,28.468C82.734,18.15,74.37,9.786,64.052,9.786ZM64.052,18.682C69.456,18.682,73.838,23.063,73.838,28.468L73.838,64.052C73.838,69.456,69.456,73.838,64.052,73.838L21.351,73.838C15.946,73.838,11.565,69.456,11.565,64.052L11.565,28.468C11.565,23.063,15.946,18.682,21.351,18.682L64.052,18.682Z"/>
  <path fill-opacity="1" stroke="none" stroke-width="3px" stroke-miterlimit="4" stroke-linecap="round" fill="#000000" clip-path="url(#clip0_151_1553)" stroke-dasharray="none" stroke-linejoin="round" stroke-opacity="1" fill-rule="nonzero" d="M24.02,7.117L24.02,21.351C24.02,23.807,26.011,25.799,28.468,25.799C30.924,25.799,32.916,23.807,32.916,21.351L32.916,7.117C32.916,4.66,30.924,2.669,28.468,2.669C26.011,2.669,24.02,4.66,24.02,7.117Z"/>
  <path fill-rule="nonzero" stroke-miterlimit="4" stroke-linecap="round" clip-path="url(#clip0_151_1553)" stroke-width="3px" stroke-dasharray="none" stroke-opacity="1" stroke-linejoin="round" fill="#000000" fill-opacity="1" stroke="none" d="M52.487,7.117L52.487,21.351C52.487,23.807,54.479,25.799,56.935,25.799C59.392,25.799,61.383,23.807,61.383,21.351L61.383,7.117C61.383,4.66,59.392,2.669,56.935,2.669C54.479,2.669,52.487,4.66,52.487,7.117Z"/>
  <path stroke-width="3px" stroke="none" fill-opacity="1" clip-path="url(#clip0_151_1553)" stroke-linecap="round" stroke-dasharray="none" stroke-miterlimit="4" stroke-linejoin="round" fill-rule="nonzero" stroke-opacity="1" fill="#000000" d="M7.117,40.033L78.286,40.033C80.742,40.033,82.734,38.041,82.734,35.584C82.734,33.128,80.742,31.136,78.286,31.136L7.117,31.136C4.66,31.136,2.669,33.128,2.669,35.584C2.669,38.041,4.66,40.033,7.117,40.033Z"/>
</g>
  <g id="Thin-S" transform="matrix(1.0,0.0,0.0,1.0,815.0086459643479,613.7985300920327)">  <path clip-path="url(#clip0_151_1553)" stroke-dasharray="none" fill="#000000" fill-opacity="1" stroke-linecap="round" fill-rule="nonzero" stroke-width="3px" stroke-opacity="1" stroke="none" stroke-miterlimit="4" stroke-linejoin="round" d="M64.052,10.675L21.351,10.675C11.524,10.675,3.558,18.641,3.558,28.468L3.558,64.052C3.558,73.878,11.524,81.844,21.351,81.844L64.052,81.844C73.878,81.844,81.844,73.878,81.844,64.052L81.844,28.468C81.844,18.641,73.878,10.675,64.052,10.675ZM64.052,17.792C69.948,17.792,74.727,22.572,74.727,28.468L74.727,64.052C74.727,69.948,69.948,74.727,64.052,74.727L21.351,74.727C15.455,74.727,10.675,69.948,10.675,64.052L10.675,28.468C10.675,22.572,15.455,17.792,21.351,17.792L64.052,17.792Z"/>
  <path clip-path="url(#clip0_151_1553)" stroke-dasharray="none" stroke="none" stroke-opacity="1" fill="#000000" stroke-miterlimit="4" stroke-linejoin="round" fill-opacity="1" stroke-width="3px" stroke-linecap="round" fill-rule="nonzero" d="M24.909,7.117L24.909,21.351C24.909,23.316,26.502,24.909,28.468,24.909C30.433,24.909,32.026,23.316,32.026,21.351L32.026,7.117C32.026,5.152,30.433,3.558,28.468,3.558C26.502,3.558,24.909,5.152,24.909,7.117Z"/>
  <path fill-rule="nonzero" stroke-opacity="1" stroke-linejoin="round" stroke="none" fill-opacity="1" stroke-dasharray="none" clip-path="url(#clip0_151_1553)" fill="#000000" stroke-linecap="round" stroke-miterlimit="4" stroke-width="3px" d="M53.377,7.117L53.377,21.351C53.377,23.316,54.97,24.909,56.935,24.909C58.9,24.909,60.494,23.316,60.494,21.351L60.494,7.117C60.494,5.152,58.9,3.558,56.935,3.558C54.97,3.558,53.377,5.152,53.377,7.117Z"/>
  <path stroke="none" stroke-linejoin="round" fill="#000000" stroke-miterlimit="4" stroke-dasharray="none" fill-rule="nonzero" stroke-opacity="1" fill-opacity="1" clip-path="url(#clip0_151_1553)" stroke-width="3px" stroke-linecap="round" d="M7.117,39.143L78.286,39.143C80.251,39.143,81.844,37.55,81.844,35.584C81.844,33.619,80.251,32.026,78.286,32.026L7.117,32.026C5.152,32.026,3.558,33.619,3.558,35.584C3.558,37.55,5.152,39.143,7.117,39.143Z"/>
</g>
  <g id="Ultralight-S" transform="matrix(1.0,0.0,0.0,1.0,518.2986459643479,613.7985300920327)">  <path stroke-width="3px" stroke-miterlimit="4" stroke="none" stroke-opacity="1" stroke-linejoin="round" fill="#000000" stroke-dasharray="none" clip-path="url(#clip0_151_1553)" stroke-linecap="round" fill-rule="nonzero" fill-opacity="1" d="M64.052,11.565L21.351,11.565C12.016,11.565,4.448,19.133,4.448,28.468L4.448,64.052C4.448,73.387,12.016,80.955,21.351,80.955L64.052,80.955C73.387,80.955,80.955,73.387,80.955,64.052L80.955,28.468C80.955,19.133,73.387,11.565,64.052,11.565ZM64.052,16.903C70.439,16.903,75.617,22.08,75.617,28.468L75.617,64.052C75.617,70.439,70.439,75.617,64.052,75.617L21.351,75.617C14.964,75.617,9.786,70.439,9.786,64.052L9.786,28.468C9.786,22.08,14.964,16.903,21.351,16.903L64.052,16.903Z"/>
  <path fill="#000000" stroke-linecap="round" stroke-width="3px" stroke-linejoin="round" fill-opacity="1" stroke-miterlimit="4" stroke-dasharray="none" stroke="none" clip-path="url(#clip0_151_1553)" fill-rule="nonzero" stroke-opacity="1" d="M25.799,7.117L25.799,21.351C25.799,22.825,26.994,24.02,28.468,24.02C29.942,24.02,31.136,22.825,31.136,21.351L31.136,7.117C31.136,5.643,29.942,4.448,28.468,4.448C26.994,4.448,25.799,5.643,25.799,7.117Z"/>
  <path fill-opacity="1" stroke-dasharray="none" stroke-opacity="1" clip-path="url(#clip0_151_1553)" fill="#000000" fill-rule="nonzero" stroke-width="3px" stroke-linejoin="round" stroke-linecap="round" stroke-miterlimit="4" stroke="none" d="M54.266,7.117L54.266,21.351C54.266,22.825,55.461,24.02,56.935,24.02C58.409,24.02,59.604,22.825,59.604,21.351L59.604,7.117C59.604,5.643,58.409,4.448,56.935,4.448C55.461,4.448,54.266,5.643,54.266,7.117Z"/>
  <path stroke="none" stroke-width="3px" clip-path="url(#clip0_151_1553)" stroke-opacity="1" stroke-linejoin="round" fill="#000000" stroke-linecap="round" fill-opacity="1" stroke-miterlimit="4" fill-rule="nonzero" stroke-dasharray="none" d="M7.117,38.253L78.286,38.253C79.76,38.253,80.955,37.058,80.955,35.584C80.955,34.111,79.76,32.916,78.286,32.916L7.117,32.916C5.643,32.916,4.448,34.111,4.448,35.584C4.448,37.058,5.643,38.253,7.117,38.253Z"/>
</g>
 </g>
</svg>
