<?xml version="1.0" encoding="UTF-8"?>
<!-- Generator: CustomSymbols v2.6.2.41 by @serious_bret https://bretlester.com/app_content/CustomSymbols/ -->
<!-- Guides: Left/Right 0.0/0.0 Cap/Base 0.0/0.0 -->
<!-- Settings: RefScale 1.0 Min/Max Stroke Scales 0.5/2.21 -->
<!DOCTYPE svg
PUBLIC "-//W3C//DTD SVG 1.1//EN"
       "http://www.w3.org/Graphics/SVG/1.1/DTD/svg11.dtd">
<svg version="1.1" xmlns="http://www.w3.org/2000/svg" xmlns:xlink="http://www.w3.org/1999/xlink" width="3300" height="2200">
<![CDATA[<svg width="24" height="24" viewBox="0 0 24 24" fill="none" xmlns="http://www.w3.org/2000/svg">
<g clip-path="url(#clip0_151_1553)">
<path d="M18 4H6C3.79086 4 2 5.79086 2 8V18C2 20.2091 3.79086 22 6 22H18C20.2091 22 22 20.2091 22 18V8C22 5.79086 20.2091 4 18 4Z" stroke="black" stroke-width="3" stroke-linecap="round" stroke-linejoin="round"/>
<path d="M8 2V6" stroke="black" stroke-width="3" stroke-linecap="round" stroke-linejoin="round"/>
<path d="M16 2V6" stroke="black" stroke-width="3" stroke-linecap="round" stroke-linejoin="round"/>
<path d="M2 10H22" stroke="black" stroke-width="3" stroke-linecap="round" stroke-linejoin="round"/>
</g>
<defs>
<clipPath id="clip0_151_1553">
<rect width="24" height="24" fill="white"/>
</clipPath>
</defs>
</svg>
]]>
 <g id="Notes">
  <rect height="2200" id="artboard" style="fill:white;opacity:1" width="3300" x="0" y="0"/>
  <line id="" style="fill:none;stroke:black;opacity:1;stroke-width:0.5;" x1="263" x2="3036" y1="292" y2="292"/>
  <text id="reftext1" style="stroke:none;fill:black;font-family:-apple-system,&quot;SF Pro Display&quot;,&quot;SF Pro Text&quot;,Helvetica,sans-serif;font-weight:bold;" transform="matrix(1 0 0 1 263 322)">Weight/Scale Variations</text>
  <text id="reftext2" style="stroke:none;fill:black;font-family:-apple-system,&quot;SF Pro Display&quot;,&quot;SF Pro Text&quot;,Helvetica,sans-serif;text-anchor:middle;" transform="matrix(1 0 0 1 559.711 322)">Ultralight</text>
  <text style="stroke:none;fill:black;font-family:-apple-system,&quot;SF Pro Display&quot;,&quot;SF Pro Text&quot;,Helvetica,sans-serif;text-anchor:middle;" transform="matrix(1 0 0 1 856.422 322)">Thin</text>
  <text style="stroke:none;fill:black;font-family:-apple-system,&quot;SF Pro Display&quot;,&quot;SF Pro Text&quot;,Helvetica,sans-serif;text-anchor:middle;" transform="matrix(1 0 0 1 1153.13 322)">Light</text>
  <text style="stroke:none;fill:black;font-family:-apple-system,&quot;SF Pro Display&quot;,&quot;SF Pro Text&quot;,Helvetica,sans-serif;text-anchor:middle;" transform="matrix(1 0 0 1 1449.84 322)">Regular</text>
  <text style="stroke:none;fill:black;font-family:-apple-system,&quot;SF Pro Display&quot;,&quot;SF Pro Text&quot;,Helvetica,sans-serif;text-anchor:middle;" transform="matrix(1 0 0 1 1746.56 322)">Medium</text>
  <text style="stroke:none;fill:black;font-family:-apple-system,&quot;SF Pro Display&quot;,&quot;SF Pro Text&quot;,Helvetica,sans-serif;text-anchor:middle;" transform="matrix(1 0 0 1 2043.27 322)">Semibold</text>
  <text style="stroke:none;fill:black;font-family:-apple-system,&quot;SF Pro Display&quot;,&quot;SF Pro Text&quot;,Helvetica,sans-serif;text-anchor:middle;" transform="matrix(1 0 0 1 2339.98 322)">Bold</text>
  <text style="stroke:none;fill:black;font-family:-apple-system,&quot;SF Pro Display&quot;,&quot;SF Pro Text&quot;,Helvetica,sans-serif;text-anchor:middle;" transform="matrix(1 0 0 1 2636.69 322)">Heavy</text>
  <text style="stroke:none;fill:black;font-family:-apple-system,&quot;SF Pro Display&quot;,&quot;SF Pro Text&quot;,Helvetica,sans-serif;text-anchor:middle;" transform="matrix(1 0 0 1 2933.4 322)">Black</text>
  <line id="" style="fill:none;stroke:black;opacity:1;stroke-width:0.5;" x1="263" x2="3036" y1="1903" y2="1903"/>
  <g id="" transform="matrix(1 0 0 1 263 1933)">
   <path d="M9.24805 0.830078C13.5547 0.830078 17.1387-2.74414 17.1387-7.05078C17.1387-11.3574 13.5449-14.9316 9.23828-14.9316C4.94141-14.9316 1.36719-11.3574 1.36719-7.05078C1.36719-2.74414 4.95117 0.830078 9.24805 0.830078ZM9.24805-0.654297C5.70312-0.654297 2.87109-3.49609 2.87109-7.05078C2.87109-10.6055 5.69336-13.4473 9.23828-13.4473C12.793-13.4473 15.6348-10.6055 15.6445-7.05078C15.6543-3.49609 12.8027-0.654297 9.24805-0.654297ZM6.39648-6.31836L8.50586-6.31836L8.50586-4.19922C8.50586-3.75977 8.79883-3.45703 9.22852-3.45703C9.67773-3.45703 9.9707-3.75977 9.9707-4.19922L9.9707-6.31836L12.0996-6.31836C12.5391-6.31836 12.8418-6.61133 12.8418-7.04102C12.8418-7.48047 12.5391-7.7832 12.0996-7.7832L9.9707-7.7832L9.9707-9.89258C9.9707-10.3418 9.67773-10.6445 9.22852-10.6445C8.79883-10.6445 8.50586-10.3418 8.50586-9.89258L8.50586-7.7832L6.39648-7.7832C5.94727-7.7832 5.64453-7.48047 5.64453-7.04102C5.64453-6.61133 5.94727-6.31836 6.39648-6.31836Z"/>
  </g>
  <g id="" transform="matrix(1 0 0 1 281.506 1933)">
   <path d="M11.709 2.91016C17.1582 2.91016 21.6699-1.61133 21.6699-7.05078C21.6699-12.5 17.1484-17.0117 11.6992-17.0117C6.25977-17.0117 1.74805-12.5 1.74805-7.05078C1.74805-1.61133 6.26953 2.91016 11.709 2.91016ZM11.709 1.25C7.09961 1.25 3.41797-2.44141 3.41797-7.05078C3.41797-11.6602 7.08984-15.3516 11.6992-15.3516C16.3086-15.3516 20-11.6602 20.0098-7.05078C20.0195-2.44141 16.3184 1.25 11.709 1.25ZM7.98828-6.23047L10.8789-6.23047L10.8789-3.32031C10.8789-2.83203 11.2109-2.5 11.6895-2.5C12.1777-2.5 12.5195-2.83203 12.5195-3.32031L12.5195-6.23047L15.4297-6.23047C15.918-6.23047 16.25-6.5625 16.25-7.04102C16.25-7.5293 15.918-7.87109 15.4297-7.87109L12.5195-7.87109L12.5195-10.7617C12.5195-11.2695 12.1777-11.6016 11.6895-11.6016C11.2109-11.6016 10.8789-11.2598 10.8789-10.7617L10.8789-7.87109L7.98828-7.87109C7.48047-7.87109 7.14844-7.5293 7.14844-7.04102C7.14844-6.5625 7.49023-6.23047 7.98828-6.23047Z"/>
  </g>
  <g id="" transform="matrix(1 0 0 1 304.924 1933)">
   <path d="M14.9707 5.66406C21.9336 5.66406 27.6953-0.0976562 27.6953-7.05078C27.6953-14.0137 21.9238-19.7754 14.9609-19.7754C8.00781-19.7754 2.25586-14.0137 2.25586-7.05078C2.25586-0.0976562 8.01758 5.66406 14.9707 5.66406ZM14.9707 3.84766C8.93555 3.84766 4.08203-1.01562 4.08203-7.05078C4.08203-13.0957 8.92578-17.9492 14.9609-17.9492C21.0059-17.9492 25.8594-13.0957 25.8691-7.05078C25.8789-1.01562 21.0156 3.84766 14.9707 3.84766ZM10.0586-6.14258L14.0625-6.14258L14.0625-2.12891C14.0625-1.5918 14.4336-1.2207 14.9512-1.2207C15.4883-1.2207 15.8594-1.5918 15.8594-2.12891L15.8594-6.14258L19.8828-6.14258C20.4102-6.14258 20.791-6.51367 20.791-7.03125C20.791-7.56836 20.4199-7.94922 19.8828-7.94922L15.8594-7.94922L15.8594-11.9531C15.8594-12.5098 15.4883-12.8809 14.9512-12.8809C14.4336-12.8809 14.0625-12.5 14.0625-11.9531L14.0625-7.94922L10.0586-7.94922C9.50195-7.94922 9.13086-7.56836 9.13086-7.03125C9.13086-6.51367 9.51172-6.14258 10.0586-6.14258Z"/>
  </g>
  <text style="stroke:none;fill:black;font-family:-apple-system,&quot;SF Pro Display&quot;,&quot;SF Pro Text&quot;,Helvetica,sans-serif;font-weight:bold;" transform="matrix(1 0 0 1 263 1953)">Design Variations</text>
  <text style="stroke:none;fill:black;font-family:-apple-system,&quot;SF Pro Display&quot;,&quot;SF Pro Text&quot;,Helvetica,sans-serif;" transform="matrix(1 0 0 1 263 1971)">Symbols are supported in up to nine weights and three scales.</text>
  <text style="stroke:none;fill:black;font-family:-apple-system,&quot;SF Pro Display&quot;,&quot;SF Pro Text&quot;,Helvetica,sans-serif;" transform="matrix(1 0 0 1 263 1989)">For optimal layout with text and other symbols, vertically align</text>
  <text style="stroke:none;fill:black;font-family:-apple-system,&quot;SF Pro Display&quot;,&quot;SF Pro Text&quot;,Helvetica,sans-serif;" transform="matrix(1 0 0 1 263 2007)">symbols with the adjacent text.</text>
  <line id="" style="fill:none;stroke:#00AEEF;stroke-width:0.5;opacity:1.0;" x1="776" x2="776" y1="1919" y2="1933"/>
  <g id="" transform="matrix(1 0 0 1 776 1933)">
   <path d="M3.31055 0.126953C3.82812 0.126953 4.08203-0.0683594 4.26758-0.605469L5.52734-4.0625L11.2891-4.0625L12.5488-0.605469C12.7344-0.0683594 12.9883 0.126953 13.4961 0.126953C14.0137 0.126953 14.3457-0.185547 14.3457-0.673828C14.3457-0.839844 14.3164-0.986328 14.2383-1.20117L9.6582-13.3887C9.43359-13.9941 9.0332-14.2871 8.4082-14.2871C7.80273-14.2871 7.39258-13.9941 7.17773-13.3984L2.59766-1.19141C2.51953-0.976562 2.49023-0.830078 2.49023-0.664062C2.49023-0.175781 2.80273 0.126953 3.31055 0.126953ZM6.00586-5.53711L8.37891-12.1094L8.42773-12.1094L10.8008-5.53711Z"/>
  </g>
  <line id="" style="fill:none;stroke:#00AEEF;stroke-width:0.5;opacity:1.0;" x1="792.836" x2="792.836" y1="1919" y2="1933"/>
  <text style="stroke:none;fill:black;font-family:-apple-system,&quot;SF Pro Display&quot;,&quot;SF Pro Text&quot;,Helvetica,sans-serif;font-weight:bold;" transform="matrix(1 0 0 1 776 1953)">Margins</text>
  <text style="stroke:none;fill:black;font-family:-apple-system,&quot;SF Pro Display&quot;,&quot;SF Pro Text&quot;,Helvetica,sans-serif;" transform="matrix(1 0 0 1 776 1971)">Leading and trailing margins on the left and right side of each symbol</text>
  <text style="stroke:none;fill:black;font-family:-apple-system,&quot;SF Pro Display&quot;,&quot;SF Pro Text&quot;,Helvetica,sans-serif;" transform="matrix(1 0 0 1 776 1989)">can be adjusted by modifying the x-location of the margin guidelines.</text>
  <text style="stroke:none;fill:black;font-family:-apple-system,&quot;SF Pro Display&quot;,&quot;SF Pro Text&quot;,Helvetica,sans-serif;" transform="matrix(1 0 0 1 776 2007)">Modifications are automatically applied proportionally to all</text>
  <text style="stroke:none;fill:black;font-family:-apple-system,&quot;SF Pro Display&quot;,&quot;SF Pro Text&quot;,Helvetica,sans-serif;" transform="matrix(1 0 0 1 776 2025)">scales and weights.</text>
  <g id="" transform="matrix(1 0 0 1 1289 1933)">
   <path d="M2.8418 1.86523L4.54102 3.57422C5.40039 4.44336 6.38672 4.38477 7.31445 3.35938L17.4902-7.85156C17.7539-7.76367 18.0273-7.7832 18.3398-7.8418L19.4043-8.03711L20.0684-7.36328L20.0293-6.80664C19.9902-6.30859 20.1172-5.92773 20.6055-5.44922L21.3672-4.70703C21.8457-4.22852 22.4609-4.19922 22.9297-4.66797L25.8398-7.58789C26.3086-8.05664 26.2891-8.65234 25.8105-9.13086L25.0391-9.89258C24.5605-10.3711 24.1895-10.5273 23.7109-10.4883L23.1348-10.4395L22.4902-11.0742L22.7344-12.1973C22.8613-12.7637 22.7051-13.2031 22.1191-13.7891L19.9219-15.9766C16.582-19.2969 12.1484-19.2188 9.25781-16.3281C8.83789-15.918 8.80859-15.3418 9.04297-14.9512C9.27734-14.5898 9.73633-14.3555 10.3809-14.5215C11.8457-14.8633 13.3691-14.9219 14.7949-13.9844L14.209-12.5293C14.0137-12.0508 13.9844-11.6504 14.1113-11.2891L3.04688-0.898438C2.06055 0.0195312 1.98242 0.996094 2.8418 1.86523ZM10.752-15.957C13.1836-17.7344 16.4746-17.4316 18.7012-15.2051L21.1328-12.793C21.3672-12.5586 21.4062-12.373 21.3379-12.0312L21.0156-10.5469L22.5195-9.0625L23.5059-9.12109C23.7598-9.13086 23.8379-9.11133 24.0332-8.91602L24.6094-8.33984L22.168-5.89844L21.5918-6.47461C21.3965-6.66992 21.3672-6.74805 21.377-7.01172L21.4453-7.98828L19.9512-9.47266L18.4277-9.21875C18.1055-9.15039 17.959-9.17969 17.7148-9.41406L15.7129-11.416C15.459-11.6504 15.4297-11.8164 15.5859-12.1875L16.4648-14.2773C14.9023-15.7324 12.8711-16.3574 10.8398-15.7617C10.6836-15.7227 10.625-15.8496 10.752-15.957ZM5.27344 2.30469L4.10156 1.14258C3.63281 0.683594 3.74023 0.341797 4.14062-0.0195312L14.9512-10.1953L16.416-8.71094L6.42578 2.27539C6.07422 2.67578 5.74219 2.77344 5.27344 2.30469Z"/>
  </g>
  <text style="stroke:none;fill:black;font-family:-apple-system,&quot;SF Pro Display&quot;,&quot;SF Pro Text&quot;,Helvetica,sans-serif;font-weight:bold;" transform="matrix(1 0 0 1 1289 1953)">Exporting</text>
  <text style="stroke:none;fill:black;font-family:-apple-system,&quot;SF Pro Display&quot;,&quot;SF Pro Text&quot;,Helvetica,sans-serif;" transform="matrix(1 0 0 1 1289 1971)">Symbols should be outlined when exporting to ensure the</text>
  <text style="stroke:none;fill:black;font-family:-apple-system,&quot;SF Pro Display&quot;,&quot;SF Pro Text&quot;,Helvetica,sans-serif;" transform="matrix(1 0 0 1 1289 1989)">design is preserved when submitting to Xcode.</text>
  <text id="template-version" style="stroke:none;fill:black;font-family:-apple-system,&quot;SF Pro Display&quot;,&quot;SF Pro Text&quot;,Helvetica,sans-serif;text-anchor:end;" transform="matrix(1 0 0 1 3036 1933)">Template v.2.0</text>
  <text style="stroke:none;fill:black;font-family:-apple-system,&quot;SF Pro Display&quot;,&quot;SF Pro Text&quot;,Helvetica,sans-serif;text-anchor:end;" transform="matrix(1 0 0 1 3036 1951)">Requires Xcode 12 or greater</text>
  <text style="stroke:none;fill:black;font-family:-apple-system,&quot;SF Pro Display&quot;,&quot;SF Pro Text&quot;,Helvetica,sans-serif;" transform="matrix(1 0 0 1 263 726)">Small</text>
  <text style="stroke:none;fill:black;font-family:-apple-system,&quot;SF Pro Display&quot;,&quot;SF Pro Text&quot;,Helvetica,sans-serif;" transform="matrix(1 0 0 1 263 1156)">Medium</text>
  <text style="stroke:none;fill:black;font-family:-apple-system,&quot;SF Pro Display&quot;,&quot;SF Pro Text&quot;,Helvetica,sans-serif;" transform="matrix(1 0 0 1 263 1586)">Large</text>
 </g>
 <g id="Guides">
  <g id="H-reference" style="fill:#27AAE1;stroke:none;" transform="matrix(1 0 0 1 339 696)">
   <path d="M0.976562 0L3.66211 0L12.9883-24.4629L45.752-24.4629L55.127 0L57.7637 0L30.6152-70.459L28.125-70.459ZM29.3457-67.1387L29.4434-67.1387L44.873-26.709L13.8672-26.709Z"/>
  </g>
  <line id="Baseline-S" style="fill:none;stroke:#27AAE1;opacity:1;stroke-width:0.5;" x1="263" x2="3036" y1="696" y2="696"/>
  <line id="Capline-S" style="fill:none;stroke:#27AAE1;opacity:1;stroke-width:0.5;" x1="263" x2="3036" y1="625.541" y2="625.541"/>
  <g id="H-reference" style="fill:#27AAE1;stroke:none;" transform="matrix(1 0 0 1 339 1126)">
   <path d="M0.976562 0L3.66211 0L12.9883-24.4629L45.752-24.4629L55.127 0L57.7637 0L30.6152-70.459L28.125-70.459ZM29.3457-67.1387L29.4434-67.1387L44.873-26.709L13.8672-26.709Z"/>
  </g>
  <line id="Baseline-M" style="fill:none;stroke:#27AAE1;opacity:1;stroke-width:0.5;" x1="263" x2="3036" y1="1126" y2="1126"/>
  <line id="Capline-M" style="fill:none;stroke:#27AAE1;opacity:1;stroke-width:0.5;" x1="263" x2="3036" y1="1055.54" y2="1055.54"/>
  <g id="H-reference" style="fill:#27AAE1;stroke:none;" transform="matrix(1 0 0 1 339 1556)">
   <path d="M0.976562 0L3.66211 0L12.9883-24.4629L45.752-24.4629L55.127 0L57.7637 0L30.6152-70.459L28.125-70.459ZM29.3457-67.1387L29.4434-67.1387L44.873-26.709L13.8672-26.709Z"/>
  </g>
  <line id="Baseline-L" style="fill:none;stroke:#27AAE1;opacity:1;stroke-width:0.5;" x1="263" x2="3036" y1="1556" y2="1556"/>
  <line id="Capline-L" style="fill:none;stroke:#27AAE1;opacity:1;stroke-width:0.5;" x1="263" x2="3036" y1="1485.54" y2="1485.54"/>
  <line id="left-margin" x1="1415.9000195312499" x2="1415.9000195312499" y1="1030.79" y2="1150.12" style="fill:none;stroke:#00AEEF;stroke-width:0.5;opacity:1.0;"/>
  <line id="right-margin" x1="1486.3599804687499" x2="1486.3599804687499" y1="1030.79" y2="1150.12" style="fill:none;stroke:#00AEEF;stroke-width:0.5;opacity:1.0;"/>
 </g>
 <g id="Symbols">
  <g id="Black-L" transform="matrix(1.0,0.0,0.0,1.0,2889.2333251953123,1475.3233447265625)">  <path fill-rule="nonzero" stroke-width="3px" fill="#000000" fill-opacity="1" stroke-dasharray="none" stroke-opacity="1" stroke-linecap="round" stroke="none" stroke-miterlimit="4" clip-path="url(#clip0_151_1553)" stroke-linejoin="round" d="M68.17,2.594L22.723,2.594C7.423,2.594,-4.98,14.998,-4.98,30.298L-4.98,68.17C-4.98,83.47,7.423,95.874,22.723,95.874L68.17,95.874C83.47,95.874,95.874,83.47,95.874,68.17L95.874,30.298C95.874,14.998,83.47,2.594,68.17,2.594ZM68.17,27.704C69.603,27.704,70.764,28.865,70.764,30.298L70.764,68.17C70.764,69.603,69.603,70.764,68.17,70.764L22.723,70.764C21.291,70.764,20.129,69.603,20.129,68.17L20.129,30.298C20.129,28.865,21.291,27.704,22.723,27.704L68.17,27.704Z"/>
  <path stroke="none" stroke-miterlimit="4" fill-opacity="1" stroke-opacity="1" stroke-dasharray="none" stroke-linejoin="round" stroke-linecap="round" fill="#000000" fill-rule="nonzero" clip-path="url(#clip0_151_1553)" stroke-width="3px" d="M17.743,7.574L17.743,22.723C17.743,29.657,23.364,35.278,30.298,35.278C37.232,35.278,42.852,29.657,42.852,22.723L42.852,7.574C42.852,0.641,37.232,-4.98,30.298,-4.98C23.364,-4.98,17.743,0.641,17.743,7.574Z"/>
  <path stroke-linecap="round" stroke="none" fill-opacity="1" stroke-dasharray="none" stroke-linejoin="round" stroke-opacity="1" stroke-miterlimit="4" fill="#000000" stroke-width="3px" fill-rule="nonzero" clip-path="url(#clip0_151_1553)" d="M48.041,7.574L48.041,22.723C48.041,29.657,53.662,35.278,60.596,35.278C67.529,35.278,73.15,29.657,73.15,22.723L73.15,7.574C73.15,0.641,67.529,-4.98,60.596,-4.98C53.662,-4.98,48.041,0.641,48.041,7.574Z"/>
  <path stroke-linejoin="round" fill-rule="nonzero" fill-opacity="1" clip-path="url(#clip0_151_1553)" stroke-opacity="1" stroke-miterlimit="4" fill="#000000" stroke-width="3px" stroke-linecap="round" stroke="none" stroke-dasharray="none" d="M7.574,50.427L83.319,50.427C90.253,50.427,95.874,44.806,95.874,37.872C95.874,30.938,90.253,25.318,83.319,25.318L7.574,25.318C0.641,25.318,-4.98,30.938,-4.98,37.872C-4.98,44.806,0.641,50.427,7.574,50.427Z"/>
</g>
  <g id="Heavy-L" transform="matrix(1.0,0.0,0.0,1.0,2592.5233251953123,1475.3233447265625)">  <path fill-opacity="1" fill-rule="nonzero" stroke="none" stroke-miterlimit="4" fill="#000000" stroke-linecap="round" stroke-width="3px" clip-path="url(#clip0_151_1553)" stroke-opacity="1" stroke-dasharray="none" stroke-linejoin="round" d="M68.17,3.969L22.723,3.969C8.182,3.969,-3.605,15.757,-3.605,30.298L-3.605,68.17C-3.605,82.711,8.182,94.499,22.723,94.499L68.17,94.499C82.711,94.499,94.499,82.711,94.499,68.17L94.499,30.298C94.499,15.757,82.711,3.969,68.17,3.969ZM68.17,26.329C70.362,26.329,72.139,28.106,72.139,30.298L72.139,68.17C72.139,70.362,70.362,72.139,68.17,72.139L22.723,72.139C20.531,72.139,18.754,70.362,18.754,68.17L18.754,30.298C18.754,28.106,20.531,26.329,22.723,26.329L68.17,26.329Z"/>
  <path clip-path="url(#clip0_151_1553)" stroke-miterlimit="4" fill-opacity="1" fill="#000000" stroke-linecap="round" stroke-linejoin="round" stroke="none" stroke-width="3px" stroke-dasharray="none" stroke-opacity="1" fill-rule="nonzero" d="M19.118,7.574L19.118,22.723C19.118,28.898,24.123,33.903,30.298,33.903C36.472,33.903,41.478,28.898,41.478,22.723L41.478,7.574C41.478,1.4,36.472,-3.605,30.298,-3.605C24.123,-3.605,19.118,1.4,19.118,7.574Z"/>
  <path stroke="none" stroke-opacity="1" stroke-dasharray="none" stroke-width="3px" fill-opacity="1" fill-rule="nonzero" stroke-miterlimit="4" stroke-linejoin="round" clip-path="url(#clip0_151_1553)" stroke-linecap="round" fill="#000000" d="M49.416,7.574L49.416,22.723C49.416,28.898,54.421,33.903,60.596,33.903C66.77,33.903,71.775,28.898,71.775,22.723L71.775,7.574C71.775,1.4,66.77,-3.605,60.596,-3.605C54.421,-3.605,49.416,1.4,49.416,7.574Z"/>
  <path stroke-linecap="round" fill-rule="nonzero" stroke-miterlimit="4" stroke-opacity="1" stroke-linejoin="round" stroke-width="3px" stroke-dasharray="none" fill-opacity="1" clip-path="url(#clip0_151_1553)" fill="#000000" stroke="none" d="M7.574,49.052L83.319,49.052C89.493,49.052,94.499,44.047,94.499,37.872C94.499,31.698,89.493,26.692,83.319,26.692L7.574,26.692C1.4,26.692,-3.605,31.698,-3.605,37.872C-3.605,44.047,1.4,49.052,7.574,49.052Z"/>
</g>
  <g id="Bold-L" transform="matrix(1.0,0.0,0.0,1.0,2295.8133251953122,1475.3233447265625)">  <path stroke="none" stroke-miterlimit="4" stroke-dasharray="none" stroke-linejoin="round" clip-path="url(#clip0_151_1553)" stroke-width="3px" fill-opacity="1" stroke-linecap="round" fill-rule="nonzero" stroke-opacity="1" fill="#000000" d="M68.17,5.344L22.723,5.344C8.942,5.344,-2.231,16.516,-2.231,30.298L-2.231,68.17C-2.231,81.952,8.942,93.124,22.723,93.124L68.17,93.124C81.952,93.124,93.124,81.952,93.124,68.17L93.124,30.298C93.124,16.516,81.952,5.344,68.17,5.344ZM68.17,24.954C71.121,24.954,73.514,27.347,73.514,30.298L73.514,68.17C73.514,71.121,71.121,73.514,68.17,73.514L22.723,73.514C19.772,73.514,17.38,71.121,17.38,68.17L17.38,30.298C17.38,27.346,19.772,24.954,22.723,24.954L68.17,24.954Z"/>
  <path stroke-opacity="1" fill-opacity="1" fill-rule="nonzero" stroke="none" stroke-linecap="round" stroke-miterlimit="4" stroke-dasharray="none" clip-path="url(#clip0_151_1553)" stroke-width="3px" fill="#000000" stroke-linejoin="round" d="M20.493,7.574L20.493,22.723C20.493,28.139,24.883,32.528,30.298,32.528C35.713,32.528,40.103,28.139,40.103,22.723L40.103,7.574C40.103,2.159,35.713,-2.231,30.298,-2.231C24.883,-2.231,20.493,2.159,20.493,7.574Z"/>
  <path stroke-linecap="round" stroke-dasharray="none" fill="#000000" stroke-width="3px" stroke-opacity="1" stroke-miterlimit="4" fill-rule="nonzero" stroke="none" fill-opacity="1" clip-path="url(#clip0_151_1553)" stroke-linejoin="round" d="M50.79,7.574L50.79,22.723C50.79,28.139,55.18,32.528,60.596,32.528C66.011,32.528,70.401,28.139,70.401,22.723L70.401,7.574C70.401,2.159,66.011,-2.231,60.596,-2.231C55.18,-2.231,50.79,2.159,50.79,7.574Z"/>
  <path clip-path="url(#clip0_151_1553)" stroke-miterlimit="4" stroke-width="3px" stroke-dasharray="none" fill="#000000" fill-opacity="1" stroke-opacity="1" fill-rule="nonzero" stroke-linejoin="round" stroke-linecap="round" stroke="none" d="M7.574,47.677L83.319,47.677C88.734,47.677,93.124,43.287,93.124,37.872C93.124,32.457,88.734,28.067,83.319,28.067L7.574,28.067C2.159,28.067,-2.231,32.457,-2.231,37.872C-2.231,43.287,2.159,47.677,7.574,47.677Z"/>
</g>
  <g id="Semibold-L" transform="matrix(1.0,0.0,0.0,1.0,1999.1033251953124,1475.3233447265625)">  <path clip-path="url(#clip0_151_1553)" fill="#000000" fill-rule="nonzero" stroke-linecap="round" stroke-linejoin="round" stroke-width="3px" stroke="none" stroke-opacity="1" stroke-dasharray="none" stroke-miterlimit="4" fill-opacity="1" d="M68.17,6.719L22.723,6.719C9.701,6.719,-0.856,17.275,-0.856,30.298L-0.856,68.17C-0.856,81.192,9.701,91.749,22.723,91.749L68.17,91.749C81.192,91.749,91.749,81.192,91.749,68.17L91.749,30.298C91.749,17.275,81.192,6.719,68.17,6.719ZM68.17,23.579C71.88,23.579,74.889,26.587,74.889,30.298L74.889,68.17C74.889,71.88,71.88,74.889,68.17,74.889L22.723,74.889C19.013,74.889,16.005,71.88,16.005,68.17L16.005,30.298C16.005,26.587,19.013,23.579,22.723,23.579L68.17,23.579Z"/>
  <path stroke-linecap="round" fill="#000000" stroke="none" clip-path="url(#clip0_151_1553)" fill-rule="nonzero" fill-opacity="1" stroke-miterlimit="4" stroke-width="3px" stroke-dasharray="none" stroke-linejoin="round" stroke-opacity="1" d="M21.867,7.574L21.867,22.723C21.867,27.379,25.642,31.154,30.298,31.154C34.954,31.154,38.728,27.379,38.728,22.723L38.728,7.574C38.728,2.918,34.954,-0.856,30.298,-0.856C25.642,-0.856,21.867,2.918,21.867,7.574Z"/>
  <path stroke-opacity="1" stroke="none" fill-opacity="1" clip-path="url(#clip0_151_1553)" stroke-dasharray="none" stroke-linejoin="round" stroke-miterlimit="4" stroke-width="3px" fill="#000000" stroke-linecap="round" fill-rule="nonzero" d="M52.165,7.574L52.165,22.723C52.165,27.379,55.94,31.154,60.596,31.154C65.252,31.154,69.026,27.379,69.026,22.723L69.026,7.574C69.026,2.918,65.252,-0.856,60.596,-0.856C55.94,-0.856,52.165,2.918,52.165,7.574Z"/>
  <path stroke-width="3px" stroke-dasharray="none" fill-opacity="1" stroke-opacity="1" stroke-linejoin="round" fill="#000000" fill-rule="nonzero" stroke-miterlimit="4" stroke="none" stroke-linecap="round" clip-path="url(#clip0_151_1553)" d="M7.574,46.303L83.319,46.303C87.975,46.303,91.749,42.528,91.749,37.872C91.749,33.216,87.975,29.442,83.319,29.442L7.574,29.442C2.918,29.442,-0.856,33.216,-0.856,37.872C-0.856,42.528,2.918,46.303,7.574,46.303Z"/>
</g>
  <g id="Medium-L" transform="matrix(1.0,0.0,0.0,1.0,1702.3933251953124,1475.3233447265625)">  <path stroke-opacity="1" stroke="none" stroke-linejoin="round" fill="#000000" stroke-width="3px" fill-opacity="1" stroke-miterlimit="4" stroke-linecap="round" fill-rule="nonzero" clip-path="url(#clip0_151_1553)" stroke-dasharray="none" d="M68.17,8.093L22.723,8.093C10.46,8.093,0.519,18.035,0.519,30.298L0.519,68.17C0.519,80.433,10.46,90.375,22.723,90.375L68.17,90.375C80.433,90.375,90.375,80.433,90.375,68.17L90.375,30.298C90.375,18.035,80.433,8.093,68.17,8.093ZM68.17,22.204C72.64,22.204,76.263,25.828,76.263,30.298L76.263,68.17C76.263,72.64,72.64,76.263,68.17,76.263L22.723,76.263C18.254,76.263,14.63,72.64,14.63,68.17L14.63,30.298C14.63,25.828,18.254,22.204,22.723,22.204L68.17,22.204Z"/>
  <path stroke-linecap="round" fill-opacity="1" stroke="none" stroke-linejoin="round" stroke-opacity="1" stroke-dasharray="none" fill-rule="nonzero" clip-path="url(#clip0_151_1553)" fill="#000000" stroke-miterlimit="4" stroke-width="3px" d="M23.242,7.574L23.242,22.723C23.242,26.62,26.401,29.779,30.298,29.779C34.194,29.779,37.353,26.62,37.353,22.723L37.353,7.574C37.353,3.678,34.194,0.519,30.298,0.519C26.401,0.519,23.242,3.678,23.242,7.574Z"/>
  <path stroke-dasharray="none" stroke-linecap="round" clip-path="url(#clip0_151_1553)" stroke-miterlimit="4" stroke-width="3px" fill-opacity="1" stroke-opacity="1" fill="#000000" stroke-linejoin="round" stroke="none" fill-rule="nonzero" d="M53.54,7.574L53.54,22.723C53.54,26.62,56.699,29.779,60.596,29.779C64.492,29.779,67.651,26.62,67.651,22.723L67.651,7.574C67.651,3.678,64.492,0.519,60.596,0.519C56.699,0.519,53.54,3.678,53.54,7.574Z"/>
  <path fill-opacity="1" clip-path="url(#clip0_151_1553)" stroke-linecap="round" fill-rule="nonzero" stroke="none" stroke-width="3px" stroke-dasharray="none" stroke-miterlimit="4" stroke-linejoin="round" fill="#000000" stroke-opacity="1" d="M7.574,44.928L83.319,44.928C87.216,44.928,90.375,41.769,90.375,37.872C90.375,33.976,87.216,30.817,83.319,30.817L7.574,30.817C3.678,30.817,0.519,33.976,0.519,37.872C0.519,41.769,3.678,44.928,7.574,44.928Z"/>
</g>
  <g id="Regular-L" transform="matrix(1.0,0.0,0.0,1.0,1405.6833251953124,1475.3233447265625)">  <path stroke-opacity="1" clip-path="url(#clip0_151_1553)" stroke-dasharray="none" stroke-linejoin="round" stroke-linecap="round" fill-opacity="1" stroke="none" fill="#000000" fill-rule="nonzero" stroke-miterlimit="4" stroke-width="3px" d="M68.17,9.468L22.723,9.468C11.219,9.468,1.894,18.794,1.894,30.298L1.894,68.17C1.894,79.674,11.219,89,22.723,89L68.17,89C79.674,89,89,79.674,89,68.17L89,30.298C89,18.794,79.674,9.468,68.17,9.468ZM68.17,20.83C73.399,20.83,77.638,25.069,77.638,30.298L77.638,68.17C77.638,73.399,73.399,77.638,68.17,77.638L22.723,77.638C17.494,77.638,13.255,73.399,13.255,68.17L13.255,30.298C13.255,25.069,17.494,20.83,22.723,20.83L68.17,20.83Z"/>
  <path stroke-opacity="1" stroke-width="3px" clip-path="url(#clip0_151_1553)" stroke-miterlimit="4" stroke-linejoin="round" fill-rule="nonzero" stroke-dasharray="none" fill-opacity="1" stroke-linecap="round" stroke="none" fill="#000000" d="M24.617,7.574L24.617,22.723C24.617,25.861,27.16,28.404,30.298,28.404C33.435,28.404,35.979,25.861,35.979,22.723L35.979,7.574C35.979,4.437,33.435,1.894,30.298,1.894C27.16,1.894,24.617,4.437,24.617,7.574Z"/>
  <path fill-opacity="1" stroke="none" stroke-dasharray="none" stroke-linejoin="round" stroke-linecap="round" clip-path="url(#clip0_151_1553)" fill="#000000" fill-rule="nonzero" stroke-miterlimit="4" stroke-width="3px" stroke-opacity="1" d="M54.915,7.574L54.915,22.723C54.915,25.861,57.458,28.404,60.596,28.404C63.733,28.404,66.276,25.861,66.276,22.723L66.276,7.574C66.276,4.437,63.733,1.894,60.596,1.894C57.458,1.894,54.915,4.437,54.915,7.574Z"/>
  <path stroke-miterlimit="4" stroke-linecap="round" fill="#000000" stroke-width="3px" stroke-dasharray="none" fill-opacity="1" stroke-linejoin="round" clip-path="url(#clip0_151_1553)" fill-rule="nonzero" stroke="none" stroke-opacity="1" d="M7.574,43.553L83.319,43.553C86.456,43.553,89,41.01,89,37.872C89,34.735,86.456,32.191,83.319,32.191L7.574,32.191C4.437,32.191,1.894,34.735,1.894,37.872C1.894,41.01,4.437,43.553,7.574,43.553Z"/>
</g>
  <g id="Light-L" transform="matrix(1.0,0.0,0.0,1.0,1108.9733251953126,1475.3233447265625)">  <path fill="#000000" stroke-opacity="1" stroke-linejoin="round" stroke-miterlimit="4" fill-rule="nonzero" fill-opacity="1" stroke-width="3px" clip-path="url(#clip0_151_1553)" stroke="none" stroke-linecap="round" stroke-dasharray="none" d="M68.17,10.415L22.723,10.415C11.742,10.415,2.84,19.317,2.84,30.298L2.84,68.17C2.84,79.151,11.742,88.053,22.723,88.053L68.17,88.053C79.151,88.053,88.053,79.151,88.053,68.17L88.053,30.298C88.053,19.317,79.151,10.415,68.17,10.415ZM68.17,19.883C73.922,19.883,78.585,24.546,78.585,30.298L78.585,68.17C78.585,73.922,73.922,78.585,68.17,78.585L22.723,78.585C16.971,78.585,12.308,73.922,12.308,68.17L12.308,30.298C12.308,24.546,16.971,19.883,22.723,19.883L68.17,19.883Z"/>
  <path stroke-linejoin="round" stroke-opacity="1" stroke-miterlimit="4" stroke-linecap="round" clip-path="url(#clip0_151_1553)" fill-opacity="1" stroke="none" stroke-width="3px" stroke-dasharray="none" fill="#000000" fill-rule="nonzero" d="M25.564,7.574L25.564,22.723C25.564,25.338,27.683,27.457,30.298,27.457C32.912,27.457,35.032,25.338,35.032,22.723L35.032,7.574C35.032,4.96,32.912,2.84,30.298,2.84C27.683,2.84,25.564,4.96,25.564,7.574Z"/>
  <path clip-path="url(#clip0_151_1553)" fill-rule="nonzero" stroke="none" stroke-width="3px" fill="#000000" stroke-miterlimit="4" stroke-linecap="round" stroke-opacity="1" stroke-dasharray="none" fill-opacity="1" stroke-linejoin="round" d="M55.862,7.574L55.862,22.723C55.862,25.338,57.981,27.457,60.596,27.457C63.21,27.457,65.33,25.338,65.33,22.723L65.33,7.574C65.33,4.96,63.21,2.84,60.596,2.84C57.981,2.84,55.862,4.96,55.862,7.574Z"/>
  <path stroke-opacity="1" clip-path="url(#clip0_151_1553)" fill="#000000" fill-rule="nonzero" stroke="none" stroke-linecap="round" fill-opacity="1" stroke-miterlimit="4" stroke-width="3px" stroke-dasharray="none" stroke-linejoin="round" d="M7.574,42.606L83.319,42.606C85.933,42.606,88.053,40.487,88.053,37.872C88.053,35.258,85.933,33.138,83.319,33.138L7.574,33.138C4.96,33.138,2.84,35.258,2.84,37.872C2.84,40.487,4.96,42.606,7.574,42.606Z"/>
</g>
  <g id="Thin-L" transform="matrix(1.0,0.0,0.0,1.0,812.2633251953125,1475.3233447265625)">  <path stroke-linecap="round" stroke-linejoin="round" stroke-width="3px" clip-path="url(#clip0_151_1553)" stroke-miterlimit="4" stroke-opacity="1" stroke-dasharray="none" stroke="none" fill="#000000" fill-rule="nonzero" fill-opacity="1" d="M68.17,11.362L22.723,11.362C12.265,11.362,3.787,19.84,3.787,30.298L3.787,68.17C3.787,78.628,12.265,87.106,22.723,87.106L68.17,87.106C78.628,87.106,87.106,78.628,87.106,68.17L87.106,30.298C87.106,19.84,78.628,11.362,68.17,11.362ZM68.17,18.936C74.445,18.936,79.532,24.023,79.532,30.298L79.532,68.17C79.532,74.445,74.445,79.532,68.17,79.532L22.723,79.532C16.449,79.532,11.362,74.445,11.362,68.17L11.362,30.298C11.362,24.023,16.448,18.936,22.723,18.936L68.17,18.936Z"/>
  <path stroke-linecap="round" stroke-width="3px" fill-opacity="1" clip-path="url(#clip0_151_1553)" fill-rule="nonzero" stroke-miterlimit="4" fill="#000000" stroke-linejoin="round" stroke-opacity="1" stroke="none" stroke-dasharray="none" d="M26.511,7.574L26.511,22.723C26.511,24.815,28.206,26.511,30.298,26.511C32.389,26.511,34.085,24.815,34.085,22.723L34.085,7.574C34.085,5.483,32.389,3.787,30.298,3.787C28.206,3.787,26.511,5.483,26.511,7.574Z"/>
  <path stroke="none" stroke-linejoin="round" fill-opacity="1" stroke-width="3px" stroke-miterlimit="4" stroke-linecap="round" stroke-dasharray="none" stroke-opacity="1" fill-rule="nonzero" clip-path="url(#clip0_151_1553)" fill="#000000" d="M56.808,7.574L56.808,22.723C56.808,24.815,58.504,26.511,60.596,26.511C62.687,26.511,64.383,24.815,64.383,22.723L64.383,7.574C64.383,5.483,62.687,3.787,60.596,3.787C58.504,3.787,56.808,5.483,56.808,7.574Z"/>
  <path fill="#000000" fill-rule="nonzero" fill-opacity="1" clip-path="url(#clip0_151_1553)" stroke-width="3px" stroke-linejoin="round" stroke-dasharray="none" stroke-linecap="round" stroke="none" stroke-miterlimit="4" stroke-opacity="1" d="M7.574,41.659L83.319,41.659C85.411,41.659,87.106,39.964,87.106,37.872C87.106,35.781,85.411,34.085,83.319,34.085L7.574,34.085C5.483,34.085,3.787,35.781,3.787,37.872C3.787,39.964,5.483,41.659,7.574,41.659Z"/>
</g>
  <g id="Ultralight-L" transform="matrix(1.0,0.0,0.0,1.0,515.5533251953125,1475.3233447265625)">  <path stroke-dasharray="none" fill-rule="nonzero" stroke-miterlimit="4" fill="#000000" fill-opacity="1" clip-path="url(#clip0_151_1553)" stroke-opacity="1" stroke-linejoin="round" stroke-linecap="round" stroke="none" stroke-width="3px" d="M68.17,12.308L22.723,12.308C12.788,12.308,4.734,20.363,4.734,30.298L4.734,68.17C4.734,78.105,12.788,86.159,22.723,86.159L68.17,86.159C78.105,86.159,86.159,78.105,86.159,68.17L86.159,30.298C86.159,20.363,78.105,12.308,68.17,12.308ZM68.17,17.989C74.968,17.989,80.478,23.5,80.478,30.298L80.478,68.17C80.478,74.968,74.968,80.478,68.17,80.478L22.723,80.478C15.926,80.478,10.415,74.968,10.415,68.17L10.415,30.298C10.415,23.5,15.926,17.989,22.723,17.989L68.17,17.989Z"/>
  <path stroke-dasharray="none" fill-opacity="1" fill="#000000" stroke-linecap="round" stroke-opacity="1" stroke="none" stroke-linejoin="round" stroke-width="3px" fill-rule="nonzero" clip-path="url(#clip0_151_1553)" stroke-miterlimit="4" d="M27.457,7.574L27.457,22.723C27.457,24.292,28.729,25.564,30.298,25.564C31.867,25.564,33.138,24.292,33.138,22.723L33.138,7.574C33.138,6.006,31.867,4.734,30.298,4.734C28.729,4.734,27.457,6.006,27.457,7.574Z"/>
  <path stroke-linejoin="round" stroke="none" stroke-miterlimit="4" fill="#000000" stroke-dasharray="none" stroke-opacity="1" fill-opacity="1" fill-rule="nonzero" clip-path="url(#clip0_151_1553)" stroke-linecap="round" stroke-width="3px" d="M57.755,7.574L57.755,22.723C57.755,24.292,59.027,25.564,60.596,25.564C62.164,25.564,63.436,24.292,63.436,22.723L63.436,7.574C63.436,6.006,62.164,4.734,60.596,4.734C59.027,4.734,57.755,6.006,57.755,7.574Z"/>
  <path stroke-opacity="1" stroke-linejoin="round" fill-opacity="1" stroke="none" fill="#000000" clip-path="url(#clip0_151_1553)" stroke-dasharray="none" fill-rule="nonzero" stroke-linecap="round" stroke-miterlimit="4" stroke-width="3px" d="M7.574,40.713L83.319,40.713C84.888,40.713,86.159,39.441,86.159,37.872C86.159,36.304,84.888,35.032,83.319,35.032L7.574,35.032C6.006,35.032,4.734,36.304,4.734,37.872C4.734,39.441,6.006,40.713,7.574,40.713Z"/>
</g>
  <g id="Black-M" transform="matrix(1.0,0.0,0.0,1.0,2899.45001953125,1055.5400390625)">  <path fill-rule="nonzero" stroke-width="3px" fill="#000000" fill-opacity="1" stroke-dasharray="none" stroke-opacity="1" stroke-linecap="round" stroke="none" stroke-miterlimit="4" clip-path="url(#clip0_151_1553)" stroke-linejoin="round" d="M52.845,2.011L17.615,2.011C5.754,2.011,-3.861,11.626,-3.861,23.487L-3.861,52.845C-3.861,64.706,5.754,74.321,17.615,74.321L52.845,74.321C64.706,74.321,74.321,64.706,74.321,52.845L74.321,23.487C74.321,11.626,64.706,2.011,52.845,2.011ZM52.845,21.476C53.956,21.476,54.856,22.376,54.856,23.487L54.856,52.845C54.856,53.956,53.956,54.856,52.845,54.856L17.615,54.856C16.504,54.856,15.604,53.956,15.604,52.845L15.604,23.487C15.604,22.376,16.504,21.476,17.615,21.476L52.845,21.476Z"/>
  <path stroke="none" stroke-miterlimit="4" fill-opacity="1" stroke-opacity="1" stroke-dasharray="none" stroke-linejoin="round" stroke-linecap="round" fill="#000000" fill-rule="nonzero" clip-path="url(#clip0_151_1553)" stroke-width="3px" d="M13.754,5.872L13.754,17.615C13.754,22.99,18.112,27.347,23.487,27.347C28.862,27.347,33.219,22.99,33.219,17.615L33.219,5.872C33.219,0.497,28.862,-3.861,23.487,-3.861C18.112,-3.861,13.754,0.497,13.754,5.872Z"/>
  <path stroke-linecap="round" stroke="none" fill-opacity="1" stroke-dasharray="none" stroke-linejoin="round" stroke-opacity="1" stroke-miterlimit="4" fill="#000000" stroke-width="3px" fill-rule="nonzero" clip-path="url(#clip0_151_1553)" d="M37.241,5.872L37.241,17.615C37.241,22.99,41.598,27.347,46.973,27.347C52.348,27.347,56.706,22.99,56.706,17.615L56.706,5.872C56.706,0.497,52.348,-3.861,46.973,-3.861C41.598,-3.861,37.241,0.497,37.241,5.872Z"/>
  <path stroke-linejoin="round" fill-rule="nonzero" fill-opacity="1" clip-path="url(#clip0_151_1553)" stroke-opacity="1" stroke-miterlimit="4" fill="#000000" stroke-width="3px" stroke-linecap="round" stroke="none" stroke-dasharray="none" d="M5.872,39.091L64.588,39.091C69.963,39.091,74.321,34.733,74.321,29.358C74.321,23.983,69.963,19.626,64.588,19.626L5.872,19.626C0.497,19.626,-3.861,23.983,-3.861,29.358C-3.861,34.733,0.497,39.091,5.872,39.091Z"/>
</g>
  <g id="Heavy-M" transform="matrix(1.0,0.0,0.0,1.0,2602.74001953125,1055.5400390625)">  <path fill-opacity="1" fill-rule="nonzero" stroke="none" stroke-miterlimit="4" fill="#000000" stroke-linecap="round" stroke-width="3px" clip-path="url(#clip0_151_1553)" stroke-opacity="1" stroke-dasharray="none" stroke-linejoin="round" d="M52.845,3.077L17.615,3.077C6.343,3.077,-2.795,12.215,-2.795,23.487L-2.795,52.845C-2.795,64.117,6.343,73.255,17.615,73.255L52.845,73.255C64.117,73.255,73.255,64.117,73.255,52.845L73.255,23.487C73.255,12.215,64.117,3.077,52.845,3.077ZM52.845,20.41C54.544,20.41,55.922,21.787,55.922,23.487L55.922,52.845C55.922,54.544,54.544,55.922,52.845,55.922L17.615,55.922C15.916,55.922,14.538,54.544,14.538,52.845L14.538,23.487C14.538,21.787,15.916,20.41,17.615,20.41L52.845,20.41Z"/>
  <path clip-path="url(#clip0_151_1553)" stroke-miterlimit="4" fill-opacity="1" fill="#000000" stroke-linecap="round" stroke-linejoin="round" stroke="none" stroke-width="3px" stroke-dasharray="none" stroke-opacity="1" fill-rule="nonzero" d="M14.82,5.872L14.82,17.615C14.82,22.401,18.7,26.282,23.487,26.282C28.273,26.282,32.153,22.401,32.153,17.615L32.153,5.872C32.153,1.085,28.273,-2.795,23.487,-2.795C18.7,-2.795,14.82,1.085,14.82,5.872Z"/>
  <path stroke="none" stroke-opacity="1" stroke-dasharray="none" stroke-width="3px" fill-opacity="1" fill-rule="nonzero" stroke-miterlimit="4" stroke-linejoin="round" clip-path="url(#clip0_151_1553)" stroke-linecap="round" fill="#000000" d="M38.307,5.872L38.307,17.615C38.307,22.401,42.187,26.282,46.973,26.282C51.76,26.282,55.64,22.401,55.64,17.615L55.64,5.872C55.64,1.085,51.76,-2.795,46.973,-2.795C42.187,-2.795,38.307,1.085,38.307,5.872Z"/>
  <path stroke-linecap="round" fill-rule="nonzero" stroke-miterlimit="4" stroke-opacity="1" stroke-linejoin="round" stroke-width="3px" stroke-dasharray="none" fill-opacity="1" clip-path="url(#clip0_151_1553)" fill="#000000" stroke="none" d="M5.872,38.025L64.588,38.025C69.375,38.025,73.255,34.145,73.255,29.358C73.255,24.572,69.375,20.692,64.588,20.692L5.872,20.692C1.085,20.692,-2.795,24.572,-2.795,29.358C-2.795,34.145,1.085,38.025,5.872,38.025Z"/>
</g>
  <g id="Bold-M" transform="matrix(1.0,0.0,0.0,1.0,2306.0300195312498,1055.5400390625)">  <path stroke="none" stroke-miterlimit="4" stroke-dasharray="none" stroke-linejoin="round" clip-path="url(#clip0_151_1553)" stroke-width="3px" fill-opacity="1" stroke-linecap="round" fill-rule="nonzero" stroke-opacity="1" fill="#000000" d="M52.845,4.142L17.615,4.142C6.931,4.142,-1.729,12.803,-1.729,23.487L-1.729,52.845C-1.729,63.528,6.932,72.189,17.615,72.189L52.845,72.189C63.528,72.189,72.189,63.528,72.189,52.845L72.189,23.487C72.189,12.803,63.528,4.142,52.845,4.142ZM52.845,19.344C55.133,19.344,56.987,21.199,56.987,23.487L56.987,52.845C56.987,55.133,55.133,56.987,52.845,56.987L17.615,56.987C15.327,56.987,13.473,55.133,13.473,52.845L13.473,23.487C13.473,21.199,15.327,19.344,17.615,19.344L52.845,19.344Z"/>
  <path stroke-opacity="1" fill-opacity="1" fill-rule="nonzero" stroke="none" stroke-linecap="round" stroke-miterlimit="4" stroke-dasharray="none" clip-path="url(#clip0_151_1553)" stroke-width="3px" fill="#000000" stroke-linejoin="round" d="M15.886,5.872L15.886,17.615C15.886,21.813,19.289,25.216,23.487,25.216C27.684,25.216,31.088,21.813,31.088,17.615L31.088,5.872C31.088,1.674,27.684,-1.729,23.487,-1.729C19.289,-1.729,15.886,1.674,15.886,5.872Z"/>
  <path stroke-linecap="round" stroke-dasharray="none" fill="#000000" stroke-width="3px" stroke-opacity="1" stroke-miterlimit="4" fill-rule="nonzero" stroke="none" fill-opacity="1" clip-path="url(#clip0_151_1553)" stroke-linejoin="round" d="M39.372,5.872L39.372,17.615C39.372,21.813,42.775,25.216,46.973,25.216C51.171,25.216,54.574,21.813,54.574,17.615L54.574,5.872C54.574,1.674,51.171,-1.729,46.973,-1.729C42.775,-1.729,39.372,1.674,39.372,5.872Z"/>
  <path clip-path="url(#clip0_151_1553)" stroke-miterlimit="4" stroke-width="3px" stroke-dasharray="none" fill="#000000" fill-opacity="1" stroke-opacity="1" fill-rule="nonzero" stroke-linejoin="round" stroke-linecap="round" stroke="none" d="M5.872,36.959L64.588,36.959C68.786,36.959,72.189,33.556,72.189,29.358C72.189,25.16,68.786,21.757,64.588,21.757L5.872,21.757C1.674,21.757,-1.729,25.16,-1.729,29.358C-1.729,33.556,1.674,36.959,5.872,36.959Z"/>
</g>
  <g id="Semibold-M" transform="matrix(1.0,0.0,0.0,1.0,2009.32001953125,1055.5400390625)">  <path clip-path="url(#clip0_151_1553)" fill="#000000" fill-rule="nonzero" stroke-linecap="round" stroke-linejoin="round" stroke-width="3px" stroke="none" stroke-opacity="1" stroke-dasharray="none" stroke-miterlimit="4" fill-opacity="1" d="M52.845,5.208L17.615,5.208C7.52,5.208,-0.663,13.392,-0.663,23.487L-0.663,52.845C-0.663,62.94,7.52,71.123,17.615,71.123L52.845,71.123C62.94,71.123,71.123,62.94,71.123,52.845L71.123,23.487C71.123,13.392,62.94,5.208,52.845,5.208ZM52.845,18.278C55.721,18.278,58.053,20.61,58.053,23.487L58.053,52.845C58.053,55.721,55.721,58.053,52.845,58.053L17.615,58.053C14.739,58.053,12.407,55.721,12.407,52.845L12.407,23.487C12.407,20.61,14.739,18.278,17.615,18.278L52.845,18.278Z"/>
  <path stroke-linecap="round" fill="#000000" stroke="none" clip-path="url(#clip0_151_1553)" fill-rule="nonzero" fill-opacity="1" stroke-miterlimit="4" stroke-width="3px" stroke-dasharray="none" stroke-linejoin="round" stroke-opacity="1" d="M16.951,5.872L16.951,17.615C16.951,21.224,19.877,24.15,23.487,24.15C27.096,24.15,30.022,21.224,30.022,17.615L30.022,5.872C30.022,2.262,27.096,-0.663,23.487,-0.663C19.877,-0.663,16.951,2.262,16.951,5.872Z"/>
  <path stroke-opacity="1" stroke="none" fill-opacity="1" clip-path="url(#clip0_151_1553)" stroke-dasharray="none" stroke-linejoin="round" stroke-miterlimit="4" stroke-width="3px" fill="#000000" stroke-linecap="round" fill-rule="nonzero" d="M40.438,5.872L40.438,17.615C40.438,21.224,43.364,24.15,46.973,24.15C50.583,24.15,53.508,21.224,53.508,17.615L53.508,5.872C53.508,2.262,50.583,-0.663,46.973,-0.663C43.364,-0.663,40.438,2.262,40.438,5.872Z"/>
  <path stroke-width="3px" stroke-dasharray="none" fill-opacity="1" stroke-opacity="1" stroke-linejoin="round" fill="#000000" fill-rule="nonzero" stroke-miterlimit="4" stroke="none" stroke-linecap="round" clip-path="url(#clip0_151_1553)" d="M5.872,35.893L64.588,35.893C68.198,35.893,71.123,32.968,71.123,29.358C71.123,25.749,68.198,22.823,64.588,22.823L5.872,22.823C2.262,22.823,-0.663,25.749,-0.663,29.358C-0.663,32.968,2.262,35.893,5.872,35.893Z"/>
</g>
  <g id="Medium-M" transform="matrix(1.0,0.0,0.0,1.0,1712.61001953125,1055.5400390625)">  <path stroke-opacity="1" stroke="none" stroke-linejoin="round" fill="#000000" stroke-width="3px" fill-opacity="1" stroke-miterlimit="4" stroke-linecap="round" fill-rule="nonzero" clip-path="url(#clip0_151_1553)" stroke-dasharray="none" d="M52.845,6.274L17.615,6.274C8.109,6.274,0.402,13.98,0.402,23.487L0.402,52.845C0.402,62.351,8.109,70.058,17.615,70.058L52.845,70.058C62.351,70.058,70.058,62.351,70.058,52.845L70.058,23.487C70.058,13.98,62.351,6.274,52.845,6.274ZM52.845,17.213C56.31,17.213,59.119,20.022,59.119,23.487L59.119,52.845C59.119,56.31,56.31,59.119,52.845,59.119L17.615,59.119C14.15,59.119,11.341,56.31,11.341,52.845L11.341,23.487C11.341,20.022,14.15,17.213,17.615,17.213L52.845,17.213Z"/>
  <path stroke-linecap="round" fill-opacity="1" stroke="none" stroke-linejoin="round" stroke-opacity="1" stroke-dasharray="none" fill-rule="nonzero" clip-path="url(#clip0_151_1553)" fill="#000000" stroke-miterlimit="4" stroke-width="3px" d="M18.017,5.872L18.017,17.615C18.017,20.636,20.466,23.084,23.487,23.084C26.507,23.084,28.956,20.636,28.956,17.615L28.956,5.872C28.956,2.851,26.507,0.402,23.487,0.402C20.466,0.402,18.017,2.851,18.017,5.872Z"/>
  <path stroke-dasharray="none" stroke-linecap="round" clip-path="url(#clip0_151_1553)" stroke-miterlimit="4" stroke-width="3px" fill-opacity="1" stroke-opacity="1" fill="#000000" stroke-linejoin="round" stroke="none" fill-rule="nonzero" d="M41.504,5.872L41.504,17.615C41.504,20.636,43.953,23.084,46.973,23.084C49.994,23.084,52.443,20.636,52.443,17.615L52.443,5.872C52.443,2.851,49.994,0.402,46.973,0.402C43.953,0.402,41.504,2.851,41.504,5.872Z"/>
  <path fill-opacity="1" clip-path="url(#clip0_151_1553)" stroke-linecap="round" fill-rule="nonzero" stroke="none" stroke-width="3px" stroke-dasharray="none" stroke-miterlimit="4" stroke-linejoin="round" fill="#000000" stroke-opacity="1" d="M5.872,34.828L64.588,34.828C67.609,34.828,70.058,32.379,70.058,29.358C70.058,26.338,67.609,23.889,64.588,23.889L5.872,23.889C2.851,23.889,0.402,26.338,0.402,29.358C0.402,32.379,2.851,34.828,5.872,34.828Z"/>
</g>
  <g id="Regular-M" transform="matrix(1.0,0.0,0.0,1.0,1415.9000195312499,1055.5400390625)">  <path stroke-opacity="1" clip-path="url(#clip0_151_1553)" stroke-dasharray="none" stroke-linejoin="round" stroke-linecap="round" fill-opacity="1" stroke="none" fill="#000000" fill-rule="nonzero" stroke-miterlimit="4" stroke-width="3px" d="M52.845,7.34L17.615,7.34C8.697,7.34,1.468,14.569,1.468,23.487L1.468,52.845C1.468,61.763,8.697,68.992,17.615,68.992L52.845,68.992C61.763,68.992,68.992,61.763,68.992,52.845L68.992,23.487C68.992,14.569,61.763,7.34,52.845,7.34ZM52.845,16.147C56.898,16.147,60.185,19.433,60.185,23.487L60.185,52.845C60.185,56.898,56.898,60.185,52.845,60.185L17.615,60.185C13.561,60.185,10.275,56.898,10.275,52.845L10.275,23.487C10.275,19.433,13.561,16.147,17.615,16.147L52.845,16.147Z"/>
  <path stroke-opacity="1" stroke-width="3px" clip-path="url(#clip0_151_1553)" stroke-miterlimit="4" stroke-linejoin="round" fill-rule="nonzero" stroke-dasharray="none" fill-opacity="1" stroke-linecap="round" stroke="none" fill="#000000" d="M19.083,5.872L19.083,17.615C19.083,20.047,21.055,22.019,23.487,22.019C25.919,22.019,27.89,20.047,27.89,17.615L27.89,5.872C27.89,3.44,25.919,1.468,23.487,1.468C21.055,1.468,19.083,3.44,19.083,5.872Z"/>
  <path fill-opacity="1" stroke="none" stroke-dasharray="none" stroke-linejoin="round" stroke-linecap="round" clip-path="url(#clip0_151_1553)" fill="#000000" fill-rule="nonzero" stroke-miterlimit="4" stroke-width="3px" stroke-opacity="1" d="M42.57,5.872L42.57,17.615C42.57,20.047,44.541,22.019,46.973,22.019C49.405,22.019,51.377,20.047,51.377,17.615L51.377,5.872C51.377,3.44,49.405,1.468,46.973,1.468C44.541,1.468,42.57,3.44,42.57,5.872Z"/>
  <path stroke-miterlimit="4" stroke-linecap="round" fill="#000000" stroke-width="3px" stroke-dasharray="none" fill-opacity="1" stroke-linejoin="round" clip-path="url(#clip0_151_1553)" fill-rule="nonzero" stroke="none" stroke-opacity="1" d="M5.872,33.762L64.588,33.762C67.02,33.762,68.992,31.79,68.992,29.358C68.992,26.926,67.02,24.955,64.588,24.955L5.872,24.955C3.44,24.955,1.468,26.926,1.468,29.358C1.468,31.79,3.44,33.762,5.872,33.762Z"/>
</g>
  <g id="Light-M" transform="matrix(1.0,0.0,0.0,1.0,1119.19001953125,1055.5400390625)">  <path fill="#000000" stroke-opacity="1" stroke-linejoin="round" stroke-miterlimit="4" fill-rule="nonzero" fill-opacity="1" stroke-width="3px" clip-path="url(#clip0_151_1553)" stroke="none" stroke-linecap="round" stroke-dasharray="none" d="M52.845,8.074L17.615,8.074C9.103,8.074,2.202,14.974,2.202,23.487L2.202,52.845C2.202,61.357,9.103,68.258,17.615,68.258L52.845,68.258C61.357,68.258,68.258,61.357,68.258,52.845L68.258,23.487C68.258,14.974,61.357,8.074,52.845,8.074ZM52.845,15.413C57.304,15.413,60.919,19.028,60.919,23.487L60.919,52.845C60.919,57.304,57.304,60.919,52.845,60.919L17.615,60.919C13.156,60.919,9.541,57.304,9.541,52.845L9.541,23.487C9.541,19.028,13.156,15.413,17.615,15.413L52.845,15.413Z"/>
  <path stroke-linejoin="round" stroke-opacity="1" stroke-miterlimit="4" stroke-linecap="round" clip-path="url(#clip0_151_1553)" fill-opacity="1" stroke="none" stroke-width="3px" stroke-dasharray="none" fill="#000000" fill-rule="nonzero" d="M19.817,5.872L19.817,17.615C19.817,19.642,21.46,21.285,23.487,21.285C25.513,21.285,27.156,19.642,27.156,17.615L27.156,5.872C27.156,3.845,25.513,2.202,23.487,2.202C21.46,2.202,19.817,3.845,19.817,5.872Z"/>
  <path clip-path="url(#clip0_151_1553)" fill-rule="nonzero" stroke="none" stroke-width="3px" fill="#000000" stroke-miterlimit="4" stroke-linecap="round" stroke-opacity="1" stroke-dasharray="none" fill-opacity="1" stroke-linejoin="round" d="M43.304,5.872L43.304,17.615C43.304,19.642,44.947,21.285,46.973,21.285C49,21.285,50.643,19.642,50.643,17.615L50.643,5.872C50.643,3.845,49,2.202,46.973,2.202C44.947,2.202,43.304,3.845,43.304,5.872Z"/>
  <path stroke-opacity="1" clip-path="url(#clip0_151_1553)" fill="#000000" fill-rule="nonzero" stroke="none" stroke-linecap="round" fill-opacity="1" stroke-miterlimit="4" stroke-width="3px" stroke-dasharray="none" stroke-linejoin="round" d="M5.872,33.028L64.588,33.028C66.615,33.028,68.258,31.385,68.258,29.358C68.258,27.332,66.615,25.689,64.588,25.689L5.872,25.689C3.845,25.689,2.202,27.332,2.202,29.358C2.202,31.385,3.845,33.028,5.872,33.028Z"/>
</g>
  <g id="Thin-M" transform="matrix(1.0,0.0,0.0,1.0,822.48001953125,1055.5400390625)">  <path stroke-linecap="round" stroke-linejoin="round" stroke-width="3px" clip-path="url(#clip0_151_1553)" stroke-miterlimit="4" stroke-opacity="1" stroke-dasharray="none" stroke="none" fill="#000000" fill-rule="nonzero" fill-opacity="1" d="M52.845,8.807L17.615,8.807C9.508,8.807,2.936,15.38,2.936,23.487L2.936,52.845C2.936,60.952,9.508,67.524,17.615,67.524L52.845,67.524C60.952,67.524,67.524,60.952,67.524,52.845L67.524,23.487C67.524,15.38,60.952,8.807,52.845,8.807ZM52.845,14.679C57.709,14.679,61.652,18.622,61.652,23.487L61.652,52.845C61.652,57.709,57.709,61.652,52.845,61.652L17.615,61.652C12.751,61.652,8.807,57.709,8.807,52.845L8.807,23.487C8.807,18.622,12.751,14.679,17.615,14.679L52.845,14.679Z"/>
  <path stroke-linecap="round" stroke-width="3px" fill-opacity="1" clip-path="url(#clip0_151_1553)" fill-rule="nonzero" stroke-miterlimit="4" fill="#000000" stroke-linejoin="round" stroke-opacity="1" stroke="none" stroke-dasharray="none" d="M20.551,5.872L20.551,17.615C20.551,19.236,21.865,20.551,23.487,20.551C25.108,20.551,26.422,19.236,26.422,17.615L26.422,5.872C26.422,4.25,25.108,2.936,23.487,2.936C21.865,2.936,20.551,4.25,20.551,5.872Z"/>
  <path stroke="none" stroke-linejoin="round" fill-opacity="1" stroke-width="3px" stroke-miterlimit="4" stroke-linecap="round" stroke-dasharray="none" stroke-opacity="1" fill-rule="nonzero" clip-path="url(#clip0_151_1553)" fill="#000000" d="M44.037,5.872L44.037,17.615C44.037,19.236,45.352,20.551,46.973,20.551C48.595,20.551,49.909,19.236,49.909,17.615L49.909,5.872C49.909,4.25,48.595,2.936,46.973,2.936C45.352,2.936,44.037,4.25,44.037,5.872Z"/>
  <path fill="#000000" fill-rule="nonzero" fill-opacity="1" clip-path="url(#clip0_151_1553)" stroke-width="3px" stroke-linejoin="round" stroke-dasharray="none" stroke-linecap="round" stroke="none" stroke-miterlimit="4" stroke-opacity="1" d="M5.872,32.294L64.588,32.294C66.21,32.294,67.524,30.98,67.524,29.358C67.524,27.737,66.21,26.422,64.588,26.422L5.872,26.422C4.25,26.422,2.936,27.737,2.936,29.358C2.936,30.98,4.25,32.294,5.872,32.294Z"/>
</g>
  <g id="Ultralight-M" transform="matrix(1.0,0.0,0.0,1.0,525.77001953125,1055.5400390625)">  <path stroke-dasharray="none" fill-rule="nonzero" stroke-miterlimit="4" fill="#000000" fill-opacity="1" clip-path="url(#clip0_151_1553)" stroke-opacity="1" stroke-linejoin="round" stroke-linecap="round" stroke="none" stroke-width="3px" d="M52.845,9.541L17.615,9.541C9.913,9.541,3.67,15.785,3.67,23.487L3.67,52.845C3.67,60.547,9.913,66.79,17.615,66.79L52.845,66.79C60.547,66.79,66.79,60.547,66.79,52.845L66.79,23.487C66.79,15.785,60.547,9.541,52.845,9.541ZM52.845,13.945C58.115,13.945,62.386,18.217,62.386,23.487L62.386,52.845C62.386,58.114,58.114,62.386,52.845,62.386L17.615,62.386C12.345,62.386,8.074,58.115,8.074,52.845L8.074,23.487C8.074,18.217,12.345,13.945,17.615,13.945L52.845,13.945Z"/>
  <path stroke-dasharray="none" fill-opacity="1" fill="#000000" stroke-linecap="round" stroke-opacity="1" stroke="none" stroke-linejoin="round" stroke-width="3px" fill-rule="nonzero" clip-path="url(#clip0_151_1553)" stroke-miterlimit="4" d="M21.285,5.872L21.285,17.615C21.285,18.831,22.271,19.817,23.487,19.817C24.703,19.817,25.689,18.831,25.689,17.615L25.689,5.872C25.689,4.656,24.703,3.67,23.487,3.67C22.271,3.67,21.285,4.656,21.285,5.872Z"/>
  <path stroke-linejoin="round" stroke="none" stroke-miterlimit="4" fill="#000000" stroke-dasharray="none" stroke-opacity="1" fill-opacity="1" fill-rule="nonzero" clip-path="url(#clip0_151_1553)" stroke-linecap="round" stroke-width="3px" d="M44.771,5.872L44.771,17.615C44.771,18.831,45.757,19.817,46.973,19.817C48.189,19.817,49.175,18.831,49.175,17.615L49.175,5.872C49.175,4.656,48.189,3.67,46.973,3.67C45.757,3.67,44.771,4.656,44.771,5.872Z"/>
  <path stroke-opacity="1" stroke-linejoin="round" fill-opacity="1" stroke="none" fill="#000000" clip-path="url(#clip0_151_1553)" stroke-dasharray="none" fill-rule="nonzero" stroke-linecap="round" stroke-miterlimit="4" stroke-width="3px" d="M5.872,31.56L64.588,31.56C65.804,31.56,66.79,30.574,66.79,29.358C66.79,28.142,65.804,27.156,64.588,27.156L5.872,27.156C4.656,27.156,3.67,28.142,3.67,29.358C3.67,30.574,4.656,31.56,5.872,31.56Z"/>
</g>
  <g id="Black-S" transform="matrix(1.0,0.0,0.0,1.0,2907.0949252929686,633.1849448242187)">  <path fill-rule="nonzero" stroke-width="3px" fill="#000000" fill-opacity="1" stroke-dasharray="none" stroke-opacity="1" stroke-linecap="round" stroke="none" stroke-miterlimit="4" clip-path="url(#clip0_151_1553)" stroke-linejoin="round" d="M41.378,1.575L13.793,1.575C4.506,1.575,-3.023,9.103,-3.023,18.39L-3.023,41.378C-3.023,50.664,4.506,58.193,13.793,58.193L41.378,58.193C50.664,58.193,58.193,50.664,58.193,41.378L58.193,18.39C58.193,9.103,50.664,1.575,41.378,1.575ZM41.378,16.815C42.247,16.815,42.952,17.52,42.952,18.39L42.952,41.378C42.952,42.247,42.247,42.952,41.378,42.952L13.793,42.952C12.923,42.952,12.218,42.247,12.218,41.378L12.218,18.39C12.218,17.52,12.923,16.815,13.793,16.815L41.378,16.815Z"/>
  <path stroke="none" stroke-miterlimit="4" fill-opacity="1" stroke-opacity="1" stroke-dasharray="none" stroke-linejoin="round" stroke-linecap="round" fill="#000000" fill-rule="nonzero" clip-path="url(#clip0_151_1553)" stroke-width="3px" d="M10.77,4.598L10.77,13.793C10.77,18.001,14.181,21.413,18.39,21.413C22.599,21.413,26.01,18.001,26.01,13.793L26.01,4.598C26.01,0.389,22.599,-3.023,18.39,-3.023C14.181,-3.023,10.77,0.389,10.77,4.598Z"/>
  <path stroke-linecap="round" stroke="none" fill-opacity="1" stroke-dasharray="none" stroke-linejoin="round" stroke-opacity="1" stroke-miterlimit="4" fill="#000000" stroke-width="3px" fill-rule="nonzero" clip-path="url(#clip0_151_1553)" d="M29.16,4.598L29.16,13.793C29.16,18.001,32.571,21.413,36.78,21.413C40.989,21.413,44.4,18.001,44.4,13.793L44.4,4.598C44.4,0.389,40.989,-3.023,36.78,-3.023C32.571,-3.023,29.16,0.389,29.16,4.598Z"/>
  <path stroke-linejoin="round" fill-rule="nonzero" fill-opacity="1" clip-path="url(#clip0_151_1553)" stroke-opacity="1" stroke-miterlimit="4" fill="#000000" stroke-width="3px" stroke-linecap="round" stroke="none" stroke-dasharray="none" d="M4.598,30.608L50.573,30.608C54.781,30.608,58.193,27.196,58.193,22.988C58.193,18.779,54.781,15.367,50.573,15.367L4.598,15.367C0.389,15.367,-3.023,18.779,-3.023,22.988C-3.023,27.196,0.389,30.608,4.598,30.608Z"/>
</g>
  <g id="Heavy-S" transform="matrix(1.0,0.0,0.0,1.0,2610.3849252929685,633.1849448242187)">  <path fill-opacity="1" fill-rule="nonzero" stroke="none" stroke-miterlimit="4" fill="#000000" stroke-linecap="round" stroke-width="3px" clip-path="url(#clip0_151_1553)" stroke-opacity="1" stroke-dasharray="none" stroke-linejoin="round" d="M41.378,2.409L13.793,2.409C4.966,2.409,-2.188,9.564,-2.188,18.39L-2.188,41.378C-2.188,50.204,4.967,57.359,13.793,57.359L41.378,57.359C50.204,57.359,57.359,50.204,57.359,41.378L57.359,18.39C57.359,9.564,50.204,2.409,41.378,2.409ZM41.378,15.981C42.708,15.981,43.787,17.06,43.787,18.39L43.787,41.378C43.787,42.708,42.708,43.787,41.378,43.787L13.793,43.787C12.462,43.787,11.383,42.708,11.383,41.378L11.383,18.39C11.383,17.06,12.462,15.981,13.793,15.981L41.378,15.981Z"/>
  <path clip-path="url(#clip0_151_1553)" stroke-miterlimit="4" fill-opacity="1" fill="#000000" stroke-linecap="round" stroke-linejoin="round" stroke="none" stroke-width="3px" stroke-dasharray="none" stroke-opacity="1" fill-rule="nonzero" d="M11.604,4.598L11.604,13.793C11.604,17.54,14.642,20.578,18.39,20.578C22.138,20.578,25.176,17.54,25.176,13.793L25.176,4.598C25.176,0.85,22.138,-2.188,18.39,-2.188C14.642,-2.188,11.604,0.85,11.604,4.598Z"/>
  <path stroke="none" stroke-opacity="1" stroke-dasharray="none" stroke-width="3px" fill-opacity="1" fill-rule="nonzero" stroke-miterlimit="4" stroke-linejoin="round" clip-path="url(#clip0_151_1553)" stroke-linecap="round" fill="#000000" d="M29.994,4.598L29.994,13.793C29.994,17.54,33.032,20.578,36.78,20.578C40.528,20.578,43.566,17.54,43.566,13.793L43.566,4.598C43.566,0.85,40.528,-2.188,36.78,-2.188C33.032,-2.188,29.994,0.85,29.994,4.598Z"/>
  <path stroke-linecap="round" fill-rule="nonzero" stroke-miterlimit="4" stroke-opacity="1" stroke-linejoin="round" stroke-width="3px" stroke-dasharray="none" fill-opacity="1" clip-path="url(#clip0_151_1553)" fill="#000000" stroke="none" d="M4.598,29.773L50.573,29.773C54.32,29.773,57.359,26.735,57.359,22.988C57.359,19.24,54.32,16.202,50.573,16.202L4.598,16.202C0.85,16.202,-2.188,19.24,-2.188,22.988C-2.188,26.735,0.85,29.773,4.598,29.773Z"/>
</g>
  <g id="Bold-S" transform="matrix(1.0,0.0,0.0,1.0,2313.6749252929685,633.1849448242187)">  <path stroke="none" stroke-miterlimit="4" stroke-dasharray="none" stroke-linejoin="round" clip-path="url(#clip0_151_1553)" stroke-width="3px" fill-opacity="1" stroke-linecap="round" fill-rule="nonzero" stroke-opacity="1" fill="#000000" d="M41.378,3.244L13.793,3.244C5.427,3.244,-1.354,10.025,-1.354,18.39L-1.354,41.378C-1.354,49.743,5.427,56.524,13.793,56.524L41.378,56.524C49.743,56.524,56.524,49.743,56.524,41.378L56.524,18.39C56.524,10.025,49.743,3.244,41.378,3.244ZM41.378,15.147C43.169,15.147,44.621,16.599,44.621,18.39L44.621,41.378C44.621,43.169,43.169,44.621,41.378,44.621L13.793,44.621C12.001,44.621,10.549,43.169,10.549,41.378L10.549,18.39C10.549,16.599,12.001,15.147,13.793,15.147L41.378,15.147Z"/>
  <path stroke-opacity="1" fill-opacity="1" fill-rule="nonzero" stroke="none" stroke-linecap="round" stroke-miterlimit="4" stroke-dasharray="none" clip-path="url(#clip0_151_1553)" stroke-width="3px" fill="#000000" stroke-linejoin="round" d="M12.439,4.598L12.439,13.793C12.439,17.079,15.103,19.744,18.39,19.744C21.677,19.744,24.342,17.079,24.342,13.793L24.342,4.598C24.342,1.311,21.677,-1.354,18.39,-1.354C15.103,-1.354,12.439,1.311,12.439,4.598Z"/>
  <path stroke-linecap="round" stroke-dasharray="none" fill="#000000" stroke-width="3px" stroke-opacity="1" stroke-miterlimit="4" fill-rule="nonzero" stroke="none" fill-opacity="1" clip-path="url(#clip0_151_1553)" stroke-linejoin="round" d="M30.829,4.598L30.829,13.793C30.829,17.079,33.493,19.744,36.78,19.744C40.067,19.744,42.732,17.079,42.732,13.793L42.732,4.598C42.732,1.311,40.067,-1.354,36.78,-1.354C33.493,-1.354,30.829,1.311,30.829,4.598Z"/>
  <path clip-path="url(#clip0_151_1553)" stroke-miterlimit="4" stroke-width="3px" stroke-dasharray="none" fill="#000000" fill-opacity="1" stroke-opacity="1" fill-rule="nonzero" stroke-linejoin="round" stroke-linecap="round" stroke="none" d="M4.598,28.939L50.573,28.939C53.86,28.939,56.524,26.274,56.524,22.988C56.524,19.701,53.86,17.036,50.573,17.036L4.598,17.036C1.311,17.036,-1.354,19.701,-1.354,22.988C-1.354,26.274,1.311,28.939,4.598,28.939Z"/>
</g>
  <g id="Semibold-S" transform="matrix(1.0,0.0,0.0,1.0,2016.9649252929687,633.1849448242187)">  <path clip-path="url(#clip0_151_1553)" fill="#000000" fill-rule="nonzero" stroke-linecap="round" stroke-linejoin="round" stroke-width="3px" stroke="none" stroke-opacity="1" stroke-dasharray="none" stroke-miterlimit="4" fill-opacity="1" d="M41.378,4.078L13.793,4.078C5.888,4.078,-0.52,10.486,-0.52,18.39L-0.52,41.378C-0.52,49.282,5.888,55.69,13.793,55.69L41.378,55.69C49.282,55.69,55.69,49.282,55.69,41.378L55.69,18.39C55.69,10.486,49.282,4.078,41.378,4.078ZM41.378,14.312C43.63,14.312,45.456,16.138,45.456,18.39L45.456,41.378C45.456,43.63,43.63,45.456,41.378,45.456L13.793,45.456C11.54,45.456,9.715,43.63,9.715,41.378L9.715,18.39C9.715,16.138,11.54,14.312,13.793,14.312L41.378,14.312Z"/>
  <path stroke-linecap="round" fill="#000000" stroke="none" clip-path="url(#clip0_151_1553)" fill-rule="nonzero" fill-opacity="1" stroke-miterlimit="4" stroke-width="3px" stroke-dasharray="none" stroke-linejoin="round" stroke-opacity="1" d="M13.273,4.598L13.273,13.793C13.273,16.619,15.564,18.91,18.39,18.91C21.216,18.91,23.507,16.619,23.507,13.793L23.507,4.598C23.507,1.771,21.216,-0.52,18.39,-0.52C15.564,-0.52,13.273,1.771,13.273,4.598Z"/>
  <path stroke-opacity="1" stroke="none" fill-opacity="1" clip-path="url(#clip0_151_1553)" stroke-dasharray="none" stroke-linejoin="round" stroke-miterlimit="4" stroke-width="3px" fill="#000000" stroke-linecap="round" fill-rule="nonzero" d="M31.663,4.598L31.663,13.793C31.663,16.619,33.954,18.91,36.78,18.91C39.606,18.91,41.897,16.619,41.897,13.793L41.897,4.598C41.897,1.771,39.606,-0.52,36.78,-0.52C33.954,-0.52,31.663,1.771,31.663,4.598Z"/>
  <path stroke-width="3px" stroke-dasharray="none" fill-opacity="1" stroke-opacity="1" stroke-linejoin="round" fill="#000000" fill-rule="nonzero" stroke-miterlimit="4" stroke="none" stroke-linecap="round" clip-path="url(#clip0_151_1553)" d="M4.598,28.105L50.573,28.105C53.399,28.105,55.69,25.814,55.69,22.988C55.69,20.162,53.399,17.871,50.573,17.871L4.598,17.871C1.771,17.871,-0.52,20.162,-0.52,22.988C-0.52,25.814,1.771,28.105,4.598,28.105Z"/>
</g>
  <g id="Medium-S" transform="matrix(1.0,0.0,0.0,1.0,1720.2549252929687,633.1849448242187)">  <path stroke-opacity="1" stroke="none" stroke-linejoin="round" fill="#000000" stroke-width="3px" fill-opacity="1" stroke-miterlimit="4" stroke-linecap="round" fill-rule="nonzero" clip-path="url(#clip0_151_1553)" stroke-dasharray="none" d="M41.378,4.912L13.793,4.912C6.349,4.912,0.315,10.947,0.315,18.39L0.315,41.378C0.315,48.821,6.349,54.855,13.793,54.855L41.378,54.855C48.821,54.855,54.855,48.821,54.855,41.378L54.855,18.39C54.855,10.947,48.821,4.912,41.378,4.912ZM41.378,13.478C44.091,13.478,46.29,15.677,46.29,18.39L46.29,41.378C46.29,44.091,44.091,46.29,41.378,46.29L13.793,46.29C11.08,46.29,8.88,44.091,8.88,41.378L8.88,18.39C8.88,15.677,11.079,13.478,13.793,13.478L41.378,13.478Z"/>
  <path stroke-linecap="round" fill-opacity="1" stroke="none" stroke-linejoin="round" stroke-opacity="1" stroke-dasharray="none" fill-rule="nonzero" clip-path="url(#clip0_151_1553)" fill="#000000" stroke-miterlimit="4" stroke-width="3px" d="M14.107,4.598L14.107,13.793C14.107,16.158,16.025,18.075,18.39,18.075C20.755,18.075,22.673,16.158,22.673,13.793L22.673,4.598C22.673,2.232,20.755,0.315,18.39,0.315C16.025,0.315,14.107,2.232,14.107,4.598Z"/>
  <path stroke-dasharray="none" stroke-linecap="round" clip-path="url(#clip0_151_1553)" stroke-miterlimit="4" stroke-width="3px" fill-opacity="1" stroke-opacity="1" fill="#000000" stroke-linejoin="round" stroke="none" fill-rule="nonzero" d="M32.498,4.598L32.498,13.793C32.498,16.158,34.415,18.075,36.78,18.075C39.145,18.075,41.063,16.158,41.063,13.793L41.063,4.598C41.063,2.232,39.145,0.315,36.78,0.315C34.415,0.315,32.498,2.232,32.498,4.598Z"/>
  <path fill-opacity="1" clip-path="url(#clip0_151_1553)" stroke-linecap="round" fill-rule="nonzero" stroke="none" stroke-width="3px" stroke-dasharray="none" stroke-miterlimit="4" stroke-linejoin="round" fill="#000000" stroke-opacity="1" d="M4.598,27.27L50.573,27.27C52.938,27.27,54.855,25.353,54.855,22.988C54.855,20.622,52.938,18.705,50.573,18.705L4.598,18.705C2.232,18.705,0.315,20.622,0.315,22.988C0.315,25.353,2.232,27.27,4.598,27.27Z"/>
</g>
  <g id="Regular-S" transform="matrix(1.0,0.0,0.0,1.0,1423.5449252929686,633.1849448242187)">  <path stroke-opacity="1" clip-path="url(#clip0_151_1553)" stroke-dasharray="none" stroke-linejoin="round" stroke-linecap="round" fill-opacity="1" stroke="none" fill="#000000" fill-rule="nonzero" stroke-miterlimit="4" stroke-width="3px" d="M41.378,5.747L13.793,5.747C6.81,5.747,1.149,11.407,1.149,18.39L1.149,41.378C1.149,48.36,6.81,54.021,13.793,54.021L41.378,54.021C48.36,54.021,54.021,48.36,54.021,41.378L54.021,18.39C54.021,11.407,48.36,5.747,41.378,5.747ZM41.378,12.643C44.551,12.643,47.125,15.216,47.125,18.39L47.125,41.378C47.125,44.551,44.551,47.125,41.378,47.125L13.793,47.125C10.619,47.125,8.046,44.551,8.046,41.378L8.046,18.39C8.046,15.216,10.619,12.643,13.793,12.643L41.378,12.643Z"/>
  <path stroke-opacity="1" stroke-width="3px" clip-path="url(#clip0_151_1553)" stroke-miterlimit="4" stroke-linejoin="round" fill-rule="nonzero" stroke-dasharray="none" fill-opacity="1" stroke-linecap="round" stroke="none" fill="#000000" d="M14.942,4.598L14.942,13.793C14.942,15.697,16.486,17.241,18.39,17.241C20.294,17.241,21.838,15.697,21.838,13.793L21.838,4.598C21.838,2.693,20.294,1.149,18.39,1.149C16.486,1.149,14.942,2.693,14.942,4.598Z"/>
  <path fill-opacity="1" stroke="none" stroke-dasharray="none" stroke-linejoin="round" stroke-linecap="round" clip-path="url(#clip0_151_1553)" fill="#000000" fill-rule="nonzero" stroke-miterlimit="4" stroke-width="3px" stroke-opacity="1" d="M33.332,4.598L33.332,13.793C33.332,15.697,34.876,17.241,36.78,17.241C38.684,17.241,40.228,15.697,40.228,13.793L40.228,4.598C40.228,2.693,38.684,1.149,36.78,1.149C34.876,1.149,33.332,2.693,33.332,4.598Z"/>
  <path stroke-miterlimit="4" stroke-linecap="round" fill="#000000" stroke-width="3px" stroke-dasharray="none" fill-opacity="1" stroke-linejoin="round" clip-path="url(#clip0_151_1553)" fill-rule="nonzero" stroke="none" stroke-opacity="1" d="M4.598,26.436L50.573,26.436C52.477,26.436,54.021,24.892,54.021,22.988C54.021,21.083,52.477,19.539,50.573,19.539L4.598,19.539C2.693,19.539,1.149,21.083,1.149,22.988C1.149,24.892,2.693,26.436,4.598,26.436Z"/>
</g>
  <g id="Light-S" transform="matrix(1.0,0.0,0.0,1.0,1126.8349252929688,633.1849448242187)">  <path fill="#000000" stroke-opacity="1" stroke-linejoin="round" stroke-miterlimit="4" fill-rule="nonzero" fill-opacity="1" stroke-width="3px" clip-path="url(#clip0_151_1553)" stroke="none" stroke-linecap="round" stroke-dasharray="none" d="M41.378,6.322L13.793,6.322C7.127,6.322,1.724,11.725,1.724,18.39L1.724,41.378C1.724,48.043,7.127,53.446,13.793,53.446L41.378,53.446C48.043,53.446,53.446,48.043,53.446,41.378L53.446,18.39C53.446,11.725,48.043,6.322,41.378,6.322ZM41.378,12.068C44.869,12.068,47.699,14.899,47.699,18.39L47.699,41.378C47.699,44.869,44.869,47.699,41.378,47.699L13.793,47.699C10.301,47.699,7.471,44.869,7.471,41.378L7.471,18.39C7.471,14.899,10.301,12.068,13.793,12.068L41.378,12.068Z"/>
  <path stroke-linejoin="round" stroke-opacity="1" stroke-miterlimit="4" stroke-linecap="round" clip-path="url(#clip0_151_1553)" fill-opacity="1" stroke="none" stroke-width="3px" stroke-dasharray="none" fill="#000000" fill-rule="nonzero" d="M15.517,4.598L15.517,13.793C15.517,15.379,16.803,16.666,18.39,16.666C19.977,16.666,21.263,15.379,21.263,13.793L21.263,4.598C21.263,3.011,19.977,1.724,18.39,1.724C16.803,1.724,15.517,3.011,15.517,4.598Z"/>
  <path clip-path="url(#clip0_151_1553)" fill-rule="nonzero" stroke="none" stroke-width="3px" fill="#000000" stroke-miterlimit="4" stroke-linecap="round" stroke-opacity="1" stroke-dasharray="none" fill-opacity="1" stroke-linejoin="round" d="M33.907,4.598L33.907,13.793C33.907,15.379,35.193,16.666,36.78,16.666C38.367,16.666,39.654,15.379,39.654,13.793L39.654,4.598C39.654,3.011,38.367,1.724,36.78,1.724C35.193,1.724,33.907,3.011,33.907,4.598Z"/>
  <path stroke-opacity="1" clip-path="url(#clip0_151_1553)" fill="#000000" fill-rule="nonzero" stroke="none" stroke-linecap="round" fill-opacity="1" stroke-miterlimit="4" stroke-width="3px" stroke-dasharray="none" stroke-linejoin="round" d="M4.598,25.861L50.573,25.861C52.16,25.861,53.446,24.575,53.446,22.988C53.446,21.401,52.16,20.114,50.573,20.114L4.598,20.114C3.011,20.114,1.724,21.401,1.724,22.988C1.724,24.575,3.011,25.861,4.598,25.861Z"/>
</g>
  <g id="Thin-S" transform="matrix(1.0,0.0,0.0,1.0,830.1249252929688,633.1849448242187)">  <path stroke-linecap="round" stroke-linejoin="round" stroke-width="3px" clip-path="url(#clip0_151_1553)" stroke-miterlimit="4" stroke-opacity="1" stroke-dasharray="none" stroke="none" fill="#000000" fill-rule="nonzero" fill-opacity="1" d="M41.378,6.896L13.793,6.896C7.445,6.896,2.299,12.042,2.299,18.39L2.299,41.378C2.299,47.725,7.445,52.871,13.793,52.871L41.378,52.871C47.725,52.871,52.871,47.725,52.871,41.378L52.871,18.39C52.871,12.042,47.725,6.896,41.378,6.896ZM41.378,11.494C45.186,11.494,48.274,14.581,48.274,18.39L48.274,41.378C48.274,45.186,45.186,48.274,41.378,48.274L13.793,48.274C9.984,48.274,6.896,45.186,6.896,41.378L6.896,18.39C6.896,14.581,9.984,11.494,13.793,11.494L41.378,11.494Z"/>
  <path stroke-linecap="round" stroke-width="3px" fill-opacity="1" clip-path="url(#clip0_151_1553)" fill-rule="nonzero" stroke-miterlimit="4" fill="#000000" stroke-linejoin="round" stroke-opacity="1" stroke="none" stroke-dasharray="none" d="M16.091,4.598L16.091,13.793C16.091,15.062,17.12,16.091,18.39,16.091C19.66,16.091,20.689,15.062,20.689,13.793L20.689,4.598C20.689,3.328,19.66,2.299,18.39,2.299C17.12,2.299,16.091,3.328,16.091,4.598Z"/>
  <path stroke="none" stroke-linejoin="round" fill-opacity="1" stroke-width="3px" stroke-miterlimit="4" stroke-linecap="round" stroke-dasharray="none" stroke-opacity="1" fill-rule="nonzero" clip-path="url(#clip0_151_1553)" fill="#000000" d="M34.481,4.598L34.481,13.793C34.481,15.062,35.511,16.091,36.78,16.091C38.05,16.091,39.079,15.062,39.079,13.793L39.079,4.598C39.079,3.328,38.05,2.299,36.78,2.299C35.511,2.299,34.481,3.328,34.481,4.598Z"/>
  <path fill="#000000" fill-rule="nonzero" fill-opacity="1" clip-path="url(#clip0_151_1553)" stroke-width="3px" stroke-linejoin="round" stroke-dasharray="none" stroke-linecap="round" stroke="none" stroke-miterlimit="4" stroke-opacity="1" d="M4.598,25.286L50.573,25.286C51.842,25.286,52.871,24.257,52.871,22.988C52.871,21.718,51.842,20.689,50.573,20.689L4.598,20.689C3.328,20.689,2.299,21.718,2.299,22.988C2.299,24.257,3.328,25.286,4.598,25.286Z"/>
</g>
  <g id="Ultralight-S" transform="matrix(1.0,0.0,0.0,1.0,533.4149252929687,633.1849448242187)">  <path stroke-dasharray="none" fill-rule="nonzero" stroke-miterlimit="4" fill="#000000" fill-opacity="1" clip-path="url(#clip0_151_1553)" stroke-opacity="1" stroke-linejoin="round" stroke-linecap="round" stroke="none" stroke-width="3px" d="M41.378,7.471L13.793,7.471C7.762,7.471,2.873,12.36,2.873,18.39L2.873,41.378C2.873,47.408,7.762,52.297,13.793,52.297L41.378,52.297C47.408,52.297,52.297,47.408,52.297,41.378L52.297,18.39C52.297,12.36,47.408,7.471,41.378,7.471ZM41.378,10.919C45.504,10.919,48.849,14.264,48.849,18.39L48.849,41.378C48.849,45.504,45.504,48.849,41.378,48.849L13.793,48.849C9.666,48.849,6.322,45.504,6.322,41.378L6.322,18.39C6.322,14.264,9.666,10.919,13.793,10.919L41.378,10.919Z"/>
  <path stroke-dasharray="none" fill-opacity="1" fill="#000000" stroke-linecap="round" stroke-opacity="1" stroke="none" stroke-linejoin="round" stroke-width="3px" fill-rule="nonzero" clip-path="url(#clip0_151_1553)" stroke-miterlimit="4" d="M16.666,4.598L16.666,13.793C16.666,14.745,17.438,15.517,18.39,15.517C19.342,15.517,20.114,14.745,20.114,13.793L20.114,4.598C20.114,3.645,19.342,2.873,18.39,2.873C17.438,2.873,16.666,3.645,16.666,4.598Z"/>
  <path stroke-linejoin="round" stroke="none" stroke-miterlimit="4" fill="#000000" stroke-dasharray="none" stroke-opacity="1" fill-opacity="1" fill-rule="nonzero" clip-path="url(#clip0_151_1553)" stroke-linecap="round" stroke-width="3px" d="M35.056,4.598L35.056,13.793C35.056,14.745,35.828,15.517,36.78,15.517C37.732,15.517,38.504,14.745,38.504,13.793L38.504,4.598C38.504,3.645,37.732,2.873,36.78,2.873C35.828,2.873,35.056,3.645,35.056,4.598Z"/>
  <path stroke-opacity="1" stroke-linejoin="round" fill-opacity="1" stroke="none" fill="#000000" clip-path="url(#clip0_151_1553)" stroke-dasharray="none" fill-rule="nonzero" stroke-linecap="round" stroke-miterlimit="4" stroke-width="3px" d="M4.598,24.712L50.573,24.712C51.525,24.712,52.297,23.94,52.297,22.988C52.297,22.035,51.525,21.263,50.573,21.263L4.598,21.263C3.645,21.263,2.873,22.035,2.873,22.988C2.873,23.94,3.645,24.712,4.598,24.712Z"/>
</g>
 </g>
</svg>
