<?xml version="1.0" encoding="UTF-8"?>
<!-- Generator: CustomSymbols v2.6.2.41 by @serious_bret https://bretlester.com/app_content/CustomSymbols/ -->
<!-- Guides: Left/Right 0.0/0.0 Cap/Base 0.0/0.0 -->
<!-- Settings: RefScale 1.0 Min/Max Stroke Scales 0.5/2.21 -->
<!DOCTYPE svg
PUBLIC "-//W3C//DTD SVG 1.1//EN"
       "http://www.w3.org/Graphics/SVG/1.1/DTD/svg11.dtd">
<svg version="1.1" xmlns="http://www.w3.org/2000/svg" xmlns:xlink="http://www.w3.org/1999/xlink" width="3300" height="2200">
<![CDATA[<svg width="40" height="40" viewBox="0 0 40 40" fill="none" xmlns="http://www.w3.org/2000/svg">
<path d="M26.9833 3.33333H13.0166C6.94992 3.33333 3.33325 6.94999 3.33325 13.0167V26.9667C3.33325 33.05 6.94992 36.6667 13.0166 36.6667H26.9666C33.0333 36.6667 36.6499 33.05 36.6499 26.9833V13.0167C36.6666 6.94999 33.0499 3.33333 26.9833 3.33333ZM10.7833 12.8667C11.2666 12.3833 12.0666 12.3833 12.5499 12.8667C13.7333 14.05 15.6666 14.05 16.8499 12.8667C17.3333 12.3833 18.1333 12.3833 18.6166 12.8667C19.0999 13.35 19.0999 14.15 18.6166 14.6333C17.5333 15.7167 16.1166 16.25 14.6999 16.25C13.2833 16.25 11.8666 15.7167 10.7833 14.6333C10.2999 14.1333 10.2999 13.35 10.7833 12.8667ZM19.9999 31.3C15.5166 31.3 11.8666 27.65 11.8666 23.1667C11.8666 22 12.8166 21.0333 13.9833 21.0333H25.9833C27.1499 21.0333 28.0999 21.9833 28.0999 23.1667C28.1333 27.65 24.4833 31.3 19.9999 31.3ZM29.2166 14.6333C28.1333 15.7167 26.7166 16.25 25.2999 16.25C23.8833 16.25 22.4666 15.7167 21.3833 14.6333C20.8999 14.15 20.8999 13.35 21.3833 12.8667C21.8666 12.3833 22.6666 12.3833 23.1499 12.8667C24.3333 14.05 26.2666 14.05 27.4499 12.8667C27.9333 12.3833 28.7333 12.3833 29.2166 12.8667C29.6999 13.35 29.6999 14.1333 29.2166 14.6333Z" fill="#B30000"/>
</svg>
]]>
 <g id="Notes">
  <rect height="2200" id="artboard" style="fill:white;opacity:1" width="3300" x="0" y="0"/>
  <line id="" style="fill:none;stroke:black;opacity:1;stroke-width:0.5;" x1="263" x2="3036" y1="292" y2="292"/>
  <text id="reftext1" style="stroke:none;fill:black;font-family:-apple-system,&quot;SF Pro Display&quot;,&quot;SF Pro Text&quot;,Helvetica,sans-serif;font-weight:bold;" transform="matrix(1 0 0 1 263 322)">Weight/Scale Variations</text>
  <text id="reftext2" style="stroke:none;fill:black;font-family:-apple-system,&quot;SF Pro Display&quot;,&quot;SF Pro Text&quot;,Helvetica,sans-serif;text-anchor:middle;" transform="matrix(1 0 0 1 559.711 322)">Ultralight</text>
  <text style="stroke:none;fill:black;font-family:-apple-system,&quot;SF Pro Display&quot;,&quot;SF Pro Text&quot;,Helvetica,sans-serif;text-anchor:middle;" transform="matrix(1 0 0 1 856.422 322)">Thin</text>
  <text style="stroke:none;fill:black;font-family:-apple-system,&quot;SF Pro Display&quot;,&quot;SF Pro Text&quot;,Helvetica,sans-serif;text-anchor:middle;" transform="matrix(1 0 0 1 1153.13 322)">Light</text>
  <text style="stroke:none;fill:black;font-family:-apple-system,&quot;SF Pro Display&quot;,&quot;SF Pro Text&quot;,Helvetica,sans-serif;text-anchor:middle;" transform="matrix(1 0 0 1 1449.84 322)">Regular</text>
  <text style="stroke:none;fill:black;font-family:-apple-system,&quot;SF Pro Display&quot;,&quot;SF Pro Text&quot;,Helvetica,sans-serif;text-anchor:middle;" transform="matrix(1 0 0 1 1746.56 322)">Medium</text>
  <text style="stroke:none;fill:black;font-family:-apple-system,&quot;SF Pro Display&quot;,&quot;SF Pro Text&quot;,Helvetica,sans-serif;text-anchor:middle;" transform="matrix(1 0 0 1 2043.27 322)">Semibold</text>
  <text style="stroke:none;fill:black;font-family:-apple-system,&quot;SF Pro Display&quot;,&quot;SF Pro Text&quot;,Helvetica,sans-serif;text-anchor:middle;" transform="matrix(1 0 0 1 2339.98 322)">Bold</text>
  <text style="stroke:none;fill:black;font-family:-apple-system,&quot;SF Pro Display&quot;,&quot;SF Pro Text&quot;,Helvetica,sans-serif;text-anchor:middle;" transform="matrix(1 0 0 1 2636.69 322)">Heavy</text>
  <text style="stroke:none;fill:black;font-family:-apple-system,&quot;SF Pro Display&quot;,&quot;SF Pro Text&quot;,Helvetica,sans-serif;text-anchor:middle;" transform="matrix(1 0 0 1 2933.4 322)">Black</text>
  <line id="" style="fill:none;stroke:black;opacity:1;stroke-width:0.5;" x1="263" x2="3036" y1="1903" y2="1903"/>
  <g id="" transform="matrix(1 0 0 1 263 1933)">
   <path d="M9.24805 0.830078C13.5547 0.830078 17.1387-2.74414 17.1387-7.05078C17.1387-11.3574 13.5449-14.9316 9.23828-14.9316C4.94141-14.9316 1.36719-11.3574 1.36719-7.05078C1.36719-2.74414 4.95117 0.830078 9.24805 0.830078ZM9.24805-0.654297C5.70312-0.654297 2.87109-3.49609 2.87109-7.05078C2.87109-10.6055 5.69336-13.4473 9.23828-13.4473C12.793-13.4473 15.6348-10.6055 15.6445-7.05078C15.6543-3.49609 12.8027-0.654297 9.24805-0.654297ZM6.39648-6.31836L8.50586-6.31836L8.50586-4.19922C8.50586-3.75977 8.79883-3.45703 9.22852-3.45703C9.67773-3.45703 9.9707-3.75977 9.9707-4.19922L9.9707-6.31836L12.0996-6.31836C12.5391-6.31836 12.8418-6.61133 12.8418-7.04102C12.8418-7.48047 12.5391-7.7832 12.0996-7.7832L9.9707-7.7832L9.9707-9.89258C9.9707-10.3418 9.67773-10.6445 9.22852-10.6445C8.79883-10.6445 8.50586-10.3418 8.50586-9.89258L8.50586-7.7832L6.39648-7.7832C5.94727-7.7832 5.64453-7.48047 5.64453-7.04102C5.64453-6.61133 5.94727-6.31836 6.39648-6.31836Z"/>
  </g>
  <g id="" transform="matrix(1 0 0 1 281.506 1933)">
   <path d="M11.709 2.91016C17.1582 2.91016 21.6699-1.61133 21.6699-7.05078C21.6699-12.5 17.1484-17.0117 11.6992-17.0117C6.25977-17.0117 1.74805-12.5 1.74805-7.05078C1.74805-1.61133 6.26953 2.91016 11.709 2.91016ZM11.709 1.25C7.09961 1.25 3.41797-2.44141 3.41797-7.05078C3.41797-11.6602 7.08984-15.3516 11.6992-15.3516C16.3086-15.3516 20-11.6602 20.0098-7.05078C20.0195-2.44141 16.3184 1.25 11.709 1.25ZM7.98828-6.23047L10.8789-6.23047L10.8789-3.32031C10.8789-2.83203 11.2109-2.5 11.6895-2.5C12.1777-2.5 12.5195-2.83203 12.5195-3.32031L12.5195-6.23047L15.4297-6.23047C15.918-6.23047 16.25-6.5625 16.25-7.04102C16.25-7.5293 15.918-7.87109 15.4297-7.87109L12.5195-7.87109L12.5195-10.7617C12.5195-11.2695 12.1777-11.6016 11.6895-11.6016C11.2109-11.6016 10.8789-11.2598 10.8789-10.7617L10.8789-7.87109L7.98828-7.87109C7.48047-7.87109 7.14844-7.5293 7.14844-7.04102C7.14844-6.5625 7.49023-6.23047 7.98828-6.23047Z"/>
  </g>
  <g id="" transform="matrix(1 0 0 1 304.924 1933)">
   <path d="M14.9707 5.66406C21.9336 5.66406 27.6953-0.0976562 27.6953-7.05078C27.6953-14.0137 21.9238-19.7754 14.9609-19.7754C8.00781-19.7754 2.25586-14.0137 2.25586-7.05078C2.25586-0.0976562 8.01758 5.66406 14.9707 5.66406ZM14.9707 3.84766C8.93555 3.84766 4.08203-1.01562 4.08203-7.05078C4.08203-13.0957 8.92578-17.9492 14.9609-17.9492C21.0059-17.9492 25.8594-13.0957 25.8691-7.05078C25.8789-1.01562 21.0156 3.84766 14.9707 3.84766ZM10.0586-6.14258L14.0625-6.14258L14.0625-2.12891C14.0625-1.5918 14.4336-1.2207 14.9512-1.2207C15.4883-1.2207 15.8594-1.5918 15.8594-2.12891L15.8594-6.14258L19.8828-6.14258C20.4102-6.14258 20.791-6.51367 20.791-7.03125C20.791-7.56836 20.4199-7.94922 19.8828-7.94922L15.8594-7.94922L15.8594-11.9531C15.8594-12.5098 15.4883-12.8809 14.9512-12.8809C14.4336-12.8809 14.0625-12.5 14.0625-11.9531L14.0625-7.94922L10.0586-7.94922C9.50195-7.94922 9.13086-7.56836 9.13086-7.03125C9.13086-6.51367 9.51172-6.14258 10.0586-6.14258Z"/>
  </g>
  <text style="stroke:none;fill:black;font-family:-apple-system,&quot;SF Pro Display&quot;,&quot;SF Pro Text&quot;,Helvetica,sans-serif;font-weight:bold;" transform="matrix(1 0 0 1 263 1953)">Design Variations</text>
  <text style="stroke:none;fill:black;font-family:-apple-system,&quot;SF Pro Display&quot;,&quot;SF Pro Text&quot;,Helvetica,sans-serif;" transform="matrix(1 0 0 1 263 1971)">Symbols are supported in up to nine weights and three scales.</text>
  <text style="stroke:none;fill:black;font-family:-apple-system,&quot;SF Pro Display&quot;,&quot;SF Pro Text&quot;,Helvetica,sans-serif;" transform="matrix(1 0 0 1 263 1989)">For optimal layout with text and other symbols, vertically align</text>
  <text style="stroke:none;fill:black;font-family:-apple-system,&quot;SF Pro Display&quot;,&quot;SF Pro Text&quot;,Helvetica,sans-serif;" transform="matrix(1 0 0 1 263 2007)">symbols with the adjacent text.</text>
  <line id="" style="fill:none;stroke:#00AEEF;stroke-width:0.5;opacity:1.0;" x1="776" x2="776" y1="1919" y2="1933"/>
  <g id="" transform="matrix(1 0 0 1 776 1933)">
   <path d="M3.31055 0.126953C3.82812 0.126953 4.08203-0.0683594 4.26758-0.605469L5.52734-4.0625L11.2891-4.0625L12.5488-0.605469C12.7344-0.0683594 12.9883 0.126953 13.4961 0.126953C14.0137 0.126953 14.3457-0.185547 14.3457-0.673828C14.3457-0.839844 14.3164-0.986328 14.2383-1.20117L9.6582-13.3887C9.43359-13.9941 9.0332-14.2871 8.4082-14.2871C7.80273-14.2871 7.39258-13.9941 7.17773-13.3984L2.59766-1.19141C2.51953-0.976562 2.49023-0.830078 2.49023-0.664062C2.49023-0.175781 2.80273 0.126953 3.31055 0.126953ZM6.00586-5.53711L8.37891-12.1094L8.42773-12.1094L10.8008-5.53711Z"/>
  </g>
  <line id="" style="fill:none;stroke:#00AEEF;stroke-width:0.5;opacity:1.0;" x1="792.836" x2="792.836" y1="1919" y2="1933"/>
  <text style="stroke:none;fill:black;font-family:-apple-system,&quot;SF Pro Display&quot;,&quot;SF Pro Text&quot;,Helvetica,sans-serif;font-weight:bold;" transform="matrix(1 0 0 1 776 1953)">Margins</text>
  <text style="stroke:none;fill:black;font-family:-apple-system,&quot;SF Pro Display&quot;,&quot;SF Pro Text&quot;,Helvetica,sans-serif;" transform="matrix(1 0 0 1 776 1971)">Leading and trailing margins on the left and right side of each symbol</text>
  <text style="stroke:none;fill:black;font-family:-apple-system,&quot;SF Pro Display&quot;,&quot;SF Pro Text&quot;,Helvetica,sans-serif;" transform="matrix(1 0 0 1 776 1989)">can be adjusted by modifying the x-location of the margin guidelines.</text>
  <text style="stroke:none;fill:black;font-family:-apple-system,&quot;SF Pro Display&quot;,&quot;SF Pro Text&quot;,Helvetica,sans-serif;" transform="matrix(1 0 0 1 776 2007)">Modifications are automatically applied proportionally to all</text>
  <text style="stroke:none;fill:black;font-family:-apple-system,&quot;SF Pro Display&quot;,&quot;SF Pro Text&quot;,Helvetica,sans-serif;" transform="matrix(1 0 0 1 776 2025)">scales and weights.</text>
  <g id="" transform="matrix(1 0 0 1 1289 1933)">
   <path d="M2.8418 1.86523L4.54102 3.57422C5.40039 4.44336 6.38672 4.38477 7.31445 3.35938L17.4902-7.85156C17.7539-7.76367 18.0273-7.7832 18.3398-7.8418L19.4043-8.03711L20.0684-7.36328L20.0293-6.80664C19.9902-6.30859 20.1172-5.92773 20.6055-5.44922L21.3672-4.70703C21.8457-4.22852 22.4609-4.19922 22.9297-4.66797L25.8398-7.58789C26.3086-8.05664 26.2891-8.65234 25.8105-9.13086L25.0391-9.89258C24.5605-10.3711 24.1895-10.5273 23.7109-10.4883L23.1348-10.4395L22.4902-11.0742L22.7344-12.1973C22.8613-12.7637 22.7051-13.2031 22.1191-13.7891L19.9219-15.9766C16.582-19.2969 12.1484-19.2188 9.25781-16.3281C8.83789-15.918 8.80859-15.3418 9.04297-14.9512C9.27734-14.5898 9.73633-14.3555 10.3809-14.5215C11.8457-14.8633 13.3691-14.9219 14.7949-13.9844L14.209-12.5293C14.0137-12.0508 13.9844-11.6504 14.1113-11.2891L3.04688-0.898438C2.06055 0.0195312 1.98242 0.996094 2.8418 1.86523ZM10.752-15.957C13.1836-17.7344 16.4746-17.4316 18.7012-15.2051L21.1328-12.793C21.3672-12.5586 21.4062-12.373 21.3379-12.0312L21.0156-10.5469L22.5195-9.0625L23.5059-9.12109C23.7598-9.13086 23.8379-9.11133 24.0332-8.91602L24.6094-8.33984L22.168-5.89844L21.5918-6.47461C21.3965-6.66992 21.3672-6.74805 21.377-7.01172L21.4453-7.98828L19.9512-9.47266L18.4277-9.21875C18.1055-9.15039 17.959-9.17969 17.7148-9.41406L15.7129-11.416C15.459-11.6504 15.4297-11.8164 15.5859-12.1875L16.4648-14.2773C14.9023-15.7324 12.8711-16.3574 10.8398-15.7617C10.6836-15.7227 10.625-15.8496 10.752-15.957ZM5.27344 2.30469L4.10156 1.14258C3.63281 0.683594 3.74023 0.341797 4.14062-0.0195312L14.9512-10.1953L16.416-8.71094L6.42578 2.27539C6.07422 2.67578 5.74219 2.77344 5.27344 2.30469Z"/>
  </g>
  <text style="stroke:none;fill:black;font-family:-apple-system,&quot;SF Pro Display&quot;,&quot;SF Pro Text&quot;,Helvetica,sans-serif;font-weight:bold;" transform="matrix(1 0 0 1 1289 1953)">Exporting</text>
  <text style="stroke:none;fill:black;font-family:-apple-system,&quot;SF Pro Display&quot;,&quot;SF Pro Text&quot;,Helvetica,sans-serif;" transform="matrix(1 0 0 1 1289 1971)">Symbols should be outlined when exporting to ensure the</text>
  <text style="stroke:none;fill:black;font-family:-apple-system,&quot;SF Pro Display&quot;,&quot;SF Pro Text&quot;,Helvetica,sans-serif;" transform="matrix(1 0 0 1 1289 1989)">design is preserved when submitting to Xcode.</text>
  <text id="template-version" style="stroke:none;fill:black;font-family:-apple-system,&quot;SF Pro Display&quot;,&quot;SF Pro Text&quot;,Helvetica,sans-serif;text-anchor:end;" transform="matrix(1 0 0 1 3036 1933)">Template v.2.0</text>
  <text style="stroke:none;fill:black;font-family:-apple-system,&quot;SF Pro Display&quot;,&quot;SF Pro Text&quot;,Helvetica,sans-serif;text-anchor:end;" transform="matrix(1 0 0 1 3036 1951)">Requires Xcode 12 or greater</text>
  <text style="stroke:none;fill:black;font-family:-apple-system,&quot;SF Pro Display&quot;,&quot;SF Pro Text&quot;,Helvetica,sans-serif;" transform="matrix(1 0 0 1 263 726)">Small</text>
  <text style="stroke:none;fill:black;font-family:-apple-system,&quot;SF Pro Display&quot;,&quot;SF Pro Text&quot;,Helvetica,sans-serif;" transform="matrix(1 0 0 1 263 1156)">Medium</text>
  <text style="stroke:none;fill:black;font-family:-apple-system,&quot;SF Pro Display&quot;,&quot;SF Pro Text&quot;,Helvetica,sans-serif;" transform="matrix(1 0 0 1 263 1586)">Large</text>
 </g>
 <g id="Guides">
  <g id="H-reference" style="fill:#27AAE1;stroke:none;" transform="matrix(1 0 0 1 339 696)">
   <path d="M0.976562 0L3.66211 0L12.9883-24.4629L45.752-24.4629L55.127 0L57.7637 0L30.6152-70.459L28.125-70.459ZM29.3457-67.1387L29.4434-67.1387L44.873-26.709L13.8672-26.709Z"/>
  </g>
  <line id="Baseline-S" style="fill:none;stroke:#27AAE1;opacity:1;stroke-width:0.5;" x1="263" x2="3036" y1="696" y2="696"/>
  <line id="Capline-S" style="fill:none;stroke:#27AAE1;opacity:1;stroke-width:0.5;" x1="263" x2="3036" y1="625.541" y2="625.541"/>
  <g id="H-reference" style="fill:#27AAE1;stroke:none;" transform="matrix(1 0 0 1 339 1126)">
   <path d="M0.976562 0L3.66211 0L12.9883-24.4629L45.752-24.4629L55.127 0L57.7637 0L30.6152-70.459L28.125-70.459ZM29.3457-67.1387L29.4434-67.1387L44.873-26.709L13.8672-26.709Z"/>
  </g>
  <line id="Baseline-M" style="fill:none;stroke:#27AAE1;opacity:1;stroke-width:0.5;" x1="263" x2="3036" y1="1126" y2="1126"/>
  <line id="Capline-M" style="fill:none;stroke:#27AAE1;opacity:1;stroke-width:0.5;" x1="263" x2="3036" y1="1055.54" y2="1055.54"/>
  <g id="H-reference" style="fill:#27AAE1;stroke:none;" transform="matrix(1 0 0 1 339 1556)">
   <path d="M0.976562 0L3.66211 0L12.9883-24.4629L45.752-24.4629L55.127 0L57.7637 0L30.6152-70.459L28.125-70.459ZM29.3457-67.1387L29.4434-67.1387L44.873-26.709L13.8672-26.709Z"/>
  </g>
  <line id="Baseline-L" style="fill:none;stroke:#27AAE1;opacity:1;stroke-width:0.5;" x1="263" x2="3036" y1="1556" y2="1556"/>
  <line id="Capline-L" style="fill:none;stroke:#27AAE1;opacity:1;stroke-width:0.5;" x1="263" x2="3036" y1="1485.54" y2="1485.54"/>
  <line id="left-margin" x1="1415.9000195312499" x2="1415.9000195312499" y1="1030.79" y2="1150.12" style="fill:none;stroke:#00AEEF;stroke-width:0.5;opacity:1.0;"/>
  <line id="right-margin" x1="1486.3599804687499" x2="1486.3599804687499" y1="1030.79" y2="1150.12" style="fill:none;stroke:#00AEEF;stroke-width:0.5;opacity:1.0;"/>
 </g>
 <g id="Symbols">
  <g id="Black-L" transform="matrix(1.0,0.0,0.0,1.0,2889.2333251953123,1475.3233447265625)">  <path fill-opacity="1" stroke-opacity="1" stroke-miterlimit="4" stroke-linejoin="miter" fill-rule="nonzero" stroke-width="1px" stroke="none" fill="#000000" stroke-dasharray="none" stroke-linecap="butt" d="M61.315,7.574L29.578,7.574C15.793,7.574,7.574,15.793,7.574,29.578L7.574,61.277C7.574,75.101,15.793,83.319,29.578,83.319L61.277,83.319C75.063,83.319,83.281,75.101,83.281,61.315L83.281,29.578C83.319,15.793,75.1,7.574,61.315,7.574ZM24.503,29.237C25.601,28.139,27.419,28.139,28.518,29.237C31.207,31.926,35.6,31.926,38.289,29.237C39.387,28.139,41.205,28.139,42.303,29.237C43.401,30.336,43.401,32.154,42.303,33.252C39.842,35.714,36.622,36.925,33.403,36.925C30.184,36.925,26.965,35.714,24.503,33.252C23.405,32.116,23.405,30.336,24.503,29.237ZM45.446,71.124C35.259,71.124,26.965,62.83,26.965,52.642C26.965,49.991,29.124,47.795,31.775,47.795L59.043,47.795C61.694,47.795,63.852,49.953,63.852,52.642C63.928,62.83,55.634,71.124,45.446,71.124ZM66.39,33.252C63.928,35.714,60.709,36.925,57.49,36.925C54.271,36.925,51.052,35.714,48.59,33.252C47.492,32.154,47.492,30.336,48.59,29.237C49.688,28.139,51.506,28.139,52.604,29.237C55.293,31.926,59.686,31.926,62.375,29.237C63.474,28.139,65.292,28.139,66.39,29.237C67.488,30.336,67.488,32.116,66.39,33.252ZM66.39,33.252"/>
</g>
  <g id="Heavy-L" transform="matrix(1.0,0.0,0.0,1.0,2592.5233251953123,1475.3233447265625)">  <path fill-rule="nonzero" stroke-dasharray="none" stroke-linejoin="miter" stroke-width="1px" fill-opacity="1" stroke="none" fill="#000000" stroke-opacity="1" stroke-miterlimit="4" stroke-linecap="butt" d="M61.315,7.574L29.578,7.574C15.793,7.574,7.574,15.793,7.574,29.578L7.574,61.277C7.574,75.101,15.793,83.319,29.578,83.319L61.277,83.319C75.063,83.319,83.281,75.101,83.281,61.315L83.281,29.578C83.319,15.793,75.1,7.574,61.315,7.574ZM24.503,29.237C25.601,28.139,27.419,28.139,28.518,29.237C31.207,31.926,35.6,31.926,38.289,29.237C39.387,28.139,41.205,28.139,42.303,29.237C43.401,30.336,43.401,32.154,42.303,33.252C39.842,35.714,36.622,36.925,33.403,36.925C30.184,36.925,26.965,35.714,24.503,33.252C23.405,32.116,23.405,30.336,24.503,29.237ZM45.446,71.124C35.259,71.124,26.965,62.83,26.965,52.642C26.965,49.991,29.124,47.795,31.775,47.795L59.043,47.795C61.694,47.795,63.852,49.953,63.852,52.642C63.928,62.83,55.634,71.124,45.446,71.124ZM66.39,33.252C63.928,35.714,60.709,36.925,57.49,36.925C54.271,36.925,51.052,35.714,48.59,33.252C47.492,32.154,47.492,30.336,48.59,29.237C49.688,28.139,51.506,28.139,52.604,29.237C55.293,31.926,59.686,31.926,62.375,29.237C63.474,28.139,65.292,28.139,66.39,29.237C67.488,30.336,67.488,32.116,66.39,33.252ZM66.39,33.252"/>
</g>
  <g id="Bold-L" transform="matrix(1.0,0.0,0.0,1.0,2295.8133251953122,1475.3233447265625)">  <path stroke-width="1px" stroke="none" stroke-dasharray="none" stroke-linecap="butt" stroke-linejoin="miter" fill-rule="nonzero" stroke-miterlimit="4" fill="#000000" stroke-opacity="1" fill-opacity="1" d="M61.315,7.574L29.578,7.574C15.793,7.574,7.574,15.793,7.574,29.578L7.574,61.277C7.574,75.101,15.793,83.319,29.578,83.319L61.277,83.319C75.063,83.319,83.281,75.101,83.281,61.315L83.281,29.578C83.319,15.793,75.1,7.574,61.315,7.574ZM24.503,29.237C25.601,28.139,27.419,28.139,28.518,29.237C31.207,31.926,35.6,31.926,38.289,29.237C39.387,28.139,41.205,28.139,42.303,29.237C43.401,30.336,43.401,32.154,42.303,33.252C39.842,35.714,36.622,36.925,33.403,36.925C30.184,36.925,26.965,35.714,24.503,33.252C23.405,32.116,23.405,30.336,24.503,29.237ZM45.446,71.124C35.259,71.124,26.965,62.83,26.965,52.642C26.965,49.991,29.124,47.795,31.775,47.795L59.043,47.795C61.694,47.795,63.852,49.953,63.852,52.642C63.928,62.83,55.634,71.124,45.446,71.124ZM66.39,33.252C63.928,35.714,60.709,36.925,57.49,36.925C54.271,36.925,51.052,35.714,48.59,33.252C47.492,32.154,47.492,30.336,48.59,29.237C49.688,28.139,51.506,28.139,52.604,29.237C55.293,31.926,59.686,31.926,62.375,29.237C63.474,28.139,65.292,28.139,66.39,29.237C67.488,30.336,67.488,32.116,66.39,33.252ZM66.39,33.252"/>
</g>
  <g id="Semibold-L" transform="matrix(1.0,0.0,0.0,1.0,1999.1033251953124,1475.3233447265625)">  <path fill-rule="nonzero" stroke-dasharray="none" stroke-linejoin="miter" stroke="none" fill-opacity="1" stroke-opacity="1" fill="#000000" stroke-miterlimit="4" stroke-width="1px" stroke-linecap="butt" d="M61.315,7.574L29.578,7.574C15.793,7.574,7.574,15.793,7.574,29.578L7.574,61.277C7.574,75.101,15.793,83.319,29.578,83.319L61.277,83.319C75.063,83.319,83.281,75.101,83.281,61.315L83.281,29.578C83.319,15.793,75.1,7.574,61.315,7.574ZM24.503,29.237C25.601,28.139,27.419,28.139,28.518,29.237C31.207,31.926,35.6,31.926,38.289,29.237C39.387,28.139,41.205,28.139,42.303,29.237C43.401,30.336,43.401,32.154,42.303,33.252C39.842,35.714,36.622,36.925,33.403,36.925C30.184,36.925,26.965,35.714,24.503,33.252C23.405,32.116,23.405,30.336,24.503,29.237ZM45.446,71.124C35.259,71.124,26.965,62.83,26.965,52.642C26.965,49.991,29.124,47.795,31.775,47.795L59.043,47.795C61.694,47.795,63.852,49.953,63.852,52.642C63.928,62.83,55.634,71.124,45.446,71.124ZM66.39,33.252C63.928,35.714,60.709,36.925,57.49,36.925C54.271,36.925,51.052,35.714,48.59,33.252C47.492,32.154,47.492,30.336,48.59,29.237C49.688,28.139,51.506,28.139,52.604,29.237C55.293,31.926,59.686,31.926,62.375,29.237C63.474,28.139,65.292,28.139,66.39,29.237C67.488,30.336,67.488,32.116,66.39,33.252ZM66.39,33.252"/>
</g>
  <g id="Medium-L" transform="matrix(1.0,0.0,0.0,1.0,1702.3933251953124,1475.3233447265625)">  <path stroke-opacity="1" stroke-linecap="butt" stroke="none" fill-opacity="1" stroke-dasharray="none" stroke-miterlimit="4" fill-rule="nonzero" stroke-width="1px" fill="#000000" stroke-linejoin="miter" d="M61.315,7.574L29.578,7.574C15.793,7.574,7.574,15.793,7.574,29.578L7.574,61.277C7.574,75.101,15.793,83.319,29.578,83.319L61.277,83.319C75.063,83.319,83.281,75.101,83.281,61.315L83.281,29.578C83.319,15.793,75.1,7.574,61.315,7.574ZM24.503,29.237C25.601,28.139,27.419,28.139,28.518,29.237C31.207,31.926,35.6,31.926,38.289,29.237C39.387,28.139,41.205,28.139,42.303,29.237C43.401,30.336,43.401,32.154,42.303,33.252C39.842,35.714,36.622,36.925,33.403,36.925C30.184,36.925,26.965,35.714,24.503,33.252C23.405,32.116,23.405,30.336,24.503,29.237ZM45.446,71.124C35.259,71.124,26.965,62.83,26.965,52.642C26.965,49.991,29.124,47.795,31.775,47.795L59.043,47.795C61.694,47.795,63.852,49.953,63.852,52.642C63.928,62.83,55.634,71.124,45.446,71.124ZM66.39,33.252C63.928,35.714,60.709,36.925,57.49,36.925C54.271,36.925,51.052,35.714,48.59,33.252C47.492,32.154,47.492,30.336,48.59,29.237C49.688,28.139,51.506,28.139,52.604,29.237C55.293,31.926,59.686,31.926,62.375,29.237C63.474,28.139,65.292,28.139,66.39,29.237C67.488,30.336,67.488,32.116,66.39,33.252ZM66.39,33.252"/>
</g>
  <g id="Regular-L" transform="matrix(1.0,0.0,0.0,1.0,1405.6833251953124,1475.3233447265625)">  <path stroke="none" stroke-opacity="1" stroke-dasharray="none" fill-opacity="1" stroke-width="1px" fill="#000000" fill-rule="nonzero" stroke-linejoin="miter" stroke-miterlimit="4" stroke-linecap="butt" d="M61.315,7.574L29.578,7.574C15.793,7.574,7.574,15.793,7.574,29.578L7.574,61.277C7.574,75.101,15.793,83.319,29.578,83.319L61.277,83.319C75.063,83.319,83.281,75.101,83.281,61.315L83.281,29.578C83.319,15.793,75.1,7.574,61.315,7.574ZM24.503,29.237C25.601,28.139,27.419,28.139,28.518,29.237C31.207,31.926,35.6,31.926,38.289,29.237C39.387,28.139,41.205,28.139,42.303,29.237C43.401,30.336,43.401,32.154,42.303,33.252C39.842,35.714,36.622,36.925,33.403,36.925C30.184,36.925,26.965,35.714,24.503,33.252C23.405,32.116,23.405,30.336,24.503,29.237ZM45.446,71.124C35.259,71.124,26.965,62.83,26.965,52.642C26.965,49.991,29.124,47.795,31.775,47.795L59.043,47.795C61.694,47.795,63.852,49.953,63.852,52.642C63.928,62.83,55.634,71.124,45.446,71.124ZM66.39,33.252C63.928,35.714,60.709,36.925,57.49,36.925C54.271,36.925,51.052,35.714,48.59,33.252C47.492,32.154,47.492,30.336,48.59,29.237C49.688,28.139,51.506,28.139,52.604,29.237C55.293,31.926,59.686,31.926,62.375,29.237C63.474,28.139,65.292,28.139,66.39,29.237C67.488,30.336,67.488,32.116,66.39,33.252ZM66.39,33.252"/>
</g>
  <g id="Light-L" transform="matrix(1.0,0.0,0.0,1.0,1108.9733251953126,1475.3233447265625)">  <path stroke-width="1px" stroke-dasharray="none" stroke-linecap="butt" fill="#000000" stroke-linejoin="miter" fill-opacity="1" stroke-miterlimit="4" fill-rule="nonzero" stroke-opacity="1" stroke="none" d="M61.315,7.574L29.578,7.574C15.793,7.574,7.574,15.793,7.574,29.578L7.574,61.277C7.574,75.101,15.793,83.319,29.578,83.319L61.277,83.319C75.063,83.319,83.281,75.101,83.281,61.315L83.281,29.578C83.319,15.793,75.1,7.574,61.315,7.574ZM24.503,29.237C25.601,28.139,27.419,28.139,28.518,29.237C31.207,31.926,35.6,31.926,38.289,29.237C39.387,28.139,41.205,28.139,42.303,29.237C43.401,30.336,43.401,32.154,42.303,33.252C39.842,35.714,36.622,36.925,33.403,36.925C30.184,36.925,26.965,35.714,24.503,33.252C23.405,32.116,23.405,30.336,24.503,29.237ZM45.446,71.124C35.259,71.124,26.965,62.83,26.965,52.642C26.965,49.991,29.124,47.795,31.775,47.795L59.043,47.795C61.694,47.795,63.852,49.953,63.852,52.642C63.928,62.83,55.634,71.124,45.446,71.124ZM66.39,33.252C63.928,35.714,60.709,36.925,57.49,36.925C54.271,36.925,51.052,35.714,48.59,33.252C47.492,32.154,47.492,30.336,48.59,29.237C49.688,28.139,51.506,28.139,52.604,29.237C55.293,31.926,59.686,31.926,62.375,29.237C63.474,28.139,65.292,28.139,66.39,29.237C67.488,30.336,67.488,32.116,66.39,33.252ZM66.39,33.252"/>
</g>
  <g id="Thin-L" transform="matrix(1.0,0.0,0.0,1.0,812.2633251953125,1475.3233447265625)">  <path stroke-miterlimit="4" stroke-dasharray="none" stroke-opacity="1" stroke-linecap="butt" fill-opacity="1" fill="#000000" stroke-width="1px" fill-rule="nonzero" stroke-linejoin="miter" stroke="none" d="M61.315,7.574L29.578,7.574C15.793,7.574,7.574,15.793,7.574,29.578L7.574,61.277C7.574,75.101,15.793,83.319,29.578,83.319L61.277,83.319C75.063,83.319,83.281,75.101,83.281,61.315L83.281,29.578C83.319,15.793,75.1,7.574,61.315,7.574ZM24.503,29.237C25.601,28.139,27.419,28.139,28.518,29.237C31.207,31.926,35.6,31.926,38.289,29.237C39.387,28.139,41.205,28.139,42.303,29.237C43.401,30.336,43.401,32.154,42.303,33.252C39.842,35.714,36.622,36.925,33.403,36.925C30.184,36.925,26.965,35.714,24.503,33.252C23.405,32.116,23.405,30.336,24.503,29.237ZM45.446,71.124C35.259,71.124,26.965,62.83,26.965,52.642C26.965,49.991,29.124,47.795,31.775,47.795L59.043,47.795C61.694,47.795,63.852,49.953,63.852,52.642C63.928,62.83,55.634,71.124,45.446,71.124ZM66.39,33.252C63.928,35.714,60.709,36.925,57.49,36.925C54.271,36.925,51.052,35.714,48.59,33.252C47.492,32.154,47.492,30.336,48.59,29.237C49.688,28.139,51.506,28.139,52.604,29.237C55.293,31.926,59.686,31.926,62.375,29.237C63.474,28.139,65.292,28.139,66.39,29.237C67.488,30.336,67.488,32.116,66.39,33.252ZM66.39,33.252"/>
</g>
  <g id="Ultralight-L" transform="matrix(1.0,0.0,0.0,1.0,515.5533251953125,1475.3233447265625)">  <path stroke-miterlimit="4" fill-rule="nonzero" stroke-width="1px" stroke="none" stroke-linejoin="miter" stroke-opacity="1" stroke-linecap="butt" fill-opacity="1" stroke-dasharray="none" fill="#000000" d="M61.315,7.574L29.578,7.574C15.793,7.574,7.574,15.793,7.574,29.578L7.574,61.277C7.574,75.101,15.793,83.319,29.578,83.319L61.277,83.319C75.063,83.319,83.281,75.101,83.281,61.315L83.281,29.578C83.319,15.793,75.1,7.574,61.315,7.574ZM24.503,29.237C25.601,28.139,27.419,28.139,28.518,29.237C31.207,31.926,35.6,31.926,38.289,29.237C39.387,28.139,41.205,28.139,42.303,29.237C43.401,30.336,43.401,32.154,42.303,33.252C39.842,35.714,36.622,36.925,33.403,36.925C30.184,36.925,26.965,35.714,24.503,33.252C23.405,32.116,23.405,30.336,24.503,29.237ZM45.446,71.124C35.259,71.124,26.965,62.83,26.965,52.642C26.965,49.991,29.124,47.795,31.775,47.795L59.043,47.795C61.694,47.795,63.852,49.953,63.852,52.642C63.928,62.83,55.634,71.124,45.446,71.124ZM66.39,33.252C63.928,35.714,60.709,36.925,57.49,36.925C54.271,36.925,51.052,35.714,48.59,33.252C47.492,32.154,47.492,30.336,48.59,29.237C49.688,28.139,51.506,28.139,52.604,29.237C55.293,31.926,59.686,31.926,62.375,29.237C63.474,28.139,65.292,28.139,66.39,29.237C67.488,30.336,67.488,32.116,66.39,33.252ZM66.39,33.252"/>
</g>
  <g id="Black-M" transform="matrix(1.0,0.0,0.0,1.0,2899.45001953125,1055.5400390625)">  <path fill-opacity="1" stroke-opacity="1" stroke-miterlimit="4" stroke-linejoin="miter" fill-rule="nonzero" stroke-width="1px" stroke="none" fill="#000000" stroke-dasharray="none" stroke-linecap="butt" d="M47.531,5.872L22.929,5.872C12.242,5.872,5.872,12.242,5.872,22.929L5.872,47.502C5.872,58.218,12.242,64.588,22.929,64.588L47.502,64.588C58.188,64.588,64.559,58.218,64.559,47.531L64.559,22.929C64.588,12.242,58.217,5.872,47.531,5.872ZM18.995,22.665C19.846,21.813,21.255,21.813,22.107,22.665C24.191,24.749,27.597,24.749,29.681,22.665C30.533,21.813,31.942,21.813,32.793,22.665C33.644,23.516,33.644,24.925,32.793,25.777C30.885,27.685,28.389,28.624,25.894,28.624C23.399,28.624,20.903,27.685,18.995,25.777C18.143,24.896,18.143,23.516,18.995,22.665ZM35.23,55.135C27.332,55.135,20.903,48.705,20.903,40.808C20.903,38.753,22.576,37.05,24.632,37.05L45.77,37.05C47.825,37.05,49.498,38.724,49.498,40.808C49.557,48.705,43.127,55.135,35.23,55.135ZM51.465,25.777C49.557,27.685,47.061,28.624,44.566,28.624C42.07,28.624,39.575,27.685,37.667,25.777C36.815,24.925,36.815,23.516,37.667,22.665C38.518,21.813,39.927,21.813,40.779,22.665C42.863,24.749,46.269,24.749,48.353,22.665C49.204,21.813,50.614,21.813,51.465,22.665C52.316,23.516,52.316,24.896,51.465,25.777ZM51.465,25.777"/>
</g>
  <g id="Heavy-M" transform="matrix(1.0,0.0,0.0,1.0,2602.74001953125,1055.5400390625)">  <path fill-rule="nonzero" stroke-dasharray="none" stroke-linejoin="miter" stroke-width="1px" fill-opacity="1" stroke="none" fill="#000000" stroke-opacity="1" stroke-miterlimit="4" stroke-linecap="butt" d="M47.531,5.872L22.929,5.872C12.242,5.872,5.872,12.242,5.872,22.929L5.872,47.502C5.872,58.218,12.242,64.588,22.929,64.588L47.502,64.588C58.188,64.588,64.559,58.218,64.559,47.531L64.559,22.929C64.588,12.242,58.217,5.872,47.531,5.872ZM18.995,22.665C19.846,21.813,21.255,21.813,22.107,22.665C24.191,24.749,27.597,24.749,29.681,22.665C30.533,21.813,31.942,21.813,32.793,22.665C33.644,23.516,33.644,24.925,32.793,25.777C30.885,27.685,28.389,28.624,25.894,28.624C23.399,28.624,20.903,27.685,18.995,25.777C18.143,24.896,18.143,23.516,18.995,22.665ZM35.23,55.135C27.332,55.135,20.903,48.705,20.903,40.808C20.903,38.753,22.576,37.05,24.632,37.05L45.77,37.05C47.825,37.05,49.498,38.724,49.498,40.808C49.557,48.705,43.127,55.135,35.23,55.135ZM51.465,25.777C49.557,27.685,47.061,28.624,44.566,28.624C42.07,28.624,39.575,27.685,37.667,25.777C36.815,24.925,36.815,23.516,37.667,22.665C38.518,21.813,39.927,21.813,40.779,22.665C42.863,24.749,46.269,24.749,48.353,22.665C49.204,21.813,50.614,21.813,51.465,22.665C52.316,23.516,52.316,24.896,51.465,25.777ZM51.465,25.777"/>
</g>
  <g id="Bold-M" transform="matrix(1.0,0.0,0.0,1.0,2306.0300195312498,1055.5400390625)">  <path stroke-width="1px" stroke="none" stroke-dasharray="none" stroke-linecap="butt" stroke-linejoin="miter" fill-rule="nonzero" stroke-miterlimit="4" fill="#000000" stroke-opacity="1" fill-opacity="1" d="M47.531,5.872L22.929,5.872C12.242,5.872,5.872,12.242,5.872,22.929L5.872,47.502C5.872,58.218,12.242,64.588,22.929,64.588L47.502,64.588C58.188,64.588,64.559,58.218,64.559,47.531L64.559,22.929C64.588,12.242,58.217,5.872,47.531,5.872ZM18.995,22.665C19.846,21.813,21.255,21.813,22.107,22.665C24.191,24.749,27.597,24.749,29.681,22.665C30.533,21.813,31.942,21.813,32.793,22.665C33.644,23.516,33.644,24.925,32.793,25.777C30.885,27.685,28.389,28.624,25.894,28.624C23.399,28.624,20.903,27.685,18.995,25.777C18.143,24.896,18.143,23.516,18.995,22.665ZM35.23,55.135C27.332,55.135,20.903,48.705,20.903,40.808C20.903,38.753,22.576,37.05,24.632,37.05L45.77,37.05C47.825,37.05,49.498,38.724,49.498,40.808C49.557,48.705,43.127,55.135,35.23,55.135ZM51.465,25.777C49.557,27.685,47.061,28.624,44.566,28.624C42.07,28.624,39.575,27.685,37.667,25.777C36.815,24.925,36.815,23.516,37.667,22.665C38.518,21.813,39.927,21.813,40.779,22.665C42.863,24.749,46.269,24.749,48.353,22.665C49.204,21.813,50.614,21.813,51.465,22.665C52.316,23.516,52.316,24.896,51.465,25.777ZM51.465,25.777"/>
</g>
  <g id="Semibold-M" transform="matrix(1.0,0.0,0.0,1.0,2009.32001953125,1055.5400390625)">  <path fill-rule="nonzero" stroke-dasharray="none" stroke-linejoin="miter" stroke="none" fill-opacity="1" stroke-opacity="1" fill="#000000" stroke-miterlimit="4" stroke-width="1px" stroke-linecap="butt" d="M47.531,5.872L22.929,5.872C12.242,5.872,5.872,12.242,5.872,22.929L5.872,47.502C5.872,58.218,12.242,64.588,22.929,64.588L47.502,64.588C58.188,64.588,64.559,58.218,64.559,47.531L64.559,22.929C64.588,12.242,58.217,5.872,47.531,5.872ZM18.995,22.665C19.846,21.813,21.255,21.813,22.107,22.665C24.191,24.749,27.597,24.749,29.681,22.665C30.533,21.813,31.942,21.813,32.793,22.665C33.644,23.516,33.644,24.925,32.793,25.777C30.885,27.685,28.389,28.624,25.894,28.624C23.399,28.624,20.903,27.685,18.995,25.777C18.143,24.896,18.143,23.516,18.995,22.665ZM35.23,55.135C27.332,55.135,20.903,48.705,20.903,40.808C20.903,38.753,22.576,37.05,24.632,37.05L45.77,37.05C47.825,37.05,49.498,38.724,49.498,40.808C49.557,48.705,43.127,55.135,35.23,55.135ZM51.465,25.777C49.557,27.685,47.061,28.624,44.566,28.624C42.07,28.624,39.575,27.685,37.667,25.777C36.815,24.925,36.815,23.516,37.667,22.665C38.518,21.813,39.927,21.813,40.779,22.665C42.863,24.749,46.269,24.749,48.353,22.665C49.204,21.813,50.614,21.813,51.465,22.665C52.316,23.516,52.316,24.896,51.465,25.777ZM51.465,25.777"/>
</g>
  <g id="Medium-M" transform="matrix(1.0,0.0,0.0,1.0,1712.61001953125,1055.5400390625)">  <path stroke-opacity="1" stroke-linecap="butt" stroke="none" fill-opacity="1" stroke-dasharray="none" stroke-miterlimit="4" fill-rule="nonzero" stroke-width="1px" fill="#000000" stroke-linejoin="miter" d="M47.531,5.872L22.929,5.872C12.242,5.872,5.872,12.242,5.872,22.929L5.872,47.502C5.872,58.218,12.242,64.588,22.929,64.588L47.502,64.588C58.188,64.588,64.559,58.218,64.559,47.531L64.559,22.929C64.588,12.242,58.217,5.872,47.531,5.872ZM18.995,22.665C19.846,21.813,21.255,21.813,22.107,22.665C24.191,24.749,27.597,24.749,29.681,22.665C30.533,21.813,31.942,21.813,32.793,22.665C33.644,23.516,33.644,24.925,32.793,25.777C30.885,27.685,28.389,28.624,25.894,28.624C23.399,28.624,20.903,27.685,18.995,25.777C18.143,24.896,18.143,23.516,18.995,22.665ZM35.23,55.135C27.332,55.135,20.903,48.705,20.903,40.808C20.903,38.753,22.576,37.05,24.632,37.05L45.77,37.05C47.825,37.05,49.498,38.724,49.498,40.808C49.557,48.705,43.127,55.135,35.23,55.135ZM51.465,25.777C49.557,27.685,47.061,28.624,44.566,28.624C42.07,28.624,39.575,27.685,37.667,25.777C36.815,24.925,36.815,23.516,37.667,22.665C38.518,21.813,39.927,21.813,40.779,22.665C42.863,24.749,46.269,24.749,48.353,22.665C49.204,21.813,50.614,21.813,51.465,22.665C52.316,23.516,52.316,24.896,51.465,25.777ZM51.465,25.777"/>
</g>
  <g id="Regular-M" transform="matrix(1.0,0.0,0.0,1.0,1415.9000195312499,1055.5400390625)">  <path stroke="none" stroke-opacity="1" stroke-dasharray="none" fill-opacity="1" stroke-width="1px" fill="#000000" fill-rule="nonzero" stroke-linejoin="miter" stroke-miterlimit="4" stroke-linecap="butt" d="M47.531,5.872L22.929,5.872C12.242,5.872,5.872,12.242,5.872,22.929L5.872,47.502C5.872,58.218,12.242,64.588,22.929,64.588L47.502,64.588C58.188,64.588,64.559,58.218,64.559,47.531L64.559,22.929C64.588,12.242,58.217,5.872,47.531,5.872ZM18.995,22.665C19.846,21.813,21.255,21.813,22.107,22.665C24.191,24.749,27.597,24.749,29.681,22.665C30.533,21.813,31.942,21.813,32.793,22.665C33.644,23.516,33.644,24.925,32.793,25.777C30.885,27.685,28.389,28.624,25.894,28.624C23.399,28.624,20.903,27.685,18.995,25.777C18.143,24.896,18.143,23.516,18.995,22.665ZM35.23,55.135C27.332,55.135,20.903,48.705,20.903,40.808C20.903,38.753,22.576,37.05,24.632,37.05L45.77,37.05C47.825,37.05,49.498,38.724,49.498,40.808C49.557,48.705,43.127,55.135,35.23,55.135ZM51.465,25.777C49.557,27.685,47.061,28.624,44.566,28.624C42.07,28.624,39.575,27.685,37.667,25.777C36.815,24.925,36.815,23.516,37.667,22.665C38.518,21.813,39.927,21.813,40.779,22.665C42.863,24.749,46.269,24.749,48.353,22.665C49.204,21.813,50.614,21.813,51.465,22.665C52.316,23.516,52.316,24.896,51.465,25.777ZM51.465,25.777"/>
</g>
  <g id="Light-M" transform="matrix(1.0,0.0,0.0,1.0,1119.19001953125,1055.5400390625)">  <path stroke-width="1px" stroke-dasharray="none" stroke-linecap="butt" fill="#000000" stroke-linejoin="miter" fill-opacity="1" stroke-miterlimit="4" fill-rule="nonzero" stroke-opacity="1" stroke="none" d="M47.531,5.872L22.929,5.872C12.242,5.872,5.872,12.242,5.872,22.929L5.872,47.502C5.872,58.218,12.242,64.588,22.929,64.588L47.502,64.588C58.188,64.588,64.559,58.218,64.559,47.531L64.559,22.929C64.588,12.242,58.217,5.872,47.531,5.872ZM18.995,22.665C19.846,21.813,21.255,21.813,22.107,22.665C24.191,24.749,27.597,24.749,29.681,22.665C30.533,21.813,31.942,21.813,32.793,22.665C33.644,23.516,33.644,24.925,32.793,25.777C30.885,27.685,28.389,28.624,25.894,28.624C23.399,28.624,20.903,27.685,18.995,25.777C18.143,24.896,18.143,23.516,18.995,22.665ZM35.23,55.135C27.332,55.135,20.903,48.705,20.903,40.808C20.903,38.753,22.576,37.05,24.632,37.05L45.77,37.05C47.825,37.05,49.498,38.724,49.498,40.808C49.557,48.705,43.127,55.135,35.23,55.135ZM51.465,25.777C49.557,27.685,47.061,28.624,44.566,28.624C42.07,28.624,39.575,27.685,37.667,25.777C36.815,24.925,36.815,23.516,37.667,22.665C38.518,21.813,39.927,21.813,40.779,22.665C42.863,24.749,46.269,24.749,48.353,22.665C49.204,21.813,50.614,21.813,51.465,22.665C52.316,23.516,52.316,24.896,51.465,25.777ZM51.465,25.777"/>
</g>
  <g id="Thin-M" transform="matrix(1.0,0.0,0.0,1.0,822.48001953125,1055.5400390625)">  <path stroke-miterlimit="4" stroke-dasharray="none" stroke-opacity="1" stroke-linecap="butt" fill-opacity="1" fill="#000000" stroke-width="1px" fill-rule="nonzero" stroke-linejoin="miter" stroke="none" d="M47.531,5.872L22.929,5.872C12.242,5.872,5.872,12.242,5.872,22.929L5.872,47.502C5.872,58.218,12.242,64.588,22.929,64.588L47.502,64.588C58.188,64.588,64.559,58.218,64.559,47.531L64.559,22.929C64.588,12.242,58.217,5.872,47.531,5.872ZM18.995,22.665C19.846,21.813,21.255,21.813,22.107,22.665C24.191,24.749,27.597,24.749,29.681,22.665C30.533,21.813,31.942,21.813,32.793,22.665C33.644,23.516,33.644,24.925,32.793,25.777C30.885,27.685,28.389,28.624,25.894,28.624C23.399,28.624,20.903,27.685,18.995,25.777C18.143,24.896,18.143,23.516,18.995,22.665ZM35.23,55.135C27.332,55.135,20.903,48.705,20.903,40.808C20.903,38.753,22.576,37.05,24.632,37.05L45.77,37.05C47.825,37.05,49.498,38.724,49.498,40.808C49.557,48.705,43.127,55.135,35.23,55.135ZM51.465,25.777C49.557,27.685,47.061,28.624,44.566,28.624C42.07,28.624,39.575,27.685,37.667,25.777C36.815,24.925,36.815,23.516,37.667,22.665C38.518,21.813,39.927,21.813,40.779,22.665C42.863,24.749,46.269,24.749,48.353,22.665C49.204,21.813,50.614,21.813,51.465,22.665C52.316,23.516,52.316,24.896,51.465,25.777ZM51.465,25.777"/>
</g>
  <g id="Ultralight-M" transform="matrix(1.0,0.0,0.0,1.0,525.77001953125,1055.5400390625)">  <path stroke-miterlimit="4" fill-rule="nonzero" stroke-width="1px" stroke="none" stroke-linejoin="miter" stroke-opacity="1" stroke-linecap="butt" fill-opacity="1" stroke-dasharray="none" fill="#000000" d="M47.531,5.872L22.929,5.872C12.242,5.872,5.872,12.242,5.872,22.929L5.872,47.502C5.872,58.218,12.242,64.588,22.929,64.588L47.502,64.588C58.188,64.588,64.559,58.218,64.559,47.531L64.559,22.929C64.588,12.242,58.217,5.872,47.531,5.872ZM18.995,22.665C19.846,21.813,21.255,21.813,22.107,22.665C24.191,24.749,27.597,24.749,29.681,22.665C30.533,21.813,31.942,21.813,32.793,22.665C33.644,23.516,33.644,24.925,32.793,25.777C30.885,27.685,28.389,28.624,25.894,28.624C23.399,28.624,20.903,27.685,18.995,25.777C18.143,24.896,18.143,23.516,18.995,22.665ZM35.23,55.135C27.332,55.135,20.903,48.705,20.903,40.808C20.903,38.753,22.576,37.05,24.632,37.05L45.77,37.05C47.825,37.05,49.498,38.724,49.498,40.808C49.557,48.705,43.127,55.135,35.23,55.135ZM51.465,25.777C49.557,27.685,47.061,28.624,44.566,28.624C42.07,28.624,39.575,27.685,37.667,25.777C36.815,24.925,36.815,23.516,37.667,22.665C38.518,21.813,39.927,21.813,40.779,22.665C42.863,24.749,46.269,24.749,48.353,22.665C49.204,21.813,50.614,21.813,51.465,22.665C52.316,23.516,52.316,24.896,51.465,25.777ZM51.465,25.777"/>
</g>
  <g id="Black-S" transform="matrix(1.0,0.0,0.0,1.0,2907.0949252929686,633.1849448242187)">  <path fill-opacity="1" stroke-opacity="1" stroke-miterlimit="4" stroke-linejoin="miter" fill-rule="nonzero" stroke-width="1px" stroke="none" fill="#000000" stroke-dasharray="none" stroke-linecap="butt" d="M37.217,4.598L17.953,4.598C9.586,4.598,4.597,9.586,4.597,17.953L4.597,37.194C4.597,45.584,9.586,50.573,17.953,50.573L37.194,50.573C45.561,50.573,50.55,45.584,50.55,37.217L50.55,17.953C50.573,9.586,45.584,4.598,37.217,4.598ZM14.873,17.746C15.539,17.08,16.643,17.08,17.309,17.746C18.942,19.379,21.608,19.379,23.24,17.746C23.907,17.08,25.01,17.08,25.677,17.746C26.344,18.413,26.344,19.516,25.677,20.183C24.183,21.677,22.229,22.413,20.275,22.413C18.321,22.413,16.367,21.677,14.873,20.183C14.206,19.493,14.206,18.413,14.873,17.746ZM27.585,43.171C21.401,43.171,16.367,38.136,16.367,31.953C16.367,30.344,17.677,29.01,19.287,29.01L35.838,29.01C37.447,29.01,38.757,30.321,38.757,31.953C38.803,38.136,33.769,43.171,27.585,43.171ZM40.297,20.183C38.803,21.677,36.849,22.413,34.895,22.413C32.941,22.413,30.987,21.677,29.493,20.183C28.826,19.516,28.826,18.413,29.493,17.746C30.16,17.08,31.263,17.08,31.93,17.746C33.562,19.379,36.228,19.379,37.86,17.746C38.527,17.08,39.631,17.08,40.297,17.746C40.964,18.413,40.964,19.493,40.297,20.183ZM40.297,20.183"/>
</g>
  <g id="Heavy-S" transform="matrix(1.0,0.0,0.0,1.0,2610.3849252929685,633.1849448242187)">  <path fill-rule="nonzero" stroke-dasharray="none" stroke-linejoin="miter" stroke-width="1px" fill-opacity="1" stroke="none" fill="#000000" stroke-opacity="1" stroke-miterlimit="4" stroke-linecap="butt" d="M37.217,4.598L17.953,4.598C9.586,4.598,4.597,9.586,4.597,17.953L4.597,37.194C4.597,45.584,9.586,50.573,17.953,50.573L37.194,50.573C45.561,50.573,50.55,45.584,50.55,37.217L50.55,17.953C50.573,9.586,45.584,4.598,37.217,4.598ZM14.873,17.746C15.539,17.08,16.643,17.08,17.309,17.746C18.942,19.379,21.608,19.379,23.24,17.746C23.907,17.08,25.01,17.08,25.677,17.746C26.344,18.413,26.344,19.516,25.677,20.183C24.183,21.677,22.229,22.413,20.275,22.413C18.321,22.413,16.367,21.677,14.873,20.183C14.206,19.493,14.206,18.413,14.873,17.746ZM27.585,43.171C21.401,43.171,16.367,38.136,16.367,31.953C16.367,30.344,17.677,29.01,19.287,29.01L35.838,29.01C37.447,29.01,38.757,30.321,38.757,31.953C38.803,38.136,33.769,43.171,27.585,43.171ZM40.297,20.183C38.803,21.677,36.849,22.413,34.895,22.413C32.941,22.413,30.987,21.677,29.493,20.183C28.826,19.516,28.826,18.413,29.493,17.746C30.16,17.08,31.263,17.08,31.93,17.746C33.562,19.379,36.228,19.379,37.86,17.746C38.527,17.08,39.631,17.08,40.297,17.746C40.964,18.413,40.964,19.493,40.297,20.183ZM40.297,20.183"/>
</g>
  <g id="Bold-S" transform="matrix(1.0,0.0,0.0,1.0,2313.6749252929685,633.1849448242187)">  <path stroke-width="1px" stroke="none" stroke-dasharray="none" stroke-linecap="butt" stroke-linejoin="miter" fill-rule="nonzero" stroke-miterlimit="4" fill="#000000" stroke-opacity="1" fill-opacity="1" d="M37.217,4.598L17.953,4.598C9.586,4.598,4.597,9.586,4.597,17.953L4.597,37.194C4.597,45.584,9.586,50.573,17.953,50.573L37.194,50.573C45.561,50.573,50.55,45.584,50.55,37.217L50.55,17.953C50.573,9.586,45.584,4.598,37.217,4.598ZM14.873,17.746C15.539,17.08,16.643,17.08,17.309,17.746C18.942,19.379,21.608,19.379,23.24,17.746C23.907,17.08,25.01,17.08,25.677,17.746C26.344,18.413,26.344,19.516,25.677,20.183C24.183,21.677,22.229,22.413,20.275,22.413C18.321,22.413,16.367,21.677,14.873,20.183C14.206,19.493,14.206,18.413,14.873,17.746ZM27.585,43.171C21.401,43.171,16.367,38.136,16.367,31.953C16.367,30.344,17.677,29.01,19.287,29.01L35.838,29.01C37.447,29.01,38.757,30.321,38.757,31.953C38.803,38.136,33.769,43.171,27.585,43.171ZM40.297,20.183C38.803,21.677,36.849,22.413,34.895,22.413C32.941,22.413,30.987,21.677,29.493,20.183C28.826,19.516,28.826,18.413,29.493,17.746C30.16,17.08,31.263,17.08,31.93,17.746C33.562,19.379,36.228,19.379,37.86,17.746C38.527,17.08,39.631,17.08,40.297,17.746C40.964,18.413,40.964,19.493,40.297,20.183ZM40.297,20.183"/>
</g>
  <g id="Semibold-S" transform="matrix(1.0,0.0,0.0,1.0,2016.9649252929687,633.1849448242187)">  <path fill-rule="nonzero" stroke-dasharray="none" stroke-linejoin="miter" stroke="none" fill-opacity="1" stroke-opacity="1" fill="#000000" stroke-miterlimit="4" stroke-width="1px" stroke-linecap="butt" d="M37.217,4.598L17.953,4.598C9.586,4.598,4.597,9.586,4.597,17.953L4.597,37.194C4.597,45.584,9.586,50.573,17.953,50.573L37.194,50.573C45.561,50.573,50.55,45.584,50.55,37.217L50.55,17.953C50.573,9.586,45.584,4.598,37.217,4.598ZM14.873,17.746C15.539,17.08,16.643,17.08,17.309,17.746C18.942,19.379,21.608,19.379,23.24,17.746C23.907,17.08,25.01,17.08,25.677,17.746C26.344,18.413,26.344,19.516,25.677,20.183C24.183,21.677,22.229,22.413,20.275,22.413C18.321,22.413,16.367,21.677,14.873,20.183C14.206,19.493,14.206,18.413,14.873,17.746ZM27.585,43.171C21.401,43.171,16.367,38.136,16.367,31.953C16.367,30.344,17.677,29.01,19.287,29.01L35.838,29.01C37.447,29.01,38.757,30.321,38.757,31.953C38.803,38.136,33.769,43.171,27.585,43.171ZM40.297,20.183C38.803,21.677,36.849,22.413,34.895,22.413C32.941,22.413,30.987,21.677,29.493,20.183C28.826,19.516,28.826,18.413,29.493,17.746C30.16,17.08,31.263,17.08,31.93,17.746C33.562,19.379,36.228,19.379,37.86,17.746C38.527,17.08,39.631,17.08,40.297,17.746C40.964,18.413,40.964,19.493,40.297,20.183ZM40.297,20.183"/>
</g>
  <g id="Medium-S" transform="matrix(1.0,0.0,0.0,1.0,1720.2549252929687,633.1849448242187)">  <path stroke-opacity="1" stroke-linecap="butt" stroke="none" fill-opacity="1" stroke-dasharray="none" stroke-miterlimit="4" fill-rule="nonzero" stroke-width="1px" fill="#000000" stroke-linejoin="miter" d="M37.217,4.598L17.953,4.598C9.586,4.598,4.597,9.586,4.597,17.953L4.597,37.194C4.597,45.584,9.586,50.573,17.953,50.573L37.194,50.573C45.561,50.573,50.55,45.584,50.55,37.217L50.55,17.953C50.573,9.586,45.584,4.598,37.217,4.598ZM14.873,17.746C15.539,17.08,16.643,17.08,17.309,17.746C18.942,19.379,21.608,19.379,23.24,17.746C23.907,17.08,25.01,17.08,25.677,17.746C26.344,18.413,26.344,19.516,25.677,20.183C24.183,21.677,22.229,22.413,20.275,22.413C18.321,22.413,16.367,21.677,14.873,20.183C14.206,19.493,14.206,18.413,14.873,17.746ZM27.585,43.171C21.401,43.171,16.367,38.136,16.367,31.953C16.367,30.344,17.677,29.01,19.287,29.01L35.838,29.01C37.447,29.01,38.757,30.321,38.757,31.953C38.803,38.136,33.769,43.171,27.585,43.171ZM40.297,20.183C38.803,21.677,36.849,22.413,34.895,22.413C32.941,22.413,30.987,21.677,29.493,20.183C28.826,19.516,28.826,18.413,29.493,17.746C30.16,17.08,31.263,17.08,31.93,17.746C33.562,19.379,36.228,19.379,37.86,17.746C38.527,17.08,39.631,17.08,40.297,17.746C40.964,18.413,40.964,19.493,40.297,20.183ZM40.297,20.183"/>
</g>
  <g id="Regular-S" transform="matrix(1.0,0.0,0.0,1.0,1423.5449252929686,633.1849448242187)">  <path stroke="none" stroke-opacity="1" stroke-dasharray="none" fill-opacity="1" stroke-width="1px" fill="#000000" fill-rule="nonzero" stroke-linejoin="miter" stroke-miterlimit="4" stroke-linecap="butt" d="M37.217,4.598L17.953,4.598C9.586,4.598,4.597,9.586,4.597,17.953L4.597,37.194C4.597,45.584,9.586,50.573,17.953,50.573L37.194,50.573C45.561,50.573,50.55,45.584,50.55,37.217L50.55,17.953C50.573,9.586,45.584,4.598,37.217,4.598ZM14.873,17.746C15.539,17.08,16.643,17.08,17.309,17.746C18.942,19.379,21.608,19.379,23.24,17.746C23.907,17.08,25.01,17.08,25.677,17.746C26.344,18.413,26.344,19.516,25.677,20.183C24.183,21.677,22.229,22.413,20.275,22.413C18.321,22.413,16.367,21.677,14.873,20.183C14.206,19.493,14.206,18.413,14.873,17.746ZM27.585,43.171C21.401,43.171,16.367,38.136,16.367,31.953C16.367,30.344,17.677,29.01,19.287,29.01L35.838,29.01C37.447,29.01,38.757,30.321,38.757,31.953C38.803,38.136,33.769,43.171,27.585,43.171ZM40.297,20.183C38.803,21.677,36.849,22.413,34.895,22.413C32.941,22.413,30.987,21.677,29.493,20.183C28.826,19.516,28.826,18.413,29.493,17.746C30.16,17.08,31.263,17.08,31.93,17.746C33.562,19.379,36.228,19.379,37.86,17.746C38.527,17.08,39.631,17.08,40.297,17.746C40.964,18.413,40.964,19.493,40.297,20.183ZM40.297,20.183"/>
</g>
  <g id="Light-S" transform="matrix(1.0,0.0,0.0,1.0,1126.8349252929688,633.1849448242187)">  <path stroke-width="1px" stroke-dasharray="none" stroke-linecap="butt" fill="#000000" stroke-linejoin="miter" fill-opacity="1" stroke-miterlimit="4" fill-rule="nonzero" stroke-opacity="1" stroke="none" d="M37.217,4.598L17.953,4.598C9.586,4.598,4.597,9.586,4.597,17.953L4.597,37.194C4.597,45.584,9.586,50.573,17.953,50.573L37.194,50.573C45.561,50.573,50.55,45.584,50.55,37.217L50.55,17.953C50.573,9.586,45.584,4.598,37.217,4.598ZM14.873,17.746C15.539,17.08,16.643,17.08,17.309,17.746C18.942,19.379,21.608,19.379,23.24,17.746C23.907,17.08,25.01,17.08,25.677,17.746C26.344,18.413,26.344,19.516,25.677,20.183C24.183,21.677,22.229,22.413,20.275,22.413C18.321,22.413,16.367,21.677,14.873,20.183C14.206,19.493,14.206,18.413,14.873,17.746ZM27.585,43.171C21.401,43.171,16.367,38.136,16.367,31.953C16.367,30.344,17.677,29.01,19.287,29.01L35.838,29.01C37.447,29.01,38.757,30.321,38.757,31.953C38.803,38.136,33.769,43.171,27.585,43.171ZM40.297,20.183C38.803,21.677,36.849,22.413,34.895,22.413C32.941,22.413,30.987,21.677,29.493,20.183C28.826,19.516,28.826,18.413,29.493,17.746C30.16,17.08,31.263,17.08,31.93,17.746C33.562,19.379,36.228,19.379,37.86,17.746C38.527,17.08,39.631,17.08,40.297,17.746C40.964,18.413,40.964,19.493,40.297,20.183ZM40.297,20.183"/>
</g>
  <g id="Thin-S" transform="matrix(1.0,0.0,0.0,1.0,830.1249252929688,633.1849448242187)">  <path stroke-miterlimit="4" stroke-dasharray="none" stroke-opacity="1" stroke-linecap="butt" fill-opacity="1" fill="#000000" stroke-width="1px" fill-rule="nonzero" stroke-linejoin="miter" stroke="none" d="M37.217,4.598L17.953,4.598C9.586,4.598,4.597,9.586,4.597,17.953L4.597,37.194C4.597,45.584,9.586,50.573,17.953,50.573L37.194,50.573C45.561,50.573,50.55,45.584,50.55,37.217L50.55,17.953C50.573,9.586,45.584,4.598,37.217,4.598ZM14.873,17.746C15.539,17.08,16.643,17.08,17.309,17.746C18.942,19.379,21.608,19.379,23.24,17.746C23.907,17.08,25.01,17.08,25.677,17.746C26.344,18.413,26.344,19.516,25.677,20.183C24.183,21.677,22.229,22.413,20.275,22.413C18.321,22.413,16.367,21.677,14.873,20.183C14.206,19.493,14.206,18.413,14.873,17.746ZM27.585,43.171C21.401,43.171,16.367,38.136,16.367,31.953C16.367,30.344,17.677,29.01,19.287,29.01L35.838,29.01C37.447,29.01,38.757,30.321,38.757,31.953C38.803,38.136,33.769,43.171,27.585,43.171ZM40.297,20.183C38.803,21.677,36.849,22.413,34.895,22.413C32.941,22.413,30.987,21.677,29.493,20.183C28.826,19.516,28.826,18.413,29.493,17.746C30.16,17.08,31.263,17.08,31.93,17.746C33.562,19.379,36.228,19.379,37.86,17.746C38.527,17.08,39.631,17.08,40.297,17.746C40.964,18.413,40.964,19.493,40.297,20.183ZM40.297,20.183"/>
</g>
  <g id="Ultralight-S" transform="matrix(1.0,0.0,0.0,1.0,533.4149252929687,633.1849448242187)">  <path stroke-miterlimit="4" fill-rule="nonzero" stroke-width="1px" stroke="none" stroke-linejoin="miter" stroke-opacity="1" stroke-linecap="butt" fill-opacity="1" stroke-dasharray="none" fill="#000000" d="M37.217,4.598L17.953,4.598C9.586,4.598,4.597,9.586,4.597,17.953L4.597,37.194C4.597,45.584,9.586,50.573,17.953,50.573L37.194,50.573C45.561,50.573,50.55,45.584,50.55,37.217L50.55,17.953C50.573,9.586,45.584,4.598,37.217,4.598ZM14.873,17.746C15.539,17.08,16.643,17.08,17.309,17.746C18.942,19.379,21.608,19.379,23.24,17.746C23.907,17.08,25.01,17.08,25.677,17.746C26.344,18.413,26.344,19.516,25.677,20.183C24.183,21.677,22.229,22.413,20.275,22.413C18.321,22.413,16.367,21.677,14.873,20.183C14.206,19.493,14.206,18.413,14.873,17.746ZM27.585,43.171C21.401,43.171,16.367,38.136,16.367,31.953C16.367,30.344,17.677,29.01,19.287,29.01L35.838,29.01C37.447,29.01,38.757,30.321,38.757,31.953C38.803,38.136,33.769,43.171,27.585,43.171ZM40.297,20.183C38.803,21.677,36.849,22.413,34.895,22.413C32.941,22.413,30.987,21.677,29.493,20.183C28.826,19.516,28.826,18.413,29.493,17.746C30.16,17.08,31.263,17.08,31.93,17.746C33.562,19.379,36.228,19.379,37.86,17.746C38.527,17.08,39.631,17.08,40.297,17.746C40.964,18.413,40.964,19.493,40.297,20.183ZM40.297,20.183"/>
</g>
 </g>
</svg>
