<?xml version="1.0" encoding="UTF-8"?>
<!-- Generator: CustomSymbols v2.6.2.41 by @serious_bret https://bretlester.com/app_content/CustomSymbols/ -->
<!-- Guides: Left/Right 0.0/0.0 Cap/Base 0.0/0.0 -->
<!-- Settings: RefScale 1.0 Min/Max Stroke Scales 0.5/2.21 -->
<!DOCTYPE svg
PUBLIC "-//W3C//DTD SVG 1.1//EN"
       "http://www.w3.org/Graphics/SVG/1.1/DTD/svg11.dtd">
<svg version="1.1" xmlns="http://www.w3.org/2000/svg" xmlns:xlink="http://www.w3.org/1999/xlink" width="3300" height="2200">
<![CDATA[<svg width="24" height="24" viewBox="0 0 24 24" fill="none" xmlns="http://www.w3.org/2000/svg">
<path d="M11 2H9C4 2 2 4 2 9V15C2 20 4 22 9 22H15C20 22 22 20 22 15V13" stroke="#B30000" stroke-width="1.5" stroke-linecap="round" stroke-linejoin="round"/>
<path d="M16.0399 3.02L8.15988 10.9C7.85988 11.2 7.55988 11.79 7.49988 12.22L7.06988 15.23C6.90988 16.32 7.67988 17.08 8.76988 16.93L11.7799 16.5C12.1999 16.44 12.7899 16.14 13.0999 15.84L20.9799 7.96C22.3399 6.6 22.9799 5.02 20.9799 3.02C18.9799 1.02 17.3999 1.66 16.0399 3.02Z" stroke="#B30000" stroke-width="1.5" stroke-miterlimit="10" stroke-linecap="round" stroke-linejoin="round"/>
<path d="M14.9099 4.15C15.5799 6.54 17.4499 8.41 19.8499 9.09" stroke="#B30000" stroke-width="1.5" stroke-miterlimit="10" stroke-linecap="round" stroke-linejoin="round"/>
</svg>
]]>
 <g id="Notes">
  <rect height="2200" id="artboard" style="fill:white;opacity:1" width="3300" x="0" y="0"/>
  <line id="" style="fill:none;stroke:black;opacity:1;stroke-width:0.5;" x1="263" x2="3036" y1="292" y2="292"/>
  <text id="reftext1" style="stroke:none;fill:black;font-family:-apple-system,&quot;SF Pro Display&quot;,&quot;SF Pro Text&quot;,Helvetica,sans-serif;font-weight:bold;" transform="matrix(1 0 0 1 263 322)">Weight/Scale Variations</text>
  <text id="reftext2" style="stroke:none;fill:black;font-family:-apple-system,&quot;SF Pro Display&quot;,&quot;SF Pro Text&quot;,Helvetica,sans-serif;text-anchor:middle;" transform="matrix(1 0 0 1 559.711 322)">Ultralight</text>
  <text style="stroke:none;fill:black;font-family:-apple-system,&quot;SF Pro Display&quot;,&quot;SF Pro Text&quot;,Helvetica,sans-serif;text-anchor:middle;" transform="matrix(1 0 0 1 856.422 322)">Thin</text>
  <text style="stroke:none;fill:black;font-family:-apple-system,&quot;SF Pro Display&quot;,&quot;SF Pro Text&quot;,Helvetica,sans-serif;text-anchor:middle;" transform="matrix(1 0 0 1 1153.13 322)">Light</text>
  <text style="stroke:none;fill:black;font-family:-apple-system,&quot;SF Pro Display&quot;,&quot;SF Pro Text&quot;,Helvetica,sans-serif;text-anchor:middle;" transform="matrix(1 0 0 1 1449.84 322)">Regular</text>
  <text style="stroke:none;fill:black;font-family:-apple-system,&quot;SF Pro Display&quot;,&quot;SF Pro Text&quot;,Helvetica,sans-serif;text-anchor:middle;" transform="matrix(1 0 0 1 1746.56 322)">Medium</text>
  <text style="stroke:none;fill:black;font-family:-apple-system,&quot;SF Pro Display&quot;,&quot;SF Pro Text&quot;,Helvetica,sans-serif;text-anchor:middle;" transform="matrix(1 0 0 1 2043.27 322)">Semibold</text>
  <text style="stroke:none;fill:black;font-family:-apple-system,&quot;SF Pro Display&quot;,&quot;SF Pro Text&quot;,Helvetica,sans-serif;text-anchor:middle;" transform="matrix(1 0 0 1 2339.98 322)">Bold</text>
  <text style="stroke:none;fill:black;font-family:-apple-system,&quot;SF Pro Display&quot;,&quot;SF Pro Text&quot;,Helvetica,sans-serif;text-anchor:middle;" transform="matrix(1 0 0 1 2636.69 322)">Heavy</text>
  <text style="stroke:none;fill:black;font-family:-apple-system,&quot;SF Pro Display&quot;,&quot;SF Pro Text&quot;,Helvetica,sans-serif;text-anchor:middle;" transform="matrix(1 0 0 1 2933.4 322)">Black</text>
  <line id="" style="fill:none;stroke:black;opacity:1;stroke-width:0.5;" x1="263" x2="3036" y1="1903" y2="1903"/>
  <g id="" transform="matrix(1 0 0 1 263 1933)">
   <path d="M9.24805 0.830078C13.5547 0.830078 17.1387-2.74414 17.1387-7.05078C17.1387-11.3574 13.5449-14.9316 9.23828-14.9316C4.94141-14.9316 1.36719-11.3574 1.36719-7.05078C1.36719-2.74414 4.95117 0.830078 9.24805 0.830078ZM9.24805-0.654297C5.70312-0.654297 2.87109-3.49609 2.87109-7.05078C2.87109-10.6055 5.69336-13.4473 9.23828-13.4473C12.793-13.4473 15.6348-10.6055 15.6445-7.05078C15.6543-3.49609 12.8027-0.654297 9.24805-0.654297ZM6.39648-6.31836L8.50586-6.31836L8.50586-4.19922C8.50586-3.75977 8.79883-3.45703 9.22852-3.45703C9.67773-3.45703 9.9707-3.75977 9.9707-4.19922L9.9707-6.31836L12.0996-6.31836C12.5391-6.31836 12.8418-6.61133 12.8418-7.04102C12.8418-7.48047 12.5391-7.7832 12.0996-7.7832L9.9707-7.7832L9.9707-9.89258C9.9707-10.3418 9.67773-10.6445 9.22852-10.6445C8.79883-10.6445 8.50586-10.3418 8.50586-9.89258L8.50586-7.7832L6.39648-7.7832C5.94727-7.7832 5.64453-7.48047 5.64453-7.04102C5.64453-6.61133 5.94727-6.31836 6.39648-6.31836Z"/>
  </g>
  <g id="" transform="matrix(1 0 0 1 281.506 1933)">
   <path d="M11.709 2.91016C17.1582 2.91016 21.6699-1.61133 21.6699-7.05078C21.6699-12.5 17.1484-17.0117 11.6992-17.0117C6.25977-17.0117 1.74805-12.5 1.74805-7.05078C1.74805-1.61133 6.26953 2.91016 11.709 2.91016ZM11.709 1.25C7.09961 1.25 3.41797-2.44141 3.41797-7.05078C3.41797-11.6602 7.08984-15.3516 11.6992-15.3516C16.3086-15.3516 20-11.6602 20.0098-7.05078C20.0195-2.44141 16.3184 1.25 11.709 1.25ZM7.98828-6.23047L10.8789-6.23047L10.8789-3.32031C10.8789-2.83203 11.2109-2.5 11.6895-2.5C12.1777-2.5 12.5195-2.83203 12.5195-3.32031L12.5195-6.23047L15.4297-6.23047C15.918-6.23047 16.25-6.5625 16.25-7.04102C16.25-7.5293 15.918-7.87109 15.4297-7.87109L12.5195-7.87109L12.5195-10.7617C12.5195-11.2695 12.1777-11.6016 11.6895-11.6016C11.2109-11.6016 10.8789-11.2598 10.8789-10.7617L10.8789-7.87109L7.98828-7.87109C7.48047-7.87109 7.14844-7.5293 7.14844-7.04102C7.14844-6.5625 7.49023-6.23047 7.98828-6.23047Z"/>
  </g>
  <g id="" transform="matrix(1 0 0 1 304.924 1933)">
   <path d="M14.9707 5.66406C21.9336 5.66406 27.6953-0.0976562 27.6953-7.05078C27.6953-14.0137 21.9238-19.7754 14.9609-19.7754C8.00781-19.7754 2.25586-14.0137 2.25586-7.05078C2.25586-0.0976562 8.01758 5.66406 14.9707 5.66406ZM14.9707 3.84766C8.93555 3.84766 4.08203-1.01562 4.08203-7.05078C4.08203-13.0957 8.92578-17.9492 14.9609-17.9492C21.0059-17.9492 25.8594-13.0957 25.8691-7.05078C25.8789-1.01562 21.0156 3.84766 14.9707 3.84766ZM10.0586-6.14258L14.0625-6.14258L14.0625-2.12891C14.0625-1.5918 14.4336-1.2207 14.9512-1.2207C15.4883-1.2207 15.8594-1.5918 15.8594-2.12891L15.8594-6.14258L19.8828-6.14258C20.4102-6.14258 20.791-6.51367 20.791-7.03125C20.791-7.56836 20.4199-7.94922 19.8828-7.94922L15.8594-7.94922L15.8594-11.9531C15.8594-12.5098 15.4883-12.8809 14.9512-12.8809C14.4336-12.8809 14.0625-12.5 14.0625-11.9531L14.0625-7.94922L10.0586-7.94922C9.50195-7.94922 9.13086-7.56836 9.13086-7.03125C9.13086-6.51367 9.51172-6.14258 10.0586-6.14258Z"/>
  </g>
  <text style="stroke:none;fill:black;font-family:-apple-system,&quot;SF Pro Display&quot;,&quot;SF Pro Text&quot;,Helvetica,sans-serif;font-weight:bold;" transform="matrix(1 0 0 1 263 1953)">Design Variations</text>
  <text style="stroke:none;fill:black;font-family:-apple-system,&quot;SF Pro Display&quot;,&quot;SF Pro Text&quot;,Helvetica,sans-serif;" transform="matrix(1 0 0 1 263 1971)">Symbols are supported in up to nine weights and three scales.</text>
  <text style="stroke:none;fill:black;font-family:-apple-system,&quot;SF Pro Display&quot;,&quot;SF Pro Text&quot;,Helvetica,sans-serif;" transform="matrix(1 0 0 1 263 1989)">For optimal layout with text and other symbols, vertically align</text>
  <text style="stroke:none;fill:black;font-family:-apple-system,&quot;SF Pro Display&quot;,&quot;SF Pro Text&quot;,Helvetica,sans-serif;" transform="matrix(1 0 0 1 263 2007)">symbols with the adjacent text.</text>
  <line id="" style="fill:none;stroke:#00AEEF;stroke-width:0.5;opacity:1.0;" x1="776" x2="776" y1="1919" y2="1933"/>
  <g id="" transform="matrix(1 0 0 1 776 1933)">
   <path d="M3.31055 0.126953C3.82812 0.126953 4.08203-0.0683594 4.26758-0.605469L5.52734-4.0625L11.2891-4.0625L12.5488-0.605469C12.7344-0.0683594 12.9883 0.126953 13.4961 0.126953C14.0137 0.126953 14.3457-0.185547 14.3457-0.673828C14.3457-0.839844 14.3164-0.986328 14.2383-1.20117L9.6582-13.3887C9.43359-13.9941 9.0332-14.2871 8.4082-14.2871C7.80273-14.2871 7.39258-13.9941 7.17773-13.3984L2.59766-1.19141C2.51953-0.976562 2.49023-0.830078 2.49023-0.664062C2.49023-0.175781 2.80273 0.126953 3.31055 0.126953ZM6.00586-5.53711L8.37891-12.1094L8.42773-12.1094L10.8008-5.53711Z"/>
  </g>
  <line id="" style="fill:none;stroke:#00AEEF;stroke-width:0.5;opacity:1.0;" x1="792.836" x2="792.836" y1="1919" y2="1933"/>
  <text style="stroke:none;fill:black;font-family:-apple-system,&quot;SF Pro Display&quot;,&quot;SF Pro Text&quot;,Helvetica,sans-serif;font-weight:bold;" transform="matrix(1 0 0 1 776 1953)">Margins</text>
  <text style="stroke:none;fill:black;font-family:-apple-system,&quot;SF Pro Display&quot;,&quot;SF Pro Text&quot;,Helvetica,sans-serif;" transform="matrix(1 0 0 1 776 1971)">Leading and trailing margins on the left and right side of each symbol</text>
  <text style="stroke:none;fill:black;font-family:-apple-system,&quot;SF Pro Display&quot;,&quot;SF Pro Text&quot;,Helvetica,sans-serif;" transform="matrix(1 0 0 1 776 1989)">can be adjusted by modifying the x-location of the margin guidelines.</text>
  <text style="stroke:none;fill:black;font-family:-apple-system,&quot;SF Pro Display&quot;,&quot;SF Pro Text&quot;,Helvetica,sans-serif;" transform="matrix(1 0 0 1 776 2007)">Modifications are automatically applied proportionally to all</text>
  <text style="stroke:none;fill:black;font-family:-apple-system,&quot;SF Pro Display&quot;,&quot;SF Pro Text&quot;,Helvetica,sans-serif;" transform="matrix(1 0 0 1 776 2025)">scales and weights.</text>
  <g id="" transform="matrix(1 0 0 1 1289 1933)">
   <path d="M2.8418 1.86523L4.54102 3.57422C5.40039 4.44336 6.38672 4.38477 7.31445 3.35938L17.4902-7.85156C17.7539-7.76367 18.0273-7.7832 18.3398-7.8418L19.4043-8.03711L20.0684-7.36328L20.0293-6.80664C19.9902-6.30859 20.1172-5.92773 20.6055-5.44922L21.3672-4.70703C21.8457-4.22852 22.4609-4.19922 22.9297-4.66797L25.8398-7.58789C26.3086-8.05664 26.2891-8.65234 25.8105-9.13086L25.0391-9.89258C24.5605-10.3711 24.1895-10.5273 23.7109-10.4883L23.1348-10.4395L22.4902-11.0742L22.7344-12.1973C22.8613-12.7637 22.7051-13.2031 22.1191-13.7891L19.9219-15.9766C16.582-19.2969 12.1484-19.2188 9.25781-16.3281C8.83789-15.918 8.80859-15.3418 9.04297-14.9512C9.27734-14.5898 9.73633-14.3555 10.3809-14.5215C11.8457-14.8633 13.3691-14.9219 14.7949-13.9844L14.209-12.5293C14.0137-12.0508 13.9844-11.6504 14.1113-11.2891L3.04688-0.898438C2.06055 0.0195312 1.98242 0.996094 2.8418 1.86523ZM10.752-15.957C13.1836-17.7344 16.4746-17.4316 18.7012-15.2051L21.1328-12.793C21.3672-12.5586 21.4062-12.373 21.3379-12.0312L21.0156-10.5469L22.5195-9.0625L23.5059-9.12109C23.7598-9.13086 23.8379-9.11133 24.0332-8.91602L24.6094-8.33984L22.168-5.89844L21.5918-6.47461C21.3965-6.66992 21.3672-6.74805 21.377-7.01172L21.4453-7.98828L19.9512-9.47266L18.4277-9.21875C18.1055-9.15039 17.959-9.17969 17.7148-9.41406L15.7129-11.416C15.459-11.6504 15.4297-11.8164 15.5859-12.1875L16.4648-14.2773C14.9023-15.7324 12.8711-16.3574 10.8398-15.7617C10.6836-15.7227 10.625-15.8496 10.752-15.957ZM5.27344 2.30469L4.10156 1.14258C3.63281 0.683594 3.74023 0.341797 4.14062-0.0195312L14.9512-10.1953L16.416-8.71094L6.42578 2.27539C6.07422 2.67578 5.74219 2.77344 5.27344 2.30469Z"/>
  </g>
  <text style="stroke:none;fill:black;font-family:-apple-system,&quot;SF Pro Display&quot;,&quot;SF Pro Text&quot;,Helvetica,sans-serif;font-weight:bold;" transform="matrix(1 0 0 1 1289 1953)">Exporting</text>
  <text style="stroke:none;fill:black;font-family:-apple-system,&quot;SF Pro Display&quot;,&quot;SF Pro Text&quot;,Helvetica,sans-serif;" transform="matrix(1 0 0 1 1289 1971)">Symbols should be outlined when exporting to ensure the</text>
  <text style="stroke:none;fill:black;font-family:-apple-system,&quot;SF Pro Display&quot;,&quot;SF Pro Text&quot;,Helvetica,sans-serif;" transform="matrix(1 0 0 1 1289 1989)">design is preserved when submitting to Xcode.</text>
  <text id="template-version" style="stroke:none;fill:black;font-family:-apple-system,&quot;SF Pro Display&quot;,&quot;SF Pro Text&quot;,Helvetica,sans-serif;text-anchor:end;" transform="matrix(1 0 0 1 3036 1933)">Template v.2.0</text>
  <text style="stroke:none;fill:black;font-family:-apple-system,&quot;SF Pro Display&quot;,&quot;SF Pro Text&quot;,Helvetica,sans-serif;text-anchor:end;" transform="matrix(1 0 0 1 3036 1951)">Requires Xcode 12 or greater</text>
  <text style="stroke:none;fill:black;font-family:-apple-system,&quot;SF Pro Display&quot;,&quot;SF Pro Text&quot;,Helvetica,sans-serif;" transform="matrix(1 0 0 1 263 726)">Small</text>
  <text style="stroke:none;fill:black;font-family:-apple-system,&quot;SF Pro Display&quot;,&quot;SF Pro Text&quot;,Helvetica,sans-serif;" transform="matrix(1 0 0 1 263 1156)">Medium</text>
  <text style="stroke:none;fill:black;font-family:-apple-system,&quot;SF Pro Display&quot;,&quot;SF Pro Text&quot;,Helvetica,sans-serif;" transform="matrix(1 0 0 1 263 1586)">Large</text>
 </g>
 <g id="Guides">
  <g id="H-reference" style="fill:#27AAE1;stroke:none;" transform="matrix(1 0 0 1 339 696)">
   <path d="M0.976562 0L3.66211 0L12.9883-24.4629L45.752-24.4629L55.127 0L57.7637 0L30.6152-70.459L28.125-70.459ZM29.3457-67.1387L29.4434-67.1387L44.873-26.709L13.8672-26.709Z"/>
  </g>
  <line id="Baseline-S" style="fill:none;stroke:#27AAE1;opacity:1;stroke-width:0.5;" x1="263" x2="3036" y1="696" y2="696"/>
  <line id="Capline-S" style="fill:none;stroke:#27AAE1;opacity:1;stroke-width:0.5;" x1="263" x2="3036" y1="625.541" y2="625.541"/>
  <g id="H-reference" style="fill:#27AAE1;stroke:none;" transform="matrix(1 0 0 1 339 1126)">
   <path d="M0.976562 0L3.66211 0L12.9883-24.4629L45.752-24.4629L55.127 0L57.7637 0L30.6152-70.459L28.125-70.459ZM29.3457-67.1387L29.4434-67.1387L44.873-26.709L13.8672-26.709Z"/>
  </g>
  <line id="Baseline-M" style="fill:none;stroke:#27AAE1;opacity:1;stroke-width:0.5;" x1="263" x2="3036" y1="1126" y2="1126"/>
  <line id="Capline-M" style="fill:none;stroke:#27AAE1;opacity:1;stroke-width:0.5;" x1="263" x2="3036" y1="1055.54" y2="1055.54"/>
  <g id="H-reference" style="fill:#27AAE1;stroke:none;" transform="matrix(1 0 0 1 339 1556)">
   <path d="M0.976562 0L3.66211 0L12.9883-24.4629L45.752-24.4629L55.127 0L57.7637 0L30.6152-70.459L28.125-70.459ZM29.3457-67.1387L29.4434-67.1387L44.873-26.709L13.8672-26.709Z"/>
  </g>
  <line id="Baseline-L" style="fill:none;stroke:#27AAE1;opacity:1;stroke-width:0.5;" x1="263" x2="3036" y1="1556" y2="1556"/>
  <line id="Capline-L" style="fill:none;stroke:#27AAE1;opacity:1;stroke-width:0.5;" x1="263" x2="3036" y1="1485.54" y2="1485.54"/>
  <line id="left-margin" x1="1415.9000195312499" x2="1415.9000195312499" y1="1030.79" y2="1150.12" style="fill:none;stroke:#00AEEF;stroke-width:0.5;opacity:1.0;"/>
  <line id="right-margin" x1="1486.3599804687499" x2="1486.3599804687499" y1="1030.79" y2="1150.12" style="fill:none;stroke:#00AEEF;stroke-width:0.5;opacity:1.0;"/>
 </g>
 <g id="Symbols">
  <g id="Black-L" transform="matrix(1.0,0.0,0.0,1.0,2889.2333251953123,1475.3233447265625)">  <path fill="#000000" fill-opacity="1" stroke-linejoin="round" stroke-linecap="round" stroke-opacity="1" stroke-dasharray="none" stroke-miterlimit="4" stroke="none" stroke-width="1.5px" fill-rule="nonzero" d="M41.659,1.297L34.085,1.297C11.682,1.297,1.297,11.682,1.297,34.085L1.297,56.808C1.297,79.211,11.682,89.596,34.085,89.596L56.808,89.596C79.211,89.596,89.596,79.211,89.596,56.808L89.596,49.234C89.596,45.767,86.786,42.957,83.319,42.957C79.852,42.957,77.042,45.767,77.042,49.234L77.042,56.808C77.042,72.278,72.278,77.042,56.808,77.042L34.085,77.042C18.616,77.042,13.852,72.278,13.852,56.808L13.852,34.085C13.852,18.616,18.616,13.852,34.085,13.852L41.659,13.852C45.126,13.852,47.937,11.041,47.937,7.574C47.937,4.108,45.126,1.297,41.659,1.297Z"/>
  <path stroke-miterlimit="10" fill-rule="nonzero" stroke-opacity="1" stroke="none" stroke-linejoin="round" stroke-linecap="round" fill="#000000" stroke-dasharray="none" fill-opacity="1" stroke-width="1.5px" d="M56.308,6.999L26.465,36.842C24.356,38.951,22.601,42.442,22.187,45.412L20.561,56.792C19.35,65.042,25.807,71.473,34.069,70.336L45.501,68.703C48.406,68.288,51.854,66.555,53.978,64.501L54.051,64.428L83.894,34.585C92.343,26.136,93.298,16.403,83.894,6.999C74.49,-2.405,64.756,-1.45,56.308,6.999ZM65.185,15.876C69.074,11.987,70.944,11.804,75.017,15.876C79.089,19.949,78.906,21.819,75.017,25.708L45.174,55.551L49.612,59.99L45.247,55.479C44.994,55.724,43.965,56.241,43.725,56.275L32.326,57.903C32.219,57.918,32.169,57.915,32.192,57.921C32.331,57.963,32.499,58.062,32.649,58.212C32.804,58.366,32.91,58.546,32.957,58.701C32.97,58.744,32.968,58.714,32.986,58.591L34.618,47.168C34.656,46.897,35.152,45.909,35.342,45.719L65.185,15.876Z"/>
  <path fill-rule="nonzero" stroke-miterlimit="10" stroke-linejoin="round" stroke-linecap="round" fill-opacity="1" fill="#000000" stroke-opacity="1" stroke-dasharray="none" stroke-width="1.5px" stroke="none" d="M50.423,17.411C53.551,28.57,62.276,37.295,73.465,40.465C76.8,41.411,80.27,39.473,81.216,36.137C82.161,32.802,80.223,29.331,76.887,28.386C69.897,26.406,64.458,20.967,62.511,14.023C61.576,10.684,58.111,8.737,54.773,9.673C51.435,10.608,49.487,14.073,50.423,17.411Z"/>
</g>
  <g id="Heavy-L" transform="matrix(1.0,0.0,0.0,1.0,2592.5233251953123,1475.3233447265625)">  <path stroke="none" stroke-opacity="1" stroke-dasharray="none" stroke-linejoin="round" fill-opacity="1" stroke-miterlimit="4" fill-rule="nonzero" stroke-linecap="round" fill="#000000" stroke-width="1.5px" d="M41.659,1.985L34.085,1.985C12.062,1.985,1.985,12.062,1.985,34.085L1.985,56.808C1.985,78.832,12.062,88.909,34.085,88.909L56.808,88.909C78.832,88.909,88.909,78.832,88.909,56.808L88.909,49.234C88.909,46.147,86.406,43.644,83.319,43.644C80.232,43.644,77.729,46.147,77.729,49.234L77.729,56.808C77.729,72.657,72.657,77.729,56.808,77.729L34.085,77.729C18.236,77.729,13.164,72.657,13.164,56.808L13.164,34.085C13.164,18.236,18.236,13.164,34.085,13.164L41.659,13.164C44.747,13.164,47.249,10.662,47.249,7.574C47.249,4.487,44.747,1.985,41.659,1.985Z"/>
  <path stroke="none" stroke-linejoin="round" stroke-linecap="round" fill-rule="nonzero" stroke-opacity="1" stroke-miterlimit="10" stroke-dasharray="none" fill="#000000" fill-opacity="1" stroke-width="1.5px" d="M56.794,7.485L26.951,37.328C24.947,39.332,23.261,42.686,22.867,45.507L21.241,56.889C20.097,64.687,26.165,70.73,33.976,69.655L45.404,68.023C48.163,67.629,51.479,65.962,53.5,64.007L53.565,63.942L83.408,34.099C91.607,25.9,92.52,16.597,83.408,7.485C74.296,-1.627,64.993,-0.714,56.794,7.485ZM64.699,15.39C68.838,11.251,71.138,11.026,75.503,15.39C79.867,19.755,79.642,22.055,75.503,26.194L45.66,56.037L49.612,59.99L45.725,55.973C45.369,56.317,44.208,56.9,43.823,56.955L32.423,58.584C32.217,58.612,32.068,58.602,31.994,58.58C32.026,58.589,32.094,58.63,32.164,58.699C32.237,58.772,32.285,58.852,32.299,58.899C32.282,58.843,32.274,58.711,32.306,58.491L33.937,47.07C33.996,46.653,34.561,45.528,34.856,45.233L64.699,15.39Z"/>
  <path fill-rule="nonzero" stroke-width="1.5px" fill="#000000" stroke="none" fill-opacity="1" stroke-dasharray="none" stroke-linecap="round" stroke-opacity="1" stroke-miterlimit="10" stroke-linejoin="round" d="M51.085,17.226C54.148,28.154,62.694,36.699,73.652,39.804C76.622,40.646,79.713,38.92,80.554,35.95C81.396,32.979,79.67,29.889,76.7,29.048C69.48,27.002,63.861,21.383,61.85,14.208C61.016,11.235,57.931,9.501,54.958,10.335C51.986,11.168,50.251,14.253,51.085,17.226Z"/>
</g>
  <g id="Bold-L" transform="matrix(1.0,0.0,0.0,1.0,2295.8133251953122,1475.3233447265625)">  <path stroke-opacity="1" stroke-dasharray="none" stroke-miterlimit="4" stroke-linejoin="round" stroke-linecap="round" fill-rule="nonzero" fill-opacity="1" stroke-width="1.5px" stroke="none" fill="#000000" d="M41.659,2.672L34.085,2.672C12.441,2.672,2.672,12.441,2.672,34.085L2.672,56.808C2.672,78.452,12.441,88.221,34.085,88.221L56.808,88.221C78.452,88.221,88.221,78.452,88.221,56.808L88.221,49.234C88.221,46.526,86.027,44.331,83.319,44.331C80.611,44.331,78.416,46.526,78.416,49.234L78.416,56.808C78.416,73.037,73.037,78.416,56.808,78.416L34.085,78.416C17.857,78.416,12.477,73.037,12.477,56.808L12.477,34.085C12.477,17.857,17.857,12.477,34.085,12.477L41.659,12.477C44.367,12.477,46.562,10.282,46.562,7.574C46.562,4.867,44.367,2.672,41.659,2.672Z"/>
  <path stroke-miterlimit="10" stroke-dasharray="none" stroke="none" stroke-width="1.5px" fill-opacity="1" fill-rule="nonzero" stroke-opacity="1" fill="#000000" stroke-linecap="round" stroke-linejoin="round" d="M57.28,7.971L27.437,37.814C25.538,39.713,23.921,42.929,23.548,45.602L21.922,56.986C20.844,64.331,26.523,69.987,33.882,68.974L45.306,67.342C47.92,66.969,51.103,65.369,53.022,63.513L53.079,63.456L82.922,33.613C90.871,25.664,91.742,16.791,82.922,7.971C74.102,-0.849,65.229,0.022,57.28,7.971ZM64.213,14.904C68.602,10.516,71.333,10.248,75.989,14.904C80.645,19.56,80.377,22.291,75.989,26.68L46.146,56.523L49.612,59.99L46.203,56.467C45.745,56.91,44.451,57.56,43.92,57.636L32.52,59.264C31.625,59.388,31.498,59.261,31.626,58.391L33.257,46.973C33.288,46.751,33.447,46.287,33.693,45.797C33.939,45.308,34.219,44.898,34.37,44.747L64.213,14.904Z"/>
  <path stroke-width="1.5px" stroke-linejoin="round" stroke-miterlimit="10" stroke-linecap="round" stroke-dasharray="none" fill-opacity="1" fill-rule="nonzero" stroke-opacity="1" stroke="none" fill="#000000" d="M51.747,17.04C54.745,27.737,63.111,36.103,73.84,39.143C76.445,39.881,79.155,38.367,79.893,35.762C80.631,33.157,79.118,30.447,76.512,29.709C69.062,27.598,63.264,21.8,61.188,14.394C60.457,11.787,57.751,10.266,55.144,10.996C52.537,11.727,51.016,14.433,51.747,17.04Z"/>
</g>
  <g id="Semibold-L" transform="matrix(1.0,0.0,0.0,1.0,1999.1033251953124,1475.3233447265625)">  <path fill-opacity="1" fill-rule="nonzero" stroke-dasharray="none" stroke-linejoin="round" stroke-width="1.5px" stroke="none" stroke-miterlimit="4" fill="#000000" stroke-opacity="1" stroke-linecap="round" d="M41.659,3.359L34.085,3.359C12.821,3.359,3.359,12.821,3.359,34.085L3.359,56.808C3.359,78.072,12.821,87.534,34.085,87.534L56.808,87.534C78.072,87.534,87.534,78.072,87.534,56.808L87.534,49.234C87.534,46.906,85.647,45.019,83.319,45.019C80.991,45.019,79.104,46.906,79.104,49.234L79.104,56.808C79.104,73.416,73.416,79.104,56.808,79.104L34.085,79.104C17.477,79.104,11.79,73.416,11.79,56.808L11.79,34.085C11.79,17.477,17.477,11.79,34.085,11.79L41.659,11.79C43.987,11.79,45.875,9.902,45.875,7.574C45.875,5.246,43.987,3.359,41.659,3.359Z"/>
  <path stroke-dasharray="none" fill-rule="nonzero" stroke-opacity="1" fill-opacity="1" stroke-miterlimit="10" stroke-linecap="round" fill="#000000" stroke-linejoin="round" stroke="none" stroke-width="1.5px" d="M57.766,8.457L27.923,38.3C26.129,40.094,24.581,43.173,24.229,45.697L22.602,57.083C21.591,63.976,26.88,69.244,33.788,68.294L45.209,66.662C47.677,66.31,50.728,64.776,52.544,63.019L82.436,33.127C90.136,25.427,90.964,16.985,82.436,8.457C73.908,-0.071,65.466,0.757,57.766,8.457ZM63.727,14.418C68.365,9.78,71.527,9.47,76.475,14.418C81.423,19.366,81.113,22.528,76.475,27.166L46.632,57.009C46.121,57.503,44.694,58.22,44.017,58.316L32.617,59.945C31.267,60.131,30.751,59.617,30.946,58.292L32.577,46.876C32.676,46.165,33.379,44.766,33.884,44.261L63.727,14.418Z"/>
  <path stroke-miterlimit="10" stroke-width="1.5px" stroke="none" fill-rule="nonzero" stroke-opacity="1" fill-opacity="1" stroke-linejoin="round" stroke-linecap="round" stroke-dasharray="none" fill="#000000" d="M52.408,16.855C55.342,27.321,63.528,35.507,74.027,38.481C76.267,39.116,78.597,37.815,79.232,35.575C79.866,33.335,78.565,31.005,76.325,30.37C68.645,28.194,62.667,22.216,60.526,14.579C59.897,12.338,57.571,11.03,55.329,11.658C53.088,12.287,51.78,14.613,52.408,16.855Z"/>
</g>
  <g id="Medium-L" transform="matrix(1.0,0.0,0.0,1.0,1702.3933251953124,1475.3233447265625)">  <path stroke-dasharray="none" stroke-miterlimit="4" stroke-linejoin="round" stroke-width="1.5px" fill="#000000" stroke="none" stroke-opacity="1" stroke-linecap="round" fill-rule="nonzero" fill-opacity="1" d="M41.659,4.047L34.085,4.047C13.201,4.047,4.047,13.201,4.047,34.085L4.047,56.808C4.047,77.693,13.201,86.847,34.085,86.847L56.808,86.847C77.693,86.847,86.847,77.693,86.847,56.808L86.847,49.234C86.847,47.286,85.267,45.706,83.319,45.706C81.371,45.706,79.791,47.286,79.791,49.234L79.791,56.808C79.791,73.796,73.796,79.791,56.808,79.791L34.085,79.791C17.097,79.791,11.102,73.796,11.102,56.808L11.102,34.085C11.102,17.097,17.097,11.102,34.085,11.102L41.659,11.102C43.608,11.102,45.187,9.523,45.187,7.574C45.187,5.626,43.608,4.047,41.659,4.047Z"/>
  <path stroke-opacity="1" fill-opacity="1" stroke="none" fill-rule="nonzero" stroke-linejoin="round" stroke-linecap="round" stroke-miterlimit="10" stroke-dasharray="none" stroke-width="1.5px" fill="#000000" d="M58.252,8.943L28.409,38.786C26.72,40.475,25.241,43.417,24.91,45.792L23.283,57.18C22.338,63.62,27.238,68.501,33.694,67.613L45.112,65.982C47.433,65.65,50.352,64.183,52.066,62.525L81.95,32.641C89.4,25.191,90.186,17.179,81.95,8.943C73.714,0.706,65.702,1.493,58.252,8.943ZM63.241,13.932C68.129,9.044,71.721,8.692,76.961,13.932C82.201,19.172,81.849,22.764,76.961,27.652L47.118,57.495C46.496,58.096,44.938,58.879,44.114,58.997L32.715,60.625C30.91,60.874,30.004,59.972,30.266,58.192L31.896,46.779C32.016,45.921,32.788,44.385,33.398,43.775L63.241,13.932Z"/>
  <path stroke-opacity="1" fill-rule="nonzero" stroke-linecap="round" stroke="none" fill-opacity="1" stroke-linejoin="round" stroke-width="1.5px" stroke-miterlimit="10" stroke-dasharray="none" fill="#000000" d="M53.07,16.669C55.94,26.905,63.945,34.911,74.214,37.82C76.089,38.351,78.039,37.262,78.57,35.388C79.101,33.513,78.012,31.563,76.138,31.032C68.228,28.791,62.069,22.632,59.864,14.765C59.338,12.889,57.391,11.794,55.515,12.32C53.639,12.846,52.544,14.793,53.07,16.669Z"/>
</g>
  <g id="Regular-L" transform="matrix(1.0,0.0,0.0,1.0,1405.6833251953124,1475.3233447265625)">  <path stroke-opacity="1" stroke="none" stroke-width="1.5px" stroke-linejoin="round" fill-opacity="1" fill-rule="nonzero" fill="#000000" stroke-miterlimit="4" stroke-dasharray="none" stroke-linecap="round" d="M41.659,4.734L34.085,4.734C13.58,4.734,4.734,13.58,4.734,34.085L4.734,56.808C4.734,77.313,13.58,86.159,34.085,86.159L56.808,86.159C77.313,86.159,86.159,77.313,86.159,56.808L86.159,49.234C86.159,47.665,84.888,46.393,83.319,46.393C81.75,46.393,80.478,47.665,80.478,49.234L80.478,56.808C80.478,74.176,74.176,80.478,56.808,80.478L34.085,80.478C16.718,80.478,10.415,74.176,10.415,56.808L10.415,34.085C10.415,16.718,16.718,10.415,34.085,10.415L41.659,10.415C43.228,10.415,44.5,9.143,44.5,7.574C44.5,6.006,43.228,4.734,41.659,4.734Z"/>
  <path stroke-linejoin="round" stroke-dasharray="none" fill-rule="nonzero" stroke-linecap="round" stroke-opacity="1" stroke="none" stroke-width="1.5px" fill-opacity="1" stroke-miterlimit="10" fill="#000000" d="M58.738,9.429L28.895,39.272C27.311,40.856,25.901,43.661,25.591,45.887L23.963,57.278C23.084,63.265,27.596,67.758,33.601,66.932L45.015,65.301C47.19,64.99,49.976,63.59,51.588,62.031L81.464,32.155C88.664,24.954,89.409,17.373,81.464,9.429C73.52,1.484,65.939,2.229,58.738,9.429ZM62.755,13.446C67.892,8.309,71.915,7.914,77.447,13.446C82.979,18.978,82.584,23.001,77.447,28.138L47.604,57.981C46.872,58.689,45.181,59.539,44.211,59.677L32.812,61.306C30.552,61.617,29.257,60.327,29.586,58.092L31.216,46.682C31.356,45.677,32.197,44.004,32.912,43.289L62.755,13.446Z"/>
  <path stroke-linejoin="round" fill-rule="nonzero" stroke-opacity="1" stroke-width="1.5px" stroke-linecap="round" stroke="none" fill="#000000" fill-opacity="1" stroke-miterlimit="10" stroke-dasharray="none" d="M53.732,16.484C56.537,26.489,64.363,34.314,74.402,37.159C75.911,37.586,77.481,36.709,77.909,35.2C78.336,33.691,77.46,32.121,75.95,31.693C67.811,29.387,61.472,23.048,59.202,14.95C58.779,13.44,57.211,12.559,55.7,12.982C54.19,13.405,53.309,14.973,53.732,16.484Z"/>
</g>
  <g id="Light-L" transform="matrix(1.0,0.0,0.0,1.0,1108.9733251953126,1475.3233447265625)">  <path stroke="none" stroke-dasharray="none" stroke-miterlimit="4" fill-opacity="1" stroke-linejoin="round" stroke-opacity="1" stroke-linecap="round" stroke-width="1.5px" fill-rule="nonzero" fill="#000000" d="M41.659,5.207L34.085,5.207C13.842,5.207,5.207,13.842,5.207,34.085L5.207,56.808C5.207,77.052,13.842,85.686,34.085,85.686L56.808,85.686C77.052,85.686,85.686,77.052,85.686,56.808L85.686,49.234C85.686,47.927,84.626,46.867,83.319,46.867C82.012,46.867,80.952,47.927,80.952,49.234L80.952,56.808C80.952,74.437,74.437,80.952,56.808,80.952L34.085,80.952C16.456,80.952,9.941,74.437,9.941,56.808L9.941,34.085C9.941,16.456,16.456,9.941,34.085,9.941L41.659,9.941C42.967,9.941,44.026,8.882,44.026,7.574C44.026,6.267,42.967,5.207,41.659,5.207Z"/>
  <path stroke-dasharray="none" fill-opacity="1" fill-rule="nonzero" stroke-miterlimit="10" stroke-linejoin="round" stroke="none" fill="#000000" stroke-opacity="1" stroke-width="1.5px" stroke-linecap="round" d="M59.073,9.764L29.23,39.607C27.718,41.118,26.356,43.829,26.059,45.953L24.432,57.345C23.599,63.02,27.842,67.246,33.536,66.463L44.948,64.832C47.023,64.536,49.718,63.182,51.258,61.691L81.129,31.82C88.158,24.792,88.873,17.507,81.129,9.764C73.386,2.02,66.101,2.735,59.073,9.764ZM62.42,13.111C67.73,7.802,72.049,7.378,77.782,13.111C83.515,18.844,83.091,23.163,77.782,28.473L47.939,58.316C47.131,59.097,45.348,59.993,44.278,60.146L32.879,61.774C30.306,62.129,28.743,60.572,29.117,58.023L30.747,46.615C30.901,45.509,31.79,43.742,32.577,42.954L62.42,13.111Z"/>
  <path fill-rule="nonzero" stroke-dasharray="none" fill="#000000" stroke-linejoin="round" stroke="none" fill-opacity="1" stroke-miterlimit="10" stroke-width="1.5px" stroke-opacity="1" stroke-linecap="round" d="M54.188,16.356C56.948,26.202,64.65,33.904,74.531,36.703C75.788,37.06,77.097,36.329,77.453,35.071C77.81,33.813,77.079,32.505,75.821,32.148C67.523,29.797,61.061,23.335,58.746,15.078C58.393,13.819,57.087,13.085,55.828,13.438C54.569,13.791,53.835,15.097,54.188,16.356Z"/>
</g>
  <g id="Thin-L" transform="matrix(1.0,0.0,0.0,1.0,812.2633251953125,1475.3233447265625)">  <path stroke="none" stroke-linejoin="round" stroke-miterlimit="4" stroke-opacity="1" fill-opacity="1" fill="#000000" fill-rule="nonzero" stroke-linecap="round" stroke-width="1.5px" stroke-dasharray="none" d="M41.659,5.681L34.085,5.681C14.103,5.681,5.681,14.103,5.681,34.085L5.681,56.808C5.681,76.79,14.103,85.213,34.085,85.213L56.808,85.213C76.79,85.213,85.213,76.79,85.213,56.808L85.213,49.234C85.213,48.188,84.365,47.34,83.319,47.34C82.273,47.34,81.425,48.188,81.425,49.234L81.425,56.808C81.425,74.699,74.699,81.425,56.808,81.425L34.085,81.425C16.195,81.425,9.468,74.699,9.468,56.808L9.468,34.085C9.468,16.195,16.195,9.468,34.085,9.468L41.659,9.468C42.705,9.468,43.553,8.62,43.553,7.574C43.553,6.529,42.705,5.681,41.659,5.681Z"/>
  <path stroke-dasharray="none" stroke-linejoin="round" stroke-width="1.5px" stroke-linecap="round" fill="#000000" stroke-opacity="1" stroke-miterlimit="10" stroke="none" fill-rule="nonzero" fill-opacity="1" d="M59.408,10.098L29.564,39.942C28.125,41.381,26.81,43.997,26.528,46.018L24.901,57.412C24.113,62.775,28.089,66.734,33.472,65.994L44.881,64.364C46.855,64.082,49.459,62.773,50.929,61.35L80.795,31.485C87.651,24.629,88.337,17.641,80.795,10.098C73.252,2.556,66.264,3.242,59.408,10.098ZM62.086,12.776C67.567,7.295,72.182,6.842,78.117,12.776C84.051,18.711,83.598,23.326,78.117,28.807L48.273,58.651C47.389,59.506,45.516,60.447,44.345,60.615L32.946,62.243C30.059,62.64,28.229,60.817,28.649,57.954L30.278,46.548C30.447,45.341,31.382,43.48,32.242,42.62L62.086,12.776Z"/>
  <path fill="#000000" stroke="none" stroke-miterlimit="10" stroke-width="1.5px" stroke-opacity="1" stroke-linecap="round" fill-opacity="1" stroke-linejoin="round" stroke-dasharray="none" fill-rule="nonzero" d="M54.644,16.228C57.359,25.915,64.937,33.493,74.66,36.248C75.666,36.533,76.713,35.948,76.998,34.942C77.283,33.936,76.698,32.889,75.692,32.604C67.236,30.208,60.65,23.622,58.29,15.206C58.008,14.199,56.963,13.611,55.956,13.894C54.949,14.176,54.361,15.221,54.644,16.228Z"/>
</g>
  <g id="Ultralight-L" transform="matrix(1.0,0.0,0.0,1.0,515.5533251953125,1475.3233447265625)">  <path fill-rule="nonzero" fill-opacity="1" fill="#000000" stroke-linecap="round" stroke="none" stroke-opacity="1" stroke-miterlimit="4" stroke-width="1.5px" stroke-linejoin="round" stroke-dasharray="none" d="M41.659,6.154L34.085,6.154C14.365,6.154,6.154,14.365,6.154,34.085L6.154,56.808C6.154,76.529,14.365,84.739,34.085,84.739L56.808,84.739C76.529,84.739,84.739,76.529,84.739,56.808L84.739,49.234C84.739,48.45,84.103,47.814,83.319,47.814C82.535,47.814,81.899,48.45,81.899,49.234L81.899,56.808C81.899,74.96,74.96,81.899,56.808,81.899L34.085,81.899C15.933,81.899,8.995,74.96,8.995,56.808L8.995,34.085C8.995,15.933,15.933,8.995,34.085,8.995L41.659,8.995C42.444,8.995,43.08,8.359,43.08,7.574C43.08,6.79,42.444,6.154,41.659,6.154Z"/>
  <path stroke-opacity="1" stroke-width="1.5px" fill="#000000" stroke-miterlimit="10" stroke-dasharray="none" stroke="none" fill-opacity="1" stroke-linejoin="round" fill-rule="nonzero" stroke-linecap="round" d="M59.742,10.433L29.899,40.276C28.533,41.643,27.265,44.165,26.997,46.084L25.369,57.479C24.628,62.53,28.335,66.223,33.407,65.525L44.814,63.895C46.688,63.627,49.2,62.365,50.6,61.01L80.46,31.151C87.144,24.466,87.801,17.775,80.46,10.433C73.118,3.092,66.427,3.749,59.742,10.433ZM61.751,12.442C67.404,6.789,72.316,6.306,78.451,12.442C84.587,18.577,84.104,23.489,78.451,29.142L48.608,58.985C47.648,59.914,45.683,60.902,44.412,61.083L33.013,62.712C29.813,63.152,27.714,61.062,28.18,57.886L29.81,46.481C29.992,45.173,30.975,43.217,31.908,42.285L61.751,12.442Z"/>
  <path stroke="none" fill-rule="nonzero" stroke-linecap="round" fill-opacity="1" stroke-miterlimit="10" fill="#000000" stroke-linejoin="round" stroke-width="1.5px" stroke-dasharray="none" stroke-opacity="1" d="M55.1,16.1C57.771,25.628,65.225,33.082,74.789,35.792C75.543,36.006,76.329,35.568,76.542,34.813C76.756,34.058,76.318,33.273,75.563,33.059C66.949,30.619,60.238,23.908,57.835,15.334C57.623,14.578,56.839,14.138,56.084,14.349C55.329,14.561,54.888,15.345,55.1,16.1Z"/>
</g>
  <g id="Black-M" transform="matrix(1.0,0.0,0.0,1.0,2899.45001953125,1055.5400390625)">  <path fill="#000000" fill-opacity="1" stroke-linejoin="round" stroke-linecap="round" stroke-opacity="1" stroke-dasharray="none" stroke-miterlimit="4" stroke="none" stroke-width="1.5px" fill-rule="nonzero" d="M32.294,1.006L26.422,1.006C9.056,1.006,1.006,9.056,1.006,26.422L1.006,44.037C1.006,61.404,9.056,69.454,26.422,69.454L44.037,69.454C61.404,69.454,69.454,61.404,69.454,44.037L69.454,38.166C69.454,35.478,67.276,33.3,64.588,33.3C61.901,33.3,59.722,35.478,59.722,38.166L59.722,44.037C59.722,56.029,56.029,59.722,44.037,59.722L26.422,59.722C14.431,59.722,10.738,56.029,10.738,44.037L10.738,26.422C10.738,14.431,14.431,10.738,26.422,10.738L32.294,10.738C34.982,10.738,37.16,8.559,37.16,5.872C37.16,3.184,34.982,1.006,32.294,1.006Z"/>
  <path stroke-miterlimit="10" fill-rule="nonzero" stroke-opacity="1" stroke="none" stroke-linejoin="round" stroke-linecap="round" fill="#000000" stroke-dasharray="none" fill-opacity="1" stroke-width="1.5px" d="M43.65,5.425L20.515,28.56C18.88,30.195,17.52,32.9,17.199,35.203L15.939,44.025C15,50.42,20.006,55.406,26.41,54.524L35.272,53.258C37.524,52.937,40.197,51.593,41.843,50L41.9,49.944L65.034,26.81C71.584,20.261,72.324,12.715,65.034,5.425C57.744,-1.865,50.199,-1.124,43.65,5.425ZM50.531,12.307C53.546,9.292,54.996,9.15,58.153,12.307C61.31,15.464,61.167,16.914,58.153,19.928L35.018,43.063L38.459,46.504L35.075,43.007C34.879,43.197,34.081,43.597,33.896,43.624L25.059,44.886C24.976,44.898,24.937,44.895,24.955,44.9C25.063,44.933,25.193,45.01,25.309,45.125C25.429,45.245,25.512,45.384,25.548,45.505C25.558,45.538,25.557,45.515,25.571,45.419L26.836,36.564C26.865,36.354,27.25,35.588,27.397,35.441L50.531,12.307Z"/>
  <path fill-rule="nonzero" stroke-miterlimit="10" stroke-linejoin="round" stroke-linecap="round" fill-opacity="1" fill="#000000" stroke-opacity="1" stroke-dasharray="none" stroke-width="1.5px" stroke="none" d="M39.087,13.497C41.512,22.147,48.276,28.911,56.949,31.369C59.535,32.101,62.225,30.599,62.958,28.013C63.69,25.428,62.188,22.737,59.602,22.005C54.184,20.47,49.968,16.254,48.458,10.87C47.733,8.282,45.047,6.773,42.459,7.498C39.872,8.224,38.362,10.909,39.087,13.497Z"/>
</g>
  <g id="Heavy-M" transform="matrix(1.0,0.0,0.0,1.0,2602.74001953125,1055.5400390625)">  <path stroke="none" stroke-opacity="1" stroke-dasharray="none" stroke-linejoin="round" fill-opacity="1" stroke-miterlimit="4" fill-rule="nonzero" stroke-linecap="round" fill="#000000" stroke-width="1.5px" d="M32.294,1.538L26.422,1.538C9.35,1.538,1.538,9.35,1.538,26.422L1.538,44.037C1.538,61.11,9.35,68.922,26.422,68.922L44.037,68.922C61.11,68.922,68.922,61.11,68.922,44.037L68.922,38.166C68.922,35.773,66.982,33.833,64.588,33.833C62.195,33.833,60.255,35.773,60.255,38.166L60.255,44.037C60.255,56.323,56.323,60.255,44.037,60.255L26.422,60.255C14.137,60.255,10.205,56.323,10.205,44.037L10.205,26.422C10.205,14.137,14.137,10.205,26.422,10.205L32.294,10.205C34.687,10.205,36.627,8.265,36.627,5.872C36.627,3.478,34.687,1.538,32.294,1.538Z"/>
  <path stroke="none" stroke-linejoin="round" stroke-linecap="round" fill-rule="nonzero" stroke-opacity="1" stroke-miterlimit="10" stroke-dasharray="none" fill="#000000" fill-opacity="1" stroke-width="1.5px" d="M44.026,5.802L20.892,28.936C19.339,30.49,18.032,33.09,17.727,35.277L16.466,44.1C15.579,50.145,20.283,54.83,26.338,53.996L35.197,52.731C37.336,52.425,39.906,51.133,41.473,49.617L41.523,49.568L64.658,26.433C71.013,20.078,71.721,12.866,64.658,5.802C57.594,-1.262,50.382,-0.554,44.026,5.802ZM50.155,11.93C53.363,8.722,55.146,8.547,58.529,11.93C61.913,15.314,61.738,17.097,58.529,20.305L35.395,43.439L38.459,46.504L35.446,43.39C35.17,43.656,34.27,44.109,33.971,44.151L25.134,45.414C24.974,45.436,24.859,45.428,24.801,45.411C24.826,45.418,24.879,45.45,24.933,45.503C24.99,45.56,25.027,45.621,25.038,45.658C25.025,45.614,25.018,45.513,25.043,45.342L26.308,36.489C26.353,36.165,26.792,35.293,27.02,35.065L50.155,11.93Z"/>
  <path fill-rule="nonzero" stroke-width="1.5px" fill="#000000" stroke="none" fill-opacity="1" stroke-dasharray="none" stroke-linecap="round" stroke-opacity="1" stroke-miterlimit="10" stroke-linejoin="round" d="M39.601,13.353C41.975,21.824,48.6,28.449,57.095,30.856C59.397,31.508,61.793,30.171,62.445,27.868C63.098,25.565,61.76,23.17,59.457,22.518C53.86,20.932,49.505,16.576,47.945,11.014C47.299,8.71,44.908,7.365,42.603,8.011C40.299,8.657,38.955,11.049,39.601,13.353Z"/>
</g>
  <g id="Bold-M" transform="matrix(1.0,0.0,0.0,1.0,2306.0300195312498,1055.5400390625)">  <path stroke-opacity="1" stroke-dasharray="none" stroke-miterlimit="4" stroke-linejoin="round" stroke-linecap="round" fill-rule="nonzero" fill-opacity="1" stroke-width="1.5px" stroke="none" fill="#000000" d="M32.294,2.071L26.422,2.071C9.644,2.071,2.071,9.644,2.071,26.422L2.071,44.037C2.071,60.816,9.644,68.389,26.422,68.389L44.037,68.389C60.816,68.389,68.389,60.816,68.389,44.037L68.389,38.166C68.389,36.067,66.687,34.365,64.588,34.365C62.489,34.365,60.788,36.067,60.788,38.166L60.788,44.037C60.788,56.618,56.618,60.788,44.037,60.788L26.422,60.788C13.842,60.788,9.672,56.618,9.672,44.037L9.672,26.422C9.672,13.842,13.842,9.672,26.422,9.672L32.294,9.672C34.393,9.672,36.095,7.971,36.095,5.872C36.095,3.773,34.393,2.071,32.294,2.071Z"/>
  <path stroke-miterlimit="10" stroke-dasharray="none" stroke="none" stroke-width="1.5px" fill-opacity="1" fill-rule="nonzero" stroke-opacity="1" fill="#000000" stroke-linecap="round" stroke-linejoin="round" d="M44.403,6.179L21.269,29.313C19.797,30.785,18.544,33.279,18.254,35.351L16.994,44.175C16.158,49.869,20.56,54.254,26.265,53.469L35.121,52.203C37.147,51.914,39.615,50.674,41.102,49.235L41.146,49.191L64.281,26.057C70.443,19.894,71.118,13.016,64.281,6.179C57.443,-0.658,50.565,0.017,44.403,6.179ZM49.778,11.554C53.18,8.152,55.297,7.944,58.906,11.554C62.516,15.163,62.308,17.28,58.906,20.682L35.772,43.816L38.459,46.504L35.816,43.773C35.461,44.116,34.458,44.62,34.046,44.679L25.209,45.941C24.516,46.037,24.417,45.939,24.516,45.265L25.781,36.413C25.805,36.241,25.928,35.882,26.119,35.502C26.309,35.122,26.526,34.805,26.643,34.688L49.778,11.554Z"/>
  <path stroke-width="1.5px" stroke-linejoin="round" stroke-miterlimit="10" stroke-linecap="round" stroke-dasharray="none" fill-opacity="1" fill-rule="nonzero" stroke-opacity="1" stroke="none" fill="#000000" d="M40.114,13.21C42.438,21.502,48.923,27.987,57.24,30.343C59.259,30.915,61.36,29.742,61.932,27.723C62.505,25.703,61.331,23.602,59.312,23.03C53.537,21.394,49.042,16.899,47.432,11.158C46.866,9.137,44.768,7.958,42.747,8.524C40.726,9.091,39.547,11.189,40.114,13.21Z"/>
</g>
  <g id="Semibold-M" transform="matrix(1.0,0.0,0.0,1.0,2009.32001953125,1055.5400390625)">  <path fill-opacity="1" fill-rule="nonzero" stroke-dasharray="none" stroke-linejoin="round" stroke-width="1.5px" stroke="none" stroke-miterlimit="4" fill="#000000" stroke-opacity="1" stroke-linecap="round" d="M32.294,2.604L26.422,2.604C9.939,2.604,2.604,9.939,2.604,26.422L2.604,44.037C2.604,60.521,9.939,67.856,26.422,67.856L44.037,67.856C60.521,67.856,67.856,60.521,67.856,44.037L67.856,38.166C67.856,36.361,66.393,34.898,64.588,34.898C62.784,34.898,61.321,36.361,61.321,38.166L61.321,44.037C61.321,56.912,56.912,61.321,44.037,61.321L26.422,61.321C13.548,61.321,9.139,56.912,9.139,44.037L9.139,26.422C9.139,13.548,13.548,9.139,26.422,9.139L32.294,9.139C34.099,9.139,35.562,7.676,35.562,5.872C35.562,4.067,34.099,2.604,32.294,2.604Z"/>
  <path stroke-dasharray="none" fill-rule="nonzero" stroke-opacity="1" fill-opacity="1" stroke-miterlimit="10" stroke-linecap="round" fill="#000000" stroke-linejoin="round" stroke="none" stroke-width="1.5px" d="M44.78,6.556L21.646,29.69C20.255,31.081,19.055,33.468,18.782,35.424L17.521,44.251C16.737,49.594,20.838,53.678,26.192,52.941L35.046,51.676C36.959,51.403,39.324,50.214,40.731,48.852L63.904,25.68C69.873,19.711,70.515,13.167,63.904,6.556C57.293,-0.055,50.749,0.587,44.78,6.556ZM49.401,11.177C52.996,7.581,55.447,7.341,59.283,11.177C63.119,15.013,62.878,17.463,59.283,21.059L36.149,44.193C35.752,44.576,34.647,45.131,34.122,45.206L25.285,46.469C24.238,46.613,23.838,46.214,23.989,45.187L25.253,36.338C25.33,35.787,25.875,34.703,26.267,34.311L49.401,11.177Z"/>
  <path stroke-miterlimit="10" stroke-width="1.5px" stroke="none" fill-rule="nonzero" stroke-opacity="1" fill-opacity="1" stroke-linejoin="round" stroke-linecap="round" stroke-dasharray="none" fill="#000000" d="M40.627,13.066C42.901,21.179,49.247,27.525,57.385,29.831C59.121,30.322,60.928,29.314,61.42,27.577C61.912,25.841,60.903,24.035,59.167,23.543C53.213,21.856,48.579,17.222,46.919,11.302C46.432,9.564,44.629,8.55,42.891,9.037C41.153,9.525,40.14,11.328,40.627,13.066Z"/>
</g>
  <g id="Medium-M" transform="matrix(1.0,0.0,0.0,1.0,1712.61001953125,1055.5400390625)">  <path stroke-dasharray="none" stroke-miterlimit="4" stroke-linejoin="round" stroke-width="1.5px" fill="#000000" stroke="none" stroke-opacity="1" stroke-linecap="round" fill-rule="nonzero" fill-opacity="1" d="M32.294,3.137L26.422,3.137C10.233,3.137,3.137,10.233,3.137,26.422L3.137,44.037C3.137,60.227,10.233,67.323,26.422,67.323L44.037,67.323C60.227,67.323,67.323,60.227,67.323,44.037L67.323,38.166C67.323,36.655,66.099,35.431,64.588,35.431C63.078,35.431,61.854,36.655,61.854,38.166L61.854,44.037C61.854,57.206,57.206,61.854,44.037,61.854L26.422,61.854C13.254,61.854,8.606,57.206,8.606,44.037L8.606,26.422C8.606,13.254,13.254,8.606,26.422,8.606L32.294,8.606C33.804,8.606,35.029,7.382,35.029,5.872C35.029,4.361,33.804,3.137,32.294,3.137Z"/>
  <path stroke-opacity="1" fill-opacity="1" stroke="none" fill-rule="nonzero" stroke-linejoin="round" stroke-linecap="round" stroke-miterlimit="10" stroke-dasharray="none" stroke-width="1.5px" fill="#000000" d="M45.157,6.932L22.022,30.067C20.713,31.376,19.567,33.657,19.31,35.498L18.049,44.326C17.316,49.318,21.115,53.102,26.12,52.413L34.971,51.148C36.77,50.891,39.033,49.754,40.361,48.469L63.527,25.303C69.302,19.528,69.912,13.317,63.527,6.932C57.142,0.548,50.932,1.157,45.157,6.932ZM49.024,10.8C52.813,7.011,55.598,6.738,59.66,10.8C63.722,14.862,63.449,17.647,59.66,21.435L36.525,44.57C36.044,45.035,34.835,45.643,34.197,45.734L25.36,46.996C23.961,47.189,23.259,46.49,23.462,45.11L24.726,36.263C24.818,35.598,25.417,34.407,25.89,33.934L49.024,10.8Z"/>
  <path stroke-opacity="1" fill-rule="nonzero" stroke-linecap="round" stroke="none" fill-opacity="1" stroke-linejoin="round" stroke-width="1.5px" stroke-miterlimit="10" stroke-dasharray="none" fill="#000000" d="M41.14,12.922C43.364,20.856,49.57,27.062,57.53,29.318C58.984,29.73,60.495,28.885,60.907,27.432C61.319,25.979,60.475,24.467,59.021,24.056C52.89,22.318,48.116,17.544,46.406,11.446C45.998,9.991,44.489,9.143,43.035,9.55C41.58,9.958,40.732,11.468,41.14,12.922Z"/>
</g>
  <g id="Regular-M" transform="matrix(1.0,0.0,0.0,1.0,1415.9000195312499,1055.5400390625)">  <path stroke-opacity="1" stroke="none" stroke-width="1.5px" stroke-linejoin="round" fill-opacity="1" fill-rule="nonzero" fill="#000000" stroke-miterlimit="4" stroke-dasharray="none" stroke-linecap="round" d="M32.294,3.67L26.422,3.67C10.527,3.67,3.67,10.527,3.67,26.422L3.67,44.037C3.67,59.933,10.527,66.79,26.422,66.79L44.037,66.79C59.933,66.79,66.79,59.933,66.79,44.037L66.79,38.166C66.79,36.95,65.804,35.964,64.588,35.964C63.372,35.964,62.386,36.95,62.386,38.166L62.386,44.037C62.386,57.501,57.501,62.386,44.037,62.386L26.422,62.386C12.959,62.386,8.074,57.501,8.074,44.037L8.074,26.422C8.074,12.959,12.959,8.074,26.422,8.074L32.294,8.074C33.51,8.074,34.496,7.088,34.496,5.872C34.496,4.656,33.51,3.67,32.294,3.67Z"/>
  <path stroke-linejoin="round" stroke-dasharray="none" fill-rule="nonzero" stroke-linecap="round" stroke-opacity="1" stroke="none" stroke-width="1.5px" fill-opacity="1" stroke-miterlimit="10" fill="#000000" d="M45.533,7.309L22.399,30.444C21.172,31.671,20.078,33.846,19.838,35.572L18.576,44.401C17.895,49.043,21.392,52.526,26.047,51.885L34.895,50.621C36.582,50.38,38.741,49.295,39.99,48.086L63.15,24.926C68.732,19.345,69.309,13.468,63.15,7.309C56.992,1.151,51.115,1.728,45.533,7.309ZM48.647,10.423C52.63,6.441,55.748,6.135,60.036,10.423C64.325,14.712,64.019,17.83,60.036,21.812L36.902,44.947C36.335,45.495,35.024,46.154,34.272,46.261L25.436,47.524C23.684,47.765,22.68,46.765,22.935,45.032L24.198,36.187C24.307,35.409,24.959,34.112,25.513,33.558L48.647,10.423Z"/>
  <path stroke-linejoin="round" fill-rule="nonzero" stroke-opacity="1" stroke-width="1.5px" stroke-linecap="round" stroke="none" fill="#000000" fill-opacity="1" stroke-miterlimit="10" stroke-dasharray="none" d="M41.653,12.778C43.827,20.534,49.893,26.6,57.676,28.805C58.846,29.137,60.063,28.457,60.394,27.287C60.726,26.117,60.046,24.9,58.876,24.568C52.566,22.78,47.653,17.867,45.893,11.589C45.565,10.418,44.35,9.735,43.179,10.064C42.008,10.392,41.325,11.607,41.653,12.778Z"/>
</g>
  <g id="Light-M" transform="matrix(1.0,0.0,0.0,1.0,1119.19001953125,1055.5400390625)">  <path stroke="none" stroke-dasharray="none" stroke-miterlimit="4" fill-opacity="1" stroke-linejoin="round" stroke-opacity="1" stroke-linecap="round" stroke-width="1.5px" fill-rule="nonzero" fill="#000000" d="M32.294,4.037L26.422,4.037C10.73,4.037,4.037,10.73,4.037,26.422L4.037,44.037C4.037,59.73,10.73,66.423,26.422,66.423L44.037,66.423C59.73,66.423,66.423,59.73,66.423,44.037L66.423,38.166C66.423,37.152,65.602,36.331,64.588,36.331C63.575,36.331,62.753,37.152,62.753,38.166L62.753,44.037C62.753,57.703,57.703,62.753,44.037,62.753L26.422,62.753C12.757,62.753,7.707,57.703,7.707,44.037L7.707,26.422C7.707,12.757,12.757,7.707,26.422,7.707L32.294,7.707C33.308,7.707,34.129,6.885,34.129,5.872C34.129,4.858,33.308,4.037,32.294,4.037Z"/>
  <path stroke-dasharray="none" fill-opacity="1" fill-rule="nonzero" stroke-miterlimit="10" stroke-linejoin="round" stroke="none" fill="#000000" stroke-opacity="1" stroke-width="1.5px" stroke-linecap="round" d="M45.793,7.569L22.659,30.703C21.487,31.875,20.431,33.976,20.201,35.622L18.94,44.453C18.294,48.853,21.583,52.129,25.997,51.521L34.843,50.258C36.452,50.028,38.541,48.978,39.735,47.822L62.891,24.667C68.339,19.218,68.894,13.571,62.891,7.569C56.888,1.566,51.241,2.12,45.793,7.569ZM48.388,10.164C52.504,6.048,55.852,5.719,60.296,10.164C64.74,14.608,64.412,17.956,60.296,22.072L37.162,45.206C36.535,45.812,35.154,46.506,34.324,46.625L25.487,47.887C23.493,48.162,22.281,46.955,22.571,44.979L23.835,36.135C23.954,35.279,24.643,33.908,25.254,33.298L48.388,10.164Z"/>
  <path fill-rule="nonzero" stroke-dasharray="none" fill="#000000" stroke-linejoin="round" stroke="none" fill-opacity="1" stroke-miterlimit="10" stroke-width="1.5px" stroke-opacity="1" stroke-linecap="round" d="M42.006,12.679C44.146,20.312,50.116,26.282,57.776,28.452C58.751,28.728,59.765,28.162,60.041,27.187C60.318,26.212,59.751,25.198,58.776,24.921C52.344,23.099,47.334,18.089,45.54,11.688C45.266,10.713,44.253,10.143,43.278,10.417C42.302,10.69,41.733,11.703,42.006,12.679Z"/>
</g>
  <g id="Thin-M" transform="matrix(1.0,0.0,0.0,1.0,822.48001953125,1055.5400390625)">  <path stroke="none" stroke-linejoin="round" stroke-miterlimit="4" stroke-opacity="1" fill-opacity="1" fill="#000000" fill-rule="nonzero" stroke-linecap="round" stroke-width="1.5px" stroke-dasharray="none" d="M32.294,4.404L26.422,4.404C10.933,4.404,4.404,10.933,4.404,26.422L4.404,44.037C4.404,59.527,10.933,66.056,26.422,66.056L44.037,66.056C59.527,66.056,66.056,59.527,66.056,44.037L66.056,38.166C66.056,37.355,65.399,36.698,64.588,36.698C63.778,36.698,63.12,37.355,63.12,38.166L63.12,44.037C63.12,57.906,57.906,63.12,44.037,63.12L26.422,63.12C12.554,63.12,7.34,57.906,7.34,44.037L7.34,26.422C7.34,12.554,12.554,7.34,26.422,7.34L32.294,7.34C33.105,7.34,33.762,6.682,33.762,5.872C33.762,5.061,33.105,4.404,32.294,4.404Z"/>
  <path stroke-dasharray="none" stroke-linejoin="round" stroke-width="1.5px" stroke-linecap="round" fill="#000000" stroke-opacity="1" stroke-miterlimit="10" stroke="none" fill-rule="nonzero" fill-opacity="1" d="M46.052,7.828L22.918,30.963C21.803,32.078,20.783,34.106,20.565,35.673L19.303,44.505C18.692,48.663,21.774,51.732,25.947,51.158L34.791,49.894C36.322,49.676,38.34,48.661,39.48,47.558L62.631,24.407C67.947,19.092,68.478,13.675,62.631,7.828C56.785,1.981,51.368,2.513,46.052,7.828ZM48.128,9.904C52.377,5.655,55.955,5.304,60.555,9.904C65.156,14.504,64.804,18.082,60.555,22.331L37.421,45.466C36.736,46.128,35.283,46.858,34.376,46.988L25.539,48.25C23.302,48.558,21.883,47.145,22.208,44.926L23.472,36.083C23.602,35.148,24.327,33.705,24.994,33.039L48.128,9.904Z"/>
  <path fill="#000000" stroke="none" stroke-miterlimit="10" stroke-width="1.5px" stroke-opacity="1" stroke-linecap="round" fill-opacity="1" stroke-linejoin="round" stroke-dasharray="none" fill-rule="nonzero" d="M42.36,12.58C44.465,20.089,50.339,25.964,57.876,28.099C58.656,28.32,59.467,27.867,59.688,27.087C59.909,26.307,59.456,25.495,58.676,25.274C52.121,23.417,47.015,18.311,45.186,11.787C44.968,11.007,44.157,10.551,43.377,10.77C42.596,10.989,42.141,11.799,42.36,12.58Z"/>
</g>
  <g id="Ultralight-M" transform="matrix(1.0,0.0,0.0,1.0,525.77001953125,1055.5400390625)">  <path fill-rule="nonzero" fill-opacity="1" fill="#000000" stroke-linecap="round" stroke="none" stroke-opacity="1" stroke-miterlimit="4" stroke-width="1.5px" stroke-linejoin="round" stroke-dasharray="none" d="M32.294,4.771L26.422,4.771C11.135,4.771,4.771,11.135,4.771,26.422L4.771,44.037C4.771,59.325,11.135,65.689,26.422,65.689L44.037,65.689C59.325,65.689,65.689,59.325,65.689,44.037L65.689,38.166C65.689,37.558,65.196,37.065,64.588,37.065C63.98,37.065,63.487,37.558,63.487,38.166L63.487,44.037C63.487,58.109,58.109,63.487,44.037,63.487L26.422,63.487C12.351,63.487,6.973,58.109,6.973,44.037L6.973,26.422C6.973,12.351,12.351,6.973,26.422,6.973L32.294,6.973C32.902,6.973,33.395,6.48,33.395,5.872C33.395,5.264,32.902,4.771,32.294,4.771Z"/>
  <path stroke-opacity="1" stroke-width="1.5px" fill="#000000" stroke-miterlimit="10" stroke-dasharray="none" stroke="none" fill-opacity="1" stroke-linejoin="round" fill-rule="nonzero" stroke-linecap="round" d="M46.312,8.088L23.178,31.222C22.118,32.281,21.136,34.237,20.928,35.724L19.666,44.557C19.091,48.473,21.965,51.335,25.897,50.794L34.739,49.531C36.192,49.324,38.14,48.345,39.225,47.295L62.372,24.148C67.554,18.966,68.063,13.779,62.372,8.088C56.681,2.397,51.494,2.906,46.312,8.088ZM47.869,9.645C52.251,5.263,56.059,4.889,60.815,9.645C65.571,14.401,65.197,18.209,60.815,22.591L37.681,45.725C36.936,46.445,35.413,47.211,34.428,47.351L25.591,48.614C23.111,48.955,21.484,47.335,21.845,44.873L23.108,36.032C23.25,35.018,24.012,33.502,24.735,32.779L47.869,9.645Z"/>
  <path stroke="none" fill-rule="nonzero" stroke-linecap="round" fill-opacity="1" stroke-miterlimit="10" fill="#000000" stroke-linejoin="round" stroke-width="1.5px" stroke-dasharray="none" stroke-opacity="1" d="M42.713,12.481C44.783,19.867,50.562,25.645,57.976,27.746C58.561,27.912,59.169,27.572,59.335,26.987C59.501,26.402,59.161,25.793,58.576,25.627C51.898,23.735,46.696,18.534,44.833,11.887C44.669,11.301,44.061,10.96,43.476,11.124C42.89,11.288,42.549,11.895,42.713,12.481Z"/>
</g>
  <g id="Black-S" transform="matrix(1.0,0.0,0.0,1.0,2907.0949252929686,633.1849448242187)">  <path fill="#000000" fill-opacity="1" stroke-linejoin="round" stroke-linecap="round" stroke-opacity="1" stroke-dasharray="none" stroke-miterlimit="4" stroke="none" stroke-width="1.5px" fill-rule="nonzero" d="M25.286,0.787L20.689,0.787C7.091,0.787,0.787,7.091,0.787,20.689L0.787,34.481C0.787,48.079,7.091,54.383,20.689,54.383L34.481,54.383C48.079,54.383,54.383,48.079,54.383,34.481L54.383,29.884C54.383,27.78,52.677,26.074,50.573,26.074C48.468,26.074,46.762,27.78,46.762,29.884L46.762,34.481C46.762,43.871,43.871,46.762,34.481,46.762L20.689,46.762C11.299,46.762,8.408,43.871,8.408,34.481L8.408,20.689C8.408,11.299,11.299,8.408,20.689,8.408L25.286,8.408C27.391,8.408,29.097,6.702,29.097,4.598C29.097,2.493,27.391,0.787,25.286,0.787Z"/>
  <path stroke-miterlimit="10" fill-rule="nonzero" stroke-opacity="1" stroke="none" stroke-linejoin="round" stroke-linecap="round" fill="#000000" stroke-dasharray="none" fill-opacity="1" stroke-width="1.5px" d="M34.178,4.248L16.063,22.362C14.783,23.642,13.718,25.761,13.467,27.564L12.48,34.471C11.745,39.479,15.664,43.383,20.679,42.693L27.618,41.701C29.381,41.449,31.474,40.397,32.763,39.15L32.808,39.107L50.922,20.992C56.05,15.864,56.63,9.956,50.922,4.248C45.214,-1.46,39.306,-0.88,34.178,4.248ZM39.566,9.636C41.927,7.276,43.062,7.164,45.533,9.636C48.005,12.108,47.894,13.243,45.533,15.604L27.419,33.718L30.113,36.412L27.464,33.674C27.31,33.823,26.686,34.137,26.54,34.158L19.621,35.146C19.556,35.155,19.526,35.153,19.54,35.157C19.624,35.182,19.726,35.242,19.817,35.333C19.911,35.427,19.976,35.536,20.004,35.63C20.012,35.656,20.011,35.638,20.022,35.563L21.012,28.63C21.035,28.466,21.337,27.866,21.452,27.751L39.566,9.636Z"/>
  <path fill-rule="nonzero" stroke-miterlimit="10" stroke-linejoin="round" stroke-linecap="round" fill-opacity="1" fill="#000000" stroke-opacity="1" stroke-dasharray="none" stroke-width="1.5px" stroke="none" d="M30.605,10.568C32.504,17.341,37.8,22.637,44.591,24.562C46.616,25.135,48.722,23.959,49.296,21.934C49.87,19.91,48.693,17.803,46.669,17.23C42.426,16.028,39.125,12.727,37.943,8.511C37.375,6.485,35.272,5.303,33.246,5.871C31.22,6.439,30.037,8.542,30.605,10.568Z"/>
</g>
  <g id="Heavy-S" transform="matrix(1.0,0.0,0.0,1.0,2610.3849252929685,633.1849448242187)">  <path stroke="none" stroke-opacity="1" stroke-dasharray="none" stroke-linejoin="round" fill-opacity="1" stroke-miterlimit="4" fill-rule="nonzero" stroke-linecap="round" fill="#000000" stroke-width="1.5px" d="M25.286,1.205L20.689,1.205C7.321,1.205,1.205,7.321,1.205,20.689L1.205,34.481C1.205,47.849,7.321,53.966,20.689,53.966L34.481,53.966C47.849,53.966,53.966,47.849,53.966,34.481L53.966,29.884C53.966,28.01,52.447,26.491,50.573,26.491C48.699,26.491,47.18,28.01,47.18,29.884L47.18,34.481C47.18,44.101,44.101,47.18,34.481,47.18L20.689,47.18C11.069,47.18,7.99,44.101,7.99,34.481L7.99,20.689C7.99,11.069,11.069,7.99,20.689,7.99L25.286,7.99C27.16,7.99,28.679,6.471,28.679,4.598C28.679,2.724,27.16,1.205,25.286,1.205Z"/>
  <path stroke="none" stroke-linejoin="round" stroke-linecap="round" fill-rule="nonzero" stroke-opacity="1" stroke-miterlimit="10" stroke-dasharray="none" fill="#000000" fill-opacity="1" stroke-width="1.5px" d="M34.473,4.543L16.358,22.657C15.142,23.874,14.119,25.909,13.88,27.622L12.893,34.53C12.198,39.263,15.882,42.932,20.622,42.279L27.559,41.288C29.234,41.049,31.246,40.037,32.473,38.85L32.513,38.811L50.627,20.697C55.603,15.721,56.158,10.074,50.627,4.543C45.096,-0.988,39.449,-0.433,34.473,4.543ZM39.271,9.341C41.783,6.829,43.179,6.692,45.828,9.341C48.478,11.991,48.341,13.387,45.828,15.899L27.714,34.013L30.113,36.412L27.754,33.974C27.538,34.183,26.833,34.537,26.599,34.571L19.68,35.559C19.555,35.576,19.464,35.57,19.419,35.556C19.439,35.562,19.481,35.587,19.523,35.629C19.567,35.673,19.596,35.722,19.605,35.75C19.594,35.716,19.589,35.636,19.609,35.503L20.599,28.571C20.635,28.317,20.978,27.635,21.157,27.456L39.271,9.341Z"/>
  <path fill-rule="nonzero" stroke-width="1.5px" fill="#000000" stroke="none" fill-opacity="1" stroke-dasharray="none" stroke-linecap="round" stroke-opacity="1" stroke-miterlimit="10" stroke-linejoin="round" d="M31.007,10.456C32.867,17.089,38.054,22.276,44.705,24.16C46.508,24.671,48.384,23.624,48.895,21.821C49.405,20.018,48.358,18.142,46.555,17.631C42.173,16.39,38.762,12.979,37.541,8.624C37.035,6.82,35.163,5.767,33.358,6.273C31.554,6.779,30.501,8.651,31.007,10.456Z"/>
</g>
  <g id="Bold-S" transform="matrix(1.0,0.0,0.0,1.0,2313.6749252929685,633.1849448242187)">  <path stroke-opacity="1" stroke-dasharray="none" stroke-miterlimit="4" stroke-linejoin="round" stroke-linecap="round" fill-rule="nonzero" fill-opacity="1" stroke-width="1.5px" stroke="none" fill="#000000" d="M25.286,1.622L20.689,1.622C7.552,1.622,1.622,7.552,1.622,20.689L1.622,34.481C1.622,47.619,7.552,53.548,20.689,53.548L34.481,53.548C47.619,53.548,53.548,47.619,53.548,34.481L53.548,29.884C53.548,28.24,52.216,26.908,50.573,26.908C48.929,26.908,47.597,28.24,47.597,29.884L47.597,34.481C47.597,44.332,44.332,47.597,34.481,47.597L20.689,47.597C10.838,47.597,7.573,44.332,7.573,34.481L7.573,20.689C7.573,10.838,10.838,7.573,20.689,7.573L25.286,7.573C26.93,7.573,28.262,6.241,28.262,4.598C28.262,2.954,26.93,1.622,25.286,1.622Z"/>
  <path stroke-miterlimit="10" stroke-dasharray="none" stroke="none" stroke-width="1.5px" fill-opacity="1" fill-rule="nonzero" stroke-opacity="1" fill="#000000" stroke-linecap="round" stroke-linejoin="round" d="M34.768,4.838L16.653,22.952C15.501,24.105,14.52,26.057,14.293,27.68L13.306,34.589C12.652,39.047,16.099,42.481,20.565,41.866L27.5,40.875C29.086,40.649,31.018,39.678,32.183,38.551L32.218,38.516L50.332,20.402C55.157,15.577,55.686,10.192,50.332,4.838C44.978,-0.516,39.593,0.013,34.768,4.838ZM38.976,9.046C41.64,6.383,43.297,6.22,46.124,9.046C48.95,11.873,48.787,13.53,46.124,16.194L28.009,34.308L30.113,36.412L28.044,34.274C27.766,34.543,26.981,34.938,26.658,34.984L19.739,35.972C19.196,36.047,19.119,35.97,19.196,35.442L20.186,28.512C20.205,28.377,20.301,28.095,20.451,27.798C20.6,27.501,20.77,27.252,20.862,27.161L38.976,9.046Z"/>
  <path stroke-width="1.5px" stroke-linejoin="round" stroke-miterlimit="10" stroke-linecap="round" stroke-dasharray="none" fill-opacity="1" fill-rule="nonzero" stroke-opacity="1" stroke="none" fill="#000000" d="M31.409,10.343C33.229,16.836,38.307,21.914,44.819,23.759C46.4,24.207,48.045,23.288,48.493,21.707C48.941,20.126,48.022,18.481,46.441,18.033C41.919,16.751,38.4,13.232,37.14,8.737C36.696,7.154,35.053,6.231,33.471,6.675C31.889,7.118,30.965,8.761,31.409,10.343Z"/>
</g>
  <g id="Semibold-S" transform="matrix(1.0,0.0,0.0,1.0,2016.9649252929687,633.1849448242187)">  <path fill-opacity="1" fill-rule="nonzero" stroke-dasharray="none" stroke-linejoin="round" stroke-width="1.5px" stroke="none" stroke-miterlimit="4" fill="#000000" stroke-opacity="1" stroke-linecap="round" d="M25.286,2.039L20.689,2.039C7.782,2.039,2.039,7.782,2.039,20.689L2.039,34.481C2.039,47.388,7.782,53.131,20.689,53.131L34.481,53.131C47.388,53.131,53.131,47.388,53.131,34.481L53.131,29.884C53.131,28.471,51.986,27.325,50.573,27.325C49.16,27.325,48.014,28.471,48.014,29.884L48.014,34.481C48.014,44.562,44.562,48.014,34.481,48.014L20.689,48.014C10.608,48.014,7.156,44.562,7.156,34.481L7.156,20.689C7.156,10.608,10.608,7.156,20.689,7.156L25.286,7.156C26.699,7.156,27.845,6.011,27.845,4.598C27.845,3.184,26.699,2.039,25.286,2.039Z"/>
  <path stroke-dasharray="none" fill-rule="nonzero" stroke-opacity="1" fill-opacity="1" stroke-miterlimit="10" stroke-linecap="round" fill="#000000" stroke-linejoin="round" stroke="none" stroke-width="1.5px" d="M35.063,5.133L16.948,23.247C15.86,24.336,14.92,26.205,14.706,27.737L13.719,34.648C13.105,38.832,16.316,42.03,20.509,41.453L27.441,40.462C28.939,40.248,30.79,39.318,31.893,38.251L50.037,20.107C54.71,15.434,55.213,10.31,50.037,5.133C44.86,-0.043,39.736,0.46,35.063,5.133ZM38.681,8.751C41.496,5.936,43.415,5.748,46.419,8.751C49.422,11.755,49.234,13.674,46.419,16.489L28.304,34.603C27.994,34.903,27.128,35.338,26.717,35.397L19.798,36.385C18.979,36.498,18.665,36.186,18.783,35.382L19.773,28.453C19.833,28.021,20.26,27.172,20.567,26.866L38.681,8.751Z"/>
  <path stroke-miterlimit="10" stroke-width="1.5px" stroke="none" fill-rule="nonzero" stroke-opacity="1" fill-opacity="1" stroke-linejoin="round" stroke-linecap="round" stroke-dasharray="none" fill="#000000" d="M31.811,10.23C33.592,16.583,38.56,21.552,44.933,23.357C46.292,23.743,47.707,22.953,48.092,21.593C48.477,20.234,47.687,18.819,46.328,18.434C41.666,17.113,38.037,13.484,36.738,8.849C36.356,7.489,34.944,6.695,33.584,7.076C32.223,7.458,31.429,8.87,31.811,10.23Z"/>
</g>
  <g id="Medium-S" transform="matrix(1.0,0.0,0.0,1.0,1720.2549252929687,633.1849448242187)">  <path stroke-dasharray="none" stroke-miterlimit="4" stroke-linejoin="round" stroke-width="1.5px" fill="#000000" stroke="none" stroke-opacity="1" stroke-linecap="round" fill-rule="nonzero" fill-opacity="1" d="M25.286,2.456L20.689,2.456C8.012,2.456,2.456,8.012,2.456,20.689L2.456,34.481C2.456,47.158,8.012,52.714,20.689,52.714L34.481,52.714C47.158,52.714,52.714,47.158,52.714,34.481L52.714,29.884C52.714,28.701,51.755,27.743,50.573,27.743C49.39,27.743,48.431,28.701,48.431,29.884L48.431,34.481C48.431,44.793,44.793,48.431,34.481,48.431L20.689,48.431C10.378,48.431,6.739,44.793,6.739,34.481L6.739,20.689C6.739,10.378,10.378,6.739,20.689,6.739L25.286,6.739C26.469,6.739,27.428,5.78,27.428,4.598C27.428,3.415,26.469,2.456,25.286,2.456Z"/>
  <path stroke-opacity="1" fill-opacity="1" stroke="none" fill-rule="nonzero" stroke-linejoin="round" stroke-linecap="round" stroke-miterlimit="10" stroke-dasharray="none" stroke-width="1.5px" fill="#000000" d="M35.358,5.428L17.243,23.542C16.218,24.567,15.321,26.353,15.12,27.795L14.132,34.707C13.558,38.616,16.533,41.579,20.452,41.039L27.382,40.049C28.791,39.848,30.562,38.958,31.603,37.951L49.742,19.812C54.264,15.29,54.741,10.427,49.742,5.428C44.742,0.429,39.88,0.906,35.358,5.428ZM38.386,8.456C41.353,5.49,43.533,5.276,46.714,8.456C49.894,11.637,49.68,13.817,46.714,16.784L28.599,34.898C28.222,35.263,27.276,35.738,26.776,35.81L19.857,36.798C18.761,36.949,18.212,36.402,18.371,35.321L19.36,28.394C19.433,27.873,19.901,26.941,20.272,26.571L38.386,8.456Z"/>
  <path stroke-opacity="1" fill-rule="nonzero" stroke-linecap="round" stroke="none" fill-opacity="1" stroke-linejoin="round" stroke-width="1.5px" stroke-miterlimit="10" stroke-dasharray="none" fill="#000000" d="M32.212,10.118C33.954,16.331,38.813,21.19,45.046,22.956C46.184,23.278,47.368,22.617,47.69,21.479C48.013,20.342,47.352,19.158,46.214,18.836C41.413,17.475,37.675,13.737,36.336,8.962C36.017,7.823,34.835,7.159,33.696,7.478C32.558,7.797,31.893,8.979,32.212,10.118Z"/>
</g>
  <g id="Regular-S" transform="matrix(1.0,0.0,0.0,1.0,1423.5449252929686,633.1849448242187)">  <path stroke-opacity="1" stroke="none" stroke-width="1.5px" stroke-linejoin="round" fill-opacity="1" fill-rule="nonzero" fill="#000000" stroke-miterlimit="4" stroke-dasharray="none" stroke-linecap="round" d="M25.286,2.873L20.689,2.873C8.243,2.873,2.873,8.243,2.873,20.689L2.873,34.481C2.873,46.927,8.243,52.297,20.689,52.297L34.481,52.297C46.927,52.297,52.297,46.927,52.297,34.481L52.297,29.884C52.297,28.932,51.525,28.16,50.573,28.16C49.62,28.16,48.849,28.932,48.849,29.884L48.849,34.481C48.849,45.023,45.023,48.849,34.481,48.849L20.689,48.849C10.147,48.849,6.322,45.023,6.322,34.481L6.322,20.689C6.322,10.147,10.147,6.322,20.689,6.322L25.286,6.322C26.238,6.322,27.01,5.55,27.01,4.598C27.01,3.645,26.238,2.873,25.286,2.873Z"/>
  <path stroke-linejoin="round" stroke-dasharray="none" fill-rule="nonzero" stroke-linecap="round" stroke-opacity="1" stroke="none" stroke-width="1.5px" fill-opacity="1" stroke-miterlimit="10" fill="#000000" d="M35.653,5.723L17.538,23.837C16.577,24.799,15.721,26.501,15.533,27.853L14.545,34.766C14.012,38.4,16.75,41.127,20.395,40.626L27.323,39.636C28.643,39.448,30.334,38.598,31.312,37.651L49.447,19.517C53.817,15.147,54.269,10.545,49.447,5.723C44.625,0.901,40.023,1.353,35.653,5.723ZM38.091,8.161C41.209,5.043,43.651,4.803,47.009,8.161C50.366,11.519,50.127,13.961,47.009,17.079L28.894,35.193C28.45,35.623,27.424,36.139,26.835,36.223L19.916,37.211C18.544,37.4,17.759,36.617,17.958,35.26L18.947,28.335C19.032,27.725,19.543,26.71,19.977,26.276L38.091,8.161Z"/>
  <path stroke-linejoin="round" fill-rule="nonzero" stroke-opacity="1" stroke-width="1.5px" stroke-linecap="round" stroke="none" fill="#000000" fill-opacity="1" stroke-miterlimit="10" stroke-dasharray="none" d="M32.614,10.005C34.317,16.078,39.067,20.828,45.16,22.554C46.076,22.814,47.029,22.282,47.289,21.366C47.548,20.45,47.016,19.496,46.1,19.237C41.16,17.837,37.312,13.99,35.934,9.074C35.677,8.158,34.726,7.623,33.809,7.88C32.892,8.137,32.357,9.088,32.614,10.005Z"/>
</g>
  <g id="Light-S" transform="matrix(1.0,0.0,0.0,1.0,1126.8349252929688,633.1849448242187)">  <path stroke="none" stroke-dasharray="none" stroke-miterlimit="4" fill-opacity="1" stroke-linejoin="round" stroke-opacity="1" stroke-linecap="round" stroke-width="1.5px" fill-rule="nonzero" fill="#000000" d="M25.286,3.161L20.689,3.161C8.402,3.161,3.161,8.402,3.161,20.689L3.161,34.481C3.161,46.769,8.402,52.009,20.689,52.009L34.481,52.009C46.769,52.009,52.009,46.769,52.009,34.481L52.009,29.884C52.009,29.09,51.366,28.447,50.573,28.447C49.779,28.447,49.136,29.09,49.136,29.884L49.136,34.481C49.136,45.182,45.182,49.136,34.481,49.136L20.689,49.136C9.989,49.136,6.034,45.182,6.034,34.481L6.034,20.689C6.034,9.989,9.989,6.034,20.689,6.034L25.286,6.034C26.08,6.034,26.723,5.391,26.723,4.598C26.723,3.804,26.08,3.161,25.286,3.161Z"/>
  <path stroke-dasharray="none" fill-opacity="1" fill-rule="nonzero" stroke-miterlimit="10" stroke-linejoin="round" stroke="none" fill="#000000" stroke-opacity="1" stroke-width="1.5px" stroke-linecap="round" d="M35.856,5.926L17.742,24.041C16.824,24.958,15.997,26.603,15.817,27.892L14.83,34.807C14.324,38.252,16.9,40.817,20.356,40.341L27.282,39.352C28.542,39.172,30.177,38.35,31.113,37.445L49.244,19.314C53.51,15.048,53.944,10.626,49.244,5.926C44.543,1.226,40.122,1.66,35.856,5.926ZM37.888,7.958C41.11,4.736,43.732,4.478,47.212,7.958C50.692,11.438,50.434,14.06,47.212,17.282L29.098,35.396C28.607,35.871,27.525,36.414,26.876,36.507L19.957,37.496C18.395,37.711,17.446,36.766,17.673,35.219L18.663,28.294C18.756,27.623,19.296,26.55,19.773,26.072L37.888,7.958Z"/>
  <path fill-rule="nonzero" stroke-dasharray="none" fill="#000000" stroke-linejoin="round" stroke="none" fill-opacity="1" stroke-miterlimit="10" stroke-width="1.5px" stroke-opacity="1" stroke-linecap="round" d="M32.891,9.928C34.566,15.904,39.241,20.579,45.238,22.278C46.002,22.494,46.796,22.051,47.012,21.287C47.229,20.524,46.785,19.73,46.022,19.513C40.985,18.086,37.063,14.164,35.658,9.152C35.443,8.388,34.65,7.942,33.886,8.156C33.122,8.371,32.677,9.164,32.891,9.928Z"/>
</g>
  <g id="Thin-S" transform="matrix(1.0,0.0,0.0,1.0,830.1249252929688,633.1849448242187)">  <path stroke="none" stroke-linejoin="round" stroke-miterlimit="4" stroke-opacity="1" fill-opacity="1" fill="#000000" fill-rule="nonzero" stroke-linecap="round" stroke-width="1.5px" stroke-dasharray="none" d="M25.286,3.448L20.689,3.448C8.56,3.448,3.448,8.56,3.448,20.689L3.448,34.481C3.448,46.61,8.56,51.722,20.689,51.722L34.481,51.722C46.61,51.722,51.722,46.61,51.722,34.481L51.722,29.884C51.722,29.249,51.207,28.734,50.573,28.734C49.938,28.734,49.423,29.249,49.423,29.884L49.423,34.481C49.423,45.34,45.34,49.423,34.481,49.423L20.689,49.423C9.83,49.423,5.747,45.34,5.747,34.481L5.747,20.689C5.747,9.83,9.83,5.747,20.689,5.747L25.286,5.747C25.921,5.747,26.436,5.232,26.436,4.598C26.436,3.963,25.921,3.448,25.286,3.448Z"/>
  <path stroke-dasharray="none" stroke-linejoin="round" stroke-width="1.5px" stroke-linecap="round" fill="#000000" stroke-opacity="1" stroke-miterlimit="10" stroke="none" fill-rule="nonzero" fill-opacity="1" d="M36.059,6.13L17.945,24.244C17.072,25.117,16.273,26.705,16.102,27.932L15.114,34.848C14.636,38.103,17.049,40.506,20.317,40.057L27.242,39.067C28.44,38.896,30.02,38.102,30.913,37.238L49.04,19.111C53.202,14.949,53.618,10.708,49.04,6.13C44.462,1.551,40.221,1.968,36.059,6.13ZM37.685,7.755C41.011,4.428,43.813,4.153,47.415,7.755C51.017,11.357,50.742,14.158,47.415,17.485L29.301,35.6C28.764,36.119,27.627,36.69,26.917,36.792L19.997,37.78C18.245,38.021,17.134,36.914,17.389,35.177L18.378,28.253C18.48,27.521,19.048,26.391,19.57,25.869L37.685,7.755Z"/>
  <path fill="#000000" stroke="none" stroke-miterlimit="10" stroke-width="1.5px" stroke-opacity="1" stroke-linecap="round" fill-opacity="1" stroke-linejoin="round" stroke-dasharray="none" fill-rule="nonzero" d="M33.168,9.85C34.816,15.73,39.415,20.329,45.317,22.002C45.927,22.175,46.563,21.82,46.736,21.209C46.909,20.598,46.554,19.963,45.943,19.79C40.811,18.336,36.813,14.338,35.381,9.23C35.21,8.618,34.575,8.262,33.964,8.433C33.353,8.604,32.996,9.239,33.168,9.85Z"/>
</g>
  <g id="Ultralight-S" transform="matrix(1.0,0.0,0.0,1.0,533.4149252929687,633.1849448242187)">  <path fill-rule="nonzero" fill-opacity="1" fill="#000000" stroke-linecap="round" stroke="none" stroke-opacity="1" stroke-miterlimit="4" stroke-width="1.5px" stroke-linejoin="round" stroke-dasharray="none" d="M25.286,3.735L20.689,3.735C8.719,3.735,3.735,8.719,3.735,20.689L3.735,34.481C3.735,46.451,8.719,51.435,20.689,51.435L34.481,51.435C46.451,51.435,51.435,46.451,51.435,34.481L51.435,29.884C51.435,29.408,51.049,29.022,50.573,29.022C50.097,29.022,49.711,29.408,49.711,29.884L49.711,34.481C49.711,45.499,45.499,49.711,34.481,49.711L20.689,49.711C9.671,49.711,5.46,45.499,5.46,34.481L5.46,20.689C5.46,9.671,9.671,5.46,20.689,5.46L25.286,5.46C25.762,5.46,26.148,5.074,26.148,4.598C26.148,4.121,25.762,3.735,25.286,3.735Z"/>
  <path stroke-opacity="1" stroke-width="1.5px" fill="#000000" stroke-miterlimit="10" stroke-dasharray="none" stroke="none" fill-opacity="1" stroke-linejoin="round" fill-rule="nonzero" stroke-linecap="round" d="M36.262,6.333L18.148,24.447C17.319,25.276,16.549,26.807,16.387,27.972L15.399,34.888C14.948,37.955,17.199,40.196,20.277,39.772L27.201,38.783C28.338,38.62,29.863,37.854,30.713,37.032L48.837,18.908C52.895,14.85,53.293,10.789,48.837,6.333C44.381,1.877,40.32,2.275,36.262,6.333ZM37.481,7.552C40.913,4.121,43.894,3.828,47.618,7.552C51.342,11.276,51.049,14.257,47.618,17.689L29.504,35.803C28.921,36.366,27.729,36.966,26.957,37.076L20.038,38.065C18.096,38.332,16.822,37.063,17.105,35.135L18.094,28.213C18.204,27.419,18.801,26.232,19.367,25.666L37.481,7.552Z"/>
  <path stroke="none" fill-rule="nonzero" stroke-linecap="round" fill-opacity="1" stroke-miterlimit="10" fill="#000000" stroke-linejoin="round" stroke-width="1.5px" stroke-dasharray="none" stroke-opacity="1" d="M33.444,9.773C35.065,15.556,39.59,20.08,45.395,21.725C45.853,21.855,46.33,21.589,46.459,21.131C46.589,20.673,46.323,20.196,45.865,20.066C40.636,18.585,36.563,14.512,35.104,9.307C34.976,8.849,34.5,8.581,34.042,8.71C33.583,8.838,33.316,9.314,33.444,9.773Z"/>
</g>
 </g>
</svg>
