<?xml version="1.0" encoding="UTF-8"?>
<!-- Generator: CustomSymbols v2.6.2.41 by @serious_bret https://bretlester.com/app_content/CustomSymbols/ -->
<!-- Guides: Left/Right 0.0/0.0 Cap/Base 0.227/0.127 -->
<!-- Settings: RefScale 1.0 Min/Max Stroke Scales 0.5/2.21 -->
<!DOCTYPE svg
PUBLIC "-//W3C//DTD SVG 1.1//EN"
       "http://www.w3.org/Graphics/SVG/1.1/DTD/svg11.dtd">
<svg version="1.1" xmlns="http://www.w3.org/2000/svg" xmlns:xlink="http://www.w3.org/1999/xlink" width="3300" height="2200">
<![CDATA[<svg width="20" height="21" viewBox="0 0 20 21" fill="none" xmlns="http://www.w3.org/2000/svg">
<path d="M2 3.78317V18.3692C2 19.2592 3.077 19.7062 3.707 19.0762L10 12.7832L16.293 19.0762C16.923 19.7062 18 19.2602 18 18.3692V3.78317C18 3.25274 17.7893 2.74403 17.4142 2.36896C17.0391 1.99389 16.5304 1.78317 16 1.78317H4C3.46957 1.78317 2.96086 1.99389 2.58579 2.36896C2.21071 2.74403 2 3.25274 2 3.78317V3.78317Z" fill="#B20000" stroke="#B20000" stroke-width="2.25" stroke-linecap="round" stroke-linejoin="round"/>
</svg>
]]>
 <g id="Notes">
  <rect height="2200" id="artboard" style="fill:white;opacity:1" width="3300" x="0" y="0"/>
  <line id="" style="fill:none;stroke:black;opacity:1;stroke-width:0.5;" x1="263" x2="3036" y1="292" y2="292"/>
  <text id="reftext1" style="stroke:none;fill:black;font-family:-apple-system,&quot;SF Pro Display&quot;,&quot;SF Pro Text&quot;,Helvetica,sans-serif;font-weight:bold;" transform="matrix(1 0 0 1 263 322)">Weight/Scale Variations</text>
  <text id="reftext2" style="stroke:none;fill:black;font-family:-apple-system,&quot;SF Pro Display&quot;,&quot;SF Pro Text&quot;,Helvetica,sans-serif;text-anchor:middle;" transform="matrix(1 0 0 1 559.711 322)">Ultralight</text>
  <text style="stroke:none;fill:black;font-family:-apple-system,&quot;SF Pro Display&quot;,&quot;SF Pro Text&quot;,Helvetica,sans-serif;text-anchor:middle;" transform="matrix(1 0 0 1 856.422 322)">Thin</text>
  <text style="stroke:none;fill:black;font-family:-apple-system,&quot;SF Pro Display&quot;,&quot;SF Pro Text&quot;,Helvetica,sans-serif;text-anchor:middle;" transform="matrix(1 0 0 1 1153.13 322)">Light</text>
  <text style="stroke:none;fill:black;font-family:-apple-system,&quot;SF Pro Display&quot;,&quot;SF Pro Text&quot;,Helvetica,sans-serif;text-anchor:middle;" transform="matrix(1 0 0 1 1449.84 322)">Regular</text>
  <text style="stroke:none;fill:black;font-family:-apple-system,&quot;SF Pro Display&quot;,&quot;SF Pro Text&quot;,Helvetica,sans-serif;text-anchor:middle;" transform="matrix(1 0 0 1 1746.56 322)">Medium</text>
  <text style="stroke:none;fill:black;font-family:-apple-system,&quot;SF Pro Display&quot;,&quot;SF Pro Text&quot;,Helvetica,sans-serif;text-anchor:middle;" transform="matrix(1 0 0 1 2043.27 322)">Semibold</text>
  <text style="stroke:none;fill:black;font-family:-apple-system,&quot;SF Pro Display&quot;,&quot;SF Pro Text&quot;,Helvetica,sans-serif;text-anchor:middle;" transform="matrix(1 0 0 1 2339.98 322)">Bold</text>
  <text style="stroke:none;fill:black;font-family:-apple-system,&quot;SF Pro Display&quot;,&quot;SF Pro Text&quot;,Helvetica,sans-serif;text-anchor:middle;" transform="matrix(1 0 0 1 2636.69 322)">Heavy</text>
  <text style="stroke:none;fill:black;font-family:-apple-system,&quot;SF Pro Display&quot;,&quot;SF Pro Text&quot;,Helvetica,sans-serif;text-anchor:middle;" transform="matrix(1 0 0 1 2933.4 322)">Black</text>
  <line id="" style="fill:none;stroke:black;opacity:1;stroke-width:0.5;" x1="263" x2="3036" y1="1903" y2="1903"/>
  <g id="" transform="matrix(1 0 0 1 263 1933)">
   <path d="M9.24805 0.830078C13.5547 0.830078 17.1387-2.74414 17.1387-7.05078C17.1387-11.3574 13.5449-14.9316 9.23828-14.9316C4.94141-14.9316 1.36719-11.3574 1.36719-7.05078C1.36719-2.74414 4.95117 0.830078 9.24805 0.830078ZM9.24805-0.654297C5.70312-0.654297 2.87109-3.49609 2.87109-7.05078C2.87109-10.6055 5.69336-13.4473 9.23828-13.4473C12.793-13.4473 15.6348-10.6055 15.6445-7.05078C15.6543-3.49609 12.8027-0.654297 9.24805-0.654297ZM6.39648-6.31836L8.50586-6.31836L8.50586-4.19922C8.50586-3.75977 8.79883-3.45703 9.22852-3.45703C9.67773-3.45703 9.9707-3.75977 9.9707-4.19922L9.9707-6.31836L12.0996-6.31836C12.5391-6.31836 12.8418-6.61133 12.8418-7.04102C12.8418-7.48047 12.5391-7.7832 12.0996-7.7832L9.9707-7.7832L9.9707-9.89258C9.9707-10.3418 9.67773-10.6445 9.22852-10.6445C8.79883-10.6445 8.50586-10.3418 8.50586-9.89258L8.50586-7.7832L6.39648-7.7832C5.94727-7.7832 5.64453-7.48047 5.64453-7.04102C5.64453-6.61133 5.94727-6.31836 6.39648-6.31836Z"/>
  </g>
  <g id="" transform="matrix(1 0 0 1 281.506 1933)">
   <path d="M11.709 2.91016C17.1582 2.91016 21.6699-1.61133 21.6699-7.05078C21.6699-12.5 17.1484-17.0117 11.6992-17.0117C6.25977-17.0117 1.74805-12.5 1.74805-7.05078C1.74805-1.61133 6.26953 2.91016 11.709 2.91016ZM11.709 1.25C7.09961 1.25 3.41797-2.44141 3.41797-7.05078C3.41797-11.6602 7.08984-15.3516 11.6992-15.3516C16.3086-15.3516 20-11.6602 20.0098-7.05078C20.0195-2.44141 16.3184 1.25 11.709 1.25ZM7.98828-6.23047L10.8789-6.23047L10.8789-3.32031C10.8789-2.83203 11.2109-2.5 11.6895-2.5C12.1777-2.5 12.5195-2.83203 12.5195-3.32031L12.5195-6.23047L15.4297-6.23047C15.918-6.23047 16.25-6.5625 16.25-7.04102C16.25-7.5293 15.918-7.87109 15.4297-7.87109L12.5195-7.87109L12.5195-10.7617C12.5195-11.2695 12.1777-11.6016 11.6895-11.6016C11.2109-11.6016 10.8789-11.2598 10.8789-10.7617L10.8789-7.87109L7.98828-7.87109C7.48047-7.87109 7.14844-7.5293 7.14844-7.04102C7.14844-6.5625 7.49023-6.23047 7.98828-6.23047Z"/>
  </g>
  <g id="" transform="matrix(1 0 0 1 304.924 1933)">
   <path d="M14.9707 5.66406C21.9336 5.66406 27.6953-0.0976562 27.6953-7.05078C27.6953-14.0137 21.9238-19.7754 14.9609-19.7754C8.00781-19.7754 2.25586-14.0137 2.25586-7.05078C2.25586-0.0976562 8.01758 5.66406 14.9707 5.66406ZM14.9707 3.84766C8.93555 3.84766 4.08203-1.01562 4.08203-7.05078C4.08203-13.0957 8.92578-17.9492 14.9609-17.9492C21.0059-17.9492 25.8594-13.0957 25.8691-7.05078C25.8789-1.01562 21.0156 3.84766 14.9707 3.84766ZM10.0586-6.14258L14.0625-6.14258L14.0625-2.12891C14.0625-1.5918 14.4336-1.2207 14.9512-1.2207C15.4883-1.2207 15.8594-1.5918 15.8594-2.12891L15.8594-6.14258L19.8828-6.14258C20.4102-6.14258 20.791-6.51367 20.791-7.03125C20.791-7.56836 20.4199-7.94922 19.8828-7.94922L15.8594-7.94922L15.8594-11.9531C15.8594-12.5098 15.4883-12.8809 14.9512-12.8809C14.4336-12.8809 14.0625-12.5 14.0625-11.9531L14.0625-7.94922L10.0586-7.94922C9.50195-7.94922 9.13086-7.56836 9.13086-7.03125C9.13086-6.51367 9.51172-6.14258 10.0586-6.14258Z"/>
  </g>
  <text style="stroke:none;fill:black;font-family:-apple-system,&quot;SF Pro Display&quot;,&quot;SF Pro Text&quot;,Helvetica,sans-serif;font-weight:bold;" transform="matrix(1 0 0 1 263 1953)">Design Variations</text>
  <text style="stroke:none;fill:black;font-family:-apple-system,&quot;SF Pro Display&quot;,&quot;SF Pro Text&quot;,Helvetica,sans-serif;" transform="matrix(1 0 0 1 263 1971)">Symbols are supported in up to nine weights and three scales.</text>
  <text style="stroke:none;fill:black;font-family:-apple-system,&quot;SF Pro Display&quot;,&quot;SF Pro Text&quot;,Helvetica,sans-serif;" transform="matrix(1 0 0 1 263 1989)">For optimal layout with text and other symbols, vertically align</text>
  <text style="stroke:none;fill:black;font-family:-apple-system,&quot;SF Pro Display&quot;,&quot;SF Pro Text&quot;,Helvetica,sans-serif;" transform="matrix(1 0 0 1 263 2007)">symbols with the adjacent text.</text>
  <line id="" style="fill:none;stroke:#00AEEF;stroke-width:0.5;opacity:1.0;" x1="776" x2="776" y1="1919" y2="1933"/>
  <g id="" transform="matrix(1 0 0 1 776 1933)">
   <path d="M3.31055 0.126953C3.82812 0.126953 4.08203-0.0683594 4.26758-0.605469L5.52734-4.0625L11.2891-4.0625L12.5488-0.605469C12.7344-0.0683594 12.9883 0.126953 13.4961 0.126953C14.0137 0.126953 14.3457-0.185547 14.3457-0.673828C14.3457-0.839844 14.3164-0.986328 14.2383-1.20117L9.6582-13.3887C9.43359-13.9941 9.0332-14.2871 8.4082-14.2871C7.80273-14.2871 7.39258-13.9941 7.17773-13.3984L2.59766-1.19141C2.51953-0.976562 2.49023-0.830078 2.49023-0.664062C2.49023-0.175781 2.80273 0.126953 3.31055 0.126953ZM6.00586-5.53711L8.37891-12.1094L8.42773-12.1094L10.8008-5.53711Z"/>
  </g>
  <line id="" style="fill:none;stroke:#00AEEF;stroke-width:0.5;opacity:1.0;" x1="792.836" x2="792.836" y1="1919" y2="1933"/>
  <text style="stroke:none;fill:black;font-family:-apple-system,&quot;SF Pro Display&quot;,&quot;SF Pro Text&quot;,Helvetica,sans-serif;font-weight:bold;" transform="matrix(1 0 0 1 776 1953)">Margins</text>
  <text style="stroke:none;fill:black;font-family:-apple-system,&quot;SF Pro Display&quot;,&quot;SF Pro Text&quot;,Helvetica,sans-serif;" transform="matrix(1 0 0 1 776 1971)">Leading and trailing margins on the left and right side of each symbol</text>
  <text style="stroke:none;fill:black;font-family:-apple-system,&quot;SF Pro Display&quot;,&quot;SF Pro Text&quot;,Helvetica,sans-serif;" transform="matrix(1 0 0 1 776 1989)">can be adjusted by modifying the x-location of the margin guidelines.</text>
  <text style="stroke:none;fill:black;font-family:-apple-system,&quot;SF Pro Display&quot;,&quot;SF Pro Text&quot;,Helvetica,sans-serif;" transform="matrix(1 0 0 1 776 2007)">Modifications are automatically applied proportionally to all</text>
  <text style="stroke:none;fill:black;font-family:-apple-system,&quot;SF Pro Display&quot;,&quot;SF Pro Text&quot;,Helvetica,sans-serif;" transform="matrix(1 0 0 1 776 2025)">scales and weights.</text>
  <g id="" transform="matrix(1 0 0 1 1289 1933)">
   <path d="M2.8418 1.86523L4.54102 3.57422C5.40039 4.44336 6.38672 4.38477 7.31445 3.35938L17.4902-7.85156C17.7539-7.76367 18.0273-7.7832 18.3398-7.8418L19.4043-8.03711L20.0684-7.36328L20.0293-6.80664C19.9902-6.30859 20.1172-5.92773 20.6055-5.44922L21.3672-4.70703C21.8457-4.22852 22.4609-4.19922 22.9297-4.66797L25.8398-7.58789C26.3086-8.05664 26.2891-8.65234 25.8105-9.13086L25.0391-9.89258C24.5605-10.3711 24.1895-10.5273 23.7109-10.4883L23.1348-10.4395L22.4902-11.0742L22.7344-12.1973C22.8613-12.7637 22.7051-13.2031 22.1191-13.7891L19.9219-15.9766C16.582-19.2969 12.1484-19.2188 9.25781-16.3281C8.83789-15.918 8.80859-15.3418 9.04297-14.9512C9.27734-14.5898 9.73633-14.3555 10.3809-14.5215C11.8457-14.8633 13.3691-14.9219 14.7949-13.9844L14.209-12.5293C14.0137-12.0508 13.9844-11.6504 14.1113-11.2891L3.04688-0.898438C2.06055 0.0195312 1.98242 0.996094 2.8418 1.86523ZM10.752-15.957C13.1836-17.7344 16.4746-17.4316 18.7012-15.2051L21.1328-12.793C21.3672-12.5586 21.4062-12.373 21.3379-12.0312L21.0156-10.5469L22.5195-9.0625L23.5059-9.12109C23.7598-9.13086 23.8379-9.11133 24.0332-8.91602L24.6094-8.33984L22.168-5.89844L21.5918-6.47461C21.3965-6.66992 21.3672-6.74805 21.377-7.01172L21.4453-7.98828L19.9512-9.47266L18.4277-9.21875C18.1055-9.15039 17.959-9.17969 17.7148-9.41406L15.7129-11.416C15.459-11.6504 15.4297-11.8164 15.5859-12.1875L16.4648-14.2773C14.9023-15.7324 12.8711-16.3574 10.8398-15.7617C10.6836-15.7227 10.625-15.8496 10.752-15.957ZM5.27344 2.30469L4.10156 1.14258C3.63281 0.683594 3.74023 0.341797 4.14062-0.0195312L14.9512-10.1953L16.416-8.71094L6.42578 2.27539C6.07422 2.67578 5.74219 2.77344 5.27344 2.30469Z"/>
  </g>
  <text style="stroke:none;fill:black;font-family:-apple-system,&quot;SF Pro Display&quot;,&quot;SF Pro Text&quot;,Helvetica,sans-serif;font-weight:bold;" transform="matrix(1 0 0 1 1289 1953)">Exporting</text>
  <text style="stroke:none;fill:black;font-family:-apple-system,&quot;SF Pro Display&quot;,&quot;SF Pro Text&quot;,Helvetica,sans-serif;" transform="matrix(1 0 0 1 1289 1971)">Symbols should be outlined when exporting to ensure the</text>
  <text style="stroke:none;fill:black;font-family:-apple-system,&quot;SF Pro Display&quot;,&quot;SF Pro Text&quot;,Helvetica,sans-serif;" transform="matrix(1 0 0 1 1289 1989)">design is preserved when submitting to Xcode.</text>
  <text id="template-version" style="stroke:none;fill:black;font-family:-apple-system,&quot;SF Pro Display&quot;,&quot;SF Pro Text&quot;,Helvetica,sans-serif;text-anchor:end;" transform="matrix(1 0 0 1 3036 1933)">Template v.2.0</text>
  <text style="stroke:none;fill:black;font-family:-apple-system,&quot;SF Pro Display&quot;,&quot;SF Pro Text&quot;,Helvetica,sans-serif;text-anchor:end;" transform="matrix(1 0 0 1 3036 1951)">Requires Xcode 12 or greater</text>
  <text style="stroke:none;fill:black;font-family:-apple-system,&quot;SF Pro Display&quot;,&quot;SF Pro Text&quot;,Helvetica,sans-serif;" transform="matrix(1 0 0 1 263 726)">Small</text>
  <text style="stroke:none;fill:black;font-family:-apple-system,&quot;SF Pro Display&quot;,&quot;SF Pro Text&quot;,Helvetica,sans-serif;" transform="matrix(1 0 0 1 263 1156)">Medium</text>
  <text style="stroke:none;fill:black;font-family:-apple-system,&quot;SF Pro Display&quot;,&quot;SF Pro Text&quot;,Helvetica,sans-serif;" transform="matrix(1 0 0 1 263 1586)">Large</text>
 </g>
 <g id="Guides">
  <g id="H-reference" style="fill:#27AAE1;stroke:none;" transform="matrix(1 0 0 1 339 696)">
   <path d="M0.976562 0L3.66211 0L12.9883-24.4629L45.752-24.4629L55.127 0L57.7637 0L30.6152-70.459L28.125-70.459ZM29.3457-67.1387L29.4434-67.1387L44.873-26.709L13.8672-26.709Z"/>
  </g>
  <line id="Baseline-S" style="fill:none;stroke:#27AAE1;opacity:1;stroke-width:0.5;" x1="263" x2="3036" y1="696" y2="696"/>
  <line id="Capline-S" style="fill:none;stroke:#27AAE1;opacity:1;stroke-width:0.5;" x1="263" x2="3036" y1="625.541" y2="625.541"/>
  <g id="H-reference" style="fill:#27AAE1;stroke:none;" transform="matrix(1 0 0 1 339 1126)">
   <path d="M0.976562 0L3.66211 0L12.9883-24.4629L45.752-24.4629L55.127 0L57.7637 0L30.6152-70.459L28.125-70.459ZM29.3457-67.1387L29.4434-67.1387L44.873-26.709L13.8672-26.709Z"/>
  </g>
  <line id="Baseline-M" style="fill:none;stroke:#27AAE1;opacity:1;stroke-width:0.5;" x1="263" x2="3036" y1="1126" y2="1126"/>
  <line id="Capline-M" style="fill:none;stroke:#27AAE1;opacity:1;stroke-width:0.5;" x1="263" x2="3036" y1="1055.54" y2="1055.54"/>
  <g id="H-reference" style="fill:#27AAE1;stroke:none;" transform="matrix(1 0 0 1 339 1556)">
   <path d="M0.976562 0L3.66211 0L12.9883-24.4629L45.752-24.4629L55.127 0L57.7637 0L30.6152-70.459L28.125-70.459ZM29.3457-67.1387L29.4434-67.1387L44.873-26.709L13.8672-26.709Z"/>
  </g>
  <line id="Baseline-L" style="fill:none;stroke:#27AAE1;opacity:1;stroke-width:0.5;" x1="263" x2="3036" y1="1556" y2="1556"/>
  <line id="Capline-L" style="fill:none;stroke:#27AAE1;opacity:1;stroke-width:0.5;" x1="263" x2="3036" y1="1485.54" y2="1485.54"/>
  <line id="left-margin" x1="1399.1913585894883" x2="1399.1913585894883" y1="1030.79" y2="1150.12" style="fill:none;stroke:#00AEEF;stroke-width:0.5;opacity:1.0;"/>
  <line id="right-margin" x1="1503.0686414105114" x2="1503.0686414105114" y1="1030.79" y2="1150.12" style="fill:none;stroke:#00AEEF;stroke-width:0.5;opacity:1.0;"/>
 </g>
 <g id="Symbols">
  <g id="Black-L" transform="matrix(1.0,0.0,0.0,1.0,2867.67915258044,1443.3840407616583)">  <path stroke-miterlimit="4" fill="#000000" stroke-width="2.25px" stroke="none" stroke-linecap="round" fill-rule="nonzero" stroke-dasharray="none" fill-opacity="1" stroke-linejoin="round" stroke-opacity="1" d="M13.4,25.348L13.4,123.075C13.4,129.038,20.616,132.033,24.837,127.812L67.001,85.649L109.164,127.812C113.386,132.033,120.602,129.045,120.602,123.075L120.602,25.348C120.602,21.794,119.19,18.385,116.677,15.872C114.163,13.359,110.755,11.947,107.201,11.947L26.8,11.947C23.246,11.947,19.838,13.359,17.325,15.872C14.812,18.385,13.4,21.794,13.4,25.348L13.4,25.348ZM13.4,25.348"/>
  <path stroke-opacity="1" stroke-linecap="round" fill-opacity="1" stroke-width="2.25px" stroke-miterlimit="4" stroke="none" stroke-linejoin="round" stroke-dasharray="none" fill-rule="nonzero" fill="#000000" d="M-3.258,25.348L-3.258,123.075C-3.258,143.878,21.901,154.307,36.616,139.591L78.78,97.428L55.222,97.428L97.385,139.591C112.1,154.306,137.26,143.886,137.26,123.075L137.26,25.348C137.26,17.375,134.093,9.73,128.455,4.093C122.818,-1.544,115.173,-4.711,107.201,-4.711L26.8,-4.711C18.828,-4.711,11.183,-1.544,5.546,4.093C-0.091,9.73,-3.258,17.376,-3.258,25.348ZM30.058,25.348C30.058,26.212,29.715,27.04,29.104,27.651C28.493,28.262,27.664,28.605,26.8,28.605L107.201,28.605C106.337,28.605,105.509,28.262,104.898,27.652C104.287,27.041,103.943,26.212,103.943,25.348L103.943,123.075C103.943,114.204,114.671,109.761,120.944,116.033L78.78,73.869C72.275,67.364,61.727,67.364,55.222,73.869L13.058,116.033C19.334,109.757,30.058,114.202,30.058,123.075L30.058,25.348Z"/>
</g>
  <g id="Heavy-L" transform="matrix(1.0,0.0,0.0,1.0,2570.96915258044,1443.3840407616583)">  <path stroke-linecap="round" stroke-opacity="1" stroke="none" fill-rule="nonzero" stroke-linejoin="round" fill="#000000" stroke-dasharray="none" stroke-miterlimit="4" stroke-width="2.25px" fill-opacity="1" d="M13.4,25.348L13.4,123.075C13.4,129.038,20.616,132.033,24.837,127.812L67.001,85.649L109.164,127.812C113.386,132.033,120.602,129.045,120.602,123.075L120.602,25.348C120.602,21.794,119.19,18.385,116.677,15.872C114.163,13.359,110.755,11.947,107.201,11.947L26.8,11.947C23.246,11.947,19.838,13.359,17.325,15.872C14.812,18.385,13.4,21.794,13.4,25.348L13.4,25.348ZM13.4,25.348"/>
  <path fill-rule="nonzero" fill="#000000" stroke-dasharray="none" fill-opacity="1" stroke-width="2.25px" stroke-opacity="1" stroke-linecap="round" stroke-miterlimit="4" stroke="none" stroke-linejoin="round" d="M-1.434,25.348L-1.434,123.075C-1.434,142.253,21.76,151.868,35.326,138.301L77.49,96.138L56.512,96.138L98.675,138.301C112.241,151.867,135.436,142.261,135.436,123.075L135.436,25.348C135.436,17.859,132.461,10.678,127.165,5.383C121.87,0.088,114.689,-2.887,107.201,-2.887L26.8,-2.887C19.312,-2.887,12.131,0.088,6.836,5.383C1.541,10.678,-1.434,17.859,-1.434,25.348ZM28.234,25.348C28.234,25.728,28.083,26.093,27.814,26.362C27.545,26.63,27.181,26.781,26.8,26.781L107.201,26.781C106.821,26.781,106.456,26.63,106.188,26.362C105.919,26.093,105.768,25.728,105.768,25.348L105.768,123.075C105.768,115.829,114.53,112.2,119.654,117.323L77.49,75.159C71.697,69.366,62.305,69.366,56.512,75.159L14.348,117.323C19.475,112.196,28.234,115.827,28.234,123.075L28.234,25.348Z"/>
</g>
  <g id="Bold-L" transform="matrix(1.0,0.0,0.0,1.0,2274.25915258044,1443.3840407616583)">  <path stroke-linejoin="round" stroke-dasharray="none" stroke="none" stroke-width="2.25px" fill="#000000" stroke-opacity="1" stroke-miterlimit="4" fill-rule="nonzero" fill-opacity="1" stroke-linecap="round" d="M13.4,25.348L13.4,123.075C13.4,129.038,20.616,132.033,24.837,127.812L67.001,85.649L109.164,127.812C113.386,132.033,120.602,129.045,120.602,123.075L120.602,25.348C120.602,21.794,119.19,18.385,116.677,15.872C114.163,13.359,110.755,11.947,107.201,11.947L26.8,11.947C23.246,11.947,19.838,13.359,17.325,15.872C14.812,18.385,13.4,21.794,13.4,25.348L13.4,25.348ZM13.4,25.348"/>
  <path stroke="none" stroke-width="2.25px" fill-opacity="1" stroke-opacity="1" stroke-miterlimit="4" stroke-dasharray="none" fill="#000000" fill-rule="nonzero" stroke-linecap="round" stroke-linejoin="round" d="M0.39,25.348L0.39,123.075C0.39,140.629,21.62,149.428,34.037,137.012L76.2,94.848L57.801,94.848L99.965,137.012C112.382,149.428,133.611,140.636,133.611,123.075L133.611,25.348C133.611,18.343,130.829,11.625,125.876,6.672C120.923,1.72,114.205,-1.062,107.201,-1.062L26.8,-1.062C19.796,-1.062,13.078,1.72,8.126,6.673C3.173,11.626,0.39,18.343,0.39,25.348ZM26.41,25.348C26.41,25.244,26.451,25.145,26.524,25.072C26.598,24.998,26.697,24.957,26.8,24.957L107.201,24.957C107.305,24.957,107.404,24.998,107.478,25.072C107.551,25.145,107.592,25.244,107.592,25.348L107.592,123.075C107.592,117.454,114.39,114.638,118.364,118.613L76.2,76.449C71.12,71.368,62.882,71.368,57.801,76.449L15.638,118.613C19.615,114.635,26.41,117.452,26.41,123.075L26.41,25.348Z"/>
</g>
  <g id="Semibold-L" transform="matrix(1.0,0.0,0.0,1.0,1977.54915258044,1443.3840407616583)">  <path stroke-width="2.25px" stroke-dasharray="none" stroke-linecap="round" fill-rule="nonzero" fill="#000000" stroke-miterlimit="4" stroke-linejoin="round" fill-opacity="1" stroke="none" stroke-opacity="1" d="M13.4,25.348L13.4,123.075C13.4,129.038,20.616,132.033,24.837,127.812L67.001,85.649L109.164,127.812C113.386,132.033,120.602,129.045,120.602,123.075L120.602,25.348C120.602,21.794,119.19,18.385,116.677,15.872C114.163,13.359,110.755,11.947,107.201,11.947L26.8,11.947C23.246,11.947,19.838,13.359,17.325,15.872C14.812,18.385,13.4,21.794,13.4,25.348L13.4,25.348ZM13.4,25.348"/>
  <path stroke-linejoin="round" fill-opacity="1" stroke-miterlimit="4" stroke-width="2.25px" stroke="none" stroke-opacity="1" fill-rule="nonzero" stroke-linecap="round" stroke-dasharray="none" fill="#000000" d="M2.214,25.348L2.214,123.075C2.214,139.004,21.479,146.989,32.747,135.722L74.91,93.558L59.091,93.558L101.255,135.722C112.522,146.989,131.787,139.011,131.787,123.075L131.787,25.348C131.787,18.827,129.197,12.573,124.586,7.962C119.975,3.352,113.722,0.762,107.201,0.762L26.8,0.762C20.28,0.762,14.026,3.352,9.415,7.963C4.805,12.573,2.214,18.827,2.214,25.348ZM24.586,25.348C24.586,24.76,24.819,24.197,25.234,23.782C25.65,23.366,26.213,23.133,26.8,23.133L107.201,23.133C107.788,23.133,108.352,23.367,108.767,23.782C109.183,24.197,109.416,24.76,109.416,25.348L109.416,123.075C109.416,119.079,114.249,117.077,117.074,119.903L74.91,77.739C70.542,73.371,63.46,73.371,59.091,77.739L16.928,119.903C19.756,117.074,24.586,119.077,24.586,123.075L24.586,25.348Z"/>
</g>
  <g id="Medium-L" transform="matrix(1.0,0.0,0.0,1.0,1680.83915258044,1443.3840407616583)">  <path fill-rule="nonzero" fill="#000000" stroke="none" stroke-linejoin="round" stroke-miterlimit="4" fill-opacity="1" stroke-opacity="1" stroke-width="2.25px" stroke-dasharray="none" stroke-linecap="round" d="M13.4,25.348L13.4,123.075C13.4,129.038,20.616,132.033,24.837,127.812L67.001,85.649L109.164,127.812C113.386,132.033,120.602,129.045,120.602,123.075L120.602,25.348C120.602,21.794,119.19,18.385,116.677,15.872C114.163,13.359,110.755,11.947,107.201,11.947L26.8,11.947C23.246,11.947,19.838,13.359,17.325,15.872C14.812,18.385,13.4,21.794,13.4,25.348L13.4,25.348ZM13.4,25.348"/>
  <path stroke="none" stroke-dasharray="none" stroke-opacity="1" stroke-linejoin="round" fill="#000000" stroke-miterlimit="4" fill-rule="nonzero" stroke-linecap="round" fill-opacity="1" stroke-width="2.25px" d="M4.038,25.348L4.038,123.075C4.038,137.379,21.339,144.55,31.457,134.432L73.621,92.268L60.381,92.268L102.545,134.432C112.663,144.55,129.963,137.386,129.963,123.075L129.963,25.348C129.963,19.311,127.565,13.521,123.296,9.252C119.027,4.984,113.238,2.586,107.201,2.586L26.8,2.586C20.764,2.586,14.974,4.984,10.705,9.253C6.437,13.521,4.038,19.311,4.038,25.348ZM22.762,25.348C22.762,24.276,23.187,23.249,23.945,22.492C24.702,21.735,25.729,21.309,26.8,21.309L107.201,21.309C108.272,21.309,109.3,21.735,110.057,22.492C110.814,23.249,111.24,24.276,111.24,25.348L111.24,123.075C111.24,120.704,114.108,119.516,115.784,121.192L73.621,79.029C69.965,75.373,64.037,75.373,60.381,79.029L18.217,121.192C19.896,119.514,22.762,120.701,22.762,123.075L22.762,25.348Z"/>
</g>
  <g id="Regular-L" transform="matrix(1.0,0.0,0.0,1.0,1384.12915258044,1443.3840407616583)">  <path stroke-miterlimit="4" fill="#000000" fill-opacity="1" stroke-linejoin="round" stroke-opacity="1" stroke="none" fill-rule="nonzero" stroke-linecap="round" stroke-dasharray="none" stroke-width="2.25px" d="M13.4,25.348L13.4,123.075C13.4,129.038,20.616,132.033,24.837,127.812L67.001,85.649L109.164,127.812C113.386,132.033,120.602,129.045,120.602,123.075L120.602,25.348C120.602,21.794,119.19,18.385,116.677,15.872C114.163,13.359,110.755,11.947,107.201,11.947L26.8,11.947C23.246,11.947,19.838,13.359,17.325,15.872C14.812,18.385,13.4,21.794,13.4,25.348L13.4,25.348ZM13.4,25.348"/>
  <path stroke="none" stroke-width="2.25px" stroke-linecap="round" fill-rule="nonzero" stroke-dasharray="none" fill-opacity="1" stroke-opacity="1" fill="#000000" stroke-miterlimit="4" stroke-linejoin="round" d="M5.863,25.348L5.863,123.075C5.863,135.754,21.198,142.111,30.167,133.142L72.331,90.978L61.671,90.978L103.835,133.142C112.804,142.111,128.139,135.76,128.139,123.075L128.139,25.348C128.139,19.794,125.933,14.469,122.006,10.542C118.08,6.616,112.754,4.41,107.201,4.41L26.8,4.41C21.247,4.41,15.922,6.616,11.995,10.542C8.069,14.469,5.863,19.794,5.863,25.348ZM20.938,25.348C20.938,23.793,21.555,22.302,22.655,21.202C23.754,20.103,25.246,19.485,26.8,19.485L107.201,19.485C108.756,19.485,110.247,20.103,111.347,21.202C112.446,22.302,113.064,23.793,113.064,25.348L113.064,123.075C113.064,122.329,113.967,121.955,114.494,122.482L72.331,80.319C69.387,77.375,64.615,77.375,61.671,80.319L19.507,122.482C20.037,121.953,20.938,122.326,20.938,123.075L20.938,25.348Z"/>
</g>
  <g id="Light-L" transform="matrix(1.0,0.0,0.0,1.0,1087.4191525804401,1443.3840407616583)">  <path stroke-linejoin="round" fill="#000000" stroke-opacity="1" stroke-dasharray="none" stroke="none" fill-rule="nonzero" stroke-miterlimit="4" stroke-linecap="round" stroke-width="2.25px" fill-opacity="1" d="M13.4,25.348L13.4,123.075C13.4,129.038,20.616,132.033,24.837,127.812L67.001,85.649L109.164,127.812C113.386,132.033,120.602,129.045,120.602,123.075L120.602,25.348C120.602,21.794,119.19,18.385,116.677,15.872C114.163,13.359,110.755,11.947,107.201,11.947L26.8,11.947C23.246,11.947,19.838,13.359,17.325,15.872C14.812,18.385,13.4,21.794,13.4,25.348L13.4,25.348ZM13.4,25.348"/>
  <path stroke-opacity="1" fill="#000000" stroke-dasharray="none" stroke-linecap="round" stroke="none" fill-opacity="1" stroke-linejoin="round" stroke-miterlimit="4" fill-rule="nonzero" stroke-width="2.25px" d="M7.119,25.348L7.119,123.075C7.119,134.635,21.101,140.431,29.279,132.254L71.442,90.09L62.559,90.09L104.723,132.254C112.901,140.432,126.883,134.641,126.883,123.075L126.883,25.348C126.883,20.128,124.809,15.121,121.118,11.43C117.427,7.74,112.421,5.666,107.201,5.666L26.8,5.666C21.581,5.666,16.574,7.74,12.883,11.431C9.192,15.122,7.119,20.128,7.119,25.348ZM19.681,25.348C19.681,23.46,20.432,21.649,21.767,20.314C23.102,18.979,24.912,18.229,26.8,18.229L107.201,18.229C109.089,18.229,110.9,18.979,112.235,20.314C113.57,21.649,114.32,23.459,114.32,25.348L114.32,123.075C114.32,123.449,113.87,123.635,113.606,123.371L71.442,81.207C68.989,78.754,65.012,78.754,62.559,81.207L20.396,123.371C20.134,123.633,19.681,123.445,19.681,123.075L19.681,25.348Z"/>
</g>
  <g id="Thin-L" transform="matrix(1.0,0.0,0.0,1.0,790.7091525804401,1443.3840407616583)">  <path fill-rule="nonzero" stroke="none" stroke-opacity="1" stroke-miterlimit="4" stroke-width="2.25px" fill="#000000" stroke-dasharray="none" fill-opacity="1" stroke-linecap="round" stroke-linejoin="round" d="M13.4,25.348L13.4,123.075C13.4,129.038,20.616,132.033,24.837,127.812L67.001,85.649L109.164,127.812C113.386,132.033,120.602,129.045,120.602,123.075L120.602,25.348C120.602,21.794,119.19,18.385,116.677,15.872C114.163,13.359,110.755,11.947,107.201,11.947L26.8,11.947C23.246,11.947,19.838,13.359,17.325,15.872C14.812,18.385,13.4,21.794,13.4,25.348L13.4,25.348ZM13.4,25.348"/>
  <path stroke-width="2.25px" stroke-linejoin="round" fill-rule="nonzero" stroke-dasharray="none" stroke-miterlimit="4" fill="#000000" fill-opacity="1" stroke-linecap="round" stroke="none" stroke-opacity="1" d="M8.375,25.348L8.375,123.075C8.375,133.516,21.005,138.751,28.39,131.365L70.554,89.202L63.448,89.202L105.611,131.365C112.998,138.752,125.627,133.522,125.627,123.075L125.627,25.348C125.627,20.461,123.685,15.774,120.23,12.319C116.774,8.864,112.088,6.922,107.201,6.922L26.8,6.922C21.914,6.922,17.227,8.864,13.772,12.319C10.316,15.774,8.375,20.461,8.375,25.348ZM18.425,25.348C18.425,23.126,19.308,20.996,20.878,19.426C22.449,17.855,24.579,16.972,26.8,16.972L107.201,16.972C109.422,16.972,111.553,17.855,113.123,19.426C114.694,20.996,115.576,23.126,115.576,25.348L115.576,123.075C115.576,124.568,113.773,125.315,112.718,124.259L70.554,82.095C68.592,80.133,65.41,80.133,63.448,82.095L21.284,124.259C20.23,125.312,18.425,124.564,18.425,123.075L18.425,25.348Z"/>
</g>
  <g id="Ultralight-L" transform="matrix(1.0,0.0,0.0,1.0,493.99915258044007,1443.3840407616583)">  <path fill-rule="nonzero" stroke-linejoin="round" stroke-miterlimit="4" stroke-linecap="round" stroke="none" stroke-width="2.25px" stroke-opacity="1" fill-opacity="1" fill="#000000" stroke-dasharray="none" d="M13.4,25.348L13.4,123.075C13.4,129.038,20.616,132.033,24.837,127.812L67.001,85.649L109.164,127.812C113.386,132.033,120.602,129.045,120.602,123.075L120.602,25.348C120.602,21.794,119.19,18.385,116.677,15.872C114.163,13.359,110.755,11.947,107.201,11.947L26.8,11.947C23.246,11.947,19.838,13.359,17.325,15.872C14.812,18.385,13.4,21.794,13.4,25.348L13.4,25.348ZM13.4,25.348"/>
  <path stroke-opacity="1" fill-opacity="1" stroke="none" stroke-width="2.25px" fill="#000000" stroke-linecap="round" stroke-miterlimit="4" fill-rule="nonzero" stroke-dasharray="none" stroke-linejoin="round" d="M9.631,25.348L9.631,123.075C9.631,132.397,20.908,137.071,27.502,130.477L69.666,88.313L64.336,88.313L106.5,130.477C113.095,137.072,124.37,132.403,124.37,123.075L124.37,25.348C124.37,20.794,122.561,16.427,119.341,13.207C116.121,9.987,111.755,8.179,107.201,8.179L26.8,8.179C22.247,8.179,17.88,9.987,14.66,13.207C11.44,16.427,9.631,20.794,9.631,25.348ZM17.169,25.348C17.169,22.793,18.184,20.343,19.99,18.537C21.796,16.731,24.246,15.716,26.8,15.716L107.201,15.716C109.756,15.716,112.205,16.731,114.012,18.537C115.818,20.343,116.833,22.793,116.833,25.348L116.833,123.075C116.833,125.687,113.676,126.994,111.829,125.147L69.666,82.984C68.194,81.512,65.808,81.512,64.336,82.984L22.172,125.147C20.327,126.992,17.169,125.683,17.169,123.075L17.169,25.348Z"/>
</g>
  <g id="Black-M" transform="matrix(1.0,0.0,0.0,1.0,2882.7413585894883,1030.7808887021092)">  <path stroke-miterlimit="4" fill="#000000" stroke-width="2.25px" stroke="none" stroke-linecap="round" fill-rule="nonzero" stroke-dasharray="none" fill-opacity="1" stroke-linejoin="round" stroke-opacity="1" d="M10.388,19.649L10.388,95.407C10.388,100.03,15.982,102.351,19.254,99.079L51.939,66.394L84.624,99.079C87.896,102.351,93.49,100.035,93.49,95.407L93.49,19.649C93.49,16.894,92.395,14.252,90.447,12.304C88.499,10.356,85.857,9.262,83.102,9.262L20.775,9.262C18.02,9.262,15.378,10.356,13.43,12.304C11.482,14.252,10.388,16.894,10.388,19.649L10.388,19.649ZM10.388,19.649"/>
  <path stroke-opacity="1" stroke-linecap="round" fill-opacity="1" stroke-width="2.25px" stroke-miterlimit="4" stroke="none" stroke-linejoin="round" stroke-dasharray="none" fill-rule="nonzero" fill="#000000" d="M-2.526,19.649L-2.526,95.407C-2.526,111.534,16.977,119.618,28.385,108.21L61.07,75.525L42.808,75.525L75.493,108.21C86.899,119.617,106.403,111.54,106.403,95.407L106.403,19.649C106.403,13.469,103.948,7.542,99.578,3.173C95.208,-1.197,89.281,-3.652,83.102,-3.652L20.775,-3.652C14.596,-3.652,8.669,-1.197,4.299,3.173C-0.071,7.543,-2.526,13.469,-2.526,19.649ZM23.301,19.649C23.301,20.319,23.035,20.962,22.561,21.435C22.088,21.909,21.445,22.175,20.775,22.175L83.102,22.175C82.432,22.175,81.79,21.909,81.316,21.435C80.842,20.962,80.576,20.319,80.576,19.649L80.576,95.407C80.576,88.53,88.892,85.086,93.755,89.948L61.07,57.263C56.027,52.22,47.851,52.22,42.808,57.263L10.123,89.948C14.988,85.083,23.301,88.529,23.301,95.407L23.301,19.649Z"/>
</g>
  <g id="Heavy-M" transform="matrix(1.0,0.0,0.0,1.0,2586.0313585894883,1030.7808887021092)">  <path stroke-linecap="round" stroke-opacity="1" stroke="none" fill-rule="nonzero" stroke-linejoin="round" fill="#000000" stroke-dasharray="none" stroke-miterlimit="4" stroke-width="2.25px" fill-opacity="1" d="M10.388,19.649L10.388,95.407C10.388,100.03,15.982,102.351,19.254,99.079L51.939,66.394L84.624,99.079C87.896,102.351,93.49,100.035,93.49,95.407L93.49,19.649C93.49,16.894,92.395,14.252,90.447,12.304C88.499,10.356,85.857,9.262,83.102,9.262L20.775,9.262C18.02,9.262,15.378,10.356,13.43,12.304C11.482,14.252,10.388,16.894,10.388,19.649L10.388,19.649ZM10.388,19.649"/>
  <path fill-rule="nonzero" fill="#000000" stroke-dasharray="none" fill-opacity="1" stroke-width="2.25px" stroke-opacity="1" stroke-linecap="round" stroke-miterlimit="4" stroke="none" stroke-linejoin="round" d="M-1.111,19.649L-1.111,95.407C-1.111,110.274,16.868,117.727,27.385,107.21L60.07,74.525L43.807,74.525L76.492,107.21C87.009,117.726,104.989,110.28,104.989,95.407L104.989,19.649C104.989,13.844,102.683,8.277,98.578,4.173C94.473,0.068,88.906,-2.238,83.102,-2.238L20.775,-2.238C14.971,-2.238,9.404,0.068,5.299,4.173C1.194,8.277,-1.111,13.844,-1.111,19.649ZM21.887,19.649C21.887,19.944,21.77,20.227,21.561,20.435C21.353,20.644,21.07,20.761,20.775,20.761L83.102,20.761C82.807,20.761,82.524,20.644,82.316,20.436C82.108,20.227,81.99,19.944,81.99,19.649L81.99,95.407C81.99,89.79,88.783,86.976,92.755,90.948L60.07,58.263C55.579,53.772,48.298,53.772,43.807,58.263L11.122,90.948C15.097,86.974,21.887,89.788,21.887,95.407L21.887,19.649Z"/>
</g>
  <g id="Bold-M" transform="matrix(1.0,0.0,0.0,1.0,2289.321358589488,1030.7808887021092)">  <path stroke-linejoin="round" stroke-dasharray="none" stroke="none" stroke-width="2.25px" fill="#000000" stroke-opacity="1" stroke-miterlimit="4" fill-rule="nonzero" fill-opacity="1" stroke-linecap="round" d="M10.388,19.649L10.388,95.407C10.388,100.03,15.982,102.351,19.254,99.079L51.939,66.394L84.624,99.079C87.896,102.351,93.49,100.035,93.49,95.407L93.49,19.649C93.49,16.894,92.395,14.252,90.447,12.304C88.499,10.356,85.857,9.262,83.102,9.262L20.775,9.262C18.02,9.262,15.378,10.356,13.43,12.304C11.482,14.252,10.388,16.894,10.388,19.649L10.388,19.649ZM10.388,19.649"/>
  <path stroke="none" stroke-width="2.25px" fill-opacity="1" stroke-opacity="1" stroke-miterlimit="4" stroke-dasharray="none" fill="#000000" fill-rule="nonzero" stroke-linecap="round" stroke-linejoin="round" d="M0.303,19.649L0.303,95.407C0.303,109.014,16.759,115.836,26.385,106.211L59.07,73.526L44.807,73.526L77.492,106.21C87.118,115.836,103.575,109.02,103.575,95.407L103.575,19.649C103.575,14.219,101.418,9.012,97.578,5.172C93.739,1.333,88.531,-0.824,83.102,-0.824L20.775,-0.824C15.346,-0.824,10.138,1.333,6.299,5.173C2.46,9.012,0.303,14.219,0.303,19.649ZM20.473,19.649C20.473,19.569,20.505,19.492,20.561,19.435C20.618,19.379,20.695,19.347,20.775,19.347L83.102,19.347C83.182,19.347,83.259,19.379,83.316,19.436C83.373,19.492,83.404,19.569,83.404,19.649L83.404,95.407C83.404,91.049,88.674,88.867,91.755,91.948L59.07,59.263C55.131,55.324,48.746,55.324,44.807,59.263L12.122,91.948C15.206,88.865,20.473,91.048,20.473,95.407L20.473,19.649Z"/>
</g>
  <g id="Semibold-M" transform="matrix(1.0,0.0,0.0,1.0,1992.6113585894884,1030.7808887021092)">  <path stroke-width="2.25px" stroke-dasharray="none" stroke-linecap="round" fill-rule="nonzero" fill="#000000" stroke-miterlimit="4" stroke-linejoin="round" fill-opacity="1" stroke="none" stroke-opacity="1" d="M10.388,19.649L10.388,95.407C10.388,100.03,15.982,102.351,19.254,99.079L51.939,66.394L84.624,99.079C87.896,102.351,93.49,100.035,93.49,95.407L93.49,19.649C93.49,16.894,92.395,14.252,90.447,12.304C88.499,10.356,85.857,9.262,83.102,9.262L20.775,9.262C18.02,9.262,15.378,10.356,13.43,12.304C11.482,14.252,10.388,16.894,10.388,19.649L10.388,19.649ZM10.388,19.649"/>
  <path stroke-linejoin="round" fill-opacity="1" stroke-miterlimit="4" stroke-width="2.25px" stroke="none" stroke-opacity="1" fill-rule="nonzero" stroke-linecap="round" stroke-dasharray="none" fill="#000000" d="M1.717,19.649L1.717,95.407C1.717,107.755,16.65,113.945,25.385,105.211L58.07,72.526L45.807,72.526L78.492,105.211C87.227,113.945,102.161,107.76,102.161,95.407L102.161,19.649C102.161,14.594,100.153,9.747,96.578,6.172C93.004,2.598,88.156,0.59,83.102,0.59L20.775,0.59C15.721,0.59,10.873,2.598,7.299,6.173C3.725,9.747,1.717,14.595,1.717,19.649ZM19.059,19.649C19.059,19.194,19.24,18.757,19.562,18.436C19.884,18.114,20.32,17.933,20.775,17.933L83.102,17.933C83.557,17.933,83.994,18.114,84.316,18.436C84.638,18.758,84.818,19.194,84.818,19.649L84.818,95.407C84.818,92.309,88.565,90.758,90.755,92.948L58.07,60.263C54.684,56.876,49.194,56.876,45.807,60.263L13.122,92.948C15.315,90.755,19.059,92.307,19.059,95.407L19.059,19.649Z"/>
</g>
  <g id="Medium-M" transform="matrix(1.0,0.0,0.0,1.0,1695.9013585894884,1030.7808887021092)">  <path fill-rule="nonzero" fill="#000000" stroke="none" stroke-linejoin="round" stroke-miterlimit="4" fill-opacity="1" stroke-opacity="1" stroke-width="2.25px" stroke-dasharray="none" stroke-linecap="round" d="M10.388,19.649L10.388,95.407C10.388,100.03,15.982,102.351,19.254,99.079L51.939,66.394L84.624,99.079C87.896,102.351,93.49,100.035,93.49,95.407L93.49,19.649C93.49,16.894,92.395,14.252,90.447,12.304C88.499,10.356,85.857,9.262,83.102,9.262L20.775,9.262C18.02,9.262,15.378,10.356,13.43,12.304C11.482,14.252,10.388,16.894,10.388,19.649L10.388,19.649ZM10.388,19.649"/>
  <path stroke="none" stroke-dasharray="none" stroke-opacity="1" stroke-linejoin="round" fill="#000000" stroke-miterlimit="4" fill-rule="nonzero" stroke-linecap="round" fill-opacity="1" stroke-width="2.25px" d="M3.131,19.649L3.131,95.407C3.131,106.495,16.542,112.054,24.385,104.211L57.07,71.526L46.807,71.526L79.492,104.211C87.336,112.055,100.747,106.5,100.747,95.407L100.747,19.649C100.747,14.969,98.888,10.481,95.578,7.172C92.269,3.863,87.781,2.004,83.102,2.004L20.775,2.004C16.096,2.004,11.608,3.863,8.299,7.172C4.99,10.481,3.131,14.97,3.131,19.649ZM17.645,19.649C17.645,18.819,17.975,18.023,18.562,17.436C19.149,16.849,19.945,16.519,20.775,16.519L83.102,16.519C83.932,16.519,84.728,16.849,85.316,17.436C85.903,18.023,86.232,18.819,86.232,19.649L86.232,95.407C86.232,93.569,88.456,92.648,89.755,93.948L57.07,61.263C54.236,58.429,49.641,58.429,46.807,61.263L14.122,93.948C15.424,92.646,17.645,93.567,17.645,95.407L17.645,19.649Z"/>
</g>
  <g id="Regular-M" transform="matrix(1.0,0.0,0.0,1.0,1399.1913585894883,1030.7808887021092)">  <path stroke-miterlimit="4" fill="#000000" fill-opacity="1" stroke-linejoin="round" stroke-opacity="1" stroke="none" fill-rule="nonzero" stroke-linecap="round" stroke-dasharray="none" stroke-width="2.25px" d="M10.388,19.649L10.388,95.407C10.388,100.03,15.982,102.351,19.254,99.079L51.939,66.394L84.624,99.079C87.896,102.351,93.49,100.035,93.49,95.407L93.49,19.649C93.49,16.894,92.395,14.252,90.447,12.304C88.499,10.356,85.857,9.262,83.102,9.262L20.775,9.262C18.02,9.262,15.378,10.356,13.43,12.304C11.482,14.252,10.388,16.894,10.388,19.649L10.388,19.649ZM10.388,19.649"/>
  <path stroke="none" stroke-width="2.25px" stroke-linecap="round" fill-rule="nonzero" stroke-dasharray="none" fill-opacity="1" stroke-opacity="1" fill="#000000" stroke-miterlimit="4" stroke-linejoin="round" d="M4.545,19.649L4.545,95.407C4.545,105.236,16.433,110.164,23.385,103.211L56.07,70.526L47.807,70.526L80.492,103.211C87.445,110.164,99.333,105.241,99.333,95.407L99.333,19.649C99.333,15.344,97.623,11.216,94.579,8.172C91.535,5.128,87.406,3.418,83.102,3.418L20.775,3.418C16.471,3.418,12.342,5.129,9.299,8.172C6.255,11.216,4.545,15.345,4.545,19.649ZM16.231,19.649C16.231,18.444,16.71,17.288,17.562,16.436C18.414,15.583,19.57,15.105,20.775,15.105L83.102,15.105C84.307,15.105,85.463,15.583,86.315,16.436C87.168,17.288,87.646,18.444,87.646,19.649L87.646,95.407C87.646,94.829,88.347,94.539,88.755,94.947L56.07,62.263C53.788,59.981,50.089,59.981,47.807,62.263L15.122,94.948C15.532,94.537,16.231,94.826,16.231,95.407L16.231,19.649Z"/>
</g>
  <g id="Light-M" transform="matrix(1.0,0.0,0.0,1.0,1102.4813585894885,1030.7808887021092)">  <path stroke-linejoin="round" fill="#000000" stroke-opacity="1" stroke-dasharray="none" stroke="none" fill-rule="nonzero" stroke-miterlimit="4" stroke-linecap="round" stroke-width="2.25px" fill-opacity="1" d="M10.388,19.649L10.388,95.407C10.388,100.03,15.982,102.351,19.254,99.079L51.939,66.394L84.624,99.079C87.896,102.351,93.49,100.035,93.49,95.407L93.49,19.649C93.49,16.894,92.395,14.252,90.447,12.304C88.499,10.356,85.857,9.262,83.102,9.262L20.775,9.262C18.02,9.262,15.378,10.356,13.43,12.304C11.482,14.252,10.388,16.894,10.388,19.649L10.388,19.649ZM10.388,19.649"/>
  <path stroke-opacity="1" fill="#000000" stroke-dasharray="none" stroke-linecap="round" stroke="none" fill-opacity="1" stroke-linejoin="round" stroke-miterlimit="4" fill-rule="nonzero" stroke-width="2.25px" d="M5.518,19.649L5.518,95.407C5.518,104.368,16.358,108.861,22.697,102.522L55.382,69.837L48.496,69.837L81.181,102.522C87.52,108.862,98.359,104.373,98.359,95.407L98.359,19.649C98.359,15.603,96.751,11.722,93.89,8.861C91.029,6,87.148,4.392,83.102,4.392L20.775,4.392C16.729,4.392,12.848,6,9.987,8.861C7.126,11.722,5.518,15.603,5.518,19.649ZM15.257,19.649C15.257,18.186,15.838,16.782,16.873,15.747C17.908,14.712,19.312,14.131,20.775,14.131L83.102,14.131C84.565,14.131,85.969,14.712,87.004,15.747C88.039,16.782,88.62,18.186,88.62,19.649L88.62,95.407C88.62,95.697,88.272,95.841,88.067,95.636L55.382,62.951C53.48,61.05,50.397,61.05,48.496,62.951L15.811,95.636C15.608,95.839,15.257,95.694,15.257,95.407L15.257,19.649Z"/>
</g>
  <g id="Thin-M" transform="matrix(1.0,0.0,0.0,1.0,805.7713585894885,1030.7808887021092)">  <path fill-rule="nonzero" stroke="none" stroke-opacity="1" stroke-miterlimit="4" stroke-width="2.25px" fill="#000000" stroke-dasharray="none" fill-opacity="1" stroke-linecap="round" stroke-linejoin="round" d="M10.388,19.649L10.388,95.407C10.388,100.03,15.982,102.351,19.254,99.079L51.939,66.394L84.624,99.079C87.896,102.351,93.49,100.035,93.49,95.407L93.49,19.649C93.49,16.894,92.395,14.252,90.447,12.304C88.499,10.356,85.857,9.262,83.102,9.262L20.775,9.262C18.02,9.262,15.378,10.356,13.43,12.304C11.482,14.252,10.388,16.894,10.388,19.649L10.388,19.649ZM10.388,19.649"/>
  <path stroke-width="2.25px" stroke-linejoin="round" fill-rule="nonzero" stroke-dasharray="none" stroke-miterlimit="4" fill="#000000" fill-opacity="1" stroke-linecap="round" stroke="none" stroke-opacity="1" d="M6.492,19.649L6.492,95.407C6.492,103.501,16.283,107.559,22.008,101.834L54.693,69.149L49.184,69.149L81.869,101.834C87.595,107.56,97.385,103.505,97.385,95.407L97.385,19.649C97.385,15.861,95.88,12.228,93.201,9.549C90.523,6.871,86.89,5.366,83.102,5.366L20.775,5.366C16.987,5.366,13.354,6.871,10.676,9.55C7.997,12.228,6.492,15.861,6.492,19.649ZM14.283,19.649C14.283,17.927,14.967,16.276,16.185,15.059C17.402,13.841,19.054,13.157,20.775,13.157L83.102,13.157C84.824,13.157,86.475,13.841,87.693,15.059C88.91,16.276,89.594,17.927,89.594,19.649L89.594,95.407C89.594,96.564,88.196,97.143,87.378,96.325L54.693,63.64C53.172,62.118,50.705,62.118,49.184,63.64L16.499,96.325C15.683,97.141,14.283,96.561,14.283,95.407L14.283,19.649Z"/>
</g>
  <g id="Ultralight-M" transform="matrix(1.0,0.0,0.0,1.0,509.0613585894884,1030.7808887021092)">  <path fill-rule="nonzero" stroke-linejoin="round" stroke-miterlimit="4" stroke-linecap="round" stroke="none" stroke-width="2.25px" stroke-opacity="1" fill-opacity="1" fill="#000000" stroke-dasharray="none" d="M10.388,19.649L10.388,95.407C10.388,100.03,15.982,102.351,19.254,99.079L51.939,66.394L84.624,99.079C87.896,102.351,93.49,100.035,93.49,95.407L93.49,19.649C93.49,16.894,92.395,14.252,90.447,12.304C88.499,10.356,85.857,9.262,83.102,9.262L20.775,9.262C18.02,9.262,15.378,10.356,13.43,12.304C11.482,14.252,10.388,16.894,10.388,19.649L10.388,19.649ZM10.388,19.649"/>
  <path stroke-opacity="1" fill-opacity="1" stroke="none" stroke-width="2.25px" fill="#000000" stroke-linecap="round" stroke-miterlimit="4" fill-rule="nonzero" stroke-dasharray="none" stroke-linejoin="round" d="M7.466,19.649L7.466,95.407C7.466,102.633,16.208,106.257,21.319,101.145L54.004,68.46L49.873,68.46L82.558,101.145C87.67,106.258,96.411,102.638,96.411,95.407L96.411,19.649C96.411,16.119,95.009,12.734,92.513,10.238C90.017,7.742,86.631,6.34,83.102,6.34L20.775,6.34C17.246,6.34,13.86,7.742,11.364,10.238C8.868,12.734,7.466,16.119,7.466,19.649ZM13.309,19.649C13.309,17.669,14.096,15.77,15.496,14.37C16.896,12.97,18.795,12.183,20.775,12.183L83.102,12.183C85.082,12.183,86.981,12.97,88.381,14.37C89.781,15.77,90.568,17.669,90.568,19.649L90.568,95.407C90.568,97.432,88.121,98.445,86.689,97.013L54.004,64.328C52.864,63.187,51.014,63.187,49.873,64.328L17.188,97.013C15.758,98.444,13.309,97.429,13.309,95.407L13.309,19.649Z"/>
</g>
  <g id="Black-S" transform="matrix(1.0,0.0,0.0,1.0,2894.012043775569,613.7985300920327)">  <path stroke-miterlimit="4" fill="#000000" stroke-width="2.25px" stroke="none" stroke-linecap="round" fill-rule="nonzero" stroke-dasharray="none" fill-opacity="1" stroke-linejoin="round" stroke-opacity="1" d="M8.134,15.385L8.134,74.704C8.134,78.323,12.514,80.141,15.076,77.579L40.668,51.987L66.26,77.579C68.822,80.141,73.202,78.327,73.202,74.704L73.202,15.385C73.202,13.228,72.345,11.159,70.82,9.634C69.295,8.109,67.226,7.252,65.069,7.252L16.267,7.252C14.11,7.252,12.041,8.109,10.516,9.634C8.991,11.159,8.134,13.228,8.134,15.385L8.134,15.385ZM8.134,15.385"/>
  <path stroke-opacity="1" stroke-linecap="round" fill-opacity="1" stroke-width="2.25px" stroke-miterlimit="4" stroke="none" stroke-linejoin="round" stroke-dasharray="none" fill-rule="nonzero" fill="#000000" d="M-1.977,15.385L-1.977,74.704C-1.977,87.331,13.293,93.661,22.225,84.729L47.818,59.136L33.518,59.136L59.111,84.729C68.042,93.66,83.313,87.336,83.313,74.704L83.313,15.385C83.313,10.546,81.391,5.906,77.969,2.484C74.548,-0.937,69.907,-2.859,65.069,-2.859L16.267,-2.859C11.428,-2.859,6.788,-0.937,3.366,2.484C-0.055,5.906,-1.977,10.547,-1.977,15.385ZM18.245,15.385C18.245,15.91,18.036,16.413,17.665,16.784C17.295,17.155,16.792,17.363,16.267,17.363L65.069,17.363C64.544,17.363,64.041,17.155,63.671,16.784C63.3,16.413,63.091,15.91,63.091,15.385L63.091,74.704C63.091,69.319,69.603,66.622,73.41,70.429L47.818,44.837C43.869,40.888,37.467,40.888,33.518,44.837L7.926,70.429C11.736,66.62,18.245,69.318,18.245,74.704L18.245,15.385Z"/>
</g>
  <g id="Heavy-S" transform="matrix(1.0,0.0,0.0,1.0,2597.302043775569,613.7985300920327)">  <path stroke-linecap="round" stroke-opacity="1" stroke="none" fill-rule="nonzero" stroke-linejoin="round" fill="#000000" stroke-dasharray="none" stroke-miterlimit="4" stroke-width="2.25px" fill-opacity="1" d="M8.134,15.385L8.134,74.704C8.134,78.323,12.514,80.141,15.076,77.579L40.668,51.987L66.26,77.579C68.822,80.141,73.202,78.327,73.202,74.704L73.202,15.385C73.202,13.228,72.345,11.159,70.82,9.634C69.295,8.109,67.226,7.252,65.069,7.252L16.267,7.252C14.11,7.252,12.041,8.109,10.516,9.634C8.991,11.159,8.134,13.228,8.134,15.385L8.134,15.385ZM8.134,15.385"/>
  <path fill-rule="nonzero" fill="#000000" stroke-dasharray="none" fill-opacity="1" stroke-width="2.25px" stroke-opacity="1" stroke-linecap="round" stroke-miterlimit="4" stroke="none" stroke-linejoin="round" d="M-0.87,15.385L-0.87,74.704C-0.87,86.345,13.208,92.18,21.442,83.946L47.035,58.353L34.301,58.353L59.894,83.946C68.128,92.18,82.206,86.349,82.206,74.704L82.206,15.385C82.206,10.84,80.401,6.481,77.186,3.267C73.973,0.053,69.614,-1.752,65.069,-1.752L16.267,-1.752C11.722,-1.752,7.363,0.053,4.149,3.267C0.935,6.481,-0.87,10.84,-0.87,15.385ZM17.137,15.385C17.137,15.616,17.046,15.838,16.883,16.001C16.719,16.164,16.498,16.256,16.267,16.256L65.069,16.256C64.838,16.256,64.617,16.164,64.454,16.001C64.29,15.838,64.198,15.616,64.198,15.385L64.198,74.704C64.198,70.305,69.517,68.103,72.627,71.212L47.035,45.62C43.518,42.104,37.817,42.104,34.301,45.62L8.709,71.212C11.821,68.1,17.137,70.304,17.137,74.704L17.137,15.385Z"/>
</g>
  <g id="Bold-S" transform="matrix(1.0,0.0,0.0,1.0,2300.592043775569,613.7985300920327)">  <path stroke-linejoin="round" stroke-dasharray="none" stroke="none" stroke-width="2.25px" fill="#000000" stroke-opacity="1" stroke-miterlimit="4" fill-rule="nonzero" fill-opacity="1" stroke-linecap="round" d="M8.134,15.385L8.134,74.704C8.134,78.323,12.514,80.141,15.076,77.579L40.668,51.987L66.26,77.579C68.822,80.141,73.202,78.327,73.202,74.704L73.202,15.385C73.202,13.228,72.345,11.159,70.82,9.634C69.295,8.109,67.226,7.252,65.069,7.252L16.267,7.252C14.11,7.252,12.041,8.109,10.516,9.634C8.991,11.159,8.134,13.228,8.134,15.385L8.134,15.385ZM8.134,15.385"/>
  <path stroke="none" stroke-width="2.25px" fill-opacity="1" stroke-opacity="1" stroke-miterlimit="4" stroke-dasharray="none" fill="#000000" fill-rule="nonzero" stroke-linecap="round" stroke-linejoin="round" d="M0.237,15.385L0.237,74.704C0.237,85.358,13.123,90.7,20.659,83.163L46.252,57.57L35.084,57.57L60.676,83.163C68.213,90.699,81.099,85.363,81.099,74.704L81.099,15.385C81.099,11.134,79.41,7.056,76.404,4.05C73.397,1.044,69.32,-0.645,65.069,-0.645L16.267,-0.645C12.016,-0.645,7.938,1.044,4.932,4.05C1.926,7.056,0.237,11.134,0.237,15.385ZM16.03,15.385C16.03,15.323,16.055,15.262,16.1,15.218C16.144,15.173,16.204,15.148,16.267,15.148L65.069,15.148C65.131,15.148,65.192,15.173,65.236,15.218C65.281,15.262,65.306,15.323,65.306,15.385L65.306,74.704C65.306,71.292,69.432,69.583,71.844,71.995L46.252,46.403C43.168,43.319,38.168,43.319,35.084,46.403L9.492,71.995C11.906,69.581,16.03,71.29,16.03,74.704L16.03,15.385Z"/>
</g>
  <g id="Semibold-S" transform="matrix(1.0,0.0,0.0,1.0,2003.8820437755694,613.7985300920327)">  <path stroke-width="2.25px" stroke-dasharray="none" stroke-linecap="round" fill-rule="nonzero" fill="#000000" stroke-miterlimit="4" stroke-linejoin="round" fill-opacity="1" stroke="none" stroke-opacity="1" d="M8.134,15.385L8.134,74.704C8.134,78.323,12.514,80.141,15.076,77.579L40.668,51.987L66.26,77.579C68.822,80.141,73.202,78.327,73.202,74.704L73.202,15.385C73.202,13.228,72.345,11.159,70.82,9.634C69.295,8.109,67.226,7.252,65.069,7.252L16.267,7.252C14.11,7.252,12.041,8.109,10.516,9.634C8.991,11.159,8.134,13.228,8.134,15.385L8.134,15.385ZM8.134,15.385"/>
  <path stroke-linejoin="round" fill-opacity="1" stroke-miterlimit="4" stroke-width="2.25px" stroke="none" stroke-opacity="1" fill-rule="nonzero" stroke-linecap="round" stroke-dasharray="none" fill="#000000" d="M1.344,15.385L1.344,74.704C1.344,84.372,13.037,89.219,19.877,82.38L45.469,56.788L35.867,56.788L61.459,82.38C68.299,89.219,79.992,84.376,79.992,74.704L79.992,15.385C79.992,11.427,78.42,7.632,75.621,4.833C72.822,2.035,69.026,0.462,65.069,0.462L16.267,0.462C12.309,0.462,8.514,2.035,5.715,4.833C2.916,7.632,1.344,11.427,1.344,15.385ZM14.923,15.385C14.923,15.029,15.065,14.687,15.317,14.435C15.569,14.183,15.911,14.041,16.267,14.041L65.069,14.041C65.425,14.041,65.767,14.183,66.019,14.435C66.271,14.687,66.413,15.029,66.413,15.385L66.413,74.704C66.413,72.278,69.346,71.063,71.061,72.778L45.469,47.186C42.817,44.534,38.519,44.534,35.867,47.186L10.275,72.778C11.991,71.061,14.923,72.277,14.923,74.704L14.923,15.385Z"/>
</g>
  <g id="Medium-S" transform="matrix(1.0,0.0,0.0,1.0,1707.1720437755694,613.7985300920327)">  <path fill-rule="nonzero" fill="#000000" stroke="none" stroke-linejoin="round" stroke-miterlimit="4" fill-opacity="1" stroke-opacity="1" stroke-width="2.25px" stroke-dasharray="none" stroke-linecap="round" d="M8.134,15.385L8.134,74.704C8.134,78.323,12.514,80.141,15.076,77.579L40.668,51.987L66.26,77.579C68.822,80.141,73.202,78.327,73.202,74.704L73.202,15.385C73.202,13.228,72.345,11.159,70.82,9.634C69.295,8.109,67.226,7.252,65.069,7.252L16.267,7.252C14.11,7.252,12.041,8.109,10.516,9.634C8.991,11.159,8.134,13.228,8.134,15.385L8.134,15.385ZM8.134,15.385"/>
  <path stroke="none" stroke-dasharray="none" stroke-opacity="1" stroke-linejoin="round" fill="#000000" stroke-miterlimit="4" fill-rule="nonzero" stroke-linecap="round" fill-opacity="1" stroke-width="2.25px" d="M2.451,15.385L2.451,74.704C2.451,83.386,12.952,87.739,19.094,81.597L44.686,56.005L36.65,56.005L62.242,81.597C68.384,87.739,78.885,83.39,78.885,74.704L78.885,15.385C78.885,11.721,77.429,8.207,74.838,5.616C72.247,3.025,68.733,1.569,65.069,1.569L16.267,1.569C12.603,1.569,9.089,3.025,6.498,5.616C3.907,8.207,2.451,11.721,2.451,15.385ZM13.816,15.385C13.816,14.735,14.074,14.112,14.534,13.652C14.994,13.192,15.617,12.934,16.267,12.934L65.069,12.934C65.719,12.934,66.342,13.192,66.802,13.652C67.262,14.112,67.52,14.735,67.52,15.385L67.52,74.704C67.52,73.265,69.261,72.544,70.278,73.561L44.686,47.969C42.467,45.75,38.869,45.75,36.65,47.969L11.058,73.561C12.077,72.542,13.816,73.263,13.816,74.704L13.816,15.385Z"/>
</g>
  <g id="Regular-S" transform="matrix(1.0,0.0,0.0,1.0,1410.4620437755693,613.7985300920327)">  <path stroke-miterlimit="4" fill="#000000" fill-opacity="1" stroke-linejoin="round" stroke-opacity="1" stroke="none" fill-rule="nonzero" stroke-linecap="round" stroke-dasharray="none" stroke-width="2.25px" d="M8.134,15.385L8.134,74.704C8.134,78.323,12.514,80.141,15.076,77.579L40.668,51.987L66.26,77.579C68.822,80.141,73.202,78.327,73.202,74.704L73.202,15.385C73.202,13.228,72.345,11.159,70.82,9.634C69.295,8.109,67.226,7.252,65.069,7.252L16.267,7.252C14.11,7.252,12.041,8.109,10.516,9.634C8.991,11.159,8.134,13.228,8.134,15.385L8.134,15.385ZM8.134,15.385"/>
  <path stroke="none" stroke-width="2.25px" stroke-linecap="round" fill-rule="nonzero" stroke-dasharray="none" fill-opacity="1" stroke-opacity="1" fill="#000000" stroke-miterlimit="4" stroke-linejoin="round" d="M3.558,15.385L3.558,74.704C3.558,82.4,12.867,86.258,18.311,80.814L43.903,55.222L37.433,55.222L63.025,80.814C68.469,86.258,77.777,82.403,77.777,74.704L77.777,15.385C77.777,12.015,76.438,8.782,74.055,6.399C71.672,4.016,68.439,2.677,65.069,2.677L16.267,2.677C12.897,2.677,9.664,4.016,7.281,6.399C4.897,8.782,3.558,12.015,3.558,15.385ZM12.709,15.385C12.709,14.442,13.084,13.537,13.751,12.869C14.418,12.202,15.323,11.827,16.267,11.827L65.069,11.827C66.012,11.827,66.917,12.202,67.585,12.869C68.252,13.537,68.627,14.442,68.627,15.385L68.627,74.704C68.627,74.251,69.175,74.024,69.495,74.344L43.903,48.752C42.116,46.965,39.22,46.965,37.433,48.752L11.84,74.344C12.162,74.022,12.709,74.249,12.709,74.704L12.709,15.385Z"/>
</g>
  <g id="Light-S" transform="matrix(1.0,0.0,0.0,1.0,1113.7520437755695,613.7985300920327)">  <path stroke-linejoin="round" fill="#000000" stroke-opacity="1" stroke-dasharray="none" stroke="none" fill-rule="nonzero" stroke-miterlimit="4" stroke-linecap="round" stroke-width="2.25px" fill-opacity="1" d="M8.134,15.385L8.134,74.704C8.134,78.323,12.514,80.141,15.076,77.579L40.668,51.987L66.26,77.579C68.822,80.141,73.202,78.327,73.202,74.704L73.202,15.385C73.202,13.228,72.345,11.159,70.82,9.634C69.295,8.109,67.226,7.252,65.069,7.252L16.267,7.252C14.11,7.252,12.041,8.109,10.516,9.634C8.991,11.159,8.134,13.228,8.134,15.385L8.134,15.385ZM8.134,15.385"/>
  <path stroke-opacity="1" fill="#000000" stroke-dasharray="none" stroke-linecap="round" stroke="none" fill-opacity="1" stroke-linejoin="round" stroke-miterlimit="4" fill-rule="nonzero" stroke-width="2.25px" d="M4.321,15.385L4.321,74.704C4.321,81.72,12.808,85.238,17.772,80.275L43.364,54.683L37.972,54.683L63.564,80.275C68.528,85.239,77.015,81.724,77.015,74.704L77.015,15.385C77.015,12.217,75.756,9.178,73.516,6.938C71.275,4.698,68.237,3.439,65.069,3.439L16.267,3.439C13.099,3.439,10.06,4.698,7.82,6.938C5.58,9.178,4.321,12.217,4.321,15.385ZM11.946,15.385C11.946,14.239,12.401,13.14,13.212,12.33C14.022,11.52,15.121,11.064,16.267,11.064L65.069,11.064C66.215,11.064,67.314,11.52,68.124,12.33C68.934,13.14,69.39,14.239,69.39,15.385L69.39,74.704C69.39,74.93,69.117,75.043,68.956,74.883L43.364,49.291C41.875,47.802,39.461,47.802,37.972,49.291L12.38,74.883C12.221,75.042,11.946,74.928,11.946,74.704L11.946,15.385Z"/>
</g>
  <g id="Thin-S" transform="matrix(1.0,0.0,0.0,1.0,817.0420437755695,613.7985300920327)">  <path fill-rule="nonzero" stroke="none" stroke-opacity="1" stroke-miterlimit="4" stroke-width="2.25px" fill="#000000" stroke-dasharray="none" fill-opacity="1" stroke-linecap="round" stroke-linejoin="round" d="M8.134,15.385L8.134,74.704C8.134,78.323,12.514,80.141,15.076,77.579L40.668,51.987L66.26,77.579C68.822,80.141,73.202,78.327,73.202,74.704L73.202,15.385C73.202,13.228,72.345,11.159,70.82,9.634C69.295,8.109,67.226,7.252,65.069,7.252L16.267,7.252C14.11,7.252,12.041,8.109,10.516,9.634C8.991,11.159,8.134,13.228,8.134,15.385L8.134,15.385ZM8.134,15.385"/>
  <path stroke-width="2.25px" stroke-linejoin="round" fill-rule="nonzero" stroke-dasharray="none" stroke-miterlimit="4" fill="#000000" fill-opacity="1" stroke-linecap="round" stroke="none" stroke-opacity="1" d="M5.083,15.385L5.083,74.704C5.083,81.041,12.749,84.219,17.232,79.736L42.825,54.143L38.511,54.143L64.104,79.736C68.587,84.219,76.252,81.045,76.252,74.704L76.252,15.385C76.252,12.419,75.074,9.575,72.977,7.477C70.879,5.38,68.035,4.202,65.069,4.202L16.267,4.202C13.301,4.202,10.456,5.38,8.359,7.477C6.262,9.575,5.083,12.419,5.083,15.385ZM11.184,15.385C11.184,14.037,11.719,12.744,12.673,11.791C13.626,10.837,14.919,10.302,16.267,10.302L65.069,10.302C66.417,10.302,67.71,10.837,68.663,11.791C69.617,12.744,70.152,14.037,70.152,15.385L70.152,74.704C70.152,75.61,69.058,76.063,68.417,75.422L42.825,49.83C41.634,48.639,39.702,48.639,38.511,49.83L12.919,75.422C12.279,76.062,11.184,75.608,11.184,74.704L11.184,15.385Z"/>
</g>
  <g id="Ultralight-S" transform="matrix(1.0,0.0,0.0,1.0,520.3320437755694,613.7985300920327)">  <path fill-rule="nonzero" stroke-linejoin="round" stroke-miterlimit="4" stroke-linecap="round" stroke="none" stroke-width="2.25px" stroke-opacity="1" fill-opacity="1" fill="#000000" stroke-dasharray="none" d="M8.134,15.385L8.134,74.704C8.134,78.323,12.514,80.141,15.076,77.579L40.668,51.987L66.26,77.579C68.822,80.141,73.202,78.327,73.202,74.704L73.202,15.385C73.202,13.228,72.345,11.159,70.82,9.634C69.295,8.109,67.226,7.252,65.069,7.252L16.267,7.252C14.11,7.252,12.041,8.109,10.516,9.634C8.991,11.159,8.134,13.228,8.134,15.385L8.134,15.385ZM8.134,15.385"/>
  <path stroke-opacity="1" fill-opacity="1" stroke="none" stroke-width="2.25px" fill="#000000" stroke-linecap="round" stroke-miterlimit="4" fill-rule="nonzero" stroke-dasharray="none" stroke-linejoin="round" d="M5.846,15.385L5.846,74.704C5.846,80.362,12.691,83.199,16.693,79.197L42.286,53.604L39.05,53.604L64.643,79.197C68.646,83.2,75.49,80.365,75.49,74.704L75.49,15.385C75.49,12.621,74.392,9.971,72.437,8.016C70.483,6.062,67.832,4.964,65.069,4.964L16.267,4.964C13.503,4.964,10.853,6.062,8.898,8.017C6.944,9.971,5.846,12.621,5.846,15.385ZM10.421,15.385C10.421,13.835,11.037,12.348,12.133,11.252C13.23,10.155,14.717,9.539,16.267,9.539L65.069,9.539C66.619,9.539,68.106,10.155,69.202,11.252C70.299,12.348,70.915,13.835,70.915,15.385L70.915,74.704C70.915,76.289,68.999,77.083,67.878,75.961L42.286,50.369C41.392,49.476,39.944,49.476,39.05,50.369L13.458,75.961C12.338,77.081,10.421,76.287,10.421,74.704L10.421,15.385Z"/>
</g>
 </g>
</svg>
