<?xml version="1.0" encoding="UTF-8"?>
<!-- Generator: CustomSymbols v2.6.2.41 by @serious_bret https://bretlester.com/app_content/CustomSymbols/ -->
<!-- Guides: Left/Right 0.0/0.0 Cap/Base 0.0/0.0 -->
<!-- Settings: RefScale 1.0 Min/Max Stroke Scales 0.5/2.21 -->
<!DOCTYPE svg
PUBLIC "-//W3C//DTD SVG 1.1//EN"
       "http://www.w3.org/Graphics/SVG/1.1/DTD/svg11.dtd">
<svg version="1.1" xmlns="http://www.w3.org/2000/svg" xmlns:xlink="http://www.w3.org/1999/xlink" width="3300" height="2200">
<![CDATA[<svg xmlns="http://www.w3.org/2000/svg" width="36" height="36" viewBox="0 0 24 24" fill="none" stroke="currentColor" stroke-width="2" stroke-linecap="round" stroke-linejoin="round" class="ai ai-Fire"><path d="M12 22c-4.97 0-9-2.582-9-7v-.088C3 12.794 4.338 11.1 6.375 10c1.949-1.052 3.101-2.99 2.813-5l-.563-3 2.086.795c3.757 1.43 6.886 3.912 8.914 7.066A8.495 8.495 0 0 1 21 14.464V15c0 1.562-.504 2.895-1.375 3.965"/><path d="M12 22c-1.657 0-3-1.433-3-3.2 0-1.4 1.016-2.521 1.91-3.548L12 14l1.09 1.252C13.984 16.28 15 17.4 15 18.8c0 1.767-1.343 3.2-3 3.2z"/></svg>]]>
 <g id="Notes">
  <rect height="2200" id="artboard" style="fill:white;opacity:1" width="3300" x="0" y="0"/>
  <line id="" style="fill:none;stroke:black;opacity:1;stroke-width:0.5;" x1="263" x2="3036" y1="292" y2="292"/>
  <text id="reftext1" style="stroke:none;fill:black;font-family:-apple-system,&quot;SF Pro Display&quot;,&quot;SF Pro Text&quot;,Helvetica,sans-serif;font-weight:bold;" transform="matrix(1 0 0 1 263 322)">Weight/Scale Variations</text>
  <text id="reftext2" style="stroke:none;fill:black;font-family:-apple-system,&quot;SF Pro Display&quot;,&quot;SF Pro Text&quot;,Helvetica,sans-serif;text-anchor:middle;" transform="matrix(1 0 0 1 559.711 322)">Ultralight</text>
  <text style="stroke:none;fill:black;font-family:-apple-system,&quot;SF Pro Display&quot;,&quot;SF Pro Text&quot;,Helvetica,sans-serif;text-anchor:middle;" transform="matrix(1 0 0 1 856.422 322)">Thin</text>
  <text style="stroke:none;fill:black;font-family:-apple-system,&quot;SF Pro Display&quot;,&quot;SF Pro Text&quot;,Helvetica,sans-serif;text-anchor:middle;" transform="matrix(1 0 0 1 1153.13 322)">Light</text>
  <text style="stroke:none;fill:black;font-family:-apple-system,&quot;SF Pro Display&quot;,&quot;SF Pro Text&quot;,Helvetica,sans-serif;text-anchor:middle;" transform="matrix(1 0 0 1 1449.84 322)">Regular</text>
  <text style="stroke:none;fill:black;font-family:-apple-system,&quot;SF Pro Display&quot;,&quot;SF Pro Text&quot;,Helvetica,sans-serif;text-anchor:middle;" transform="matrix(1 0 0 1 1746.56 322)">Medium</text>
  <text style="stroke:none;fill:black;font-family:-apple-system,&quot;SF Pro Display&quot;,&quot;SF Pro Text&quot;,Helvetica,sans-serif;text-anchor:middle;" transform="matrix(1 0 0 1 2043.27 322)">Semibold</text>
  <text style="stroke:none;fill:black;font-family:-apple-system,&quot;SF Pro Display&quot;,&quot;SF Pro Text&quot;,Helvetica,sans-serif;text-anchor:middle;" transform="matrix(1 0 0 1 2339.98 322)">Bold</text>
  <text style="stroke:none;fill:black;font-family:-apple-system,&quot;SF Pro Display&quot;,&quot;SF Pro Text&quot;,Helvetica,sans-serif;text-anchor:middle;" transform="matrix(1 0 0 1 2636.69 322)">Heavy</text>
  <text style="stroke:none;fill:black;font-family:-apple-system,&quot;SF Pro Display&quot;,&quot;SF Pro Text&quot;,Helvetica,sans-serif;text-anchor:middle;" transform="matrix(1 0 0 1 2933.4 322)">Black</text>
  <line id="" style="fill:none;stroke:black;opacity:1;stroke-width:0.5;" x1="263" x2="3036" y1="1903" y2="1903"/>
  <g id="" transform="matrix(1 0 0 1 263 1933)">
   <path d="M9.24805 0.830078C13.5547 0.830078 17.1387-2.74414 17.1387-7.05078C17.1387-11.3574 13.5449-14.9316 9.23828-14.9316C4.94141-14.9316 1.36719-11.3574 1.36719-7.05078C1.36719-2.74414 4.95117 0.830078 9.24805 0.830078ZM9.24805-0.654297C5.70312-0.654297 2.87109-3.49609 2.87109-7.05078C2.87109-10.6055 5.69336-13.4473 9.23828-13.4473C12.793-13.4473 15.6348-10.6055 15.6445-7.05078C15.6543-3.49609 12.8027-0.654297 9.24805-0.654297ZM6.39648-6.31836L8.50586-6.31836L8.50586-4.19922C8.50586-3.75977 8.79883-3.45703 9.22852-3.45703C9.67773-3.45703 9.9707-3.75977 9.9707-4.19922L9.9707-6.31836L12.0996-6.31836C12.5391-6.31836 12.8418-6.61133 12.8418-7.04102C12.8418-7.48047 12.5391-7.7832 12.0996-7.7832L9.9707-7.7832L9.9707-9.89258C9.9707-10.3418 9.67773-10.6445 9.22852-10.6445C8.79883-10.6445 8.50586-10.3418 8.50586-9.89258L8.50586-7.7832L6.39648-7.7832C5.94727-7.7832 5.64453-7.48047 5.64453-7.04102C5.64453-6.61133 5.94727-6.31836 6.39648-6.31836Z"/>
  </g>
  <g id="" transform="matrix(1 0 0 1 281.506 1933)">
   <path d="M11.709 2.91016C17.1582 2.91016 21.6699-1.61133 21.6699-7.05078C21.6699-12.5 17.1484-17.0117 11.6992-17.0117C6.25977-17.0117 1.74805-12.5 1.74805-7.05078C1.74805-1.61133 6.26953 2.91016 11.709 2.91016ZM11.709 1.25C7.09961 1.25 3.41797-2.44141 3.41797-7.05078C3.41797-11.6602 7.08984-15.3516 11.6992-15.3516C16.3086-15.3516 20-11.6602 20.0098-7.05078C20.0195-2.44141 16.3184 1.25 11.709 1.25ZM7.98828-6.23047L10.8789-6.23047L10.8789-3.32031C10.8789-2.83203 11.2109-2.5 11.6895-2.5C12.1777-2.5 12.5195-2.83203 12.5195-3.32031L12.5195-6.23047L15.4297-6.23047C15.918-6.23047 16.25-6.5625 16.25-7.04102C16.25-7.5293 15.918-7.87109 15.4297-7.87109L12.5195-7.87109L12.5195-10.7617C12.5195-11.2695 12.1777-11.6016 11.6895-11.6016C11.2109-11.6016 10.8789-11.2598 10.8789-10.7617L10.8789-7.87109L7.98828-7.87109C7.48047-7.87109 7.14844-7.5293 7.14844-7.04102C7.14844-6.5625 7.49023-6.23047 7.98828-6.23047Z"/>
  </g>
  <g id="" transform="matrix(1 0 0 1 304.924 1933)">
   <path d="M14.9707 5.66406C21.9336 5.66406 27.6953-0.0976562 27.6953-7.05078C27.6953-14.0137 21.9238-19.7754 14.9609-19.7754C8.00781-19.7754 2.25586-14.0137 2.25586-7.05078C2.25586-0.0976562 8.01758 5.66406 14.9707 5.66406ZM14.9707 3.84766C8.93555 3.84766 4.08203-1.01562 4.08203-7.05078C4.08203-13.0957 8.92578-17.9492 14.9609-17.9492C21.0059-17.9492 25.8594-13.0957 25.8691-7.05078C25.8789-1.01562 21.0156 3.84766 14.9707 3.84766ZM10.0586-6.14258L14.0625-6.14258L14.0625-2.12891C14.0625-1.5918 14.4336-1.2207 14.9512-1.2207C15.4883-1.2207 15.8594-1.5918 15.8594-2.12891L15.8594-6.14258L19.8828-6.14258C20.4102-6.14258 20.791-6.51367 20.791-7.03125C20.791-7.56836 20.4199-7.94922 19.8828-7.94922L15.8594-7.94922L15.8594-11.9531C15.8594-12.5098 15.4883-12.8809 14.9512-12.8809C14.4336-12.8809 14.0625-12.5 14.0625-11.9531L14.0625-7.94922L10.0586-7.94922C9.50195-7.94922 9.13086-7.56836 9.13086-7.03125C9.13086-6.51367 9.51172-6.14258 10.0586-6.14258Z"/>
  </g>
  <text style="stroke:none;fill:black;font-family:-apple-system,&quot;SF Pro Display&quot;,&quot;SF Pro Text&quot;,Helvetica,sans-serif;font-weight:bold;" transform="matrix(1 0 0 1 263 1953)">Design Variations</text>
  <text style="stroke:none;fill:black;font-family:-apple-system,&quot;SF Pro Display&quot;,&quot;SF Pro Text&quot;,Helvetica,sans-serif;" transform="matrix(1 0 0 1 263 1971)">Symbols are supported in up to nine weights and three scales.</text>
  <text style="stroke:none;fill:black;font-family:-apple-system,&quot;SF Pro Display&quot;,&quot;SF Pro Text&quot;,Helvetica,sans-serif;" transform="matrix(1 0 0 1 263 1989)">For optimal layout with text and other symbols, vertically align</text>
  <text style="stroke:none;fill:black;font-family:-apple-system,&quot;SF Pro Display&quot;,&quot;SF Pro Text&quot;,Helvetica,sans-serif;" transform="matrix(1 0 0 1 263 2007)">symbols with the adjacent text.</text>
  <line id="" style="fill:none;stroke:#00AEEF;stroke-width:0.5;opacity:1.0;" x1="776" x2="776" y1="1919" y2="1933"/>
  <g id="" transform="matrix(1 0 0 1 776 1933)">
   <path d="M3.31055 0.126953C3.82812 0.126953 4.08203-0.0683594 4.26758-0.605469L5.52734-4.0625L11.2891-4.0625L12.5488-0.605469C12.7344-0.0683594 12.9883 0.126953 13.4961 0.126953C14.0137 0.126953 14.3457-0.185547 14.3457-0.673828C14.3457-0.839844 14.3164-0.986328 14.2383-1.20117L9.6582-13.3887C9.43359-13.9941 9.0332-14.2871 8.4082-14.2871C7.80273-14.2871 7.39258-13.9941 7.17773-13.3984L2.59766-1.19141C2.51953-0.976562 2.49023-0.830078 2.49023-0.664062C2.49023-0.175781 2.80273 0.126953 3.31055 0.126953ZM6.00586-5.53711L8.37891-12.1094L8.42773-12.1094L10.8008-5.53711Z"/>
  </g>
  <line id="" style="fill:none;stroke:#00AEEF;stroke-width:0.5;opacity:1.0;" x1="792.836" x2="792.836" y1="1919" y2="1933"/>
  <text style="stroke:none;fill:black;font-family:-apple-system,&quot;SF Pro Display&quot;,&quot;SF Pro Text&quot;,Helvetica,sans-serif;font-weight:bold;" transform="matrix(1 0 0 1 776 1953)">Margins</text>
  <text style="stroke:none;fill:black;font-family:-apple-system,&quot;SF Pro Display&quot;,&quot;SF Pro Text&quot;,Helvetica,sans-serif;" transform="matrix(1 0 0 1 776 1971)">Leading and trailing margins on the left and right side of each symbol</text>
  <text style="stroke:none;fill:black;font-family:-apple-system,&quot;SF Pro Display&quot;,&quot;SF Pro Text&quot;,Helvetica,sans-serif;" transform="matrix(1 0 0 1 776 1989)">can be adjusted by modifying the x-location of the margin guidelines.</text>
  <text style="stroke:none;fill:black;font-family:-apple-system,&quot;SF Pro Display&quot;,&quot;SF Pro Text&quot;,Helvetica,sans-serif;" transform="matrix(1 0 0 1 776 2007)">Modifications are automatically applied proportionally to all</text>
  <text style="stroke:none;fill:black;font-family:-apple-system,&quot;SF Pro Display&quot;,&quot;SF Pro Text&quot;,Helvetica,sans-serif;" transform="matrix(1 0 0 1 776 2025)">scales and weights.</text>
  <g id="" transform="matrix(1 0 0 1 1289 1933)">
   <path d="M2.8418 1.86523L4.54102 3.57422C5.40039 4.44336 6.38672 4.38477 7.31445 3.35938L17.4902-7.85156C17.7539-7.76367 18.0273-7.7832 18.3398-7.8418L19.4043-8.03711L20.0684-7.36328L20.0293-6.80664C19.9902-6.30859 20.1172-5.92773 20.6055-5.44922L21.3672-4.70703C21.8457-4.22852 22.4609-4.19922 22.9297-4.66797L25.8398-7.58789C26.3086-8.05664 26.2891-8.65234 25.8105-9.13086L25.0391-9.89258C24.5605-10.3711 24.1895-10.5273 23.7109-10.4883L23.1348-10.4395L22.4902-11.0742L22.7344-12.1973C22.8613-12.7637 22.7051-13.2031 22.1191-13.7891L19.9219-15.9766C16.582-19.2969 12.1484-19.2188 9.25781-16.3281C8.83789-15.918 8.80859-15.3418 9.04297-14.9512C9.27734-14.5898 9.73633-14.3555 10.3809-14.5215C11.8457-14.8633 13.3691-14.9219 14.7949-13.9844L14.209-12.5293C14.0137-12.0508 13.9844-11.6504 14.1113-11.2891L3.04688-0.898438C2.06055 0.0195312 1.98242 0.996094 2.8418 1.86523ZM10.752-15.957C13.1836-17.7344 16.4746-17.4316 18.7012-15.2051L21.1328-12.793C21.3672-12.5586 21.4062-12.373 21.3379-12.0312L21.0156-10.5469L22.5195-9.0625L23.5059-9.12109C23.7598-9.13086 23.8379-9.11133 24.0332-8.91602L24.6094-8.33984L22.168-5.89844L21.5918-6.47461C21.3965-6.66992 21.3672-6.74805 21.377-7.01172L21.4453-7.98828L19.9512-9.47266L18.4277-9.21875C18.1055-9.15039 17.959-9.17969 17.7148-9.41406L15.7129-11.416C15.459-11.6504 15.4297-11.8164 15.5859-12.1875L16.4648-14.2773C14.9023-15.7324 12.8711-16.3574 10.8398-15.7617C10.6836-15.7227 10.625-15.8496 10.752-15.957ZM5.27344 2.30469L4.10156 1.14258C3.63281 0.683594 3.74023 0.341797 4.14062-0.0195312L14.9512-10.1953L16.416-8.71094L6.42578 2.27539C6.07422 2.67578 5.74219 2.77344 5.27344 2.30469Z"/>
  </g>
  <text style="stroke:none;fill:black;font-family:-apple-system,&quot;SF Pro Display&quot;,&quot;SF Pro Text&quot;,Helvetica,sans-serif;font-weight:bold;" transform="matrix(1 0 0 1 1289 1953)">Exporting</text>
  <text style="stroke:none;fill:black;font-family:-apple-system,&quot;SF Pro Display&quot;,&quot;SF Pro Text&quot;,Helvetica,sans-serif;" transform="matrix(1 0 0 1 1289 1971)">Symbols should be outlined when exporting to ensure the</text>
  <text style="stroke:none;fill:black;font-family:-apple-system,&quot;SF Pro Display&quot;,&quot;SF Pro Text&quot;,Helvetica,sans-serif;" transform="matrix(1 0 0 1 1289 1989)">design is preserved when submitting to Xcode.</text>
  <text id="template-version" style="stroke:none;fill:black;font-family:-apple-system,&quot;SF Pro Display&quot;,&quot;SF Pro Text&quot;,Helvetica,sans-serif;text-anchor:end;" transform="matrix(1 0 0 1 3036 1933)">Template v.2.0</text>
  <text style="stroke:none;fill:black;font-family:-apple-system,&quot;SF Pro Display&quot;,&quot;SF Pro Text&quot;,Helvetica,sans-serif;text-anchor:end;" transform="matrix(1 0 0 1 3036 1951)">Requires Xcode 12 or greater</text>
  <text style="stroke:none;fill:black;font-family:-apple-system,&quot;SF Pro Display&quot;,&quot;SF Pro Text&quot;,Helvetica,sans-serif;" transform="matrix(1 0 0 1 263 726)">Small</text>
  <text style="stroke:none;fill:black;font-family:-apple-system,&quot;SF Pro Display&quot;,&quot;SF Pro Text&quot;,Helvetica,sans-serif;" transform="matrix(1 0 0 1 263 1156)">Medium</text>
  <text style="stroke:none;fill:black;font-family:-apple-system,&quot;SF Pro Display&quot;,&quot;SF Pro Text&quot;,Helvetica,sans-serif;" transform="matrix(1 0 0 1 263 1586)">Large</text>
 </g>
 <g id="Guides">
  <g id="H-reference" style="fill:#27AAE1;stroke:none;" transform="matrix(1 0 0 1 339 696)">
   <path d="M0.976562 0L3.66211 0L12.9883-24.4629L45.752-24.4629L55.127 0L57.7637 0L30.6152-70.459L28.125-70.459ZM29.3457-67.1387L29.4434-67.1387L44.873-26.709L13.8672-26.709Z"/>
  </g>
  <line id="Baseline-S" style="fill:none;stroke:#27AAE1;opacity:1;stroke-width:0.5;" x1="263" x2="3036" y1="696" y2="696"/>
  <line id="Capline-S" style="fill:none;stroke:#27AAE1;opacity:1;stroke-width:0.5;" x1="263" x2="3036" y1="625.541" y2="625.541"/>
  <g id="H-reference" style="fill:#27AAE1;stroke:none;" transform="matrix(1 0 0 1 339 1126)">
   <path d="M0.976562 0L3.66211 0L12.9883-24.4629L45.752-24.4629L55.127 0L57.7637 0L30.6152-70.459L28.125-70.459ZM29.3457-67.1387L29.4434-67.1387L44.873-26.709L13.8672-26.709Z"/>
  </g>
  <line id="Baseline-M" style="fill:none;stroke:#27AAE1;opacity:1;stroke-width:0.5;" x1="263" x2="3036" y1="1126" y2="1126"/>
  <line id="Capline-M" style="fill:none;stroke:#27AAE1;opacity:1;stroke-width:0.5;" x1="263" x2="3036" y1="1055.54" y2="1055.54"/>
  <g id="H-reference" style="fill:#27AAE1;stroke:none;" transform="matrix(1 0 0 1 339 1556)">
   <path d="M0.976562 0L3.66211 0L12.9883-24.4629L45.752-24.4629L55.127 0L57.7637 0L30.6152-70.459L28.125-70.459ZM29.3457-67.1387L29.4434-67.1387L44.873-26.709L13.8672-26.709Z"/>
  </g>
  <line id="Baseline-L" style="fill:none;stroke:#27AAE1;opacity:1;stroke-width:0.5;" x1="263" x2="3036" y1="1556" y2="1556"/>
  <line id="Capline-L" style="fill:none;stroke:#27AAE1;opacity:1;stroke-width:0.5;" x1="263" x2="3036" y1="1485.54" y2="1485.54"/>
  <line id="left-margin" x1="1415.9000195312499" x2="1415.9000195312499" y1="1030.79" y2="1150.12" style="fill:none;stroke:#00AEEF;stroke-width:0.5;opacity:1.0;"/>
  <line id="right-margin" x1="1486.3599804687499" x2="1486.3599804687499" y1="1030.79" y2="1150.12" style="fill:none;stroke:#00AEEF;stroke-width:0.5;opacity:1.0;"/>
 </g>
 <g id="Symbols">
  <g id="Black-L" transform="matrix(1.0,0.0,0.0,1.0,2889.2333251953123,1475.3233447265625)">  <path stroke-miterlimit="4" stroke="none" stroke-linecap="round" stroke-linejoin="round" stroke-dasharray="none" fill-opacity="1" stroke-opacity="1" fill-rule="nonzero" fill="#000000" stroke-width="2px" d="M45.447,74.949C29.805,74.949,19.731,67.541,19.731,56.808L19.731,56.475C19.731,52.169,22.519,48.262,28.12,45.237C38.568,39.598,44.68,28.902,43.082,17.749C43.065,17.63,43.045,17.511,43.023,17.392L40.891,6.031L29.684,15.395L37.584,18.406C50.168,23.196,60.586,31.456,67.284,41.872C69.808,45.75,71.145,50.228,71.162,54.809L71.162,56.808C71.162,60.635,70.02,63.854,67.833,66.541C64.915,70.126,65.455,75.398,69.04,78.316C72.625,81.234,77.897,80.693,80.815,77.109C85.435,71.433,87.901,64.48,87.901,56.808L87.901,54.778C87.873,46.947,85.595,39.319,81.339,32.78C72.695,19.337,59.407,8.802,43.542,2.763L35.645,-0.247C29.534,-2.576,23.232,2.69,24.439,9.118L26.571,20.48L34.797,18.936L26.512,20.123C27.062,23.959,24.726,28.047,20.168,30.507C9.542,36.245,2.992,45.426,2.992,56.475L2.992,56.808C2.992,78.094,21.478,91.689,45.447,91.689C50.069,91.689,53.816,87.941,53.816,83.319C53.816,78.696,50.069,74.949,45.447,74.949Z"/>
  <path fill-rule="nonzero" fill="#000000" stroke-linecap="round" stroke-dasharray="none" stroke-miterlimit="4" stroke-width="2px" stroke="none" stroke-opacity="1" fill-opacity="1" stroke-linejoin="round" d="M45.447,74.949C43.92,74.949,42.455,73.387,42.455,71.2C42.455,69.848,43.489,68.042,46.551,64.5C46.707,64.319,46.871,64.131,47.082,63.889C47.133,63.831,47.518,63.389,47.632,63.258L51.759,58.517L45.447,53.021L39.134,58.517L43.262,63.259C43.378,63.392,43.781,63.854,43.809,63.887C44.022,64.131,44.185,64.319,44.341,64.5C47.407,68.048,48.439,69.849,48.439,71.2C48.439,73.387,46.974,74.949,45.447,74.949ZM45.447,91.689C56.469,91.689,65.178,82.398,65.178,71.2C65.178,67.407,64.092,63.892,62.154,60.509C60.829,58.197,59.346,56.263,57.008,53.556C56.836,53.357,56.661,53.156,56.436,52.897C56.404,52.86,56.005,52.402,55.89,52.27L51.759,47.525C48.423,43.693,42.47,43.693,39.134,47.525L35.006,52.267C34.896,52.393,34.514,52.832,34.46,52.894C34.236,53.151,34.06,53.354,33.887,53.553C31.551,56.256,30.064,58.195,28.739,60.509C26.801,63.892,25.715,67.408,25.715,71.2C25.715,82.398,34.424,91.689,45.447,91.689Z"/>
</g>
  <g id="Heavy-L" transform="matrix(1.0,0.0,0.0,1.0,2592.5233251953123,1475.3233447265625)">  <path stroke-linecap="round" fill-opacity="1" stroke-opacity="1" stroke="none" stroke-linejoin="round" stroke-miterlimit="4" stroke-width="2px" stroke-dasharray="none" fill="#000000" fill-rule="nonzero" d="M45.447,75.866C29.349,75.866,18.815,68.119,18.815,56.808L18.815,56.475C18.815,51.8,21.808,47.604,27.685,44.43C37.81,38.965,43.716,28.631,42.175,17.879C42.16,17.773,42.142,17.667,42.122,17.561L39.99,6.2L30.011,14.539L37.911,17.55C50.674,22.408,61.249,30.792,68.055,41.377C70.672,45.398,72.061,50.049,72.078,54.805L72.078,56.808C72.078,60.845,70.864,64.269,68.544,67.119C65.945,70.312,66.427,75.006,69.619,77.605C72.811,80.204,77.506,79.722,80.105,76.53C84.591,71.018,86.985,64.269,86.985,56.808L86.985,54.778C86.957,47.126,84.73,39.671,80.571,33.28C72.032,20,58.901,9.59,43.216,3.62L35.319,0.61C29.877,-1.464,24.265,3.225,25.339,8.949L27.472,20.311L27.419,19.993C28.026,24.23,25.483,28.679,20.603,31.313C10.252,36.903,3.908,45.795,3.908,56.475L3.908,56.808C3.908,77.517,21.934,90.772,45.447,90.772C49.563,90.772,52.9,87.435,52.9,83.319C52.9,79.203,49.563,75.866,45.447,75.866Z"/>
  <path fill-rule="nonzero" stroke="none" fill-opacity="1" stroke-dasharray="none" stroke-opacity="1" fill="#000000" stroke-linecap="round" stroke-linejoin="round" stroke-width="2px" stroke-miterlimit="4" d="M45.447,75.866C43.4,75.866,41.538,73.88,41.538,71.2C41.538,69.558,42.659,67.601,45.858,63.901C46.015,63.719,46.179,63.53,46.391,63.287C46.442,63.229,46.827,62.787,46.94,62.656L51.068,57.915L45.447,53.021L39.825,57.915L43.953,62.657C44.07,62.79,44.472,63.252,44.501,63.285C44.714,63.531,44.877,63.719,45.034,63.9C48.237,67.607,49.355,69.559,49.355,71.2C49.355,73.88,47.494,75.866,45.447,75.866ZM45.447,90.772C55.949,90.772,64.262,81.905,64.262,71.2C64.262,67.581,63.223,64.218,61.359,60.965C60.071,58.717,58.617,56.821,56.314,54.155C56.143,53.957,55.969,53.756,55.745,53.499C55.713,53.462,55.313,53.004,55.199,52.872L51.068,48.127C48.097,44.715,42.796,44.715,39.825,48.127L35.697,52.869C35.587,52.995,35.204,53.434,35.151,53.496C34.927,53.752,34.752,53.954,34.581,54.152C32.28,56.814,30.823,58.714,29.534,60.964C27.671,64.218,26.632,67.581,26.632,71.2C26.632,81.905,34.944,90.772,45.447,90.772Z"/>
</g>
  <g id="Bold-L" transform="matrix(1.0,0.0,0.0,1.0,2295.8133251953122,1475.3233447265625)">  <path stroke-miterlimit="4" stroke="none" fill="#000000" stroke-opacity="1" fill-rule="nonzero" stroke-width="2px" fill-opacity="1" stroke-dasharray="none" stroke-linecap="round" stroke-linejoin="round" d="M45.447,76.782C28.893,76.782,17.898,68.697,17.898,56.808L17.898,56.475C17.898,51.43,21.098,46.946,27.25,43.624C37.052,38.333,42.751,28.361,41.268,18.009C41.254,17.916,41.239,17.823,41.222,17.73L39.089,6.369L30.337,13.683L38.237,16.693C51.18,21.62,61.912,30.129,68.826,40.881C71.536,45.046,72.977,49.869,72.995,54.802L72.995,56.808C72.995,61.056,71.708,64.684,69.255,67.698C66.976,70.498,67.398,74.615,70.198,76.894C72.997,79.173,77.115,78.751,79.394,75.951C83.747,70.603,86.068,64.059,86.068,56.808L86.068,54.778C86.041,47.306,83.866,40.023,79.803,33.78C71.369,20.664,58.396,10.378,42.89,4.476L34.993,1.466C30.22,-0.353,25.298,3.76,26.24,8.78L28.372,20.142L28.326,19.863C28.991,24.501,26.241,29.312,21.039,32.12C10.963,37.561,4.825,46.164,4.825,56.475L4.825,56.808C4.825,76.939,22.39,89.856,45.447,89.856C49.057,89.856,51.983,86.929,51.983,83.319C51.983,79.709,49.057,76.782,45.447,76.782Z"/>
  <path stroke-linecap="round" fill-rule="nonzero" stroke-miterlimit="4" stroke-linejoin="round" stroke-width="2px" stroke-opacity="1" stroke-dasharray="none" stroke="none" fill="#000000" fill-opacity="1" d="M45.447,76.782C42.88,76.782,40.622,74.373,40.622,71.2C40.622,69.268,41.829,67.159,45.164,63.302C45.322,63.119,45.487,62.929,45.7,62.685C45.751,62.626,46.136,62.185,46.249,62.055L50.377,57.313L45.447,53.021L40.517,57.313L44.645,62.055C44.761,62.189,45.163,62.65,45.192,62.683C45.406,62.93,45.57,63.118,45.728,63.301C49.067,67.166,50.272,69.269,50.272,71.2C50.272,74.373,48.014,76.782,45.447,76.782ZM45.447,89.856C55.43,89.856,63.345,81.412,63.345,71.2C63.345,67.755,62.353,64.544,60.563,61.42C59.312,59.236,57.888,57.378,55.621,54.754C55.45,54.557,55.277,54.357,55.053,54.1C55.021,54.064,54.622,53.605,54.507,53.473L50.377,48.729C47.771,45.736,43.122,45.736,40.517,48.729L36.388,53.471C36.278,53.597,35.895,54.036,35.842,54.098C35.619,54.353,35.445,54.554,35.274,54.752C33.009,57.372,31.582,59.234,30.33,61.42C28.54,64.544,27.548,67.755,27.548,71.2C27.548,81.412,35.464,89.856,45.447,89.856Z"/>
</g>
  <g id="Semibold-L" transform="matrix(1.0,0.0,0.0,1.0,1999.1033251953124,1475.3233447265625)">  <path stroke-linejoin="round" stroke-opacity="1" stroke-linecap="round" fill-opacity="1" stroke-miterlimit="4" stroke="none" fill-rule="nonzero" fill="#000000" stroke-dasharray="none" stroke-width="2px" d="M45.447,77.699C28.437,77.699,16.982,69.275,16.982,56.808L16.982,56.475C16.982,51.061,20.387,46.288,26.814,42.817C36.294,37.701,41.786,28.09,40.36,18.139C40.349,18.059,40.336,17.979,40.321,17.899L38.189,6.538L30.663,12.826L38.563,15.837C51.686,20.832,62.575,29.465,69.597,40.385C72.401,44.694,73.893,49.689,73.911,54.799L73.911,56.808C73.911,61.266,72.552,65.099,69.966,68.277C68.006,70.684,68.369,74.224,70.776,76.183C73.183,78.143,76.723,77.78,78.683,75.373C82.903,70.188,85.152,63.848,85.152,56.808L85.152,54.778C85.126,47.486,83.002,40.375,79.035,34.28C70.706,21.327,57.89,11.166,42.564,5.333L34.666,2.323C30.563,0.759,26.331,4.295,27.141,8.611L29.273,19.973L29.234,19.733C29.955,24.771,26.999,29.944,21.474,32.926C11.673,38.219,5.741,46.533,5.741,56.475L5.741,56.808C5.741,76.361,22.846,88.939,45.447,88.939C48.551,88.939,51.067,86.423,51.067,83.319C51.067,80.215,48.551,77.699,45.447,77.699Z"/>
  <path stroke-width="2px" stroke-dasharray="none" stroke-linecap="round" stroke="none" stroke-linejoin="round" fill-opacity="1" stroke-miterlimit="4" stroke-opacity="1" fill="#000000" fill-rule="nonzero" d="M45.447,77.699C42.36,77.699,39.705,74.867,39.705,71.2C39.705,68.977,40.999,66.718,44.471,62.702C44.63,62.518,44.795,62.328,45.009,62.083C45.06,62.024,45.444,61.583,45.558,61.453L49.686,56.712L41.208,56.712L45.336,61.453C45.452,61.587,45.854,62.048,45.883,62.082C46.098,62.329,46.263,62.518,46.421,62.702C49.897,66.725,51.188,68.979,51.188,71.2C51.188,74.867,48.533,77.699,45.447,77.699ZM45.447,88.939C54.91,88.939,62.429,80.918,62.429,71.2C62.429,67.929,61.483,64.87,59.768,61.876C58.553,59.756,57.159,57.936,54.927,55.353C54.758,55.157,54.585,54.958,54.362,54.702C54.33,54.666,53.931,54.207,53.816,54.075L49.686,49.331C47.445,46.758,43.448,46.758,41.208,49.331L37.08,54.072C36.969,54.199,36.586,54.639,36.533,54.7C36.311,54.955,36.137,55.155,35.967,55.351C33.738,57.93,32.34,59.753,31.125,61.875C29.41,64.87,28.465,67.929,28.465,71.2C28.465,80.918,35.984,88.939,45.447,88.939Z"/>
</g>
  <g id="Medium-L" transform="matrix(1.0,0.0,0.0,1.0,1702.3933251953124,1475.3233447265625)">  <path fill-rule="nonzero" stroke-dasharray="none" stroke-linejoin="round" stroke-linecap="round" stroke-opacity="1" stroke-miterlimit="4" stroke-width="2px" fill="#000000" fill-opacity="1" stroke="none" d="M45.447,78.615C27.981,78.615,16.065,69.852,16.065,56.808L16.065,56.475C16.065,50.692,19.677,45.63,26.379,42.011C35.536,37.068,40.822,27.819,39.453,18.269C39.444,18.202,39.433,18.135,39.42,18.069L37.288,6.707L30.99,11.97L38.89,14.981C52.192,20.044,63.238,28.802,70.368,39.89C73.265,44.342,74.809,49.51,74.828,54.795L74.828,56.808C74.828,61.477,73.396,65.514,70.676,68.855C69.036,70.87,69.34,73.833,71.355,75.473C73.369,77.113,76.332,76.809,77.972,74.794C82.059,69.773,84.235,63.638,84.235,56.808L84.235,54.778C84.21,47.665,82.137,40.728,78.267,34.78C70.043,21.991,57.384,11.954,42.238,6.189L34.34,3.179C30.905,1.87,27.364,4.83,28.042,8.442L30.174,19.804L30.141,19.603C30.92,25.042,27.757,30.577,21.909,33.733C12.384,38.877,6.658,46.902,6.658,56.475L6.658,56.808C6.658,75.783,23.302,88.023,45.447,88.023C48.044,88.023,50.15,85.917,50.15,83.319C50.15,80.721,48.044,78.615,45.447,78.615Z"/>
  <path stroke-miterlimit="4" fill="#000000" stroke-linecap="round" fill-opacity="1" stroke-linejoin="round" stroke-dasharray="none" fill-rule="nonzero" stroke="none" stroke-opacity="1" stroke-width="2px" d="M45.447,78.615C41.84,78.615,38.789,75.36,38.789,71.2C38.789,68.687,40.169,66.277,43.777,62.103C43.937,61.918,44.104,61.727,44.318,61.481C44.369,61.422,44.753,60.981,44.866,60.851L48.994,56.11L41.899,56.11L46.027,60.851C46.143,60.985,46.545,61.446,46.575,61.48C46.79,61.728,46.955,61.918,47.115,62.103C50.727,66.283,52.105,68.688,52.105,71.2C52.105,75.36,49.053,78.615,45.447,78.615ZM45.447,88.023C54.39,88.023,61.512,80.425,61.512,71.2C61.512,65.709,59.247,61.755,54.234,55.953C54.065,55.758,53.893,55.559,53.671,55.304C53.639,55.268,53.239,54.809,53.124,54.676L48.994,49.933C47.119,47.779,43.774,47.779,41.899,49.933L37.771,54.674C37.66,54.801,37.277,55.241,37.224,55.302C37.003,55.556,36.83,55.755,36.661,55.951C31.651,61.746,29.381,65.708,29.381,71.2C29.381,80.425,36.504,88.023,45.447,88.023Z"/>
</g>
  <g id="Regular-L" transform="matrix(1.0,0.0,0.0,1.0,1405.6833251953124,1475.3233447265625)">  <path fill-opacity="1" stroke-width="2px" stroke-dasharray="none" stroke-miterlimit="4" stroke-linecap="round" stroke="none" stroke-linejoin="round" stroke-opacity="1" fill="#000000" fill-rule="nonzero" d="M45.447,79.532C27.526,79.532,15.149,70.43,15.149,56.808L15.149,56.475C15.149,50.323,18.966,44.972,25.943,41.205C34.778,36.436,39.857,27.549,38.546,18.399C38.538,18.345,38.529,18.291,38.519,18.238L36.387,6.876L31.316,11.113L39.216,14.124C52.698,19.256,63.901,28.138,71.139,39.394C74.129,43.99,75.725,49.33,75.744,54.792L75.744,56.808C75.744,61.687,74.24,65.929,71.387,69.434C70.067,71.056,70.311,73.441,71.933,74.762C73.556,76.082,75.941,75.838,77.261,74.216C81.215,69.358,83.319,63.427,83.319,56.808L83.319,54.778C83.294,47.845,81.273,41.08,77.498,35.28C69.38,22.654,56.878,12.742,41.912,7.046L34.014,4.036C31.248,2.982,28.397,5.364,28.943,8.273L31.075,19.635L31.048,19.473C31.885,25.312,28.515,31.209,22.345,34.54C13.094,39.535,7.574,47.272,7.574,56.475L7.574,56.808C7.574,75.205,23.758,87.106,45.447,87.106C47.538,87.106,49.234,85.411,49.234,83.319C49.234,81.227,47.538,79.532,45.447,79.532Z"/>
  <path stroke-miterlimit="4" fill-rule="nonzero" stroke-linecap="round" stroke-width="2px" stroke-dasharray="none" fill="#000000" stroke="none" stroke-opacity="1" stroke-linejoin="round" fill-opacity="1" d="M45.447,79.532C41.32,79.532,37.872,75.854,37.872,71.2C37.872,68.397,39.34,65.835,43.084,61.504C43.245,61.317,43.412,61.126,43.627,60.879C43.678,60.82,44.062,60.379,44.175,60.249L48.303,55.508L42.59,55.508L46.718,60.25C46.835,60.383,47.236,60.844,47.266,60.878C47.482,61.127,47.648,61.318,47.809,61.504C51.557,65.842,53.021,68.398,53.021,71.2C53.021,75.854,49.573,79.532,45.447,79.532ZM45.447,87.106C53.87,87.106,60.596,79.931,60.596,71.2C60.596,65.999,58.417,62.197,53.54,56.552C53.372,56.358,53.201,56.16,52.979,55.905C52.948,55.87,52.548,55.41,52.432,55.277L48.303,50.534C46.794,48.8,44.1,48.8,42.59,50.534L38.462,55.276C38.351,55.403,37.968,55.843,37.915,55.904C37.695,56.157,37.522,56.356,37.354,56.55C32.481,62.187,30.298,65.999,30.298,71.2C30.298,79.931,37.024,87.106,45.447,87.106Z"/>
</g>
  <g id="Light-L" transform="matrix(1.0,0.0,0.0,1.0,1108.9733251953126,1475.3233447265625)">  <path stroke-linecap="round" stroke-linejoin="round" fill-opacity="1" fill="#000000" stroke-opacity="1" fill-rule="nonzero" stroke="none" stroke-dasharray="none" stroke-width="2px" stroke-miterlimit="4" d="M45.447,80.163C27.212,80.163,14.518,70.828,14.518,56.808L14.518,56.475C14.518,50.069,18.477,44.519,25.643,40.649C34.256,36,39.193,27.363,37.921,18.488L37.899,18.354L35.767,6.992L31.541,10.524L39.441,13.534C53.046,18.713,64.358,27.681,71.67,39.053C74.725,43.747,76.355,49.206,76.376,54.79L76.376,56.808C76.376,61.832,74.821,66.215,71.877,69.832C70.776,71.184,70.98,73.172,72.332,74.272C73.684,75.373,75.671,75.169,76.772,73.817C80.634,69.072,82.688,63.282,82.688,56.808L82.688,54.778C82.663,47.969,80.678,41.322,76.969,35.624C68.924,23.111,56.53,13.285,41.688,7.636L33.789,4.625C31.484,3.747,29.108,5.733,29.563,8.157L31.695,19.518L31.673,19.384C32.549,25.499,29.037,31.645,22.644,35.095C13.584,39.988,8.206,47.526,8.206,56.475L8.206,56.808C8.206,74.807,24.072,86.475,45.447,86.475C47.19,86.475,48.603,85.062,48.603,83.319C48.603,81.576,47.19,80.163,45.447,80.163Z"/>
  <path stroke-opacity="1" fill="#000000" stroke-linecap="round" stroke-linejoin="round" stroke-dasharray="none" fill-rule="nonzero" stroke="none" stroke-width="2px" stroke-miterlimit="4" fill-opacity="1" d="M45.447,80.163C40.962,80.163,37.241,76.193,37.241,71.2C37.241,68.197,38.768,65.531,42.607,61.091C42.768,60.904,42.935,60.711,43.151,60.464C43.202,60.405,43.586,59.964,43.699,59.835L47.827,55.093L43.066,55.093L47.194,59.835C47.311,59.969,47.712,60.43,47.742,60.464C47.959,60.713,48.125,60.905,48.286,61.091C52.129,65.538,53.652,68.198,53.652,71.2C53.652,76.193,49.931,80.163,45.447,80.163ZM45.447,86.475C53.512,86.475,59.964,79.591,59.964,71.2C59.964,66.199,57.845,62.5,53.062,56.964C52.895,56.771,52.724,56.574,52.503,56.32C52.472,56.284,52.072,55.825,51.956,55.692L47.827,50.949C46.569,49.504,44.324,49.504,43.066,50.949L38.938,55.69C38.827,55.818,38.444,56.258,38.391,56.318C38.171,56.571,37.999,56.769,37.832,56.963C33.052,62.491,30.929,66.198,30.929,71.2C30.929,79.591,37.382,86.475,45.447,86.475Z"/>
</g>
  <g id="Thin-L" transform="matrix(1.0,0.0,0.0,1.0,812.2633251953125,1475.3233447265625)">  <path stroke-linejoin="round" fill-opacity="1" stroke-opacity="1" stroke-linecap="round" stroke-dasharray="none" fill-rule="nonzero" fill="#000000" stroke="none" stroke-miterlimit="4" stroke-width="2px" d="M45.447,80.794C26.898,80.794,13.886,71.226,13.886,56.808L13.886,56.475C13.886,49.814,17.988,44.066,25.343,40.094C33.734,35.565,38.528,27.176,37.296,18.578L37.278,18.47L35.146,7.109L31.766,9.934L39.666,12.945C53.394,18.17,64.814,27.224,72.201,38.711C75.32,43.505,76.986,49.083,77.007,54.788L77.007,56.808C77.007,61.977,75.403,66.501,72.366,70.231C71.486,71.312,71.649,72.902,72.73,73.783C73.812,74.663,75.402,74.5,76.282,73.419C80.053,68.787,82.056,63.137,82.056,56.808L82.056,54.778C82.032,48.093,80.082,41.565,76.44,35.969C68.467,23.568,56.181,13.828,41.463,8.226L33.564,5.215C31.72,4.513,29.819,6.101,30.183,8.04L32.316,19.402L32.298,19.294C33.213,25.685,29.559,32.08,22.944,35.65C14.073,40.441,8.837,47.78,8.837,56.475L8.837,56.808C8.837,74.409,24.386,85.844,45.447,85.844C46.841,85.844,47.971,84.713,47.971,83.319C47.971,81.924,46.841,80.794,45.447,80.794Z"/>
  <path stroke-opacity="1" fill-rule="nonzero" stroke-width="2px" stroke="none" stroke-miterlimit="4" stroke-linejoin="round" fill="#000000" fill-opacity="1" stroke-dasharray="none" stroke-linecap="round" d="M45.447,80.794C40.604,80.794,36.61,76.533,36.61,71.2C36.61,67.997,38.196,65.227,42.129,60.678C42.291,60.49,42.459,60.297,42.675,60.05C42.726,59.99,43.111,59.55,43.223,59.42L47.351,54.679L43.542,54.679L47.67,59.421C47.787,59.555,48.188,60.015,48.218,60.05C48.435,60.299,48.602,60.491,48.764,60.678C52.7,65.235,54.284,67.998,54.284,71.2C54.284,76.533,50.289,80.794,45.447,80.794ZM45.447,85.844C53.154,85.844,59.333,79.252,59.333,71.2C59.333,66.399,57.274,62.804,52.585,57.377C52.418,57.185,52.248,56.988,52.027,56.734C51.996,56.699,51.596,56.239,51.48,56.106L47.351,51.363C46.345,50.207,44.549,50.207,43.542,51.363L39.414,56.105C39.303,56.233,38.92,56.672,38.867,56.733C38.647,56.985,38.476,57.183,38.309,57.376C33.624,62.795,31.56,66.398,31.56,71.2C31.56,79.252,37.74,85.844,45.447,85.844Z"/>
</g>
  <g id="Ultralight-L" transform="matrix(1.0,0.0,0.0,1.0,515.5533251953125,1475.3233447265625)">  <path stroke-width="2px" stroke="none" stroke-opacity="1" stroke-dasharray="none" stroke-linejoin="round" fill-opacity="1" stroke-linecap="round" fill-rule="nonzero" stroke-miterlimit="4" fill="#000000" d="M45.447,81.425C26.584,81.425,13.255,71.624,13.255,56.808L13.255,56.475C13.255,49.56,17.498,43.613,25.043,39.538C33.212,35.129,37.864,26.99,36.671,18.668L36.658,18.587L34.526,7.225L31.99,9.344L39.891,12.355C53.743,17.627,65.271,26.767,72.731,38.37C75.915,43.262,77.617,48.959,77.638,54.785L77.638,56.808C77.638,62.122,75.984,66.786,72.856,70.629C72.195,71.44,72.318,72.633,73.129,73.293C73.94,73.953,75.133,73.831,75.793,73.02C79.472,68.501,81.425,62.992,81.425,56.808L81.425,54.778C81.402,48.216,79.487,41.807,75.911,36.313C68.01,24.025,55.833,14.37,41.239,8.816L33.339,5.805C31.956,5.278,30.531,6.469,30.804,7.924L32.936,19.285L32.923,19.205C33.878,25.872,30.081,32.516,23.244,36.206C14.562,40.894,9.468,48.034,9.468,56.475L9.468,56.808C9.468,74.012,24.7,85.213,45.447,85.213C46.492,85.213,47.34,84.365,47.34,83.319C47.34,82.273,46.492,81.425,45.447,81.425Z"/>
  <path stroke-miterlimit="4" fill-rule="nonzero" fill-opacity="1" stroke-width="2px" stroke-dasharray="none" stroke-opacity="1" stroke-linecap="round" stroke="none" fill="#000000" stroke-linejoin="round" d="M45.447,81.425C40.246,81.425,35.979,76.873,35.979,71.2C35.979,67.797,37.625,64.923,41.652,60.265C41.814,60.077,41.982,59.883,42.199,59.635C42.251,59.576,42.635,59.135,42.747,59.006L46.875,54.265L44.018,54.265L48.147,59.006C48.263,59.14,48.664,59.601,48.694,59.635C48.912,59.885,49.079,60.078,49.241,60.266C53.272,64.931,54.915,67.798,54.915,71.2C54.915,76.873,50.647,81.425,45.447,81.425ZM45.447,85.213C52.796,85.213,58.702,78.912,58.702,71.2C58.702,66.599,56.702,63.108,52.107,57.79C51.941,57.598,51.771,57.402,51.551,57.149C51.52,57.113,51.12,56.654,51.004,56.52L46.875,51.778C46.12,50.911,44.773,50.911,44.018,51.778L39.89,56.519C39.779,56.647,39.396,57.087,39.343,57.148C39.124,57.399,38.953,57.596,38.787,57.788C34.195,63.099,32.191,66.598,32.191,71.2C32.191,78.912,38.098,85.213,45.447,85.213Z"/>
</g>
  <g id="Black-M" transform="matrix(1.0,0.0,0.0,1.0,2899.45001953125,1055.5400390625)">  <path stroke-miterlimit="4" stroke="none" stroke-linecap="round" stroke-linejoin="round" stroke-dasharray="none" fill-opacity="1" stroke-opacity="1" fill-rule="nonzero" fill="#000000" stroke-width="2px" d="M35.23,58.1C23.105,58.1,15.296,52.357,15.296,44.037L15.296,43.779C15.296,40.441,17.457,37.412,21.799,35.067C29.897,30.696,34.636,22.405,33.397,13.759C33.384,13.666,33.369,13.574,33.351,13.482L31.698,4.675L23.011,11.934L29.135,14.268C38.89,17.982,46.966,24.384,52.158,32.459C54.114,35.465,55.151,38.937,55.164,42.487L55.164,44.037C55.164,47.004,54.279,49.5,52.584,51.582C50.322,54.361,50.741,58.448,53.52,60.71C56.299,62.972,60.385,62.553,62.648,59.774C66.229,55.374,68.141,49.984,68.141,44.037L68.141,42.464C68.119,36.393,66.352,30.48,63.054,25.411C56.353,14.99,46.052,6.823,33.754,2.142L27.632,-0.191C22.895,-1.997,18.01,2.085,18.945,7.068L20.598,15.876L26.974,14.679L20.552,15.599C20.978,18.573,19.167,21.742,15.634,23.649C7.397,28.097,2.319,35.214,2.319,43.779L2.319,44.037C2.319,60.538,16.65,71.076,35.23,71.076C38.813,71.076,41.718,68.172,41.718,64.588C41.718,61.005,38.813,58.1,35.23,58.1Z"/>
  <path fill-rule="nonzero" fill="#000000" stroke-linecap="round" stroke-dasharray="none" stroke-miterlimit="4" stroke-width="2px" stroke="none" stroke-opacity="1" fill-opacity="1" stroke-linejoin="round" d="M35.23,58.1C34.046,58.1,32.911,56.889,32.911,55.194C32.911,54.146,33.713,52.746,36.086,50C36.207,49.86,36.334,49.714,36.498,49.526C36.537,49.481,36.835,49.139,36.924,49.037L40.123,45.362L35.23,41.102L30.336,45.362L33.537,49.038C33.627,49.141,33.938,49.499,33.961,49.525C34.126,49.714,34.252,49.86,34.373,50C36.749,52.75,37.549,54.147,37.549,55.194C37.549,56.889,36.414,58.1,35.23,58.1ZM35.23,71.076C43.775,71.076,50.526,63.875,50.526,55.194C50.526,52.254,49.684,49.529,48.181,46.906C47.155,45.114,46.005,43.614,44.192,41.516C44.059,41.362,43.923,41.206,43.749,41.005C43.724,40.977,43.414,40.622,43.326,40.52L40.123,36.841C37.537,33.871,32.923,33.871,30.336,36.841L27.136,40.517C27.051,40.615,26.755,40.955,26.713,41.003C26.539,41.202,26.403,41.359,26.269,41.514C24.458,43.609,23.306,45.112,22.278,46.906C20.776,49.529,19.934,52.254,19.934,55.194C19.934,63.875,26.685,71.076,35.23,71.076Z"/>
</g>
  <g id="Heavy-M" transform="matrix(1.0,0.0,0.0,1.0,2602.74001953125,1055.5400390625)">  <path stroke-linecap="round" fill-opacity="1" stroke-opacity="1" stroke="none" stroke-linejoin="round" stroke-miterlimit="4" stroke-width="2px" stroke-dasharray="none" fill="#000000" fill-rule="nonzero" d="M35.23,58.811C22.751,58.811,14.585,52.805,14.585,44.037L14.585,43.779C14.585,40.155,16.906,36.902,21.461,34.442C29.31,30.206,33.888,22.195,32.694,13.86C32.682,13.777,32.668,13.695,32.653,13.613L31,4.806L23.264,11.271L29.388,13.605C39.282,17.371,47.48,23.87,52.756,32.075C54.785,35.192,55.861,38.797,55.875,42.485L55.875,44.037C55.875,47.167,54.933,49.821,53.135,52.031C51.12,54.505,51.494,58.144,53.968,60.159C56.443,62.173,60.082,61.8,62.097,59.326C65.575,55.053,67.43,49.821,67.43,44.037L67.43,42.464C67.409,36.532,65.682,30.753,62.458,25.799C55.839,15.504,45.66,7.434,33.501,2.806L27.379,0.473C23.16,-1.135,18.81,2.5,19.643,6.937L21.296,15.745L21.255,15.499C21.726,18.783,19.755,22.232,15.972,24.274C7.947,28.607,3.03,35.5,3.03,43.779L3.03,44.037C3.03,60.09,17.003,70.366,35.23,70.366C38.421,70.366,41.008,67.779,41.008,64.588C41.008,61.397,38.421,58.811,35.23,58.811Z"/>
  <path fill-rule="nonzero" stroke="none" fill-opacity="1" stroke-dasharray="none" stroke-opacity="1" fill="#000000" stroke-linecap="round" stroke-linejoin="round" stroke-width="2px" stroke-miterlimit="4" d="M35.23,58.811C33.643,58.811,32.2,57.271,32.2,55.194C32.2,53.921,33.069,52.404,35.548,49.536C35.67,49.395,35.798,49.248,35.962,49.06C36.001,49.014,36.3,48.672,36.388,48.571L39.588,44.895L35.23,41.102L30.872,44.895L34.072,48.571C34.162,48.675,34.474,49.033,34.497,49.058C34.662,49.248,34.789,49.394,34.91,49.535C37.393,52.408,38.26,53.922,38.26,55.194C38.26,57.271,36.817,58.811,35.23,58.811ZM35.23,70.366C43.372,70.366,49.815,63.492,49.815,55.194C49.815,52.389,49.01,49.782,47.565,47.26C46.566,45.517,45.44,44.047,43.654,41.981C43.522,41.827,43.387,41.672,43.213,41.472C43.188,41.443,42.879,41.088,42.79,40.986L39.588,37.308C37.285,34.663,33.175,34.663,30.872,37.308L27.672,40.984C27.587,41.082,27.29,41.422,27.249,41.47C27.076,41.668,26.94,41.825,26.807,41.979C25.023,44.042,23.894,45.515,22.895,47.259C21.45,49.781,20.645,52.389,20.645,55.194C20.645,63.492,27.088,70.366,35.23,70.366Z"/>
</g>
  <g id="Bold-M" transform="matrix(1.0,0.0,0.0,1.0,2306.0300195312498,1055.5400390625)">  <path stroke-miterlimit="4" stroke="none" fill="#000000" stroke-opacity="1" fill-rule="nonzero" stroke-width="2px" fill-opacity="1" stroke-dasharray="none" stroke-linecap="round" stroke-linejoin="round" d="M35.23,59.521C22.398,59.521,13.875,53.253,13.875,44.037L13.875,43.779C13.875,39.869,16.355,36.392,21.124,33.817C28.722,29.716,33.14,21.985,31.99,13.96C31.98,13.888,31.968,13.816,31.955,13.745L30.302,4.937L23.517,10.607L29.641,12.941C39.675,16.76,47.994,23.355,53.354,31.691C55.455,34.919,56.571,38.658,56.585,42.482L56.585,44.037C56.585,47.33,55.588,50.143,53.686,52.479C51.919,54.649,52.246,57.841,54.417,59.608C56.587,61.375,59.779,61.047,61.546,58.877C64.921,54.731,66.72,49.658,66.72,44.037L66.72,42.464C66.699,36.671,65.012,31.026,61.863,26.186C55.325,16.018,45.268,8.045,33.248,3.47L27.126,1.137C23.426,-0.273,19.611,2.915,20.341,6.806L21.994,15.614L21.958,15.398C22.473,18.993,20.342,22.722,16.309,24.899C8.498,29.117,3.74,35.786,3.74,43.779L3.74,44.037C3.74,59.642,17.357,69.656,35.23,69.656C38.029,69.656,40.297,67.387,40.297,64.588C40.297,61.79,38.029,59.521,35.23,59.521Z"/>
  <path stroke-linecap="round" fill-rule="nonzero" stroke-miterlimit="4" stroke-linejoin="round" stroke-width="2px" stroke-opacity="1" stroke-dasharray="none" stroke="none" fill="#000000" fill-opacity="1" d="M35.23,59.521C33.24,59.521,31.49,57.654,31.49,55.194C31.49,53.696,32.426,52.062,35.011,49.071C35.134,48.929,35.261,48.782,35.426,48.593C35.466,48.548,35.764,48.205,35.852,48.104L39.052,44.429L35.23,41.102L31.408,44.429L34.608,48.105C34.698,48.208,35.01,48.566,35.032,48.592C35.199,48.783,35.326,48.929,35.448,49.071C38.036,52.066,38.97,53.697,38.97,55.194C38.97,57.654,37.22,59.521,35.23,59.521ZM35.23,69.656C42.969,69.656,49.105,63.11,49.105,55.194C49.105,52.523,48.336,50.034,46.948,47.613C45.978,45.92,44.874,44.479,43.117,42.445C42.985,42.292,42.85,42.138,42.677,41.938C42.652,41.91,42.343,41.554,42.254,41.452L39.052,37.774C37.032,35.454,33.428,35.454,31.408,37.774L28.208,41.45C28.123,41.548,27.826,41.889,27.784,41.936C27.612,42.134,27.476,42.29,27.344,42.443C25.589,44.474,24.482,45.918,23.511,47.612C22.124,50.034,21.355,52.524,21.355,55.194C21.355,63.11,27.491,69.656,35.23,69.656Z"/>
</g>
  <g id="Semibold-M" transform="matrix(1.0,0.0,0.0,1.0,2009.32001953125,1055.5400390625)">  <path stroke-linejoin="round" stroke-opacity="1" stroke-linecap="round" fill-opacity="1" stroke-miterlimit="4" stroke="none" fill-rule="nonzero" fill="#000000" stroke-dasharray="none" stroke-width="2px" d="M35.23,60.232C22.044,60.232,13.164,53.701,13.164,44.037L13.164,43.779C13.164,39.582,15.804,35.882,20.786,33.192C28.135,29.225,32.392,21.775,31.287,14.061C31.278,13.999,31.268,13.937,31.256,13.876L29.604,5.068L23.77,9.943L29.894,12.277C40.067,16.149,48.508,22.841,53.951,31.307C56.125,34.646,57.281,38.519,57.296,42.48L57.296,44.037C57.296,47.493,56.242,50.464,54.237,52.928C52.718,54.794,52.999,57.538,54.865,59.057C56.731,60.576,59.476,60.295,60.995,58.428C64.266,54.409,66.009,49.495,66.009,44.037L66.009,42.464C65.989,36.811,64.342,31.299,61.267,26.574C54.811,16.533,44.876,8.656,32.996,4.134L26.873,1.801C23.692,0.588,20.412,3.329,21.04,6.675L22.692,15.483L22.662,15.297C23.221,19.203,20.93,23.213,16.647,25.524C9.049,29.627,4.451,36.072,4.451,43.779L4.451,44.037C4.451,59.195,17.71,68.945,35.23,68.945C37.636,68.945,39.587,66.994,39.587,64.588C39.587,62.182,37.636,60.232,35.23,60.232Z"/>
  <path stroke-width="2px" stroke-dasharray="none" stroke-linecap="round" stroke="none" stroke-linejoin="round" fill-opacity="1" stroke-miterlimit="4" stroke-opacity="1" fill="#000000" fill-rule="nonzero" d="M35.23,60.232C32.837,60.232,30.779,58.036,30.779,55.194C30.779,53.471,31.782,51.719,34.474,48.606C34.597,48.464,34.725,48.316,34.891,48.126C34.93,48.081,35.228,47.739,35.316,47.638L38.516,43.962L31.944,43.962L35.144,47.638C35.234,47.742,35.546,48.099,35.568,48.125C35.735,48.317,35.863,48.464,35.986,48.606C38.68,51.724,39.681,53.472,39.681,55.194C39.681,58.036,37.623,60.232,35.23,60.232ZM35.23,68.945C42.566,68.945,48.394,62.727,48.394,55.194C48.394,52.658,47.662,50.287,46.332,47.966C45.39,46.322,44.309,44.912,42.579,42.91C42.448,42.758,42.314,42.603,42.141,42.405C42.116,42.377,41.807,42.021,41.718,41.918L38.516,38.241C36.779,36.246,33.681,36.246,31.944,38.241L28.744,41.917C28.658,42.015,28.361,42.356,28.32,42.403C28.148,42.601,28.013,42.756,27.882,42.908C26.154,44.907,25.07,46.32,24.128,47.965C22.798,50.286,22.066,52.658,22.066,55.194C22.066,62.727,27.894,68.945,35.23,68.945Z"/>
</g>
  <g id="Medium-M" transform="matrix(1.0,0.0,0.0,1.0,1712.61001953125,1055.5400390625)">  <path fill-rule="nonzero" stroke-dasharray="none" stroke-linejoin="round" stroke-linecap="round" stroke-opacity="1" stroke-miterlimit="4" stroke-width="2px" fill="#000000" fill-opacity="1" stroke="none" d="M35.23,60.942C21.691,60.942,12.454,54.149,12.454,44.037L12.454,43.779C12.454,39.296,15.253,35.372,20.448,32.567C27.547,28.735,31.645,21.565,30.584,14.162C30.576,14.11,30.568,14.058,30.558,14.007L28.905,5.199L24.023,9.279L30.147,11.613C40.459,15.538,49.022,22.327,54.549,30.922C56.795,34.373,57.991,38.38,58.006,42.477L58.006,44.037C58.006,47.656,56.896,50.786,54.788,53.376C53.517,54.938,53.752,57.235,55.314,58.506C56.876,59.777,59.172,59.542,60.444,57.98C63.612,54.088,65.299,49.332,65.299,44.037L65.299,42.464C65.279,36.95,63.672,31.572,60.672,26.961C54.297,17.047,44.484,9.267,32.743,4.798L26.62,2.464C23.958,1.45,21.212,3.744,21.738,6.544L23.391,15.352L23.365,15.196C23.969,19.412,21.517,23.703,16.984,26.15C9.6,30.137,5.161,36.358,5.161,43.779L5.161,44.037C5.161,58.747,18.063,68.235,35.23,68.235C37.244,68.235,38.876,66.602,38.876,64.588C38.876,62.574,37.244,60.942,35.23,60.942Z"/>
  <path stroke-miterlimit="4" fill="#000000" stroke-linecap="round" fill-opacity="1" stroke-linejoin="round" stroke-dasharray="none" fill-rule="nonzero" stroke="none" stroke-opacity="1" stroke-width="2px" d="M35.23,60.942C32.434,60.942,30.069,58.419,30.069,55.194C30.069,53.246,31.139,51.377,33.936,48.142C34.06,47.998,34.189,47.85,34.355,47.66C34.395,47.614,34.693,47.272,34.78,47.171L37.98,43.496L32.48,43.496L35.68,47.172C35.77,47.275,36.081,47.633,36.104,47.659C36.271,47.851,36.399,47.999,36.523,48.142C39.323,51.382,40.391,53.247,40.391,55.194C40.391,58.419,38.026,60.942,35.23,60.942ZM35.23,68.235C42.163,68.235,47.684,62.345,47.684,55.194C47.684,50.937,45.928,47.872,42.042,43.374C41.911,43.223,41.778,43.069,41.605,42.871C41.581,42.843,41.271,42.487,41.181,42.385L37.98,38.707C36.527,37.038,33.933,37.038,32.48,38.707L29.28,42.383C29.194,42.482,28.897,42.822,28.856,42.87C28.684,43.067,28.55,43.221,28.419,43.373C24.536,47.865,22.776,50.937,22.776,55.194C22.776,62.345,28.297,68.235,35.23,68.235Z"/>
</g>
  <g id="Regular-M" transform="matrix(1.0,0.0,0.0,1.0,1415.9000195312499,1055.5400390625)">  <path fill-opacity="1" stroke-width="2px" stroke-dasharray="none" stroke-miterlimit="4" stroke-linecap="round" stroke="none" stroke-linejoin="round" stroke-opacity="1" fill="#000000" fill-rule="nonzero" d="M35.23,61.652C21.338,61.652,11.743,54.597,11.743,44.037L11.743,43.779C11.743,39.01,14.703,34.862,20.111,31.942C26.96,28.245,30.897,21.356,29.881,14.263C29.875,14.221,29.868,14.179,29.86,14.138L28.207,5.33L24.276,8.615L30.4,10.949C40.851,14.927,49.536,21.812,55.146,30.538C57.465,34.1,58.701,38.24,58.717,42.474L58.717,44.037C58.717,47.82,57.55,51.108,55.339,53.825C54.315,55.082,54.505,56.931,55.762,57.955C57.02,58.978,58.869,58.789,59.893,57.531C62.958,53.766,64.588,49.168,64.588,44.037L64.588,42.464C64.569,37.089,63.002,31.845,60.076,27.349C53.783,17.561,44.091,9.878,32.49,5.462L26.367,3.128C24.223,2.311,22.013,4.158,22.436,6.413L24.089,15.221L24.068,15.096C24.717,19.622,22.105,24.193,17.321,26.775C10.151,30.647,5.872,36.645,5.872,43.779L5.872,44.037C5.872,58.299,18.417,67.524,35.23,67.524C36.851,67.524,38.166,66.21,38.166,64.588C38.166,62.967,36.851,61.652,35.23,61.652Z"/>
  <path stroke-miterlimit="4" fill-rule="nonzero" stroke-linecap="round" stroke-width="2px" stroke-dasharray="none" fill="#000000" stroke="none" stroke-opacity="1" stroke-linejoin="round" fill-opacity="1" d="M35.23,61.652C32.031,61.652,29.358,58.801,29.358,55.194C29.358,53.021,30.496,51.035,33.399,47.677C33.523,47.533,33.653,47.384,33.819,47.193C33.859,47.147,34.157,46.805,34.244,46.705L37.444,43.029L33.016,43.029L36.216,46.705C36.306,46.809,36.617,47.166,36.64,47.193C36.808,47.385,36.936,47.533,37.061,47.677C39.967,51.041,41.102,53.022,41.102,55.194C41.102,58.801,38.429,61.652,35.23,61.652ZM35.23,67.524C41.76,67.524,46.973,61.962,46.973,55.194C46.973,51.162,45.285,48.214,41.504,43.839C41.374,43.688,41.241,43.535,41.069,43.338C41.045,43.31,40.735,42.954,40.645,42.851L37.444,39.174C36.274,37.83,34.186,37.83,33.016,39.174L29.816,42.85C29.73,42.948,29.433,43.289,29.392,43.336C29.221,43.533,29.087,43.686,28.957,43.837C25.179,48.207,23.487,51.162,23.487,55.194C23.487,61.962,28.7,67.524,35.23,67.524Z"/>
</g>
  <g id="Light-M" transform="matrix(1.0,0.0,0.0,1.0,1119.19001953125,1055.5400390625)">  <path stroke-linecap="round" stroke-linejoin="round" fill-opacity="1" fill="#000000" stroke-opacity="1" fill-rule="nonzero" stroke="none" stroke-dasharray="none" stroke-width="2px" stroke-miterlimit="4" d="M35.23,62.142C21.094,62.142,11.254,54.905,11.254,44.037L11.254,43.779C11.254,38.813,14.323,34.511,19.878,31.511C26.555,27.907,30.382,21.211,29.396,14.332L29.379,14.228L27.726,5.42L24.45,8.158L30.574,10.492C41.121,14.506,49.89,21.458,55.558,30.273C57.926,33.912,59.19,38.144,59.206,42.473L59.206,44.037C59.206,47.932,58.001,51.329,55.718,54.134C54.865,55.181,55.023,56.722,56.071,57.575C57.119,58.428,58.66,58.27,59.513,57.223C62.507,53.544,64.099,49.056,64.099,44.037L64.099,42.464C64.08,37.185,62.541,32.033,59.666,27.616C53.429,17.916,43.821,10.298,32.316,5.919L26.193,3.586C24.406,2.905,22.564,4.444,22.917,6.323L24.57,15.13L24.553,15.026C25.232,19.767,22.509,24.531,17.554,27.205C10.53,30.998,6.361,36.842,6.361,43.779L6.361,44.037C6.361,57.99,18.66,67.035,35.23,67.035C36.581,67.035,37.677,65.939,37.677,64.588C37.677,63.237,36.581,62.142,35.23,62.142Z"/>
  <path stroke-opacity="1" fill="#000000" stroke-linecap="round" stroke-linejoin="round" stroke-dasharray="none" fill-rule="nonzero" stroke="none" stroke-width="2px" stroke-miterlimit="4" fill-opacity="1" d="M35.23,62.142C31.754,62.142,28.869,59.065,28.869,55.194C28.869,52.866,30.053,50.799,33.028,47.357C33.154,47.212,33.283,47.063,33.45,46.872C33.49,46.826,33.788,46.484,33.875,46.384L37.075,42.708L33.385,42.708L36.585,46.384C36.675,46.488,36.986,46.845,37.009,46.871C37.177,47.064,37.306,47.213,37.431,47.357C40.41,50.805,41.591,52.867,41.591,55.194C41.591,59.065,38.706,62.142,35.23,62.142ZM35.23,67.035C41.482,67.035,46.484,61.699,46.484,55.194C46.484,51.317,44.841,48.45,41.134,44.158C41.004,44.009,40.872,43.856,40.7,43.659C40.676,43.631,40.366,43.275,40.276,43.172L37.075,39.495C36.1,38.375,34.36,38.375,33.385,39.495L30.185,43.171C30.099,43.27,29.801,43.611,29.76,43.658C29.59,43.854,29.457,44.007,29.327,44.157C25.622,48.443,23.976,51.317,23.976,55.194C23.976,61.699,28.978,67.035,35.23,67.035Z"/>
</g>
  <g id="Thin-M" transform="matrix(1.0,0.0,0.0,1.0,822.48001953125,1055.5400390625)">  <path stroke-linejoin="round" fill-opacity="1" stroke-opacity="1" stroke-linecap="round" stroke-dasharray="none" fill-rule="nonzero" fill="#000000" stroke="none" stroke-miterlimit="4" stroke-width="2px" d="M35.23,62.631C20.851,62.631,10.765,55.214,10.765,44.037L10.765,43.779C10.765,38.616,13.944,34.16,19.646,31.08C26.151,27.569,29.867,21.067,28.912,14.402L28.898,14.318L27.245,5.511L24.625,7.701L30.749,10.035C41.391,14.085,50.244,21.104,55.969,30.009C58.388,33.724,59.679,38.048,59.695,42.471L59.695,44.037C59.695,48.044,58.452,51.551,56.098,54.442C55.415,55.281,55.542,56.514,56.38,57.196C57.218,57.878,58.451,57.752,59.134,56.914C62.056,53.323,63.61,48.944,63.61,44.037L63.61,42.464C63.591,37.281,62.079,32.221,59.256,27.883C53.075,18.27,43.551,10.719,32.142,6.376L26.019,4.043C24.589,3.498,23.116,4.73,23.398,6.233L25.051,15.04L25.037,14.957C25.747,19.911,22.914,24.868,17.786,27.636C10.909,31.35,6.85,37.039,6.85,43.779L6.85,44.037C6.85,57.682,18.904,66.546,35.23,66.546C36.311,66.546,37.187,65.669,37.187,64.588C37.187,63.507,36.311,62.631,35.23,62.631Z"/>
  <path stroke-opacity="1" fill-rule="nonzero" stroke-width="2px" stroke="none" stroke-miterlimit="4" stroke-linejoin="round" fill="#000000" fill-opacity="1" stroke-dasharray="none" stroke-linecap="round" d="M35.23,62.631C31.476,62.631,28.38,59.328,28.38,55.194C28.38,52.711,29.61,50.564,32.658,47.037C32.784,46.892,32.914,46.742,33.081,46.55C33.121,46.504,33.419,46.162,33.506,46.062L36.706,42.387L33.754,42.387L36.954,46.062C37.044,46.166,37.355,46.523,37.378,46.55C37.547,46.743,37.676,46.892,37.801,47.038C40.853,50.569,42.08,52.712,42.08,55.194C42.08,59.328,38.984,62.631,35.23,62.631ZM35.23,66.546C41.204,66.546,45.995,61.435,45.995,55.194C45.995,51.472,44.398,48.685,40.763,44.478C40.634,44.329,40.502,44.177,40.331,43.98C40.307,43.952,39.997,43.596,39.907,43.493L36.706,39.816C35.926,38.92,34.534,38.92,33.754,39.816L30.554,43.492C30.468,43.591,30.17,43.932,30.129,43.979C29.959,44.175,29.826,44.328,29.697,44.477C26.065,48.678,24.465,51.472,24.465,55.194C24.465,61.435,29.256,66.546,35.23,66.546Z"/>
</g>
  <g id="Ultralight-M" transform="matrix(1.0,0.0,0.0,1.0,525.77001953125,1055.5400390625)">  <path stroke-width="2px" stroke="none" stroke-opacity="1" stroke-dasharray="none" stroke-linejoin="round" fill-opacity="1" stroke-linecap="round" fill-rule="nonzero" stroke-miterlimit="4" fill="#000000" d="M35.23,63.12C20.607,63.12,10.275,55.522,10.275,44.037L10.275,43.779C10.275,38.419,13.565,33.808,19.413,30.65C25.746,27.232,29.352,20.922,28.427,14.471L28.417,14.408L26.764,5.601L24.799,7.243L30.923,9.577C41.661,13.664,50.598,20.75,56.381,29.744C58.849,33.537,60.168,37.953,60.185,42.469L60.185,44.037C60.185,48.157,58.902,51.772,56.477,54.751C55.965,55.38,56.06,56.305,56.689,56.816C57.318,57.328,58.242,57.233,58.754,56.605C61.606,53.101,63.12,48.831,63.12,44.037L63.12,42.464C63.102,37.377,61.618,32.409,58.846,28.15C52.721,18.624,43.281,11.14,31.968,6.834L25.844,4.5C24.772,4.091,23.667,5.015,23.879,6.142L25.532,14.95L25.521,14.887C26.262,20.055,23.318,25.206,18.019,28.067C11.289,31.701,7.34,37.236,7.34,43.779L7.34,44.037C7.34,57.373,19.147,66.056,35.23,66.056C36.041,66.056,36.698,65.399,36.698,64.588C36.698,63.778,36.041,63.12,35.23,63.12Z"/>
  <path stroke-miterlimit="4" fill-rule="nonzero" fill-opacity="1" stroke-width="2px" stroke-dasharray="none" stroke-opacity="1" stroke-linecap="round" stroke="none" fill="#000000" stroke-linejoin="round" d="M35.23,63.12C31.198,63.12,27.89,59.591,27.89,55.194C27.89,52.556,29.167,50.328,32.288,46.717C32.414,46.571,32.545,46.421,32.712,46.229C32.752,46.183,33.05,45.841,33.137,45.741L36.337,42.066L34.123,42.066L37.323,45.741C37.413,45.845,37.724,46.202,37.747,46.229C37.916,46.423,38.046,46.572,38.172,46.718C41.296,50.334,42.57,52.557,42.57,55.194C42.57,59.591,39.262,63.12,35.23,63.12ZM35.23,66.056C40.927,66.056,45.505,61.172,45.505,55.194C45.505,51.627,43.955,48.921,40.393,44.798C40.265,44.649,40.133,44.498,39.962,44.301C39.938,44.274,39.628,43.918,39.538,43.814L36.337,40.138C35.752,39.466,34.708,39.466,34.123,40.138L30.923,43.813C30.837,43.913,30.539,44.254,30.498,44.3C30.329,44.495,30.196,44.648,30.067,44.797C26.508,48.914,24.955,51.626,24.955,55.194C24.955,61.172,29.533,66.056,35.23,66.056Z"/>
</g>
  <g id="Black-S" transform="matrix(1.0,0.0,0.0,1.0,2907.0949252929686,633.1849448242187)">  <path stroke-miterlimit="4" stroke="none" stroke-linecap="round" stroke-linejoin="round" stroke-dasharray="none" fill-opacity="1" stroke-opacity="1" fill-rule="nonzero" fill="#000000" stroke-width="2px" d="M27.585,45.492C18.091,45.492,11.977,40.996,11.977,34.481L11.977,34.279C11.977,31.665,13.669,29.294,17.068,27.458C23.41,24.035,27.12,17.543,26.15,10.773C26.139,10.701,26.128,10.629,26.114,10.557L24.82,3.66L18.018,9.345L22.813,11.172C30.451,14.08,36.774,19.093,40.84,25.416C42.372,27.769,43.184,30.487,43.194,33.268L43.194,34.481C43.194,36.804,42.501,38.758,41.173,40.389C39.402,42.565,39.73,45.765,41.906,47.536C44.082,49.307,47.282,48.979,49.053,46.803C51.857,43.358,53.354,39.138,53.354,34.481L53.354,33.249C53.337,28.496,51.954,23.866,49.371,19.897C44.124,11.737,36.059,5.342,26.429,1.677L21.636,-0.15C17.926,-1.563,14.101,1.633,14.834,5.535L16.128,12.431L21.121,11.494L16.092,12.214C16.426,14.543,15.008,17.024,12.242,18.517C5.791,22,1.816,27.572,1.816,34.279L1.816,34.481C1.816,47.401,13.037,55.653,27.585,55.653C30.391,55.653,32.665,53.378,32.665,50.573C32.665,47.767,30.391,45.492,27.585,45.492Z"/>
  <path fill-rule="nonzero" fill="#000000" stroke-linecap="round" stroke-dasharray="none" stroke-miterlimit="4" stroke-width="2px" stroke="none" stroke-opacity="1" fill-opacity="1" stroke-linejoin="round" d="M27.585,45.492C26.658,45.492,25.769,44.544,25.769,43.217C25.769,42.396,26.397,41.3,28.255,39.15C28.35,39.04,28.449,38.926,28.578,38.779C28.608,38.744,28.842,38.476,28.911,38.396L31.417,35.518L27.585,32.183L23.753,35.518L26.259,38.396C26.33,38.477,26.574,38.758,26.591,38.778C26.72,38.926,26.819,39.04,26.914,39.15C28.775,41.303,29.401,42.397,29.401,43.217C29.401,44.544,28.512,45.492,27.585,45.492ZM27.585,55.653C34.276,55.653,39.562,50.014,39.562,43.217C39.562,40.915,38.902,38.781,37.726,36.728C36.922,35.324,36.022,34.15,34.602,32.507C34.498,32.386,34.392,32.264,34.255,32.107C34.236,32.085,33.994,31.807,33.924,31.727L31.417,28.847C29.392,26.521,25.778,26.521,23.753,28.847L21.248,31.725C21.181,31.801,20.949,32.068,20.916,32.105C20.78,32.261,20.673,32.384,20.569,32.505C19.151,34.146,18.248,35.323,17.444,36.727C16.268,38.781,15.609,40.915,15.609,43.217C15.609,50.014,20.895,55.653,27.585,55.653Z"/>
</g>
  <g id="Heavy-S" transform="matrix(1.0,0.0,0.0,1.0,2610.3849252929685,633.1849448242187)">  <path stroke-linecap="round" fill-opacity="1" stroke-opacity="1" stroke="none" stroke-linejoin="round" stroke-miterlimit="4" stroke-width="2px" stroke-dasharray="none" fill="#000000" fill-rule="nonzero" d="M27.585,46.049C17.814,46.049,11.42,41.347,11.42,34.481L11.42,34.279C11.42,31.441,13.237,28.894,16.804,26.968C22.95,23.651,26.534,17.379,25.599,10.852C25.59,10.788,25.579,10.723,25.567,10.659L24.273,3.763L18.216,8.825L23.011,10.652C30.758,13.601,37.177,18.69,41.308,25.115C42.896,27.556,43.74,30.378,43.75,33.266L43.75,34.481C43.75,36.932,43.013,39.01,41.605,40.74C40.027,42.678,40.319,45.527,42.257,47.104C44.195,48.682,47.044,48.39,48.622,46.452C51.345,43.106,52.798,39.01,52.798,34.481L52.798,33.249C52.781,28.605,51.429,24.079,48.905,20.2C43.722,12.14,35.752,5.821,26.231,2.197L21.438,0.37C18.135,-0.889,14.728,1.958,15.38,5.432L16.675,12.328L16.643,12.135C17.011,14.707,15.468,17.408,12.506,19.007C6.223,22.399,2.372,27.796,2.372,34.279L2.372,34.481C2.372,47.051,13.313,55.097,27.585,55.097C30.084,55.097,32.109,53.071,32.109,50.573C32.109,48.074,30.084,46.049,27.585,46.049Z"/>
  <path fill-rule="nonzero" stroke="none" fill-opacity="1" stroke-dasharray="none" stroke-opacity="1" fill="#000000" stroke-linecap="round" stroke-linejoin="round" stroke-width="2px" stroke-miterlimit="4" d="M27.585,46.049C26.343,46.049,25.213,44.843,25.213,43.217C25.213,42.22,25.893,41.032,27.834,38.786C27.93,38.676,28.029,38.561,28.158,38.414C28.189,38.378,28.423,38.11,28.492,38.031L30.997,35.153L27.585,32.183L24.173,35.153L26.679,38.031C26.749,38.112,26.993,38.393,27.011,38.413C27.14,38.562,27.239,38.676,27.335,38.786C29.279,41.036,29.957,42.221,29.957,43.217C29.957,44.843,28.828,46.049,27.585,46.049ZM27.585,55.097C33.96,55.097,39.005,49.714,39.005,43.217C39.005,41.02,38.375,38.979,37.243,37.004C36.461,35.64,35.579,34.489,34.181,32.871C34.078,32.751,33.972,32.629,33.836,32.472C33.816,32.45,33.574,32.172,33.504,32.092L30.997,29.212C29.194,27.141,25.976,27.141,24.173,29.212L21.667,32.09C21.601,32.167,21.368,32.433,21.336,32.471C21.2,32.626,21.094,32.749,20.99,32.869C19.593,34.484,18.709,35.638,17.927,37.004C16.796,38.979,16.165,41.02,16.165,43.217C16.165,49.714,21.21,55.097,27.585,55.097Z"/>
</g>
  <g id="Bold-S" transform="matrix(1.0,0.0,0.0,1.0,2313.6749252929685,633.1849448242187)">  <path stroke-miterlimit="4" stroke="none" fill="#000000" stroke-opacity="1" fill-rule="nonzero" stroke-width="2px" fill-opacity="1" stroke-dasharray="none" stroke-linecap="round" stroke-linejoin="round" d="M27.585,46.605C17.538,46.605,10.864,41.697,10.864,34.481L10.864,34.279C10.864,31.217,12.806,28.495,16.54,26.479C22.49,23.267,25.949,17.214,25.049,10.931C25.04,10.874,25.031,10.818,25.021,10.762L23.726,3.866L18.414,8.305L23.209,10.133C31.065,13.123,37.579,18.287,41.776,24.814C43.421,27.342,44.295,30.269,44.306,33.264L44.306,34.481C44.306,37.059,43.525,39.262,42.036,41.091C40.653,42.791,40.909,45.29,42.608,46.673C44.308,48.056,46.807,47.8,48.19,46.101C50.833,42.854,52.242,38.882,52.242,34.481L52.242,33.249C52.225,28.714,50.905,24.293,48.439,20.504C43.319,12.542,35.445,6.299,26.033,2.717L21.24,0.89C18.343,-0.214,15.355,2.282,15.927,5.329L17.221,12.226L17.193,12.057C17.597,14.871,15.928,17.792,12.77,19.496C6.654,22.799,2.929,28.02,2.929,34.279L2.929,34.481C2.929,46.7,13.59,54.54,27.585,54.54C29.776,54.54,31.553,52.764,31.553,50.573C31.553,48.381,29.776,46.605,27.585,46.605Z"/>
  <path stroke-linecap="round" fill-rule="nonzero" stroke-miterlimit="4" stroke-linejoin="round" stroke-width="2px" stroke-opacity="1" stroke-dasharray="none" stroke="none" fill="#000000" fill-opacity="1" d="M27.585,46.605C26.027,46.605,24.656,45.143,24.656,43.217C24.656,42.044,25.389,40.764,27.414,38.423C27.51,38.312,27.61,38.196,27.739,38.048C27.77,38.013,28.003,37.745,28.072,37.666L30.578,34.788L27.585,32.183L24.593,34.788L27.098,37.666C27.169,37.747,27.413,38.027,27.43,38.047C27.56,38.197,27.66,38.311,27.756,38.422C29.782,40.768,30.514,42.045,30.514,43.217C30.514,45.143,29.143,46.605,27.585,46.605ZM27.585,54.54C33.644,54.54,38.449,49.415,38.449,43.217C38.449,41.126,37.847,39.177,36.761,37.281C36.001,35.955,35.137,34.827,33.76,33.235C33.657,33.115,33.552,32.994,33.416,32.838C33.397,32.815,33.154,32.537,33.085,32.457L30.578,29.577C28.996,27.761,26.174,27.761,24.593,29.577L22.087,32.455C22.02,32.532,21.788,32.799,21.755,32.836C21.62,32.991,21.514,33.113,21.41,33.233C20.036,34.823,19.169,35.954,18.409,37.28C17.323,39.177,16.721,41.126,16.721,43.217C16.721,49.415,21.526,54.54,27.585,54.54Z"/>
</g>
  <g id="Semibold-S" transform="matrix(1.0,0.0,0.0,1.0,2016.9649252929687,633.1849448242187)">  <path stroke-linejoin="round" stroke-opacity="1" stroke-linecap="round" fill-opacity="1" stroke-miterlimit="4" stroke="none" fill-rule="nonzero" fill="#000000" stroke-dasharray="none" stroke-width="2px" d="M27.585,47.161C17.261,47.161,10.308,42.048,10.308,34.481L10.308,34.279C10.308,30.993,12.375,28.096,16.275,25.989C22.03,22.883,25.363,17.05,24.498,11.01C24.491,10.961,24.483,10.913,24.474,10.865L23.18,3.968L18.612,7.785L23.407,9.613C31.372,12.644,37.982,17.885,42.244,24.513C43.946,27.128,44.851,30.16,44.863,33.262L44.863,34.481C44.863,37.187,44.037,39.514,42.467,41.442C41.278,42.903,41.498,45.052,42.959,46.242C44.421,47.431,46.569,47.211,47.759,45.75C50.32,42.602,51.685,38.754,51.685,34.481L51.685,33.249C51.669,28.823,50.38,24.507,47.972,20.807C42.917,12.945,35.138,6.777,25.835,3.237L21.042,1.41C18.551,0.46,15.982,2.607,16.474,5.227L17.768,12.123L17.744,11.978C18.182,15.036,16.388,18.175,13.034,19.986C7.085,23.198,3.485,28.245,3.485,34.279L3.485,34.481C3.485,46.349,13.867,53.984,27.585,53.984C29.469,53.984,30.996,52.457,30.996,50.573C30.996,48.689,29.469,47.161,27.585,47.161Z"/>
  <path stroke-width="2px" stroke-dasharray="none" stroke-linecap="round" stroke="none" stroke-linejoin="round" fill-opacity="1" stroke-miterlimit="4" stroke-opacity="1" fill="#000000" fill-rule="nonzero" d="M27.585,47.161C25.711,47.161,24.1,45.442,24.1,43.217C24.1,41.868,24.886,40.496,26.993,38.059C27.089,37.947,27.19,37.832,27.319,37.683C27.35,37.647,27.584,37.379,27.652,37.3L30.158,34.423L25.012,34.423L27.518,37.301C27.588,37.382,27.832,37.662,27.85,37.682C27.98,37.832,28.08,37.947,28.177,38.059C30.286,40.5,31.07,41.868,31.07,43.217C31.07,45.442,29.459,47.161,27.585,47.161ZM27.585,53.984C33.329,53.984,37.893,49.115,37.893,43.217C37.893,41.231,37.319,39.375,36.278,37.557C35.541,36.27,34.694,35.166,33.339,33.598C33.237,33.479,33.132,33.358,32.996,33.203C32.977,33.181,32.735,32.902,32.665,32.822L30.158,29.943C28.798,28.381,26.372,28.381,25.012,29.943L22.507,32.821C22.439,32.898,22.207,33.164,22.175,33.202C22.04,33.356,21.934,33.478,21.831,33.597C20.478,35.162,19.63,36.269,18.892,37.557C17.851,39.374,17.277,41.232,17.277,43.217C17.277,49.115,21.841,53.984,27.585,53.984Z"/>
</g>
  <g id="Medium-S" transform="matrix(1.0,0.0,0.0,1.0,1720.2549252929687,633.1849448242187)">  <path fill-rule="nonzero" stroke-dasharray="none" stroke-linejoin="round" stroke-linecap="round" stroke-opacity="1" stroke-miterlimit="4" stroke-width="2px" fill="#000000" fill-opacity="1" stroke="none" d="M27.585,47.718C16.984,47.718,9.751,42.399,9.751,34.481L9.751,34.279C9.751,30.769,11.943,27.696,16.011,25.5C21.57,22.499,24.778,16.886,23.947,11.089C23.941,11.048,23.935,11.008,23.927,10.967L22.633,4.071L18.81,7.265L23.605,9.093C31.679,12.166,38.384,17.482,42.712,24.212C44.47,26.914,45.407,30.051,45.419,33.26L45.419,34.481C45.419,37.315,44.55,39.766,42.899,41.794C41.903,43.016,42.088,44.815,43.311,45.81C44.534,46.806,46.332,46.621,47.327,45.398C49.808,42.351,51.129,38.627,51.129,34.481L51.129,33.249C51.113,28.932,49.855,24.721,47.506,21.111C42.515,13.348,34.831,7.256,25.638,3.757L20.844,1.93C18.759,1.135,16.609,2.931,17.021,5.124L18.315,12.02L18.295,11.899C18.768,15.2,16.848,18.559,13.298,20.475C7.517,23.597,4.041,28.469,4.041,34.279L4.041,34.481C4.041,45.999,14.144,53.428,27.585,53.428C29.162,53.428,30.44,52.149,30.44,50.573C30.44,48.996,29.162,47.718,27.585,47.718Z"/>
  <path stroke-miterlimit="4" fill="#000000" stroke-linecap="round" fill-opacity="1" stroke-linejoin="round" stroke-dasharray="none" fill-rule="nonzero" stroke="none" stroke-opacity="1" stroke-width="2px" d="M27.585,47.718C25.396,47.718,23.544,45.742,23.544,43.217C23.544,41.692,24.382,40.228,26.572,37.695C26.669,37.583,26.77,37.467,26.9,37.317C26.931,37.282,27.164,37.014,27.233,36.935L29.738,34.057L25.432,34.057L27.937,36.935C28.008,37.017,28.252,37.296,28.27,37.317C28.4,37.467,28.501,37.583,28.598,37.695C30.79,40.232,31.626,41.692,31.626,43.217C31.626,45.742,29.774,47.718,27.585,47.718ZM27.585,53.428C33.013,53.428,37.336,48.816,37.336,43.217C37.336,39.884,35.962,37.484,32.919,33.962C32.816,33.844,32.712,33.723,32.577,33.568C32.558,33.546,32.315,33.268,32.245,33.187L29.738,30.308C28.6,29.001,26.57,29.001,25.432,30.308L22.926,33.186C22.859,33.263,22.626,33.53,22.594,33.567C22.46,33.721,22.355,33.842,22.252,33.961C19.211,37.478,17.834,39.883,17.834,43.217C17.834,48.816,22.157,53.428,27.585,53.428Z"/>
</g>
  <g id="Regular-S" transform="matrix(1.0,0.0,0.0,1.0,1423.5449252929686,633.1849448242187)">  <path fill-opacity="1" stroke-width="2px" stroke-dasharray="none" stroke-miterlimit="4" stroke-linecap="round" stroke="none" stroke-linejoin="round" stroke-opacity="1" fill="#000000" fill-rule="nonzero" d="M27.585,48.274C16.707,48.274,9.195,42.749,9.195,34.481L9.195,34.279C9.195,30.545,11.512,27.297,15.747,25.01C21.11,22.116,24.192,16.722,23.396,11.168C23.392,11.135,23.386,11.102,23.38,11.07L22.086,4.174L19.008,6.746L23.803,8.573C31.986,11.688,38.786,17.079,43.18,23.911C44.995,26.701,45.963,29.942,45.975,33.258L45.975,34.481C45.975,37.443,45.062,40.017,43.33,42.145C42.529,43.129,42.677,44.577,43.662,45.379C44.646,46.18,46.094,46.032,46.896,45.047C49.296,42.099,50.573,38.499,50.573,34.481L50.573,33.249C50.557,29.041,49.331,24.934,47.04,21.414C42.112,13.751,34.524,7.734,25.44,4.277L20.645,2.449C18.967,1.81,17.236,3.256,17.567,5.022L18.862,11.918L18.845,11.82C19.353,15.364,17.308,18.943,13.563,20.965C7.948,23.997,4.598,28.693,4.598,34.279L4.598,34.481C4.598,45.648,14.42,52.871,27.585,52.871C28.855,52.871,29.884,51.842,29.884,50.573C29.884,49.303,28.855,48.274,27.585,48.274Z"/>
  <path stroke-miterlimit="4" fill-rule="nonzero" stroke-linecap="round" stroke-width="2px" stroke-dasharray="none" fill="#000000" stroke="none" stroke-opacity="1" stroke-linejoin="round" fill-opacity="1" d="M27.585,48.274C25.08,48.274,22.988,46.041,22.988,43.217C22.988,41.515,23.878,39.96,26.151,37.331C26.249,37.218,26.35,37.102,26.48,36.952C26.512,36.916,26.745,36.649,26.813,36.57L29.319,33.692L25.851,33.692L28.357,36.57C28.428,36.651,28.671,36.931,28.689,36.952C28.82,37.103,28.921,37.219,29.019,37.331C31.294,39.965,32.183,41.516,32.183,43.217C32.183,46.041,30.09,48.274,27.585,48.274ZM27.585,52.871C32.698,52.871,36.78,48.516,36.78,43.217C36.78,40.06,35.458,37.752,32.498,34.326C32.396,34.208,32.292,34.088,32.157,33.933C32.138,33.912,31.895,33.633,31.825,33.552L29.319,30.673C28.403,29.621,26.768,29.621,25.851,30.673L23.346,33.551C23.278,33.629,23.046,33.895,23.014,33.932C22.88,34.086,22.775,34.207,22.673,34.325C19.715,37.746,18.39,40.06,18.39,43.217C18.39,48.516,22.472,52.871,27.585,52.871Z"/>
</g>
  <g id="Light-S" transform="matrix(1.0,0.0,0.0,1.0,1126.8349252929688,633.1849448242187)">  <path stroke-linecap="round" stroke-linejoin="round" fill-opacity="1" fill="#000000" stroke-opacity="1" fill-rule="nonzero" stroke="none" stroke-dasharray="none" stroke-width="2px" stroke-miterlimit="4" d="M27.585,48.657C16.517,48.657,8.812,42.991,8.812,34.481L8.812,34.279C8.812,30.39,11.215,27.022,15.565,24.673C20.793,21.851,23.789,16.608,23.017,11.222L23.004,11.14L21.71,4.244L19.145,6.388L23.94,8.215C32.198,11.358,39.064,16.802,43.502,23.704C45.356,26.553,46.346,29.867,46.358,33.256L46.358,34.481C46.358,37.531,45.415,40.191,43.627,42.387C42.96,43.207,43.083,44.414,43.904,45.082C44.724,45.749,45.931,45.626,46.599,44.805C48.943,41.925,50.19,38.411,50.19,34.481L50.19,33.249C50.175,29.116,48.969,25.082,46.719,21.623C41.835,14.028,34.312,8.064,25.303,4.635L20.509,2.807C19.11,2.274,17.668,3.48,17.944,4.951L19.238,11.847L19.225,11.765C19.757,15.477,17.625,19.208,13.745,21.302C8.245,24.272,4.981,28.847,4.981,34.279L4.981,34.481C4.981,45.406,14.611,52.488,27.585,52.488C28.643,52.488,29.501,51.631,29.501,50.573C29.501,49.515,28.643,48.657,27.585,48.657Z"/>
  <path stroke-opacity="1" fill="#000000" stroke-linecap="round" stroke-linejoin="round" stroke-dasharray="none" fill-rule="nonzero" stroke="none" stroke-width="2px" stroke-miterlimit="4" fill-opacity="1" d="M27.585,48.657C24.863,48.657,22.604,46.248,22.604,43.217C22.604,41.394,23.531,39.776,25.861,37.081C25.959,36.967,26.061,36.85,26.191,36.7C26.223,36.664,26.456,36.397,26.524,36.318L29.03,33.44L26.14,33.44L28.646,36.318C28.717,36.4,28.96,36.679,28.978,36.7C29.11,36.851,29.211,36.968,29.309,37.081C31.641,39.78,32.566,41.395,32.566,43.217C32.566,46.248,30.307,48.657,27.585,48.657ZM27.585,52.488C32.48,52.488,36.397,48.31,36.397,43.217C36.397,40.181,35.111,37.936,32.208,34.576C32.106,34.459,32.002,34.339,31.868,34.185C31.849,34.163,31.606,33.884,31.536,33.804L29.03,30.925C28.266,30.048,26.904,30.048,26.14,30.925L23.635,33.803C23.567,33.88,23.335,34.147,23.302,34.184C23.169,34.337,23.064,34.458,22.963,34.575C20.062,37.931,18.773,40.181,18.773,43.217C18.773,48.31,22.69,52.488,27.585,52.488Z"/>
</g>
  <g id="Thin-S" transform="matrix(1.0,0.0,0.0,1.0,830.1249252929688,633.1849448242187)">  <path stroke-linejoin="round" fill-opacity="1" stroke-opacity="1" stroke-linecap="round" stroke-dasharray="none" fill-rule="nonzero" fill="#000000" stroke="none" stroke-miterlimit="4" stroke-width="2px" d="M27.585,49.04C16.326,49.04,8.429,43.233,8.429,34.481L8.429,34.279C8.429,30.236,10.918,26.747,15.383,24.336C20.476,21.587,23.386,16.495,22.638,11.276L22.627,11.211L21.333,4.315L19.281,6.03L24.076,7.857C32.409,11.029,39.341,16.524,43.824,23.497C45.718,26.406,46.729,29.792,46.741,33.255L46.741,34.481C46.741,37.619,45.768,40.364,43.925,42.628C43.39,43.285,43.489,44.25,44.146,44.784C44.802,45.319,45.767,45.22,46.302,44.563C48.59,41.752,49.806,38.323,49.806,34.481L49.806,33.249C49.792,29.191,48.608,25.229,46.398,21.832C41.558,14.305,34.101,8.393,25.167,4.993L20.373,3.165C19.254,2.739,18.1,3.703,18.321,4.88L19.615,11.776L19.604,11.711C20.16,15.59,17.941,19.472,13.927,21.639C8.542,24.547,5.364,29.001,5.364,34.279L5.364,34.481C5.364,45.165,14.802,52.105,27.585,52.105C28.431,52.105,29.118,51.419,29.118,50.573C29.118,49.726,28.431,49.04,27.585,49.04Z"/>
  <path stroke-opacity="1" fill-rule="nonzero" stroke-width="2px" stroke="none" stroke-miterlimit="4" stroke-linejoin="round" fill="#000000" fill-opacity="1" stroke-dasharray="none" stroke-linecap="round" d="M27.585,49.04C24.646,49.04,22.221,46.454,22.221,43.217C22.221,41.273,23.184,39.591,25.571,36.83C25.67,36.716,25.772,36.599,25.903,36.449C25.934,36.413,26.167,36.145,26.235,36.067L28.741,33.189L26.429,33.189L28.935,36.067C29.006,36.148,29.249,36.428,29.267,36.449C29.399,36.6,29.5,36.717,29.598,36.83C31.988,39.596,32.949,41.273,32.949,43.217C32.949,46.454,30.524,49.04,27.585,49.04ZM27.585,52.105C32.263,52.105,36.014,48.104,36.014,43.217C36.014,40.303,34.764,38.121,31.918,34.827C31.817,34.71,31.713,34.59,31.579,34.436C31.56,34.415,31.318,34.136,31.247,34.055L28.741,31.176C28.13,30.475,27.04,30.475,26.429,31.176L23.924,34.054C23.856,34.132,23.623,34.399,23.591,34.436C23.458,34.589,23.354,34.708,23.253,34.826C20.409,38.115,19.156,40.302,19.156,43.217C19.156,48.104,22.907,52.105,27.585,52.105Z"/>
</g>
  <g id="Ultralight-S" transform="matrix(1.0,0.0,0.0,1.0,533.4149252929687,633.1849448242187)">  <path stroke-width="2px" stroke="none" stroke-opacity="1" stroke-dasharray="none" stroke-linejoin="round" fill-opacity="1" stroke-linecap="round" fill-rule="nonzero" stroke-miterlimit="4" fill="#000000" d="M27.585,49.423C16.136,49.423,8.046,43.474,8.046,34.481L8.046,34.279C8.046,30.082,10.621,26.472,15.201,23.999C20.159,21.323,22.983,16.382,22.259,11.331L22.251,11.282L20.956,4.386L19.417,5.672L24.213,7.499C32.621,10.699,39.618,16.247,44.146,23.29C46.079,26.259,47.112,29.717,47.125,33.253L47.125,34.481C47.125,37.707,46.12,40.538,44.222,42.87C43.821,43.363,43.895,44.087,44.387,44.487C44.88,44.888,45.604,44.814,46.004,44.322C48.237,41.578,49.423,38.235,49.423,34.481L49.423,33.249C49.409,29.266,48.247,25.376,46.076,22.041C41.281,14.583,33.889,8.723,25.031,5.351L20.236,3.523C19.397,3.204,18.531,3.927,18.697,4.81L19.991,11.706L19.983,11.657C20.563,15.703,18.258,19.736,14.109,21.976C8.839,24.822,5.747,29.156,5.747,34.279L5.747,34.481C5.747,44.923,14.992,51.722,27.585,51.722C28.22,51.722,28.734,51.207,28.734,50.573C28.734,49.938,28.22,49.423,27.585,49.423Z"/>
  <path stroke-miterlimit="4" fill-rule="nonzero" fill-opacity="1" stroke-width="2px" stroke-dasharray="none" stroke-opacity="1" stroke-linecap="round" stroke="none" fill="#000000" stroke-linejoin="round" d="M27.585,49.423C24.428,49.423,21.838,46.66,21.838,43.217C21.838,41.151,22.837,39.407,25.282,36.58C25.38,36.465,25.482,36.348,25.614,36.197C25.645,36.161,25.878,35.894,25.946,35.815L28.452,32.937L26.718,32.937L29.224,35.815C29.295,35.897,29.538,36.176,29.556,36.197C29.688,36.349,29.79,36.466,29.888,36.58C32.335,39.412,33.332,41.152,33.332,43.217C33.332,46.66,30.742,49.423,27.585,49.423ZM27.585,51.722C32.046,51.722,35.631,47.898,35.631,43.217C35.631,40.424,34.417,38.305,31.628,35.077C31.527,34.961,31.424,34.842,31.29,34.688C31.271,34.666,31.029,34.387,30.958,34.306L28.452,31.428C27.994,30.902,27.176,30.902,26.718,31.428L24.213,34.306C24.145,34.384,23.912,34.651,23.88,34.687C23.747,34.84,23.643,34.959,23.543,35.076C20.756,38.3,19.539,40.424,19.539,43.217C19.539,47.898,23.124,51.722,27.585,51.722Z"/>
</g>
 </g>
</svg>
