<?xml version="1.0" encoding="UTF-8"?>
<!-- Generator: CustomSymbols v2.6.2.41 by @serious_bret https://bretlester.com/app_content/CustomSymbols/ -->
<!-- Guides: Left/Right 0.0/0.0 Cap/Base 0.227/0.127 -->
<!-- Settings: RefScale 1.0 Min/Max Stroke Scales 0.5/2.21 -->
<!DOCTYPE svg
PUBLIC "-//W3C//DTD SVG 1.1//EN"
       "http://www.w3.org/Graphics/SVG/1.1/DTD/svg11.dtd">
<svg version="1.1" xmlns="http://www.w3.org/2000/svg" xmlns:xlink="http://www.w3.org/1999/xlink" width="3300" height="2200">
<![CDATA[<svg width="36" height="36" viewBox="0 0 36 36" fill="none" xmlns="http://www.w3.org/2000/svg">
<path d="M18 18C22.1421 18 25.5 14.6421 25.5 10.5C25.5 6.35786 22.1421 3 18 3C13.8579 3 10.5 6.35786 10.5 10.5C10.5 14.6421 13.8579 18 18 18Z" stroke="#B20000" stroke-width="3" stroke-linecap="round" stroke-linejoin="round"/>
<path d="M25.5 21H26.028C27.1246 21.0003 28.1834 21.401 29.0054 22.1269C29.8274 22.8528 30.356 23.8538 30.492 24.942L31.0785 29.628C31.1313 30.0501 31.0936 30.4787 30.9681 30.8852C30.8426 31.2917 30.6321 31.6668 30.3505 31.9857C30.0689 32.3046 29.7227 32.56 29.3349 32.7348C28.947 32.9097 28.5265 33.0001 28.101 33H7.89903C7.4736 33.0001 7.05302 32.9097 6.6652 32.7348C6.27738 32.56 5.93118 32.3046 5.64959 31.9857C5.368 31.6668 5.15746 31.2917 5.03194 30.8852C4.90641 30.4787 4.86878 30.0501 4.92153 29.628L5.50653 24.942C5.64257 23.8533 6.17165 22.8519 6.99428 22.1259C7.8169 21.4 8.8764 20.9996 9.97353 21H10.5" stroke="#B20000" stroke-width="3" stroke-linecap="round" stroke-linejoin="round"/>
</svg>
]]>
 <g id="Notes">
  <rect height="2200" id="artboard" style="fill:white;opacity:1" width="3300" x="0" y="0"/>
  <line id="" style="fill:none;stroke:black;opacity:1;stroke-width:0.5;" x1="263" x2="3036" y1="292" y2="292"/>
  <text id="reftext1" style="stroke:none;fill:black;font-family:-apple-system,&quot;SF Pro Display&quot;,&quot;SF Pro Text&quot;,Helvetica,sans-serif;font-weight:bold;" transform="matrix(1 0 0 1 263 322)">Weight/Scale Variations</text>
  <text id="reftext2" style="stroke:none;fill:black;font-family:-apple-system,&quot;SF Pro Display&quot;,&quot;SF Pro Text&quot;,Helvetica,sans-serif;text-anchor:middle;" transform="matrix(1 0 0 1 559.711 322)">Ultralight</text>
  <text style="stroke:none;fill:black;font-family:-apple-system,&quot;SF Pro Display&quot;,&quot;SF Pro Text&quot;,Helvetica,sans-serif;text-anchor:middle;" transform="matrix(1 0 0 1 856.422 322)">Thin</text>
  <text style="stroke:none;fill:black;font-family:-apple-system,&quot;SF Pro Display&quot;,&quot;SF Pro Text&quot;,Helvetica,sans-serif;text-anchor:middle;" transform="matrix(1 0 0 1 1153.13 322)">Light</text>
  <text style="stroke:none;fill:black;font-family:-apple-system,&quot;SF Pro Display&quot;,&quot;SF Pro Text&quot;,Helvetica,sans-serif;text-anchor:middle;" transform="matrix(1 0 0 1 1449.84 322)">Regular</text>
  <text style="stroke:none;fill:black;font-family:-apple-system,&quot;SF Pro Display&quot;,&quot;SF Pro Text&quot;,Helvetica,sans-serif;text-anchor:middle;" transform="matrix(1 0 0 1 1746.56 322)">Medium</text>
  <text style="stroke:none;fill:black;font-family:-apple-system,&quot;SF Pro Display&quot;,&quot;SF Pro Text&quot;,Helvetica,sans-serif;text-anchor:middle;" transform="matrix(1 0 0 1 2043.27 322)">Semibold</text>
  <text style="stroke:none;fill:black;font-family:-apple-system,&quot;SF Pro Display&quot;,&quot;SF Pro Text&quot;,Helvetica,sans-serif;text-anchor:middle;" transform="matrix(1 0 0 1 2339.98 322)">Bold</text>
  <text style="stroke:none;fill:black;font-family:-apple-system,&quot;SF Pro Display&quot;,&quot;SF Pro Text&quot;,Helvetica,sans-serif;text-anchor:middle;" transform="matrix(1 0 0 1 2636.69 322)">Heavy</text>
  <text style="stroke:none;fill:black;font-family:-apple-system,&quot;SF Pro Display&quot;,&quot;SF Pro Text&quot;,Helvetica,sans-serif;text-anchor:middle;" transform="matrix(1 0 0 1 2933.4 322)">Black</text>
  <line id="" style="fill:none;stroke:black;opacity:1;stroke-width:0.5;" x1="263" x2="3036" y1="1903" y2="1903"/>
  <g id="" transform="matrix(1 0 0 1 263 1933)">
   <path d="M9.24805 0.830078C13.5547 0.830078 17.1387-2.74414 17.1387-7.05078C17.1387-11.3574 13.5449-14.9316 9.23828-14.9316C4.94141-14.9316 1.36719-11.3574 1.36719-7.05078C1.36719-2.74414 4.95117 0.830078 9.24805 0.830078ZM9.24805-0.654297C5.70312-0.654297 2.87109-3.49609 2.87109-7.05078C2.87109-10.6055 5.69336-13.4473 9.23828-13.4473C12.793-13.4473 15.6348-10.6055 15.6445-7.05078C15.6543-3.49609 12.8027-0.654297 9.24805-0.654297ZM6.39648-6.31836L8.50586-6.31836L8.50586-4.19922C8.50586-3.75977 8.79883-3.45703 9.22852-3.45703C9.67773-3.45703 9.9707-3.75977 9.9707-4.19922L9.9707-6.31836L12.0996-6.31836C12.5391-6.31836 12.8418-6.61133 12.8418-7.04102C12.8418-7.48047 12.5391-7.7832 12.0996-7.7832L9.9707-7.7832L9.9707-9.89258C9.9707-10.3418 9.67773-10.6445 9.22852-10.6445C8.79883-10.6445 8.50586-10.3418 8.50586-9.89258L8.50586-7.7832L6.39648-7.7832C5.94727-7.7832 5.64453-7.48047 5.64453-7.04102C5.64453-6.61133 5.94727-6.31836 6.39648-6.31836Z"/>
  </g>
  <g id="" transform="matrix(1 0 0 1 281.506 1933)">
   <path d="M11.709 2.91016C17.1582 2.91016 21.6699-1.61133 21.6699-7.05078C21.6699-12.5 17.1484-17.0117 11.6992-17.0117C6.25977-17.0117 1.74805-12.5 1.74805-7.05078C1.74805-1.61133 6.26953 2.91016 11.709 2.91016ZM11.709 1.25C7.09961 1.25 3.41797-2.44141 3.41797-7.05078C3.41797-11.6602 7.08984-15.3516 11.6992-15.3516C16.3086-15.3516 20-11.6602 20.0098-7.05078C20.0195-2.44141 16.3184 1.25 11.709 1.25ZM7.98828-6.23047L10.8789-6.23047L10.8789-3.32031C10.8789-2.83203 11.2109-2.5 11.6895-2.5C12.1777-2.5 12.5195-2.83203 12.5195-3.32031L12.5195-6.23047L15.4297-6.23047C15.918-6.23047 16.25-6.5625 16.25-7.04102C16.25-7.5293 15.918-7.87109 15.4297-7.87109L12.5195-7.87109L12.5195-10.7617C12.5195-11.2695 12.1777-11.6016 11.6895-11.6016C11.2109-11.6016 10.8789-11.2598 10.8789-10.7617L10.8789-7.87109L7.98828-7.87109C7.48047-7.87109 7.14844-7.5293 7.14844-7.04102C7.14844-6.5625 7.49023-6.23047 7.98828-6.23047Z"/>
  </g>
  <g id="" transform="matrix(1 0 0 1 304.924 1933)">
   <path d="M14.9707 5.66406C21.9336 5.66406 27.6953-0.0976562 27.6953-7.05078C27.6953-14.0137 21.9238-19.7754 14.9609-19.7754C8.00781-19.7754 2.25586-14.0137 2.25586-7.05078C2.25586-0.0976562 8.01758 5.66406 14.9707 5.66406ZM14.9707 3.84766C8.93555 3.84766 4.08203-1.01562 4.08203-7.05078C4.08203-13.0957 8.92578-17.9492 14.9609-17.9492C21.0059-17.9492 25.8594-13.0957 25.8691-7.05078C25.8789-1.01562 21.0156 3.84766 14.9707 3.84766ZM10.0586-6.14258L14.0625-6.14258L14.0625-2.12891C14.0625-1.5918 14.4336-1.2207 14.9512-1.2207C15.4883-1.2207 15.8594-1.5918 15.8594-2.12891L15.8594-6.14258L19.8828-6.14258C20.4102-6.14258 20.791-6.51367 20.791-7.03125C20.791-7.56836 20.4199-7.94922 19.8828-7.94922L15.8594-7.94922L15.8594-11.9531C15.8594-12.5098 15.4883-12.8809 14.9512-12.8809C14.4336-12.8809 14.0625-12.5 14.0625-11.9531L14.0625-7.94922L10.0586-7.94922C9.50195-7.94922 9.13086-7.56836 9.13086-7.03125C9.13086-6.51367 9.51172-6.14258 10.0586-6.14258Z"/>
  </g>
  <text style="stroke:none;fill:black;font-family:-apple-system,&quot;SF Pro Display&quot;,&quot;SF Pro Text&quot;,Helvetica,sans-serif;font-weight:bold;" transform="matrix(1 0 0 1 263 1953)">Design Variations</text>
  <text style="stroke:none;fill:black;font-family:-apple-system,&quot;SF Pro Display&quot;,&quot;SF Pro Text&quot;,Helvetica,sans-serif;" transform="matrix(1 0 0 1 263 1971)">Symbols are supported in up to nine weights and three scales.</text>
  <text style="stroke:none;fill:black;font-family:-apple-system,&quot;SF Pro Display&quot;,&quot;SF Pro Text&quot;,Helvetica,sans-serif;" transform="matrix(1 0 0 1 263 1989)">For optimal layout with text and other symbols, vertically align</text>
  <text style="stroke:none;fill:black;font-family:-apple-system,&quot;SF Pro Display&quot;,&quot;SF Pro Text&quot;,Helvetica,sans-serif;" transform="matrix(1 0 0 1 263 2007)">symbols with the adjacent text.</text>
  <line id="" style="fill:none;stroke:#00AEEF;stroke-width:0.5;opacity:1.0;" x1="776" x2="776" y1="1919" y2="1933"/>
  <g id="" transform="matrix(1 0 0 1 776 1933)">
   <path d="M3.31055 0.126953C3.82812 0.126953 4.08203-0.0683594 4.26758-0.605469L5.52734-4.0625L11.2891-4.0625L12.5488-0.605469C12.7344-0.0683594 12.9883 0.126953 13.4961 0.126953C14.0137 0.126953 14.3457-0.185547 14.3457-0.673828C14.3457-0.839844 14.3164-0.986328 14.2383-1.20117L9.6582-13.3887C9.43359-13.9941 9.0332-14.2871 8.4082-14.2871C7.80273-14.2871 7.39258-13.9941 7.17773-13.3984L2.59766-1.19141C2.51953-0.976562 2.49023-0.830078 2.49023-0.664062C2.49023-0.175781 2.80273 0.126953 3.31055 0.126953ZM6.00586-5.53711L8.37891-12.1094L8.42773-12.1094L10.8008-5.53711Z"/>
  </g>
  <line id="" style="fill:none;stroke:#00AEEF;stroke-width:0.5;opacity:1.0;" x1="792.836" x2="792.836" y1="1919" y2="1933"/>
  <text style="stroke:none;fill:black;font-family:-apple-system,&quot;SF Pro Display&quot;,&quot;SF Pro Text&quot;,Helvetica,sans-serif;font-weight:bold;" transform="matrix(1 0 0 1 776 1953)">Margins</text>
  <text style="stroke:none;fill:black;font-family:-apple-system,&quot;SF Pro Display&quot;,&quot;SF Pro Text&quot;,Helvetica,sans-serif;" transform="matrix(1 0 0 1 776 1971)">Leading and trailing margins on the left and right side of each symbol</text>
  <text style="stroke:none;fill:black;font-family:-apple-system,&quot;SF Pro Display&quot;,&quot;SF Pro Text&quot;,Helvetica,sans-serif;" transform="matrix(1 0 0 1 776 1989)">can be adjusted by modifying the x-location of the margin guidelines.</text>
  <text style="stroke:none;fill:black;font-family:-apple-system,&quot;SF Pro Display&quot;,&quot;SF Pro Text&quot;,Helvetica,sans-serif;" transform="matrix(1 0 0 1 776 2007)">Modifications are automatically applied proportionally to all</text>
  <text style="stroke:none;fill:black;font-family:-apple-system,&quot;SF Pro Display&quot;,&quot;SF Pro Text&quot;,Helvetica,sans-serif;" transform="matrix(1 0 0 1 776 2025)">scales and weights.</text>
  <g id="" transform="matrix(1 0 0 1 1289 1933)">
   <path d="M2.8418 1.86523L4.54102 3.57422C5.40039 4.44336 6.38672 4.38477 7.31445 3.35938L17.4902-7.85156C17.7539-7.76367 18.0273-7.7832 18.3398-7.8418L19.4043-8.03711L20.0684-7.36328L20.0293-6.80664C19.9902-6.30859 20.1172-5.92773 20.6055-5.44922L21.3672-4.70703C21.8457-4.22852 22.4609-4.19922 22.9297-4.66797L25.8398-7.58789C26.3086-8.05664 26.2891-8.65234 25.8105-9.13086L25.0391-9.89258C24.5605-10.3711 24.1895-10.5273 23.7109-10.4883L23.1348-10.4395L22.4902-11.0742L22.7344-12.1973C22.8613-12.7637 22.7051-13.2031 22.1191-13.7891L19.9219-15.9766C16.582-19.2969 12.1484-19.2188 9.25781-16.3281C8.83789-15.918 8.80859-15.3418 9.04297-14.9512C9.27734-14.5898 9.73633-14.3555 10.3809-14.5215C11.8457-14.8633 13.3691-14.9219 14.7949-13.9844L14.209-12.5293C14.0137-12.0508 13.9844-11.6504 14.1113-11.2891L3.04688-0.898438C2.06055 0.0195312 1.98242 0.996094 2.8418 1.86523ZM10.752-15.957C13.1836-17.7344 16.4746-17.4316 18.7012-15.2051L21.1328-12.793C21.3672-12.5586 21.4062-12.373 21.3379-12.0312L21.0156-10.5469L22.5195-9.0625L23.5059-9.12109C23.7598-9.13086 23.8379-9.11133 24.0332-8.91602L24.6094-8.33984L22.168-5.89844L21.5918-6.47461C21.3965-6.66992 21.3672-6.74805 21.377-7.01172L21.4453-7.98828L19.9512-9.47266L18.4277-9.21875C18.1055-9.15039 17.959-9.17969 17.7148-9.41406L15.7129-11.416C15.459-11.6504 15.4297-11.8164 15.5859-12.1875L16.4648-14.2773C14.9023-15.7324 12.8711-16.3574 10.8398-15.7617C10.6836-15.7227 10.625-15.8496 10.752-15.957ZM5.27344 2.30469L4.10156 1.14258C3.63281 0.683594 3.74023 0.341797 4.14062-0.0195312L14.9512-10.1953L16.416-8.71094L6.42578 2.27539C6.07422 2.67578 5.74219 2.77344 5.27344 2.30469Z"/>
  </g>
  <text style="stroke:none;fill:black;font-family:-apple-system,&quot;SF Pro Display&quot;,&quot;SF Pro Text&quot;,Helvetica,sans-serif;font-weight:bold;" transform="matrix(1 0 0 1 1289 1953)">Exporting</text>
  <text style="stroke:none;fill:black;font-family:-apple-system,&quot;SF Pro Display&quot;,&quot;SF Pro Text&quot;,Helvetica,sans-serif;" transform="matrix(1 0 0 1 1289 1971)">Symbols should be outlined when exporting to ensure the</text>
  <text style="stroke:none;fill:black;font-family:-apple-system,&quot;SF Pro Display&quot;,&quot;SF Pro Text&quot;,Helvetica,sans-serif;" transform="matrix(1 0 0 1 1289 1989)">design is preserved when submitting to Xcode.</text>
  <text id="template-version" style="stroke:none;fill:black;font-family:-apple-system,&quot;SF Pro Display&quot;,&quot;SF Pro Text&quot;,Helvetica,sans-serif;text-anchor:end;" transform="matrix(1 0 0 1 3036 1933)">Template v.2.0</text>
  <text style="stroke:none;fill:black;font-family:-apple-system,&quot;SF Pro Display&quot;,&quot;SF Pro Text&quot;,Helvetica,sans-serif;text-anchor:end;" transform="matrix(1 0 0 1 3036 1951)">Requires Xcode 12 or greater</text>
  <text style="stroke:none;fill:black;font-family:-apple-system,&quot;SF Pro Display&quot;,&quot;SF Pro Text&quot;,Helvetica,sans-serif;" transform="matrix(1 0 0 1 263 726)">Small</text>
  <text style="stroke:none;fill:black;font-family:-apple-system,&quot;SF Pro Display&quot;,&quot;SF Pro Text&quot;,Helvetica,sans-serif;" transform="matrix(1 0 0 1 263 1156)">Medium</text>
  <text style="stroke:none;fill:black;font-family:-apple-system,&quot;SF Pro Display&quot;,&quot;SF Pro Text&quot;,Helvetica,sans-serif;" transform="matrix(1 0 0 1 263 1586)">Large</text>
 </g>
 <g id="Guides">
  <g id="H-reference" style="fill:#27AAE1;stroke:none;" transform="matrix(1 0 0 1 339 696)">
   <path d="M0.976562 0L3.66211 0L12.9883-24.4629L45.752-24.4629L55.127 0L57.7637 0L30.6152-70.459L28.125-70.459ZM29.3457-67.1387L29.4434-67.1387L44.873-26.709L13.8672-26.709Z"/>
  </g>
  <line id="Baseline-S" style="fill:none;stroke:#27AAE1;opacity:1;stroke-width:0.5;" x1="263" x2="3036" y1="696" y2="696"/>
  <line id="Capline-S" style="fill:none;stroke:#27AAE1;opacity:1;stroke-width:0.5;" x1="263" x2="3036" y1="625.541" y2="625.541"/>
  <g id="H-reference" style="fill:#27AAE1;stroke:none;" transform="matrix(1 0 0 1 339 1126)">
   <path d="M0.976562 0L3.66211 0L12.9883-24.4629L45.752-24.4629L55.127 0L57.7637 0L30.6152-70.459L28.125-70.459ZM29.3457-67.1387L29.4434-67.1387L44.873-26.709L13.8672-26.709Z"/>
  </g>
  <line id="Baseline-M" style="fill:none;stroke:#27AAE1;opacity:1;stroke-width:0.5;" x1="263" x2="3036" y1="1126" y2="1126"/>
  <line id="Capline-M" style="fill:none;stroke:#27AAE1;opacity:1;stroke-width:0.5;" x1="263" x2="3036" y1="1055.54" y2="1055.54"/>
  <g id="H-reference" style="fill:#27AAE1;stroke:none;" transform="matrix(1 0 0 1 339 1556)">
   <path d="M0.976562 0L3.66211 0L12.9883-24.4629L45.752-24.4629L55.127 0L57.7637 0L30.6152-70.459L28.125-70.459ZM29.3457-67.1387L29.4434-67.1387L44.873-26.709L13.8672-26.709Z"/>
  </g>
  <line id="Baseline-L" style="fill:none;stroke:#27AAE1;opacity:1;stroke-width:0.5;" x1="263" x2="3036" y1="1556" y2="1556"/>
  <line id="Capline-L" style="fill:none;stroke:#27AAE1;opacity:1;stroke-width:0.5;" x1="263" x2="3036" y1="1485.54" y2="1485.54"/>
  <line id="left-margin" x1="1396.5944265189628" x2="1396.5944265189628" y1="1030.79" y2="1150.12" style="fill:none;stroke:#00AEEF;stroke-width:0.5;opacity:1.0;"/>
  <line id="right-margin" x1="1505.665573481037" x2="1505.665573481037" y1="1030.79" y2="1150.12" style="fill:none;stroke:#00AEEF;stroke-width:0.5;opacity:1.0;"/>
 </g>
 <g id="Symbols">
  <g id="Black-L" transform="matrix(1.0,0.0,0.0,1.0,2864.3291102094618,1443.3840407616583)">  <path stroke-linecap="round" stroke-miterlimit="4" stroke="none" fill="#000000" fill-rule="nonzero" fill-opacity="1" stroke-width="3px" stroke-dasharray="none" stroke-linejoin="round" stroke-opacity="1" d="M70.351,83.307C93.695,83.307,112.62,64.382,112.62,41.038C112.62,17.693,93.695,-1.231,70.351,-1.231C47.006,-1.231,28.082,17.693,28.082,41.038C28.082,64.382,47.006,83.307,70.351,83.307ZM70.351,57.395C61.318,57.395,53.994,50.071,53.994,41.038C53.994,32.005,61.317,24.681,70.351,24.681C79.384,24.681,86.707,32.005,86.707,41.038C86.707,50.071,79.384,57.395,70.351,57.395Z"/>
  <path stroke-linecap="round" stroke-dasharray="none" fill-opacity="1" fill="#000000" stroke-miterlimit="4" stroke="none" fill-rule="nonzero" stroke-opacity="1" stroke-width="3px" stroke-linejoin="round" d="M99.664,95.032L101.727,95.032C102.853,95.033,103.942,95.445,104.788,96.192C105.634,96.939,106.178,97.969,106.318,99.09L108.611,117.407C108.589,117.231,108.604,117.055,108.655,116.889C108.707,116.722,108.794,116.568,108.91,116.437C109.025,116.306,109.167,116.201,109.328,116.128C109.485,116.057,109.658,116.02,109.832,116.02L30.872,116.02C31.044,116.02,31.217,116.057,31.377,116.129C31.535,116.201,31.677,116.306,31.793,116.437C31.908,116.567,31.995,116.722,32.046,116.889C32.098,117.055,32.113,117.231,32.092,117.404L34.378,99.088C34.518,97.969,35.062,96.938,35.909,96.191C36.756,95.444,37.846,95.032,38.976,95.032L41.038,95.032C48.194,95.032,53.994,89.232,53.994,82.076C53.994,74.92,48.194,69.12,41.038,69.12L38.98,69.12C31.538,69.117,24.347,71.835,18.764,76.762C13.18,81.69,9.589,88.487,8.665,95.876L6.379,114.193C5.945,117.664,6.255,121.19,7.287,124.534C8.32,127.878,10.052,130.964,12.369,133.588C14.686,136.212,17.535,138.314,20.726,139.752C23.915,141.19,27.375,141.934,30.875,141.933L109.829,141.933C113.327,141.934,116.787,141.19,119.978,139.751C123.167,138.314,126.016,136.212,128.333,133.588C130.65,130.964,132.382,127.878,133.415,124.533C134.447,121.189,134.757,117.663,134.323,114.189L132.03,95.874C131.108,88.49,127.52,81.696,121.94,76.769C116.361,71.842,109.174,69.122,101.731,69.12L99.664,69.12C92.508,69.12,86.707,74.92,86.707,82.076C86.707,89.232,92.508,95.032,99.664,95.032Z"/>
</g>
  <g id="Heavy-L" transform="matrix(1.0,0.0,0.0,1.0,2567.6191102094617,1443.3840407616583)">  <path stroke-opacity="1" stroke-miterlimit="4" stroke-linejoin="round" stroke="none" fill="#000000" stroke-linecap="round" fill-opacity="1" fill-rule="nonzero" stroke-dasharray="none" stroke-width="3px" d="M70.351,81.888C92.912,81.888,111.201,63.599,111.201,41.038C111.201,18.477,92.912,0.188,70.351,0.188C47.79,0.188,29.5,18.477,29.5,41.038C29.5,63.599,47.79,81.888,70.351,81.888ZM70.351,58.813C60.534,58.813,52.576,50.855,52.576,41.038C52.576,31.221,60.534,23.263,70.351,23.263C80.168,23.263,88.126,31.221,88.126,41.038C88.126,50.855,80.168,58.813,70.351,58.813Z"/>
  <path fill="#000000" fill-opacity="1" stroke-opacity="1" stroke-linejoin="round" stroke-width="3px" stroke-linecap="round" stroke-dasharray="none" stroke-miterlimit="4" fill-rule="nonzero" stroke="none" d="M99.664,93.614L101.727,93.614C103.199,93.614,104.622,94.153,105.727,95.129C106.832,96.105,107.543,97.45,107.726,98.914L110.018,117.23C110.021,117.255,110.019,117.282,110.011,117.308C110.003,117.333,109.99,117.356,109.973,117.376C109.955,117.396,109.934,117.411,109.911,117.422C109.885,117.433,109.859,117.439,109.832,117.439L30.872,117.439C30.843,117.439,30.817,117.433,30.793,117.423C30.768,117.411,30.747,117.396,30.729,117.376C30.712,117.356,30.698,117.332,30.691,117.307C30.683,117.282,30.68,117.255,30.684,117.228L32.97,98.912C33.153,97.45,33.864,96.103,34.971,95.127C36.076,94.151,37.501,93.613,38.976,93.614L41.038,93.614C47.41,93.614,52.576,88.448,52.576,82.076C52.576,75.704,47.41,70.538,41.038,70.538L38.98,70.538C31.884,70.536,25.027,73.127,19.702,77.826C14.378,82.525,10.954,89.006,10.073,96.052L7.787,114.368C7.378,117.64,7.669,120.963,8.643,124.115C9.616,127.267,11.249,130.176,13.432,132.649C15.616,135.122,18.301,137.103,21.309,138.459C24.314,139.814,27.576,140.515,30.875,140.514L109.829,140.514C113.126,140.515,116.387,139.814,119.394,138.458C122.401,137.103,125.086,135.122,127.27,132.649C129.454,130.176,131.086,127.267,132.059,124.115C133.033,120.962,133.324,117.639,132.915,114.366L130.623,96.05C129.743,89.009,126.321,82.53,121.001,77.832C115.681,73.134,108.828,70.54,101.731,70.538L99.664,70.538C93.292,70.538,88.126,75.704,88.126,82.076C88.126,88.448,93.292,93.614,99.664,93.614Z"/>
</g>
  <g id="Bold-L" transform="matrix(1.0,0.0,0.0,1.0,2270.9091102094617,1443.3840407616583)">  <path stroke-linecap="round" stroke-opacity="1" stroke-width="3px" fill="#000000" stroke-miterlimit="4" stroke="none" fill-rule="nonzero" stroke-dasharray="none" fill-opacity="1" stroke-linejoin="round" d="M70.351,80.47C92.128,80.47,109.783,62.815,109.783,41.038C109.783,19.261,92.128,1.606,70.351,1.606C48.573,1.606,30.919,19.261,30.919,41.038C30.919,62.815,48.574,80.47,70.351,80.47ZM70.351,60.232C59.75,60.232,51.157,51.638,51.157,41.038C51.157,30.437,59.75,21.844,70.351,21.844C80.951,21.844,89.545,30.437,89.545,41.038C89.545,51.638,80.951,60.232,70.351,60.232Z"/>
  <path fill="#000000" stroke-width="3px" fill-opacity="1" stroke="none" fill-rule="nonzero" stroke-opacity="1" stroke-miterlimit="4" stroke-linejoin="round" stroke-dasharray="none" stroke-linecap="round" d="M99.664,92.195L101.727,92.195C103.545,92.195,105.302,92.86,106.666,94.065C108.031,95.27,108.908,96.931,109.134,98.738L111.426,117.054C111.454,117.278,111.434,117.508,111.367,117.726C111.3,117.944,111.187,118.144,111.036,118.315C110.886,118.485,110.701,118.622,110.494,118.715C110.285,118.81,110.06,118.858,109.832,118.858L30.872,118.858C30.643,118.858,30.418,118.81,30.21,118.716C30.002,118.622,29.817,118.486,29.666,118.315C29.515,118.144,29.402,117.943,29.335,117.726C29.268,117.508,29.248,117.278,29.276,117.052L31.562,98.736C31.788,96.931,32.666,95.269,34.032,94.063C35.397,92.859,37.156,92.194,38.977,92.195L41.038,92.195C46.626,92.195,51.157,87.664,51.157,82.076C51.157,76.488,46.626,71.957,41.038,71.957L38.98,71.957C32.229,71.955,25.706,74.42,20.641,78.889C15.576,83.36,12.318,89.525,11.481,96.228L9.194,114.544C8.81,117.616,9.084,120.737,9.998,123.697C10.912,126.656,12.445,129.388,14.496,131.71C16.546,134.032,19.068,135.892,21.892,137.165C24.714,138.438,27.777,139.096,30.875,139.095L109.829,139.095C112.925,139.096,115.987,138.438,118.811,137.165C121.634,135.892,124.156,134.032,126.206,131.71C128.257,129.388,129.79,126.656,130.704,123.696C131.618,120.736,131.892,117.615,131.507,114.542L129.215,96.226C128.378,89.528,125.123,83.365,120.062,78.896C115.001,74.426,108.482,71.959,101.73,71.957L99.664,71.957C94.075,71.957,89.545,76.488,89.545,82.076C89.545,87.664,94.075,92.195,99.664,92.195Z"/>
</g>
  <g id="Semibold-L" transform="matrix(1.0,0.0,0.0,1.0,1974.199110209462,1443.3840407616583)">  <path fill-rule="nonzero" stroke="none" fill="#000000" stroke-dasharray="none" stroke-linejoin="round" stroke-opacity="1" fill-opacity="1" stroke-miterlimit="4" stroke-linecap="round" stroke-width="3px" d="M70.351,79.051C91.345,79.051,108.364,62.032,108.364,41.038C108.364,20.044,91.345,3.025,70.351,3.025C49.357,3.025,32.338,20.044,32.338,41.038C32.338,62.032,49.357,79.051,70.351,79.051ZM70.351,61.651C58.967,61.651,49.738,52.422,49.738,41.038C49.738,29.654,58.967,20.425,70.351,20.425C81.735,20.425,90.964,29.654,90.964,41.038C90.964,52.422,81.735,61.651,70.351,61.651Z"/>
  <path stroke-miterlimit="4" stroke-linejoin="round" fill-rule="nonzero" stroke="none" fill-opacity="1" stroke-width="3px" stroke-opacity="1" stroke-dasharray="none" stroke-linecap="round" fill="#000000" d="M99.664,90.776L101.727,90.776C103.891,90.777,105.982,91.568,107.605,93.002C109.229,94.435,110.273,96.412,110.542,98.562L112.834,116.878C112.887,117.302,112.849,117.734,112.722,118.145C112.596,118.554,112.384,118.932,112.1,119.254C111.816,119.575,111.467,119.833,111.077,120.009C110.684,120.186,110.261,120.277,109.831,120.277L30.872,120.277C30.442,120.277,30.018,120.186,29.627,120.009C29.235,119.833,28.886,119.575,28.602,119.254C28.318,118.932,28.106,118.554,27.98,118.144C27.853,117.734,27.815,117.302,27.868,116.876L30.155,98.561C30.423,96.411,31.468,94.434,33.093,93C34.717,91.566,36.81,90.775,38.977,90.776L41.038,90.776C45.843,90.776,49.738,86.881,49.738,82.076C49.738,77.271,45.843,73.376,41.038,73.376L38.98,73.376C32.575,73.374,26.385,75.713,21.58,79.953C16.774,84.194,13.683,90.044,12.889,96.404L10.602,114.72C10.243,117.593,10.499,120.511,11.354,123.278C12.209,126.046,13.642,128.6,15.559,130.771C17.477,132.942,19.834,134.681,22.475,135.872C25.114,137.062,27.978,137.677,30.874,137.677L109.829,137.677C112.724,137.677,115.587,137.062,118.228,135.871C120.868,134.681,123.225,132.942,125.143,130.771C127.06,128.6,128.494,126.045,129.348,123.278C130.203,120.51,130.459,117.592,130.099,114.718L127.807,96.402C127.013,90.047,123.925,84.2,119.123,79.959C114.321,75.719,108.136,73.378,101.73,73.376L99.664,73.376C94.859,73.376,90.964,77.271,90.964,82.076C90.964,86.881,94.859,90.776,99.664,90.776Z"/>
</g>
  <g id="Medium-L" transform="matrix(1.0,0.0,0.0,1.0,1677.489110209462,1443.3840407616583)">  <path fill-rule="nonzero" fill-opacity="1" fill="#000000" stroke="none" stroke-linecap="round" stroke-opacity="1" stroke-miterlimit="4" stroke-dasharray="none" stroke-linejoin="round" stroke-width="3px" d="M70.351,77.632C90.561,77.632,106.945,61.248,106.945,41.038C106.945,20.828,90.561,4.444,70.351,4.444C50.141,4.444,33.757,20.828,33.757,41.038C33.757,61.248,50.141,77.632,70.351,77.632ZM70.351,63.07C58.183,63.07,48.319,53.206,48.319,41.038C48.319,28.87,58.183,19.006,70.351,19.006C82.519,19.006,92.382,28.87,92.382,41.038C92.382,53.206,82.518,63.07,70.351,63.07Z"/>
  <path fill="#000000" stroke-width="3px" fill-opacity="1" stroke-linecap="round" stroke="none" stroke-opacity="1" fill-rule="nonzero" stroke-miterlimit="4" stroke-linejoin="round" stroke-dasharray="none" d="M99.664,89.357L101.727,89.357C104.237,89.358,106.662,90.276,108.544,91.938C110.427,93.601,111.638,95.893,111.949,98.386L114.242,116.702C114.32,117.326,114.264,117.961,114.078,118.563C113.892,119.165,113.58,119.721,113.163,120.193C112.746,120.665,112.234,121.043,111.66,121.302C111.084,121.562,110.461,121.695,109.831,121.695L30.872,121.695C30.241,121.695,29.618,121.562,29.044,121.303C28.469,121.043,27.956,120.665,27.539,120.193C27.122,119.72,26.81,119.165,26.624,118.563C26.438,117.961,26.382,117.326,26.46,116.7L28.747,98.385C29.058,95.892,30.27,93.599,32.154,91.936C34.038,90.274,36.465,89.356,38.978,89.357L41.038,89.357C45.059,89.357,48.319,86.097,48.319,82.076C48.319,78.055,45.059,74.795,41.038,74.795L38.98,74.795C32.92,74.793,27.065,77.005,22.519,81.017C17.972,85.029,15.048,90.564,14.296,96.58L12.01,114.896C11.676,117.569,11.914,120.284,12.71,122.86C13.505,125.435,14.839,127.811,16.623,129.832C18.407,131.853,20.601,133.471,23.058,134.578C25.514,135.686,28.179,136.259,30.874,136.258L109.829,136.258C112.523,136.259,115.188,135.686,117.645,134.578C120.101,133.471,122.295,131.853,124.079,129.832C125.864,127.811,127.197,125.435,127.992,122.859C128.788,120.284,129.026,117.568,128.692,114.894L126.399,96.579C125.648,90.566,122.727,85.034,118.184,81.023C113.641,77.011,107.79,74.796,101.729,74.795L99.664,74.795C95.642,74.795,92.382,78.055,92.382,82.076C92.382,86.097,95.642,89.357,99.664,89.357Z"/>
</g>
  <g id="Regular-L" transform="matrix(1.0,0.0,0.0,1.0,1380.779110209462,1443.3840407616583)">  <path fill-rule="nonzero" stroke-miterlimit="4" stroke-opacity="1" stroke-dasharray="none" stroke="none" stroke-width="3px" fill="#000000" stroke-linecap="round" fill-opacity="1" stroke-linejoin="round" d="M70.351,76.213C89.778,76.213,105.526,60.465,105.526,41.038C105.526,21.611,89.778,5.863,70.351,5.863C50.924,5.863,35.175,21.611,35.175,41.038C35.175,60.465,50.924,76.213,70.351,76.213ZM70.351,64.488C57.4,64.488,46.901,53.989,46.901,41.038C46.901,28.087,57.4,17.588,70.351,17.588C83.302,17.588,93.801,28.087,93.801,41.038C93.801,53.989,83.302,64.488,70.351,64.488Z"/>
  <path stroke="none" fill="#000000" fill-opacity="1" stroke-linecap="round" stroke-opacity="1" stroke-miterlimit="4" stroke-dasharray="none" stroke-linejoin="round" stroke-width="3px" fill-rule="nonzero" d="M99.664,87.939L101.727,87.939C104.583,87.939,107.342,88.984,109.484,90.875C111.625,92.766,113.003,95.374,113.357,98.21L115.649,116.526C115.753,117.349,115.679,118.187,115.434,118.982C115.188,119.776,114.777,120.509,114.227,121.132C113.676,121.755,113,122.254,112.243,122.595C111.484,122.938,110.662,123.114,109.831,123.114L30.872,123.114C30.04,123.114,29.218,122.938,28.46,122.596C27.702,122.254,27.026,121.755,26.475,121.132C25.925,120.509,25.514,119.776,25.268,118.982C25.023,118.187,24.949,117.349,25.053,116.525L27.339,98.209C27.693,95.373,29.072,92.764,31.216,90.872C33.359,88.981,36.119,87.938,38.978,87.939L41.038,87.939C44.276,87.939,46.901,85.314,46.901,82.076C46.901,78.838,44.276,76.213,41.038,76.213L38.98,76.213C33.265,76.211,27.744,78.298,23.457,82.081C19.17,85.864,16.413,91.083,15.704,96.756L13.418,115.071C13.109,117.545,13.329,120.058,14.065,122.441C14.801,124.824,16.035,127.023,17.686,128.893C19.337,130.763,21.367,132.26,23.641,133.285C25.914,134.31,28.38,134.84,30.874,134.839L109.829,134.839C112.322,134.84,114.788,134.31,117.062,133.285C119.335,132.26,121.365,130.763,123.016,128.893C124.667,127.023,125.901,124.824,126.637,122.441C127.373,120.057,127.593,117.544,127.284,115.07L124.992,96.755C124.283,91.085,121.528,85.869,117.245,82.086C112.961,78.303,107.444,76.215,101.729,76.213L99.664,76.213C96.426,76.213,93.801,78.838,93.801,82.076C93.801,85.314,96.426,87.939,99.664,87.939Z"/>
</g>
  <g id="Light-L" transform="matrix(1.0,0.0,0.0,1.0,1084.0691102094622,1443.3840407616583)">  <path stroke-linecap="round" stroke="none" fill-rule="nonzero" stroke-opacity="1" stroke-dasharray="none" stroke-linejoin="round" fill-opacity="1" stroke-miterlimit="4" fill="#000000" stroke-width="3px" d="M70.351,75.236C89.238,75.236,104.549,59.925,104.549,41.038C104.549,22.151,89.238,6.84,70.351,6.84C51.464,6.84,36.153,22.151,36.153,41.038C36.153,59.925,51.464,75.236,70.351,75.236ZM70.351,65.465C56.86,65.465,45.923,54.529,45.923,41.038C45.923,27.547,56.86,16.611,70.351,16.611C83.842,16.611,94.778,27.547,94.778,41.038C94.778,54.529,83.842,65.465,70.351,65.465Z"/>
  <path stroke-linecap="round" fill-rule="nonzero" stroke-opacity="1" fill-opacity="1" stroke-width="3px" fill="#000000" stroke="none" stroke-dasharray="none" stroke-miterlimit="4" stroke-linejoin="round" d="M99.664,86.962L101.727,86.962C104.822,86.962,107.81,88.093,110.13,90.142C112.451,92.191,113.943,95.017,114.327,98.089L116.619,116.404C116.739,117.366,116.653,118.343,116.367,119.27C116.081,120.197,115.601,121.052,114.959,121.779C114.317,122.506,113.528,123.088,112.644,123.486C111.759,123.885,110.801,124.091,109.831,124.091L30.872,124.091C29.901,124.091,28.943,123.885,28.059,123.487C27.174,123.088,26.385,122.506,25.743,121.779C25.101,121.052,24.621,120.196,24.335,119.27C24.049,118.343,23.963,117.366,24.083,116.403L26.369,98.088C26.753,95.016,28.247,92.189,30.569,90.139C32.891,88.091,35.882,86.96,38.979,86.962L41.038,86.962C43.736,86.962,45.923,84.774,45.923,82.076C45.923,79.378,43.736,77.191,41.038,77.191L38.98,77.191C33.503,77.189,28.212,79.188,24.104,82.813C19.995,86.439,17.353,91.44,16.674,96.877L14.387,115.192C14.095,117.529,14.304,119.902,14.999,122.153C15.694,124.403,16.859,126.48,18.419,128.246C19.978,130.012,21.895,131.426,24.043,132.394C26.189,133.362,28.518,133.863,30.874,133.862L109.829,133.862C112.184,133.863,114.512,133.362,116.66,132.394C118.807,131.426,120.724,130.012,122.283,128.246C123.843,126.48,125.008,124.403,125.703,122.152C126.398,119.901,126.607,117.528,126.314,115.191L124.022,96.876C123.343,91.443,120.703,86.444,116.598,82.818C112.493,79.193,107.205,77.192,101.729,77.191L99.664,77.191C96.966,77.191,94.778,79.378,94.778,82.076C94.778,84.774,96.966,86.962,99.664,86.962Z"/>
</g>
  <g id="Thin-L" transform="matrix(1.0,0.0,0.0,1.0,787.3591102094621,1443.3840407616583)">  <path stroke-width="3px" stroke-linecap="round" fill-rule="nonzero" stroke-miterlimit="4" fill="#000000" fill-opacity="1" stroke-dasharray="none" stroke-linejoin="round" stroke-opacity="1" stroke="none" d="M70.351,74.259C88.698,74.259,103.572,59.385,103.572,41.038C103.572,22.69,88.698,7.817,70.351,7.817C52.003,7.817,37.13,22.69,37.13,41.038C37.13,59.385,52.003,74.259,70.351,74.259ZM70.351,66.443C56.321,66.443,44.946,55.068,44.946,41.038C44.946,27.008,56.32,15.634,70.351,15.634C84.381,15.634,95.755,27.008,95.755,41.038C95.755,55.068,84.381,66.443,70.351,66.443Z"/>
  <path stroke-miterlimit="4" stroke="none" fill-rule="nonzero" stroke-linecap="round" stroke-dasharray="none" fill="#000000" fill-opacity="1" stroke-opacity="1" stroke-width="3px" stroke-linejoin="round" d="M99.664,85.984L101.727,85.984C105.06,85.985,108.279,87.203,110.777,89.41C113.276,91.617,114.883,94.659,115.296,97.968L117.589,116.283C117.726,117.382,117.628,118.499,117.301,119.558C116.974,120.617,116.425,121.595,115.692,122.425C114.958,123.256,114.056,123.922,113.046,124.377C112.035,124.833,110.939,125.069,109.83,125.068L30.872,125.068C29.763,125.069,28.667,124.833,27.657,124.377C26.646,123.922,25.744,123.256,25.01,122.425C24.277,121.594,23.728,120.617,23.401,119.558C23.074,118.499,22.976,117.382,23.113,116.282L25.4,97.967C25.813,94.658,27.422,91.614,29.922,89.407C32.423,87.2,35.644,85.983,38.979,85.984L41.038,85.984C43.197,85.984,44.946,84.235,44.946,82.076C44.946,79.917,43.197,78.168,41.038,78.168L38.98,78.168C33.741,78.166,28.68,80.078,24.75,83.546C20.821,87.014,18.293,91.798,17.643,96.998L15.357,115.313C15.082,117.513,15.278,119.746,15.932,121.864C16.586,123.983,17.684,125.937,19.151,127.599C20.619,129.261,22.423,130.592,24.444,131.503C26.464,132.414,28.656,132.886,30.873,132.885L109.829,132.885C112.046,132.886,114.237,132.415,116.259,131.503C118.279,130.592,120.083,129.261,121.551,127.599C123.019,125.937,124.116,123.983,124.77,121.864C125.424,119.745,125.62,117.512,125.345,115.312L123.053,96.997C122.403,91.8,119.878,87.018,115.951,83.551C112.025,80.083,106.967,78.169,101.728,78.168L99.664,78.168C97.505,78.168,95.755,79.917,95.755,82.076C95.755,84.235,97.505,85.984,99.664,85.984Z"/>
</g>
  <g id="Ultralight-L" transform="matrix(1.0,0.0,0.0,1.0,490.6491102094621,1443.3840407616583)">  <path fill-opacity="1" stroke-linejoin="round" stroke-opacity="1" stroke-miterlimit="4" stroke="none" fill="#000000" stroke-linecap="round" stroke-dasharray="none" fill-rule="nonzero" stroke-width="3px" d="M70.351,73.282C88.159,73.282,102.595,58.846,102.595,41.038C102.595,23.23,88.159,8.794,70.351,8.794C52.543,8.794,38.107,23.23,38.107,41.038C38.107,58.846,52.543,73.282,70.351,73.282ZM70.351,67.42C55.781,67.42,43.969,55.608,43.969,41.038C43.969,26.468,55.781,14.656,70.351,14.656C84.921,14.656,96.732,26.468,96.732,41.038C96.732,55.608,84.921,67.42,70.351,67.42Z"/>
  <path stroke-width="3px" fill="#000000" stroke-opacity="1" stroke-miterlimit="4" fill-rule="nonzero" fill-opacity="1" stroke-dasharray="none" stroke="none" stroke-linejoin="round" stroke-linecap="round" d="M99.664,85.007L101.727,85.007C105.298,85.008,108.747,86.313,111.424,88.678C114.101,91.042,115.823,94.302,116.266,97.846L118.558,116.162C118.713,117.398,118.602,118.654,118.234,119.846C117.866,121.038,117.25,122.137,116.424,123.072C115.599,124.007,114.584,124.756,113.447,125.268C112.31,125.781,111.077,126.046,109.83,126.045L30.872,126.045C29.625,126.046,28.392,125.781,27.255,125.268C26.118,124.756,25.104,124.007,24.278,123.072C23.453,122.137,22.835,121.038,22.468,119.846C22.1,118.655,21.989,117.398,22.144,116.161L24.43,97.846C24.873,94.301,26.596,91.039,29.276,88.674C31.955,86.31,35.406,85.006,38.979,85.007L41.038,85.007C42.657,85.007,43.969,83.695,43.969,82.076C43.969,80.457,42.657,79.145,41.038,79.145L38.98,79.145C33.979,79.143,29.148,80.969,25.397,84.279C21.646,87.589,19.233,92.155,18.613,97.119L16.327,115.434C16.069,117.496,16.253,119.59,16.866,121.576C17.479,123.562,18.508,125.395,19.883,126.953C21.259,128.511,22.951,129.759,24.846,130.613C26.74,131.467,28.795,131.908,30.873,131.908L109.829,131.908C111.907,131.908,113.962,131.467,115.857,130.612C117.751,129.759,119.443,128.511,120.819,126.953C122.194,125.395,123.223,123.562,123.836,121.576C124.449,119.59,124.633,117.496,124.375,115.434L122.083,97.119C121.463,92.157,119.053,87.593,115.305,84.283C111.556,80.973,106.729,79.146,101.728,79.145L99.664,79.145C98.045,79.145,96.732,80.457,96.732,82.076C96.732,83.695,98.045,85.007,99.664,85.007Z"/>
</g>
  <g id="Black-M" transform="matrix(1.0,0.0,0.0,1.0,2880.1444265189625,1030.7808887021092)">  <path stroke-linecap="round" stroke-miterlimit="4" stroke="none" fill="#000000" fill-rule="nonzero" fill-opacity="1" stroke-width="3px" stroke-dasharray="none" stroke-linejoin="round" stroke-opacity="1" d="M54.536,64.579C72.632,64.579,87.302,49.909,87.302,31.812C87.302,13.716,72.632,-0.954,54.536,-0.954C36.439,-0.954,21.769,13.716,21.769,31.812C21.769,49.909,36.439,64.579,54.536,64.579ZM54.536,44.492C47.533,44.492,41.856,38.815,41.856,31.812C41.856,24.81,47.533,19.133,54.536,19.133C61.538,19.133,67.215,24.81,67.215,31.812C67.215,38.815,61.538,44.492,54.536,44.492Z"/>
  <path stroke-linecap="round" stroke-dasharray="none" fill-opacity="1" fill="#000000" stroke-miterlimit="4" stroke="none" fill-rule="nonzero" stroke-opacity="1" stroke-width="3px" stroke-linejoin="round" d="M77.259,73.668L78.858,73.668C79.731,73.669,80.575,73.988,81.231,74.567C81.887,75.147,82.309,75.945,82.417,76.814L84.194,91.013C84.177,90.877,84.189,90.741,84.229,90.612C84.269,90.482,84.336,90.363,84.426,90.261C84.516,90.159,84.626,90.078,84.75,90.022C84.872,89.967,85.006,89.938,85.141,89.938L23.932,89.938C24.065,89.938,24.199,89.967,24.323,90.023C24.445,90.078,24.556,90.159,24.646,90.261C24.735,90.362,24.802,90.482,24.842,90.611C24.882,90.74,24.894,90.877,24.877,91.011L26.65,76.812C26.758,75.945,27.18,75.146,27.837,74.566C28.493,73.988,29.338,73.668,30.214,73.668L31.812,73.668C37.359,73.668,41.856,69.172,41.856,63.625C41.856,58.078,37.359,53.581,31.812,53.581L30.217,53.581C24.448,53.579,18.874,55.686,14.546,59.505C10.217,63.325,7.433,68.595,6.717,74.323L4.945,88.521C4.608,91.212,4.848,93.946,5.649,96.538C6.45,99.13,7.792,101.523,9.588,103.557C11.384,105.591,13.593,107.22,16.067,108.335C18.538,109.45,21.221,110.026,23.934,110.026L85.139,110.026C87.85,110.026,90.532,109.45,93.006,108.334C95.479,107.22,97.687,105.591,99.483,103.557C101.279,101.523,102.622,99.13,103.422,96.537C104.223,93.945,104.463,91.211,104.126,88.519L102.349,74.321C101.634,68.597,98.852,63.33,94.527,59.511C90.202,55.691,84.631,53.583,78.861,53.581L77.259,53.581C71.712,53.581,67.215,58.078,67.215,63.625C67.215,69.172,71.712,73.668,77.259,73.668Z"/>
</g>
  <g id="Heavy-M" transform="matrix(1.0,0.0,0.0,1.0,2583.4344265189625,1030.7808887021092)">  <path stroke-opacity="1" stroke-miterlimit="4" stroke-linejoin="round" stroke="none" fill="#000000" stroke-linecap="round" fill-opacity="1" fill-rule="nonzero" stroke-dasharray="none" stroke-width="3px" d="M54.536,63.479C72.025,63.479,86.203,49.302,86.203,31.812C86.203,14.323,72.025,0.145,54.536,0.145C37.046,0.145,22.869,14.323,22.869,31.812C22.869,49.302,37.046,63.479,54.536,63.479ZM54.536,45.592C46.926,45.592,40.756,39.422,40.756,31.812C40.756,24.202,46.926,18.033,54.536,18.033C62.146,18.033,68.315,24.202,68.315,31.812C68.315,39.422,62.146,45.592,54.536,45.592Z"/>
  <path fill="#000000" fill-opacity="1" stroke-opacity="1" stroke-linejoin="round" stroke-width="3px" stroke-linecap="round" stroke-dasharray="none" stroke-miterlimit="4" fill-rule="nonzero" stroke="none" d="M77.259,72.569L78.858,72.569C79.999,72.569,81.102,72.987,81.959,73.743C82.816,74.5,83.367,75.543,83.508,76.677L85.286,90.876C85.288,90.895,85.286,90.916,85.28,90.936C85.274,90.956,85.264,90.974,85.25,90.989C85.237,91.004,85.22,91.017,85.202,91.025C85.182,91.034,85.162,91.038,85.141,91.038L23.932,91.038C23.91,91.038,23.889,91.034,23.871,91.025C23.851,91.016,23.835,91.004,23.821,90.989C23.807,90.973,23.797,90.955,23.791,90.936C23.785,90.916,23.783,90.895,23.786,90.875L25.558,76.676C25.7,75.542,26.251,74.499,27.109,73.742C27.966,72.986,29.07,72.568,30.214,72.569L31.812,72.569C36.752,72.569,40.756,68.564,40.756,63.625C40.756,58.685,36.752,54.681,31.812,54.681L30.217,54.681C24.716,54.679,19.401,56.688,15.273,60.33C11.146,63.973,8.491,68.997,7.809,74.459L6.036,88.658C5.719,91.194,5.945,93.77,6.7,96.214C7.454,98.657,8.72,100.912,10.413,102.829C12.106,104.746,14.187,106.281,16.519,107.332C18.848,108.383,21.377,108.926,23.934,108.926L85.139,108.926C87.695,108.926,90.222,108.383,92.554,107.332C94.884,106.281,96.966,104.746,98.659,102.829C100.352,100.912,101.617,98.657,102.372,96.213C103.126,93.769,103.352,91.193,103.035,88.655L101.258,74.457C100.576,68.999,97.924,63.977,93.799,60.335C89.675,56.693,84.363,54.683,78.861,54.681L77.259,54.681C72.319,54.681,68.315,58.685,68.315,63.625C68.315,68.564,72.319,72.569,77.259,72.569Z"/>
</g>
  <g id="Bold-M" transform="matrix(1.0,0.0,0.0,1.0,2286.7244265189624,1030.7808887021092)">  <path stroke-linecap="round" stroke-opacity="1" stroke-width="3px" fill="#000000" stroke-miterlimit="4" stroke="none" fill-rule="nonzero" stroke-dasharray="none" fill-opacity="1" stroke-linejoin="round" d="M54.536,62.38C71.417,62.38,85.103,48.694,85.103,31.812C85.103,14.931,71.417,1.245,54.536,1.245C37.654,1.245,23.968,14.931,23.968,31.812C23.968,48.694,37.654,62.38,54.536,62.38ZM54.536,46.692C46.318,46.692,39.656,40.03,39.656,31.812C39.656,23.595,46.318,16.933,54.536,16.933C62.753,16.933,69.415,23.595,69.415,31.812C69.415,40.03,62.753,46.692,54.536,46.692Z"/>
  <path fill="#000000" stroke-width="3px" fill-opacity="1" stroke="none" fill-rule="nonzero" stroke-opacity="1" stroke-miterlimit="4" stroke-linejoin="round" stroke-dasharray="none" stroke-linecap="round" d="M77.259,71.469L78.858,71.469C80.267,71.469,81.63,71.985,82.687,72.919C83.745,73.853,84.425,75.141,84.6,76.541L86.377,90.74C86.399,90.913,86.383,91.091,86.331,91.261C86.279,91.429,86.192,91.585,86.075,91.717C85.958,91.849,85.814,91.955,85.654,92.027C85.492,92.1,85.318,92.138,85.141,92.138L23.932,92.138C23.754,92.138,23.58,92.1,23.419,92.028C23.257,91.955,23.114,91.849,22.997,91.717C22.88,91.584,22.792,91.429,22.74,91.26C22.688,91.091,22.673,90.913,22.695,90.738L24.467,76.54C24.642,75.14,25.323,73.852,26.381,72.917C27.439,71.984,28.803,71.468,30.214,71.469L31.812,71.469C36.145,71.469,39.656,67.957,39.656,63.625C39.656,59.293,36.145,55.781,31.812,55.781L30.217,55.781C24.984,55.779,19.927,57.69,16.001,61.154C12.074,64.62,9.549,69.399,8.9,74.596L7.127,88.794C6.83,91.176,7.042,93.595,7.751,95.889C8.459,98.183,9.648,100.301,11.237,102.101C12.827,103.901,14.781,105.343,16.971,106.33C19.158,107.316,21.532,107.826,23.934,107.826L85.139,107.826C87.539,107.826,89.912,107.316,92.102,106.329C94.29,105.343,96.245,103.901,97.834,102.101C99.424,100.301,100.612,98.183,101.321,95.889C102.029,93.594,102.242,91.175,101.944,88.792L100.167,74.594C99.518,69.402,96.995,64.624,93.071,61.159C89.148,57.695,84.095,55.782,78.861,55.781L77.259,55.781C72.927,55.781,69.415,59.293,69.415,63.625C69.415,67.957,72.927,71.469,77.259,71.469Z"/>
</g>
  <g id="Semibold-M" transform="matrix(1.0,0.0,0.0,1.0,1990.0144265189629,1030.7808887021092)">  <path fill-rule="nonzero" stroke="none" fill="#000000" stroke-dasharray="none" stroke-linejoin="round" stroke-opacity="1" fill-opacity="1" stroke-miterlimit="4" stroke-linecap="round" stroke-width="3px" d="M54.536,61.28C70.81,61.28,84.003,48.087,84.003,31.812C84.003,15.538,70.81,2.345,54.536,2.345C38.261,2.345,25.068,15.538,25.068,31.812C25.068,48.087,38.261,61.28,54.536,61.28ZM54.536,47.791C45.711,47.791,38.557,40.637,38.557,31.812C38.557,22.988,45.711,15.833,54.536,15.833C63.36,15.833,70.514,22.988,70.514,31.812C70.514,40.637,63.36,47.791,54.536,47.791Z"/>
  <path stroke-miterlimit="4" stroke-linejoin="round" fill-rule="nonzero" stroke="none" fill-opacity="1" stroke-width="3px" stroke-opacity="1" stroke-dasharray="none" stroke-linecap="round" fill="#000000" d="M77.259,70.369L78.858,70.369C80.536,70.37,82.157,70.983,83.415,72.094C84.674,73.206,85.483,74.738,85.691,76.404L87.468,90.603C87.509,90.932,87.48,91.267,87.382,91.585C87.284,91.903,87.119,92.196,86.899,92.445C86.679,92.694,86.409,92.894,86.106,93.03C85.802,93.167,85.473,93.238,85.141,93.238L23.932,93.238C23.598,93.238,23.27,93.167,22.967,93.03C22.663,92.894,22.392,92.694,22.172,92.445C21.952,92.195,21.788,91.902,21.69,91.585C21.591,91.267,21.562,90.932,21.603,90.602L23.376,76.404C23.584,74.738,24.394,73.204,25.654,72.093C26.913,70.982,28.535,70.368,30.215,70.369L31.812,70.369C35.537,70.369,38.557,67.35,38.557,63.625C38.557,59.9,35.537,56.881,31.812,56.881L30.217,56.881C25.252,56.879,20.454,58.692,16.729,61.979C13.003,65.267,10.607,69.802,9.991,74.732L8.219,88.93C7.94,91.157,8.139,93.419,8.802,95.565C9.464,97.71,10.575,99.69,12.061,101.373C13.548,103.056,15.375,104.404,17.423,105.327C19.468,106.249,21.688,106.727,23.934,106.726L85.139,106.726C87.383,106.727,89.603,106.25,91.65,105.327C93.696,104.404,95.523,103.056,97.01,101.373C98.496,99.69,99.607,97.71,100.27,95.564C100.932,93.418,101.131,91.156,100.852,88.928L99.075,74.731C98.46,69.804,96.066,65.271,92.343,61.984C88.621,58.697,83.826,56.882,78.86,56.881L77.259,56.881C73.534,56.881,70.514,59.9,70.514,63.625C70.514,67.35,73.534,70.369,77.259,70.369Z"/>
</g>
  <g id="Medium-M" transform="matrix(1.0,0.0,0.0,1.0,1693.3044265189628,1030.7808887021092)">  <path fill-rule="nonzero" fill-opacity="1" fill="#000000" stroke="none" stroke-linecap="round" stroke-opacity="1" stroke-miterlimit="4" stroke-dasharray="none" stroke-linejoin="round" stroke-width="3px" d="M54.536,60.18C70.202,60.18,82.903,47.479,82.903,31.812C82.903,16.145,70.202,3.445,54.536,3.445C38.869,3.445,26.168,16.145,26.168,31.812C26.168,47.479,38.869,60.18,54.536,60.18ZM54.536,48.891C45.103,48.891,37.457,41.245,37.457,31.812C37.457,22.38,45.103,14.734,54.536,14.734C63.968,14.734,71.614,22.38,71.614,31.812C71.614,41.245,63.968,48.891,54.536,48.891Z"/>
  <path fill="#000000" stroke-width="3px" fill-opacity="1" stroke-linecap="round" stroke="none" stroke-opacity="1" fill-rule="nonzero" stroke-miterlimit="4" stroke-linejoin="round" stroke-dasharray="none" d="M77.259,69.269L78.858,69.269C80.804,69.27,82.684,69.981,84.143,71.27C85.602,72.559,86.541,74.336,86.782,76.268L88.559,90.467C88.62,90.95,88.577,91.442,88.432,91.909C88.288,92.376,88.047,92.807,87.724,93.173C87.4,93.539,87.003,93.832,86.558,94.033C86.112,94.234,85.629,94.338,85.14,94.337L23.932,94.337C23.442,94.338,22.96,94.234,22.514,94.033C22.069,93.832,21.671,93.539,21.348,93.173C21.025,92.807,20.783,92.376,20.639,91.909C20.495,91.442,20.451,90.95,20.512,90.465L22.284,76.267C22.526,74.335,23.465,72.557,24.926,71.268C26.386,69.979,28.267,69.269,30.215,69.269L31.812,69.269C34.93,69.269,37.457,66.742,37.457,63.625C37.457,60.508,34.93,57.98,31.812,57.98L30.217,57.98C25.519,57.979,20.98,59.694,17.456,62.804C13.932,65.914,11.665,70.204,11.083,74.868L9.31,89.066C9.051,91.139,9.236,93.244,9.852,95.24C10.469,97.236,11.503,99.079,12.886,100.645C14.269,102.211,15.97,103.466,17.875,104.324C19.778,105.183,21.844,105.627,23.933,105.626L85.139,105.626C87.227,105.627,89.293,105.183,91.198,104.324C93.102,103.466,94.802,102.211,96.186,100.645C97.569,99.079,98.603,97.236,99.219,95.24C99.835,93.243,100.02,91.138,99.761,89.065L97.984,74.867C97.402,70.206,95.137,65.918,91.615,62.808C88.094,59.698,83.558,57.982,78.86,57.98L77.259,57.98C74.141,57.98,71.614,60.508,71.614,63.625C71.614,66.742,74.141,69.269,77.259,69.269Z"/>
</g>
  <g id="Regular-M" transform="matrix(1.0,0.0,0.0,1.0,1396.5944265189628,1030.7808887021092)">  <path fill-rule="nonzero" stroke-miterlimit="4" stroke-opacity="1" stroke-dasharray="none" stroke="none" stroke-width="3px" fill="#000000" stroke-linecap="round" fill-opacity="1" stroke-linejoin="round" d="M54.536,59.08C69.595,59.08,81.803,46.872,81.803,31.812C81.803,16.753,69.595,4.545,54.536,4.545C39.476,4.545,27.268,16.753,27.268,31.812C27.268,46.872,39.476,59.08,54.536,59.08ZM54.536,49.991C44.496,49.991,36.357,41.852,36.357,31.812C36.357,21.773,44.496,13.634,54.536,13.634C64.575,13.634,72.714,21.773,72.714,31.812C72.714,41.852,64.575,49.991,54.536,49.991Z"/>
  <path stroke="none" fill="#000000" fill-opacity="1" stroke-linecap="round" stroke-opacity="1" stroke-miterlimit="4" stroke-dasharray="none" stroke-linejoin="round" stroke-width="3px" fill-rule="nonzero" d="M77.259,68.169L78.858,68.169C81.072,68.17,83.211,68.979,84.871,70.446C86.531,71.912,87.599,73.934,87.874,76.132L89.651,90.33C89.731,90.968,89.674,91.618,89.483,92.234C89.293,92.85,88.974,93.418,88.548,93.901C88.121,94.384,87.597,94.771,87.01,95.035C86.422,95.301,85.785,95.437,85.14,95.437L23.932,95.437C23.287,95.437,22.65,95.3,22.062,95.036C21.474,94.771,20.95,94.384,20.524,93.901C20.097,93.418,19.778,92.849,19.588,92.234C19.398,91.618,19.341,90.969,19.421,90.329L21.193,76.131C21.468,73.933,22.536,71.91,24.198,70.443C25.859,68.977,28,68.169,30.216,68.169L31.812,68.169C34.322,68.169,36.357,66.135,36.357,63.625C36.357,61.115,34.322,59.08,31.812,59.08L30.217,59.08C25.787,59.079,21.507,60.696,18.184,63.628C14.861,66.561,12.723,70.607,12.174,75.005L10.401,89.203C10.162,91.12,10.333,93.068,10.903,94.915C11.474,96.763,12.43,98.468,13.71,99.917C14.99,101.366,16.564,102.527,18.326,103.322C20.088,104.116,22,104.527,23.933,104.527L85.139,104.527C87.072,104.527,88.983,104.116,90.746,103.321C92.508,102.527,94.081,101.366,95.361,99.917C96.641,98.468,97.598,96.763,98.168,94.915C98.739,93.068,98.91,91.12,98.67,89.201L96.893,75.004C96.343,70.609,94.208,66.565,90.887,63.633C87.567,60.7,83.29,59.081,78.86,59.08L77.259,59.08C74.749,59.08,72.714,61.115,72.714,63.625C72.714,66.135,74.749,68.169,77.259,68.169Z"/>
</g>
  <g id="Light-M" transform="matrix(1.0,0.0,0.0,1.0,1099.884426518963,1030.7808887021092)">  <path stroke-linecap="round" stroke="none" fill-rule="nonzero" stroke-opacity="1" stroke-dasharray="none" stroke-linejoin="round" fill-opacity="1" stroke-miterlimit="4" fill="#000000" stroke-width="3px" d="M54.536,58.323C69.177,58.323,81.046,46.454,81.046,31.812C81.046,17.171,69.177,5.302,54.536,5.302C39.894,5.302,28.025,17.171,28.025,31.812C28.025,46.454,39.894,58.323,54.536,58.323ZM54.536,50.748C44.078,50.748,35.6,42.27,35.6,31.812C35.6,21.354,44.078,12.876,54.536,12.876C64.994,12.876,73.472,21.354,73.472,31.812C73.472,42.27,64.994,50.748,54.536,50.748Z"/>
  <path stroke-linecap="round" fill-rule="nonzero" stroke-opacity="1" fill-opacity="1" stroke-width="3px" fill="#000000" stroke="none" stroke-dasharray="none" stroke-miterlimit="4" stroke-linejoin="round" d="M77.259,67.412L78.858,67.412C81.257,67.413,83.574,68.29,85.372,69.878C87.171,71.466,88.328,73.657,88.625,76.038L90.402,90.236C90.496,90.981,90.429,91.739,90.207,92.457C89.985,93.176,89.613,93.839,89.116,94.402C88.618,94.966,88.006,95.417,87.321,95.726C86.635,96.035,85.892,96.195,85.14,96.195L23.932,96.195C23.179,96.195,22.436,96.035,21.751,95.726C21.065,95.417,20.453,94.966,19.956,94.402C19.458,93.838,19.086,93.176,18.864,92.457C18.642,91.739,18.576,90.981,18.669,90.235L20.441,76.037C20.739,73.656,21.897,71.464,23.697,69.876C25.497,68.287,27.815,67.411,30.216,67.412L31.812,67.412C33.904,67.412,35.6,65.716,35.6,63.625C35.6,61.533,33.904,59.838,31.812,59.838L30.217,59.838C25.971,59.836,21.87,61.386,18.685,64.196C15.5,67.007,13.452,70.884,12.925,75.099L11.153,89.296C10.927,91.108,11.088,92.947,11.627,94.692C12.166,96.437,13.069,98.047,14.278,99.416C15.487,100.785,16.973,101.881,18.638,102.631C20.302,103.381,22.107,103.77,23.933,103.769L85.139,103.769C86.964,103.77,88.769,103.382,90.434,102.631C92.098,101.881,93.585,100.785,94.793,99.416C96.002,98.047,96.906,96.437,97.444,94.692C97.983,92.947,98.145,91.107,97.918,89.295L96.141,75.098C95.615,70.886,93.568,67.01,90.386,64.2C87.204,61.39,83.105,59.839,78.859,59.838L77.259,59.838C75.167,59.838,73.472,61.533,73.472,63.625C73.472,65.716,75.167,67.412,77.259,67.412Z"/>
</g>
  <g id="Thin-M" transform="matrix(1.0,0.0,0.0,1.0,803.174426518963,1030.7808887021092)">  <path stroke-width="3px" stroke-linecap="round" fill-rule="nonzero" stroke-miterlimit="4" fill="#000000" fill-opacity="1" stroke-dasharray="none" stroke-linejoin="round" stroke-opacity="1" stroke="none" d="M54.536,57.565C68.758,57.565,80.288,46.035,80.288,31.812C80.288,17.59,68.758,6.06,54.536,6.06C40.313,6.06,28.783,17.59,28.783,31.812C28.783,46.035,40.313,57.565,54.536,57.565ZM54.536,51.506C43.659,51.506,34.842,42.689,34.842,31.812C34.842,20.936,43.659,12.119,54.536,12.119C65.412,12.119,74.229,20.936,74.229,31.812C74.229,42.689,65.412,51.506,54.536,51.506Z"/>
  <path stroke-miterlimit="4" stroke="none" fill-rule="nonzero" stroke-linecap="round" stroke-dasharray="none" fill="#000000" fill-opacity="1" stroke-opacity="1" stroke-width="3px" stroke-linejoin="round" d="M77.259,66.655L78.858,66.655C81.442,66.655,83.937,67.6,85.874,69.31C87.811,71.021,89.056,73.379,89.377,75.944L91.154,90.142C91.26,90.994,91.184,91.859,90.931,92.681C90.677,93.502,90.252,94.259,89.683,94.903C89.115,95.548,88.415,96.063,87.633,96.416C86.848,96.77,85.999,96.952,85.14,96.952L23.932,96.952C23.072,96.952,22.223,96.77,21.439,96.417C20.656,96.063,19.957,95.548,19.388,94.903C18.819,94.259,18.394,93.502,18.14,92.681C17.887,91.86,17.811,90.994,17.917,90.141L19.69,75.943C20.01,73.378,21.257,71.019,23.196,69.308C25.134,67.597,27.631,66.654,30.216,66.655L31.812,66.655C33.486,66.655,34.842,65.298,34.842,63.625C34.842,61.952,33.486,60.595,31.812,60.595L30.217,60.595C26.156,60.594,22.232,62.076,19.186,64.764C16.14,67.453,14.181,71.161,13.677,75.192L11.905,89.39C11.692,91.095,11.844,92.826,12.351,94.469C12.858,96.111,13.708,97.626,14.846,98.914C15.984,100.203,17.382,101.234,18.949,101.941C20.515,102.647,22.214,103.012,23.933,103.012L85.139,103.012C86.857,103.012,88.556,102.647,90.123,101.94C91.689,101.234,93.088,100.203,94.226,98.914C95.363,97.626,96.214,96.111,96.721,94.468C97.228,92.826,97.38,91.095,97.167,89.39L95.39,75.192C94.886,71.163,92.929,67.456,89.885,64.768C86.841,62.08,82.92,60.596,78.859,60.595L77.259,60.595C75.585,60.595,74.229,61.952,74.229,63.625C74.229,65.298,75.585,66.655,77.259,66.655Z"/>
</g>
  <g id="Ultralight-M" transform="matrix(1.0,0.0,0.0,1.0,506.46442651896285,1030.7808887021092)">  <path fill-opacity="1" stroke-linejoin="round" stroke-opacity="1" stroke-miterlimit="4" stroke="none" fill="#000000" stroke-linecap="round" stroke-dasharray="none" fill-rule="nonzero" stroke-width="3px" d="M54.536,56.808C68.34,56.808,79.531,45.617,79.531,31.812C79.531,18.008,68.34,6.817,54.536,6.817C40.731,6.817,29.54,18.008,29.54,31.812C29.54,45.617,40.731,56.808,54.536,56.808ZM54.536,52.263C43.241,52.263,34.085,43.107,34.085,31.812C34.085,20.518,43.241,11.362,54.536,11.362C65.83,11.362,74.986,20.518,74.986,31.812C74.986,43.107,65.83,52.263,54.536,52.263Z"/>
  <path stroke-width="3px" fill="#000000" stroke-opacity="1" stroke-miterlimit="4" fill-rule="nonzero" fill-opacity="1" stroke-dasharray="none" stroke="none" stroke-linejoin="round" stroke-linecap="round" d="M77.259,65.897L78.858,65.897C81.627,65.898,84.3,66.91,86.375,68.742C88.45,70.575,89.785,73.102,90.128,75.85L91.905,90.048C92.025,91.006,91.94,91.98,91.655,92.904C91.369,93.828,90.891,94.68,90.251,95.405C89.611,96.13,88.825,96.71,87.944,97.107C87.062,97.504,86.106,97.71,85.14,97.71L23.932,97.71C22.965,97.71,22.009,97.504,21.128,97.107C20.247,96.71,19.46,96.13,18.82,95.405C18.18,94.68,17.702,93.828,17.417,92.904C17.131,91.98,17.046,91.006,17.166,90.047L18.938,75.85C19.282,73.101,20.617,70.573,22.695,68.74C24.771,66.907,27.446,65.896,30.217,65.897L31.812,65.897C33.067,65.897,34.085,64.88,34.085,63.625C34.085,62.37,33.067,61.353,31.812,61.353L30.217,61.353C26.34,61.351,22.595,62.766,19.687,65.332C16.78,67.899,14.909,71.438,14.429,75.286L12.656,89.484C12.456,91.082,12.599,92.706,13.074,94.245C13.55,95.784,14.347,97.205,15.414,98.413C16.48,99.621,17.791,100.588,19.26,101.25C20.729,101.912,22.321,102.255,23.933,102.254L85.139,102.254C86.75,102.255,88.342,101.912,89.812,101.25C91.28,100.588,92.591,99.621,93.658,98.413C94.724,97.205,95.522,95.784,95.997,94.245C96.472,92.705,96.615,91.082,96.415,89.484L94.638,75.286C94.157,71.44,92.289,67.902,89.383,65.336C86.478,62.77,82.735,61.354,78.859,61.353L77.259,61.353C76.004,61.353,74.986,62.37,74.986,63.625C74.986,64.88,76.004,65.897,77.259,65.897Z"/>
</g>
  <g id="Black-S" transform="matrix(1.0,0.0,0.0,1.0,2891.978645964348,613.7985300920327)">  <path stroke-linecap="round" stroke-miterlimit="4" stroke="none" fill="#000000" fill-rule="nonzero" fill-opacity="1" stroke-width="3px" stroke-dasharray="none" stroke-linejoin="round" stroke-opacity="1" d="M42.701,50.566C56.871,50.566,68.358,39.079,68.358,24.909C68.358,10.74,56.871,-0.747,42.701,-0.747C28.532,-0.747,17.045,10.74,17.045,24.909C17.045,39.079,28.532,50.566,42.701,50.566ZM42.701,34.837C37.218,34.837,32.773,30.392,32.773,24.909C32.773,19.426,37.218,14.981,42.701,14.981C48.184,14.981,52.629,19.426,52.629,24.909C52.629,30.392,48.184,34.837,42.701,34.837Z"/>
  <path stroke-linecap="round" stroke-dasharray="none" fill-opacity="1" fill="#000000" stroke-miterlimit="4" stroke="none" fill-rule="nonzero" stroke-opacity="1" stroke-width="3px" stroke-linejoin="round" d="M60.494,57.682L61.746,57.682C62.429,57.683,63.091,57.933,63.604,58.386C64.117,58.84,64.448,59.465,64.533,60.145L65.924,71.263C65.911,71.157,65.92,71.05,65.951,70.949C65.983,70.848,66.035,70.754,66.106,70.674C66.176,70.595,66.262,70.531,66.36,70.487C66.455,70.444,66.56,70.422,66.666,70.422L18.739,70.422C18.843,70.422,18.948,70.444,19.045,70.488C19.141,70.531,19.227,70.595,19.297,70.674C19.368,70.754,19.42,70.847,19.451,70.949C19.483,71.05,19.492,71.156,19.479,71.262L20.867,60.144C20.952,59.465,21.282,58.839,21.796,58.386C22.31,57.932,22.972,57.682,23.657,57.682L24.909,57.682C29.252,57.682,32.773,54.162,32.773,49.818C32.773,45.475,29.252,41.954,24.909,41.954L23.66,41.954C19.143,41.952,14.778,43.602,11.389,46.593C8,49.584,5.82,53.71,5.26,58.195L3.872,69.312C3.608,71.419,3.796,73.559,4.423,75.589C5.05,77.619,6.101,79.492,7.508,81.085C8.914,82.678,10.643,83.953,12.58,84.826C14.516,85.699,16.616,86.15,18.741,86.15L66.664,86.15C68.787,86.15,70.887,85.699,72.824,84.826C74.76,83.953,76.489,82.678,77.895,81.085C79.302,79.492,80.353,77.619,80.98,75.589C81.606,73.559,81.795,71.418,81.531,69.31L80.139,58.193C79.579,53.711,77.401,49.587,74.015,46.597C70.628,43.606,66.266,41.955,61.748,41.954L60.494,41.954C56.15,41.954,52.629,45.475,52.629,49.818C52.629,54.162,56.15,57.682,60.494,57.682Z"/>
</g>
  <g id="Heavy-S" transform="matrix(1.0,0.0,0.0,1.0,2595.268645964348,613.7985300920327)">  <path stroke-opacity="1" stroke-miterlimit="4" stroke-linejoin="round" stroke="none" fill="#000000" stroke-linecap="round" fill-opacity="1" fill-rule="nonzero" stroke-dasharray="none" stroke-width="3px" d="M42.701,49.704C56.395,49.704,67.497,38.603,67.497,24.909C67.497,11.215,56.395,0.114,42.701,0.114C29.007,0.114,17.906,11.215,17.906,24.909C17.906,38.603,29.007,49.704,42.701,49.704ZM42.701,35.698C36.743,35.698,31.912,30.868,31.912,24.909C31.912,18.95,36.743,14.12,42.701,14.12C48.66,14.12,53.491,18.95,53.491,24.909C53.491,30.868,48.66,35.698,42.701,35.698Z"/>
  <path fill="#000000" fill-opacity="1" stroke-opacity="1" stroke-linejoin="round" stroke-width="3px" stroke-linecap="round" stroke-dasharray="none" stroke-miterlimit="4" fill-rule="nonzero" stroke="none" d="M60.494,56.821L61.746,56.821C62.639,56.822,63.503,57.149,64.174,57.741C64.845,58.333,65.276,59.15,65.387,60.038L66.779,71.156C66.78,71.171,66.779,71.187,66.774,71.203C66.769,71.218,66.762,71.232,66.751,71.244C66.74,71.256,66.727,71.266,66.713,71.272C66.698,71.279,66.682,71.283,66.666,71.283L18.739,71.283C18.721,71.283,18.705,71.279,18.691,71.273C18.675,71.266,18.663,71.256,18.652,71.244C18.641,71.232,18.633,71.218,18.629,71.203C18.624,71.187,18.622,71.171,18.624,71.155L20.012,60.037C20.123,59.15,20.555,58.333,21.226,57.74C21.897,57.148,22.762,56.821,23.658,56.821L24.909,56.821C28.777,56.821,31.912,53.686,31.912,49.818C31.912,45.951,28.777,42.815,24.909,42.815L23.66,42.815C19.353,42.814,15.191,44.387,11.959,47.238C8.727,50.091,6.649,54.025,6.114,58.302L4.726,69.419C4.478,71.405,4.655,73.422,5.246,75.335C5.837,77.248,6.828,79.014,8.153,80.515C9.479,82.016,11.108,83.218,12.934,84.041C14.758,84.864,16.738,85.289,18.74,85.289L66.664,85.289C68.665,85.289,70.644,84.864,72.47,84.041C74.294,83.218,75.924,82.016,77.25,80.515C78.575,79.014,79.566,77.248,80.157,75.335C80.748,73.421,80.925,71.404,80.676,69.417L79.285,58.3C78.751,54.027,76.674,50.094,73.445,47.242C70.216,44.391,66.056,42.816,61.748,42.815L60.494,42.815C56.626,42.815,53.491,45.951,53.491,49.818C53.491,53.686,56.626,56.821,60.494,56.821Z"/>
</g>
  <g id="Bold-S" transform="matrix(1.0,0.0,0.0,1.0,2298.5586459643478,613.7985300920327)">  <path stroke-linecap="round" stroke-opacity="1" stroke-width="3px" fill="#000000" stroke-miterlimit="4" stroke="none" fill-rule="nonzero" stroke-dasharray="none" fill-opacity="1" stroke-linejoin="round" d="M42.701,48.843C55.92,48.843,66.635,38.127,66.635,24.909C66.635,11.691,55.92,0.975,42.701,0.975C29.483,0.975,18.767,11.691,18.767,24.909C18.767,38.127,29.483,48.843,42.701,48.843ZM42.701,36.559C36.267,36.559,31.051,31.343,31.051,24.909C31.051,18.475,36.267,13.259,42.701,13.259C49.136,13.259,54.352,18.475,54.352,24.909C54.352,31.343,49.136,36.559,42.701,36.559Z"/>
  <path fill="#000000" stroke-width="3px" fill-opacity="1" stroke="none" fill-rule="nonzero" stroke-opacity="1" stroke-miterlimit="4" stroke-linejoin="round" stroke-dasharray="none" stroke-linecap="round" d="M60.494,55.96L61.746,55.96C62.849,55.96,63.916,56.364,64.744,57.095C65.572,57.827,66.105,58.835,66.242,59.932L67.633,71.049C67.65,71.185,67.638,71.325,67.597,71.457C67.556,71.589,67.488,71.711,67.397,71.814C67.305,71.918,67.193,72.001,67.067,72.057C66.94,72.115,66.804,72.144,66.665,72.144L18.739,72.144C18.599,72.144,18.463,72.115,18.337,72.058C18.21,72.001,18.098,71.918,18.006,71.814C17.915,71.711,17.846,71.589,17.806,71.457C17.765,71.325,17.753,71.185,17.77,71.048L19.158,59.931C19.295,58.835,19.828,57.826,20.657,57.094C21.485,56.363,22.553,55.96,23.658,55.96L24.909,55.96C28.301,55.96,31.051,53.21,31.051,49.818C31.051,46.426,28.301,43.676,24.909,43.676L23.66,43.676C19.562,43.675,15.603,45.171,12.529,47.884C9.454,50.597,7.477,54.34,6.969,58.408L5.581,69.526C5.348,71.39,5.514,73.285,6.069,75.081C6.624,76.878,7.554,78.535,8.799,79.945C10.043,81.355,11.574,82.483,13.288,83.256C15.001,84.029,16.86,84.428,18.74,84.428L66.664,84.428C68.543,84.428,70.401,84.029,72.116,83.256C73.829,82.483,75.36,81.355,76.604,79.945C77.849,78.535,78.779,76.877,79.334,75.081C79.889,73.284,80.055,71.39,79.822,69.524L78.43,58.407C77.922,54.342,75.947,50.601,72.875,47.888C69.803,45.175,65.846,43.677,61.748,43.676L60.494,43.676C57.102,43.676,54.352,46.426,54.352,49.818C54.352,53.21,57.102,55.96,60.494,55.96Z"/>
</g>
  <g id="Semibold-S" transform="matrix(1.0,0.0,0.0,1.0,2001.848645964348,613.7985300920327)">  <path fill-rule="nonzero" stroke="none" fill="#000000" stroke-dasharray="none" stroke-linejoin="round" stroke-opacity="1" fill-opacity="1" stroke-miterlimit="4" stroke-linecap="round" stroke-width="3px" d="M42.701,47.982C55.444,47.982,65.774,37.652,65.774,24.909C65.774,12.166,55.444,1.836,42.701,1.836C29.959,1.836,19.628,12.166,19.628,24.909C19.628,37.652,29.959,47.982,42.701,47.982ZM42.701,37.421C35.792,37.421,30.19,31.819,30.19,24.909C30.19,17.999,35.791,12.398,42.701,12.398C49.611,12.398,55.213,17.999,55.213,24.909C55.213,31.819,49.611,37.421,42.701,37.421Z"/>
  <path stroke-miterlimit="4" stroke-linejoin="round" fill-rule="nonzero" stroke="none" fill-opacity="1" stroke-width="3px" stroke-opacity="1" stroke-dasharray="none" stroke-linecap="round" fill="#000000" d="M60.494,55.099L61.746,55.099C63.059,55.099,64.329,55.58,65.314,56.45C66.299,57.32,66.933,58.52,67.096,59.825L68.488,70.942C68.52,71.2,68.497,71.462,68.42,71.711C68.343,71.96,68.214,72.189,68.042,72.384C67.87,72.579,67.658,72.736,67.421,72.842C67.183,72.95,66.926,73.005,66.665,73.005L18.739,73.005C18.477,73.005,18.22,72.95,17.983,72.843C17.745,72.736,17.533,72.579,17.361,72.384C17.189,72.189,17.06,71.96,16.983,71.711C16.906,71.462,16.883,71.2,16.915,70.941L18.303,59.824C18.466,58.52,19.1,57.319,20.087,56.449C21.073,55.579,22.343,55.098,23.658,55.099L24.909,55.099C27.826,55.099,30.19,52.735,30.19,49.818C30.19,46.902,27.826,44.538,24.909,44.538L23.66,44.538C19.772,44.536,16.015,45.956,13.099,48.53C10.181,51.104,8.305,54.655,7.823,58.515L6.435,69.632C6.217,71.376,6.373,73.147,6.892,74.827C7.41,76.507,8.28,78.057,9.444,79.375C10.608,80.693,12.039,81.749,13.642,82.471C15.244,83.193,16.982,83.567,18.74,83.567L66.664,83.567C68.421,83.567,70.159,83.193,71.762,82.471C73.364,81.748,74.795,80.693,75.959,79.375C77.123,78.057,77.993,76.507,78.511,74.827C79.03,73.147,79.186,71.375,78.967,69.631L77.576,58.514C77.094,54.657,75.22,51.107,72.305,48.533C69.39,45.959,65.636,44.539,61.748,44.538L60.494,44.538C57.577,44.538,55.213,46.902,55.213,49.818C55.213,52.735,57.577,55.099,60.494,55.099Z"/>
</g>
  <g id="Medium-S" transform="matrix(1.0,0.0,0.0,1.0,1705.138645964348,613.7985300920327)">  <path fill-rule="nonzero" fill-opacity="1" fill="#000000" stroke="none" stroke-linecap="round" stroke-opacity="1" stroke-miterlimit="4" stroke-dasharray="none" stroke-linejoin="round" stroke-width="3px" d="M42.701,47.121C54.969,47.121,64.913,37.176,64.913,24.909C64.913,12.642,54.969,2.697,42.701,2.697C30.434,2.697,20.49,12.642,20.49,24.909C20.49,37.176,30.434,47.121,42.701,47.121ZM42.701,38.282C35.316,38.282,29.329,32.295,29.329,24.909C29.329,17.524,35.316,11.536,42.701,11.536C50.087,11.536,56.074,17.524,56.074,24.909C56.074,32.295,50.087,38.282,42.701,38.282Z"/>
  <path fill="#000000" stroke-width="3px" fill-opacity="1" stroke-linecap="round" stroke="none" stroke-opacity="1" fill-rule="nonzero" stroke-miterlimit="4" stroke-linejoin="round" stroke-dasharray="none" d="M60.494,54.238L61.746,54.238C63.269,54.238,64.741,54.795,65.884,55.804C67.027,56.813,67.762,58.205,67.951,59.718L69.342,70.835C69.389,71.214,69.356,71.599,69.243,71.965C69.13,72.331,68.941,72.668,68.688,72.954C68.434,73.241,68.123,73.471,67.775,73.627C67.425,73.785,67.047,73.866,66.665,73.866L18.739,73.866C18.355,73.866,17.977,73.785,17.629,73.628C17.28,73.471,16.969,73.241,16.715,72.954C16.462,72.668,16.273,72.33,16.16,71.965C16.047,71.599,16.013,71.214,16.061,70.834L17.449,59.717C17.638,58.204,18.373,56.812,19.517,55.803C20.66,54.794,22.133,54.237,23.659,54.238L24.909,54.238C27.35,54.238,29.329,52.259,29.329,49.818C29.329,47.377,27.35,45.399,24.909,45.399L23.66,45.399C19.982,45.397,16.428,46.74,13.668,49.175C10.909,51.611,9.134,54.97,8.678,58.622L7.29,69.739C7.087,71.362,7.232,73.01,7.714,74.573C8.197,76.136,9.007,77.579,10.09,78.805C11.173,80.031,12.504,81.014,13.996,81.686C15.486,82.358,17.104,82.706,18.74,82.705L66.664,82.705C68.299,82.706,69.916,82.358,71.408,81.686C72.899,81.014,74.23,80.031,75.313,78.805C76.396,77.579,77.206,76.136,77.688,74.573C78.171,73.009,78.316,71.361,78.113,69.738L76.721,58.621C76.265,54.972,74.492,51.614,71.735,49.179C68.978,46.744,65.426,45.4,61.747,45.399L60.494,45.399C58.053,45.399,56.074,47.377,56.074,49.818C56.074,52.259,58.053,54.238,60.494,54.238Z"/>
</g>
  <g id="Regular-S" transform="matrix(1.0,0.0,0.0,1.0,1408.4286459643479,613.7985300920327)">  <path fill-rule="nonzero" stroke-miterlimit="4" stroke-opacity="1" stroke-dasharray="none" stroke="none" stroke-width="3px" fill="#000000" stroke-linecap="round" fill-opacity="1" stroke-linejoin="round" d="M42.701,46.26C54.493,46.26,64.052,36.701,64.052,24.909C64.052,13.117,54.493,3.558,42.701,3.558C30.91,3.558,21.351,13.117,21.351,24.909C21.351,36.701,30.91,46.26,42.701,46.26ZM42.701,39.143C34.84,39.143,28.468,32.77,28.468,24.909C28.468,17.048,34.84,10.675,42.701,10.675C50.562,10.675,56.935,17.048,56.935,24.909C56.935,32.77,50.562,39.143,42.701,39.143Z"/>
  <path stroke="none" fill="#000000" fill-opacity="1" stroke-linecap="round" stroke-opacity="1" stroke-miterlimit="4" stroke-dasharray="none" stroke-linejoin="round" stroke-width="3px" fill-rule="nonzero" d="M60.494,53.377L61.746,53.377C63.48,53.377,65.154,54.011,66.454,55.159C67.754,56.307,68.59,57.89,68.805,59.611L70.197,70.728C70.259,71.228,70.214,71.737,70.065,72.219C69.917,72.701,69.667,73.146,69.333,73.524C68.999,73.903,68.588,74.205,68.129,74.413C67.668,74.62,67.169,74.727,66.665,74.727L18.739,74.727C18.233,74.727,17.735,74.62,17.275,74.413C16.814,74.205,16.404,73.903,16.07,73.524C15.736,73.146,15.486,72.701,15.337,72.219C15.188,71.737,15.144,71.228,15.206,70.728L16.594,59.611C16.809,57.889,17.646,56.306,18.947,55.157C20.248,54.009,21.924,53.376,23.659,53.377L24.909,53.377C26.874,53.377,28.468,51.784,28.468,49.818C28.468,47.853,26.874,46.26,24.909,46.26L23.66,46.26C20.191,46.259,16.84,47.525,14.238,49.821C11.636,52.118,9.962,55.285,9.532,58.729L8.144,69.846C7.957,71.347,8.091,72.872,8.537,74.319C8.984,75.765,9.733,77.1,10.735,78.235C11.737,79.37,12.969,80.279,14.35,80.901C15.729,81.523,17.226,81.845,18.74,81.844L66.664,81.844C68.177,81.845,69.674,81.523,71.054,80.901C72.433,80.279,73.666,79.37,74.668,78.235C75.67,77.1,76.419,75.765,76.866,74.319C77.312,72.872,77.446,71.347,77.258,69.845L75.867,58.728C75.437,55.287,73.765,52.12,71.165,49.824C68.565,47.528,65.216,46.261,61.747,46.26L60.494,46.26C58.528,46.26,56.935,47.853,56.935,49.818C56.935,51.784,58.528,53.377,60.494,53.377Z"/>
</g>
  <g id="Light-S" transform="matrix(1.0,0.0,0.0,1.0,1111.718645964348,613.7985300920327)">  <path stroke-linecap="round" stroke="none" fill-rule="nonzero" stroke-opacity="1" stroke-dasharray="none" stroke-linejoin="round" fill-opacity="1" stroke-miterlimit="4" fill="#000000" stroke-width="3px" d="M42.701,45.667C54.165,45.667,63.459,36.373,63.459,24.909C63.459,13.445,54.165,4.152,42.701,4.152C31.237,4.152,21.944,13.445,21.944,24.909C21.944,36.373,31.237,45.667,42.701,45.667ZM42.701,39.736C34.513,39.736,27.874,33.098,27.874,24.909C27.874,16.72,34.513,10.082,42.701,10.082C50.89,10.082,57.528,16.721,57.528,24.909C57.528,33.098,50.89,39.736,42.701,39.736Z"/>
  <path stroke-linecap="round" fill-rule="nonzero" stroke-opacity="1" fill-opacity="1" stroke-width="3px" fill="#000000" stroke="none" stroke-dasharray="none" stroke-miterlimit="4" stroke-linejoin="round" d="M60.494,52.784L61.746,52.784C63.624,52.784,65.438,53.471,66.847,54.714C68.255,55.958,69.161,57.673,69.394,59.538L70.785,70.655C70.858,71.238,70.806,71.831,70.632,72.394C70.458,72.957,70.167,73.476,69.778,73.917C69.388,74.358,68.909,74.712,68.373,74.953C67.835,75.196,67.253,75.321,66.665,75.32L18.739,75.32C18.15,75.321,17.568,75.195,17.031,74.953C16.494,74.712,16.015,74.358,15.625,73.917C15.236,73.475,14.944,72.956,14.771,72.394C14.597,71.831,14.545,71.238,14.618,70.654L16.006,59.537C16.239,57.672,17.145,55.957,18.555,54.713C19.964,53.469,21.779,52.783,23.659,52.784L24.909,52.784C26.547,52.784,27.874,51.456,27.874,49.818C27.874,48.181,26.547,46.853,24.909,46.853L23.66,46.853C20.336,46.852,17.124,48.065,14.63,50.266C12.137,52.467,10.533,55.502,10.121,58.802L8.733,69.919C8.556,71.337,8.682,72.778,9.104,74.144C9.526,75.51,10.233,76.771,11.18,77.842C12.126,78.914,13.29,79.773,14.593,80.36C15.896,80.948,17.31,81.252,18.74,81.251L66.664,81.251C68.093,81.252,69.506,80.948,70.81,80.36C72.113,79.773,73.277,78.914,74.223,77.842C75.17,76.771,75.877,75.51,76.299,74.144C76.721,72.777,76.847,71.337,76.67,69.918L75.279,58.802C74.866,55.504,73.264,52.469,70.772,50.269C68.281,48.068,65.071,46.854,61.747,46.853L60.494,46.853C58.856,46.853,57.528,48.181,57.528,49.818C57.528,51.456,58.856,52.784,60.494,52.784Z"/>
</g>
  <g id="Thin-S" transform="matrix(1.0,0.0,0.0,1.0,815.0086459643479,613.7985300920327)">  <path stroke-width="3px" stroke-linecap="round" fill-rule="nonzero" stroke-miterlimit="4" fill="#000000" fill-opacity="1" stroke-dasharray="none" stroke-linejoin="round" stroke-opacity="1" stroke="none" d="M42.701,45.074C53.838,45.074,62.866,36.046,62.866,24.909C62.866,13.773,53.838,4.745,42.701,4.745C31.565,4.745,22.537,13.773,22.537,24.909C22.537,36.046,31.565,45.074,42.701,45.074ZM42.701,40.329C34.185,40.329,27.281,33.425,27.281,24.909C27.281,16.393,34.185,9.489,42.701,9.489C51.217,9.489,58.121,16.393,58.121,24.909C58.121,33.425,51.217,40.329,42.701,40.329Z"/>
  <path stroke-miterlimit="4" stroke="none" fill-rule="nonzero" stroke-linecap="round" stroke-dasharray="none" fill="#000000" fill-opacity="1" stroke-opacity="1" stroke-width="3px" stroke-linejoin="round" d="M60.494,52.191L61.746,52.191C63.769,52.191,65.723,52.93,67.239,54.27C68.756,55.609,69.731,57.456,69.982,59.464L71.374,70.581C71.457,71.248,71.397,71.926,71.199,72.569C71,73.212,70.667,73.805,70.222,74.309C69.777,74.814,69.229,75.218,68.616,75.494C68.002,75.771,67.337,75.914,66.664,75.914L18.739,75.914C18.066,75.914,17.4,75.771,16.787,75.494C16.174,75.218,15.626,74.814,15.181,74.309C14.735,73.805,14.402,73.212,14.204,72.569C14.005,71.926,13.946,71.248,14.029,70.581L15.417,59.464C15.668,57.455,16.644,55.608,18.162,54.268C19.68,52.929,21.635,52.19,23.659,52.191L24.909,52.191C26.219,52.191,27.281,51.128,27.281,49.818C27.281,48.508,26.219,47.446,24.909,47.446L23.66,47.446C20.48,47.445,17.408,48.606,15.023,50.71C12.638,52.816,11.104,55.719,10.709,58.876L9.321,69.993C9.154,71.327,9.274,72.683,9.671,73.969C10.068,75.255,10.734,76.441,11.624,77.45C12.515,78.459,13.61,79.267,14.837,79.819C16.063,80.372,17.394,80.658,18.739,80.658L66.664,80.658C68.009,80.658,69.339,80.373,70.566,79.819C71.793,79.267,72.888,78.459,73.779,77.45C74.669,76.441,75.335,75.255,75.732,73.969C76.129,72.683,76.248,71.327,76.081,69.992L74.69,58.875C74.296,55.72,72.763,52.818,70.38,50.713C67.996,48.609,64.926,47.447,61.747,47.446L60.494,47.446C59.183,47.446,58.121,48.508,58.121,49.818C58.121,51.128,59.183,52.191,60.494,52.191Z"/>
</g>
  <g id="Ultralight-S" transform="matrix(1.0,0.0,0.0,1.0,518.2986459643479,613.7985300920327)">  <path fill-opacity="1" stroke-linejoin="round" stroke-opacity="1" stroke-miterlimit="4" stroke="none" fill="#000000" stroke-linecap="round" stroke-dasharray="none" fill-rule="nonzero" stroke-width="3px" d="M42.701,44.481C53.51,44.481,62.273,35.718,62.273,24.909C62.273,14.1,53.51,5.338,42.701,5.338C31.892,5.338,23.13,14.1,23.13,24.909C23.13,35.718,31.892,44.481,42.701,44.481ZM42.701,40.922C33.858,40.922,26.688,33.753,26.688,24.909C26.688,16.065,33.858,8.896,42.701,8.896C51.545,8.896,58.714,16.065,58.714,24.909C58.714,33.753,51.545,40.922,42.701,40.922Z"/>
  <path stroke-width="3px" fill="#000000" stroke-opacity="1" stroke-miterlimit="4" fill-rule="nonzero" fill-opacity="1" stroke-dasharray="none" stroke="none" stroke-linejoin="round" stroke-linecap="round" d="M60.494,51.597L61.746,51.597C63.914,51.598,66.007,52.39,67.632,53.825C69.257,55.26,70.302,57.239,70.571,59.39L71.962,70.507C72.056,71.258,71.989,72.02,71.765,72.744C71.542,73.467,71.168,74.135,70.667,74.702C70.166,75.269,69.55,75.724,68.86,76.035C68.169,76.346,67.421,76.507,66.664,76.507L18.739,76.507C17.982,76.507,17.233,76.346,16.543,76.035C15.853,75.724,15.237,75.269,14.736,74.702C14.235,74.134,13.861,73.467,13.637,72.744C13.414,72.021,13.347,71.258,13.441,70.507L14.829,59.39C15.098,57.238,16.143,55.259,17.77,53.823C19.396,52.388,21.491,51.597,23.66,51.597L24.909,51.597C25.892,51.597,26.688,50.801,26.688,49.818C26.688,48.836,25.892,48.039,24.909,48.039L23.66,48.039C20.624,48.038,17.692,49.146,15.415,51.155C13.138,53.165,11.674,55.936,11.298,58.949L9.91,70.066C9.753,71.318,9.865,72.588,10.237,73.794C10.609,74.999,11.234,76.112,12.069,77.057C12.904,78.003,13.931,78.76,15.081,79.279C16.23,79.797,17.478,80.065,18.739,80.065L66.664,80.065C67.925,80.065,69.172,79.797,70.322,79.279C71.472,78.76,72.499,78.003,73.334,77.057C74.169,76.112,74.793,74.999,75.166,73.794C75.538,72.588,75.649,71.317,75.493,70.066L74.102,58.949C73.725,55.937,72.262,53.167,69.987,51.158C67.712,49.149,64.782,48.04,61.747,48.039L60.494,48.039C59.511,48.039,58.714,48.836,58.714,49.818C58.714,50.801,59.511,51.597,60.494,51.597Z"/>
</g>
 </g>
</svg>
