<svg width="386" height="312" viewBox="0 0 386 312" fill="none" xmlns="http://www.w3.org/2000/svg">
<path d="M361.764 250.856C368.079 257.947 372.004 266.851 372.981 276.304C373.228 278.335 373.153 280.393 372.76 282.401C372.314 284.344 371.357 286.133 369.988 287.581C368.739 288.956 367.302 290.218 366.408 291.874C365.963 292.728 365.704 293.667 365.646 294.629C365.589 295.591 365.735 296.555 366.075 297.456C366.864 299.725 368.42 301.574 370.004 303.329C371.762 305.277 373.62 307.273 374.367 309.857C374.458 310.17 374.937 310.011 374.847 309.698C373.546 305.203 369.192 302.65 367.115 298.602C366.147 296.713 365.74 294.52 366.648 292.526C367.443 290.782 368.923 289.479 370.2 288.098C371.556 286.705 372.551 285.001 373.099 283.134C373.592 281.153 373.746 279.101 373.553 277.068C373.191 272.484 372.112 267.985 370.356 263.737C368.378 258.877 365.585 254.393 362.098 250.477C361.882 250.234 361.55 250.615 361.764 250.856Z" fill="white"/>
<path d="M372.845 273.241C374.406 272.862 375.781 271.939 376.725 270.637C377.669 269.335 378.12 267.74 377.998 266.135C377.973 265.81 377.468 265.835 377.494 266.16C377.61 267.654 377.189 269.14 376.308 270.351C375.426 271.561 374.142 272.416 372.687 272.761C372.371 272.836 372.531 273.316 372.845 273.241Z" fill="white"/>
<path d="M367.909 259.357C367.336 259.63 366.704 259.756 366.07 259.724C365.437 259.691 364.821 259.502 364.278 259.172C364 259.002 363.775 259.455 364.051 259.624C364.652 259.986 365.333 260.194 366.033 260.231C366.733 260.268 367.432 260.133 368.068 259.837C368.13 259.815 368.181 259.769 368.211 259.709C368.241 259.65 368.247 259.582 368.228 259.518C368.207 259.454 368.162 259.402 368.102 259.372C368.042 259.341 367.973 259.336 367.909 259.357Z" fill="white"/>
<path d="M328.86 271.229C338.162 273.081 346.646 277.822 353.106 284.78C354.523 286.254 355.7 287.941 356.592 289.782C357.404 291.603 357.715 293.608 357.491 295.59C357.32 297.442 356.931 299.316 357.212 301.178C357.37 302.129 357.727 303.035 358.259 303.838C358.792 304.641 359.487 305.322 360.3 305.836C362.293 307.171 364.646 307.709 366.965 308.155C369.54 308.65 372.222 309.123 374.371 310.735C374.632 310.93 374.919 310.514 374.659 310.319C370.92 307.514 365.91 308.103 361.819 306.123C359.911 305.2 358.268 303.694 357.796 301.554C357.382 299.682 357.782 297.749 357.971 295.875C358.217 293.945 357.988 291.984 357.303 290.163C356.507 288.283 355.397 286.553 354.021 285.046C350.978 281.604 347.414 278.663 343.459 276.331C338.96 273.644 334.036 271.748 328.899 270.725C328.581 270.662 328.544 271.167 328.86 271.229Z" fill="white"/>
<path d="M351.157 282.417C352.175 281.173 352.718 279.606 352.69 277.997C352.662 276.388 352.063 274.842 351.002 273.634C350.787 273.391 350.399 273.715 350.615 273.959C351.605 275.081 352.162 276.522 352.185 278.02C352.209 279.518 351.697 280.976 350.742 282.129C350.535 282.38 350.951 282.667 351.157 282.417H351.157Z" fill="white"/>
<path d="M357.702 294.662C354.438 295.016 351.161 294.125 348.525 292.165C348.264 291.971 347.977 292.387 348.237 292.581C350.985 294.615 354.397 295.536 357.792 295.16C358.115 295.124 358.023 294.626 357.702 294.662V294.662Z" fill="white"/>
<path d="M338.874 274.309C338.581 274.873 338.152 275.355 337.626 275.711C337.101 276.068 336.495 276.288 335.864 276.353C335.54 276.385 335.632 276.882 335.954 276.851C336.651 276.776 337.32 276.532 337.901 276.139C338.483 275.747 338.959 275.217 339.289 274.597C339.325 274.542 339.339 274.474 339.327 274.409C339.315 274.343 339.279 274.285 339.226 274.245C339.17 274.207 339.103 274.193 339.037 274.205C338.971 274.217 338.913 274.254 338.874 274.309Z" fill="white"/>
<path d="M195.967 73.8647H194.262V27.0786C194.262 23.5226 193.563 20.0014 192.205 16.7161C190.847 13.4307 188.857 10.4456 186.348 7.93114C183.839 5.41666 180.86 3.42206 177.581 2.06124C174.303 0.700411 170.789 2.80442e-06 167.24 0H68.3248C61.1581 -1.81235e-05 54.285 2.85287 49.2174 7.93107C44.1498 13.0093 41.3028 19.8968 41.3028 27.0784V283.751C41.3028 290.933 44.1497 297.82 49.2173 302.898C54.2849 307.977 61.158 310.829 68.3247 310.829H167.24C174.407 310.829 181.28 307.977 186.348 302.898C191.415 297.82 194.262 290.933 194.262 283.751V107.168H195.967L195.967 73.8647Z" fill="#3F3D56"/>
<path d="M168.331 7.0449H155.419C156.013 8.5037 156.239 10.0864 156.079 11.6537C155.918 13.221 155.376 14.7246 154.499 16.0323C153.622 17.3399 152.438 18.4113 151.05 19.1522C149.663 19.8931 148.115 20.2806 146.542 20.2808H89.8749C88.3027 20.2806 86.7546 19.8931 85.3671 19.1522C83.9796 18.4113 82.7952 17.3399 81.9183 16.0323C81.0413 14.7246 80.4987 13.221 80.3383 11.6537C80.1779 10.0864 80.4045 8.50369 80.9983 7.04488H68.9387C66.2887 7.04488 63.6646 7.56794 61.2163 8.58418C58.768 9.60042 56.5434 11.09 54.6695 12.9677C52.7957 14.8455 51.3092 17.0748 50.2951 19.5282C49.281 21.9816 48.759 24.6112 48.759 27.2668V283.563C48.759 286.218 49.281 288.848 50.2951 291.301C51.3092 293.755 52.7956 295.984 54.6695 297.862C56.5433 299.739 58.7679 301.229 61.2162 302.245C63.6646 303.261 66.2886 303.785 68.9387 303.785H168.331C170.981 303.785 173.605 303.261 176.053 302.245C178.501 301.229 180.726 299.739 182.6 297.862C184.474 295.984 185.96 293.755 186.974 291.301C187.988 288.848 188.51 286.218 188.51 283.563V27.2668C188.51 24.6112 187.988 21.9817 186.974 19.5282C185.96 17.0748 184.474 14.8455 182.6 12.9678C180.726 11.09 178.501 9.60044 176.053 8.5842C173.605 7.56795 170.981 7.0449 168.331 7.0449Z" fill="white"/>
<path d="M132.453 75.8964H97.2234V79.1748H132.453V75.8964Z" fill="#6C63FF"/>
<path d="M158.626 87.2376H97.2234V90.516H158.626V87.2376Z" fill="#E6E6E6"/>
<path d="M158.566 98.5787H97.2234V101.857H158.566V98.5787Z" fill="#E6E6E6"/>
<path d="M89.9224 75.9451H63.7497V102.173H89.9224V75.9451Z" fill="#6C63FF"/>
<path d="M132.453 144.744H97.2234V148.022H132.453V144.744Z" fill="#6C63FF"/>
<path d="M158.626 156.085H97.2234V159.363H158.626V156.085Z" fill="#E6E6E6"/>
<path d="M158.566 167.426H97.2234V170.704H158.566V167.426Z" fill="#E6E6E6"/>
<path d="M89.9224 144.792H63.7497V171.02H89.9224V144.792Z" fill="#6C63FF"/>
<path d="M132.453 213.591H97.2234V216.869H132.453V213.591Z" fill="#6C63FF"/>
<path d="M158.626 224.932H97.2234V228.211H158.626V224.932Z" fill="#E6E6E6"/>
<path d="M158.566 236.273H97.2234V239.552H158.566V236.273Z" fill="#E6E6E6"/>
<path d="M89.9224 213.64H63.7497V239.867H89.9224V213.64Z" fill="#6C63FF"/>
<path d="M309.222 305.759L304.005 306.046L300.414 286.017L308.114 285.593L309.222 305.759Z" fill="#FFB6B6"/>
<path d="M310.831 310.753L294.009 311.681L293.997 311.468C293.901 309.728 294.5 308.021 295.66 306.722C296.82 305.424 298.448 304.641 300.184 304.545L300.185 304.545L310.459 303.978L310.831 310.753Z" fill="#2F2E41"/>
<path d="M199.839 225.204L199.164 220.012L218.828 214.932L219.825 222.594L199.839 225.204Z" fill="#FFB6B6"/>
<path d="M194.989 227.184L192.812 210.443L193.024 210.415C194.748 210.19 196.491 210.66 197.87 211.723C199.248 212.786 200.149 214.354 200.374 216.082L200.374 216.082L201.704 226.308L194.989 227.184Z" fill="#2F2E41"/>
<path d="M265.795 192.389C266.023 192.45 266.246 192.529 266.461 192.626L284.342 181.331L284.151 176.189L291.857 174.886L293.079 183.956C293.177 184.688 293.036 185.433 292.676 186.079C292.316 186.724 291.757 187.235 291.083 187.535L269.104 197.312C268.986 198.214 268.596 199.06 267.987 199.735C267.377 200.41 266.577 200.884 265.693 201.092C264.808 201.301 263.882 201.234 263.036 200.902C262.19 200.57 261.465 199.988 260.957 199.233C260.45 198.477 260.184 197.585 260.195 196.675C260.205 195.765 260.492 194.879 261.018 194.136C261.543 193.393 262.281 192.828 263.135 192.516C263.988 192.204 264.916 192.16 265.795 192.389Z" fill="#FFB6B6"/>
<path d="M283.526 180.615C283.312 180.44 283.139 180.221 283.018 179.972C282.897 179.724 282.831 179.453 282.825 179.177L282.586 169.534C282.345 168.142 282.664 166.711 283.474 165.554C284.284 164.398 285.519 163.61 286.907 163.364C288.295 163.118 289.724 163.434 290.881 164.242C292.037 165.05 292.827 166.285 293.076 167.675L296.106 176.864C296.193 177.126 296.222 177.404 296.192 177.678C296.161 177.953 296.072 178.218 295.93 178.455C295.789 178.692 295.598 178.895 295.371 179.051C295.143 179.208 294.885 179.313 294.614 179.36L285.07 181.022C284.799 181.07 284.52 181.058 284.253 180.987C283.987 180.917 283.739 180.79 283.526 180.615Z" fill="#E4E4E4"/>
<path d="M298.392 153.964C305.559 153.964 311.37 148.141 311.37 140.959C311.37 133.777 305.559 127.954 298.392 127.954C291.225 127.954 285.415 133.777 285.415 140.959C285.415 148.141 291.225 153.964 298.392 153.964Z" fill="#2F2E41"/>
<path d="M302.932 132.653C305.898 132.653 308.302 130.244 308.302 127.272C308.302 124.3 305.898 121.89 302.932 121.89C299.966 121.89 297.562 124.3 297.562 127.272C297.562 130.244 299.966 132.653 302.932 132.653Z" fill="#2F2E41"/>
<path d="M310.092 124.357C310.092 123.027 309.6 121.744 308.712 120.755C307.824 119.767 306.601 119.143 305.281 119.005C305.467 118.985 305.654 118.976 305.841 118.976C307.265 118.976 308.631 119.543 309.638 120.552C310.645 121.561 311.211 122.93 311.211 124.357C311.211 125.784 310.645 127.153 309.638 128.162C308.631 129.171 307.265 129.738 305.841 129.738C305.654 129.738 305.467 129.728 305.281 129.709C306.601 129.57 307.824 128.947 308.712 127.958C309.6 126.97 310.092 125.687 310.092 124.357Z" fill="#2F2E41"/>
<path d="M298.386 155.099C302.919 155.099 306.593 151.417 306.593 146.876C306.593 142.334 302.919 138.653 298.386 138.653C293.854 138.653 290.18 142.334 290.18 146.876C290.18 151.417 293.854 155.099 298.386 155.099Z" fill="#FFB8B8"/>
<path d="M312.046 203.62C312.046 203.62 311.655 213.41 310.092 218.5C308.529 223.591 311.265 295.642 309.897 297.404C308.529 299.166 302.082 298.579 302.082 298.579L296.1 261.041C296.1 261.041 295.048 221.241 280.589 220.262C266.131 219.283 209.666 224.766 209.666 224.766L208.493 216.738L238.778 210.081C238.778 210.081 266.522 200.487 281.762 203.033C297.002 205.578 312.046 203.62 312.046 203.62Z" fill="#2F2E41"/>
<path d="M310.288 156.238C311.851 155.064 315.758 156.63 315.758 156.63L320.057 169.356C320.057 169.356 317.908 180.321 315.954 186.39C314 192.46 310.236 219.292 311.018 220.467C311.799 221.641 298.369 212.039 290.359 209.102C282.348 206.165 280.589 202.837 280.589 202.837C280.589 202.837 289.382 190.306 286.451 184.432C283.52 178.559 285.865 171.902 285.865 171.902L284.693 165.245L291.336 161.525C291.336 161.525 308.725 157.413 310.288 156.238Z" fill="#E4E4E4"/>
<path d="M296.882 143.583C301.825 143.583 305.833 141.174 305.833 138.202C305.833 135.23 301.825 132.82 296.882 132.82C291.939 132.82 287.932 135.23 287.932 138.202C287.932 141.174 291.939 143.583 296.882 143.583Z" fill="#2F2E41"/>
<path d="M348.314 159.663C348.217 159.878 348.136 160.101 348.074 160.329L328.024 167.033L324.176 163.626L318.286 168.774L324.514 175.468C325.017 176.009 325.682 176.372 326.408 176.502C327.134 176.632 327.883 176.522 328.542 176.19L350.017 165.347C350.789 165.827 351.688 166.061 352.596 166.016C353.503 165.972 354.376 165.652 355.097 165.098C355.818 164.545 356.355 163.784 356.634 162.918C356.914 162.052 356.924 161.121 356.662 160.249C356.401 159.377 355.881 158.605 355.171 158.037C354.462 157.468 353.596 157.13 352.69 157.066C351.784 157.002 350.88 157.217 350.098 157.681C349.316 158.145 348.694 158.836 348.314 159.663V159.663Z" fill="#FFB6B6"/>
<path d="M327.324 167.401L319.994 173.746C319.785 173.927 319.54 174.06 319.276 174.137C319.011 174.214 318.733 174.233 318.46 174.193C318.187 174.153 317.927 174.054 317.695 173.903C317.464 173.753 317.268 173.554 317.121 173.321L311.947 165.149C311.031 164.075 310.578 162.68 310.687 161.271C310.796 159.862 311.458 158.554 312.528 157.633C313.598 156.713 314.988 156.255 316.395 156.36C317.801 156.466 319.108 157.126 320.03 158.195L327.323 164.491C327.532 164.671 327.699 164.894 327.814 165.146C327.929 165.397 327.988 165.669 327.989 165.946C327.989 166.222 327.93 166.495 327.815 166.746C327.7 166.997 327.533 167.221 327.324 167.401L327.324 167.401Z" fill="#E4E4E4"/>
</svg>
