<?xml version="1.0" encoding="UTF-8"?>
<!-- Generator: CustomSymbols v2.6.2.41 by @serious_bret https://bretlester.com/app_content/CustomSymbols/ -->
<!-- Guides: Left/Right 0.0/0.0 Cap/Base 0.227/0.127 -->
<!-- Settings: RefScale 1.0 Min/Max Stroke Scales 0.5/2.21 -->
<!DOCTYPE svg
PUBLIC "-//W3C//DTD SVG 1.1//EN"
       "http://www.w3.org/Graphics/SVG/1.1/DTD/svg11.dtd">
<svg version="1.1" xmlns="http://www.w3.org/2000/svg" xmlns:xlink="http://www.w3.org/1999/xlink" width="3300" height="2200">
<![CDATA[<svg width="30" height="31" viewBox="0 0 30 31" fill="none" xmlns="http://www.w3.org/2000/svg">
<path d="M28.5 26.5V16.4005C28.5 15.5867 28.3344 14.7813 28.0134 14.0335C27.6923 13.2857 27.2225 12.611 26.6325 12.0505L17.067 2.96499C16.5095 2.43532 15.7698 2.13998 15.0007 2.13998C14.2317 2.13998 13.492 2.43532 12.9345 2.96499L3.3675 12.0505C2.77748 12.611 2.30765 13.2857 1.98661 14.0335C1.66556 14.7813 1.5 15.5867 1.5 16.4005V26.5C1.5 27.2956 1.81607 28.0587 2.37868 28.6213C2.94129 29.1839 3.70435 29.5 4.5 29.5H25.5C26.2956 29.5 27.0587 29.1839 27.6213 28.6213C28.1839 28.0587 28.5 27.2956 28.5 26.5Z" stroke="#B5B5B5" stroke-width="3" stroke-linecap="round" stroke-linejoin="round"/>
</svg>
]]>
 <g id="Notes">
  <rect height="2200" id="artboard" style="fill:white;opacity:1" width="3300" x="0" y="0"/>
  <line id="" style="fill:none;stroke:black;opacity:1;stroke-width:0.5;" x1="263" x2="3036" y1="292" y2="292"/>
  <text id="reftext1" style="stroke:none;fill:black;font-family:-apple-system,&quot;SF Pro Display&quot;,&quot;SF Pro Text&quot;,Helvetica,sans-serif;font-weight:bold;" transform="matrix(1 0 0 1 263 322)">Weight/Scale Variations</text>
  <text id="reftext2" style="stroke:none;fill:black;font-family:-apple-system,&quot;SF Pro Display&quot;,&quot;SF Pro Text&quot;,Helvetica,sans-serif;text-anchor:middle;" transform="matrix(1 0 0 1 559.711 322)">Ultralight</text>
  <text style="stroke:none;fill:black;font-family:-apple-system,&quot;SF Pro Display&quot;,&quot;SF Pro Text&quot;,Helvetica,sans-serif;text-anchor:middle;" transform="matrix(1 0 0 1 856.422 322)">Thin</text>
  <text style="stroke:none;fill:black;font-family:-apple-system,&quot;SF Pro Display&quot;,&quot;SF Pro Text&quot;,Helvetica,sans-serif;text-anchor:middle;" transform="matrix(1 0 0 1 1153.13 322)">Light</text>
  <text style="stroke:none;fill:black;font-family:-apple-system,&quot;SF Pro Display&quot;,&quot;SF Pro Text&quot;,Helvetica,sans-serif;text-anchor:middle;" transform="matrix(1 0 0 1 1449.84 322)">Regular</text>
  <text style="stroke:none;fill:black;font-family:-apple-system,&quot;SF Pro Display&quot;,&quot;SF Pro Text&quot;,Helvetica,sans-serif;text-anchor:middle;" transform="matrix(1 0 0 1 1746.56 322)">Medium</text>
  <text style="stroke:none;fill:black;font-family:-apple-system,&quot;SF Pro Display&quot;,&quot;SF Pro Text&quot;,Helvetica,sans-serif;text-anchor:middle;" transform="matrix(1 0 0 1 2043.27 322)">Semibold</text>
  <text style="stroke:none;fill:black;font-family:-apple-system,&quot;SF Pro Display&quot;,&quot;SF Pro Text&quot;,Helvetica,sans-serif;text-anchor:middle;" transform="matrix(1 0 0 1 2339.98 322)">Bold</text>
  <text style="stroke:none;fill:black;font-family:-apple-system,&quot;SF Pro Display&quot;,&quot;SF Pro Text&quot;,Helvetica,sans-serif;text-anchor:middle;" transform="matrix(1 0 0 1 2636.69 322)">Heavy</text>
  <text style="stroke:none;fill:black;font-family:-apple-system,&quot;SF Pro Display&quot;,&quot;SF Pro Text&quot;,Helvetica,sans-serif;text-anchor:middle;" transform="matrix(1 0 0 1 2933.4 322)">Black</text>
  <line id="" style="fill:none;stroke:black;opacity:1;stroke-width:0.5;" x1="263" x2="3036" y1="1903" y2="1903"/>
  <g id="" transform="matrix(1 0 0 1 263 1933)">
   <path d="M9.24805 0.830078C13.5547 0.830078 17.1387-2.74414 17.1387-7.05078C17.1387-11.3574 13.5449-14.9316 9.23828-14.9316C4.94141-14.9316 1.36719-11.3574 1.36719-7.05078C1.36719-2.74414 4.95117 0.830078 9.24805 0.830078ZM9.24805-0.654297C5.70312-0.654297 2.87109-3.49609 2.87109-7.05078C2.87109-10.6055 5.69336-13.4473 9.23828-13.4473C12.793-13.4473 15.6348-10.6055 15.6445-7.05078C15.6543-3.49609 12.8027-0.654297 9.24805-0.654297ZM6.39648-6.31836L8.50586-6.31836L8.50586-4.19922C8.50586-3.75977 8.79883-3.45703 9.22852-3.45703C9.67773-3.45703 9.9707-3.75977 9.9707-4.19922L9.9707-6.31836L12.0996-6.31836C12.5391-6.31836 12.8418-6.61133 12.8418-7.04102C12.8418-7.48047 12.5391-7.7832 12.0996-7.7832L9.9707-7.7832L9.9707-9.89258C9.9707-10.3418 9.67773-10.6445 9.22852-10.6445C8.79883-10.6445 8.50586-10.3418 8.50586-9.89258L8.50586-7.7832L6.39648-7.7832C5.94727-7.7832 5.64453-7.48047 5.64453-7.04102C5.64453-6.61133 5.94727-6.31836 6.39648-6.31836Z"/>
  </g>
  <g id="" transform="matrix(1 0 0 1 281.506 1933)">
   <path d="M11.709 2.91016C17.1582 2.91016 21.6699-1.61133 21.6699-7.05078C21.6699-12.5 17.1484-17.0117 11.6992-17.0117C6.25977-17.0117 1.74805-12.5 1.74805-7.05078C1.74805-1.61133 6.26953 2.91016 11.709 2.91016ZM11.709 1.25C7.09961 1.25 3.41797-2.44141 3.41797-7.05078C3.41797-11.6602 7.08984-15.3516 11.6992-15.3516C16.3086-15.3516 20-11.6602 20.0098-7.05078C20.0195-2.44141 16.3184 1.25 11.709 1.25ZM7.98828-6.23047L10.8789-6.23047L10.8789-3.32031C10.8789-2.83203 11.2109-2.5 11.6895-2.5C12.1777-2.5 12.5195-2.83203 12.5195-3.32031L12.5195-6.23047L15.4297-6.23047C15.918-6.23047 16.25-6.5625 16.25-7.04102C16.25-7.5293 15.918-7.87109 15.4297-7.87109L12.5195-7.87109L12.5195-10.7617C12.5195-11.2695 12.1777-11.6016 11.6895-11.6016C11.2109-11.6016 10.8789-11.2598 10.8789-10.7617L10.8789-7.87109L7.98828-7.87109C7.48047-7.87109 7.14844-7.5293 7.14844-7.04102C7.14844-6.5625 7.49023-6.23047 7.98828-6.23047Z"/>
  </g>
  <g id="" transform="matrix(1 0 0 1 304.924 1933)">
   <path d="M14.9707 5.66406C21.9336 5.66406 27.6953-0.0976562 27.6953-7.05078C27.6953-14.0137 21.9238-19.7754 14.9609-19.7754C8.00781-19.7754 2.25586-14.0137 2.25586-7.05078C2.25586-0.0976562 8.01758 5.66406 14.9707 5.66406ZM14.9707 3.84766C8.93555 3.84766 4.08203-1.01562 4.08203-7.05078C4.08203-13.0957 8.92578-17.9492 14.9609-17.9492C21.0059-17.9492 25.8594-13.0957 25.8691-7.05078C25.8789-1.01562 21.0156 3.84766 14.9707 3.84766ZM10.0586-6.14258L14.0625-6.14258L14.0625-2.12891C14.0625-1.5918 14.4336-1.2207 14.9512-1.2207C15.4883-1.2207 15.8594-1.5918 15.8594-2.12891L15.8594-6.14258L19.8828-6.14258C20.4102-6.14258 20.791-6.51367 20.791-7.03125C20.791-7.56836 20.4199-7.94922 19.8828-7.94922L15.8594-7.94922L15.8594-11.9531C15.8594-12.5098 15.4883-12.8809 14.9512-12.8809C14.4336-12.8809 14.0625-12.5 14.0625-11.9531L14.0625-7.94922L10.0586-7.94922C9.50195-7.94922 9.13086-7.56836 9.13086-7.03125C9.13086-6.51367 9.51172-6.14258 10.0586-6.14258Z"/>
  </g>
  <text style="stroke:none;fill:black;font-family:-apple-system,&quot;SF Pro Display&quot;,&quot;SF Pro Text&quot;,Helvetica,sans-serif;font-weight:bold;" transform="matrix(1 0 0 1 263 1953)">Design Variations</text>
  <text style="stroke:none;fill:black;font-family:-apple-system,&quot;SF Pro Display&quot;,&quot;SF Pro Text&quot;,Helvetica,sans-serif;" transform="matrix(1 0 0 1 263 1971)">Symbols are supported in up to nine weights and three scales.</text>
  <text style="stroke:none;fill:black;font-family:-apple-system,&quot;SF Pro Display&quot;,&quot;SF Pro Text&quot;,Helvetica,sans-serif;" transform="matrix(1 0 0 1 263 1989)">For optimal layout with text and other symbols, vertically align</text>
  <text style="stroke:none;fill:black;font-family:-apple-system,&quot;SF Pro Display&quot;,&quot;SF Pro Text&quot;,Helvetica,sans-serif;" transform="matrix(1 0 0 1 263 2007)">symbols with the adjacent text.</text>
  <line id="" style="fill:none;stroke:#00AEEF;stroke-width:0.5;opacity:1.0;" x1="776" x2="776" y1="1919" y2="1933"/>
  <g id="" transform="matrix(1 0 0 1 776 1933)">
   <path d="M3.31055 0.126953C3.82812 0.126953 4.08203-0.0683594 4.26758-0.605469L5.52734-4.0625L11.2891-4.0625L12.5488-0.605469C12.7344-0.0683594 12.9883 0.126953 13.4961 0.126953C14.0137 0.126953 14.3457-0.185547 14.3457-0.673828C14.3457-0.839844 14.3164-0.986328 14.2383-1.20117L9.6582-13.3887C9.43359-13.9941 9.0332-14.2871 8.4082-14.2871C7.80273-14.2871 7.39258-13.9941 7.17773-13.3984L2.59766-1.19141C2.51953-0.976562 2.49023-0.830078 2.49023-0.664062C2.49023-0.175781 2.80273 0.126953 3.31055 0.126953ZM6.00586-5.53711L8.37891-12.1094L8.42773-12.1094L10.8008-5.53711Z"/>
  </g>
  <line id="" style="fill:none;stroke:#00AEEF;stroke-width:0.5;opacity:1.0;" x1="792.836" x2="792.836" y1="1919" y2="1933"/>
  <text style="stroke:none;fill:black;font-family:-apple-system,&quot;SF Pro Display&quot;,&quot;SF Pro Text&quot;,Helvetica,sans-serif;font-weight:bold;" transform="matrix(1 0 0 1 776 1953)">Margins</text>
  <text style="stroke:none;fill:black;font-family:-apple-system,&quot;SF Pro Display&quot;,&quot;SF Pro Text&quot;,Helvetica,sans-serif;" transform="matrix(1 0 0 1 776 1971)">Leading and trailing margins on the left and right side of each symbol</text>
  <text style="stroke:none;fill:black;font-family:-apple-system,&quot;SF Pro Display&quot;,&quot;SF Pro Text&quot;,Helvetica,sans-serif;" transform="matrix(1 0 0 1 776 1989)">can be adjusted by modifying the x-location of the margin guidelines.</text>
  <text style="stroke:none;fill:black;font-family:-apple-system,&quot;SF Pro Display&quot;,&quot;SF Pro Text&quot;,Helvetica,sans-serif;" transform="matrix(1 0 0 1 776 2007)">Modifications are automatically applied proportionally to all</text>
  <text style="stroke:none;fill:black;font-family:-apple-system,&quot;SF Pro Display&quot;,&quot;SF Pro Text&quot;,Helvetica,sans-serif;" transform="matrix(1 0 0 1 776 2025)">scales and weights.</text>
  <g id="" transform="matrix(1 0 0 1 1289 1933)">
   <path d="M2.8418 1.86523L4.54102 3.57422C5.40039 4.44336 6.38672 4.38477 7.31445 3.35938L17.4902-7.85156C17.7539-7.76367 18.0273-7.7832 18.3398-7.8418L19.4043-8.03711L20.0684-7.36328L20.0293-6.80664C19.9902-6.30859 20.1172-5.92773 20.6055-5.44922L21.3672-4.70703C21.8457-4.22852 22.4609-4.19922 22.9297-4.66797L25.8398-7.58789C26.3086-8.05664 26.2891-8.65234 25.8105-9.13086L25.0391-9.89258C24.5605-10.3711 24.1895-10.5273 23.7109-10.4883L23.1348-10.4395L22.4902-11.0742L22.7344-12.1973C22.8613-12.7637 22.7051-13.2031 22.1191-13.7891L19.9219-15.9766C16.582-19.2969 12.1484-19.2188 9.25781-16.3281C8.83789-15.918 8.80859-15.3418 9.04297-14.9512C9.27734-14.5898 9.73633-14.3555 10.3809-14.5215C11.8457-14.8633 13.3691-14.9219 14.7949-13.9844L14.209-12.5293C14.0137-12.0508 13.9844-11.6504 14.1113-11.2891L3.04688-0.898438C2.06055 0.0195312 1.98242 0.996094 2.8418 1.86523ZM10.752-15.957C13.1836-17.7344 16.4746-17.4316 18.7012-15.2051L21.1328-12.793C21.3672-12.5586 21.4062-12.373 21.3379-12.0312L21.0156-10.5469L22.5195-9.0625L23.5059-9.12109C23.7598-9.13086 23.8379-9.11133 24.0332-8.91602L24.6094-8.33984L22.168-5.89844L21.5918-6.47461C21.3965-6.66992 21.3672-6.74805 21.377-7.01172L21.4453-7.98828L19.9512-9.47266L18.4277-9.21875C18.1055-9.15039 17.959-9.17969 17.7148-9.41406L15.7129-11.416C15.459-11.6504 15.4297-11.8164 15.5859-12.1875L16.4648-14.2773C14.9023-15.7324 12.8711-16.3574 10.8398-15.7617C10.6836-15.7227 10.625-15.8496 10.752-15.957ZM5.27344 2.30469L4.10156 1.14258C3.63281 0.683594 3.74023 0.341797 4.14062-0.0195312L14.9512-10.1953L16.416-8.71094L6.42578 2.27539C6.07422 2.67578 5.74219 2.77344 5.27344 2.30469Z"/>
  </g>
  <text style="stroke:none;fill:black;font-family:-apple-system,&quot;SF Pro Display&quot;,&quot;SF Pro Text&quot;,Helvetica,sans-serif;font-weight:bold;" transform="matrix(1 0 0 1 1289 1953)">Exporting</text>
  <text style="stroke:none;fill:black;font-family:-apple-system,&quot;SF Pro Display&quot;,&quot;SF Pro Text&quot;,Helvetica,sans-serif;" transform="matrix(1 0 0 1 1289 1971)">Symbols should be outlined when exporting to ensure the</text>
  <text style="stroke:none;fill:black;font-family:-apple-system,&quot;SF Pro Display&quot;,&quot;SF Pro Text&quot;,Helvetica,sans-serif;" transform="matrix(1 0 0 1 1289 1989)">design is preserved when submitting to Xcode.</text>
  <text id="template-version" style="stroke:none;fill:black;font-family:-apple-system,&quot;SF Pro Display&quot;,&quot;SF Pro Text&quot;,Helvetica,sans-serif;text-anchor:end;" transform="matrix(1 0 0 1 3036 1933)">Template v.2.0</text>
  <text style="stroke:none;fill:black;font-family:-apple-system,&quot;SF Pro Display&quot;,&quot;SF Pro Text&quot;,Helvetica,sans-serif;text-anchor:end;" transform="matrix(1 0 0 1 3036 1951)">Requires Xcode 12 or greater</text>
  <text style="stroke:none;fill:black;font-family:-apple-system,&quot;SF Pro Display&quot;,&quot;SF Pro Text&quot;,Helvetica,sans-serif;" transform="matrix(1 0 0 1 263 726)">Small</text>
  <text style="stroke:none;fill:black;font-family:-apple-system,&quot;SF Pro Display&quot;,&quot;SF Pro Text&quot;,Helvetica,sans-serif;" transform="matrix(1 0 0 1 263 1156)">Medium</text>
  <text style="stroke:none;fill:black;font-family:-apple-system,&quot;SF Pro Display&quot;,&quot;SF Pro Text&quot;,Helvetica,sans-serif;" transform="matrix(1 0 0 1 263 1586)">Large</text>
 </g>
 <g id="Guides">
  <g id="H-reference" style="fill:#27AAE1;stroke:none;" transform="matrix(1 0 0 1 339 696)">
   <path d="M0.976562 0L3.66211 0L12.9883-24.4629L45.752-24.4629L55.127 0L57.7637 0L30.6152-70.459L28.125-70.459ZM29.3457-67.1387L29.4434-67.1387L44.873-26.709L13.8672-26.709Z"/>
  </g>
  <line id="Baseline-S" style="fill:none;stroke:#27AAE1;opacity:1;stroke-width:0.5;" x1="263" x2="3036" y1="696" y2="696"/>
  <line id="Capline-S" style="fill:none;stroke:#27AAE1;opacity:1;stroke-width:0.5;" x1="263" x2="3036" y1="625.541" y2="625.541"/>
  <g id="H-reference" style="fill:#27AAE1;stroke:none;" transform="matrix(1 0 0 1 339 1126)">
   <path d="M0.976562 0L3.66211 0L12.9883-24.4629L45.752-24.4629L55.127 0L57.7637 0L30.6152-70.459L28.125-70.459ZM29.3457-67.1387L29.4434-67.1387L44.873-26.709L13.8672-26.709Z"/>
  </g>
  <line id="Baseline-M" style="fill:none;stroke:#27AAE1;opacity:1;stroke-width:0.5;" x1="263" x2="3036" y1="1126" y2="1126"/>
  <line id="Capline-M" style="fill:none;stroke:#27AAE1;opacity:1;stroke-width:0.5;" x1="263" x2="3036" y1="1055.54" y2="1055.54"/>
  <g id="H-reference" style="fill:#27AAE1;stroke:none;" transform="matrix(1 0 0 1 339 1556)">
   <path d="M0.976562 0L3.66211 0L12.9883-24.4629L45.752-24.4629L55.127 0L57.7637 0L30.6152-70.459L28.125-70.459ZM29.3457-67.1387L29.4434-67.1387L44.873-26.709L13.8672-26.709Z"/>
  </g>
  <line id="Baseline-L" style="fill:none;stroke:#27AAE1;opacity:1;stroke-width:0.5;" x1="263" x2="3036" y1="1556" y2="1556"/>
  <line id="Capline-L" style="fill:none;stroke:#27AAE1;opacity:1;stroke-width:0.5;" x1="263" x2="3036" y1="1485.54" y2="1485.54"/>
  <line id="left-margin" x1="1398.353638566738" x2="1398.353638566738" y1="1030.79" y2="1150.12" style="fill:none;stroke:#00AEEF;stroke-width:0.5;opacity:1.0;"/>
  <line id="right-margin" x1="1503.9063614332617" x2="1503.9063614332617" y1="1030.79" y2="1150.12" style="fill:none;stroke:#00AEEF;stroke-width:0.5;opacity:1.0;"/>
 </g>
 <g id="Symbols">
  <g id="Black-L" transform="matrix(1.0,0.0,0.0,1.0,2866.598493751092,1443.3840407616583)">  <path stroke-linejoin="round" stroke-linecap="round" fill-opacity="1" stroke-miterlimit="4" stroke="none" stroke-opacity="1" stroke-dasharray="none" fill="#000000" stroke-width="3px" fill-rule="nonzero" d="M144.401,120.277L144.401,74.438C144.401,68.704,143.234,63.029,140.972,57.76C138.709,52.489,135.399,47.735,131.242,43.786L87.825,2.548C82.5,-2.511,75.432,-5.333,68.085,-5.333C60.737,-5.333,53.67,-2.511,48.343,2.549L4.923,43.784C0.764,47.735,-2.547,52.49,-4.809,57.759C-7.071,63.028,-8.238,68.703,-8.238,74.438L-8.238,120.277C-8.238,127.879,-5.218,135.169,0.157,140.545C5.532,145.92,12.823,148.94,20.424,148.94L115.739,148.94C123.34,148.94,130.631,145.92,136.006,140.545C141.381,135.169,144.401,127.879,144.401,120.277ZM114.309,120.277C114.309,119.898,114.459,119.534,114.728,119.266C114.996,118.998,115.359,118.848,115.739,118.848L20.424,118.848C20.804,118.848,21.167,118.998,21.435,119.266C21.704,119.534,21.854,119.898,21.854,120.277L21.854,74.438C21.854,72.785,22.19,71.149,22.842,69.631C23.495,68.112,24.449,66.741,25.647,65.603L69.068,24.368C68.804,24.618,68.451,24.759,68.085,24.759C67.718,24.759,67.366,24.618,67.1,24.365L110.517,65.604C111.714,66.741,112.668,68.112,113.321,69.631C113.972,71.149,114.309,72.785,114.309,74.438L114.309,120.277Z"/>
</g>
  <g id="Heavy-L" transform="matrix(1.0,0.0,0.0,1.0,2569.888493751092,1443.3840407616583)">  <path fill-rule="nonzero" stroke-width="3px" fill="#000000" stroke-linejoin="round" stroke-miterlimit="4" stroke-opacity="1" stroke-linecap="round" stroke-dasharray="none" fill-opacity="1" stroke="none" d="M142.753,120.277L142.753,74.438C142.753,68.927,141.632,63.474,139.458,58.41C137.283,53.345,134.102,48.776,130.107,44.981L86.69,3.743C81.671,-1.026,75.01,-3.686,68.085,-3.686C61.16,-3.686,54.499,-1.026,49.478,3.744L6.058,44.979C2.061,48.776,-1.121,53.345,-3.295,58.409C-5.469,63.473,-6.59,68.927,-6.59,74.438L-6.59,120.277C-6.59,127.442,-3.744,134.313,1.322,139.38C6.388,144.446,13.26,147.292,20.424,147.292L115.739,147.292C122.903,147.292,129.775,144.446,134.841,139.38C139.907,134.313,142.753,127.442,142.753,120.277ZM115.956,120.277C115.956,120.335,115.933,120.39,115.893,120.431C115.852,120.472,115.796,120.495,115.739,120.495L20.424,120.495C20.367,120.495,20.311,120.472,20.27,120.431C20.23,120.39,20.207,120.335,20.207,120.277L20.207,74.438C20.207,72.562,20.588,70.704,21.329,68.981C22.069,67.256,23.152,65.701,24.512,64.408L67.933,23.173C67.975,23.133,68.029,23.111,68.085,23.111C68.141,23.111,68.194,23.133,68.235,23.171L111.651,64.409C113.011,65.7,114.094,67.256,114.835,68.981C115.575,70.704,115.956,72.562,115.956,74.438L115.956,120.277Z"/>
</g>
  <g id="Bold-L" transform="matrix(1.0,0.0,0.0,1.0,2273.178493751092,1443.3840407616583)">  <path fill="#000000" stroke-linecap="round" stroke-miterlimit="4" stroke-width="3px" stroke-opacity="1" fill-opacity="1" stroke-dasharray="none" stroke-linejoin="round" fill-rule="nonzero" stroke="none" d="M141.106,120.277L141.106,74.438C141.106,69.151,140.03,63.918,137.944,59.06C135.858,54.2,132.805,49.817,128.972,46.175L85.556,4.937C80.843,0.459,74.588,-2.038,68.085,-2.038C61.582,-2.038,55.327,0.459,50.613,4.938L7.192,46.174C3.357,49.817,0.305,54.2,-1.781,59.059C-3.867,63.918,-4.943,69.15,-4.943,74.438L-4.943,120.277C-4.943,127.005,-2.27,133.457,2.487,138.215C7.244,142.972,13.697,145.644,20.424,145.644L115.739,145.644C122.466,145.644,128.919,142.972,133.676,138.215C138.433,133.457,141.106,127.005,141.106,120.277ZM117.604,120.277C117.604,120.772,117.407,121.246,117.058,121.596C116.708,121.946,116.233,122.143,115.739,122.143L20.424,122.143C19.93,122.143,19.455,121.946,19.105,121.596C18.756,121.247,18.559,120.772,18.559,120.277L18.559,74.438C18.559,72.338,18.986,70.26,19.815,68.331C20.643,66.401,21.855,64.66,23.378,63.214L66.799,21.978C67.147,21.647,67.607,21.464,68.085,21.464C68.563,21.464,69.023,21.647,69.369,21.976L112.786,63.215C114.308,64.66,115.52,66.401,116.349,68.331C117.177,70.26,117.604,72.338,117.604,74.438L117.604,120.277Z"/>
</g>
  <g id="Semibold-L" transform="matrix(1.0,0.0,0.0,1.0,1976.4684937510922,1443.3840407616583)">  <path fill-rule="nonzero" stroke-linecap="round" stroke-width="3px" stroke-dasharray="none" stroke-opacity="1" fill="#000000" stroke="none" stroke-miterlimit="4" fill-opacity="1" stroke-linejoin="round" d="M139.458,120.277L139.458,74.438C139.458,69.374,138.428,64.363,136.43,59.709C134.432,55.055,131.508,50.857,127.837,47.37L84.421,6.132C80.014,1.945,74.165,-0.39,68.085,-0.39C62.004,-0.39,56.156,1.945,51.748,6.133L8.327,47.368C4.654,50.857,1.731,55.056,-0.267,59.709C-2.265,64.362,-3.295,69.374,-3.295,74.438L-3.295,120.277C-3.295,126.568,-0.796,132.601,3.652,137.05C8.101,141.498,14.134,143.997,20.424,143.997L115.739,143.997C122.029,143.997,128.063,141.498,132.511,137.05C136.959,132.601,139.458,126.568,139.458,120.277ZM119.252,120.277C119.252,121.209,118.881,122.102,118.223,122.761C117.564,123.42,116.67,123.79,115.739,123.79L20.424,123.79C19.493,123.79,18.599,123.42,17.94,122.761C17.282,122.103,16.911,121.209,16.911,120.277L16.911,74.438C16.911,72.115,17.384,69.815,18.301,67.681C19.217,65.546,20.558,63.619,22.243,62.019L65.664,20.783C66.318,20.162,67.184,19.816,68.085,19.816C68.985,19.816,69.852,20.162,70.504,20.782L113.921,62.02C115.604,63.619,116.946,65.546,117.863,67.681C118.779,69.815,119.252,72.115,119.252,74.438L119.252,120.277Z"/>
</g>
  <g id="Medium-L" transform="matrix(1.0,0.0,0.0,1.0,1679.7584937510921,1443.3840407616583)">  <path stroke-dasharray="none" stroke="none" fill-opacity="1" stroke-opacity="1" fill-rule="nonzero" stroke-miterlimit="4" stroke-width="3px" stroke-linejoin="round" fill="#000000" stroke-linecap="round" d="M137.811,120.277L137.811,74.438C137.811,69.598,136.826,64.807,134.916,60.359C133.006,55.911,130.212,51.898,126.703,48.564L83.286,7.326C79.185,3.43,73.743,1.257,68.085,1.257C62.427,1.257,56.984,3.43,52.883,7.327L9.461,48.563C5.951,51.898,3.156,55.911,1.247,60.359C-0.663,64.807,-1.648,69.597,-1.648,74.438L-1.648,120.277C-1.648,126.131,0.678,131.745,4.817,135.885C8.957,140.024,14.571,142.349,20.424,142.349L115.739,142.349C121.592,142.349,127.207,140.024,131.346,135.885C135.485,131.745,137.811,126.131,137.811,120.277ZM120.899,120.277C120.899,121.646,120.355,122.959,119.388,123.926C118.42,124.894,117.107,125.438,115.739,125.438L20.424,125.438C19.056,125.438,17.743,124.894,16.775,123.926C15.808,122.959,15.264,121.646,15.264,120.277L15.264,74.438C15.264,71.891,15.782,69.371,16.787,67.031C17.791,64.69,19.262,62.579,21.108,60.825L64.529,19.589C65.49,18.677,66.762,18.169,68.085,18.169C69.408,18.169,70.68,18.677,71.639,19.588L115.055,60.825C116.901,62.579,118.371,64.69,119.377,67.031C120.381,69.371,120.899,71.891,120.899,74.438L120.899,120.277Z"/>
</g>
  <g id="Regular-L" transform="matrix(1.0,0.0,0.0,1.0,1383.048493751092,1443.3840407616583)">  <path stroke-linejoin="round" fill="#000000" fill-rule="nonzero" fill-opacity="1" stroke-dasharray="none" stroke-width="3px" stroke-miterlimit="4" stroke-linecap="round" stroke="none" stroke-opacity="1" d="M136.163,120.277L136.163,74.438C136.163,69.821,135.224,65.252,133.402,61.009C131.58,56.766,128.915,52.938,125.568,49.759L82.152,8.521C78.357,4.915,73.321,2.905,68.085,2.905C62.849,2.905,57.813,4.916,54.017,8.522L10.596,49.758C7.248,52.938,4.582,56.766,2.761,61.009C0.939,65.252,0,69.821,0,74.438L0,120.277C0,125.694,2.152,130.889,5.982,134.72C9.813,138.55,15.008,140.702,20.424,140.702L115.739,140.702C121.155,140.702,126.35,138.55,130.181,134.719C134.011,130.889,136.163,125.694,136.163,120.277ZM122.547,120.277C122.547,122.083,121.829,123.815,120.553,125.091C119.276,126.368,117.544,127.085,115.739,127.085L20.424,127.085C18.619,127.085,16.887,126.368,15.61,125.091C14.334,123.815,13.616,122.083,13.616,120.277L13.616,74.438C13.616,71.668,14.18,68.926,15.273,66.381C16.366,63.835,17.965,61.538,19.973,59.63L63.395,18.394C64.661,17.191,66.34,16.521,68.085,16.521C69.83,16.521,71.509,17.191,72.774,18.393L116.19,59.631C118.198,61.538,119.797,63.835,120.89,66.381C121.983,68.926,122.547,71.668,122.547,74.438L122.547,120.277Z"/>
</g>
  <g id="Light-L" transform="matrix(1.0,0.0,0.0,1.0,1086.3384937510923,1443.3840407616583)">  <path fill-opacity="1" fill-rule="nonzero" stroke-linejoin="round" stroke-width="3px" stroke-opacity="1" stroke="none" stroke-miterlimit="4" stroke-linecap="round" stroke-dasharray="none" fill="#000000" d="M135.028,120.277L135.028,74.438C135.028,69.975,134.12,65.558,132.36,61.457C130.598,57.355,128.022,53.655,124.786,50.581L81.37,9.344C77.786,5.938,73.03,4.039,68.085,4.039C63.14,4.039,58.384,5.938,54.799,9.344L11.377,50.58C8.141,53.655,5.564,57.355,3.803,61.457C2.043,65.558,1.135,69.975,1.135,74.438L1.135,120.277C1.135,125.393,3.167,130.3,6.785,133.917C10.402,137.535,15.309,139.567,20.424,139.567L115.739,139.567C120.854,139.567,125.761,137.535,129.378,133.917C132.996,130.3,135.028,125.393,135.028,120.277ZM123.681,120.277C123.681,122.384,122.844,124.404,121.355,125.894C119.865,127.383,117.845,128.22,115.739,128.22L20.424,128.22C18.318,128.22,16.298,127.383,14.808,125.894C13.318,124.404,12.482,122.384,12.482,120.277L12.482,74.438C12.482,71.514,13.077,68.62,14.23,65.933C15.384,63.246,17.072,60.822,19.192,58.808L62.614,17.571C64.09,16.168,66.049,15.386,68.085,15.386C70.121,15.386,72.079,16.168,73.555,17.57L116.972,58.808C119.091,60.821,120.779,63.246,121.933,65.933C123.086,68.62,123.681,71.514,123.681,74.438L123.681,120.277Z"/>
</g>
  <g id="Thin-L" transform="matrix(1.0,0.0,0.0,1.0,789.6284937510924,1443.3840407616583)">  <path fill-opacity="1" stroke="none" stroke-width="3px" fill-rule="nonzero" stroke-miterlimit="4" stroke-opacity="1" stroke-dasharray="none" stroke-linecap="round" fill="#000000" stroke-linejoin="round" d="M133.894,120.277L133.894,74.438C133.894,70.129,133.017,65.864,131.317,61.904C129.617,57.944,127.129,54.372,124.005,51.404L80.589,10.167C77.215,6.961,72.739,5.174,68.085,5.174C63.431,5.174,58.954,6.961,55.58,10.167L12.159,51.403C9.034,54.372,6.546,57.944,4.846,61.904C3.146,65.864,2.269,70.129,2.269,74.438L2.269,120.277C2.269,125.092,4.182,129.71,7.587,133.115C10.992,136.52,15.609,138.432,20.424,138.432L115.739,138.432C120.553,138.432,125.171,136.519,128.576,133.115C131.981,129.71,133.894,125.092,133.894,120.277ZM124.816,120.277C124.816,122.685,123.86,124.994,122.157,126.696C120.455,128.398,118.146,129.355,115.739,129.355L20.424,129.355C18.017,129.355,15.708,128.398,14.006,126.696C12.303,124.994,11.347,122.685,11.347,120.277L11.347,74.438C11.347,71.36,11.973,68.314,13.187,65.485C14.402,62.657,16.179,60.105,18.41,57.985L61.832,16.749C63.52,15.145,65.758,14.252,68.085,14.252C70.412,14.252,72.65,15.145,74.337,16.748L117.753,57.985C119.984,60.105,121.761,62.657,122.976,65.486C124.19,68.314,124.816,71.36,124.816,74.438L124.816,120.277Z"/>
</g>
  <g id="Ultralight-L" transform="matrix(1.0,0.0,0.0,1.0,492.91849375109234,1443.3840407616583)">  <path stroke-miterlimit="4" fill="#000000" stroke-dasharray="none" stroke="none" stroke-linejoin="round" stroke-opacity="1" stroke-width="3px" stroke-linecap="round" fill-opacity="1" fill-rule="nonzero" d="M132.759,120.277L132.759,74.438C132.759,70.283,131.913,66.171,130.274,62.352C128.635,58.533,126.236,55.088,123.223,52.226L79.807,10.989C76.645,7.984,72.448,6.309,68.085,6.309C63.722,6.309,59.525,7.984,56.362,10.99L12.94,52.226C9.927,55.088,7.528,58.533,5.889,62.352C4.249,66.17,3.404,70.283,3.404,74.438L3.404,120.277C3.404,124.791,5.197,129.121,8.389,132.312C11.581,135.504,15.91,137.298,20.424,137.298L115.739,137.298C120.252,137.298,124.582,135.504,127.774,132.312C130.966,129.121,132.759,124.791,132.759,120.277ZM125.951,120.277C125.951,122.986,124.875,125.583,122.96,127.498C121.044,129.414,118.447,130.49,115.739,130.49L20.424,130.49C17.716,130.49,15.119,129.414,13.203,127.498C11.288,125.583,10.212,122.986,10.212,120.277L10.212,74.438C10.212,71.206,10.87,68.007,12.145,65.038C13.42,62.068,15.286,59.388,17.629,57.162L61.051,15.926C62.949,14.122,65.467,13.117,68.085,13.117C70.703,13.117,73.221,14.122,75.118,15.925L118.534,57.163C120.877,59.388,122.743,62.068,124.018,65.038C125.293,68.008,125.951,71.206,125.951,74.438L125.951,120.277Z"/>
</g>
  <g id="Black-M" transform="matrix(1.0,0.0,0.0,1.0,2881.903638566738,1030.7808887021092)">  <path stroke-linejoin="round" stroke-linecap="round" fill-opacity="1" stroke-miterlimit="4" stroke="none" stroke-opacity="1" stroke-dasharray="none" fill="#000000" stroke-width="3px" fill-rule="nonzero" d="M111.939,93.238L111.939,57.704C111.939,53.259,111.034,48.86,109.281,44.775C107.526,40.689,104.96,37.004,101.738,33.943L68.081,1.975C63.953,-1.947,58.475,-4.134,52.779,-4.134C47.083,-4.134,41.605,-1.947,37.475,1.976L3.816,33.941C0.592,37.004,-1.974,40.69,-3.728,44.775C-5.482,48.859,-6.386,53.259,-6.386,57.704L-6.386,93.238C-6.386,99.131,-4.045,104.783,0.122,108.949C4.289,113.116,9.94,115.457,15.833,115.457L89.72,115.457C95.612,115.457,101.264,113.116,105.431,108.949C109.598,104.782,111.939,99.131,111.939,93.238ZM88.612,93.238C88.612,92.944,88.728,92.662,88.936,92.454C89.144,92.247,89.426,92.13,89.72,92.13L15.833,92.13C16.127,92.13,16.409,92.247,16.617,92.454C16.824,92.662,16.941,92.944,16.941,93.238L16.941,57.704C16.941,56.423,17.202,55.154,17.707,53.977C18.213,52.8,18.953,51.737,19.881,50.855L53.541,18.89C53.336,19.084,53.063,19.193,52.779,19.193C52.495,19.193,52.222,19.084,52.015,18.888L85.672,50.856C86.6,51.737,87.34,52.8,87.846,53.978C88.351,55.154,88.612,56.423,88.612,57.704L88.612,93.238Z"/>
</g>
  <g id="Heavy-M" transform="matrix(1.0,0.0,0.0,1.0,2585.193638566738,1030.7808887021092)">  <path fill-rule="nonzero" stroke-width="3px" fill="#000000" stroke-linejoin="round" stroke-miterlimit="4" stroke-opacity="1" stroke-linecap="round" stroke-dasharray="none" fill-opacity="1" stroke="none" d="M110.661,93.238L110.661,57.704C110.661,53.432,109.792,49.204,108.107,45.279C106.421,41.352,103.955,37.811,100.858,34.869L67.202,2.901C63.311,-0.795,58.147,-2.857,52.779,-2.857C47.411,-2.857,42.247,-0.795,38.355,2.902L4.696,34.867C1.597,37.811,-0.869,41.353,-2.554,45.278C-4.24,49.204,-5.109,53.432,-5.109,57.704L-5.109,93.238C-5.109,98.792,-2.902,104.119,1.025,108.046C4.952,111.973,10.279,114.18,15.833,114.18L89.72,114.18C95.274,114.18,100.6,111.973,104.528,108.046C108.455,104.119,110.661,98.792,110.661,93.238ZM89.889,93.238C89.889,93.283,89.871,93.326,89.839,93.358C89.807,93.389,89.764,93.407,89.72,93.407L15.833,93.407C15.788,93.407,15.745,93.389,15.713,93.358C15.682,93.326,15.664,93.283,15.664,93.238L15.664,57.704C15.664,56.249,15.96,54.81,16.534,53.473C17.108,52.137,17.947,50.931,19.002,49.929L52.661,17.963C52.694,17.932,52.736,17.916,52.779,17.916C52.822,17.916,52.864,17.932,52.895,17.962L86.552,49.93C87.605,50.931,88.445,52.137,89.019,53.474C89.593,54.81,89.889,56.25,89.889,57.704L89.889,93.238Z"/>
</g>
  <g id="Bold-M" transform="matrix(1.0,0.0,0.0,1.0,2288.483638566738,1030.7808887021092)">  <path fill="#000000" stroke-linecap="round" stroke-miterlimit="4" stroke-width="3px" stroke-opacity="1" fill-opacity="1" stroke-dasharray="none" stroke-linejoin="round" fill-rule="nonzero" stroke="none" d="M109.384,93.238L109.384,57.704C109.384,53.605,108.55,49.549,106.934,45.783C105.316,42.015,102.95,38.617,99.978,35.795L66.322,3.827C62.669,0.356,57.82,-1.58,52.779,-1.58C47.738,-1.58,42.889,0.356,39.235,3.828L5.575,35.794C2.603,38.618,0.236,42.016,-1.381,45.782C-2.998,49.549,-3.832,53.605,-3.832,57.704L-3.832,93.238C-3.832,98.453,-1.76,103.455,1.928,107.143C5.616,110.831,10.618,112.903,15.833,112.903L89.72,112.903C94.935,112.903,99.937,110.831,103.625,107.143C107.312,103.455,109.384,98.453,109.384,93.238ZM91.166,93.238C91.166,93.622,91.013,93.989,90.742,94.261C90.471,94.532,90.103,94.684,89.72,94.684L15.833,94.684C15.449,94.684,15.082,94.532,14.81,94.261C14.539,93.99,14.387,93.622,14.387,93.238L14.387,57.704C14.387,56.076,14.718,54.465,15.36,52.969C16.002,51.474,16.942,50.124,18.122,49.003L51.782,17.037C52.052,16.781,52.408,16.639,52.779,16.639C53.15,16.639,53.506,16.781,53.775,17.036L87.431,49.004C88.61,50.124,89.55,51.474,90.193,52.97C90.835,54.465,91.166,56.076,91.166,57.704L91.166,93.238Z"/>
</g>
  <g id="Semibold-M" transform="matrix(1.0,0.0,0.0,1.0,1991.773638566738,1030.7808887021092)">  <path fill-rule="nonzero" stroke-linecap="round" stroke-width="3px" stroke-dasharray="none" stroke-opacity="1" fill="#000000" stroke="none" stroke-miterlimit="4" fill-opacity="1" stroke-linejoin="round" d="M108.107,93.238L108.107,57.704C108.107,53.779,107.308,49.894,105.76,46.286C104.211,42.678,101.945,39.424,99.099,36.721L65.443,4.753C62.026,1.508,57.493,-0.303,52.779,-0.303C48.065,-0.303,43.532,1.508,40.115,4.754L6.455,36.72C3.608,39.424,1.342,42.679,-0.207,46.286C-1.756,49.893,-2.554,53.778,-2.554,57.704L-2.554,93.238C-2.554,98.115,-0.617,102.792,2.831,106.24C6.279,109.688,10.956,111.626,15.833,111.626L89.72,111.626C94.596,111.626,99.273,109.688,102.722,106.24C106.17,102.792,108.107,98.115,108.107,93.238ZM92.443,93.238C92.443,93.96,92.156,94.653,91.645,95.164C91.135,95.675,90.442,95.961,89.72,95.961L15.833,95.961C15.111,95.961,14.418,95.675,13.907,95.164C13.397,94.653,13.11,93.96,13.11,93.238L13.11,57.704C13.11,55.903,13.476,54.12,14.187,52.466C14.897,50.811,15.937,49.317,17.242,48.077L50.902,16.111C51.409,15.629,52.081,15.361,52.779,15.361C53.477,15.361,54.149,15.629,54.654,16.11L88.311,48.077C89.616,49.317,90.656,50.811,91.366,52.466C92.077,54.12,92.443,55.903,92.443,57.704L92.443,93.238Z"/>
</g>
  <g id="Medium-M" transform="matrix(1.0,0.0,0.0,1.0,1695.063638566738,1030.7808887021092)">  <path stroke-dasharray="none" stroke="none" fill-opacity="1" stroke-opacity="1" fill-rule="nonzero" stroke-miterlimit="4" stroke-width="3px" stroke-linejoin="round" fill="#000000" stroke-linecap="round" d="M106.83,93.238L106.83,57.704C106.83,53.952,106.066,50.238,104.586,46.79C103.106,43.342,100.939,40.231,98.219,37.647L64.563,5.679C61.384,2.659,57.165,0.975,52.779,0.975C48.393,0.975,44.174,2.659,40.994,5.68L7.334,37.646C4.613,40.231,2.447,43.342,0.967,46.79C-0.514,50.238,-1.277,53.951,-1.277,57.704L-1.277,93.238C-1.277,97.776,0.526,102.128,3.734,105.337C6.943,108.546,11.295,110.348,15.833,110.348L89.72,110.348C94.258,110.348,98.61,108.546,101.818,105.337C105.027,102.128,106.83,97.776,106.83,93.238ZM93.72,93.238C93.72,94.299,93.299,95.317,92.548,96.067C91.798,96.817,90.781,97.239,89.72,97.239L15.833,97.239C14.772,97.239,13.754,96.817,13.004,96.067C12.254,95.317,11.832,94.299,11.832,93.238L11.832,57.704C11.832,55.73,12.234,53.776,13.013,51.962C13.792,50.148,14.932,48.511,16.363,47.151L50.023,15.185C50.767,14.478,51.753,14.084,52.779,14.084C53.805,14.084,54.791,14.478,55.534,15.184L89.19,47.151C90.621,48.511,91.761,50.148,92.54,51.962C93.319,53.776,93.72,55.73,93.72,57.704L93.72,93.238Z"/>
</g>
  <g id="Regular-M" transform="matrix(1.0,0.0,0.0,1.0,1398.353638566738,1030.7808887021092)">  <path stroke-linejoin="round" fill="#000000" fill-rule="nonzero" fill-opacity="1" stroke-dasharray="none" stroke-width="3px" stroke-miterlimit="4" stroke-linecap="round" stroke="none" stroke-opacity="1" d="M105.553,93.238L105.553,57.704C105.553,54.125,104.825,50.583,103.413,47.294C102,44.005,99.934,41.037,97.339,38.572L63.684,6.605C60.742,3.81,56.838,2.252,52.779,2.252C48.72,2.252,44.816,3.81,41.874,6.606L8.214,38.572C5.618,41.038,3.552,44.005,2.14,47.294C0.728,50.583,0,54.125,0,57.704L0,93.238C0,97.437,1.668,101.465,4.637,104.434C7.607,107.403,11.634,109.071,15.833,109.071L89.72,109.071C93.919,109.071,97.946,107.403,100.915,104.434C103.885,101.465,105.553,97.437,105.553,93.238ZM94.997,93.238C94.997,94.638,94.441,95.98,93.452,96.97C92.462,97.96,91.119,98.516,89.72,98.516L15.833,98.516C14.433,98.516,13.091,97.96,12.101,96.97C11.111,95.98,10.555,94.638,10.555,93.238L10.555,57.704C10.555,55.556,10.992,53.431,11.839,51.458C12.687,49.484,13.926,47.704,15.483,46.225L49.143,14.259C50.125,13.327,51.426,12.807,52.779,12.807C54.132,12.807,55.433,13.327,56.414,14.258L90.07,46.225C91.626,47.704,92.866,49.484,93.714,51.458C94.56,53.431,94.997,55.557,94.997,57.704L94.997,93.238Z"/>
</g>
  <g id="Light-M" transform="matrix(1.0,0.0,0.0,1.0,1101.6436385667382,1030.7808887021092)">  <path fill-opacity="1" fill-rule="nonzero" stroke-linejoin="round" stroke-width="3px" stroke-opacity="1" stroke="none" stroke-miterlimit="4" stroke-linecap="round" stroke-dasharray="none" fill="#000000" d="M104.673,93.238L104.673,57.704C104.673,54.244,103.969,50.82,102.604,47.641C101.239,44.461,99.242,41.593,96.734,39.21L63.078,7.243C60.299,4.603,56.612,3.131,52.779,3.131C48.946,3.131,45.259,4.603,42.48,7.244L8.82,39.21C6.311,41.593,4.313,44.462,2.948,47.641C1.584,50.82,0.88,54.244,0.88,57.704L0.88,93.238C0.88,97.204,2.455,101.008,5.259,103.812C8.064,106.616,11.867,108.192,15.833,108.192L89.72,108.192C93.686,108.192,97.489,106.616,100.293,103.812C103.098,101.008,104.673,97.204,104.673,93.238ZM95.877,93.238C95.877,94.871,95.228,96.437,94.074,97.592C92.919,98.747,91.353,99.395,89.72,99.395L15.833,99.395C14.2,99.395,12.634,98.747,11.479,97.592C10.324,96.437,9.676,94.871,9.676,93.238L9.676,57.704C9.676,55.437,10.137,53.194,11.031,51.111C11.925,49.028,13.234,47.149,14.877,45.587L48.538,13.621C49.682,12.534,51.201,11.927,52.779,11.927C54.357,11.927,55.876,12.534,57.02,13.621L90.676,45.588C92.319,47.148,93.627,49.028,94.522,51.111C95.416,53.194,95.877,55.437,95.877,57.704L95.877,93.238Z"/>
</g>
  <g id="Thin-M" transform="matrix(1.0,0.0,0.0,1.0,804.9336385667383,1030.7808887021092)">  <path fill-opacity="1" stroke="none" stroke-width="3px" fill-rule="nonzero" stroke-miterlimit="4" stroke-opacity="1" stroke-dasharray="none" stroke-linecap="round" fill="#000000" stroke-linejoin="round" d="M103.794,93.238L103.794,57.704C103.794,54.364,103.114,51.058,101.796,47.988C100.478,44.918,98.549,42.149,96.128,39.848L62.472,7.881C59.857,5.396,56.387,4.011,52.779,4.011C49.171,4.011,45.701,5.396,43.086,7.881L9.425,39.847C7.003,42.149,5.075,44.918,3.757,47.988C2.439,51.057,1.759,54.363,1.759,57.704L1.759,93.238C1.759,96.971,3.242,100.551,5.881,103.19C8.521,105.829,12.1,107.312,15.833,107.312L89.72,107.312C93.452,107.312,97.032,105.829,99.671,103.19C102.311,100.55,103.794,96.971,103.794,93.238ZM96.757,93.238C96.757,95.104,96.015,96.894,94.696,98.214C93.376,99.534,91.586,100.275,89.72,100.275L15.833,100.275C13.967,100.275,12.177,99.534,10.857,98.214C9.537,96.894,8.796,95.104,8.796,93.238L8.796,57.704C8.796,55.318,9.282,52.956,10.223,50.764C11.164,48.571,12.542,46.593,14.272,44.95L47.932,12.983C49.24,11.741,50.975,11.048,52.779,11.048C54.583,11.048,56.318,11.741,57.626,12.983L91.281,44.95C93.011,46.593,94.388,48.571,95.33,50.764C96.271,52.956,96.757,55.318,96.757,57.704L96.757,93.238Z"/>
</g>
  <g id="Ultralight-M" transform="matrix(1.0,0.0,0.0,1.0,508.22363856673826,1030.7808887021092)">  <path stroke-miterlimit="4" fill="#000000" stroke-dasharray="none" stroke="none" stroke-linejoin="round" stroke-opacity="1" stroke-width="3px" stroke-linecap="round" fill-opacity="1" fill-rule="nonzero" d="M102.914,93.238L102.914,57.704C102.914,54.483,102.259,51.295,100.988,48.335C99.717,45.375,97.857,42.704,95.522,40.486L61.866,8.519C59.415,6.189,56.161,4.891,52.779,4.891C49.397,4.891,46.143,6.189,43.691,8.519L10.031,40.485C7.695,42.704,5.836,45.375,4.565,48.335C3.294,51.295,2.639,54.483,2.639,57.704L2.639,93.238C2.639,96.737,4.029,100.094,6.503,102.568C8.978,105.042,12.334,106.432,15.833,106.432L89.72,106.432C93.219,106.432,96.575,105.042,99.049,102.568C101.524,100.093,102.914,96.737,102.914,93.238ZM97.636,93.238C97.636,95.338,96.802,97.351,95.318,98.836C93.833,100.321,91.819,101.155,89.72,101.155L15.833,101.155C13.733,101.155,11.72,100.321,10.235,98.836C8.751,97.351,7.916,95.338,7.916,93.238L7.916,57.704C7.916,55.198,8.426,52.719,9.415,50.417C10.403,48.115,11.849,46.037,13.666,44.312L47.326,12.346C48.798,10.948,50.75,10.168,52.779,10.168C54.808,10.168,56.76,10.948,58.231,12.345L91.887,44.312C93.703,46.037,95.15,48.114,96.138,50.417C97.126,52.719,97.636,55.199,97.636,57.704L97.636,93.238Z"/>
</g>
  <g id="Black-S" transform="matrix(1.0,0.0,0.0,1.0,2893.3561089977557,613.7985300920327)">  <path stroke-linejoin="round" stroke-linecap="round" fill-opacity="1" stroke-miterlimit="4" stroke="none" stroke-opacity="1" stroke-dasharray="none" fill="#000000" stroke-width="3px" fill-rule="nonzero" d="M87.648,73.006L87.648,45.182C87.648,41.702,86.94,38.257,85.567,35.059C84.193,31.86,82.184,28.974,79.661,26.577L53.308,1.547C50.075,-1.524,45.786,-3.237,41.326,-3.237C36.866,-3.237,32.576,-1.524,29.343,1.547L2.988,26.576C0.464,28.974,-1.546,31.86,-2.919,35.058C-4.292,38.257,-5,41.701,-5,45.182L-5,73.006C-5,77.62,-3.167,82.045,0.095,85.307C3.358,88.57,7.783,90.403,12.397,90.403L70.251,90.403C74.865,90.403,79.29,88.57,82.552,85.307C85.815,82.045,87.648,77.62,87.648,73.006ZM69.383,73.006C69.383,72.775,69.474,72.555,69.637,72.392C69.8,72.229,70.02,72.138,70.251,72.138L12.397,72.138C12.627,72.138,12.848,72.229,13.011,72.392C13.174,72.555,13.265,72.775,13.265,73.006L13.265,45.182C13.265,44.179,13.469,43.186,13.865,42.264C14.261,41.342,14.84,40.51,15.567,39.819L41.923,14.791C41.762,14.943,41.548,15.028,41.326,15.028C41.103,15.028,40.889,14.943,40.728,14.789L67.081,39.82C67.808,40.51,68.387,41.342,68.783,42.265C69.179,43.186,69.383,44.179,69.383,45.182L69.383,73.006Z"/>
</g>
  <g id="Heavy-S" transform="matrix(1.0,0.0,0.0,1.0,2596.6461089977556,613.7985300920327)">  <path fill-rule="nonzero" stroke-width="3px" fill="#000000" stroke-linejoin="round" stroke-miterlimit="4" stroke-opacity="1" stroke-linecap="round" stroke-dasharray="none" fill-opacity="1" stroke="none" d="M86.648,73.006L86.648,45.182C86.648,41.837,85.967,38.527,84.648,35.453C83.328,32.379,81.397,29.606,78.972,27.302L52.619,2.272C49.572,-0.623,45.529,-2.237,41.326,-2.237C37.122,-2.237,33.079,-0.623,30.032,2.272L3.677,27.301C1.251,29.606,-0.68,32.379,-2,35.453C-3.32,38.527,-4,41.837,-4,45.182L-4,73.006C-4,77.354,-2.273,81.525,0.803,84.6C3.878,87.675,8.048,89.403,12.397,89.403L70.251,89.403C74.599,89.403,78.77,87.675,81.845,84.6C84.92,81.525,86.648,77.354,86.648,73.006ZM70.383,73.006C70.383,73.04,70.369,73.074,70.344,73.099C70.319,73.124,70.286,73.138,70.251,73.138L12.397,73.138C12.362,73.138,12.328,73.124,12.304,73.099C12.279,73.074,12.265,73.041,12.265,73.006L12.265,45.182C12.265,44.043,12.497,42.916,12.946,41.87C13.395,40.823,14.053,39.879,14.878,39.094L41.234,14.065C41.259,14.041,41.292,14.028,41.326,14.028C41.36,14.028,41.392,14.041,41.417,14.064L67.77,39.095C68.595,39.879,69.253,40.823,69.702,41.87C70.151,42.916,70.383,44.043,70.383,45.182L70.383,73.006Z"/>
</g>
  <g id="Bold-S" transform="matrix(1.0,0.0,0.0,1.0,2299.9361089977556,613.7985300920327)">  <path fill="#000000" stroke-linecap="round" stroke-miterlimit="4" stroke-width="3px" stroke-opacity="1" fill-opacity="1" stroke-dasharray="none" stroke-linejoin="round" fill-rule="nonzero" stroke="none" d="M85.648,73.006L85.648,45.182C85.648,41.973,84.995,38.797,83.729,35.848C82.462,32.898,80.61,30.237,78.283,28.027L51.93,2.997C49.07,0.279,45.273,-1.237,41.326,-1.237C37.379,-1.237,33.582,0.279,30.721,2.997L4.366,28.026C2.038,30.238,0.185,32.898,-1.081,35.848C-2.347,38.797,-3,41.973,-3,45.182L-3,73.006C-3,77.089,-1.378,81.006,1.51,83.893C4.397,86.781,8.314,88.403,12.397,88.403L70.251,88.403C74.334,88.403,78.251,86.781,81.138,83.893C84.026,81.006,85.648,77.089,85.648,73.006ZM71.383,73.006C71.383,73.306,71.264,73.594,71.051,73.806C70.839,74.018,70.551,74.138,70.251,74.138L12.397,74.138C12.097,74.138,11.809,74.019,11.596,73.806C11.384,73.594,11.265,73.306,11.265,73.006L11.265,45.182C11.265,43.908,11.524,42.646,12.027,41.475C12.53,40.304,13.266,39.247,14.19,38.369L40.545,13.34C40.757,13.139,41.036,13.028,41.326,13.028C41.616,13.028,41.895,13.139,42.106,13.339L68.459,38.37C69.382,39.247,70.118,40.304,70.621,41.475C71.124,42.646,71.383,43.908,71.383,45.182L71.383,73.006Z"/>
</g>
  <g id="Semibold-S" transform="matrix(1.0,0.0,0.0,1.0,2003.226108997756,613.7985300920327)">  <path fill-rule="nonzero" stroke-linecap="round" stroke-width="3px" stroke-dasharray="none" stroke-opacity="1" fill="#000000" stroke="none" stroke-miterlimit="4" fill-opacity="1" stroke-linejoin="round" d="M84.648,73.006L84.648,45.182C84.648,42.109,84.022,39.067,82.81,36.242C81.597,33.417,79.823,30.869,77.594,28.752L51.242,3.722C48.567,1.18,45.017,-0.237,41.326,-0.237C37.635,-0.237,34.085,1.18,31.41,3.722L5.054,28.751C2.825,30.869,1.05,33.418,-0.162,36.242C-1.375,39.066,-2,42.108,-2,45.182L-2,73.006C-2,76.824,-0.483,80.486,2.217,83.186C4.917,85.886,8.579,87.403,12.397,87.403L70.251,87.403C74.069,87.403,77.731,85.886,80.431,83.186C83.131,80.486,84.648,76.824,84.648,73.006ZM72.383,73.006C72.383,73.571,72.158,74.113,71.758,74.513C71.358,74.913,70.816,75.138,70.251,75.138L12.397,75.138C11.832,75.138,11.289,74.913,10.889,74.513C10.49,74.113,10.265,73.571,10.265,73.006L10.265,45.182C10.265,43.772,10.552,42.376,11.108,41.081C11.664,39.785,12.479,38.616,13.501,37.644L39.857,12.615C40.254,12.238,40.779,12.028,41.326,12.028C41.873,12.028,42.398,12.238,42.794,12.614L69.147,37.645C70.169,38.615,70.983,39.785,71.54,41.081C72.096,42.376,72.383,43.772,72.383,45.182L72.383,73.006Z"/>
</g>
  <g id="Medium-S" transform="matrix(1.0,0.0,0.0,1.0,1706.516108997756,613.7985300920327)">  <path stroke-dasharray="none" stroke="none" fill-opacity="1" stroke-opacity="1" fill-rule="nonzero" stroke-miterlimit="4" stroke-width="3px" stroke-linejoin="round" fill="#000000" stroke-linecap="round" d="M83.648,73.006L83.648,45.182C83.648,42.244,83.05,39.337,81.891,36.637C80.732,33.936,79.035,31.501,76.906,29.477L50.553,4.447C48.064,2.082,44.76,0.763,41.326,0.763C37.892,0.763,34.588,2.082,32.098,4.447L5.743,29.477C3.612,31.501,1.916,33.937,0.757,36.637C-0.402,39.336,-1,42.244,-1,45.182L-1,73.006C-1,76.559,0.411,79.966,2.924,82.479C5.436,84.991,8.844,86.403,12.397,86.403L70.251,86.403C73.804,86.403,77.211,84.991,79.724,82.479C82.236,79.966,83.648,76.559,83.648,73.006ZM73.383,73.006C73.383,73.836,73.053,74.633,72.465,75.22C71.878,75.808,71.081,76.138,70.251,76.138L12.397,76.138C11.566,76.138,10.77,75.808,10.182,75.22C9.595,74.633,9.265,73.836,9.265,73.006L9.265,45.182C9.265,43.636,9.579,42.106,10.189,40.686C10.799,39.266,11.691,37.984,12.812,36.919L39.168,11.89C39.751,11.336,40.523,11.028,41.326,11.028C42.129,11.028,42.901,11.336,43.483,11.889L69.836,36.92C70.956,37.984,71.849,39.266,72.459,40.686C73.068,42.106,73.383,43.636,73.383,45.182L73.383,73.006Z"/>
</g>
  <g id="Regular-S" transform="matrix(1.0,0.0,0.0,1.0,1409.806108997756,613.7985300920327)">  <path stroke-linejoin="round" fill="#000000" fill-rule="nonzero" fill-opacity="1" stroke-dasharray="none" stroke-width="3px" stroke-miterlimit="4" stroke-linecap="round" stroke="none" stroke-opacity="1" d="M82.648,73.006L82.648,45.182C82.648,42.38,82.078,39.606,80.972,37.031C79.866,34.456,78.248,32.132,76.217,30.202L49.864,5.172C47.561,2.984,44.504,1.763,41.326,1.763C38.148,1.763,35.091,2.984,32.787,5.172L6.432,30.202C4.399,32.132,2.781,34.456,1.676,37.031C0.57,39.606,0,42.38,0,45.182L0,73.006C0,76.293,1.306,79.447,3.631,81.772C5.956,84.097,9.109,85.403,12.397,85.403L70.251,85.403C73.538,85.403,76.692,84.096,79.017,81.772C81.342,79.447,82.648,76.293,82.648,73.006ZM74.383,73.006C74.383,74.101,73.948,75.153,73.173,75.928C72.398,76.702,71.346,77.138,70.251,77.138L12.397,77.138C11.301,77.138,10.25,76.703,9.475,75.928C8.7,75.153,8.265,74.101,8.265,73.006L8.265,45.182C8.265,43.501,8.607,41.836,9.27,40.292C9.934,38.746,10.904,37.352,12.123,36.194L38.479,11.165C39.248,10.435,40.267,10.028,41.326,10.028C42.385,10.028,43.404,10.435,44.172,11.164L70.525,36.194C71.743,37.352,72.714,38.746,73.378,40.292C74.041,41.837,74.383,43.501,74.383,45.182L74.383,73.006Z"/>
</g>
  <g id="Light-S" transform="matrix(1.0,0.0,0.0,1.0,1113.0961089977561,613.7985300920327)">  <path fill-opacity="1" fill-rule="nonzero" stroke-linejoin="round" stroke-width="3px" stroke-opacity="1" stroke="none" stroke-miterlimit="4" stroke-linecap="round" stroke-dasharray="none" fill="#000000" d="M81.959,73.006L81.959,45.182C81.959,42.473,81.408,39.792,80.339,37.303C79.27,34.813,77.706,32.567,75.742,30.702L49.39,5.671C47.214,3.604,44.327,2.452,41.326,2.452C38.324,2.452,35.438,3.605,33.262,5.672L6.906,30.701C4.941,32.567,3.377,34.813,2.309,37.303C1.24,39.792,0.689,42.473,0.689,45.182L0.689,73.006C0.689,76.111,1.922,79.089,4.118,81.285C6.314,83.48,9.292,84.714,12.397,84.714L70.251,84.714C73.356,84.714,76.334,83.48,78.53,81.285C80.725,79.089,81.959,76.111,81.959,73.006ZM75.072,73.006C75.072,74.284,74.564,75.51,73.66,76.415C72.755,77.319,71.529,77.827,70.251,77.827L12.397,77.827C11.119,77.827,9.892,77.319,8.988,76.415C8.084,75.51,7.576,74.284,7.576,73.006L7.576,45.182C7.576,43.407,7.937,41.651,8.637,40.02C9.338,38.389,10.362,36.917,11.649,35.695L38.005,10.665C38.901,9.814,40.09,9.339,41.326,9.339C42.562,9.339,43.751,9.814,44.646,10.665L70.999,35.695C72.285,36.917,73.31,38.389,74.011,40.02C74.711,41.651,75.072,43.407,75.072,45.182L75.072,73.006Z"/>
</g>
  <g id="Thin-S" transform="matrix(1.0,0.0,0.0,1.0,816.3861089977561,613.7985300920327)">  <path fill-opacity="1" stroke="none" stroke-width="3px" fill-rule="nonzero" stroke-miterlimit="4" stroke-opacity="1" stroke-dasharray="none" stroke-linecap="round" fill="#000000" stroke-linejoin="round" d="M81.27,73.006L81.27,45.182C81.27,42.567,80.738,39.978,79.706,37.575C78.674,35.171,77.164,33.002,75.268,31.201L48.916,6.171C46.868,4.225,44.151,3.141,41.326,3.141C38.501,3.141,35.784,4.225,33.736,6.171L7.38,31.201C5.483,33.002,3.973,35.171,2.941,37.574C1.91,39.978,1.377,42.566,1.377,45.182L1.377,73.006C1.377,75.928,2.538,78.731,4.605,80.798C6.672,82.864,9.475,84.025,12.397,84.025L70.251,84.025C73.173,84.025,75.976,82.864,78.043,80.798C80.109,78.731,81.27,75.928,81.27,73.006ZM75.76,73.006C75.76,74.467,75.18,75.868,74.147,76.902C73.113,77.935,71.712,78.515,70.251,78.515L12.397,78.515C10.936,78.515,9.534,77.935,8.501,76.902C7.468,75.868,6.887,74.467,6.887,73.006L6.887,45.182C6.887,43.314,7.267,41.465,8.004,39.748C8.741,38.031,9.82,36.482,11.175,35.196L37.531,10.166C38.555,9.193,39.913,8.65,41.326,8.65C42.738,8.65,44.097,9.193,45.121,10.166L71.473,35.196C72.828,36.482,73.906,38.031,74.643,39.748C75.38,41.465,75.76,43.314,75.76,45.182L75.76,73.006Z"/>
</g>
  <g id="Ultralight-S" transform="matrix(1.0,0.0,0.0,1.0,519.676108997756,613.7985300920327)">  <path stroke-miterlimit="4" fill="#000000" stroke-dasharray="none" stroke="none" stroke-linejoin="round" stroke-opacity="1" stroke-width="3px" stroke-linecap="round" fill-opacity="1" fill-rule="nonzero" d="M80.582,73.006L80.582,45.182C80.582,42.66,80.068,40.164,79.074,37.846C78.078,35.528,76.622,33.437,74.794,31.7L48.441,6.67C46.522,4.846,43.974,3.829,41.326,3.829C38.678,3.829,36.13,4.846,34.21,6.67L7.854,31.7C6.026,33.437,4.569,35.528,3.574,37.846C2.579,40.164,2.066,42.66,2.066,45.182L2.066,73.006C2.066,75.745,3.155,78.373,5.092,80.311C7.03,82.248,9.657,83.337,12.397,83.337L70.251,83.337C72.99,83.337,75.618,82.248,77.556,80.311C79.493,78.373,80.582,75.745,80.582,73.006ZM76.449,73.006C76.449,74.649,75.796,76.226,74.634,77.389C73.471,78.551,71.894,79.204,70.251,79.204L12.397,79.204C10.753,79.204,9.177,78.551,8.014,77.389C6.852,76.226,6.199,74.649,6.199,73.006L6.199,45.182C6.199,43.22,6.598,41.279,7.372,39.476C8.145,37.674,9.278,36.047,10.7,34.696L37.056,9.667C38.209,8.572,39.737,7.962,41.326,7.962C42.915,7.962,44.443,8.572,45.595,9.666L71.948,34.696C73.37,36.047,74.502,37.674,75.276,39.476C76.05,41.279,76.449,43.221,76.449,45.182L76.449,73.006Z"/>
</g>
 </g>
</svg>
