<?xml version="1.0" encoding="UTF-8"?>
<!-- Generator: CustomSymbols v2.6.2.41 by @serious_bret https://bretlester.com/app_content/CustomSymbols/ -->
<!-- Guides: Left/Right 0.0/0.0 Cap/Base 0.0/0.0 -->
<!-- Settings: RefScale 1.0 Min/Max Stroke Scales 0.5/2.21 -->
<!DOCTYPE svg
PUBLIC "-//W3C//DTD SVG 1.1//EN"
       "http://www.w3.org/Graphics/SVG/1.1/DTD/svg11.dtd">
<svg version="1.1" xmlns="http://www.w3.org/2000/svg" xmlns:xlink="http://www.w3.org/1999/xlink" width="3300" height="2200">
<![CDATA[<svg xmlns="http://www.w3.org/2000/svg" width="36" height="36" viewBox="0 0 24 24" fill="none" stroke="currentColor" stroke-width="2" stroke-linecap="round" stroke-linejoin="round" class="ai ai-Home"><path d="M21 19v-6.733a4 4 0 0 0-1.245-2.9L13.378 3.31a2 2 0 0 0-2.755 0L4.245 9.367A4 4 0 0 0 3 12.267V19a2 2 0 0 0 2 2h14a2 2 0 0 0 2-2z"/></svg>]]>
 <g id="Notes">
  <rect height="2200" id="artboard" style="fill:white;opacity:1" width="3300" x="0" y="0"/>
  <line id="" style="fill:none;stroke:black;opacity:1;stroke-width:0.5;" x1="263" x2="3036" y1="292" y2="292"/>
  <text id="reftext1" style="stroke:none;fill:black;font-family:-apple-system,&quot;SF Pro Display&quot;,&quot;SF Pro Text&quot;,Helvetica,sans-serif;font-weight:bold;" transform="matrix(1 0 0 1 263 322)">Weight/Scale Variations</text>
  <text id="reftext2" style="stroke:none;fill:black;font-family:-apple-system,&quot;SF Pro Display&quot;,&quot;SF Pro Text&quot;,Helvetica,sans-serif;text-anchor:middle;" transform="matrix(1 0 0 1 559.711 322)">Ultralight</text>
  <text style="stroke:none;fill:black;font-family:-apple-system,&quot;SF Pro Display&quot;,&quot;SF Pro Text&quot;,Helvetica,sans-serif;text-anchor:middle;" transform="matrix(1 0 0 1 856.422 322)">Thin</text>
  <text style="stroke:none;fill:black;font-family:-apple-system,&quot;SF Pro Display&quot;,&quot;SF Pro Text&quot;,Helvetica,sans-serif;text-anchor:middle;" transform="matrix(1 0 0 1 1153.13 322)">Light</text>
  <text style="stroke:none;fill:black;font-family:-apple-system,&quot;SF Pro Display&quot;,&quot;SF Pro Text&quot;,Helvetica,sans-serif;text-anchor:middle;" transform="matrix(1 0 0 1 1449.84 322)">Regular</text>
  <text style="stroke:none;fill:black;font-family:-apple-system,&quot;SF Pro Display&quot;,&quot;SF Pro Text&quot;,Helvetica,sans-serif;text-anchor:middle;" transform="matrix(1 0 0 1 1746.56 322)">Medium</text>
  <text style="stroke:none;fill:black;font-family:-apple-system,&quot;SF Pro Display&quot;,&quot;SF Pro Text&quot;,Helvetica,sans-serif;text-anchor:middle;" transform="matrix(1 0 0 1 2043.27 322)">Semibold</text>
  <text style="stroke:none;fill:black;font-family:-apple-system,&quot;SF Pro Display&quot;,&quot;SF Pro Text&quot;,Helvetica,sans-serif;text-anchor:middle;" transform="matrix(1 0 0 1 2339.98 322)">Bold</text>
  <text style="stroke:none;fill:black;font-family:-apple-system,&quot;SF Pro Display&quot;,&quot;SF Pro Text&quot;,Helvetica,sans-serif;text-anchor:middle;" transform="matrix(1 0 0 1 2636.69 322)">Heavy</text>
  <text style="stroke:none;fill:black;font-family:-apple-system,&quot;SF Pro Display&quot;,&quot;SF Pro Text&quot;,Helvetica,sans-serif;text-anchor:middle;" transform="matrix(1 0 0 1 2933.4 322)">Black</text>
  <line id="" style="fill:none;stroke:black;opacity:1;stroke-width:0.5;" x1="263" x2="3036" y1="1903" y2="1903"/>
  <g id="" transform="matrix(1 0 0 1 263 1933)">
   <path d="M9.24805 0.830078C13.5547 0.830078 17.1387-2.74414 17.1387-7.05078C17.1387-11.3574 13.5449-14.9316 9.23828-14.9316C4.94141-14.9316 1.36719-11.3574 1.36719-7.05078C1.36719-2.74414 4.95117 0.830078 9.24805 0.830078ZM9.24805-0.654297C5.70312-0.654297 2.87109-3.49609 2.87109-7.05078C2.87109-10.6055 5.69336-13.4473 9.23828-13.4473C12.793-13.4473 15.6348-10.6055 15.6445-7.05078C15.6543-3.49609 12.8027-0.654297 9.24805-0.654297ZM6.39648-6.31836L8.50586-6.31836L8.50586-4.19922C8.50586-3.75977 8.79883-3.45703 9.22852-3.45703C9.67773-3.45703 9.9707-3.75977 9.9707-4.19922L9.9707-6.31836L12.0996-6.31836C12.5391-6.31836 12.8418-6.61133 12.8418-7.04102C12.8418-7.48047 12.5391-7.7832 12.0996-7.7832L9.9707-7.7832L9.9707-9.89258C9.9707-10.3418 9.67773-10.6445 9.22852-10.6445C8.79883-10.6445 8.50586-10.3418 8.50586-9.89258L8.50586-7.7832L6.39648-7.7832C5.94727-7.7832 5.64453-7.48047 5.64453-7.04102C5.64453-6.61133 5.94727-6.31836 6.39648-6.31836Z"/>
  </g>
  <g id="" transform="matrix(1 0 0 1 281.506 1933)">
   <path d="M11.709 2.91016C17.1582 2.91016 21.6699-1.61133 21.6699-7.05078C21.6699-12.5 17.1484-17.0117 11.6992-17.0117C6.25977-17.0117 1.74805-12.5 1.74805-7.05078C1.74805-1.61133 6.26953 2.91016 11.709 2.91016ZM11.709 1.25C7.09961 1.25 3.41797-2.44141 3.41797-7.05078C3.41797-11.6602 7.08984-15.3516 11.6992-15.3516C16.3086-15.3516 20-11.6602 20.0098-7.05078C20.0195-2.44141 16.3184 1.25 11.709 1.25ZM7.98828-6.23047L10.8789-6.23047L10.8789-3.32031C10.8789-2.83203 11.2109-2.5 11.6895-2.5C12.1777-2.5 12.5195-2.83203 12.5195-3.32031L12.5195-6.23047L15.4297-6.23047C15.918-6.23047 16.25-6.5625 16.25-7.04102C16.25-7.5293 15.918-7.87109 15.4297-7.87109L12.5195-7.87109L12.5195-10.7617C12.5195-11.2695 12.1777-11.6016 11.6895-11.6016C11.2109-11.6016 10.8789-11.2598 10.8789-10.7617L10.8789-7.87109L7.98828-7.87109C7.48047-7.87109 7.14844-7.5293 7.14844-7.04102C7.14844-6.5625 7.49023-6.23047 7.98828-6.23047Z"/>
  </g>
  <g id="" transform="matrix(1 0 0 1 304.924 1933)">
   <path d="M14.9707 5.66406C21.9336 5.66406 27.6953-0.0976562 27.6953-7.05078C27.6953-14.0137 21.9238-19.7754 14.9609-19.7754C8.00781-19.7754 2.25586-14.0137 2.25586-7.05078C2.25586-0.0976562 8.01758 5.66406 14.9707 5.66406ZM14.9707 3.84766C8.93555 3.84766 4.08203-1.01562 4.08203-7.05078C4.08203-13.0957 8.92578-17.9492 14.9609-17.9492C21.0059-17.9492 25.8594-13.0957 25.8691-7.05078C25.8789-1.01562 21.0156 3.84766 14.9707 3.84766ZM10.0586-6.14258L14.0625-6.14258L14.0625-2.12891C14.0625-1.5918 14.4336-1.2207 14.9512-1.2207C15.4883-1.2207 15.8594-1.5918 15.8594-2.12891L15.8594-6.14258L19.8828-6.14258C20.4102-6.14258 20.791-6.51367 20.791-7.03125C20.791-7.56836 20.4199-7.94922 19.8828-7.94922L15.8594-7.94922L15.8594-11.9531C15.8594-12.5098 15.4883-12.8809 14.9512-12.8809C14.4336-12.8809 14.0625-12.5 14.0625-11.9531L14.0625-7.94922L10.0586-7.94922C9.50195-7.94922 9.13086-7.56836 9.13086-7.03125C9.13086-6.51367 9.51172-6.14258 10.0586-6.14258Z"/>
  </g>
  <text style="stroke:none;fill:black;font-family:-apple-system,&quot;SF Pro Display&quot;,&quot;SF Pro Text&quot;,Helvetica,sans-serif;font-weight:bold;" transform="matrix(1 0 0 1 263 1953)">Design Variations</text>
  <text style="stroke:none;fill:black;font-family:-apple-system,&quot;SF Pro Display&quot;,&quot;SF Pro Text&quot;,Helvetica,sans-serif;" transform="matrix(1 0 0 1 263 1971)">Symbols are supported in up to nine weights and three scales.</text>
  <text style="stroke:none;fill:black;font-family:-apple-system,&quot;SF Pro Display&quot;,&quot;SF Pro Text&quot;,Helvetica,sans-serif;" transform="matrix(1 0 0 1 263 1989)">For optimal layout with text and other symbols, vertically align</text>
  <text style="stroke:none;fill:black;font-family:-apple-system,&quot;SF Pro Display&quot;,&quot;SF Pro Text&quot;,Helvetica,sans-serif;" transform="matrix(1 0 0 1 263 2007)">symbols with the adjacent text.</text>
  <line id="" style="fill:none;stroke:#00AEEF;stroke-width:0.5;opacity:1.0;" x1="776" x2="776" y1="1919" y2="1933"/>
  <g id="" transform="matrix(1 0 0 1 776 1933)">
   <path d="M3.31055 0.126953C3.82812 0.126953 4.08203-0.0683594 4.26758-0.605469L5.52734-4.0625L11.2891-4.0625L12.5488-0.605469C12.7344-0.0683594 12.9883 0.126953 13.4961 0.126953C14.0137 0.126953 14.3457-0.185547 14.3457-0.673828C14.3457-0.839844 14.3164-0.986328 14.2383-1.20117L9.6582-13.3887C9.43359-13.9941 9.0332-14.2871 8.4082-14.2871C7.80273-14.2871 7.39258-13.9941 7.17773-13.3984L2.59766-1.19141C2.51953-0.976562 2.49023-0.830078 2.49023-0.664062C2.49023-0.175781 2.80273 0.126953 3.31055 0.126953ZM6.00586-5.53711L8.37891-12.1094L8.42773-12.1094L10.8008-5.53711Z"/>
  </g>
  <line id="" style="fill:none;stroke:#00AEEF;stroke-width:0.5;opacity:1.0;" x1="792.836" x2="792.836" y1="1919" y2="1933"/>
  <text style="stroke:none;fill:black;font-family:-apple-system,&quot;SF Pro Display&quot;,&quot;SF Pro Text&quot;,Helvetica,sans-serif;font-weight:bold;" transform="matrix(1 0 0 1 776 1953)">Margins</text>
  <text style="stroke:none;fill:black;font-family:-apple-system,&quot;SF Pro Display&quot;,&quot;SF Pro Text&quot;,Helvetica,sans-serif;" transform="matrix(1 0 0 1 776 1971)">Leading and trailing margins on the left and right side of each symbol</text>
  <text style="stroke:none;fill:black;font-family:-apple-system,&quot;SF Pro Display&quot;,&quot;SF Pro Text&quot;,Helvetica,sans-serif;" transform="matrix(1 0 0 1 776 1989)">can be adjusted by modifying the x-location of the margin guidelines.</text>
  <text style="stroke:none;fill:black;font-family:-apple-system,&quot;SF Pro Display&quot;,&quot;SF Pro Text&quot;,Helvetica,sans-serif;" transform="matrix(1 0 0 1 776 2007)">Modifications are automatically applied proportionally to all</text>
  <text style="stroke:none;fill:black;font-family:-apple-system,&quot;SF Pro Display&quot;,&quot;SF Pro Text&quot;,Helvetica,sans-serif;" transform="matrix(1 0 0 1 776 2025)">scales and weights.</text>
  <g id="" transform="matrix(1 0 0 1 1289 1933)">
   <path d="M2.8418 1.86523L4.54102 3.57422C5.40039 4.44336 6.38672 4.38477 7.31445 3.35938L17.4902-7.85156C17.7539-7.76367 18.0273-7.7832 18.3398-7.8418L19.4043-8.03711L20.0684-7.36328L20.0293-6.80664C19.9902-6.30859 20.1172-5.92773 20.6055-5.44922L21.3672-4.70703C21.8457-4.22852 22.4609-4.19922 22.9297-4.66797L25.8398-7.58789C26.3086-8.05664 26.2891-8.65234 25.8105-9.13086L25.0391-9.89258C24.5605-10.3711 24.1895-10.5273 23.7109-10.4883L23.1348-10.4395L22.4902-11.0742L22.7344-12.1973C22.8613-12.7637 22.7051-13.2031 22.1191-13.7891L19.9219-15.9766C16.582-19.2969 12.1484-19.2188 9.25781-16.3281C8.83789-15.918 8.80859-15.3418 9.04297-14.9512C9.27734-14.5898 9.73633-14.3555 10.3809-14.5215C11.8457-14.8633 13.3691-14.9219 14.7949-13.9844L14.209-12.5293C14.0137-12.0508 13.9844-11.6504 14.1113-11.2891L3.04688-0.898438C2.06055 0.0195312 1.98242 0.996094 2.8418 1.86523ZM10.752-15.957C13.1836-17.7344 16.4746-17.4316 18.7012-15.2051L21.1328-12.793C21.3672-12.5586 21.4062-12.373 21.3379-12.0312L21.0156-10.5469L22.5195-9.0625L23.5059-9.12109C23.7598-9.13086 23.8379-9.11133 24.0332-8.91602L24.6094-8.33984L22.168-5.89844L21.5918-6.47461C21.3965-6.66992 21.3672-6.74805 21.377-7.01172L21.4453-7.98828L19.9512-9.47266L18.4277-9.21875C18.1055-9.15039 17.959-9.17969 17.7148-9.41406L15.7129-11.416C15.459-11.6504 15.4297-11.8164 15.5859-12.1875L16.4648-14.2773C14.9023-15.7324 12.8711-16.3574 10.8398-15.7617C10.6836-15.7227 10.625-15.8496 10.752-15.957ZM5.27344 2.30469L4.10156 1.14258C3.63281 0.683594 3.74023 0.341797 4.14062-0.0195312L14.9512-10.1953L16.416-8.71094L6.42578 2.27539C6.07422 2.67578 5.74219 2.77344 5.27344 2.30469Z"/>
  </g>
  <text style="stroke:none;fill:black;font-family:-apple-system,&quot;SF Pro Display&quot;,&quot;SF Pro Text&quot;,Helvetica,sans-serif;font-weight:bold;" transform="matrix(1 0 0 1 1289 1953)">Exporting</text>
  <text style="stroke:none;fill:black;font-family:-apple-system,&quot;SF Pro Display&quot;,&quot;SF Pro Text&quot;,Helvetica,sans-serif;" transform="matrix(1 0 0 1 1289 1971)">Symbols should be outlined when exporting to ensure the</text>
  <text style="stroke:none;fill:black;font-family:-apple-system,&quot;SF Pro Display&quot;,&quot;SF Pro Text&quot;,Helvetica,sans-serif;" transform="matrix(1 0 0 1 1289 1989)">design is preserved when submitting to Xcode.</text>
  <text id="template-version" style="stroke:none;fill:black;font-family:-apple-system,&quot;SF Pro Display&quot;,&quot;SF Pro Text&quot;,Helvetica,sans-serif;text-anchor:end;" transform="matrix(1 0 0 1 3036 1933)">Template v.2.0</text>
  <text style="stroke:none;fill:black;font-family:-apple-system,&quot;SF Pro Display&quot;,&quot;SF Pro Text&quot;,Helvetica,sans-serif;text-anchor:end;" transform="matrix(1 0 0 1 3036 1951)">Requires Xcode 12 or greater</text>
  <text style="stroke:none;fill:black;font-family:-apple-system,&quot;SF Pro Display&quot;,&quot;SF Pro Text&quot;,Helvetica,sans-serif;" transform="matrix(1 0 0 1 263 726)">Small</text>
  <text style="stroke:none;fill:black;font-family:-apple-system,&quot;SF Pro Display&quot;,&quot;SF Pro Text&quot;,Helvetica,sans-serif;" transform="matrix(1 0 0 1 263 1156)">Medium</text>
  <text style="stroke:none;fill:black;font-family:-apple-system,&quot;SF Pro Display&quot;,&quot;SF Pro Text&quot;,Helvetica,sans-serif;" transform="matrix(1 0 0 1 263 1586)">Large</text>
 </g>
 <g id="Guides">
  <g id="H-reference" style="fill:#27AAE1;stroke:none;" transform="matrix(1 0 0 1 339 696)">
   <path d="M0.976562 0L3.66211 0L12.9883-24.4629L45.752-24.4629L55.127 0L57.7637 0L30.6152-70.459L28.125-70.459ZM29.3457-67.1387L29.4434-67.1387L44.873-26.709L13.8672-26.709Z"/>
  </g>
  <line id="Baseline-S" style="fill:none;stroke:#27AAE1;opacity:1;stroke-width:0.5;" x1="263" x2="3036" y1="696" y2="696"/>
  <line id="Capline-S" style="fill:none;stroke:#27AAE1;opacity:1;stroke-width:0.5;" x1="263" x2="3036" y1="625.541" y2="625.541"/>
  <g id="H-reference" style="fill:#27AAE1;stroke:none;" transform="matrix(1 0 0 1 339 1126)">
   <path d="M0.976562 0L3.66211 0L12.9883-24.4629L45.752-24.4629L55.127 0L57.7637 0L30.6152-70.459L28.125-70.459ZM29.3457-67.1387L29.4434-67.1387L44.873-26.709L13.8672-26.709Z"/>
  </g>
  <line id="Baseline-M" style="fill:none;stroke:#27AAE1;opacity:1;stroke-width:0.5;" x1="263" x2="3036" y1="1126" y2="1126"/>
  <line id="Capline-M" style="fill:none;stroke:#27AAE1;opacity:1;stroke-width:0.5;" x1="263" x2="3036" y1="1055.54" y2="1055.54"/>
  <g id="H-reference" style="fill:#27AAE1;stroke:none;" transform="matrix(1 0 0 1 339 1556)">
   <path d="M0.976562 0L3.66211 0L12.9883-24.4629L45.752-24.4629L55.127 0L57.7637 0L30.6152-70.459L28.125-70.459ZM29.3457-67.1387L29.4434-67.1387L44.873-26.709L13.8672-26.709Z"/>
  </g>
  <line id="Baseline-L" style="fill:none;stroke:#27AAE1;opacity:1;stroke-width:0.5;" x1="263" x2="3036" y1="1556" y2="1556"/>
  <line id="Capline-L" style="fill:none;stroke:#27AAE1;opacity:1;stroke-width:0.5;" x1="263" x2="3036" y1="1485.54" y2="1485.54"/>
  <line id="left-margin" x1="1415.9000195312499" x2="1415.9000195312499" y1="1030.79" y2="1150.12" style="fill:none;stroke:#00AEEF;stroke-width:0.5;opacity:1.0;"/>
  <line id="right-margin" x1="1486.3599804687499" x2="1486.3599804687499" y1="1030.79" y2="1150.12" style="fill:none;stroke:#00AEEF;stroke-width:0.5;opacity:1.0;"/>
 </g>
 <g id="Symbols">
  <g id="Black-L" transform="matrix(1.0,0.0,0.0,1.0,2889.2333251953123,1475.3233447265625)">  <path fill-rule="nonzero" fill-opacity="1" fill="#000000" stroke-dasharray="none" stroke-linejoin="round" stroke-miterlimit="4" stroke-linecap="round" stroke="none" stroke-opacity="1" stroke-width="2px" d="M87.901,71.957L87.901,46.458C87.901,40.011,85.255,33.847,80.581,29.407L56.43,6.467C50.276,0.621,40.621,0.621,34.467,6.468L10.313,29.406C5.638,33.847,2.992,40.011,2.992,46.458L2.992,71.957C2.992,80.763,10.13,87.901,18.936,87.901L71.957,87.901C80.763,87.901,87.901,80.763,87.901,71.957ZM71.162,71.957C71.162,71.518,71.518,71.162,71.957,71.162L18.936,71.162C19.375,71.162,19.731,71.518,19.731,71.957L19.731,46.458C19.731,44.6,20.494,42.823,21.841,41.543L45.995,18.605C45.689,18.895,45.208,18.895,44.901,18.604L69.052,41.544C70.399,42.823,71.162,44.6,71.162,46.458L71.162,71.957Z"/>
</g>
  <g id="Heavy-L" transform="matrix(1.0,0.0,0.0,1.0,2592.5233251953123,1475.3233447265625)">  <path stroke-dasharray="none" fill="#000000" fill-opacity="1" stroke-miterlimit="4" stroke-opacity="1" stroke-linecap="round" stroke-width="2px" fill-rule="nonzero" stroke-linejoin="round" stroke="none" d="M86.985,71.957L86.985,46.458C86.985,40.262,84.442,34.338,79.95,30.071L55.798,7.132C49.999,1.622,40.898,1.622,35.098,7.132L10.944,30.07C6.452,34.338,3.908,40.262,3.908,46.458L3.908,71.957C3.908,80.257,10.637,86.985,18.936,86.985L71.957,86.985C80.257,86.985,86.985,80.257,86.985,71.957ZM72.078,71.957C72.078,72.024,72.024,72.078,71.957,72.078L18.936,72.078C18.869,72.078,18.815,72.024,18.815,71.957L18.815,46.458C18.815,44.348,19.681,42.331,21.21,40.879L45.364,17.94C45.412,17.895,45.485,17.895,45.532,17.939L69.684,40.879C71.213,42.331,72.078,44.348,72.078,46.458L72.078,71.957Z"/>
</g>
  <g id="Bold-L" transform="matrix(1.0,0.0,0.0,1.0,2295.8133251953122,1475.3233447265625)">  <path stroke-linecap="round" fill="#000000" stroke="none" fill-rule="nonzero" fill-opacity="1" stroke-miterlimit="4" stroke-dasharray="none" stroke-opacity="1" stroke-linejoin="round" stroke-width="2px" d="M86.068,71.957L86.068,46.458C86.068,40.514,83.628,34.83,79.319,30.736L55.167,7.796C49.721,2.622,41.176,2.622,35.729,7.797L11.575,30.735C7.265,34.83,4.825,40.514,4.825,46.458L4.825,71.957C4.825,79.751,11.143,86.068,18.936,86.068L71.957,86.068C79.751,86.068,86.068,79.751,86.068,71.957ZM72.995,71.957C72.995,72.53,72.53,72.995,71.957,72.995L18.936,72.995C18.363,72.995,17.898,72.53,17.898,71.957L17.898,46.458C17.898,44.097,18.867,41.84,20.579,40.214L44.733,17.276C45.134,16.894,45.763,16.894,46.163,17.275L70.315,40.214C72.026,41.84,72.995,44.097,72.995,46.458L72.995,71.957Z"/>
</g>
  <g id="Semibold-L" transform="matrix(1.0,0.0,0.0,1.0,1999.1033251953124,1475.3233447265625)">  <path fill="#000000" stroke-linejoin="round" stroke-width="2px" stroke="none" stroke-dasharray="none" stroke-miterlimit="4" stroke-opacity="1" fill-opacity="1" fill-rule="nonzero" stroke-linecap="round" d="M85.152,71.957L85.152,46.458C85.152,40.765,82.815,35.321,78.688,31.4L54.536,8.461C49.444,3.623,41.453,3.623,36.361,8.461L12.207,31.4C8.078,35.321,5.741,40.765,5.741,46.458L5.741,71.957C5.741,79.244,11.649,85.152,18.936,85.152L71.957,85.152C79.244,85.152,85.152,79.244,85.152,71.957ZM73.911,71.957C73.911,73.037,73.037,73.911,71.957,73.911L18.936,73.911C17.857,73.911,16.982,73.037,16.982,71.957L16.982,46.458C16.982,43.846,18.054,41.349,19.948,39.55L44.102,16.611C44.857,15.894,46.04,15.894,46.795,16.61L70.946,39.55C72.839,41.349,73.911,43.846,73.911,46.458L73.911,71.957Z"/>
</g>
  <g id="Medium-L" transform="matrix(1.0,0.0,0.0,1.0,1702.3933251953124,1475.3233447265625)">  <path stroke="none" fill-opacity="1" stroke-linejoin="round" stroke-opacity="1" stroke-dasharray="none" fill="#000000" stroke-miterlimit="4" stroke-width="2px" fill-rule="nonzero" stroke-linecap="round" d="M84.235,71.957L84.235,46.458C84.235,41.016,82.002,35.813,78.056,32.065L53.905,9.125C49.166,4.623,41.731,4.623,36.992,9.126L12.838,32.064C8.892,35.813,6.658,41.016,6.658,46.458L6.658,71.957C6.658,78.738,12.155,84.235,18.936,84.235L71.957,84.235C78.738,84.235,84.235,78.738,84.235,71.957ZM74.828,71.957C74.828,73.543,73.543,74.828,71.957,74.828L18.936,74.828C17.351,74.828,16.065,73.543,16.065,71.957L16.065,46.458C16.065,43.595,17.241,40.857,19.316,38.885L43.471,15.946C44.579,14.893,46.318,14.893,47.426,15.946L71.577,38.885C73.653,40.857,74.828,43.595,74.828,46.458L74.828,71.957Z"/>
</g>
  <g id="Regular-L" transform="matrix(1.0,0.0,0.0,1.0,1405.6833251953124,1475.3233447265625)">  <path fill="#000000" stroke-linejoin="round" stroke-miterlimit="4" stroke-dasharray="none" fill-opacity="1" stroke="none" fill-rule="nonzero" stroke-width="2px" stroke-linecap="round" stroke-opacity="1" d="M83.319,71.957L83.319,46.458C83.319,41.267,81.188,36.304,77.425,32.729L53.274,9.79C48.889,5.624,42.008,5.624,37.623,9.79L13.469,32.729C9.705,36.304,7.574,41.267,7.574,46.458L7.574,71.957C7.574,78.232,12.661,83.319,18.936,83.319L71.957,83.319C78.232,83.319,83.319,78.232,83.319,71.957ZM75.744,71.957C75.744,74.049,74.049,75.744,71.957,75.744L18.936,75.744C16.844,75.744,15.149,74.049,15.149,71.957L15.149,46.458C15.149,43.343,16.427,40.366,18.685,38.221L42.84,15.282C44.302,13.893,46.595,13.893,48.057,15.281L72.208,38.221C74.466,40.366,75.744,43.343,75.744,46.458L75.744,71.957Z"/>
</g>
  <g id="Light-L" transform="matrix(1.0,0.0,0.0,1.0,1108.9733251953126,1475.3233447265625)">  <path stroke="none" stroke-linejoin="round" fill-opacity="1" stroke-dasharray="none" fill-rule="nonzero" stroke-width="2px" stroke-miterlimit="4" stroke-opacity="1" fill="#000000" stroke-linecap="round" d="M82.688,71.957L82.688,46.458C82.688,41.44,80.628,36.643,76.99,33.187L52.839,10.247C48.698,6.313,42.2,6.313,38.058,10.248L13.903,33.186C10.265,36.643,8.206,41.44,8.206,46.458L8.206,71.957C8.206,77.884,13.01,82.688,18.936,82.688L71.957,82.688C77.884,82.688,82.688,77.884,82.688,71.957ZM76.376,71.957C76.376,74.397,74.397,76.376,71.957,76.376L18.936,76.376C16.496,76.376,14.518,74.397,14.518,71.957L14.518,46.458C14.518,43.17,15.867,40.027,18.25,37.763L42.405,14.824C44.111,13.204,46.786,13.204,48.492,14.824L72.643,37.763C75.026,40.027,76.376,43.17,76.376,46.458L76.376,71.957Z"/>
</g>
  <g id="Thin-L" transform="matrix(1.0,0.0,0.0,1.0,812.2633251953125,1475.3233447265625)">  <path fill="#000000" stroke-dasharray="none" stroke-miterlimit="4" stroke="none" stroke-linecap="round" fill-rule="nonzero" stroke-width="2px" fill-opacity="1" stroke-opacity="1" stroke-linejoin="round" d="M82.056,71.957L82.056,46.458C82.057,41.613,80.068,36.981,76.556,33.644L52.404,10.705C48.506,7.002,42.391,7.002,38.493,10.705L14.338,33.644C10.825,36.981,8.837,41.613,8.837,46.458L8.837,71.957C8.837,77.535,13.358,82.056,18.936,82.056L71.957,82.056C77.535,82.056,82.056,77.535,82.056,71.957ZM77.007,71.957C77.007,74.746,74.746,77.007,71.957,77.007L18.936,77.007C16.147,77.007,13.886,74.746,13.886,71.957L13.886,46.458C13.886,42.997,15.307,39.689,17.816,37.305L41.97,14.366C43.92,12.515,46.978,12.515,48.927,14.366L73.078,37.306C75.586,39.689,77.007,42.997,77.007,46.458L77.007,71.957Z"/>
</g>
  <g id="Ultralight-L" transform="matrix(1.0,0.0,0.0,1.0,515.5533251953125,1475.3233447265625)">  <path stroke-miterlimit="4" fill-opacity="1" stroke-width="2px" fill="#000000" stroke-opacity="1" stroke-dasharray="none" fill-rule="nonzero" stroke-linecap="round" stroke-linejoin="round" stroke="none" d="M81.425,71.957L81.425,46.458C81.425,41.786,79.508,37.32,76.121,34.102L51.97,11.163C48.315,7.691,42.582,7.691,38.927,11.163L14.773,34.102C11.386,37.32,9.468,41.786,9.468,46.458L9.468,71.957C9.468,77.186,13.707,81.425,18.936,81.425L71.957,81.425C77.186,81.425,81.425,77.186,81.425,71.957ZM77.638,71.957C77.638,75.095,75.095,77.638,71.957,77.638L18.936,77.638C15.799,77.638,13.255,75.095,13.255,71.957L13.255,46.458C13.255,42.824,14.747,39.35,17.381,36.848L41.536,13.909C43.729,11.826,47.169,11.826,49.361,13.909L73.512,36.848C76.147,39.35,77.638,42.824,77.638,46.458L77.638,71.957Z"/>
</g>
  <g id="Black-M" transform="matrix(1.0,0.0,0.0,1.0,2899.45001953125,1055.5400390625)">  <path fill-rule="nonzero" fill-opacity="1" fill="#000000" stroke-dasharray="none" stroke-linejoin="round" stroke-miterlimit="4" stroke-linecap="round" stroke="none" stroke-opacity="1" stroke-width="2px" d="M68.141,55.781L68.141,36.014C68.141,31.016,66.089,26.238,62.466,22.796L43.744,5.013C38.974,0.482,31.489,0.482,26.719,5.014L7.995,22.795C4.371,26.238,2.319,31.016,2.319,36.014L2.319,55.781C2.319,62.607,7.853,68.141,14.679,68.141L55.781,68.141C62.607,68.141,68.141,62.607,68.141,55.781ZM55.164,55.781C55.164,55.44,55.44,55.164,55.781,55.164L14.679,55.164C15.02,55.164,15.296,55.44,15.296,55.781L15.296,36.014C15.296,34.573,15.887,33.196,16.931,32.204L35.655,14.422C35.418,14.648,35.045,14.648,34.807,14.422L53.529,32.204C54.573,33.196,55.164,34.573,55.164,36.014L55.164,55.781Z"/>
</g>
  <g id="Heavy-M" transform="matrix(1.0,0.0,0.0,1.0,2602.74001953125,1055.5400390625)">  <path stroke-dasharray="none" fill="#000000" fill-opacity="1" stroke-miterlimit="4" stroke-opacity="1" stroke-linecap="round" stroke-width="2px" fill-rule="nonzero" stroke-linejoin="round" stroke="none" d="M67.43,55.781L67.43,36.014C67.43,31.211,65.459,26.619,61.977,23.311L43.255,5.528C38.759,1.257,31.704,1.257,27.208,5.529L8.484,23.31C5.001,26.619,3.03,31.211,3.03,36.014L3.03,55.781C3.03,62.215,8.245,67.43,14.679,67.43L55.781,67.43C62.215,67.43,67.43,62.215,67.43,55.781ZM55.875,55.781C55.875,55.833,55.833,55.875,55.781,55.875L14.679,55.875C14.627,55.875,14.585,55.833,14.585,55.781L14.585,36.014C14.585,34.379,15.256,32.815,16.442,31.689L35.166,13.907C35.203,13.872,35.26,13.872,35.296,13.906L54.018,31.689C55.204,32.815,55.875,34.379,55.875,36.014L55.875,55.781Z"/>
</g>
  <g id="Bold-M" transform="matrix(1.0,0.0,0.0,1.0,2306.0300195312498,1055.5400390625)">  <path stroke-linecap="round" fill="#000000" stroke="none" fill-rule="nonzero" fill-opacity="1" stroke-miterlimit="4" stroke-dasharray="none" stroke-opacity="1" stroke-linejoin="round" stroke-width="2px" d="M66.72,55.781L66.72,36.014C66.72,31.406,64.828,27,61.487,23.826L42.765,6.044C38.544,2.033,31.919,2.033,27.697,6.044L8.973,23.826C5.632,27,3.74,31.406,3.74,36.014L3.74,55.781C3.74,61.822,8.638,66.72,14.679,66.72L55.781,66.72C61.822,66.72,66.72,61.822,66.72,55.781ZM56.585,55.781C56.585,56.225,56.225,56.585,55.781,56.585L14.679,56.585C14.235,56.585,13.875,56.225,13.875,55.781L13.875,36.014C13.875,34.184,14.626,32.434,15.953,31.174L34.677,13.392C34.988,13.096,35.475,13.096,35.785,13.391L54.508,31.174C55.834,32.434,56.585,34.184,56.585,36.014L56.585,55.781Z"/>
</g>
  <g id="Semibold-M" transform="matrix(1.0,0.0,0.0,1.0,2009.32001953125,1055.5400390625)">  <path fill="#000000" stroke-linejoin="round" stroke-width="2px" stroke="none" stroke-dasharray="none" stroke-miterlimit="4" stroke-opacity="1" fill-opacity="1" fill-rule="nonzero" stroke-linecap="round" d="M66.009,55.781L66.009,36.014C66.009,31.601,64.198,27.381,60.998,24.341L42.276,6.559C38.328,2.809,32.134,2.809,28.187,6.559L9.462,24.341C6.262,27.381,4.451,31.601,4.451,36.014L4.451,55.781C4.451,61.43,9.03,66.009,14.679,66.009L55.781,66.009C61.43,66.009,66.009,61.43,66.009,55.781ZM57.296,55.781C57.296,56.617,56.617,57.296,55.781,57.296L14.679,57.296C13.843,57.296,13.164,56.617,13.164,55.781L13.164,36.014C13.164,33.989,13.995,32.053,15.463,30.659L34.188,12.877C34.773,12.321,35.69,12.321,36.275,12.876L54.997,30.659C56.465,32.053,57.296,33.989,57.296,36.014L57.296,55.781Z"/>
</g>
  <g id="Medium-M" transform="matrix(1.0,0.0,0.0,1.0,1712.61001953125,1055.5400390625)">  <path stroke="none" fill-opacity="1" stroke-linejoin="round" stroke-opacity="1" stroke-dasharray="none" fill="#000000" stroke-miterlimit="4" stroke-width="2px" fill-rule="nonzero" stroke-linecap="round" d="M65.299,55.781L65.299,36.014C65.299,31.795,63.567,27.762,60.509,24.856L41.787,7.074C38.113,3.584,32.35,3.584,28.676,7.074L9.952,24.856C6.893,27.762,5.161,31.795,5.161,36.014L5.161,55.781C5.161,61.037,9.423,65.299,14.679,65.299L55.781,65.299C61.037,65.299,65.299,61.037,65.299,55.781ZM58.006,55.781C58.006,57.01,57.01,58.006,55.781,58.006L14.679,58.006C13.45,58.006,12.454,57.01,12.454,55.781L12.454,36.014C12.454,33.794,13.365,31.672,14.974,30.144L33.698,12.362C34.558,11.545,35.905,11.545,36.764,12.361L55.486,30.144C57.095,31.672,58.006,33.794,58.006,36.014L58.006,55.781Z"/>
</g>
  <g id="Regular-M" transform="matrix(1.0,0.0,0.0,1.0,1415.9000195312499,1055.5400390625)">  <path fill="#000000" stroke-linejoin="round" stroke-miterlimit="4" stroke-dasharray="none" fill-opacity="1" stroke="none" fill-rule="nonzero" stroke-width="2px" stroke-linecap="round" stroke-opacity="1" d="M64.588,55.781L64.588,36.014C64.588,31.99,62.937,28.143,60.019,25.371L41.297,7.589C37.898,4.36,32.565,4.36,29.165,7.589L10.441,25.371C7.523,28.143,5.872,31.99,5.872,36.014L5.872,55.781C5.872,60.645,9.815,64.588,14.679,64.588L55.781,64.588C60.645,64.588,64.588,60.645,64.588,55.781ZM58.717,55.781C58.717,57.402,57.402,58.717,55.781,58.717L14.679,58.717C13.058,58.717,11.743,57.402,11.743,55.781L11.743,36.014C11.743,33.6,12.734,31.291,14.485,29.628L33.209,11.846C34.343,10.77,36.12,10.77,37.254,11.846L55.976,29.629C57.726,31.291,58.717,33.6,58.717,36.014L58.717,55.781Z"/>
</g>
  <g id="Light-M" transform="matrix(1.0,0.0,0.0,1.0,1119.19001953125,1055.5400390625)">  <path stroke="none" stroke-linejoin="round" fill-opacity="1" stroke-dasharray="none" fill-rule="nonzero" stroke-width="2px" stroke-miterlimit="4" stroke-opacity="1" fill="#000000" stroke-linecap="round" d="M64.099,55.781L64.099,36.014C64.099,32.124,62.502,28.405,59.682,25.726L40.96,7.944C37.75,4.894,32.713,4.894,29.502,7.944L10.778,25.726C7.958,28.405,6.361,32.124,6.361,36.014L6.361,55.781C6.361,60.375,10.085,64.099,14.679,64.099L55.781,64.099C60.375,64.099,64.099,60.375,64.099,55.781ZM59.206,55.781C59.206,57.672,57.672,59.206,55.781,59.206L14.679,59.206C12.788,59.206,11.254,57.672,11.254,55.781L11.254,36.014C11.254,33.465,12.3,31.029,14.148,29.274L32.872,11.492C34.194,10.235,36.269,10.235,37.591,11.491L56.312,29.274C58.16,31.029,59.206,33.465,59.206,36.014L59.206,55.781Z"/>
</g>
  <g id="Thin-M" transform="matrix(1.0,0.0,0.0,1.0,822.48001953125,1055.5400390625)">  <path fill="#000000" stroke-dasharray="none" stroke-miterlimit="4" stroke="none" stroke-linecap="round" fill-rule="nonzero" stroke-width="2px" fill-opacity="1" stroke-opacity="1" stroke-linejoin="round" d="M63.61,55.781L63.61,36.014C63.61,32.258,62.068,28.668,59.345,26.081L40.623,8.298C37.602,5.428,32.861,5.428,29.839,8.299L11.115,26.081C8.392,28.668,6.85,32.258,6.85,36.014L6.85,55.781C6.85,60.105,10.355,63.61,14.679,63.61L55.781,63.61C60.105,63.61,63.61,60.105,63.61,55.781ZM59.695,55.781C59.695,57.943,57.943,59.695,55.781,59.695L14.679,59.695C12.517,59.695,10.765,57.943,10.765,55.781L10.765,36.014C10.765,33.331,11.866,30.766,13.811,28.919L32.535,11.137C34.046,9.701,36.417,9.701,37.928,11.137L56.649,28.919C58.594,30.766,59.695,33.331,59.695,36.014L59.695,55.781Z"/>
</g>
  <g id="Ultralight-M" transform="matrix(1.0,0.0,0.0,1.0,525.77001953125,1055.5400390625)">  <path stroke-miterlimit="4" fill-opacity="1" stroke-width="2px" fill="#000000" stroke-opacity="1" stroke-dasharray="none" fill-rule="nonzero" stroke-linecap="round" stroke-linejoin="round" stroke="none" d="M63.12,55.781L63.12,36.014C63.12,32.392,61.634,28.93,59.008,26.436L40.286,8.653C37.454,5.962,33.009,5.962,30.176,8.653L11.452,26.436C8.826,28.93,7.34,32.392,7.34,36.014L7.34,55.781C7.34,59.834,10.626,63.12,14.679,63.12L55.781,63.12C59.834,63.12,63.12,59.834,63.12,55.781ZM60.185,55.781C60.185,58.213,58.213,60.185,55.781,60.185L14.679,60.185C12.247,60.185,10.275,58.213,10.275,55.781L10.275,36.014C10.275,33.197,11.432,30.504,13.474,28.564L32.198,10.782C33.898,9.167,36.565,9.167,38.265,10.782L56.986,28.564C59.028,30.504,60.185,33.197,60.185,36.014L60.185,55.781Z"/>
</g>
  <g id="Black-S" transform="matrix(1.0,0.0,0.0,1.0,2907.0949252929686,633.1849448242187)">  <path fill-rule="nonzero" fill-opacity="1" fill="#000000" stroke-dasharray="none" stroke-linejoin="round" stroke-miterlimit="4" stroke-linecap="round" stroke="none" stroke-opacity="1" stroke-width="2px" d="M53.354,43.676L53.354,28.199C53.354,24.286,51.748,20.544,48.911,17.849L34.251,3.925C30.516,0.377,24.656,0.377,20.921,3.926L6.26,17.849C3.422,20.544,1.816,24.286,1.816,28.199L1.816,43.676C1.816,49.021,6.149,53.354,11.494,53.354L43.676,53.354C49.021,53.354,53.354,49.021,53.354,43.676ZM43.194,43.676C43.194,43.41,43.41,43.194,43.676,43.194L11.494,43.194C11.76,43.194,11.977,43.41,11.977,43.676L11.977,28.199C11.977,27.071,12.44,25.992,13.257,25.216L27.918,11.293C27.732,11.469,27.44,11.469,27.254,11.292L41.913,25.216C42.731,25.992,43.194,27.071,43.194,28.199L43.194,43.676Z"/>
</g>
  <g id="Heavy-S" transform="matrix(1.0,0.0,0.0,1.0,2610.3849252929685,633.1849448242187)">  <path stroke-dasharray="none" fill="#000000" fill-opacity="1" stroke-miterlimit="4" stroke-opacity="1" stroke-linecap="round" stroke-width="2px" fill-rule="nonzero" stroke-linejoin="round" stroke="none" d="M52.798,43.676L52.798,28.199C52.798,24.438,51.254,20.843,48.528,18.253L33.868,4.329C30.348,0.984,24.824,0.984,21.304,4.329L6.643,18.252C3.916,20.843,2.372,24.438,2.372,28.199L2.372,43.676C2.372,48.714,6.456,52.798,11.494,52.798L43.676,52.798C48.714,52.798,52.798,48.714,52.798,43.676ZM43.75,43.676C43.75,43.717,43.717,43.75,43.676,43.75L11.494,43.75C11.453,43.75,11.42,43.717,11.42,43.676L11.42,28.199C11.42,26.918,11.946,25.694,12.874,24.812L27.535,10.889C27.564,10.862,27.608,10.862,27.637,10.889L42.296,24.813C43.224,25.694,43.75,26.918,43.75,28.199L43.75,43.676Z"/>
</g>
  <g id="Bold-S" transform="matrix(1.0,0.0,0.0,1.0,2313.6749252929685,633.1849448242187)">  <path stroke-linecap="round" fill="#000000" stroke="none" fill-rule="nonzero" fill-opacity="1" stroke-miterlimit="4" stroke-dasharray="none" stroke-opacity="1" stroke-linejoin="round" stroke-width="2px" d="M52.242,43.676L52.242,28.199C52.242,24.591,50.76,21.141,48.145,18.656L33.485,4.732C30.18,1.592,24.993,1.592,21.687,4.732L7.026,18.655C4.41,21.141,2.929,24.591,2.929,28.199L2.929,43.676C2.929,48.407,6.763,52.242,11.494,52.242L43.676,52.242C48.407,52.242,52.242,48.407,52.242,43.676ZM44.306,43.676C44.306,44.024,44.024,44.306,43.676,44.306L11.494,44.306C11.146,44.306,10.864,44.024,10.864,43.676L10.864,28.199C10.864,26.766,11.452,25.396,12.491,24.409L27.152,10.486C27.396,10.254,27.777,10.254,28.02,10.485L42.679,24.409C43.718,25.396,44.306,26.766,44.306,28.199L44.306,43.676Z"/>
</g>
  <g id="Semibold-S" transform="matrix(1.0,0.0,0.0,1.0,2016.9649252929687,633.1849448242187)">  <path fill="#000000" stroke-linejoin="round" stroke-width="2px" stroke="none" stroke-dasharray="none" stroke-miterlimit="4" stroke-opacity="1" fill-opacity="1" fill-rule="nonzero" stroke-linecap="round" d="M51.685,43.676L51.685,28.199C51.685,24.743,50.267,21.439,47.761,19.059L33.102,5.135C30.011,2.199,25.161,2.199,22.07,5.136L7.409,19.059C4.903,21.439,3.485,24.743,3.485,28.199L3.485,43.676C3.485,48.1,7.071,51.685,11.494,51.685L43.676,51.685C48.1,51.685,51.685,48.1,51.685,43.676ZM44.863,43.676C44.863,44.331,44.331,44.863,43.676,44.863L11.494,44.863C10.839,44.863,10.308,44.331,10.308,43.676L10.308,28.199C10.308,26.613,10.958,25.098,12.108,24.006L26.769,10.083C27.227,9.647,27.945,9.647,28.403,10.082L43.063,24.006C44.212,25.098,44.863,26.613,44.863,28.199L44.863,43.676Z"/>
</g>
  <g id="Medium-S" transform="matrix(1.0,0.0,0.0,1.0,1720.2549252929687,633.1849448242187)">  <path stroke="none" fill-opacity="1" stroke-linejoin="round" stroke-opacity="1" stroke-dasharray="none" fill="#000000" stroke-miterlimit="4" stroke-width="2px" fill-rule="nonzero" stroke-linecap="round" d="M51.129,43.676L51.129,28.199C51.129,24.896,49.773,21.738,47.378,19.463L32.719,5.539C29.843,2.806,25.33,2.806,22.453,5.539L7.792,19.462C5.397,21.738,4.041,24.896,4.041,28.199L4.041,43.676C4.041,47.792,7.378,51.129,11.494,51.129L43.676,51.129C47.792,51.129,51.129,47.792,51.129,43.676ZM45.419,43.676C45.419,44.639,44.639,45.419,43.676,45.419L11.494,45.419C10.531,45.419,9.751,44.639,9.751,43.676L9.751,28.199C9.751,26.461,10.465,24.799,11.725,23.602L26.386,9.679C27.059,9.04,28.114,9.04,28.786,9.679L43.446,23.603C44.705,24.799,45.419,26.461,45.419,28.199L45.419,43.676Z"/>
</g>
  <g id="Regular-S" transform="matrix(1.0,0.0,0.0,1.0,1423.5449252929686,633.1849448242187)">  <path fill="#000000" stroke-linejoin="round" stroke-miterlimit="4" stroke-dasharray="none" fill-opacity="1" stroke="none" fill-rule="nonzero" stroke-width="2px" stroke-linecap="round" stroke-opacity="1" d="M50.573,43.676L50.573,28.199C50.573,25.048,49.279,22.036,46.995,19.866L32.336,5.942C29.674,3.414,25.498,3.414,22.836,5.942L8.175,19.866C5.891,22.036,4.598,25.048,4.598,28.199L4.598,43.676C4.598,47.485,7.685,50.573,11.494,50.573L43.676,50.573C47.485,50.573,50.573,47.485,50.573,43.676ZM45.975,43.676C45.975,44.946,44.946,45.975,43.676,45.975L11.494,45.975C10.224,45.975,9.195,44.946,9.195,43.676L9.195,28.199C9.195,26.308,9.971,24.501,11.341,23.199L26.003,9.276C26.89,8.433,28.282,8.433,29.169,9.275L43.829,23.199C45.199,24.501,45.975,26.308,45.975,28.199L45.975,43.676Z"/>
</g>
  <g id="Light-S" transform="matrix(1.0,0.0,0.0,1.0,1126.8349252929688,633.1849448242187)">  <path stroke="none" stroke-linejoin="round" fill-opacity="1" stroke-dasharray="none" fill-rule="nonzero" stroke-width="2px" stroke-miterlimit="4" stroke-opacity="1" fill="#000000" stroke-linecap="round" d="M50.19,43.676L50.19,28.199C50.19,25.153,48.939,22.241,46.731,20.144L32.072,6.22C29.558,3.832,25.614,3.832,23.1,6.22L8.439,20.143C6.231,22.241,4.981,25.153,4.981,28.199L4.981,43.676C4.981,47.273,7.897,50.19,11.494,50.19L43.676,50.19C47.273,50.19,50.19,47.273,50.19,43.676ZM46.358,43.676C46.358,45.158,45.158,46.358,43.676,46.358L11.494,46.358C10.013,46.358,8.812,45.158,8.812,43.676L8.812,28.199C8.812,26.203,9.631,24.296,11.078,22.921L25.739,8.998C26.774,8.014,28.398,8.014,29.433,8.998L44.093,22.921C45.539,24.296,46.358,26.203,46.358,28.199L46.358,43.676Z"/>
</g>
  <g id="Thin-S" transform="matrix(1.0,0.0,0.0,1.0,830.1249252929688,633.1849448242187)">  <path fill="#000000" stroke-dasharray="none" stroke-miterlimit="4" stroke="none" stroke-linecap="round" fill-rule="nonzero" stroke-width="2px" fill-opacity="1" stroke-opacity="1" stroke-linejoin="round" d="M49.806,43.676L49.806,28.199C49.806,25.258,48.599,22.447,46.467,20.421L31.808,6.498C29.442,4.25,25.73,4.25,23.364,6.498L8.703,20.421C6.571,22.447,5.364,25.258,5.364,28.199L5.364,43.676C5.364,47.062,8.108,49.806,11.494,49.806L43.676,49.806C47.062,49.806,49.806,47.062,49.806,43.676ZM46.741,43.676C46.741,45.369,45.369,46.741,43.676,46.741L11.494,46.741C9.801,46.741,8.429,45.369,8.429,43.676L8.429,28.199C8.429,26.098,9.291,24.09,10.814,22.644L25.475,8.72C26.658,7.596,28.514,7.596,29.697,8.72L44.357,22.644C45.879,24.09,46.741,26.098,46.741,28.199L46.741,43.676Z"/>
</g>
  <g id="Ultralight-S" transform="matrix(1.0,0.0,0.0,1.0,533.4149252929687,633.1849448242187)">  <path stroke-miterlimit="4" fill-opacity="1" stroke-width="2px" fill="#000000" stroke-opacity="1" stroke-dasharray="none" fill-rule="nonzero" stroke-linecap="round" stroke-linejoin="round" stroke="none" d="M49.423,43.676L49.423,28.199C49.423,25.363,48.259,22.652,46.204,20.699L31.544,6.776C29.326,4.668,25.846,4.668,23.628,6.776L8.967,20.699C6.911,22.652,5.747,25.363,5.747,28.199L5.747,43.676C5.747,46.85,8.32,49.423,11.494,49.423L43.676,49.423C46.85,49.423,49.423,46.85,49.423,43.676ZM47.125,43.676C47.125,45.581,45.581,47.125,43.676,47.125L11.494,47.125C9.589,47.125,8.046,45.581,8.046,43.676L8.046,28.199C8.046,25.993,8.951,23.885,10.55,22.366L25.211,8.442C26.542,7.178,28.63,7.178,29.961,8.442L44.62,22.366C46.219,23.885,47.125,25.993,47.125,28.199L47.125,43.676Z"/>
</g>
 </g>
</svg>
