<?xml version="1.0" encoding="UTF-8"?>
<!-- Generator: CustomSymbols v2.6.2.41 by @serious_bret https://bretlester.com/app_content/CustomSymbols/ -->
<!-- Guides: Left/Right 0.0/0.0 Cap/Base 0.227/0.127 -->
<!-- Settings: RefScale 1.0 Min/Max Stroke Scales 0.5/2.21 -->
<!DOCTYPE svg
PUBLIC "-//W3C//DTD SVG 1.1//EN"
       "http://www.w3.org/Graphics/SVG/1.1/DTD/svg11.dtd">
<svg version="1.1" xmlns="http://www.w3.org/2000/svg" xmlns:xlink="http://www.w3.org/1999/xlink" width="3300" height="2200">
<![CDATA[<svg width="28" height="28" viewBox="0 0 28 28" fill="none" xmlns="http://www.w3.org/2000/svg">
<path d="M12.889 2.75959C13.273 1.7468 14.7261 1.7468 15.1113 2.75959L17.5952 9.64028C17.7692 10.0963 18.212 10.3999 18.7063 10.3999H24.8105C25.9384 10.3999 26.4304 11.8039 25.5436 12.4914L21.1998 16.3998C21.0052 16.5494 20.863 16.7567 20.7936 16.9922C20.7242 17.2276 20.7312 17.4789 20.8134 17.7102L22.3998 24.4337C22.7862 25.5136 21.5358 26.4412 20.5903 25.7764L14.6901 22.0325C14.4881 21.8905 14.2471 21.8143 14.0001 21.8143C13.7532 21.8143 13.5122 21.8905 13.3102 22.0325L7.41004 25.7764C6.46568 26.4412 5.21414 25.5124 5.60052 24.4337L7.18685 17.7102C7.26914 17.4789 7.27607 17.2276 7.20666 16.9922C7.13724 16.7567 6.99504 16.5494 6.80047 16.3998L2.45666 12.4914C1.5687 11.8039 2.06307 10.3999 3.18863 10.3999H9.29275C9.53309 10.4007 9.76801 10.3285 9.96643 10.1928C10.1648 10.0572 10.3174 9.86452 10.4039 9.64028L12.8878 2.75959H12.889Z" stroke="black" stroke-width="3" stroke-linecap="round" stroke-linejoin="round"/>
</svg>
]]>
 <g id="Notes">
  <rect height="2200" id="artboard" style="fill:white;opacity:1" width="3300" x="0" y="0"/>
  <line id="" style="fill:none;stroke:black;opacity:1;stroke-width:0.5;" x1="263" x2="3036" y1="292" y2="292"/>
  <text id="reftext1" style="stroke:none;fill:black;font-family:-apple-system,&quot;SF Pro Display&quot;,&quot;SF Pro Text&quot;,Helvetica,sans-serif;font-weight:bold;" transform="matrix(1 0 0 1 263 322)">Weight/Scale Variations</text>
  <text id="reftext2" style="stroke:none;fill:black;font-family:-apple-system,&quot;SF Pro Display&quot;,&quot;SF Pro Text&quot;,Helvetica,sans-serif;text-anchor:middle;" transform="matrix(1 0 0 1 559.711 322)">Ultralight</text>
  <text style="stroke:none;fill:black;font-family:-apple-system,&quot;SF Pro Display&quot;,&quot;SF Pro Text&quot;,Helvetica,sans-serif;text-anchor:middle;" transform="matrix(1 0 0 1 856.422 322)">Thin</text>
  <text style="stroke:none;fill:black;font-family:-apple-system,&quot;SF Pro Display&quot;,&quot;SF Pro Text&quot;,Helvetica,sans-serif;text-anchor:middle;" transform="matrix(1 0 0 1 1153.13 322)">Light</text>
  <text style="stroke:none;fill:black;font-family:-apple-system,&quot;SF Pro Display&quot;,&quot;SF Pro Text&quot;,Helvetica,sans-serif;text-anchor:middle;" transform="matrix(1 0 0 1 1449.84 322)">Regular</text>
  <text style="stroke:none;fill:black;font-family:-apple-system,&quot;SF Pro Display&quot;,&quot;SF Pro Text&quot;,Helvetica,sans-serif;text-anchor:middle;" transform="matrix(1 0 0 1 1746.56 322)">Medium</text>
  <text style="stroke:none;fill:black;font-family:-apple-system,&quot;SF Pro Display&quot;,&quot;SF Pro Text&quot;,Helvetica,sans-serif;text-anchor:middle;" transform="matrix(1 0 0 1 2043.27 322)">Semibold</text>
  <text style="stroke:none;fill:black;font-family:-apple-system,&quot;SF Pro Display&quot;,&quot;SF Pro Text&quot;,Helvetica,sans-serif;text-anchor:middle;" transform="matrix(1 0 0 1 2339.98 322)">Bold</text>
  <text style="stroke:none;fill:black;font-family:-apple-system,&quot;SF Pro Display&quot;,&quot;SF Pro Text&quot;,Helvetica,sans-serif;text-anchor:middle;" transform="matrix(1 0 0 1 2636.69 322)">Heavy</text>
  <text style="stroke:none;fill:black;font-family:-apple-system,&quot;SF Pro Display&quot;,&quot;SF Pro Text&quot;,Helvetica,sans-serif;text-anchor:middle;" transform="matrix(1 0 0 1 2933.4 322)">Black</text>
  <line id="" style="fill:none;stroke:black;opacity:1;stroke-width:0.5;" x1="263" x2="3036" y1="1903" y2="1903"/>
  <g id="" transform="matrix(1 0 0 1 263 1933)">
   <path d="M9.24805 0.830078C13.5547 0.830078 17.1387-2.74414 17.1387-7.05078C17.1387-11.3574 13.5449-14.9316 9.23828-14.9316C4.94141-14.9316 1.36719-11.3574 1.36719-7.05078C1.36719-2.74414 4.95117 0.830078 9.24805 0.830078ZM9.24805-0.654297C5.70312-0.654297 2.87109-3.49609 2.87109-7.05078C2.87109-10.6055 5.69336-13.4473 9.23828-13.4473C12.793-13.4473 15.6348-10.6055 15.6445-7.05078C15.6543-3.49609 12.8027-0.654297 9.24805-0.654297ZM6.39648-6.31836L8.50586-6.31836L8.50586-4.19922C8.50586-3.75977 8.79883-3.45703 9.22852-3.45703C9.67773-3.45703 9.9707-3.75977 9.9707-4.19922L9.9707-6.31836L12.0996-6.31836C12.5391-6.31836 12.8418-6.61133 12.8418-7.04102C12.8418-7.48047 12.5391-7.7832 12.0996-7.7832L9.9707-7.7832L9.9707-9.89258C9.9707-10.3418 9.67773-10.6445 9.22852-10.6445C8.79883-10.6445 8.50586-10.3418 8.50586-9.89258L8.50586-7.7832L6.39648-7.7832C5.94727-7.7832 5.64453-7.48047 5.64453-7.04102C5.64453-6.61133 5.94727-6.31836 6.39648-6.31836Z"/>
  </g>
  <g id="" transform="matrix(1 0 0 1 281.506 1933)">
   <path d="M11.709 2.91016C17.1582 2.91016 21.6699-1.61133 21.6699-7.05078C21.6699-12.5 17.1484-17.0117 11.6992-17.0117C6.25977-17.0117 1.74805-12.5 1.74805-7.05078C1.74805-1.61133 6.26953 2.91016 11.709 2.91016ZM11.709 1.25C7.09961 1.25 3.41797-2.44141 3.41797-7.05078C3.41797-11.6602 7.08984-15.3516 11.6992-15.3516C16.3086-15.3516 20-11.6602 20.0098-7.05078C20.0195-2.44141 16.3184 1.25 11.709 1.25ZM7.98828-6.23047L10.8789-6.23047L10.8789-3.32031C10.8789-2.83203 11.2109-2.5 11.6895-2.5C12.1777-2.5 12.5195-2.83203 12.5195-3.32031L12.5195-6.23047L15.4297-6.23047C15.918-6.23047 16.25-6.5625 16.25-7.04102C16.25-7.5293 15.918-7.87109 15.4297-7.87109L12.5195-7.87109L12.5195-10.7617C12.5195-11.2695 12.1777-11.6016 11.6895-11.6016C11.2109-11.6016 10.8789-11.2598 10.8789-10.7617L10.8789-7.87109L7.98828-7.87109C7.48047-7.87109 7.14844-7.5293 7.14844-7.04102C7.14844-6.5625 7.49023-6.23047 7.98828-6.23047Z"/>
  </g>
  <g id="" transform="matrix(1 0 0 1 304.924 1933)">
   <path d="M14.9707 5.66406C21.9336 5.66406 27.6953-0.0976562 27.6953-7.05078C27.6953-14.0137 21.9238-19.7754 14.9609-19.7754C8.00781-19.7754 2.25586-14.0137 2.25586-7.05078C2.25586-0.0976562 8.01758 5.66406 14.9707 5.66406ZM14.9707 3.84766C8.93555 3.84766 4.08203-1.01562 4.08203-7.05078C4.08203-13.0957 8.92578-17.9492 14.9609-17.9492C21.0059-17.9492 25.8594-13.0957 25.8691-7.05078C25.8789-1.01562 21.0156 3.84766 14.9707 3.84766ZM10.0586-6.14258L14.0625-6.14258L14.0625-2.12891C14.0625-1.5918 14.4336-1.2207 14.9512-1.2207C15.4883-1.2207 15.8594-1.5918 15.8594-2.12891L15.8594-6.14258L19.8828-6.14258C20.4102-6.14258 20.791-6.51367 20.791-7.03125C20.791-7.56836 20.4199-7.94922 19.8828-7.94922L15.8594-7.94922L15.8594-11.9531C15.8594-12.5098 15.4883-12.8809 14.9512-12.8809C14.4336-12.8809 14.0625-12.5 14.0625-11.9531L14.0625-7.94922L10.0586-7.94922C9.50195-7.94922 9.13086-7.56836 9.13086-7.03125C9.13086-6.51367 9.51172-6.14258 10.0586-6.14258Z"/>
  </g>
  <text style="stroke:none;fill:black;font-family:-apple-system,&quot;SF Pro Display&quot;,&quot;SF Pro Text&quot;,Helvetica,sans-serif;font-weight:bold;" transform="matrix(1 0 0 1 263 1953)">Design Variations</text>
  <text style="stroke:none;fill:black;font-family:-apple-system,&quot;SF Pro Display&quot;,&quot;SF Pro Text&quot;,Helvetica,sans-serif;" transform="matrix(1 0 0 1 263 1971)">Symbols are supported in up to nine weights and three scales.</text>
  <text style="stroke:none;fill:black;font-family:-apple-system,&quot;SF Pro Display&quot;,&quot;SF Pro Text&quot;,Helvetica,sans-serif;" transform="matrix(1 0 0 1 263 1989)">For optimal layout with text and other symbols, vertically align</text>
  <text style="stroke:none;fill:black;font-family:-apple-system,&quot;SF Pro Display&quot;,&quot;SF Pro Text&quot;,Helvetica,sans-serif;" transform="matrix(1 0 0 1 263 2007)">symbols with the adjacent text.</text>
  <line id="" style="fill:none;stroke:#00AEEF;stroke-width:0.5;opacity:1.0;" x1="776" x2="776" y1="1919" y2="1933"/>
  <g id="" transform="matrix(1 0 0 1 776 1933)">
   <path d="M3.31055 0.126953C3.82812 0.126953 4.08203-0.0683594 4.26758-0.605469L5.52734-4.0625L11.2891-4.0625L12.5488-0.605469C12.7344-0.0683594 12.9883 0.126953 13.4961 0.126953C14.0137 0.126953 14.3457-0.185547 14.3457-0.673828C14.3457-0.839844 14.3164-0.986328 14.2383-1.20117L9.6582-13.3887C9.43359-13.9941 9.0332-14.2871 8.4082-14.2871C7.80273-14.2871 7.39258-13.9941 7.17773-13.3984L2.59766-1.19141C2.51953-0.976562 2.49023-0.830078 2.49023-0.664062C2.49023-0.175781 2.80273 0.126953 3.31055 0.126953ZM6.00586-5.53711L8.37891-12.1094L8.42773-12.1094L10.8008-5.53711Z"/>
  </g>
  <line id="" style="fill:none;stroke:#00AEEF;stroke-width:0.5;opacity:1.0;" x1="792.836" x2="792.836" y1="1919" y2="1933"/>
  <text style="stroke:none;fill:black;font-family:-apple-system,&quot;SF Pro Display&quot;,&quot;SF Pro Text&quot;,Helvetica,sans-serif;font-weight:bold;" transform="matrix(1 0 0 1 776 1953)">Margins</text>
  <text style="stroke:none;fill:black;font-family:-apple-system,&quot;SF Pro Display&quot;,&quot;SF Pro Text&quot;,Helvetica,sans-serif;" transform="matrix(1 0 0 1 776 1971)">Leading and trailing margins on the left and right side of each symbol</text>
  <text style="stroke:none;fill:black;font-family:-apple-system,&quot;SF Pro Display&quot;,&quot;SF Pro Text&quot;,Helvetica,sans-serif;" transform="matrix(1 0 0 1 776 1989)">can be adjusted by modifying the x-location of the margin guidelines.</text>
  <text style="stroke:none;fill:black;font-family:-apple-system,&quot;SF Pro Display&quot;,&quot;SF Pro Text&quot;,Helvetica,sans-serif;" transform="matrix(1 0 0 1 776 2007)">Modifications are automatically applied proportionally to all</text>
  <text style="stroke:none;fill:black;font-family:-apple-system,&quot;SF Pro Display&quot;,&quot;SF Pro Text&quot;,Helvetica,sans-serif;" transform="matrix(1 0 0 1 776 2025)">scales and weights.</text>
  <g id="" transform="matrix(1 0 0 1 1289 1933)">
   <path d="M2.8418 1.86523L4.54102 3.57422C5.40039 4.44336 6.38672 4.38477 7.31445 3.35938L17.4902-7.85156C17.7539-7.76367 18.0273-7.7832 18.3398-7.8418L19.4043-8.03711L20.0684-7.36328L20.0293-6.80664C19.9902-6.30859 20.1172-5.92773 20.6055-5.44922L21.3672-4.70703C21.8457-4.22852 22.4609-4.19922 22.9297-4.66797L25.8398-7.58789C26.3086-8.05664 26.2891-8.65234 25.8105-9.13086L25.0391-9.89258C24.5605-10.3711 24.1895-10.5273 23.7109-10.4883L23.1348-10.4395L22.4902-11.0742L22.7344-12.1973C22.8613-12.7637 22.7051-13.2031 22.1191-13.7891L19.9219-15.9766C16.582-19.2969 12.1484-19.2188 9.25781-16.3281C8.83789-15.918 8.80859-15.3418 9.04297-14.9512C9.27734-14.5898 9.73633-14.3555 10.3809-14.5215C11.8457-14.8633 13.3691-14.9219 14.7949-13.9844L14.209-12.5293C14.0137-12.0508 13.9844-11.6504 14.1113-11.2891L3.04688-0.898438C2.06055 0.0195312 1.98242 0.996094 2.8418 1.86523ZM10.752-15.957C13.1836-17.7344 16.4746-17.4316 18.7012-15.2051L21.1328-12.793C21.3672-12.5586 21.4062-12.373 21.3379-12.0312L21.0156-10.5469L22.5195-9.0625L23.5059-9.12109C23.7598-9.13086 23.8379-9.11133 24.0332-8.91602L24.6094-8.33984L22.168-5.89844L21.5918-6.47461C21.3965-6.66992 21.3672-6.74805 21.377-7.01172L21.4453-7.98828L19.9512-9.47266L18.4277-9.21875C18.1055-9.15039 17.959-9.17969 17.7148-9.41406L15.7129-11.416C15.459-11.6504 15.4297-11.8164 15.5859-12.1875L16.4648-14.2773C14.9023-15.7324 12.8711-16.3574 10.8398-15.7617C10.6836-15.7227 10.625-15.8496 10.752-15.957ZM5.27344 2.30469L4.10156 1.14258C3.63281 0.683594 3.74023 0.341797 4.14062-0.0195312L14.9512-10.1953L16.416-8.71094L6.42578 2.27539C6.07422 2.67578 5.74219 2.77344 5.27344 2.30469Z"/>
  </g>
  <text style="stroke:none;fill:black;font-family:-apple-system,&quot;SF Pro Display&quot;,&quot;SF Pro Text&quot;,Helvetica,sans-serif;font-weight:bold;" transform="matrix(1 0 0 1 1289 1953)">Exporting</text>
  <text style="stroke:none;fill:black;font-family:-apple-system,&quot;SF Pro Display&quot;,&quot;SF Pro Text&quot;,Helvetica,sans-serif;" transform="matrix(1 0 0 1 1289 1971)">Symbols should be outlined when exporting to ensure the</text>
  <text style="stroke:none;fill:black;font-family:-apple-system,&quot;SF Pro Display&quot;,&quot;SF Pro Text&quot;,Helvetica,sans-serif;" transform="matrix(1 0 0 1 1289 1989)">design is preserved when submitting to Xcode.</text>
  <text id="template-version" style="stroke:none;fill:black;font-family:-apple-system,&quot;SF Pro Display&quot;,&quot;SF Pro Text&quot;,Helvetica,sans-serif;text-anchor:end;" transform="matrix(1 0 0 1 3036 1933)">Template v.2.0</text>
  <text style="stroke:none;fill:black;font-family:-apple-system,&quot;SF Pro Display&quot;,&quot;SF Pro Text&quot;,Helvetica,sans-serif;text-anchor:end;" transform="matrix(1 0 0 1 3036 1951)">Requires Xcode 12 or greater</text>
  <text style="stroke:none;fill:black;font-family:-apple-system,&quot;SF Pro Display&quot;,&quot;SF Pro Text&quot;,Helvetica,sans-serif;" transform="matrix(1 0 0 1 263 726)">Small</text>
  <text style="stroke:none;fill:black;font-family:-apple-system,&quot;SF Pro Display&quot;,&quot;SF Pro Text&quot;,Helvetica,sans-serif;" transform="matrix(1 0 0 1 263 1156)">Medium</text>
  <text style="stroke:none;fill:black;font-family:-apple-system,&quot;SF Pro Display&quot;,&quot;SF Pro Text&quot;,Helvetica,sans-serif;" transform="matrix(1 0 0 1 263 1586)">Large</text>
 </g>
 <g id="Guides">
  <g id="H-reference" style="fill:#27AAE1;stroke:none;" transform="matrix(1 0 0 1 339 696)">
   <path d="M0.976562 0L3.66211 0L12.9883-24.4629L45.752-24.4629L55.127 0L57.7637 0L30.6152-70.459L28.125-70.459ZM29.3457-67.1387L29.4434-67.1387L44.873-26.709L13.8672-26.709Z"/>
  </g>
  <line id="Baseline-S" style="fill:none;stroke:#27AAE1;opacity:1;stroke-width:0.5;" x1="263" x2="3036" y1="696" y2="696"/>
  <line id="Capline-S" style="fill:none;stroke:#27AAE1;opacity:1;stroke-width:0.5;" x1="263" x2="3036" y1="625.541" y2="625.541"/>
  <g id="H-reference" style="fill:#27AAE1;stroke:none;" transform="matrix(1 0 0 1 339 1126)">
   <path d="M0.976562 0L3.66211 0L12.9883-24.4629L45.752-24.4629L55.127 0L57.7637 0L30.6152-70.459L28.125-70.459ZM29.3457-67.1387L29.4434-67.1387L44.873-26.709L13.8672-26.709Z"/>
  </g>
  <line id="Baseline-M" style="fill:none;stroke:#27AAE1;opacity:1;stroke-width:0.5;" x1="263" x2="3036" y1="1126" y2="1126"/>
  <line id="Capline-M" style="fill:none;stroke:#27AAE1;opacity:1;stroke-width:0.5;" x1="263" x2="3036" y1="1055.54" y2="1055.54"/>
  <g id="H-reference" style="fill:#27AAE1;stroke:none;" transform="matrix(1 0 0 1 339 1556)">
   <path d="M0.976562 0L3.66211 0L12.9883-24.4629L45.752-24.4629L55.127 0L57.7637 0L30.6152-70.459L28.125-70.459ZM29.3457-67.1387L29.4434-67.1387L44.873-26.709L13.8672-26.709Z"/>
  </g>
  <line id="Baseline-L" style="fill:none;stroke:#27AAE1;opacity:1;stroke-width:0.5;" x1="263" x2="3036" y1="1556" y2="1556"/>
  <line id="Capline-L" style="fill:none;stroke:#27AAE1;opacity:1;stroke-width:0.5;" x1="263" x2="3036" y1="1485.54" y2="1485.54"/>
  <line id="left-margin" x1="1396.5944265189628" x2="1396.5944265189628" y1="1030.79" y2="1150.12" style="fill:none;stroke:#00AEEF;stroke-width:0.5;opacity:1.0;"/>
  <line id="right-margin" x1="1505.665573481037" x2="1505.665573481037" y1="1030.79" y2="1150.12" style="fill:none;stroke:#00AEEF;stroke-width:0.5;opacity:1.0;"/>
 </g>
 <g id="Symbols">
  <g id="Black-L" transform="matrix(1.0,0.0,0.0,1.0,2864.3291102094618,1443.3840407616583)">  <path stroke-opacity="1" stroke-linejoin="round" stroke-miterlimit="4" stroke-linecap="round" stroke-width="3px" stroke-dasharray="none" fill-opacity="1" stroke="none" fill-rule="nonzero" fill="#000000" d="M80.344,19.773C76.839,29.017,63.875,29.017,60.365,19.789L75.935,13.867L60.267,19.523L72.749,54.099C72.783,54.194,72.818,54.288,72.853,54.381C76.199,63.149,84.63,68.918,94,68.918L124.674,68.918C114.55,68.918,109.997,55.927,118.152,49.605C117.83,49.854,117.518,50.115,117.216,50.387L95.388,70.027L106.53,82.41L96.378,69.203C92.609,72.101,89.855,76.117,88.51,80.678C87.167,85.234,87.302,90.098,88.892,94.573L104.589,88.995L88.376,92.82L96.348,126.606C96.49,127.211,96.667,127.808,96.876,128.393C93.292,118.378,104.619,109.974,113.049,115.901C112.834,115.75,112.615,115.604,112.393,115.463L82.744,96.649L73.819,110.715L83.399,97.087C79.578,94.401,75.021,92.96,70.351,92.96C65.682,92.96,61.125,94.401,57.305,97.087L66.885,110.715L57.96,96.649L28.311,115.463C28.086,115.605,27.865,115.753,27.647,115.907C36.086,109.966,47.416,118.374,43.825,128.398C44.036,127.811,44.213,127.213,44.356,126.606L52.327,92.82L36.114,88.995L51.809,94.579C53.402,90.101,53.536,85.234,52.192,80.676C50.848,76.117,48.094,72.101,44.326,69.204L34.173,82.41L45.315,70.027L23.487,50.387C23.182,50.112,22.867,49.85,22.543,49.598C30.712,55.923,26.153,68.918,16.023,68.918L46.697,68.918C51.224,68.933,55.703,67.557,59.486,64.969C63.265,62.386,66.173,58.713,67.822,54.438C67.866,54.326,67.908,54.213,67.949,54.099L80.43,19.523L64.762,13.867L64.762,30.525L64.768,30.525C71.69,30.525,77.89,26.245,80.344,19.773ZM49.192,7.961L64.768,13.867L64.768,-2.791L64.762,-2.791C57.743,-2.791,51.477,1.609,49.094,8.211L36.612,42.787L52.28,48.443L36.738,42.448C37.518,40.426,38.893,38.69,40.681,37.467C42.467,36.246,44.585,35.595,46.752,35.602L16.023,35.602C-5.428,35.602,-14.939,62.713,2.147,75.942L12.345,62.77L1.203,75.153L23.031,94.793C23.349,95.08,23.679,95.355,24.019,95.616C22.207,94.223,20.882,92.291,20.236,90.097C19.589,87.905,19.654,85.564,20.42,83.411C20.215,83.987,20.042,84.574,19.901,85.17L11.93,118.956L28.143,122.781L12.461,117.164C4.987,138.029,28.895,155.771,46.825,143.149L37.236,129.528L46.161,143.593L75.81,124.78C76.031,124.639,76.25,124.494,76.465,124.343C74.674,125.601,72.539,126.276,70.351,126.276C68.164,126.276,66.029,125.601,64.239,124.342C64.454,124.494,64.672,124.639,64.894,124.78L94.543,143.593L103.468,129.528L93.886,143.155C111.819,155.764,135.712,138.037,128.245,117.169L112.56,122.781L128.773,118.955L120.802,85.169C120.662,84.576,120.489,83.991,120.285,83.417C121.049,85.566,121.114,87.905,120.467,90.098C119.821,92.29,118.496,94.223,116.683,95.617C117.023,95.355,117.353,95.08,117.672,94.793L139.5,75.153L128.358,62.77L138.565,75.935C155.632,62.703,146.134,35.602,124.674,35.602L94,35.602C98.407,35.602,102.386,38.324,103.981,42.505L88.417,48.443L104.085,42.787L91.604,8.211C91.572,8.122,91.539,8.034,91.505,7.945C84.124,-11.462,56.556,-11.462,49.192,7.961Z"/>
</g>
  <g id="Heavy-L" transform="matrix(1.0,0.0,0.0,1.0,2567.6191102094617,1443.3840407616583)">  <path stroke-miterlimit="4" fill-rule="nonzero" stroke-linecap="round" stroke-linejoin="round" stroke-opacity="1" stroke-width="3px" fill="#000000" stroke="none" stroke-dasharray="none" fill-opacity="1" d="M78.639,19.126C75.729,26.801,64.984,26.801,62.07,19.14L75.935,13.867L61.983,18.904L74.464,53.48L74.558,53.731C77.633,61.79,85.385,67.094,94,67.094L124.674,67.094C116.279,67.094,112.495,56.298,119.269,51.047C118.983,51.268,118.705,51.501,118.436,51.743L96.608,71.383L106.53,82.41L97.489,70.65C94.026,73.312,91.495,77.003,90.26,81.194C89.026,85.38,89.15,89.85,90.611,93.962L104.589,88.995L90.151,92.401L98.123,126.187C98.25,126.726,98.407,127.257,98.594,127.778C95.615,119.454,105.013,112.481,112,117.393C111.808,117.259,111.613,117.128,111.415,117.003L81.766,98.189L73.819,110.715L82.35,98.579C78.836,96.109,74.646,94.784,70.351,94.784C66.057,94.784,61.867,96.109,58.354,98.579L66.885,110.715L58.937,98.19L29.288,117.003C29.088,117.13,28.891,117.262,28.697,117.398C35.692,112.474,45.093,119.45,42.108,127.783C42.295,127.26,42.453,126.728,42.581,126.187L50.552,92.401L36.114,88.995L50.09,93.967C51.554,89.853,51.677,85.38,50.442,81.191C49.207,77.003,46.677,73.312,43.215,70.65L34.173,82.41L44.095,71.383L22.267,51.743C21.995,51.499,21.715,51.264,21.426,51.041C28.212,56.295,24.424,67.094,16.023,67.094L46.697,67.094C50.86,67.108,54.978,65.842,58.456,63.464C61.93,61.089,64.604,57.712,66.12,53.782C66.159,53.682,66.196,53.581,66.233,53.48L78.715,18.904L64.762,13.867L64.762,28.701L64.768,28.701C70.932,28.701,76.453,24.89,78.639,19.126ZM50.898,8.608L64.768,13.867L64.768,-0.967L64.762,-0.967C58.512,-0.967,52.932,2.951,50.809,8.83L38.328,43.406L52.28,48.443L38.44,43.104C39.087,41.427,40.228,39.987,41.711,38.973C43.192,37.96,44.949,37.42,46.746,37.426L16.023,37.426C-3.699,37.426,-12.44,62.341,3.264,74.499L12.345,62.77L2.423,73.797L24.251,93.437C24.535,93.693,24.828,93.937,25.131,94.17C23.625,93.012,22.523,91.405,21.985,89.581C21.448,87.759,21.502,85.813,22.139,84.023C21.956,84.536,21.802,85.058,21.677,85.589L13.705,119.375L28.143,122.781L14.178,117.779C7.31,136.953,29.289,153.263,45.775,141.658L37.236,129.528L45.184,142.053L74.832,123.24C75.03,123.115,75.224,122.985,75.415,122.85C73.932,123.893,72.164,124.452,70.351,124.452C68.54,124.452,66.771,123.893,65.288,122.85C65.479,122.985,65.674,123.115,65.871,123.24L95.52,142.053L103.468,129.528L94.935,141.663C111.425,153.257,133.389,136.96,126.527,117.783L112.56,122.781L126.998,119.374L119.026,85.588C118.902,85.06,118.748,84.539,118.566,84.027C119.201,85.815,119.255,87.759,118.718,89.582C118.18,91.405,117.078,93.012,115.571,94.17C115.874,93.938,116.168,93.693,116.452,93.437L138.28,73.797L128.358,62.77L137.447,74.494C153.134,62.332,144.405,37.426,124.674,37.426L94,37.426C97.653,37.426,100.952,39.683,102.276,43.155L88.417,48.443L102.37,43.406L89.888,8.83L89.8,8.594C83.015,-9.245,57.667,-9.245,50.898,8.608Z"/>
</g>
  <g id="Bold-L" transform="matrix(1.0,0.0,0.0,1.0,2270.9091102094617,1443.3840407616583)">  <path stroke-width="3px" fill="#000000" stroke-opacity="1" fill-opacity="1" stroke-dasharray="none" stroke-miterlimit="4" stroke="none" fill-rule="nonzero" stroke-linecap="round" stroke-linejoin="round" d="M76.933,18.479C74.618,24.585,66.092,24.585,63.775,18.492L75.935,13.867L63.698,18.285L76.18,52.861L76.262,53.081C79.066,60.431,86.139,65.27,94,65.27L124.674,65.27C118.008,65.27,114.994,56.669,120.387,52.488C120.136,52.683,119.892,52.886,119.656,53.099L97.828,72.739L106.53,82.41L98.601,72.096C95.444,74.523,93.136,77.888,92.01,81.709C90.885,85.526,90.997,89.602,92.33,93.352L104.589,88.995L91.926,91.983L99.898,125.769C100.01,126.241,100.148,126.707,100.311,127.164C97.937,120.53,105.407,114.988,110.951,118.886C110.782,118.767,110.612,118.653,110.438,118.543L80.789,99.73L73.819,110.715L81.301,100.071C78.094,97.818,74.27,96.608,70.351,96.608C66.433,96.608,62.609,97.818,59.403,100.071L66.885,110.715L59.914,99.73L30.265,118.543C30.09,118.654,29.917,118.77,29.747,118.89C35.298,114.982,42.77,120.526,40.391,127.168C40.555,126.71,40.693,126.242,40.805,125.768L48.777,91.982L36.114,88.995L48.372,93.356C49.706,89.604,49.819,85.527,48.693,81.707C47.567,77.888,45.26,74.524,42.103,72.096L34.173,82.41L42.875,72.739L21.047,53.099C20.809,52.885,20.563,52.679,20.31,52.483C25.713,56.667,22.695,65.27,16.023,65.27L46.697,65.27C50.497,65.283,54.254,64.128,57.426,61.958C60.596,59.791,63.035,56.711,64.418,53.125C64.452,53.037,64.485,52.949,64.517,52.861L76.999,18.285L64.762,13.867L64.762,26.877L64.768,26.877C70.174,26.877,75.016,23.534,76.933,18.479ZM52.603,9.255L64.768,13.867L64.768,0.857L64.762,0.857C59.28,0.857,54.386,4.293,52.525,9.45L40.043,44.026L52.28,48.443L40.142,43.761C40.656,42.429,41.562,41.284,42.74,40.479C43.916,39.675,45.312,39.246,46.74,39.25L16.023,39.25C-1.97,39.25,-9.94,61.969,4.38,73.057L12.345,62.77L3.643,72.441L25.471,92.081C25.72,92.305,25.977,92.52,26.243,92.724C25.042,91.8,24.164,90.52,23.735,89.065C23.307,87.613,23.349,86.061,23.857,84.634C23.697,85.084,23.562,85.543,23.452,86.007L15.481,119.793L28.143,122.781L15.895,118.394C9.633,135.877,29.683,150.755,44.725,140.166L37.236,129.528L44.206,140.513L73.855,121.7C74.028,121.59,74.199,121.476,74.366,121.358C73.19,122.185,71.788,122.628,70.351,122.628C68.915,122.628,67.513,122.185,66.337,121.358C66.505,121.476,66.675,121.59,66.848,121.7L96.497,140.513L103.468,129.528L95.985,140.171C111.031,150.75,131.067,135.884,124.81,118.398L112.56,122.781L125.223,119.793L117.251,86.007C117.142,85.544,117.007,85.087,116.847,84.638C117.354,86.063,117.396,87.613,116.968,89.066C116.54,90.519,115.661,91.801,114.46,92.724C114.725,92.52,114.983,92.306,115.232,92.081L137.06,72.441L128.358,62.77L136.329,73.052C150.635,61.961,142.675,39.25,124.674,39.25L94,39.25C96.899,39.25,99.518,41.043,100.572,43.805L88.417,48.443L100.654,44.026L88.172,9.45L88.095,9.242C81.907,-7.029,58.777,-7.029,52.603,9.255Z"/>
</g>
  <g id="Semibold-L" transform="matrix(1.0,0.0,0.0,1.0,1974.199110209462,1443.3840407616583)">  <path stroke-dasharray="none" fill="#000000" stroke-opacity="1" stroke-width="3px" stroke-linejoin="round" stroke-linecap="round" fill-opacity="1" stroke="none" fill-rule="nonzero" stroke-miterlimit="4" d="M75.227,17.833C73.508,22.368,67.201,22.368,65.48,17.844L75.935,13.867L65.414,17.665L77.896,52.241L77.966,52.431C80.5,59.072,86.893,63.446,94,63.446L124.674,63.446C119.738,63.446,117.493,57.04,121.505,53.93C121.289,54.097,121.079,54.272,120.876,54.455L99.049,74.095L106.53,82.41L99.713,73.542C96.861,75.734,94.777,78.774,93.76,82.225C92.743,85.672,92.845,89.354,94.049,92.741L104.589,88.995L93.702,91.564L101.674,125.35C101.769,125.756,101.888,126.156,102.029,126.549C100.26,121.607,105.802,117.495,109.901,120.378C109.757,120.276,109.61,120.178,109.461,120.083L79.812,101.27L73.819,110.715L80.252,101.564C77.353,99.526,73.895,98.432,70.351,98.432C66.808,98.432,63.351,99.526,60.452,101.564L66.885,110.715L60.891,101.27L31.243,120.083C31.092,120.179,30.943,120.278,30.797,120.381C34.905,117.49,40.447,121.602,38.674,126.553C38.815,126.159,38.934,125.757,39.03,125.35L47.001,91.564L36.114,88.995L46.653,92.744C47.859,89.356,47.96,85.673,46.943,82.223C45.926,78.774,43.842,75.735,40.991,73.542L34.173,82.41L41.655,74.095L19.827,54.455C19.622,54.271,19.411,54.094,19.193,53.925C23.214,57.038,20.966,63.446,16.023,63.446L46.697,63.446C50.133,63.457,53.529,62.414,56.396,60.452C59.262,58.494,61.466,55.709,62.717,52.469L62.801,52.241L75.283,17.665L64.762,13.867L64.762,25.053L64.768,25.053C69.416,25.053,73.58,22.179,75.227,17.833ZM54.309,9.901L64.768,13.867L64.768,2.681L64.762,2.681C60.049,2.681,55.841,5.636,54.241,10.069L41.759,44.645L52.28,48.443L41.844,44.417C42.225,43.43,42.896,42.582,43.77,41.985C44.641,41.389,45.676,41.071,46.734,41.074L16.023,41.074C-0.241,41.074,-7.441,61.598,5.497,71.615L12.345,62.77L4.863,71.085L26.691,90.725C26.905,90.918,27.126,91.102,27.355,91.278C26.459,90.589,25.804,89.634,25.485,88.55C25.165,87.467,25.197,86.309,25.576,85.245C25.438,85.632,25.322,86.027,25.228,86.426L17.256,120.212L28.143,122.781L17.612,119.009C11.956,134.801,30.076,148.248,43.675,138.675L37.236,129.528L43.229,138.973L72.878,120.16C73.027,120.065,73.173,119.967,73.317,119.866C72.448,120.477,71.413,120.804,70.351,120.804C69.29,120.804,68.255,120.477,67.386,119.866C67.53,119.967,67.677,120.065,67.826,120.16L97.474,138.973L103.468,129.528L97.034,138.678C110.636,148.243,128.744,134.808,123.092,119.012L112.56,122.781L123.447,120.212L115.476,86.426C115.382,86.028,115.266,85.635,115.129,85.249C115.506,86.311,115.538,87.466,115.218,88.55C114.899,89.634,114.244,90.59,113.348,91.278C113.576,91.103,113.798,90.918,114.012,90.725L135.84,71.085L128.358,62.77L135.212,71.61C148.137,61.59,140.946,41.074,124.674,41.074L94,41.074C96.144,41.074,98.084,42.402,98.868,44.455L88.417,48.443L98.938,44.645L86.456,10.069L86.39,9.891C80.798,-4.813,59.888,-4.813,54.309,9.901Z"/>
</g>
  <g id="Medium-L" transform="matrix(1.0,0.0,0.0,1.0,1677.489110209462,1443.3840407616583)">  <path stroke-linecap="round" stroke-miterlimit="4" stroke-opacity="1" stroke-width="3px" stroke-linejoin="round" stroke-dasharray="none" fill="#000000" stroke="none" fill-opacity="1" fill-rule="nonzero" d="M73.522,17.186C72.397,20.152,68.31,20.152,67.185,17.195L75.935,13.867L67.13,17.046L79.611,51.622L79.67,51.78C81.934,57.712,87.647,61.622,94,61.622L124.674,61.622C121.467,61.622,119.991,57.411,122.622,55.371C122.442,55.511,122.266,55.658,122.096,55.811L100.269,75.451L106.53,82.41L100.825,74.988C98.278,76.946,96.417,79.659,95.509,82.741C94.602,85.819,94.693,89.106,95.767,92.13L104.589,88.995L95.477,91.145L103.449,124.931C103.529,125.271,103.628,125.606,103.746,125.935C102.582,122.683,106.196,120.002,108.852,121.87C108.731,121.785,108.608,121.703,108.483,121.623L78.834,102.81L73.819,110.715L79.203,103.056C76.611,101.234,73.519,100.257,70.351,100.257C67.184,100.257,64.092,101.234,61.501,103.056L66.885,110.715L61.869,102.81L32.22,121.623C32.094,121.704,31.969,121.787,31.847,121.873C34.511,119.998,38.124,122.678,36.956,125.938C37.074,125.608,37.174,125.272,37.254,124.931L45.226,91.145L36.114,88.995L44.934,92.133C46.011,89.107,46.102,85.819,45.193,82.739C44.285,79.659,42.425,76.946,39.879,74.988L34.173,82.41L40.435,75.451L18.607,55.811C18.435,55.657,18.258,55.509,18.076,55.368C20.714,57.41,19.237,61.622,16.023,61.622L46.697,61.622C49.77,61.632,52.804,60.699,55.367,58.947C57.927,57.197,59.898,54.708,61.015,51.812L61.086,51.622L73.568,17.046L64.762,13.867L64.762,23.229L64.768,23.229C68.658,23.229,72.143,20.823,73.522,17.186ZM56.014,10.548L64.768,13.867L64.768,4.505L64.762,4.505C60.817,4.505,57.296,6.978,55.957,10.688L43.475,45.264L52.28,48.443L43.546,45.074C43.794,44.431,44.231,43.879,44.799,43.491C45.366,43.103,46.039,42.896,46.728,42.899L16.023,42.898C1.489,42.898,-4.941,61.226,6.614,70.172L12.345,62.77L6.083,69.729L27.911,89.369C28.09,89.531,28.275,89.685,28.467,89.832C27.877,89.378,27.445,88.748,27.234,88.034C27.024,87.32,27.045,86.558,27.294,85.857C27.179,86.181,27.082,86.511,27.003,86.845L19.031,120.631L28.143,122.781L19.33,119.624C14.279,133.725,30.47,145.74,42.625,137.183L37.236,129.528L42.252,137.433L71.9,118.619C72.025,118.54,72.148,118.458,72.268,118.373C71.707,118.768,71.037,118.98,70.351,118.98C69.666,118.98,68.997,118.768,68.435,118.373C68.556,118.458,68.678,118.54,68.803,118.619L98.452,137.433L103.468,129.528L98.083,137.186C110.242,145.736,126.422,133.731,121.375,119.627L112.56,122.781L121.672,120.631L113.7,86.845C113.621,86.512,113.525,86.183,113.41,85.86C113.658,86.559,113.679,87.32,113.469,88.034C113.258,88.748,112.826,89.378,112.236,89.832C112.427,89.685,112.613,89.531,112.792,89.369L134.62,69.729L128.358,62.77L134.094,70.169C145.638,61.219,139.217,42.898,124.674,42.898L94,42.898C95.39,42.898,96.651,43.761,97.164,45.106L88.417,48.443L97.222,45.264L84.741,10.688L84.685,10.539C79.689,-2.597,60.998,-2.597,56.014,10.548Z"/>
</g>
  <g id="Regular-L" transform="matrix(1.0,0.0,0.0,1.0,1380.779110209462,1443.3840407616583)">  <path stroke-miterlimit="4" stroke="none" fill-rule="nonzero" stroke-linejoin="round" fill-opacity="1" stroke-opacity="1" stroke-dasharray="none" fill="#000000" stroke-width="3px" stroke-linecap="round" d="M71.816,16.539C71.287,17.936,69.418,17.936,68.89,16.547L75.935,13.867L68.845,16.426L81.327,51.002L81.375,51.13C83.368,56.353,88.402,59.798,94,59.798L124.674,59.798C123.196,59.798,122.49,57.782,123.74,56.813C123.595,56.926,123.453,57.044,123.317,57.167L101.489,76.807L106.53,82.41L101.936,76.434C99.696,78.157,98.058,80.545,97.259,83.256C96.46,85.965,96.54,88.857,97.486,91.519L104.589,88.995L97.253,90.726L105.224,124.512C105.289,124.786,105.369,125.055,105.463,125.32C104.905,123.759,106.59,122.509,107.803,123.362C107.706,123.294,107.607,123.227,107.506,123.164L77.857,104.35L73.819,110.715L78.154,104.548C75.869,102.942,73.144,102.081,70.351,102.081C67.559,102.081,64.834,102.942,62.55,104.548L66.885,110.715L62.846,104.35L33.197,123.164C33.096,123.228,32.996,123.295,32.897,123.365C34.117,122.505,35.801,123.755,35.239,125.323C35.334,125.057,35.414,124.786,35.479,124.512L43.451,90.726L36.114,88.995L43.216,91.521C44.163,88.859,44.243,85.965,43.444,83.255C42.645,80.545,41.008,78.157,38.767,76.435L34.173,82.41L39.214,76.807L17.387,57.167C17.249,57.043,17.106,56.924,16.959,56.81C18.215,57.782,17.507,59.798,16.023,59.798L46.697,59.798C49.406,59.807,52.079,58.985,54.337,57.441C56.593,55.899,58.329,53.707,59.313,51.156L59.37,51.002L71.852,16.426L64.762,13.867L64.762,21.405L64.768,21.405C67.9,21.405,70.706,19.468,71.816,16.539ZM57.72,11.195L64.768,13.867L64.768,6.33L64.762,6.33C61.586,6.33,58.751,8.32,57.672,11.308L45.19,45.884L52.28,48.443L45.248,45.73C45.363,45.432,45.565,45.177,45.828,44.997C46.09,44.817,46.403,44.722,46.722,44.723L16.023,44.723C3.218,44.723,-2.442,60.854,7.73,68.73L12.345,62.77L7.303,68.373L29.131,88.013C29.275,88.143,29.425,88.267,29.578,88.386C29.294,88.167,29.086,87.863,28.984,87.518C28.882,87.174,28.893,86.806,29.013,86.468C28.92,86.729,28.842,86.995,28.778,87.264L20.807,121.05L28.143,122.781L21.047,120.239C16.602,132.649,30.864,143.232,41.575,135.692L37.236,129.528L41.274,135.892L70.923,117.079C71.023,117.015,71.122,116.949,71.219,116.881C70.965,117.06,70.662,117.156,70.351,117.156C70.041,117.156,69.738,117.06,69.484,116.881C69.581,116.949,69.68,117.015,69.78,117.079L99.429,135.892L103.468,129.528L99.132,135.694C109.848,143.229,124.099,132.655,119.657,120.242L112.56,122.781L119.897,121.05L111.925,87.264C111.861,86.995,111.783,86.731,111.691,86.471C111.811,86.807,111.821,87.174,111.719,87.518C111.618,87.863,111.409,88.167,111.124,88.386C111.278,88.268,111.428,88.143,111.572,88.013L133.4,68.373L128.358,62.77L132.976,68.727C143.139,60.848,137.488,44.723,124.674,44.723L94,44.723C94.636,44.723,95.217,45.12,95.459,45.756L88.417,48.443L95.507,45.884L83.025,11.308L82.98,11.188C78.581,-0.38,62.109,-0.38,57.72,11.195Z"/>
</g>
  <g id="Light-L" transform="matrix(1.0,0.0,0.0,1.0,1084.0691102094622,1443.3840407616583)">  <path stroke-miterlimit="4" stroke="none" fill="#000000" fill-rule="nonzero" stroke-linecap="round" stroke-linejoin="round" stroke-opacity="1" stroke-width="3px" stroke-dasharray="none" fill-opacity="1" d="M70.641,16.094C70.522,16.41,70.182,16.41,70.064,16.1L82.509,50.576C84.355,55.417,88.921,58.541,94,58.541L124.674,58.541C124.387,58.541,124.211,58.038,124.51,57.806C124.388,57.9,124.271,57.998,124.157,58.101L102.329,77.741L106.53,82.41L102.702,77.43C100.672,78.991,99.188,81.155,98.464,83.611C97.74,86.066,97.813,88.687,98.67,91.098L104.589,88.995L98.475,90.437L106.447,124.223C106.501,124.451,106.567,124.676,106.646,124.897C106.504,124.501,106.861,124.236,107.08,124.39C106.999,124.333,106.917,124.278,106.833,124.224L77.184,105.411L73.819,110.715L77.431,105.576C75.358,104.119,72.885,103.337,70.351,103.337C67.818,103.337,65.345,104.119,63.272,105.576L66.885,110.715L63.519,105.411L33.871,124.224C33.786,124.278,33.702,124.334,33.62,124.392C33.846,124.233,34.201,124.496,34.056,124.899C34.136,124.678,34.202,124.452,34.256,124.223L42.228,90.437L36.114,88.995L42.032,91.1C42.891,88.688,42.963,86.066,42.239,83.61C41.515,81.154,40.031,78.991,38.001,77.43L34.173,82.41L38.374,77.741L16.546,58.101C16.431,57.997,16.313,57.898,16.19,57.803C16.493,58.038,16.317,58.541,16.023,58.541L46.697,58.541C49.156,58.55,51.58,57.804,53.628,56.404C55.674,55.006,57.248,53.017,58.141,50.704L58.188,50.576L70.67,16L64.762,13.867L64.762,20.148L64.768,20.148C67.378,20.148,69.716,18.534,70.641,16.094ZM58.895,11.64L64.768,13.867L64.768,7.586L64.762,7.586C62.115,7.586,59.753,9.245,58.854,11.734L46.372,46.31L52.28,48.443L46.42,46.182C46.443,46.122,46.484,46.07,46.537,46.034C46.59,45.998,46.653,45.979,46.718,45.979L16.023,45.979C4.408,45.979,-0.721,60.598,8.499,67.737L12.345,62.77L8.143,67.44L29.971,87.079C30.092,87.188,30.216,87.291,30.344,87.39C30.27,87.333,30.215,87.253,30.189,87.163C30.163,87.073,30.165,86.977,30.196,86.889C30.119,87.107,30.054,87.328,30.001,87.552L22.029,121.338L28.143,122.781L22.23,120.663C18.202,131.907,31.135,141.505,40.852,134.664L37.236,129.528L40.601,134.832L70.25,116.018C70.334,115.965,70.416,115.91,70.497,115.853C70.454,115.884,70.403,115.9,70.351,115.9C70.3,115.9,70.249,115.884,70.206,115.853C70.287,115.91,70.37,115.965,70.453,116.018L100.102,134.832L103.468,129.528L99.855,134.666C109.577,141.502,122.5,131.914,118.475,120.665L112.56,122.781L118.674,121.338L110.702,87.552C110.649,87.329,110.584,87.108,110.507,86.891C110.538,86.978,110.541,87.073,110.514,87.163C110.488,87.253,110.433,87.333,110.359,87.39C110.487,87.291,110.611,87.188,110.732,87.079L132.56,67.439L128.358,62.77L132.207,67.734C141.419,60.593,136.297,45.979,124.674,45.979L94,45.979C94.116,45.979,94.229,46.056,94.286,46.204L81.843,11.734C77.817,1.146,62.874,1.146,58.895,11.64Z"/>
</g>
  <g id="Thin-L" transform="matrix(1.0,0.0,0.0,1.0,787.3591102094621,1443.3840407616583)">  <path stroke-linejoin="round" fill="#000000" stroke-width="3px" stroke-linecap="round" stroke-dasharray="none" stroke-miterlimit="4" stroke-opacity="1" fill-rule="nonzero" fill-opacity="1" stroke="none" d="M69.467,15.649C69.757,14.883,70.945,14.883,71.238,15.653L83.69,50.149C85.342,54.481,89.441,57.285,94,57.285L124.674,57.285C125.578,57.285,125.931,58.293,125.279,58.799C125.182,58.874,125.088,58.953,124.997,59.035L103.169,78.674L106.53,82.41L103.468,78.426C101.648,79.825,100.318,81.764,99.669,83.966C99.02,86.166,99.085,88.516,99.854,90.678L104.589,88.995L99.698,90.149L107.67,123.935C107.713,124.117,107.766,124.297,107.829,124.474C108.104,125.242,107.133,125.962,106.358,125.417L106.16,125.285L76.511,106.472L73.819,110.715L76.709,106.604C74.847,105.295,72.627,104.593,70.351,104.593C68.076,104.593,65.856,105.295,63.995,106.604L66.885,110.715L64.192,106.472L34.544,125.285L34.343,125.419C33.575,125.96,32.601,125.237,32.874,124.475C32.937,124.298,32.991,124.118,33.034,123.935L41.005,90.149L36.114,88.995L40.849,90.679C41.618,88.517,41.683,86.167,41.034,83.966C40.385,81.764,39.055,79.825,37.236,78.426L34.173,82.41L37.534,78.674L15.706,59.035C15.614,58.952,15.519,58.872,15.421,58.797C14.772,58.294,15.126,57.285,16.023,57.285L46.697,57.285C48.906,57.293,51.081,56.624,52.919,55.367C54.755,54.112,56.168,52.328,56.969,50.252L69.489,15.573L64.762,13.867L64.762,18.892L64.768,18.892C66.856,18.892,68.726,17.601,69.467,15.649ZM60.069,12.086L64.768,13.867L64.768,8.842L64.762,8.842C62.645,8.842,60.754,10.169,60.035,12.161L47.554,46.737C47.524,46.811,47.403,46.964,47.246,47.071C47.089,47.179,46.903,47.236,46.713,47.235L16.023,47.235C5.599,47.235,1.001,60.342,9.269,66.743L8.984,66.506L30.812,86.146C30.908,86.232,31.007,86.315,31.11,86.394C31.246,86.499,31.345,86.643,31.394,86.808C31.443,86.973,31.438,87.148,31.38,87.311C31.318,87.484,31.266,87.661,31.224,87.841L23.252,121.627L23.412,121.086C19.802,131.166,31.406,139.777,40.129,133.637L39.928,133.771L69.577,114.958L69.774,114.826C69.943,114.707,70.145,114.643,70.351,114.643C70.558,114.643,70.76,114.707,70.929,114.826L71.126,114.958L100.775,133.771L100.577,133.639C109.305,139.775,120.9,131.172,117.292,121.088L117.451,121.627L109.479,87.841C109.437,87.662,109.385,87.485,109.324,87.312C109.266,87.149,109.261,86.972,109.309,86.808C109.358,86.643,109.457,86.499,109.593,86.394C109.696,86.315,109.795,86.232,109.891,86.146L131.719,66.506L131.437,66.741C139.698,60.337,135.106,47.235,124.674,47.235L94,47.235C93.597,47.235,93.242,46.992,93.112,46.652L80.662,12.161C77.054,2.672,63.638,2.672,60.069,12.086Z"/>
</g>
  <g id="Ultralight-L" transform="matrix(1.0,0.0,0.0,1.0,490.6491102094621,1443.3840407616583)">  <path stroke-linejoin="round" fill="#000000" fill-opacity="1" stroke-width="3px" stroke="none" stroke-opacity="1" stroke-dasharray="none" stroke-miterlimit="4" fill-rule="nonzero" stroke-linecap="round" d="M68.292,15.203C68.992,13.357,71.709,13.357,72.413,15.207L84.872,49.723C86.33,53.545,89.96,56.029,94,56.029L124.674,56.029C126.769,56.029,127.652,58.549,126.049,59.792C125.976,59.848,125.906,59.907,125.837,59.968L104.01,79.608L106.53,82.41L104.233,79.422C102.624,80.659,101.448,82.374,100.874,84.322C100.3,86.267,100.358,88.345,101.037,90.257L104.589,88.995L100.921,89.86L108.892,123.646C108.925,123.783,108.965,123.918,109.012,124.051C109.703,125.983,107.404,127.689,105.635,126.445L105.487,126.346L75.838,107.532L73.819,110.715L75.986,107.632C74.336,106.472,72.368,105.849,70.351,105.849C68.335,105.849,66.367,106.472,64.717,107.631L66.885,110.715L64.865,107.532L35.217,126.346L35.066,126.446C33.304,127.687,31.001,125.978,31.691,124.052C31.739,123.919,31.779,123.784,31.811,123.646L39.782,89.86L36.114,88.995L39.665,90.258C40.346,88.346,40.403,86.268,39.829,84.321C39.255,82.374,38.079,80.66,36.47,79.422L34.173,82.41L36.694,79.608L14.866,59.968C14.797,59.906,14.725,59.847,14.652,59.79C13.051,58.55,13.935,56.029,16.023,56.029L46.697,56.029C48.655,56.035,50.582,55.443,52.209,54.33C53.836,53.219,55.087,51.638,55.797,49.799L68.307,15.147L64.762,13.867L64.762,17.636L64.768,17.636C66.334,17.636,67.737,16.668,68.292,15.203ZM61.244,12.531L64.768,13.867L64.768,10.098L64.762,10.098C63.174,10.098,61.756,11.094,61.217,12.587L48.735,47.163C48.604,47.501,48.322,47.857,47.955,48.108C47.588,48.359,47.154,48.493,46.709,48.491L16.023,48.491C6.79,48.491,2.722,60.086,10.038,65.75L9.824,65.572L31.652,85.212C31.724,85.277,31.799,85.339,31.876,85.398C32.222,85.664,32.475,86.033,32.599,86.453C32.723,86.872,32.71,87.319,32.564,87.732C32.517,87.862,32.478,87.995,32.446,88.129L24.475,121.915L24.595,121.51C21.402,130.425,31.677,138.05,39.405,132.61L39.255,132.71L68.904,113.897L69.052,113.798C69.432,113.531,69.886,113.387,70.351,113.387C70.817,113.387,71.271,113.531,71.651,113.798L71.799,113.897L101.448,132.71L101.3,132.611C109.034,138.049,119.301,130.431,116.109,121.511L116.228,121.915L108.257,88.129C108.225,87.995,108.186,87.863,108.14,87.733C107.993,87.32,107.981,86.872,108.104,86.453C108.228,86.033,108.481,85.665,108.827,85.398C108.904,85.339,108.979,85.277,109.051,85.212L130.879,65.572L130.667,65.749C137.977,60.082,133.915,48.491,124.674,48.491L94,48.491C93.077,48.491,92.254,47.928,91.938,47.099L79.48,12.587C76.29,4.199,64.403,4.199,61.244,12.531Z"/>
</g>
  <g id="Black-M" transform="matrix(1.0,0.0,0.0,1.0,2880.1444265189625,1030.7808887021092)">  <path stroke-opacity="1" stroke-linejoin="round" stroke-miterlimit="4" stroke-linecap="round" stroke-width="3px" stroke-dasharray="none" fill-opacity="1" stroke="none" fill-rule="nonzero" fill="#000000" d="M62.282,15.328C59.565,22.494,49.516,22.494,46.795,15.34L58.865,10.75L46.718,15.134L56.394,41.937C56.421,42.011,56.448,42.084,56.475,42.156C59.069,48.953,65.605,53.425,72.868,53.425L96.647,53.425C88.798,53.425,85.269,43.354,91.591,38.453C91.341,38.647,91.1,38.849,90.865,39.06L73.944,54.284L82.582,63.884L74.711,53.646C71.79,55.892,69.655,59.006,68.613,62.541C67.572,66.073,67.676,69.843,68.909,73.313L81.076,68.988L68.508,71.954L74.688,98.144C74.799,98.613,74.935,99.076,75.098,99.529C72.32,91.766,81.1,85.251,87.635,89.846C87.468,89.729,87.298,89.615,87.126,89.506L64.142,74.922L57.224,85.825L64.65,75.261C61.688,73.179,58.156,72.062,54.536,72.062C50.916,72.062,47.384,73.179,44.422,75.261L51.849,85.825L44.93,74.922L21.946,89.506C21.772,89.617,21.6,89.731,21.432,89.85C27.973,85.245,36.757,91.763,33.973,99.533C34.136,99.078,34.273,98.615,34.384,98.144L40.564,71.954L27.996,68.988L40.162,73.317C41.397,69.846,41.501,66.073,40.459,62.539C39.417,59.005,37.282,55.892,34.362,53.647L26.491,63.884L35.128,54.284L18.207,39.06C17.971,38.847,17.727,38.643,17.475,38.448C23.808,43.351,20.273,53.425,12.421,53.425L36.199,53.425C39.708,53.437,43.181,52.369,46.113,50.364C49.042,48.361,51.297,45.514,52.575,42.2C52.609,42.113,52.642,42.025,52.673,41.937L62.349,15.134L50.203,10.75L50.203,23.663L50.208,23.663C55.573,23.663,60.38,20.345,62.282,15.328ZM38.133,6.172L50.208,10.75L50.208,-2.164L50.203,-2.164C44.762,-2.164,39.905,1.247,38.057,6.365L28.381,33.168L40.527,37.553L28.479,32.905C29.084,31.338,30.15,29.992,31.536,29.044C32.92,28.098,34.562,27.593,36.242,27.599L12.421,27.599C-4.208,27.599,-11.581,48.615,1.664,58.87L9.57,48.659L0.932,58.258L17.853,73.483C18.1,73.706,18.356,73.918,18.619,74.121C17.215,73.041,16.188,71.543,15.686,69.843C15.186,68.144,15.236,66.329,15.829,64.66C15.671,65.107,15.536,65.562,15.427,66.023L9.248,92.214L21.816,95.179L9.659,90.824C3.866,107,22.4,120.753,36.298,110.969L28.865,100.409L35.784,111.313L58.767,96.729C58.939,96.62,59.108,96.507,59.275,96.39C57.887,97.365,56.232,97.889,54.536,97.889C52.84,97.889,51.186,97.365,49.797,96.39C49.964,96.507,50.133,96.62,50.305,96.729L73.289,111.313L80.207,100.409L72.78,110.973C86.682,120.747,105.203,107.005,99.415,90.829L87.256,95.179L99.824,92.214L93.645,66.023C93.536,65.563,93.402,65.109,93.244,64.664C93.836,66.331,93.887,68.144,93.386,69.843C92.885,71.543,91.857,73.041,90.452,74.121C90.716,73.919,90.972,73.706,91.219,73.483L108.14,58.258L99.502,48.659L107.414,58.865C120.645,48.607,113.282,27.599,96.647,27.599L72.868,27.599C76.285,27.599,79.369,29.709,80.605,32.949L68.54,37.553L80.686,33.168L71.011,6.365C70.986,6.296,70.96,6.228,70.934,6.159C65.212,-8.885,43.842,-8.885,38.133,6.172Z"/>
</g>
  <g id="Heavy-M" transform="matrix(1.0,0.0,0.0,1.0,2583.4344265189625,1030.7808887021092)">  <path stroke-miterlimit="4" fill-rule="nonzero" stroke-linecap="round" stroke-linejoin="round" stroke-opacity="1" stroke-width="3px" fill="#000000" stroke="none" stroke-dasharray="none" fill-opacity="1" d="M60.96,14.826C58.704,20.776,50.375,20.776,48.116,14.838L58.865,10.75L48.049,14.654L57.724,41.457L57.797,41.652C60.18,47.899,66.19,52.011,72.868,52.011L96.647,52.011C90.139,52.011,87.206,43.642,92.457,39.571C92.235,39.743,92.02,39.923,91.811,40.111L74.89,55.335L82.582,63.884L75.573,54.767C72.889,56.831,70.927,59.692,69.969,62.941C69.012,66.186,69.108,69.651,70.241,72.839L81.076,68.988L69.885,71.629L76.064,97.82C76.163,98.237,76.285,98.649,76.429,99.053C74.12,92.6,81.405,87.195,86.821,91.003C86.673,90.898,86.522,90.797,86.368,90.7L63.385,76.116L57.224,85.825L63.837,76.418C61.113,74.503,57.865,73.476,54.536,73.476C51.207,73.476,47.959,74.503,45.235,76.418L51.849,85.825L45.687,76.116L22.704,90.7C22.549,90.798,22.396,90.901,22.246,91.006C27.668,87.189,34.956,92.597,32.642,99.057C32.787,98.651,32.909,98.238,33.008,97.82L39.188,71.629L27.996,68.988L38.83,72.843C39.964,69.653,40.06,66.186,39.103,62.939C38.145,59.692,36.184,56.831,33.5,54.768L26.491,63.884L34.182,55.335L17.261,40.111C17.051,39.921,16.833,39.74,16.609,39.567C21.87,43.64,18.933,52.011,12.421,52.011L36.199,52.011C39.427,52.022,42.619,51.04,45.315,49.197C48.008,47.356,50.081,44.738,51.256,41.691C51.286,41.614,51.315,41.536,51.343,41.457L61.019,14.654L50.203,10.75L50.203,22.249L50.208,22.249C54.986,22.249,59.266,19.294,60.96,14.826ZM39.455,6.673L50.208,10.75L50.208,-0.75L50.203,-0.75C45.358,-0.75,41.032,2.288,39.387,6.845L29.711,33.648L40.527,37.553L29.799,33.414C30.3,32.114,31.184,30.998,32.334,30.212C33.482,29.427,34.844,29.008,36.237,29.013L12.421,29.013C-2.867,29.013,-9.643,48.327,2.53,57.751L9.57,48.659L1.878,57.207L18.799,72.432C19.019,72.63,19.247,72.819,19.481,73C18.314,72.102,17.46,70.857,17.043,69.443C16.626,68.03,16.668,66.521,17.162,65.134C17.02,65.532,16.901,65.937,16.804,66.348L10.624,92.538L21.816,95.179L10.991,91.301C5.666,106.165,22.705,118.809,35.484,109.812L28.865,100.409L35.026,110.119L58.01,95.535C58.163,95.438,58.313,95.337,58.462,95.233C57.312,96.041,55.941,96.475,54.536,96.475C53.131,96.475,51.761,96.041,50.611,95.233C50.759,95.337,50.91,95.438,51.063,95.535L74.046,110.119L80.207,100.409L73.593,109.816C86.376,118.804,103.402,106.171,98.083,91.305L87.256,95.179L98.448,92.538L92.268,66.348C92.172,65.938,92.053,65.534,91.912,65.138C92.404,66.523,92.446,68.03,92.029,69.443C91.613,70.856,90.758,72.102,89.59,73C89.825,72.82,90.053,72.63,90.273,72.432L107.194,57.207L99.502,48.659L106.548,57.747C118.708,48.32,111.942,29.013,96.647,29.013L72.868,29.013C75.7,29.013,78.257,30.762,79.284,33.453L68.54,37.553L79.356,33.648L69.681,6.845L69.613,6.662C64.353,-7.167,44.703,-7.167,39.455,6.673Z"/>
</g>
  <g id="Bold-M" transform="matrix(1.0,0.0,0.0,1.0,2286.7244265189624,1030.7808887021092)">  <path stroke-width="3px" fill="#000000" stroke-opacity="1" fill-opacity="1" stroke-dasharray="none" stroke-miterlimit="4" stroke="none" fill-rule="nonzero" stroke-linecap="round" stroke-linejoin="round" d="M59.638,14.325C57.843,19.058,51.234,19.058,49.438,14.335L58.865,10.75L49.379,14.174L59.054,40.977L59.118,41.148C61.292,46.846,66.774,50.597,72.868,50.597L96.647,50.597C91.479,50.597,89.143,43.93,93.323,40.688C93.129,40.839,92.94,40.997,92.757,41.162L75.836,56.387L82.582,63.884L76.435,55.888C73.987,57.77,72.198,60.378,71.325,63.341C70.453,66.299,70.541,69.459,71.574,72.366L81.076,68.988L71.261,71.304L77.44,97.495C77.527,97.861,77.634,98.222,77.761,98.577C75.921,93.434,81.711,89.138,86.008,92.159C85.878,92.068,85.745,91.979,85.611,91.894L62.627,77.31L57.224,85.825L63.024,77.575C60.538,75.828,57.574,74.89,54.536,74.89C51.498,74.89,48.534,75.828,46.049,77.575L51.849,85.825L46.445,77.31L23.462,91.894C23.325,91.98,23.191,92.07,23.06,92.163C27.363,89.133,33.155,93.431,31.311,98.58C31.438,98.224,31.545,97.862,31.632,97.495L37.811,71.304L27.996,68.988L37.497,72.369C38.532,69.461,38.619,66.3,37.746,63.339C36.873,60.378,35.085,57.77,32.638,55.889L26.491,63.884L33.236,56.387L16.315,41.162C16.131,40.996,15.94,40.837,15.744,40.685C19.933,43.928,17.593,50.597,12.421,50.597L36.199,50.597C39.145,50.607,42.057,49.712,44.516,48.03C46.974,46.35,48.865,43.962,49.937,41.182C49.963,41.114,49.989,41.046,50.013,40.977L59.689,14.174L50.203,10.75L50.203,20.835L50.208,20.835C54.398,20.835,58.152,18.243,59.638,14.325ZM40.778,7.174L50.208,10.75L50.208,0.665L50.203,0.665C45.954,0.665,42.16,3.328,40.717,7.325L31.041,34.128L40.527,37.553L31.118,33.923C31.516,32.89,32.219,32.003,33.132,31.379C34.044,30.756,35.126,30.423,36.232,30.427L12.421,30.427C-1.527,30.427,-7.706,48.038,3.396,56.633L9.57,48.659L2.824,56.156L19.745,71.381C19.938,71.555,20.137,71.721,20.343,71.879C19.412,71.163,18.731,70.17,18.399,69.043C18.067,67.917,18.1,66.714,18.494,65.608C18.37,65.957,18.265,66.312,18.18,66.672L12.001,92.863L21.816,95.179L12.322,91.778C7.467,105.331,23.01,116.865,34.67,108.656L28.865,100.409L34.268,108.925L57.252,94.341C57.386,94.256,57.518,94.167,57.648,94.076C56.737,94.717,55.65,95.061,54.536,95.061C53.422,95.061,52.336,94.717,51.424,94.076C51.554,94.167,51.686,94.256,51.82,94.341L74.804,108.925L80.207,100.409L74.407,108.659C86.07,116.86,101.602,105.337,96.752,91.781L87.256,95.179L97.072,92.863L90.892,66.672C90.807,66.313,90.703,65.959,90.579,65.611C90.972,66.715,91.005,67.917,90.673,69.043C90.341,70.17,89.66,71.163,88.728,71.879C88.934,71.721,89.134,71.555,89.327,71.381L106.248,56.156L99.502,48.659L105.682,56.629C116.771,48.032,110.601,30.427,96.647,30.427L72.868,30.427C75.115,30.427,77.146,31.816,77.963,33.957L68.54,37.553L78.026,34.128L68.351,7.325L68.291,7.164C63.494,-5.449,45.564,-5.449,40.778,7.174Z"/>
</g>
  <g id="Semibold-M" transform="matrix(1.0,0.0,0.0,1.0,1990.0144265189629,1030.7808887021092)">  <path stroke-dasharray="none" fill="#000000" stroke-opacity="1" stroke-width="3px" stroke-linejoin="round" stroke-linecap="round" fill-opacity="1" stroke="none" fill-rule="nonzero" stroke-miterlimit="4" d="M58.316,13.824C56.983,17.34,52.094,17.34,50.76,13.832L58.865,10.75L50.709,13.694L60.384,40.497L60.439,40.644C62.403,45.792,67.359,49.183,72.868,49.183L96.647,49.183C92.82,49.183,91.08,44.217,94.19,41.806C94.022,41.936,93.86,42.071,93.703,42.213L76.782,57.438L82.582,63.884L77.297,57.009C75.086,58.709,73.47,61.065,72.682,63.74C71.894,66.413,71.973,69.266,72.906,71.892L81.076,68.988L72.637,70.98L78.817,97.17C78.891,97.485,78.983,97.796,79.092,98.1C77.721,94.269,82.017,91.081,85.195,93.316C85.083,93.237,84.969,93.161,84.853,93.088L61.87,78.504L57.224,85.825L62.211,78.732C59.963,77.152,57.283,76.304,54.536,76.304C51.789,76.304,49.109,77.152,46.862,78.732L51.849,85.825L47.203,78.504L24.219,93.088C24.102,93.162,23.987,93.239,23.874,93.319C27.058,91.077,31.354,94.265,29.98,98.103C30.089,97.797,30.181,97.486,30.256,97.17L36.435,70.979L27.996,68.988L36.165,71.895C37.1,69.268,37.178,66.413,36.39,63.739C35.602,61.065,33.986,58.709,31.776,57.01L26.491,63.884L32.29,57.438L15.37,42.213C15.211,42.07,15.047,41.933,14.878,41.803C17.995,44.216,16.252,49.183,12.421,49.183L36.199,49.183C38.863,49.192,41.495,48.383,43.718,46.862C45.939,45.344,47.648,43.186,48.617,40.673L48.683,40.497L58.359,13.694L50.203,10.75L50.203,19.421L50.208,19.421C53.811,19.421,57.038,17.193,58.316,13.824ZM42.1,7.676L50.208,10.75L50.208,2.079L50.203,2.079C46.549,2.079,43.288,4.369,42.047,7.805L32.371,34.608L40.527,37.553L32.437,34.432C32.732,33.667,33.253,33.009,33.93,32.546C34.606,32.084,35.407,31.838,36.228,31.841L12.421,31.841C-0.186,31.841,-5.768,47.75,4.261,55.515L9.57,48.659L3.77,55.105L20.691,70.33C20.857,70.479,21.028,70.622,21.205,70.758C20.511,70.224,20.003,69.484,19.755,68.643C19.508,67.804,19.533,66.907,19.826,66.082C19.719,66.382,19.629,66.687,19.556,66.997L13.377,93.188L21.816,95.179L13.653,92.255C9.268,104.497,23.315,114.921,33.857,107.5L28.865,100.409L33.511,107.731L56.494,93.147C56.61,93.074,56.723,92.998,56.835,92.919C56.162,93.393,55.359,93.647,54.536,93.647C53.713,93.647,52.911,93.393,52.237,92.919C52.349,92.998,52.463,93.074,52.578,93.147L75.562,107.731L80.207,100.409L75.22,107.503C85.765,114.917,99.802,104.502,95.42,92.258L87.256,95.179L95.696,93.188L89.516,66.997C89.443,66.688,89.353,66.384,89.247,66.085C89.539,66.908,89.564,67.803,89.317,68.643C89.069,69.484,88.561,70.224,87.867,70.758C88.044,70.622,88.215,70.479,88.382,70.33L105.302,55.105L99.502,48.659L104.815,55.512C114.835,47.744,109.261,31.841,96.647,31.841L72.868,31.841C74.531,31.841,76.034,32.87,76.642,34.462L68.54,37.553L76.696,34.608L67.021,7.805L66.969,7.667C62.634,-3.731,46.425,-3.731,42.1,7.676Z"/>
</g>
  <g id="Medium-M" transform="matrix(1.0,0.0,0.0,1.0,1693.3044265189628,1030.7808887021092)">  <path stroke-linecap="round" stroke-miterlimit="4" stroke-opacity="1" stroke-width="3px" stroke-linejoin="round" stroke-dasharray="none" fill="#000000" stroke="none" fill-opacity="1" fill-rule="nonzero" d="M56.994,13.323C56.122,15.622,52.953,15.622,52.081,13.33L58.865,10.75L52.039,13.214L61.714,40.017L61.76,40.14C63.515,44.738,67.944,47.769,72.868,47.769L96.647,47.769C94.16,47.769,93.016,44.505,95.056,42.924C94.916,43.032,94.78,43.146,94.648,43.264L77.728,58.489L82.582,63.884L78.159,58.13C76.185,59.648,74.742,61.751,74.038,64.14C73.335,66.526,73.405,69.074,74.238,71.418L81.076,68.988L74.013,70.655L80.193,96.846C80.255,97.109,80.332,97.369,80.423,97.624C79.521,95.103,82.322,93.025,84.382,94.473C84.288,94.407,84.192,94.343,84.096,94.282L61.112,79.698L57.224,85.825L61.397,79.888C59.388,78.476,56.992,77.718,54.536,77.718C52.08,77.718,49.684,78.476,47.675,79.888L51.849,85.825L47.96,79.698L24.977,94.282C24.879,94.344,24.782,94.408,24.688,94.475C26.753,93.021,29.553,95.1,28.648,97.626C28.74,97.37,28.817,97.11,28.879,96.845L35.059,70.655L27.996,68.988L34.833,71.421C35.667,69.075,35.738,66.527,35.034,64.139C34.33,61.751,32.888,59.648,30.914,58.131L26.491,63.884L31.345,58.489L14.424,43.264C14.291,43.145,14.154,43.03,14.012,42.921C16.057,44.504,14.912,47.769,12.421,47.769L36.199,47.769C38.581,47.777,40.933,47.054,42.92,45.695C44.905,44.338,46.432,42.409,47.298,40.165L47.353,40.017L57.029,13.214L50.203,10.75L50.203,18.007L50.208,18.007C53.223,18.007,55.924,16.142,56.994,13.323ZM43.422,8.177L50.208,10.75L50.208,3.493L50.203,3.493C47.145,3.493,44.415,5.409,43.377,8.286L33.701,35.089L40.527,37.553L33.756,34.941C33.949,34.443,34.287,34.015,34.728,33.714C35.167,33.413,35.689,33.253,36.223,33.255L12.421,33.255C1.154,33.255,-3.831,47.462,5.127,54.397L9.57,48.659L4.716,54.054L21.636,69.279C21.775,69.404,21.919,69.523,22.067,69.637C21.61,69.285,21.275,68.797,21.112,68.243C20.949,67.69,20.965,67.099,21.158,66.556C21.069,66.807,20.994,67.062,20.932,67.322L14.753,93.513L21.816,95.179L14.984,92.732C11.069,103.663,23.62,112.977,33.043,106.344L28.865,100.409L32.753,106.537L55.737,91.953C55.833,91.892,55.928,91.828,56.022,91.762C55.587,92.068,55.068,92.233,54.536,92.233C54.005,92.233,53.486,92.068,53.05,91.762C53.144,91.828,53.239,91.892,53.336,91.953L76.319,106.537L80.207,100.409L76.033,106.346C85.459,112.973,98.001,103.668,94.089,92.734L87.256,95.179L94.319,93.512L88.14,67.322C88.079,67.063,88.004,66.808,87.915,66.558C88.107,67.1,88.123,67.69,87.96,68.244C87.797,68.797,87.462,69.285,87.005,69.637C87.153,69.523,87.297,69.404,87.436,69.279L104.357,54.054L99.502,48.659L103.949,54.394C112.898,47.457,107.92,33.255,96.647,33.255L72.868,33.255C73.946,33.255,74.923,33.923,75.321,34.966L68.54,37.553L75.366,35.089L65.691,8.286L65.648,8.17C61.775,-2.013,47.285,-2.013,43.422,8.177Z"/>
</g>
  <g id="Regular-M" transform="matrix(1.0,0.0,0.0,1.0,1396.5944265189628,1030.7808887021092)">  <path stroke-miterlimit="4" stroke="none" fill-rule="nonzero" stroke-linejoin="round" fill-opacity="1" stroke-opacity="1" stroke-dasharray="none" fill="#000000" stroke-width="3px" stroke-linecap="round" d="M55.671,12.821C55.261,13.904,53.813,13.904,53.403,12.827L58.865,10.75L53.369,12.734L63.044,39.537L63.081,39.636C64.626,43.685,68.529,46.355,72.868,46.355L96.647,46.355C95.501,46.355,94.953,44.792,95.922,44.041C95.81,44.128,95.7,44.22,95.594,44.315L78.673,59.54L82.582,63.884L79.02,59.251C77.283,60.587,76.014,62.438,75.395,64.54C74.775,66.639,74.837,68.882,75.571,70.945L81.076,68.988L75.39,70.33L81.569,96.521C81.619,96.733,81.681,96.942,81.755,97.147C81.322,95.938,82.628,94.968,83.568,95.63C83.493,95.576,83.416,95.525,83.338,95.476L60.354,80.892L57.224,85.825L60.584,81.045C58.813,79.8,56.701,79.132,54.536,79.132C52.371,79.132,50.259,79.8,48.488,81.045L51.849,85.825L48.718,80.892L25.734,95.476C25.656,95.526,25.578,95.578,25.502,95.631C26.448,94.965,27.753,95.934,27.317,97.149C27.391,96.943,27.453,96.734,27.503,96.521L33.683,70.33L27.996,68.988L33.501,70.947C34.235,68.883,34.297,66.64,33.677,64.539C33.058,62.438,31.789,60.587,30.052,59.252L26.491,63.884L30.399,59.54L13.478,44.315C13.371,44.219,13.261,44.127,13.147,44.039C14.12,44.792,13.572,46.355,12.421,46.355L36.199,46.355C38.3,46.362,40.372,45.725,42.122,44.528C43.87,43.333,45.216,41.633,45.979,39.656L46.023,39.537L55.699,12.734L50.203,10.75L50.203,16.593L50.208,16.593C52.636,16.593,54.811,15.091,55.671,12.821ZM44.744,8.678L50.208,10.75L50.208,4.907L50.203,4.907C47.741,4.907,45.543,6.45,44.707,8.766L35.031,35.569L40.527,37.553L35.076,35.45C35.165,35.219,35.322,35.021,35.526,34.881C35.729,34.742,35.971,34.668,36.218,34.669L12.421,34.669C2.494,34.669,-1.893,47.174,5.993,53.279L9.57,48.659L5.661,53.003L22.582,68.227C22.694,68.328,22.81,68.424,22.929,68.516C22.708,68.346,22.547,68.111,22.468,67.844C22.39,67.577,22.397,67.292,22.491,67.03C22.419,67.232,22.358,67.438,22.309,67.647L16.129,93.837L21.816,95.179L16.315,93.209C12.87,102.828,23.925,111.032,32.229,105.187L28.865,100.409L31.996,105.343L54.979,90.759C55.057,90.71,55.133,90.658,55.209,90.606C55.012,90.744,54.777,90.818,54.536,90.818C54.296,90.818,54.061,90.744,53.863,90.606C53.939,90.658,54.015,90.71,54.093,90.759L77.077,105.343L80.207,100.409L76.847,105.189C85.154,111.03,96.201,102.833,92.758,93.21L87.256,95.179L92.943,93.837L86.763,67.646C86.714,67.438,86.654,67.233,86.582,67.032C86.675,67.292,86.683,67.577,86.604,67.844C86.525,68.111,86.364,68.347,86.143,68.516C86.262,68.424,86.378,68.328,86.49,68.227L103.411,53.003L99.502,48.659L103.083,53.277C110.961,47.169,106.58,34.669,96.647,34.669L72.868,34.669C73.361,34.669,73.811,34.977,74,35.47L68.54,37.553L74.036,35.569L64.36,8.766L64.326,8.673C60.915,-0.295,48.146,-0.295,44.744,8.678Z"/>
</g>
  <g id="Light-M" transform="matrix(1.0,0.0,0.0,1.0,1099.884426518963,1030.7808887021092)">  <path stroke-miterlimit="4" stroke="none" fill="#000000" fill-rule="nonzero" stroke-linecap="round" stroke-linejoin="round" stroke-opacity="1" stroke-width="3px" stroke-dasharray="none" fill-opacity="1" d="M54.761,12.476C54.668,12.721,54.405,12.721,54.313,12.481L63.96,39.206C65.391,42.959,68.931,45.381,72.868,45.381L96.647,45.381C96.424,45.381,96.287,44.99,96.519,44.811C96.425,44.884,96.334,44.96,96.246,45.039L79.325,60.264L82.582,63.884L79.614,60.023C78.04,61.233,76.89,62.91,76.329,64.815C75.768,66.718,75.824,68.749,76.488,70.619L81.076,68.988L76.337,70.106L82.517,96.297C82.559,96.474,82.61,96.648,82.672,96.819C82.562,96.512,82.838,96.307,83.008,96.426C82.945,96.382,82.881,96.339,82.816,96.298L59.833,81.714L57.224,85.825L60.024,81.842C58.417,80.712,56.5,80.106,54.536,80.106C52.572,80.106,50.655,80.712,49.048,81.842L51.849,85.825L49.24,81.714L26.256,96.298C26.19,96.34,26.126,96.383,26.062,96.428C26.237,96.304,26.512,96.508,26.4,96.821C26.462,96.649,26.514,96.475,26.555,96.297L32.735,70.106L27.996,68.988L32.583,70.62C33.249,68.75,33.305,66.718,32.743,64.814C32.182,62.91,31.032,61.234,29.459,60.024L26.491,63.884L29.747,60.264L12.827,45.039C12.737,44.959,12.645,44.882,12.551,44.809C12.785,44.991,12.649,45.381,12.421,45.381L36.199,45.381C38.105,45.387,39.985,44.81,41.572,43.724C43.158,42.64,44.378,41.099,45.07,39.305L45.107,39.206L54.783,12.403L50.203,10.75L50.203,15.619L50.208,15.619C52.231,15.619,54.043,14.368,54.761,12.476ZM45.655,9.023L50.208,10.75L50.208,5.88L50.203,5.88C48.151,5.88,46.32,7.167,45.623,9.096L35.947,35.899L40.527,37.553L35.984,35.8C36.002,35.753,36.034,35.713,36.075,35.685C36.116,35.657,36.165,35.642,36.215,35.643L12.421,35.643C3.417,35.643,-0.559,46.975,6.589,52.509L9.57,48.659L6.313,52.279L23.234,67.503C23.327,67.587,23.423,67.667,23.523,67.744C23.465,67.7,23.423,67.638,23.402,67.568C23.382,67.499,23.384,67.424,23.408,67.356C23.348,67.525,23.298,67.696,23.257,67.87L17.077,94.061L21.816,95.179L17.232,93.537C14.11,102.254,24.136,109.693,31.668,104.391L28.865,100.409L31.474,104.521L54.457,89.937C54.522,89.896,54.586,89.853,54.649,89.809C54.615,89.832,54.576,89.845,54.536,89.845C54.496,89.845,54.457,89.832,54.424,89.809C54.486,89.853,54.55,89.896,54.615,89.937L77.599,104.521L80.207,100.409L77.407,104.393C84.943,109.691,94.961,102.259,91.841,93.539L87.256,95.179L91.995,94.061L85.816,67.87C85.775,67.697,85.724,67.526,85.665,67.358C85.688,67.425,85.69,67.499,85.67,67.568C85.649,67.638,85.607,67.7,85.549,67.744C85.649,67.668,85.745,67.587,85.839,67.503L102.759,52.279L99.502,48.659L102.486,52.507C109.627,46.971,105.656,35.643,96.647,35.643L72.868,35.643C72.958,35.643,73.046,35.702,73.09,35.817L63.444,9.096C60.323,0.888,48.739,0.888,45.655,9.023Z"/>
</g>
  <g id="Thin-M" transform="matrix(1.0,0.0,0.0,1.0,803.174426518963,1030.7808887021092)">  <path stroke-linejoin="round" fill="#000000" stroke-width="3px" stroke-linecap="round" stroke-dasharray="none" stroke-miterlimit="4" stroke-opacity="1" fill-rule="nonzero" fill-opacity="1" stroke="none" d="M53.85,12.131C54.075,11.537,54.996,11.537,55.224,12.134L64.876,38.875C66.157,42.233,69.334,44.407,72.868,44.407L96.647,44.407C97.347,44.407,97.621,45.189,97.116,45.58C97.041,45.639,96.968,45.7,96.897,45.763L79.976,60.988L82.582,63.884L80.208,60.795C78.797,61.88,77.766,63.383,77.263,65.09C76.76,66.796,76.81,68.617,77.406,70.293L81.076,68.988L77.285,69.883L83.465,96.074C83.498,96.215,83.539,96.354,83.588,96.491C83.802,97.087,83.049,97.645,82.448,97.223L82.294,97.12L59.311,82.536L57.224,85.825L59.464,82.639C58.021,81.624,56.3,81.08,54.536,81.08C52.772,81.08,51.051,81.624,49.608,82.639L51.849,85.825L49.761,82.536L26.778,97.12L26.623,97.224C26.027,97.643,25.272,97.083,25.483,96.493C25.533,96.355,25.574,96.215,25.608,96.074L31.787,69.883L27.996,68.988L31.666,70.294C32.262,68.618,32.312,66.796,31.809,65.09C31.306,63.383,30.275,61.88,28.865,60.796L26.491,63.884L29.096,60.988L12.175,45.763C12.104,45.699,12.03,45.638,11.954,45.579C11.451,45.189,11.725,44.407,12.421,44.407L36.199,44.407C37.911,44.413,39.598,43.894,41.022,42.92C42.446,41.947,43.541,40.564,44.162,38.955L53.867,12.072L50.203,10.75L50.203,14.645L50.208,14.645C51.826,14.645,53.276,13.644,53.85,12.131ZM46.565,9.369L50.208,10.75L50.208,6.854L50.203,6.854C48.562,6.854,47.096,7.883,46.539,9.427L36.863,36.23C36.84,36.288,36.747,36.406,36.625,36.489C36.503,36.573,36.359,36.617,36.212,36.616L12.421,36.616C4.341,36.616,0.776,46.777,7.185,51.739L6.964,51.555L23.885,66.78C23.96,66.847,24.037,66.911,24.116,66.972C24.222,67.053,24.299,67.165,24.336,67.293C24.374,67.421,24.37,67.557,24.326,67.683C24.278,67.817,24.237,67.955,24.204,68.094L18.025,94.284L18.149,93.865C15.35,101.679,24.346,108.355,31.107,103.595L30.952,103.698L53.936,89.114L54.089,89.012C54.219,88.92,54.376,88.871,54.536,88.871C54.696,88.871,54.853,88.92,54.984,89.012L55.137,89.114L78.12,103.698L77.967,103.596C84.733,108.353,93.721,101.684,90.924,93.867L91.047,94.284L84.868,68.094C84.835,67.955,84.795,67.818,84.747,67.684C84.702,67.557,84.698,67.42,84.736,67.293C84.773,67.165,84.85,67.053,84.956,66.972C85.035,66.911,85.113,66.847,85.187,66.78L102.108,51.555L101.889,51.738C108.293,46.773,104.733,36.616,96.647,36.616L72.868,36.616C72.556,36.616,72.281,36.428,72.18,36.164L62.528,9.427C59.732,2.072,49.332,2.072,46.565,9.369Z"/>
</g>
  <g id="Ultralight-M" transform="matrix(1.0,0.0,0.0,1.0,506.46442651896285,1030.7808887021092)">  <path stroke-linejoin="round" fill="#000000" fill-opacity="1" stroke-width="3px" stroke="none" stroke-opacity="1" stroke-dasharray="none" stroke-miterlimit="4" fill-rule="nonzero" stroke-linecap="round" d="M52.94,11.785C53.482,10.354,55.588,10.354,56.134,11.788L65.792,38.545C66.922,41.508,69.737,43.433,72.868,43.433L96.647,43.433C98.271,43.433,98.955,45.387,97.712,46.35C97.656,46.394,97.601,46.439,97.548,46.487L80.628,61.712L82.582,63.884L80.801,61.568C79.553,62.527,78.642,63.856,78.197,65.366C77.752,66.874,77.797,68.484,78.324,69.967L81.076,68.988L78.233,69.659L84.413,95.85C84.438,95.956,84.469,96.061,84.505,96.163C85.041,97.661,83.259,98.984,81.888,98.019L81.773,97.943L58.789,83.359L57.224,85.825L58.904,83.435C57.625,82.536,56.099,82.054,54.536,82.054C52.973,82.054,51.447,82.536,50.168,83.435L51.849,85.825L50.283,83.359L27.3,97.943L27.183,98.02C25.817,98.982,24.032,97.657,24.567,96.164C24.604,96.061,24.635,95.956,24.66,95.85L30.839,69.659L27.996,68.988L30.748,69.968C31.276,68.485,31.32,66.874,30.875,65.365C30.43,63.856,29.519,62.527,28.271,61.568L26.491,63.884L28.445,61.712L11.524,46.487C11.47,46.439,11.415,46.393,11.358,46.349C10.117,45.388,10.802,43.433,12.421,43.433L36.199,43.433C37.717,43.438,39.211,42.979,40.472,42.117C41.733,41.255,42.703,40.03,43.253,38.604L52.951,11.742L50.203,10.75L50.203,13.671L50.208,13.671C51.422,13.671,52.509,12.921,52.94,11.785ZM47.476,9.714L50.208,10.75L50.208,7.828L50.203,7.828C48.972,7.828,47.873,8.6,47.455,9.758L37.779,36.561C37.678,36.822,37.459,37.099,37.175,37.293C36.89,37.488,36.553,37.591,36.209,37.59L12.421,37.59C5.264,37.59,2.11,46.578,7.781,50.969L7.616,50.831L24.536,66.056C24.592,66.106,24.65,66.154,24.71,66.2C24.979,66.407,25.175,66.693,25.27,67.017C25.366,67.343,25.357,67.689,25.243,68.009C25.207,68.11,25.177,68.213,25.152,68.317L18.973,94.508L19.066,94.194C16.59,101.105,24.556,107.016,30.547,102.798L30.43,102.876L53.414,88.292L53.529,88.215C53.823,88.008,54.175,87.897,54.536,87.897C54.897,87.897,55.249,88.008,55.544,88.215L55.658,88.292L78.642,102.876L78.527,102.799C84.522,107.015,92.481,101.109,90.007,94.195L90.1,94.508L83.92,68.317C83.895,68.213,83.865,68.111,83.829,68.01C83.716,67.69,83.706,67.342,83.802,67.018C83.897,66.692,84.093,66.407,84.362,66.2C84.422,66.154,84.48,66.106,84.536,66.056L101.457,50.831L101.293,50.968C106.959,46.575,103.81,37.59,96.647,37.59L72.868,37.59C72.153,37.59,71.515,37.154,71.27,36.511L61.613,9.758C59.14,3.255,49.925,3.255,47.476,9.714Z"/>
</g>
  <g id="Black-S" transform="matrix(1.0,0.0,0.0,1.0,2891.978645964348,613.7985300920327)">  <path stroke-opacity="1" stroke-linejoin="round" stroke-miterlimit="4" stroke-linecap="round" stroke-width="3px" stroke-dasharray="none" fill-opacity="1" stroke="none" fill-rule="nonzero" fill="#000000" d="M48.767,12.002C46.64,17.613,38.771,17.613,36.64,12.011L46.091,8.417L36.581,11.85L44.157,32.837C44.177,32.894,44.199,32.951,44.22,33.008C46.251,38.33,51.369,41.832,57.056,41.832L75.674,41.832C69.529,41.832,66.766,33.946,71.715,30.109C71.52,30.26,71.331,30.419,71.147,30.584L57.898,42.505L64.661,50.021L58.499,42.005C56.211,43.763,54.54,46.201,53.724,48.97C52.909,51.735,52.99,54.687,53.956,57.404L63.483,54.018L53.642,56.34L58.481,76.847C58.567,77.214,58.674,77.576,58.802,77.932C56.626,71.852,63.501,66.752,68.618,70.349C68.487,70.257,68.355,70.169,68.22,70.083L50.224,58.664L44.806,67.201L50.621,58.93C48.302,57.299,45.536,56.425,42.702,56.425C39.867,56.425,37.102,57.299,34.783,58.929L40.597,67.201L35.18,58.664L17.184,70.083C17.048,70.17,16.913,70.26,16.781,70.353C21.903,66.747,28.78,71.85,26.601,77.935C26.729,77.578,26.836,77.215,26.923,76.847L31.761,56.34L21.921,54.018L31.447,57.407C32.414,54.689,32.495,51.735,31.679,48.968C30.864,46.201,29.192,43.764,26.905,42.005L20.742,50.021L27.505,42.505L14.256,30.584C14.071,30.417,13.88,30.258,13.683,30.105C18.641,33.944,15.874,41.832,9.726,41.832L28.344,41.832C31.092,41.841,33.81,41.005,36.106,39.435C38.4,37.867,40.166,35.638,41.166,33.043C41.193,32.974,41.218,32.906,41.243,32.837L48.819,11.85L39.309,8.417L39.309,18.528L39.313,18.528C43.514,18.528,47.278,15.93,48.767,12.002ZM29.858,4.832L39.313,8.417L39.313,-1.694L39.309,-1.694C35.049,-1.694,31.245,0.977,29.799,4.984L22.223,25.971L31.733,29.404L22.299,25.765C22.773,24.538,23.607,23.484,24.693,22.742C25.777,22.001,27.062,21.605,28.377,21.61L9.726,21.61C-3.295,21.61,-9.068,38.065,1.303,46.095L7.493,38.1L0.73,45.616L13.979,57.537C14.173,57.711,14.373,57.878,14.579,58.037C13.479,57.191,12.675,56.018,12.283,54.687C11.89,53.357,11.93,51.936,12.394,50.629C12.27,50.978,12.165,51.335,12.08,51.696L7.241,72.203L17.082,74.525L7.563,71.116C3.027,83.781,17.539,94.55,28.422,86.888L22.601,78.621L28.019,87.158L46.015,75.739C46.149,75.653,46.282,75.565,46.412,75.473C45.325,76.237,44.03,76.647,42.702,76.647C41.374,76.647,40.078,76.237,38.991,75.473C39.122,75.565,39.254,75.653,39.389,75.739L57.385,87.158L62.802,78.621L56.987,86.892C67.872,94.545,82.374,83.785,77.842,71.119L68.322,74.525L78.162,72.203L73.324,51.696C73.239,51.336,73.134,50.981,73.01,50.632C73.474,51.937,73.513,53.356,73.121,54.687C72.729,56.018,71.924,57.191,70.824,58.037C71.03,57.878,71.231,57.712,71.424,57.537L84.673,45.616L77.91,38.1L84.105,46.091C94.465,38.059,88.7,21.61,75.674,21.61L57.056,21.61C59.731,21.61,62.146,23.262,63.114,25.799L53.667,29.404L63.177,25.971L55.601,4.984C55.582,4.93,55.562,4.876,55.542,4.823C51.061,-6.957,34.328,-6.957,29.858,4.832Z"/>
</g>
  <g id="Heavy-S" transform="matrix(1.0,0.0,0.0,1.0,2595.268645964348,613.7985300920327)">  <path stroke-miterlimit="4" fill-rule="nonzero" stroke-linecap="round" stroke-linejoin="round" stroke-opacity="1" stroke-width="3px" fill="#000000" stroke="none" stroke-dasharray="none" fill-opacity="1" d="M47.732,11.609C45.965,16.268,39.444,16.268,37.675,11.618L46.091,8.417L37.622,11.474L45.198,32.461L45.255,32.614C47.121,37.505,51.826,40.725,57.056,40.725L75.674,40.725C70.579,40.725,68.282,34.172,72.394,30.984C72.22,31.119,72.051,31.26,71.888,31.407L58.639,43.328L64.661,50.021L59.174,42.883C57.072,44.499,55.535,46.739,54.786,49.283C54.037,51.824,54.112,54.537,54.999,57.033L63.483,54.018L54.72,56.085L59.558,76.593C59.635,76.92,59.731,77.242,59.844,77.559C58.036,72.506,63.74,68.273,67.981,71.255C67.865,71.173,67.747,71.094,67.626,71.018L49.63,59.599L44.806,67.201L49.984,59.835C47.852,58.336,45.308,57.532,42.702,57.532C40.095,57.532,37.552,58.336,35.419,59.835L40.597,67.201L35.773,59.599L17.777,71.018C17.656,71.095,17.536,71.175,17.418,71.258C21.664,68.269,27.37,72.503,25.559,77.561C25.672,77.244,25.768,76.921,25.845,76.593L30.684,56.085L21.921,54.018L30.404,57.036C31.292,54.538,31.367,51.824,30.617,49.281C29.868,46.739,28.332,44.499,26.23,42.883L20.742,50.021L26.764,43.328L13.515,31.407C13.351,31.258,13.18,31.116,13.005,30.981C17.124,34.17,14.825,40.725,9.726,40.725L28.344,40.725C30.871,40.733,33.37,39.965,35.481,38.521C37.59,37.08,39.213,35.03,40.133,32.644C40.157,32.583,40.18,32.522,40.202,32.461L47.778,11.474L39.309,8.417L39.309,17.421L39.313,17.421C43.054,17.421,46.405,15.107,47.732,11.609ZM30.894,5.225L39.313,8.417L39.313,-0.587L39.309,-0.587C35.515,-0.587,32.128,1.791,30.84,5.36L23.264,26.347L31.733,29.404L23.332,26.163C23.725,25.145,24.417,24.271,25.317,23.656C26.216,23.041,27.283,22.713,28.374,22.717L9.726,22.717C-2.245,22.717,-7.551,37.84,1.981,45.219L7.493,38.1L1.471,44.793L14.72,56.714C14.892,56.869,15.07,57.018,15.254,57.159C14.34,56.456,13.671,55.481,13.345,54.374C13.018,53.268,13.051,52.086,13.438,51C13.327,51.311,13.233,51.629,13.157,51.95L8.319,72.458L17.082,74.525L8.606,71.489C4.437,83.127,17.778,93.027,27.784,85.983L22.601,78.621L27.425,86.223L45.422,74.804C45.541,74.728,45.659,74.649,45.775,74.567C44.875,75.2,43.802,75.54,42.702,75.54C41.602,75.54,40.529,75.2,39.628,74.567C39.744,74.649,39.862,74.728,39.982,74.804L57.978,86.223L62.802,78.621L57.624,85.986C67.632,93.023,80.964,83.132,76.799,71.492L68.322,74.525L77.085,72.457L72.246,51.95C72.17,51.629,72.077,51.313,71.967,51.003C72.352,52.087,72.385,53.268,72.059,54.374C71.733,55.481,71.064,56.456,70.149,57.159C70.333,57.018,70.511,56.869,70.684,56.714L83.933,44.793L77.91,38.1L83.427,45.216C92.949,37.834,87.65,22.717,75.674,22.717L57.056,22.717C59.273,22.717,61.275,24.087,62.079,26.194L53.667,29.404L62.136,26.347L54.56,5.36L54.507,5.216C50.388,-5.612,35.002,-5.612,30.894,5.225Z"/>
</g>
  <g id="Bold-S" transform="matrix(1.0,0.0,0.0,1.0,2298.5586459643478,613.7985300920327)">  <path stroke-width="3px" fill="#000000" stroke-opacity="1" fill-opacity="1" stroke-dasharray="none" stroke-miterlimit="4" stroke="none" fill-rule="nonzero" stroke-linecap="round" stroke-linejoin="round" d="M46.696,11.217C45.291,14.922,40.117,14.922,38.71,11.224L46.091,8.417L38.663,11.098L46.24,32.085L46.289,32.219C47.991,36.68,52.284,39.617,57.056,39.617L75.674,39.617C71.628,39.617,69.799,34.397,73.072,31.859C72.92,31.977,72.772,32.101,72.629,32.23L59.38,44.151L64.661,50.021L59.849,43.76C57.932,45.234,56.531,47.276,55.848,49.596C55.165,51.912,55.233,54.386,56.042,56.662L63.483,54.018L55.797,55.831L60.636,76.339C60.704,76.625,60.787,76.908,60.886,77.186C59.446,73.159,63.98,69.795,67.344,72.161C67.242,72.089,67.139,72.02,67.033,71.953L49.037,60.534L44.806,67.201L49.348,60.741C47.401,59.373,45.08,58.639,42.702,58.639C40.323,58.639,38.002,59.373,36.056,60.741L40.597,67.201L36.366,60.534L18.37,71.953C18.264,72.021,18.159,72.091,18.056,72.163C21.425,69.791,25.96,73.157,24.516,77.188C24.616,76.91,24.7,76.626,24.768,76.338L29.606,55.831L21.921,54.018L29.36,56.665C30.171,54.388,30.239,51.913,29.555,49.594C28.872,47.276,27.472,45.234,25.555,43.761L20.742,50.021L26.024,44.151L12.775,32.23C12.63,32.1,12.481,31.975,12.327,31.856C15.607,34.395,13.775,39.617,9.726,39.617L28.344,39.617C30.65,39.625,32.931,38.924,34.856,37.607C36.78,36.292,38.261,34.422,39.1,32.246C39.121,32.192,39.141,32.139,39.16,32.085L46.737,11.098L39.309,8.417L39.309,16.314L39.313,16.314C42.594,16.314,45.533,14.285,46.696,11.217ZM31.929,5.617L39.313,8.417L39.313,0.52L39.309,0.52C35.982,0.52,33.011,2.606,31.881,5.736L24.305,26.722L31.733,29.404L24.365,26.562C24.677,25.753,25.227,25.059,25.942,24.57C26.656,24.082,27.503,23.821,28.37,23.824L9.726,23.824C-1.195,23.824,-6.034,37.614,2.659,44.344L7.493,38.1L2.211,43.97L15.46,55.891C15.611,56.027,15.768,56.157,15.929,56.281C15.2,55.721,14.667,54.943,14.407,54.061C14.147,53.179,14.173,52.237,14.481,51.371C14.384,51.644,14.301,51.922,14.235,52.204L9.396,72.712L17.082,74.525L9.648,71.862C5.847,82.474,18.017,91.505,27.147,85.078L22.601,78.621L26.832,85.288L44.828,73.869C44.933,73.802,45.037,73.733,45.139,73.661C44.425,74.163,43.574,74.432,42.702,74.432C41.83,74.432,40.979,74.163,40.265,73.661C40.367,73.733,40.47,73.802,40.575,73.869L58.572,85.288L62.802,78.621L58.26,85.08C67.393,91.502,79.554,82.478,75.757,71.865L68.322,74.525L76.007,72.712L71.169,52.204C71.102,51.923,71.02,51.646,70.924,51.373C71.231,52.238,71.257,53.179,70.997,54.061C70.737,54.943,70.204,55.721,69.474,56.282C69.636,56.158,69.792,56.027,69.943,55.891L83.192,43.97L77.91,38.1L82.749,44.341C91.432,37.609,86.601,23.824,75.674,23.824L57.056,23.824C58.815,23.824,60.405,24.912,61.045,26.589L53.667,29.404L61.095,26.722L53.518,5.736L53.472,5.61C49.715,-4.267,35.676,-4.267,31.929,5.617Z"/>
</g>
  <g id="Semibold-S" transform="matrix(1.0,0.0,0.0,1.0,2001.848645964348,613.7985300920327)">  <path stroke-dasharray="none" fill="#000000" stroke-opacity="1" stroke-width="3px" stroke-linejoin="round" stroke-linecap="round" fill-opacity="1" stroke="none" fill-rule="nonzero" stroke-miterlimit="4" d="M45.661,10.824C44.617,13.577,40.79,13.577,39.745,10.831L46.091,8.417L39.705,10.722L47.281,31.709L47.324,31.824C48.862,35.855,52.742,38.51,57.056,38.51L75.674,38.51C72.678,38.51,71.315,34.622,73.751,32.734C73.62,32.836,73.492,32.942,73.369,33.053L60.12,44.974L64.661,50.021L60.523,44.638C58.792,45.969,57.527,47.814,56.91,49.909C56.293,52.001,56.355,54.236,57.085,56.291L63.483,54.018L56.875,55.577L61.713,76.084C61.772,76.331,61.844,76.574,61.929,76.813C60.855,73.812,64.219,71.317,66.708,73.066C66.62,73.005,66.531,72.945,66.44,72.888L48.444,61.468L44.806,67.201L48.711,61.647C46.951,60.41,44.852,59.746,42.702,59.746C40.551,59.746,38.452,60.41,36.693,61.647L40.597,67.201L36.96,61.468L18.964,72.888C18.872,72.946,18.782,73.006,18.693,73.069C21.186,71.313,24.55,73.81,23.474,76.815C23.56,76.575,23.632,76.332,23.69,76.084L28.529,55.577L21.921,54.018L28.317,56.294C29.049,54.237,29.111,52.001,28.493,49.908C27.876,47.814,26.611,45.969,24.881,44.639L20.742,50.021L25.283,44.974L12.034,33.053C11.91,32.941,11.782,32.834,11.65,32.731C14.09,34.621,12.726,38.51,9.726,38.51L28.344,38.51C30.43,38.517,32.491,37.884,34.231,36.693C35.97,35.505,37.309,33.814,38.067,31.847L38.119,31.709L45.695,10.722L39.309,8.417L39.309,15.207L39.313,15.207C42.134,15.207,44.661,13.462,45.661,10.824ZM32.964,6.01L39.313,8.417L39.313,1.628L39.309,1.628C36.448,1.628,33.894,3.421,32.923,6.112L25.347,27.098L31.733,29.404L25.398,26.96C25.63,26.361,26.037,25.846,26.567,25.484C27.096,25.122,27.724,24.929,28.366,24.931L9.726,24.931C-0.146,24.931,-4.516,37.388,3.337,43.468L7.493,38.1L2.952,43.147L16.201,55.068C16.331,55.185,16.465,55.297,16.604,55.403C16.06,54.986,15.663,54.406,15.469,53.748C15.275,53.09,15.294,52.388,15.524,51.742C15.44,51.977,15.37,52.216,15.313,52.459L10.474,72.966L17.082,74.525L10.69,72.236C7.257,81.821,18.256,89.983,26.51,84.172L22.601,78.621L26.239,84.353L44.235,72.934C44.325,72.877,44.414,72.817,44.502,72.756C43.975,73.126,43.346,73.325,42.702,73.325C42.058,73.325,41.429,73.126,40.902,72.756C40.989,72.817,41.078,72.877,41.169,72.934L59.165,84.353L62.802,78.621L58.897,84.175C67.154,89.98,78.145,81.825,74.714,72.238L68.322,74.525L74.93,72.966L70.091,52.459C70.034,52.217,69.964,51.978,69.88,51.744C70.109,52.389,70.129,53.09,69.935,53.748C69.741,54.406,69.343,54.986,68.799,55.404C68.938,55.297,69.073,55.185,69.203,55.068L82.452,43.147L77.91,38.1L82.07,43.466C89.915,37.384,85.551,24.931,75.674,24.931L57.056,24.931C58.357,24.931,59.535,25.737,60.01,26.983L53.667,29.404L60.053,27.098L52.477,6.112L52.437,6.003C49.043,-2.921,36.35,-2.921,32.964,6.01Z"/>
</g>
  <g id="Medium-S" transform="matrix(1.0,0.0,0.0,1.0,1705.138645964348,613.7985300920327)">  <path stroke-linecap="round" stroke-miterlimit="4" stroke-opacity="1" stroke-width="3px" stroke-linejoin="round" stroke-dasharray="none" fill="#000000" stroke="none" fill-opacity="1" fill-rule="nonzero" d="M44.626,10.432C43.943,12.232,41.462,12.232,40.78,10.437L46.091,8.417L40.746,10.346L48.322,31.333L48.358,31.429C49.732,35.03,53.2,37.403,57.056,37.403L75.674,37.403C73.728,37.403,72.832,34.847,74.429,33.609C74.319,33.694,74.213,33.783,74.11,33.876L60.861,45.797L64.661,50.021L61.198,45.516C59.653,46.704,58.523,48.351,57.972,50.222C57.421,52.09,57.476,54.085,58.129,55.921L63.483,54.018L57.952,55.323L62.791,75.83C62.84,76.036,62.9,76.24,62.971,76.439C62.265,74.466,64.458,72.838,66.071,73.972C65.997,73.921,65.923,73.871,65.847,73.823L47.851,62.403L44.806,67.201L48.074,62.553C46.501,61.447,44.625,60.853,42.702,60.853C40.779,60.853,38.903,61.447,37.33,62.553L40.597,67.201L37.553,62.403L19.557,73.823C19.48,73.871,19.405,73.922,19.33,73.974C20.947,72.836,23.14,74.463,22.432,76.441C22.503,76.241,22.564,76.037,22.613,75.83L27.451,55.323L21.921,54.018L27.274,55.922C27.928,54.086,27.983,52.09,27.431,50.221C26.88,48.351,25.751,46.704,24.206,45.516L20.742,50.021L24.543,45.797L11.294,33.876C11.19,33.782,11.082,33.693,10.972,33.607C12.573,34.847,11.676,37.403,9.726,37.403L28.344,37.403C30.209,37.409,32.051,36.843,33.606,35.779C35.16,34.717,36.356,33.207,37.034,31.449L37.078,31.333L44.654,10.346L39.309,8.417L39.309,14.099L39.313,14.099C41.674,14.099,43.789,12.639,44.626,10.432ZM33.999,6.402L39.313,8.417L39.313,2.735L39.309,2.735C36.915,2.735,34.777,4.236,33.964,6.488L26.388,27.474L31.733,29.404L26.431,27.359C26.582,26.969,26.847,26.634,27.192,26.398C27.536,26.163,27.945,26.037,28.363,26.038L9.726,26.038C0.904,26.038,-2.999,37.163,4.014,42.593L7.493,38.1L3.692,42.324L16.941,54.245C17.05,54.343,17.163,54.437,17.279,54.526C16.92,54.25,16.658,53.868,16.531,53.435C16.403,53.001,16.416,52.539,16.567,52.113C16.497,52.31,16.438,52.51,16.39,52.713L11.552,73.22L17.082,74.525L11.733,72.609C8.667,81.168,18.495,88.461,25.872,83.267L22.601,78.621L25.646,83.418L43.642,71.999C43.718,71.951,43.792,71.901,43.865,71.85C43.524,72.09,43.118,72.218,42.702,72.218C42.286,72.218,41.879,72.09,41.538,71.85C41.612,71.901,41.686,71.951,41.762,71.999L59.758,83.418L62.802,78.621L59.534,83.269C66.914,88.458,76.735,81.172,73.672,72.611L68.322,74.525L73.852,73.22L69.013,52.713C68.966,52.511,68.907,52.311,68.837,52.115C68.988,52.539,69.001,53.001,68.873,53.435C68.745,53.868,68.483,54.251,68.125,54.526C68.241,54.437,68.353,54.343,68.462,54.245L81.711,42.324L77.91,38.1L81.392,42.591C88.399,37.159,84.501,26.038,75.674,26.038L57.056,26.038C57.9,26.038,58.665,26.562,58.976,27.378L53.667,29.404L59.012,27.474L51.436,6.488L51.402,6.397C48.37,-1.576,37.025,-1.576,33.999,6.402Z"/>
</g>
  <g id="Regular-S" transform="matrix(1.0,0.0,0.0,1.0,1408.4286459643479,613.7985300920327)">  <path stroke-miterlimit="4" stroke="none" fill-rule="nonzero" stroke-linejoin="round" fill-opacity="1" stroke-opacity="1" stroke-dasharray="none" fill="#000000" stroke-width="3px" stroke-linecap="round" d="M43.591,10.039C43.269,10.887,42.135,10.887,41.815,10.043L46.091,8.417L41.788,9.97L49.364,30.957L49.393,31.035C50.602,34.205,53.658,36.296,57.056,36.296L75.674,36.296C74.777,36.296,74.348,35.072,75.107,34.484C75.019,34.553,74.933,34.624,74.85,34.699L61.601,46.62L64.661,50.021L61.873,46.394C60.513,47.439,59.519,48.889,59.034,50.535C58.549,52.179,58.598,53.934,59.172,55.55L63.483,54.018L59.03,55.068L63.869,75.576C63.908,75.742,63.956,75.906,64.014,76.066C63.675,75.119,64.698,74.36,65.434,74.878C65.375,74.836,65.315,74.796,65.254,74.757L47.257,63.338L44.806,67.201L47.437,63.458C46.051,62.484,44.397,61.961,42.702,61.961C41.007,61.961,39.353,62.484,37.966,63.458L40.597,67.201L38.146,63.338L20.15,74.757C20.088,74.797,20.028,74.837,19.968,74.879C20.708,74.358,21.73,75.116,21.389,76.068C21.447,75.907,21.496,75.742,21.535,75.576L26.373,55.068L21.921,54.018L26.231,55.551C26.806,53.935,26.854,52.179,26.369,50.534C25.884,48.889,24.891,47.44,23.531,46.394L20.742,50.021L23.802,46.62L10.553,34.699C10.469,34.624,10.383,34.551,10.294,34.482C11.056,35.072,10.627,36.296,9.726,36.296L28.344,36.296C29.989,36.301,31.611,35.803,32.981,34.865C34.351,33.93,35.404,32.599,36.001,31.05L36.036,30.957L43.612,9.97L39.309,8.417L39.309,12.992L39.313,12.992C41.214,12.992,42.917,11.817,43.591,10.039ZM35.035,6.795L39.313,8.417L39.313,3.842L39.309,3.842C37.381,3.842,35.66,5.05,35.006,6.864L27.43,27.85L31.733,29.404L27.464,27.757C27.534,27.576,27.657,27.421,27.817,27.312C27.976,27.203,28.165,27.145,28.359,27.146L9.726,27.146C1.953,27.146,-1.482,36.937,4.692,41.718L7.493,38.1L4.433,41.501L17.682,53.422C17.769,53.501,17.86,53.576,17.953,53.648C17.781,53.515,17.654,53.331,17.593,53.121C17.531,52.913,17.537,52.689,17.61,52.484C17.554,52.643,17.506,52.804,17.468,52.967L12.629,73.475L17.082,74.525L12.775,72.982C10.077,80.515,18.734,86.938,25.235,82.362L22.601,78.621L25.053,82.484L43.049,71.064C43.11,71.026,43.17,70.986,43.229,70.944C43.074,71.053,42.89,71.111,42.702,71.111C42.513,71.111,42.33,71.053,42.175,70.944C42.234,70.986,42.294,71.026,42.355,71.064L60.351,82.484L62.802,78.621L60.171,82.363C66.675,86.936,75.325,80.519,72.629,72.984L68.322,74.525L72.774,73.475L67.936,52.967C67.897,52.804,67.85,52.644,67.794,52.486C67.866,52.69,67.873,52.912,67.811,53.122C67.749,53.331,67.623,53.515,67.45,53.648C67.543,53.576,67.634,53.501,67.722,53.422L80.971,41.501L77.91,38.1L80.714,41.716C86.882,36.934,83.452,27.146,75.674,27.146L57.056,27.146C57.442,27.146,57.794,27.387,57.942,27.773L53.667,29.404L57.97,27.85L50.394,6.864L50.367,6.791C47.697,-0.231,37.699,-0.231,35.035,6.795Z"/>
</g>
  <g id="Light-S" transform="matrix(1.0,0.0,0.0,1.0,1111.718645964348,613.7985300920327)">  <path stroke-miterlimit="4" stroke="none" fill="#000000" fill-rule="nonzero" stroke-linecap="round" stroke-linejoin="round" stroke-opacity="1" stroke-width="3px" stroke-dasharray="none" fill-opacity="1" d="M42.878,9.769C42.805,9.96,42.599,9.96,42.527,9.772L50.081,30.698C51.202,33.637,53.973,35.533,57.056,35.533L75.674,35.533C75.5,35.533,75.393,35.228,75.574,35.087C75.501,35.144,75.429,35.204,75.36,35.266L62.111,47.187L64.661,50.021L62.338,46.998C61.105,47.946,60.205,49.259,59.765,50.75C59.326,52.24,59.37,53.831,59.89,55.295L63.483,54.018L59.772,54.893L64.611,75.401C64.643,75.539,64.684,75.676,64.732,75.81C64.646,75.569,64.862,75.408,64.995,75.502C64.946,75.467,64.896,75.434,64.845,75.401L46.849,63.982L44.806,67.201L46.999,64.082C45.741,63.198,44.24,62.723,42.702,62.723C41.164,62.723,39.663,63.198,38.405,64.082L40.597,67.201L38.555,63.982L20.559,75.401C20.507,75.434,20.456,75.468,20.407,75.503C20.544,75.406,20.759,75.566,20.671,75.811C20.72,75.676,20.76,75.54,20.793,75.401L25.631,54.893L21.921,54.018L25.513,55.296C26.034,53.832,26.077,52.24,25.638,50.75C25.199,49.259,24.298,47.946,23.066,46.998L20.742,50.021L23.292,47.187L10.043,35.266C9.973,35.203,9.901,35.143,9.827,35.085C10.011,35.228,9.904,35.533,9.726,35.533L28.344,35.533C29.837,35.538,31.308,35.086,32.551,34.236C33.793,33.387,34.748,32.18,35.29,30.776L35.319,30.698L42.895,9.712L39.309,8.417L39.309,12.23L39.313,12.23C40.897,12.23,42.316,11.25,42.878,9.769ZM35.748,7.065L39.313,8.417L39.313,4.604L39.309,4.604C37.703,4.604,36.268,5.611,35.723,7.122L28.147,28.109L31.733,29.404L28.176,28.032C28.19,27.995,28.215,27.964,28.247,27.941C28.279,27.92,28.317,27.908,28.356,27.908L9.726,27.908C2.676,27.908,-0.437,36.782,5.159,41.115L7.493,38.1L4.943,40.934L18.192,52.855C18.265,52.921,18.34,52.984,18.418,53.043C18.373,53.009,18.34,52.961,18.324,52.906C18.308,52.852,18.31,52.793,18.329,52.74C18.282,52.872,18.242,53.006,18.21,53.142L13.371,73.65L17.082,74.525L13.493,73.239C11.048,80.065,18.898,85.89,24.796,81.738L22.601,78.621L24.644,81.84L42.64,70.42C42.691,70.388,42.741,70.355,42.79,70.32C42.764,70.339,42.733,70.348,42.702,70.348C42.67,70.348,42.64,70.339,42.614,70.32C42.663,70.355,42.713,70.388,42.764,70.42L60.76,81.84L62.802,78.621L60.609,81.739C66.51,85.888,74.354,80.069,71.911,73.241L68.322,74.525L72.032,73.65L67.194,53.142C67.162,53.006,67.122,52.873,67.075,52.741C67.094,52.794,67.096,52.851,67.079,52.906C67.063,52.961,67.03,53.009,66.985,53.044C67.063,52.984,67.139,52.921,67.212,52.855L80.461,40.934L77.91,38.1L80.246,41.113C85.838,36.778,82.729,27.908,75.674,27.908L57.056,27.908C57.126,27.908,57.195,27.955,57.229,28.045L49.677,7.122C47.233,0.696,38.163,0.696,35.748,7.065Z"/>
</g>
  <g id="Thin-S" transform="matrix(1.0,0.0,0.0,1.0,815.0086459643479,613.7985300920327)">  <path stroke-linejoin="round" fill="#000000" stroke-width="3px" stroke-linecap="round" stroke-dasharray="none" stroke-miterlimit="4" stroke-opacity="1" fill-rule="nonzero" fill-opacity="1" stroke="none" d="M42.165,9.498C42.341,9.034,43.062,9.034,43.24,9.501L50.798,30.439C51.801,33.069,54.288,34.771,57.056,34.771L75.674,34.771C76.223,34.771,76.437,35.383,76.042,35.689C75.983,35.735,75.926,35.783,75.87,35.833L62.621,47.754L64.661,50.021L62.802,47.603C61.698,48.452,60.891,49.629,60.497,50.966C60.103,52.301,60.143,53.727,60.609,55.039L63.483,54.018L60.514,54.718L65.353,75.226C65.379,75.336,65.411,75.446,65.45,75.553C65.617,76.019,65.027,76.456,64.557,76.125L64.437,76.045L46.44,64.626L44.806,67.201L46.56,64.706C45.431,63.912,44.083,63.486,42.702,63.486C41.321,63.486,39.973,63.912,38.843,64.706L40.597,67.201L38.963,64.626L20.967,76.045L20.846,76.126C20.379,76.455,19.788,76.016,19.954,75.554C19.992,75.446,20.025,75.337,20.051,75.226L24.889,54.718L21.921,54.018L24.794,55.04C25.261,53.728,25.301,52.301,24.907,50.965C24.513,49.629,23.706,48.452,22.601,47.603L20.742,50.021L22.782,47.754L9.533,35.833C9.477,35.782,9.42,35.734,9.36,35.688C8.966,35.383,9.181,34.771,9.726,34.771L28.344,34.771C29.685,34.775,31.005,34.369,32.12,33.607C33.235,32.845,34.092,31.762,34.579,30.502L42.178,9.453L39.309,8.417L39.309,11.467L39.313,11.467C40.58,11.467,41.715,10.683,42.165,9.498ZM36.461,7.336L39.313,8.417L39.313,5.367L39.309,5.367C38.024,5.367,36.877,6.173,36.44,7.381L28.864,28.368C28.846,28.413,28.773,28.506,28.677,28.571C28.582,28.636,28.469,28.671,28.354,28.671L9.726,28.671C3.399,28.671,0.607,36.626,5.626,40.512L5.453,40.367L18.702,52.288C18.76,52.341,18.821,52.391,18.883,52.439C18.966,52.503,19.026,52.59,19.055,52.69C19.085,52.79,19.082,52.897,19.047,52.995C19.009,53.101,18.978,53.208,18.952,53.317L14.114,73.825L14.211,73.497C12.019,79.615,19.063,84.842,24.357,81.115L24.236,81.196L42.232,69.777L42.351,69.697C42.454,69.625,42.576,69.586,42.702,69.586C42.827,69.586,42.95,69.625,43.052,69.697L43.172,69.777L61.168,81.196L61.048,81.116C66.346,84.84,73.384,79.619,71.193,73.498L71.29,73.825L66.451,53.317C66.426,53.209,66.394,53.102,66.357,52.996C66.322,52.897,66.319,52.79,66.348,52.69C66.378,52.59,66.438,52.503,66.52,52.439C66.583,52.391,66.643,52.341,66.702,52.288L79.951,40.367L79.779,40.511C84.793,36.623,82.006,28.671,75.674,28.671L57.056,28.671C56.811,28.671,56.596,28.523,56.517,28.316L48.96,7.381C46.77,1.622,38.627,1.622,36.461,7.336Z"/>
</g>
  <g id="Ultralight-S" transform="matrix(1.0,0.0,0.0,1.0,518.2986459643479,613.7985300920327)">  <path stroke-linejoin="round" fill="#000000" fill-opacity="1" stroke-width="3px" stroke="none" stroke-opacity="1" stroke-dasharray="none" stroke-miterlimit="4" fill-rule="nonzero" stroke-linecap="round" d="M41.452,9.228C41.877,8.107,43.526,8.107,43.953,9.23L51.515,30.181C52.4,32.501,54.604,34.008,57.056,34.008L75.674,34.008C76.946,34.008,77.482,35.538,76.509,36.292C76.465,36.326,76.422,36.362,76.38,36.399L63.131,48.32L64.661,50.021L63.267,48.207C62.29,48.958,61.577,49.999,61.228,51.181C60.88,52.362,60.915,53.623,61.327,54.784L63.483,54.018L61.256,54.543L66.095,75.05C66.115,75.134,66.139,75.215,66.168,75.296C66.587,76.469,65.192,77.504,64.118,76.749L64.028,76.689L46.032,65.27L44.806,67.201L46.122,65.33C45.12,64.626,43.926,64.248,42.702,64.248C41.478,64.248,40.283,64.626,39.282,65.33L40.597,67.201L39.372,65.27L21.376,76.689L21.285,76.75C20.215,77.503,18.817,76.466,19.236,75.297C19.265,75.216,19.289,75.134,19.309,75.05L24.147,54.543L21.921,54.018L24.076,54.785C24.489,53.624,24.524,52.362,24.175,51.181C23.827,49.999,23.113,48.958,22.136,48.207L20.742,50.021L22.272,48.32L9.023,36.399C8.981,36.362,8.938,36.326,8.894,36.291C7.921,35.539,8.458,34.008,9.726,34.008L28.344,34.008C29.533,34.012,30.702,33.653,31.69,32.977C32.677,32.302,33.437,31.343,33.867,30.227L41.461,9.194L39.309,8.417L39.309,10.705L39.313,10.705C40.263,10.705,41.115,10.117,41.452,9.228ZM37.174,7.606L39.313,8.417L39.313,6.129L39.309,6.129C38.345,6.129,37.485,6.734,37.157,7.64L29.581,28.627C29.502,28.832,29.33,29.048,29.108,29.201C28.885,29.353,28.621,29.434,28.351,29.433L9.726,29.433C4.121,29.433,1.652,36.471,6.093,39.909L5.963,39.801L19.212,51.722C19.256,51.761,19.301,51.799,19.348,51.834C19.558,51.996,19.712,52.22,19.787,52.475C19.862,52.729,19.854,53.001,19.765,53.251C19.737,53.33,19.713,53.411,19.694,53.493L14.856,74L14.929,73.754C12.99,79.165,19.227,83.793,23.918,80.491L23.827,80.552L41.823,69.133L41.913,69.073C42.144,68.91,42.419,68.823,42.702,68.823C42.984,68.823,43.26,68.91,43.491,69.073L43.581,69.133L61.577,80.552L61.487,80.492C66.181,83.792,72.413,79.169,70.475,73.754L70.548,74L65.709,53.492C65.69,53.411,65.666,53.331,65.638,53.252C65.549,53.001,65.542,52.729,65.617,52.475C65.692,52.22,65.845,51.996,66.056,51.835C66.102,51.799,66.148,51.761,66.192,51.722L79.441,39.801L79.312,39.908C83.749,36.468,81.283,29.433,75.674,29.433L57.056,29.433C56.496,29.433,55.996,29.091,55.804,28.588L48.243,7.64C46.306,2.549,39.091,2.549,37.174,7.606Z"/>
</g>
 </g>
</svg>
