<?xml version="1.0" encoding="UTF-8"?>
<!-- Generator: CustomSymbols v2.6.2.41 by @serious_bret https://bretlester.com/app_content/CustomSymbols/ -->
<!-- Guides: Left/Right 0.0/0.0 Cap/Base 0.269/0.127 -->
<!-- Settings: RefScale 1.0 Min/Max Stroke Scales 0.5/2.21 -->
<!DOCTYPE svg
PUBLIC "-//W3C//DTD SVG 1.1//EN"
       "http://www.w3.org/Graphics/SVG/1.1/DTD/svg11.dtd">
<svg version="1.1" xmlns="http://www.w3.org/2000/svg" xmlns:xlink="http://www.w3.org/1999/xlink" width="3300" height="2200">
<![CDATA[<svg width="24" height="25" viewBox="0 0 24 25" fill="none" xmlns="http://www.w3.org/2000/svg">
<path d="M4 5.78317V20.3692C4 21.2592 5.077 21.7062 5.707 21.0762L12 14.7832L18.293 21.0762C18.923 21.7062 20 21.2602 20 20.3692V5.78317C20 5.25274 19.7893 4.74403 19.4142 4.36896C19.0391 3.99389 18.5304 3.78317 18 3.78317H6C5.46957 3.78317 4.96086 3.99389 4.58579 4.36896C4.21071 4.74403 4 5.25274 4 5.78317V5.78317Z" stroke="#777777" stroke-width="2.25" stroke-linecap="round" stroke-linejoin="round"/>
</svg>
]]>
 <g id="Notes">
  <rect height="2200" id="artboard" style="fill:white;opacity:1" width="3300" x="0" y="0"/>
  <line id="" style="fill:none;stroke:black;opacity:1;stroke-width:0.5;" x1="263" x2="3036" y1="292" y2="292"/>
  <text id="reftext1" style="stroke:none;fill:black;font-family:-apple-system,&quot;SF Pro Display&quot;,&quot;SF Pro Text&quot;,Helvetica,sans-serif;font-weight:bold;" transform="matrix(1 0 0 1 263 322)">Weight/Scale Variations</text>
  <text id="reftext2" style="stroke:none;fill:black;font-family:-apple-system,&quot;SF Pro Display&quot;,&quot;SF Pro Text&quot;,Helvetica,sans-serif;text-anchor:middle;" transform="matrix(1 0 0 1 559.711 322)">Ultralight</text>
  <text style="stroke:none;fill:black;font-family:-apple-system,&quot;SF Pro Display&quot;,&quot;SF Pro Text&quot;,Helvetica,sans-serif;text-anchor:middle;" transform="matrix(1 0 0 1 856.422 322)">Thin</text>
  <text style="stroke:none;fill:black;font-family:-apple-system,&quot;SF Pro Display&quot;,&quot;SF Pro Text&quot;,Helvetica,sans-serif;text-anchor:middle;" transform="matrix(1 0 0 1 1153.13 322)">Light</text>
  <text style="stroke:none;fill:black;font-family:-apple-system,&quot;SF Pro Display&quot;,&quot;SF Pro Text&quot;,Helvetica,sans-serif;text-anchor:middle;" transform="matrix(1 0 0 1 1449.84 322)">Regular</text>
  <text style="stroke:none;fill:black;font-family:-apple-system,&quot;SF Pro Display&quot;,&quot;SF Pro Text&quot;,Helvetica,sans-serif;text-anchor:middle;" transform="matrix(1 0 0 1 1746.56 322)">Medium</text>
  <text style="stroke:none;fill:black;font-family:-apple-system,&quot;SF Pro Display&quot;,&quot;SF Pro Text&quot;,Helvetica,sans-serif;text-anchor:middle;" transform="matrix(1 0 0 1 2043.27 322)">Semibold</text>
  <text style="stroke:none;fill:black;font-family:-apple-system,&quot;SF Pro Display&quot;,&quot;SF Pro Text&quot;,Helvetica,sans-serif;text-anchor:middle;" transform="matrix(1 0 0 1 2339.98 322)">Bold</text>
  <text style="stroke:none;fill:black;font-family:-apple-system,&quot;SF Pro Display&quot;,&quot;SF Pro Text&quot;,Helvetica,sans-serif;text-anchor:middle;" transform="matrix(1 0 0 1 2636.69 322)">Heavy</text>
  <text style="stroke:none;fill:black;font-family:-apple-system,&quot;SF Pro Display&quot;,&quot;SF Pro Text&quot;,Helvetica,sans-serif;text-anchor:middle;" transform="matrix(1 0 0 1 2933.4 322)">Black</text>
  <line id="" style="fill:none;stroke:black;opacity:1;stroke-width:0.5;" x1="263" x2="3036" y1="1903" y2="1903"/>
  <g id="" transform="matrix(1 0 0 1 263 1933)">
   <path d="M9.24805 0.830078C13.5547 0.830078 17.1387-2.74414 17.1387-7.05078C17.1387-11.3574 13.5449-14.9316 9.23828-14.9316C4.94141-14.9316 1.36719-11.3574 1.36719-7.05078C1.36719-2.74414 4.95117 0.830078 9.24805 0.830078ZM9.24805-0.654297C5.70312-0.654297 2.87109-3.49609 2.87109-7.05078C2.87109-10.6055 5.69336-13.4473 9.23828-13.4473C12.793-13.4473 15.6348-10.6055 15.6445-7.05078C15.6543-3.49609 12.8027-0.654297 9.24805-0.654297ZM6.39648-6.31836L8.50586-6.31836L8.50586-4.19922C8.50586-3.75977 8.79883-3.45703 9.22852-3.45703C9.67773-3.45703 9.9707-3.75977 9.9707-4.19922L9.9707-6.31836L12.0996-6.31836C12.5391-6.31836 12.8418-6.61133 12.8418-7.04102C12.8418-7.48047 12.5391-7.7832 12.0996-7.7832L9.9707-7.7832L9.9707-9.89258C9.9707-10.3418 9.67773-10.6445 9.22852-10.6445C8.79883-10.6445 8.50586-10.3418 8.50586-9.89258L8.50586-7.7832L6.39648-7.7832C5.94727-7.7832 5.64453-7.48047 5.64453-7.04102C5.64453-6.61133 5.94727-6.31836 6.39648-6.31836Z"/>
  </g>
  <g id="" transform="matrix(1 0 0 1 281.506 1933)">
   <path d="M11.709 2.91016C17.1582 2.91016 21.6699-1.61133 21.6699-7.05078C21.6699-12.5 17.1484-17.0117 11.6992-17.0117C6.25977-17.0117 1.74805-12.5 1.74805-7.05078C1.74805-1.61133 6.26953 2.91016 11.709 2.91016ZM11.709 1.25C7.09961 1.25 3.41797-2.44141 3.41797-7.05078C3.41797-11.6602 7.08984-15.3516 11.6992-15.3516C16.3086-15.3516 20-11.6602 20.0098-7.05078C20.0195-2.44141 16.3184 1.25 11.709 1.25ZM7.98828-6.23047L10.8789-6.23047L10.8789-3.32031C10.8789-2.83203 11.2109-2.5 11.6895-2.5C12.1777-2.5 12.5195-2.83203 12.5195-3.32031L12.5195-6.23047L15.4297-6.23047C15.918-6.23047 16.25-6.5625 16.25-7.04102C16.25-7.5293 15.918-7.87109 15.4297-7.87109L12.5195-7.87109L12.5195-10.7617C12.5195-11.2695 12.1777-11.6016 11.6895-11.6016C11.2109-11.6016 10.8789-11.2598 10.8789-10.7617L10.8789-7.87109L7.98828-7.87109C7.48047-7.87109 7.14844-7.5293 7.14844-7.04102C7.14844-6.5625 7.49023-6.23047 7.98828-6.23047Z"/>
  </g>
  <g id="" transform="matrix(1 0 0 1 304.924 1933)">
   <path d="M14.9707 5.66406C21.9336 5.66406 27.6953-0.0976562 27.6953-7.05078C27.6953-14.0137 21.9238-19.7754 14.9609-19.7754C8.00781-19.7754 2.25586-14.0137 2.25586-7.05078C2.25586-0.0976562 8.01758 5.66406 14.9707 5.66406ZM14.9707 3.84766C8.93555 3.84766 4.08203-1.01562 4.08203-7.05078C4.08203-13.0957 8.92578-17.9492 14.9609-17.9492C21.0059-17.9492 25.8594-13.0957 25.8691-7.05078C25.8789-1.01562 21.0156 3.84766 14.9707 3.84766ZM10.0586-6.14258L14.0625-6.14258L14.0625-2.12891C14.0625-1.5918 14.4336-1.2207 14.9512-1.2207C15.4883-1.2207 15.8594-1.5918 15.8594-2.12891L15.8594-6.14258L19.8828-6.14258C20.4102-6.14258 20.791-6.51367 20.791-7.03125C20.791-7.56836 20.4199-7.94922 19.8828-7.94922L15.8594-7.94922L15.8594-11.9531C15.8594-12.5098 15.4883-12.8809 14.9512-12.8809C14.4336-12.8809 14.0625-12.5 14.0625-11.9531L14.0625-7.94922L10.0586-7.94922C9.50195-7.94922 9.13086-7.56836 9.13086-7.03125C9.13086-6.51367 9.51172-6.14258 10.0586-6.14258Z"/>
  </g>
  <text style="stroke:none;fill:black;font-family:-apple-system,&quot;SF Pro Display&quot;,&quot;SF Pro Text&quot;,Helvetica,sans-serif;font-weight:bold;" transform="matrix(1 0 0 1 263 1953)">Design Variations</text>
  <text style="stroke:none;fill:black;font-family:-apple-system,&quot;SF Pro Display&quot;,&quot;SF Pro Text&quot;,Helvetica,sans-serif;" transform="matrix(1 0 0 1 263 1971)">Symbols are supported in up to nine weights and three scales.</text>
  <text style="stroke:none;fill:black;font-family:-apple-system,&quot;SF Pro Display&quot;,&quot;SF Pro Text&quot;,Helvetica,sans-serif;" transform="matrix(1 0 0 1 263 1989)">For optimal layout with text and other symbols, vertically align</text>
  <text style="stroke:none;fill:black;font-family:-apple-system,&quot;SF Pro Display&quot;,&quot;SF Pro Text&quot;,Helvetica,sans-serif;" transform="matrix(1 0 0 1 263 2007)">symbols with the adjacent text.</text>
  <line id="" style="fill:none;stroke:#00AEEF;stroke-width:0.5;opacity:1.0;" x1="776" x2="776" y1="1919" y2="1933"/>
  <g id="" transform="matrix(1 0 0 1 776 1933)">
   <path d="M3.31055 0.126953C3.82812 0.126953 4.08203-0.0683594 4.26758-0.605469L5.52734-4.0625L11.2891-4.0625L12.5488-0.605469C12.7344-0.0683594 12.9883 0.126953 13.4961 0.126953C14.0137 0.126953 14.3457-0.185547 14.3457-0.673828C14.3457-0.839844 14.3164-0.986328 14.2383-1.20117L9.6582-13.3887C9.43359-13.9941 9.0332-14.2871 8.4082-14.2871C7.80273-14.2871 7.39258-13.9941 7.17773-13.3984L2.59766-1.19141C2.51953-0.976562 2.49023-0.830078 2.49023-0.664062C2.49023-0.175781 2.80273 0.126953 3.31055 0.126953ZM6.00586-5.53711L8.37891-12.1094L8.42773-12.1094L10.8008-5.53711Z"/>
  </g>
  <line id="" style="fill:none;stroke:#00AEEF;stroke-width:0.5;opacity:1.0;" x1="792.836" x2="792.836" y1="1919" y2="1933"/>
  <text style="stroke:none;fill:black;font-family:-apple-system,&quot;SF Pro Display&quot;,&quot;SF Pro Text&quot;,Helvetica,sans-serif;font-weight:bold;" transform="matrix(1 0 0 1 776 1953)">Margins</text>
  <text style="stroke:none;fill:black;font-family:-apple-system,&quot;SF Pro Display&quot;,&quot;SF Pro Text&quot;,Helvetica,sans-serif;" transform="matrix(1 0 0 1 776 1971)">Leading and trailing margins on the left and right side of each symbol</text>
  <text style="stroke:none;fill:black;font-family:-apple-system,&quot;SF Pro Display&quot;,&quot;SF Pro Text&quot;,Helvetica,sans-serif;" transform="matrix(1 0 0 1 776 1989)">can be adjusted by modifying the x-location of the margin guidelines.</text>
  <text style="stroke:none;fill:black;font-family:-apple-system,&quot;SF Pro Display&quot;,&quot;SF Pro Text&quot;,Helvetica,sans-serif;" transform="matrix(1 0 0 1 776 2007)">Modifications are automatically applied proportionally to all</text>
  <text style="stroke:none;fill:black;font-family:-apple-system,&quot;SF Pro Display&quot;,&quot;SF Pro Text&quot;,Helvetica,sans-serif;" transform="matrix(1 0 0 1 776 2025)">scales and weights.</text>
  <g id="" transform="matrix(1 0 0 1 1289 1933)">
   <path d="M2.8418 1.86523L4.54102 3.57422C5.40039 4.44336 6.38672 4.38477 7.31445 3.35938L17.4902-7.85156C17.7539-7.76367 18.0273-7.7832 18.3398-7.8418L19.4043-8.03711L20.0684-7.36328L20.0293-6.80664C19.9902-6.30859 20.1172-5.92773 20.6055-5.44922L21.3672-4.70703C21.8457-4.22852 22.4609-4.19922 22.9297-4.66797L25.8398-7.58789C26.3086-8.05664 26.2891-8.65234 25.8105-9.13086L25.0391-9.89258C24.5605-10.3711 24.1895-10.5273 23.7109-10.4883L23.1348-10.4395L22.4902-11.0742L22.7344-12.1973C22.8613-12.7637 22.7051-13.2031 22.1191-13.7891L19.9219-15.9766C16.582-19.2969 12.1484-19.2188 9.25781-16.3281C8.83789-15.918 8.80859-15.3418 9.04297-14.9512C9.27734-14.5898 9.73633-14.3555 10.3809-14.5215C11.8457-14.8633 13.3691-14.9219 14.7949-13.9844L14.209-12.5293C14.0137-12.0508 13.9844-11.6504 14.1113-11.2891L3.04688-0.898438C2.06055 0.0195312 1.98242 0.996094 2.8418 1.86523ZM10.752-15.957C13.1836-17.7344 16.4746-17.4316 18.7012-15.2051L21.1328-12.793C21.3672-12.5586 21.4062-12.373 21.3379-12.0312L21.0156-10.5469L22.5195-9.0625L23.5059-9.12109C23.7598-9.13086 23.8379-9.11133 24.0332-8.91602L24.6094-8.33984L22.168-5.89844L21.5918-6.47461C21.3965-6.66992 21.3672-6.74805 21.377-7.01172L21.4453-7.98828L19.9512-9.47266L18.4277-9.21875C18.1055-9.15039 17.959-9.17969 17.7148-9.41406L15.7129-11.416C15.459-11.6504 15.4297-11.8164 15.5859-12.1875L16.4648-14.2773C14.9023-15.7324 12.8711-16.3574 10.8398-15.7617C10.6836-15.7227 10.625-15.8496 10.752-15.957ZM5.27344 2.30469L4.10156 1.14258C3.63281 0.683594 3.74023 0.341797 4.14062-0.0195312L14.9512-10.1953L16.416-8.71094L6.42578 2.27539C6.07422 2.67578 5.74219 2.77344 5.27344 2.30469Z"/>
  </g>
  <text style="stroke:none;fill:black;font-family:-apple-system,&quot;SF Pro Display&quot;,&quot;SF Pro Text&quot;,Helvetica,sans-serif;font-weight:bold;" transform="matrix(1 0 0 1 1289 1953)">Exporting</text>
  <text style="stroke:none;fill:black;font-family:-apple-system,&quot;SF Pro Display&quot;,&quot;SF Pro Text&quot;,Helvetica,sans-serif;" transform="matrix(1 0 0 1 1289 1971)">Symbols should be outlined when exporting to ensure the</text>
  <text style="stroke:none;fill:black;font-family:-apple-system,&quot;SF Pro Display&quot;,&quot;SF Pro Text&quot;,Helvetica,sans-serif;" transform="matrix(1 0 0 1 1289 1989)">design is preserved when submitting to Xcode.</text>
  <text id="template-version" style="stroke:none;fill:black;font-family:-apple-system,&quot;SF Pro Display&quot;,&quot;SF Pro Text&quot;,Helvetica,sans-serif;text-anchor:end;" transform="matrix(1 0 0 1 3036 1933)">Template v.2.0</text>
  <text style="stroke:none;fill:black;font-family:-apple-system,&quot;SF Pro Display&quot;,&quot;SF Pro Text&quot;,Helvetica,sans-serif;text-anchor:end;" transform="matrix(1 0 0 1 3036 1951)">Requires Xcode 12 or greater</text>
  <text style="stroke:none;fill:black;font-family:-apple-system,&quot;SF Pro Display&quot;,&quot;SF Pro Text&quot;,Helvetica,sans-serif;" transform="matrix(1 0 0 1 263 726)">Small</text>
  <text style="stroke:none;fill:black;font-family:-apple-system,&quot;SF Pro Display&quot;,&quot;SF Pro Text&quot;,Helvetica,sans-serif;" transform="matrix(1 0 0 1 263 1156)">Medium</text>
  <text style="stroke:none;fill:black;font-family:-apple-system,&quot;SF Pro Display&quot;,&quot;SF Pro Text&quot;,Helvetica,sans-serif;" transform="matrix(1 0 0 1 263 1586)">Large</text>
 </g>
 <g id="Guides">
  <g id="H-reference" style="fill:#27AAE1;stroke:none;" transform="matrix(1 0 0 1 339 696)">
   <path d="M0.976562 0L3.66211 0L12.9883-24.4629L45.752-24.4629L55.127 0L57.7637 0L30.6152-70.459L28.125-70.459ZM29.3457-67.1387L29.4434-67.1387L44.873-26.709L13.8672-26.709Z"/>
  </g>
  <line id="Baseline-S" style="fill:none;stroke:#27AAE1;opacity:1;stroke-width:0.5;" x1="263" x2="3036" y1="696" y2="696"/>
  <line id="Capline-S" style="fill:none;stroke:#27AAE1;opacity:1;stroke-width:0.5;" x1="263" x2="3036" y1="625.541" y2="625.541"/>
  <g id="H-reference" style="fill:#27AAE1;stroke:none;" transform="matrix(1 0 0 1 339 1126)">
   <path d="M0.976562 0L3.66211 0L12.9883-24.4629L45.752-24.4629L55.127 0L57.7637 0L30.6152-70.459L28.125-70.459ZM29.3457-67.1387L29.4434-67.1387L44.873-26.709L13.8672-26.709Z"/>
  </g>
  <line id="Baseline-M" style="fill:none;stroke:#27AAE1;opacity:1;stroke-width:0.5;" x1="263" x2="3036" y1="1126" y2="1126"/>
  <line id="Capline-M" style="fill:none;stroke:#27AAE1;opacity:1;stroke-width:0.5;" x1="263" x2="3036" y1="1055.54" y2="1055.54"/>
  <g id="H-reference" style="fill:#27AAE1;stroke:none;" transform="matrix(1 0 0 1 339 1556)">
   <path d="M0.976562 0L3.66211 0L12.9883-24.4629L45.752-24.4629L55.127 0L57.7637 0L30.6152-70.459L28.125-70.459ZM29.3457-67.1387L29.4434-67.1387L44.873-26.709L13.8672-26.709Z"/>
  </g>
  <line id="Baseline-L" style="fill:none;stroke:#27AAE1;opacity:1;stroke-width:0.5;" x1="263" x2="3036" y1="1556" y2="1556"/>
  <line id="Capline-L" style="fill:none;stroke:#27AAE1;opacity:1;stroke-width:0.5;" x1="263" x2="3036" y1="1485.54" y2="1485.54"/>
  <line id="left-margin" x1="1395.1353290562913" x2="1395.1353290562913" y1="1030.79" y2="1150.12" style="fill:none;stroke:#00AEEF;stroke-width:0.5;opacity:1.0;"/>
  <line id="right-margin" x1="1507.1246709437085" x2="1507.1246709437085" y1="1030.79" y2="1150.12" style="fill:none;stroke:#00AEEF;stroke-width:0.5;opacity:1.0;"/>
 </g>
 <g id="Symbols">
  <g id="Black-L" transform="matrix(1.0,0.0,0.0,1.0,2862.446874482616,1434.8426973011951)">  <path stroke-miterlimit="4" fill-rule="nonzero" stroke-dasharray="none" stroke-opacity="1" fill="#000000" fill-opacity="1" stroke-linejoin="round" stroke-linecap="round" stroke="none" stroke-width="2.25px" d="M9.112,34.811L9.112,122.611C9.112,141.301,31.715,150.67,44.935,137.449L82.816,99.569L61.651,99.569L99.531,137.449C112.751,150.669,135.354,141.308,135.354,122.611L135.354,34.811C135.354,27.649,132.509,20.78,127.444,15.716C122.38,10.652,115.511,7.807,108.35,7.807L36.117,7.807C28.954,7.807,22.086,10.652,17.021,15.716C11.957,20.78,9.112,27.649,9.112,34.811ZM39.044,34.811C39.044,35.588,38.735,36.332,38.186,36.881C37.637,37.43,36.893,37.738,36.117,37.738L108.35,37.738C107.573,37.738,106.829,37.43,106.28,36.881C105.731,36.332,105.423,35.588,105.423,34.811L105.423,122.611C105.423,114.641,115.061,110.649,120.696,116.284L82.816,78.404C76.971,72.559,67.495,72.559,61.651,78.404L23.77,116.284C29.409,110.646,39.044,114.639,39.044,122.611L39.044,34.811Z"/>
</g>
  <g id="Heavy-L" transform="matrix(1.0,0.0,0.0,1.0,2565.736874482616,1434.8426973011951)">  <path fill="#000000" stroke-opacity="1" stroke-linecap="round" stroke="none" stroke-miterlimit="4" fill-opacity="1" stroke-dasharray="none" stroke-linejoin="round" fill-rule="nonzero" stroke-width="2.25px" d="M10.751,34.811L10.751,122.611C10.751,139.841,31.588,148.478,43.776,136.29L81.657,98.41L62.81,98.41L100.69,136.29C112.877,148.478,133.716,139.848,133.716,122.611L133.716,34.811C133.716,28.084,131.043,21.632,126.286,16.875C121.529,12.118,115.077,9.446,108.35,9.446L36.117,9.446C29.389,9.446,22.937,12.118,18.18,16.875C13.423,21.632,10.751,28.084,10.751,34.811ZM37.405,34.811C37.405,35.153,37.269,35.481,37.027,35.722C36.786,35.964,36.458,36.1,36.117,36.1L108.35,36.1C108.008,36.1,107.68,35.964,107.439,35.723C107.197,35.481,107.062,35.153,107.062,34.811L107.062,122.611C107.062,116.101,114.934,112.84,119.537,117.443L81.657,79.563C76.452,74.358,68.014,74.358,62.81,79.563L24.929,117.443C29.535,112.837,37.405,116.099,37.405,122.611L37.405,34.811Z"/>
</g>
  <g id="Bold-L" transform="matrix(1.0,0.0,0.0,1.0,2269.0268744826158,1434.8426973011951)">  <path stroke="none" stroke-dasharray="none" stroke-miterlimit="4" fill-rule="nonzero" stroke-opacity="1" stroke-linejoin="round" stroke-linecap="round" stroke-width="2.25px" fill="#000000" fill-opacity="1" d="M12.389,34.811L12.389,122.611C12.389,138.381,31.462,146.287,42.618,135.131L80.498,97.251L63.968,97.251L101.849,135.131C113.004,146.287,132.077,138.388,132.077,122.611L132.077,34.811C132.077,28.518,129.577,22.483,125.127,18.033C120.677,13.584,114.642,11.084,108.35,11.084L36.117,11.084C29.824,11.084,23.789,13.584,19.339,18.034C14.889,22.483,12.389,28.519,12.389,34.811ZM35.766,34.811C35.766,34.718,35.803,34.629,35.869,34.564C35.934,34.498,36.024,34.461,36.117,34.461L108.35,34.461C108.442,34.461,108.532,34.498,108.598,34.564C108.663,34.629,108.7,34.718,108.7,34.811L108.7,122.611C108.7,117.561,114.808,115.031,118.378,118.602L80.498,80.722C75.933,76.157,68.533,76.157,63.968,80.722L26.088,118.602C29.662,115.028,35.766,117.559,35.766,122.611L35.766,34.811Z"/>
</g>
  <g id="Semibold-L" transform="matrix(1.0,0.0,0.0,1.0,1972.3168744826157,1434.8426973011951)">  <path fill-opacity="1" stroke-linecap="round" stroke-width="2.25px" stroke-miterlimit="4" stroke-opacity="1" stroke-dasharray="none" fill="#000000" stroke="none" fill-rule="nonzero" stroke-linejoin="round" d="M14.028,34.811L14.028,122.611C14.028,136.921,31.336,144.096,41.459,133.973L79.339,96.092L65.127,96.092L103.007,133.973C113.13,144.096,130.438,136.928,130.438,122.611L130.438,34.811C130.438,28.953,128.111,23.335,123.968,19.192C119.826,15.05,114.208,12.723,108.35,12.723L36.117,12.723C30.258,12.723,24.64,15.05,20.498,19.193C16.355,23.335,14.028,28.953,14.028,34.811ZM34.127,34.811C34.127,34.284,34.337,33.778,34.71,33.405C35.083,33.032,35.589,32.822,36.117,32.822L108.35,32.822C108.877,32.822,109.383,33.032,109.757,33.405C110.13,33.778,110.339,34.284,110.339,34.811L110.339,122.611C110.339,119.021,114.681,117.222,117.219,119.761L79.339,81.88C75.415,77.956,69.052,77.956,65.127,81.88L27.247,119.761C29.788,117.22,34.127,119.018,34.127,122.611L34.127,34.811Z"/>
</g>
  <g id="Medium-L" transform="matrix(1.0,0.0,0.0,1.0,1675.6068744826157,1434.8426973011951)">  <path fill-opacity="1" stroke-linecap="round" fill="#000000" stroke-miterlimit="4" stroke-linejoin="round" fill-rule="nonzero" stroke-dasharray="none" stroke-opacity="1" stroke="none" stroke-width="2.25px" d="M15.667,34.811L15.667,122.611C15.667,135.462,31.21,141.904,40.3,132.814L78.18,94.934L66.286,94.934L104.166,132.814C113.257,141.904,128.799,135.467,128.799,122.611L128.799,34.811C128.799,29.388,126.645,24.186,122.809,20.351C118.974,16.516,113.773,14.362,108.35,14.362L36.117,14.362C30.693,14.362,25.492,16.516,21.657,20.351C17.822,24.186,15.667,29.388,15.667,34.811ZM32.488,34.811C32.488,33.849,32.871,32.926,33.551,32.246C34.231,31.565,35.154,31.183,36.117,31.183L108.35,31.183C109.312,31.183,110.235,31.565,110.915,32.246C111.596,32.926,111.978,33.849,111.978,34.811L111.978,122.611C111.978,120.481,114.555,119.414,116.061,120.919L78.18,83.039C74.896,79.755,69.57,79.755,66.286,83.039L28.406,120.919C29.914,119.411,32.488,120.478,32.488,122.611L32.488,34.811Z"/>
</g>
  <g id="Regular-L" transform="matrix(1.0,0.0,0.0,1.0,1378.8968744826157,1434.8426973011951)">  <path fill-opacity="1" stroke-miterlimit="4" stroke-opacity="1" fill="#000000" stroke-dasharray="none" stroke-linejoin="round" stroke="none" stroke-linecap="round" stroke-width="2.25px" fill-rule="nonzero" d="M17.306,34.811L17.306,122.611C17.306,134.002,31.083,139.713,39.141,131.655L77.022,93.775L67.445,93.775L105.325,131.655C113.383,139.713,127.16,134.007,127.16,122.611L127.16,34.811C127.16,29.822,125.179,25.038,121.651,21.51C118.123,17.982,113.338,16.001,108.35,16.001L36.117,16.001C31.128,16.001,26.343,17.983,22.815,21.51C19.288,25.038,17.306,29.822,17.306,34.811ZM30.85,34.811C30.85,33.414,31.404,32.075,32.392,31.087C33.38,30.099,34.72,29.544,36.117,29.544L108.35,29.544C109.746,29.544,111.086,30.099,112.074,31.087C113.062,32.075,113.617,33.414,113.617,34.811L113.617,122.611C113.617,121.941,114.428,121.605,114.902,122.078L77.022,84.198C74.377,81.553,70.089,81.553,67.445,84.198L29.564,122.078C30.04,121.602,30.85,121.938,30.85,122.611L30.85,34.811Z"/>
</g>
  <g id="Light-L" transform="matrix(1.0,0.0,0.0,1.0,1082.186874482616,1434.8426973011951)">  <path stroke-miterlimit="4" fill-opacity="1" stroke="none" stroke-linecap="round" fill-rule="nonzero" stroke-linejoin="round" stroke-opacity="1" stroke-dasharray="none" stroke-width="2.25px" fill="#000000" d="M18.434,34.811L18.434,122.611C18.434,132.997,30.997,138.204,38.343,130.857L76.223,92.977L68.243,92.977L106.123,130.857C113.47,138.204,126.032,133.002,126.032,122.611L126.032,34.811C126.032,30.122,124.169,25.624,120.853,22.308C117.536,18.992,113.039,17.129,108.35,17.129L36.117,17.129C31.427,17.129,26.929,18.992,23.613,22.308C20.297,25.624,18.434,30.122,18.434,34.811ZM29.721,34.811C29.721,33.115,30.395,31.488,31.594,30.289C32.794,29.09,34.42,28.416,36.117,28.416L108.35,28.416C110.046,28.416,111.673,29.09,112.872,30.289C114.072,31.488,114.745,33.115,114.745,34.811L114.745,122.611C114.745,122.946,114.341,123.114,114.104,122.876L76.223,84.996C74.02,82.792,70.447,82.792,68.243,84.996L30.363,122.876C30.127,123.112,29.721,122.943,29.721,122.611L29.721,34.811Z"/>
</g>
  <g id="Thin-L" transform="matrix(1.0,0.0,0.0,1.0,785.4768744826159,1434.8426973011951)">  <path stroke-opacity="1" stroke="none" stroke-linecap="round" fill-opacity="1" stroke-width="2.25px" stroke-dasharray="none" stroke-linejoin="round" stroke-miterlimit="4" fill-rule="nonzero" fill="#000000" d="M19.563,34.811L19.563,122.611C19.563,131.991,30.91,136.694,37.545,130.059L75.425,92.179L69.041,92.179L106.921,130.059C113.557,136.695,124.903,131.996,124.903,122.611L124.903,34.811C124.903,30.421,123.159,26.211,120.055,23.106C116.95,20.002,112.74,18.258,108.35,18.258L36.117,18.258C31.726,18.258,27.516,20.002,24.412,23.106C21.307,26.211,19.563,30.421,19.563,34.811ZM28.592,34.811C28.592,32.816,29.385,30.902,30.796,29.491C32.207,28.08,34.121,27.287,36.117,27.287L108.35,27.287C110.345,27.287,112.259,28.08,113.67,29.491C115.081,30.902,115.874,32.816,115.874,34.811L115.874,122.611C115.874,123.952,114.254,124.623,113.306,123.674L75.425,85.794C73.662,84.031,70.804,84.031,69.041,85.794L31.161,123.674C30.214,124.621,28.592,123.949,28.592,122.611L28.592,34.811Z"/>
</g>
  <g id="Ultralight-L" transform="matrix(1.0,0.0,0.0,1.0,488.7668744826159,1434.8426973011951)">  <path stroke-opacity="1" stroke="none" fill-opacity="1" stroke-width="2.25px" stroke-dasharray="none" fill-rule="nonzero" stroke-linejoin="round" stroke-linecap="round" fill="#000000" stroke-miterlimit="4" d="M20.692,34.811L20.692,122.611C20.692,130.986,30.823,135.185,36.747,129.261L74.627,91.381L69.839,91.381L107.719,129.261C113.644,135.186,123.774,130.991,123.774,122.611L123.774,34.811C123.774,30.72,122.149,26.797,119.256,23.904C116.364,21.012,112.44,19.387,108.35,19.387L36.117,19.387C32.026,19.387,28.102,21.012,25.21,23.904C22.317,26.797,20.692,30.72,20.692,34.811ZM27.464,34.811C27.464,32.516,28.375,30.316,29.998,28.693C31.621,27.07,33.822,26.158,36.117,26.158L108.35,26.158C110.644,26.158,112.845,27.07,114.468,28.693C116.091,30.316,117.003,32.516,117.003,34.811L117.003,122.611C117.003,124.957,114.167,126.132,112.508,124.472L74.627,86.592C73.305,85.27,71.161,85.27,69.839,86.592L31.959,124.472C30.301,126.13,27.464,124.954,27.464,122.611L27.464,34.811Z"/>
</g>
  <g id="Black-M" transform="matrix(1.0,0.0,0.0,1.0,2878.6853290562913,1024.15969222113)">  <path stroke-miterlimit="4" fill-rule="nonzero" stroke-dasharray="none" stroke-opacity="1" fill="#000000" fill-opacity="1" stroke-linejoin="round" stroke-linecap="round" stroke="none" stroke-width="2.25px" d="M7.063,26.986L7.063,95.047C7.063,109.535,24.585,116.798,34.834,106.55L64.198,77.185L47.791,77.185L77.156,106.55C87.404,116.798,104.926,109.541,104.926,95.047L104.926,26.986C104.926,21.433,102.72,16.109,98.794,12.183C94.868,8.257,89.544,6.052,83.992,6.052L27.997,6.052C22.445,6.052,17.121,8.257,13.195,12.183C9.269,16.109,7.063,21.434,7.063,26.986ZM30.266,26.986C30.266,27.587,30.027,28.165,29.602,28.59C29.176,29.015,28.599,29.255,27.997,29.255L83.992,29.255C83.39,29.255,82.813,29.016,82.388,28.59C81.962,28.165,81.723,27.587,81.723,26.986L81.723,95.047C81.723,88.869,89.194,85.774,93.563,90.143L64.198,60.778C59.667,56.248,52.322,56.248,47.791,60.778L18.427,90.143C22.798,85.772,30.266,88.868,30.266,95.047L30.266,26.986Z"/>
</g>
  <g id="Heavy-M" transform="matrix(1.0,0.0,0.0,1.0,2581.9753290562912,1024.15969222113)">  <path fill="#000000" stroke-opacity="1" stroke-linecap="round" stroke="none" stroke-miterlimit="4" fill-opacity="1" stroke-dasharray="none" stroke-linejoin="round" fill-rule="nonzero" stroke-width="2.25px" d="M8.334,26.986L8.334,95.047C8.334,108.404,24.487,115.099,33.935,105.651L63.3,76.287L48.69,76.287L78.054,105.651C87.502,115.099,103.655,108.409,103.655,95.047L103.655,26.986C103.655,21.77,101.584,16.769,97.896,13.081C94.208,9.394,89.207,7.322,83.992,7.322L27.997,7.322C22.782,7.322,17.781,9.394,14.093,13.081C10.406,16.769,8.334,21.77,8.334,26.986ZM28.996,26.986C28.996,27.25,28.891,27.504,28.703,27.692C28.516,27.879,28.262,27.984,27.997,27.984L83.992,27.984C83.727,27.984,83.473,27.879,83.286,27.692C83.099,27.505,82.993,27.25,82.993,26.986L82.993,95.047C82.993,90,89.096,87.473,92.664,91.041L63.3,61.677C59.265,57.642,52.724,57.642,48.69,61.677L19.325,91.041C22.896,87.471,28.996,89.999,28.996,95.047L28.996,26.986Z"/>
</g>
  <g id="Bold-M" transform="matrix(1.0,0.0,0.0,1.0,2285.265329056291,1024.15969222113)">  <path stroke="none" stroke-dasharray="none" stroke-miterlimit="4" fill-rule="nonzero" stroke-opacity="1" stroke-linejoin="round" stroke-linecap="round" stroke-width="2.25px" fill="#000000" fill-opacity="1" d="M9.604,26.986L9.604,95.047C9.604,107.272,24.389,113.401,33.037,104.753L62.402,75.389L49.588,75.389L78.952,104.753C87.6,113.401,102.385,107.277,102.385,95.047L102.385,26.986C102.385,22.107,100.447,17.429,96.998,13.979C93.548,10.53,88.87,8.592,83.992,8.592L27.997,8.592C23.119,8.592,18.441,10.53,14.991,13.98C11.542,17.429,9.604,22.107,9.604,26.986ZM27.726,26.986C27.726,26.913,27.754,26.844,27.805,26.793C27.856,26.742,27.925,26.714,27.997,26.714L83.992,26.714C84.064,26.714,84.133,26.742,84.184,26.794C84.235,26.844,84.264,26.913,84.264,26.986L84.264,95.047C84.264,91.132,88.998,89.172,91.766,91.939L62.402,62.575C58.863,59.036,53.126,59.036,49.588,62.575L20.223,91.939C22.993,89.169,27.726,91.131,27.726,95.047L27.726,26.986Z"/>
</g>
  <g id="Semibold-M" transform="matrix(1.0,0.0,0.0,1.0,1988.5553290562914,1024.15969222113)">  <path fill-opacity="1" stroke-linecap="round" stroke-width="2.25px" stroke-miterlimit="4" stroke-opacity="1" stroke-dasharray="none" fill="#000000" stroke="none" fill-rule="nonzero" stroke-linejoin="round" d="M10.875,26.986L10.875,95.047C10.875,106.141,24.291,111.702,32.139,103.855L61.503,74.49L50.486,74.49L79.851,103.855C87.698,111.702,101.115,106.145,101.115,95.047L101.115,26.986C101.115,22.444,99.311,18.089,96.099,14.878C92.888,11.667,88.533,9.863,83.992,9.863L27.997,9.863C23.456,9.863,19.101,11.667,15.89,14.878C12.679,18.089,10.875,22.444,10.875,26.986ZM26.455,26.986C26.455,26.577,26.618,26.184,26.907,25.895C27.196,25.606,27.588,25.443,27.997,25.443L83.992,25.443C84.401,25.443,84.793,25.606,85.083,25.895C85.372,26.184,85.534,26.577,85.534,26.986L85.534,95.047C85.534,92.264,88.9,90.87,90.868,92.838L61.503,63.473C58.461,60.431,53.528,60.431,50.486,63.473L21.122,92.838C23.091,90.868,26.455,92.262,26.455,95.047L26.455,26.986Z"/>
</g>
  <g id="Medium-M" transform="matrix(1.0,0.0,0.0,1.0,1691.8453290562913,1024.15969222113)">  <path fill-opacity="1" stroke-linecap="round" fill="#000000" stroke-miterlimit="4" stroke-linejoin="round" fill-rule="nonzero" stroke-dasharray="none" stroke-opacity="1" stroke="none" stroke-width="2.25px" d="M12.145,26.986L12.145,95.047C12.145,105.009,24.194,110.003,31.24,102.956L60.605,73.592L51.384,73.592L80.749,102.956C87.796,110.003,99.844,105.014,99.844,95.047L99.844,26.986C99.844,22.781,98.174,18.749,95.201,15.776C92.228,12.803,88.196,11.133,83.992,11.133L27.997,11.133C23.793,11.133,19.761,12.803,16.788,15.776C13.815,18.749,12.145,22.781,12.145,26.986ZM25.185,26.986C25.185,26.24,25.481,25.524,26.009,24.997C26.536,24.469,27.251,24.173,27.997,24.173L83.992,24.173C84.738,24.173,85.453,24.469,85.981,24.997C86.508,25.524,86.805,26.24,86.805,26.986L86.805,95.047C86.805,93.396,88.802,92.569,89.969,93.736L60.605,64.371C58.059,61.825,53.931,61.825,51.384,64.371L22.02,93.736C23.189,92.567,25.185,93.394,25.185,95.047L25.185,26.986Z"/>
</g>
  <g id="Regular-M" transform="matrix(1.0,0.0,0.0,1.0,1395.1353290562913,1024.15969222113)">  <path fill-opacity="1" stroke-miterlimit="4" stroke-opacity="1" fill="#000000" stroke-dasharray="none" stroke-linejoin="round" stroke="none" stroke-linecap="round" stroke-width="2.25px" fill-rule="nonzero" d="M13.415,26.986L13.415,95.047C13.415,103.877,24.096,108.305,30.342,102.058L59.707,72.694L52.283,72.694L81.647,102.058C87.894,108.305,98.574,103.882,98.574,95.047L98.574,26.986C98.574,23.118,97.038,19.409,94.303,16.674C91.568,13.94,87.859,12.404,83.992,12.404L27.997,12.404C24.13,12.404,20.421,13.94,17.686,16.675C14.952,19.409,13.415,23.118,13.415,26.986ZM23.914,26.986C23.914,25.903,24.345,24.864,25.11,24.099C25.876,23.333,26.915,22.903,27.997,22.903L83.992,22.903C85.075,22.903,86.113,23.333,86.879,24.099C87.645,24.864,88.075,25.903,88.075,26.986L88.075,95.047C88.075,94.528,88.704,94.267,89.071,94.634L59.707,65.27C57.657,63.22,54.333,63.22,52.283,65.27L22.918,94.634C23.287,94.265,23.914,94.526,23.914,95.047L23.914,26.986Z"/>
</g>
  <g id="Light-M" transform="matrix(1.0,0.0,0.0,1.0,1098.4253290562915,1024.15969222113)">  <path stroke-miterlimit="4" fill-opacity="1" stroke="none" stroke-linecap="round" fill-rule="nonzero" stroke-linejoin="round" stroke-opacity="1" stroke-dasharray="none" stroke-width="2.25px" fill="#000000" d="M14.29,26.986L14.29,95.047C14.29,103.098,24.028,107.135,29.723,101.44L59.088,72.075L52.901,72.075L82.266,101.44C87.961,107.135,97.699,103.102,97.699,95.047L97.699,26.986C97.699,23.35,96.255,19.864,93.684,17.293C91.113,14.723,87.627,13.279,83.992,13.279L27.997,13.279C24.362,13.279,20.876,14.723,18.305,17.293C15.734,19.864,14.29,23.35,14.29,26.986ZM23.039,26.986C23.039,25.671,23.562,24.41,24.492,23.48C25.421,22.55,26.682,22.028,27.997,22.028L83.992,22.028C85.307,22.028,86.568,22.55,87.498,23.48C88.428,24.41,88.95,25.671,88.95,26.986L88.95,95.047C88.95,95.307,88.637,95.437,88.452,95.253L59.088,65.888C57.38,64.18,54.61,64.18,52.901,65.888L23.537,95.253C23.354,95.435,23.039,95.305,23.039,95.047L23.039,26.986Z"/>
</g>
  <g id="Thin-M" transform="matrix(1.0,0.0,0.0,1.0,801.7153290562915,1024.15969222113)">  <path stroke-opacity="1" stroke="none" stroke-linecap="round" fill-opacity="1" stroke-width="2.25px" stroke-dasharray="none" stroke-linejoin="round" stroke-miterlimit="4" fill-rule="nonzero" fill="#000000" d="M15.165,26.986L15.165,95.047C15.165,102.319,23.961,105.965,29.105,100.821L58.469,71.456L53.52,71.456L82.885,100.821C88.029,105.965,96.824,102.323,96.824,95.047L96.824,26.986C96.824,23.582,95.472,20.318,93.066,17.912C90.659,15.505,87.395,14.153,83.992,14.153L27.997,14.153C24.594,14.153,21.33,15.505,18.924,17.912C16.517,20.318,15.165,23.582,15.165,26.986ZM22.165,26.986C22.165,25.439,22.779,23.955,23.873,22.861C24.967,21.767,26.45,21.153,27.997,21.153L83.992,21.153C85.539,21.153,87.022,21.767,88.116,22.861C89.21,23.955,89.825,25.439,89.825,26.986L89.825,95.047C89.825,96.087,88.569,96.607,87.834,95.872L58.469,66.507C57.103,65.14,54.887,65.14,53.52,66.507L24.155,95.872C23.422,96.605,22.165,96.084,22.165,95.047L22.165,26.986Z"/>
</g>
  <g id="Ultralight-M" transform="matrix(1.0,0.0,0.0,1.0,505.0053290562914,1024.15969222113)">  <path stroke-opacity="1" stroke="none" fill-opacity="1" stroke-width="2.25px" stroke-dasharray="none" fill-rule="nonzero" stroke-linejoin="round" stroke-linecap="round" fill="#000000" stroke-miterlimit="4" d="M16.04,26.986L16.04,95.047C16.04,101.539,23.894,104.795,28.486,100.202L57.851,70.838L54.139,70.838L83.503,100.202C88.096,104.795,95.949,101.543,95.949,95.047L95.949,26.986C95.949,23.814,94.689,20.773,92.447,18.53C90.204,16.288,87.163,15.028,83.992,15.028L27.997,15.028C24.826,15.028,21.785,16.288,19.542,18.531C17.3,20.773,16.04,23.814,16.04,26.986ZM21.29,26.986C21.29,25.207,21.996,23.5,23.254,22.243C24.512,20.985,26.218,20.278,27.997,20.278L83.992,20.278C85.771,20.278,87.477,20.985,88.735,22.243C89.993,23.5,90.7,25.207,90.7,26.986L90.7,95.047C90.7,96.866,88.502,97.777,87.215,96.49L57.851,67.126C56.826,66.101,55.164,66.101,54.139,67.126L24.774,96.49C23.489,97.775,21.29,96.864,21.29,95.047L21.29,26.986Z"/>
</g>
  <g id="Black-S" transform="matrix(1.0,0.0,0.0,1.0,2890.836172651076,608.614133247426)">  <path stroke-miterlimit="4" fill-rule="nonzero" stroke-dasharray="none" stroke-opacity="1" fill="#000000" fill-opacity="1" stroke-linejoin="round" stroke-linecap="round" stroke="none" stroke-width="2.25px" d="M5.531,21.13L5.531,74.422C5.531,85.766,19.25,91.453,27.275,83.428L50.267,60.436L37.421,60.436L60.413,83.428C68.437,91.453,82.157,85.77,82.157,74.422L82.157,21.13C82.157,16.782,80.43,12.613,77.356,9.539C74.282,6.465,70.113,4.738,65.766,4.738L21.922,4.738C17.575,4.738,13.406,6.465,10.332,9.539C7.258,12.613,5.531,16.782,5.531,21.13ZM23.699,21.13C23.699,21.601,23.511,22.053,23.178,22.386C22.845,22.719,22.393,22.906,21.922,22.906L65.766,22.906C65.294,22.906,64.843,22.719,64.51,22.386C64.176,22.053,63.989,21.601,63.989,21.13L63.989,74.422C63.989,69.584,69.839,67.161,73.26,70.582L50.267,47.589C46.72,44.042,40.968,44.042,37.421,47.589L14.428,70.582C17.851,67.159,23.699,69.583,23.699,74.422L23.699,21.13Z"/>
</g>
  <g id="Heavy-S" transform="matrix(1.0,0.0,0.0,1.0,2594.126172651076,608.614133247426)">  <path fill="#000000" stroke-opacity="1" stroke-linecap="round" stroke="none" stroke-miterlimit="4" fill-opacity="1" stroke-dasharray="none" stroke-linejoin="round" fill-rule="nonzero" stroke-width="2.25px" d="M6.525,21.13L6.525,74.422C6.525,84.88,19.173,90.123,26.571,82.725L49.564,59.733L38.124,59.733L61.116,82.725C68.514,90.123,81.162,84.884,81.162,74.422L81.162,21.13C81.162,17.046,79.54,13.13,76.652,10.243C73.765,7.355,69.849,5.733,65.766,5.733L21.922,5.733C17.839,5.733,13.922,7.355,11.035,10.243C8.148,13.13,6.525,17.046,6.525,21.13ZM22.704,21.13C22.704,21.337,22.621,21.536,22.475,21.683C22.328,21.829,22.129,21.912,21.922,21.912L65.766,21.912C65.558,21.912,65.359,21.829,65.213,21.683C65.066,21.536,64.984,21.337,64.984,21.13L64.984,74.422C64.984,70.47,69.762,68.491,72.556,71.285L49.564,48.293C46.405,45.134,41.283,45.134,38.124,48.293L15.131,71.285C17.927,68.489,22.704,70.469,22.704,74.422L22.704,21.13Z"/>
</g>
  <g id="Bold-S" transform="matrix(1.0,0.0,0.0,1.0,2297.416172651076,608.614133247426)">  <path stroke="none" stroke-dasharray="none" stroke-miterlimit="4" fill-rule="nonzero" stroke-opacity="1" stroke-linejoin="round" stroke-linecap="round" stroke-width="2.25px" fill="#000000" fill-opacity="1" d="M7.52,21.13L7.52,74.422C7.52,83.994,19.097,88.793,25.868,82.022L48.86,59.029L38.827,59.029L61.82,82.022C68.591,88.793,80.168,83.998,80.168,74.422L80.168,21.13C80.168,17.31,78.65,13.647,75.949,10.946C73.248,8.245,69.585,6.728,65.766,6.728L21.922,6.728C18.102,6.728,14.439,8.245,11.738,10.946C9.037,13.647,7.52,17.31,7.52,21.13ZM21.709,21.13C21.709,21.073,21.731,21.019,21.771,20.979C21.811,20.939,21.866,20.917,21.922,20.917L65.766,20.917C65.822,20.917,65.876,20.939,65.916,20.979C65.956,21.019,65.979,21.073,65.979,21.13L65.979,74.422C65.979,71.357,69.686,69.821,71.853,71.989L48.86,48.996C46.09,46.226,41.598,46.226,38.827,48.996L15.835,71.989C18.004,69.82,21.709,71.355,21.709,74.422L21.709,21.13Z"/>
</g>
  <g id="Semibold-S" transform="matrix(1.0,0.0,0.0,1.0,2000.706172651076,608.614133247426)">  <path fill-opacity="1" stroke-linecap="round" stroke-width="2.25px" stroke-miterlimit="4" stroke-opacity="1" stroke-dasharray="none" fill="#000000" stroke="none" fill-rule="nonzero" stroke-linejoin="round" d="M8.515,21.13L8.515,74.422C8.515,83.108,19.02,87.463,25.165,81.318L48.157,58.326L39.531,58.326L62.523,81.318C68.667,87.463,79.173,83.112,79.173,74.422L79.173,21.13C79.173,17.574,77.76,14.164,75.246,11.649C72.731,9.135,69.321,7.723,65.766,7.723L21.922,7.723C18.366,7.723,14.956,9.135,12.442,11.649C9.927,14.164,8.515,17.574,8.515,21.13ZM20.714,21.13C20.714,20.809,20.842,20.502,21.068,20.276C21.295,20.049,21.602,19.922,21.922,19.922L65.766,19.922C66.086,19.922,66.393,20.049,66.62,20.276C66.846,20.502,66.973,20.809,66.973,21.13L66.973,74.422C66.973,72.243,69.609,71.151,71.149,72.692L48.157,49.699C45.775,47.317,41.913,47.317,39.531,49.699L16.538,72.692C18.08,71.15,20.714,72.241,20.714,74.422L20.714,21.13Z"/>
</g>
  <g id="Medium-S" transform="matrix(1.0,0.0,0.0,1.0,1703.996172651076,608.614133247426)">  <path fill-opacity="1" stroke-linecap="round" fill="#000000" stroke-miterlimit="4" stroke-linejoin="round" fill-rule="nonzero" stroke-dasharray="none" stroke-opacity="1" stroke="none" stroke-width="2.25px" d="M9.51,21.13L9.51,74.422C9.51,82.222,18.944,86.133,24.461,80.615L47.454,57.622L40.234,57.622L63.226,80.615C68.744,86.133,78.178,82.226,78.178,74.422L78.178,21.13C78.178,17.838,76.87,14.68,74.542,12.353C72.215,10.025,69.058,8.717,65.766,8.717L21.922,8.717C18.63,8.717,15.473,10.025,13.145,12.353C10.817,14.681,9.51,17.838,9.51,21.13ZM19.72,21.13C19.72,20.546,19.952,19.985,20.365,19.573C20.778,19.159,21.338,18.927,21.922,18.927L65.766,18.927C66.35,18.927,66.91,19.16,67.323,19.573C67.736,19.986,67.968,20.546,67.968,21.13L67.968,74.422C67.968,73.129,69.532,72.481,70.446,73.395L47.454,50.403C45.46,48.409,42.228,48.409,40.234,50.403L17.242,73.395C18.157,72.48,19.72,73.127,19.72,74.422L19.72,21.13Z"/>
</g>
  <g id="Regular-S" transform="matrix(1.0,0.0,0.0,1.0,1407.286172651076,608.614133247426)">  <path fill-opacity="1" stroke-miterlimit="4" stroke-opacity="1" fill="#000000" stroke-dasharray="none" stroke-linejoin="round" stroke="none" stroke-linecap="round" stroke-width="2.25px" fill-rule="nonzero" d="M10.504,21.13L10.504,74.422C10.504,81.336,18.867,84.802,23.758,79.912L46.75,56.919L40.937,56.919L63.93,79.912C68.821,84.803,77.183,81.339,77.183,74.422L77.183,21.13C77.183,18.101,75.98,15.197,73.839,13.056C71.698,10.915,68.794,9.712,65.766,9.712L21.922,9.712C18.894,9.712,15.99,10.915,13.848,13.056C11.707,15.197,10.504,18.102,10.504,21.13ZM18.725,21.13C18.725,20.282,19.062,19.469,19.661,18.869C20.261,18.27,21.074,17.933,21.922,17.933L65.766,17.933C66.613,17.933,67.427,18.27,68.026,18.869C68.626,19.469,68.963,20.282,68.963,21.13L68.963,74.422C68.963,74.015,69.455,73.811,69.743,74.099L46.75,51.106C45.145,49.501,42.543,49.501,40.937,51.106L17.945,74.099C18.234,73.81,18.725,74.013,18.725,74.422L18.725,21.13Z"/>
</g>
  <g id="Light-S" transform="matrix(1.0,0.0,0.0,1.0,1110.5761726510761,608.614133247426)">  <path stroke-miterlimit="4" fill-opacity="1" stroke="none" stroke-linecap="round" fill-rule="nonzero" stroke-linejoin="round" stroke-opacity="1" stroke-dasharray="none" stroke-width="2.25px" fill="#000000" d="M11.189,21.13L11.189,74.422C11.189,80.726,18.814,83.886,23.273,79.427L46.266,56.435L41.422,56.435L64.414,79.427C68.874,83.887,76.498,80.729,76.498,74.422L76.498,21.13C76.498,18.283,75.368,15.553,73.355,13.541C71.342,11.528,68.612,10.397,65.766,10.397L21.922,10.397C19.075,10.397,16.346,11.528,14.333,13.541C12.32,15.553,11.189,18.283,11.189,21.13ZM18.04,21.13C18.04,20.1,18.449,19.113,19.177,18.385C19.905,17.657,20.892,17.248,21.922,17.248L65.766,17.248C66.795,17.248,67.783,17.657,68.511,18.385C69.239,19.113,69.648,20.1,69.648,21.13L69.648,74.422C69.648,74.626,69.402,74.727,69.258,74.583L46.266,51.591C44.928,50.253,42.759,50.253,41.422,51.591L18.429,74.583C18.286,74.726,18.04,74.624,18.04,74.422L18.04,21.13Z"/>
</g>
  <g id="Thin-S" transform="matrix(1.0,0.0,0.0,1.0,813.8661726510762,608.614133247426)">  <path stroke-opacity="1" stroke="none" stroke-linecap="round" fill-opacity="1" stroke-width="2.25px" stroke-dasharray="none" stroke-linejoin="round" stroke-miterlimit="4" fill-rule="nonzero" fill="#000000" d="M11.874,21.13L11.874,74.422C11.874,80.116,18.761,82.97,22.789,78.943L45.781,55.95L41.906,55.95L64.899,78.943C68.927,82.971,75.813,80.119,75.813,74.422L75.813,21.13C75.813,18.465,74.755,15.909,72.87,14.025C70.986,12.141,68.43,11.082,65.766,11.082L21.922,11.082C19.257,11.082,16.702,12.141,14.817,14.025C12.933,15.909,11.874,18.465,11.874,21.13ZM17.355,21.13C17.355,19.918,17.836,18.757,18.692,17.9C19.549,17.044,20.711,16.563,21.922,16.563L65.766,16.563C66.977,16.563,68.139,17.044,68.995,17.9C69.852,18.757,70.333,19.918,70.333,21.13L70.333,74.422C70.333,75.236,69.35,75.643,68.774,75.067L45.781,52.075C44.711,51.005,42.976,51.005,41.906,52.075L18.914,75.067C18.339,75.642,17.355,75.234,17.355,74.422L17.355,21.13Z"/>
</g>
  <g id="Ultralight-S" transform="matrix(1.0,0.0,0.0,1.0,517.1561726510762,608.614133247426)">  <path stroke-opacity="1" stroke="none" fill-opacity="1" stroke-width="2.25px" stroke-dasharray="none" fill-rule="nonzero" stroke-linejoin="round" stroke-linecap="round" fill="#000000" stroke-miterlimit="4" d="M12.559,21.13L12.559,74.422C12.559,79.505,18.709,82.054,22.305,78.458L45.297,55.466L42.391,55.466L65.383,78.458C68.98,82.055,75.128,79.508,75.128,74.422L75.128,21.13C75.128,18.647,74.142,16.265,72.386,14.509C70.63,12.754,68.249,11.767,65.766,11.767L21.922,11.767C19.439,11.767,17.057,12.754,15.302,14.509C13.546,16.265,12.559,18.647,12.559,21.13ZM16.67,21.13C16.67,19.737,17.223,18.401,18.208,17.416C19.193,16.431,20.529,15.878,21.922,15.878L65.766,15.878C67.159,15.878,68.494,16.431,69.48,17.416C70.465,18.401,71.018,19.737,71.018,21.13L71.018,74.422C71.018,75.846,69.297,76.559,68.289,75.552L45.297,52.559C44.494,51.757,43.193,51.757,42.391,52.559L19.398,75.552C18.392,76.558,16.67,75.844,16.67,74.422L16.67,21.13Z"/>
</g>
 </g>
</svg>
