<?xml version="1.0" encoding="UTF-8"?>
<!-- Generator: CustomSymbols v2.6.2.41 by @serious_bret https://bretlester.com/app_content/CustomSymbols/ -->
<!-- Guides: Left/Right 0.0/0.0 Cap/Base 0.227/0.127 -->
<!-- Settings: RefScale 1.0 Min/Max Stroke Scales 0.5/2.21 -->
<!DOCTYPE svg
PUBLIC "-//W3C//DTD SVG 1.1//EN"
       "http://www.w3.org/Graphics/SVG/1.1/DTD/svg11.dtd">
<svg version="1.1" xmlns="http://www.w3.org/2000/svg" xmlns:xlink="http://www.w3.org/1999/xlink" width="3300" height="2200">
<![CDATA[<svg width="40" height="40" viewBox="0 0 40 40" fill="none" xmlns="http://www.w3.org/2000/svg">
<path d="M26.9833 3.33334H13.0166C6.94992 3.33334 3.33325 6.95001 3.33325 13.0167V26.9833C3.33325 33.05 6.94992 36.6667 13.0166 36.6667H26.9833C33.0499 36.6667 36.6666 33.05 36.6666 26.9833V13.0167C36.6666 6.95001 33.0499 3.33334 26.9833 3.33334ZM16.6166 24.8333L12.8666 28.5833C12.6166 28.8333 12.2999 28.95 11.9833 28.95C11.6666 28.95 11.3333 28.8333 11.0999 28.5833L9.84992 27.3333C9.34992 26.85 9.34992 26.05 9.84992 25.5667C10.3333 25.0833 11.1166 25.0833 11.6166 25.5667L11.9833 25.9333L14.8499 23.0667C15.3333 22.5833 16.1166 22.5833 16.6166 23.0667C17.0999 23.55 17.0999 24.35 16.6166 24.8333ZM16.6166 13.1667L12.8666 16.9167C12.6166 17.1667 12.2999 17.2833 11.9833 17.2833C11.6666 17.2833 11.3333 17.1667 11.0999 16.9167L9.84992 15.6667C9.34992 15.1833 9.34992 14.3833 9.84992 13.9C10.3333 13.4167 11.1166 13.4167 11.6166 13.9L11.9833 14.2667L14.8499 11.4C15.3333 10.9167 16.1166 10.9167 16.6166 11.4C17.0999 11.8833 17.0999 12.6833 16.6166 13.1667ZM29.2666 27.7H20.5166C19.8333 27.7 19.2666 27.1333 19.2666 26.45C19.2666 25.7667 19.8333 25.2 20.5166 25.2H29.2666C29.9666 25.2 30.5166 25.7667 30.5166 26.45C30.5166 27.1333 29.9666 27.7 29.2666 27.7ZM29.2666 16.0333H20.5166C19.8333 16.0333 19.2666 15.4667 19.2666 14.7833C19.2666 14.1 19.8333 13.5333 20.5166 13.5333H29.2666C29.9666 13.5333 30.5166 14.1 30.5166 14.7833C30.5166 15.4667 29.9666 16.0333 29.2666 16.0333Z" fill="#B30000"/>
</svg>
]]>
 <g id="Notes">
  <rect height="2200" id="artboard" style="fill:white;opacity:1" width="3300" x="0" y="0"/>
  <line id="" style="fill:none;stroke:black;opacity:1;stroke-width:0.5;" x1="263" x2="3036" y1="292" y2="292"/>
  <text id="reftext1" style="stroke:none;fill:black;font-family:-apple-system,&quot;SF Pro Display&quot;,&quot;SF Pro Text&quot;,Helvetica,sans-serif;font-weight:bold;" transform="matrix(1 0 0 1 263 322)">Weight/Scale Variations</text>
  <text id="reftext2" style="stroke:none;fill:black;font-family:-apple-system,&quot;SF Pro Display&quot;,&quot;SF Pro Text&quot;,Helvetica,sans-serif;text-anchor:middle;" transform="matrix(1 0 0 1 559.711 322)">Ultralight</text>
  <text style="stroke:none;fill:black;font-family:-apple-system,&quot;SF Pro Display&quot;,&quot;SF Pro Text&quot;,Helvetica,sans-serif;text-anchor:middle;" transform="matrix(1 0 0 1 856.422 322)">Thin</text>
  <text style="stroke:none;fill:black;font-family:-apple-system,&quot;SF Pro Display&quot;,&quot;SF Pro Text&quot;,Helvetica,sans-serif;text-anchor:middle;" transform="matrix(1 0 0 1 1153.13 322)">Light</text>
  <text style="stroke:none;fill:black;font-family:-apple-system,&quot;SF Pro Display&quot;,&quot;SF Pro Text&quot;,Helvetica,sans-serif;text-anchor:middle;" transform="matrix(1 0 0 1 1449.84 322)">Regular</text>
  <text style="stroke:none;fill:black;font-family:-apple-system,&quot;SF Pro Display&quot;,&quot;SF Pro Text&quot;,Helvetica,sans-serif;text-anchor:middle;" transform="matrix(1 0 0 1 1746.56 322)">Medium</text>
  <text style="stroke:none;fill:black;font-family:-apple-system,&quot;SF Pro Display&quot;,&quot;SF Pro Text&quot;,Helvetica,sans-serif;text-anchor:middle;" transform="matrix(1 0 0 1 2043.27 322)">Semibold</text>
  <text style="stroke:none;fill:black;font-family:-apple-system,&quot;SF Pro Display&quot;,&quot;SF Pro Text&quot;,Helvetica,sans-serif;text-anchor:middle;" transform="matrix(1 0 0 1 2339.98 322)">Bold</text>
  <text style="stroke:none;fill:black;font-family:-apple-system,&quot;SF Pro Display&quot;,&quot;SF Pro Text&quot;,Helvetica,sans-serif;text-anchor:middle;" transform="matrix(1 0 0 1 2636.69 322)">Heavy</text>
  <text style="stroke:none;fill:black;font-family:-apple-system,&quot;SF Pro Display&quot;,&quot;SF Pro Text&quot;,Helvetica,sans-serif;text-anchor:middle;" transform="matrix(1 0 0 1 2933.4 322)">Black</text>
  <line id="" style="fill:none;stroke:black;opacity:1;stroke-width:0.5;" x1="263" x2="3036" y1="1903" y2="1903"/>
  <g id="" transform="matrix(1 0 0 1 263 1933)">
   <path d="M9.24805 0.830078C13.5547 0.830078 17.1387-2.74414 17.1387-7.05078C17.1387-11.3574 13.5449-14.9316 9.23828-14.9316C4.94141-14.9316 1.36719-11.3574 1.36719-7.05078C1.36719-2.74414 4.95117 0.830078 9.24805 0.830078ZM9.24805-0.654297C5.70312-0.654297 2.87109-3.49609 2.87109-7.05078C2.87109-10.6055 5.69336-13.4473 9.23828-13.4473C12.793-13.4473 15.6348-10.6055 15.6445-7.05078C15.6543-3.49609 12.8027-0.654297 9.24805-0.654297ZM6.39648-6.31836L8.50586-6.31836L8.50586-4.19922C8.50586-3.75977 8.79883-3.45703 9.22852-3.45703C9.67773-3.45703 9.9707-3.75977 9.9707-4.19922L9.9707-6.31836L12.0996-6.31836C12.5391-6.31836 12.8418-6.61133 12.8418-7.04102C12.8418-7.48047 12.5391-7.7832 12.0996-7.7832L9.9707-7.7832L9.9707-9.89258C9.9707-10.3418 9.67773-10.6445 9.22852-10.6445C8.79883-10.6445 8.50586-10.3418 8.50586-9.89258L8.50586-7.7832L6.39648-7.7832C5.94727-7.7832 5.64453-7.48047 5.64453-7.04102C5.64453-6.61133 5.94727-6.31836 6.39648-6.31836Z"/>
  </g>
  <g id="" transform="matrix(1 0 0 1 281.506 1933)">
   <path d="M11.709 2.91016C17.1582 2.91016 21.6699-1.61133 21.6699-7.05078C21.6699-12.5 17.1484-17.0117 11.6992-17.0117C6.25977-17.0117 1.74805-12.5 1.74805-7.05078C1.74805-1.61133 6.26953 2.91016 11.709 2.91016ZM11.709 1.25C7.09961 1.25 3.41797-2.44141 3.41797-7.05078C3.41797-11.6602 7.08984-15.3516 11.6992-15.3516C16.3086-15.3516 20-11.6602 20.0098-7.05078C20.0195-2.44141 16.3184 1.25 11.709 1.25ZM7.98828-6.23047L10.8789-6.23047L10.8789-3.32031C10.8789-2.83203 11.2109-2.5 11.6895-2.5C12.1777-2.5 12.5195-2.83203 12.5195-3.32031L12.5195-6.23047L15.4297-6.23047C15.918-6.23047 16.25-6.5625 16.25-7.04102C16.25-7.5293 15.918-7.87109 15.4297-7.87109L12.5195-7.87109L12.5195-10.7617C12.5195-11.2695 12.1777-11.6016 11.6895-11.6016C11.2109-11.6016 10.8789-11.2598 10.8789-10.7617L10.8789-7.87109L7.98828-7.87109C7.48047-7.87109 7.14844-7.5293 7.14844-7.04102C7.14844-6.5625 7.49023-6.23047 7.98828-6.23047Z"/>
  </g>
  <g id="" transform="matrix(1 0 0 1 304.924 1933)">
   <path d="M14.9707 5.66406C21.9336 5.66406 27.6953-0.0976562 27.6953-7.05078C27.6953-14.0137 21.9238-19.7754 14.9609-19.7754C8.00781-19.7754 2.25586-14.0137 2.25586-7.05078C2.25586-0.0976562 8.01758 5.66406 14.9707 5.66406ZM14.9707 3.84766C8.93555 3.84766 4.08203-1.01562 4.08203-7.05078C4.08203-13.0957 8.92578-17.9492 14.9609-17.9492C21.0059-17.9492 25.8594-13.0957 25.8691-7.05078C25.8789-1.01562 21.0156 3.84766 14.9707 3.84766ZM10.0586-6.14258L14.0625-6.14258L14.0625-2.12891C14.0625-1.5918 14.4336-1.2207 14.9512-1.2207C15.4883-1.2207 15.8594-1.5918 15.8594-2.12891L15.8594-6.14258L19.8828-6.14258C20.4102-6.14258 20.791-6.51367 20.791-7.03125C20.791-7.56836 20.4199-7.94922 19.8828-7.94922L15.8594-7.94922L15.8594-11.9531C15.8594-12.5098 15.4883-12.8809 14.9512-12.8809C14.4336-12.8809 14.0625-12.5 14.0625-11.9531L14.0625-7.94922L10.0586-7.94922C9.50195-7.94922 9.13086-7.56836 9.13086-7.03125C9.13086-6.51367 9.51172-6.14258 10.0586-6.14258Z"/>
  </g>
  <text style="stroke:none;fill:black;font-family:-apple-system,&quot;SF Pro Display&quot;,&quot;SF Pro Text&quot;,Helvetica,sans-serif;font-weight:bold;" transform="matrix(1 0 0 1 263 1953)">Design Variations</text>
  <text style="stroke:none;fill:black;font-family:-apple-system,&quot;SF Pro Display&quot;,&quot;SF Pro Text&quot;,Helvetica,sans-serif;" transform="matrix(1 0 0 1 263 1971)">Symbols are supported in up to nine weights and three scales.</text>
  <text style="stroke:none;fill:black;font-family:-apple-system,&quot;SF Pro Display&quot;,&quot;SF Pro Text&quot;,Helvetica,sans-serif;" transform="matrix(1 0 0 1 263 1989)">For optimal layout with text and other symbols, vertically align</text>
  <text style="stroke:none;fill:black;font-family:-apple-system,&quot;SF Pro Display&quot;,&quot;SF Pro Text&quot;,Helvetica,sans-serif;" transform="matrix(1 0 0 1 263 2007)">symbols with the adjacent text.</text>
  <line id="" style="fill:none;stroke:#00AEEF;stroke-width:0.5;opacity:1.0;" x1="776" x2="776" y1="1919" y2="1933"/>
  <g id="" transform="matrix(1 0 0 1 776 1933)">
   <path d="M3.31055 0.126953C3.82812 0.126953 4.08203-0.0683594 4.26758-0.605469L5.52734-4.0625L11.2891-4.0625L12.5488-0.605469C12.7344-0.0683594 12.9883 0.126953 13.4961 0.126953C14.0137 0.126953 14.3457-0.185547 14.3457-0.673828C14.3457-0.839844 14.3164-0.986328 14.2383-1.20117L9.6582-13.3887C9.43359-13.9941 9.0332-14.2871 8.4082-14.2871C7.80273-14.2871 7.39258-13.9941 7.17773-13.3984L2.59766-1.19141C2.51953-0.976562 2.49023-0.830078 2.49023-0.664062C2.49023-0.175781 2.80273 0.126953 3.31055 0.126953ZM6.00586-5.53711L8.37891-12.1094L8.42773-12.1094L10.8008-5.53711Z"/>
  </g>
  <line id="" style="fill:none;stroke:#00AEEF;stroke-width:0.5;opacity:1.0;" x1="792.836" x2="792.836" y1="1919" y2="1933"/>
  <text style="stroke:none;fill:black;font-family:-apple-system,&quot;SF Pro Display&quot;,&quot;SF Pro Text&quot;,Helvetica,sans-serif;font-weight:bold;" transform="matrix(1 0 0 1 776 1953)">Margins</text>
  <text style="stroke:none;fill:black;font-family:-apple-system,&quot;SF Pro Display&quot;,&quot;SF Pro Text&quot;,Helvetica,sans-serif;" transform="matrix(1 0 0 1 776 1971)">Leading and trailing margins on the left and right side of each symbol</text>
  <text style="stroke:none;fill:black;font-family:-apple-system,&quot;SF Pro Display&quot;,&quot;SF Pro Text&quot;,Helvetica,sans-serif;" transform="matrix(1 0 0 1 776 1989)">can be adjusted by modifying the x-location of the margin guidelines.</text>
  <text style="stroke:none;fill:black;font-family:-apple-system,&quot;SF Pro Display&quot;,&quot;SF Pro Text&quot;,Helvetica,sans-serif;" transform="matrix(1 0 0 1 776 2007)">Modifications are automatically applied proportionally to all</text>
  <text style="stroke:none;fill:black;font-family:-apple-system,&quot;SF Pro Display&quot;,&quot;SF Pro Text&quot;,Helvetica,sans-serif;" transform="matrix(1 0 0 1 776 2025)">scales and weights.</text>
  <g id="" transform="matrix(1 0 0 1 1289 1933)">
   <path d="M2.8418 1.86523L4.54102 3.57422C5.40039 4.44336 6.38672 4.38477 7.31445 3.35938L17.4902-7.85156C17.7539-7.76367 18.0273-7.7832 18.3398-7.8418L19.4043-8.03711L20.0684-7.36328L20.0293-6.80664C19.9902-6.30859 20.1172-5.92773 20.6055-5.44922L21.3672-4.70703C21.8457-4.22852 22.4609-4.19922 22.9297-4.66797L25.8398-7.58789C26.3086-8.05664 26.2891-8.65234 25.8105-9.13086L25.0391-9.89258C24.5605-10.3711 24.1895-10.5273 23.7109-10.4883L23.1348-10.4395L22.4902-11.0742L22.7344-12.1973C22.8613-12.7637 22.7051-13.2031 22.1191-13.7891L19.9219-15.9766C16.582-19.2969 12.1484-19.2188 9.25781-16.3281C8.83789-15.918 8.80859-15.3418 9.04297-14.9512C9.27734-14.5898 9.73633-14.3555 10.3809-14.5215C11.8457-14.8633 13.3691-14.9219 14.7949-13.9844L14.209-12.5293C14.0137-12.0508 13.9844-11.6504 14.1113-11.2891L3.04688-0.898438C2.06055 0.0195312 1.98242 0.996094 2.8418 1.86523ZM10.752-15.957C13.1836-17.7344 16.4746-17.4316 18.7012-15.2051L21.1328-12.793C21.3672-12.5586 21.4062-12.373 21.3379-12.0312L21.0156-10.5469L22.5195-9.0625L23.5059-9.12109C23.7598-9.13086 23.8379-9.11133 24.0332-8.91602L24.6094-8.33984L22.168-5.89844L21.5918-6.47461C21.3965-6.66992 21.3672-6.74805 21.377-7.01172L21.4453-7.98828L19.9512-9.47266L18.4277-9.21875C18.1055-9.15039 17.959-9.17969 17.7148-9.41406L15.7129-11.416C15.459-11.6504 15.4297-11.8164 15.5859-12.1875L16.4648-14.2773C14.9023-15.7324 12.8711-16.3574 10.8398-15.7617C10.6836-15.7227 10.625-15.8496 10.752-15.957ZM5.27344 2.30469L4.10156 1.14258C3.63281 0.683594 3.74023 0.341797 4.14062-0.0195312L14.9512-10.1953L16.416-8.71094L6.42578 2.27539C6.07422 2.67578 5.74219 2.77344 5.27344 2.30469Z"/>
  </g>
  <text style="stroke:none;fill:black;font-family:-apple-system,&quot;SF Pro Display&quot;,&quot;SF Pro Text&quot;,Helvetica,sans-serif;font-weight:bold;" transform="matrix(1 0 0 1 1289 1953)">Exporting</text>
  <text style="stroke:none;fill:black;font-family:-apple-system,&quot;SF Pro Display&quot;,&quot;SF Pro Text&quot;,Helvetica,sans-serif;" transform="matrix(1 0 0 1 1289 1971)">Symbols should be outlined when exporting to ensure the</text>
  <text style="stroke:none;fill:black;font-family:-apple-system,&quot;SF Pro Display&quot;,&quot;SF Pro Text&quot;,Helvetica,sans-serif;" transform="matrix(1 0 0 1 1289 1989)">design is preserved when submitting to Xcode.</text>
  <text id="template-version" style="stroke:none;fill:black;font-family:-apple-system,&quot;SF Pro Display&quot;,&quot;SF Pro Text&quot;,Helvetica,sans-serif;text-anchor:end;" transform="matrix(1 0 0 1 3036 1933)">Template v.2.0</text>
  <text style="stroke:none;fill:black;font-family:-apple-system,&quot;SF Pro Display&quot;,&quot;SF Pro Text&quot;,Helvetica,sans-serif;text-anchor:end;" transform="matrix(1 0 0 1 3036 1951)">Requires Xcode 12 or greater</text>
  <text style="stroke:none;fill:black;font-family:-apple-system,&quot;SF Pro Display&quot;,&quot;SF Pro Text&quot;,Helvetica,sans-serif;" transform="matrix(1 0 0 1 263 726)">Small</text>
  <text style="stroke:none;fill:black;font-family:-apple-system,&quot;SF Pro Display&quot;,&quot;SF Pro Text&quot;,Helvetica,sans-serif;" transform="matrix(1 0 0 1 263 1156)">Medium</text>
  <text style="stroke:none;fill:black;font-family:-apple-system,&quot;SF Pro Display&quot;,&quot;SF Pro Text&quot;,Helvetica,sans-serif;" transform="matrix(1 0 0 1 263 1586)">Large</text>
 </g>
 <g id="Guides">
  <g id="H-reference" style="fill:#27AAE1;stroke:none;" transform="matrix(1 0 0 1 339 696)">
   <path d="M0.976562 0L3.66211 0L12.9883-24.4629L45.752-24.4629L55.127 0L57.7637 0L30.6152-70.459L28.125-70.459ZM29.3457-67.1387L29.4434-67.1387L44.873-26.709L13.8672-26.709Z"/>
  </g>
  <line id="Baseline-S" style="fill:none;stroke:#27AAE1;opacity:1;stroke-width:0.5;" x1="263" x2="3036" y1="696" y2="696"/>
  <line id="Capline-S" style="fill:none;stroke:#27AAE1;opacity:1;stroke-width:0.5;" x1="263" x2="3036" y1="625.541" y2="625.541"/>
  <g id="H-reference" style="fill:#27AAE1;stroke:none;" transform="matrix(1 0 0 1 339 1126)">
   <path d="M0.976562 0L3.66211 0L12.9883-24.4629L45.752-24.4629L55.127 0L57.7637 0L30.6152-70.459L28.125-70.459ZM29.3457-67.1387L29.4434-67.1387L44.873-26.709L13.8672-26.709Z"/>
  </g>
  <line id="Baseline-M" style="fill:none;stroke:#27AAE1;opacity:1;stroke-width:0.5;" x1="263" x2="3036" y1="1126" y2="1126"/>
  <line id="Capline-M" style="fill:none;stroke:#27AAE1;opacity:1;stroke-width:0.5;" x1="263" x2="3036" y1="1055.54" y2="1055.54"/>
  <g id="H-reference" style="fill:#27AAE1;stroke:none;" transform="matrix(1 0 0 1 339 1556)">
   <path d="M0.976562 0L3.66211 0L12.9883-24.4629L45.752-24.4629L55.127 0L57.7637 0L30.6152-70.459L28.125-70.459ZM29.3457-67.1387L29.4434-67.1387L44.873-26.709L13.8672-26.709Z"/>
  </g>
  <line id="Baseline-L" style="fill:none;stroke:#27AAE1;opacity:1;stroke-width:0.5;" x1="263" x2="3036" y1="1556" y2="1556"/>
  <line id="Capline-L" style="fill:none;stroke:#27AAE1;opacity:1;stroke-width:0.5;" x1="263" x2="3036" y1="1485.54" y2="1485.54"/>
  <line id="left-margin" x1="1396.5944265189628" x2="1396.5944265189628" y1="1030.79" y2="1150.12" style="fill:none;stroke:#00AEEF;stroke-width:0.5;opacity:1.0;"/>
  <line id="right-margin" x1="1505.665573481037" x2="1505.665573481037" y1="1030.79" y2="1150.12" style="fill:none;stroke:#00AEEF;stroke-width:0.5;opacity:1.0;"/>
 </g>
 <g id="Symbols">
  <g id="Black-L" transform="matrix(1.0,0.0,0.0,1.0,2864.3291102094618,1443.3840407616583)">  <path stroke-dasharray="none" fill-opacity="1" stroke-width="1px" stroke-linejoin="miter" stroke="none" stroke-linecap="butt" fill="#000000" stroke-miterlimit="4" stroke-opacity="1" fill-rule="nonzero" d="M94.915,11.725L45.786,11.725C24.447,11.725,11.725,24.447,11.725,45.787L11.725,94.915C11.725,116.255,24.447,128.977,45.786,128.977L94.915,128.977C116.254,128.977,128.976,116.255,128.976,94.915L128.976,45.787C128.976,24.447,116.254,11.725,94.915,11.725ZM58.45,87.352L45.259,100.543C44.379,101.422,43.265,101.833,42.152,101.833C41.038,101.833,39.865,101.422,39.044,100.543L34.648,96.146C32.889,94.446,32.889,91.632,34.648,89.932C36.348,88.232,39.103,88.232,40.862,89.932L42.152,91.222L52.235,81.138C53.936,79.438,56.691,79.438,58.45,81.138C60.15,82.838,60.15,85.652,58.45,87.352ZM58.45,46.314L45.259,59.505C44.379,60.385,43.265,60.795,42.152,60.795C41.038,60.795,39.865,60.385,39.044,59.505L34.648,55.108C32.889,53.408,32.889,50.594,34.648,48.894C36.348,47.194,39.103,47.194,40.862,48.894L42.152,50.184L52.235,40.1C53.936,38.4,56.691,38.4,58.45,40.1C60.15,41.8,60.15,44.614,58.45,46.314ZM102.947,97.436L72.168,97.436C69.765,97.436,67.771,95.443,67.771,93.039C67.771,90.636,69.765,88.642,72.168,88.642L102.947,88.642C105.409,88.642,107.343,90.636,107.343,93.039C107.343,95.443,105.409,97.436,102.947,97.436ZM102.947,56.398L72.168,56.398C69.765,56.398,67.771,54.405,67.771,52.001C67.771,49.597,69.765,47.604,72.168,47.604L102.947,47.604C105.409,47.604,107.343,49.597,107.343,52.001C107.343,54.405,105.409,56.398,102.947,56.398ZM102.947,56.398"/>
</g>
  <g id="Heavy-L" transform="matrix(1.0,0.0,0.0,1.0,2567.6191102094617,1443.3840407616583)">  <path stroke-dasharray="none" stroke-width="1px" stroke-opacity="1" fill-rule="nonzero" stroke-miterlimit="4" stroke="none" stroke-linecap="butt" fill-opacity="1" stroke-linejoin="miter" fill="#000000" d="M94.915,11.725L45.786,11.725C24.447,11.725,11.725,24.447,11.725,45.787L11.725,94.915C11.725,116.255,24.447,128.977,45.786,128.977L94.915,128.977C116.254,128.977,128.976,116.255,128.976,94.915L128.976,45.787C128.976,24.447,116.254,11.725,94.915,11.725ZM58.45,87.352L45.259,100.543C44.379,101.422,43.265,101.833,42.152,101.833C41.038,101.833,39.865,101.422,39.044,100.543L34.648,96.146C32.889,94.446,32.889,91.632,34.648,89.932C36.348,88.232,39.103,88.232,40.862,89.932L42.152,91.222L52.235,81.138C53.936,79.438,56.691,79.438,58.45,81.138C60.15,82.838,60.15,85.652,58.45,87.352ZM58.45,46.314L45.259,59.505C44.379,60.385,43.265,60.795,42.152,60.795C41.038,60.795,39.865,60.385,39.044,59.505L34.648,55.108C32.889,53.408,32.889,50.594,34.648,48.894C36.348,47.194,39.103,47.194,40.862,48.894L42.152,50.184L52.235,40.1C53.936,38.4,56.691,38.4,58.45,40.1C60.15,41.8,60.15,44.614,58.45,46.314ZM102.947,97.436L72.168,97.436C69.765,97.436,67.771,95.443,67.771,93.039C67.771,90.636,69.765,88.642,72.168,88.642L102.947,88.642C105.409,88.642,107.343,90.636,107.343,93.039C107.343,95.443,105.409,97.436,102.947,97.436ZM102.947,56.398L72.168,56.398C69.765,56.398,67.771,54.405,67.771,52.001C67.771,49.597,69.765,47.604,72.168,47.604L102.947,47.604C105.409,47.604,107.343,49.597,107.343,52.001C107.343,54.405,105.409,56.398,102.947,56.398ZM102.947,56.398"/>
</g>
  <g id="Bold-L" transform="matrix(1.0,0.0,0.0,1.0,2270.9091102094617,1443.3840407616583)">  <path stroke-linecap="butt" fill="#000000" stroke-linejoin="miter" stroke="none" stroke-miterlimit="4" fill-opacity="1" stroke-opacity="1" fill-rule="nonzero" stroke-dasharray="none" stroke-width="1px" d="M94.915,11.725L45.786,11.725C24.447,11.725,11.725,24.447,11.725,45.787L11.725,94.915C11.725,116.255,24.447,128.977,45.786,128.977L94.915,128.977C116.254,128.977,128.976,116.255,128.976,94.915L128.976,45.787C128.976,24.447,116.254,11.725,94.915,11.725ZM58.45,87.352L45.259,100.543C44.379,101.422,43.265,101.833,42.152,101.833C41.038,101.833,39.865,101.422,39.044,100.543L34.648,96.146C32.889,94.446,32.889,91.632,34.648,89.932C36.348,88.232,39.103,88.232,40.862,89.932L42.152,91.222L52.235,81.138C53.936,79.438,56.691,79.438,58.45,81.138C60.15,82.838,60.15,85.652,58.45,87.352ZM58.45,46.314L45.259,59.505C44.379,60.385,43.265,60.795,42.152,60.795C41.038,60.795,39.865,60.385,39.044,59.505L34.648,55.108C32.889,53.408,32.889,50.594,34.648,48.894C36.348,47.194,39.103,47.194,40.862,48.894L42.152,50.184L52.235,40.1C53.936,38.4,56.691,38.4,58.45,40.1C60.15,41.8,60.15,44.614,58.45,46.314ZM102.947,97.436L72.168,97.436C69.765,97.436,67.771,95.443,67.771,93.039C67.771,90.636,69.765,88.642,72.168,88.642L102.947,88.642C105.409,88.642,107.343,90.636,107.343,93.039C107.343,95.443,105.409,97.436,102.947,97.436ZM102.947,56.398L72.168,56.398C69.765,56.398,67.771,54.405,67.771,52.001C67.771,49.597,69.765,47.604,72.168,47.604L102.947,47.604C105.409,47.604,107.343,49.597,107.343,52.001C107.343,54.405,105.409,56.398,102.947,56.398ZM102.947,56.398"/>
</g>
  <g id="Semibold-L" transform="matrix(1.0,0.0,0.0,1.0,1974.199110209462,1443.3840407616583)">  <path stroke-linejoin="miter" stroke-miterlimit="4" fill="#000000" fill-opacity="1" stroke-linecap="butt" stroke="none" fill-rule="nonzero" stroke-opacity="1" stroke-dasharray="none" stroke-width="1px" d="M94.915,11.725L45.786,11.725C24.447,11.725,11.725,24.447,11.725,45.787L11.725,94.915C11.725,116.255,24.447,128.977,45.786,128.977L94.915,128.977C116.254,128.977,128.976,116.255,128.976,94.915L128.976,45.787C128.976,24.447,116.254,11.725,94.915,11.725ZM58.45,87.352L45.259,100.543C44.379,101.422,43.265,101.833,42.152,101.833C41.038,101.833,39.865,101.422,39.044,100.543L34.648,96.146C32.889,94.446,32.889,91.632,34.648,89.932C36.348,88.232,39.103,88.232,40.862,89.932L42.152,91.222L52.235,81.138C53.936,79.438,56.691,79.438,58.45,81.138C60.15,82.838,60.15,85.652,58.45,87.352ZM58.45,46.314L45.259,59.505C44.379,60.385,43.265,60.795,42.152,60.795C41.038,60.795,39.865,60.385,39.044,59.505L34.648,55.108C32.889,53.408,32.889,50.594,34.648,48.894C36.348,47.194,39.103,47.194,40.862,48.894L42.152,50.184L52.235,40.1C53.936,38.4,56.691,38.4,58.45,40.1C60.15,41.8,60.15,44.614,58.45,46.314ZM102.947,97.436L72.168,97.436C69.765,97.436,67.771,95.443,67.771,93.039C67.771,90.636,69.765,88.642,72.168,88.642L102.947,88.642C105.409,88.642,107.343,90.636,107.343,93.039C107.343,95.443,105.409,97.436,102.947,97.436ZM102.947,56.398L72.168,56.398C69.765,56.398,67.771,54.405,67.771,52.001C67.771,49.597,69.765,47.604,72.168,47.604L102.947,47.604C105.409,47.604,107.343,49.597,107.343,52.001C107.343,54.405,105.409,56.398,102.947,56.398ZM102.947,56.398"/>
</g>
  <g id="Medium-L" transform="matrix(1.0,0.0,0.0,1.0,1677.489110209462,1443.3840407616583)">  <path fill="#000000" fill-opacity="1" stroke="none" stroke-linecap="butt" stroke-width="1px" fill-rule="nonzero" stroke-dasharray="none" stroke-opacity="1" stroke-linejoin="miter" stroke-miterlimit="4" d="M94.915,11.725L45.786,11.725C24.447,11.725,11.725,24.447,11.725,45.787L11.725,94.915C11.725,116.255,24.447,128.977,45.786,128.977L94.915,128.977C116.254,128.977,128.976,116.255,128.976,94.915L128.976,45.787C128.976,24.447,116.254,11.725,94.915,11.725ZM58.45,87.352L45.259,100.543C44.379,101.422,43.265,101.833,42.152,101.833C41.038,101.833,39.865,101.422,39.044,100.543L34.648,96.146C32.889,94.446,32.889,91.632,34.648,89.932C36.348,88.232,39.103,88.232,40.862,89.932L42.152,91.222L52.235,81.138C53.936,79.438,56.691,79.438,58.45,81.138C60.15,82.838,60.15,85.652,58.45,87.352ZM58.45,46.314L45.259,59.505C44.379,60.385,43.265,60.795,42.152,60.795C41.038,60.795,39.865,60.385,39.044,59.505L34.648,55.108C32.889,53.408,32.889,50.594,34.648,48.894C36.348,47.194,39.103,47.194,40.862,48.894L42.152,50.184L52.235,40.1C53.936,38.4,56.691,38.4,58.45,40.1C60.15,41.8,60.15,44.614,58.45,46.314ZM102.947,97.436L72.168,97.436C69.765,97.436,67.771,95.443,67.771,93.039C67.771,90.636,69.765,88.642,72.168,88.642L102.947,88.642C105.409,88.642,107.343,90.636,107.343,93.039C107.343,95.443,105.409,97.436,102.947,97.436ZM102.947,56.398L72.168,56.398C69.765,56.398,67.771,54.405,67.771,52.001C67.771,49.597,69.765,47.604,72.168,47.604L102.947,47.604C105.409,47.604,107.343,49.597,107.343,52.001C107.343,54.405,105.409,56.398,102.947,56.398ZM102.947,56.398"/>
</g>
  <g id="Regular-L" transform="matrix(1.0,0.0,0.0,1.0,1380.779110209462,1443.3840407616583)">  <path stroke-miterlimit="4" fill-rule="nonzero" fill-opacity="1" stroke-width="1px" stroke-opacity="1" fill="#000000" stroke-linecap="butt" stroke="none" stroke-dasharray="none" stroke-linejoin="miter" d="M94.915,11.725L45.786,11.725C24.447,11.725,11.725,24.447,11.725,45.787L11.725,94.915C11.725,116.255,24.447,128.977,45.786,128.977L94.915,128.977C116.254,128.977,128.976,116.255,128.976,94.915L128.976,45.787C128.976,24.447,116.254,11.725,94.915,11.725ZM58.45,87.352L45.259,100.543C44.379,101.422,43.265,101.833,42.152,101.833C41.038,101.833,39.865,101.422,39.044,100.543L34.648,96.146C32.889,94.446,32.889,91.632,34.648,89.932C36.348,88.232,39.103,88.232,40.862,89.932L42.152,91.222L52.235,81.138C53.936,79.438,56.691,79.438,58.45,81.138C60.15,82.838,60.15,85.652,58.45,87.352ZM58.45,46.314L45.259,59.505C44.379,60.385,43.265,60.795,42.152,60.795C41.038,60.795,39.865,60.385,39.044,59.505L34.648,55.108C32.889,53.408,32.889,50.594,34.648,48.894C36.348,47.194,39.103,47.194,40.862,48.894L42.152,50.184L52.235,40.1C53.936,38.4,56.691,38.4,58.45,40.1C60.15,41.8,60.15,44.614,58.45,46.314ZM102.947,97.436L72.168,97.436C69.765,97.436,67.771,95.443,67.771,93.039C67.771,90.636,69.765,88.642,72.168,88.642L102.947,88.642C105.409,88.642,107.343,90.636,107.343,93.039C107.343,95.443,105.409,97.436,102.947,97.436ZM102.947,56.398L72.168,56.398C69.765,56.398,67.771,54.405,67.771,52.001C67.771,49.597,69.765,47.604,72.168,47.604L102.947,47.604C105.409,47.604,107.343,49.597,107.343,52.001C107.343,54.405,105.409,56.398,102.947,56.398ZM102.947,56.398"/>
</g>
  <g id="Light-L" transform="matrix(1.0,0.0,0.0,1.0,1084.0691102094622,1443.3840407616583)">  <path fill-opacity="1" stroke-linecap="butt" stroke-width="1px" stroke-linejoin="miter" fill-rule="nonzero" stroke-opacity="1" fill="#000000" stroke="none" stroke-miterlimit="4" stroke-dasharray="none" d="M94.915,11.725L45.786,11.725C24.447,11.725,11.725,24.447,11.725,45.787L11.725,94.915C11.725,116.255,24.447,128.977,45.786,128.977L94.915,128.977C116.254,128.977,128.976,116.255,128.976,94.915L128.976,45.787C128.976,24.447,116.254,11.725,94.915,11.725ZM58.45,87.352L45.259,100.543C44.379,101.422,43.265,101.833,42.152,101.833C41.038,101.833,39.865,101.422,39.044,100.543L34.648,96.146C32.889,94.446,32.889,91.632,34.648,89.932C36.348,88.232,39.103,88.232,40.862,89.932L42.152,91.222L52.235,81.138C53.936,79.438,56.691,79.438,58.45,81.138C60.15,82.838,60.15,85.652,58.45,87.352ZM58.45,46.314L45.259,59.505C44.379,60.385,43.265,60.795,42.152,60.795C41.038,60.795,39.865,60.385,39.044,59.505L34.648,55.108C32.889,53.408,32.889,50.594,34.648,48.894C36.348,47.194,39.103,47.194,40.862,48.894L42.152,50.184L52.235,40.1C53.936,38.4,56.691,38.4,58.45,40.1C60.15,41.8,60.15,44.614,58.45,46.314ZM102.947,97.436L72.168,97.436C69.765,97.436,67.771,95.443,67.771,93.039C67.771,90.636,69.765,88.642,72.168,88.642L102.947,88.642C105.409,88.642,107.343,90.636,107.343,93.039C107.343,95.443,105.409,97.436,102.947,97.436ZM102.947,56.398L72.168,56.398C69.765,56.398,67.771,54.405,67.771,52.001C67.771,49.597,69.765,47.604,72.168,47.604L102.947,47.604C105.409,47.604,107.343,49.597,107.343,52.001C107.343,54.405,105.409,56.398,102.947,56.398ZM102.947,56.398"/>
</g>
  <g id="Thin-L" transform="matrix(1.0,0.0,0.0,1.0,787.3591102094621,1443.3840407616583)">  <path fill-opacity="1" stroke-miterlimit="4" stroke-opacity="1" stroke-width="1px" stroke-dasharray="none" stroke="none" fill-rule="nonzero" stroke-linecap="butt" fill="#000000" stroke-linejoin="miter" d="M94.915,11.725L45.786,11.725C24.447,11.725,11.725,24.447,11.725,45.787L11.725,94.915C11.725,116.255,24.447,128.977,45.786,128.977L94.915,128.977C116.254,128.977,128.976,116.255,128.976,94.915L128.976,45.787C128.976,24.447,116.254,11.725,94.915,11.725ZM58.45,87.352L45.259,100.543C44.379,101.422,43.265,101.833,42.152,101.833C41.038,101.833,39.865,101.422,39.044,100.543L34.648,96.146C32.889,94.446,32.889,91.632,34.648,89.932C36.348,88.232,39.103,88.232,40.862,89.932L42.152,91.222L52.235,81.138C53.936,79.438,56.691,79.438,58.45,81.138C60.15,82.838,60.15,85.652,58.45,87.352ZM58.45,46.314L45.259,59.505C44.379,60.385,43.265,60.795,42.152,60.795C41.038,60.795,39.865,60.385,39.044,59.505L34.648,55.108C32.889,53.408,32.889,50.594,34.648,48.894C36.348,47.194,39.103,47.194,40.862,48.894L42.152,50.184L52.235,40.1C53.936,38.4,56.691,38.4,58.45,40.1C60.15,41.8,60.15,44.614,58.45,46.314ZM102.947,97.436L72.168,97.436C69.765,97.436,67.771,95.443,67.771,93.039C67.771,90.636,69.765,88.642,72.168,88.642L102.947,88.642C105.409,88.642,107.343,90.636,107.343,93.039C107.343,95.443,105.409,97.436,102.947,97.436ZM102.947,56.398L72.168,56.398C69.765,56.398,67.771,54.405,67.771,52.001C67.771,49.597,69.765,47.604,72.168,47.604L102.947,47.604C105.409,47.604,107.343,49.597,107.343,52.001C107.343,54.405,105.409,56.398,102.947,56.398ZM102.947,56.398"/>
</g>
  <g id="Ultralight-L" transform="matrix(1.0,0.0,0.0,1.0,490.6491102094621,1443.3840407616583)">  <path stroke-miterlimit="4" stroke-linecap="butt" fill-rule="nonzero" fill="#000000" stroke-width="1px" stroke-opacity="1" stroke-dasharray="none" stroke-linejoin="miter" stroke="none" fill-opacity="1" d="M94.915,11.725L45.786,11.725C24.447,11.725,11.725,24.447,11.725,45.787L11.725,94.915C11.725,116.255,24.447,128.977,45.786,128.977L94.915,128.977C116.254,128.977,128.976,116.255,128.976,94.915L128.976,45.787C128.976,24.447,116.254,11.725,94.915,11.725ZM58.45,87.352L45.259,100.543C44.379,101.422,43.265,101.833,42.152,101.833C41.038,101.833,39.865,101.422,39.044,100.543L34.648,96.146C32.889,94.446,32.889,91.632,34.648,89.932C36.348,88.232,39.103,88.232,40.862,89.932L42.152,91.222L52.235,81.138C53.936,79.438,56.691,79.438,58.45,81.138C60.15,82.838,60.15,85.652,58.45,87.352ZM58.45,46.314L45.259,59.505C44.379,60.385,43.265,60.795,42.152,60.795C41.038,60.795,39.865,60.385,39.044,59.505L34.648,55.108C32.889,53.408,32.889,50.594,34.648,48.894C36.348,47.194,39.103,47.194,40.862,48.894L42.152,50.184L52.235,40.1C53.936,38.4,56.691,38.4,58.45,40.1C60.15,41.8,60.15,44.614,58.45,46.314ZM102.947,97.436L72.168,97.436C69.765,97.436,67.771,95.443,67.771,93.039C67.771,90.636,69.765,88.642,72.168,88.642L102.947,88.642C105.409,88.642,107.343,90.636,107.343,93.039C107.343,95.443,105.409,97.436,102.947,97.436ZM102.947,56.398L72.168,56.398C69.765,56.398,67.771,54.405,67.771,52.001C67.771,49.597,69.765,47.604,72.168,47.604L102.947,47.604C105.409,47.604,107.343,49.597,107.343,52.001C107.343,54.405,105.409,56.398,102.947,56.398ZM102.947,56.398"/>
</g>
  <g id="Black-M" transform="matrix(1.0,0.0,0.0,1.0,2880.1444265189625,1030.7808887021092)">  <path stroke-dasharray="none" fill-opacity="1" stroke-width="1px" stroke-linejoin="miter" stroke="none" stroke-linecap="butt" fill="#000000" stroke-miterlimit="4" stroke-opacity="1" fill-rule="nonzero" d="M73.577,9.089L35.493,9.089C18.951,9.089,9.089,18.951,9.089,35.494L9.089,73.577C9.089,90.12,18.951,99.982,35.493,99.982L73.577,99.982C90.12,99.982,99.982,90.12,99.982,73.577L99.982,35.494C99.982,18.951,90.12,9.089,73.577,9.089ZM45.31,67.715L35.084,77.94C34.403,78.622,33.539,78.94,32.676,78.94C31.812,78.94,30.903,78.622,30.267,77.94L26.859,74.532C25.495,73.214,25.495,71.033,26.859,69.715C28.177,68.397,30.313,68.397,31.676,69.715L32.676,70.714L40.492,62.898C41.811,61.58,43.946,61.58,45.31,62.898C46.628,64.216,46.628,66.397,45.31,67.715ZM45.31,35.903L35.084,46.128C34.403,46.81,33.539,47.128,32.676,47.128C31.812,47.128,30.903,46.81,30.267,46.128L26.859,42.72C25.495,41.401,25.495,39.22,26.859,37.902C28.177,36.584,30.313,36.584,31.676,37.902L32.676,38.902L40.492,31.085C41.811,29.767,43.946,29.767,45.31,31.085C46.628,32.403,46.628,34.585,45.31,35.903ZM79.804,75.532L55.944,75.532C54.081,75.532,52.536,73.987,52.536,72.123C52.536,70.26,54.081,68.715,55.944,68.715L79.804,68.715C81.712,68.715,83.212,70.26,83.212,72.123C83.212,73.987,81.712,75.532,79.804,75.532ZM79.804,43.719L55.944,43.719C54.081,43.719,52.536,42.174,52.536,40.311C52.536,38.448,54.081,36.902,55.944,36.902L79.804,36.902C81.712,36.902,83.212,38.448,83.212,40.311C83.212,42.174,81.712,43.719,79.804,43.719ZM79.804,43.719"/>
</g>
  <g id="Heavy-M" transform="matrix(1.0,0.0,0.0,1.0,2583.4344265189625,1030.7808887021092)">  <path stroke-dasharray="none" stroke-width="1px" stroke-opacity="1" fill-rule="nonzero" stroke-miterlimit="4" stroke="none" stroke-linecap="butt" fill-opacity="1" stroke-linejoin="miter" fill="#000000" d="M73.577,9.089L35.493,9.089C18.951,9.089,9.089,18.951,9.089,35.494L9.089,73.577C9.089,90.12,18.951,99.982,35.493,99.982L73.577,99.982C90.12,99.982,99.982,90.12,99.982,73.577L99.982,35.494C99.982,18.951,90.12,9.089,73.577,9.089ZM45.31,67.715L35.084,77.94C34.403,78.622,33.539,78.94,32.676,78.94C31.812,78.94,30.903,78.622,30.267,77.94L26.859,74.532C25.495,73.214,25.495,71.033,26.859,69.715C28.177,68.397,30.313,68.397,31.676,69.715L32.676,70.714L40.492,62.898C41.811,61.58,43.946,61.58,45.31,62.898C46.628,64.216,46.628,66.397,45.31,67.715ZM45.31,35.903L35.084,46.128C34.403,46.81,33.539,47.128,32.676,47.128C31.812,47.128,30.903,46.81,30.267,46.128L26.859,42.72C25.495,41.401,25.495,39.22,26.859,37.902C28.177,36.584,30.313,36.584,31.676,37.902L32.676,38.902L40.492,31.085C41.811,29.767,43.946,29.767,45.31,31.085C46.628,32.403,46.628,34.585,45.31,35.903ZM79.804,75.532L55.944,75.532C54.081,75.532,52.536,73.987,52.536,72.123C52.536,70.26,54.081,68.715,55.944,68.715L79.804,68.715C81.712,68.715,83.212,70.26,83.212,72.123C83.212,73.987,81.712,75.532,79.804,75.532ZM79.804,43.719L55.944,43.719C54.081,43.719,52.536,42.174,52.536,40.311C52.536,38.448,54.081,36.902,55.944,36.902L79.804,36.902C81.712,36.902,83.212,38.448,83.212,40.311C83.212,42.174,81.712,43.719,79.804,43.719ZM79.804,43.719"/>
</g>
  <g id="Bold-M" transform="matrix(1.0,0.0,0.0,1.0,2286.7244265189624,1030.7808887021092)">  <path stroke-linecap="butt" fill="#000000" stroke-linejoin="miter" stroke="none" stroke-miterlimit="4" fill-opacity="1" stroke-opacity="1" fill-rule="nonzero" stroke-dasharray="none" stroke-width="1px" d="M73.577,9.089L35.493,9.089C18.951,9.089,9.089,18.951,9.089,35.494L9.089,73.577C9.089,90.12,18.951,99.982,35.493,99.982L73.577,99.982C90.12,99.982,99.982,90.12,99.982,73.577L99.982,35.494C99.982,18.951,90.12,9.089,73.577,9.089ZM45.31,67.715L35.084,77.94C34.403,78.622,33.539,78.94,32.676,78.94C31.812,78.94,30.903,78.622,30.267,77.94L26.859,74.532C25.495,73.214,25.495,71.033,26.859,69.715C28.177,68.397,30.313,68.397,31.676,69.715L32.676,70.714L40.492,62.898C41.811,61.58,43.946,61.58,45.31,62.898C46.628,64.216,46.628,66.397,45.31,67.715ZM45.31,35.903L35.084,46.128C34.403,46.81,33.539,47.128,32.676,47.128C31.812,47.128,30.903,46.81,30.267,46.128L26.859,42.72C25.495,41.401,25.495,39.22,26.859,37.902C28.177,36.584,30.313,36.584,31.676,37.902L32.676,38.902L40.492,31.085C41.811,29.767,43.946,29.767,45.31,31.085C46.628,32.403,46.628,34.585,45.31,35.903ZM79.804,75.532L55.944,75.532C54.081,75.532,52.536,73.987,52.536,72.123C52.536,70.26,54.081,68.715,55.944,68.715L79.804,68.715C81.712,68.715,83.212,70.26,83.212,72.123C83.212,73.987,81.712,75.532,79.804,75.532ZM79.804,43.719L55.944,43.719C54.081,43.719,52.536,42.174,52.536,40.311C52.536,38.448,54.081,36.902,55.944,36.902L79.804,36.902C81.712,36.902,83.212,38.448,83.212,40.311C83.212,42.174,81.712,43.719,79.804,43.719ZM79.804,43.719"/>
</g>
  <g id="Semibold-M" transform="matrix(1.0,0.0,0.0,1.0,1990.0144265189629,1030.7808887021092)">  <path stroke-linejoin="miter" stroke-miterlimit="4" fill="#000000" fill-opacity="1" stroke-linecap="butt" stroke="none" fill-rule="nonzero" stroke-opacity="1" stroke-dasharray="none" stroke-width="1px" d="M73.577,9.089L35.493,9.089C18.951,9.089,9.089,18.951,9.089,35.494L9.089,73.577C9.089,90.12,18.951,99.982,35.493,99.982L73.577,99.982C90.12,99.982,99.982,90.12,99.982,73.577L99.982,35.494C99.982,18.951,90.12,9.089,73.577,9.089ZM45.31,67.715L35.084,77.94C34.403,78.622,33.539,78.94,32.676,78.94C31.812,78.94,30.903,78.622,30.267,77.94L26.859,74.532C25.495,73.214,25.495,71.033,26.859,69.715C28.177,68.397,30.313,68.397,31.676,69.715L32.676,70.714L40.492,62.898C41.811,61.58,43.946,61.58,45.31,62.898C46.628,64.216,46.628,66.397,45.31,67.715ZM45.31,35.903L35.084,46.128C34.403,46.81,33.539,47.128,32.676,47.128C31.812,47.128,30.903,46.81,30.267,46.128L26.859,42.72C25.495,41.401,25.495,39.22,26.859,37.902C28.177,36.584,30.313,36.584,31.676,37.902L32.676,38.902L40.492,31.085C41.811,29.767,43.946,29.767,45.31,31.085C46.628,32.403,46.628,34.585,45.31,35.903ZM79.804,75.532L55.944,75.532C54.081,75.532,52.536,73.987,52.536,72.123C52.536,70.26,54.081,68.715,55.944,68.715L79.804,68.715C81.712,68.715,83.212,70.26,83.212,72.123C83.212,73.987,81.712,75.532,79.804,75.532ZM79.804,43.719L55.944,43.719C54.081,43.719,52.536,42.174,52.536,40.311C52.536,38.448,54.081,36.902,55.944,36.902L79.804,36.902C81.712,36.902,83.212,38.448,83.212,40.311C83.212,42.174,81.712,43.719,79.804,43.719ZM79.804,43.719"/>
</g>
  <g id="Medium-M" transform="matrix(1.0,0.0,0.0,1.0,1693.3044265189628,1030.7808887021092)">  <path fill="#000000" fill-opacity="1" stroke="none" stroke-linecap="butt" stroke-width="1px" fill-rule="nonzero" stroke-dasharray="none" stroke-opacity="1" stroke-linejoin="miter" stroke-miterlimit="4" d="M73.577,9.089L35.493,9.089C18.951,9.089,9.089,18.951,9.089,35.494L9.089,73.577C9.089,90.12,18.951,99.982,35.493,99.982L73.577,99.982C90.12,99.982,99.982,90.12,99.982,73.577L99.982,35.494C99.982,18.951,90.12,9.089,73.577,9.089ZM45.31,67.715L35.084,77.94C34.403,78.622,33.539,78.94,32.676,78.94C31.812,78.94,30.903,78.622,30.267,77.94L26.859,74.532C25.495,73.214,25.495,71.033,26.859,69.715C28.177,68.397,30.313,68.397,31.676,69.715L32.676,70.714L40.492,62.898C41.811,61.58,43.946,61.58,45.31,62.898C46.628,64.216,46.628,66.397,45.31,67.715ZM45.31,35.903L35.084,46.128C34.403,46.81,33.539,47.128,32.676,47.128C31.812,47.128,30.903,46.81,30.267,46.128L26.859,42.72C25.495,41.401,25.495,39.22,26.859,37.902C28.177,36.584,30.313,36.584,31.676,37.902L32.676,38.902L40.492,31.085C41.811,29.767,43.946,29.767,45.31,31.085C46.628,32.403,46.628,34.585,45.31,35.903ZM79.804,75.532L55.944,75.532C54.081,75.532,52.536,73.987,52.536,72.123C52.536,70.26,54.081,68.715,55.944,68.715L79.804,68.715C81.712,68.715,83.212,70.26,83.212,72.123C83.212,73.987,81.712,75.532,79.804,75.532ZM79.804,43.719L55.944,43.719C54.081,43.719,52.536,42.174,52.536,40.311C52.536,38.448,54.081,36.902,55.944,36.902L79.804,36.902C81.712,36.902,83.212,38.448,83.212,40.311C83.212,42.174,81.712,43.719,79.804,43.719ZM79.804,43.719"/>
</g>
  <g id="Regular-M" transform="matrix(1.0,0.0,0.0,1.0,1396.5944265189628,1030.7808887021092)">  <path stroke-miterlimit="4" fill-rule="nonzero" fill-opacity="1" stroke-width="1px" stroke-opacity="1" fill="#000000" stroke-linecap="butt" stroke="none" stroke-dasharray="none" stroke-linejoin="miter" d="M73.577,9.089L35.493,9.089C18.951,9.089,9.089,18.951,9.089,35.494L9.089,73.577C9.089,90.12,18.951,99.982,35.493,99.982L73.577,99.982C90.12,99.982,99.982,90.12,99.982,73.577L99.982,35.494C99.982,18.951,90.12,9.089,73.577,9.089ZM45.31,67.715L35.084,77.94C34.403,78.622,33.539,78.94,32.676,78.94C31.812,78.94,30.903,78.622,30.267,77.94L26.859,74.532C25.495,73.214,25.495,71.033,26.859,69.715C28.177,68.397,30.313,68.397,31.676,69.715L32.676,70.714L40.492,62.898C41.811,61.58,43.946,61.58,45.31,62.898C46.628,64.216,46.628,66.397,45.31,67.715ZM45.31,35.903L35.084,46.128C34.403,46.81,33.539,47.128,32.676,47.128C31.812,47.128,30.903,46.81,30.267,46.128L26.859,42.72C25.495,41.401,25.495,39.22,26.859,37.902C28.177,36.584,30.313,36.584,31.676,37.902L32.676,38.902L40.492,31.085C41.811,29.767,43.946,29.767,45.31,31.085C46.628,32.403,46.628,34.585,45.31,35.903ZM79.804,75.532L55.944,75.532C54.081,75.532,52.536,73.987,52.536,72.123C52.536,70.26,54.081,68.715,55.944,68.715L79.804,68.715C81.712,68.715,83.212,70.26,83.212,72.123C83.212,73.987,81.712,75.532,79.804,75.532ZM79.804,43.719L55.944,43.719C54.081,43.719,52.536,42.174,52.536,40.311C52.536,38.448,54.081,36.902,55.944,36.902L79.804,36.902C81.712,36.902,83.212,38.448,83.212,40.311C83.212,42.174,81.712,43.719,79.804,43.719ZM79.804,43.719"/>
</g>
  <g id="Light-M" transform="matrix(1.0,0.0,0.0,1.0,1099.884426518963,1030.7808887021092)">  <path fill-opacity="1" stroke-linecap="butt" stroke-width="1px" stroke-linejoin="miter" fill-rule="nonzero" stroke-opacity="1" fill="#000000" stroke="none" stroke-miterlimit="4" stroke-dasharray="none" d="M73.577,9.089L35.493,9.089C18.951,9.089,9.089,18.951,9.089,35.494L9.089,73.577C9.089,90.12,18.951,99.982,35.493,99.982L73.577,99.982C90.12,99.982,99.982,90.12,99.982,73.577L99.982,35.494C99.982,18.951,90.12,9.089,73.577,9.089ZM45.31,67.715L35.084,77.94C34.403,78.622,33.539,78.94,32.676,78.94C31.812,78.94,30.903,78.622,30.267,77.94L26.859,74.532C25.495,73.214,25.495,71.033,26.859,69.715C28.177,68.397,30.313,68.397,31.676,69.715L32.676,70.714L40.492,62.898C41.811,61.58,43.946,61.58,45.31,62.898C46.628,64.216,46.628,66.397,45.31,67.715ZM45.31,35.903L35.084,46.128C34.403,46.81,33.539,47.128,32.676,47.128C31.812,47.128,30.903,46.81,30.267,46.128L26.859,42.72C25.495,41.401,25.495,39.22,26.859,37.902C28.177,36.584,30.313,36.584,31.676,37.902L32.676,38.902L40.492,31.085C41.811,29.767,43.946,29.767,45.31,31.085C46.628,32.403,46.628,34.585,45.31,35.903ZM79.804,75.532L55.944,75.532C54.081,75.532,52.536,73.987,52.536,72.123C52.536,70.26,54.081,68.715,55.944,68.715L79.804,68.715C81.712,68.715,83.212,70.26,83.212,72.123C83.212,73.987,81.712,75.532,79.804,75.532ZM79.804,43.719L55.944,43.719C54.081,43.719,52.536,42.174,52.536,40.311C52.536,38.448,54.081,36.902,55.944,36.902L79.804,36.902C81.712,36.902,83.212,38.448,83.212,40.311C83.212,42.174,81.712,43.719,79.804,43.719ZM79.804,43.719"/>
</g>
  <g id="Thin-M" transform="matrix(1.0,0.0,0.0,1.0,803.174426518963,1030.7808887021092)">  <path fill-opacity="1" stroke-miterlimit="4" stroke-opacity="1" stroke-width="1px" stroke-dasharray="none" stroke="none" fill-rule="nonzero" stroke-linecap="butt" fill="#000000" stroke-linejoin="miter" d="M73.577,9.089L35.493,9.089C18.951,9.089,9.089,18.951,9.089,35.494L9.089,73.577C9.089,90.12,18.951,99.982,35.493,99.982L73.577,99.982C90.12,99.982,99.982,90.12,99.982,73.577L99.982,35.494C99.982,18.951,90.12,9.089,73.577,9.089ZM45.31,67.715L35.084,77.94C34.403,78.622,33.539,78.94,32.676,78.94C31.812,78.94,30.903,78.622,30.267,77.94L26.859,74.532C25.495,73.214,25.495,71.033,26.859,69.715C28.177,68.397,30.313,68.397,31.676,69.715L32.676,70.714L40.492,62.898C41.811,61.58,43.946,61.58,45.31,62.898C46.628,64.216,46.628,66.397,45.31,67.715ZM45.31,35.903L35.084,46.128C34.403,46.81,33.539,47.128,32.676,47.128C31.812,47.128,30.903,46.81,30.267,46.128L26.859,42.72C25.495,41.401,25.495,39.22,26.859,37.902C28.177,36.584,30.313,36.584,31.676,37.902L32.676,38.902L40.492,31.085C41.811,29.767,43.946,29.767,45.31,31.085C46.628,32.403,46.628,34.585,45.31,35.903ZM79.804,75.532L55.944,75.532C54.081,75.532,52.536,73.987,52.536,72.123C52.536,70.26,54.081,68.715,55.944,68.715L79.804,68.715C81.712,68.715,83.212,70.26,83.212,72.123C83.212,73.987,81.712,75.532,79.804,75.532ZM79.804,43.719L55.944,43.719C54.081,43.719,52.536,42.174,52.536,40.311C52.536,38.448,54.081,36.902,55.944,36.902L79.804,36.902C81.712,36.902,83.212,38.448,83.212,40.311C83.212,42.174,81.712,43.719,79.804,43.719ZM79.804,43.719"/>
</g>
  <g id="Ultralight-M" transform="matrix(1.0,0.0,0.0,1.0,506.46442651896285,1030.7808887021092)">  <path stroke-miterlimit="4" stroke-linecap="butt" fill-rule="nonzero" fill="#000000" stroke-width="1px" stroke-opacity="1" stroke-dasharray="none" stroke-linejoin="miter" stroke="none" fill-opacity="1" d="M73.577,9.089L35.493,9.089C18.951,9.089,9.089,18.951,9.089,35.494L9.089,73.577C9.089,90.12,18.951,99.982,35.493,99.982L73.577,99.982C90.12,99.982,99.982,90.12,99.982,73.577L99.982,35.494C99.982,18.951,90.12,9.089,73.577,9.089ZM45.31,67.715L35.084,77.94C34.403,78.622,33.539,78.94,32.676,78.94C31.812,78.94,30.903,78.622,30.267,77.94L26.859,74.532C25.495,73.214,25.495,71.033,26.859,69.715C28.177,68.397,30.313,68.397,31.676,69.715L32.676,70.714L40.492,62.898C41.811,61.58,43.946,61.58,45.31,62.898C46.628,64.216,46.628,66.397,45.31,67.715ZM45.31,35.903L35.084,46.128C34.403,46.81,33.539,47.128,32.676,47.128C31.812,47.128,30.903,46.81,30.267,46.128L26.859,42.72C25.495,41.401,25.495,39.22,26.859,37.902C28.177,36.584,30.313,36.584,31.676,37.902L32.676,38.902L40.492,31.085C41.811,29.767,43.946,29.767,45.31,31.085C46.628,32.403,46.628,34.585,45.31,35.903ZM79.804,75.532L55.944,75.532C54.081,75.532,52.536,73.987,52.536,72.123C52.536,70.26,54.081,68.715,55.944,68.715L79.804,68.715C81.712,68.715,83.212,70.26,83.212,72.123C83.212,73.987,81.712,75.532,79.804,75.532ZM79.804,43.719L55.944,43.719C54.081,43.719,52.536,42.174,52.536,40.311C52.536,38.448,54.081,36.902,55.944,36.902L79.804,36.902C81.712,36.902,83.212,38.448,83.212,40.311C83.212,42.174,81.712,43.719,79.804,43.719ZM79.804,43.719"/>
</g>
  <g id="Black-S" transform="matrix(1.0,0.0,0.0,1.0,2891.978645964348,613.7985300920327)">  <path stroke-dasharray="none" fill-opacity="1" stroke-width="1px" stroke-linejoin="miter" stroke="none" stroke-linecap="butt" fill="#000000" stroke-miterlimit="4" stroke-opacity="1" fill-rule="nonzero" d="M57.611,7.117L27.791,7.117C14.839,7.117,7.117,14.839,7.117,27.792L7.117,57.611C7.117,70.564,14.839,78.286,27.791,78.286L57.611,78.286C70.564,78.286,78.286,70.564,78.286,57.611L78.286,27.792C78.286,14.839,70.564,7.117,57.611,7.117ZM35.478,53.021L27.471,61.027C26.937,61.561,26.261,61.81,25.585,61.81C24.909,61.81,24.197,61.561,23.699,61.027L21.03,58.358C19.963,57.327,19.963,55.619,21.03,54.587C22.062,53.555,23.735,53.555,24.802,54.587L25.585,55.369L31.706,49.249C32.738,48.217,34.41,48.217,35.478,49.249C36.509,50.281,36.509,51.989,35.478,53.021ZM35.478,28.112L27.471,36.118C26.937,36.652,26.261,36.901,25.585,36.901C24.909,36.901,24.197,36.652,23.699,36.118L21.03,33.449C19.963,32.417,19.963,30.709,21.03,29.677C22.062,28.646,23.735,28.646,24.802,29.677L25.585,30.46L31.706,24.34C32.738,23.308,34.41,23.308,35.478,24.34C36.509,25.372,36.509,27.08,35.478,28.112ZM62.486,59.141L43.804,59.141C42.345,59.141,41.135,57.931,41.135,56.473C41.135,55.014,42.345,53.804,43.804,53.804L62.486,53.804C63.981,53.804,65.155,55.014,65.155,56.473C65.155,57.931,63.981,59.141,62.486,59.141ZM62.486,34.232L43.804,34.232C42.345,34.232,41.135,33.022,41.135,31.563C41.135,30.104,42.345,28.895,43.804,28.895L62.486,28.895C63.981,28.895,65.155,30.104,65.155,31.563C65.155,33.022,63.981,34.232,62.486,34.232ZM62.486,34.232"/>
</g>
  <g id="Heavy-S" transform="matrix(1.0,0.0,0.0,1.0,2595.268645964348,613.7985300920327)">  <path stroke-dasharray="none" stroke-width="1px" stroke-opacity="1" fill-rule="nonzero" stroke-miterlimit="4" stroke="none" stroke-linecap="butt" fill-opacity="1" stroke-linejoin="miter" fill="#000000" d="M57.611,7.117L27.791,7.117C14.839,7.117,7.117,14.839,7.117,27.792L7.117,57.611C7.117,70.564,14.839,78.286,27.791,78.286L57.611,78.286C70.564,78.286,78.286,70.564,78.286,57.611L78.286,27.792C78.286,14.839,70.564,7.117,57.611,7.117ZM35.478,53.021L27.471,61.027C26.937,61.561,26.261,61.81,25.585,61.81C24.909,61.81,24.197,61.561,23.699,61.027L21.03,58.358C19.963,57.327,19.963,55.619,21.03,54.587C22.062,53.555,23.735,53.555,24.802,54.587L25.585,55.369L31.706,49.249C32.738,48.217,34.41,48.217,35.478,49.249C36.509,50.281,36.509,51.989,35.478,53.021ZM35.478,28.112L27.471,36.118C26.937,36.652,26.261,36.901,25.585,36.901C24.909,36.901,24.197,36.652,23.699,36.118L21.03,33.449C19.963,32.417,19.963,30.709,21.03,29.677C22.062,28.646,23.735,28.646,24.802,29.677L25.585,30.46L31.706,24.34C32.738,23.308,34.41,23.308,35.478,24.34C36.509,25.372,36.509,27.08,35.478,28.112ZM62.486,59.141L43.804,59.141C42.345,59.141,41.135,57.931,41.135,56.473C41.135,55.014,42.345,53.804,43.804,53.804L62.486,53.804C63.981,53.804,65.155,55.014,65.155,56.473C65.155,57.931,63.981,59.141,62.486,59.141ZM62.486,34.232L43.804,34.232C42.345,34.232,41.135,33.022,41.135,31.563C41.135,30.104,42.345,28.895,43.804,28.895L62.486,28.895C63.981,28.895,65.155,30.104,65.155,31.563C65.155,33.022,63.981,34.232,62.486,34.232ZM62.486,34.232"/>
</g>
  <g id="Bold-S" transform="matrix(1.0,0.0,0.0,1.0,2298.5586459643478,613.7985300920327)">  <path stroke-linecap="butt" fill="#000000" stroke-linejoin="miter" stroke="none" stroke-miterlimit="4" fill-opacity="1" stroke-opacity="1" fill-rule="nonzero" stroke-dasharray="none" stroke-width="1px" d="M57.611,7.117L27.791,7.117C14.839,7.117,7.117,14.839,7.117,27.792L7.117,57.611C7.117,70.564,14.839,78.286,27.791,78.286L57.611,78.286C70.564,78.286,78.286,70.564,78.286,57.611L78.286,27.792C78.286,14.839,70.564,7.117,57.611,7.117ZM35.478,53.021L27.471,61.027C26.937,61.561,26.261,61.81,25.585,61.81C24.909,61.81,24.197,61.561,23.699,61.027L21.03,58.358C19.963,57.327,19.963,55.619,21.03,54.587C22.062,53.555,23.735,53.555,24.802,54.587L25.585,55.369L31.706,49.249C32.738,48.217,34.41,48.217,35.478,49.249C36.509,50.281,36.509,51.989,35.478,53.021ZM35.478,28.112L27.471,36.118C26.937,36.652,26.261,36.901,25.585,36.901C24.909,36.901,24.197,36.652,23.699,36.118L21.03,33.449C19.963,32.417,19.963,30.709,21.03,29.677C22.062,28.646,23.735,28.646,24.802,29.677L25.585,30.46L31.706,24.34C32.738,23.308,34.41,23.308,35.478,24.34C36.509,25.372,36.509,27.08,35.478,28.112ZM62.486,59.141L43.804,59.141C42.345,59.141,41.135,57.931,41.135,56.473C41.135,55.014,42.345,53.804,43.804,53.804L62.486,53.804C63.981,53.804,65.155,55.014,65.155,56.473C65.155,57.931,63.981,59.141,62.486,59.141ZM62.486,34.232L43.804,34.232C42.345,34.232,41.135,33.022,41.135,31.563C41.135,30.104,42.345,28.895,43.804,28.895L62.486,28.895C63.981,28.895,65.155,30.104,65.155,31.563C65.155,33.022,63.981,34.232,62.486,34.232ZM62.486,34.232"/>
</g>
  <g id="Semibold-S" transform="matrix(1.0,0.0,0.0,1.0,2001.848645964348,613.7985300920327)">  <path stroke-linejoin="miter" stroke-miterlimit="4" fill="#000000" fill-opacity="1" stroke-linecap="butt" stroke="none" fill-rule="nonzero" stroke-opacity="1" stroke-dasharray="none" stroke-width="1px" d="M57.611,7.117L27.791,7.117C14.839,7.117,7.117,14.839,7.117,27.792L7.117,57.611C7.117,70.564,14.839,78.286,27.791,78.286L57.611,78.286C70.564,78.286,78.286,70.564,78.286,57.611L78.286,27.792C78.286,14.839,70.564,7.117,57.611,7.117ZM35.478,53.021L27.471,61.027C26.937,61.561,26.261,61.81,25.585,61.81C24.909,61.81,24.197,61.561,23.699,61.027L21.03,58.358C19.963,57.327,19.963,55.619,21.03,54.587C22.062,53.555,23.735,53.555,24.802,54.587L25.585,55.369L31.706,49.249C32.738,48.217,34.41,48.217,35.478,49.249C36.509,50.281,36.509,51.989,35.478,53.021ZM35.478,28.112L27.471,36.118C26.937,36.652,26.261,36.901,25.585,36.901C24.909,36.901,24.197,36.652,23.699,36.118L21.03,33.449C19.963,32.417,19.963,30.709,21.03,29.677C22.062,28.646,23.735,28.646,24.802,29.677L25.585,30.46L31.706,24.34C32.738,23.308,34.41,23.308,35.478,24.34C36.509,25.372,36.509,27.08,35.478,28.112ZM62.486,59.141L43.804,59.141C42.345,59.141,41.135,57.931,41.135,56.473C41.135,55.014,42.345,53.804,43.804,53.804L62.486,53.804C63.981,53.804,65.155,55.014,65.155,56.473C65.155,57.931,63.981,59.141,62.486,59.141ZM62.486,34.232L43.804,34.232C42.345,34.232,41.135,33.022,41.135,31.563C41.135,30.104,42.345,28.895,43.804,28.895L62.486,28.895C63.981,28.895,65.155,30.104,65.155,31.563C65.155,33.022,63.981,34.232,62.486,34.232ZM62.486,34.232"/>
</g>
  <g id="Medium-S" transform="matrix(1.0,0.0,0.0,1.0,1705.138645964348,613.7985300920327)">  <path fill="#000000" fill-opacity="1" stroke="none" stroke-linecap="butt" stroke-width="1px" fill-rule="nonzero" stroke-dasharray="none" stroke-opacity="1" stroke-linejoin="miter" stroke-miterlimit="4" d="M57.611,7.117L27.791,7.117C14.839,7.117,7.117,14.839,7.117,27.792L7.117,57.611C7.117,70.564,14.839,78.286,27.791,78.286L57.611,78.286C70.564,78.286,78.286,70.564,78.286,57.611L78.286,27.792C78.286,14.839,70.564,7.117,57.611,7.117ZM35.478,53.021L27.471,61.027C26.937,61.561,26.261,61.81,25.585,61.81C24.909,61.81,24.197,61.561,23.699,61.027L21.03,58.358C19.963,57.327,19.963,55.619,21.03,54.587C22.062,53.555,23.735,53.555,24.802,54.587L25.585,55.369L31.706,49.249C32.738,48.217,34.41,48.217,35.478,49.249C36.509,50.281,36.509,51.989,35.478,53.021ZM35.478,28.112L27.471,36.118C26.937,36.652,26.261,36.901,25.585,36.901C24.909,36.901,24.197,36.652,23.699,36.118L21.03,33.449C19.963,32.417,19.963,30.709,21.03,29.677C22.062,28.646,23.735,28.646,24.802,29.677L25.585,30.46L31.706,24.34C32.738,23.308,34.41,23.308,35.478,24.34C36.509,25.372,36.509,27.08,35.478,28.112ZM62.486,59.141L43.804,59.141C42.345,59.141,41.135,57.931,41.135,56.473C41.135,55.014,42.345,53.804,43.804,53.804L62.486,53.804C63.981,53.804,65.155,55.014,65.155,56.473C65.155,57.931,63.981,59.141,62.486,59.141ZM62.486,34.232L43.804,34.232C42.345,34.232,41.135,33.022,41.135,31.563C41.135,30.104,42.345,28.895,43.804,28.895L62.486,28.895C63.981,28.895,65.155,30.104,65.155,31.563C65.155,33.022,63.981,34.232,62.486,34.232ZM62.486,34.232"/>
</g>
  <g id="Regular-S" transform="matrix(1.0,0.0,0.0,1.0,1408.4286459643479,613.7985300920327)">  <path stroke-miterlimit="4" fill-rule="nonzero" fill-opacity="1" stroke-width="1px" stroke-opacity="1" fill="#000000" stroke-linecap="butt" stroke="none" stroke-dasharray="none" stroke-linejoin="miter" d="M57.611,7.117L27.791,7.117C14.839,7.117,7.117,14.839,7.117,27.792L7.117,57.611C7.117,70.564,14.839,78.286,27.791,78.286L57.611,78.286C70.564,78.286,78.286,70.564,78.286,57.611L78.286,27.792C78.286,14.839,70.564,7.117,57.611,7.117ZM35.478,53.021L27.471,61.027C26.937,61.561,26.261,61.81,25.585,61.81C24.909,61.81,24.197,61.561,23.699,61.027L21.03,58.358C19.963,57.327,19.963,55.619,21.03,54.587C22.062,53.555,23.735,53.555,24.802,54.587L25.585,55.369L31.706,49.249C32.738,48.217,34.41,48.217,35.478,49.249C36.509,50.281,36.509,51.989,35.478,53.021ZM35.478,28.112L27.471,36.118C26.937,36.652,26.261,36.901,25.585,36.901C24.909,36.901,24.197,36.652,23.699,36.118L21.03,33.449C19.963,32.417,19.963,30.709,21.03,29.677C22.062,28.646,23.735,28.646,24.802,29.677L25.585,30.46L31.706,24.34C32.738,23.308,34.41,23.308,35.478,24.34C36.509,25.372,36.509,27.08,35.478,28.112ZM62.486,59.141L43.804,59.141C42.345,59.141,41.135,57.931,41.135,56.473C41.135,55.014,42.345,53.804,43.804,53.804L62.486,53.804C63.981,53.804,65.155,55.014,65.155,56.473C65.155,57.931,63.981,59.141,62.486,59.141ZM62.486,34.232L43.804,34.232C42.345,34.232,41.135,33.022,41.135,31.563C41.135,30.104,42.345,28.895,43.804,28.895L62.486,28.895C63.981,28.895,65.155,30.104,65.155,31.563C65.155,33.022,63.981,34.232,62.486,34.232ZM62.486,34.232"/>
</g>
  <g id="Light-S" transform="matrix(1.0,0.0,0.0,1.0,1111.718645964348,613.7985300920327)">  <path fill-opacity="1" stroke-linecap="butt" stroke-width="1px" stroke-linejoin="miter" fill-rule="nonzero" stroke-opacity="1" fill="#000000" stroke="none" stroke-miterlimit="4" stroke-dasharray="none" d="M57.611,7.117L27.791,7.117C14.839,7.117,7.117,14.839,7.117,27.792L7.117,57.611C7.117,70.564,14.839,78.286,27.791,78.286L57.611,78.286C70.564,78.286,78.286,70.564,78.286,57.611L78.286,27.792C78.286,14.839,70.564,7.117,57.611,7.117ZM35.478,53.021L27.471,61.027C26.937,61.561,26.261,61.81,25.585,61.81C24.909,61.81,24.197,61.561,23.699,61.027L21.03,58.358C19.963,57.327,19.963,55.619,21.03,54.587C22.062,53.555,23.735,53.555,24.802,54.587L25.585,55.369L31.706,49.249C32.738,48.217,34.41,48.217,35.478,49.249C36.509,50.281,36.509,51.989,35.478,53.021ZM35.478,28.112L27.471,36.118C26.937,36.652,26.261,36.901,25.585,36.901C24.909,36.901,24.197,36.652,23.699,36.118L21.03,33.449C19.963,32.417,19.963,30.709,21.03,29.677C22.062,28.646,23.735,28.646,24.802,29.677L25.585,30.46L31.706,24.34C32.738,23.308,34.41,23.308,35.478,24.34C36.509,25.372,36.509,27.08,35.478,28.112ZM62.486,59.141L43.804,59.141C42.345,59.141,41.135,57.931,41.135,56.473C41.135,55.014,42.345,53.804,43.804,53.804L62.486,53.804C63.981,53.804,65.155,55.014,65.155,56.473C65.155,57.931,63.981,59.141,62.486,59.141ZM62.486,34.232L43.804,34.232C42.345,34.232,41.135,33.022,41.135,31.563C41.135,30.104,42.345,28.895,43.804,28.895L62.486,28.895C63.981,28.895,65.155,30.104,65.155,31.563C65.155,33.022,63.981,34.232,62.486,34.232ZM62.486,34.232"/>
</g>
  <g id="Thin-S" transform="matrix(1.0,0.0,0.0,1.0,815.0086459643479,613.7985300920327)">  <path fill-opacity="1" stroke-miterlimit="4" stroke-opacity="1" stroke-width="1px" stroke-dasharray="none" stroke="none" fill-rule="nonzero" stroke-linecap="butt" fill="#000000" stroke-linejoin="miter" d="M57.611,7.117L27.791,7.117C14.839,7.117,7.117,14.839,7.117,27.792L7.117,57.611C7.117,70.564,14.839,78.286,27.791,78.286L57.611,78.286C70.564,78.286,78.286,70.564,78.286,57.611L78.286,27.792C78.286,14.839,70.564,7.117,57.611,7.117ZM35.478,53.021L27.471,61.027C26.937,61.561,26.261,61.81,25.585,61.81C24.909,61.81,24.197,61.561,23.699,61.027L21.03,58.358C19.963,57.327,19.963,55.619,21.03,54.587C22.062,53.555,23.735,53.555,24.802,54.587L25.585,55.369L31.706,49.249C32.738,48.217,34.41,48.217,35.478,49.249C36.509,50.281,36.509,51.989,35.478,53.021ZM35.478,28.112L27.471,36.118C26.937,36.652,26.261,36.901,25.585,36.901C24.909,36.901,24.197,36.652,23.699,36.118L21.03,33.449C19.963,32.417,19.963,30.709,21.03,29.677C22.062,28.646,23.735,28.646,24.802,29.677L25.585,30.46L31.706,24.34C32.738,23.308,34.41,23.308,35.478,24.34C36.509,25.372,36.509,27.08,35.478,28.112ZM62.486,59.141L43.804,59.141C42.345,59.141,41.135,57.931,41.135,56.473C41.135,55.014,42.345,53.804,43.804,53.804L62.486,53.804C63.981,53.804,65.155,55.014,65.155,56.473C65.155,57.931,63.981,59.141,62.486,59.141ZM62.486,34.232L43.804,34.232C42.345,34.232,41.135,33.022,41.135,31.563C41.135,30.104,42.345,28.895,43.804,28.895L62.486,28.895C63.981,28.895,65.155,30.104,65.155,31.563C65.155,33.022,63.981,34.232,62.486,34.232ZM62.486,34.232"/>
</g>
  <g id="Ultralight-S" transform="matrix(1.0,0.0,0.0,1.0,518.2986459643479,613.7985300920327)">  <path stroke-miterlimit="4" stroke-linecap="butt" fill-rule="nonzero" fill="#000000" stroke-width="1px" stroke-opacity="1" stroke-dasharray="none" stroke-linejoin="miter" stroke="none" fill-opacity="1" d="M57.611,7.117L27.791,7.117C14.839,7.117,7.117,14.839,7.117,27.792L7.117,57.611C7.117,70.564,14.839,78.286,27.791,78.286L57.611,78.286C70.564,78.286,78.286,70.564,78.286,57.611L78.286,27.792C78.286,14.839,70.564,7.117,57.611,7.117ZM35.478,53.021L27.471,61.027C26.937,61.561,26.261,61.81,25.585,61.81C24.909,61.81,24.197,61.561,23.699,61.027L21.03,58.358C19.963,57.327,19.963,55.619,21.03,54.587C22.062,53.555,23.735,53.555,24.802,54.587L25.585,55.369L31.706,49.249C32.738,48.217,34.41,48.217,35.478,49.249C36.509,50.281,36.509,51.989,35.478,53.021ZM35.478,28.112L27.471,36.118C26.937,36.652,26.261,36.901,25.585,36.901C24.909,36.901,24.197,36.652,23.699,36.118L21.03,33.449C19.963,32.417,19.963,30.709,21.03,29.677C22.062,28.646,23.735,28.646,24.802,29.677L25.585,30.46L31.706,24.34C32.738,23.308,34.41,23.308,35.478,24.34C36.509,25.372,36.509,27.08,35.478,28.112ZM62.486,59.141L43.804,59.141C42.345,59.141,41.135,57.931,41.135,56.473C41.135,55.014,42.345,53.804,43.804,53.804L62.486,53.804C63.981,53.804,65.155,55.014,65.155,56.473C65.155,57.931,63.981,59.141,62.486,59.141ZM62.486,34.232L43.804,34.232C42.345,34.232,41.135,33.022,41.135,31.563C41.135,30.104,42.345,28.895,43.804,28.895L62.486,28.895C63.981,28.895,65.155,30.104,65.155,31.563C65.155,33.022,63.981,34.232,62.486,34.232ZM62.486,34.232"/>
</g>
 </g>
</svg>
