<?xml version="1.0" encoding="UTF-8"?>
<!-- Generator: CustomSymbols v2.6.2.41 by @serious_bret https://bretlester.com/app_content/CustomSymbols/ -->
<!-- Guides: Left/Right 0.0/0.0 Cap/Base 0.257/0.105 -->
<!-- Settings: RefScale 1.0 Min/Max Stroke Scales 0.5/2.21 -->
<!DOCTYPE svg
PUBLIC "-//W3C//DTD SVG 1.1//EN"
       "http://www.w3.org/Graphics/SVG/1.1/DTD/svg11.dtd">
<svg version="1.1" xmlns="http://www.w3.org/2000/svg" xmlns:xlink="http://www.w3.org/1999/xlink" width="3300" height="2200">
<![CDATA[<svg width="22" height="28" viewBox="0 0 22 28" fill="none" xmlns="http://www.w3.org/2000/svg">
<path d="M20.4273 12.6715C19.839 11.3041 18.9838 10.0767 17.9151 9.06625L17.0333 8.23067C17.0034 8.20307 16.9673 8.18349 16.9284 8.17364C16.8894 8.16379 16.8487 8.16397 16.8098 8.17416C16.7709 8.18436 16.735 8.20426 16.7053 8.23212C16.6756 8.25998 16.6529 8.29494 16.6394 8.33394L16.2454 9.50126C16 10.2336 15.5485 10.9815 14.9091 11.717C14.8667 11.7639 14.8182 11.7764 14.7848 11.7796C14.7515 11.7827 14.7 11.7764 14.6545 11.7326C14.6121 11.6951 14.5909 11.6387 14.5939 11.5824C14.706 9.69842 14.1606 7.57346 12.9667 5.26073C11.9788 3.33919 10.606 1.84014 8.8909 0.794867L7.63939 0.0343879C7.47575 -0.0657575 7.26666 0.0656832 7.27575 0.262845L7.34242 1.76503C7.38787 2.79152 7.27272 3.69908 6.99999 4.45331C6.66666 5.37652 6.18787 6.23402 5.57575 7.00388C5.14976 7.53892 4.66694 8.02286 4.13636 8.4466C2.8585 9.4611 1.81943 10.761 1.09697 12.249C0.376284 13.75 0.000879274 15.4025 0 17.0779C0 18.555 0.281818 19.9852 0.839393 21.3341C1.37778 22.6327 2.15472 23.8113 3.12727 24.8047C4.10909 25.8062 5.24848 26.5948 6.51818 27.1425C7.83333 27.7121 9.22726 28 10.6667 28C12.106 28 13.5 27.7121 14.8151 27.1456C16.0817 26.6012 17.2335 25.8071 18.206 24.8079C19.1879 23.8064 19.9576 22.636 20.4939 21.3372C21.0507 19.9921 21.3363 18.5439 21.3333 17.081C21.3333 15.5538 21.0303 14.0704 20.4273 12.6715Z" fill="#FF9500"/>
</svg>
]]>
 <g id="Notes">
  <rect height="2200" id="artboard" style="fill:white;opacity:1" width="3300" x="0" y="0"/>
  <line id="" style="fill:none;stroke:black;opacity:1;stroke-width:0.5;" x1="263" x2="3036" y1="292" y2="292"/>
  <text id="reftext1" style="stroke:none;fill:black;font-family:-apple-system,&quot;SF Pro Display&quot;,&quot;SF Pro Text&quot;,Helvetica,sans-serif;font-weight:bold;" transform="matrix(1 0 0 1 263 322)">Weight/Scale Variations</text>
  <text id="reftext2" style="stroke:none;fill:black;font-family:-apple-system,&quot;SF Pro Display&quot;,&quot;SF Pro Text&quot;,Helvetica,sans-serif;text-anchor:middle;" transform="matrix(1 0 0 1 559.711 322)">Ultralight</text>
  <text style="stroke:none;fill:black;font-family:-apple-system,&quot;SF Pro Display&quot;,&quot;SF Pro Text&quot;,Helvetica,sans-serif;text-anchor:middle;" transform="matrix(1 0 0 1 856.422 322)">Thin</text>
  <text style="stroke:none;fill:black;font-family:-apple-system,&quot;SF Pro Display&quot;,&quot;SF Pro Text&quot;,Helvetica,sans-serif;text-anchor:middle;" transform="matrix(1 0 0 1 1153.13 322)">Light</text>
  <text style="stroke:none;fill:black;font-family:-apple-system,&quot;SF Pro Display&quot;,&quot;SF Pro Text&quot;,Helvetica,sans-serif;text-anchor:middle;" transform="matrix(1 0 0 1 1449.84 322)">Regular</text>
  <text style="stroke:none;fill:black;font-family:-apple-system,&quot;SF Pro Display&quot;,&quot;SF Pro Text&quot;,Helvetica,sans-serif;text-anchor:middle;" transform="matrix(1 0 0 1 1746.56 322)">Medium</text>
  <text style="stroke:none;fill:black;font-family:-apple-system,&quot;SF Pro Display&quot;,&quot;SF Pro Text&quot;,Helvetica,sans-serif;text-anchor:middle;" transform="matrix(1 0 0 1 2043.27 322)">Semibold</text>
  <text style="stroke:none;fill:black;font-family:-apple-system,&quot;SF Pro Display&quot;,&quot;SF Pro Text&quot;,Helvetica,sans-serif;text-anchor:middle;" transform="matrix(1 0 0 1 2339.98 322)">Bold</text>
  <text style="stroke:none;fill:black;font-family:-apple-system,&quot;SF Pro Display&quot;,&quot;SF Pro Text&quot;,Helvetica,sans-serif;text-anchor:middle;" transform="matrix(1 0 0 1 2636.69 322)">Heavy</text>
  <text style="stroke:none;fill:black;font-family:-apple-system,&quot;SF Pro Display&quot;,&quot;SF Pro Text&quot;,Helvetica,sans-serif;text-anchor:middle;" transform="matrix(1 0 0 1 2933.4 322)">Black</text>
  <line id="" style="fill:none;stroke:black;opacity:1;stroke-width:0.5;" x1="263" x2="3036" y1="1903" y2="1903"/>
  <g id="" transform="matrix(1 0 0 1 263 1933)">
   <path d="M9.24805 0.830078C13.5547 0.830078 17.1387-2.74414 17.1387-7.05078C17.1387-11.3574 13.5449-14.9316 9.23828-14.9316C4.94141-14.9316 1.36719-11.3574 1.36719-7.05078C1.36719-2.74414 4.95117 0.830078 9.24805 0.830078ZM9.24805-0.654297C5.70312-0.654297 2.87109-3.49609 2.87109-7.05078C2.87109-10.6055 5.69336-13.4473 9.23828-13.4473C12.793-13.4473 15.6348-10.6055 15.6445-7.05078C15.6543-3.49609 12.8027-0.654297 9.24805-0.654297ZM6.39648-6.31836L8.50586-6.31836L8.50586-4.19922C8.50586-3.75977 8.79883-3.45703 9.22852-3.45703C9.67773-3.45703 9.9707-3.75977 9.9707-4.19922L9.9707-6.31836L12.0996-6.31836C12.5391-6.31836 12.8418-6.61133 12.8418-7.04102C12.8418-7.48047 12.5391-7.7832 12.0996-7.7832L9.9707-7.7832L9.9707-9.89258C9.9707-10.3418 9.67773-10.6445 9.22852-10.6445C8.79883-10.6445 8.50586-10.3418 8.50586-9.89258L8.50586-7.7832L6.39648-7.7832C5.94727-7.7832 5.64453-7.48047 5.64453-7.04102C5.64453-6.61133 5.94727-6.31836 6.39648-6.31836Z"/>
  </g>
  <g id="" transform="matrix(1 0 0 1 281.506 1933)">
   <path d="M11.709 2.91016C17.1582 2.91016 21.6699-1.61133 21.6699-7.05078C21.6699-12.5 17.1484-17.0117 11.6992-17.0117C6.25977-17.0117 1.74805-12.5 1.74805-7.05078C1.74805-1.61133 6.26953 2.91016 11.709 2.91016ZM11.709 1.25C7.09961 1.25 3.41797-2.44141 3.41797-7.05078C3.41797-11.6602 7.08984-15.3516 11.6992-15.3516C16.3086-15.3516 20-11.6602 20.0098-7.05078C20.0195-2.44141 16.3184 1.25 11.709 1.25ZM7.98828-6.23047L10.8789-6.23047L10.8789-3.32031C10.8789-2.83203 11.2109-2.5 11.6895-2.5C12.1777-2.5 12.5195-2.83203 12.5195-3.32031L12.5195-6.23047L15.4297-6.23047C15.918-6.23047 16.25-6.5625 16.25-7.04102C16.25-7.5293 15.918-7.87109 15.4297-7.87109L12.5195-7.87109L12.5195-10.7617C12.5195-11.2695 12.1777-11.6016 11.6895-11.6016C11.2109-11.6016 10.8789-11.2598 10.8789-10.7617L10.8789-7.87109L7.98828-7.87109C7.48047-7.87109 7.14844-7.5293 7.14844-7.04102C7.14844-6.5625 7.49023-6.23047 7.98828-6.23047Z"/>
  </g>
  <g id="" transform="matrix(1 0 0 1 304.924 1933)">
   <path d="M14.9707 5.66406C21.9336 5.66406 27.6953-0.0976562 27.6953-7.05078C27.6953-14.0137 21.9238-19.7754 14.9609-19.7754C8.00781-19.7754 2.25586-14.0137 2.25586-7.05078C2.25586-0.0976562 8.01758 5.66406 14.9707 5.66406ZM14.9707 3.84766C8.93555 3.84766 4.08203-1.01562 4.08203-7.05078C4.08203-13.0957 8.92578-17.9492 14.9609-17.9492C21.0059-17.9492 25.8594-13.0957 25.8691-7.05078C25.8789-1.01562 21.0156 3.84766 14.9707 3.84766ZM10.0586-6.14258L14.0625-6.14258L14.0625-2.12891C14.0625-1.5918 14.4336-1.2207 14.9512-1.2207C15.4883-1.2207 15.8594-1.5918 15.8594-2.12891L15.8594-6.14258L19.8828-6.14258C20.4102-6.14258 20.791-6.51367 20.791-7.03125C20.791-7.56836 20.4199-7.94922 19.8828-7.94922L15.8594-7.94922L15.8594-11.9531C15.8594-12.5098 15.4883-12.8809 14.9512-12.8809C14.4336-12.8809 14.0625-12.5 14.0625-11.9531L14.0625-7.94922L10.0586-7.94922C9.50195-7.94922 9.13086-7.56836 9.13086-7.03125C9.13086-6.51367 9.51172-6.14258 10.0586-6.14258Z"/>
  </g>
  <text style="stroke:none;fill:black;font-family:-apple-system,&quot;SF Pro Display&quot;,&quot;SF Pro Text&quot;,Helvetica,sans-serif;font-weight:bold;" transform="matrix(1 0 0 1 263 1953)">Design Variations</text>
  <text style="stroke:none;fill:black;font-family:-apple-system,&quot;SF Pro Display&quot;,&quot;SF Pro Text&quot;,Helvetica,sans-serif;" transform="matrix(1 0 0 1 263 1971)">Symbols are supported in up to nine weights and three scales.</text>
  <text style="stroke:none;fill:black;font-family:-apple-system,&quot;SF Pro Display&quot;,&quot;SF Pro Text&quot;,Helvetica,sans-serif;" transform="matrix(1 0 0 1 263 1989)">For optimal layout with text and other symbols, vertically align</text>
  <text style="stroke:none;fill:black;font-family:-apple-system,&quot;SF Pro Display&quot;,&quot;SF Pro Text&quot;,Helvetica,sans-serif;" transform="matrix(1 0 0 1 263 2007)">symbols with the adjacent text.</text>
  <line id="" style="fill:none;stroke:#00AEEF;stroke-width:0.5;opacity:1.0;" x1="776" x2="776" y1="1919" y2="1933"/>
  <g id="" transform="matrix(1 0 0 1 776 1933)">
   <path d="M3.31055 0.126953C3.82812 0.126953 4.08203-0.0683594 4.26758-0.605469L5.52734-4.0625L11.2891-4.0625L12.5488-0.605469C12.7344-0.0683594 12.9883 0.126953 13.4961 0.126953C14.0137 0.126953 14.3457-0.185547 14.3457-0.673828C14.3457-0.839844 14.3164-0.986328 14.2383-1.20117L9.6582-13.3887C9.43359-13.9941 9.0332-14.2871 8.4082-14.2871C7.80273-14.2871 7.39258-13.9941 7.17773-13.3984L2.59766-1.19141C2.51953-0.976562 2.49023-0.830078 2.49023-0.664062C2.49023-0.175781 2.80273 0.126953 3.31055 0.126953ZM6.00586-5.53711L8.37891-12.1094L8.42773-12.1094L10.8008-5.53711Z"/>
  </g>
  <line id="" style="fill:none;stroke:#00AEEF;stroke-width:0.5;opacity:1.0;" x1="792.836" x2="792.836" y1="1919" y2="1933"/>
  <text style="stroke:none;fill:black;font-family:-apple-system,&quot;SF Pro Display&quot;,&quot;SF Pro Text&quot;,Helvetica,sans-serif;font-weight:bold;" transform="matrix(1 0 0 1 776 1953)">Margins</text>
  <text style="stroke:none;fill:black;font-family:-apple-system,&quot;SF Pro Display&quot;,&quot;SF Pro Text&quot;,Helvetica,sans-serif;" transform="matrix(1 0 0 1 776 1971)">Leading and trailing margins on the left and right side of each symbol</text>
  <text style="stroke:none;fill:black;font-family:-apple-system,&quot;SF Pro Display&quot;,&quot;SF Pro Text&quot;,Helvetica,sans-serif;" transform="matrix(1 0 0 1 776 1989)">can be adjusted by modifying the x-location of the margin guidelines.</text>
  <text style="stroke:none;fill:black;font-family:-apple-system,&quot;SF Pro Display&quot;,&quot;SF Pro Text&quot;,Helvetica,sans-serif;" transform="matrix(1 0 0 1 776 2007)">Modifications are automatically applied proportionally to all</text>
  <text style="stroke:none;fill:black;font-family:-apple-system,&quot;SF Pro Display&quot;,&quot;SF Pro Text&quot;,Helvetica,sans-serif;" transform="matrix(1 0 0 1 776 2025)">scales and weights.</text>
  <g id="" transform="matrix(1 0 0 1 1289 1933)">
   <path d="M2.8418 1.86523L4.54102 3.57422C5.40039 4.44336 6.38672 4.38477 7.31445 3.35938L17.4902-7.85156C17.7539-7.76367 18.0273-7.7832 18.3398-7.8418L19.4043-8.03711L20.0684-7.36328L20.0293-6.80664C19.9902-6.30859 20.1172-5.92773 20.6055-5.44922L21.3672-4.70703C21.8457-4.22852 22.4609-4.19922 22.9297-4.66797L25.8398-7.58789C26.3086-8.05664 26.2891-8.65234 25.8105-9.13086L25.0391-9.89258C24.5605-10.3711 24.1895-10.5273 23.7109-10.4883L23.1348-10.4395L22.4902-11.0742L22.7344-12.1973C22.8613-12.7637 22.7051-13.2031 22.1191-13.7891L19.9219-15.9766C16.582-19.2969 12.1484-19.2188 9.25781-16.3281C8.83789-15.918 8.80859-15.3418 9.04297-14.9512C9.27734-14.5898 9.73633-14.3555 10.3809-14.5215C11.8457-14.8633 13.3691-14.9219 14.7949-13.9844L14.209-12.5293C14.0137-12.0508 13.9844-11.6504 14.1113-11.2891L3.04688-0.898438C2.06055 0.0195312 1.98242 0.996094 2.8418 1.86523ZM10.752-15.957C13.1836-17.7344 16.4746-17.4316 18.7012-15.2051L21.1328-12.793C21.3672-12.5586 21.4062-12.373 21.3379-12.0312L21.0156-10.5469L22.5195-9.0625L23.5059-9.12109C23.7598-9.13086 23.8379-9.11133 24.0332-8.91602L24.6094-8.33984L22.168-5.89844L21.5918-6.47461C21.3965-6.66992 21.3672-6.74805 21.377-7.01172L21.4453-7.98828L19.9512-9.47266L18.4277-9.21875C18.1055-9.15039 17.959-9.17969 17.7148-9.41406L15.7129-11.416C15.459-11.6504 15.4297-11.8164 15.5859-12.1875L16.4648-14.2773C14.9023-15.7324 12.8711-16.3574 10.8398-15.7617C10.6836-15.7227 10.625-15.8496 10.752-15.957ZM5.27344 2.30469L4.10156 1.14258C3.63281 0.683594 3.74023 0.341797 4.14062-0.0195312L14.9512-10.1953L16.416-8.71094L6.42578 2.27539C6.07422 2.67578 5.74219 2.77344 5.27344 2.30469Z"/>
  </g>
  <text style="stroke:none;fill:black;font-family:-apple-system,&quot;SF Pro Display&quot;,&quot;SF Pro Text&quot;,Helvetica,sans-serif;font-weight:bold;" transform="matrix(1 0 0 1 1289 1953)">Exporting</text>
  <text style="stroke:none;fill:black;font-family:-apple-system,&quot;SF Pro Display&quot;,&quot;SF Pro Text&quot;,Helvetica,sans-serif;" transform="matrix(1 0 0 1 1289 1971)">Symbols should be outlined when exporting to ensure the</text>
  <text style="stroke:none;fill:black;font-family:-apple-system,&quot;SF Pro Display&quot;,&quot;SF Pro Text&quot;,Helvetica,sans-serif;" transform="matrix(1 0 0 1 1289 1989)">design is preserved when submitting to Xcode.</text>
  <text id="template-version" style="stroke:none;fill:black;font-family:-apple-system,&quot;SF Pro Display&quot;,&quot;SF Pro Text&quot;,Helvetica,sans-serif;text-anchor:end;" transform="matrix(1 0 0 1 3036 1933)">Template v.2.0</text>
  <text style="stroke:none;fill:black;font-family:-apple-system,&quot;SF Pro Display&quot;,&quot;SF Pro Text&quot;,Helvetica,sans-serif;text-anchor:end;" transform="matrix(1 0 0 1 3036 1951)">Requires Xcode 12 or greater</text>
  <text style="stroke:none;fill:black;font-family:-apple-system,&quot;SF Pro Display&quot;,&quot;SF Pro Text&quot;,Helvetica,sans-serif;" transform="matrix(1 0 0 1 263 726)">Small</text>
  <text style="stroke:none;fill:black;font-family:-apple-system,&quot;SF Pro Display&quot;,&quot;SF Pro Text&quot;,Helvetica,sans-serif;" transform="matrix(1 0 0 1 263 1156)">Medium</text>
  <text style="stroke:none;fill:black;font-family:-apple-system,&quot;SF Pro Display&quot;,&quot;SF Pro Text&quot;,Helvetica,sans-serif;" transform="matrix(1 0 0 1 263 1586)">Large</text>
 </g>
 <g id="Guides">
  <g id="H-reference" style="fill:#27AAE1;stroke:none;" transform="matrix(1 0 0 1 339 696)">
   <path d="M0.976562 0L3.66211 0L12.9883-24.4629L45.752-24.4629L55.127 0L57.7637 0L30.6152-70.459L28.125-70.459ZM29.3457-67.1387L29.4434-67.1387L44.873-26.709L13.8672-26.709Z"/>
  </g>
  <line id="Baseline-S" style="fill:none;stroke:#27AAE1;opacity:1;stroke-width:0.5;" x1="263" x2="3036" y1="696" y2="696"/>
  <line id="Capline-S" style="fill:none;stroke:#27AAE1;opacity:1;stroke-width:0.5;" x1="263" x2="3036" y1="625.541" y2="625.541"/>
  <g id="H-reference" style="fill:#27AAE1;stroke:none;" transform="matrix(1 0 0 1 339 1126)">
   <path d="M0.976562 0L3.66211 0L12.9883-24.4629L45.752-24.4629L55.127 0L57.7637 0L30.6152-70.459L28.125-70.459ZM29.3457-67.1387L29.4434-67.1387L44.873-26.709L13.8672-26.709Z"/>
  </g>
  <line id="Baseline-M" style="fill:none;stroke:#27AAE1;opacity:1;stroke-width:0.5;" x1="263" x2="3036" y1="1126" y2="1126"/>
  <line id="Capline-M" style="fill:none;stroke:#27AAE1;opacity:1;stroke-width:0.5;" x1="263" x2="3036" y1="1055.54" y2="1055.54"/>
  <g id="H-reference" style="fill:#27AAE1;stroke:none;" transform="matrix(1 0 0 1 339 1556)">
   <path d="M0.976562 0L3.66211 0L12.9883-24.4629L45.752-24.4629L55.127 0L57.7637 0L30.6152-70.459L28.125-70.459ZM29.3457-67.1387L29.4434-67.1387L44.873-26.709L13.8672-26.709Z"/>
  </g>
  <line id="Baseline-L" style="fill:none;stroke:#27AAE1;opacity:1;stroke-width:0.5;" x1="263" x2="3036" y1="1556" y2="1556"/>
  <line id="Capline-L" style="fill:none;stroke:#27AAE1;opacity:1;stroke-width:0.5;" x1="263" x2="3036" y1="1485.54" y2="1485.54"/>
  <line id="left-margin" x1="1407.7433245458742" x2="1407.7433245458742" y1="1030.79" y2="1150.12" style="fill:none;stroke:#00AEEF;stroke-width:0.5;opacity:1.0;"/>
  <line id="right-margin" x1="1494.5166754541256" x2="1494.5166754541256" y1="1030.79" y2="1150.12" style="fill:none;stroke:#00AEEF;stroke-width:0.5;opacity:1.0;"/>
 </g>
 <g id="Symbols">
  <g id="Black-L" transform="matrix(1.0,0.0,0.0,1.0,2878.711188664178,1438.7095659654192)">  <path fill="#000000" stroke="none" stroke-dasharray="none" stroke-linejoin="miter" stroke-width="1px" fill-opacity="1" stroke-opacity="1" stroke-miterlimit="4" stroke-linecap="butt" fill-rule="nonzero" d="M103.936,64.474C100.942,57.516,96.591,51.271,91.153,46.13L86.667,41.878C86.515,41.738,86.331,41.638,86.133,41.588C85.935,41.538,85.727,41.539,85.529,41.591C85.332,41.643,85.149,41.744,84.998,41.886C84.847,42.027,84.731,42.205,84.662,42.404L82.658,48.343C81.409,52.069,79.112,55.875,75.859,59.617C75.643,59.856,75.396,59.919,75.226,59.935C75.057,59.951,74.795,59.919,74.563,59.696C74.347,59.506,74.24,59.219,74.255,58.932C74.825,49.346,72.05,38.534,65.976,26.767C60.949,16.99,53.964,9.363,45.238,4.044L38.87,0.175C38.037,-0.335,36.973,0.334,37.02,1.337L37.359,8.981C37.59,14.203,37.004,18.821,35.616,22.659C33.92,27.356,31.484,31.719,28.37,35.636C26.202,38.359,23.746,40.821,21.046,42.977C14.544,48.139,9.257,54.753,5.581,62.324C1.915,69.961,0.004,78.369,0,86.894C0,94.409,1.434,101.686,4.271,108.549C7.01,115.157,10.963,121.154,15.912,126.208C20.907,131.304,26.705,135.316,33.165,138.103C39.857,141.001,46.949,142.466,54.273,142.466C61.596,142.466,68.689,141.001,75.38,138.119C81.825,135.349,87.685,131.308,92.633,126.224C97.629,121.129,101.546,115.174,104.274,108.565C107.108,101.721,108.561,94.353,108.545,86.909C108.545,79.139,107.004,71.591,103.936,64.474ZM103.936,64.474"/>
</g>
  <g id="Heavy-L" transform="matrix(1.0,0.0,0.0,1.0,2582.001188664178,1438.7095659654192)">  <path stroke-miterlimit="4" stroke-width="1px" stroke-dasharray="none" fill-opacity="1" stroke="none" stroke-linejoin="miter" stroke-opacity="1" stroke-linecap="butt" fill="#000000" fill-rule="nonzero" d="M103.936,64.474C100.942,57.516,96.591,51.271,91.153,46.13L86.667,41.878C86.515,41.738,86.331,41.638,86.133,41.588C85.935,41.538,85.727,41.539,85.529,41.591C85.332,41.643,85.149,41.744,84.998,41.886C84.847,42.027,84.731,42.205,84.662,42.404L82.658,48.343C81.409,52.069,79.112,55.875,75.859,59.617C75.643,59.856,75.396,59.919,75.226,59.935C75.057,59.951,74.795,59.919,74.563,59.696C74.347,59.506,74.24,59.219,74.255,58.932C74.825,49.346,72.05,38.534,65.976,26.767C60.949,16.99,53.964,9.363,45.238,4.044L38.87,0.175C38.037,-0.335,36.973,0.334,37.02,1.337L37.359,8.981C37.59,14.203,37.004,18.821,35.616,22.659C33.92,27.356,31.484,31.719,28.37,35.636C26.202,38.359,23.746,40.821,21.046,42.977C14.544,48.139,9.257,54.753,5.581,62.324C1.915,69.961,0.004,78.369,0,86.894C0,94.409,1.434,101.686,4.271,108.549C7.01,115.157,10.963,121.154,15.912,126.208C20.907,131.304,26.705,135.316,33.165,138.103C39.857,141.001,46.949,142.466,54.273,142.466C61.596,142.466,68.689,141.001,75.38,138.119C81.825,135.349,87.685,131.308,92.633,126.224C97.629,121.129,101.546,115.174,104.274,108.565C107.108,101.721,108.561,94.353,108.545,86.909C108.545,79.139,107.004,71.591,103.936,64.474ZM103.936,64.474"/>
</g>
  <g id="Bold-L" transform="matrix(1.0,0.0,0.0,1.0,2285.2911886641778,1438.7095659654192)">  <path stroke-miterlimit="4" fill-opacity="1" stroke-dasharray="none" fill="#000000" stroke-linejoin="miter" fill-rule="nonzero" stroke="none" stroke-opacity="1" stroke-linecap="butt" stroke-width="1px" d="M103.936,64.474C100.942,57.516,96.591,51.271,91.153,46.13L86.667,41.878C86.515,41.738,86.331,41.638,86.133,41.588C85.935,41.538,85.727,41.539,85.529,41.591C85.332,41.643,85.149,41.744,84.998,41.886C84.847,42.027,84.731,42.205,84.662,42.404L82.658,48.343C81.409,52.069,79.112,55.875,75.859,59.617C75.643,59.856,75.396,59.919,75.226,59.935C75.057,59.951,74.795,59.919,74.563,59.696C74.347,59.506,74.24,59.219,74.255,58.932C74.825,49.346,72.05,38.534,65.976,26.767C60.949,16.99,53.964,9.363,45.238,4.044L38.87,0.175C38.037,-0.335,36.973,0.334,37.02,1.337L37.359,8.981C37.59,14.203,37.004,18.821,35.616,22.659C33.92,27.356,31.484,31.719,28.37,35.636C26.202,38.359,23.746,40.821,21.046,42.977C14.544,48.139,9.257,54.753,5.581,62.324C1.915,69.961,0.004,78.369,0,86.894C0,94.409,1.434,101.686,4.271,108.549C7.01,115.157,10.963,121.154,15.912,126.208C20.907,131.304,26.705,135.316,33.165,138.103C39.857,141.001,46.949,142.466,54.273,142.466C61.596,142.466,68.689,141.001,75.38,138.119C81.825,135.349,87.685,131.308,92.633,126.224C97.629,121.129,101.546,115.174,104.274,108.565C107.108,101.721,108.561,94.353,108.545,86.909C108.545,79.139,107.004,71.591,103.936,64.474ZM103.936,64.474"/>
</g>
  <g id="Semibold-L" transform="matrix(1.0,0.0,0.0,1.0,1988.581188664178,1438.7095659654192)">  <path stroke-opacity="1" stroke="none" stroke-miterlimit="4" fill-rule="nonzero" stroke-linecap="butt" stroke-width="1px" fill="#000000" stroke-linejoin="miter" stroke-dasharray="none" fill-opacity="1" d="M103.936,64.474C100.942,57.516,96.591,51.271,91.153,46.13L86.667,41.878C86.515,41.738,86.331,41.638,86.133,41.588C85.935,41.538,85.727,41.539,85.529,41.591C85.332,41.643,85.149,41.744,84.998,41.886C84.847,42.027,84.731,42.205,84.662,42.404L82.658,48.343C81.409,52.069,79.112,55.875,75.859,59.617C75.643,59.856,75.396,59.919,75.226,59.935C75.057,59.951,74.795,59.919,74.563,59.696C74.347,59.506,74.24,59.219,74.255,58.932C74.825,49.346,72.05,38.534,65.976,26.767C60.949,16.99,53.964,9.363,45.238,4.044L38.87,0.175C38.037,-0.335,36.973,0.334,37.02,1.337L37.359,8.981C37.59,14.203,37.004,18.821,35.616,22.659C33.92,27.356,31.484,31.719,28.37,35.636C26.202,38.359,23.746,40.821,21.046,42.977C14.544,48.139,9.257,54.753,5.581,62.324C1.915,69.961,0.004,78.369,0,86.894C0,94.409,1.434,101.686,4.271,108.549C7.01,115.157,10.963,121.154,15.912,126.208C20.907,131.304,26.705,135.316,33.165,138.103C39.857,141.001,46.949,142.466,54.273,142.466C61.596,142.466,68.689,141.001,75.38,138.119C81.825,135.349,87.685,131.308,92.633,126.224C97.629,121.129,101.546,115.174,104.274,108.565C107.108,101.721,108.561,94.353,108.545,86.909C108.545,79.139,107.004,71.591,103.936,64.474ZM103.936,64.474"/>
</g>
  <g id="Medium-L" transform="matrix(1.0,0.0,0.0,1.0,1691.871188664178,1438.7095659654192)">  <path fill-opacity="1" stroke="none" stroke-dasharray="none" stroke-miterlimit="4" fill-rule="nonzero" stroke-linecap="butt" stroke-opacity="1" fill="#000000" stroke-width="1px" stroke-linejoin="miter" d="M103.936,64.474C100.942,57.516,96.591,51.271,91.153,46.13L86.667,41.878C86.515,41.738,86.331,41.638,86.133,41.588C85.935,41.538,85.727,41.539,85.529,41.591C85.332,41.643,85.149,41.744,84.998,41.886C84.847,42.027,84.731,42.205,84.662,42.404L82.658,48.343C81.409,52.069,79.112,55.875,75.859,59.617C75.643,59.856,75.396,59.919,75.226,59.935C75.057,59.951,74.795,59.919,74.563,59.696C74.347,59.506,74.24,59.219,74.255,58.932C74.825,49.346,72.05,38.534,65.976,26.767C60.949,16.99,53.964,9.363,45.238,4.044L38.87,0.175C38.037,-0.335,36.973,0.334,37.02,1.337L37.359,8.981C37.59,14.203,37.004,18.821,35.616,22.659C33.92,27.356,31.484,31.719,28.37,35.636C26.202,38.359,23.746,40.821,21.046,42.977C14.544,48.139,9.257,54.753,5.581,62.324C1.915,69.961,0.004,78.369,0,86.894C0,94.409,1.434,101.686,4.271,108.549C7.01,115.157,10.963,121.154,15.912,126.208C20.907,131.304,26.705,135.316,33.165,138.103C39.857,141.001,46.949,142.466,54.273,142.466C61.596,142.466,68.689,141.001,75.38,138.119C81.825,135.349,87.685,131.308,92.633,126.224C97.629,121.129,101.546,115.174,104.274,108.565C107.108,101.721,108.561,94.353,108.545,86.909C108.545,79.139,107.004,71.591,103.936,64.474ZM103.936,64.474"/>
</g>
  <g id="Regular-L" transform="matrix(1.0,0.0,0.0,1.0,1395.1611886641779,1438.7095659654192)">  <path fill-opacity="1" stroke="none" stroke-linejoin="miter" stroke-opacity="1" stroke-linecap="butt" fill="#000000" stroke-width="1px" stroke-miterlimit="4" stroke-dasharray="none" fill-rule="nonzero" d="M103.936,64.474C100.942,57.516,96.591,51.271,91.153,46.13L86.667,41.878C86.515,41.738,86.331,41.638,86.133,41.588C85.935,41.538,85.727,41.539,85.529,41.591C85.332,41.643,85.149,41.744,84.998,41.886C84.847,42.027,84.731,42.205,84.662,42.404L82.658,48.343C81.409,52.069,79.112,55.875,75.859,59.617C75.643,59.856,75.396,59.919,75.226,59.935C75.057,59.951,74.795,59.919,74.563,59.696C74.347,59.506,74.24,59.219,74.255,58.932C74.825,49.346,72.05,38.534,65.976,26.767C60.949,16.99,53.964,9.363,45.238,4.044L38.87,0.175C38.037,-0.335,36.973,0.334,37.02,1.337L37.359,8.981C37.59,14.203,37.004,18.821,35.616,22.659C33.92,27.356,31.484,31.719,28.37,35.636C26.202,38.359,23.746,40.821,21.046,42.977C14.544,48.139,9.257,54.753,5.581,62.324C1.915,69.961,0.004,78.369,0,86.894C0,94.409,1.434,101.686,4.271,108.549C7.01,115.157,10.963,121.154,15.912,126.208C20.907,131.304,26.705,135.316,33.165,138.103C39.857,141.001,46.949,142.466,54.273,142.466C61.596,142.466,68.689,141.001,75.38,138.119C81.825,135.349,87.685,131.308,92.633,126.224C97.629,121.129,101.546,115.174,104.274,108.565C107.108,101.721,108.561,94.353,108.545,86.909C108.545,79.139,107.004,71.591,103.936,64.474ZM103.936,64.474"/>
</g>
  <g id="Light-L" transform="matrix(1.0,0.0,0.0,1.0,1098.451188664178,1438.7095659654192)">  <path stroke-miterlimit="4" fill="#000000" fill-rule="nonzero" stroke-opacity="1" fill-opacity="1" stroke-dasharray="none" stroke-linecap="butt" stroke-linejoin="miter" stroke-width="1px" stroke="none" d="M103.936,64.474C100.942,57.516,96.591,51.271,91.153,46.13L86.667,41.878C86.515,41.738,86.331,41.638,86.133,41.588C85.935,41.538,85.727,41.539,85.529,41.591C85.332,41.643,85.149,41.744,84.998,41.886C84.847,42.027,84.731,42.205,84.662,42.404L82.658,48.343C81.409,52.069,79.112,55.875,75.859,59.617C75.643,59.856,75.396,59.919,75.226,59.935C75.057,59.951,74.795,59.919,74.563,59.696C74.347,59.506,74.24,59.219,74.255,58.932C74.825,49.346,72.05,38.534,65.976,26.767C60.949,16.99,53.964,9.363,45.238,4.044L38.87,0.175C38.037,-0.335,36.973,0.334,37.02,1.337L37.359,8.981C37.59,14.203,37.004,18.821,35.616,22.659C33.92,27.356,31.484,31.719,28.37,35.636C26.202,38.359,23.746,40.821,21.046,42.977C14.544,48.139,9.257,54.753,5.581,62.324C1.915,69.961,0.004,78.369,0,86.894C0,94.409,1.434,101.686,4.271,108.549C7.01,115.157,10.963,121.154,15.912,126.208C20.907,131.304,26.705,135.316,33.165,138.103C39.857,141.001,46.949,142.466,54.273,142.466C61.596,142.466,68.689,141.001,75.38,138.119C81.825,135.349,87.685,131.308,92.633,126.224C97.629,121.129,101.546,115.174,104.274,108.565C107.108,101.721,108.561,94.353,108.545,86.909C108.545,79.139,107.004,71.591,103.936,64.474ZM103.936,64.474"/>
</g>
  <g id="Thin-L" transform="matrix(1.0,0.0,0.0,1.0,801.741188664178,1438.7095659654192)">  <path fill-opacity="1" stroke-miterlimit="4" fill-rule="nonzero" stroke-linejoin="miter" stroke-dasharray="none" stroke-linecap="butt" stroke-width="1px" stroke="none" fill="#000000" stroke-opacity="1" d="M103.936,64.474C100.942,57.516,96.591,51.271,91.153,46.13L86.667,41.878C86.515,41.738,86.331,41.638,86.133,41.588C85.935,41.538,85.727,41.539,85.529,41.591C85.332,41.643,85.149,41.744,84.998,41.886C84.847,42.027,84.731,42.205,84.662,42.404L82.658,48.343C81.409,52.069,79.112,55.875,75.859,59.617C75.643,59.856,75.396,59.919,75.226,59.935C75.057,59.951,74.795,59.919,74.563,59.696C74.347,59.506,74.24,59.219,74.255,58.932C74.825,49.346,72.05,38.534,65.976,26.767C60.949,16.99,53.964,9.363,45.238,4.044L38.87,0.175C38.037,-0.335,36.973,0.334,37.02,1.337L37.359,8.981C37.59,14.203,37.004,18.821,35.616,22.659C33.92,27.356,31.484,31.719,28.37,35.636C26.202,38.359,23.746,40.821,21.046,42.977C14.544,48.139,9.257,54.753,5.581,62.324C1.915,69.961,0.004,78.369,0,86.894C0,94.409,1.434,101.686,4.271,108.549C7.01,115.157,10.963,121.154,15.912,126.208C20.907,131.304,26.705,135.316,33.165,138.103C39.857,141.001,46.949,142.466,54.273,142.466C61.596,142.466,68.689,141.001,75.38,138.119C81.825,135.349,87.685,131.308,92.633,126.224C97.629,121.129,101.546,115.174,104.274,108.565C107.108,101.721,108.561,94.353,108.545,86.909C108.545,79.139,107.004,71.591,103.936,64.474ZM103.936,64.474"/>
</g>
  <g id="Ultralight-L" transform="matrix(1.0,0.0,0.0,1.0,505.03118866417793,1438.7095659654192)">  <path stroke-linejoin="miter" stroke-miterlimit="4" stroke-dasharray="none" stroke-linecap="butt" stroke-width="1px" fill="#000000" stroke="none" fill-rule="nonzero" stroke-opacity="1" fill-opacity="1" d="M103.936,64.474C100.942,57.516,96.591,51.271,91.153,46.13L86.667,41.878C86.515,41.738,86.331,41.638,86.133,41.588C85.935,41.538,85.727,41.539,85.529,41.591C85.332,41.643,85.149,41.744,84.998,41.886C84.847,42.027,84.731,42.205,84.662,42.404L82.658,48.343C81.409,52.069,79.112,55.875,75.859,59.617C75.643,59.856,75.396,59.919,75.226,59.935C75.057,59.951,74.795,59.919,74.563,59.696C74.347,59.506,74.24,59.219,74.255,58.932C74.825,49.346,72.05,38.534,65.976,26.767C60.949,16.99,53.964,9.363,45.238,4.044L38.87,0.175C38.037,-0.335,36.973,0.334,37.02,1.337L37.359,8.981C37.59,14.203,37.004,18.821,35.616,22.659C33.92,27.356,31.484,31.719,28.37,35.636C26.202,38.359,23.746,40.821,21.046,42.977C14.544,48.139,9.257,54.753,5.581,62.324C1.915,69.961,0.004,78.369,0,86.894C0,94.409,1.434,101.686,4.271,108.549C7.01,115.157,10.963,121.154,15.912,126.208C20.907,131.304,26.705,135.316,33.165,138.103C39.857,141.001,46.949,142.466,54.273,142.466C61.596,142.466,68.689,141.001,75.38,138.119C81.825,135.349,87.685,131.308,92.633,126.224C97.629,121.129,101.546,115.174,104.274,108.565C107.108,101.721,108.561,94.353,108.545,86.909C108.545,79.139,107.004,71.591,103.936,64.474ZM103.936,64.474"/>
</g>
  <g id="Black-M" transform="matrix(1.0,0.0,0.0,1.0,2891.2933245458744,1027.1572648290557)">  <path fill="#000000" stroke="none" stroke-dasharray="none" stroke-linejoin="miter" stroke-width="1px" fill-opacity="1" stroke-opacity="1" stroke-miterlimit="4" stroke-linecap="butt" fill-rule="nonzero" d="M80.57,49.979C78.25,44.586,74.877,39.745,70.662,35.759L67.183,32.464C67.066,32.355,66.923,32.278,66.77,32.239C66.616,32.2,66.455,32.201,66.302,32.241C66.149,32.281,66.007,32.36,65.89,32.469C65.773,32.579,65.683,32.717,65.63,32.871L64.076,37.475C63.108,40.364,61.327,43.314,58.805,46.215C58.638,46.4,58.447,46.449,58.315,46.462C58.184,46.474,57.98,46.449,57.801,46.276C57.634,46.128,57.55,45.906,57.562,45.684C58.004,38.253,55.853,29.872,51.144,20.75C47.247,13.171,41.833,7.258,35.068,3.135L30.132,0.136C29.486,-0.259,28.661,0.259,28.697,1.037L28.96,6.962C29.14,11.01,28.685,14.59,27.61,17.565C26.295,21.206,24.406,24.588,21.992,27.625C20.312,29.735,18.408,31.644,16.315,33.315C11.275,37.317,7.176,42.444,4.327,48.313C1.484,54.233,0.003,60.751,0,67.359C0,73.185,1.112,78.826,3.311,84.147C5.434,89.269,8.499,93.918,12.335,97.836C16.207,101.786,20.701,104.896,25.709,107.057C30.897,109.303,36.395,110.439,42.072,110.439C47.749,110.439,53.247,109.303,58.434,107.069C63.43,104.922,67.973,101.789,71.809,97.848C75.682,93.898,78.718,89.282,80.833,84.159C83.029,78.854,84.156,73.142,84.144,67.372C84.144,61.348,82.949,55.497,80.57,49.979ZM80.57,49.979"/>
</g>
  <g id="Heavy-M" transform="matrix(1.0,0.0,0.0,1.0,2594.5833245458743,1027.1572648290557)">  <path stroke-miterlimit="4" stroke-width="1px" stroke-dasharray="none" fill-opacity="1" stroke="none" stroke-linejoin="miter" stroke-opacity="1" stroke-linecap="butt" fill="#000000" fill-rule="nonzero" d="M80.57,49.979C78.25,44.586,74.877,39.745,70.662,35.759L67.183,32.464C67.066,32.355,66.923,32.278,66.77,32.239C66.616,32.2,66.455,32.201,66.302,32.241C66.149,32.281,66.007,32.36,65.89,32.469C65.773,32.579,65.683,32.717,65.63,32.871L64.076,37.475C63.108,40.364,61.327,43.314,58.805,46.215C58.638,46.4,58.447,46.449,58.315,46.462C58.184,46.474,57.98,46.449,57.801,46.276C57.634,46.128,57.55,45.906,57.562,45.684C58.004,38.253,55.853,29.872,51.144,20.75C47.247,13.171,41.833,7.258,35.068,3.135L30.132,0.136C29.486,-0.259,28.661,0.259,28.697,1.037L28.96,6.962C29.14,11.01,28.685,14.59,27.61,17.565C26.295,21.206,24.406,24.588,21.992,27.625C20.312,29.735,18.408,31.644,16.315,33.315C11.275,37.317,7.176,42.444,4.327,48.313C1.484,54.233,0.003,60.751,0,67.359C0,73.185,1.112,78.826,3.311,84.147C5.434,89.269,8.499,93.918,12.335,97.836C16.207,101.786,20.701,104.896,25.709,107.057C30.897,109.303,36.395,110.439,42.072,110.439C47.749,110.439,53.247,109.303,58.434,107.069C63.43,104.922,67.973,101.789,71.809,97.848C75.682,93.898,78.718,89.282,80.833,84.159C83.029,78.854,84.156,73.142,84.144,67.372C84.144,61.348,82.949,55.497,80.57,49.979ZM80.57,49.979"/>
</g>
  <g id="Bold-M" transform="matrix(1.0,0.0,0.0,1.0,2297.8733245458743,1027.1572648290557)">  <path stroke-miterlimit="4" fill-opacity="1" stroke-dasharray="none" fill="#000000" stroke-linejoin="miter" fill-rule="nonzero" stroke="none" stroke-opacity="1" stroke-linecap="butt" stroke-width="1px" d="M80.57,49.979C78.25,44.586,74.877,39.745,70.662,35.759L67.183,32.464C67.066,32.355,66.923,32.278,66.77,32.239C66.616,32.2,66.455,32.201,66.302,32.241C66.149,32.281,66.007,32.36,65.89,32.469C65.773,32.579,65.683,32.717,65.63,32.871L64.076,37.475C63.108,40.364,61.327,43.314,58.805,46.215C58.638,46.4,58.447,46.449,58.315,46.462C58.184,46.474,57.98,46.449,57.801,46.276C57.634,46.128,57.55,45.906,57.562,45.684C58.004,38.253,55.853,29.872,51.144,20.75C47.247,13.171,41.833,7.258,35.068,3.135L30.132,0.136C29.486,-0.259,28.661,0.259,28.697,1.037L28.96,6.962C29.14,11.01,28.685,14.59,27.61,17.565C26.295,21.206,24.406,24.588,21.992,27.625C20.312,29.735,18.408,31.644,16.315,33.315C11.275,37.317,7.176,42.444,4.327,48.313C1.484,54.233,0.003,60.751,0,67.359C0,73.185,1.112,78.826,3.311,84.147C5.434,89.269,8.499,93.918,12.335,97.836C16.207,101.786,20.701,104.896,25.709,107.057C30.897,109.303,36.395,110.439,42.072,110.439C47.749,110.439,53.247,109.303,58.434,107.069C63.43,104.922,67.973,101.789,71.809,97.848C75.682,93.898,78.718,89.282,80.833,84.159C83.029,78.854,84.156,73.142,84.144,67.372C84.144,61.348,82.949,55.497,80.57,49.979ZM80.57,49.979"/>
</g>
  <g id="Semibold-M" transform="matrix(1.0,0.0,0.0,1.0,2001.1633245458743,1027.1572648290557)">  <path stroke-opacity="1" stroke="none" stroke-miterlimit="4" fill-rule="nonzero" stroke-linecap="butt" stroke-width="1px" fill="#000000" stroke-linejoin="miter" stroke-dasharray="none" fill-opacity="1" d="M80.57,49.979C78.25,44.586,74.877,39.745,70.662,35.759L67.183,32.464C67.066,32.355,66.923,32.278,66.77,32.239C66.616,32.2,66.455,32.201,66.302,32.241C66.149,32.281,66.007,32.36,65.89,32.469C65.773,32.579,65.683,32.717,65.63,32.871L64.076,37.475C63.108,40.364,61.327,43.314,58.805,46.215C58.638,46.4,58.447,46.449,58.315,46.462C58.184,46.474,57.98,46.449,57.801,46.276C57.634,46.128,57.55,45.906,57.562,45.684C58.004,38.253,55.853,29.872,51.144,20.75C47.247,13.171,41.833,7.258,35.068,3.135L30.132,0.136C29.486,-0.259,28.661,0.259,28.697,1.037L28.96,6.962C29.14,11.01,28.685,14.59,27.61,17.565C26.295,21.206,24.406,24.588,21.992,27.625C20.312,29.735,18.408,31.644,16.315,33.315C11.275,37.317,7.176,42.444,4.327,48.313C1.484,54.233,0.003,60.751,0,67.359C0,73.185,1.112,78.826,3.311,84.147C5.434,89.269,8.499,93.918,12.335,97.836C16.207,101.786,20.701,104.896,25.709,107.057C30.897,109.303,36.395,110.439,42.072,110.439C47.749,110.439,53.247,109.303,58.434,107.069C63.43,104.922,67.973,101.789,71.809,97.848C75.682,93.898,78.718,89.282,80.833,84.159C83.029,78.854,84.156,73.142,84.144,67.372C84.144,61.348,82.949,55.497,80.57,49.979ZM80.57,49.979"/>
</g>
  <g id="Medium-M" transform="matrix(1.0,0.0,0.0,1.0,1704.4533245458742,1027.1572648290557)">  <path fill-opacity="1" stroke="none" stroke-dasharray="none" stroke-miterlimit="4" fill-rule="nonzero" stroke-linecap="butt" stroke-opacity="1" fill="#000000" stroke-width="1px" stroke-linejoin="miter" d="M80.57,49.979C78.25,44.586,74.877,39.745,70.662,35.759L67.183,32.464C67.066,32.355,66.923,32.278,66.77,32.239C66.616,32.2,66.455,32.201,66.302,32.241C66.149,32.281,66.007,32.36,65.89,32.469C65.773,32.579,65.683,32.717,65.63,32.871L64.076,37.475C63.108,40.364,61.327,43.314,58.805,46.215C58.638,46.4,58.447,46.449,58.315,46.462C58.184,46.474,57.98,46.449,57.801,46.276C57.634,46.128,57.55,45.906,57.562,45.684C58.004,38.253,55.853,29.872,51.144,20.75C47.247,13.171,41.833,7.258,35.068,3.135L30.132,0.136C29.486,-0.259,28.661,0.259,28.697,1.037L28.96,6.962C29.14,11.01,28.685,14.59,27.61,17.565C26.295,21.206,24.406,24.588,21.992,27.625C20.312,29.735,18.408,31.644,16.315,33.315C11.275,37.317,7.176,42.444,4.327,48.313C1.484,54.233,0.003,60.751,0,67.359C0,73.185,1.112,78.826,3.311,84.147C5.434,89.269,8.499,93.918,12.335,97.836C16.207,101.786,20.701,104.896,25.709,107.057C30.897,109.303,36.395,110.439,42.072,110.439C47.749,110.439,53.247,109.303,58.434,107.069C63.43,104.922,67.973,101.789,71.809,97.848C75.682,93.898,78.718,89.282,80.833,84.159C83.029,78.854,84.156,73.142,84.144,67.372C84.144,61.348,82.949,55.497,80.57,49.979ZM80.57,49.979"/>
</g>
  <g id="Regular-M" transform="matrix(1.0,0.0,0.0,1.0,1407.7433245458742,1027.1572648290557)">  <path fill-opacity="1" stroke="none" stroke-linejoin="miter" stroke-opacity="1" stroke-linecap="butt" fill="#000000" stroke-width="1px" stroke-miterlimit="4" stroke-dasharray="none" fill-rule="nonzero" d="M80.57,49.979C78.25,44.586,74.877,39.745,70.662,35.759L67.183,32.464C67.066,32.355,66.923,32.278,66.77,32.239C66.616,32.2,66.455,32.201,66.302,32.241C66.149,32.281,66.007,32.36,65.89,32.469C65.773,32.579,65.683,32.717,65.63,32.871L64.076,37.475C63.108,40.364,61.327,43.314,58.805,46.215C58.638,46.4,58.447,46.449,58.315,46.462C58.184,46.474,57.98,46.449,57.801,46.276C57.634,46.128,57.55,45.906,57.562,45.684C58.004,38.253,55.853,29.872,51.144,20.75C47.247,13.171,41.833,7.258,35.068,3.135L30.132,0.136C29.486,-0.259,28.661,0.259,28.697,1.037L28.96,6.962C29.14,11.01,28.685,14.59,27.61,17.565C26.295,21.206,24.406,24.588,21.992,27.625C20.312,29.735,18.408,31.644,16.315,33.315C11.275,37.317,7.176,42.444,4.327,48.313C1.484,54.233,0.003,60.751,0,67.359C0,73.185,1.112,78.826,3.311,84.147C5.434,89.269,8.499,93.918,12.335,97.836C16.207,101.786,20.701,104.896,25.709,107.057C30.897,109.303,36.395,110.439,42.072,110.439C47.749,110.439,53.247,109.303,58.434,107.069C63.43,104.922,67.973,101.789,71.809,97.848C75.682,93.898,78.718,89.282,80.833,84.159C83.029,78.854,84.156,73.142,84.144,67.372C84.144,61.348,82.949,55.497,80.57,49.979ZM80.57,49.979"/>
</g>
  <g id="Light-M" transform="matrix(1.0,0.0,0.0,1.0,1111.0333245458744,1027.1572648290557)">  <path stroke-miterlimit="4" fill="#000000" fill-rule="nonzero" stroke-opacity="1" fill-opacity="1" stroke-dasharray="none" stroke-linecap="butt" stroke-linejoin="miter" stroke-width="1px" stroke="none" d="M80.57,49.979C78.25,44.586,74.877,39.745,70.662,35.759L67.183,32.464C67.066,32.355,66.923,32.278,66.77,32.239C66.616,32.2,66.455,32.201,66.302,32.241C66.149,32.281,66.007,32.36,65.89,32.469C65.773,32.579,65.683,32.717,65.63,32.871L64.076,37.475C63.108,40.364,61.327,43.314,58.805,46.215C58.638,46.4,58.447,46.449,58.315,46.462C58.184,46.474,57.98,46.449,57.801,46.276C57.634,46.128,57.55,45.906,57.562,45.684C58.004,38.253,55.853,29.872,51.144,20.75C47.247,13.171,41.833,7.258,35.068,3.135L30.132,0.136C29.486,-0.259,28.661,0.259,28.697,1.037L28.96,6.962C29.14,11.01,28.685,14.59,27.61,17.565C26.295,21.206,24.406,24.588,21.992,27.625C20.312,29.735,18.408,31.644,16.315,33.315C11.275,37.317,7.176,42.444,4.327,48.313C1.484,54.233,0.003,60.751,0,67.359C0,73.185,1.112,78.826,3.311,84.147C5.434,89.269,8.499,93.918,12.335,97.836C16.207,101.786,20.701,104.896,25.709,107.057C30.897,109.303,36.395,110.439,42.072,110.439C47.749,110.439,53.247,109.303,58.434,107.069C63.43,104.922,67.973,101.789,71.809,97.848C75.682,93.898,78.718,89.282,80.833,84.159C83.029,78.854,84.156,73.142,84.144,67.372C84.144,61.348,82.949,55.497,80.57,49.979ZM80.57,49.979"/>
</g>
  <g id="Thin-M" transform="matrix(1.0,0.0,0.0,1.0,814.3233245458744,1027.1572648290557)">  <path fill-opacity="1" stroke-miterlimit="4" fill-rule="nonzero" stroke-linejoin="miter" stroke-dasharray="none" stroke-linecap="butt" stroke-width="1px" stroke="none" fill="#000000" stroke-opacity="1" d="M80.57,49.979C78.25,44.586,74.877,39.745,70.662,35.759L67.183,32.464C67.066,32.355,66.923,32.278,66.77,32.239C66.616,32.2,66.455,32.201,66.302,32.241C66.149,32.281,66.007,32.36,65.89,32.469C65.773,32.579,65.683,32.717,65.63,32.871L64.076,37.475C63.108,40.364,61.327,43.314,58.805,46.215C58.638,46.4,58.447,46.449,58.315,46.462C58.184,46.474,57.98,46.449,57.801,46.276C57.634,46.128,57.55,45.906,57.562,45.684C58.004,38.253,55.853,29.872,51.144,20.75C47.247,13.171,41.833,7.258,35.068,3.135L30.132,0.136C29.486,-0.259,28.661,0.259,28.697,1.037L28.96,6.962C29.14,11.01,28.685,14.59,27.61,17.565C26.295,21.206,24.406,24.588,21.992,27.625C20.312,29.735,18.408,31.644,16.315,33.315C11.275,37.317,7.176,42.444,4.327,48.313C1.484,54.233,0.003,60.751,0,67.359C0,73.185,1.112,78.826,3.311,84.147C5.434,89.269,8.499,93.918,12.335,97.836C16.207,101.786,20.701,104.896,25.709,107.057C30.897,109.303,36.395,110.439,42.072,110.439C47.749,110.439,53.247,109.303,58.434,107.069C63.43,104.922,67.973,101.789,71.809,97.848C75.682,93.898,78.718,89.282,80.833,84.159C83.029,78.854,84.156,73.142,84.144,67.372C84.144,61.348,82.949,55.497,80.57,49.979ZM80.57,49.979"/>
</g>
  <g id="Ultralight-M" transform="matrix(1.0,0.0,0.0,1.0,517.6133245458743,1027.1572648290557)">  <path stroke-linejoin="miter" stroke-miterlimit="4" stroke-dasharray="none" stroke-linecap="butt" stroke-width="1px" fill="#000000" stroke="none" fill-rule="nonzero" stroke-opacity="1" fill-opacity="1" d="M80.57,49.979C78.25,44.586,74.877,39.745,70.662,35.759L67.183,32.464C67.066,32.355,66.923,32.278,66.77,32.239C66.616,32.2,66.455,32.201,66.302,32.241C66.149,32.281,66.007,32.36,65.89,32.469C65.773,32.579,65.683,32.717,65.63,32.871L64.076,37.475C63.108,40.364,61.327,43.314,58.805,46.215C58.638,46.4,58.447,46.449,58.315,46.462C58.184,46.474,57.98,46.449,57.801,46.276C57.634,46.128,57.55,45.906,57.562,45.684C58.004,38.253,55.853,29.872,51.144,20.75C47.247,13.171,41.833,7.258,35.068,3.135L30.132,0.136C29.486,-0.259,28.661,0.259,28.697,1.037L28.96,6.962C29.14,11.01,28.685,14.59,27.61,17.565C26.295,21.206,24.406,24.588,21.992,27.625C20.312,29.735,18.408,31.644,16.315,33.315C11.275,37.317,7.176,42.444,4.327,48.313C1.484,54.233,0.003,60.751,0,67.359C0,73.185,1.112,78.826,3.311,84.147C5.434,89.269,8.499,93.918,12.335,97.836C16.207,101.786,20.701,104.896,25.709,107.057C30.897,109.303,36.395,110.439,42.072,110.439C47.749,110.439,53.247,109.303,58.434,107.069C63.43,104.922,67.973,101.789,71.809,97.848C75.682,93.898,78.718,89.282,80.833,84.159C83.029,78.854,84.156,73.142,84.144,67.372C84.144,61.348,82.949,55.497,80.57,49.979ZM80.57,49.979"/>
</g>
  <g id="Black-S" transform="matrix(1.0,0.0,0.0,1.0,2900.7082331194197,610.9612325994318)">  <path fill="#000000" stroke="none" stroke-dasharray="none" stroke-linejoin="miter" stroke-width="1px" fill-opacity="1" stroke-opacity="1" stroke-miterlimit="4" stroke-linecap="butt" fill-rule="nonzero" d="M63.086,39.134C61.27,34.911,58.628,31.12,55.328,28L52.605,25.419C52.512,25.334,52.401,25.273,52.281,25.243C52.16,25.213,52.035,25.213,51.914,25.245C51.794,25.276,51.683,25.338,51.592,25.424C51.5,25.51,51.43,25.618,51.388,25.738L50.171,29.343C49.413,31.605,48.019,33.915,46.044,36.186C45.913,36.331,45.764,36.37,45.661,36.379C45.558,36.389,45.399,36.37,45.258,36.234C45.127,36.118,45.062,35.944,45.071,35.77C45.417,29.952,43.733,23.389,40.046,16.247C36.995,10.313,32.755,5.683,27.458,2.455L23.593,0.106C23.088,-0.203,22.442,0.203,22.47,0.812L22.676,5.451C22.816,8.621,22.461,11.424,21.618,13.753C20.589,16.605,19.11,19.253,17.22,21.63C15.904,23.283,14.413,24.777,12.774,26.086C8.828,29.219,5.619,33.234,3.388,37.829C1.162,42.465,0.003,47.568,0,52.742C0,57.304,0.87,61.721,2.592,65.887C4.255,69.898,6.655,73.537,9.658,76.605C12.69,79.698,16.209,82.134,20.13,83.825C24.192,85.584,28.497,86.474,32.942,86.474C37.387,86.474,41.693,85.584,45.754,83.835C49.666,82.154,53.223,79.701,56.226,76.615C59.259,73.522,61.636,69.908,63.292,65.897C65.012,61.742,65.894,57.27,65.885,52.752C65.885,48.035,64.949,43.454,63.086,39.134ZM63.086,39.134"/>
</g>
  <g id="Heavy-S" transform="matrix(1.0,0.0,0.0,1.0,2603.9982331194196,610.9612325994318)">  <path stroke-miterlimit="4" stroke-width="1px" stroke-dasharray="none" fill-opacity="1" stroke="none" stroke-linejoin="miter" stroke-opacity="1" stroke-linecap="butt" fill="#000000" fill-rule="nonzero" d="M63.086,39.134C61.27,34.911,58.628,31.12,55.328,28L52.605,25.419C52.512,25.334,52.401,25.273,52.281,25.243C52.16,25.213,52.035,25.213,51.914,25.245C51.794,25.276,51.683,25.338,51.592,25.424C51.5,25.51,51.43,25.618,51.388,25.738L50.171,29.343C49.413,31.605,48.019,33.915,46.044,36.186C45.913,36.331,45.764,36.37,45.661,36.379C45.558,36.389,45.399,36.37,45.258,36.234C45.127,36.118,45.062,35.944,45.071,35.77C45.417,29.952,43.733,23.389,40.046,16.247C36.995,10.313,32.755,5.683,27.458,2.455L23.593,0.106C23.088,-0.203,22.442,0.203,22.47,0.812L22.676,5.451C22.816,8.621,22.461,11.424,21.618,13.753C20.589,16.605,19.11,19.253,17.22,21.63C15.904,23.283,14.413,24.777,12.774,26.086C8.828,29.219,5.619,33.234,3.388,37.829C1.162,42.465,0.003,47.568,0,52.742C0,57.304,0.87,61.721,2.592,65.887C4.255,69.898,6.655,73.537,9.658,76.605C12.69,79.698,16.209,82.134,20.13,83.825C24.192,85.584,28.497,86.474,32.942,86.474C37.387,86.474,41.693,85.584,45.754,83.835C49.666,82.154,53.223,79.701,56.226,76.615C59.259,73.522,61.636,69.908,63.292,65.897C65.012,61.742,65.894,57.27,65.885,52.752C65.885,48.035,64.949,43.454,63.086,39.134ZM63.086,39.134"/>
</g>
  <g id="Bold-S" transform="matrix(1.0,0.0,0.0,1.0,2307.2882331194196,610.9612325994318)">  <path stroke-miterlimit="4" fill-opacity="1" stroke-dasharray="none" fill="#000000" stroke-linejoin="miter" fill-rule="nonzero" stroke="none" stroke-opacity="1" stroke-linecap="butt" stroke-width="1px" d="M63.086,39.134C61.27,34.911,58.628,31.12,55.328,28L52.605,25.419C52.512,25.334,52.401,25.273,52.281,25.243C52.16,25.213,52.035,25.213,51.914,25.245C51.794,25.276,51.683,25.338,51.592,25.424C51.5,25.51,51.43,25.618,51.388,25.738L50.171,29.343C49.413,31.605,48.019,33.915,46.044,36.186C45.913,36.331,45.764,36.37,45.661,36.379C45.558,36.389,45.399,36.37,45.258,36.234C45.127,36.118,45.062,35.944,45.071,35.77C45.417,29.952,43.733,23.389,40.046,16.247C36.995,10.313,32.755,5.683,27.458,2.455L23.593,0.106C23.088,-0.203,22.442,0.203,22.47,0.812L22.676,5.451C22.816,8.621,22.461,11.424,21.618,13.753C20.589,16.605,19.11,19.253,17.22,21.63C15.904,23.283,14.413,24.777,12.774,26.086C8.828,29.219,5.619,33.234,3.388,37.829C1.162,42.465,0.003,47.568,0,52.742C0,57.304,0.87,61.721,2.592,65.887C4.255,69.898,6.655,73.537,9.658,76.605C12.69,79.698,16.209,82.134,20.13,83.825C24.192,85.584,28.497,86.474,32.942,86.474C37.387,86.474,41.693,85.584,45.754,83.835C49.666,82.154,53.223,79.701,56.226,76.615C59.259,73.522,61.636,69.908,63.292,65.897C65.012,61.742,65.894,57.27,65.885,52.752C65.885,48.035,64.949,43.454,63.086,39.134ZM63.086,39.134"/>
</g>
  <g id="Semibold-S" transform="matrix(1.0,0.0,0.0,1.0,2010.5782331194196,610.9612325994318)">  <path stroke-opacity="1" stroke="none" stroke-miterlimit="4" fill-rule="nonzero" stroke-linecap="butt" stroke-width="1px" fill="#000000" stroke-linejoin="miter" stroke-dasharray="none" fill-opacity="1" d="M63.086,39.134C61.27,34.911,58.628,31.12,55.328,28L52.605,25.419C52.512,25.334,52.401,25.273,52.281,25.243C52.16,25.213,52.035,25.213,51.914,25.245C51.794,25.276,51.683,25.338,51.592,25.424C51.5,25.51,51.43,25.618,51.388,25.738L50.171,29.343C49.413,31.605,48.019,33.915,46.044,36.186C45.913,36.331,45.764,36.37,45.661,36.379C45.558,36.389,45.399,36.37,45.258,36.234C45.127,36.118,45.062,35.944,45.071,35.77C45.417,29.952,43.733,23.389,40.046,16.247C36.995,10.313,32.755,5.683,27.458,2.455L23.593,0.106C23.088,-0.203,22.442,0.203,22.47,0.812L22.676,5.451C22.816,8.621,22.461,11.424,21.618,13.753C20.589,16.605,19.11,19.253,17.22,21.63C15.904,23.283,14.413,24.777,12.774,26.086C8.828,29.219,5.619,33.234,3.388,37.829C1.162,42.465,0.003,47.568,0,52.742C0,57.304,0.87,61.721,2.592,65.887C4.255,69.898,6.655,73.537,9.658,76.605C12.69,79.698,16.209,82.134,20.13,83.825C24.192,85.584,28.497,86.474,32.942,86.474C37.387,86.474,41.693,85.584,45.754,83.835C49.666,82.154,53.223,79.701,56.226,76.615C59.259,73.522,61.636,69.908,63.292,65.897C65.012,61.742,65.894,57.27,65.885,52.752C65.885,48.035,64.949,43.454,63.086,39.134ZM63.086,39.134"/>
</g>
  <g id="Medium-S" transform="matrix(1.0,0.0,0.0,1.0,1713.8682331194195,610.9612325994318)">  <path fill-opacity="1" stroke="none" stroke-dasharray="none" stroke-miterlimit="4" fill-rule="nonzero" stroke-linecap="butt" stroke-opacity="1" fill="#000000" stroke-width="1px" stroke-linejoin="miter" d="M63.086,39.134C61.27,34.911,58.628,31.12,55.328,28L52.605,25.419C52.512,25.334,52.401,25.273,52.281,25.243C52.16,25.213,52.035,25.213,51.914,25.245C51.794,25.276,51.683,25.338,51.592,25.424C51.5,25.51,51.43,25.618,51.388,25.738L50.171,29.343C49.413,31.605,48.019,33.915,46.044,36.186C45.913,36.331,45.764,36.37,45.661,36.379C45.558,36.389,45.399,36.37,45.258,36.234C45.127,36.118,45.062,35.944,45.071,35.77C45.417,29.952,43.733,23.389,40.046,16.247C36.995,10.313,32.755,5.683,27.458,2.455L23.593,0.106C23.088,-0.203,22.442,0.203,22.47,0.812L22.676,5.451C22.816,8.621,22.461,11.424,21.618,13.753C20.589,16.605,19.11,19.253,17.22,21.63C15.904,23.283,14.413,24.777,12.774,26.086C8.828,29.219,5.619,33.234,3.388,37.829C1.162,42.465,0.003,47.568,0,52.742C0,57.304,0.87,61.721,2.592,65.887C4.255,69.898,6.655,73.537,9.658,76.605C12.69,79.698,16.209,82.134,20.13,83.825C24.192,85.584,28.497,86.474,32.942,86.474C37.387,86.474,41.693,85.584,45.754,83.835C49.666,82.154,53.223,79.701,56.226,76.615C59.259,73.522,61.636,69.908,63.292,65.897C65.012,61.742,65.894,57.27,65.885,52.752C65.885,48.035,64.949,43.454,63.086,39.134ZM63.086,39.134"/>
</g>
  <g id="Regular-S" transform="matrix(1.0,0.0,0.0,1.0,1417.1582331194195,610.9612325994318)">  <path fill-opacity="1" stroke="none" stroke-linejoin="miter" stroke-opacity="1" stroke-linecap="butt" fill="#000000" stroke-width="1px" stroke-miterlimit="4" stroke-dasharray="none" fill-rule="nonzero" d="M63.086,39.134C61.27,34.911,58.628,31.12,55.328,28L52.605,25.419C52.512,25.334,52.401,25.273,52.281,25.243C52.16,25.213,52.035,25.213,51.914,25.245C51.794,25.276,51.683,25.338,51.592,25.424C51.5,25.51,51.43,25.618,51.388,25.738L50.171,29.343C49.413,31.605,48.019,33.915,46.044,36.186C45.913,36.331,45.764,36.37,45.661,36.379C45.558,36.389,45.399,36.37,45.258,36.234C45.127,36.118,45.062,35.944,45.071,35.77C45.417,29.952,43.733,23.389,40.046,16.247C36.995,10.313,32.755,5.683,27.458,2.455L23.593,0.106C23.088,-0.203,22.442,0.203,22.47,0.812L22.676,5.451C22.816,8.621,22.461,11.424,21.618,13.753C20.589,16.605,19.11,19.253,17.22,21.63C15.904,23.283,14.413,24.777,12.774,26.086C8.828,29.219,5.619,33.234,3.388,37.829C1.162,42.465,0.003,47.568,0,52.742C0,57.304,0.87,61.721,2.592,65.887C4.255,69.898,6.655,73.537,9.658,76.605C12.69,79.698,16.209,82.134,20.13,83.825C24.192,85.584,28.497,86.474,32.942,86.474C37.387,86.474,41.693,85.584,45.754,83.835C49.666,82.154,53.223,79.701,56.226,76.615C59.259,73.522,61.636,69.908,63.292,65.897C65.012,61.742,65.894,57.27,65.885,52.752C65.885,48.035,64.949,43.454,63.086,39.134ZM63.086,39.134"/>
</g>
  <g id="Light-S" transform="matrix(1.0,0.0,0.0,1.0,1120.4482331194197,610.9612325994318)">  <path stroke-miterlimit="4" fill="#000000" fill-rule="nonzero" stroke-opacity="1" fill-opacity="1" stroke-dasharray="none" stroke-linecap="butt" stroke-linejoin="miter" stroke-width="1px" stroke="none" d="M63.086,39.134C61.27,34.911,58.628,31.12,55.328,28L52.605,25.419C52.512,25.334,52.401,25.273,52.281,25.243C52.16,25.213,52.035,25.213,51.914,25.245C51.794,25.276,51.683,25.338,51.592,25.424C51.5,25.51,51.43,25.618,51.388,25.738L50.171,29.343C49.413,31.605,48.019,33.915,46.044,36.186C45.913,36.331,45.764,36.37,45.661,36.379C45.558,36.389,45.399,36.37,45.258,36.234C45.127,36.118,45.062,35.944,45.071,35.77C45.417,29.952,43.733,23.389,40.046,16.247C36.995,10.313,32.755,5.683,27.458,2.455L23.593,0.106C23.088,-0.203,22.442,0.203,22.47,0.812L22.676,5.451C22.816,8.621,22.461,11.424,21.618,13.753C20.589,16.605,19.11,19.253,17.22,21.63C15.904,23.283,14.413,24.777,12.774,26.086C8.828,29.219,5.619,33.234,3.388,37.829C1.162,42.465,0.003,47.568,0,52.742C0,57.304,0.87,61.721,2.592,65.887C4.255,69.898,6.655,73.537,9.658,76.605C12.69,79.698,16.209,82.134,20.13,83.825C24.192,85.584,28.497,86.474,32.942,86.474C37.387,86.474,41.693,85.584,45.754,83.835C49.666,82.154,53.223,79.701,56.226,76.615C59.259,73.522,61.636,69.908,63.292,65.897C65.012,61.742,65.894,57.27,65.885,52.752C65.885,48.035,64.949,43.454,63.086,39.134ZM63.086,39.134"/>
</g>
  <g id="Thin-S" transform="matrix(1.0,0.0,0.0,1.0,823.7382331194196,610.9612325994318)">  <path fill-opacity="1" stroke-miterlimit="4" fill-rule="nonzero" stroke-linejoin="miter" stroke-dasharray="none" stroke-linecap="butt" stroke-width="1px" stroke="none" fill="#000000" stroke-opacity="1" d="M63.086,39.134C61.27,34.911,58.628,31.12,55.328,28L52.605,25.419C52.512,25.334,52.401,25.273,52.281,25.243C52.16,25.213,52.035,25.213,51.914,25.245C51.794,25.276,51.683,25.338,51.592,25.424C51.5,25.51,51.43,25.618,51.388,25.738L50.171,29.343C49.413,31.605,48.019,33.915,46.044,36.186C45.913,36.331,45.764,36.37,45.661,36.379C45.558,36.389,45.399,36.37,45.258,36.234C45.127,36.118,45.062,35.944,45.071,35.77C45.417,29.952,43.733,23.389,40.046,16.247C36.995,10.313,32.755,5.683,27.458,2.455L23.593,0.106C23.088,-0.203,22.442,0.203,22.47,0.812L22.676,5.451C22.816,8.621,22.461,11.424,21.618,13.753C20.589,16.605,19.11,19.253,17.22,21.63C15.904,23.283,14.413,24.777,12.774,26.086C8.828,29.219,5.619,33.234,3.388,37.829C1.162,42.465,0.003,47.568,0,52.742C0,57.304,0.87,61.721,2.592,65.887C4.255,69.898,6.655,73.537,9.658,76.605C12.69,79.698,16.209,82.134,20.13,83.825C24.192,85.584,28.497,86.474,32.942,86.474C37.387,86.474,41.693,85.584,45.754,83.835C49.666,82.154,53.223,79.701,56.226,76.615C59.259,73.522,61.636,69.908,63.292,65.897C65.012,61.742,65.894,57.27,65.885,52.752C65.885,48.035,64.949,43.454,63.086,39.134ZM63.086,39.134"/>
</g>
  <g id="Ultralight-S" transform="matrix(1.0,0.0,0.0,1.0,527.0282331194196,610.9612325994318)">  <path stroke-linejoin="miter" stroke-miterlimit="4" stroke-dasharray="none" stroke-linecap="butt" stroke-width="1px" fill="#000000" stroke="none" fill-rule="nonzero" stroke-opacity="1" fill-opacity="1" d="M63.086,39.134C61.27,34.911,58.628,31.12,55.328,28L52.605,25.419C52.512,25.334,52.401,25.273,52.281,25.243C52.16,25.213,52.035,25.213,51.914,25.245C51.794,25.276,51.683,25.338,51.592,25.424C51.5,25.51,51.43,25.618,51.388,25.738L50.171,29.343C49.413,31.605,48.019,33.915,46.044,36.186C45.913,36.331,45.764,36.37,45.661,36.379C45.558,36.389,45.399,36.37,45.258,36.234C45.127,36.118,45.062,35.944,45.071,35.77C45.417,29.952,43.733,23.389,40.046,16.247C36.995,10.313,32.755,5.683,27.458,2.455L23.593,0.106C23.088,-0.203,22.442,0.203,22.47,0.812L22.676,5.451C22.816,8.621,22.461,11.424,21.618,13.753C20.589,16.605,19.11,19.253,17.22,21.63C15.904,23.283,14.413,24.777,12.774,26.086C8.828,29.219,5.619,33.234,3.388,37.829C1.162,42.465,0.003,47.568,0,52.742C0,57.304,0.87,61.721,2.592,65.887C4.255,69.898,6.655,73.537,9.658,76.605C12.69,79.698,16.209,82.134,20.13,83.825C24.192,85.584,28.497,86.474,32.942,86.474C37.387,86.474,41.693,85.584,45.754,83.835C49.666,82.154,53.223,79.701,56.226,76.615C59.259,73.522,61.636,69.908,63.292,65.897C65.012,61.742,65.894,57.27,65.885,52.752C65.885,48.035,64.949,43.454,63.086,39.134ZM63.086,39.134"/>
</g>
 </g>
</svg>
