<?xml version="1.0" encoding="UTF-8"?>
<!-- Generator: CustomSymbols v2.6.2.41 by @serious_bret https://bretlester.com/app_content/CustomSymbols/ -->
<!-- Guides: Left/Right 0.0/0.0 Cap/Base 0.227/0.127 -->
<!-- Settings: RefScale 1.0 Min/Max Stroke Scales 0.5/2.21 -->
<!DOCTYPE svg
PUBLIC "-//W3C//DTD SVG 1.1//EN"
       "http://www.w3.org/Graphics/SVG/1.1/DTD/svg11.dtd">
<svg version="1.1" xmlns="http://www.w3.org/2000/svg" xmlns:xlink="http://www.w3.org/1999/xlink" width="3300" height="2200">
<![CDATA[<svg width="36" height="36" viewBox="0 0 36 36" fill="none" xmlns="http://www.w3.org/2000/svg">
<path d="M19.0815 7.5045L16.8825 7.5C11.8665 7.488 7.51198 11.5635 7.47748 16.5V22.185C7.47748 23.37 7.32748 24.5265 6.68098 25.512L6.25048 26.169C5.59498 27.165 6.29998 28.5 7.47748 28.5H28.5225C29.7 28.5 30.4035 27.165 29.7495 26.169L29.319 25.512C28.674 24.5265 28.5225 23.3685 28.5225 22.1835V16.5015C28.4625 11.5635 24.0975 7.5165 19.0815 7.5045V7.5045Z" stroke="#B5B5B5" stroke-width="3" stroke-linecap="round" stroke-linejoin="round"/>
<path d="M22.5 28.5C22.5 29.6935 22.0259 30.8381 21.182 31.682C20.3381 32.5259 19.1935 33 18 33C16.8065 33 15.6619 32.5259 14.818 31.682C13.9741 30.8381 13.5 29.6935 13.5 28.5" stroke="#B5B5B5" stroke-width="3" stroke-linecap="round" stroke-linejoin="round"/>
<path d="M18 3C18.7956 3 19.5587 3.31607 20.1213 3.87868C20.6839 4.44129 21 5.20435 21 6V7.5H15V6C15 5.20435 15.3161 4.44129 15.8787 3.87868C16.4413 3.31607 17.2044 3 18 3Z" stroke="#B5B5B5" stroke-width="3" stroke-linecap="round" stroke-linejoin="round"/>
</svg>
]]>
 <g id="Notes">
  <rect height="2200" id="artboard" style="fill:white;opacity:1" width="3300" x="0" y="0"/>
  <line id="" style="fill:none;stroke:black;opacity:1;stroke-width:0.5;" x1="263" x2="3036" y1="292" y2="292"/>
  <text id="reftext1" style="stroke:none;fill:black;font-family:-apple-system,&quot;SF Pro Display&quot;,&quot;SF Pro Text&quot;,Helvetica,sans-serif;font-weight:bold;" transform="matrix(1 0 0 1 263 322)">Weight/Scale Variations</text>
  <text id="reftext2" style="stroke:none;fill:black;font-family:-apple-system,&quot;SF Pro Display&quot;,&quot;SF Pro Text&quot;,Helvetica,sans-serif;text-anchor:middle;" transform="matrix(1 0 0 1 559.711 322)">Ultralight</text>
  <text style="stroke:none;fill:black;font-family:-apple-system,&quot;SF Pro Display&quot;,&quot;SF Pro Text&quot;,Helvetica,sans-serif;text-anchor:middle;" transform="matrix(1 0 0 1 856.422 322)">Thin</text>
  <text style="stroke:none;fill:black;font-family:-apple-system,&quot;SF Pro Display&quot;,&quot;SF Pro Text&quot;,Helvetica,sans-serif;text-anchor:middle;" transform="matrix(1 0 0 1 1153.13 322)">Light</text>
  <text style="stroke:none;fill:black;font-family:-apple-system,&quot;SF Pro Display&quot;,&quot;SF Pro Text&quot;,Helvetica,sans-serif;text-anchor:middle;" transform="matrix(1 0 0 1 1449.84 322)">Regular</text>
  <text style="stroke:none;fill:black;font-family:-apple-system,&quot;SF Pro Display&quot;,&quot;SF Pro Text&quot;,Helvetica,sans-serif;text-anchor:middle;" transform="matrix(1 0 0 1 1746.56 322)">Medium</text>
  <text style="stroke:none;fill:black;font-family:-apple-system,&quot;SF Pro Display&quot;,&quot;SF Pro Text&quot;,Helvetica,sans-serif;text-anchor:middle;" transform="matrix(1 0 0 1 2043.27 322)">Semibold</text>
  <text style="stroke:none;fill:black;font-family:-apple-system,&quot;SF Pro Display&quot;,&quot;SF Pro Text&quot;,Helvetica,sans-serif;text-anchor:middle;" transform="matrix(1 0 0 1 2339.98 322)">Bold</text>
  <text style="stroke:none;fill:black;font-family:-apple-system,&quot;SF Pro Display&quot;,&quot;SF Pro Text&quot;,Helvetica,sans-serif;text-anchor:middle;" transform="matrix(1 0 0 1 2636.69 322)">Heavy</text>
  <text style="stroke:none;fill:black;font-family:-apple-system,&quot;SF Pro Display&quot;,&quot;SF Pro Text&quot;,Helvetica,sans-serif;text-anchor:middle;" transform="matrix(1 0 0 1 2933.4 322)">Black</text>
  <line id="" style="fill:none;stroke:black;opacity:1;stroke-width:0.5;" x1="263" x2="3036" y1="1903" y2="1903"/>
  <g id="" transform="matrix(1 0 0 1 263 1933)">
   <path d="M9.24805 0.830078C13.5547 0.830078 17.1387-2.74414 17.1387-7.05078C17.1387-11.3574 13.5449-14.9316 9.23828-14.9316C4.94141-14.9316 1.36719-11.3574 1.36719-7.05078C1.36719-2.74414 4.95117 0.830078 9.24805 0.830078ZM9.24805-0.654297C5.70312-0.654297 2.87109-3.49609 2.87109-7.05078C2.87109-10.6055 5.69336-13.4473 9.23828-13.4473C12.793-13.4473 15.6348-10.6055 15.6445-7.05078C15.6543-3.49609 12.8027-0.654297 9.24805-0.654297ZM6.39648-6.31836L8.50586-6.31836L8.50586-4.19922C8.50586-3.75977 8.79883-3.45703 9.22852-3.45703C9.67773-3.45703 9.9707-3.75977 9.9707-4.19922L9.9707-6.31836L12.0996-6.31836C12.5391-6.31836 12.8418-6.61133 12.8418-7.04102C12.8418-7.48047 12.5391-7.7832 12.0996-7.7832L9.9707-7.7832L9.9707-9.89258C9.9707-10.3418 9.67773-10.6445 9.22852-10.6445C8.79883-10.6445 8.50586-10.3418 8.50586-9.89258L8.50586-7.7832L6.39648-7.7832C5.94727-7.7832 5.64453-7.48047 5.64453-7.04102C5.64453-6.61133 5.94727-6.31836 6.39648-6.31836Z"/>
  </g>
  <g id="" transform="matrix(1 0 0 1 281.506 1933)">
   <path d="M11.709 2.91016C17.1582 2.91016 21.6699-1.61133 21.6699-7.05078C21.6699-12.5 17.1484-17.0117 11.6992-17.0117C6.25977-17.0117 1.74805-12.5 1.74805-7.05078C1.74805-1.61133 6.26953 2.91016 11.709 2.91016ZM11.709 1.25C7.09961 1.25 3.41797-2.44141 3.41797-7.05078C3.41797-11.6602 7.08984-15.3516 11.6992-15.3516C16.3086-15.3516 20-11.6602 20.0098-7.05078C20.0195-2.44141 16.3184 1.25 11.709 1.25ZM7.98828-6.23047L10.8789-6.23047L10.8789-3.32031C10.8789-2.83203 11.2109-2.5 11.6895-2.5C12.1777-2.5 12.5195-2.83203 12.5195-3.32031L12.5195-6.23047L15.4297-6.23047C15.918-6.23047 16.25-6.5625 16.25-7.04102C16.25-7.5293 15.918-7.87109 15.4297-7.87109L12.5195-7.87109L12.5195-10.7617C12.5195-11.2695 12.1777-11.6016 11.6895-11.6016C11.2109-11.6016 10.8789-11.2598 10.8789-10.7617L10.8789-7.87109L7.98828-7.87109C7.48047-7.87109 7.14844-7.5293 7.14844-7.04102C7.14844-6.5625 7.49023-6.23047 7.98828-6.23047Z"/>
  </g>
  <g id="" transform="matrix(1 0 0 1 304.924 1933)">
   <path d="M14.9707 5.66406C21.9336 5.66406 27.6953-0.0976562 27.6953-7.05078C27.6953-14.0137 21.9238-19.7754 14.9609-19.7754C8.00781-19.7754 2.25586-14.0137 2.25586-7.05078C2.25586-0.0976562 8.01758 5.66406 14.9707 5.66406ZM14.9707 3.84766C8.93555 3.84766 4.08203-1.01562 4.08203-7.05078C4.08203-13.0957 8.92578-17.9492 14.9609-17.9492C21.0059-17.9492 25.8594-13.0957 25.8691-7.05078C25.8789-1.01562 21.0156 3.84766 14.9707 3.84766ZM10.0586-6.14258L14.0625-6.14258L14.0625-2.12891C14.0625-1.5918 14.4336-1.2207 14.9512-1.2207C15.4883-1.2207 15.8594-1.5918 15.8594-2.12891L15.8594-6.14258L19.8828-6.14258C20.4102-6.14258 20.791-6.51367 20.791-7.03125C20.791-7.56836 20.4199-7.94922 19.8828-7.94922L15.8594-7.94922L15.8594-11.9531C15.8594-12.5098 15.4883-12.8809 14.9512-12.8809C14.4336-12.8809 14.0625-12.5 14.0625-11.9531L14.0625-7.94922L10.0586-7.94922C9.50195-7.94922 9.13086-7.56836 9.13086-7.03125C9.13086-6.51367 9.51172-6.14258 10.0586-6.14258Z"/>
  </g>
  <text style="stroke:none;fill:black;font-family:-apple-system,&quot;SF Pro Display&quot;,&quot;SF Pro Text&quot;,Helvetica,sans-serif;font-weight:bold;" transform="matrix(1 0 0 1 263 1953)">Design Variations</text>
  <text style="stroke:none;fill:black;font-family:-apple-system,&quot;SF Pro Display&quot;,&quot;SF Pro Text&quot;,Helvetica,sans-serif;" transform="matrix(1 0 0 1 263 1971)">Symbols are supported in up to nine weights and three scales.</text>
  <text style="stroke:none;fill:black;font-family:-apple-system,&quot;SF Pro Display&quot;,&quot;SF Pro Text&quot;,Helvetica,sans-serif;" transform="matrix(1 0 0 1 263 1989)">For optimal layout with text and other symbols, vertically align</text>
  <text style="stroke:none;fill:black;font-family:-apple-system,&quot;SF Pro Display&quot;,&quot;SF Pro Text&quot;,Helvetica,sans-serif;" transform="matrix(1 0 0 1 263 2007)">symbols with the adjacent text.</text>
  <line id="" style="fill:none;stroke:#00AEEF;stroke-width:0.5;opacity:1.0;" x1="776" x2="776" y1="1919" y2="1933"/>
  <g id="" transform="matrix(1 0 0 1 776 1933)">
   <path d="M3.31055 0.126953C3.82812 0.126953 4.08203-0.0683594 4.26758-0.605469L5.52734-4.0625L11.2891-4.0625L12.5488-0.605469C12.7344-0.0683594 12.9883 0.126953 13.4961 0.126953C14.0137 0.126953 14.3457-0.185547 14.3457-0.673828C14.3457-0.839844 14.3164-0.986328 14.2383-1.20117L9.6582-13.3887C9.43359-13.9941 9.0332-14.2871 8.4082-14.2871C7.80273-14.2871 7.39258-13.9941 7.17773-13.3984L2.59766-1.19141C2.51953-0.976562 2.49023-0.830078 2.49023-0.664062C2.49023-0.175781 2.80273 0.126953 3.31055 0.126953ZM6.00586-5.53711L8.37891-12.1094L8.42773-12.1094L10.8008-5.53711Z"/>
  </g>
  <line id="" style="fill:none;stroke:#00AEEF;stroke-width:0.5;opacity:1.0;" x1="792.836" x2="792.836" y1="1919" y2="1933"/>
  <text style="stroke:none;fill:black;font-family:-apple-system,&quot;SF Pro Display&quot;,&quot;SF Pro Text&quot;,Helvetica,sans-serif;font-weight:bold;" transform="matrix(1 0 0 1 776 1953)">Margins</text>
  <text style="stroke:none;fill:black;font-family:-apple-system,&quot;SF Pro Display&quot;,&quot;SF Pro Text&quot;,Helvetica,sans-serif;" transform="matrix(1 0 0 1 776 1971)">Leading and trailing margins on the left and right side of each symbol</text>
  <text style="stroke:none;fill:black;font-family:-apple-system,&quot;SF Pro Display&quot;,&quot;SF Pro Text&quot;,Helvetica,sans-serif;" transform="matrix(1 0 0 1 776 1989)">can be adjusted by modifying the x-location of the margin guidelines.</text>
  <text style="stroke:none;fill:black;font-family:-apple-system,&quot;SF Pro Display&quot;,&quot;SF Pro Text&quot;,Helvetica,sans-serif;" transform="matrix(1 0 0 1 776 2007)">Modifications are automatically applied proportionally to all</text>
  <text style="stroke:none;fill:black;font-family:-apple-system,&quot;SF Pro Display&quot;,&quot;SF Pro Text&quot;,Helvetica,sans-serif;" transform="matrix(1 0 0 1 776 2025)">scales and weights.</text>
  <g id="" transform="matrix(1 0 0 1 1289 1933)">
   <path d="M2.8418 1.86523L4.54102 3.57422C5.40039 4.44336 6.38672 4.38477 7.31445 3.35938L17.4902-7.85156C17.7539-7.76367 18.0273-7.7832 18.3398-7.8418L19.4043-8.03711L20.0684-7.36328L20.0293-6.80664C19.9902-6.30859 20.1172-5.92773 20.6055-5.44922L21.3672-4.70703C21.8457-4.22852 22.4609-4.19922 22.9297-4.66797L25.8398-7.58789C26.3086-8.05664 26.2891-8.65234 25.8105-9.13086L25.0391-9.89258C24.5605-10.3711 24.1895-10.5273 23.7109-10.4883L23.1348-10.4395L22.4902-11.0742L22.7344-12.1973C22.8613-12.7637 22.7051-13.2031 22.1191-13.7891L19.9219-15.9766C16.582-19.2969 12.1484-19.2188 9.25781-16.3281C8.83789-15.918 8.80859-15.3418 9.04297-14.9512C9.27734-14.5898 9.73633-14.3555 10.3809-14.5215C11.8457-14.8633 13.3691-14.9219 14.7949-13.9844L14.209-12.5293C14.0137-12.0508 13.9844-11.6504 14.1113-11.2891L3.04688-0.898438C2.06055 0.0195312 1.98242 0.996094 2.8418 1.86523ZM10.752-15.957C13.1836-17.7344 16.4746-17.4316 18.7012-15.2051L21.1328-12.793C21.3672-12.5586 21.4062-12.373 21.3379-12.0312L21.0156-10.5469L22.5195-9.0625L23.5059-9.12109C23.7598-9.13086 23.8379-9.11133 24.0332-8.91602L24.6094-8.33984L22.168-5.89844L21.5918-6.47461C21.3965-6.66992 21.3672-6.74805 21.377-7.01172L21.4453-7.98828L19.9512-9.47266L18.4277-9.21875C18.1055-9.15039 17.959-9.17969 17.7148-9.41406L15.7129-11.416C15.459-11.6504 15.4297-11.8164 15.5859-12.1875L16.4648-14.2773C14.9023-15.7324 12.8711-16.3574 10.8398-15.7617C10.6836-15.7227 10.625-15.8496 10.752-15.957ZM5.27344 2.30469L4.10156 1.14258C3.63281 0.683594 3.74023 0.341797 4.14062-0.0195312L14.9512-10.1953L16.416-8.71094L6.42578 2.27539C6.07422 2.67578 5.74219 2.77344 5.27344 2.30469Z"/>
  </g>
  <text style="stroke:none;fill:black;font-family:-apple-system,&quot;SF Pro Display&quot;,&quot;SF Pro Text&quot;,Helvetica,sans-serif;font-weight:bold;" transform="matrix(1 0 0 1 1289 1953)">Exporting</text>
  <text style="stroke:none;fill:black;font-family:-apple-system,&quot;SF Pro Display&quot;,&quot;SF Pro Text&quot;,Helvetica,sans-serif;" transform="matrix(1 0 0 1 1289 1971)">Symbols should be outlined when exporting to ensure the</text>
  <text style="stroke:none;fill:black;font-family:-apple-system,&quot;SF Pro Display&quot;,&quot;SF Pro Text&quot;,Helvetica,sans-serif;" transform="matrix(1 0 0 1 1289 1989)">design is preserved when submitting to Xcode.</text>
  <text id="template-version" style="stroke:none;fill:black;font-family:-apple-system,&quot;SF Pro Display&quot;,&quot;SF Pro Text&quot;,Helvetica,sans-serif;text-anchor:end;" transform="matrix(1 0 0 1 3036 1933)">Template v.2.0</text>
  <text style="stroke:none;fill:black;font-family:-apple-system,&quot;SF Pro Display&quot;,&quot;SF Pro Text&quot;,Helvetica,sans-serif;text-anchor:end;" transform="matrix(1 0 0 1 3036 1951)">Requires Xcode 12 or greater</text>
  <text style="stroke:none;fill:black;font-family:-apple-system,&quot;SF Pro Display&quot;,&quot;SF Pro Text&quot;,Helvetica,sans-serif;" transform="matrix(1 0 0 1 263 726)">Small</text>
  <text style="stroke:none;fill:black;font-family:-apple-system,&quot;SF Pro Display&quot;,&quot;SF Pro Text&quot;,Helvetica,sans-serif;" transform="matrix(1 0 0 1 263 1156)">Medium</text>
  <text style="stroke:none;fill:black;font-family:-apple-system,&quot;SF Pro Display&quot;,&quot;SF Pro Text&quot;,Helvetica,sans-serif;" transform="matrix(1 0 0 1 263 1586)">Large</text>
 </g>
 <g id="Guides">
  <g id="H-reference" style="fill:#27AAE1;stroke:none;" transform="matrix(1 0 0 1 339 696)">
   <path d="M0.976562 0L3.66211 0L12.9883-24.4629L45.752-24.4629L55.127 0L57.7637 0L30.6152-70.459L28.125-70.459ZM29.3457-67.1387L29.4434-67.1387L44.873-26.709L13.8672-26.709Z"/>
  </g>
  <line id="Baseline-S" style="fill:none;stroke:#27AAE1;opacity:1;stroke-width:0.5;" x1="263" x2="3036" y1="696" y2="696"/>
  <line id="Capline-S" style="fill:none;stroke:#27AAE1;opacity:1;stroke-width:0.5;" x1="263" x2="3036" y1="625.541" y2="625.541"/>
  <g id="H-reference" style="fill:#27AAE1;stroke:none;" transform="matrix(1 0 0 1 339 1126)">
   <path d="M0.976562 0L3.66211 0L12.9883-24.4629L45.752-24.4629L55.127 0L57.7637 0L30.6152-70.459L28.125-70.459ZM29.3457-67.1387L29.4434-67.1387L44.873-26.709L13.8672-26.709Z"/>
  </g>
  <line id="Baseline-M" style="fill:none;stroke:#27AAE1;opacity:1;stroke-width:0.5;" x1="263" x2="3036" y1="1126" y2="1126"/>
  <line id="Capline-M" style="fill:none;stroke:#27AAE1;opacity:1;stroke-width:0.5;" x1="263" x2="3036" y1="1055.54" y2="1055.54"/>
  <g id="H-reference" style="fill:#27AAE1;stroke:none;" transform="matrix(1 0 0 1 339 1556)">
   <path d="M0.976562 0L3.66211 0L12.9883-24.4629L45.752-24.4629L55.127 0L57.7637 0L30.6152-70.459L28.125-70.459ZM29.3457-67.1387L29.4434-67.1387L44.873-26.709L13.8672-26.709Z"/>
  </g>
  <line id="Baseline-L" style="fill:none;stroke:#27AAE1;opacity:1;stroke-width:0.5;" x1="263" x2="3036" y1="1556" y2="1556"/>
  <line id="Capline-L" style="fill:none;stroke:#27AAE1;opacity:1;stroke-width:0.5;" x1="263" x2="3036" y1="1485.54" y2="1485.54"/>
  <line id="left-margin" x1="1396.5944265189628" x2="1396.5944265189628" y1="1030.79" y2="1150.12" style="fill:none;stroke:#00AEEF;stroke-width:0.5;opacity:1.0;"/>
  <line id="right-margin" x1="1505.665573481037" x2="1505.665573481037" y1="1030.79" y2="1150.12" style="fill:none;stroke:#00AEEF;stroke-width:0.5;opacity:1.0;"/>
 </g>
 <g id="Symbols">
  <g id="Black-L" transform="matrix(1.0,0.0,0.0,1.0,2864.3291102094618,1443.3840407616583)">  <path stroke-linecap="round" fill-opacity="1" stroke-width="3px" stroke-dasharray="none" stroke-miterlimit="4" fill="#000000" stroke-linejoin="round" stroke="none" fill-rule="nonzero" stroke-opacity="1" d="M74.604,16.374L66.01,16.357C39.267,16.293,16.454,37.972,16.269,64.398L16.269,86.707C16.269,89.915,15.901,91.655,15.279,92.604L13.592,95.177C5.414,107.604,14.237,124.345,29.225,124.345L111.477,124.345C126.463,124.345,135.275,107.612,127.103,95.167L125.427,92.61C124.804,91.658,124.433,89.904,124.433,86.702L124.433,64.494L124.432,64.337C124.112,37.969,101.323,16.438,74.609,16.374ZM74.547,42.287C87.361,42.317,98.377,52.725,98.522,64.652L98.521,64.494L98.521,86.702C98.521,94.486,99.872,100.882,103.749,106.806L105.435,109.379C102.381,104.728,105.697,98.433,111.477,98.433L29.225,98.433C35.003,98.433,38.324,104.734,35.252,109.401L36.949,106.812C40.833,100.89,42.181,94.506,42.181,86.707L42.181,64.488C42.264,52.663,53.234,42.239,65.952,42.269L74.551,42.287Z"/>
  <path fill="#000000" fill-opacity="1" stroke-opacity="1" stroke-dasharray="none" fill-rule="nonzero" stroke-linecap="round" stroke="none" stroke-miterlimit="4" stroke-width="3px" stroke-linejoin="round" d="M74.982,111.389C74.982,112.617,74.494,113.795,73.626,114.664C72.757,115.532,71.579,116.02,70.351,116.02C69.122,116.02,67.944,115.532,67.076,114.664C66.207,113.795,65.719,112.617,65.719,111.389C65.719,104.233,59.919,98.433,52.763,98.433C45.608,98.433,39.807,104.233,39.807,111.389C39.807,119.49,43.025,127.259,48.753,132.987C54.481,138.715,62.25,141.933,70.351,141.933C78.452,141.933,86.221,138.715,91.949,132.987C97.677,127.259,100.895,119.49,100.895,111.389C100.895,104.233,95.094,98.433,87.939,98.433C80.783,98.433,74.982,104.233,74.982,111.389Z"/>
  <path fill-rule="nonzero" stroke-miterlimit="4" stroke-linecap="round" stroke-dasharray="none" fill-opacity="1" stroke-opacity="1" stroke-width="3px" stroke="none" stroke-linejoin="round" fill="#000000" d="M70.351,24.681C70.024,24.681,69.711,24.552,69.48,24.321C69.249,24.09,69.12,23.777,69.12,23.45L69.12,29.313L82.076,29.313L82.076,16.357L58.626,16.357L58.626,29.313L71.582,29.313L71.582,23.45C71.582,23.777,71.452,24.09,71.222,24.321C70.991,24.552,70.678,24.681,70.351,24.681ZM70.351,-1.231C63.805,-1.231,57.527,1.369,52.898,5.998C48.27,10.627,45.669,16.904,45.669,23.45L45.669,29.313C45.669,36.468,51.47,42.269,58.626,42.269L82.076,42.269C89.232,42.269,95.032,36.468,95.032,29.313L95.032,23.45C95.032,16.904,92.432,10.627,87.803,5.998C83.175,1.369,76.897,-1.231,70.351,-1.231Z"/>
</g>
  <g id="Heavy-L" transform="matrix(1.0,0.0,0.0,1.0,2567.6191102094617,1443.3840407616583)">  <path stroke-opacity="1" fill="#000000" stroke-miterlimit="4" stroke-width="3px" fill-rule="nonzero" stroke-linejoin="round" stroke="none" stroke-linecap="round" fill-opacity="1" stroke-dasharray="none" d="M74.601,17.793L66.007,17.775C40.032,17.713,17.867,38.776,17.688,64.408L17.687,86.707C17.687,90.167,17.266,92.16,16.465,93.382L14.779,95.955C7.216,107.447,15.374,122.926,29.225,122.926L111.477,122.926C125.326,122.926,133.474,107.454,125.917,95.946L124.24,93.387C123.439,92.163,123.014,90.154,123.014,86.702L123.014,64.494L123.014,64.354C122.703,38.777,100.559,17.855,74.605,17.793ZM74.55,40.868C88.125,40.9,99.786,51.917,99.94,64.634L99.939,64.494L99.939,86.702C99.939,94.235,101.237,100.377,104.936,106.029L106.622,108.602C104.182,104.886,106.834,99.851,111.477,99.851L29.225,99.851C33.866,99.851,36.522,104.891,34.067,108.621L35.762,106.034C39.468,100.385,40.762,94.254,40.762,86.707L40.762,64.488C40.851,51.859,52.47,40.818,65.956,40.85L74.554,40.868Z"/>
  <path stroke-miterlimit="4" stroke-dasharray="none" stroke="none" fill-rule="nonzero" stroke-linecap="round" fill="#000000" stroke-width="3px" stroke-linejoin="round" stroke-opacity="1" fill-opacity="1" d="M76.401,111.389C76.401,112.994,75.764,114.533,74.629,115.667C73.495,116.802,71.956,117.439,70.351,117.439C68.746,117.439,67.207,116.802,66.073,115.667C64.938,114.533,64.301,112.994,64.301,111.389C64.301,105.017,59.135,99.851,52.763,99.851C46.391,99.851,41.226,105.017,41.226,111.389C41.226,119.113,44.294,126.522,49.756,131.984C55.218,137.446,62.626,140.514,70.351,140.514C78.075,140.514,85.484,137.446,90.946,131.984C96.408,126.522,99.476,119.113,99.476,111.389C99.476,105.017,94.311,99.851,87.939,99.851C81.567,99.851,76.401,105.017,76.401,111.389Z"/>
  <path stroke-linecap="round" stroke-miterlimit="4" stroke-opacity="1" stroke="none" fill="#000000" stroke-dasharray="none" stroke-linejoin="round" stroke-width="3px" fill-opacity="1" fill-rule="nonzero" d="M70.351,23.263C70.401,23.263,70.448,23.282,70.483,23.318C70.519,23.353,70.538,23.401,70.538,23.45L70.538,29.313L82.076,29.313L82.076,17.775L58.626,17.775L58.626,29.313L70.163,29.313L70.163,23.45C70.163,23.401,70.183,23.353,70.218,23.318C70.253,23.282,70.301,23.263,70.351,23.263ZM70.351,0.188C64.181,0.188,58.264,2.639,53.902,7.001C49.539,11.364,47.088,17.281,47.088,23.45L47.088,29.313C47.088,35.685,52.254,40.85,58.626,40.85L82.076,40.85C88.448,40.85,93.614,35.685,93.614,29.313L93.614,23.45C93.614,17.281,91.163,11.364,86.8,7.001C82.438,2.639,76.52,0.188,70.351,0.188Z"/>
</g>
  <g id="Bold-L" transform="matrix(1.0,0.0,0.0,1.0,2270.9091102094617,1443.3840407616583)">  <path stroke="none" fill-rule="nonzero" stroke-linejoin="round" stroke-linecap="round" stroke-dasharray="none" stroke-width="3px" fill-opacity="1" stroke-miterlimit="4" fill="#000000" stroke-opacity="1" d="M74.599,19.212L66.004,19.194C40.796,19.134,19.28,39.581,19.106,64.418L19.106,86.707C19.106,90.418,18.631,92.666,17.651,94.16L15.966,96.733C9.018,107.289,16.511,121.508,29.225,121.508L111.477,121.508C124.189,121.508,131.673,107.297,124.731,96.725L123.054,94.165C122.074,92.668,121.596,90.405,121.596,86.702L121.596,64.494L121.595,64.371C121.294,39.585,99.794,19.272,74.602,19.212ZM74.554,39.449C88.89,39.484,101.195,51.109,101.359,64.617L101.358,64.494L101.358,86.702C101.358,93.984,102.602,99.872,106.123,105.252L107.809,107.824C105.983,105.044,107.971,101.27,111.477,101.27L29.225,101.27C32.729,101.27,34.72,105.048,32.882,107.841L34.576,105.256C38.103,99.879,39.344,94.003,39.344,86.707L39.344,64.488C39.438,51.055,51.705,39.398,65.959,39.432L74.557,39.449Z"/>
  <path stroke="none" fill="#000000" fill-opacity="1" stroke-dasharray="none" stroke-linejoin="round" stroke-miterlimit="4" stroke-width="3px" fill-rule="nonzero" stroke-opacity="1" stroke-linecap="round" d="M77.82,111.389C77.82,113.37,77.033,115.27,75.632,116.67C74.232,118.071,72.332,118.858,70.351,118.858C68.37,118.858,66.47,118.071,65.07,116.67C63.669,115.27,62.882,113.37,62.882,111.389C62.882,105.8,58.352,101.27,52.763,101.27C47.175,101.27,42.644,105.8,42.644,111.389C42.644,118.737,45.563,125.785,50.759,130.98C55.955,136.176,63.003,139.095,70.351,139.095C77.699,139.095,84.747,136.176,89.942,130.98C95.138,125.785,98.057,118.737,98.057,111.389C98.057,105.8,93.527,101.27,87.939,101.27C82.35,101.27,77.82,105.8,77.82,111.389Z"/>
  <path stroke-linejoin="round" stroke-dasharray="none" fill-opacity="1" stroke-opacity="1" stroke-miterlimit="4" stroke="none" fill="#000000" fill-rule="nonzero" stroke-width="3px" stroke-linecap="round" d="M70.351,21.844C70.777,21.844,71.185,22.013,71.487,22.314C71.788,22.616,71.957,23.024,71.957,23.45L71.957,29.313L82.076,29.313L82.076,19.194L58.626,19.194L58.626,29.313L68.745,29.313L68.745,23.45C68.745,23.024,68.914,22.616,69.215,22.314C69.516,22.013,69.925,21.844,70.351,21.844ZM70.351,1.606C64.558,1.606,59.001,3.908,54.905,8.004C50.808,12.101,48.507,17.657,48.507,23.45L48.507,29.313C48.507,34.901,53.037,39.432,58.626,39.432L82.076,39.432C87.664,39.432,92.195,34.901,92.195,29.313L92.195,23.45C92.195,17.657,89.893,12.101,85.797,8.004C81.7,3.908,76.144,1.606,70.351,1.606Z"/>
</g>
  <g id="Semibold-L" transform="matrix(1.0,0.0,0.0,1.0,1974.199110209462,1443.3840407616583)">  <path stroke="none" fill="#000000" stroke-linejoin="round" stroke-linecap="round" stroke-opacity="1" fill-opacity="1" stroke-dasharray="none" fill-rule="nonzero" stroke-miterlimit="4" stroke-width="3px" d="M74.596,20.63L66.001,20.613C41.561,20.554,20.693,40.385,20.525,64.428L20.525,86.707C20.525,90.669,19.997,93.172,18.837,94.939L17.152,97.51C10.82,107.132,17.648,120.089,29.225,120.089L111.477,120.089C123.052,120.089,129.872,107.139,123.545,97.503L121.867,94.942C120.709,93.173,120.177,90.656,120.177,86.702L120.177,64.494L120.176,64.388C119.885,40.393,99.03,20.689,74.599,20.63ZM74.557,38.03C89.654,38.067,102.604,50.301,102.777,64.6L102.777,64.494L102.777,86.702C102.777,93.733,103.967,99.367,107.31,104.475L108.995,107.047C107.784,105.202,109.108,102.689,111.477,102.689L29.225,102.689C31.592,102.689,32.918,105.205,31.697,107.061L33.389,104.479C36.738,99.373,37.925,93.752,37.925,86.707L37.925,64.488C38.025,50.25,50.94,37.977,65.962,38.013L74.56,38.03Z"/>
  <path stroke="none" stroke-dasharray="none" fill="#000000" stroke-linecap="round" stroke-opacity="1" fill-rule="nonzero" stroke-width="3px" fill-opacity="1" stroke-linejoin="round" stroke-miterlimit="4" d="M79.239,111.389C79.239,113.746,78.302,116.007,76.635,117.674C74.969,119.34,72.708,120.277,70.351,120.277C67.994,120.277,65.733,119.34,64.066,117.674C62.4,116.007,61.463,113.746,61.463,111.389C61.463,106.584,57.568,102.689,52.763,102.689C47.958,102.689,44.063,106.584,44.063,111.389C44.063,118.361,46.833,125.047,51.763,129.977C56.692,134.907,63.379,137.677,70.351,137.677C77.323,137.677,84.009,134.907,88.939,129.977C93.869,125.047,96.639,118.361,96.639,111.389C96.639,106.584,92.744,102.689,87.939,102.689C83.134,102.689,79.239,106.584,79.239,111.389Z"/>
  <path stroke-linecap="round" stroke-opacity="1" stroke-width="3px" fill="#000000" stroke-miterlimit="4" stroke="none" fill-rule="nonzero" stroke-dasharray="none" fill-opacity="1" stroke-linejoin="round" d="M70.351,20.425C71.153,20.425,71.923,20.744,72.49,21.311C73.057,21.879,73.376,22.648,73.376,23.45L73.376,29.313L82.076,29.313L82.076,20.613L58.626,20.613L58.626,29.313L67.326,29.313L67.326,23.45C67.326,22.648,67.645,21.879,68.212,21.311C68.779,20.744,69.549,20.425,70.351,20.425ZM70.351,3.025C64.934,3.025,59.739,5.177,55.908,9.008C52.078,12.838,49.926,18.033,49.926,23.45L49.926,29.313C49.926,34.118,53.821,38.013,58.626,38.013L82.076,38.013C86.881,38.013,90.776,34.118,90.776,29.313L90.776,23.45C90.776,18.033,88.624,12.838,84.794,9.008C80.963,5.177,75.768,3.025,70.351,3.025Z"/>
</g>
  <g id="Medium-L" transform="matrix(1.0,0.0,0.0,1.0,1677.489110209462,1443.3840407616583)">  <path stroke-miterlimit="4" stroke-opacity="1" stroke="none" stroke-linecap="round" fill-opacity="1" stroke-dasharray="none" stroke-width="3px" fill="#000000" stroke-linejoin="round" fill-rule="nonzero" d="M74.593,22.049L65.998,22.032C42.326,21.975,22.106,41.189,21.944,64.437L21.944,86.707C21.944,90.921,21.362,93.677,20.024,95.717L18.339,98.288C12.621,106.975,18.785,118.67,29.225,118.67L111.477,118.67C121.915,118.67,128.071,106.981,122.359,98.282L120.68,95.72C119.344,93.678,118.758,90.907,118.758,86.702L118.758,64.494C118.476,41.201,98.265,22.106,74.595,22.049ZM74.56,36.612C90.419,36.65,104.013,49.493,104.196,64.583L104.196,86.702C104.196,93.483,105.332,98.862,108.497,103.698L110.182,106.269C109.585,105.36,110.245,104.108,111.477,104.108L29.225,104.108C30.455,104.108,31.116,105.362,30.512,106.281L32.202,103.701C35.373,98.868,36.506,93.5,36.506,86.707L36.506,64.488C36.611,49.446,50.175,36.556,65.966,36.594L74.563,36.612Z"/>
  <path stroke-dasharray="none" stroke-miterlimit="4" fill="#000000" stroke-opacity="1" stroke-linejoin="round" fill-opacity="1" stroke-width="3px" stroke="none" stroke-linecap="round" fill-rule="nonzero" d="M80.657,111.389C80.657,114.122,79.571,116.744,77.639,118.677C75.706,120.609,73.084,121.695,70.351,121.695C67.617,121.695,64.996,120.609,63.063,118.677C61.13,116.744,60.044,114.122,60.044,111.389C60.044,107.368,56.785,104.108,52.763,104.108C48.742,104.108,45.482,107.368,45.482,111.389C45.482,117.985,48.102,124.31,52.766,128.974C57.43,133.638,63.755,136.258,70.351,136.258C76.947,136.258,83.272,133.638,87.936,128.974C92.6,124.31,95.22,117.985,95.22,111.389C95.22,107.368,91.96,104.108,87.939,104.108C83.917,104.108,80.657,107.368,80.657,111.389Z"/>
  <path stroke-width="3px" fill="#000000" stroke-dasharray="none" fill-rule="nonzero" fill-opacity="1" stroke-miterlimit="4" stroke-opacity="1" stroke="none" stroke-linejoin="round" stroke-linecap="round" d="M70.351,19.006C71.529,19.006,72.66,19.475,73.493,20.308C74.326,21.141,74.795,22.272,74.795,23.45L74.795,29.313L82.076,29.313L82.076,22.032L58.626,22.032L58.626,29.313L65.907,29.313L65.907,23.45C65.907,22.272,66.375,21.141,67.209,20.308C68.042,19.475,69.172,19.006,70.351,19.006ZM70.351,4.444C65.31,4.444,60.476,6.446,56.911,10.011C53.347,13.575,51.344,18.41,51.344,23.45L51.344,29.313C51.344,33.334,54.604,36.594,58.626,36.594L82.076,36.594C86.097,36.594,89.357,33.334,89.357,29.313L89.357,23.45C89.357,18.41,87.355,13.575,83.79,10.011C80.226,6.446,75.392,4.444,70.351,4.444Z"/>
</g>
  <g id="Regular-L" transform="matrix(1.0,0.0,0.0,1.0,1380.779110209462,1443.3840407616583)">  <path stroke-dasharray="none" stroke="none" fill-rule="nonzero" stroke-miterlimit="4" stroke-width="3px" fill-opacity="1" stroke-linejoin="round" stroke-opacity="1" fill="#000000" stroke-linecap="round" d="M74.59,23.468L65.995,23.45C43.09,23.396,23.519,41.994,23.362,64.447L23.362,86.707C23.362,91.172,22.727,94.183,21.21,96.495L19.526,99.065C14.423,106.818,19.922,117.251,29.225,117.251L111.477,117.251C120.778,117.251,126.27,106.823,121.173,99.061L119.494,96.498C117.979,94.183,117.339,91.158,117.339,86.702L117.339,64.494C117.067,42.008,97.501,23.523,74.592,23.468ZM74.564,35.193C91.183,35.233,105.422,48.685,105.615,64.565L105.614,86.702C105.614,93.232,106.697,98.357,109.685,102.921L111.369,105.492C111.386,105.518,111.382,105.526,111.477,105.526L29.225,105.526C29.318,105.526,29.315,105.52,29.326,105.501L31.015,102.924C34.008,98.362,35.087,93.249,35.087,86.707L35.087,64.488C35.198,48.642,49.411,35.136,65.969,35.175L74.566,35.193Z"/>
  <path stroke="none" stroke-linecap="round" fill-rule="nonzero" fill="#000000" stroke-width="3px" stroke-miterlimit="4" stroke-linejoin="round" stroke-opacity="1" fill-opacity="1" stroke-dasharray="none" d="M82.076,111.389C82.076,114.499,80.841,117.481,78.642,119.68C76.443,121.879,73.461,123.114,70.351,123.114C67.241,123.114,64.259,121.879,62.06,119.68C59.861,117.481,58.626,114.499,58.626,111.389C58.626,108.151,56.001,105.526,52.763,105.526C49.525,105.526,46.901,108.151,46.901,111.389C46.901,117.608,49.371,123.573,53.769,127.971C58.167,132.369,64.131,134.839,70.351,134.839C76.57,134.839,82.535,132.369,86.933,127.971C91.331,123.573,93.801,117.608,93.801,111.389C93.801,108.151,91.176,105.526,87.939,105.526C84.701,105.526,82.076,108.151,82.076,111.389Z"/>
  <path stroke-opacity="1" stroke-miterlimit="4" fill="#000000" stroke-linecap="round" stroke-dasharray="none" fill-opacity="1" stroke-width="3px" stroke-linejoin="round" stroke="none" fill-rule="nonzero" d="M70.351,17.588C71.906,17.588,73.397,18.205,74.496,19.305C75.596,20.404,76.213,21.896,76.213,23.45L76.213,29.313L82.076,29.313L82.076,23.45L58.626,23.45L58.626,29.313L64.488,29.313L64.488,23.45C64.488,21.896,65.106,20.404,66.206,19.305C67.305,18.205,68.796,17.588,70.351,17.588ZM70.351,5.863C65.686,5.863,61.213,7.716,57.915,11.014C54.616,14.312,52.763,18.786,52.763,23.45L52.763,29.313C52.763,32.551,55.388,35.175,58.626,35.175L82.076,35.175C85.314,35.175,87.939,32.551,87.939,29.313L87.939,23.45C87.939,18.786,86.086,14.312,82.787,11.014C79.489,7.716,75.015,5.863,70.351,5.863Z"/>
</g>
  <g id="Light-L" transform="matrix(1.0,0.0,0.0,1.0,1084.0691102094622,1443.3840407616583)">  <path fill="#000000" stroke-miterlimit="4" stroke-linejoin="round" stroke-linecap="round" stroke-width="3px" stroke="none" fill-rule="nonzero" stroke-opacity="1" fill-opacity="1" stroke-dasharray="none" d="M74.588,24.445L65.993,24.427C43.617,24.374,24.493,42.548,24.339,64.454L24.339,86.707C24.339,91.345,23.667,94.531,22.027,97.031L20.343,99.601C15.664,106.71,20.705,116.274,29.225,116.274L111.477,116.274C119.995,116.274,125.03,106.714,120.356,99.597L118.676,97.033C117.038,94.531,116.362,91.331,116.362,86.702L116.362,64.494C116.096,42.565,96.974,24.499,74.589,24.445ZM74.566,34.216C91.71,34.257,106.392,48.129,106.592,64.554L106.591,86.702C106.591,93.059,107.637,98.009,110.502,102.386L112.186,104.956C112.626,105.627,112.165,106.503,111.477,106.503L29.225,106.503C28.535,106.503,28.074,105.628,28.51,104.964L30.198,102.388C33.068,98.014,34.11,93.076,34.11,86.707L34.11,64.488C34.225,48.088,48.884,34.157,65.972,34.198L74.568,34.216Z"/>
  <path stroke-width="3px" fill="#000000" stroke-linejoin="round" fill-opacity="1" stroke-dasharray="none" stroke-miterlimit="4" stroke-opacity="1" fill-rule="nonzero" stroke-linecap="round" stroke="none" d="M83.053,111.389C83.053,114.758,81.715,117.989,79.333,120.371C76.951,122.753,73.72,124.091,70.351,124.091C66.982,124.091,63.751,122.753,61.369,120.371C58.987,117.989,57.649,114.758,57.649,111.389C57.649,108.691,55.461,106.503,52.763,106.503C50.065,106.503,47.878,108.691,47.878,111.389C47.878,117.349,50.245,123.065,54.46,127.28C58.674,131.494,64.391,133.862,70.351,133.862C76.311,133.862,82.027,131.494,86.242,127.28C90.456,123.065,92.824,117.349,92.824,111.389C92.824,108.691,90.637,106.503,87.939,106.503C85.24,106.503,83.053,108.691,83.053,111.389Z"/>
  <path fill-rule="nonzero" fill-opacity="1" stroke="none" stroke-opacity="1" stroke-width="3px" fill="#000000" stroke-linecap="round" stroke-miterlimit="4" stroke-dasharray="none" stroke-linejoin="round" d="M70.351,16.611C72.165,16.611,73.905,17.331,75.187,18.614C76.47,19.897,77.191,21.636,77.191,23.45L77.191,29.313L82.076,24.427L58.626,24.427L63.511,29.313L63.511,23.45C63.511,21.636,64.232,19.897,65.515,18.614C66.797,17.331,68.537,16.611,70.351,16.611ZM70.351,6.84C65.946,6.84,61.72,8.59,58.605,11.705C55.49,14.82,53.74,19.045,53.74,23.45L53.74,29.313C53.74,32.011,55.928,34.198,58.626,34.198L82.076,34.198C84.774,34.198,86.962,32.011,86.962,29.313L86.962,23.45C86.962,19.045,85.211,14.82,82.096,11.705C78.981,8.59,74.756,6.84,70.351,6.84Z"/>
</g>
  <g id="Thin-L" transform="matrix(1.0,0.0,0.0,1.0,787.3591102094621,1443.3840407616583)">  <path stroke-width="3px" fill="#000000" stroke-opacity="1" stroke-miterlimit="4" fill-rule="nonzero" fill-opacity="1" stroke-dasharray="none" stroke="none" stroke-linejoin="round" stroke-linecap="round" d="M74.586,25.422L65.991,25.404C44.144,25.352,25.466,43.102,25.317,64.461L25.316,86.707C25.316,91.518,24.607,94.879,22.844,97.567L21.16,100.136C16.905,106.602,21.488,115.297,29.225,115.297L111.477,115.297C119.212,115.297,123.789,106.605,119.539,100.133L117.859,97.569C116.098,94.878,115.385,91.504,115.385,86.702L115.385,64.494C115.126,43.121,96.448,25.474,74.587,25.422ZM74.568,33.239C92.236,33.281,107.363,47.573,107.569,64.542L107.568,86.702C107.568,92.886,108.577,97.661,111.32,101.851L113.003,104.421C113.867,105.735,112.948,107.481,111.477,107.481L29.225,107.481C27.752,107.481,26.833,105.736,27.694,104.427L29.381,101.853C32.128,97.666,33.133,92.903,33.133,86.707L33.133,64.488C33.252,47.534,48.357,33.179,65.974,33.221L74.57,33.239Z"/>
  <path stroke-dasharray="none" fill-rule="nonzero" stroke-linecap="round" fill="#000000" stroke-miterlimit="4" stroke="none" stroke-opacity="1" stroke-linejoin="round" stroke-width="3px" fill-opacity="1" d="M84.03,111.389C84.03,115.017,82.589,118.496,80.024,121.062C77.458,123.627,73.979,125.068,70.351,125.068C66.723,125.068,63.243,123.627,60.678,121.062C58.113,118.496,56.672,115.017,56.672,111.389C56.672,109.23,54.922,107.481,52.763,107.481C50.605,107.481,48.855,109.23,48.855,111.389C48.855,117.09,51.12,122.558,55.151,126.589C59.182,130.62,64.65,132.885,70.351,132.885C76.052,132.885,81.52,130.62,85.551,126.589C89.582,122.558,91.847,117.09,91.847,111.389C91.847,109.23,90.097,107.481,87.939,107.481C85.78,107.481,84.03,109.23,84.03,111.389Z"/>
  <path stroke-linecap="round" stroke="none" fill-rule="nonzero" stroke-opacity="1" stroke-dasharray="none" stroke-linejoin="round" fill-opacity="1" stroke-miterlimit="4" fill="#000000" stroke-width="3px" d="M70.351,15.634C72.424,15.634,74.412,16.457,75.878,17.923C77.344,19.389,78.168,21.377,78.168,23.45L78.168,29.313L82.076,25.404L58.626,25.404L62.534,29.313L62.534,23.45C62.534,21.377,63.358,19.389,64.824,17.923C66.29,16.457,68.278,15.634,70.351,15.634ZM70.351,7.817C66.205,7.817,62.228,9.464,59.296,12.396C56.365,15.328,54.717,19.304,54.717,23.45L54.717,29.313C54.717,31.471,56.467,33.221,58.626,33.221L82.076,33.221C84.235,33.221,85.984,31.471,85.984,29.313L85.984,23.45C85.984,19.304,84.337,15.328,81.405,12.396C78.474,9.464,74.497,7.817,70.351,7.817Z"/>
</g>
  <g id="Ultralight-L" transform="matrix(1.0,0.0,0.0,1.0,490.6491102094621,1443.3840407616583)">  <path stroke="none" stroke-dasharray="none" fill-opacity="1" stroke-width="3px" stroke-linejoin="round" stroke-opacity="1" stroke-linecap="round" stroke-miterlimit="4" fill="#000000" fill-rule="nonzero" d="M74.584,26.399L65.989,26.382C44.671,26.331,26.439,43.656,26.294,64.468L26.294,86.707C26.294,91.691,25.547,95.228,23.661,98.103L21.977,100.672C18.146,106.493,22.271,114.32,29.225,114.32L111.477,114.32C118.429,114.32,122.549,106.497,118.723,100.67L117.042,98.104C115.158,95.226,114.408,91.676,114.408,86.702L114.408,64.494C114.155,43.678,95.922,26.45,74.585,26.399ZM74.571,32.262C92.763,32.305,108.333,47.016,108.546,64.53L108.546,86.702C108.546,92.713,109.518,97.313,112.137,101.316L113.821,103.885C115.107,105.844,113.731,108.458,111.477,108.458L29.225,108.458C26.969,108.458,25.592,105.844,26.878,103.89L28.564,101.317C31.188,97.317,32.156,92.73,32.156,86.707L32.156,64.488C32.279,46.98,47.831,32.201,65.976,32.244L74.572,32.262Z"/>
  <path stroke-opacity="1" stroke="none" stroke-dasharray="none" fill-opacity="1" stroke-miterlimit="4" stroke-linecap="round" stroke-width="3px" fill-rule="nonzero" fill="#000000" stroke-linejoin="round" d="M85.007,111.389C85.007,115.276,83.463,119.004,80.715,121.753C77.966,124.501,74.238,126.045,70.351,126.045C66.464,126.045,62.736,124.501,59.987,121.753C57.239,119.004,55.694,115.276,55.694,111.389C55.694,109.77,54.382,108.458,52.763,108.458C51.144,108.458,49.832,109.77,49.832,111.389C49.832,116.831,51.994,122.05,55.842,125.898C59.69,129.746,64.909,131.908,70.351,131.908C75.793,131.908,81.012,129.746,84.86,125.898C88.708,122.05,90.87,116.831,90.87,111.389C90.87,109.77,89.558,108.458,87.939,108.458C86.32,108.458,85.007,109.77,85.007,111.389Z"/>
  <path stroke-width="3px" stroke-linecap="round" fill-rule="nonzero" stroke-miterlimit="4" fill="#000000" fill-opacity="1" stroke-dasharray="none" stroke-linejoin="round" stroke-opacity="1" stroke="none" d="M70.351,14.656C72.683,14.656,74.92,15.583,76.569,17.232C78.218,18.881,79.145,21.118,79.145,23.45L79.145,29.313L82.076,26.382L58.626,26.382L61.557,29.313L61.557,23.45C61.557,21.118,62.484,18.881,64.133,17.232C65.782,15.583,68.019,14.656,70.351,14.656ZM70.351,8.794C66.464,8.794,62.736,10.338,59.987,13.087C57.239,15.835,55.694,19.563,55.694,23.45L55.694,29.313C55.694,30.932,57.007,32.244,58.626,32.244L82.076,32.244C83.695,32.244,85.007,30.932,85.007,29.313L85.007,23.45C85.007,19.563,83.463,15.835,80.714,13.087C77.966,10.338,74.238,8.794,70.351,8.794Z"/>
</g>
  <g id="Black-M" transform="matrix(1.0,0.0,0.0,1.0,2880.1444265189625,1030.7808887021092)">  <path stroke-linecap="round" fill-opacity="1" stroke-width="3px" stroke-dasharray="none" stroke-miterlimit="4" fill="#000000" stroke-linejoin="round" stroke="none" fill-rule="nonzero" stroke-opacity="1" d="M57.833,12.693L51.17,12.68C30.439,12.63,12.755,29.435,12.612,49.921L12.611,67.215C12.611,69.702,12.327,71.05,11.844,71.786L10.537,73.781C4.197,83.414,11.036,96.392,22.655,96.392L86.416,96.392C98.033,96.392,104.864,83.42,98.529,73.773L97.23,71.79C96.747,71.052,96.46,69.693,96.46,67.211L96.46,49.995L96.459,49.873C96.211,29.433,78.545,12.743,57.836,12.693ZM57.788,32.78C67.722,32.804,76.261,40.872,76.373,50.118L76.373,49.995L76.373,67.211C76.373,73.245,77.42,78.203,80.426,82.795L81.733,84.79C79.365,81.185,81.935,76.304,86.416,76.304L22.655,76.304C27.134,76.304,29.708,81.189,27.327,84.807L28.643,82.8C31.654,78.21,32.699,73.26,32.699,67.215L32.699,49.991C32.763,40.824,41.267,32.743,51.126,32.767L57.792,32.78Z"/>
  <path fill="#000000" fill-opacity="1" stroke-opacity="1" stroke-dasharray="none" fill-rule="nonzero" stroke-linecap="round" stroke="none" stroke-miterlimit="4" stroke-width="3px" stroke-linejoin="round" d="M58.126,86.348C58.126,87.3,57.748,88.213,57.074,88.887C56.401,89.56,55.488,89.938,54.536,89.938C53.583,89.938,52.67,89.56,51.997,88.887C51.324,88.213,50.945,87.3,50.945,86.348C50.945,80.801,46.449,76.304,40.902,76.304C35.355,76.304,30.858,80.801,30.858,86.348C30.858,92.628,33.353,98.65,37.793,103.091C42.233,107.531,48.256,110.026,54.536,110.026C60.815,110.026,66.838,107.531,71.278,103.091C75.719,98.65,78.213,92.628,78.213,86.348C78.213,80.801,73.716,76.304,68.169,76.304C62.623,76.304,58.126,80.801,58.126,86.348Z"/>
  <path fill-rule="nonzero" stroke-miterlimit="4" stroke-linecap="round" stroke-dasharray="none" fill-opacity="1" stroke-opacity="1" stroke-width="3px" stroke="none" stroke-linejoin="round" fill="#000000" d="M54.536,19.133C54.282,19.133,54.04,19.032,53.861,18.853C53.682,18.674,53.581,18.432,53.581,18.179L53.581,22.723L63.625,22.723L63.625,12.68L45.446,12.68L45.446,22.723L55.49,22.723L55.49,18.179C55.49,18.432,55.389,18.674,55.211,18.853C55.031,19.032,54.789,19.133,54.536,19.133ZM54.536,-0.954C49.461,-0.954,44.595,1.061,41.007,4.65C37.419,8.238,35.403,13.104,35.403,18.179L35.403,22.723C35.403,28.27,39.899,32.767,45.446,32.767L63.625,32.767C69.172,32.767,73.668,28.27,73.668,22.723L73.668,18.179C73.668,13.104,71.653,8.238,68.065,4.65C64.477,1.061,59.61,-0.954,54.536,-0.954Z"/>
</g>
  <g id="Heavy-M" transform="matrix(1.0,0.0,0.0,1.0,2583.4344265189625,1030.7808887021092)">  <path stroke-opacity="1" fill="#000000" stroke-miterlimit="4" stroke-width="3px" fill-rule="nonzero" stroke-linejoin="round" stroke="none" stroke-linecap="round" fill-opacity="1" stroke-dasharray="none" d="M57.831,13.793L51.168,13.779C31.032,13.731,13.85,30.059,13.711,49.928L13.711,67.215C13.711,69.897,13.385,71.442,12.763,72.389L11.457,74.384C5.594,83.292,11.918,95.292,22.655,95.292L86.416,95.292C97.152,95.292,103.468,83.298,97.61,74.377L96.31,72.393C95.689,71.444,95.36,69.887,95.36,67.211L95.36,49.995L95.359,49.887C95.118,30.06,77.953,13.841,57.834,13.793ZM57.791,31.681C68.314,31.706,77.353,40.246,77.473,50.104L77.472,49.995L77.472,67.211C77.472,73.051,78.478,77.812,81.346,82.193L82.653,84.187C80.762,81.307,82.817,77.404,86.416,77.404L22.655,77.404C26.253,77.404,28.312,81.311,26.408,84.203L27.723,82.197C30.596,77.818,31.599,73.065,31.599,67.215L31.599,49.991C31.667,40.201,40.674,31.642,51.128,31.667L57.794,31.681Z"/>
  <path stroke-miterlimit="4" stroke-dasharray="none" stroke="none" fill-rule="nonzero" stroke-linecap="round" fill="#000000" stroke-width="3px" stroke-linejoin="round" stroke-opacity="1" fill-opacity="1" d="M59.226,86.348C59.226,87.592,58.732,88.785,57.852,89.664C56.972,90.544,55.78,91.038,54.536,91.038C53.292,91.038,52.099,90.544,51.219,89.664C50.34,88.785,49.846,87.592,49.846,86.348C49.846,81.408,45.841,77.404,40.902,77.404C35.962,77.404,31.958,81.408,31.958,86.348C31.958,92.336,34.337,98.079,38.571,102.313C42.805,106.547,48.548,108.926,54.536,108.926C60.524,108.926,66.266,106.547,70.501,102.313C74.735,98.079,77.113,92.336,77.113,86.348C77.113,81.408,73.109,77.404,68.169,77.404C63.23,77.404,59.226,81.408,59.226,86.348Z"/>
  <path stroke-linecap="round" stroke-miterlimit="4" stroke-opacity="1" stroke="none" fill="#000000" stroke-dasharray="none" stroke-linejoin="round" stroke-width="3px" fill-opacity="1" fill-rule="nonzero" d="M54.536,18.033C54.574,18.033,54.611,18.048,54.638,18.076C54.666,18.103,54.681,18.14,54.681,18.179L54.681,22.723L63.625,22.723L63.625,13.779L45.446,13.779L45.446,22.723L54.39,22.723L54.39,18.179C54.39,18.14,54.405,18.103,54.433,18.076C54.46,18.048,54.497,18.033,54.536,18.033ZM54.536,0.145C49.753,0.145,45.166,2.045,41.784,5.427C38.402,8.809,36.502,13.396,36.502,18.179L36.502,22.723C36.502,27.663,40.507,31.667,45.446,31.667L63.625,31.667C68.564,31.667,72.569,27.663,72.569,22.723L72.569,18.179C72.569,13.396,70.669,8.809,67.287,5.427C63.905,2.045,59.318,0.145,54.536,0.145Z"/>
</g>
  <g id="Bold-M" transform="matrix(1.0,0.0,0.0,1.0,2286.7244265189624,1030.7808887021092)">  <path stroke="none" fill-rule="nonzero" stroke-linejoin="round" stroke-linecap="round" stroke-dasharray="none" stroke-width="3px" fill-opacity="1" stroke-miterlimit="4" fill="#000000" stroke-opacity="1" d="M57.828,14.893L51.166,14.879C31.625,14.832,14.946,30.683,14.811,49.936L14.811,67.215C14.811,70.091,14.443,71.834,13.683,72.992L12.376,74.987C6.991,83.17,12.799,94.192,22.655,94.192L86.416,94.192C96.271,94.192,102.072,83.176,96.691,74.98L95.39,72.996C94.631,71.835,94.26,70.082,94.26,67.211L94.26,49.995L94.26,49.9C94.026,30.686,77.36,14.939,57.831,14.893ZM57.793,30.581C68.907,30.607,78.445,39.62,78.573,50.091L78.572,49.995L78.572,67.211C78.572,72.856,79.537,77.42,82.266,81.591L83.573,83.585C82.158,81.43,83.698,78.504,86.416,78.504L22.655,78.504C25.371,78.504,26.915,81.433,25.49,83.598L26.803,81.594C29.537,77.426,30.499,72.871,30.499,67.215L30.499,49.991C30.572,39.577,40.081,30.541,51.131,30.567L57.796,30.581Z"/>
  <path stroke="none" fill="#000000" fill-opacity="1" stroke-dasharray="none" stroke-linejoin="round" stroke-miterlimit="4" stroke-width="3px" fill-rule="nonzero" stroke-opacity="1" stroke-linecap="round" d="M60.325,86.348C60.325,87.884,59.715,89.356,58.63,90.442C57.544,91.528,56.071,92.138,54.536,92.138C53,92.138,51.527,91.528,50.441,90.442C49.356,89.356,48.746,87.884,48.746,86.348C48.746,82.016,45.234,78.504,40.902,78.504C36.57,78.504,33.058,82.016,33.058,86.348C33.058,92.044,35.32,97.507,39.348,101.535C43.376,105.563,48.839,107.826,54.536,107.826C60.232,107.826,65.695,105.563,69.723,101.535C73.751,97.507,76.014,92.044,76.014,86.348C76.014,82.016,72.502,78.504,68.169,78.504C63.837,78.504,60.325,82.016,60.325,86.348Z"/>
  <path stroke-linejoin="round" stroke-dasharray="none" fill-opacity="1" stroke-opacity="1" stroke-miterlimit="4" stroke="none" fill="#000000" fill-rule="nonzero" stroke-width="3px" stroke-linecap="round" d="M54.536,16.933C54.866,16.933,55.183,17.065,55.416,17.298C55.65,17.532,55.781,17.848,55.781,18.179L55.781,22.723L63.625,22.723L63.625,14.879L45.446,14.879L45.446,22.723L53.29,22.723L53.29,18.179C53.29,17.848,53.422,17.532,53.655,17.298C53.889,17.065,54.205,16.933,54.536,16.933ZM54.536,1.245C50.045,1.245,45.737,3.029,42.562,6.205C39.386,9.381,37.602,13.688,37.602,18.179L37.602,22.723C37.602,27.055,41.114,30.567,45.446,30.567L63.625,30.567C67.957,30.567,71.469,27.055,71.469,22.723L71.469,18.179C71.469,13.688,69.685,9.381,66.509,6.205C63.334,3.029,59.026,1.245,54.536,1.245Z"/>
</g>
  <g id="Semibold-M" transform="matrix(1.0,0.0,0.0,1.0,1990.0144265189629,1030.7808887021092)">  <path stroke="none" fill="#000000" stroke-linejoin="round" stroke-linecap="round" stroke-opacity="1" fill-opacity="1" stroke-dasharray="none" fill-rule="nonzero" stroke-miterlimit="4" stroke-width="3px" d="M57.826,15.993L51.164,15.979C32.218,15.934,16.041,31.306,15.911,49.944L15.911,67.215C15.911,70.286,15.501,72.226,14.603,73.596L13.296,75.589C8.387,83.048,13.68,93.092,22.655,93.092L86.416,93.092C95.389,93.092,100.676,83.053,95.771,75.584L94.47,73.599C93.573,72.227,93.16,70.276,93.16,67.211L93.16,49.995L93.16,49.914C92.934,31.312,76.767,16.038,57.828,15.993ZM57.796,29.481C69.499,29.509,79.538,38.993,79.672,50.077L79.672,49.995L79.672,67.211C79.672,72.662,80.595,77.029,83.186,80.988L84.493,82.982C83.554,81.552,84.58,79.604,86.416,79.604L22.655,79.604C24.49,79.604,25.518,81.555,24.571,82.993L25.883,80.991C28.479,77.034,29.399,72.676,29.399,67.215L29.399,49.991C29.476,38.954,39.488,29.44,51.134,29.467L57.798,29.481Z"/>
  <path stroke="none" stroke-dasharray="none" fill="#000000" stroke-linecap="round" stroke-opacity="1" fill-rule="nonzero" stroke-width="3px" fill-opacity="1" stroke-linejoin="round" stroke-miterlimit="4" d="M61.425,86.348C61.425,88.175,60.699,89.928,59.407,91.22C58.115,92.512,56.363,93.238,54.536,93.238C52.708,93.238,50.956,92.512,49.664,91.22C48.372,89.928,47.646,88.175,47.646,86.348C47.646,82.623,44.626,79.604,40.902,79.604C37.177,79.604,34.157,82.623,34.157,86.348C34.157,91.753,36.304,96.936,40.126,100.758C43.948,104.579,49.131,106.726,54.536,106.726C59.94,106.726,65.124,104.579,68.945,100.758C72.767,96.936,74.914,91.753,74.914,86.348C74.914,82.623,71.894,79.604,68.169,79.604C64.445,79.604,61.425,82.623,61.425,86.348Z"/>
  <path stroke-linecap="round" stroke-opacity="1" stroke-width="3px" fill="#000000" stroke-miterlimit="4" stroke="none" fill-rule="nonzero" stroke-dasharray="none" fill-opacity="1" stroke-linejoin="round" d="M54.536,15.833C55.157,15.833,55.754,16.081,56.194,16.52C56.634,16.96,56.881,17.557,56.881,18.179L56.881,22.723L63.625,22.723L63.625,15.979L45.446,15.979L45.446,22.723L52.191,22.723L52.191,18.179C52.191,17.557,52.438,16.96,52.877,16.52C53.317,16.081,53.914,15.833,54.536,15.833ZM54.536,2.345C50.336,2.345,46.309,4.013,43.34,6.983C40.37,9.952,38.702,13.979,38.702,18.179L38.702,22.723C38.702,26.448,41.722,29.467,45.446,29.467L63.625,29.467C67.35,29.467,70.369,26.448,70.369,22.723L70.369,18.179C70.369,13.979,68.701,9.952,65.732,6.983C62.762,4.013,58.735,2.345,54.536,2.345Z"/>
</g>
  <g id="Medium-M" transform="matrix(1.0,0.0,0.0,1.0,1693.3044265189628,1030.7808887021092)">  <path stroke-miterlimit="4" stroke-opacity="1" stroke="none" stroke-linecap="round" fill-opacity="1" stroke-dasharray="none" stroke-width="3px" fill="#000000" stroke-linejoin="round" fill-rule="nonzero" d="M57.824,17.092L51.161,17.079C32.811,17.035,17.137,31.93,17.011,49.951L17.01,67.215C17.01,70.481,16.559,72.618,15.522,74.199L14.216,76.192C9.784,82.927,14.562,91.992,22.655,91.992L86.416,91.992C94.508,91.992,99.28,82.931,94.852,76.188L93.551,74.202C92.514,72.618,92.061,70.471,92.061,67.211L92.061,49.995C91.842,31.938,76.175,17.136,57.826,17.092ZM57.799,28.381C70.092,28.411,80.63,38.367,80.772,50.064L80.772,67.211C80.772,72.467,81.653,76.637,84.107,80.386L85.412,82.379C84.95,81.674,85.461,80.704,86.416,80.704L22.655,80.704C23.609,80.704,24.121,81.676,23.652,82.389L24.963,80.389C27.421,76.642,28.299,72.481,28.299,67.215L28.299,49.991C28.381,38.33,38.896,28.338,51.136,28.368L57.801,28.381Z"/>
  <path stroke-dasharray="none" stroke-miterlimit="4" fill="#000000" stroke-opacity="1" stroke-linejoin="round" fill-opacity="1" stroke-width="3px" stroke="none" stroke-linecap="round" fill-rule="nonzero" d="M62.525,86.348C62.525,88.467,61.683,90.499,60.185,91.997C58.687,93.496,56.655,94.337,54.536,94.337C52.417,94.337,50.384,93.496,48.886,91.997C47.388,90.499,46.546,88.467,46.546,86.348C46.546,83.231,44.019,80.704,40.902,80.704C37.784,80.704,35.257,83.231,35.257,86.348C35.257,91.461,37.288,96.365,40.904,99.98C44.519,103.595,49.423,105.626,54.536,105.626C59.649,105.626,64.552,103.595,68.167,99.98C71.783,96.365,73.814,91.461,73.814,86.348C73.814,83.231,71.287,80.704,68.169,80.704C65.052,80.704,62.525,83.231,62.525,86.348Z"/>
  <path stroke-width="3px" fill="#000000" stroke-dasharray="none" fill-rule="nonzero" fill-opacity="1" stroke-miterlimit="4" stroke-opacity="1" stroke="none" stroke-linejoin="round" stroke-linecap="round" d="M54.536,14.734C55.449,14.734,56.325,15.097,56.971,15.743C57.617,16.389,57.98,17.265,57.98,18.179L57.98,22.723L63.625,22.723L63.625,17.079L45.446,17.079L45.446,22.723L51.091,22.723L51.091,18.179C51.091,17.265,51.454,16.389,52.1,15.743C52.746,15.097,53.622,14.734,54.536,14.734ZM54.536,3.445C50.628,3.445,46.88,4.997,44.117,7.76C41.354,10.523,39.802,14.271,39.802,18.179L39.802,22.723C39.802,25.84,42.329,28.368,45.446,28.368L63.625,28.368C66.742,28.368,69.269,25.84,69.269,22.723L69.269,18.179C69.269,14.271,67.717,10.523,64.954,7.76C62.191,4.997,58.443,3.445,54.536,3.445Z"/>
</g>
  <g id="Regular-M" transform="matrix(1.0,0.0,0.0,1.0,1396.5944265189628,1030.7808887021092)">  <path stroke-dasharray="none" stroke="none" fill-rule="nonzero" stroke-miterlimit="4" stroke-width="3px" fill-opacity="1" stroke-linejoin="round" stroke-opacity="1" fill="#000000" stroke-linecap="round" d="M57.822,18.192L51.159,18.179C33.403,18.136,18.232,32.553,18.11,49.959L18.11,67.215C18.11,70.676,17.618,73.01,16.442,74.802L15.136,76.795C11.181,82.805,15.443,90.893,22.655,90.893L86.416,90.893C93.627,90.893,97.884,82.808,93.933,76.791L92.631,74.804C91.456,73.01,90.961,70.665,90.961,67.211L90.961,49.995C90.749,32.565,75.582,18.235,57.823,18.192ZM57.801,27.281C70.685,27.312,81.722,37.741,81.872,50.051L81.872,67.211C81.872,72.273,82.711,76.246,85.027,79.784L86.332,81.776C86.346,81.797,86.342,81.803,86.416,81.803L22.655,81.803C22.727,81.803,22.724,81.798,22.734,81.784L24.043,79.786C26.363,76.25,27.2,72.286,27.2,67.215L27.2,49.991C27.286,37.707,38.303,27.237,51.139,27.268L57.803,27.281Z"/>
  <path stroke="none" stroke-linecap="round" fill-rule="nonzero" fill="#000000" stroke-width="3px" stroke-miterlimit="4" stroke-linejoin="round" stroke-opacity="1" fill-opacity="1" stroke-dasharray="none" d="M63.625,86.348C63.625,88.759,62.667,91.071,60.963,92.775C59.258,94.48,56.946,95.437,54.536,95.437C52.125,95.437,49.813,94.48,48.108,92.775C46.404,91.071,45.446,88.759,45.446,86.348C45.446,83.838,43.412,81.803,40.902,81.803C38.392,81.803,36.357,83.838,36.357,86.348C36.357,91.169,38.272,95.793,41.681,99.202C45.09,102.611,49.714,104.527,54.536,104.527C59.357,104.527,63.981,102.611,67.39,99.202C70.799,95.793,72.714,91.169,72.714,86.348C72.714,83.838,70.679,81.803,68.169,81.803C65.66,81.803,63.625,83.838,63.625,86.348Z"/>
  <path stroke-opacity="1" stroke-miterlimit="4" fill="#000000" stroke-linecap="round" stroke-dasharray="none" fill-opacity="1" stroke-width="3px" stroke-linejoin="round" stroke="none" fill-rule="nonzero" d="M54.536,13.634C55.741,13.634,56.897,14.113,57.749,14.965C58.601,15.817,59.08,16.973,59.08,18.179L59.08,22.723L63.625,22.723L63.625,18.179L45.446,18.179L45.446,22.723L49.991,22.723L49.991,18.179C49.991,16.973,50.47,15.817,51.322,14.965C52.174,14.113,53.33,13.634,54.536,13.634ZM54.536,4.545C50.92,4.545,47.452,5.981,44.895,8.538C42.338,11.095,40.902,14.563,40.902,18.179L40.902,22.723C40.902,25.233,42.936,27.268,45.446,27.268L63.625,27.268C66.135,27.268,68.169,25.233,68.169,22.723L68.169,18.179C68.169,14.563,66.733,11.095,64.176,8.538C61.619,5.981,58.151,4.545,54.536,4.545Z"/>
</g>
  <g id="Light-M" transform="matrix(1.0,0.0,0.0,1.0,1099.884426518963,1030.7808887021092)">  <path fill="#000000" stroke-miterlimit="4" stroke-linejoin="round" stroke-linecap="round" stroke-width="3px" stroke="none" fill-rule="nonzero" stroke-opacity="1" fill-opacity="1" stroke-dasharray="none" d="M57.82,18.95L51.158,18.936C33.812,18.894,18.987,32.983,18.868,49.964L18.868,67.215C18.868,70.81,18.346,73.28,17.075,75.218L15.77,77.21C12.143,82.721,16.05,90.135,22.655,90.135L86.416,90.135C93.019,90.135,96.922,82.724,93.299,77.207L91.997,75.219C90.727,73.28,90.203,70.799,90.203,67.211L90.203,49.995C89.997,32.996,75.174,18.991,57.821,18.95ZM57.803,26.524C71.093,26.556,82.475,37.309,82.629,50.041L82.629,67.211C82.629,72.139,83.44,75.976,85.661,79.369L86.966,81.361C87.307,81.881,86.949,82.561,86.416,82.561L22.655,82.561C22.12,82.561,21.762,81.882,22.101,81.368L23.409,79.371C25.634,75.98,26.442,72.152,26.442,67.215L26.442,49.991C26.531,37.277,37.895,26.479,51.141,26.51L57.804,26.524Z"/>
  <path stroke-width="3px" fill="#000000" stroke-linejoin="round" fill-opacity="1" stroke-dasharray="none" stroke-miterlimit="4" stroke-opacity="1" fill-rule="nonzero" stroke-linecap="round" stroke="none" d="M64.382,86.348C64.382,88.96,63.345,91.464,61.498,93.311C59.652,95.157,57.147,96.195,54.536,96.195C51.924,96.195,49.419,95.157,47.573,93.311C45.726,91.464,44.689,88.96,44.689,86.348C44.689,84.256,42.993,82.561,40.902,82.561C38.81,82.561,37.114,84.256,37.114,86.348C37.114,90.968,38.95,95.4,42.217,98.667C45.484,101.934,49.915,103.769,54.536,103.769C59.156,103.769,63.587,101.934,66.854,98.667C70.121,95.4,71.957,90.968,71.957,86.348C71.957,84.256,70.261,82.561,68.169,82.561C66.078,82.561,64.382,84.256,64.382,86.348Z"/>
  <path fill-rule="nonzero" fill-opacity="1" stroke="none" stroke-opacity="1" stroke-width="3px" fill="#000000" stroke-linecap="round" stroke-miterlimit="4" stroke-dasharray="none" stroke-linejoin="round" d="M54.536,12.876C55.942,12.876,57.29,13.435,58.285,14.429C59.279,15.424,59.838,16.772,59.838,18.179L59.838,22.723L63.625,18.936L45.446,18.936L49.234,22.723L49.234,18.179C49.234,16.772,49.792,15.424,50.787,14.429C51.781,13.435,53.129,12.876,54.536,12.876ZM54.536,5.302C51.121,5.302,47.845,6.659,45.431,9.074C43.016,11.488,41.659,14.764,41.659,18.179L41.659,22.723C41.659,24.815,43.355,26.51,45.446,26.51L63.625,26.51C65.716,26.51,67.412,24.815,67.412,22.723L67.412,18.179C67.412,14.764,66.055,11.488,63.641,9.074C61.226,6.659,57.951,5.302,54.536,5.302Z"/>
</g>
  <g id="Thin-M" transform="matrix(1.0,0.0,0.0,1.0,803.174426518963,1030.7808887021092)">  <path stroke-width="3px" fill="#000000" stroke-opacity="1" stroke-miterlimit="4" fill-rule="nonzero" fill-opacity="1" stroke-dasharray="none" stroke="none" stroke-linejoin="round" stroke-linecap="round" d="M57.818,19.707L51.156,19.693C34.22,19.653,19.741,33.412,19.625,49.97L19.625,67.215C19.625,70.944,19.075,73.55,17.708,75.633L16.403,77.625C13.105,82.637,16.657,89.378,22.655,89.378L86.416,89.378C92.412,89.378,95.961,82.64,92.666,77.623L91.364,75.635C89.999,73.549,89.446,70.933,89.446,67.211L89.446,49.995C89.245,33.427,74.766,19.748,57.819,19.707ZM57.805,25.767C71.501,25.799,83.227,36.878,83.387,50.032L83.386,67.211C83.386,72.005,84.169,75.706,86.294,78.954L87.599,80.946C88.269,81.965,87.556,83.318,86.416,83.318L22.655,83.318C21.513,83.318,20.8,81.966,21.468,80.951L22.776,78.956C24.905,75.71,25.685,72.018,25.685,67.215L25.685,49.991C25.777,36.848,37.486,25.72,51.143,25.753L57.806,25.767Z"/>
  <path stroke-dasharray="none" fill-rule="nonzero" stroke-linecap="round" fill="#000000" stroke-miterlimit="4" stroke="none" stroke-opacity="1" stroke-linejoin="round" stroke-width="3px" fill-opacity="1" d="M65.14,86.348C65.14,89.16,64.023,91.858,62.034,93.846C60.045,95.835,57.348,96.952,54.536,96.952C51.723,96.952,49.026,95.835,47.037,93.846C45.049,91.858,43.931,89.16,43.931,86.348C43.931,84.675,42.575,83.318,40.902,83.318C39.228,83.318,37.872,84.675,37.872,86.348C37.872,90.768,39.628,95.006,42.753,98.131C45.878,101.256,50.116,103.012,54.536,103.012C58.955,103.012,63.194,101.256,66.319,98.131C69.444,95.006,71.199,90.768,71.199,86.348C71.199,84.675,69.843,83.318,68.169,83.318C66.496,83.318,65.14,84.675,65.14,86.348Z"/>
  <path stroke-linecap="round" stroke="none" fill-rule="nonzero" stroke-opacity="1" stroke-dasharray="none" stroke-linejoin="round" fill-opacity="1" stroke-miterlimit="4" fill="#000000" stroke-width="3px" d="M54.536,12.119C56.143,12.119,57.684,12.757,58.82,13.894C59.957,15.03,60.595,16.572,60.595,18.179L60.595,22.723L63.625,19.693L45.446,19.693L48.476,22.723L48.476,18.179C48.476,16.572,49.115,15.03,50.251,13.894C51.387,12.757,52.929,12.119,54.536,12.119ZM54.536,6.06C51.322,6.06,48.239,7.336,45.966,9.609C43.693,11.882,42.417,14.964,42.417,18.179L42.417,22.723C42.417,24.396,43.773,25.753,45.446,25.753L63.625,25.753C65.298,25.753,66.655,24.396,66.655,22.723L66.655,18.179C66.655,14.964,65.378,11.882,63.105,9.609C60.832,7.336,57.75,6.06,54.536,6.06Z"/>
</g>
  <g id="Ultralight-M" transform="matrix(1.0,0.0,0.0,1.0,506.46442651896285,1030.7808887021092)">  <path stroke="none" stroke-dasharray="none" fill-opacity="1" stroke-width="3px" stroke-linejoin="round" stroke-opacity="1" stroke-linecap="round" stroke-miterlimit="4" fill="#000000" fill-rule="nonzero" d="M57.817,20.464L51.154,20.451C34.628,20.411,20.495,33.842,20.383,49.975L20.383,67.215C20.383,71.078,19.804,73.82,18.342,76.049L17.037,78.04C14.067,82.553,17.264,88.62,22.655,88.62L86.416,88.62C91.805,88.62,94.999,82.556,92.033,78.038L90.73,76.05C89.27,73.819,88.688,71.067,88.688,67.211L88.688,49.995C88.493,33.859,74.358,20.504,57.818,20.464ZM57.807,25.009C71.909,25.043,83.979,36.447,84.144,50.023L84.144,67.211C84.144,71.871,84.897,75.437,86.928,78.539L88.233,80.531C89.23,82.05,88.163,84.076,86.416,84.076L22.655,84.076C20.906,84.076,19.839,82.05,20.836,80.535L22.142,78.54C24.176,75.44,24.927,71.883,24.927,67.215L24.927,49.991C25.022,36.418,37.078,24.962,51.144,24.995L57.808,25.009Z"/>
  <path stroke-opacity="1" stroke="none" stroke-dasharray="none" fill-opacity="1" stroke-miterlimit="4" stroke-linecap="round" stroke-width="3px" fill-rule="nonzero" fill="#000000" stroke-linejoin="round" d="M65.897,86.348C65.897,89.361,64.7,92.251,62.569,94.382C60.439,96.513,57.549,97.71,54.536,97.71C51.522,97.71,48.632,96.513,46.502,94.382C44.371,92.251,43.174,89.361,43.174,86.348C43.174,85.093,42.157,84.076,40.902,84.076C39.647,84.076,38.629,85.093,38.629,86.348C38.629,90.567,40.305,94.612,43.288,97.595C46.271,100.578,50.317,102.254,54.536,102.254C58.754,102.254,62.8,100.578,65.783,97.595C68.766,94.612,70.442,90.567,70.442,86.348C70.442,85.093,69.424,84.076,68.169,84.076C66.915,84.076,65.897,85.093,65.897,86.348Z"/>
  <path stroke-width="3px" stroke-linecap="round" fill-rule="nonzero" stroke-miterlimit="4" fill="#000000" fill-opacity="1" stroke-dasharray="none" stroke-linejoin="round" stroke-opacity="1" stroke="none" d="M54.536,11.362C56.343,11.362,58.077,12.08,59.356,13.358C60.634,14.637,61.353,16.371,61.353,18.179L61.353,22.723L63.625,20.451L45.446,20.451L47.719,22.723L47.719,18.179C47.719,16.371,48.437,14.637,49.715,13.358C50.994,12.08,52.728,11.362,54.536,11.362ZM54.536,6.817C51.522,6.817,48.632,8.014,46.502,10.145C44.371,12.275,43.174,15.165,43.174,18.179L43.174,22.723C43.174,23.978,44.191,24.995,45.446,24.995L63.625,24.995C64.88,24.995,65.897,23.978,65.897,22.723L65.897,18.179C65.897,15.165,64.7,12.275,62.569,10.145C60.439,8.014,57.549,6.817,54.536,6.817Z"/>
</g>
  <g id="Black-S" transform="matrix(1.0,0.0,0.0,1.0,2891.978645964348,613.7985300920327)">  <path stroke-linecap="round" fill-opacity="1" stroke-width="3px" stroke-dasharray="none" stroke-miterlimit="4" fill="#000000" stroke-linejoin="round" stroke="none" fill-rule="nonzero" stroke-opacity="1" d="M45.283,9.939L40.066,9.928C23.834,9.889,9.987,23.048,9.875,39.088L9.875,52.629C9.875,54.576,9.652,55.632,9.274,56.208L8.25,57.771C3.286,65.313,8.641,75.475,17.739,75.475L67.664,75.475C76.76,75.475,82.108,65.318,77.148,57.764L76.131,56.212C75.753,55.634,75.528,54.569,75.528,52.626L75.528,39.146L75.527,39.051C75.333,23.046,61.501,9.978,45.286,9.939ZM45.248,25.667C53.026,25.686,59.712,32.003,59.8,39.242L59.8,39.146L59.8,52.626C59.8,57.351,60.62,61.233,62.973,64.829L63.997,66.391C62.143,63.568,64.155,59.746,67.664,59.746L17.739,59.746C21.246,59.746,23.262,63.571,21.397,66.404L22.427,64.832C24.785,61.238,25.603,57.363,25.603,52.629L25.603,39.143C25.653,31.965,32.312,25.638,40.031,25.656L45.251,25.667Z"/>
  <path fill="#000000" fill-opacity="1" stroke-opacity="1" stroke-dasharray="none" fill-rule="nonzero" stroke-linecap="round" stroke="none" stroke-miterlimit="4" stroke-width="3px" stroke-linejoin="round" d="M45.513,67.61C45.513,68.356,45.216,69.071,44.689,69.598C44.162,70.125,43.447,70.422,42.701,70.422C41.956,70.422,41.241,70.125,40.714,69.598C40.186,69.071,39.89,68.356,39.89,67.61C39.89,63.267,36.369,59.746,32.026,59.746C27.683,59.746,24.162,63.267,24.162,67.61C24.162,72.528,26.115,77.243,29.592,80.72C33.069,84.197,37.784,86.15,42.701,86.15C47.618,86.15,52.334,84.197,55.811,80.72C59.288,77.243,61.241,72.528,61.241,67.61C61.241,63.267,57.72,59.746,53.377,59.746C49.033,59.746,45.513,63.267,45.513,67.61Z"/>
  <path fill-rule="nonzero" stroke-miterlimit="4" stroke-linecap="round" stroke-dasharray="none" fill-opacity="1" stroke-opacity="1" stroke-width="3px" stroke="none" stroke-linejoin="round" fill="#000000" d="M42.701,14.981C42.503,14.981,42.313,14.902,42.173,14.762C42.033,14.622,41.954,14.432,41.954,14.234L41.954,17.792L49.818,17.792L49.818,9.928L35.584,9.928L35.584,17.792L43.449,17.792L43.449,14.234C43.449,14.432,43.37,14.622,43.23,14.762C43.09,14.902,42.9,14.981,42.701,14.981ZM42.701,-0.747C38.728,-0.747,34.918,0.831,32.108,3.641C29.299,6.45,27.72,10.261,27.72,14.234L27.72,17.792C27.72,22.135,31.241,25.656,35.584,25.656L49.818,25.656C54.162,25.656,57.682,22.135,57.682,17.792L57.682,14.234C57.682,10.261,56.104,6.45,53.295,3.641C50.485,0.831,46.675,-0.747,42.701,-0.747Z"/>
</g>
  <g id="Heavy-S" transform="matrix(1.0,0.0,0.0,1.0,2595.268645964348,613.7985300920327)">  <path stroke-opacity="1" fill="#000000" stroke-miterlimit="4" stroke-width="3px" fill-rule="nonzero" stroke-linejoin="round" stroke="none" stroke-linecap="round" fill-opacity="1" stroke-dasharray="none" d="M45.281,10.8L40.065,10.789C24.298,10.752,10.845,23.536,10.736,39.094L10.736,52.629C10.736,54.729,10.48,55.939,9.994,56.681L8.97,58.242C4.38,65.218,9.332,74.613,17.739,74.613L67.664,74.613C76.07,74.613,81.015,65.222,76.429,58.237L75.411,56.684C74.924,55.941,74.667,54.722,74.667,52.626L74.667,39.146L74.666,39.061C74.478,23.537,61.037,10.838,45.284,10.8ZM45.25,24.806C53.49,24.826,60.568,31.512,60.661,39.232L60.661,39.146L60.661,52.626C60.661,57.199,61.449,60.927,63.694,64.357L64.717,65.919C63.236,63.664,64.846,60.607,67.664,60.607L17.739,60.607C20.556,60.607,22.168,63.666,20.678,65.931L21.707,64.36C23.956,60.931,24.742,57.21,24.742,52.629L24.742,39.143C24.796,31.477,31.848,24.776,40.034,24.795L45.253,24.806Z"/>
  <path stroke-miterlimit="4" stroke-dasharray="none" stroke="none" fill-rule="nonzero" stroke-linecap="round" fill="#000000" stroke-width="3px" stroke-linejoin="round" stroke-opacity="1" fill-opacity="1" d="M46.374,67.61C46.374,68.585,45.987,69.519,45.298,70.207C44.609,70.896,43.675,71.283,42.701,71.283C41.727,71.283,40.793,70.896,40.105,70.207C39.416,69.519,39.029,68.585,39.029,67.61C39.029,63.743,35.894,60.607,32.026,60.607C28.158,60.607,25.023,63.743,25.023,67.61C25.023,72.299,26.886,76.796,30.201,80.111C33.516,83.426,38.013,85.289,42.701,85.289C47.39,85.289,51.887,83.426,55.202,80.111C58.517,76.796,60.38,72.299,60.38,67.61C60.38,63.743,57.244,60.607,53.377,60.607C49.509,60.607,46.374,63.743,46.374,67.61Z"/>
  <path stroke-linecap="round" stroke-miterlimit="4" stroke-opacity="1" stroke="none" fill="#000000" stroke-dasharray="none" stroke-linejoin="round" stroke-width="3px" fill-opacity="1" fill-rule="nonzero" d="M42.701,14.12C42.731,14.12,42.76,14.132,42.782,14.153C42.803,14.175,42.815,14.204,42.815,14.234L42.815,17.792L49.818,17.792L49.818,10.789L35.584,10.789L35.584,17.792L42.587,17.792L42.587,14.234C42.587,14.204,42.599,14.175,42.621,14.153C42.642,14.132,42.671,14.12,42.701,14.12ZM42.701,0.114C38.957,0.114,35.365,1.602,32.717,4.25C30.069,6.898,28.581,10.489,28.581,14.234L28.581,17.792C28.581,21.66,31.717,24.795,35.584,24.795L49.818,24.795C53.686,24.795,56.821,21.66,56.821,17.792L56.821,14.234C56.821,10.489,55.334,6.898,52.686,4.25C50.038,1.602,46.446,0.114,42.701,0.114Z"/>
</g>
  <g id="Bold-S" transform="matrix(1.0,0.0,0.0,1.0,2298.5586459643478,613.7985300920327)">  <path stroke="none" fill-rule="nonzero" stroke-linejoin="round" stroke-linecap="round" stroke-dasharray="none" stroke-width="3px" fill-opacity="1" stroke-miterlimit="4" fill="#000000" stroke-opacity="1" d="M45.28,11.661L40.063,11.65C24.762,11.614,11.702,24.024,11.597,39.1L11.597,52.629C11.597,54.882,11.309,56.246,10.714,57.153L9.691,58.714C5.474,65.122,10.022,73.752,17.739,73.752L67.664,73.752C75.38,73.752,79.922,65.127,75.709,58.71L74.691,57.156C74.096,56.247,73.806,54.874,73.806,52.626L73.806,39.146L73.805,39.072C73.622,24.027,60.573,11.698,45.282,11.661ZM45.252,23.945C53.954,23.966,61.423,31.022,61.522,39.221L61.522,39.146L61.522,52.626C61.522,57.046,62.277,60.62,64.414,63.886L65.437,65.447C64.329,63.759,65.536,61.469,67.664,61.469L17.739,61.469C19.866,61.469,21.074,63.762,19.958,65.457L20.987,63.888C23.128,60.624,23.881,57.058,23.881,52.629L23.881,39.143C23.938,30.989,31.384,23.913,40.036,23.934L45.254,23.945Z"/>
  <path stroke="none" fill="#000000" fill-opacity="1" stroke-dasharray="none" stroke-linejoin="round" stroke-miterlimit="4" stroke-width="3px" fill-rule="nonzero" stroke-opacity="1" stroke-linecap="round" d="M47.235,67.61C47.235,68.813,46.757,69.966,45.907,70.816C45.057,71.666,43.904,72.144,42.701,72.144C41.499,72.144,40.346,71.666,39.496,70.816C38.646,69.966,38.168,68.813,38.168,67.61C38.168,64.218,35.418,61.469,32.026,61.469C28.634,61.469,25.884,64.218,25.884,67.61C25.884,72.071,27.656,76.348,30.81,79.502C33.964,82.656,38.241,84.428,42.701,84.428C47.162,84.428,51.439,82.656,54.593,79.502C57.747,76.348,59.519,72.071,59.519,67.61C59.519,64.218,56.769,61.469,53.377,61.469C49.985,61.469,47.235,64.218,47.235,67.61Z"/>
  <path stroke-linejoin="round" stroke-dasharray="none" fill-opacity="1" stroke-opacity="1" stroke-miterlimit="4" stroke="none" fill="#000000" fill-rule="nonzero" stroke-width="3px" stroke-linecap="round" d="M42.701,13.259C42.96,13.259,43.208,13.362,43.391,13.544C43.574,13.727,43.676,13.975,43.676,14.234L43.676,17.792L49.818,17.792L49.818,11.65L35.584,11.65L35.584,17.792L41.726,17.792L41.726,14.234C41.726,13.975,41.829,13.727,42.012,13.544C42.195,13.362,42.443,13.259,42.701,13.259ZM42.701,0.975C39.185,0.975,35.812,2.372,33.326,4.858C30.84,7.345,29.443,10.717,29.443,14.234L29.443,17.792C29.443,21.184,32.192,23.934,35.584,23.934L49.818,23.934C53.21,23.934,55.96,21.184,55.96,17.792L55.96,14.234C55.96,10.717,54.563,7.345,52.077,4.858C49.59,2.372,46.218,0.975,42.701,0.975Z"/>
</g>
  <g id="Semibold-S" transform="matrix(1.0,0.0,0.0,1.0,2001.848645964348,613.7985300920327)">  <path stroke="none" fill="#000000" stroke-linejoin="round" stroke-linecap="round" stroke-opacity="1" fill-opacity="1" stroke-dasharray="none" fill-rule="nonzero" stroke-miterlimit="4" stroke-width="3px" d="M45.278,12.522L40.061,12.512C25.227,12.476,12.56,24.513,12.458,39.106L12.458,52.629C12.458,55.034,12.137,56.553,11.434,57.625L10.411,59.186C6.567,65.027,10.712,72.891,17.739,72.891L67.664,72.891C74.69,72.891,78.829,65.031,74.989,59.182L73.97,57.628C73.267,56.554,72.945,55.026,72.945,52.626L72.945,39.146L72.944,39.082C72.767,24.517,60.109,12.558,45.28,12.522ZM45.254,23.084C54.418,23.106,62.278,30.532,62.384,39.211L62.383,39.146L62.383,52.626C62.383,56.894,63.106,60.313,65.135,63.414L66.158,64.975C65.423,63.855,66.226,62.33,67.664,62.33L17.739,62.33C19.176,62.33,19.981,63.857,19.239,64.984L20.266,63.416C22.299,60.317,23.02,56.905,23.02,52.629L23.02,39.143C23.08,30.501,30.919,23.051,40.038,23.073L45.256,23.084Z"/>
  <path stroke="none" stroke-dasharray="none" fill="#000000" stroke-linecap="round" stroke-opacity="1" fill-rule="nonzero" stroke-width="3px" fill-opacity="1" stroke-linejoin="round" stroke-miterlimit="4" d="M48.096,67.61C48.096,69.041,47.528,70.413,46.516,71.425C45.504,72.437,44.132,73.005,42.701,73.005C41.271,73.005,39.898,72.437,38.887,71.425C37.875,70.413,37.307,69.041,37.307,67.61C37.307,64.694,34.942,62.33,32.026,62.33C29.11,62.33,26.745,64.694,26.745,67.61C26.745,71.842,28.426,75.901,31.419,78.893C34.411,81.885,38.469,83.567,42.701,83.567C46.933,83.567,50.992,81.885,53.984,78.893C56.976,75.901,58.657,71.842,58.657,67.61C58.657,64.694,56.293,62.33,53.377,62.33C50.46,62.33,48.096,64.694,48.096,67.61Z"/>
  <path stroke-linecap="round" stroke-opacity="1" stroke-width="3px" fill="#000000" stroke-miterlimit="4" stroke="none" fill-rule="nonzero" stroke-dasharray="none" fill-opacity="1" stroke-linejoin="round" d="M42.701,12.398C43.188,12.398,43.655,12.591,44,12.935C44.344,13.28,44.538,13.747,44.538,14.234L44.538,17.792L49.818,17.792L49.818,12.511L35.584,12.511L35.584,17.792L40.865,17.792L40.865,14.234C40.865,13.747,41.059,13.28,41.403,12.935C41.747,12.591,42.214,12.398,42.701,12.398ZM42.701,1.836C39.413,1.836,36.26,3.142,33.935,5.467C31.61,7.792,30.304,10.946,30.304,14.234L30.304,17.792C30.304,20.709,32.668,23.073,35.584,23.073L49.818,23.073C52.735,23.073,55.099,20.709,55.099,17.792L55.099,14.234C55.099,10.946,53.793,7.792,51.468,5.467C49.143,3.142,45.989,1.836,42.701,1.836Z"/>
</g>
  <g id="Medium-S" transform="matrix(1.0,0.0,0.0,1.0,1705.138645964348,613.7985300920327)">  <path stroke-miterlimit="4" stroke-opacity="1" stroke="none" stroke-linecap="round" fill-opacity="1" stroke-dasharray="none" stroke-width="3px" fill="#000000" stroke-linejoin="round" fill-rule="nonzero" d="M45.276,13.383L40.059,13.373C25.691,13.338,13.418,25.001,13.319,39.112L13.319,52.629C13.319,55.187,12.966,56.86,12.154,58.098L11.131,59.658C7.661,64.931,11.402,72.03,17.739,72.03L67.664,72.03C74,72.03,77.736,64.935,74.269,59.655L73.25,58.1C72.439,56.86,72.083,55.179,72.083,52.626L72.083,39.146C71.912,25.008,59.645,13.418,45.278,13.383ZM45.256,22.222C54.882,22.246,63.133,30.041,63.245,39.2L63.244,52.626C63.244,56.742,63.934,60.007,65.855,62.942L66.878,64.503C66.516,63.951,66.916,63.191,67.664,63.191L17.739,63.191C18.486,63.191,18.887,63.953,18.52,64.51L19.546,62.944C21.471,60.01,22.158,56.753,22.158,52.629L22.158,39.143C22.222,30.013,30.455,22.189,40.04,22.212L45.258,22.222Z"/>
  <path stroke-dasharray="none" stroke-miterlimit="4" fill="#000000" stroke-opacity="1" stroke-linejoin="round" fill-opacity="1" stroke-width="3px" stroke="none" stroke-linecap="round" fill-rule="nonzero" d="M48.957,67.61C48.957,69.27,48.298,70.861,47.125,72.034C45.952,73.207,44.361,73.866,42.701,73.866C41.042,73.866,39.451,73.207,38.278,72.034C37.105,70.861,36.446,69.27,36.446,67.61C36.446,65.17,34.467,63.191,32.026,63.191C29.585,63.191,27.606,65.17,27.606,67.61C27.606,71.614,29.197,75.453,32.028,78.284C34.858,81.115,38.698,82.705,42.701,82.705C46.705,82.705,50.544,81.115,53.375,78.284C56.206,75.453,57.796,71.614,57.796,67.61C57.796,65.17,55.818,63.191,53.377,63.191C50.936,63.191,48.957,65.17,48.957,67.61Z"/>
  <path stroke-width="3px" fill="#000000" stroke-dasharray="none" fill-rule="nonzero" fill-opacity="1" stroke-miterlimit="4" stroke-opacity="1" stroke="none" stroke-linejoin="round" stroke-linecap="round" d="M42.701,11.536C43.417,11.536,44.103,11.821,44.609,12.326C45.114,12.832,45.399,13.518,45.399,14.234L45.399,17.792L49.818,17.792L49.818,13.373L35.584,13.373L35.584,17.792L40.004,17.792L40.004,14.234C40.004,13.518,40.288,12.832,40.794,12.326C41.3,11.821,41.986,11.536,42.701,11.536ZM42.701,2.697C39.642,2.697,36.707,3.913,34.544,6.076C32.38,8.24,31.165,11.174,31.165,14.234L31.165,17.792C31.165,20.233,33.144,22.212,35.584,22.212L49.818,22.212C52.259,22.212,54.238,20.233,54.238,17.792L54.238,14.234C54.238,11.174,53.022,8.24,50.859,6.076C48.695,3.913,45.761,2.697,42.701,2.697Z"/>
</g>
  <g id="Regular-S" transform="matrix(1.0,0.0,0.0,1.0,1408.4286459643479,613.7985300920327)">  <path stroke-dasharray="none" stroke="none" fill-rule="nonzero" stroke-miterlimit="4" stroke-width="3px" fill-opacity="1" stroke-linejoin="round" stroke-opacity="1" fill="#000000" stroke-linecap="round" d="M45.274,14.244L40.058,14.234C26.155,14.201,14.276,25.489,14.18,39.118L14.18,52.629C14.18,55.339,13.795,57.167,12.874,58.57L11.852,60.13C8.755,64.836,12.092,71.169,17.739,71.169L67.664,71.169C73.31,71.169,76.643,64.839,73.549,60.128L72.53,58.572C71.61,57.167,71.222,55.331,71.222,52.626L71.222,39.146C71.057,25.498,59.181,14.278,45.276,14.244ZM45.258,21.361C55.346,21.385,63.989,29.551,64.106,39.19L64.105,52.626C64.105,56.589,64.763,59.7,66.576,62.471L67.598,64.031C67.609,64.047,67.606,64.052,67.664,64.052L17.739,64.052C17.795,64.052,17.793,64.048,17.8,64.037L18.826,62.472C20.642,59.703,21.297,56.6,21.297,52.629L21.297,39.143C21.365,29.524,29.991,21.327,40.042,21.351L45.26,21.361Z"/>
  <path stroke="none" stroke-linecap="round" fill-rule="nonzero" fill="#000000" stroke-width="3px" stroke-miterlimit="4" stroke-linejoin="round" stroke-opacity="1" fill-opacity="1" stroke-dasharray="none" d="M49.818,67.61C49.818,69.498,49.068,71.308,47.734,72.643C46.399,73.978,44.589,74.727,42.701,74.727C40.814,74.727,39.004,73.978,37.669,72.643C36.334,71.308,35.584,69.498,35.584,67.61C35.584,65.645,33.991,64.052,32.026,64.052C30.061,64.052,28.468,65.645,28.468,67.61C28.468,71.386,29.967,75.006,32.637,77.675C35.306,80.345,38.926,81.844,42.701,81.844C46.476,81.844,50.097,80.345,52.766,77.675C55.436,75.006,56.935,71.386,56.935,67.61C56.935,65.645,55.342,64.052,53.377,64.052C51.411,64.052,49.818,65.645,49.818,67.61Z"/>
  <path stroke-opacity="1" stroke-miterlimit="4" fill="#000000" stroke-linecap="round" stroke-dasharray="none" fill-opacity="1" stroke-width="3px" stroke-linejoin="round" stroke="none" fill-rule="nonzero" d="M42.701,10.675C43.645,10.675,44.55,11.05,45.217,11.718C45.885,12.385,46.26,13.29,46.26,14.234L46.26,17.792L49.818,17.792L49.818,14.234L35.584,14.234L35.584,17.792L39.143,17.792L39.143,14.234C39.143,13.29,39.518,12.385,40.185,11.718C40.853,11.05,41.758,10.675,42.701,10.675ZM42.701,3.558C39.87,3.558,37.155,4.683,35.153,6.685C33.151,8.687,32.026,11.403,32.026,14.234L32.026,17.792C32.026,19.758,33.619,21.351,35.584,21.351L49.818,21.351C51.784,21.351,53.377,19.758,53.377,17.792L53.377,14.234C53.377,11.403,52.252,8.687,50.25,6.685C48.248,4.683,45.533,3.558,42.701,3.558Z"/>
</g>
  <g id="Light-S" transform="matrix(1.0,0.0,0.0,1.0,1111.718645964348,613.7985300920327)">  <path fill="#000000" stroke-miterlimit="4" stroke-linejoin="round" stroke-linecap="round" stroke-width="3px" stroke="none" fill-rule="nonzero" stroke-opacity="1" fill-opacity="1" stroke-dasharray="none" d="M45.273,14.838L40.056,14.827C26.475,14.794,14.866,25.825,14.774,39.122L14.773,52.629C14.773,55.444,14.365,57.378,13.37,58.895L12.348,60.455C9.508,64.77,12.567,70.576,17.739,70.576L67.664,70.576C72.834,70.576,75.89,64.773,73.053,60.453L72.034,58.897C71.04,57.378,70.629,55.436,70.629,52.626L70.629,39.146C70.468,25.836,58.861,14.87,45.274,14.838ZM45.26,20.768C55.666,20.793,64.578,29.213,64.699,39.182L64.698,52.626C64.698,56.485,65.333,59.489,67.072,62.146L68.094,63.706C68.362,64.113,68.081,64.645,67.664,64.645L17.739,64.645C17.32,64.645,17.04,64.114,17.305,63.711L18.33,62.147C20.071,59.492,20.704,56.495,20.704,52.629L20.704,39.143C20.774,29.188,29.671,20.733,40.043,20.758L45.261,20.768Z"/>
  <path stroke-width="3px" fill="#000000" stroke-linejoin="round" fill-opacity="1" stroke-dasharray="none" stroke-miterlimit="4" stroke-opacity="1" fill-rule="nonzero" stroke-linecap="round" stroke="none" d="M50.411,67.61C50.411,69.655,49.599,71.616,48.153,73.062C46.707,74.508,44.746,75.32,42.701,75.32C40.656,75.32,38.695,74.508,37.25,73.062C35.804,71.616,34.991,69.655,34.991,67.61C34.991,65.973,33.664,64.645,32.026,64.645C30.388,64.645,29.061,65.973,29.061,67.61C29.061,71.228,30.498,74.698,33.056,77.256C35.614,79.814,39.084,81.251,42.701,81.251C46.319,81.251,49.789,79.814,52.347,77.256C54.905,74.698,56.342,71.228,56.342,67.61C56.342,65.973,55.014,64.645,53.377,64.645C51.739,64.645,50.411,65.973,50.411,67.61Z"/>
  <path fill-rule="nonzero" fill-opacity="1" stroke="none" stroke-opacity="1" stroke-width="3px" fill="#000000" stroke-linecap="round" stroke-miterlimit="4" stroke-dasharray="none" stroke-linejoin="round" d="M42.701,10.082C43.802,10.082,44.858,10.52,45.637,11.298C46.415,12.077,46.853,13.133,46.853,14.234L46.853,17.792L49.818,14.827L35.584,14.827L38.55,17.792L38.55,14.234C38.55,13.133,38.987,12.077,39.766,11.298C40.544,10.52,41.6,10.082,42.701,10.082ZM42.701,4.152C40.027,4.152,37.463,5.214,35.572,7.105C33.681,8.995,32.619,11.56,32.619,14.234L32.619,17.792C32.619,19.43,33.947,20.758,35.584,20.758L49.818,20.758C51.456,20.758,52.784,19.43,52.784,17.792L52.784,14.234C52.784,11.56,51.721,8.995,49.831,7.105C47.94,5.214,45.375,4.152,42.701,4.152Z"/>
</g>
  <g id="Thin-S" transform="matrix(1.0,0.0,0.0,1.0,815.0086459643479,613.7985300920327)">  <path stroke-width="3px" fill="#000000" stroke-opacity="1" stroke-miterlimit="4" fill-rule="nonzero" fill-opacity="1" stroke-dasharray="none" stroke="none" stroke-linejoin="round" stroke-linecap="round" d="M45.272,15.431L40.055,15.42C26.794,15.388,15.457,26.162,15.367,39.126L15.367,52.629C15.367,55.549,14.936,57.59,13.866,59.221L12.844,60.78C10.261,64.705,13.043,69.983,17.739,69.983L67.664,69.983C72.359,69.983,75.137,64.707,72.558,60.779L71.538,59.222C70.469,57.589,70.036,55.541,70.036,52.626L70.036,39.146C69.879,26.174,58.542,15.462,45.273,15.431ZM45.261,20.175C55.985,20.201,65.167,28.875,65.292,39.175L65.292,52.626C65.292,56.38,65.904,59.278,67.568,61.821L68.59,63.381C69.114,64.179,68.557,65.238,67.664,65.238L17.739,65.238C16.845,65.238,16.287,64.179,16.81,63.385L17.834,61.822C19.501,59.281,20.111,56.39,20.111,52.629L20.111,39.143C20.183,28.852,29.352,20.139,40.045,20.165L45.262,20.175Z"/>
  <path stroke-dasharray="none" fill-rule="nonzero" stroke-linecap="round" fill="#000000" stroke-miterlimit="4" stroke="none" stroke-opacity="1" stroke-linejoin="round" stroke-width="3px" fill-opacity="1" d="M51.004,67.61C51.004,69.813,50.13,71.925,48.573,73.482C47.015,75.039,44.904,75.914,42.701,75.914C40.499,75.914,38.387,75.039,36.83,73.482C35.273,71.925,34.398,69.813,34.398,67.61C34.398,66.3,33.336,65.238,32.026,65.238C30.716,65.238,29.654,66.3,29.654,67.61C29.654,71.071,31.028,74.39,33.475,76.837C35.922,79.283,39.241,80.658,42.701,80.658C46.162,80.658,49.481,79.283,51.927,76.837C54.374,74.39,55.749,71.071,55.749,67.61C55.749,66.3,54.687,65.238,53.377,65.238C52.067,65.238,51.004,66.3,51.004,67.61Z"/>
  <path stroke-linecap="round" stroke="none" fill-rule="nonzero" stroke-opacity="1" stroke-dasharray="none" stroke-linejoin="round" fill-opacity="1" stroke-miterlimit="4" fill="#000000" stroke-width="3px" d="M42.701,9.489C43.96,9.489,45.166,9.989,46.056,10.879C46.946,11.769,47.446,12.975,47.446,14.234L47.446,17.792L49.818,15.42L35.584,15.42L37.957,17.792L37.957,14.234C37.957,12.975,38.457,11.769,39.346,10.879C40.236,9.989,41.443,9.489,42.701,9.489ZM42.701,4.745C40.185,4.745,37.771,5.744,35.992,7.524C34.212,9.304,33.212,11.717,33.212,14.234L33.212,17.792C33.212,19.102,34.274,20.165,35.584,20.165L49.818,20.165C51.128,20.165,52.191,19.102,52.191,17.792L52.191,14.234C52.191,11.717,51.191,9.304,49.411,7.524C47.632,5.744,45.218,4.745,42.701,4.745Z"/>
</g>
  <g id="Ultralight-S" transform="matrix(1.0,0.0,0.0,1.0,518.2986459643479,613.7985300920327)">  <path stroke="none" stroke-dasharray="none" fill-opacity="1" stroke-width="3px" stroke-linejoin="round" stroke-opacity="1" stroke-linecap="round" stroke-miterlimit="4" fill="#000000" fill-rule="nonzero" d="M45.271,16.024L40.054,16.013C27.114,15.982,16.048,26.498,15.96,39.13L15.96,52.629C15.96,55.654,15.506,57.801,14.362,59.546L13.34,61.106C11.014,64.639,13.518,69.39,17.739,69.39L67.664,69.39C71.884,69.39,74.384,64.641,72.062,61.104L71.042,59.547C69.898,57.8,69.443,55.645,69.443,52.626L69.443,39.146C69.29,26.511,58.222,16.055,45.271,16.024ZM45.263,19.582C56.305,19.609,65.756,28.538,65.885,39.168L65.885,52.626C65.885,56.275,66.475,59.067,68.065,61.496L69.086,63.056C69.867,64.245,69.032,65.831,67.664,65.831L17.739,65.831C16.37,65.831,15.534,64.245,16.314,63.059L17.337,61.497C18.93,59.069,19.518,56.285,19.518,52.629L19.518,39.143C19.592,28.516,29.032,19.545,40.046,19.571L45.263,19.582Z"/>
  <path stroke-opacity="1" stroke="none" stroke-dasharray="none" fill-opacity="1" stroke-miterlimit="4" stroke-linecap="round" stroke-width="3px" fill-rule="nonzero" fill="#000000" stroke-linejoin="round" d="M51.597,67.61C51.597,69.97,50.66,72.233,48.992,73.901C47.324,75.569,45.061,76.507,42.701,76.507C40.342,76.507,38.079,75.569,36.411,73.901C34.742,72.233,33.805,69.97,33.805,67.61C33.805,66.628,33.009,65.831,32.026,65.831C31.043,65.831,30.247,66.628,30.247,67.61C30.247,70.914,31.559,74.082,33.895,76.417C36.23,78.753,39.398,80.065,42.701,80.065C46.005,80.065,49.172,78.753,51.508,76.417C53.844,74.082,55.156,70.914,55.156,67.61C55.156,66.628,54.359,65.831,53.377,65.831C52.394,65.831,51.597,66.628,51.597,67.61Z"/>
  <path stroke-width="3px" stroke-linecap="round" fill-rule="nonzero" stroke-miterlimit="4" fill="#000000" fill-opacity="1" stroke-dasharray="none" stroke-linejoin="round" stroke-opacity="1" stroke="none" d="M42.701,8.896C44.117,8.896,45.475,9.459,46.476,10.459C47.477,11.461,48.039,12.818,48.039,14.234L48.039,17.792L49.818,16.013L35.584,16.013L37.364,17.792L37.364,14.234C37.364,12.818,37.926,11.461,38.927,10.459C39.928,9.459,41.286,8.896,42.701,8.896ZM42.701,5.338C40.342,5.338,38.079,6.275,36.411,7.943C34.743,9.612,33.805,11.874,33.805,14.234L33.805,17.792C33.805,18.775,34.602,19.571,35.584,19.571L49.818,19.571C50.801,19.571,51.597,18.775,51.597,17.792L51.597,14.234C51.597,11.874,50.66,9.612,48.992,7.943C47.324,6.275,45.061,5.338,42.701,5.338Z"/>
</g>
 </g>
</svg>
